<svg version="1.1" xmlns="http://www.w3.org/2000/svg" xmlns:xlink="http://www.w3.org/1999/xlink" width="107.83546" height="176.80638" viewBox="0,0,107.83546,176.80638"><defs><linearGradient x1="240.61952" y1="58.29926" x2="240.61952" y2="237.16749" gradientUnits="userSpaceOnUse" id="color-1"><stop offset="0" stop-color="#000000"/><stop offset="1" stop-color="#000000" stop-opacity="0"/></linearGradient><radialGradient cx="203.08061" cy="95.60366" r="9.91925" gradientUnits="userSpaceOnUse" id="color-2"><stop offset="0" stop-color="#99a5ff" stop-opacity="0"/><stop offset="1" stop-color="#99a5ff"/></radialGradient></defs><g transform="translate(-185.75001,-35.69376)"><g data-paper-data="{&quot;isPaintingLayer&quot;:true}" stroke-linecap="butt" stroke-linejoin="miter" stroke-miterlimit="10" stroke-dasharray="" stroke-dashoffset="0" style="mix-blend-mode: normal"><path d="M284.37023,179.70937c0.07585,1.88165 -6.82295,7.07192 -42.75929,7.07192c-35.93634,0 -45.96971,-4.43047 -45.98172,-7.45949c-0.01038,-2.6151 9.30175,-6.10294 45.23807,-6.10294c35.93634,0 43.43354,4.76932 43.50294,6.49051z" fill="url(#color-1)" fill-rule="nonzero" stroke="none" stroke-width="0"/><text transform="translate(228.34559,206.52039) scale(0.357,0.357)" font-size="40" xml:space="preserve" fill="#ffffff" fill-rule="nonzero" stroke="#ffffff" stroke-width="0.5" stroke-linecap="butt" stroke-linejoin="miter" stroke-miterlimit="10" stroke-dasharray="" stroke-dashoffset="0" font-family="Handwriting" font-weight="normal" text-anchor="start" style="mix-blend-mode: normal"></text><text transform="translate(195.08569,48.80262) scale(0.34497,0.34497)" font-size="40" xml:space="preserve" fill="#ffffff" fill-rule="nonzero" stroke="#ffffff" stroke-width="1" stroke-linecap="butt" stroke-linejoin="miter" stroke-miterlimit="10" stroke-dasharray="" stroke-dashoffset="0" font-family="Handwriting" font-weight="normal" text-anchor="start" style="mix-blend-mode: normal"></text><text transform="translate(197.93818,65.76541) scale(0.26747,0.26747)" font-size="40" xml:space="preserve" fill="#ffffff" fill-rule="nonzero" stroke="#ffffff" stroke-width="1" stroke-linecap="butt" stroke-linejoin="miter" stroke-miterlimit="10" stroke-dasharray="" stroke-dashoffset="0" font-family="Handwriting" font-weight="normal" text-anchor="start" style="mix-blend-mode: normal"></text><g fill-rule="evenodd" stroke="none" stroke-width="1"><path d="M255.18169,131.15655c-0.17371,0.26057 -0.46322,0.46322 -0.66588,0.72379c-0.46322,0.60798 -0.46322,1.15806 -0.20266,1.85289c0.57903,1.50547 0.20266,3.24257 -1.0133,4.31377c-0.57903,0.52113 -1.36072,0.83959 -2.11346,0.92645c-1.04225,0.1158 -0.98435,0.1158 -1.85289,0.95539c-0.72379,0.75274 -0.86855,2.0266 -1.62128,2.75039c-0.46322,0.46322 -1.21596,1.24491 -3.03991,0.92645c-0.98435,-0.20266 -1.70813,-0.49218 -2.66353,-0.69484c-1.41862,-0.28951 -1.24491,-0.14475 -2.25821,0.69484c-1.36072,1.10016 -3.35837,1.76603 -4.77699,0.52112c-0.75274,-0.66589 -1.12911,-1.47652 -1.70813,-2.25821c-0.86854,-1.18701 -1.85289,-1.10016 -3.18466,-1.18701c-1.50547,-0.08686 -2.51878,-1.41862 -2.51878,-2.982c-0.02895,-1.0133 0.1158,-2.11345 -0.46322,-3.0399c-0.43427,-0.69483 -0.86855,-1.21597 -1.36072,-1.8529c-1.27387,-1.59233 -0.75274,-3.15571 0.02895,-4.80594c0.57903,-1.21596 -0.8396,-1.82394 -0.52113,-3.01095c0.20266,-0.75274 2.40297,-1.79499 2.54773,-3.76369c0.05791,-0.75274 -0.1737,-3.1557 1.47653,-2.98199c0.49218,0.05791 1.15806,0.08685 1.59233,-0.20266c0.55007,-0.37637 0.55008,-0.55008 0.66589,-1.15806c0.34742,-1.85289 1.50547,-2.8083 3.41627,-2.22927c0.72379,0.23161 1.27387,0.57903 2.0266,0.49218c0.78169,-0.08685 1.15806,-0.66589 1.79499,-1.04225c0.69483,-0.43427 1.70814,-0.81064 2.54773,-0.60798c0.81064,0.20266 0.92644,0.8396 1.38967,1.44758c0.9554,1.24491 2.11346,0.1737 3.27151,0.02895c1.41862,-0.17371 2.60564,0.63693 2.89515,1.85289c0.1158,0.46322 0.26056,0.78169 0.57903,1.12911c0.43427,0.46322 0.63693,0.49218 1.21596,0.52113c0.69483,0.02895 1.65023,0.34741 2.14241,0.83959c1.38967,1.44757 0.1158,3.35836 0.28951,5.09545c0.1158,1.30281 1.187,1.65023 1.91079,2.54773c0.46322,0.55008 0.72378,1.27386 0.75274,1.99765c0.02895,0.78169 -0.1737,1.56338 -0.57903,2.20031z" fill="#df6530"/><path d="M253.79202,132.08299c0.23161,1.0133 0.31846,2.11346 -0.31847,3.01095c-0.37637,0.52113 -0.89749,0.49218 -1.27387,0.89749c-0.9554,1.04225 -0.26056,2.54773 -1.12911,3.8795c-0.49218,0.75274 -2.05554,0.86854 -2.98199,0.92645c-0.08685,0 -0.55007,0.08685 -0.60798,0.46322c-0.40532,1.44757 -2.08451,1.67919 -3.50313,1.795c-1.0712,0.08686 -1.9108,0.72379 -3.01095,0.55008c-0.49218,-0.08686 -0.98434,-0.34742 -1.47652,-0.40532c-0.75274,-0.08686 -1.01331,0.26056 -1.65024,0.34742c-0.9554,0.08686 -1.50548,-0.63693 -2.31612,-0.9554c-0.83959,-0.31847 -1.76604,-0.20266 -2.57668,-0.63693c-0.86854,-0.46322 -1.33176,-1.36072 -2.1424,-1.88185c-0.63693,-0.40533 -1.0133,-0.8975 -1.33177,-1.59233c-0.28951,-0.57903 -0.34742,-1.01329 -0.92645,-1.38967c-0.28951,-0.20266 -0.52112,-0.26056 -0.78169,-0.52112c-0.63693,-0.63693 -1.41861,-0.92645 -1.53442,-2.60563c-0.02895,-0.49218 -0.20266,-0.8396 -0.20266,-1.33176c0,-0.52113 -0.05791,-0.86855 -0.20266,-1.41862c-0.28951,-0.9554 0.14476,-1.88184 0.34742,-2.86619c0.23161,-1.24491 -0.05791,-2.22927 0,-3.50313c0.02895,-0.8975 0.31847,-1.56337 0.9554,-2.20031c0.40533,-0.37637 0.92645,-0.60798 1.24491,-1.10016c0.34742,-0.55008 0.43427,-1.21596 0.69483,-1.79499c0.31847,-0.72379 0.75274,-1.30282 1.50548,-1.65023c0.05791,-0.02895 2.40296,-0.8396 4.19796,-2.60563c1.15805,-1.15806 2.60563,-0.14476 4.11111,-0.08685c1.67918,0.05791 3.06886,-0.69483 4.71909,-0.0579c0.75274,0.28951 1.44757,0.78169 2.20031,1.0133c0.72379,0.23161 1.15806,-0.02895 1.9108,0.14476c1.41862,0.34741 2.05555,2.89514 3.0978,4.14006c1.04225,1.21596 2.43192,1.36071 2.80829,3.0399c0.20266,0.81064 -0.08686,1.59232 0.26056,2.34506c0.28951,0.60798 0.78169,1.07121 0.98435,1.70814c0.43427,1.41863 -1.33177,3.35837 -1.0712,4.34272z" fill="#ea9b1f"/><path d="M240.12693,116.04389c1.47653,0 3.1557,0.9554 4.48747,1.44758c1.41862,0.49218 2.63458,0.37636 3.79264,1.30281c1.0712,0.86854 0.95541,1.99765 1.70814,3.18466c0.52113,0.81064 1.93974,1.44758 2.43192,2.48982c0.69483,1.44757 0.40532,3.32941 0.40532,4.77698c0,0.98435 0.40532,2.8662 0.20266,3.79264c-0.49218,2.14241 -2.69249,2.80829 -4.08215,4.40062c-1.12911,1.27387 -1.85289,2.63458 -3.38732,3.35837c-1.67918,0.81064 -3.0978,1.9687 -5.09545,1.9687c-1.0712,0 -2.57668,-1.44757 -3.56103,-1.70814c-1.33177,-0.31847 -3.93739,0.31847 -4.57432,-0.86854c-2.14241,-4.0532 -2.83725,-3.50312 -3.85055,-5.0086c-1.36072,-2.0266 -0.89749,-3.44522 -0.89749,-6.0798c0,-1.36072 -0.75274,-2.66354 -0.34742,-3.8795c0.49218,-1.53443 1.85289,-2.80828 2.83724,-4.02424c1.38967,-1.73709 3.96635,-2.46088 6.05086,-3.30047c1.38967,-0.55008 2.22926,-1.85289 3.87949,-1.85289z" fill="#f3bb1b"/><path d="M228.57531,129.24575c0,-6.37979 5.17184,-11.55163 11.55163,-11.55163c6.37979,0 11.55163,5.17184 11.55163,11.55163c0,6.37979 -5.17184,11.55163 -11.55163,11.55163c-6.37979,0 -11.55163,-5.17183 -11.55163,-11.55163z" fill="#f9d20d"/></g><path d="M292.33547,129.50001c0,27.61424 -23.58015,50 -52.66773,50c-29.08759,0 -52.66773,-22.38576 -52.66773,-50c0,-27.61424 23.58014,-50 52.66773,-50c29.08759,0 52.66773,22.38576 52.66773,50z" fill="none" fill-rule="nonzero" stroke="#ffffff" stroke-width="2.5"/><g fill-rule="nonzero" stroke="none" stroke-width="0"><path d="M212.65841,95.41379c0,5.2442 -4.31567,9.49546 -9.63933,9.49546c-5.32365,0 -9.63933,-4.25126 -9.63933,-9.49546c0,-5.24419 4.31567,-9.49546 9.63933,-9.49546c5.32365,0 9.63933,4.25126 9.63933,9.49546z" fill="#4f64ff"/><path d="M211.34665,100.07084c-0.93478,1.91908 -4.4751,5.05696 -8.33639,4.94204c-5.10334,-0.15188 -7.16777,-3.25736 -8.26604,-4.73099c-0.67911,-0.91122 4.55031,0.9673 8.68814,0.9673c4.13783,0 8.11022,-2.40131 7.9143,-1.17835z" fill="#402fc7"/><path d="M203.08061,90.68689c-4.13783,0 -9.4376,1.38607 -8.75849,0.47486c0.80756,-1.08356 1.41885,-2.57985 3.67333,-3.69577c0.98622,-0.48816 2.46801,0.69336 5.1555,0.58281c2.47707,-0.02766 3.46228,-1.17498 4.32882,-0.84478c2.73361,1.04168 3.57919,2.71161 4.28898,4.16879c0.19592,1.22296 -4.55031,-0.68591 -8.68814,-0.68591z" data-paper-data="{&quot;index&quot;:null}" fill="#402fc7"/><path d="M204.74975,96.91736c0,0.38172 -0.82632,0.48771 -1.88302,0.82479c-1.31309,0.41886 -3.01501,1.02917 -4.31711,1.02917c-0.3223,0 -1.23625,0.09524 -2.09064,-0.24359c-1.07228,-0.42524 -2.08572,-1.32445 -2.11498,-1.57263c-0.02223,-0.18855 0.62815,-1.09698 1.50914,-1.56206c1.02603,-0.54164 2.34318,-0.63357 2.93961,-0.63357c1.47229,0 3.19486,0.75414 4.45782,1.34636c0.75288,0.35304 1.49917,0.4918 1.49917,0.81153z" fill="#402fc7"/><path d="M201.53191,98.35588c-0.00902,0.34956 -1.45632,0.73829 -3.14586,0.69469c-1.68954,-0.0436 -2.91116,-0.50302 -2.90214,-0.85258c0.00902,-0.34956 1.24528,0.59835 2.93481,0.64195c1.68954,0.0436 3.12221,-0.83362 3.11319,-0.48406z" fill="#ffffff"/><path d="M196.36275,97.19923c0.59694,0.6749 1.99937,-0.40654 1.41344,0.13297c-0.58593,0.53951 -1.40227,0.60615 -1.82335,0.14884c-0.42108,-0.45731 -0.3433,-1.11834 0.24262,-1.65785c0.58593,-0.53951 -0.38635,0.75009 0.16729,1.37603z" fill="#ffffff"/><path d="M204.48759,93.17661c0,0.21369 -2.60281,-0.52762 -3.90438,-0.52762c-1.30157,0 -3.20089,0.67096 -3.20089,0.45727c0,-0.21369 1.96967,-0.73867 3.27124,-0.73867c1.30157,0 3.83404,0.59533 3.83404,0.80902z" fill="#ffffff"/><path d="M212.43706,97.29204c0,0.34968 -1.50976,0.4221 -3.02502,0.4221c-1.51526,0 -3.09537,-0.21312 -3.09537,-0.56279c0,-0.34968 1.72081,0.21105 3.23607,0.21105c1.51526,0 2.88432,-0.42003 2.88432,-0.07035z" fill="#ffffff"/><path d="M204.06543,88.14508c-0.02118,0.1847 -1.02812,0.46734 -2.58967,0.28824c-1.56156,-0.17909 -3.49112,-0.98333 -3.46994,-1.16803c0.02118,-0.1847 1.92943,0.63181 3.49099,0.81091c1.56156,0.17909 2.58981,-0.11582 2.56862,0.06888z" fill="#ffffff"/><path d="M204.55794,102.14614c0.20559,0.17804 -1.48976,0.35175 -3.58781,0.35175c-2.09805,0 -3.72851,-0.64257 -3.72851,-0.91454c0,-0.27197 1.56011,0.70349 3.65816,0.70349c2.09805,0 3.58781,-0.20162 3.65816,-0.1407z" fill="#ffffff"/><path d="M212.99986,95.60366c0,5.36169 -4.441,9.7082 -9.91925,9.7082c-5.47825,0 -9.91925,-4.34651 -9.91925,-9.7082c0,-5.36169 4.441,-9.7082 9.91925,-9.7082c5.47825,0 9.91925,4.34651 9.91925,9.7082z" fill="url(#color-2)"/></g></g></g></svg>