<svg version="1.1" xmlns="http://www.w3.org/2000/svg" xmlns:xlink="http://www.w3.org/1999/xlink" width="110.24164" height="163.91711" viewBox="0,0,110.24164,163.91711"><defs><linearGradient x1="240.76947" y1="58.29922" x2="240.76947" y2="237.16742" gradientUnits="userSpaceOnUse" id="color-1"><stop offset="0" stop-color="#000000"/><stop offset="1" stop-color="#000000" stop-opacity="0"/></linearGradient></defs><g transform="translate(-184.87917,-42.65869)"><g data-paper-data="{&quot;isPaintingLayer&quot;:true}" fill-rule="nonzero" stroke-linecap="butt" stroke-linejoin="miter" stroke-miterlimit="10" stroke-dasharray="" stroke-dashoffset="0" style="mix-blend-mode: normal"><path d="M295.12005,179.7093c0.09422,1.88165 -8.47599,7.07192 -53.11886,7.07192c-44.64286,0 -57.10709,-4.43047 -57.12201,-7.45949c-0.0129,-2.6151 11.55535,-6.10294 56.19819,-6.10294c44.64286,0 53.95646,4.76932 54.04268,6.49051z" fill="url(#color-1)" stroke="none" stroke-width="0"/><text transform="translate(227.62805,201.72801) scale(0.28942,0.28942)" font-size="40" xml:space="preserve" fill="#000000" fill-rule="nonzero" stroke="#000000" stroke-width="0.5" stroke-linecap="butt" stroke-linejoin="miter" stroke-miterlimit="10" stroke-dasharray="" stroke-dashoffset="0" font-family="Handwriting" font-weight="normal" text-anchor="start" style="mix-blend-mode: normal"></text><text transform="translate(200.10478,68.80703) scale(0.23622,0.23622)" font-size="40" xml:space="preserve" fill="#000000" fill-rule="nonzero" stroke="#000000" stroke-width="1" stroke-linecap="butt" stroke-linejoin="miter" stroke-miterlimit="10" stroke-dasharray="" stroke-dashoffset="0" font-family="Handwriting" font-weight="normal" text-anchor="start" style="mix-blend-mode: normal"></text><text transform="translate(212.71926,54.17117) scale(0.30296,0.30296)" font-size="40" xml:space="preserve" fill="#000000" fill-rule="nonzero" stroke="#000000" stroke-width="1" stroke-linecap="butt" stroke-linejoin="miter" stroke-miterlimit="10" stroke-dasharray="" stroke-dashoffset="0" font-family="Handwriting" font-weight="normal" text-anchor="start" style="mix-blend-mode: normal"></text><g stroke="none"><g><g><path d="M252.25609,170.54429c-1.08009,-1.24311 -13.09741,-3.92677 -24.81917,-11.62279c-8.65357,-5.68158 -16.33389,-13.31809 -22.9675,-19.53117c-7.24157,-7.34994 -8.33282,-21.18492 -11.51084,-27.46464c-2.54345,-5.02585 2.79724,-15.62859 3.76928,-16.90948c0.87588,-1.15384 3.02754,-2.00055 5.51838,-2.98099c1.86146,-0.7323 3.78568,-1.48958 4.69887,-2.25025c0.84934,-0.7068 1.76683,-1.68524 2.73802,-2.72097c2.36884,-2.52656 5.05404,-5.39043 8.13697,-5.74023c3.32777,-0.3788 6.96095,0.83651 10.1662,1.90854c2.3322,0.77987 4.53479,1.51644 6.13551,1.47249c1.68073,-0.04621 3.32836,-0.32603 4.92225,-0.59699c3.45953,-0.58762 6.72718,-1.14319 9.86007,0.67918c1.20858,0.7028 2.22371,1.53687 3.10253,2.54833c1.21839,1.40228 3.11608,3.27593 3.9799,4.94523c1.0463,2.02177 19.50612,14.82183 24.17053,18.91861c0.99148,0.87018 1.90722,1.78724 2.72232,2.72535c7.84302,9.02677 7.04563,21.0345 -2.03038,30.59284c-3.68811,3.88289 -2.38621,8.07855 -0.87829,12.93611c1.15733,3.72901 2.35409,7.58549 1.32601,11.63354c-1.53761,6.05101 -5.66404,8.22949 -8.85451,8.99187c-6.42007,1.53252 -14.76423,-1.32261 -19.40852,-6.64338l-0.77764,-0.89116z" fill="#91b6c5" stroke-width="0.66342"/><path d="M281.97307,114.0138c-0.78136,-0.89929 -1.65719,-1.77895 -2.6341,-2.63706c-5.58428,-4.90394 -10.31317,-6.67016 -16.63491,-11.94058c-3.77958,-3.15103 -10.65557,-10.92028 -11.60453,-12.01247c-0.75419,-0.86801 -1.66756,-1.65669 -2.86819,-2.35504c-4.22963,-2.46062 -8.96824,-0.103 -14.2903,0.04324c-4.05725,0.11114 -10.69381,-4.01512 -16.22223,-3.38689c-3.92535,0.44524 -7.41846,5.7845 -10.3841,8.25204c-2.19785,1.82926 -8.72198,3.30049 -10.0727,5.07857c-0.81025,1.06788 -5.47556,12.73809 -4.81331,14.30791c0.69621,1.5382 8.20973,23.88401 11.27346,27.49933c2.4698,2.91446 16.35824,17.02191 26.53018,23.2466c6.30159,2.83592 21.60481,8.27398 22.49979,9.30405c0.2636,0.30338 0.52187,0.60063 0.77543,0.89048c6.78581,7.77328 23.41233,10.82856 26.66364,-1.96604c2.27472,-8.95539 -7.27073,-17.55778 -0.22093,-24.98073c7.82795,-8.24273 10.27426,-19.82354 2.00279,-29.34343M282.17904,114.53548l1.40228,-1.21839v0c4.2342,4.87327 6.12903,10.60291 5.48043,16.56883c-0.58868,5.41756 -3.19597,10.69823 -7.53822,15.27165c-3.15304,3.31957 -2.307,6.73101 -0.66492,12.02147c1.13983,3.673 2.43175,7.83554 1.33852,12.1379c-1.28818,5.07215 -4.67656,8.50508 -9.53923,9.66629c-6.73127,1.60768 -15.46808,-1.37378 -20.32376,-6.93586l-0.77824,-0.89385c-1.63462,-1.88134 -11.35862,-3.24669 -21.07023,-9.17256c-11.44907,-6.98604 -23.29693,-18.79215 -27.90071,-23.18376c-5.98507,-6.41141 -9.74838,-24.36964 -11.40217,-27.52098c-1.62568,-3.09775 3.65963,-15.3094 4.80673,-16.82091c1.03299,-1.36107 3.29626,-2.25209 5.91738,-3.28352c1.70902,-0.67281 3.64677,-1.43529 4.44577,-2.10083c0.80458,-0.66952 1.70272,-1.62781 2.6539,-2.64219c2.47794,-2.64348 5.28707,-5.63951 8.70844,-6.02756c3.53255,-0.40168 7.26957,0.84805 10.56701,1.95076c2.252,0.75274 4.37861,1.46419 5.81531,1.425c1.61487,-0.04474 3.22998,-0.31845 4.79234,-0.58415c3.47068,-0.59001 7.05901,-1.19929 10.48281,0.79268c1.29803,0.75467 2.38943,1.65203 3.33651,2.74205c0.05692,0.06551 4.84901,6.12411 10.77776,11.12395c6.68425,5.63696 14.7204,10.39988 17.28415,12.65111c1.02283,0.89871 1.96814,1.8451 2.81041,2.8145z" fill="#000000" stroke-width="0.66342"/><path d="M282.01682,113.99755c8.27147,9.51989 5.82406,21.13587 -2.00388,29.3786c-7.0498,7.42296 2.48364,16.04162 0.20891,24.997c-3.25131,12.7946 -19.89918,9.74985 -26.68499,1.97657c-0.25357,-0.28985 -0.51247,-0.58698 -0.77607,-0.89036c-0.89498,-1.03007 -16.22611,-6.47146 -22.5277,-9.30738c-10.17194,-6.22469 -24.08671,-20.36461 -26.55651,-23.27907c-3.06373,-3.61532 -10.5757,-25.98664 -11.27192,-27.52484c-0.66225,-1.56982 4.00863,-13.251 4.81888,-14.31888c1.35072,-1.77808 7.88042,-3.25599 10.07826,-5.08525c2.96563,-2.46755 6.46792,-7.81389 10.39328,-8.25913c5.52842,-0.62823 12.1771,3.49303 16.23435,3.38188c5.32206,-0.14624 10.0759,-2.50519 14.30553,-0.04456c1.20063,0.69835 2.11746,1.48742 2.87165,2.35544c0.94896,1.09219 7.84269,8.86805 11.62226,12.01908c6.32174,5.27042 11.06793,7.05609 16.65221,11.96003c0.97691,0.8581 1.85436,1.74158 2.63572,2.64088" data-paper-data="{&quot;noHover&quot;:false,&quot;origItem&quot;:[&quot;Path&quot;,{&quot;applyMatrix&quot;:true,&quot;segments&quot;:[[[511.65133,341.12088],[0,0],[-2.5528,0]],[[503.68373,341.67548],[2.761,-0.3742],[-15.78063,2.14072]],[[460.99016,351.80163],[17.40988,-2.81853],[-10.40884,1.68511]],[[425.25013,353.68988],[3.10035,0],[-2.464,0]],[[417.40973,355.01948],[2.817,-0.9606],[-9.9246,3.3834]],[[397.39573,378.19548],[7.2432,-8.8142],[-5.5224,6.719]],[[369.11813,399.67568],[6.7536,-9.8254],[-4.7966,6.9752]],[[367.87213,428.07008],[0.1766,-8.265],[-0.13,6.126]],[[361.93053,451.50068],[-0.9778,-4.6838],[0.5886,2.81144]],[[378.3095,479.39514],[-3.47,-1.13504],[3.46659,1.03566]],[[438.63496,499.80805],[-10.15378,-0.12534],[8.18539,0.10104]],[[513.52363,489.56561],[-24.36464,7.70526],[13.44364,-6.20745]],[[560.19513,466.24728],[-2.92402,0],[0.8612,0]],[[562.72533,466.24448],[-0.8252,0.0028],[22.1106,-0.0516]],[[597.01893,420.35168],[16.1264,23.241],[-11.2888,-16.2656]],[[556.30093,385.60048],[2.099,21.8358],[-2.3314,-24.2466]],[[511.65133,341.12088],[27.0238,0],[0,0]]],&quot;fillColor&quot;:[0,0,0,1]}]}" fill="#c4876a" stroke-width="0.5"/></g><path d="M238.44548,95.94033c-1.92036,-3.65175 -4.71339,-5.51259 -8.68749,-6.43009c-2.92317,-0.67565 -6.20847,-0.82673 -8.93789,-2.14317c-0.44316,-0.21462 -0.39589,-1.0391 0.18699,-0.93191c7.23359,1.32876 15.80515,0.96111 19.48207,8.52934c0.63898,1.31418 -1.36471,2.26516 -2.04368,0.97583z" fill="#231f20" stroke-width="0.66342"/><path d="M225.98979,90.75565c-0.23226,-0.22391 0.11385,-0.6034 0.36987,-0.42301c5.28677,3.76511 11.76471,4.73592 14.43137,11.29438c0.48735,1.19815 -1.32177,2.07935 -1.8199,0.87165c-1.39068,-3.36886 -3.51036,-5.75652 -6.73086,-7.46827c-2.31765,-1.23045 -4.35746,-2.44809 -6.25048,-4.27475z" fill="#231f20" stroke-width="0.66342"/><path d="M259.09055,150.45305c2.49863,0.35224 5.50568,0.98369 7.96425,0.19279c1.78309,-0.57148 3.50578,-1.62772 4.47226,-3.29104c0.89225,-1.53244 0.60149,-2.71111 0.91575,-4.2687c0.42696,-2.1256 3.07907,-6.1058 5.38969,-6.53348c0.71056,-0.1301 1.17321,0.53175 1.01937,1.17323c-0.35185,1.47377 -2.42268,2.89976 -3.38126,3.97634c-1.66216,1.86903 -1.03102,4.7347 -2.7934,6.66299c-3.50431,3.84042 -8.8413,3.97416 -13.66793,3.24619c-0.73483,-0.1113 -0.66323,-1.26283 0.08128,-1.15832z" fill="#231f20" stroke-width="0.66342"/><path d="M254.19785,152.08659c-0.31816,-0.2075 -0.06244,-0.76105 0.30077,-0.60827c2.65174,1.12885 5.77437,2.75909 8.71309,2.80771c1.55546,0.02492 3.54543,-0.07335 4.82556,-1.11513c0.68561,-0.55713 1.22668,-1.17486 2.01574,-1.5799c0.56909,-0.29107 1.25534,0.31276 1.03048,0.91505c-0.96477,2.57149 -4.9102,3.00215 -7.27439,2.73007c-3.48418,-0.39989 -6.67226,-1.23499 -9.61125,-3.14953z" fill="#231f20" stroke-width="0.66342"/><path d="M276.0901,114.28334c-2.47958,-2.60081 -5.29075,-2.89552 -8.53116,-3.94282c-2.67736,-0.86376 -4.73401,-2.03561 -7.00846,-3.66118c-0.04641,-0.03349 0.00129,-0.1004 0.0488,-0.0712c3.08856,1.84691 6.71681,2.759 10.16398,3.63642c2.33979,0.59435 4.72991,1.2361 6.19253,3.28662c0.42341,0.59505 -0.34852,1.29444 -0.86569,0.75216z" fill="#231f20" stroke-width="0.66342"/></g><path d="M243.32282,119.05045c-2.19016,1.90295 -7.20694,2.00358 -9.95942,-1.16433c-2.75248,-3.16791 -6.03397,-6.81195 -3.84381,-8.71491c2.19016,-1.90295 9.34301,-2.11968 12.09549,1.04824c2.75248,3.16791 3.8979,6.92805 1.70774,8.831zM234.64737,117.78965c1.69044,1.94558 5.5751,1.80335 7.52068,0.11291c1.94558,-1.69044 -0.41264,-4.73503 -2.10308,-6.68061c-1.69044,-1.94558 -7.24507,-2.83312 -9.19065,-1.14269c-1.94558,1.69044 2.08262,5.76481 3.77305,7.71039z" fill="#231f20" stroke-width="0"/><path d="M273.1871,132.25348c-2.81592,2.44665 -8.32385,3.57873 -11.31419,0.13705c-2.99034,-3.44168 -4.34375,-9.89611 -1.52782,-12.34276c2.81592,-2.44665 10.79194,-2.74057 13.78229,0.70112c2.99034,3.44168 1.87565,9.05794 -0.94027,11.50459zM272.49349,122.20202c-2.47233,-2.38629 -10.87149,-1.34899 -11.43877,-0.21598c-0.37754,0.75406 -2.28161,5.3338 2.33724,9.80827c1.95236,1.89133 6.40813,0.41035 7.69685,-0.3237c3.49205,-1.98904 2.14451,-8.55452 1.40468,-9.2686z" fill="#231f20" stroke-width="0"/><path d="M241.23176,149.70199c-3.16791,2.75248 -9.72255,2.11195 -12.98475,-1.64261c-3.2622,-3.75457 -4.50186,-9.51017 -1.33395,-12.26265c3.16791,-2.75248 7.93013,0.68816 11.19233,4.44272c3.2622,3.75457 6.29429,6.71006 3.12637,9.46254zM241.08184,146.73637c0.02534,-1.20919 -8.79911,-10.38446 -12.29953,-10.14314c-0.88002,0.06067 -4.75172,5.07709 0.61631,10.81027c5.53229,5.90862 11.66268,0.31296 11.68322,-0.66714z" fill="#231f20" stroke-width="0"/><path d="M203.9389,99.17423c0.07282,-2.90091 3.45732,-5.94773 6.89544,-5.86142c3.43813,0.08631 6.95416,2.1384 6.88134,5.03931c-0.07282,2.90091 -4.05043,3.72668 -7.48856,3.64037c-3.43813,-0.08631 -6.36104,0.08266 -6.28822,-2.81826zM205.37017,100.05093c0.84522,0.97279 10.07312,0.55231 10.76026,-0.97666c0.52827,-1.17543 -2.38159,-4.30169 -5.17179,-4.17921c-5.26211,0.23098 -6.43369,4.18309 -5.58847,5.15587z" fill="#231f20" stroke-width="0"/></g></g></g></svg>