<svg version="1.1" xmlns="http://www.w3.org/2000/svg" xmlns:xlink="http://www.w3.org/1999/xlink" width="118.44271" height="165.79184" viewBox="0,0,118.44271,165.79184"><defs><linearGradient x1="240.61953" y1="58.29928" x2="240.61953" y2="237.16751" gradientUnits="userSpaceOnUse" id="color-1"><stop offset="0" stop-color="#000000"/><stop offset="1" stop-color="#000000" stop-opacity="0"/></linearGradient><linearGradient x1="241.52677" y1="98.71113" x2="241.52677" y2="129.68189" gradientUnits="userSpaceOnUse" id="color-2"><stop offset="0" stop-color="#bfd3f2"/><stop offset="1" stop-color="#6b88b5"/></linearGradient><radialGradient cx="241.10825" cy="115.31257" r="56.77972" gradientUnits="userSpaceOnUse" id="color-3"><stop offset="0" stop-color="#f3f3f3"/><stop offset="1" stop-color="#f3f3f3" stop-opacity="0"/></radialGradient><radialGradient cx="240.40854" cy="116.60098" r="28.52936" gradientUnits="userSpaceOnUse" id="color-4"><stop offset="0" stop-color="#ffffff"/><stop offset="1" stop-color="#ffffff" stop-opacity="0"/></radialGradient><linearGradient x1="239.42981" y1="125.00894" x2="239.42981" y2="136.72761" gradientUnits="userSpaceOnUse" id="color-5"><stop offset="0" stop-color="#572e0a"/><stop offset="1" stop-color="#631e0f"/></linearGradient><radialGradient cx="226.98312" cy="132.94893" r="2.31552" gradientUnits="userSpaceOnUse" id="color-6"><stop offset="0" stop-color="#ded9cc"/><stop offset="1" stop-color="#ded9cc" stop-opacity="0"/></radialGradient><radialGradient cx="219.56235" cy="126.02831" r="3.67013" gradientUnits="userSpaceOnUse" id="color-7"><stop offset="0" stop-color="#ffffff"/><stop offset="1" stop-color="#ffffff" stop-opacity="0"/></radialGradient><radialGradient cx="192.34639" cy="124.30853" r="2.31552" gradientUnits="userSpaceOnUse" id="color-8"><stop offset="0" stop-color="#ffffff"/><stop offset="1" stop-color="#ffffff" stop-opacity="0"/></radialGradient><radialGradient cx="187.15057" cy="120.73766" r="1.71296" gradientUnits="userSpaceOnUse" id="color-9"><stop offset="0" stop-color="#dedede"/><stop offset="1" stop-color="#dedede" stop-opacity="0"/></radialGradient><radialGradient cx="201.23874" cy="124.40593" r="1.71296" gradientUnits="userSpaceOnUse" id="color-10"><stop offset="0" stop-color="#dedede"/><stop offset="1" stop-color="#dedede" stop-opacity="0"/></radialGradient><radialGradient cx="208.8058" cy="133.12514" r="1.71296" gradientUnits="userSpaceOnUse" id="color-11"><stop offset="0" stop-color="#dedcd7"/><stop offset="1" stop-color="#dedcd7" stop-opacity="0"/></radialGradient><radialGradient cx="202.29655" cy="121.79957" r="1.71296" gradientUnits="userSpaceOnUse" id="color-12"><stop offset="0" stop-color="#dedede"/><stop offset="1" stop-color="#dedede" stop-opacity="0"/></radialGradient><radialGradient cx="190.5702" cy="113.15948" r="0.94813" gradientUnits="userSpaceOnUse" id="color-13"><stop offset="0" stop-color="#ffffff"/><stop offset="1" stop-color="#ffffff" stop-opacity="0"/></radialGradient><radialGradient cx="216.97" cy="118.50081" r="0.94813" gradientUnits="userSpaceOnUse" id="color-14"><stop offset="0" stop-color="#ffffff"/><stop offset="1" stop-color="#ffffff" stop-opacity="0"/></radialGradient><radialGradient cx="183.78975" cy="115.85264" r="0.94814" gradientUnits="userSpaceOnUse" id="color-15"><stop offset="0" stop-color="#ffffff"/><stop offset="1" stop-color="#ffffff" stop-opacity="0"/></radialGradient><radialGradient cx="196.11325" cy="114.46516" r="0.94814" gradientUnits="userSpaceOnUse" id="color-16"><stop offset="0" stop-color="#ffffff"/><stop offset="1" stop-color="#ffffff" stop-opacity="0"/></radialGradient><radialGradient cx="273.31645" cy="131.94892" r="2.31553" gradientUnits="userSpaceOnUse" id="color-17"><stop offset="0" stop-color="#ded9cc"/><stop offset="1" stop-color="#ded9cc" stop-opacity="0"/></radialGradient><radialGradient cx="284.89568" cy="123.69498" r="3.67014" gradientUnits="userSpaceOnUse" id="color-18"><stop offset="0" stop-color="#ffffff"/><stop offset="1" stop-color="#ffffff" stop-opacity="0"/></radialGradient><radialGradient cx="267.67972" cy="126.97519" r="2.31552" gradientUnits="userSpaceOnUse" id="color-19"><stop offset="0" stop-color="#ffffff"/><stop offset="1" stop-color="#ffffff" stop-opacity="0"/></radialGradient><radialGradient cx="262.4839" cy="123.40433" r="1.71296" gradientUnits="userSpaceOnUse" id="color-20"><stop offset="0" stop-color="#dedede"/><stop offset="1" stop-color="#dedede" stop-opacity="0"/></radialGradient><radialGradient cx="283.90541" cy="112.0726" r="1.71296" gradientUnits="userSpaceOnUse" id="color-21"><stop offset="0" stop-color="#dedede"/><stop offset="1" stop-color="#dedede" stop-opacity="0"/></radialGradient><radialGradient cx="277.8058" cy="130.45846" r="1.71296" gradientUnits="userSpaceOnUse" id="color-22"><stop offset="0" stop-color="#dedcd7"/><stop offset="1" stop-color="#dedcd7" stop-opacity="0"/></radialGradient><radialGradient cx="270.29655" cy="124.46624" r="1.71296" gradientUnits="userSpaceOnUse" id="color-23"><stop offset="0" stop-color="#dedede"/><stop offset="1" stop-color="#dedede" stop-opacity="0"/></radialGradient><radialGradient cx="262.90353" cy="113.15948" r="0.94814" gradientUnits="userSpaceOnUse" id="color-24"><stop offset="0" stop-color="#ffffff"/><stop offset="1" stop-color="#ffffff" stop-opacity="0"/></radialGradient><radialGradient cx="289.63666" cy="119.16748" r="0.94814" gradientUnits="userSpaceOnUse" id="color-25"><stop offset="0" stop-color="#ffffff"/><stop offset="1" stop-color="#ffffff" stop-opacity="0"/></radialGradient><radialGradient cx="262.78975" cy="128.5193" r="0.94814" gradientUnits="userSpaceOnUse" id="color-26"><stop offset="0" stop-color="#ffffff"/><stop offset="1" stop-color="#ffffff" stop-opacity="0"/></radialGradient><radialGradient cx="256.77992" cy="133.13183" r="0.94814" gradientUnits="userSpaceOnUse" id="color-27"><stop offset="0" stop-color="#ffffff"/><stop offset="1" stop-color="#ffffff" stop-opacity="0"/></radialGradient></defs><g transform="translate(-182.565,-41.91435)"><g data-paper-data="{&quot;isPaintingLayer&quot;:true}" fill-rule="nonzero" stroke-linecap="butt" stroke-linejoin="miter" stroke-miterlimit="10" stroke-dasharray="" stroke-dashoffset="0" style="mix-blend-mode: normal"><path d="M284.37023,179.70939c0.07585,1.88165 -6.82295,7.07192 -42.75929,7.07192c-35.93634,0 -45.96971,-4.43047 -45.98172,-7.45949c-0.01038,-2.6151 9.30175,-6.10294 45.23807,-6.10294c35.93634,0 43.43354,4.76932 43.50294,6.49051z" fill="url(#color-1)" stroke="none" stroke-width="0"/><text transform="translate(216.23336,201.72644) scale(0.357,0.357)" font-size="40" xml:space="preserve" fill="#ffffff" fill-rule="nonzero" stroke="#ffffff" stroke-width="0.5" stroke-linecap="butt" stroke-linejoin="miter" stroke-miterlimit="10" stroke-dasharray="" stroke-dashoffset="0" font-family="Handwriting" font-weight="normal" text-anchor="start" style="mix-blend-mode: normal"></text><text transform="translate(191.19243,55.02321) scale(0.34497,0.34497)" font-size="40" xml:space="preserve" fill="#ffffff" fill-rule="nonzero" stroke="#ffffff" stroke-width="1" stroke-linecap="butt" stroke-linejoin="miter" stroke-miterlimit="10" stroke-dasharray="" stroke-dashoffset="0" font-family="Handwriting" font-weight="normal" text-anchor="start" style="mix-blend-mode: normal"></text><path d="M300.12009,114.47552c0,8.55234 -26.23312,15.20636 -58.59331,15.20636c-32.36019,0 -58.3143,-7.21206 -58.3143,-15.7644c0,-5.76218 29.30229,-12.41621 58.59331,-12.41621c32.36019,0 58.31429,7.21206 58.31429,12.97423z" fill="url(#color-2)" stroke="none" stroke-width="0"/><path d="M297.88796,115.31257c0,27.66026 -25.42114,50.08333 -56.77972,50.08333c-31.35856,0 -56.77972,-22.42308 -56.77972,-50.08333c0,-27.66026 25.42114,-50.08333 56.77972,-50.08333c31.35856,0 56.77972,22.42307 56.77972,50.08333z" fill="url(#color-3)" stroke="none" stroke-width="0"/><path d="M268.9379,116.60098c0,13.65549 -11.93599,33.09592 -27.69231,33.09592c-15.75634,0 -29.36641,-19.44043 -29.36641,-33.09592c0,-13.65549 13.19156,-31.84035 28.94788,-31.84035c15.75634,0 28.11084,18.18486 28.11084,31.84035z" fill="url(#color-4)" stroke="none" stroke-width="0"/><path d="M300.04599,121.38174c-0.55615,3.18787 -29.98956,15.34587 -60.61618,15.34587c-30.62661,0 -56.43094,-11.83084 -56.43094,-15.06685c0,-0.17265 -1.4691,-9.62544 0.99933,-8.511c7.81343,3.52762 34.1923,13.39376 57.52424,13.39376c22.49693,0 51.56064,-10.29203 58.5238,-13.78658c2.1068,-1.05732 0.11086,7.98799 -0.00024,8.62479z" fill="url(#color-5)" stroke="none" stroke-width="0"/><path d="M228.59697,132.99571c-0.01754,0.12362 -0.54496,0.3116 -0.97126,0.72156c-0.41801,0.40199 -0.29238,1.47741 -0.64259,1.53883c-0.33454,0.05869 -0.34218,-1.12712 -0.75793,-1.51515c-0.44094,-0.41155 -1.10035,-0.42893 -1.13659,-0.79201c-0.0151,-0.15122 0.80985,-0.13473 1.07385,-0.50188c0.41885,-0.58252 0.36262,-1.81611 0.77389,-1.85207c0.3543,-0.03097 0.2735,1.50758 0.69751,1.97047c0.36623,0.39981 0.99278,0.22129 0.96313,0.43026z" fill="url(#color-6)" stroke="none" stroke-width="0"/><path d="M221.97036,125.9539c-0.0202,0.14231 -0.6274,0.35873 -1.1182,0.83072c-0.48126,0.46281 -0.48832,1.92847 -0.89151,1.9992c-0.38515,0.06757 -0.24225,-1.5252 -0.72089,-1.97193c-0.50765,-0.47381 -1.26682,-0.49383 -1.30855,-0.91184c-0.01738,-0.17409 0.93238,-0.15511 1.23631,-0.57781c0.48221,-0.67064 0.41747,-2.62184 0.89097,-2.66322c0.40789,-0.03566 0.31487,2.26663 0.80303,2.79954c0.42164,0.4603 1.14297,0.25477 1.10883,0.49535z" fill="url(#color-7)" stroke="none" stroke-width="0"/><path d="M193.96024,124.35531c-0.01754,0.12362 -0.54496,0.31159 -0.97126,0.72155c-0.41801,0.40199 -0.29238,1.47741 -0.64259,1.53884c-0.33454,0.05868 -0.34219,-1.12712 -0.75793,-1.51515c-0.44094,-0.41155 -1.10035,-0.42893 -1.13659,-0.79202c-0.0151,-0.15121 0.80985,-0.13473 1.07385,-0.50189c0.41885,-0.58252 0.36262,-1.81611 0.7739,-1.85206c0.3543,-0.03097 0.27349,1.50758 0.6975,1.97047c0.36623,0.39982 0.99278,0.22129 0.96313,0.43026z" fill="url(#color-8)" stroke="none" stroke-width="0"/><path d="M188.34445,120.77227c-0.01298,0.09144 -0.40314,0.2305 -0.71851,0.53378c-0.30924,0.29738 -0.21629,1.09295 -0.47537,1.13839c-0.24749,0.04341 -0.25314,-0.83382 -0.5607,-1.12087c-0.3262,-0.30445 -0.81401,-0.31731 -0.84082,-0.58591c-0.01117,-0.11186 0.59911,-0.09967 0.79441,-0.37128c0.30985,-0.43093 0.26826,-1.34352 0.57251,-1.37011c0.2621,-0.02291 0.20233,1.11528 0.516,1.45771c0.27093,0.29577 0.73443,0.16371 0.71249,0.3183z" fill="url(#color-9)" stroke="none" stroke-width="0"/><path d="M202.43263,124.44054c-0.01298,0.09144 -0.40314,0.2305 -0.71851,0.53378c-0.30924,0.29738 -0.2163,1.09295 -0.47537,1.13839c-0.24749,0.04341 -0.25313,-0.83382 -0.56069,-1.12087c-0.3262,-0.30445 -0.81401,-0.31731 -0.84083,-0.58591c-0.01117,-0.11186 0.59912,-0.09967 0.79441,-0.37128c0.30985,-0.43093 0.26825,-1.34351 0.57251,-1.37011c0.2621,-0.02291 0.20233,1.11528 0.516,1.45771c0.27093,0.29578 0.73443,0.16371 0.71249,0.31829z" fill="url(#color-10)" stroke="none" stroke-width="0"/><path d="M209.99968,133.15974c-0.01298,0.09144 -0.40315,0.2305 -0.71852,0.53378c-0.30924,0.29738 -0.21629,1.09295 -0.47537,1.1384c-0.24749,0.04342 -0.25314,-0.83382 -0.5607,-1.12087c-0.3262,-0.30445 -0.814,-0.31731 -0.84082,-0.58591c-0.01117,-0.11186 0.59911,-0.09967 0.7944,-0.37129c0.30985,-0.43093 0.26825,-1.34351 0.57251,-1.3701c0.2621,-0.02291 0.20233,1.11527 0.516,1.4577c0.27093,0.29577 0.73443,0.16371 0.71249,0.3183z" fill="url(#color-11)" stroke="none" stroke-width="0"/><path d="M203.49043,121.83418c-0.01298,0.09144 -0.40314,0.23051 -0.71851,0.53379c-0.30924,0.29738 -0.2163,1.09295 -0.47537,1.13839c-0.24749,0.04341 -0.25314,-0.83382 -0.5607,-1.12087c-0.3262,-0.30445 -0.81401,-0.31731 -0.84082,-0.58591c-0.01117,-0.11186 0.59911,-0.09967 0.79441,-0.37128c0.30985,-0.43093 0.26825,-1.34351 0.57251,-1.37011c0.2621,-0.02291 0.20233,1.11527 0.516,1.4577c0.27093,0.29577 0.73443,0.16371 0.71249,0.31829z" fill="url(#color-12)" stroke="none" stroke-width="0"/><path d="M190.54144,112.24973c0.27734,-0.00877 0.24107,0.45302 0.42014,0.62984c0.15885,0.15686 0.54881,0.01377 0.55629,0.24996c0.00717,0.22695 -0.39417,0.13097 -0.53229,0.29485c-0.16767,0.19894 -0.09964,0.63579 -0.38662,0.64486c-0.21472,0.00679 -0.14549,-0.40368 -0.30805,-0.5142c-0.23369,-0.15888 -0.65901,-0.06928 -0.66837,-0.3656c-0.00713,-0.22537 0.42728,-0.22969 0.56364,-0.39308c0.16764,-0.20087 0.06665,-0.5375 0.35526,-0.54663z" fill="url(#color-13)" stroke="none" stroke-width="0"/><path d="M216.94124,117.59105c0.27734,-0.00877 0.24107,0.45302 0.42014,0.62984c0.15885,0.15686 0.54881,0.01376 0.55629,0.24995c0.00717,0.22695 -0.39416,0.13097 -0.53229,0.29485c-0.16767,0.19894 -0.09965,0.63579 -0.38662,0.64486c-0.21472,0.00679 -0.14548,-0.40368 -0.30804,-0.5142c-0.23369,-0.15888 -0.65901,-0.06928 -0.66837,-0.3656c-0.00713,-0.22537 0.42728,-0.2297 0.56364,-0.39309c0.16764,-0.20087 0.06665,-0.5375 0.35526,-0.54662z" fill="url(#color-14)" stroke="none" stroke-width="0"/><path d="M183.76099,114.94288c0.27734,-0.00877 0.24106,0.45302 0.42013,0.62985c0.15885,0.15686 0.54882,0.01376 0.55629,0.24995c0.00717,0.22695 -0.39417,0.13097 -0.53229,0.29485c-0.16767,0.19894 -0.09964,0.63578 -0.38661,0.64486c-0.21472,0.00679 -0.14549,-0.40368 -0.30805,-0.5142c-0.23369,-0.15888 -0.65901,-0.06929 -0.66837,-0.36561c-0.00713,-0.22537 0.42728,-0.22969 0.56364,-0.39308c0.16764,-0.20087 0.06665,-0.5375 0.35526,-0.54663z" fill="url(#color-15)" stroke="none" stroke-width="0"/><path d="M196.0845,113.55541c0.27734,-0.00877 0.24107,0.45302 0.42014,0.62985c0.15885,0.15686 0.54882,0.01376 0.55629,0.24995c0.00717,0.22695 -0.39416,0.13097 -0.53229,0.29485c-0.16767,0.19894 -0.09964,0.63578 -0.38662,0.64486c-0.21472,0.00679 -0.14549,-0.40368 -0.30805,-0.5142c-0.23369,-0.15888 -0.65901,-0.06928 -0.66837,-0.3656c-0.00713,-0.22537 0.42729,-0.22969 0.56365,-0.39308c0.16764,-0.20087 0.06664,-0.53751 0.35526,-0.54663z" fill="url(#color-16)" stroke="none" stroke-width="0"/><path d="M274.93031,131.9957c-0.01754,0.12362 -0.54496,0.31159 -0.97126,0.72155c-0.41801,0.40199 -0.29239,1.47741 -0.6426,1.53884c-0.33454,0.05869 -0.34218,-1.12712 -0.75793,-1.51515c-0.44094,-0.41155 -1.10035,-0.42894 -1.13659,-0.79202c-0.01509,-0.15121 0.80985,-0.13473 1.07385,-0.50189c0.41884,-0.58252 0.36262,-1.81611 0.77389,-1.85206c0.35429,-0.03097 0.2735,1.50759 0.69751,1.97047c0.36624,0.39982 0.99278,0.22129 0.96312,0.43026z" fill="url(#color-17)" stroke="none" stroke-width="0"/><path d="M287.30369,123.62057c-0.0202,0.14231 -0.6274,0.35873 -1.1182,0.83072c-0.48125,0.46281 -0.48832,1.92847 -0.89151,1.9992c-0.38515,0.06757 -0.24225,-1.5252 -0.72089,-1.97194c-0.50765,-0.47381 -1.26682,-0.49383 -1.30855,-0.91184c-0.01738,-0.17409 0.93237,-0.15511 1.23631,-0.57781c0.48221,-0.67064 0.41748,-2.62183 0.89098,-2.66322c0.40789,-0.03566 0.31487,2.26662 0.80303,2.79954c0.42164,0.4603 1.14297,0.25477 1.10883,0.49535z" fill="url(#color-18)" stroke="none" stroke-width="0"/><path d="M269.29357,127.02197c-0.01754,0.12362 -0.54496,0.3116 -0.97126,0.72156c-0.41801,0.40199 -0.29238,1.47741 -0.64259,1.53884c-0.33454,0.05868 -0.34218,-1.12712 -0.75793,-1.51515c-0.44094,-0.41155 -1.10035,-0.42893 -1.13659,-0.79202c-0.01509,-0.15121 0.80985,-0.13473 1.07385,-0.50189c0.41884,-0.58252 0.36262,-1.81611 0.7739,-1.85206c0.35429,-0.03097 0.27349,1.50759 0.6975,1.97047c0.36624,0.39982 0.99278,0.22129 0.96312,0.43025z" fill="url(#color-19)" stroke="none" stroke-width="0"/><path d="M263.67778,123.43893c-0.01297,0.09144 -0.40314,0.2305 -0.71851,0.53378c-0.30924,0.29738 -0.21629,1.09295 -0.47537,1.13839c-0.24748,0.04341 -0.25313,-0.83382 -0.5607,-1.12087c-0.32619,-0.30445 -0.81401,-0.31731 -0.84082,-0.58591c-0.01117,-0.11186 0.59911,-0.09967 0.7944,-0.37128c0.30985,-0.43093 0.26826,-1.34351 0.57251,-1.37011c0.2621,-0.02291 0.20232,1.11527 0.516,1.4577c0.27093,0.29577 0.73442,0.16371 0.71249,0.3183z" fill="url(#color-20)" stroke="none" stroke-width="0"/><path d="M285.0993,112.10721c-0.01297,0.09144 -0.40314,0.2305 -0.71851,0.53378c-0.30924,0.29738 -0.2163,1.09295 -0.47537,1.13839c-0.24748,0.04341 -0.25313,-0.83382 -0.5607,-1.12087c-0.32619,-0.30445 -0.81401,-0.31731 -0.84082,-0.58591c-0.01117,-0.11186 0.59911,-0.09967 0.79441,-0.37128c0.30985,-0.43093 0.26825,-1.34351 0.5725,-1.3701c0.2621,-0.02291 0.20233,1.11527 0.516,1.4577c0.27093,0.29578 0.73443,0.16371 0.71249,0.31829z" fill="url(#color-21)" stroke="none" stroke-width="0"/><path d="M278.99968,130.49307c-0.01297,0.09144 -0.40314,0.23051 -0.71851,0.53379c-0.30924,0.29738 -0.2163,1.09295 -0.47537,1.13839c-0.24748,0.04342 -0.25313,-0.83381 -0.5607,-1.12087c-0.3262,-0.30445 -0.81401,-0.31731 -0.84082,-0.58591c-0.01117,-0.11186 0.59912,-0.09967 0.79441,-0.37129c0.30985,-0.43093 0.26824,-1.34351 0.5725,-1.3701c0.2621,-0.02291 0.20233,1.11527 0.516,1.45771c0.27093,0.29577 0.73442,0.1637 0.71249,0.31829z" fill="url(#color-22)" stroke="none" stroke-width="0"/><path d="M271.49044,124.50084c-0.01297,0.09144 -0.40314,0.23051 -0.71851,0.53379c-0.30924,0.29738 -0.2163,1.09294 -0.47537,1.13839c-0.24748,0.04341 -0.25313,-0.83382 -0.5607,-1.12087c-0.32619,-0.30445 -0.81401,-0.31731 -0.84082,-0.58591c-0.01117,-0.11186 0.59911,-0.09967 0.7944,-0.37128c0.30985,-0.43093 0.26825,-1.34351 0.57251,-1.3701c0.2621,-0.02291 0.20232,1.11527 0.51599,1.4577c0.27093,0.29577 0.73443,0.1637 0.71249,0.31829z" fill="url(#color-23)" stroke="none" stroke-width="0"/><path d="M262.87477,112.24973c0.27735,-0.00877 0.24107,0.45302 0.42014,0.62984c0.15885,0.15686 0.54881,0.01377 0.55629,0.24996c0.00718,0.22695 -0.39417,0.13097 -0.53229,0.29485c-0.16767,0.19894 -0.09964,0.63579 -0.38661,0.64486c-0.21472,0.00679 -0.14549,-0.40368 -0.30805,-0.5142c-0.23369,-0.15888 -0.659,-0.06928 -0.66837,-0.3656c-0.00712,-0.22537 0.42728,-0.22969 0.56365,-0.39308c0.16764,-0.20087 0.06664,-0.53751 0.35526,-0.54663z" fill="url(#color-24)" stroke="none" stroke-width="0"/><path d="M289.60791,118.25772c0.27735,-0.00877 0.24107,0.45302 0.42014,0.62984c0.15885,0.15686 0.54882,0.01376 0.55629,0.24995c0.00718,0.22695 -0.39416,0.13097 -0.53229,0.29485c-0.16767,0.19894 -0.09965,0.63579 -0.38662,0.64486c-0.21472,0.00679 -0.14549,-0.40368 -0.30805,-0.5142c-0.23369,-0.15888 -0.65901,-0.06928 -0.66838,-0.3656c-0.00712,-0.22537 0.42728,-0.22969 0.56365,-0.39308c0.16764,-0.20087 0.06664,-0.53751 0.35526,-0.54663z" fill="url(#color-25)" stroke="none" stroke-width="0"/><path d="M262.76099,127.60955c0.27735,-0.00877 0.24106,0.45302 0.42014,0.62984c0.15885,0.15686 0.54882,0.01376 0.55629,0.24995c0.00718,0.22695 -0.39416,0.13097 -0.53229,0.29486c-0.16767,0.19894 -0.09964,0.63578 -0.38662,0.64486c-0.21472,0.00679 -0.14549,-0.40367 -0.30805,-0.5142c-0.23369,-0.15888 -0.65901,-0.06928 -0.66838,-0.3656c-0.00712,-0.22538 0.42728,-0.2297 0.56365,-0.39309c0.16764,-0.20087 0.06664,-0.5375 0.35526,-0.54663z" fill="url(#color-26)" stroke="none" stroke-width="0"/><path d="M256.75117,132.22207c0.27735,-0.00877 0.24106,0.45302 0.42014,0.62985c0.15885,0.15686 0.54882,0.01376 0.55629,0.24995c0.00718,0.22695 -0.39416,0.13097 -0.53229,0.29485c-0.16767,0.19894 -0.09964,0.63578 -0.38662,0.64486c-0.21472,0.00679 -0.14549,-0.40367 -0.30805,-0.51419c-0.23369,-0.15888 -0.65901,-0.06929 -0.66838,-0.36561c-0.00712,-0.22537 0.42728,-0.22969 0.56365,-0.39308c0.16764,-0.20087 0.06664,-0.53751 0.35526,-0.54663z" fill="url(#color-27)" stroke="none" stroke-width="0"/></g></g></svg>