<svg version="1.1" xmlns="http://www.w3.org/2000/svg" xmlns:xlink="http://www.w3.org/1999/xlink" width="136.19357" height="198.2306" viewBox="0,0,136.19357,198.2306"><defs><linearGradient x1="240.27333" y1="29.06428" x2="240.27333" y2="247.96086" gradientUnits="userSpaceOnUse" id="color-1"><stop offset="0" stop-color="#000000"/><stop offset="1" stop-color="#000000" stop-opacity="0"/></linearGradient></defs><g transform="translate(-167.6244,-10.53011)"><g data-paper-data="{&quot;isPaintingLayer&quot;:true}" stroke-linecap="butt" stroke-linejoin="miter" stroke-miterlimit="10" stroke-dasharray="" stroke-dashoffset="0" style="mix-blend-mode: normal"><path d="M283.12482,177.64427c0.07429,2.30273 -6.68273,8.6545 -41.88034,8.6545c-35.19764,0 -45.02477,-5.42196 -45.03655,-9.12882c-0.01016,-3.20032 9.11056,-7.4687 44.30818,-7.4687c35.19762,0 42.54073,5.83664 42.60871,7.94301z" fill="url(#color-1)" fill-rule="nonzero" stroke="none" stroke-width="0"/><text transform="translate(194.54127,27.76349) scale(0.45351,0.45351)" font-size="40" xml:space="preserve" fill="#00ffb7" fill-rule="nonzero" stroke="#00ffb5" stroke-width="1" stroke-linecap="butt" stroke-linejoin="miter" stroke-miterlimit="10" stroke-dasharray="" stroke-dashoffset="0" font-family="Handwriting" font-weight="normal" text-anchor="start" style="mix-blend-mode: normal"></text><text transform="translate(221.12796,203.43019) scale(0.31356,0.31356)" font-size="40" xml:space="preserve" fill="#00ffb7" fill-rule="nonzero" stroke="#00ffb7" stroke-width="1" stroke-linecap="butt" stroke-linejoin="miter" stroke-miterlimit="10" stroke-dasharray="" stroke-dashoffset="0" font-family="Handwriting" font-weight="normal" text-anchor="start" style="mix-blend-mode: normal"></text><path d="M239.73733,79.16668c27.56122,0 49.904,22.34278 49.904,49.904c0,27.56122 -22.34278,49.904 -49.904,49.904c-27.56122,0 -49.904,-22.34278 -49.904,-49.904c0,-27.56122 22.34278,-49.904 49.904,-49.904z" fill="#d5b85e" fill-rule="evenodd" stroke="none" stroke-width="1"/><path d="M190.32597,136.07309c0.06726,0.48174 0.1418,0.96347 0.2236,1.44157c-0.08181,-0.46901 -0.15634,-0.95075 -0.2236,-1.44157z" fill="#0077b8" fill-rule="evenodd" stroke="none" stroke-width="1"/><path d="M190.94224,138.07094c0.22723,0.24541 0.66533,0.42538 0.73623,0.7635c0.05999,0.28359 -0.16179,0.59262 -0.36357,0.76532c-0.09799,0.08282 -0.20842,0.14969 -0.32722,0.19815c-0.0818,-0.37448 -0.15997,-0.74896 -0.2345,-1.12708v-0.01091c-0.07272,-0.3757 -0.1418,-0.75381 -0.20724,-1.13435c0.11423,0.19412 0.24695,0.37675 0.39629,0.54536z" fill="#0077b8" fill-rule="evenodd" stroke="none" stroke-width="1"/><path d="M196.55577,153.08104c0.27449,0.27995 0.41083,0.63989 0.57626,0.98892c0.07214,0.19769 0.18697,0.37707 0.3363,0.52536c0.27995,0.20542 0.58171,-0.03272 0.85621,-0.12543c0.75623,-0.25632 1.35068,0.25632 1.63608,0.9362c0.33267,0.82349 0.05999,2.39776 1.34522,2.36322c1.32523,-0.02909 1.77424,-1.46883 2.07964,-2.51047c0.08725,-0.29995 0.24904,-0.59808 0.09089,-0.89439c-0.19082,-0.2884 -0.47524,-0.5022 -0.80531,-0.60535c-0.62898,-0.2345 -1.32886,-0.21996 -1.97602,-0.39084c-0.11574,-0.04069 -0.19318,-0.15 -0.19318,-0.27268c0,-0.12268 0.07745,-0.23199 0.19318,-0.27268c1.67838,-0.68824 2.97383,-2.07329 3.54847,-3.79388c0.02419,-0.08475 0.08595,-0.1537 0.16753,-0.18704c0.08158,-0.03334 0.17396,-0.02739 0.25058,0.01616c0.54536,0.40539 0.55809,1.02528 0.4272,1.62699c0.25752,0.04374 0.52104,0.03757 0.77623,-0.01818c0.1108,-0.02651 0.22684,0.01455 0.29632,0.10483c0.06949,0.09028 0.07945,0.21297 0.02545,0.31328c-0.33331,0.71227 -0.55056,1.47326 -0.64352,2.25415c0.27814,-0.12725 0.55809,-0.55626 0.7526,-0.70351c0.27553,-0.24417 0.66758,-0.30656 1.00528,-0.15997c0.90894,0.45628 0.32177,1.81786 0.01273,2.44684l-1.07981,2.20507c-0.33994,0.69442 -0.63807,1.43611 -1.10526,2.056c-0.28723,0.38175 -0.66171,0.7526 -1.13435,0.8853c-0.23848,0.06157 -0.48868,0.06157 -0.72715,0c-0.19808,-0.07767 -0.40512,-0.13019 -0.61626,-0.15634c0.22905,0.36357 0.28722,0.59444 -0.06908,1.02891c-0.23362,0.27988 -0.5468,0.48212 -0.89802,0.5799c-0.2848,-0.33691 -0.56535,-0.67685 -0.84167,-1.01982c-1.71202,-2.11781 -3.24779,-4.37222 -4.59192,-6.74064c-0.1927,-0.33813 -0.38054,-0.67989 -0.56354,-1.02528c0.32176,0.12473 0.61671,0.30985 0.86894,0.54536z" fill="#0077b8" fill-rule="evenodd" stroke="none" stroke-width="1"/><path d="M214.69988,106.34922c-0.14361,0.53445 -0.54354,0.79986 -1.07799,0.89984c-0.27268,0.05091 -0.54536,0.04727 -0.77259,0.22542c-0.11647,0.10588 -0.22636,0.2188 -0.32903,0.33812c-0.22416,0.23575 -0.50527,0.4098 -0.81622,0.50537c-0.82349,0.23814 -1.61972,0.09634 -2.42503,0.48173c-0.39084,0.18179 -0.77259,0.39629 -1.15616,0.59626c-0.45992,0.23814 -0.98892,0.43811 -1.4143,0.72715c-0.42538,0.28904 -0.27632,0.529 -0.31813,0.95438c-0.03029,0.28549 -0.12948,0.55936 -0.28904,0.79804c-0.36309,0.5075 -0.86489,0.89947 -1.4452,1.12889c-0.68897,0.30177 -1.45429,0.38903 -2.15417,0.64898c-0.42494,0.1358 -0.80673,0.38091 -1.10708,0.71078c-0.23814,0.28722 -0.36357,0.65261 -0.60898,0.9362c-0.57262,0.65988 -1.63607,0.6108 -2.43957,0.7126l-2.90858,0.37266c0.04544,0.09998 0.08907,0.19997 0.13452,0.29813c0.0428,0.07702 0.04837,0.16929 0.01516,0.2509c-0.03321,0.08161 -0.10163,0.14377 -0.18604,0.16902c-1.70152,0.47083 -2.38503,-1.36704 -3.48666,-2.26506l-0.02,0.01091c1.49571,-5.03889 3.78196,-9.80834 6.77336,-14.13026c1.14748,-1.6591 2.3944,-3.24718 3.73389,-4.75553c0.83258,-0.93984 1.70516,-1.8415 2.60682,-2.71589c0.54536,-0.529 1.09072,-1.04891 1.66698,-1.55246c0.71624,1.38884 1.16162,3.03946 2.2487,4.10655c0.59444,0.58354 1.34159,0.74533 2.07782,1.07436c0.60196,0.25545 1.08464,0.72968 1.35067,1.32704c0.66533,1.47611 0.07998,3.15945 0.67806,4.63374c0.48901,1.21069 2.10327,1.99965 1.6688,3.51211z" fill="#0077b8" fill-rule="evenodd" stroke="none" stroke-width="1"/><path d="M190.3008,127.84814c0.13941,-0.07977 0.22945,-0.22419 0.23969,-0.38448c0.02727,-0.36357 -0.1218,-0.72714 -0.09271,-1.10344c0.05348,-0.61947 0.29804,-1.20704 0.69988,-1.68152c0.06325,-0.06145 0.15109,-0.09067 0.23855,-0.07934c0.08746,0.01133 0.16496,0.06197 0.21046,0.13751c1.04709,1.53792 -0.59625,3.84478 1.16162,5.0064c0.7435,0.49265 1.6488,0.72715 2.23415,1.44157c0.23756,0.27309 0.38543,0.61261 0.42356,0.97256c0.0309,0.36357 -0.09635,0.74714 -0.11089,1.11617c-0.00098,-0.00602 -0.00098,-0.01216 0,-0.01818c0.06726,-0.18179 0.32722,-0.31085 0.47628,-0.12725c0.68773,0.87829 1.70553,1.43613 2.81587,1.54337c0.10142,0.00267 0.19411,0.058 0.2446,0.14599c0.05049,0.08799 0.05149,0.19593 0.00263,0.28484c-0.31267,0.66171 0.33449,1.19252 0.89621,1.38158c0.39811,0.13452 0.80894,0.18178 1.11071,0.49991c0.07021,0.07489 0.13124,0.15788 0.18179,0.24723c0.13452,-0.28359 0.27814,-0.60172 0.52173,-0.78532c0.21756,-0.14575 0.4912,-0.18012 0.73805,-0.09271c0.48355,0.11634 0.95983,0.29813 1.43429,0.44719c0.09644,0.02862 0.17107,0.10531 0.19704,0.2025c0.02597,0.09718 -0.00047,0.20088 -0.06979,0.27378c-0.6599,0.58286 -0.96093,1.47212 -0.79077,2.33596c0.02227,0.08621 0.00384,0.17787 -0.05004,0.24876c-0.05387,0.07089 -0.13724,0.1132 -0.22627,0.11482l-1.7397,0.03999c0.34337,0.38294 0.79249,0.65558 1.29068,0.7835c0.71442,0.18179 1.31613,-0.02726 1.99965,-0.22723c0.53263,-0.15634 1.03436,-0.19451 1.54882,0.03999c0.4472,0.2036 1.11799,0.89803 1.63608,0.62171c0.11218,-0.06269 0.25234,-0.04324 0.34321,0.04763c0.09086,0.09087 0.11031,0.23103 0.04763,0.34321c-0.96327,1.99053 -1.57813,4.13148 -1.81786,6.3298c-0.00489,0.11298 -0.07481,0.21288 -0.17929,0.25615c-0.10448,0.04327 -0.22456,0.02207 -0.3079,-0.05437c-0.55808,-0.43992 -1.31068,-1.02346 -2.056,-0.67988c-0.62898,0.29086 -0.41629,1.11072 -0.65807,1.66335c-0.42538,0.98164 -1.49428,1.49792 -2.42139,1.89421c-0.08878,0.04798 -0.19608,0.04652 -0.28351,-0.00387c-0.08744,-0.05039 -0.14251,-0.14249 -0.14551,-0.24336c-0.14513,-1.10439 -0.87073,-2.04642 -1.90149,-2.46866c-0.07607,-0.04462 -0.12722,-0.1219 -0.1386,-0.20935c-0.01137,-0.08744 0.01831,-0.17524 0.08043,-0.23784c0.51243,-0.43305 0.6754,-1.1535 0.39924,-1.76494c-0.27616,-0.61144 -0.92444,-0.96548 -1.58813,-0.86733c-0.08897,-0.00146 -0.17231,-0.04383 -0.22592,-0.11484c-0.05362,-0.07101 -0.07154,-0.16276 -0.04858,-0.24873c0.11998,-0.51082 0.2745,-1.07799 0.11816,-1.59608c-0.12362,-0.40357 -0.45447,-0.74169 -0.86167,-0.74169c0.36358,1.78696 -0.75805,3.50303 -2.12508,4.58829c-0.13088,0.1018 -0.27086,0.20724 -0.41447,0.31449c-0.04727,-0.11998 -0.09272,-0.24177 -0.13998,-0.36357c-0.07998,-0.20541 -0.15815,-0.41265 -0.23632,-0.61807l-0.1727,-0.47264l-0.18179,-0.51082c-0.11998,-0.34539 -0.23632,-0.69442 -0.34903,-1.04345c-0.02909,-0.08726 -0.05817,-0.18179 -0.08544,-0.26359c-0.07453,-0.23451 -0.14724,-0.47083 -0.21814,-0.70715c-0.01818,-0.06362 -0.03817,-0.12907 -0.05817,-0.19451c-0.23451,-0.79623 -0.45265,-1.60154 -0.64898,-2.41231c0.2104,0.00403 0.42078,-0.00935 0.62898,-0.03999c0.58172,-0.09089 0.87803,-0.38902 1.11799,-0.90893c0.17567,-0.42863 0.49777,-0.781 0.90893,-0.99437c1.30886,-0.74169 0.07999,-1.55791 -0.7126,-2.20689c0.08513,0.33131 0.12668,0.67231 0.12361,1.01437c-0.02908,0.45083 -0.29994,1.13617 -0.88166,0.98892c-0.70714,-0.18178 -0.82712,-1.33067 -1.00891,-1.88694c-0.09453,-0.29086 -0.21451,-0.60898 -0.49264,-0.77441c-0.27813,-0.16543 -0.47083,-0.11453 -0.59444,0.0309c-0.11392,-0.80955 -0.20784,-1.62396 -0.28177,-2.44321l-0.03999,-0.28722c-0.01818,-0.2236 -0.03818,-0.44719 -0.05272,-0.67261c-0.02,-0.27631 -0.03818,-0.54536 -0.05272,-0.83076c0,-0.16179 -0.01636,-0.3254 -0.02363,-0.48901c-0.01272,-0.26178 -0.02181,-0.52537 -0.0309,-0.78714c0,-0.12179 0,-0.24359 0,-0.36357c-0.01454,-0.37812 -0.02181,-0.75563 -0.02181,-1.13253c0,-0.40539 0,-0.80713 0.01454,-1.2107c0.14337,0.07238 0.31352,0.06794 0.45292,-0.01182z" fill="#0077b8" fill-rule="evenodd" stroke="none" stroke-width="1"/><path d="M192.3529,121.79742c0.52899,-0.15088 0.88711,-0.5599 1.46883,-0.51082c0.56172,0.04908 1.03982,0.43265 1.45429,0.78168c0.2036,0.17088 0.02364,0.47083 -0.20178,0.48719c-0.43447,0.02727 -0.86712,0.04545 -1.30159,0.04181c-0.43447,-0.00364 -0.90893,-0.09453 -1.30886,0.10725c-0.29995,0.1527 -0.55627,0.42538 -0.83622,0.61444c-0.31619,0.2115 -0.65082,0.39403 -0.99983,0.54536c-0.15997,0.06908 -0.34903,0.15452 -0.54536,0.21996c0.03817,-0.37812 0.07998,-0.7526 0.12543,-1.12708c0.34722,-0.11271 0.50719,-0.39811 0.76896,-0.6308c0.39447,-0.35267 0.8853,-0.39448 1.37612,-0.529z" fill="#0077b8" fill-rule="evenodd" stroke="none" stroke-width="1"/><path d="M196.41766,121.29386c-0.37994,0.01091 -0.89258,0.11089 -1.26342,0.00364c-0.25632,-0.07272 -0.44174,-0.33085 -0.61262,-0.54536c-0.10557,-0.05213 -0.17499,-0.15696 -0.18179,-0.2745c-0.01409,-0.08355 0.00614,-0.16926 0.0561,-0.2377c0.04996,-0.06844 0.12542,-0.11382 0.2093,-0.12587c0.23555,-0.1455 0.51798,-0.19495 0.78895,-0.13816c0.56718,0.09271 1.04346,0.26541 1.63608,0.22723c0.10182,-0.00212 0.19666,0.05158 0.24723,0.13998c0.34175,0.65079 -0.3454,0.9362 -0.87985,0.95074z" fill="#0077b8" fill-rule="evenodd" stroke="none" stroke-width="1"/><path d="M202.66382,161.95402c0.61262,0 1.04527,0.46537 0.77259,1.07072c-0.02805,0.06371 -0.06214,0.12458 -0.1018,0.18179c-0.37327,-0.3963 -0.73684,-0.79986 -1.09072,-1.2107c0.13873,-0.02445 0.2791,-0.03843 0.41993,-0.04181z" fill="#0077b8" fill-rule="evenodd" stroke="none" stroke-width="1"/><path d="M204.77799,163.86641c0,0.23632 0.01636,0.47083 0.02363,0.70715c0,0.04726 0,0.09089 0,0.13452c-0.27995,-0.27632 -0.55687,-0.55445 -0.83076,-0.8344c0.11052,-0.06073 0.21572,-0.13065 0.31449,-0.20905c0.0824,-0.08179 0.20574,-0.10634 0.31318,-0.06233c0.10743,0.044 0.17811,0.14802 0.17946,0.26411z" fill="#0077b8" fill-rule="evenodd" stroke="none" stroke-width="1"/><path d="M205.24337,165.13711c0.2236,0 0.46174,-0.08544 0.69624,-0.03636c0.22788,0.03125 0.42887,0.16524 0.54536,0.36357c0.22359,0.39266 0,0.69806 0.62716,0.70897c0.30359,0 0.60172,-0.05818 0.89621,0.05635c0.35085,0.13452 0.45628,0.48537 0.76532,0.67261c0.34176,0.20906 0.79623,0.27086 1.17798,0.3763l1.45429,0.40538c0.09615,0.02963 0.17018,0.10684 0.19571,0.20416c0.02553,0.09732 -0.00105,0.20093 -0.07028,0.27394c-0.49446,0.57626 -1.24705,0.55445 -1.91421,0.70533c-0.36357,-0.27632 -0.72351,-0.55748 -1.07981,-0.84349l-0.11089,-0.08908c-0.32358,-0.26541 -0.64352,-0.53142 -0.95983,-0.79804l-0.14543,-0.12361c-0.32903,-0.28177 -0.65443,-0.56536 -0.97619,-0.8544c-0.02,-0.01999 -0.04182,-0.03817 -0.06363,-0.05635c-0.34903,-0.31813 -0.69624,-0.63989 -1.038,-0.96529z" fill="#0077b8" fill-rule="evenodd" stroke="none" stroke-width="1"/><path d="M253.49024,116.85486c0.91079,1.01186 2.08124,1.9984 1.92791,3.52171c-0.00941,0.15055 -0.11754,0.27659 -0.26489,0.30879c0.09742,0.04608 0.16273,0.14078 0.17118,0.24823c0.11618,1.22249 -0.75565,2.3178 -1.97305,2.4788l0.00787,0.4755c0.62935,0.10658 1.0597,0.69455 0.97104,1.32668c-0.16741,1.41784 -1.9754,2.19008 -2.06498,3.59717c0.00168,0.50022 -0.10443,0.99493 -0.31108,1.45047c-0.23346,0.48259 -0.6659,1.00446 -0.63399,1.56702c0.05229,0.95106 1.35709,1.40312 0.94782,2.47585c-0.04281,0.12414 -0.15007,0.21495 -0.27959,0.23667c-0.76111,0.065 -1.52284,-0.11789 -2.17148,-0.52138c-0.3248,-0.20221 -0.61237,-0.45883 -0.85007,-0.75863c-0.22438,-0.28514 -0.84741,-1.21277 -0.68937,-0.25591c0.01942,0.12651 -0.02793,0.25409 -0.12519,0.3373c-0.09726,0.08321 -0.23063,0.11025 -0.35261,0.07148c-0.22481,-0.06913 -0.43627,-0.17588 -0.6254,-0.31567c0.04733,0.26611 -0.03009,0.53922 -0.21003,0.74091c-0.84722,0.95747 -2.2488,-0.43428 -3.06892,-1.28473c-0.20745,0.29638 -0.52243,0.5 -0.87784,0.56751c-0.81265,0.16521 -1.50186,-0.41144 -1.94778,-1.03044c-0.29519,-0.41027 -0.5109,-0.88643 -0.83742,-1.26776c-0.3756,-0.43228 -0.91546,-0.58726 -1.33325,-0.95874c-0.4178,-0.37149 -0.69098,-1.00009 -0.38857,-1.53336c0.05509,-0.09969 0.2884,-0.26153 0.30545,-0.35102c0.13566,-0.08602 0.08437,-0.12161 -0.15391,-0.10678l-0.30284,0.07137c-0.39077,0.0745 -0.79206,0.07489 -1.18297,0.00118c-0.7416,-0.17208 -1.44172,-0.48944 -2.05992,-0.93374c-0.71168,-0.47123 -1.47145,-0.97865 -1.94038,-1.70647c-0.67309,-1.02992 -1.21443,-1.90086 -2.338,-2.50867c-0.09274,-0.06548 -0.14977,-0.17038 -0.15432,-0.28381c-0.00456,-0.11344 0.04386,-0.22255 0.13105,-0.29527l0.89032,-0.75588l-1.86311,-1.30665c-0.1636,-0.11504 -0.20432,-0.34023 -0.09135,-0.50527c0.30391,-0.42504 0.77172,-0.70364 1.29022,-0.76835c-0.09274,-0.21457 -0.14817,-0.44339 -0.16388,-0.67662c-0.01982,-0.12622 0.02731,-0.2537 0.12448,-0.33667c0.09717,-0.08298 0.23044,-0.10955 0.35201,-0.07021l0.86255,0.25784c0.00294,-0.40945 0.17803,-0.79877 0.48241,-1.07264c0.08674,-0.07104 0.20129,-0.09833 0.31074,-0.07402c0.10945,0.02431 0.20169,0.09752 0.2502,0.1986c0.53261,0.82524 1.52349,1.23062 2.48179,1.01533c1.03576,-0.22714 1.53278,-1.29247 2.50743,-1.68305c1.12389,-0.44747 2.28034,-0.85264 2.98828,-1.90957c0.60115,-0.90302 0.78041,-2.02554 0.99717,-3.06014c0.17478,-0.88077 0.35308,-1.77878 0.77467,-2.5812c0.43229,-0.82596 1.08601,-1.3463 1.8912,-1.80096c0.57439,-0.32487 1.08192,-0.60606 1.4338,-1.17818c0.19851,-0.32671 0.30795,-0.65891 0.72417,-0.75576c0.34294,-0.0886 0.67564,0.09721 1.0092,0.16818c0.65462,0.13475 1.33,-0.10445 1.75387,-0.62119c0.07557,-0.10531 0.20101,-0.16304 0.33015,-0.15197c0.12913,0.01109 0.24291,0.08933 0.29944,0.20597c0.55233,1.28107 0.28189,2.61617 -0.02524,3.92302c-0.3572,1.51698 -0.7147,3.46439 0.82946,4.43155c0.62401,0.3907 1.06215,0.73689 1.2248,1.48022c0.08445,0.39353 0.08479,0.79063 0.24266,1.16756c0.19247,0.40595 0.45216,0.77643 0.76811,1.09582z" fill="#0077b8" fill-rule="evenodd" stroke="none" stroke-width="1"/><path d="M267.89267,112.08097c0.72117,-0.06886 1.44546,0.09486 2.06691,0.46719c0.56353,0.37448 0.71442,1.14162 0.83985,1.76515c0.09271,0.45628 0.16179,0.90893 -0.40175,1.01255c-0.75805,0.1327 -1.31795,-0.47628 -1.99965,-0.65807c-0.50536,-0.13452 -0.69806,0.05453 -1.00891,0.41447c-0.17752,0.2103 -0.41556,0.36075 -0.6817,0.43083c-0.30358,0.07816 -0.6817,0.23268 -0.97801,-0.27632c-0.15652,-0.21712 -0.15652,-0.51004 0,-0.72715c0.53627,-0.41266 0.2036,-1.28523 0.56717,-1.80514c0.32539,-0.46356 1.07254,-0.58172 1.59608,-0.62353z" fill="#0077b8" fill-rule="evenodd" stroke="none" stroke-width="1"/><path d="M237.74737,161.05705c0.09462,-0.02577 0.19584,-0.00149 0.26847,0.0644c0.14725,0.14725 0.32722,0.29631 0.45992,0.4581l0.01454,0.01636c-0.04164,-0.17602 0.00671,-0.36124 0.12907,-0.49446c0.26904,-0.29449 0.73623,-0.20905 1.02709,0c0.48718,0.35267 0.58535,0.95438 0.57626,1.5161c0,0.28358 -0.10726,0.36357 0.16906,0.52354c0.21632,0.11998 0.31267,0.05272 0.52536,0c0.31449,-0.08544 0.64534,-0.19996 0.97619,-0.1018c0.33085,0.09816 0.65806,0.48355 0.58535,0.8653c-0.09453,0.46537 -0.62171,0.5799 -1.01255,0.67806c-0.54536,0.13634 -1.14162,0.23087 -1.69607,0.08362c-0.26609,-0.07399 -0.51377,-0.20278 -0.72715,-0.37812c-0.18178,-0.14361 -0.46355,-0.48355 -0.75441,-0.60171c-0.03025,0.07748 -0.09956,0.13293 -0.18179,0.14543c-0.62352,0.10725 -1.23614,-0.18179 -1.35067,-0.85985c-0.13452,-0.77622 0.65443,-1.06163 0.79259,-1.72333c0.02918,-0.09362 0.1041,-0.16588 0.19872,-0.19165z" fill="#0077b8" fill-rule="evenodd" stroke="none" stroke-width="1"/><path d="M235.50121,99.13223c0.09616,0.13286 0.08252,0.31569 -0.03227,0.43283c-0.49949,0.50784 -1.1714,0.62464 -1.85686,0.64827c-0.7234,0.02438 -1.70807,-0.13249 -2.31383,0.37432c-0.68048,0.5731 -0.52457,1.69182 -0.72267,2.47828c-0.2535,1.01095 -0.77705,1.86701 -0.85594,2.93257c-0.07536,1.01672 -0.01572,2.03325 -0.12171,3.05206c-0.12265,1.05387 -0.31321,2.09874 -0.57048,3.12805c-0.22678,0.94304 -0.41606,1.94632 -0.77291,2.84915c-0.35685,0.90283 -1.25777,1.51783 -2.0049,2.1447l-1.47082,1.23004c-0.40742,0.34169 -0.8442,0.81773 -1.37435,0.98091c-0.58209,0.18353 -1.24743,-0.17086 -1.26683,-0.77934c-0.29337,-0.20329 -0.84782,-0.07006 -1.10352,0.11327c-0.50382,0.36337 -0.69988,1.0769 -0.97669,1.6049c-0.2021,0.39594 -0.47587,0.75099 -0.8074,1.04713c-0.48551,0.43646 -0.945,0.73101 -1.00615,1.42859c-0.07296,0.8153 0.02795,1.69903 -0.88705,2.07474c-0.42593,0.18537 -0.91737,0.14258 -1.36701,0.11311c-0.73809,-0.0744 -1.48355,0.01048 -2.18603,0.24891c-1.8376,0.65114 -3.73901,2.15414 -5.79723,1.40852c-0.82906,-0.30115 -1.32484,-0.97473 -1.81719,-1.66109c-0.24041,-0.32993 -0.49358,-0.71509 -0.85233,-0.92371c-0.47458,-0.27304 -0.87382,-0.01599 -1.36004,0.05153c-0.3844,0.08273 -0.77982,-0.08163 -0.99233,-0.41246c-0.21193,-0.32655 -0.27352,-0.62848 -0.68707,-0.7975c-0.29862,-0.12221 -0.62742,-0.16374 -0.93064,-0.2862c-1.07422,-0.44948 -1.91484,-1.32306 -2.32265,-2.41379c-0.04509,-0.1061 -0.0316,-0.22803 0.03561,-0.32171c0.29254,-0.33044 0.3626,-0.80237 0.17869,-1.20355c-0.17993,-0.37202 -0.54571,-0.48301 -0.8679,-0.70079c-0.45029,-0.26722 -0.65948,-0.80769 -0.50641,-1.30842c0.17428,-0.63424 0.65938,-1.09754 0.57146,-1.79104c-0.10482,-0.7582 -0.36819,-1.31679 -0.14021,-2.09148c0.24869,-0.85126 0.60104,-1.68684 0.91437,-2.51894c0.23907,-0.63542 0.50743,-1.31736 1.05147,-1.75903c0.4755,-0.38706 1.06577,-0.46384 1.65788,-0.4536c0.35924,0.00802 0.72088,0.05778 1.07994,0.03435c0.5409,-0.03502 0.98788,-0.28585 1.45766,-0.53083c0.60656,-0.31352 1.19819,-0.53723 1.88889,-0.39878c0.31563,0.06302 0.64908,0.20837 0.96648,0.15128c0.46308,-0.08447 0.70147,-0.55071 0.90161,-0.92377c0.26266,-0.48807 0.48483,-0.99679 0.89199,-1.38565c0.30981,-0.29695 0.78719,-0.49346 0.74667,-1.00044c-0.03647,-0.46147 -0.41675,-0.83859 -0.72482,-1.14807c-0.49435,-0.50986 -1.01042,-1.02828 -1.00411,-1.78981c0.00631,-0.76153 0.46917,-1.46733 0.59048,-2.21811c0.13485,-0.83882 0.06967,-1.69765 -0.19024,-2.50651c-0.31225,-0.96062 -1.80675,-2.73698 -2.33118,-3.58499c-0.93231,-1.50584 11.84846,-9.1664 12.17417,-8.56288c0.19696,0.3646 0.71026,0.92177 1.10783,1.09548c0.39758,0.1737 0.79358,0.06441 1.18648,0.08254c1.55345,0.06694 2.36071,1.55965 2.71327,2.89225c0.28142,1.07085 0.44464,2.13912 1.06747,3.0839c0.54468,0.79041 1.23172,1.47252 2.026,2.01153c2.92634,2.06775 6.82188,2.74101 9.01331,5.77931zM226.41111,108.72222c1.38071,0 1.38889,-1.89706 1.38889,-3.27777c0,-1.38071 0.10293,-1.16666 -1.27778,-1.16666c-0.88484,0 -1.79493,0.32279 -1.55091,0.91805c0.13674,0.33358 1.38425,0.75274 1.38425,1.24861c0,1.38071 -1.32515,2.27777 0.05555,2.27777zM224.56667,114.98889c0.38071,0 1.92184,-1.12663 2.05555,-1.5c0.27571,-0.76986 -0.35149,-2.60927 -0.94444,-2.5c-0.60293,0.11111 -1.71404,4 -1.11111,4z" fill="#0077b8" fill-rule="evenodd" stroke="none" stroke-width="1"/><path d="M230.23665,88.96596c0.42899,0.5459 0.30605,1.22735 0.64349,1.78702c0.05877,0.11382 0.03506,0.2528 -0.05812,0.3407c-0.09318,0.0879 -0.2333,0.10347 -0.34351,0.03817c-0.47298,-0.33086 -0.96532,-0.68644 -1.54069,-0.82678c-0.57537,-0.14033 -1.09712,-0.06412 -1.63119,-0.30475c-0.78232,-0.36297 -1.35216,-1.0681 -1.54288,-1.90916c-0.87315,-0.27002 -1.52029,-1.16725 -1.6488,-2.07311c-0.14345,-1.0421 1.18455,-1.04336 1.80596,-0.69685c0.50508,0.28287 0.84832,0.75292 1.21895,1.18161c0.49474,0.57264 1.12279,0.86206 1.7291,1.28461c0.50877,0.32695 0.96915,0.72367 1.36769,1.17854z" fill="#0077b8" fill-rule="evenodd" stroke="none" stroke-width="1"/><path d="M228.58292,142.99006c-0.06198,-0.04725 -0.11705,-0.10293 -0.16361,-0.16543c-0.11055,-0.16114 -0.17355,-0.35012 -0.18179,-0.54536c0.01503,-0.17469 0.01928,-0.35015 0.01273,-0.52536c-0.0588,-0.17781 -0.16503,-0.33621 -0.30722,-0.4581c-0.25268,-0.24905 -0.509,-0.54536 -0.37266,-0.93802c0.13634,-0.39266 0.50173,-0.44901 0.85258,-0.40175c0.59401,0.07256 1.1781,0.21096 1.74151,0.41266c0.39266,0.15452 0.31995,0.49082 0.26541,0.84167c-0.06908,0.45083 -0.07817,0.95984 -0.38902,1.32159c-0.15987,0.17854 -0.35729,0.31947 -0.57808,0.41266c-0.02615,0.08733 -0.09446,0.15564 -0.18179,0.18179c-0.12488,0.04159 -0.25871,0.0485 -0.38721,0.02c-0.12853,0.03697 -0.26389,-0.03111 -0.31085,-0.15634z" fill="#0077b8" fill-rule="evenodd" stroke="none" stroke-width="1"/><path d="M230.91341,143.4918c0.14026,-0.26025 0.30981,-0.50361 0.50537,-0.72533c0.35085,-0.4781 0.18179,-0.81622 -0.07635,-1.30341c-0.21814,-0.42901 -0.67988,-1.34158 -0.36357,-1.81786c0.35266,-0.51446 1.33976,-0.18179 1.78332,-0.01818c0.51991,0.19633 0.84712,0.33449 0.78168,0.95256c-0.03272,0.31994 -0.11089,0.58717 -0.04726,0.90893c0.03454,0.18179 0.09635,0.33449 0.11453,0.51264c0.0306,0.35188 -0.02363,0.70597 -0.15815,1.03255c-0.26177,0.67624 -0.83985,1.13798 -1.10344,1.80332c-0.24905,0.62717 -0.37994,0.82168 -1.02528,0.78532c-0.33267,-0.01818 -0.48901,-0.23632 -0.55627,-0.54536c-0.12137,-0.53041 -0.07042,-1.08571 0.14543,-1.58518z" fill="#0077b8" fill-rule="evenodd" stroke="none" stroke-width="1"/><path d="M227.02085,147.45219c-0.21451,0.43629 -0.81077,0.61444 -1.15616,0.22905c-0.043,-0.04573 -0.06927,-0.10468 -0.07453,-0.16724c-0.02192,-0.04085 -0.03377,-0.08634 -0.03454,-0.1327c0,-0.43083 -0.01273,-0.86166 0,-1.29068c0,-0.28723 0.02182,-0.58717 0.22542,-0.81077c0.38902,-0.42902 0.96347,-0.18179 1.09072,0.32358c0.05849,0.30964 0.07985,0.62515 0.06363,0.93984c0.03624,0.30778 -0.00306,0.61976 -0.11453,0.90893z" fill="#0077b8" fill-rule="evenodd" stroke="none" stroke-width="1"/><path d="M254.26851,107.95263c-0.47447,0.51991 -1.00892,0.94711 -1.73061,0.82531c-0.02604,-0.00097 -0.05178,-0.00587 -0.07635,-0.01454h-0.02181c-0.33085,-0.07816 -0.22542,-0.55444 0.07453,-0.55808c0.46356,-0.1727 0.71261,-0.61444 0.97256,-1.0071l0.85076,-1.28887c0.21632,-0.32722 0.42901,-0.65443 0.64352,-0.98165c0.12361,0.29086 0.24359,0.58536 0.36357,0.87985c0.11998,0.2945 0.21815,0.55809 0.3254,0.83804c-0.49313,0.40699 -0.96118,0.84348 -1.40157,1.30704z" fill="#0077b8" fill-rule="evenodd" stroke="none" stroke-width="1"/><path d="M252.66599,159.18361c-0.56535,-0.69443 -0.00545,-1.52155 0.55627,-2.06146c0.44356,-0.4272 0.51082,-0.44174 1.09072,-0.58172c-0.02727,-0.06908 0.82349,-0.15088 0.97983,0.18179c0.20905,0.07453 0.5599,1.19797 0.20905,1.5979c-0.97074,1.10708 1.34703,3.16672 2.20143,3.7648c0.49082,0.34358 0.87803,0.92893 0.6108,1.53973c-0.26722,0.6108 -0.96892,0.57444 -1.45429,0.2345c-0.36358,-0.25632 -0.63444,-0.63444 -0.92166,-0.96347l-1.09072,-1.23615c-0.72715,-0.82531 -1.47429,-1.63608 -2.18144,-2.47593z" fill="#0077b8" fill-rule="evenodd" stroke="none" stroke-width="1"/><path d="M289.70262,128.66661c-0.00126,0.44054 -0.00188,0.88609 -0.00188,1.33665c0,0.10888 -0.00939,0.21964 -0.01315,0.3304c0,0.33229 -0.02066,0.66458 -0.03755,0.99686c0,0.13329 -0.01689,0.2647 -0.0244,0.39799c-0.01878,0.30788 -0.03567,0.61576 -0.06007,0.91988c-0.01126,0.14456 -0.02628,0.28722 -0.03754,0.43178c-0.02441,0.29287 -0.04881,0.5876 -0.07885,0.88047c-0.01502,0.1408 -0.03191,0.28159 -0.0488,0.42239c-0.03191,0.29287 -0.06382,0.58571 -0.10137,0.87858c-0.01689,0.13704 -0.03755,0.27221 -0.05633,0.40925c-0.0413,0.29475 -0.08072,0.58948 -0.1239,0.88235c-0.02065,0.12953 -0.04506,0.25907 -0.06571,0.3886c-0.04694,0.29851 -0.09574,0.597 -0.14831,0.89173c-0.02252,0.12204 -0.04694,0.24405 -0.06946,0.3642c-0.0582,0.30413 -0.11451,0.60638 -0.17647,0.90863c-0.02254,0.11076 -0.04881,0.22152 -0.07322,0.33416c-0.06571,0.30976 -0.13141,0.61764 -0.20275,0.92552c-0.02441,0.10325 -0.05068,0.20651 -0.07509,0.30976c-0.0751,0.31351 -0.15019,0.62701 -0.23091,0.93865c-0.02441,0.09574 -0.05069,0.18774 -0.07697,0.2816c-0.08447,0.32101 -0.16895,0.64016 -0.26094,0.95743c-0.02254,0.08261 -0.04881,0.16522 -0.07322,0.24969c-0.09574,0.32477 -0.18774,0.65143 -0.29287,0.97432c-0.02254,0.0751 -0.04881,0.14831 -0.07322,0.2234c-0.10513,0.33041 -0.21276,0.66019 -0.3229,0.98934l-0.06946,0.19712c-0.11638,0.33604 -0.23278,0.67021 -0.35669,1.00249c-0.02065,0.0582 -0.04318,0.11452 -0.06383,0.17084c-0.12766,0.33979 -0.25531,0.67958 -0.39048,1.01562l-0.0582,0.14643c-0.13892,0.34355 -0.27783,0.68522 -0.42239,1.02501l-0.05257,0.12015c-0.15019,0.34731 -0.30225,0.6946 -0.45806,1.03815c-0.01502,0.03191 -0.03192,0.06383 -0.04694,0.09762c-0.16019,0.34918 -0.32416,0.69773 -0.49186,1.04566l-0.03754,0.07697c-0.17271,0.35106 -0.34729,0.70213 -0.52564,1.04943l-0.03192,0.05819c-0.18773,0.35294 -0.37546,0.70399 -0.5632,1.05317l-0.0244,0.0413c-0.18773,0.35294 -0.39236,0.70587 -0.59323,1.05317l-0.01689,0.02629c-0.20526,0.35294 -0.41428,0.70399 -0.62703,1.05317c-0.00036,0.00438 -0.00036,0.00877 0,0.01315c-0.21526,0.35169 -0.43554,0.70086 -0.66081,1.04754c-2.03379,3.144 -4.40309,6.0578 -7.06621,8.69008c-0.12577,0.12578 -0.25343,0.24781 -0.37546,0.37546c-0.2766,0.26783 -0.55632,0.53315 -0.83917,0.79597l-0.02065,0.01878c-0.28159,0.26032 -0.5657,0.51751 -0.8523,0.77158l-0.02065,0.0169c-0.28911,0.2503 -0.58071,0.50062 -0.87482,0.75093c-0.29911,0.2503 -0.60012,0.50063 -0.90299,0.75093c-0.25634,0.01567 -0.49698,-0.12428 -0.61014,-0.35482c-0.18773,-0.306 -0.11264,-0.68335 -0.12203,-1.02126c-0.01315,-0.42802 -0.3229,-0.58197 -0.70587,-0.7284c-0.29474,-0.11452 -0.59134,-0.23091 -0.88421,-0.35106c-0.9518,-0.39612 -2.05566,-0.85042 -2.77092,-1.62387c-0.42804,-0.46183 -0.63641,-1.16018 -0.3642,-1.70648c-0.70024,-0.17271 -1.40986,-0.52376 -1.50185,-1.31411c-0.09574,-0.89361 0.70587,-1.3498 1.26719,-1.90923c-0.73402,-0.02442 -1.42112,0.36231 -2.05566,0.73403c-0.09156,0.0507 -0.20298,0.04976 -0.29365,-0.0025c-0.09067,-0.05226 -0.14737,-0.14818 -0.1494,-0.25281c-0.01738,-0.25264 0.00736,-0.50641 0.07322,-0.75093c-0.59134,-0.17271 -0.72089,-0.85042 -0.66456,-1.47368c-0.24041,0.09761 -0.47109,0.21767 -0.68898,0.35856c-0.41677,0.27785 -0.60637,0.63453 -0.82977,1.06444c-0.27409,0.52752 -0.87107,1.12639 -1.50185,0.70962c-0.57258,-0.37546 -0.47872,-1.09448 -0.2403,-1.63514c0.3398,-0.7697 0.73591,-1.5225 1.12639,-2.2753l-1.19022,0.28911c-0.41663,0.14105 -0.84708,0.23734 -1.28409,0.28723c-0.58761,0.02066 -1.07383,-0.33791 -1.0851,-0.90299c-1.31412,-0.20463 -2.74088,-0.35668 -3.97615,-0.83353c-0.41259,-0.13754 -0.77516,-0.39428 -1.0419,-0.73779c-0.1251,-0.18999 -0.22127,-0.39751 -0.28536,-0.61576c-0.03005,-0.14782 -0.07928,-0.29108 -0.14643,-0.42615c-0.03754,-0.0582 -0.07508,-0.11639 -0.11075,-0.17459c-0.48435,-0.01502 -0.6796,0.10701 -0.58948,0.3642v0.01315c0.00877,0.02367 0.01879,0.04686 0.03004,0.06946c0.11827,0.30976 -0.39423,0.52752 -0.53879,0.22715l-0.85418,-1.79471c-0.17647,-0.37546 -0.3154,-0.73778 -0.75093,-0.84854c-0.26443,-0.0631 -0.53865,-0.07394 -0.80724,-0.03191c-0.8858,0.12861 -1.63985,0.71107 -1.98808,1.53564c0.87671,-0.18773 1.68958,-0.69835 2.60572,-0.32101c0.32623,0.11779 0.58741,0.36807 0.71901,0.68897c0.1408,0.40549 -0.22528,0.75092 -0.52752,0.98934c-0.83166,0.6364 -2.0031,0.72464 -2.97367,1.02501c-1.12639,0.35106 -2.22085,1.16018 -3.41107,1.26719c-1.10762,0.10138 -1.76281,-0.64955 -2.30347,-1.50185c-0.75156,-1.16022 -1.56629,-2.27829 -2.44051,-3.34913c-0.79035,-0.9931 -1.5563,-1.76467 -2.6808,-2.36541c-0.88609,-0.47309 -1.38545,-1.17521 -1.14703,-2.2096c0.199,-0.86544 0.81663,-2.14578 1.84916,-2.17957c0.9518,-0.03192 1.31413,0.92176 1.82851,1.56943c0.16451,-0.29567 0.29067,-0.61109 0.37546,-0.93866c0.09762,-0.37546 0.08823,-0.79035 0.25531,-1.1414c0.25907,-0.53879 0.85043,-0.66081 1.36481,-0.39987c0.67395,0.34167 0.81851,1.01374 0.93866,1.70272c0.12203,0.76218 0.46745,1.28032 0.06195,2.00309c-0.29474,0.52376 -0.34167,0.95555 -0.02441,1.49059c0.23091,0.39048 0.57447,0.70398 0.84292,1.06818c0.21439,0.32699 0.4027,0.67034 0.56319,1.02689c0.09794,0.23018 0.26191,0.42616 0.4712,0.5632c0.40175,0.21214 0.70211,-0.18774 0.62703,-0.5632c-0.0751,-0.37546 -0.45432,-0.73028 -0.69836,-1.04567c-0.21716,-0.27593 -0.39297,-0.58201 -0.5219,-0.90862c-0.23654,-0.59698 -0.31539,-1.30474 -0.03379,-1.90172c0.11927,-0.29871 0.34267,-0.54412 0.6289,-0.69084c0.33979,-0.13892 0.61013,0.05632 0.90487,0.20463c0.87657,0.43562 1.8771,0.55372 2.83099,0.33416c-0.31042,-0.33632 -0.69656,-0.59374 -1.12639,-0.75093c-0.54066,-0.18773 -1.10198,-0.1408 -1.65767,-0.24405c-0.87482,-0.15957 -1.43802,-0.75093 -1.2822,-1.6633c0.12015,-0.69648 -0.01503,-1.29534 -0.75093,-1.55442c-0.43554,-0.15393 -0.91801,-0.15018 -1.37232,-0.21025c-0.39335,-0.03219 -0.77475,-0.15077 -1.117,-0.3473c-0.1483,-0.09574 -0.2478,-0.24405 -0.38485,-0.34355c-0.39612,-0.2816 -0.72089,-0.09574 -1.07382,0.16146c-0.06713,0.05405 -0.15792,0.06835 -0.23842,0.03754c-1.37044,0.38485 -2.58318,-0.42615 -3.16515,-1.68958c-0.38673,-0.83541 -0.81475,-1.44929 -1.72338,-1.7459c-0.76219,-0.24968 -1.58258,-0.2647 -2.37668,-0.2647c-0.11748,-0.00347 -0.22199,-0.07555 -0.26696,-0.18414c-0.04497,-0.10859 -0.02204,-0.23346 0.05858,-0.31898l1.25029,-1.23152c0.40925,-0.40174 0.97807,-0.90298 0.37546,-1.4474c-0.38673,-0.35294 -1.04566,-0.44868 -1.54691,-0.53316c-0.62037,-0.10056 -1.24965,-0.13517 -1.87731,-0.10325c-0.37546,0.01502 -0.37546,-0.57446 0,-0.58947h0.16708c-0.2478,-0.89173 -0.44868,-1.84728 -0.09199,-2.73337c0.31726,-0.78847 0.9931,-1.33289 1.86041,-1.31411c0.70962,0.00939 1.87731,0.24217 2.18707,0.98371c0.20087,0.49749 0.25343,0.95931 0.60637,1.3986c0.3688,0.42413 0.78732,0.80231 1.24653,1.12639c0.08843,0.05429 0.14232,0.15061 0.14232,0.25438c0,0.10377 -0.05389,0.20009 -0.14232,0.25438l-0.18773,0.10325c0.07365,0.00259 0.14647,0.01651 0.21589,0.0413c0.1384,0.0559 0.25632,0.15287 0.33792,0.27784c0.20839,0.306 0.18773,0.72089 0.18773,1.07382c0,0.06195 0.04693,0.66457 0.15582,0.60825c0.15017,-0.08073 0.08635,-0.84291 0.10137,-1.00249c0.03567,-0.39049 0.20087,-0.86544 0.58571,-1.03815c0.42239,-0.18774 0.7115,0.08635 0.96869,0.37546c0.18774,0.21401 0.27972,0.45056 0.61576,0.36044c0.18254,-0.06554 0.34448,-0.17824 0.46934,-0.32666c0.20451,-0.24837 0.36167,-0.53216 0.4637,-0.83728c0.18773,-0.44493 0.40174,-0.92552 0.82414,-1.19961c0.214,-0.13705 0.62327,-0.11451 0.78847,-0.25719l0.15769,-0.48435c-0.10789,-0.15356 -0.27166,-0.25869 -0.45618,-0.29286c-0.19135,-0.04626 -0.38706,-0.07205 -0.58385,-0.07697c-0.11748,-0.00347 -0.22199,-0.07556 -0.26696,-0.18415c-0.04497,-0.10859 -0.02204,-0.23346 0.05858,-0.31898c0.52856,-0.5515 1.35972,-0.6835 2.03314,-0.32289c0.31787,0.1829 0.56761,0.46427 0.7115,0.80161c0.1746,0.37546 0.2816,0.98371 0.75093,1.07194c0.11175,0.03448 0.19306,0.13106 0.20802,0.24705c0.01495,0.11601 -0.0392,0.23004 -0.13855,0.29174c-0.98816,0.45123 -1.86927,1.1071 -2.58506,1.92425c-0.10888,0.12765 -0.51439,0.45618 -0.14831,0.57633c0.09574,0.03192 0.5951,-0.42238 0.68522,-0.48809l1.47369,-1.06632c0.44868,-0.32477 0.90299,-0.63077 1.15079,-1.14703c0.23278,-0.48623 0.29661,-1.04003 0.49186,-1.54128c0.19523,-0.50125 0.65142,-1.18646 1.28784,-0.8354c0.54254,0.29849 0.5463,1.01563 0.48997,1.53939c-0.01878,0.17647 -0.10513,0.5632 0,0.72465c0.33416,0.5632 0.7284,-0.07697 0.83165,-0.34918c0.12953,-0.33792 0.13704,-0.71526 0.26282,-1.05505c0.29849,-0.80348 0.93866,-0.92364 1.72338,-0.93866c1.11513,-0.03191 2.23024,-0.05819 3.34536,-0.08823c-0.07467,-0.56668 -0.27407,-1.10974 -0.58384,-1.59008c-0.2816,-0.42803 -0.77345,-0.78096 -0.93865,-1.27658c-0.32853,-0.97244 0.76593,-1.45679 0.97995,-2.2753c0.04713,-0.15384 0.20595,-0.24436 0.36233,-0.20651c0.86919,0.15582 1.729,-1.33665 2.07443,-1.9524c0.41863,-0.75092 0.61951,-1.57131 0.99122,-2.33537c0.61388,-1.26719 2.20021,-2.13638 2.33725,-3.61007c0.00169,-0.09193 0.04537,-0.17803 0.11858,-0.23367c0.07321,-0.05564 0.16786,-0.07468 0.25689,-0.05168c3.31158,0.72277 7.11877,1.74216 8.5155,5.21331c0.04201,0.15695 -0.05006,0.31849 -0.20651,0.36232c-1.21274,0.24217 -1.41737,1.81536 -2.10071,2.75026c0.11991,-0.02421 0.2365,-0.06266 0.3473,-0.11451c0.34731,-0.16708 0.5632,-0.51063 0.87295,-0.73967c0.51626,-0.39423 1.12638,-0.37546 1.7459,-0.31726c0.97244,0.09575 1.94301,0.20838 2.91358,0.31163l0.04694,0.00939c0.43367,-0.75092 0.84855,-1.51124 1.32914,-2.22274c0.34543,-0.51063 0.75092,-0.87858 1.39672,-0.79034c0.10131,0.02609 0.18041,0.1052 0.20651,0.20651c0.03003,0.16896 0.06196,0.33979 0.09386,0.50875c0.48809,-1.17333 0.53128,-2.57005 0.93866,-3.75463c0.51814,-1.52062 1.26905,-2.9455 2.01998,-4.36288c0.08493,-0.13714 0.26259,-0.18341 0.40363,-0.10513c1.79097,0.85793 1.68958,3.06377 2.00685,4.72519c0.07693,0.49594 0.24361,0.97371 0.49185,1.40987c0.31164,0.50124 0.81476,0.75092 1.22589,1.15642c0.48794,0.51426 0.84134,1.14106 1.02877,1.82474c0.16389,-0.19618 0.379,-0.34305 0.62139,-0.42427c0.36608,-0.12014 0.60075,0.00939 0.9518,0.05257c0.60637,0.07509 0.92552,-0.53691 1.23152,-0.98747c0.27078,-0.39913 0.51292,-0.81694 0.72465,-1.25029c0.17271,-0.35668 0.26657,-0.811 0.52564,-1.11512c0.35669,-0.42051 0.82601,-0.25532 1.18646,0.03566c0.43365,-0.83728 0.53878,-1.77594 0.67395,-2.70708c0.11982,-0.92252 0.35703,-1.82593 0.70587,-2.68831c0.35444,-0.84728 0.82448,-1.64142 1.39673,-2.35978c0.13141,0.37546 0.26032,0.75093 0.38673,1.12639v0.01501c0.12516,0.37546 0.24531,0.75093 0.36044,1.12639c0.2165,0.70337 0.41739,1.41237 0.60261,2.127l0.07885,0.31914c0.06383,0.2478 0.12391,0.49562 0.18774,0.75093c0.03191,0.13141 0.06382,0.26282 0.09386,0.39423c0.06383,0.28723 0.12767,0.57634 0.18774,0.86544c0.03754,0.18774 0.07509,0.3642 0.11076,0.5463c0.03003,0.14454 0.05631,0.29099 0.08447,0.43741c0.06508,0.34543 0.12767,0.6921 0.18774,1.04004c0.01315,0.07698 0.02629,0.15395 0.03755,0.23091c0.07635,0.46807 0.14705,0.93741 0.21213,1.40799c0.04755,0.34793 0.09073,0.69711 0.12953,1.04754c0.05257,0.45556 0.09886,0.91363 0.13891,1.3742c0,0.04693 0,0.09198 0.01315,0.13892c0.02441,0.28535 0.04506,0.56319 0.06571,0.85793c0.01502,0.21964 0.03003,0.44117 0.04129,0.66269c0,0.1577 0.01689,0.31726 0.02441,0.47684c0.01502,0.3323 0.02817,0.6627 0.03755,0.99686c0,0.08259 0,0.16708 0,0.25155c0.00876,0.38923 0.01376,0.77846 0.01502,1.16769zM252.69884,134.8918c0.36607,-0.47496 0.27408,-1.13014 -0.28536,-1.38734c-0.5632,-0.25531 -1.43426,-0.29849 -1.92987,0.09386c-0.45055,0.3567 -0.918,0.34167 -1.45679,0.18774c-0.47121,-0.13704 -0.80349,-0.45994 -1.24278,-0.63828c-0.60637,-0.2478 -1.14516,0.11076 -1.08321,0.76219c0.09574,0.9931 0.5632,2.05567 0.90675,2.98306c0.03677,0.09278 0.11721,0.16124 0.21468,0.18268c0.09745,0.02145 0.19922,-0.0069 0.27154,-0.07567c0.42803,0.08635 0.85668,0.16833 1.28597,0.24592c0.40549,0.07322 0.90674,0.24593 1.31412,0.18774c0.75092,-0.11828 0.25343,-0.80162 0.15393,-1.21275c-0.05406,-0.04741 -0.08506,-0.11583 -0.08506,-0.18774c0,-0.0719 0.031,-0.14032 0.08506,-0.18774c0.13148,-0.10942 0.28333,-0.19174 0.4468,-0.24217c0.20838,-0.07697 0.42614,-0.12203 0.63265,-0.19899c0.30168,-0.09191 0.56989,-0.27006 0.77157,-0.51251zM248.67495,141.05206c-0.02815,0.33604 0.15769,0.50875 0.21402,0.79973c0.07134,0.37546 -0.67395,0.91049 -0.87482,1.17332c-0.77534,1.02314 -0.7284,2.65829 0.70962,3.06002c0.5125,0.14268 1.17332,0 1.41174,-0.51626c0.16751,-0.33858 0.07781,-0.74804 -0.21589,-0.98559c-0.04285,-0.4888 0.07586,-0.97815 0.33792,-1.39297c0.27221,-0.38673 0.6871,-0.40175 1.00812,-0.68522c0.19012,-0.18061 0.26268,-0.4527 0.18773,-0.70399c-0.03758,-0.12991 -0.10148,-0.25068 -0.18773,-0.35482c-0.04318,-0.05444 -0.15207,-0.11828 -0.18774,-0.17835c-0.10888,-0.23467 -0.03753,-0.10701 0.09199,-0.26658c0.32853,-0.40737 0.6871,-0.86169 0.27597,-1.37795c-0.41113,-0.51627 -1.08132,-0.39425 -1.56004,-0.10889c-0.55381,0.33041 -1.14328,0.86169 -1.21087,1.53752zM259.59608,125.09974c-0.7772,0.03192 -1.40986,0.54818 -1.87731,1.12639c-0.24352,0.31831 -0.45837,0.65754 -0.64204,1.01376c-0.08448,0.15956 -0.36608,0.58946 -0.10701,0.73403c0.22341,0.12579 0.50688,-0.17835 0.63453,-0.31539c0.50124,-0.53691 0.88046,-1.04379 1.57131,-1.36481c0.6176,-0.26113 1.28661,-0.37798 1.95616,-0.34167h0.05256c-0.25907,-0.59887 -0.93677,-0.87858 -1.5882,-0.8523z" fill="#0077b8" fill-rule="nonzero" stroke="none" stroke-width="1"/><text transform="translate(183.93815,47.26541) scale(0.26747,0.26747)" font-size="40" xml:space="preserve" fill="#ffffff" fill-rule="nonzero" stroke="#ffffff" stroke-width="1" stroke-linecap="butt" stroke-linejoin="miter" stroke-miterlimit="10" stroke-dasharray="" stroke-dashoffset="0" font-family="Handwriting" font-weight="normal" text-anchor="start" style="mix-blend-mode: normal"></text><text transform="translate(167.75,67.13828) scale(0.2512,0.2512)" font-size="40" xml:space="preserve" fill="#ffffff" fill-rule="nonzero" stroke="none" stroke-width="1" stroke-linecap="butt" stroke-linejoin="miter" stroke-miterlimit="10" stroke-dasharray="" stroke-dashoffset="0" font-family="Handwriting" font-weight="normal" text-anchor="start" style="mix-blend-mode: normal"></text></g></g></svg>