<svg version="1.1" xmlns="http://www.w3.org/2000/svg" xmlns:xlink="http://www.w3.org/1999/xlink" width="187" height="186.20111" viewBox="0,0,187,186.20111"><defs><radialGradient cx="240" cy="132.64487" r="93.5" gradientUnits="userSpaceOnUse" id="color-1"><stop offset="0" stop-color="#4bb375"/><stop offset="1" stop-color="#4bb375" stop-opacity="0"/></radialGradient><linearGradient x1="240.61953" y1="58.29926" x2="240.61953" y2="237.16749" gradientUnits="userSpaceOnUse" id="color-2"><stop offset="0" stop-color="#000000"/><stop offset="1" stop-color="#000000" stop-opacity="0"/></linearGradient><radialGradient cx="241.39019" cy="129.34348" r="76.54238" gradientUnits="userSpaceOnUse" id="color-3"><stop offset="0" stop-color="#6bffa5"/><stop offset="1" stop-color="#6bffa5" stop-opacity="0"/></radialGradient><linearGradient x1="222.30559" y1="93.60187" x2="233.47611" y2="102.31883" gradientUnits="userSpaceOnUse" id="color-4"><stop offset="0" stop-color="#ff6b99"/><stop offset="1" stop-color="#ff6b99" stop-opacity="0"/></linearGradient><linearGradient x1="212.00974" y1="160.79547" x2="222.83888" y2="156.51547" gradientUnits="userSpaceOnUse" id="color-5"><stop offset="0" stop-color="#ff6b99"/><stop offset="1" stop-color="#ff6b99" stop-opacity="0"/></linearGradient><linearGradient x1="258.29925" y1="164.91007" x2="246.22686" y2="156.67058" gradientUnits="userSpaceOnUse" id="color-6"><stop offset="0" stop-color="#ff6b99"/><stop offset="1" stop-color="#ff6b99" stop-opacity="0"/></linearGradient><linearGradient x1="268.33006" y1="103.67348" x2="254.49776" y2="106.74489" gradientUnits="userSpaceOnUse" id="color-7"><stop offset="0" stop-color="#ff6b99"/><stop offset="1" stop-color="#ff6b99" stop-opacity="0"/></linearGradient><radialGradient cx="275.43574" cy="131.27459" r="15.74289" gradientUnits="userSpaceOnUse" id="color-8"><stop offset="0" stop-color="#ff6b99" stop-opacity="0"/><stop offset="1" stop-color="#ff6b99"/></radialGradient><radialGradient cx="248.91549" cy="117.4276" r="28.61134" gradientUnits="userSpaceOnUse" id="color-9"><stop offset="0" stop-color="#ffffff"/><stop offset="1" stop-color="#ffffff" stop-opacity="0"/></radialGradient><radialGradient cx="224.12218" cy="137.1683" r="37.37701" gradientUnits="userSpaceOnUse" id="color-10"><stop offset="0" stop-color="#ffffff"/><stop offset="1" stop-color="#ffffff" stop-opacity="0"/></radialGradient></defs><g transform="translate(-146.5,-34.94376)"><g data-paper-data="{&quot;isPaintingLayer&quot;:true}" fill-rule="nonzero" stroke-linecap="butt" stroke-linejoin="miter" stroke-miterlimit="10" stroke-dasharray="" stroke-dashoffset="0" style="mix-blend-mode: normal"><path d="M333.5,132.64487c0,48.8772 -41.86138,88.5 -93.5,88.5c-51.63862,0 -93.5,-39.6228 -93.5,-88.5c0,-48.8772 41.86138,-88.5 93.5,-88.5c51.63862,0 93.5,39.6228 93.5,88.5z" fill="url(#color-1)" stroke="none" stroke-width="0"/><path d="M284.37023,179.70937c0.07585,1.88165 -6.82295,7.07192 -42.75929,7.07192c-35.93634,0 -45.96971,-4.43047 -45.98172,-7.45949c-0.01038,-2.6151 9.30175,-6.10294 45.23807,-6.10294c35.93634,0 43.43354,4.76932 43.50294,6.49051z" fill="url(#color-2)" stroke="none" stroke-width="0"/><text transform="translate(224.41318,205.7339) scale(0.357,0.357)" font-size="40" xml:space="preserve" fill="#ffffff" fill-rule="nonzero" stroke="#ffffff" stroke-width="0.5" stroke-linecap="butt" stroke-linejoin="miter" stroke-miterlimit="10" stroke-dasharray="" stroke-dashoffset="0" font-family="Handwriting" font-weight="normal" text-anchor="start" style="mix-blend-mode: normal"></text><text transform="translate(196.40329,48.05262) scale(0.34497,0.34497)" font-size="40" xml:space="preserve" fill="#ffffff" fill-rule="nonzero" stroke="#ffffff" stroke-width="1" stroke-linecap="butt" stroke-linejoin="miter" stroke-miterlimit="10" stroke-dasharray="" stroke-dashoffset="0" font-family="Handwriting" font-weight="normal" text-anchor="start" style="mix-blend-mode: normal"></text><g stroke="none" stroke-width="0"><path d="M232.74709,177.01173c-14.80322,-1.55376 -25.36435,-16.85433 -26.85076,-36.56788c-0.34535,-4.58018 -30.31822,-6.17553 -30.03714,-20.60142c0.24087,-12.36149 33.71923,-7.96134 36.26372,-13.54289c7.43911,-16.31831 20.37993,-25.59258 33.97306,-24.16582c13.83651,1.4523 23.96688,14.91457 26.4448,32.76479c0.78906,5.68416 35.20996,5.69765 31.81567,21.0975c-2.62563,11.9125 -35.65402,7.64019 -37.42848,12.26563c-7.03524,18.33858 -19.61275,30.2792 -34.18088,28.7501z" fill="url(#color-3)"/><path d="M236.97862,82.79862c-4.71239,4.77406 3.06829,11.09993 -3.50251,19.52021c-6.5708,8.42028 -19.86964,10.40387 -22.52119,7.52662c-0.83804,-0.90938 2.74341,-8.63789 9.31421,-17.05817c6.5708,-8.42028 17.13796,-10.42274 16.70949,-9.98866z" fill="url(#color-4)"/><path d="M210.42039,160.75996c-3.22625,-8.16295 -5.29931,-20.15101 -4.4276,-20.67346c2.75804,-1.65303 13.61984,8.26603 16.84609,16.42898c3.22625,8.16295 9.38295,18.00386 6.39256,19.18574c-2.99039,1.18188 -15.5848,-6.77831 -18.81105,-14.94126z" data-paper-data="{&quot;index&quot;:null}" fill="url(#color-5)"/><path d="M236.86286,177.31556c-3.3337,-2.27527 3.15312,-11.54487 9.364,-20.64497c6.21088,-9.1001 19.2953,-14.15806 22.21404,-11.37034c0.9225,0.88109 -1.97514,10.90648 -8.18601,20.00658c-6.21088,9.1001 -20.05832,14.28401 -23.39202,12.00874z" data-paper-data="{&quot;index&quot;:null}" fill="url(#color-6)"/><path d="M270.51894,103.81296c2.31522,10.4267 2.22837,18.94428 1.08088,19.40533c-3.63061,1.45877 -14.78685,-6.04671 -17.10207,-16.47341c-1.54676,-6.96594 0.11456,-11.30299 1.22513,-15.18016c0.55174,-1.92622 -0.34853,-5.05501 0.76153,-5.72906c0.57458,-0.3489 11.7193,7.5506 14.03452,17.9773z" data-paper-data="{&quot;index&quot;:null}" fill="url(#color-7)"/><path d="M265.54075,147.01746c-3.21544,0.01385 7.33114,-5.41918 7.29335,-14.19648c-0.03779,-8.77729 -3.37445,-17.77849 -0.19967,-17.26859c1.00342,0.16115 13.2684,7.81766 13.30619,16.59495c0.03779,8.7773 -17.18443,14.85628 -20.39988,14.87012z" data-paper-data="{&quot;index&quot;:null}" fill="url(#color-8)"/><path d="M275.48577,105.28552c7.90299,20.03297 2.39364,40.97375 -12.3055,46.77255c-14.69914,5.7988 -33.02178,-5.74027 -40.92478,-25.77324c-7.903,-20.03297 -2.39364,-40.97375 12.3055,-46.77255c14.69914,-5.7988 33.02178,5.74027 40.92478,25.77324zM257.31943,140.25914c8.64655,-3.41106 11.85004,-15.82375 7.15519,-27.72452c-4.69485,-11.90077 -15.51019,-18.78305 -24.15674,-15.37199c-8.64655,3.41106 -11.85004,15.82375 -7.15519,27.72453c4.69485,11.90078 15.51019,18.78304 24.15674,15.37198z" fill="url(#color-9)"/><path d="M262.32214,138.58441c-2.8534,21.4249 -21.8505,37.49678 -42.43121,35.89754c-20.58071,-1.59924 -34.95153,-20.26401 -32.09813,-41.68891c2.8534,-21.4249 21.85049,-37.49678 42.43121,-35.89754c20.58071,1.59924 34.95154,20.26401 32.09813,41.68892zM219.50214,161.30928c12.1063,0.94073 23.29454,-8.61447 24.98963,-21.34214c1.69509,-12.72767 -6.74486,-23.8081 -18.85116,-24.74883c-12.1063,-0.94073 -22.96121,6.94781 -24.6563,19.67548c-0.63165,4.74276 3.81069,1.92346 5.65896,5.76935c3.11175,6.47492 5.2638,20.05596 12.85888,20.64614z" fill="url(#color-10)"/><path d="M246.47155,130.10478c0,3.48421 -2.50625,6.30871 -5.59787,6.30871c-3.09162,0 -5.59787,-2.8245 -5.59787,-6.30871c0,-3.48421 2.50625,-6.30871 5.59787,-6.30871c3.09162,0 5.59787,2.82451 5.59787,6.30871z" fill="#ffffff"/><path d="M232.25473,122.99638c0,1.91386 -1.43214,3.46535 -3.19878,3.46535c-1.76664,0 -3.19878,-1.55149 -3.19878,-3.46535c0,-1.91386 1.43214,-3.46534 3.19878,-3.46534c1.76664,0 3.19878,1.55148 3.19878,3.46534z" fill="#ffffff"/></g><text transform="translate(192.68818,63.43207) scale(0.26747,0.26747)" font-size="40" xml:space="preserve" fill="#ffffff" fill-rule="nonzero" stroke="#ffffff" stroke-width="1" stroke-linecap="butt" stroke-linejoin="miter" stroke-miterlimit="10" stroke-dasharray="" stroke-dashoffset="0" font-family="Handwriting" font-weight="normal" text-anchor="start" style="mix-blend-mode: normal"></text></g></g></svg>