<svg version="1.1" xmlns="http://www.w3.org/2000/svg" xmlns:xlink="http://www.w3.org/1999/xlink" width="118.75004" height="176.45433" viewBox="0,0,118.75004,176.45433"><defs><linearGradient x1="240.6195" y1="58.29924" x2="240.6195" y2="237.16744" gradientUnits="userSpaceOnUse" id="color-1"><stop offset="0" stop-color="#000000"/><stop offset="1" stop-color="#000000" stop-opacity="0"/></linearGradient><linearGradient x1="123.85837" y1="128.5" x2="556.58561" y2="128.5" gradientUnits="userSpaceOnUse" id="color-2"><stop offset="0" stop-color="#000000"/><stop offset="1" stop-color="#000000" stop-opacity="0"/></linearGradient></defs><g transform="translate(-172.25001,-31.50706)"><g data-paper-data="{&quot;isPaintingLayer&quot;:true}" fill-rule="nonzero" stroke-linecap="butt" stroke-linejoin="miter" stroke-miterlimit="10" stroke-dasharray="" stroke-dashoffset="0" style="mix-blend-mode: normal"><path d="M284.37023,179.70932c0.07585,1.88165 -6.82295,7.07192 -42.75929,7.07192c-35.93634,0 -45.96971,-4.43047 -45.98172,-7.45949c-0.01038,-2.6151 9.30175,-6.10294 45.23807,-6.10294c35.93634,0 43.43354,4.76932 43.50294,6.49051z" fill="url(#color-1)" stroke="none" stroke-width="0"/><text transform="translate(225.1957,203.1136) scale(0.28942,0.28942)" font-size="40" xml:space="preserve" fill="#ffffff" fill-rule="nonzero" stroke="#ffffff" stroke-width="0.5" stroke-linecap="butt" stroke-linejoin="miter" stroke-miterlimit="10" stroke-dasharray="" stroke-dashoffset="0" font-family="Handwriting" font-weight="normal" text-anchor="start" style="mix-blend-mode: normal"></text><text transform="translate(206.75235,44.99858) scale(0.35504,0.35504)" font-size="40" xml:space="preserve" fill="#ffffff" fill-rule="nonzero" stroke="#ffffff" stroke-width="1" stroke-linecap="butt" stroke-linejoin="miter" stroke-miterlimit="10" stroke-dasharray="" stroke-dashoffset="0" font-family="Handwriting" font-weight="normal" text-anchor="start" style="mix-blend-mode: normal"></text><text transform="translate(204.25236,66.55423) scale(0.30103,0.30103)" font-size="40" xml:space="preserve" fill="#ffffff" fill-rule="nonzero" stroke="#ffffff" stroke-width="1" stroke-linecap="butt" stroke-linejoin="miter" stroke-miterlimit="10" stroke-dasharray="" stroke-dashoffset="0" font-family="Handwriting" font-weight="normal" text-anchor="start" style="mix-blend-mode: normal"></text><g><path d="M289.75005,129.25c0,27.3381 -22.49769,49.5 -50.25,49.5c-27.75231,0 -50.25,-22.1619 -50.25,-49.5c0,-27.33809 22.49769,-49.5 50.25,-49.5c27.75231,0 50.25,22.16191 50.25,49.5z" fill="#b9b9b9" stroke="#000000" stroke-width="2.5"/><path d="M232.77432,161.77878c0,3.8102 -2.74935,6.89897 -6.14085,6.89897c-3.39149,0 -8.41523,-2.93714 -8.41523,-6.74734c0,-3.8102 5.02374,-7.0506 8.41523,-7.0506c3.39149,0 6.14085,3.08877 6.14085,6.89897zM228.39474,164.57095c1.09486,-0.83066 1.80197,-2.14581 1.80197,-3.62611c0,-2.20835 -1.57369,-4.04915 -3.66081,-4.46215c-0.28718,-0.05683 -0.5841,-0.08662 -0.88796,-0.08662c-2.31838,-0.50778 -4.85202,2.5701 -4.85202,4.54878c0,2.34884 1.77978,3.98812 3.80649,4.42804c0.3357,0.07896 0.68574,0.12073 1.04554,0.12073c0.08532,0 0.17009,-0.00235 0.25424,-0.00699c0.70238,-0.02973 1.39593,-0.21048 2.02014,-0.56161c0.17623,-0.09913 0.33238,-0.2185 0.47242,-0.35407z" fill="#e3e3e3" stroke="none" stroke-width="0"/><path d="M288.42008,134.57739c-2.55273,13.97406 -10.12689,28.91924 -19.33655,28.59021c-8.96139,-0.32016 -19.55994,-15.72264 -22.27195,-16.34404c-10.91684,-2.50134 -27.50324,7.21755 -39.52277,4.09201c-12.29894,-3.19819 -19.86326,-19.32756 -15.86872,-29.67151c2.13593,-5.53104 7.1854,-24.87123 22.03426,-33.06008c19.09102,-10.52831 27.16507,6.22674 39.29908,6.22674c18.96178,0 40.1759,15.48232 35.66666,40.16666z" fill="#a8a6a5" stroke="none" stroke-width="0"/><path d="M249.75344,115.07739c-1.66666,24.89645 -25.95431,31.33333 -37,31.33333c-11.04569,0 -23.16139,-17.31351 -21,-28.33333c2.33334,-11.89646 7.95431,-19.33334 19.66666,-28c8.87917,-6.57022 39.08342,13.79529 38.33334,25z" fill="#7b7875" stroke="none" stroke-width="0"/><path d="M269.83799,103.97276c2.59123,4.6932 1.79213,10.72016 -3.17314,13.4616c-4.96526,2.74144 -9.6842,2.56603 -12.27543,-2.12716c-2.59123,-4.6932 -0.66668,-10.72016 4.29859,-13.4616c4.96526,-2.74144 8.55875,-2.56604 11.14997,2.12716z" fill="#7b7875" stroke="none" stroke-width="0"/><path d="M252.86439,145.91142c0,3.16121 -2.46284,6.62426 -5.65957,6.62426c-3.19673,0 -5.78818,-2.56266 -5.78818,-5.72387c0,-3.16121 2.59145,-5.72387 5.78818,-5.72387c3.19673,0 5.65957,1.66228 5.65957,4.82349zM247.20483,151.37804c2.13116,0 3.85879,-2.88528 3.85879,-5.01644c0,-2.13116 -1.85626,-3.73016 -3.98741,-3.73016c-2.13116,0 -4.11605,1.98489 -4.11605,4.11605c0,2.13116 2.11352,4.63055 4.24468,4.63055z" fill="#e3e3e3" stroke="none" stroke-width="0"/><path d="M266.53103,160.91143c0,3.16121 -2.46284,6.62426 -5.65957,6.62426c-3.19673,0 -5.78819,-2.56266 -5.78819,-5.72387c0,-3.16121 2.59146,-5.72388 5.78819,-5.72388c3.19673,0 5.65957,1.66228 5.65957,4.8235zM260.87147,166.37804c2.13115,0 3.85879,-2.88528 3.85879,-5.01643c0,-2.13116 -1.85626,-3.73016 -3.98741,-3.73016c-2.13115,0 -4.11605,1.98489 -4.11605,4.11604c0,2.13116 2.11352,4.63055 4.24467,4.63055z" fill="#e3e3e3" stroke="none" stroke-width="0"/><path d="M288.42008,132.91797c-1.74377,12.81783 -3.42707,22.84058 -13,22.84058c-9.57293,0 -17.33333,-8.43521 -17.33333,-18.84058c0,-10.40537 7.7604,-18.84058 17.33333,-18.84058c9.57293,0 13.94939,7.86196 13,14.84058z" fill="#7b7875" stroke="none" stroke-width="0"/><path d="M227.74494,125.13175c-2.70336,0.94003 -7.19295,0.53418 -8.187,-2.32455c-0.99406,-2.85873 1.50689,-4.1818 4.21025,-5.12183c2.70336,-0.94003 4.58543,-1.14105 5.57949,1.71768c0.99406,2.85873 1.10063,4.78867 -1.60273,5.7287zM220.94737,122.4502c0.7921,1.80798 3.43865,2.8405 5.30303,2.19221c1.86438,-0.6483 2.85022,-2.68523 2.20192,-4.54962c-0.64829,-1.86438 -2.48959,-2.28759 -4.35397,-1.6393c-0.34556,0.12016 -4.37371,1.20583 -3.15098,3.99671z" fill="#e3e3e3" stroke="none" stroke-width="0"/><path d="M217.0263,115.75665c0,3.30776 -3.54142,2.04695 -6.97478,2.04695c-3.43336,0 -6.21666,-0.5587 -6.21666,-3.86646c0,-3.30775 2.7833,-5.98922 6.21666,-5.98922c3.43336,0 6.97478,4.50097 6.97478,7.80873zM210.05152,116.5906c2.51222,0 4.54878,-0.5203 4.54878,-3.03252c0,-2.51222 -2.03656,-3.94227 -4.54878,-3.94227c-2.51222,0 -4.54877,0.82355 -4.54877,3.33577c0,2.51222 2.03655,3.63902 4.54877,3.63902z" fill="#e3e3e3" stroke="none" stroke-width="0"/><path d="M249.68442,89.32875c0,3.64272 -2.80138,8.11198 -6.4441,8.11198c-3.64272,0 -6.14084,-4.46926 -6.14084,-8.11198c0,-3.64272 1.28511,-6.74735 4.92783,-6.74735c3.64272,0 7.65711,3.10464 7.65711,6.74735zM243.4678,95.62121c2.51222,0 4.24552,-2.64305 4.24552,-5.15527c0,-2.51222 -2.3398,-5.3069 -4.85202,-5.3069c-2.51222,0 -4.24552,2.79469 -4.24552,5.30691c0,2.51222 2.3398,5.15527 4.85202,5.15527z" fill="#e3e3e3" stroke="none" stroke-width="0"/><path d="M270.93204,101.80529c0,2.8796 -2.87324,3.78013 -6.25676,3.78013c-3.38353,0 -5.99606,-0.90054 -5.99606,-3.78013c0,-2.8796 2.61253,-6.64781 5.99606,-6.64781c3.38353,0 6.25676,3.76822 6.25676,6.64781zM264.02353,104.41228c2.15969,0 4.82292,-0.05624 4.82292,-2.21594c0,-2.15969 -2.27218,-5.60502 -4.43187,-5.60502c-2.15969,0 -4.17118,2.14182 -4.17118,4.30152c0,2.15969 1.62044,3.51944 3.78013,3.51944z" fill="#e3e3e3" stroke="none" stroke-width="0"/><path d="M253.95431,128.5c0,23.05789 -18.29013,41.75 -40.85215,41.75c-22.56202,0 -40.85215,-18.69211 -40.85215,-41.75c0,-0.67989 0.1205,-3.47152 0.17753,-4.09766c1.93262,-21.22061 19.40545,-37.65234 40.67462,-37.65234c21.14803,0 38.36327,16.42261 40.46052,37.46976c0.07595,0.76218 0.39163,3.61783 0.39163,4.28024z" fill="url(#color-2)" stroke="none" stroke-width="0"/></g></g></g></svg>