<svg version="1.1" xmlns="http://www.w3.org/2000/svg" xmlns:xlink="http://www.w3.org/1999/xlink" width="122.6509" height="177.41294" viewBox="0,0,122.6509,177.41294"><defs><linearGradient x1="240.72707" y1="27.50078" x2="240.72707" y2="251.63474" gradientUnits="userSpaceOnUse" id="color-1"><stop offset="0" stop-color="#000000"/><stop offset="1" stop-color="#000000" stop-opacity="0"/></linearGradient></defs><g transform="translate(-177.69976,-41.92848)"><g data-paper-data="{&quot;isPaintingLayer&quot;:true}" fill-rule="nonzero" stroke-linecap="butt" stroke-linejoin="miter" stroke-miterlimit="10" stroke-dasharray="" stroke-dashoffset="0" style="mix-blend-mode: normal"><path d="M292.08303,179.63576c0.08904,2.35783 -8.00899,8.86158 -50.19209,8.86158c-42.1831,0 -53.96057,-5.5517 -53.97468,-9.34723c-0.01219,-3.27688 10.91867,-7.6474 53.10177,-7.6474c42.1831,0 50.98354,5.97629 51.065,8.13305z" fill="url(#color-1)" stroke="none" stroke-width="0"/><text transform="translate(215.29168,211.51887) scale(0.46015,0.46015)" font-size="40" xml:space="preserve" fill="#000000" fill-rule="nonzero" stroke="#000000" stroke-width="1" stroke-linecap="butt" stroke-linejoin="miter" stroke-miterlimit="10" stroke-dasharray="" stroke-dashoffset="0" font-family="Handwriting" font-weight="normal" text-anchor="start" style="mix-blend-mode: normal"></text><text transform="translate(177.9491,60.8787) scale(0.49869,0.49869)" font-size="40" xml:space="preserve" fill="#000000" fill-rule="nonzero" stroke="#000000" stroke-width="1" stroke-linecap="butt" stroke-linejoin="miter" stroke-miterlimit="10" stroke-dasharray="" stroke-dashoffset="0" font-family="Handwriting" font-weight="normal" text-anchor="start" style="mix-blend-mode: normal"></text><g stroke="none" stroke-width="0"><path d="M190.5715,163.72448c-0.99546,-17.00898 -3.1783,-45.89256 -3.69438,-54.71054c-0.33217,-7.78937 7.79978,-12.19303 15.62546,-11.99837c10.21633,0.25413 38.65931,4.24272 58.07783,4.72334c12.13982,0.30047 20.22442,10.315 19.96099,17.95752c-0.29554,8.57432 -0.87303,28.65479 -1.27573,43.14137c-0.25423,9.14545 -9.15751,16.23915 -20.70429,16.23915c-18.12133,0 -43.20808,0 -52.49094,0c-6.98124,0 -14.98445,-6.56144 -15.49895,-15.35247z" fill="#dafae7"/><path d="M229.57023,108.28065c0,0 16.3457,-19.11513 22.19875,-25.85408c3.82941,-4.40901 16.56045,-4.81637 21.5014,-0.73614c5.20535,4.29857 16.64382,13.98841 24.17757,20.20977c4.0187,3.31864 3.50163,8.80934 0.65847,11.4979c-6.31836,5.9748 -30.24411,28.87895 -30.24411,28.87895z" fill="#dafae7"/><path d="M197.00868,163.36883c-0.44256,-8.09082 -1.9928,-33.5916 -2.74992,-49.15688c-0.35891,-7.37882 8.99998,-11.52537 16.38001,-10.7327c9.63153,1.0345 34.92978,3.75172 50.92995,5.47025c8.16835,0.87734 14.00928,10.57935 13.7931,14.57681c-0.58759,10.86557 -45.28658,11.44367 -47.60967,13.75884c-3.46312,3.45129 -7.89851,36.77319 -18.09708,36.77299c-4.55843,-0.00009 -12.37803,-5.78347 -12.64638,-10.6893z" fill="#f2fff7"/><path d="M243.05901,99.77673c2.58569,-3.07522 6.75368,-8.89501 11.76217,-14.77918c1.7513,-1.79864 9.21682,-2.6645 15.93332,0.89245c9.33765,4.94506 23.46729,17.73556 25.58664,21.55704c0.70243,0.81721 -15.01327,15.02119 -15.55132,12.66752c-0.58902,-2.57664 0.40392,-5.71788 -3.09923,-10.27008c-6.52011,-8.47262 -36.1994,-8.2031 -34.63158,-10.06775z" fill="#f2fff7"/><path d="M241.51818,172.88297c-1.93903,-1.73219 -0.45937,-12.62381 -0.45937,-15.03158c0,-5.55891 6.19628,-10.06528 13.83977,-10.06528c4.00144,0 14.40032,1.23503 16.92714,3.20954c1.16706,0.91198 -2.60416,8.62804 -10.28037,14.22435c-7.45082,5.432 -18.77722,8.77957 -20.02716,7.66297z" fill="#f2fff7"/></g></g></g></svg>