<svg version="1.1" xmlns="http://www.w3.org/2000/svg" xmlns:xlink="http://www.w3.org/1999/xlink" width="124.6377" height="181.5881" viewBox="0,0,124.6377,181.5881"><defs><linearGradient x1="240.34874" y1="17.04371" x2="240.34874" y2="251.82591" gradientUnits="userSpaceOnUse" id="color-1"><stop offset="0" stop-color="#000000"/><stop offset="1" stop-color="#000000" stop-opacity="0"/></linearGradient><radialGradient cx="221.88756" cy="125.31479" r="44.42186" gradientUnits="userSpaceOnUse" id="color-2"><stop offset="0" stop-color="#ffea9b"/><stop offset="1" stop-color="#ff9d00"/></radialGradient><radialGradient cx="221.88756" cy="125.31479" r="44.42186" gradientUnits="userSpaceOnUse" id="color-3"><stop offset="0" stop-color="#b38741" stop-opacity="0"/><stop offset="1" stop-color="#b38741"/></radialGradient></defs><g transform="translate(-177.62423,-35.25333)"><g data-paper-data="{&quot;isPaintingLayer&quot;:true}" fill-rule="nonzero" stroke-linecap="butt" stroke-linejoin="miter" stroke-miterlimit="10" stroke-dasharray="" stroke-dashoffset="0" style="mix-blend-mode: normal"><path d="M282.64103,176.40637c0.07333,2.46985 -6.59551,9.28258 -41.33383,9.28258c-34.73832,0 -44.43722,-5.81546 -44.44884,-9.7913c-0.01004,-3.43255 8.99167,-8.01072 43.72999,-8.01072c34.73832,0 41.98559,6.26022 42.05268,8.51944z" fill="url(#color-1)" stroke="none" stroke-width="0"/><text transform="translate(220.29168,209.01888) scale(0.46015,0.46015)" font-size="40" xml:space="preserve" fill="#000000" fill-rule="nonzero" stroke="#000000" stroke-width="1" stroke-linecap="butt" stroke-linejoin="miter" stroke-miterlimit="10" stroke-dasharray="" stroke-dashoffset="0" font-family="Handwriting" font-weight="normal" text-anchor="start" style="mix-blend-mode: normal"></text><text transform="translate(206.27264,56.41477) scale(0.55688,0.55688)" font-size="40" xml:space="preserve" fill="#000000" fill-rule="nonzero" stroke="#000000" stroke-width="1" stroke-linecap="butt" stroke-linejoin="miter" stroke-miterlimit="10" stroke-dasharray="" stroke-dashoffset="0" font-family="Handwriting" font-weight="normal" text-anchor="start" style="mix-blend-mode: normal"></text><g stroke="none"><path d="M242.33286,90.85842c24.76999,2.34189 44.75385,22.16941 42.41215,46.93732c-2.34189,24.76998 -25.96315,43.39281 -50.73106,41.05112c-24.76816,-2.34171 -43.42385,-25.63496 -41.08031,-50.40295c2.34134,-24.76425 24.62741,-39.92755 49.39922,-37.58549z" fill="#231f20" stroke-width="0"/><path d="M242.68955,92.35168v0c24.11106,2.27959 42.65533,20.84201 40.37593,44.95104c-2.27959,24.11106 -24.30343,42.33012 -48.41246,40.05071c-24.10929,-2.27943 -42.32979,-24.30698 -40.04859,-48.4161c2.27907,-24.10548 23.97227,-38.86542 48.08512,-36.58566z" fill="url(#color-2)" stroke-width="0"/><path d="M242.68955,92.35168v0c24.11106,2.27959 42.65533,20.84201 40.37592,44.95104c-2.27959,24.11106 -24.30342,42.33012 -48.41245,40.05071c-24.10929,-2.27943 -42.32979,-24.30698 -40.04859,-48.4161c2.27907,-24.10548 23.97227,-38.86542 48.08512,-36.58566z" fill="url(#color-3)" stroke-width="0"/><g fill="#231f20" stroke-width="0.72777"><path d="M218.48545,160.23964c0.56593,0.04435 0.58632,2.627 -1.41738,2.68818c-1.98866,0.06118 -2.33026,-2.49903 -1.61775,-2.56021c0.35256,-0.03161 0.20037,0.91467 1.51399,0.91467c1.31337,0 1.23919,-1.06508 1.52114,-1.04264z"/><path d="M235.22914,164.64958c0.70691,0.05379 0.73673,3.28189 -1.77733,3.36168c-2.48603,0.07979 -2.91276,-3.12614 -2.02206,-3.2021c0.44332,-0.04079 0.25033,1.14461 1.8923,1.14461c1.64197,0 1.54917,-1.33197 1.90709,-1.30419z"/><path d="M252.62238,159.90569c0.70869,0.04996 0.73648,3.27629 -1.77554,3.36168c-2.48603,0.07979 -2.91276,-3.12436 -2.02231,-3.20211c0.44536,-0.04282 0.25059,1.14461 1.89255,1.14461c1.64172,0 1.54892,-1.33019 1.9053,-1.30419z"/><path d="M249.34787,168.36c0.70665,0.05379 0.73469,3.28189 -1.77376,3.36168c-2.48959,0.07979 -2.91455,-3.12614 -2.02588,-3.2021c0.44332,-0.04079 0.25594,1.14461 1.89408,1.14461c1.6384,0 1.54918,-1.33197 1.90556,-1.30419z"/><path d="M240.93052,149.96694c0.5639,0.04282 0.58811,2.62342 -1.4212,2.692c-1.9851,0.05939 -2.33026,-2.5026 -1.61775,-2.56403c0.35256,-0.03135 0.20037,0.91467 1.51399,0.91467c1.31337,0 1.23918,-1.06482 1.52496,-1.04264z"/><path d="M208.92731,145.22306c0.5639,0.04079 0.58811,2.62343 -1.4212,2.69022c-1.9851,0.06118 -2.33026,-2.50082 -1.61775,-2.56021c0.35256,-0.03544 0.20037,0.91263 1.51374,0.91263c1.31363,0 1.23944,-1.06304 1.52521,-1.04264z"/><path d="M226.67286,152.34539c0.56567,0.03722 0.58811,2.62164 -1.41738,2.68843c-1.98892,0.06296 -2.33027,-2.49903 -1.61801,-2.56046c0.35256,-0.0334 0.20038,0.91467 1.514,0.91467c1.31363,0 1.23944,-1.06661 1.52139,-1.04264z"/><path d="M212.01266,135.58513c0.49328,0.03875 0.51367,2.29865 -1.24505,2.35244c-1.74215,0.05201 -2.04271,-2.18751 -1.41917,-2.2413c0.30795,-0.02397 0.17794,0.80148 1.32459,0.80148c1.15022,0 1.08522,-0.93124 1.33963,-0.91263z"/><path d="M229.94914,135.42172c0.56415,0.03901 0.58811,2.62343 -1.4212,2.68843c-1.98306,0.06296 -2.33002,-2.49903 -1.61776,-2.56046c0.35256,-0.0334 0.20038,0.91467 1.514,0.91467c1.31363,0 1.23918,-1.06482 1.52496,-1.04264z"/><path d="M221.56901,120.98612c0.49711,0.03518 0.51572,2.29661 -1.24301,2.34861c-1.74037,0.05379 -2.03888,-2.18725 -1.41559,-2.24104c0.30973,-0.02422 0.17615,0.80149 1.32458,0.80149c1.14844,0 1.08547,-0.92767 1.33402,-0.90906z"/><path d="M266.56471,145.22306c0.56567,0.04079 0.58811,2.62343 -1.41764,2.69022c-1.98688,0.06296 -2.32822,-2.50082 -1.61571,-2.56225c0.35052,-0.0334 0.19833,0.91467 1.51196,0.91467c1.31337,0 1.23919,-1.06304 1.52139,-1.04264z"/><path d="M262.86141,112.20499c0.40814,0.02982 0.42318,1.88874 -1.02403,1.93335c-1.43216,0.04818 -1.67154,-1.79773 -1.16322,-1.84234c0.25416,-0.02218 0.14276,0.65847 1.08904,0.65847c0.94628,0 0.89784,-0.76426 1.09821,-0.74948z"/><path d="M276.58859,140.4292c0.58811,0.04257 0.61028,2.71775 -1.47678,2.78276c-2.05571,0.06501 -2.40623,-2.58978 -1.67154,-2.64917c0.36913,-0.02982 0.20955,0.94602 1.56957,0.94602c1.35976,0 1.2838,-1.1 1.57875,-1.07961z"/><path d="M276.53659,149.96694c0.56593,0.04282 0.58811,2.62342 -1.41738,2.692c-1.98688,0.05939 -2.32848,-2.5026 -1.61596,-2.56403c0.35077,-0.03135 0.19858,0.91467 1.51196,0.91467c1.31363,0 1.23944,-1.06482 1.52139,-1.04264z"/><path d="M218.05692,107.45932c0.40813,0.02778 0.42496,1.88669 -1.02403,1.9313c-1.4342,0.04818 -1.67536,-1.79773 -1.16322,-1.8403c0.25238,-0.02244 0.13918,0.65847 1.08903,0.65847c0.94602,0 0.89223,-0.76426 1.09822,-0.74947z"/><path d="M276.06345,130.18252c0.39157,0.02957 0.40456,1.81251 -0.97203,1.85534c-1.37481,0.04639 -1.61214,-1.72176 -1.12065,-1.76433c0.23937,-0.02244 0.13919,0.63068 1.04442,0.63068c0.90371,0 0.85527,-0.73647 1.04825,-0.72169z"/><path d="M245.26246,107.45932c0.40813,0.02778 0.42496,1.88669 -1.02403,1.9313c-1.4342,0.04818 -1.67536,-1.79773 -1.16322,-1.8403c0.25238,-0.02244 0.13919,0.65847 1.08904,0.65847c0.94602,0 0.89223,-0.76426 1.09822,-0.74947z"/><path d="M248.73376,97.94375c0.40635,0.02957 0.42292,1.8867 -1.02785,1.93131c-1.43216,0.04818 -1.67154,-1.79773 -1.16322,-1.84056c0.25594,-0.02218 0.14276,0.65694 1.08904,0.65694c0.94985,0 0.89606,-0.76273 1.10204,-0.74769z"/><path d="M264.87634,157.87037c0.5639,0.04282 0.58811,2.62165 -1.4212,2.68843c-1.98688,0.06118 -2.33026,-2.50106 -1.61597,-2.55842c0.35077,-0.03544 0.19859,0.91263 1.51221,0.91263c1.31337,0 1.23919,-1.06865 1.52496,-1.04264z"/><path d="M203.69167,123.35895c0.49532,0.03697 0.51775,2.29662 -1.24301,2.35066c-1.74012,0.05379 -2.03889,-2.18929 -1.4156,-2.2413c0.30999,-0.026 0.17641,0.80148 1.32459,0.80148c1.14844,0 1.08547,-0.92945 1.33402,-0.91084z"/><path d="M250.9748,122.81723c0.49354,0.03518 0.51393,2.29483 -1.2448,2.35041c-1.74394,0.05379 -2.04271,-2.18904 -1.41942,-2.24104c0.3082,-0.026 0.17997,0.80148 1.32484,0.80148c1.14844,0 1.08521,-0.92946 1.33937,-0.91085z"/><path d="M271.36978,116.14943c0.38952,0.02778 0.40635,1.81073 -0.97406,1.85509c-1.37838,0.04461 -1.61419,-1.72355 -1.12065,-1.76612c0.24116,-0.02218 0.13741,0.63273 1.04264,0.63273c0.90728,0 0.85528,-0.73674 1.05208,-0.7217z"/><path d="M232.52036,101.54661c0.5639,0.03875 0.58607,2.62318 -1.4212,2.68818c-1.98713,0.06296 -2.33027,-2.49903 -1.61597,-2.56021c0.35052,-0.03161 0.19859,0.91467 1.51196,0.91467c1.31363,0 1.23944,-1.06686 1.52522,-1.04264z"/><path d="M254.4405,135.42172c0.5639,0.03901 0.58811,2.62343 -1.4212,2.68843c-1.98688,0.06296 -2.32823,-2.49903 -1.61775,-2.56046c0.35256,-0.0334 0.20037,0.91467 1.51399,0.91467c1.31541,0 1.23919,-1.06482 1.52496,-1.04264z"/><path d="M264.4032,127.81146c0.39335,0.02778 0.40635,1.80895 -0.97202,1.85534c-1.37481,0.04639 -1.6124,-1.72355 -1.12065,-1.76637c0.23937,-0.02218 0.13919,0.63093 1.04442,0.63093c0.90728,0 0.85527,-0.73469 1.04825,-0.71991z"/><path d="M242.41648,140.4756c0.56593,0.04435 0.59015,2.62317 -1.41738,2.68818c-1.98892,0.06501 -2.33383,-2.49902 -1.61775,-2.55842c0.34874,-0.0334 0.19655,0.91288 1.51018,0.91288c1.31363,0 1.23918,-1.06687 1.52496,-1.04264z"/><path d="M236.30721,122.81723c0.49354,0.03518 0.51572,2.29483 -1.24301,2.35041c-1.74394,0.05379 -2.03888,-2.18904 -1.41559,-2.24104c0.30973,-0.026 0.17615,0.80148 1.32459,0.80148c1.14844,0 1.08547,-0.92946 1.33402,-0.91085z"/></g></g><text transform="translate(177.78877,77.63274) scale(0.32909,0.32909)" font-size="40" xml:space="preserve" fill="#000000" fill-rule="nonzero" stroke="#000000" stroke-width="1" stroke-linecap="butt" stroke-linejoin="miter" stroke-miterlimit="10" stroke-dasharray="" stroke-dashoffset="0" font-family="Handwriting" font-weight="normal" text-anchor="start" style="mix-blend-mode: normal"></text></g></g></svg>