<svg version="1.1" xmlns="http://www.w3.org/2000/svg" xmlns:xlink="http://www.w3.org/1999/xlink" width="110.24164" height="149.17609" viewBox="0,0,110.24164,149.17609"><defs><linearGradient x1="239" y1="163.375" x2="239" y2="175.875" gradientUnits="userSpaceOnUse" id="color-1"><stop offset="0" stop-color="#2bcbff"/><stop offset="1" stop-color="#ffffff"/></linearGradient><linearGradient x1="240.7695" y1="58.29924" x2="240.7695" y2="237.16745" gradientUnits="userSpaceOnUse" id="color-2"><stop offset="0" stop-color="#000000"/><stop offset="1" stop-color="#000000" stop-opacity="0"/></linearGradient></defs><g transform="translate(-184.87917,-58.39972)"><g data-paper-data="{&quot;isPaintingLayer&quot;:true}" fill-rule="nonzero" stroke-linecap="butt" stroke-linejoin="miter" stroke-miterlimit="10" stroke-dasharray="" stroke-dashoffset="0" style="mix-blend-mode: normal"><path d="M229.625,175.875v-12.5h18.75v12.5z" fill="url(#color-1)" stroke="none" stroke-width="0"/><path d="M295.12005,179.70932c0.09422,1.88165 -8.47599,7.07192 -53.11886,7.07192c-44.64286,0 -57.10709,-4.43047 -57.12201,-7.45949c-0.0129,-2.6151 11.55535,-6.10294 56.19819,-6.10294c44.64286,0 53.95646,4.76932 54.04268,6.49051z" fill="url(#color-2)" stroke="none" stroke-width="0"/><text transform="translate(225.62808,202.72803) scale(0.28942,0.28942)" font-size="40" xml:space="preserve" fill="#000000" fill-rule="nonzero" stroke="#000000" stroke-width="0.5" stroke-linecap="butt" stroke-linejoin="miter" stroke-miterlimit="10" stroke-dasharray="" stroke-dashoffset="0" font-family="Handwriting" font-weight="normal" text-anchor="start" style="mix-blend-mode: normal"></text><text transform="translate(197.74342,67.4194) scale(0.23736,0.23736)" font-size="40" xml:space="preserve" fill="#000000" fill-rule="nonzero" stroke="#000000" stroke-width="1" stroke-linecap="butt" stroke-linejoin="miter" stroke-miterlimit="10" stroke-dasharray="" stroke-dashoffset="0" font-family="Handwriting" font-weight="normal" text-anchor="start" style="mix-blend-mode: normal"></text><path d="M204.25001,179.58335l0.82193,-98.41667l8.34741,0.85685l2.1348,23.70256l5.21664,7.83644l6.92884,40.22661l5.49792,6.66496l2.62952,12.31247l8.17971,-0.18753l5.59064,-29.20467l5.79574,-6.12278l1.80306,-27.94434l6.59767,-6.94503l-0.77438,-20.04782l11.8534,-0.52679l-0.17316,97.79575z" fill="#a14e32" stroke="none" stroke-width="0"/><path d="M204.875,135.125v-20.5l10.5,-8.75l6.18155,7.70751l6.06845,39.79249z" fill="#7c2515" stroke="none" stroke-width="0"/><path d="M254.625,137.875l2.31845,-29.29249l6.93155,-7.45751l10.75,6.25l0.25,21.5z" data-paper-data="{&quot;index&quot;:null}" fill="#7c2515" stroke="none" stroke-width="0"/><path d="M203.625,179.875l0.25,-12.75l29.50235,-6.52078l1.97052,10.79129l8.52662,0.87459l31.50051,-4.8951l0.25,11.75z" fill="#7c2515" stroke="none" stroke-width="0"/></g></g></svg>