<svg version="1.1" xmlns="http://www.w3.org/2000/svg" xmlns:xlink="http://www.w3.org/1999/xlink" width="106.29162" height="174.51409" viewBox="0,0,106.29162,174.51409"><defs><linearGradient x1="240.95283" y1="56.63257" x2="240.95283" y2="235.50077" gradientUnits="userSpaceOnUse" id="color-1"><stop offset="0" stop-color="#000000"/><stop offset="1" stop-color="#000000" stop-opacity="0"/></linearGradient></defs><g transform="translate(-185.82004,-33.47861)"><g data-paper-data="{&quot;isPaintingLayer&quot;:true}" fill-rule="nonzero" stroke-linecap="butt" stroke-linejoin="miter" stroke-miterlimit="10" stroke-dasharray="" stroke-dashoffset="0" style="mix-blend-mode: normal"><path d="M284.70357,178.04265c0.07585,1.88165 -6.82295,7.07192 -42.75929,7.07192c-35.93634,0 -45.96971,-4.43047 -45.98172,-7.45949c-0.01038,-2.6151 9.30175,-6.10294 45.23807,-6.10294c35.93634,0 43.43354,4.76932 43.50294,6.49051z" fill="url(#color-1)" stroke="none" stroke-width="0"/><text transform="translate(221.62809,202.44694) scale(0.33109,0.33109)" font-size="40" xml:space="preserve" fill="#ffffff" fill-rule="nonzero" stroke="#ffffff" stroke-width="0.5" stroke-linecap="butt" stroke-linejoin="miter" stroke-miterlimit="10" stroke-dasharray="" stroke-dashoffset="0" font-family="Handwriting" font-weight="normal" text-anchor="start" style="mix-blend-mode: normal"></text><path d="M290.25005,131.25c0,27.3381 -22.49769,49.5 -50.25,49.5c-27.75231,0 -50.25,-22.1619 -50.25,-49.5c0,-27.33809 22.49769,-49.5 50.25,-49.5c27.75231,0 50.25,22.16191 50.25,49.5z" fill="#e55836" stroke="#000000" stroke-width="2.5"/><path d="M243.83334,122.16667c-4.04596,19.18104 -37.74176,41.4219 -38,41.33334c-8.74722,-3 -14.10159,-19.9218 -14.33333,-33c-0.33334,-18.41388 14.58612,-43.66666 35.66667,-44.33333c11.40852,0.34973 20.91576,15.85594 16.66667,36z" fill="#f5681d" stroke="none" stroke-width="0"/><path d="M216.75,160.42389c0,-18.0453 9.86502,-25.67389 27.37957,-25.67389c5.20005,0 21.3616,-1.6129 23.83968,1.89442c1.72774,2.44533 1.0958,19.74264 2.98037,19.08027c2.49977,-0.8786 3.08897,-17.03622 4.97249,-18.20571c2.61775,-1.62537 11.2073,6.5512 10.28833,9.06332c-5.61763,15.35665 -15.97463,30.5192 -42.4722,33.12737c-20.38427,2.00644 -26.98824,-9.87796 -26.98824,-19.28577z" fill="#8a3a0f" stroke="none" stroke-width="0"/><path d="M213.70834,146.30209c0,4.25719 -5.11939,11.94791 -9.0573,11.94791c-3.93791,0 -7.90104,-6.53447 -7.90104,-10.79166c0,-4.25719 3.19231,-7.70834 7.13021,-7.70834c3.93791,0 9.82813,2.29489 9.82813,6.55209z" fill="#8a3a0f" stroke="none" stroke-width="0"/><path d="M282.25,107.5c0.14788,1.38968 -4.25378,2.82061 -6.98125,6.52814c-2.11498,2.87495 -1.82781,8.31491 -6.50045,8.56453c-9.67469,0.51685 -26.97418,-10.08739 -29.0183,-14.34267c-1.44112,-3 13.5,-4.05151 13.5,-12.75c0,-8.69849 -8.94112,-11.25 -4.5,-11.75c9.87872,-1.11218 32.57953,15.10036 33.5,23.75z" fill="#8a3a0f" stroke="none" stroke-width="0"/><path d="M229.57701,140.54324c-4.95231,-1.47022 -6.62268,-5.05862 -11.46295,-7.31345c-4.84027,-2.25483 -17.344,-4.25517 -16.86124,-5.8813c0.37959,-1.27864 11.07872,1.38407 16.63719,0.43229c2.692,-0.46095 -0.98851,-5.78829 2.23578,-5.14758c1.59125,0.3162 5.24483,8.26204 12.90819,13.00382c4.42287,2.7367 11.58978,5.21084 17.53033,5.64042c4.02384,0.29098 16.71409,-5.98547 16.95193,0.47431c0.0817,2.21918 2.76861,3.96407 -0.13388,5.11936c-1.60368,0.63832 -7.92413,1.32822 -10.21508,1.27113c-8.69373,-0.21664 -20.21343,-5.40901 -27.59027,-7.59901z" fill="#633407" stroke="none" stroke-width="0"/><path d="M236.83334,158.16667c0,2.76143 -0.72115,7.66667 -3.66667,7.66667c-2.94552,0 -7,-4.90525 -7,-7.66667c0,-2.76143 2.38782,-5 5.33334,-5c2.94552,0 5.33334,2.23857 5.33334,5z" fill="#633407" stroke="none" stroke-width="0"/><path d="M247.83334,128.83334c0,2.39324 -4.57191,2.66666 -7.33334,2.66666c-2.76143,0 -5,-1.9401 -5,-4.33334c0,-2.39324 2.23857,-4.33333 5,-4.33333c2.76143,0 7.33334,3.60676 7.33334,6z" fill="#633407" stroke="none" stroke-width="0"/><path d="M281.16667,127.66667c0,3.77394 -4.98477,8.5 -8.66667,8.5c-3.6819,0 -3.33333,-2.39272 -3.33333,-6.16666c0,-3.77394 2.98477,-6.83334 6.66667,-6.83334c3.6819,0 5.33333,0.72606 5.33333,4.5z" fill="#633407" stroke="none" stroke-width="0"/><path d="M218.16667,117.66667c0,1.38071 -1.64162,2.5 -3.66666,2.5c-2.02505,0 -3.66666,-0.11929 -3.66666,-1.5c0,-1.38071 1.64162,-3.5 3.66666,-3.5c2.02505,0 3.66666,1.11929 3.66666,2.5z" fill="#633407" stroke="none" stroke-width="0"/><path d="M257.91667,91.5c0,2.38757 -2.2567,4.19519 -6.84742,4.70698c-1.38373,0.15426 -3.8436,-1.94082 -5.68407,-2.06196c-1.58737,-0.10448 -2.54322,1.77165 -3.96851,1.77165c-8.56041,0 -15.83333,-0.68874 -15.83333,-4.41667c0,-3.72792 6.93959,-7.75 15.5,-7.75c8.56041,0 16.83333,4.02208 16.83333,7.75z" fill="#ffffff" stroke="none" stroke-width="0"/><path d="M222.40713,95.82806c2.82037,3.03361 9.47509,2.98866 8.68282,4.44382c-1.00364,1.84337 -9.49003,1.0521 -12.3104,-1.98151c-2.82037,-3.03361 0.97407,-7.827 2.18751,-8.95514c1.21345,-1.12815 -1.38031,3.45923 1.44006,6.49284z" fill="#ffffff" stroke="none" stroke-width="0"/><text transform="translate(220.40071,50.40321) scale(0.4396,0.4396)" font-size="40" xml:space="preserve" fill="#ffffff" fill-rule="nonzero" stroke="#ffffff" stroke-width="2" stroke-linecap="butt" stroke-linejoin="miter" stroke-miterlimit="10" stroke-dasharray="" stroke-dashoffset="0" font-family="Handwriting" font-weight="normal" text-anchor="start" style="mix-blend-mode: normal"></text><text transform="translate(185.93815,70.47374) scale(0.23622,0.23622)" font-size="40" xml:space="preserve" fill="#ffffff" fill-rule="nonzero" stroke="#ffffff" stroke-width="1" stroke-linecap="butt" stroke-linejoin="miter" stroke-miterlimit="10" stroke-dasharray="" stroke-dashoffset="0" font-family="Handwriting" font-weight="normal" text-anchor="start" style="mix-blend-mode: normal"></text></g></g></svg>