<svg version="1.1" xmlns="http://www.w3.org/2000/svg" xmlns:xlink="http://www.w3.org/1999/xlink" width="143.37754" height="164.14487" viewBox="0,0,143.37754,164.14487"><defs><linearGradient x1="217.9669" y1="29.10952" x2="217.9669" y2="248.67444" gradientUnits="userSpaceOnUse" id="color-1"><stop offset="0" stop-color="#000000"/><stop offset="1" stop-color="#000000" stop-opacity="0"/></linearGradient></defs><g transform="translate(-146.41585,-47.71864)"><g data-paper-data="{&quot;isPaintingLayer&quot;:true}" fill-rule="nonzero" stroke-linecap="butt" stroke-miterlimit="10" stroke-dasharray="" stroke-dashoffset="0" style="mix-blend-mode: normal"><path d="M286.2611,178.14316c0.1184,2.30976 -10.65052,8.68093 -66.74649,8.68093c-56.09596,0 -71.75788,-5.43852 -71.77667,-9.15669c-0.01622,-3.21008 14.51988,-7.4915 70.61584,-7.4915c56.09596,0 67.79896,5.85447 67.90729,7.96726z" fill="url(#color-1)" stroke="none" stroke-width="0" stroke-linejoin="miter"/><text transform="translate(186.49965,65.20434) scale(0.46015,0.46015)" font-size="40" xml:space="preserve" fill="#000000" fill-rule="nonzero" stroke="#000000" stroke-width="1" stroke-linecap="butt" stroke-linejoin="miter" stroke-miterlimit="10" stroke-dasharray="" stroke-dashoffset="0" font-family="Handwriting" font-weight="normal" text-anchor="start" style="mix-blend-mode: normal"></text><text transform="translate(195.29468,204.04096) scale(0.46015,0.46015)" font-size="40" xml:space="preserve" fill="#000000" fill-rule="nonzero" stroke="#000000" stroke-width="1" stroke-linecap="butt" stroke-linejoin="miter" stroke-miterlimit="10" stroke-dasharray="" stroke-dashoffset="0" font-family="Handwriting" font-weight="normal" text-anchor="start" style="mix-blend-mode: normal"></text><g stroke="none"><g stroke-width="1" stroke-linejoin="miter"><path d="M259.54913,83.60962l-7.2948,54.65544l-70.09678,1.39191l-11.33698,-54.79097z" fill="#ffffff"/><path d="M266.89206,78.37044l-11.12909,65.23759l-74.7944,0.62514l-18.04906,-63.73334zM259.54913,83.60962l-88.72856,1.25638l13.38522,53.57001l68.04854,-0.17094z" fill="#0000a1"/></g><g stroke-width="1" stroke-linejoin="miter"><path d="M163.48892,168.42299h-17.07307l33.91776,-25.59517h75.54304l33.91674,25.59517h-12.46966l0.0082,-0.01832l-113.8471,0.01221z" fill="#0084e7"/><path d="M289.7688,168.40468l-6.09555,7.97903h-131.42813l-5.76373,-7.97903z" fill="#0000a1"/></g><g fill="#ffffff" stroke-width="1" stroke-linejoin="miter"><path d="M216.87823,150.85081h-3.75032l0.15465,-1.33453h3.58543z"/><path d="M197.91055,150.85081l0.69538,-1.33453h6.10681l-0.41989,1.33453z"/><path d="M241.43146,147.27703l0.83773,1.15626h-5.38993l-0.62266,-1.15626z"/><path d="M229.4288,150.85081h-6.92918l-0.16898,-1.33453h6.65062z"/><path d="M221.58201,150.85081h-3.79538l-0.00922,-1.33453h3.6346z"/><path d="M203.11818,154.58575l-0.46904,1.49447h-7.45865l0.77731,-1.49447z"/><path d="M244.01838,150.85081h-5.83645l-0.71893,-1.33453h5.58862z"/><path d="M237.10251,150.85081h-6.69568l-0.44754,-1.33453h6.42429z"/><path d="M205.26269,150.85081l0.41989,-1.33453h6.68237l-0.15465,1.33453z"/><path d="M216.90691,154.58575l0.01024,1.49447h-4.39551l0.17307,-1.49447z"/><path d="M228.61975,148.43329h-6.42634l-0.14542,-1.15626h6.18464z"/><path d="M222.24256,156.08022h-4.41702l-0.01127,-1.49447h4.23883z"/><path d="M221.2758,148.43329h-3.5076l-0.0082,-1.15626h3.36935z"/><path d="M199.77034,147.27703h5.64596l-0.36356,1.15626h-5.88356z"/><path d="M189.91628,150.85081h-5.39096l1.17159,-1.33453h5.15643z"/><path d="M235.79881,148.43329h-6.20103l-0.38711,-1.15626h5.96549z"/><path d="M211.60505,156.08022h-7.98607l0.47007,-1.49447h7.68908z"/><path d="M193.60925,147.27703h5.09294l-0.60218,1.15626h-5.30288z"/><path d="M230.31671,153.50275h-7.4822l-0.19765,-1.56894h7.15347z"/><path d="M238.53218,153.50275h-7.23744l-0.52537,-1.56894h6.9169z"/><path d="M242.63173,147.27703h4.66281l1.03743,1.15626h-4.86251z"/><path d="M245.93656,153.50275h-6.32393l-0.84592,-1.56894h6.0341z"/><path d="M187.29454,154.58575l-1.0487,1.49447h-6.30856l1.31087,-1.49447z"/><path d="M191.61324,148.43329h-4.96595l1.01388,-1.15626h4.76317z"/><path d="M188.05443,153.50275h-5.85591l1.37642,-1.56894h5.58042z"/><path d="M244.25188,149.51629h5.04993l1.19719,1.33453h-5.28035z"/><path d="M191.10016,150.85081l0.93707,-1.33453h5.49951l-0.69435,1.33453z"/><path d="M194.89964,154.58575l-0.7773,1.49447h-6.69159l1.04869,-1.49447z"/><path d="M221.91689,153.50275h-4.11081l-0.01126,-1.56894h3.92237z"/><path d="M189.23831,153.50275l1.10196,-1.56894h5.93886l-0.81623,1.56894z"/><path d="M216.89872,153.50275h-4.07804l0.1823,-1.56894h3.88345z"/><path d="M203.45922,153.50275h-6.92713l0.8152,-1.56894h6.60556z"/><path d="M204.42906,153.50275l0.49362,-1.56894h7.16268l-0.18229,1.56894z"/><path d="M216.86082,148.43329h-3.4523l0.13314,-1.15626h3.30995z"/><path d="M178.62231,156.08022h-5.81596l1.54642,-1.49447h5.58144z"/><path d="M202.30913,157.162l-0.64622,2.05367h-8.10384l1.06918,-2.05367z"/><path d="M252.80019,151.93381h5.15337l1.66009,1.56894h-5.40734z"/><path d="M230.67822,154.58575l0.50079,1.49447h-8.01782l-0.18946,-1.49447z"/><path d="M257.48758,157.162h5.99723l2.17318,2.05367h-6.33007z"/><path d="M216.9407,159.21567h-13.92288h-0.38405l0.6452,-2.05367h13.64637z"/><path d="M180.88356,153.50275h-5.40939l1.62527,-1.56894h5.16053z"/><path d="M255.17717,154.58575h5.58144l1.58124,1.49447h-5.82313z"/><path d="M185.33233,148.43329h-4.60751l1.19822,-1.15626h4.42418z"/><path d="M232.22874,159.21567h-14.37964l-0.01536,-2.05367h13.70679z"/><path d="M183.21036,150.85081h-4.98951l1.38256,-1.33453h4.77854z"/><path d="M257.99862,159.21567h-6.72846l-1.486,-2.05367h6.37309z"/><path d="M250.63214,149.51629h4.76317l1.41329,1.33453h-4.97926z"/><path d="M249.66025,148.43329l-1.0364,-1.15626h4.40268l1.22383,1.15626z"/><path d="M239.11593,154.58575l0.80495,1.49447h-7.76384l-0.50079,-1.49447z"/><path d="M247.91925,154.58575h5.92759l1.33955,1.49447h-6.18567z"/><path d="M193.55907,157.162l-1.06816,2.05367h-7.26202l1.44196,-2.05367z"/><path d="M248.5839,157.162l1.486,2.05367h-7.37877l-1.10605,-2.05367z"/><path d="M246.00108,151.93381h5.46879l1.40611,1.56894h-5.73915z"/><path d="M206.02361,148.43329l0.36356,-1.15626h0.38405h5.85283l-0.13314,1.15626z"/><path d="M240.50463,157.162l1.10605,2.05367h-8.40391l-0.68718,-2.05367z"/><path d="M246.71898,154.58575l1.08147,1.49447h-6.80015l-0.80495,-1.49447z"/><path d="M177.67295,157.162l-1.80142,2.05367h-6.31368l2.12709,-2.05367z"/><path d="M185.48595,157.162l-1.44093,2.05367h-6.85954l1.80245,-2.05367z"/><path d="M216.97245,163.33766h-15.63418l0.94731,-3.01456c0.13007,0 0.25398,0 0.38404,0c5.38174,0 10.15208,0 14.2803,-0.00123z"/><path d="M233.97076,164.42065l0.66056,1.97186l-33.87065,0.00244h-0.38404l0.62061,-1.97431z"/><path d="M232.59537,160.31453l1.01183,3.02311h-15.72738l-0.02253,-3.01579c6.86876,-0.00122 11.83982,-0.00366 14.73808,-0.00733z"/></g><path d="M183.01195,132.4178l-9.30167,-35.62111l84.27877,-0.6721l-5.07364,35.95716z" fill="#e6e6e6" stroke-width="0" stroke-linejoin="miter"/><path d="M192.64359,107.61693c0.8269,-2.24165 1.78945,-4.0447 3.86293,-4.0447c2.85857,0 6.00065,3.19743 6.00065,6.83521c0,7.16435 -3.41256,9.3859 -7.19183,16.65727c-3.99739,-7.31637 -12.53528,-9.2567 -12.53528,-16.65727c0,-3.63779 0.47033,-6.83521 3.32889,-6.83521c2.0735,0 5.7078,1.80305 6.53464,4.04471z" fill="#ff0000" stroke-width="0" stroke-linejoin="round"/><path d="M236.98245,127.62609c-1.75371,1.26269 -6.90622,-5.26399 -6.90622,-5.26399c0,0 -6.00395,5.4001 -7.55414,3.80119c-1.55153,-1.59886 2.06462,-9.46036 2.06462,-9.46036c0,0 -6.16213,-5.13933 -5.36575,-7.39081c0.79638,-2.25321 8.18407,-0.58216 8.18407,-0.58216c0,0 2.19391,-8.57483 4.23646,-8.36981c2.04534,0.2066 2.99578,9.10121 2.99578,9.10121c0,0 7.51836,-0.16234 7.98327,2.21871c0.46902,2.37946 -6.33268,6.20689 -6.33268,6.20689c0,0 2.45247,8.47646 0.6946,9.73914z" fill="#ffff00" stroke-width="0" stroke-linejoin="miter"/><text transform="translate(205.22699,123.89711) rotate(0.7433) scale(0.42045,0.50124) skewX(0.26268)" font-size="40" xml:space="preserve" fill="#000019" fill-rule="nonzero" stroke="none" stroke-width="1" stroke-linecap="butt" stroke-linejoin="miter" stroke-miterlimit="10" stroke-dasharray="" stroke-dashoffset="0" font-family="Curly" font-weight="normal" text-anchor="start" style="mix-blend-mode: normal"></text><text transform="translate(244.30458,123.96246) rotate(7.01329) scale(0.42138,0.50016) skewX(2.45259)" font-size="40" xml:space="preserve" fill="#000019" fill-rule="nonzero" stroke="none" stroke-width="1" stroke-linecap="butt" stroke-linejoin="miter" stroke-miterlimit="10" stroke-dasharray="" stroke-dashoffset="0" font-family="Curly" font-weight="normal" text-anchor="start" style="mix-blend-mode: normal"></text></g></g></g></svg>