<svg version="1.1" xmlns="http://www.w3.org/2000/svg" xmlns:xlink="http://www.w3.org/1999/xlink" width="89.27625" height="159.24161" viewBox="0,0,89.27625,159.24161"><defs><linearGradient x1="240.61953" y1="58.29928" x2="240.61953" y2="237.16751" gradientUnits="userSpaceOnUse" id="color-1"><stop offset="0" stop-color="#000000"/><stop offset="1" stop-color="#000000" stop-opacity="0"/></linearGradient><radialGradient cx="234.74195" cy="129.16457" r="1.45168" gradientUnits="userSpaceOnUse" id="color-2"><stop offset="0" stop-color="#ded9cc"/><stop offset="1" stop-color="#ded9cc" stop-opacity="0"/></radialGradient><radialGradient cx="243.48464" cy="127.11308" r="2.30092" gradientUnits="userSpaceOnUse" id="color-3"><stop offset="0" stop-color="#ffffff"/><stop offset="1" stop-color="#ffffff" stop-opacity="0"/></radialGradient><radialGradient cx="237.95174" cy="134.62342" r="1.45168" gradientUnits="userSpaceOnUse" id="color-4"><stop offset="0" stop-color="#ffffff"/><stop offset="1" stop-color="#ffffff" stop-opacity="0"/></radialGradient><radialGradient cx="232.49431" cy="134.38473" r="1.07391" gradientUnits="userSpaceOnUse" id="color-5"><stop offset="0" stop-color="#dedede"/><stop offset="1" stop-color="#dedede" stop-opacity="0"/></radialGradient><radialGradient cx="241.01892" cy="125.48948" r="1.07391" gradientUnits="userSpaceOnUse" id="color-6"><stop offset="0" stop-color="#dedede"/><stop offset="1" stop-color="#dedede" stop-opacity="0"/></radialGradient><radialGradient cx="244.3001" cy="136.8072" r="1.07391" gradientUnits="userSpaceOnUse" id="color-7"><stop offset="0" stop-color="#dedcd7"/><stop offset="1" stop-color="#dedcd7" stop-opacity="0"/></radialGradient><radialGradient cx="239.59231" cy="133.05048" r="1.07391" gradientUnits="userSpaceOnUse" id="color-8"><stop offset="0" stop-color="#dedede"/><stop offset="1" stop-color="#dedede" stop-opacity="0"/></radialGradient><radialGradient cx="234.95739" cy="125.96191" r="0.59442" gradientUnits="userSpaceOnUse" id="color-9"><stop offset="0" stop-color="#ffffff"/><stop offset="1" stop-color="#ffffff" stop-opacity="0"/></radialGradient><radialGradient cx="247.65691" cy="127.3759" r="0.59442" gradientUnits="userSpaceOnUse" id="color-10"><stop offset="0" stop-color="#ffffff"/><stop offset="1" stop-color="#ffffff" stop-opacity="0"/></radialGradient><radialGradient cx="235.88606" cy="137.79147" r="0.59442" gradientUnits="userSpaceOnUse" id="color-11"><stop offset="0" stop-color="#ffffff"/><stop offset="1" stop-color="#ffffff" stop-opacity="0"/></radialGradient><radialGradient cx="237.59661" cy="131.169" r="0.59442" gradientUnits="userSpaceOnUse" id="color-12"><stop offset="0" stop-color="#ffffff"/><stop offset="1" stop-color="#ffffff" stop-opacity="0"/></radialGradient><radialGradient cx="210.16067" cy="145.77813" r="13.24173" gradientUnits="userSpaceOnUse" id="color-13"><stop offset="0" stop-color="#b7b3ff"/><stop offset="1" stop-color="#b7b3ff" stop-opacity="0"/></radialGradient><radialGradient cx="209.93213" cy="145.66114" r="12.13999" gradientUnits="userSpaceOnUse" id="color-14"><stop offset="0" stop-color="#b3c8ff"/><stop offset="1" stop-color="#b3c8ff" stop-opacity="0"/></radialGradient><radialGradient cx="209.18763" cy="145.27447" r="8.55977" gradientUnits="userSpaceOnUse" id="color-15"><stop offset="0" stop-color="#af9c8b"/><stop offset="1" stop-color="#af9c8b" stop-opacity="0"/></radialGradient><radialGradient cx="207.86338" cy="141.33747" r="5.58703" gradientUnits="userSpaceOnUse" id="color-16"><stop offset="0" stop-color="#ffffff"/><stop offset="1" stop-color="#ffffff" stop-opacity="0"/></radialGradient><radialGradient cx="209.44755" cy="145.93234" r="10.90037" gradientUnits="userSpaceOnUse" id="color-17"><stop offset="0" stop-color="#ffb3b7"/><stop offset="1" stop-color="#ffb3b7" stop-opacity="0"/></radialGradient><radialGradient cx="215.12813" cy="154.63363" r="3.43244" gradientUnits="userSpaceOnUse" id="color-18"><stop offset="0" stop-color="#ffb3b7"/><stop offset="1" stop-color="#ffb3b7" stop-opacity="0"/></radialGradient><radialGradient cx="207.33493" cy="150.21529" r="3.50668" gradientUnits="userSpaceOnUse" id="color-19"><stop offset="0" stop-color="#ffb3b7"/><stop offset="1" stop-color="#ffb3b7" stop-opacity="0"/></radialGradient><radialGradient cx="218.35379" cy="143.98173" r="4.25314" gradientUnits="userSpaceOnUse" id="color-20"><stop offset="0" stop-color="#ffb3b7"/><stop offset="1" stop-color="#ffb3b7" stop-opacity="0"/></radialGradient><radialGradient cx="207.75735" cy="140.50667" r="2.97441" gradientUnits="userSpaceOnUse" id="color-21"><stop offset="0" stop-color="#ffb3b7"/><stop offset="1" stop-color="#ffb3b7" stop-opacity="0"/></radialGradient><radialGradient cx="209.45427" cy="145.83252" r="6.20228" gradientUnits="userSpaceOnUse" id="color-22"><stop offset="0" stop-color="#ffe9cf"/><stop offset="1" stop-color="#ffe9cf" stop-opacity="0"/></radialGradient><radialGradient cx="209.77244" cy="146.26583" r="2.68371" gradientUnits="userSpaceOnUse" id="color-23"><stop offset="0" stop-color="#ffffff"/><stop offset="1" stop-color="#ffffff" stop-opacity="0"/></radialGradient><radialGradient cx="206.23153" cy="143.94041" r="5.69131" gradientUnits="userSpaceOnUse" id="color-24"><stop offset="0" stop-color="#ffffff"/><stop offset="1" stop-color="#ffffff" stop-opacity="0"/></radialGradient><radialGradient cx="214.58175" cy="153.88656" r="5.55265" gradientUnits="userSpaceOnUse" id="color-25"><stop offset="0" stop-color="#ffffff"/><stop offset="1" stop-color="#ffffff" stop-opacity="0"/></radialGradient><radialGradient cx="251.05382" cy="112.05511" r="15.76983" gradientUnits="userSpaceOnUse" id="color-26"><stop offset="0" stop-color="#b3dfff"/><stop offset="1" stop-color="#b3dfff" stop-opacity="0"/></radialGradient><radialGradient cx="251.28919" cy="111.59513" r="14.45774" gradientUnits="userSpaceOnUse" id="color-27"><stop offset="0" stop-color="#b3fffe"/><stop offset="1" stop-color="#b3fffe" stop-opacity="0"/></radialGradient><radialGradient cx="252.26601" cy="111.57226" r="10.19399" gradientUnits="userSpaceOnUse" id="color-28"><stop offset="0" stop-color="#af9c8b"/><stop offset="1" stop-color="#af9c8b" stop-opacity="0"/></radialGradient><radialGradient cx="254.30992" cy="107.10461" r="6.6537" gradientUnits="userSpaceOnUse" id="color-29"><stop offset="0" stop-color="#ffffff"/><stop offset="1" stop-color="#ffffff" stop-opacity="0"/></radialGradient><radialGradient cx="252.16656" cy="113.09757" r="18.37511" gradientUnits="userSpaceOnUse" id="color-30"><stop offset="0" stop-color="#e07641"/><stop offset="1" stop-color="#e07641" stop-opacity="0"/></radialGradient><radialGradient cx="251.61287" cy="112.56126" r="6.86297" gradientUnits="userSpaceOnUse" id="color-31"><stop offset="0" stop-color="#ffe9cf"/><stop offset="1" stop-color="#ffe9cf" stop-opacity="0"/></radialGradient><radialGradient cx="252.15072" cy="112.19163" r="3.47899" gradientUnits="userSpaceOnUse" id="color-32"><stop offset="0" stop-color="#fffcca"/><stop offset="1" stop-color="#fffcca" stop-opacity="0"/></radialGradient><radialGradient cx="251.90557" cy="112.36478" r="2.74793" gradientUnits="userSpaceOnUse" id="color-33"><stop offset="0" stop-color="#ffffff"/><stop offset="1" stop-color="#ffffff" stop-opacity="0"/></radialGradient><radialGradient cx="256.44521" cy="111.23712" r="6.77789" gradientUnits="userSpaceOnUse" id="color-34"><stop offset="0" stop-color="#ffffff"/><stop offset="1" stop-color="#ffffff" stop-opacity="0"/></radialGradient><radialGradient cx="248.5892" cy="107.79977" r="6.65369" gradientUnits="userSpaceOnUse" id="color-35"><stop offset="0" stop-color="#ffffff"/><stop offset="1" stop-color="#ffffff" stop-opacity="0"/></radialGradient><radialGradient cx="223.49256" cy="163.60283" r="6.7386" gradientUnits="userSpaceOnUse" id="color-36"><stop offset="0" stop-color="#6e7db7"/><stop offset="1" stop-color="#6e7db7" stop-opacity="0"/></radialGradient><radialGradient cx="223.82625" cy="163.35568" r="4.30335" gradientUnits="userSpaceOnUse" id="color-37"><stop offset="0" stop-color="#c1c5d6"/><stop offset="1" stop-color="#c1c5d6" stop-opacity="0"/></radialGradient><radialGradient cx="226.06603" cy="161.78604" r="4.47315" gradientUnits="userSpaceOnUse" id="color-38"><stop offset="0" stop-color="#3b1a14"/><stop offset="1" stop-color="#3b1a14" stop-opacity="0"/></radialGradient><radialGradient cx="226.58133" cy="161.16854" r="0.40819" gradientUnits="userSpaceOnUse" id="color-39"><stop offset="0" stop-color="#ded9cc"/><stop offset="1" stop-color="#ded9cc" stop-opacity="0"/></radialGradient><radialGradient cx="223.01063" cy="160.89285" r="0.64699" gradientUnits="userSpaceOnUse" id="color-40"><stop offset="0" stop-color="#ffffff"/><stop offset="1" stop-color="#ffffff" stop-opacity="0"/></radialGradient><radialGradient cx="226.63482" cy="165.47433" r="0.40819" gradientUnits="userSpaceOnUse" id="color-41"><stop offset="0" stop-color="#ffffff"/><stop offset="1" stop-color="#ffffff" stop-opacity="0"/></radialGradient><radialGradient cx="226.33388" cy="164.33" r="0.30197" gradientUnits="userSpaceOnUse" id="color-42"><stop offset="0" stop-color="#dedede"/><stop offset="1" stop-color="#dedede" stop-opacity="0"/></radialGradient><radialGradient cx="224.7895" cy="160.05099" r="0.30197" gradientUnits="userSpaceOnUse" id="color-43"><stop offset="0" stop-color="#dedede"/><stop offset="1" stop-color="#dedede" stop-opacity="0"/></radialGradient><radialGradient cx="224.84974" cy="163.37379" r="0.30197" gradientUnits="userSpaceOnUse" id="color-44"><stop offset="0" stop-color="#dedcd7"/><stop offset="1" stop-color="#dedcd7" stop-opacity="0"/></radialGradient><radialGradient cx="225.65868" cy="165.64048" r="0.30197" gradientUnits="userSpaceOnUse" id="color-45"><stop offset="0" stop-color="#dedede"/><stop offset="1" stop-color="#dedede" stop-opacity="0"/></radialGradient><radialGradient cx="227.47679" cy="160.32424" r="0.16714" gradientUnits="userSpaceOnUse" id="color-46"><stop offset="0" stop-color="#ffffff"/><stop offset="1" stop-color="#ffffff" stop-opacity="0"/></radialGradient><radialGradient cx="223.67257" cy="160.15039" r="0.16714" gradientUnits="userSpaceOnUse" id="color-47"><stop offset="0" stop-color="#ffffff"/><stop offset="1" stop-color="#ffffff" stop-opacity="0"/></radialGradient><radialGradient cx="227.49685" cy="163.03194" r="0.16714" gradientUnits="userSpaceOnUse" id="color-48"><stop offset="0" stop-color="#ffffff"/><stop offset="1" stop-color="#ffffff" stop-opacity="0"/></radialGradient><radialGradient cx="226.73468" cy="161.7884" r="0.16714" gradientUnits="userSpaceOnUse" id="color-49"><stop offset="0" stop-color="#ffffff"/><stop offset="1" stop-color="#ffffff" stop-opacity="0"/></radialGradient><radialGradient cx="221.29257" cy="163.18108" r="0.40819" gradientUnits="userSpaceOnUse" id="color-50"><stop offset="0" stop-color="#ded9cc"/><stop offset="1" stop-color="#ded9cc" stop-opacity="0"/></radialGradient><radialGradient cx="220.81088" cy="161.87572" r="0.64699" gradientUnits="userSpaceOnUse" id="color-51"><stop offset="0" stop-color="#ffffff"/><stop offset="1" stop-color="#ffffff" stop-opacity="0"/></radialGradient><radialGradient cx="222.09491" cy="167.29965" r="0.40819" gradientUnits="userSpaceOnUse" id="color-52"><stop offset="0" stop-color="#ffffff"/><stop offset="1" stop-color="#ffffff" stop-opacity="0"/></radialGradient><radialGradient cx="222.96405" cy="165.45328" r="0.30197" gradientUnits="userSpaceOnUse" id="color-53"><stop offset="0" stop-color="#dedede"/><stop offset="1" stop-color="#dedede" stop-opacity="0"/></radialGradient><radialGradient cx="219.92197" cy="163.88885" r="0.30197" gradientUnits="userSpaceOnUse" id="color-54"><stop offset="0" stop-color="#dedede"/><stop offset="1" stop-color="#dedede" stop-opacity="0"/></radialGradient><radialGradient cx="220.30983" cy="165.99477" r="0.30197" gradientUnits="userSpaceOnUse" id="color-55"><stop offset="0" stop-color="#dedcd7"/><stop offset="1" stop-color="#dedcd7" stop-opacity="0"/></radialGradient><radialGradient cx="221.30598" cy="165.9213" r="0.30197" gradientUnits="userSpaceOnUse" id="color-56"><stop offset="0" stop-color="#dedede"/><stop offset="1" stop-color="#dedede" stop-opacity="0"/></radialGradient><radialGradient cx="224.6686" cy="161.2135" r="0.16714" gradientUnits="userSpaceOnUse" id="color-57"><stop offset="0" stop-color="#ffffff"/><stop offset="1" stop-color="#ffffff" stop-opacity="0"/></radialGradient><radialGradient cx="219.92831" cy="163.00539" r="0.16714" gradientUnits="userSpaceOnUse" id="color-58"><stop offset="0" stop-color="#ffffff"/><stop offset="1" stop-color="#ffffff" stop-opacity="0"/></radialGradient><radialGradient cx="223.51857" cy="167.05702" r="0.16714" gradientUnits="userSpaceOnUse" id="color-59"><stop offset="0" stop-color="#ffffff"/><stop offset="1" stop-color="#ffffff" stop-opacity="0"/></radialGradient><radialGradient cx="221.63313" cy="164.78381" r="0.16714" gradientUnits="userSpaceOnUse" id="color-60"><stop offset="0" stop-color="#ffffff"/><stop offset="1" stop-color="#ffffff" stop-opacity="0"/></radialGradient><radialGradient cx="272.7017" cy="170.12281" r="9.23021" gradientUnits="userSpaceOnUse" id="color-61"><stop offset="0" stop-color="#a1d3e6"/><stop offset="1" stop-color="#a1d3e6" stop-opacity="0"/></radialGradient><radialGradient cx="272.84621" cy="169.84695" r="11.26836" gradientUnits="userSpaceOnUse" id="color-62"><stop offset="0" stop-color="#96d6d5"/><stop offset="1" stop-color="#96d6d5" stop-opacity="0"/></radialGradient><radialGradient cx="272.55658" cy="169.31784" r="5.86977" gradientUnits="userSpaceOnUse" id="color-63"><stop offset="0" stop-color="#af9c8b"/><stop offset="1" stop-color="#af9c8b" stop-opacity="0"/></radialGradient><radialGradient cx="271.28355" cy="166.39049" r="3.83124" gradientUnits="userSpaceOnUse" id="color-64"><stop offset="0" stop-color="#ffffff"/><stop offset="1" stop-color="#ffffff" stop-opacity="0"/></radialGradient><radialGradient cx="272.7302" cy="169.98695" r="7.47481" gradientUnits="userSpaceOnUse" id="color-65"><stop offset="0" stop-color="#ffb3b7"/><stop offset="1" stop-color="#ffb3b7" stop-opacity="0"/></radialGradient><radialGradient cx="272.67227" cy="169.9226" r="4.25314" gradientUnits="userSpaceOnUse" id="color-66"><stop offset="0" stop-color="#ffe9cf"/><stop offset="1" stop-color="#ffe9cf" stop-opacity="0"/></radialGradient><radialGradient cx="272.91539" cy="170.001" r="2.05773" gradientUnits="userSpaceOnUse" id="color-67"><stop offset="0" stop-color="#fffee4"/><stop offset="1" stop-color="#fffee4" stop-opacity="0"/></radialGradient><radialGradient cx="272.7058" cy="170.09737" r="1.48086" gradientUnits="userSpaceOnUse" id="color-68"><stop offset="0" stop-color="#ffffff"/><stop offset="1" stop-color="#ffffff" stop-opacity="0"/></radialGradient><radialGradient cx="274.45127" cy="167.89033" r="3.90275" gradientUnits="userSpaceOnUse" id="color-69"><stop offset="0" stop-color="#ffffff"/><stop offset="1" stop-color="#ffffff" stop-opacity="0"/></radialGradient><radialGradient cx="270.46373" cy="177.34853" r="9.48825" gradientUnits="userSpaceOnUse" id="color-70"><stop offset="0" stop-color="#ffb3b7"/><stop offset="1" stop-color="#ffb3b7" stop-opacity="0"/></radialGradient><radialGradient cx="199.71808" cy="102.3723" r="0.19716" gradientUnits="userSpaceOnUse" id="color-71"><stop offset="0" stop-color="#fffdf7"/><stop offset="1" stop-color="#fffdf7" stop-opacity="0"/></radialGradient><radialGradient cx="201.63892" cy="95.01271" r="6.08552" gradientUnits="userSpaceOnUse" id="color-72"><stop offset="0" stop-color="#984e5c" stop-opacity="0"/><stop offset="1" stop-color="#984e5c"/></radialGradient><radialGradient cx="200.56424" cy="96.37797" r="5.54557" gradientUnits="userSpaceOnUse" id="color-73"><stop offset="0" stop-color="#9990c7"/><stop offset="1" stop-color="#9990c7" stop-opacity="0"/></radialGradient><radialGradient cx="203.38669" cy="93.78727" r="5.54557" gradientUnits="userSpaceOnUse" id="color-74"><stop offset="0" stop-color="#9990c7"/><stop offset="1" stop-color="#9990c7" stop-opacity="0"/></radialGradient><radialGradient cx="202.02787" cy="95.27" r="7.01256" gradientUnits="userSpaceOnUse" id="color-75"><stop offset="0" stop-color="#c8b282"/><stop offset="1" stop-color="#c8b282" stop-opacity="0"/></radialGradient><radialGradient cx="198.6176" cy="98.0497" r="2.96702" gradientUnits="userSpaceOnUse" id="color-76"><stop offset="0" stop-color="#ffffff"/><stop offset="1" stop-color="#ffffff" stop-opacity="0"/></radialGradient><radialGradient cx="201.97128" cy="95.36992" r="2.64137" gradientUnits="userSpaceOnUse" id="color-77"><stop offset="0" stop-color="#984e5c"/><stop offset="1" stop-color="#984e5c" stop-opacity="0"/></radialGradient><radialGradient cx="203.84116" cy="93.55672" r="2.44725" gradientUnits="userSpaceOnUse" id="color-78"><stop offset="0" stop-color="#ffffff"/><stop offset="1" stop-color="#ffffff" stop-opacity="0"/></radialGradient><radialGradient cx="200.21871" cy="96.3655" r="2.96702" gradientUnits="userSpaceOnUse" id="color-79"><stop offset="0" stop-color="#ffffff"/><stop offset="1" stop-color="#ffffff" stop-opacity="0"/></radialGradient><radialGradient cx="203.23125" cy="89.31385" r="2.1444" gradientUnits="userSpaceOnUse" id="color-80"><stop offset="0" stop-color="#f1ffff"/><stop offset="1" stop-color="#f1ffff" stop-opacity="0"/></radialGradient><radialGradient cx="207.40505" cy="91.47957" r="2.12252" gradientUnits="userSpaceOnUse" id="color-81"><stop offset="0" stop-color="#ffffff"/><stop offset="1" stop-color="#ffffff" stop-opacity="0"/></radialGradient><radialGradient cx="205.77684" cy="91.13626" r="1.59736" gradientUnits="userSpaceOnUse" id="color-82"><stop offset="0" stop-color="#ffffff"/><stop offset="1" stop-color="#ffffff" stop-opacity="0"/></radialGradient><radialGradient cx="206.45449" cy="94.60736" r="2.31946" gradientUnits="userSpaceOnUse" id="color-83"><stop offset="0" stop-color="#ffffff"/><stop offset="1" stop-color="#ffffff" stop-opacity="0"/></radialGradient><radialGradient cx="276.83333" cy="134.66667" r="8.33333" gradientUnits="userSpaceOnUse" id="color-84"><stop offset="0" stop-color="#ffffff"/><stop offset="1" stop-color="#ffffff" stop-opacity="0"/></radialGradient><radialGradient cx="231.66666" cy="94.16667" r="2.83334" gradientUnits="userSpaceOnUse" id="color-85"><stop offset="0" stop-color="#ffffff"/><stop offset="1" stop-color="#ffffff" stop-opacity="0"/></radialGradient><radialGradient cx="201.83333" cy="171.33334" r="7.16666" gradientUnits="userSpaceOnUse" id="color-86"><stop offset="0" stop-color="#ffffff"/><stop offset="1" stop-color="#ffffff" stop-opacity="0"/></radialGradient><radialGradient cx="206.33333" cy="115.33334" r="4.5" gradientUnits="userSpaceOnUse" id="color-87"><stop offset="0" stop-color="#ffffff"/><stop offset="1" stop-color="#ffffff" stop-opacity="0"/></radialGradient></defs><g transform="translate(-195.20443,-53.0948)"><g data-paper-data="{&quot;isPaintingLayer&quot;:true}" fill-rule="nonzero" stroke-linecap="butt" stroke-linejoin="miter" stroke-miterlimit="10" stroke-dasharray="" stroke-dashoffset="0" style="mix-blend-mode: normal"><path d="M284.37023,179.70939c0.07585,1.88165 -6.82295,7.07192 -42.75929,7.07192c-35.93634,0 -45.96971,-4.43047 -45.98172,-7.45949c-0.01038,-2.6151 9.30175,-6.10294 45.23807,-6.10294c35.93634,0 43.43354,4.76932 43.50294,6.49051z" fill="url(#color-1)" stroke="none" stroke-width="0"/><text transform="translate(222.2178,206.35666) scale(0.357,0.357)" font-size="40" xml:space="preserve" fill="#ffffff" fill-rule="nonzero" stroke="#ffffff" stroke-width="0.5" stroke-linecap="butt" stroke-linejoin="miter" stroke-miterlimit="10" stroke-dasharray="" stroke-dashoffset="0" font-family="Handwriting" font-weight="normal" text-anchor="start" style="mix-blend-mode: normal"></text><text transform="translate(201.75542,66.20366) scale(0.34497,0.34497)" font-size="40" xml:space="preserve" fill="#ffffff" fill-rule="nonzero" stroke="#ffffff" stroke-width="1" stroke-linecap="butt" stroke-linejoin="miter" stroke-miterlimit="10" stroke-dasharray="" stroke-dashoffset="0" font-family="Handwriting" font-weight="normal" text-anchor="start" style="mix-blend-mode: normal"></text><g><text transform="translate(202.70842,138.01747) scale(0.15845,0.15845)" font-size="40" xml:space="preserve" fill="#ffffff" fill-rule="nonzero" stroke="#ffffff" stroke-width="1" stroke-linecap="butt" stroke-linejoin="miter" stroke-miterlimit="10" stroke-dasharray="" stroke-dashoffset="0" font-family="Handwriting" font-weight="normal" text-anchor="start" style="mix-blend-mode: normal"></text><path d="M235.75373,129.19389c-0.011,0.0775 -0.34165,0.19535 -0.60891,0.45237c-0.26207,0.25202 -0.1833,0.92623 -0.40286,0.96475c-0.20974,0.03679 -0.21452,-0.70663 -0.47517,-0.9499c-0.27644,-0.25801 -0.68984,-0.26891 -0.71257,-0.49654c-0.00946,-0.0948 0.50772,-0.08446 0.67323,-0.31465c0.26259,-0.3652 0.22733,-1.13858 0.48518,-1.16112c0.22212,-0.01941 0.17146,0.94515 0.43729,1.23535c0.2296,0.25066 0.62241,0.13874 0.60381,0.26974z" fill="url(#color-2)" stroke="none" stroke-width="0"/><path d="M244.99429,127.06643c-0.01266,0.08922 -0.39334,0.2249 -0.70104,0.5208c-0.30171,0.29015 -0.30614,1.20902 -0.55892,1.25336c-0.24147,0.04236 -0.15187,-0.9562 -0.45195,-1.23627c-0.31826,-0.29705 -0.79421,-0.30959 -0.82037,-0.57166c-0.0109,-0.10914 0.58453,-0.09724 0.77508,-0.36225c0.30231,-0.42045 0.26173,-1.64371 0.55858,-1.66966c0.25572,-0.02235 0.1974,1.42102 0.50345,1.75512c0.26434,0.28858 0.71657,0.15973 0.69516,0.31055z" fill="url(#color-3)" stroke="none" stroke-width="0"/><path d="M238.96351,134.65275c-0.011,0.0775 -0.34165,0.19535 -0.60891,0.45237c-0.26207,0.25202 -0.1833,0.92623 -0.40286,0.96475c-0.20974,0.03679 -0.21452,-0.70663 -0.47517,-0.9499c-0.27644,-0.25801 -0.68984,-0.26891 -0.71257,-0.49654c-0.00946,-0.0948 0.50772,-0.08446 0.67323,-0.31465c0.26259,-0.3652 0.22733,-1.13858 0.48518,-1.16112c0.22212,-0.01942 0.17146,0.94515 0.43729,1.23535c0.2296,0.25066 0.62241,0.13874 0.60381,0.26974z" fill="url(#color-4)" stroke="none" stroke-width="0"/><path d="M233.2428,134.40642c-0.00814,0.05733 -0.25274,0.14451 -0.45046,0.33465c-0.19387,0.18644 -0.1356,0.6852 -0.29803,0.71369c-0.15516,0.02722 -0.1587,-0.52275 -0.35152,-0.70271c-0.2045,-0.19087 -0.51033,-0.19893 -0.52714,-0.36733c-0.007,-0.07013 0.3756,-0.06248 0.49804,-0.23277c0.19425,-0.27016 0.16818,-0.84229 0.35892,-0.85896c0.16432,-0.01436 0.12684,0.6992 0.32349,0.91388c0.16986,0.18543 0.46044,0.10263 0.44668,0.19955z" fill="url(#color-5)" stroke="none" stroke-width="0"/><path d="M241.7674,125.51118c-0.00814,0.05733 -0.25274,0.14451 -0.45046,0.33465c-0.19387,0.18644 -0.1356,0.6852 -0.29803,0.71369c-0.15516,0.02722 -0.1587,-0.52275 -0.35152,-0.70271c-0.2045,-0.19087 -0.51033,-0.19893 -0.52714,-0.36733c-0.007,-0.07013 0.3756,-0.06248 0.49804,-0.23277c0.19425,-0.27016 0.16817,-0.84229 0.35892,-0.85896c0.16432,-0.01436 0.12684,0.6992 0.32349,0.91388c0.16986,0.18543 0.46044,0.10263 0.44668,0.19955z" fill="url(#color-6)" stroke="none" stroke-width="0"/><path d="M245.04859,136.82889c-0.00814,0.05733 -0.25274,0.14451 -0.45046,0.33465c-0.19387,0.18644 -0.1356,0.6852 -0.29803,0.71369c-0.15516,0.02722 -0.1587,-0.52275 -0.35152,-0.70271c-0.2045,-0.19087 -0.51033,-0.19893 -0.52714,-0.36733c-0.007,-0.07013 0.3756,-0.06248 0.49804,-0.23277c0.19425,-0.27016 0.16817,-0.84229 0.35892,-0.85896c0.16432,-0.01436 0.12684,0.6992 0.32349,0.91388c0.16986,0.18543 0.46044,0.10263 0.44668,0.19955z" fill="url(#color-7)" stroke="none" stroke-width="0"/><path d="M240.3408,133.07217c-0.00814,0.05733 -0.25274,0.14451 -0.45046,0.33465c-0.19387,0.18644 -0.1356,0.6852 -0.29803,0.71369c-0.15516,0.02722 -0.1587,-0.52275 -0.35152,-0.70271c-0.2045,-0.19087 -0.51033,-0.19893 -0.52714,-0.36733c-0.007,-0.07013 0.3756,-0.06248 0.49804,-0.23277c0.19425,-0.27016 0.16817,-0.84229 0.35892,-0.85896c0.16432,-0.01436 0.12684,0.6992 0.32349,0.91388c0.16986,0.18543 0.46044,0.10263 0.44668,0.19955z" fill="url(#color-8)" stroke="none" stroke-width="0"/><path d="M234.93936,125.39155c0.17388,-0.0055 0.15113,0.28402 0.2634,0.39487c0.09959,0.09834 0.34407,0.00863 0.34875,0.15671c0.0045,0.14228 -0.24711,0.08211 -0.33371,0.18485c-0.10512,0.12472 -0.06247,0.3986 -0.24238,0.40428c-0.13461,0.00426 -0.09121,-0.25308 -0.19312,-0.32237c-0.14651,-0.09961 -0.41315,-0.04344 -0.41903,-0.22921c-0.00447,-0.14129 0.26788,-0.14401 0.35337,-0.24644c0.1051,-0.12593 0.04178,-0.33698 0.22272,-0.3427z" fill="url(#color-9)" stroke="none" stroke-width="0"/><path d="M247.63888,126.80554c0.17388,-0.0055 0.15114,0.28402 0.2634,0.39487c0.09959,0.09834 0.34407,0.00863 0.34875,0.15671c0.0045,0.14228 -0.24711,0.08211 -0.33371,0.18485c-0.10512,0.12472 -0.06247,0.3986 -0.24238,0.40428c-0.13461,0.00426 -0.09121,-0.25308 -0.19312,-0.32237c-0.14651,-0.09961 -0.41315,-0.04344 -0.41903,-0.22921c-0.00447,-0.14129 0.26788,-0.14401 0.35337,-0.24644c0.1051,-0.12593 0.04178,-0.33698 0.22272,-0.3427z" fill="url(#color-10)" stroke="none" stroke-width="0"/><path d="M235.86803,137.22112c0.17388,-0.0055 0.15113,0.28402 0.2634,0.39487c0.09959,0.09834 0.34407,0.00863 0.34875,0.15671c0.0045,0.14228 -0.24711,0.08211 -0.33371,0.18485c-0.10512,0.12472 -0.06247,0.3986 -0.24238,0.40428c-0.13461,0.00426 -0.09121,-0.25308 -0.19312,-0.32237c-0.14651,-0.09961 -0.41315,-0.04344 -0.41903,-0.22921c-0.00447,-0.14129 0.26788,-0.14401 0.35337,-0.24644c0.1051,-0.12593 0.04178,-0.33698 0.22272,-0.3427z" fill="url(#color-11)" stroke="none" stroke-width="0"/><path d="M237.57858,130.59865c0.17388,-0.0055 0.15113,0.28402 0.2634,0.39487c0.09959,0.09834 0.34407,0.00863 0.34875,0.15671c0.0045,0.14228 -0.24711,0.08211 -0.33371,0.18485c-0.10512,0.12472 -0.06247,0.3986 -0.24238,0.40428c-0.13461,0.00426 -0.09121,-0.25308 -0.19312,-0.32237c-0.14651,-0.09961 -0.41315,-0.04344 -0.41903,-0.22921c-0.00447,-0.14129 0.26788,-0.14401 0.35337,-0.24644c0.1051,-0.12593 0.04178,-0.33698 0.22272,-0.3427z" fill="url(#color-12)" stroke="none" stroke-width="0"/><g stroke="none" stroke-width="0"><g><path d="M222.16509,151.36716c-2.22165,4.77179 -9.39722,6.1378 -16.02709,3.05106c-6.62986,-3.08673 -10.20343,-9.45733 -7.98178,-14.22912c2.22165,-4.77179 9.39722,-6.1378 16.02709,-3.05106c6.62986,3.08673 10.20343,9.45732 7.98177,14.22912z" fill="url(#color-13)"/><path d="M211.5033,141.6451c-1.0151,0.44578 -6.37043,-0.45417 -6.97126,-0.31258c-1.04271,0.24572 -0.83526,-1.03885 -1.34942,-0.66684c-2.33488,1.68942 -4.40098,5.9844 -4.61239,5.28084c-0.06368,-0.01271 -0.88337,-1.382 -0.8086,-2.14019c0.15333,-1.5549 1.49258,-4.33053 3.2495,-5.63304c0.93102,-0.69022 5.60767,-2.4831 8.53186,-1.41459c1.85646,0.67835 3.51205,1.94398 4.86713,3.38957c0.53968,0.57573 0.64347,-1.35286 1.54788,-0.9206c1.10186,0.52664 2.99968,3.43301 3.37849,4.47601c0.29404,1.65825 -0.58392,3.30555 -1.25039,4.18691c-0.21562,0.28514 -1.22786,-1.03014 -1.32397,-0.75063c-0.33873,0.98509 -0.80266,1.97363 -1.31092,2.44846c-1.76524,1.64915 -5.98998,1.20897 -6.56637,0.88087c-2.26524,-1.28944 -2.43752,-4.95436 -2.28626,-5.20014c0.41277,-0.6707 -1.59675,-1.44793 -2.81031,0.23871c-0.56846,0.9743 -0.247,2.82535 1.10953,3.65472c0.19622,0.11996 -1.07941,-1.40056 -0.30023,-1.65975c0.67725,-0.22529 5.82466,2.70717 7.45478,4.02546c0.45318,0.36649 -2.22322,0.34309 -1.87352,0.41431c1.64986,0.33603 4.25352,-0.01794 6.47912,-1.37166c2.71789,-1.65314 2.95268,-8.33783 4.10094,-7.81567c1.03914,-0.00866 -0.31945,7.13853 -2.78224,9.02388c-0.71595,0.54808 -1.65682,1.02316 -2.56784,1.44587c-0.92791,0.43055 3.68114,-0.84805 4.2585,-0.11477c0.45989,0.58409 -2.08047,2.79842 -4.1752,3.10167c-0.71481,0.10348 -2.38922,0.15251 -4.4025,-0.7731c-3.30998,-1.52178 -7.30978,-4.43432 -7.79511,-4.87563c-1.25568,-1.14179 -2.32509,-4.84432 -0.74669,-6.73452c1.81714,-2.17611 6.30891,-1.85148 7.03868,-1.55287c1.95961,0.80184 3.02633,3.46513 2.48539,4.21887c-0.14319,0.19951 1.43399,-0.0784 1.22659,-1.42731c-0.31277,-2.03423 -1.21762,-3.67588 -1.79516,-3.42225z" fill="url(#color-14)"/><path d="M216.94758,148.88735c-1.5025,3.22717 -6.19477,4.22576 -10.48047,2.23042c-4.2857,-1.99534 -6.54193,-6.22901 -5.03943,-9.45618c1.5025,-3.22717 6.19478,-4.22576 10.48048,-2.23042c4.2857,1.99534 6.54193,6.22901 5.03942,9.45618z" fill="url(#color-15)"/><path d="M215.64359,143.94492c-0.88998,1.3882 -4.8736,-2.27148 -7.78978,-2.28186c-2.91618,-0.01037 -6.52285,2.98159 -6.91919,1.24173c-0.39635,-1.73986 2.16371,-6.21266 5.07988,-6.2023c2.91618,0.01037 11.2671,4.68743 9.6291,7.24242z" fill="url(#color-16)"/><path d="M209.93755,147.68262c-0.6111,0.10424 -0.92658,0.90415 0.36935,1.42343c0.41491,0.14567 2.81709,0.20112 3.66597,-1.24429c0.57914,-0.98611 -0.35694,-3.11721 -0.61095,-4.37836c-0.15982,-0.79347 -1.88551,-3.53072 -4.50789,-4.41525c-2.44455,-0.82455 -5.76514,0.14666 -6.74413,0.85503c-2.33488,1.68942 -3.37132,5.12688 -3.58273,4.42332c-0.19427,-0.03877 0.73054,-3.71354 3.34416,-5.65118c0.93102,-0.69022 4.56474,-1.9356 7.48893,-0.86709c3.49661,1.27767 5.16531,3.57248 6.16501,6.10639c0.58142,1.4737 0.57082,4.41674 -0.5274,5.44275c-1.76524,1.64915 -5.35061,1.0205 -5.92701,0.69239c-2.26524,-1.28944 -1.93439,-4.17319 -1.78312,-4.41897c0.41277,-0.6707 0.92778,-0.61348 2.11868,-0.85224c0.60095,-0.24347 -0.27569,-1.00043 -1.26689,-1.00941c-0.7723,-0.007 -3.20745,0.18193 -4.42101,1.86856c-0.56846,0.9743 -0.42974,3.89488 0.92679,4.72425c0.84734,0.51806 3.26867,1.84414 5.36077,2.27023c1.64986,0.33603 4.67034,-0.06694 6.89595,-1.42066c2.71789,-1.65314 2.86123,-6.61813 3.59767,-6.22693c0.82987,0.44083 -0.13,5.03906 -2.59279,6.92442c-2.13528,1.63464 -6.02238,2.06737 -7.68401,1.88722c-2.80507,-0.30412 -6.21761,-2.39345 -6.99814,-3.10318c-1.25568,-1.14179 -2.32509,-4.84432 -0.74669,-6.73452c1.81714,-2.17611 6.30891,-1.85148 7.03868,-1.55287c1.95961,0.80184 3.02633,3.46513 2.48539,4.21887c-0.33218,0.46286 -1.26382,0.90154 -2.06457,1.03812z" fill="url(#color-17)"/><path d="M215.87075,155.63049c-1.54094,0.61144 -3.98043,0.1631 -4.28983,-0.26764c-0.3094,-0.43073 2.1069,-0.19026 3.68648,-0.74591c2.49009,-0.87594 3.78273,-1.63721 4.04733,-1.42433c0.17309,0.13926 -1.90304,1.82643 -3.44398,2.43788z" fill="url(#color-18)"/><path d="M207.65299,151.25817c-1.81105,-0.66292 -2.91313,-2.90318 -2.47589,-3.10884c0.51681,-0.24309 1.15172,1.50399 2.94499,2.22091c2.82694,1.13017 3.18857,0.79249 3.21705,1.0734c0.01864,0.18375 -1.8751,0.47745 -3.68615,-0.18547z" fill="url(#color-19)"/><path d="M218.82616,143.54871c0.74187,1.54366 -0.80111,3.99256 -1.30655,4.09054c-0.50544,0.09798 0.79205,-2.41081 0.11568,-3.96596c-1.06626,-2.45155 -1.98221,-3.84158 -1.73377,-3.98491c0.16252,-0.09376 2.18278,2.31667 2.92465,3.86033z" fill="url(#color-20)"/><path d="M210.75958,141.37209c0.03359,0.33611 -1.50815,-0.3471 -3.17436,-0.50863c-1.66622,-0.16153 -3.08864,0.34911 -3.12224,0.013c-0.03359,-0.33611 1.37492,-0.98597 3.04114,-0.82444c1.66622,0.16153 3.22187,0.98395 3.25546,1.32006z" fill="url(#color-21)"/><path d="M214.67854,148.26484c-1.0527,2.26105 -4.24508,3.00501 -7.13036,1.66167c-2.88529,-1.34334 -4.3709,-4.26526 -3.31819,-6.52632c1.0527,-2.26105 4.24507,-3.00501 7.13036,-1.66167c2.88529,1.34334 4.3709,4.26527 3.31819,6.52632z" fill="url(#color-22)"/><path d="M212.20539,147.39857c-0.47087,1.01136 -1.94185,1.3241 -3.28553,0.6985c-1.34368,-0.62559 -2.05123,-1.9526 -1.58036,-2.96396c0.47087,-1.01136 1.94185,-1.32409 3.28553,-0.6985c1.34368,0.62559 2.05123,1.9526 1.58036,2.96396z" fill="url(#color-23)"/><path d="M212.51808,146.1786c-0.32309,0.69396 -2.42372,-2.66497 -5.2009,-2.56571c-2.63643,0.09423 -3.07377,3.3232 -3.13457,3.76919c-0.06093,0.44699 -1.93537,-0.50429 -1.97097,-1.40574c-0.09133,-2.31306 0.96762,-3.98359 3.28813,-4.50457c1.62161,-0.36407 3.89517,-0.12505 5.59238,0.93811c1.66599,1.04361 1.70281,3.17405 1.42594,3.76874z" fill="url(#color-24)"/><path d="M206.2237,151.4724c1.2312,0.51502 3.98746,1.21518 6.32559,1.01308c1.9104,-0.16513 5.09859,-1.96337 5.55243,-2.21002c0.27499,-0.14945 0.88766,0.57066 0.56488,0.80359c-0.09249,0.06674 -2.38992,2.39054 -5.46364,2.71899c-3.24507,0.34677 -6.07259,-0.66363 -7.31594,-1.39662c-0.58132,-0.34271 -0.56418,-1.30586 0.33667,-0.92901z" fill="url(#color-25)"/></g><g><path d="M247.34236,101.48561c8.21753,-2.88557 16.54084,-0.49266 18.59062,5.34472c2.04978,5.83738 -2.95017,12.90872 -11.1677,15.79429c-8.21753,2.88557 -16.54083,0.49265 -18.59061,-5.34473c-2.04978,-5.83738 2.95017,-12.90871 11.1677,-15.79428z" fill="url(#color-26)"/><path d="M249.91734,106.71523c-0.65249,-0.36098 -1.92197,1.46302 -2.53861,3.81244c-0.4089,1.55791 1.42326,2.05771 1.27805,1.80808c-0.54857,-0.94303 1.03626,-3.94644 3.45175,-4.66982c0.89953,-0.26939 6.25278,-0.15401 8.13869,2.59679c1.63814,2.38939 -0.07587,6.6104 -1.6998,7.80988c-0.62766,0.46361 -5.71263,3.43535 -9.81292,4.85338c-2.49398,0.86251 -4.4689,0.62023 -5.302,0.42005c-2.44136,-0.5866 -5.17824,-3.46203 -4.56336,-4.09577c0.77193,-0.79561 6.06956,1.21155 5.02401,0.60456c-1.02652,-0.59594 -2.08201,-1.25655 -2.86255,-1.97789c-1.21455,-1.12243 -3.21442,-4.60587 -2.41022,-7.51612c0.97363,-3.52338 5.05916,-6.0303 5.73183,-5.96192c1.42174,-0.48518 -4.63,9.97032 -1.61508,12.20768c2.46885,1.83212 5.50613,2.53433 7.4987,2.32265c0.42235,-0.04487 -2.74675,-0.31287 -2.1662,-0.69234c2.08831,-1.36499 8.53334,-4.2334 9.30724,-3.89462c0.89036,0.38975 -0.80308,2.03087 -0.55641,1.91194c1.70536,-0.82221 2.31007,-2.95601 1.75568,-4.16055c-1.23119,-2.11055 -3.70274,-1.42152 -3.29573,-0.58995c0.14915,0.30473 -0.49898,4.58069 -3.33514,5.84177c-0.72166,0.32089 -5.77302,0.37039 -7.66142,-1.75713c-0.54372,-0.61257 -0.97272,-1.82227 -1.25402,-3.0141c-0.07981,-0.33816 2.92186,-7.31892 3.63011,-7.93405c1.77835,-1.54454 3.89039,-2.84499 6.16888,-3.43504c3.58894,-0.92942 8.90419,1.68791 9.92194,2.59956c1.92058,1.72037 3.32042,10.54823 3.31331,12.38738c-0.00347,0.89679 -2.42436,2.49693 -2.50123,2.50479c-0.1727,0.41255 -0.42149,-7.6289 -3.74746,-10.74337c-3.13325,-2.934 -9.34174,-0.9305 -9.89805,-1.23828z" fill="url(#color-27)"/><path d="M249.75595,104.4241c5.31201,-1.8653 10.74203,-0.17708 12.1283,3.77074c1.38627,3.94782 -1.79618,8.66028 -7.10818,10.52558c-5.31201,1.8653 -10.74203,0.17708 -12.1283,-3.77073c-1.38627,-3.94782 1.79618,-8.66029 7.10818,-10.52559z" fill="url(#color-28)"/><path d="M244.78961,109.30152c-1.62806,-3.17504 8.81833,-7.73436 12.26951,-7.42462c3.45118,0.30974 5.93755,5.83408 5.25773,7.8293c-0.67982,1.99522 -4.58389,-1.90922 -8.03507,-2.21897c-3.45118,-0.30975 -8.60759,3.53937 -9.49217,1.81427z" fill="url(#color-29)"/><path d="M251.08689,114.31163c-0.93075,-0.24846 -1.97973,-0.86539 -2.31659,-1.44449c-0.54857,-0.94303 1.03626,-3.94644 3.45175,-4.66981c0.89953,-0.26939 6.25278,-0.15401 8.13869,2.59679c1.63814,2.3894 -0.07587,6.6104 -1.6998,7.80988c-1.00943,0.74559 -5.29987,2.81744 -8.65521,2.8642c-1.98759,0.0277 -6.53368,-0.9085 -8.86161,-3.05985c-0.11749,-0.10858 -0.87384,-1.06281 -1.06861,-1.41595c-0.94135,-1.70673 -1.57783,-4.31846 -1.00162,-6.5711c0.86825,-3.39438 4.21637,-5.93636 4.76603,-6.16202c0.52639,-0.21611 -2.23796,2.90357 -3.07656,6.53273c-0.62492,2.70441 0.36676,5.95453 1.65412,6.90987c2.46885,1.83212 5.99331,2.63778 7.98588,2.4261c2.52666,-0.26842 5.55193,-1.5552 6.61717,-2.06879c1.70536,-0.82221 2.22354,-4.22957 1.66915,-5.43412c-1.23119,-2.11055 -4.08914,-2.60077 -5.00365,-2.67781c-1.1737,-0.09888 -2.30256,0.69146 -1.62114,1.04311c1.37992,0.41127 1.99613,0.40105 2.40314,1.23261c0.14915,0.30473 0.19095,3.72077 -2.64521,4.98184c-0.72166,0.32089 -5.03948,0.66185 -6.92788,-1.46567c-1.17484,-1.32361 -0.83059,-4.77379 0.03591,-6.43666c1.48987,-2.85919 3.7422,-5.36431 8.03368,-6.47566c3.58895,-0.92942 7.73675,0.93117 8.7545,1.84282c1.18133,1.05818 3.31106,3.71335 3.7221,6.36432c0.58307,3.76049 -1.7967,7.41872 -1.93426,7.43279c-0.20803,0.49694 1.35788,-3.40586 0.6397,-7.12002c-0.43969,-2.27392 -1.88747,-4.41477 -2.85862,-5.26448c-1.0723,-0.93821 -4.8829,-2.44293 -7.87484,-1.74646c-3.20958,0.74714 -5.58298,3.76448 -5.86824,4.67671c-0.4534,1.44991 -1.81916,3.84405 -1.25358,5.06362c0.82902,1.7876 3.67757,1.98778 4.18609,1.86287c1.59607,-0.4655 1.31982,-1.43775 0.60951,-1.62736z" fill="url(#color-30)"/><path d="M245.49546,114.51284c-0.97126,-2.76596 1.14049,-6.02624 4.71672,-7.28202c3.57624,-1.25579 7.26271,-0.03155 8.23397,2.73442c0.97126,2.76596 -1.14049,6.02624 -4.71672,7.28202c-3.57624,1.25579 -7.26271,0.03155 -8.23397,-2.73442z" fill="url(#color-31)"/><path d="M248.85956,111.64689c0.27815,-1.33489 1.85149,-2.19998 3.72138,-1.91544c1.8699,0.28455 3.20417,1.76492 2.98412,3.0676c-0.18997,1.12457 -1.90119,1.9728 -3.77108,1.68825c-1.8699,-0.28455 -3.20357,-1.54875 -2.93442,-2.84041z" fill="url(#color-32)"/><path d="M251.11894,110.12462c1.43192,-0.50281 2.94491,0.09252 3.37935,1.32973c0.43444,1.23721 -0.37417,2.64778 -1.8061,3.1506c-1.43192,0.50281 -2.94491,-0.09253 -3.37935,-1.32974c-0.43444,-1.23721 0.37417,-2.64778 1.8061,-3.15059z" fill="url(#color-33)"/><path d="M248.73669,113.16616c-0.25545,-0.72748 0.04639,-3.22011 2.14382,-4.25924c2.13673,-1.0586 4.8554,-1.08775 6.72967,-0.48208c2.68206,0.8667 3.7323,2.94132 3.34384,5.64195c-0.15139,1.05249 -2.48424,1.9604 -2.50213,1.42984c-0.01786,-0.52937 -0.14379,-4.36173 -3.25134,-4.76318c-3.27345,-0.42288 -6.16577,3.28163 -6.46387,2.43271z" fill="url(#color-34)"/><path d="M251.00724,114.87168c-4.33347,1.73227 -7.65166,-4.82945 -7.06946,-7.6163c0.35208,-1.68532 2.67761,-4.78915 5.12365,-5.64481c2.40237,-0.84039 4.918,0.55204 6.12007,0.586c0.55323,0.01563 -1.44791,0.90237 -2.88208,2.43546c-0.96033,1.02656 -1.31792,2.48556 -1.77865,3.63718c-1.1488,2.87146 2.07118,5.90284 0.48646,6.60247z" fill="url(#color-35)"/></g><g data-paper-data="{&quot;index&quot;:null}"><path d="M216.75396,163.60283c0,-3.40047 3.01697,-6.15709 6.7386,-6.15709c3.72162,0 6.73859,2.75662 6.73859,6.15709c0,3.40047 -3.01697,6.15709 -6.73859,6.15709c-3.72162,0 -6.73859,-2.75662 -6.73859,-6.15709z" fill="url(#color-36)"/><path d="M223.82625,158.73053c2.37667,0 5.06566,2.39585 5.06566,4.67959c0,2.28374 -2.63454,4.8974 -5.01121,4.8974c-2.37667,0 -5.39236,-2.61365 -5.39236,-4.8974c0,-2.28374 2.96124,-4.67959 5.33791,-4.67959z" fill="url(#color-37)"/><path d="M224.56833,158.69703c2.29266,-0.02581 4.68032,1.60846 4.63352,4.02508c-0.02686,1.38669 -1.56726,4.92176 -4.21229,4.72712c-2.75585,-0.20279 -4.65839,-1.86872 -4.72712,-3.74426c-0.13424,-3.66286 1.92467,-4.98114 4.3059,-5.00794z" fill="url(#color-38)"/><path d="M226.29683,161.17679c-0.00523,-0.03684 0.10522,-0.00537 0.16978,-0.07585c0.07475,-0.0816 0.0605,-0.35282 0.12296,-0.34737c0.0725,0.00634 0.06259,0.2238 0.13643,0.32649c0.04654,0.06473 0.19197,0.06182 0.1893,0.08847c-0.00639,0.06401 -0.12263,0.06707 -0.20036,0.13962c-0.07329,0.0684 -0.07464,0.27744 -0.13361,0.2671c-0.06174,-0.01083 -0.03959,-0.20041 -0.11328,-0.27127c-0.07515,-0.07227 -0.16813,-0.10541 -0.17122,-0.1272z" fill="url(#color-39)"/><path d="M222.58614,160.87974c-0.00602,-0.04241 0.12114,-0.00618 0.19547,-0.08732c0.08606,-0.09395 0.06966,-0.4998 0.14156,-0.49352c0.08347,0.0073 0.07206,0.35126 0.15707,0.46948c0.05358,0.07452 0.22101,0.07117 0.21794,0.10186c-0.00736,0.07369 -0.14119,0.07722 -0.23068,0.16074c-0.08438,0.07875 -0.05918,0.35953 -0.12708,0.34762c-0.07108,-0.01247 -0.07232,-0.27084 -0.15716,-0.35243c-0.08652,-0.0832 -0.19356,-0.12136 -0.19712,-0.14644z" fill="url(#color-40)"/><path d="M226.35032,165.48257c-0.00523,-0.03684 0.10522,-0.00537 0.16978,-0.07585c0.07475,-0.0816 0.0605,-0.35282 0.12296,-0.34737c0.0725,0.00634 0.06259,0.2238 0.13643,0.32649c0.04654,0.06473 0.19197,0.06182 0.1893,0.08847c-0.00639,0.06401 -0.12263,0.06707 -0.20036,0.13962c-0.07329,0.0684 -0.07464,0.27744 -0.13361,0.2671c-0.06174,-0.01083 -0.03959,-0.20041 -0.11328,-0.27127c-0.07515,-0.07227 -0.16813,-0.10541 -0.17122,-0.1272z" fill="url(#color-41)"/><path d="M226.12342,164.3361c-0.00387,-0.02725 0.07784,-0.00397 0.1256,-0.05611c0.0553,-0.06036 0.04476,-0.26101 0.09096,-0.25697c0.05363,0.00469 0.0463,0.16556 0.10092,0.24153c0.03443,0.04788 0.14201,0.04573 0.14004,0.06545c-0.00473,0.04735 -0.09072,0.04962 -0.14822,0.10329c-0.05422,0.0506 -0.05521,0.20525 -0.09884,0.19759c-0.04567,-0.00801 -0.02929,-0.14826 -0.0838,-0.20068c-0.05559,-0.05346 -0.12437,-0.07798 -0.12666,-0.0941z" fill="url(#color-42)"/><path d="M224.57904,160.05709c-0.00387,-0.02725 0.07784,-0.00397 0.1256,-0.05611c0.0553,-0.06036 0.04476,-0.26101 0.09096,-0.25697c0.05363,0.00469 0.0463,0.16556 0.10092,0.24153c0.03443,0.04788 0.14201,0.04573 0.14004,0.06545c-0.00473,0.04735 -0.09072,0.04962 -0.14822,0.10329c-0.05422,0.0506 -0.05521,0.20525 -0.09884,0.19759c-0.04567,-0.00801 -0.02929,-0.14826 -0.0838,-0.20068c-0.05559,-0.05346 -0.12437,-0.07798 -0.12666,-0.0941z" fill="url(#color-43)"/><path d="M224.63928,163.37989c-0.00387,-0.02725 0.07784,-0.00397 0.1256,-0.05611c0.0553,-0.06036 0.04476,-0.26101 0.09096,-0.25697c0.05363,0.00469 0.0463,0.16556 0.10092,0.24153c0.03443,0.04788 0.14201,0.04573 0.14004,0.06545c-0.00473,0.04735 -0.09072,0.04962 -0.14822,0.10329c-0.05422,0.0506 -0.05521,0.20525 -0.09884,0.19759c-0.04567,-0.00801 -0.02929,-0.14826 -0.0838,-0.20068c-0.05559,-0.05346 -0.12437,-0.07798 -0.12666,-0.0941z" fill="url(#color-44)"/><path d="M225.57381,165.59047c0.0553,-0.06037 0.04476,-0.26101 0.09096,-0.25697c0.05363,0.00469 0.0463,0.16556 0.10092,0.24153c0.03443,0.04788 0.14201,0.04573 0.14004,0.06545c-0.00473,0.04735 -0.09072,0.04962 -0.14822,0.10329c-0.05422,0.0506 -0.05521,0.20525 -0.09884,0.19759c-0.04567,-0.00801 -0.02929,-0.14826 -0.0838,-0.20068c-0.05559,-0.05346 -0.12437,-0.07798 -0.12666,-0.0941c-0.00387,-0.02725 0.07784,-0.00397 0.1256,-0.05611z" fill="url(#color-45)"/><path d="M227.48186,160.16386c0.05088,0.00161 0.03307,0.06095 0.06263,0.09636c0.02404,0.0288 0.10062,0.02956 0.09936,0.06929c-0.00165,0.05224 -0.07663,0.03644 -0.11782,0.06445c-0.02866,0.01948 -0.01645,0.09184 -0.0543,0.09065c-0.05059,-0.0016 -0.0386,-0.07861 -0.06815,-0.11368c-0.02435,-0.02889 -0.0951,-0.01197 -0.09383,-0.05198c0.00132,-0.04164 0.07006,-0.01641 0.09806,-0.04406c0.03157,-0.03117 0.02517,-0.11258 0.07406,-0.11103z" fill="url(#color-46)"/><path d="M223.67764,159.99002c0.05088,0.00161 0.03307,0.06095 0.06263,0.09636c0.02404,0.0288 0.10062,0.02956 0.09936,0.06929c-0.00165,0.05224 -0.07663,0.03644 -0.11782,0.06445c-0.02866,0.01948 -0.01645,0.09184 -0.0543,0.09065c-0.05059,-0.0016 -0.0386,-0.07861 -0.06815,-0.11368c-0.02435,-0.02889 -0.0951,-0.01197 -0.09383,-0.05198c0.00132,-0.04164 0.07006,-0.01641 0.09806,-0.04406c0.03157,-0.03117 0.02517,-0.11258 0.07406,-0.11103z" fill="url(#color-47)"/><path d="M227.50192,162.87157c0.05088,0.00161 0.03307,0.06095 0.06263,0.09636c0.02404,0.0288 0.10062,0.02956 0.09936,0.06929c-0.00165,0.05224 -0.07663,0.03644 -0.11782,0.06445c-0.02866,0.01948 -0.01645,0.09184 -0.0543,0.09065c-0.05059,-0.0016 -0.0386,-0.07861 -0.06815,-0.11368c-0.02435,-0.02889 -0.0951,-0.01197 -0.09383,-0.05198c0.00132,-0.04164 0.07006,-0.01641 0.09806,-0.04406c0.03157,-0.03117 0.02517,-0.11258 0.07406,-0.11103z" fill="url(#color-48)"/><path d="M226.73975,161.62803c0.05088,0.00161 0.03307,0.06095 0.06263,0.09636c0.02404,0.0288 0.10062,0.02956 0.09936,0.06929c-0.00165,0.05224 -0.07663,0.03644 -0.11782,0.06445c-0.02866,0.01948 -0.01645,0.09184 -0.0543,0.09065c-0.05059,-0.0016 -0.0386,-0.07861 -0.06815,-0.11368c-0.02435,-0.02889 -0.0951,-0.01197 -0.09383,-0.05198c0.00132,-0.04164 0.07006,-0.01641 0.09806,-0.04406c0.03157,-0.03117 0.02517,-0.11258 0.07406,-0.11103z" fill="url(#color-49)"/><path d="M221.17786,163.11348c0.07475,-0.0816 0.0605,-0.35282 0.12296,-0.34737c0.0725,0.00634 0.06259,0.2238 0.13643,0.32649c0.04654,0.06472 0.19196,0.06182 0.1893,0.08847c-0.00639,0.06401 -0.12263,0.06707 -0.20036,0.13962c-0.07329,0.0684 -0.07464,0.27744 -0.13361,0.2671c-0.06174,-0.01083 -0.03959,-0.20041 -0.11328,-0.27127c-0.07515,-0.07227 -0.16813,-0.10541 -0.17122,-0.1272c-0.00523,-0.03684 0.10522,-0.00537 0.16978,-0.07585z" fill="url(#color-50)"/><path d="M220.38639,161.8626c-0.00602,-0.04241 0.12114,-0.00618 0.19547,-0.08732c0.08606,-0.09394 0.06966,-0.4998 0.14156,-0.49352c0.08347,0.0073 0.07206,0.35126 0.15707,0.46948c0.05358,0.07452 0.22101,0.07117 0.21794,0.10186c-0.00736,0.07369 -0.14118,0.07722 -0.23068,0.16074c-0.08438,0.07875 -0.05918,0.35953 -0.12708,0.34762c-0.07108,-0.01247 -0.07232,-0.27084 -0.15716,-0.35243c-0.08652,-0.0832 -0.19356,-0.12135 -0.19712,-0.14644z" fill="url(#color-51)"/><path d="M221.98019,167.23205c0.07475,-0.0816 0.0605,-0.35282 0.12296,-0.34737c0.0725,0.00634 0.06259,0.2238 0.13643,0.32649c0.04654,0.06473 0.19197,0.06182 0.1893,0.08847c-0.00639,0.06401 -0.12263,0.06707 -0.20036,0.13962c-0.07329,0.0684 -0.07464,0.27744 -0.13361,0.2671c-0.06174,-0.01083 -0.03959,-0.20041 -0.11328,-0.27127c-0.07515,-0.07227 -0.16813,-0.10541 -0.17122,-0.1272c-0.00523,-0.03684 0.10522,-0.00537 0.16978,-0.07585z" fill="url(#color-52)"/><path d="M222.87919,165.40327c0.0553,-0.06037 0.04476,-0.26101 0.09096,-0.25697c0.05363,0.00469 0.0463,0.16556 0.10092,0.24153c0.03443,0.04788 0.14201,0.04573 0.14004,0.06545c-0.00473,0.04735 -0.09072,0.04962 -0.14822,0.10329c-0.05422,0.0506 -0.05521,0.20525 -0.09884,0.19759c-0.04567,-0.00801 -0.02929,-0.14826 -0.0838,-0.20068c-0.05559,-0.05346 -0.12437,-0.07798 -0.12666,-0.0941c-0.00387,-0.02725 0.07784,-0.00397 0.1256,-0.05611z" fill="url(#color-53)"/><path d="M219.7115,163.89495c-0.00387,-0.02725 0.07784,-0.00397 0.1256,-0.05611c0.0553,-0.06036 0.04476,-0.26101 0.09096,-0.25697c0.05364,0.00469 0.0463,0.16556 0.10092,0.24153c0.03443,0.04788 0.14201,0.04573 0.14004,0.06545c-0.00473,0.04735 -0.09072,0.04962 -0.14822,0.10329c-0.05422,0.0506 -0.05521,0.20525 -0.09884,0.19759c-0.04567,-0.00801 -0.02929,-0.14826 -0.0838,-0.20068c-0.05559,-0.05346 -0.12438,-0.07798 -0.12666,-0.0941z" fill="url(#color-54)"/><path d="M220.22497,165.94476c0.0553,-0.06036 0.04476,-0.26101 0.09096,-0.25697c0.05364,0.00469 0.0463,0.16556 0.10092,0.24153c0.03443,0.04788 0.14201,0.04573 0.14004,0.06545c-0.00473,0.04735 -0.09072,0.04962 -0.14822,0.10329c-0.05422,0.0506 -0.05521,0.20525 -0.09884,0.19759c-0.04567,-0.00801 -0.02929,-0.14826 -0.0838,-0.20068c-0.05559,-0.05346 -0.12437,-0.07798 -0.12666,-0.0941c-0.00387,-0.02725 0.07784,-0.00397 0.1256,-0.05611z" fill="url(#color-55)"/><path d="M221.22111,165.87129c0.0553,-0.06037 0.04476,-0.26101 0.09096,-0.25697c0.05364,0.00469 0.0463,0.16556 0.10092,0.24153c0.03443,0.04788 0.14201,0.04573 0.14004,0.06545c-0.00473,0.04735 -0.09072,0.04962 -0.14822,0.10329c-0.05422,0.0506 -0.05521,0.20525 -0.09884,0.19759c-0.04567,-0.00801 -0.02929,-0.14826 -0.0838,-0.20068c-0.05559,-0.05346 -0.12437,-0.07798 -0.12666,-0.0941c-0.00387,-0.02725 0.07784,-0.00397 0.1256,-0.05611z" fill="url(#color-56)"/><path d="M224.67367,161.05312c0.05088,0.00161 0.03307,0.06095 0.06263,0.09636c0.02404,0.0288 0.10062,0.02957 0.09936,0.0693c-0.00165,0.05224 -0.07663,0.03644 -0.11782,0.06445c-0.02866,0.01948 -0.01645,0.09184 -0.0543,0.09065c-0.05059,-0.0016 -0.0386,-0.07861 -0.06815,-0.11368c-0.02435,-0.02889 -0.0951,-0.01197 -0.09383,-0.05198c0.00132,-0.04164 0.07006,-0.01641 0.09806,-0.04406c0.03157,-0.03117 0.02517,-0.11258 0.07406,-0.11103z" fill="url(#color-57)"/><path d="M219.93339,162.84501c0.05088,0.00161 0.03307,0.06095 0.06263,0.09636c0.02404,0.0288 0.10062,0.02956 0.09936,0.06929c-0.00165,0.05224 -0.07663,0.03644 -0.11783,0.06445c-0.02866,0.01948 -0.01645,0.09184 -0.0543,0.09065c-0.05059,-0.0016 -0.0386,-0.07861 -0.06815,-0.11368c-0.02435,-0.02889 -0.0951,-0.01197 -0.09383,-0.05198c0.00132,-0.04164 0.07006,-0.01641 0.09806,-0.04406c0.03157,-0.03117 0.02517,-0.11258 0.07406,-0.11103z" fill="url(#color-58)"/><path d="M223.52364,166.89664c0.05088,0.00161 0.03307,0.06095 0.06263,0.09636c0.02404,0.0288 0.10062,0.02956 0.09936,0.06929c-0.00165,0.05224 -0.07663,0.03644 -0.11782,0.06445c-0.02866,0.01948 -0.01645,0.09184 -0.0543,0.09065c-0.05059,-0.0016 -0.0386,-0.07861 -0.06815,-0.11368c-0.02435,-0.02889 -0.0951,-0.01197 -0.09383,-0.05198c0.00132,-0.04164 0.07006,-0.01641 0.09806,-0.04406c0.03157,-0.03117 0.02517,-0.11258 0.07406,-0.11103z" fill="url(#color-59)"/><path d="M221.6382,164.62343c0.05088,0.00161 0.03307,0.06095 0.06263,0.09636c0.02404,0.0288 0.10062,0.02957 0.09936,0.0693c-0.00165,0.05224 -0.07663,0.03644 -0.11782,0.06445c-0.02866,0.01948 -0.01645,0.09184 -0.0543,0.09065c-0.05059,-0.0016 -0.0386,-0.07861 -0.06815,-0.11368c-0.02435,-0.02889 -0.0951,-0.01197 -0.09383,-0.05198c0.00132,-0.04164 0.07006,-0.01641 0.09806,-0.04406c0.03157,-0.03117 0.02517,-0.11258 0.07406,-0.11103z" fill="url(#color-60)"/></g><g><path d="M265.03985,165.70418c2.77006,-4.27941 8.44596,-5.77027 12.67748,-3.32993c4.23152,2.44034 5.41627,7.88777 2.64621,12.16718c-2.77006,4.27941 -8.44596,5.77027 -12.67749,3.32993c-4.23152,-2.44034 -5.41627,-7.88777 -2.64621,-12.16718z" data-paper-data="{&quot;index&quot;:null}" fill="url(#color-61)"/><path d="M269.19778,167.83313c-0.50836,0.02411 -0.20986,1.42251 0.68099,2.88464c0.59073,0.96955 1.75629,0.62696 1.55688,0.54176c-0.75334,-0.32185 -1.49617,-2.45616 -0.664,-3.6473c0.3099,-0.44358 3.03005,-2.16405 5.36959,-1.32034c2.03217,0.73286 3.33134,3.56154 3.13534,4.74385c-0.03171,0.19125 -0.4036,6.13974 -5.32272,6.40357c-5.62365,0.30162 -14.72448,-2.70925 -13.53839,-3.9404c0.45953,-0.73287 7.05899,0.9495 9.69813,1.14267c2.16113,0.15818 4.5848,0.39608 5.46751,-0.38052c0.1871,-0.16461 1.84815,-3.47741 1.91017,-3.62316c0.42876,-1.00759 -0.48592,-1.52525 -1.37544,-1.98507c-1.68775,-0.71917 -2.43749,-0.35289 -1.81133,-0.04354c0.22945,0.11336 2.08653,2.61659 1.31927,4.23542c-0.19523,0.41191 -2.68125,2.12008 -4.70437,1.61063c-0.58251,-0.14668 -1.41232,-0.651 -2.1596,-1.19493c-0.21203,-0.15433 -2.42356,-3.17078 -2.15068,-5.47423c0.09691,-1.4183 0.39581,-2.7958 1.22783,-3.87c1.31054,-1.69202 4.13081,-2.76792 6.38599,-2.55482c1.83162,0.28093 7.52508,1.29931 8.45889,2.28554c0.45534,0.4809 -0.17253,2.50403 -0.20674,2.53382c0.24159,0.54026 -6.02965,-1.4413 -8.44146,-1.78691c-0.24358,-0.03491 -2.46621,0.21405 -3.4007,0.99889c-1.10306,0.92641 -0.95143,2.41748 -1.43515,2.44042z" data-paper-data="{&quot;index&quot;:null}" fill="url(#color-62)"/><path d="M267.66558,166.32952c1.69017,-2.76631 5.2501,-3.67093 7.95132,-2.02053c2.70122,1.6504 3.52084,5.23086 1.83067,7.99717c-1.69017,2.76631 -5.2501,3.67093 -7.95132,2.02053c-2.70122,-1.6504 -3.52084,-5.23086 -1.83067,-7.99717z" data-paper-data="{&quot;index&quot;:null}" fill="url(#color-63)"/><path d="M267.67024,170.73521c-2.42757,-1.1565 0.4421,-7.07332 2.3157,-8.05658c1.8736,-0.98325 5.92522,1.14428 6.60414,2.43796c0.67891,1.29368 -3.25191,0.5047 -5.12552,1.48796c-1.8736,0.98325 -2.47535,4.75902 -3.79432,4.13066z" data-paper-data="{&quot;index&quot;:null}" fill="url(#color-64)"/><path d="M273.35436,171.31894c-0.58935,0.17695 -1.42526,0.19614 -1.88788,-0.00151c-0.75334,-0.32185 -1.49617,-2.45616 -0.664,-3.6473c0.3099,-0.44358 3.03005,-2.16405 5.36959,-1.32034c2.03217,0.73286 3.33133,3.56154 3.13533,4.74384c-0.12183,0.73492 -1.19887,3.27162 -2.84313,4.41369c-0.97401,0.67652 -3.71121,1.68916 -5.96499,1.31329c-2.59946,-0.43353 -6.7989,-1.51309 -6.50086,-2.08508c0.26448,-0.50759 4.13469,1.09006 6.77384,1.28323c2.16113,0.15819 4.32392,-0.58417 5.20663,-1.36077c1.11932,-0.98476 1.96749,-2.6803 2.23531,-3.30968c0.42876,-1.00759 -1.05022,-3.00289 -1.93974,-3.46271c-1.68775,-0.71917 -3.35841,-0.02995 -3.85231,0.23328c-0.63389,0.33785 -0.7923,1.13646 -0.27431,1.09772c0.89562,-0.23939 1.19677,-0.45 1.82293,-0.14065c0.22946,0.11336 1.99125,1.92688 1.22399,3.54571c-0.19523,0.41191 -2.16804,2.03179 -4.19116,1.52234c-1.25866,-0.31695 -2.84593,-2.27726 -3.26266,-3.45529c-0.71653,-2.02554 -0.87356,-4.11551 0.69352,-6.13875c1.31054,-1.69202 4.44933,-2.52717 5.41993,-2.3783c2.72473,0.41791 8.05593,3.845 7.95156,3.93591c0.17561,0.3927 -2.69961,-1.10553 -5.20952,-2.08596c-0.94309,-0.36839 -1.8346,-0.66367 -2.49332,-0.75807c-1.01126,-0.14491 -3.54412,0.57566 -4.67658,1.94431c-1.21484,1.46821 -0.85695,3.8725 -0.53384,4.45547c0.51355,0.92659 1.05477,2.66204 1.95752,3.12616c1.32321,0.6803 2.84138,-0.16095 3.03053,-0.39707c0.55623,-0.78038 -0.07662,-1.20853 -0.52639,-1.07349z" data-paper-data="{&quot;index&quot;:null}" fill="url(#color-65)"/><path d="M270.61195,173.29474c-1.89256,-1.15632 -2.50434,-3.60347 -1.36646,-5.46585c1.13788,-1.86238 3.59454,-2.43475 5.4871,-1.27843c1.89256,1.15632 2.50435,3.60347 1.36646,5.46585c-1.13788,1.86238 -3.59454,2.43475 -5.4871,1.27843z" data-paper-data="{&quot;index&quot;:null}" fill="url(#color-66)"/><path d="M271.13499,170.05961c-0.0037,-1.02451 0.72176,-1.8835 1.73053,-1.93523c1.00877,-0.05173 1.87118,0.85444 1.90164,1.84702c0.0263,0.85688 -0.77309,1.72273 -1.78186,1.77445c-1.00876,0.05172 -1.84673,-0.69492 -1.85031,-1.68625z" data-paper-data="{&quot;index&quot;:null}" fill="url(#color-67)"/><path d="M271.47241,169.34378c0.42641,-0.6979 1.32429,-0.92627 2.00547,-0.51008c0.68118,0.41619 0.88773,1.31935 0.46132,2.01725c-0.42641,0.6979 -1.32429,0.92627 -2.00548,0.51008c-0.68118,-0.41619 -0.88772,-1.31935 -0.46132,-2.01725z" data-paper-data="{&quot;index&quot;:null}" fill="url(#color-68)"/><path d="M271.60217,171.48859c-0.49777,-0.30412 -1.6181,-1.73807 -1.10497,-2.99223c0.52274,-1.27766 1.85946,-2.19834 3.09993,-2.49831c1.77509,-0.42926 3.35457,0.33093 4.53785,1.90498c0.46115,0.61344 -0.23589,1.87578 -0.51519,1.59791c-0.27868,-0.27725 -2.29448,-2.28547 -4.04399,-1.46567c-1.8429,0.86357 -1.39276,3.80822 -1.97363,3.45332z" data-paper-data="{&quot;index&quot;:null}" fill="url(#color-69)"/><path d="M259.06744,173.35242c0.11066,-0.18009 5.31704,1.42211 9.73261,2.0635c0.59864,0.08696 1.18274,0.15625 1.73765,0.20105c5.29824,0.42774 7.12441,-3.41144 6.43011,-5.99345c-0.04726,-0.17574 2.15807,0.29182 2.09797,0.61085c-0.32061,1.70194 -1.03797,5.4496 -4.93584,6.50631c-0.53674,0.14551 -1.13377,0.23999 -1.79839,0.27109c-5.2318,0.24478 -13.71156,-2.93117 -13.26411,-3.65934z" data-paper-data="{&quot;index&quot;:null}" fill="url(#color-70)"/></g><g><path d="M199.74757,102.50657c-0.01702,0.00579 -0.01201,-0.04945 -0.05126,-0.07375c-0.04545,-0.02814 -0.17289,0.003 -0.17591,-0.02713c-0.00351,-0.03498 0.10059,-0.04983 0.14269,-0.0941c0.02653,-0.02791 0.01208,-0.09666 0.02497,-0.09779c0.03095,-0.00272 0.04286,0.05217 0.08427,0.08254c0.03905,0.02863 0.13838,0.01048 0.13878,0.0394c0.00041,0.03027 -0.09155,0.03681 -0.11856,0.07815c-0.02755,0.04216 -0.03492,0.08926 -0.04497,0.09269z" data-paper-data="{&quot;index&quot;:null}" fill="url(#color-71)"/><path d="M206.66795,91.66288c0.84043,0.69015 -1.34921,2.67382 -3.73803,4.83601c-2.38882,2.16219 -4.79239,3.97997 -5.60525,3.08847c-0.81943,-0.8987 0.8787,-3.50904 3.26752,-5.67123c2.38882,-2.16219 5.22831,-2.94917 6.07577,-2.25325z" fill="url(#color-72)"/><g><path d="M204.67573,92.65654c1.89891,2.09794 1.59749,5.4648 -0.67322,7.52009c-2.27071,2.05528 -5.65086,2.02071 -7.54977,-0.07724c-1.89891,-2.09794 -1.59749,-5.46481 0.67322,-7.52009c2.27071,-2.05528 5.65086,-2.0207 7.54977,0.07724z" fill="url(#color-73)"/><path d="M207.49819,90.06585c1.89891,2.09794 1.5975,5.46481 -0.67322,7.52009c-2.27071,2.05528 -5.65086,2.0207 -7.54977,-0.07724c-1.89891,-2.09794 -1.59749,-5.4648 0.67322,-7.52009c2.27071,-2.05528 5.65086,-2.02071 7.54977,0.07724z" fill="url(#color-74)"/></g><path d="M207.95792,91.3118c0.75212,0.83095 -1.69683,2.86379 -4.56823,5.46277c-2.8714,2.59898 -5.80883,4.03225 -6.56095,3.2013c-0.75212,-0.83095 0.96589,-3.61145 3.83729,-6.21043c2.8714,-2.59898 6.53977,-3.28458 7.29188,-2.45363z" fill="url(#color-75)"/><path d="M200.81736,96.05865c1.0202,1.12713 0.86237,2.93227 -0.35252,4.0319c-1.21489,1.09963 -3.02679,1.07734 -4.04698,-0.04979c-1.0202,-1.12713 -0.86237,-2.93228 0.35252,-4.03191c1.21489,-1.09963 3.02678,-1.07733 4.04698,0.0498z" fill="url(#color-76)"/><path d="M204.4891,93.30248c0.90822,1.00342 0.66299,3.18776 -0.41856,4.1667c-1.08155,0.97894 -3.32495,0.90237 -4.23317,-0.10105c-0.90822,-1.00342 -0.81206,-3.24584 0.26949,-4.22478c1.08155,-0.97894 3.47402,-0.84429 4.38225,0.15913z" fill="url(#color-77)"/><path d="M205.65555,91.91447c0.84148,0.92968 0.71129,2.41859 -0.29076,3.32558c-1.00206,0.90699 -2.49654,0.8886 -3.33802,-0.04107c-0.84148,-0.92968 -0.7113,-2.41859 0.29076,-3.32559c1.00206,-0.90699 2.49654,-0.8886 3.33802,0.04108z" fill="url(#color-78)"/><path d="M202.41846,94.37445c1.0202,1.12713 0.86237,2.93228 -0.35252,4.03191c-1.21489,1.09963 -3.02678,1.07733 -4.04698,-0.0498c-1.0202,-1.12713 -0.86237,-2.93227 0.35252,-4.0319c1.21489,-1.09963 3.02678,-1.07733 4.04698,0.0498z" fill="url(#color-79)"/><path d="M204.82111,87.87482c0.75421,0.83326 0.6538,2.15302 -0.22425,2.94778c-0.87806,0.79475 -2.20127,0.76354 -2.95548,-0.06972c-0.7542,-0.83326 -0.6538,-2.15302 0.22426,-2.94778c0.87805,-0.79475 2.20127,-0.76354 2.95547,0.06972z" fill="url(#color-80)"/><path d="M208.97869,90.05523c0.74919,0.82771 0.65198,2.13641 -0.21712,2.92305c-0.8691,0.78664 -2.18098,0.75335 -2.93016,-0.07436c-0.74918,-0.82771 -0.65198,-2.13641 0.21712,-2.92305c0.8691,-0.78664 2.18098,-0.75334 2.93016,0.07437z" fill="url(#color-81)"/><path d="M206.9081,90.11233c0.59201,0.65407 0.56545,1.64271 -0.05933,2.20821c-0.62477,0.56551 -1.61118,0.49371 -2.20319,-0.16035c-0.59201,-0.65407 -0.56545,-1.64271 0.05933,-2.20821c0.62477,-0.56551 1.61118,-0.49371 2.20319,0.16035z" fill="url(#color-82)"/><path d="M208.17414,93.05086c0.81097,0.89597 0.69849,2.31918 -0.25125,3.17881c-0.94974,0.85963 -2.37707,0.83016 -3.18804,-0.06581c-0.81097,-0.89597 -0.69849,-2.31918 0.25125,-3.17881c0.94974,-0.85963 2.37707,-0.83016 3.18804,0.06581z" fill="url(#color-83)"/></g><path d="M284.35717,138.24945c-0.75191,1.57901 -4.72999,1.25499 -8.88529,-0.72372c-4.1553,-1.97871 -6.91429,-4.86282 -6.16238,-6.44184c0.75191,-1.57901 4.73,-1.25499 8.8853,0.72373c4.1553,1.97871 6.91429,4.86282 6.16238,6.44183z" fill="url(#color-84)"/><path d="M234.5,94.16667c0,1.28866 -1.26853,2.33334 -2.83334,2.33334c-1.5648,0 -2.83333,-1.04467 -2.83333,-2.33334c0,-1.28866 1.26853,-2.33333 2.83333,-2.33333c1.56481,0 2.83334,1.04466 2.83334,2.33333z" fill="url(#color-85)"/><path d="M204.99114,170.26591c1.26747,3.74962 0.88117,7.26717 -0.86284,7.8567c-1.744,0.58953 -4.18529,-1.97223 -5.45277,-5.72185c-1.26747,-3.74962 -0.88117,-7.26717 0.86284,-7.8567c1.744,-0.58953 4.18529,1.97223 5.45277,5.72185z" fill="url(#color-86)"/><path d="M210.83333,115.33334c0,1.56481 -2.01472,2.83333 -4.5,2.83333c-2.48528,0 -4.5,-1.26852 -4.5,-2.83333c0,-1.56481 2.01472,-2.83334 4.5,-2.83334c2.48528,0 4.5,1.26853 4.5,2.83334z" fill="url(#color-87)"/></g><text transform="translate(249.20843,126.51747) scale(0.15845,0.15845)" font-size="40" xml:space="preserve" fill="#ffffff" fill-rule="nonzero" stroke="#ffffff" stroke-width="1" stroke-linecap="butt" stroke-linejoin="miter" stroke-miterlimit="10" stroke-dasharray="" stroke-dashoffset="0" font-family="Handwriting" font-weight="normal" text-anchor="start" style="mix-blend-mode: normal"></text></g></g></g></svg>