<svg version="1.1" xmlns="http://www.w3.org/2000/svg" xmlns:xlink="http://www.w3.org/1999/xlink" width="105.02149" height="166.24161" viewBox="0,0,105.02149,166.24161"><defs><linearGradient x1="240.61953" y1="58.29928" x2="240.61953" y2="237.16751" gradientUnits="userSpaceOnUse" id="color-1"><stop offset="0" stop-color="#000000"/><stop offset="1" stop-color="#000000" stop-opacity="0"/></linearGradient><radialGradient cx="233.35237" cy="120.09398" r="45.88326" gradientUnits="userSpaceOnUse" id="color-2"><stop offset="0" stop-color="#de6100" stop-opacity="0"/><stop offset="1" stop-color="#de6100"/></radialGradient><radialGradient cx="240.15946" cy="130.91166" r="8.97998" gradientUnits="userSpaceOnUse" id="color-3"><stop offset="0" stop-color="#21416d"/><stop offset="1" stop-color="#21416d" stop-opacity="0"/></radialGradient><radialGradient cx="239.80957" cy="131.59412" r="9.54385" gradientUnits="userSpaceOnUse" id="color-4"><stop offset="0" stop-color="#a10909"/><stop offset="1" stop-color="#a10909" stop-opacity="0"/></radialGradient><radialGradient cx="240.10756" cy="125.75172" r="8.84264" gradientUnits="userSpaceOnUse" id="color-5"><stop offset="0" stop-color="#cc7600"/><stop offset="1" stop-color="#cc7600" stop-opacity="0"/></radialGradient><radialGradient cx="240.51277" cy="130.08269" r="6.10783" gradientUnits="userSpaceOnUse" id="color-6"><stop offset="0" stop-color="#ffffff"/><stop offset="1" stop-color="#ffffff" stop-opacity="0"/></radialGradient><radialGradient cx="274.64622" cy="113.77" r="22.57733" gradientUnits="userSpaceOnUse" id="color-7"><stop offset="0" stop-color="#de6c00"/><stop offset="1" stop-color="#de6c00" stop-opacity="0"/></radialGradient><radialGradient cx="273.2844" cy="114.03885" r="18.62369" gradientUnits="userSpaceOnUse" id="color-8"><stop offset="0" stop-color="#deb700"/><stop offset="1" stop-color="#deb700" stop-opacity="0"/></radialGradient><radialGradient cx="274.38221" cy="120.12919" r="11.20827" gradientUnits="userSpaceOnUse" id="color-9"><stop offset="0" stop-color="#ffffda"/><stop offset="1" stop-color="#ffffda" stop-opacity="0"/></radialGradient><radialGradient cx="282.28834" cy="109.96143" r="10.05749" gradientUnits="userSpaceOnUse" id="color-10"><stop offset="0" stop-color="#ffffda"/><stop offset="1" stop-color="#ffffda" stop-opacity="0"/></radialGradient><radialGradient cx="209.65302" cy="142.77208" r="20.73649" gradientUnits="userSpaceOnUse" id="color-11"><stop offset="0" stop-color="#de6c00"/><stop offset="1" stop-color="#de6c00" stop-opacity="0"/></radialGradient><radialGradient cx="198.20629" cy="146.63158" r="18.64979" gradientUnits="userSpaceOnUse" id="color-12"><stop offset="0" stop-color="#deb700"/><stop offset="1" stop-color="#deb700" stop-opacity="0"/></radialGradient><radialGradient cx="210.53387" cy="152.50444" r="8.01131" gradientUnits="userSpaceOnUse" id="color-13"><stop offset="0" stop-color="#ffffda"/><stop offset="1" stop-color="#ffffda" stop-opacity="0"/></radialGradient><radialGradient cx="203.39969" cy="139.39824" r="9.98812" gradientUnits="userSpaceOnUse" id="color-14"><stop offset="0" stop-color="#ffffda"/><stop offset="1" stop-color="#ffffda" stop-opacity="0"/></radialGradient><radialGradient cx="234.74195" cy="129.16457" r="1.45168" gradientUnits="userSpaceOnUse" id="color-15"><stop offset="0" stop-color="#ded9cc"/><stop offset="1" stop-color="#ded9cc" stop-opacity="0"/></radialGradient><radialGradient cx="243.48464" cy="127.11308" r="2.30092" gradientUnits="userSpaceOnUse" id="color-16"><stop offset="0" stop-color="#ffffff"/><stop offset="1" stop-color="#ffffff" stop-opacity="0"/></radialGradient><radialGradient cx="237.95174" cy="134.62342" r="1.45168" gradientUnits="userSpaceOnUse" id="color-17"><stop offset="0" stop-color="#ffffff"/><stop offset="1" stop-color="#ffffff" stop-opacity="0"/></radialGradient><radialGradient cx="232.49431" cy="134.38473" r="1.07391" gradientUnits="userSpaceOnUse" id="color-18"><stop offset="0" stop-color="#dedede"/><stop offset="1" stop-color="#dedede" stop-opacity="0"/></radialGradient><radialGradient cx="241.01892" cy="125.48948" r="1.07391" gradientUnits="userSpaceOnUse" id="color-19"><stop offset="0" stop-color="#dedede"/><stop offset="1" stop-color="#dedede" stop-opacity="0"/></radialGradient><radialGradient cx="244.3001" cy="136.8072" r="1.07391" gradientUnits="userSpaceOnUse" id="color-20"><stop offset="0" stop-color="#dedcd7"/><stop offset="1" stop-color="#dedcd7" stop-opacity="0"/></radialGradient><radialGradient cx="239.59231" cy="133.05048" r="1.07391" gradientUnits="userSpaceOnUse" id="color-21"><stop offset="0" stop-color="#dedede"/><stop offset="1" stop-color="#dedede" stop-opacity="0"/></radialGradient><radialGradient cx="234.95739" cy="125.96191" r="0.59442" gradientUnits="userSpaceOnUse" id="color-22"><stop offset="0" stop-color="#ffffff"/><stop offset="1" stop-color="#ffffff" stop-opacity="0"/></radialGradient><radialGradient cx="247.65691" cy="127.3759" r="0.59442" gradientUnits="userSpaceOnUse" id="color-23"><stop offset="0" stop-color="#ffffff"/><stop offset="1" stop-color="#ffffff" stop-opacity="0"/></radialGradient><radialGradient cx="235.88606" cy="137.79147" r="0.59442" gradientUnits="userSpaceOnUse" id="color-24"><stop offset="0" stop-color="#ffffff"/><stop offset="1" stop-color="#ffffff" stop-opacity="0"/></radialGradient><radialGradient cx="237.59661" cy="131.169" r="0.59442" gradientUnits="userSpaceOnUse" id="color-25"><stop offset="0" stop-color="#ffffff"/><stop offset="1" stop-color="#ffffff" stop-opacity="0"/></radialGradient></defs><g transform="translate(-192.40172,-43.5948)"><g data-paper-data="{&quot;isPaintingLayer&quot;:true}" fill-rule="nonzero" stroke-linecap="butt" stroke-linejoin="miter" stroke-miterlimit="10" stroke-dasharray="" stroke-dashoffset="0" style="mix-blend-mode: normal"><path d="M284.37023,179.70939c0.07585,1.88165 -6.82295,7.07192 -42.75929,7.07192c-35.93634,0 -45.96971,-4.43047 -45.98172,-7.45949c-0.01038,-2.6151 9.30175,-6.10294 45.23807,-6.10294c35.93634,0 43.43354,4.76932 43.50294,6.49051z" fill="url(#color-1)" stroke="none" stroke-width="0"/><text transform="translate(218.2178,203.85666) scale(0.357,0.357)" font-size="40" xml:space="preserve" fill="#ffffff" fill-rule="nonzero" stroke="#ffffff" stroke-width="0.5" stroke-linecap="butt" stroke-linejoin="miter" stroke-miterlimit="10" stroke-dasharray="" stroke-dashoffset="0" font-family="Handwriting" font-weight="normal" text-anchor="start" style="mix-blend-mode: normal"></text><text transform="translate(211.75542,56.70366) scale(0.34497,0.34497)" font-size="40" xml:space="preserve" fill="#ffffff" fill-rule="nonzero" stroke="#ffffff" stroke-width="1" stroke-linecap="butt" stroke-linejoin="miter" stroke-miterlimit="10" stroke-dasharray="" stroke-dashoffset="0" font-family="Handwriting" font-weight="normal" text-anchor="start" style="mix-blend-mode: normal"></text><text transform="translate(198.70842,73.44219) scale(0.26747,0.26747)" font-size="40" xml:space="preserve" fill="#ffffff" fill-rule="nonzero" stroke="#ffffff" stroke-width="1" stroke-linecap="butt" stroke-linejoin="miter" stroke-miterlimit="10" stroke-dasharray="" stroke-dashoffset="0" font-family="Handwriting" font-weight="normal" text-anchor="start" style="mix-blend-mode: normal"></text><g stroke="none" stroke-width="0"><path d="M280.96278,112.34469c0.51939,1.58164 -19.64267,9.65687 -41.91559,19.63864c-19.31237,8.65498 -41.0794,19.61433 -41.64443,18.29299c-0.65485,-1.09945 21.63932,-9.85951 41.23566,-18.63473c0.79217,-0.35473 42.13323,-19.87892 42.32436,-19.2969z" fill="url(#color-2)"/><path d="M246.51588,128.28865c2.30529,5.13854 1.39563,10.55065 -2.03177,12.08828c-3.4274,1.53762 -8.07466,-1.3815 -10.37995,-6.52004c-2.30529,-5.13854 -1.39564,-10.55065 2.03176,-12.08827c3.4274,-1.53763 8.07467,1.38149 10.37996,6.52003z" fill="url(#color-3)"/><path d="M245.72715,128.91009c2.15751,4.80913 1.36665,9.84716 -1.76644,11.25275c-3.13308,1.40559 -7.42196,-1.35352 -9.57948,-6.16266c-2.15751,-4.80913 -1.36665,-9.84716 1.76644,-11.25275c3.13308,-1.40559 7.42197,1.35353 9.57948,6.16267z" fill="url(#color-4)"/><path d="M245.14487,131.49484c0.84502,2.04895 -0.41538,6.71732 -2.82431,7.62841c-2.4737,0.93559 -4.15489,2.02819 -7.08762,-3.89986c-2.43807,-4.9282 -2.72147,-9.65493 1.26438,-11.44309c3.98585,-1.78816 7.37362,4.62562 8.64755,7.71454z" fill="url(#color-5)"/><path d="M245.9778,127.63092c1.42583,3.17821 0.13492,6.85235 -2.88333,8.20642c-3.01826,1.35407 -6.6209,-0.12468 -8.04673,-3.30289c-1.42583,-3.17821 -0.13492,-6.85234 2.88334,-8.20642c3.01825,-1.35407 6.6209,0.12468 8.04673,3.30289z" fill="url(#color-6)"/><path d="M297.24163,101.35241c1.35943,3.71142 -5.23764,7.81087 -9.00981,14.24846c-3.56735,6.08804 -4.21869,14.59842 -6.44688,15.60657c-3.86685,1.74956 -11.15418,-1.42678 -16.52621,-4.16529c-2.29391,-1.16938 -6.55097,-0.43663 -8.14748,-3.809c-1.72805,-3.65022 2.99406,-7.64993 4.57393,-11.72725c2.40338,-6.20261 0.11304,-15.30549 4.0213,-16.64601c4.51065,-1.54714 9.60899,1.94952 14.24884,6.70937c2.62826,2.69624 16.09668,-3.46466 17.28631,-0.21684z" fill="url(#color-7)"/><path d="M291.52609,105.62706c1.14164,1.84243 -2.51227,5.2315 -4.68731,10.24695c-2.37119,5.46775 -3.4637,12.56745 -6.81425,14.0706c-6.42393,2.88195 -12.70656,-3.27837 -16.42276,-11.56186c-1.23297,-2.74832 -0.20677,-7.13547 -0.35979,-10.23096c-0.3082,-6.2344 -0.28813,-11.3728 4.00446,-13.29857c3.44262,-1.54445 9.6126,8.44725 14.42746,10.38165c4.16967,1.67519 8.80156,-1.30334 9.85219,0.3922z" fill="url(#color-8)"/><path d="M284.34963,115.65753c2.53377,5.64783 0.12524,12.22834 -5.37961,14.69796c-5.50485,2.46963 -12.02144,-0.10682 -14.55521,-5.75465c-2.53377,-5.64783 -0.12524,-12.22834 5.37961,-14.69796c5.50485,-2.46962 12.02144,0.10682 14.55522,5.75465z" fill="url(#color-9)"/><path d="M290.70527,106.18536c2.27362,5.06795 0.34837,10.86695 -4.30016,12.95241c-4.64854,2.08546 -10.26006,-0.33233 -12.53368,-5.40028c-2.27362,-5.06795 -0.34838,-10.86695 4.30016,-12.95241c4.64854,-2.08546 10.26007,0.33233 12.53369,5.40028z" fill="url(#color-10)"/><path d="M226.95087,135.73494c3.77151,8.40677 8.17382,16.6846 -1.51533,21.03142c-9.68915,4.34682 -28.36523,3.09244 -32.13674,-5.31432c-3.77151,-8.40677 4.96869,-24.23361 14.65785,-28.58044c9.68916,-4.34682 15.22271,4.45657 18.99422,12.86334z" fill="url(#color-11)"/><path d="M208.40354,144.45152c3.73121,6.54647 17.38222,10.36771 13.96636,12.32176c-7.40582,4.23653 -23.71882,1.3559 -27.42659,-6.73927c-3.45038,-7.53319 1.94995,-22.6552 12.74994,-27.50038c10.79999,-4.84517 -4.46019,12.8462 0.71028,21.91789z" fill="url(#color-12)"/><path d="M217.8433,149.22523c1.7405,3.87961 -0.12109,8.49281 -4.15798,10.30387c-4.03689,1.81106 -8.72039,0.13417 -10.46089,-3.74544c-1.7405,-3.87961 0.12109,-8.4928 4.15798,-10.30386c4.03689,-1.81106 8.72039,-0.13417 10.46089,3.74544z" fill="url(#color-13)"/><path d="M212.51275,135.30987c2.14035,4.77087 -0.20462,10.46885 -5.23762,12.7268c-5.03301,2.25795 -10.84815,0.22081 -12.98849,-4.55006c-2.14034,-4.77087 0.20462,-10.46884 5.23762,-12.72679c5.03301,-2.25795 10.84815,-0.22082 12.9885,4.55005z" fill="url(#color-14)"/></g><path d="M235.75373,129.19389c-0.011,0.0775 -0.34165,0.19535 -0.60891,0.45237c-0.26207,0.25202 -0.1833,0.92623 -0.40286,0.96475c-0.20974,0.03679 -0.21452,-0.70663 -0.47517,-0.9499c-0.27644,-0.25801 -0.68984,-0.26891 -0.71257,-0.49654c-0.00946,-0.0948 0.50772,-0.08446 0.67323,-0.31465c0.26259,-0.3652 0.22733,-1.13858 0.48518,-1.16112c0.22212,-0.01941 0.17146,0.94515 0.43729,1.23535c0.2296,0.25066 0.62241,0.13874 0.60381,0.26974z" fill="url(#color-15)" stroke="none" stroke-width="0"/><path d="M244.99429,127.06643c-0.01266,0.08922 -0.39334,0.2249 -0.70104,0.5208c-0.30171,0.29015 -0.30614,1.20902 -0.55892,1.25336c-0.24147,0.04236 -0.15187,-0.9562 -0.45195,-1.23627c-0.31826,-0.29705 -0.79421,-0.30959 -0.82037,-0.57166c-0.0109,-0.10914 0.58453,-0.09724 0.77508,-0.36225c0.30231,-0.42045 0.26173,-1.64371 0.55858,-1.66966c0.25572,-0.02235 0.1974,1.42102 0.50345,1.75512c0.26434,0.28858 0.71657,0.15973 0.69516,0.31055z" fill="url(#color-16)" stroke="none" stroke-width="0"/><path d="M238.96351,134.65275c-0.011,0.0775 -0.34165,0.19535 -0.60891,0.45237c-0.26207,0.25202 -0.1833,0.92623 -0.40286,0.96475c-0.20974,0.03679 -0.21452,-0.70663 -0.47517,-0.9499c-0.27644,-0.25801 -0.68984,-0.26891 -0.71257,-0.49654c-0.00946,-0.0948 0.50772,-0.08446 0.67323,-0.31465c0.26259,-0.3652 0.22733,-1.13858 0.48518,-1.16112c0.22212,-0.01942 0.17146,0.94515 0.43729,1.23535c0.2296,0.25066 0.62241,0.13874 0.60381,0.26974z" fill="url(#color-17)" stroke="none" stroke-width="0"/><path d="M233.2428,134.40642c-0.00814,0.05733 -0.25274,0.14451 -0.45046,0.33465c-0.19387,0.18644 -0.1356,0.6852 -0.29803,0.71369c-0.15516,0.02722 -0.1587,-0.52275 -0.35152,-0.70271c-0.2045,-0.19087 -0.51033,-0.19893 -0.52714,-0.36733c-0.007,-0.07013 0.3756,-0.06248 0.49804,-0.23277c0.19425,-0.27016 0.16818,-0.84229 0.35892,-0.85896c0.16432,-0.01436 0.12684,0.6992 0.32349,0.91388c0.16986,0.18543 0.46044,0.10263 0.44668,0.19955z" fill="url(#color-18)" stroke="none" stroke-width="0"/><path d="M241.7674,125.51118c-0.00814,0.05733 -0.25274,0.14451 -0.45046,0.33465c-0.19387,0.18644 -0.1356,0.6852 -0.29803,0.71369c-0.15516,0.02722 -0.1587,-0.52275 -0.35152,-0.70271c-0.2045,-0.19087 -0.51033,-0.19893 -0.52714,-0.36733c-0.007,-0.07013 0.3756,-0.06248 0.49804,-0.23277c0.19425,-0.27016 0.16817,-0.84229 0.35892,-0.85896c0.16432,-0.01436 0.12684,0.6992 0.32349,0.91388c0.16986,0.18543 0.46044,0.10263 0.44668,0.19955z" fill="url(#color-19)" stroke="none" stroke-width="0"/><path d="M245.04859,136.82889c-0.00814,0.05733 -0.25274,0.14451 -0.45046,0.33465c-0.19387,0.18644 -0.1356,0.6852 -0.29803,0.71369c-0.15516,0.02722 -0.1587,-0.52275 -0.35152,-0.70271c-0.2045,-0.19087 -0.51033,-0.19893 -0.52714,-0.36733c-0.007,-0.07013 0.3756,-0.06248 0.49804,-0.23277c0.19425,-0.27016 0.16817,-0.84229 0.35892,-0.85896c0.16432,-0.01436 0.12684,0.6992 0.32349,0.91388c0.16986,0.18543 0.46044,0.10263 0.44668,0.19955z" fill="url(#color-20)" stroke="none" stroke-width="0"/><path d="M240.3408,133.07217c-0.00814,0.05733 -0.25274,0.14451 -0.45046,0.33465c-0.19387,0.18644 -0.1356,0.6852 -0.29803,0.71369c-0.15516,0.02722 -0.1587,-0.52275 -0.35152,-0.70271c-0.2045,-0.19087 -0.51033,-0.19893 -0.52714,-0.36733c-0.007,-0.07013 0.3756,-0.06248 0.49804,-0.23277c0.19425,-0.27016 0.16817,-0.84229 0.35892,-0.85896c0.16432,-0.01436 0.12684,0.6992 0.32349,0.91388c0.16986,0.18543 0.46044,0.10263 0.44668,0.19955z" fill="url(#color-21)" stroke="none" stroke-width="0"/><path d="M234.93936,125.39155c0.17388,-0.0055 0.15113,0.28402 0.2634,0.39487c0.09959,0.09834 0.34407,0.00863 0.34875,0.15671c0.0045,0.14228 -0.24711,0.08211 -0.33371,0.18485c-0.10512,0.12472 -0.06247,0.3986 -0.24238,0.40428c-0.13461,0.00426 -0.09121,-0.25308 -0.19312,-0.32237c-0.14651,-0.09961 -0.41315,-0.04344 -0.41903,-0.22921c-0.00447,-0.14129 0.26788,-0.14401 0.35337,-0.24644c0.1051,-0.12593 0.04178,-0.33698 0.22272,-0.3427z" fill="url(#color-22)" stroke="none" stroke-width="0"/><path d="M247.63888,126.80554c0.17388,-0.0055 0.15114,0.28402 0.2634,0.39487c0.09959,0.09834 0.34407,0.00863 0.34875,0.15671c0.0045,0.14228 -0.24711,0.08211 -0.33371,0.18485c-0.10512,0.12472 -0.06247,0.3986 -0.24238,0.40428c-0.13461,0.00426 -0.09121,-0.25308 -0.19312,-0.32237c-0.14651,-0.09961 -0.41315,-0.04344 -0.41903,-0.22921c-0.00447,-0.14129 0.26788,-0.14401 0.35337,-0.24644c0.1051,-0.12593 0.04178,-0.33698 0.22272,-0.3427z" fill="url(#color-23)" stroke="none" stroke-width="0"/><path d="M235.86803,137.22112c0.17388,-0.0055 0.15113,0.28402 0.2634,0.39487c0.09959,0.09834 0.34407,0.00863 0.34875,0.15671c0.0045,0.14228 -0.24711,0.08211 -0.33371,0.18485c-0.10512,0.12472 -0.06247,0.3986 -0.24238,0.40428c-0.13461,0.00426 -0.09121,-0.25308 -0.19312,-0.32237c-0.14651,-0.09961 -0.41315,-0.04344 -0.41903,-0.22921c-0.00447,-0.14129 0.26788,-0.14401 0.35337,-0.24644c0.1051,-0.12593 0.04178,-0.33698 0.22272,-0.3427z" fill="url(#color-24)" stroke="none" stroke-width="0"/><path d="M237.57858,130.59865c0.17388,-0.0055 0.15113,0.28402 0.2634,0.39487c0.09959,0.09834 0.34407,0.00863 0.34875,0.15671c0.0045,0.14228 -0.24711,0.08211 -0.33371,0.18485c-0.10512,0.12472 -0.06247,0.3986 -0.24238,0.40428c-0.13461,0.00426 -0.09121,-0.25308 -0.19312,-0.32237c-0.14651,-0.09961 -0.41315,-0.04344 -0.41903,-0.22921c-0.00447,-0.14129 0.26788,-0.14401 0.35337,-0.24644c0.1051,-0.12593 0.04178,-0.33698 0.22272,-0.3427z" fill="url(#color-25)" stroke="none" stroke-width="0"/></g></g></svg>