<svg version="1.1" xmlns="http://www.w3.org/2000/svg" xmlns:xlink="http://www.w3.org/1999/xlink" width="132.38957" height="159.50089" viewBox="0,0,132.38957,159.50089"><defs><linearGradient x1="241.2011" y1="58.32061" x2="238.51495" y2="237.16867" gradientUnits="userSpaceOnUse" id="color-1"><stop offset="0" stop-color="#000000"/><stop offset="1" stop-color="#000000" stop-opacity="0"/></linearGradient><radialGradient cx="280.59059" cy="110.0484" r="18.68273" gradientUnits="userSpaceOnUse" id="color-2"><stop offset="0" stop-color="#a3d5e8"/><stop offset="1" stop-color="#a3d5e8" stop-opacity="0"/></radialGradient><radialGradient cx="233.88633" cy="129.8218" r="45.30327" gradientUnits="userSpaceOnUse" id="color-3"><stop offset="0" stop-color="#a1d3e6"/><stop offset="1" stop-color="#a1d3e6" stop-opacity="0"/></radialGradient><radialGradient cx="234.59561" cy="128.46785" r="55.30685" gradientUnits="userSpaceOnUse" id="color-4"><stop offset="0" stop-color="#96d6d5"/><stop offset="1" stop-color="#96d6d5" stop-opacity="0"/></radialGradient><radialGradient cx="233.17404" cy="125.87089" r="28.80972" gradientUnits="userSpaceOnUse" id="color-5"><stop offset="0" stop-color="#af9c8b"/><stop offset="1" stop-color="#af9c8b" stop-opacity="0"/></radialGradient><radialGradient cx="226.92583" cy="111.50299" r="18.80432" gradientUnits="userSpaceOnUse" id="color-6"><stop offset="0" stop-color="#ffffff"/><stop offset="1" stop-color="#ffffff" stop-opacity="0"/></radialGradient><radialGradient cx="234.02623" cy="129.155" r="36.6875" gradientUnits="userSpaceOnUse" id="color-7"><stop offset="0" stop-color="#ffb3b7"/><stop offset="1" stop-color="#ffb3b7" stop-opacity="0"/></radialGradient><radialGradient cx="233.74189" cy="128.83913" r="20.87508" gradientUnits="userSpaceOnUse" id="color-8"><stop offset="0" stop-color="#ffe9cf"/><stop offset="1" stop-color="#ffe9cf" stop-opacity="0"/></radialGradient><radialGradient cx="234.93518" cy="129.22395" r="10.09964" gradientUnits="userSpaceOnUse" id="color-9"><stop offset="0" stop-color="#fffee4"/><stop offset="1" stop-color="#fffee4" stop-opacity="0"/></radialGradient><radialGradient cx="233.90647" cy="129.69692" r="7.26829" gradientUnits="userSpaceOnUse" id="color-10"><stop offset="0" stop-color="#ffffff"/><stop offset="1" stop-color="#ffffff" stop-opacity="0"/></radialGradient><radialGradient cx="242.47349" cy="118.86447" r="19.1553" gradientUnits="userSpaceOnUse" id="color-11"><stop offset="0" stop-color="#ffffff"/><stop offset="1" stop-color="#ffffff" stop-opacity="0"/></radialGradient><radialGradient cx="238.75294" cy="163.64297" r="18.68862" gradientUnits="userSpaceOnUse" id="color-12"><stop offset="0" stop-color="#ffffff"/><stop offset="1" stop-color="#ffffff" stop-opacity="0"/></radialGradient><radialGradient cx="236.98187" cy="114.62775" r="2.37293" gradientUnits="userSpaceOnUse" id="color-13"><stop offset="0" stop-color="#ffffff"/><stop offset="1" stop-color="#ffffff" stop-opacity="0"/></radialGradient><radialGradient cx="260.79177" cy="122.32817" r="1.4971" gradientUnits="userSpaceOnUse" id="color-14"><stop offset="0" stop-color="#ffffff"/><stop offset="1" stop-color="#ffffff" stop-opacity="0"/></radialGradient><radialGradient cx="239.57306" cy="93.0541" r="1.10751" gradientUnits="userSpaceOnUse" id="color-15"><stop offset="0" stop-color="#ffffff"/><stop offset="1" stop-color="#ffffff" stop-opacity="0"/></radialGradient><radialGradient cx="258.76549" cy="132.16688" r="1.10752" gradientUnits="userSpaceOnUse" id="color-16"><stop offset="0" stop-color="#fffdf7"/><stop offset="1" stop-color="#fffdf7" stop-opacity="0"/></radialGradient><radialGradient cx="256.37805" cy="147.00738" r="0.61301" gradientUnits="userSpaceOnUse" id="color-17"><stop offset="0" stop-color="#ffffff"/><stop offset="1" stop-color="#ffffff" stop-opacity="0"/></radialGradient><radialGradient cx="244.43832" cy="118.54912" r="0.61302" gradientUnits="userSpaceOnUse" id="color-18"><stop offset="0" stop-color="#ffffff"/><stop offset="1" stop-color="#ffffff" stop-opacity="0"/></radialGradient><radialGradient cx="254.43751" cy="139.25481" r="0.61302" gradientUnits="userSpaceOnUse" id="color-19"><stop offset="0" stop-color="#ffffff"/><stop offset="1" stop-color="#ffffff" stop-opacity="0"/></radialGradient><radialGradient cx="253.16634" cy="114.14051" r="0.61301" gradientUnits="userSpaceOnUse" id="color-20"><stop offset="0" stop-color="#ffffff"/><stop offset="1" stop-color="#ffffff" stop-opacity="0"/></radialGradient><radialGradient cx="279.21051" cy="108.64343" r="1.4971" gradientUnits="userSpaceOnUse" id="color-21"><stop offset="0" stop-color="#ffffff"/><stop offset="1" stop-color="#ffffff" stop-opacity="0"/></radialGradient><radialGradient cx="210.77927" cy="132.14905" r="2.37293" gradientUnits="userSpaceOnUse" id="color-22"><stop offset="0" stop-color="#ffffff"/><stop offset="1" stop-color="#ffffff" stop-opacity="0"/></radialGradient><radialGradient cx="274.55577" cy="104.40158" r="1.4971" gradientUnits="userSpaceOnUse" id="color-23"><stop offset="0" stop-color="#ffffff"/><stop offset="1" stop-color="#ffffff" stop-opacity="0"/></radialGradient><radialGradient cx="218.88877" cy="102.08778" r="1.10752" gradientUnits="userSpaceOnUse" id="color-24"><stop offset="0" stop-color="#dedede"/><stop offset="1" stop-color="#dedede" stop-opacity="0"/></radialGradient><radialGradient cx="206.69736" cy="119.47063" r="1.10751" gradientUnits="userSpaceOnUse" id="color-25"><stop offset="0" stop-color="#ffffff"/><stop offset="1" stop-color="#ffffff" stop-opacity="0"/></radialGradient><radialGradient cx="210.89628" cy="110.76566" r="0.61302" gradientUnits="userSpaceOnUse" id="color-26"><stop offset="0" stop-color="#ffffff"/><stop offset="1" stop-color="#ffffff" stop-opacity="0"/></radialGradient><radialGradient cx="217.57512" cy="141.30221" r="0.61302" gradientUnits="userSpaceOnUse" id="color-27"><stop offset="0" stop-color="#ffffff"/><stop offset="1" stop-color="#ffffff" stop-opacity="0"/></radialGradient><radialGradient cx="223.96748" cy="107.95847" r="0.61301" gradientUnits="userSpaceOnUse" id="color-28"><stop offset="0" stop-color="#ffffff"/><stop offset="1" stop-color="#ffffff" stop-opacity="0"/></radialGradient><radialGradient cx="213.53566" cy="119.51268" r="0.61303" gradientUnits="userSpaceOnUse" id="color-29"><stop offset="0" stop-color="#ffffff"/><stop offset="1" stop-color="#ffffff" stop-opacity="0"/></radialGradient><radialGradient cx="273.62258" cy="112.46349" r="1.49711" gradientUnits="userSpaceOnUse" id="color-30"><stop offset="0" stop-color="#ffffff"/><stop offset="1" stop-color="#ffffff" stop-opacity="0"/></radialGradient><radialGradient cx="232.67644" cy="147.50026" r="2.37293" gradientUnits="userSpaceOnUse" id="color-31"><stop offset="0" stop-color="#ffffff"/><stop offset="1" stop-color="#ffffff" stop-opacity="0"/></radialGradient><radialGradient cx="248.18862" cy="156.32987" r="1.49711" gradientUnits="userSpaceOnUse" id="color-32"><stop offset="0" stop-color="#ffffff"/><stop offset="1" stop-color="#ffffff" stop-opacity="0"/></radialGradient><radialGradient cx="225.86246" cy="150.45541" r="1.19981" gradientUnits="userSpaceOnUse" id="color-33"><stop offset="0" stop-color="#ffffff"/><stop offset="1" stop-color="#ffffff" stop-opacity="0"/></radialGradient><radialGradient cx="238.9467" cy="157.73779" r="1.10752" gradientUnits="userSpaceOnUse" id="color-34"><stop offset="0" stop-color="#dedede"/><stop offset="1" stop-color="#dedede" stop-opacity="0"/></radialGradient><radialGradient cx="235.20065" cy="149.84747" r="0.61302" gradientUnits="userSpaceOnUse" id="color-35"><stop offset="0" stop-color="#ffffff"/><stop offset="1" stop-color="#ffffff" stop-opacity="0"/></radialGradient><radialGradient cx="229.63598" cy="159.37848" r="0.61302" gradientUnits="userSpaceOnUse" id="color-36"><stop offset="0" stop-color="#ffffff"/><stop offset="1" stop-color="#ffffff" stop-opacity="0"/></radialGradient><radialGradient cx="243.71336" cy="154.96239" r="0.61302" gradientUnits="userSpaceOnUse" id="color-37"><stop offset="0" stop-color="#ffffff"/><stop offset="1" stop-color="#ffffff" stop-opacity="0"/></radialGradient><radialGradient cx="213.42255" cy="159.64639" r="0.61302" gradientUnits="userSpaceOnUse" id="color-38"><stop offset="0" stop-color="#ffffff"/><stop offset="1" stop-color="#ffffff" stop-opacity="0"/></radialGradient><radialGradient cx="243.39027" cy="87.84629" r="41.39732" gradientUnits="userSpaceOnUse" id="color-39"><stop offset="0" stop-color="#ffb3b7"/><stop offset="1" stop-color="#ffb3b7" stop-opacity="0"/></radialGradient><linearGradient x1="237.16669" y1="89.30354" x2="312.57601" y2="104.51154" gradientUnits="userSpaceOnUse" id="color-40"><stop offset="0" stop-color="#fff6cb" stop-opacity="0"/><stop offset="1" stop-color="#fff6cb"/></linearGradient><radialGradient cx="279.80523" cy="108.46173" r="12.60991" gradientUnits="userSpaceOnUse" id="color-41"><stop offset="0" stop-color="#fff6cb"/><stop offset="1" stop-color="#fff6cb" stop-opacity="0"/></radialGradient><radialGradient cx="284.13283" cy="103.52774" r="11.50654" gradientUnits="userSpaceOnUse" id="color-42"><stop offset="0" stop-color="#ffb3b7"/><stop offset="1" stop-color="#ffb3b7" stop-opacity="0"/></radialGradient><radialGradient cx="279.32193" cy="108.91938" r="1.10752" gradientUnits="userSpaceOnUse" id="color-43"><stop offset="0" stop-color="#ffffff"/><stop offset="1" stop-color="#ffffff" stop-opacity="0"/></radialGradient><radialGradient cx="222.90204" cy="165.28676" r="46.56977" gradientUnits="userSpaceOnUse" id="color-44"><stop offset="0" stop-color="#ffb3b7"/><stop offset="1" stop-color="#ffb3b7" stop-opacity="0"/></radialGradient><radialGradient cx="236.47584" cy="90.49209" r="1.4971" gradientUnits="userSpaceOnUse" id="color-45"><stop offset="0" stop-color="#ffffff"/><stop offset="1" stop-color="#ffffff" stop-opacity="0"/></radialGradient><radialGradient cx="243.84564" cy="92.23494" r="1.10752" gradientUnits="userSpaceOnUse" id="color-46"><stop offset="0" stop-color="#dedede"/><stop offset="1" stop-color="#dedede" stop-opacity="0"/></radialGradient><radialGradient cx="232.44488" cy="94.82486" r="1.10751" gradientUnits="userSpaceOnUse" id="color-47"><stop offset="0" stop-color="#dedede"/><stop offset="1" stop-color="#dedede" stop-opacity="0"/></radialGradient><radialGradient cx="206.73957" cy="152.67528" r="1.10752" gradientUnits="userSpaceOnUse" id="color-48"><stop offset="0" stop-color="#fffdf7"/><stop offset="1" stop-color="#fffdf7" stop-opacity="0"/></radialGradient><radialGradient cx="198.516" cy="157.35623" r="1.10752" gradientUnits="userSpaceOnUse" id="color-49"><stop offset="0" stop-color="#dedede"/><stop offset="1" stop-color="#dedede" stop-opacity="0"/></radialGradient><radialGradient cx="195.79116" cy="152.52368" r="1.10752" gradientUnits="userSpaceOnUse" id="color-50"><stop offset="0" stop-color="#fffdf7"/><stop offset="1" stop-color="#fffdf7" stop-opacity="0"/></radialGradient></defs><g transform="translate(-166.88375,-53.08468)"><g data-paper-data="{&quot;isPaintingLayer&quot;:true}" fill-rule="nonzero" stroke-linecap="butt" stroke-linejoin="miter" stroke-miterlimit="10" stroke-dasharray="" stroke-dashoffset="0" style="mix-blend-mode: normal"><path d="M239.22757,173.22353c35.93227,0.53967 45.19097,4.16697 45.14132,6.78161c-0.05749,3.0285 -10.15627,7.30779 -46.08856,6.76812c-35.93229,-0.53967 -42.75237,-5.83296 -42.64827,-7.71326c0.09524,-1.71995 7.66322,-6.37615 43.5955,-5.83647z" data-paper-data="{&quot;index&quot;:null}" fill="url(#color-1)" stroke="none" stroke-width="0"/><text transform="translate(216.01958,206.60582) scale(0.357,0.357)" font-size="40" xml:space="preserve" fill="#ffffff" fill-rule="nonzero" stroke="#ffffff" stroke-width="0.5" stroke-linecap="butt" stroke-linejoin="miter" stroke-miterlimit="10" stroke-dasharray="" stroke-dashoffset="0" font-family="Handwriting" font-weight="normal" text-anchor="start" style="mix-blend-mode: normal"></text><text transform="translate(191.60958,66.19354) scale(0.34497,0.34497)" font-size="40" xml:space="preserve" fill="#ffffff" fill-rule="nonzero" stroke="#ffffff" stroke-width="1" stroke-linecap="butt" stroke-linejoin="miter" stroke-miterlimit="10" stroke-dasharray="" stroke-dashoffset="0" font-family="Handwriting" font-weight="normal" text-anchor="start" style="mix-blend-mode: normal"></text><g stroke="none" stroke-width="0"><path d="M299.27332,110.0484c0,9.95615 -8.36453,18.0272 -18.68273,18.0272c-10.31819,0 -18.68273,-8.07105 -18.68273,-18.0272c0,-9.95615 8.36454,-18.0272 18.68273,-18.0272c10.31819,0 18.68273,8.07105 18.68273,18.0272z" fill="url(#color-2)"/><path d="M196.28082,108.1345c13.59589,-21.004 41.45409,-28.32136 62.22304,-16.34381c20.76896,11.97755 26.58388,38.71439 12.98799,59.71839c-13.59589,21.004 -41.45409,28.32136 -62.22305,16.3438c-20.76896,-11.97755 -26.58388,-38.71438 -12.98799,-59.71838z" data-paper-data="{&quot;index&quot;:null}" fill="url(#color-3)"/><path d="M216.68855,118.58369c-2.49512,0.11835 -1.03001,6.9819 3.3424,14.15824c2.89937,4.75868 8.62016,3.07721 7.64142,2.65906c-3.69753,-1.5797 -7.34342,-12.05522 -3.259,-17.9015c1.52104,-2.17715 14.87193,-10.62148 26.35478,-6.48043c9.97422,3.59699 16.35071,17.4806 15.38871,23.28352c-0.15562,0.93866 -1.98095,30.13479 -26.12472,31.42971c-27.60173,1.48038 -72.27,-13.29741 -66.4485,-19.34009c2.25545,-3.59705 34.64659,4.66029 47.59992,5.60841c10.60716,0.77639 22.50289,1.94403 26.83538,-1.86764c0.91832,-0.80793 9.07099,-17.06768 9.37539,-17.78302c2.10442,-4.94541 -2.38499,-7.48617 -6.75089,-9.74302c-8.28372,-3.52981 -11.96356,-1.73204 -8.89029,-0.2137c1.1262,0.5564 10.24102,12.84262 6.47516,20.78807c-0.95823,2.02174 -13.15999,10.40568 -23.08978,7.90521c-2.85905,-0.71995 -6.93187,-3.19522 -10.59964,-5.86491c-1.04067,-0.75749 -11.89522,-15.56269 -10.55587,-26.86834c0.47564,-6.96124 1.94272,-13.72222 6.02636,-18.99456c6.43231,-8.30468 20.27463,-13.58537 31.34344,-12.53946c8.98985,1.37885 36.93425,6.37722 41.51751,11.21778c2.23487,2.36033 -0.84678,12.29014 -1.0147,12.43639c1.18577,2.65167 -29.59445,-7.07412 -41.432,-8.77043c-1.19554,-0.17132 -12.10456,1.05061 -16.69116,4.90269c-5.41397,4.54695 -4.66977,11.86535 -7.04394,11.97797z" data-paper-data="{&quot;index&quot;:null}" fill="url(#color-4)"/><path d="M209.16828,111.20376c8.29562,-13.57748 25.76829,-18.01751 39.02631,-9.91708c13.25802,8.10043 17.28082,25.67385 8.9852,39.25134c-8.29562,13.57748 -25.76829,18.01751 -39.0263,9.91708c-13.25801,-8.10043 -17.28083,-25.67385 -8.98521,-39.25133z" data-paper-data="{&quot;index&quot;:null}" fill="url(#color-5)"/><path d="M209.19117,132.82757c-11.91491,-5.67629 2.16988,-34.71696 11.36581,-39.54292c9.19593,-4.82596 29.08191,5.61629 32.41412,11.96587c3.33221,6.34958 -15.96088,2.47716 -25.15682,7.30312c-9.19594,4.82596 -12.14938,23.35802 -18.62311,20.27393z" data-paper-data="{&quot;index&quot;:null}" fill="url(#color-6)"/><path d="M237.08971,135.6926c-2.8926,0.86849 -6.99541,0.96267 -9.26599,-0.0074c-3.69752,-1.5797 -7.34343,-12.05522 -3.25901,-17.90149c1.52104,-2.17715 14.87195,-10.62147 26.35479,-6.48042c9.97422,3.597 16.3507,17.48059 15.3887,23.28351c-0.59798,3.60709 -5.88423,16.05763 -13.95451,21.66306c-4.78057,3.32047 -18.21519,8.29067 -29.27709,6.44581c-12.75856,-2.12783 -33.37002,-7.42647 -31.90722,-10.23391c1.29809,-2.49134 20.29371,5.35018 33.24704,6.2983c10.60717,0.7764 21.22244,-2.86722 25.55492,-6.67888c5.49379,-4.83335 9.65676,-13.15532 10.97126,-16.24442c2.10442,-4.94541 -5.15465,-14.73865 -9.52055,-16.9955c-8.28372,-3.5298 -16.48357,-0.14702 -18.90772,1.14499c-3.11123,1.65821 -3.88872,5.57792 -1.34635,5.38779c4.39586,-1.17497 5.87393,-2.20867 8.9472,-0.69032c1.12621,0.5564 9.77338,9.45743 6.00752,17.40287c-0.95823,2.02174 -10.64105,9.97232 -20.57084,7.47186c-6.1777,-1.55563 -13.96828,-11.17713 -16.01363,-16.9591c-3.51683,-9.94167 -4.28755,-20.19957 3.4039,-30.12991c6.43232,-8.30469 21.83798,-12.40373 26.60183,-11.67306c13.37341,2.05119 39.53973,18.87186 39.02748,19.31804c0.8619,1.92745 -13.25008,-5.42612 -25.56913,-10.23819c-4.62882,-1.80812 -9.00451,-3.2574 -12.23759,-3.7207c-4.9634,-0.71125 -17.39507,2.82541 -22.95337,9.54295c-5.96264,7.20621 -4.20603,19.00682 -2.62015,21.86815c2.5206,4.54783 5.17699,13.06568 9.60779,15.34367c6.49451,3.339 13.94594,-0.78996 14.8743,-1.94886c2.73007,-3.83022 -0.37608,-5.93164 -2.5836,-5.26885z" data-paper-data="{&quot;index&quot;:null}" fill="url(#color-7)"/><path d="M223.62952,145.39011c-9.28896,-5.67541 -12.2917,-17.68636 -6.70679,-26.82722c5.58491,-9.14086 17.64256,-11.95015 26.93153,-6.27474c9.28897,5.67541 12.29171,17.68636 6.7068,26.82721c-5.58491,9.14085 -17.64257,11.95014 -26.93154,6.27473z" data-paper-data="{&quot;index&quot;:null}" fill="url(#color-8)"/><path d="M226.19668,129.51163c-0.01817,-5.02845 3.54252,-9.24451 8.49369,-9.49839c4.95118,-0.25388 9.18404,4.1937 9.33354,9.06548c0.12907,4.20569 -3.79446,8.45541 -8.74563,8.70928c-4.95117,0.25387 -9.06402,-3.41078 -9.0816,-8.27638z" data-paper-data="{&quot;index&quot;:null}" fill="url(#color-9)"/><path d="M227.85277,125.99822c2.09287,-3.42541 6.49981,-4.54628 9.84316,-2.50355c3.34336,2.04274 4.3571,6.47556 2.26423,9.90097c-2.09287,3.42541 -6.49982,4.54628 -9.84318,2.50354c-3.34336,-2.04274 -4.35709,-6.47555 -2.26422,-9.90096z" data-paper-data="{&quot;index&quot;:null}" fill="url(#color-10)"/><path d="M228.48967,136.52524c-2.44311,-1.49269 -7.94187,-8.53071 -5.42337,-14.68632c2.56568,-6.27094 9.12652,-10.78979 15.21491,-12.2621c8.71243,-2.10685 16.46472,1.62425 22.27245,9.34991c2.26339,3.01085 -1.15778,9.2066 -2.52862,7.84278c-1.36778,-1.36077 -11.26168,-11.21743 -19.84851,-7.19372c-9.04524,4.23851 -6.8359,18.69132 -9.68686,16.94943z" data-paper-data="{&quot;index&quot;:null}" fill="url(#color-11)"/><path d="M262.33805,144.49131c-2.00047,4.44377 -8.2802,12.3993 -19.45764,16.59604c-10.58729,3.97515 -23.97845,0.13966 -24.44687,0.07305c-1.63481,-0.23246 -1.59509,-3.59767 -0.33145,-3.5601c2.08549,0.062 16.90875,0.71252 23.38617,-1.88591c7.92774,-3.18023 14.79979,-10.00257 17.33634,-13.7125c1.85595,-2.71451 4.44876,0.41176 3.51344,2.48943z" data-paper-data="{&quot;index&quot;:null}" fill="url(#color-12)"/><path d="M236.12909,115.93121c-0.14424,-0.06226 0.21231,-0.39096 0.10049,-0.77875c-0.12947,-0.44896 -1.43104,-1.17371 -1.27387,-1.38675c0.18245,-0.24729 1.23713,0.44615 1.76969,0.40618c0.33567,-0.02519 0.64534,-0.55559 0.73553,-0.48732c0.21656,0.16394 -0.0283,0.58953 0.06198,1.02933c0.08513,0.41466 1.01206,0.87273 0.84495,1.06244c-0.17494,0.19861 -0.98596,-0.29155 -1.40353,-0.18204c-0.42584,0.11168 -0.74993,0.37373 -0.83525,0.3369z" data-paper-data="{&quot;index&quot;:null}" fill="url(#color-13)"/><path d="M260.27356,123.23433c-0.12528,-0.05409 0.18442,-0.33958 0.08729,-0.67642c-0.11244,-0.38997 -0.98855,-0.86403 -0.85203,-1.04906c0.15847,-0.21479 0.82012,0.23207 1.28269,0.19734c0.29156,-0.02188 0.56055,-0.48259 0.63889,-0.42328c0.1881,0.14239 -0.02459,0.51206 0.05383,0.89407c0.07394,0.36019 0.7256,0.76413 0.58045,0.92892c-0.15195,0.17251 -0.70294,-0.25933 -1.06563,-0.1642c-0.36989,0.097 -0.65139,0.32462 -0.7255,0.29264z" data-paper-data="{&quot;index&quot;:null}" fill="url(#color-14)"/><path d="M239.18971,93.72446c-0.09268,-0.04001 0.13642,-0.2512 0.06457,-0.50039c-0.08318,-0.28849 -0.73129,-0.63919 -0.6303,-0.77607c0.11723,-0.1589 0.60671,0.17167 0.94891,0.14599c0.21569,-0.0162 0.41468,-0.35699 0.47263,-0.31313c0.13915,0.10533 -0.01819,0.3788 0.03983,0.66141c0.05469,0.26645 0.53678,0.56527 0.42941,0.68718c-0.11241,0.12762 -0.52001,-0.19183 -0.78833,-0.12147c-0.27364,0.07176 -0.48188,0.24015 -0.53671,0.21648z" data-paper-data="{&quot;index&quot;:null}" fill="url(#color-15)"/><path d="M258.38211,132.83725c-0.09267,-0.04002 0.13642,-0.25121 0.06457,-0.5004c-0.08319,-0.28849 -0.73129,-0.63919 -0.63031,-0.77607c0.11724,-0.1589 0.60671,0.17167 0.94891,0.14599c0.21569,-0.0162 0.41468,-0.35701 0.47263,-0.31314c0.13915,0.10534 -0.01819,0.37882 0.03983,0.66141c0.05471,0.26645 0.53678,0.56527 0.42941,0.68718c-0.11241,0.12761 -0.52,-0.19184 -0.78832,-0.12148c-0.27363,0.07175 -0.48189,0.24015 -0.53672,0.21648z" data-paper-data="{&quot;index&quot;:null}" fill="url(#color-16)"/><path d="M256.30715,146.67309c0.13611,-0.02015 0.28494,-0.25836 0.40688,-0.17846c0.16033,0.10506 -0.03247,0.30951 -0.02359,0.49201c0.00617,0.12695 0.25598,0.22712 0.17985,0.34329c-0.10174,0.15527 -0.31984,-0.02952 -0.48611,-0.00408c-0.13698,0.02096 -0.21931,0.27475 -0.34211,0.19429c-0.12779,-0.08374 0.08261,-0.25067 0.04961,-0.39118c-0.03719,-0.1584 -0.3042,-0.29406 -0.20587,-0.44411c0.10233,-0.15616 0.25401,0.01303 0.42134,-0.01175z" data-paper-data="{&quot;index&quot;:null}" fill="url(#color-17)"/><path d="M243.94608,118.22659c0.10233,-0.15617 0.25401,0.01303 0.42135,-0.01175c0.13611,-0.02016 0.28493,-0.25836 0.40687,-0.17846c0.16033,0.10505 -0.03248,0.30949 -0.0236,0.49199c0.00618,0.12695 0.25599,0.22713 0.17986,0.3433c-0.10174,0.15528 -0.31983,-0.02951 -0.48611,-0.00407c-0.13699,0.02096 -0.21931,0.27475 -0.34211,0.19428c-0.1278,-0.08375 0.08261,-0.25067 0.04961,-0.39118c-0.03718,-0.15841 -0.30419,-0.29406 -0.20587,-0.44411z" data-paper-data="{&quot;index&quot;:null}" fill="url(#color-18)"/><path d="M254.3666,138.92053c0.13611,-0.02015 0.28494,-0.25837 0.40688,-0.17847c0.16033,0.10506 -0.03248,0.3095 -0.02359,0.492c0.00618,0.12695 0.25598,0.22712 0.17985,0.34329c-0.10174,0.15527 -0.31983,-0.02951 -0.48611,-0.00407c-0.13699,0.02096 -0.21931,0.27475 -0.34211,0.19428c-0.1278,-0.08375 0.08261,-0.25066 0.04961,-0.39118c-0.03719,-0.1584 -0.3042,-0.29407 -0.20588,-0.44413c0.10233,-0.15617 0.25401,0.01304 0.42134,-0.01174z" data-paper-data="{&quot;index&quot;:null}" fill="url(#color-19)"/><path d="M252.67412,113.81797c0.10233,-0.15617 0.25401,0.01304 0.42135,-0.01174c0.13611,-0.02016 0.28494,-0.25836 0.40688,-0.17847c0.16032,0.10505 -0.03249,0.30949 -0.0236,0.492c0.00618,0.12695 0.25598,0.22713 0.17985,0.34329c-0.10174,0.15528 -0.31984,-0.02952 -0.48612,-0.00408c-0.13699,0.02096 -0.2193,0.27476 -0.34211,0.19429c-0.1278,-0.08374 0.08261,-0.25066 0.04962,-0.39118c-0.03719,-0.15841 -0.3042,-0.29407 -0.20588,-0.44412z" data-paper-data="{&quot;index&quot;:null}" fill="url(#color-20)"/><path d="M278.77958,108.87318c-0.11246,-0.38998 -0.98855,-0.86403 -0.85203,-1.04906c0.15848,-0.21479 0.82013,0.23207 1.2827,0.19735c0.29156,-0.02188 0.56054,-0.48259 0.63888,-0.42328c0.18809,0.14239 -0.0246,0.51205 0.05383,0.89406c0.07394,0.36019 0.72561,0.76413 0.58046,0.92892c-0.15194,0.17251 -0.70292,-0.25932 -1.06563,-0.1642c-0.36989,0.09701 -0.65139,0.32461 -0.7255,0.29263c-0.12529,-0.05407 0.18441,-0.33958 0.08728,-0.67641z" data-paper-data="{&quot;index&quot;:null}" fill="url(#color-21)"/><path d="M209.92649,133.45251c-0.14424,-0.06226 0.21231,-0.39095 0.10048,-0.77874c-0.12947,-0.44897 -1.43104,-1.17373 -1.27387,-1.38676c0.18245,-0.24728 1.23713,0.44617 1.76969,0.40619c0.33567,-0.02519 0.64535,-0.5556 0.73555,-0.48732c0.21657,0.16393 -0.02829,0.58954 0.06199,1.02933c0.08513,0.41467 1.01206,0.87273 0.84494,1.06246c-0.17494,0.19861 -0.98596,-0.29156 -1.40352,-0.18206c-0.42585,0.11168 -0.74994,0.37375 -0.83526,0.33691z" data-paper-data="{&quot;index&quot;:null}" fill="url(#color-22)"/><path d="M274.03756,105.30774c-0.12529,-0.05407 0.18441,-0.33959 0.08729,-0.67642c-0.11244,-0.38997 -0.98855,-0.86403 -0.85203,-1.04906c0.15848,-0.21479 0.82013,0.23207 1.2827,0.19735c0.29156,-0.02188 0.56054,-0.48259 0.63889,-0.42329c0.1881,0.14239 -0.02459,0.51206 0.05383,0.89407c0.07394,0.36019 0.7256,0.76413 0.58045,0.92892c-0.15195,0.17251 -0.70293,-0.25932 -1.06563,-0.1642c-0.36989,0.09701 -0.65139,0.32463 -0.7255,0.29264z" data-paper-data="{&quot;index&quot;:null}" fill="url(#color-23)"/><path d="M218.50541,102.75813c-0.09268,-0.04 0.13643,-0.25122 0.06457,-0.5004c-0.08318,-0.28849 -0.7313,-0.63918 -0.6303,-0.77606c0.11723,-0.1589 0.60669,0.17168 0.9489,0.14599c0.21569,-0.01618 0.41468,-0.35699 0.47263,-0.31312c0.13915,0.10534 -0.01818,0.37881 0.03983,0.66141c0.05469,0.26645 0.53679,0.56528 0.4294,0.68718c-0.11241,0.12762 -0.52002,-0.19184 -0.78832,-0.12147c-0.27363,0.07175 -0.48189,0.24015 -0.53671,0.21648z" data-paper-data="{&quot;index&quot;:null}" fill="url(#color-24)"/><path d="M206.31401,120.14098c-0.09268,-0.04 0.13643,-0.25121 0.06457,-0.50038c-0.08318,-0.28849 -0.73131,-0.63919 -0.63031,-0.77607c0.11723,-0.1589 0.6067,0.17168 0.9489,0.14599c0.21569,-0.01619 0.41468,-0.357 0.47263,-0.31314c0.13915,0.10534 -0.01818,0.37882 0.03983,0.66141c0.0547,0.26644 0.53678,0.56528 0.42939,0.68718c-0.11241,0.12762 -0.52001,-0.19185 -0.78831,-0.12148c-0.27364,0.07176 -0.48188,0.24016 -0.53671,0.21649z" data-paper-data="{&quot;index&quot;:null}" fill="url(#color-25)"/><path d="M210.40406,110.4431c0.10233,-0.15615 0.25401,0.01305 0.42133,-0.01174c0.13611,-0.02016 0.28493,-0.25837 0.40687,-0.17847c0.16032,0.10505 -0.03249,0.30951 -0.0236,0.49201c0.00617,0.12694 0.25598,0.22711 0.17986,0.34329c-0.10174,0.15528 -0.31983,-0.02953 -0.48611,-0.00408c-0.13699,0.02096 -0.2193,0.27476 -0.34211,0.19429c-0.1278,-0.08374 0.08261,-0.25067 0.04961,-0.39118c-0.03719,-0.15841 -0.3042,-0.29406 -0.20586,-0.44411z" data-paper-data="{&quot;index&quot;:null}" fill="url(#color-26)"/><path d="M217.08288,140.97967c0.10233,-0.15616 0.25402,0.01305 0.42135,-0.01173c0.13612,-0.02015 0.28494,-0.25837 0.40688,-0.17847c0.16033,0.10505 -0.03248,0.30951 -0.02359,0.492c0.00618,0.12695 0.25597,0.22711 0.17985,0.34329c-0.10174,0.15527 -0.31982,-0.02953 -0.4861,-0.00408c-0.13698,0.02095 -0.21931,0.27474 -0.34211,0.19429c-0.12779,-0.08374 0.08262,-0.25066 0.04962,-0.39118c-0.03719,-0.15841 -0.30421,-0.29406 -0.20587,-0.44412z" data-paper-data="{&quot;index&quot;:null}" fill="url(#color-27)"/><path d="M223.47526,107.63593c0.10233,-0.15617 0.25402,0.01304 0.42135,-0.01174c0.13611,-0.02016 0.28494,-0.25837 0.40688,-0.17847c0.16033,0.10506 -0.03248,0.3095 -0.0236,0.492c0.00618,0.12695 0.25597,0.22711 0.17985,0.34329c-0.10174,0.15527 -0.31984,-0.02952 -0.48611,-0.00408c-0.13698,0.02096 -0.2193,0.27475 -0.3421,0.19428c-0.1278,-0.08375 0.08261,-0.25066 0.04961,-0.39117c-0.03719,-0.15841 -0.30421,-0.29406 -0.20587,-0.44411z" data-paper-data="{&quot;index&quot;:null}" fill="url(#color-28)"/><path d="M213.04342,119.19014c0.10233,-0.15617 0.25401,0.01304 0.42134,-0.01174c0.13611,-0.02016 0.28493,-0.25836 0.40687,-0.17846c0.16034,0.10506 -0.03247,0.30951 -0.02358,0.49201c0.00618,0.12694 0.25598,0.22711 0.17986,0.34328c-0.10174,0.15527 -0.31983,-0.02952 -0.48611,-0.00407c-0.13698,0.02096 -0.2193,0.27475 -0.34211,0.19428c-0.1278,-0.08375 0.08261,-0.25067 0.04961,-0.39118c-0.03719,-0.15841 -0.3042,-0.29405 -0.20587,-0.4441z" data-paper-data="{&quot;index&quot;:null}" fill="url(#color-29)"/><path d="M273.10436,113.36965c-0.12529,-0.05407 0.18442,-0.33958 0.08729,-0.67642c-0.11246,-0.38997 -0.98856,-0.86403 -0.85204,-1.04906c0.15848,-0.21479 0.82013,0.23206 1.2827,0.19734c0.29157,-0.02188 0.56054,-0.48259 0.63889,-0.42329c0.1881,0.14239 -0.02459,0.51206 0.05383,0.89407c0.07394,0.36019 0.7256,0.76413 0.58045,0.92892c-0.15194,0.17251 -0.70292,-0.25931 -1.06561,-0.16419c-0.36989,0.09701 -0.65139,0.32462 -0.7255,0.29263z" data-paper-data="{&quot;index&quot;:null}" fill="url(#color-30)"/><path d="M231.92414,148.02498c-0.12947,-0.44897 -1.43104,-1.17371 -1.27387,-1.38675c0.18246,-0.24728 1.23713,0.44615 1.7697,0.40618c0.33567,-0.02519 0.64535,-0.55559 0.73554,-0.48732c0.21656,0.16394 -0.0283,0.58954 0.06198,1.02934c0.08512,0.41467 1.01206,0.87274 0.84495,1.06246c-0.17493,0.1986 -0.98595,-0.29157 -1.40352,-0.18206c-0.42585,0.11167 -0.74994,0.37374 -0.83527,0.33691c-0.14424,-0.06226 0.21231,-0.39096 0.10048,-0.77875z" data-paper-data="{&quot;index&quot;:null}" fill="url(#color-31)"/><path d="M247.6704,157.23603c-0.12528,-0.05408 0.18442,-0.33958 0.08728,-0.67642c-0.11245,-0.38997 -0.98854,-0.86403 -0.85202,-1.04906c0.15848,-0.2148 0.82013,0.23207 1.2827,0.19735c0.29156,-0.02188 0.56054,-0.48259 0.63888,-0.42329c0.1881,0.14239 -0.02459,0.51206 0.05384,0.89407c0.07395,0.36019 0.72561,0.76413 0.58046,0.92892c-0.15194,0.17251 -0.70292,-0.25931 -1.06562,-0.1642c-0.36989,0.09701 -0.6514,0.32462 -0.7255,0.29263z" data-paper-data="{&quot;index&quot;:null}" fill="url(#color-32)"/><path d="M225.44715,151.18163c-0.10041,-0.04334 0.1478,-0.27214 0.06995,-0.54208c-0.09013,-0.31253 -0.79225,-0.69245 -0.68284,-0.84074c0.127,-0.17214 0.65726,0.18599 1.02799,0.15816c0.23367,-0.01754 0.44923,-0.38676 0.51201,-0.33924c0.15075,0.11412 -0.0197,0.41039 0.04315,0.71653c0.05926,0.28865 0.58151,0.61238 0.46519,0.74445c-0.12177,0.13825 -0.56334,-0.20783 -0.85401,-0.1316c-0.29644,0.07774 -0.52203,0.26017 -0.58143,0.23453z" data-paper-data="{&quot;index&quot;:null}" fill="url(#color-33)"/><path d="M238.62791,157.90776c-0.08319,-0.28849 -0.7313,-0.63919 -0.63031,-0.77607c0.11723,-0.1589 0.60669,0.17168 0.9489,0.146c0.21569,-0.0162 0.41469,-0.35701 0.47263,-0.31314c0.13915,0.10533 -0.01818,0.37882 0.03983,0.66141c0.0547,0.26646 0.53678,0.56528 0.42941,0.68718c-0.1124,0.12762 -0.52,-0.19182 -0.78832,-0.12147c-0.27363,0.07175 -0.48188,0.24015 -0.5367,0.21648c-0.09268,-0.04002 0.13643,-0.25122 0.06457,-0.50039z" data-paper-data="{&quot;index&quot;:null}" fill="url(#color-34)"/><path d="M235.12977,149.51319c0.13611,-0.02015 0.28493,-0.25837 0.40687,-0.17847c0.16033,0.10506 -0.03248,0.30951 -0.02359,0.49201c0.00617,0.12694 0.25598,0.22712 0.17985,0.34329c-0.10174,0.15527 -0.31982,-0.02954 -0.48611,-0.00409c-0.13698,0.02095 -0.2193,0.27475 -0.34211,0.19429c-0.1278,-0.08375 0.08261,-0.25067 0.04962,-0.39118c-0.03719,-0.1584 -0.30421,-0.29404 -0.20588,-0.44411c0.10233,-0.15616 0.25402,0.01304 0.42135,-0.01174z" data-paper-data="{&quot;index&quot;:null}" fill="url(#color-35)"/><path d="M229.14375,159.05592c0.10232,-0.15616 0.25401,0.01305 0.42134,-0.01173c0.13611,-0.02015 0.28494,-0.25836 0.40688,-0.17846c0.16033,0.10505 -0.03248,0.30951 -0.02359,0.492c0.00618,0.12694 0.25598,0.22711 0.17985,0.34329c-0.10174,0.15528 -0.31982,-0.02952 -0.48611,-0.00406c-0.13699,0.02096 -0.2193,0.27474 -0.34211,0.19428c-0.1278,-0.08375 0.0826,-0.25066 0.04961,-0.39118c-0.03719,-0.1584 -0.3042,-0.29405 -0.20587,-0.44412z" data-paper-data="{&quot;index&quot;:null}" fill="url(#color-36)"/><path d="M243.22113,154.63984c0.10233,-0.15616 0.25402,0.01304 0.42135,-0.01174c0.13611,-0.02015 0.28493,-0.25836 0.40687,-0.17846c0.16033,0.10506 -0.03248,0.30951 -0.02359,0.492c0.00618,0.12695 0.25598,0.22712 0.17985,0.34329c-0.10174,0.15527 -0.31982,-0.02953 -0.48611,-0.00408c-0.13699,0.02096 -0.21931,0.27474 -0.34211,0.19429c-0.1278,-0.08374 0.0826,-0.25066 0.04961,-0.39117c-0.03719,-0.1584 -0.3042,-0.29405 -0.20587,-0.44412z" data-paper-data="{&quot;index&quot;:null}" fill="url(#color-37)"/><path d="M212.93033,159.32383c0.10233,-0.15616 0.25402,0.01305 0.42135,-0.01173c0.13611,-0.02015 0.28492,-0.25837 0.40686,-0.17847c0.16033,0.10506 -0.03249,0.30951 -0.0236,0.49201c0.00618,0.12694 0.25599,0.22711 0.17986,0.34328c-0.10174,0.15527 -0.31982,-0.02952 -0.48611,-0.00407c-0.13699,0.02096 -0.2193,0.27474 -0.34211,0.19428c-0.12779,-0.08374 0.08262,-0.25066 0.04962,-0.39118c-0.03719,-0.1584 -0.30421,-0.29404 -0.20588,-0.44411z" data-paper-data="{&quot;index&quot;:null}" fill="url(#color-38)"/><path d="M293.11242,107.45983c-0.48284,0.88393 -23.19829,-6.97996 -42.46349,-10.12796c-2.61187,-0.42679 -5.16032,-0.7669 -7.58136,-0.98678c-23.11629,-2.09942 -29.91474,17.913 -26.88551,30.58592c0.20618,0.86257 -10.5848,-2.60142 -10.32257,-4.16726c1.59146,-9.50364 5.42345,-32.00354 29.3815,-33.26453c22.82641,-1.20143 59.82368,14.3866 57.87144,17.96061z" fill="url(#color-39)"/><path d="M284.55183,103.56579c-0.34554,0.79981 -2.99332,-1.43729 -23.81703,-5.63686c-20.82371,-4.19957 -36.46041,-2.20955 -36.90713,-2.95092c-1.20462,-1.9992 13.08873,-6.4439 33.91244,-2.24433c20.82371,4.19957 28.22021,7.57193 26.81171,10.83212z" fill="url(#color-40)"/><path d="M284.34689,100.11243c6.41851,2.70253 8.03935,6.09015 5.33682,12.50866c-2.70253,6.41851 -7.54286,7.42767 -13.96137,4.72514c-6.41851,-2.70253 -7.91702,-6.38069 -5.21449,-12.7992c2.70253,-6.41851 7.42054,-7.13714 13.83905,-4.43461z" fill="url(#color-41)"/><path d="M291.8564,106.99547c0,5.83257 -1.36869,7.09307 -7.72357,7.09307c-6.35489,0 -11.50655,-4.72823 -11.50655,-10.5608c0,-5.83257 2.31443,-4.88634 8.66931,-4.88634c6.35489,0 10.56081,2.52149 10.56081,8.35406z" fill="url(#color-42)"/><path d="M278.93857,109.58974c-0.09269,-0.04001 0.13642,-0.25122 0.06456,-0.50039c-0.08319,-0.28849 -0.7313,-0.63918 -0.6303,-0.77607c0.11723,-0.1589 0.6067,0.17167 0.9489,0.14599c0.21569,-0.0162 0.41469,-0.35701 0.47263,-0.31314c0.13916,0.10533 -0.01819,0.37881 0.03983,0.66141c0.05471,0.26645 0.53679,0.56528 0.42941,0.68718c-0.1124,0.12762 -0.52002,-0.19183 -0.78832,-0.12147c-0.27363,0.07175 -0.48188,0.24015 -0.5367,0.21649z" data-paper-data="{&quot;index&quot;:null}" fill="url(#color-43)"/><path d="M166.96727,145.67322c0.54316,-0.88393 26.09684,6.97995 47.76916,10.12796c2.93822,0.42679 5.80509,0.76691 8.52863,0.98678c26.00458,2.09942 34.96769,-16.74388 31.55997,-29.41679c-0.23194,-0.86257 10.59212,1.43228 10.29714,2.99813c-1.57362,8.35338 -5.09452,26.74745 -24.22585,31.93398c-2.63438,0.71418 -5.56473,1.17793 -8.82676,1.33056c-25.67848,1.20143 -67.29845,-14.38661 -65.10228,-17.96061z" data-paper-data="{&quot;index&quot;:null}" fill="url(#color-44)"/><path d="M236.04492,90.72185c-0.11245,-0.38997 -0.98855,-0.86403 -0.85203,-1.04906c0.15847,-0.21479 0.82013,0.23206 1.2827,0.19734c0.29156,-0.02188 0.56055,-0.48259 0.63889,-0.42328c0.1881,0.14239 -0.0246,0.51205 0.05383,0.89406c0.07394,0.36019 0.72561,0.76412 0.58046,0.92891c-0.15195,0.17251 -0.70292,-0.25932 -1.06563,-0.1642c-0.36989,0.09701 -0.65139,0.32462 -0.7255,0.29264c-0.12528,-0.05407 0.18442,-0.33958 0.08729,-0.67641z" data-paper-data="{&quot;index&quot;:null}" fill="url(#color-45)"/><path d="M243.46228,92.9053c-0.09268,-0.04 0.13642,-0.2512 0.06457,-0.50038c-0.08318,-0.28849 -0.73129,-0.63918 -0.63031,-0.77607c0.11723,-0.15889 0.6067,0.17167 0.9489,0.14599c0.21569,-0.0162 0.41468,-0.357 0.47263,-0.31314c0.13915,0.10533 -0.01818,0.37881 0.03983,0.6614c0.0547,0.26644 0.53678,0.56527 0.42941,0.68718c-0.11241,0.12762 -0.52002,-0.19183 -0.78833,-0.12147c-0.27363,0.07175 -0.48187,0.24014 -0.5367,0.21647z" data-paper-data="{&quot;index&quot;:null}" fill="url(#color-46)"/><path d="M232.06152,95.49522c-0.09268,-0.04 0.13641,-0.2512 0.06456,-0.50039c-0.08318,-0.28849 -0.73129,-0.63918 -0.6303,-0.77607c0.11724,-0.1589 0.60671,0.17167 0.9489,0.14599c0.2157,-0.01619 0.41469,-0.35701 0.47264,-0.31314c0.13916,0.10534 -0.01818,0.37883 0.03983,0.66142c0.0547,0.26644 0.53678,0.56526 0.4294,0.68717c-0.11241,0.12762 -0.52,-0.19183 -0.78832,-0.12147c-0.27363,0.07175 -0.48188,0.24014 -0.53671,0.21647z" data-paper-data="{&quot;index&quot;:null}" fill="url(#color-47)"/><path d="M206.42077,152.84526c-0.08318,-0.28849 -0.73129,-0.63918 -0.6303,-0.77607c0.11724,-0.1589 0.6067,0.17167 0.9489,0.14599c0.21569,-0.0162 0.41469,-0.357 0.47263,-0.31313c0.13915,0.10533 -0.01818,0.37881 0.03983,0.6614c0.0547,0.26646 0.53678,0.56528 0.4294,0.68718c-0.11241,0.12761 -0.52001,-0.19182 -0.78832,-0.12147c-0.27363,0.07175 -0.48188,0.24015 -0.5367,0.21649c-0.09269,-0.04001 0.13641,-0.25122 0.06455,-0.50039z" data-paper-data="{&quot;index&quot;:null}" fill="url(#color-48)"/><path d="M198.13263,158.02659c-0.09268,-0.04001 0.13643,-0.25122 0.06457,-0.50039c-0.08318,-0.2885 -0.73129,-0.63918 -0.6303,-0.77607c0.11723,-0.15889 0.6067,0.17168 0.9489,0.14599c0.21569,-0.01618 0.41469,-0.357 0.47263,-0.31313c0.13915,0.10533 -0.01819,0.37881 0.03982,0.6614c0.05471,0.26645 0.53679,0.56528 0.42942,0.68718c-0.1124,0.12761 -0.52002,-0.19182 -0.78833,-0.12147c-0.27364,0.07176 -0.48188,0.24014 -0.5367,0.21648z" data-paper-data="{&quot;index&quot;:null}" fill="url(#color-49)"/><path d="M195.40781,153.19404c-0.09269,-0.04001 0.13641,-0.25122 0.06456,-0.5004c-0.08318,-0.28849 -0.73131,-0.63919 -0.63031,-0.77606c0.11723,-0.1589 0.6067,0.17168 0.9489,0.14599c0.21569,-0.0162 0.41468,-0.357 0.47263,-0.31314c0.13915,0.10533 -0.01818,0.37881 0.03983,0.6614c0.05471,0.26645 0.53679,0.56528 0.42941,0.68719c-0.11241,0.12761 -0.52002,-0.19184 -0.78832,-0.12147c-0.27364,0.07176 -0.48188,0.24015 -0.5367,0.21649z" data-paper-data="{&quot;index&quot;:null}" fill="url(#color-50)"/></g></g></g></svg>