<svg version="1.1" xmlns="http://www.w3.org/2000/svg" xmlns:xlink="http://www.w3.org/1999/xlink" width="131.62762" height="174.73839" viewBox="0,0,131.62762,174.73839"><defs><linearGradient x1="213.75649" y1="113.6395" x2="213.75649" y2="213.37666" gradientUnits="userSpaceOnUse" id="color-1"><stop offset="0" stop-color="#000000"/><stop offset="1" stop-color="#000000" stop-opacity="0"/></linearGradient><radialGradient cx="210.24664" cy="82.97179" r="19.52359" gradientUnits="userSpaceOnUse" id="color-2"><stop offset="0" stop-color="#b3dfff"/><stop offset="1" stop-color="#b3dfff" stop-opacity="0"/></radialGradient><radialGradient cx="210.71026" cy="82.65815" r="17.89917" gradientUnits="userSpaceOnUse" id="color-3"><stop offset="0" stop-color="#b3fffe"/><stop offset="1" stop-color="#b3fffe" stop-opacity="0"/></radialGradient><radialGradient cx="211.86067" cy="82.92425" r="12.62051" gradientUnits="userSpaceOnUse" id="color-4"><stop offset="0" stop-color="#af9c8b"/><stop offset="1" stop-color="#af9c8b" stop-opacity="0"/></radialGradient><radialGradient cx="216.08073" cy="79.80728" r="8.2375" gradientUnits="userSpaceOnUse" id="color-5"><stop offset="0" stop-color="#ffffff"/><stop offset="1" stop-color="#ffffff" stop-opacity="0"/></radialGradient><radialGradient cx="211.11885" cy="84.16308" r="22.74901" gradientUnits="userSpaceOnUse" id="color-6"><stop offset="0" stop-color="#e07641"/><stop offset="1" stop-color="#e07641" stop-opacity="0"/></radialGradient><radialGradient cx="210.69206" cy="83.55567" r="8.49659" gradientUnits="userSpaceOnUse" id="color-7"><stop offset="0" stop-color="#ffe9cf"/><stop offset="1" stop-color="#ffe9cf" stop-opacity="0"/></radialGradient><radialGradient cx="211.47194" cy="83.40542" r="4.3071" gradientUnits="userSpaceOnUse" id="color-8"><stop offset="0" stop-color="#fffcca"/><stop offset="1" stop-color="#fffcca" stop-opacity="0"/></radialGradient><radialGradient cx="211.11456" cy="83.4778" r="3.40202" gradientUnits="userSpaceOnUse" id="color-9"><stop offset="0" stop-color="#ffffff"/><stop offset="1" stop-color="#ffffff" stop-opacity="0"/></radialGradient><radialGradient cx="216.8799" cy="83.86549" r="8.39126" gradientUnits="userSpaceOnUse" id="color-10"><stop offset="0" stop-color="#ffffff"/><stop offset="1" stop-color="#ffffff" stop-opacity="0"/></radialGradient><radialGradient cx="199.29134" cy="88.65109" r="8.18682" gradientUnits="userSpaceOnUse" id="color-11"><stop offset="0" stop-color="#ffffff"/><stop offset="1" stop-color="#ffffff" stop-opacity="0"/></radialGradient><radialGradient cx="209.11315" cy="78.71537" r="8.2375" gradientUnits="userSpaceOnUse" id="color-12"><stop offset="0" stop-color="#ffffff"/><stop offset="1" stop-color="#ffffff" stop-opacity="0"/></radialGradient><radialGradient cx="220.73627" cy="83.59455" r="0.65583" gradientUnits="userSpaceOnUse" id="color-13"><stop offset="0" stop-color="#ffffff"/><stop offset="1" stop-color="#ffffff" stop-opacity="0"/></radialGradient><radialGradient cx="197.23536" cy="80.16449" r="1.03949" gradientUnits="userSpaceOnUse" id="color-14"><stop offset="0" stop-color="#ffffff"/><stop offset="1" stop-color="#ffffff" stop-opacity="0"/></radialGradient><radialGradient cx="219.76891" cy="88.00247" r="0.65583" gradientUnits="userSpaceOnUse" id="color-15"><stop offset="0" stop-color="#ffffff"/><stop offset="1" stop-color="#ffffff" stop-opacity="0"/></radialGradient><radialGradient cx="222.39915" cy="85.74339" r="0.48516" gradientUnits="userSpaceOnUse" id="color-16"><stop offset="0" stop-color="#dedede"/><stop offset="1" stop-color="#dedede" stop-opacity="0"/></radialGradient><radialGradient cx="219.54186" cy="84.05632" r="0.48516" gradientUnits="userSpaceOnUse" id="color-17"><stop offset="0" stop-color="#ffffff"/><stop offset="1" stop-color="#ffffff" stop-opacity="0"/></radialGradient><radialGradient cx="215.62828" cy="88.80924" r="0.48516" gradientUnits="userSpaceOnUse" id="color-18"><stop offset="0" stop-color="#fffdf7"/><stop offset="1" stop-color="#fffdf7" stop-opacity="0"/></radialGradient><radialGradient cx="220.18636" cy="85.90628" r="0.48516" gradientUnits="userSpaceOnUse" id="color-19"><stop offset="0" stop-color="#dedede"/><stop offset="1" stop-color="#dedede" stop-opacity="0"/></radialGradient><radialGradient cx="209.53542" cy="90.16158" r="0.26854" gradientUnits="userSpaceOnUse" id="color-20"><stop offset="0" stop-color="#ffffff"/><stop offset="1" stop-color="#ffffff" stop-opacity="0"/></radialGradient><radialGradient cx="217.44654" cy="84.22426" r="0.26854" gradientUnits="userSpaceOnUse" id="color-21"><stop offset="0" stop-color="#ffffff"/><stop offset="1" stop-color="#ffffff" stop-opacity="0"/></radialGradient><radialGradient cx="211.99022" cy="88.80977" r="0.26854" gradientUnits="userSpaceOnUse" id="color-22"><stop offset="0" stop-color="#ffffff"/><stop offset="1" stop-color="#ffffff" stop-opacity="0"/></radialGradient><radialGradient cx="221.08797" cy="85.44594" r="0.26854" gradientUnits="userSpaceOnUse" id="color-23"><stop offset="0" stop-color="#ffffff"/><stop offset="1" stop-color="#ffffff" stop-opacity="0"/></radialGradient><radialGradient cx="203.77821" cy="76.06467" r="0.65583" gradientUnits="userSpaceOnUse" id="color-24"><stop offset="0" stop-color="#ffffff"/><stop offset="1" stop-color="#ffffff" stop-opacity="0"/></radialGradient><radialGradient cx="225.33207" cy="81.70402" r="1.0395" gradientUnits="userSpaceOnUse" id="color-25"><stop offset="0" stop-color="#ffffff"/><stop offset="1" stop-color="#ffffff" stop-opacity="0"/></radialGradient><radialGradient cx="202.2842" cy="75.96607" r="0.65583" gradientUnits="userSpaceOnUse" id="color-26"><stop offset="0" stop-color="#ffffff"/><stop offset="1" stop-color="#ffffff" stop-opacity="0"/></radialGradient><radialGradient cx="217.76465" cy="77.01556" r="0.48516" gradientUnits="userSpaceOnUse" id="color-27"><stop offset="0" stop-color="#dedede"/><stop offset="1" stop-color="#dedede" stop-opacity="0"/></radialGradient><radialGradient cx="208.48226" cy="76.69757" r="0.48516" gradientUnits="userSpaceOnUse" id="color-28"><stop offset="0" stop-color="#ffffff"/><stop offset="1" stop-color="#ffffff" stop-opacity="0"/></radialGradient><radialGradient cx="207.09658" cy="79.39689" r="0.48516" gradientUnits="userSpaceOnUse" id="color-29"><stop offset="0" stop-color="#fffdf7"/><stop offset="1" stop-color="#fffdf7" stop-opacity="0"/></radialGradient><radialGradient cx="202.175" cy="77.06438" r="0.48516" gradientUnits="userSpaceOnUse" id="color-30"><stop offset="0" stop-color="#dedede"/><stop offset="1" stop-color="#dedede" stop-opacity="0"/></radialGradient><radialGradient cx="212.69531" cy="76.47089" r="0.26854" gradientUnits="userSpaceOnUse" id="color-31"><stop offset="0" stop-color="#ffffff"/><stop offset="1" stop-color="#ffffff" stop-opacity="0"/></radialGradient><radialGradient cx="202.80573" cy="81.60022" r="0.26854" gradientUnits="userSpaceOnUse" id="color-32"><stop offset="0" stop-color="#ffffff"/><stop offset="1" stop-color="#ffffff" stop-opacity="0"/></radialGradient><radialGradient cx="216.73005" cy="78.76993" r="0.26854" gradientUnits="userSpaceOnUse" id="color-33"><stop offset="0" stop-color="#ffffff"/><stop offset="1" stop-color="#ffffff" stop-opacity="0"/></radialGradient><radialGradient cx="210.02836" cy="78.08719" r="0.26854" gradientUnits="userSpaceOnUse" id="color-34"><stop offset="0" stop-color="#ffffff"/><stop offset="1" stop-color="#ffffff" stop-opacity="0"/></radialGradient><radialGradient cx="221.18472" cy="80.04644" r="0.65583" gradientUnits="userSpaceOnUse" id="color-35"><stop offset="0" stop-color="#ffffff"/><stop offset="1" stop-color="#ffffff" stop-opacity="0"/></radialGradient><radialGradient cx="203.93786" cy="85.42414" r="1.03949" gradientUnits="userSpaceOnUse" id="color-36"><stop offset="0" stop-color="#ffffff"/><stop offset="1" stop-color="#ffffff" stop-opacity="0"/></radialGradient><radialGradient cx="204.18013" cy="89.65676" r="0.65583" gradientUnits="userSpaceOnUse" id="color-37"><stop offset="0" stop-color="#ffffff"/><stop offset="1" stop-color="#ffffff" stop-opacity="0"/></radialGradient><radialGradient cx="203.75581" cy="87.79699" r="0.48516" gradientUnits="userSpaceOnUse" id="color-38"><stop offset="0" stop-color="#dedede"/><stop offset="1" stop-color="#dedede" stop-opacity="0"/></radialGradient><radialGradient cx="201.27692" cy="84.41018" r="0.5256" gradientUnits="userSpaceOnUse" id="color-39"><stop offset="0" stop-color="#ffffff"/><stop offset="1" stop-color="#ffffff" stop-opacity="0"/></radialGradient><radialGradient cx="198.00731" cy="78.51623" r="0.48516" gradientUnits="userSpaceOnUse" id="color-40"><stop offset="0" stop-color="#fffdf7"/><stop offset="1" stop-color="#fffdf7" stop-opacity="0"/></radialGradient><radialGradient cx="201.54303" cy="87.95988" r="0.48516" gradientUnits="userSpaceOnUse" id="color-41"><stop offset="0" stop-color="#dedede"/><stop offset="1" stop-color="#dedede" stop-opacity="0"/></radialGradient><radialGradient cx="203.63696" cy="86.22551" r="0.26854" gradientUnits="userSpaceOnUse" id="color-42"><stop offset="0" stop-color="#ffffff"/><stop offset="1" stop-color="#ffffff" stop-opacity="0"/></radialGradient><radialGradient cx="198.8032" cy="86.27787" r="0.26854" gradientUnits="userSpaceOnUse" id="color-43"><stop offset="0" stop-color="#ffffff"/><stop offset="1" stop-color="#ffffff" stop-opacity="0"/></radialGradient><radialGradient cx="203.66919" cy="88.58159" r="0.26854" gradientUnits="userSpaceOnUse" id="color-44"><stop offset="0" stop-color="#ffffff"/><stop offset="1" stop-color="#ffffff" stop-opacity="0"/></radialGradient><radialGradient cx="202.44463" cy="87.49954" r="0.26854" gradientUnits="userSpaceOnUse" id="color-45"><stop offset="0" stop-color="#ffffff"/><stop offset="1" stop-color="#ffffff" stop-opacity="0"/></radialGradient><radialGradient cx="213.48564" cy="179.09683" r="17.68075" gradientUnits="userSpaceOnUse" id="color-46"><stop offset="0" stop-color="#b7b3ff"/><stop offset="1" stop-color="#b7b3ff" stop-opacity="0"/></radialGradient><radialGradient cx="213.14433" cy="179.06327" r="16.20966" gradientUnits="userSpaceOnUse" id="color-47"><stop offset="0" stop-color="#b3c8ff"/><stop offset="1" stop-color="#b3c8ff" stop-opacity="0"/></radialGradient><radialGradient cx="213.14433" cy="179.06327" r="16.20966" gradientUnits="userSpaceOnUse" id="color-48"><stop offset="0" stop-color="#b3c8ff"/><stop offset="1" stop-color="#b3c8ff" stop-opacity="0"/></radialGradient><radialGradient cx="213.14433" cy="179.06327" r="16.20966" gradientUnits="userSpaceOnUse" id="color-49"><stop offset="0" stop-color="#b3c8ff"/><stop offset="1" stop-color="#b3c8ff" stop-opacity="0"/></radialGradient><radialGradient cx="212.02969" cy="178.94509" r="11.42926" gradientUnits="userSpaceOnUse" id="color-50"><stop offset="0" stop-color="#af9c8b"/><stop offset="1" stop-color="#af9c8b" stop-opacity="0"/></radialGradient><radialGradient cx="208.4706" cy="173.55028" r="7.45996" gradientUnits="userSpaceOnUse" id="color-51"><stop offset="0" stop-color="#ffffff"/><stop offset="1" stop-color="#ffffff" stop-opacity="0"/></radialGradient><radialGradient cx="212.67252" cy="179.82068" r="14.5545" gradientUnits="userSpaceOnUse" id="color-52"><stop offset="0" stop-color="#ffb3b7"/><stop offset="1" stop-color="#ffb3b7" stop-opacity="0"/></radialGradient><radialGradient cx="212.67252" cy="179.82068" r="14.5545" gradientUnits="userSpaceOnUse" id="color-53"><stop offset="0" stop-color="#ffb3b7"/><stop offset="1" stop-color="#ffb3b7" stop-opacity="0"/></radialGradient><radialGradient cx="212.67252" cy="179.82068" r="14.5545" gradientUnits="userSpaceOnUse" id="color-54"><stop offset="0" stop-color="#ffb3b7"/><stop offset="1" stop-color="#ffb3b7" stop-opacity="0"/></radialGradient><radialGradient cx="223.96752" cy="189.89887" r="4.58309" gradientUnits="userSpaceOnUse" id="color-55"><stop offset="0" stop-color="#ffb3b7"/><stop offset="1" stop-color="#ffb3b7" stop-opacity="0"/></radialGradient><radialGradient cx="212.12006" cy="188.07025" r="4.68223" gradientUnits="userSpaceOnUse" id="color-56"><stop offset="0" stop-color="#ffb3b7"/><stop offset="1" stop-color="#ffb3b7" stop-opacity="0"/></radialGradient><radialGradient cx="222.81572" cy="170.74089" r="5.67891" gradientUnits="userSpaceOnUse" id="color-57"><stop offset="0" stop-color="#ffb3b7"/><stop offset="1" stop-color="#ffb3b7" stop-opacity="0"/></radialGradient><radialGradient cx="207.93547" cy="172.29566" r="3.97152" gradientUnits="userSpaceOnUse" id="color-58"><stop offset="0" stop-color="#ffb3b7"/><stop offset="1" stop-color="#ffb3b7" stop-opacity="0"/></radialGradient><radialGradient cx="212.63246" cy="179.65691" r="8.28147" gradientUnits="userSpaceOnUse" id="color-59"><stop offset="0" stop-color="#ffe9cf"/><stop offset="1" stop-color="#ffe9cf" stop-opacity="0"/></radialGradient><radialGradient cx="212.79743" cy="180.19549" r="4.99195" gradientUnits="userSpaceOnUse" id="color-60"><stop offset="0" stop-color="#fffcca"/><stop offset="1" stop-color="#fffcca" stop-opacity="0"/></radialGradient><radialGradient cx="212.37846" cy="180.09251" r="3.58337" gradientUnits="userSpaceOnUse" id="color-61"><stop offset="0" stop-color="#ffffff"/><stop offset="1" stop-color="#ffffff" stop-opacity="0"/></radialGradient><radialGradient cx="207.41191" cy="180.2921" r="7.5992" gradientUnits="userSpaceOnUse" id="color-62"><stop offset="0" stop-color="#ffffff"/><stop offset="1" stop-color="#ffffff" stop-opacity="0"/></radialGradient><radialGradient cx="222.92472" cy="189.07288" r="7.41406" gradientUnits="userSpaceOnUse" id="color-63"><stop offset="0" stop-color="#ffffff"/><stop offset="1" stop-color="#ffffff" stop-opacity="0"/></radialGradient><radialGradient cx="224.53692" cy="190.29319" r="4.76938" gradientUnits="userSpaceOnUse" id="color-64"><stop offset="0" stop-color="#ffffff"/><stop offset="1" stop-color="#ffffff" stop-opacity="0"/></radialGradient><radialGradient cx="219.4823" cy="174.09827" r="7.45996" gradientUnits="userSpaceOnUse" id="color-65"><stop offset="0" stop-color="#ffffff"/><stop offset="1" stop-color="#ffffff" stop-opacity="0"/></radialGradient><radialGradient cx="203.94624" cy="179.66676" r="0.59392" gradientUnits="userSpaceOnUse" id="color-66"><stop offset="0" stop-color="#ffffff"/><stop offset="1" stop-color="#ffffff" stop-opacity="0"/></radialGradient><radialGradient cx="207.24925" cy="177.5453" r="0.94137" gradientUnits="userSpaceOnUse" id="color-67"><stop offset="0" stop-color="#ffffff"/><stop offset="1" stop-color="#ffffff" stop-opacity="0"/></radialGradient><radialGradient cx="204.45644" cy="187.07183" r="0.59392" gradientUnits="userSpaceOnUse" id="color-68"><stop offset="0" stop-color="#ffffff"/><stop offset="1" stop-color="#ffffff" stop-opacity="0"/></radialGradient><radialGradient cx="202.26434" cy="183.18103" r="0.43937" gradientUnits="userSpaceOnUse" id="color-69"><stop offset="0" stop-color="#dedede"/><stop offset="1" stop-color="#dedede" stop-opacity="0"/></radialGradient><radialGradient cx="204.98837" cy="180.4915" r="0.43937" gradientUnits="userSpaceOnUse" id="color-70"><stop offset="0" stop-color="#ffffff"/><stop offset="1" stop-color="#ffffff" stop-opacity="0"/></radialGradient><radialGradient cx="208.13487" cy="188.6048" r="0.43937" gradientUnits="userSpaceOnUse" id="color-71"><stop offset="0" stop-color="#fffdf7"/><stop offset="1" stop-color="#fffdf7" stop-opacity="0"/></radialGradient><radialGradient cx="204.25232" cy="183.55225" r="0.43937" gradientUnits="userSpaceOnUse" id="color-72"><stop offset="0" stop-color="#dedede"/><stop offset="1" stop-color="#dedede" stop-opacity="0"/></radialGradient><radialGradient cx="213.53395" cy="191.13644" r="0.24319" gradientUnits="userSpaceOnUse" id="color-73"><stop offset="0" stop-color="#ffffff"/><stop offset="1" stop-color="#ffffff" stop-opacity="0"/></radialGradient><radialGradient cx="206.86969" cy="180.8659" r="0.2432" gradientUnits="userSpaceOnUse" id="color-74"><stop offset="0" stop-color="#ffffff"/><stop offset="1" stop-color="#ffffff" stop-opacity="0"/></radialGradient><radialGradient cx="211.42545" cy="188.76874" r="0.2432" gradientUnits="userSpaceOnUse" id="color-75"><stop offset="0" stop-color="#ffffff"/><stop offset="1" stop-color="#ffffff" stop-opacity="0"/></radialGradient><radialGradient cx="203.47491" cy="182.74302" r="0.2432" gradientUnits="userSpaceOnUse" id="color-76"><stop offset="0" stop-color="#ffffff"/><stop offset="1" stop-color="#ffffff" stop-opacity="0"/></radialGradient><radialGradient cx="219.90795" cy="167.85109" r="0.59392" gradientUnits="userSpaceOnUse" id="color-77"><stop offset="0" stop-color="#ffffff"/><stop offset="1" stop-color="#ffffff" stop-opacity="0"/></radialGradient><radialGradient cx="218.8461" cy="172.86719" r="0.94138" gradientUnits="userSpaceOnUse" id="color-78"><stop offset="0" stop-color="#ffffff"/><stop offset="1" stop-color="#ffffff" stop-opacity="0"/></radialGradient><radialGradient cx="221.26744" cy="167.75338" r="0.59392" gradientUnits="userSpaceOnUse" id="color-79"><stop offset="0" stop-color="#ffffff"/><stop offset="1" stop-color="#ffffff" stop-opacity="0"/></radialGradient><radialGradient cx="207.17852" cy="168.81234" r="0.43937" gradientUnits="userSpaceOnUse" id="color-80"><stop offset="0" stop-color="#dedede"/><stop offset="1" stop-color="#dedede" stop-opacity="0"/></radialGradient><radialGradient cx="215.60076" cy="168.69727" r="0.43937" gradientUnits="userSpaceOnUse" id="color-81"><stop offset="0" stop-color="#ffffff"/><stop offset="1" stop-color="#ffffff" stop-opacity="0"/></radialGradient><radialGradient cx="216.63072" cy="173.26753" r="0.43937" gradientUnits="userSpaceOnUse" id="color-82"><stop offset="0" stop-color="#fffdf7"/><stop offset="1" stop-color="#fffdf7" stop-opacity="0"/></radialGradient><radialGradient cx="221.27532" cy="169.59256" r="0.43937" gradientUnits="userSpaceOnUse" id="color-83"><stop offset="0" stop-color="#dedede"/><stop offset="1" stop-color="#dedede" stop-opacity="0"/></radialGradient><radialGradient cx="211.80882" cy="168.12987" r="0.2432" gradientUnits="userSpaceOnUse" id="color-84"><stop offset="0" stop-color="#ffffff"/><stop offset="1" stop-color="#ffffff" stop-opacity="0"/></radialGradient><radialGradient cx="220.32946" cy="177.13964" r="0.24319" gradientUnits="userSpaceOnUse" id="color-85"><stop offset="0" stop-color="#ffffff"/><stop offset="1" stop-color="#ffffff" stop-opacity="0"/></radialGradient><radialGradient cx="207.96913" cy="171.78868" r="0.24319" gradientUnits="userSpaceOnUse" id="color-86"><stop offset="0" stop-color="#ffffff"/><stop offset="1" stop-color="#ffffff" stop-opacity="0"/></radialGradient><radialGradient cx="214.08731" cy="170.94879" r="0.2432" gradientUnits="userSpaceOnUse" id="color-87"><stop offset="0" stop-color="#ffffff"/><stop offset="1" stop-color="#ffffff" stop-opacity="0"/></radialGradient><radialGradient cx="225.81941" cy="189.25051" r="0.59392" gradientUnits="userSpaceOnUse" id="color-88"><stop offset="0" stop-color="#ffffff"/><stop offset="1" stop-color="#ffffff" stop-opacity="0"/></radialGradient><radialGradient cx="218.98899" cy="183.47528" r="0.94137" gradientUnits="userSpaceOnUse" id="color-89"><stop offset="0" stop-color="#ffffff"/><stop offset="1" stop-color="#ffffff" stop-opacity="0"/></radialGradient><radialGradient cx="218.41959" cy="190.53336" r="0.59392" gradientUnits="userSpaceOnUse" id="color-90"><stop offset="0" stop-color="#ffffff"/><stop offset="1" stop-color="#ffffff" stop-opacity="0"/></radialGradient><radialGradient cx="218.95729" cy="187.44635" r="0.43937" gradientUnits="userSpaceOnUse" id="color-91"><stop offset="0" stop-color="#dedede"/><stop offset="1" stop-color="#dedede" stop-opacity="0"/></radialGradient><radialGradient cx="221.47973" cy="181.90112" r="0.47599" gradientUnits="userSpaceOnUse" id="color-92"><stop offset="0" stop-color="#ffffff"/><stop offset="1" stop-color="#ffffff" stop-opacity="0"/></radialGradient><radialGradient cx="223.26487" cy="191.64662" r="0.43937" gradientUnits="userSpaceOnUse" id="color-93"><stop offset="0" stop-color="#fffdf7"/><stop offset="1" stop-color="#fffdf7" stop-opacity="0"/></radialGradient><radialGradient cx="220.94527" cy="187.81757" r="0.43937" gradientUnits="userSpaceOnUse" id="color-94"><stop offset="0" stop-color="#dedede"/><stop offset="1" stop-color="#dedede" stop-opacity="0"/></radialGradient><radialGradient cx="219.19484" cy="184.82713" r="0.2432" gradientUnits="userSpaceOnUse" id="color-95"><stop offset="0" stop-color="#ffffff"/><stop offset="1" stop-color="#ffffff" stop-opacity="0"/></radialGradient><radialGradient cx="223.56264" cy="185.13122" r="0.24319" gradientUnits="userSpaceOnUse" id="color-96"><stop offset="0" stop-color="#ffffff"/><stop offset="1" stop-color="#ffffff" stop-opacity="0"/></radialGradient><radialGradient cx="218.97071" cy="188.76061" r="0.2432" gradientUnits="userSpaceOnUse" id="color-97"><stop offset="0" stop-color="#ffffff"/><stop offset="1" stop-color="#ffffff" stop-opacity="0"/></radialGradient><radialGradient cx="220.16786" cy="187.00834" r="0.2432" gradientUnits="userSpaceOnUse" id="color-98"><stop offset="0" stop-color="#ffffff"/><stop offset="1" stop-color="#ffffff" stop-opacity="0"/></radialGradient></defs><g transform="translate(-154.58293,-35.42813)"><g data-paper-data="{&quot;isPaintingLayer&quot;:true}" fill-rule="nonzero" stroke-linejoin="miter" stroke-miterlimit="10" stroke-dasharray="" stroke-dashoffset="0" style="mix-blend-mode: normal"><text transform="translate(200.29697,204.18678) scale(0.357,0.357)" font-size="40" xml:space="preserve" fill="#ffffff" fill-rule="nonzero" stroke="#ffffff" stroke-width="0.5" stroke-linecap="butt" stroke-linejoin="miter" stroke-miterlimit="10" stroke-dasharray="" stroke-dashoffset="0" font-family="Handwriting" font-weight="normal" text-anchor="start" style="mix-blend-mode: normal"></text><text transform="translate(154.75542,48.537) scale(0.34497,0.34497)" font-size="40" xml:space="preserve" fill="#ffffff" fill-rule="nonzero" stroke="#ffffff" stroke-width="1" stroke-linecap="butt" stroke-linejoin="miter" stroke-miterlimit="10" stroke-dasharray="" stroke-dashoffset="0" font-family="Handwriting" font-weight="normal" text-anchor="start" style="mix-blend-mode: normal"></text><path d="M231.87057,181.33792c0.0314,1.04921 -2.8249,3.94331 -17.7036,3.94331c-14.87869,0 -19.03281,-2.47044 -19.03778,-4.15942c-0.0043,-1.45818 3.8512,-3.40301 18.72989,-3.40301c14.87869,0 17.98275,2.65938 18.01149,3.61912z" fill="url(#color-1)" stroke="none" stroke-width="0" stroke-linecap="butt"/><path d="M246.00005,73.58708v106.41294" fill="none" stroke="#ff0000" stroke-width="1.5" stroke-linecap="round"/><path d="M242.9167,76.12977c0,0 1.80898,-3.57451 2.83552,-3.5417c0.9703,0.031 2.33115,4.1169 2.33115,4.1169" fill="none" stroke="#ff0000" stroke-width="1.5" stroke-linecap="round"/><g stroke="none" stroke-width="0" stroke-linecap="butt"><path d="M210.24664,73.10308c10.78258,0 19.52359,4.41837 19.52359,9.8687c0,5.45033 -8.74101,9.86871 -19.52359,9.86871c-10.78258,0 -19.52359,-4.41837 -19.52359,-9.86871c0,-5.45033 8.74101,-9.8687 19.52359,-9.8687z" fill="url(#color-2)"/><path d="M211.10942,78.20155c-0.61411,-0.4905 -2.84518,0.65509 -4.52916,2.42796c-1.11666,1.1756 0.81849,2.12579 0.75126,1.87592c-0.25398,-0.94397 2.82921,-2.97784 5.94749,-2.87409c1.16125,0.03864 7.36712,1.69702 8.44175,4.53395c0.93345,2.46421 -2.80008,5.47245 -5.18901,5.99548c-0.92334,0.20215 -8.08209,1.1881 -13.45333,1.17c-3.26703,-0.01101 -5.47458,-0.78882 -6.36562,-1.19837c-2.61117,-1.20016 -4.6287,-4.38905 -3.65051,-4.73636c1.22804,-0.43601 6.59296,2.77861 5.62062,1.9689c-0.95465,-0.79497 -1.9166,-1.65214 -2.53248,-2.47954c-0.95833,-1.28747 -1.86556,-4.76663 0.26756,-6.95091c2.58253,-2.64447 8.38316,-3.53576 9.14086,-3.2826c1.85976,0.01168 -9.49796,6.936 -6.89392,9.67568c2.13239,2.24346 5.39223,3.71365 7.8066,4.11929c0.51175,0.08598 -3.08018,-1.06177 -2.24637,-1.20774c2.99926,-0.52506 11.70432,-1.02815 12.46937,-0.52067c0.88018,0.58384 -1.77111,1.45367 -1.43418,1.42681c2.3293,-0.18568 3.9109,-1.78279 3.7574,-2.94583c-0.57246,-2.11366 -3.74213,-2.26231 -3.60779,-1.45232c0.04923,0.29682 -2.46176,3.66185 -6.29198,3.88226c-0.97461,0.05608 -6.89545,-1.37713 -8.22864,-3.69671c-0.38386,-0.66787 -0.38878,-1.79859 -0.22851,-2.87136c0.04548,-0.30438 6.41512,-5.2307 7.49475,-5.53528c2.71084,-0.76477 5.71136,-1.22926 8.61491,-1.05468c4.57351,0.27499 9.70873,4.00191 10.52364,5.05674c1.5378,1.99056 -0.44805,9.73689 -1.21073,11.26352c-0.37189,0.74441 -3.8561,1.36785 -3.94913,1.35194c-0.37095,0.2925 2.63686,-6.4642 0.02925,-10.02373c-2.45651,-3.35327 -10.53051,-3.50007 -11.0541,-3.91826z" fill="url(#color-3)"/><path d="M211.86067,76.25004c6.97012,0 12.62052,2.98815 12.62052,6.67421c0,3.68606 -5.6504,6.67421 -12.62052,6.67421c-6.97012,0 -12.62051,-2.98815 -12.62051,-6.67421c0,-3.68606 5.6504,-6.67421 12.62051,-6.67421z" fill="url(#color-4)"/><path d="M204.05882,78.85462c-0.59942,-3.1143 13.47326,-3.85498 17.37757,-2.5902c3.90431,1.26478 4.54269,6.58234 2.93019,8.04236c-1.6125,1.46001 -4.57136,-2.92488 -8.47567,-4.18966c-3.90431,-1.26478 -11.5064,0.4296 -11.83208,-1.2625z" fill="url(#color-5)"/><path d="M209.35969,84.85708c-0.98531,-0.47818 -1.95757,-1.29715 -2.11353,-1.87682c-0.25398,-0.94397 2.82921,-2.97784 5.94749,-2.87409c1.16125,0.03863 7.36712,1.69702 8.44175,4.53395c0.93345,2.46421 -2.80008,5.47245 -5.18901,5.99548c-1.48495,0.32511 -7.34648,0.79496 -11.28507,-0.14551c-2.33309,-0.55711 -7.25941,-2.66217 -9.09625,-5.12985c-0.0927,-0.12454 -0.5848,-1.13847 -0.66746,-1.48885c-0.39954,-1.6934 -0.07174,-4.05005 1.52533,-5.75428c2.40652,-2.568 7.36015,-3.70367 8.09477,-3.73081c0.70352,-0.02599 -3.80516,1.76025 -6.27335,4.53206c-1.83926,2.06552 -2.01401,5.05648 -0.90209,6.22632c2.13239,2.24346 5.91888,3.94183 8.33325,4.34747c3.06152,0.51436 7.12318,0.32778 8.57816,0.2118c2.3293,-0.18568 4.33222,-2.86664 4.17871,-4.02968c-0.57246,-2.11366 -3.70979,-3.35529 -4.74643,-3.68625c-1.33045,-0.42476 -2.97326,-0.09732 -2.32153,0.39387c1.44321,0.74461 2.1672,0.91598 2.30154,1.72598c0.04923,0.29683 -1.30313,3.14845 -5.13335,3.36885c-0.97461,0.05608 -6.15814,-0.92077 -7.49134,-3.24035c-0.82943,-1.4431 0.98789,-4.21043 2.68213,-5.3397c2.91311,-1.94171 6.57162,-3.36658 12.0404,-3.03777c4.57351,0.27499 8.65544,3.03216 9.47034,4.08698c0.94588,1.22437 2.34454,4.05298 1.73731,6.37644c-0.86139,3.29592 -5.14175,5.64207 -5.3082,5.61361c-0.44684,0.35234 2.98316,-2.43464 3.66772,-5.73149c0.41911,-2.01843 -0.39393,-4.22049 -1.17981,-5.21022c-0.86774,-1.09282 -4.70173,-3.45578 -8.48232,-3.75014c-4.05561,-0.31577 -8.06564,1.49952 -8.77304,2.17451c-1.12435,1.07283 -3.70174,2.66422 -3.54131,3.84302c0.23515,1.72783 3.48047,2.72565 4.12571,2.77025c2.05532,0.07893 2.13144,-0.80985 1.37949,-1.17477z" fill="url(#color-6)"/><path d="M202.74576,83.39232c0,-2.58257 3.80405,-4.67616 8.49659,-4.67616c4.69254,0 8.49659,2.09359 8.49659,4.67616c0,2.58257 -3.80405,4.67616 -8.49659,4.67616c-4.69253,0 -8.49659,-2.09359 -8.49659,-4.67616z" fill="url(#color-7)"/><path d="M207.85094,81.99201c0.87246,-1.02838 3.06513,-1.28823 5.13266,-0.50594c2.06753,0.78229 3.0189,2.40223 2.22751,3.4208c-0.68318,0.8793 -3.03,1.08489 -5.09753,0.30259c-2.06753,-0.78229 -3.10685,-2.22237 -2.26264,-3.21745z" fill="url(#color-8)"/><path d="M211.11456,81.38617c1.87889,0 3.40202,0.93646 3.40202,2.09163c0,1.15518 -1.52314,2.09163 -3.40202,2.09163c-1.87889,0 -3.40202,-0.93646 -3.40202,-2.09163c0,-1.15518 1.52314,-2.09163 3.40202,-2.09163z" fill="url(#color-9)"/><path d="M207.08425,83.21899c0,-0.67924 1.37502,-2.66303 4.25128,-2.91457c2.93015,-0.25625 6.11781,0.51303 8.05873,1.56352c2.77744,1.50323 3.15328,3.5342 1.59177,5.6656c-0.60855,0.83065 -3.70598,0.90441 -3.50926,0.45818c0.19628,-0.44523 1.62113,-3.66746 -1.84417,-4.90816c-3.65029,-1.30694 -8.54835,0.92807 -8.54835,0.13543z" fill="url(#color-10)"/><path d="M211.83719,91.05696c-2.11804,0.14467 -6.52618,-0.14261 -10.64783,-1.88638c-3.90404,-1.6517 -5.52874,-4.83717 -5.61082,-4.94024c-0.28648,-0.35972 0.98055,-0.76793 1.25512,-0.50746c0.45313,0.42988 3.59551,3.51132 6.04624,4.50126c2.99946,1.2116 7.11928,1.75897 9.08544,1.8136c1.4386,0.03997 0.86215,0.95159 -0.12813,1.01923z" fill="url(#color-11)"/><path d="M209.03693,85.29934c-5.77251,0.17504 -6.95704,-6.2476 -5.13387,-8.39411c1.10255,-1.29808 5.09216,-3.19924 8.30037,-3.19652c3.15095,0.00266 5.51833,1.8943 6.90856,2.27339c0.63982,0.17446 -2.06145,0.32744 -4.36556,1.18316c-1.54284,0.57299 -2.559,1.68134 -3.56955,2.50409c-2.51974,2.05147 -0.00185,5.511 -2.13995,5.63z" fill="url(#color-12)"/><path d="M220.55196,83.53572c0.12009,-0.071 0.09721,-0.30701 0.19756,-0.30226c0.11648,0.00551 0.10056,0.19474 0.21919,0.28409c0.07477,0.05632 0.30843,0.05379 0.30415,0.07699c-0.01027,0.05569 -0.19703,0.05836 -0.32192,0.12149c-0.11775,0.05952 -0.11992,0.24141 -0.21467,0.23241c-0.09919,-0.00942 -0.06361,-0.17438 -0.182,-0.23605c-0.12074,-0.06289 -0.27012,-0.09172 -0.27509,-0.11068c-0.0084,-0.03205 0.16906,-0.00467 0.27279,-0.066z" fill="url(#color-13)"/><path d="M196.55334,80.15308c-0.00967,-0.0369 0.19464,-0.00538 0.31406,-0.07598c0.13826,-0.08174 0.11191,-0.4349 0.22744,-0.42943c0.13411,0.00635 0.11578,0.30564 0.25235,0.40852c0.08608,0.06484 0.35508,0.06193 0.35016,0.08863c-0.01182,0.06412 -0.22684,0.06719 -0.37062,0.13987c-0.13556,0.06852 -0.09509,0.31284 -0.20418,0.30248c-0.1142,-0.01085 -0.1162,-0.23567 -0.25251,-0.30666c-0.13901,-0.0724 -0.31099,-0.1056 -0.31671,-0.12743z" fill="url(#color-14)"/><path d="M219.31181,88.00965c-0.0084,-0.03205 0.16906,-0.00467 0.27279,-0.066c0.12009,-0.071 0.09721,-0.30701 0.19756,-0.30226c0.11648,0.00551 0.10056,0.19474 0.21919,0.28409c0.07477,0.05632 0.30843,0.05379 0.30415,0.07699c-0.01027,0.05569 -0.19703,0.05836 -0.32192,0.12149c-0.11775,0.05952 -0.11992,0.24142 -0.21467,0.23242c-0.09919,-0.00942 -0.06361,-0.17439 -0.182,-0.23605c-0.12074,-0.06289 -0.27012,-0.09172 -0.27509,-0.11068z" fill="url(#color-15)"/><path d="M222.061,85.7487c-0.00621,-0.02371 0.12506,-0.00345 0.2018,-0.04882c0.08885,-0.05253 0.07192,-0.22711 0.14615,-0.2236c0.08617,0.00408 0.07439,0.14406 0.16215,0.21016c0.05532,0.04166 0.22816,0.03979 0.225,0.05695c-0.00759,0.0412 -0.14576,0.04318 -0.23815,0.08988c-0.08711,0.04403 -0.08871,0.17859 -0.15881,0.17193c-0.07338,-0.00697 -0.04706,-0.129 -0.13464,-0.17462c-0.08932,-0.04652 -0.19983,-0.06785 -0.2035,-0.08188z" fill="url(#color-16)"/><path d="M219.20372,84.06163c-0.00621,-0.02371 0.12506,-0.00345 0.2018,-0.04882c0.08884,-0.05253 0.07191,-0.22711 0.14615,-0.2236c0.08618,0.00408 0.0744,0.14406 0.16215,0.21016c0.05532,0.04166 0.22816,0.03979 0.225,0.05695c-0.00759,0.0412 -0.14576,0.04317 -0.23815,0.08988c-0.08711,0.04403 -0.08871,0.17859 -0.15881,0.17193c-0.07338,-0.00697 -0.04706,-0.129 -0.13464,-0.17462c-0.08932,-0.04652 -0.19983,-0.06785 -0.20351,-0.08188z" fill="url(#color-17)"/><path d="M215.29012,88.81454c-0.00621,-0.02371 0.12506,-0.00345 0.2018,-0.04882c0.08884,-0.05253 0.07191,-0.22711 0.14615,-0.2236c0.08618,0.00408 0.0744,0.14406 0.16215,0.21016c0.05532,0.04167 0.22816,0.03979 0.225,0.05695c-0.0076,0.0412 -0.14576,0.04318 -0.23815,0.08988c-0.08711,0.04403 -0.08871,0.17859 -0.15881,0.17193c-0.07338,-0.00697 -0.04705,-0.129 -0.13464,-0.17462c-0.08932,-0.04652 -0.19983,-0.06785 -0.2035,-0.08188z" fill="url(#color-18)"/><path d="M219.84821,85.91159c-0.00621,-0.02371 0.12506,-0.00345 0.2018,-0.04882c0.08884,-0.05253 0.07191,-0.22711 0.14615,-0.2236c0.08618,0.00408 0.0744,0.14406 0.16215,0.21016c0.05532,0.04167 0.22816,0.03979 0.225,0.05695c-0.0076,0.0412 -0.14576,0.04318 -0.23815,0.08988c-0.08711,0.04403 -0.08871,0.17859 -0.15881,0.17193c-0.07338,-0.00697 -0.04705,-0.129 -0.13464,-0.17462c-0.08932,-0.04652 -0.19983,-0.06785 -0.2035,-0.08188z" fill="url(#color-19)"/><path d="M209.64419,90.10588c0.03862,0.02506 0.16166,0.02573 0.15964,0.0603c-0.00266,0.04545 -0.12312,0.03171 -0.18931,0.05608c-0.04604,0.01695 -0.02644,0.07992 -0.08725,0.07887c-0.08128,-0.00139 -0.06202,-0.0684 -0.1095,-0.09892c-0.03912,-0.02514 -0.1528,-0.01042 -0.15076,-0.04523c0.00212,-0.03623 0.11257,-0.01428 0.15756,-0.03834c0.05072,-0.02712 0.04045,-0.09796 0.119,-0.09661c0.08175,0.0014 0.05314,0.05304 0.10062,0.08385z" fill="url(#color-20)"/><path d="M217.45468,84.08471c0.08175,0.0014 0.05314,0.05304 0.10062,0.08385c0.03862,0.02506 0.16166,0.02573 0.15964,0.0603c-0.00265,0.04545 -0.12311,0.03171 -0.1893,0.05608c-0.04604,0.01695 -0.02644,0.07992 -0.08725,0.07888c-0.08128,-0.00139 -0.06202,-0.0684 -0.1095,-0.09892c-0.03912,-0.02514 -0.1528,-0.01041 -0.15076,-0.04523c0.00212,-0.03623 0.11257,-0.01428 0.15756,-0.03834c0.05072,-0.02712 0.04045,-0.09796 0.119,-0.09661z" fill="url(#color-21)"/><path d="M212.09899,88.75407c0.03862,0.02506 0.16166,0.02573 0.15964,0.0603c-0.00266,0.04545 -0.12312,0.03171 -0.18931,0.05608c-0.04604,0.01695 -0.02644,0.07992 -0.08725,0.07887c-0.08128,-0.00139 -0.06202,-0.0684 -0.1095,-0.09892c-0.03912,-0.02514 -0.1528,-0.01042 -0.15076,-0.04523c0.00212,-0.03623 0.11257,-0.01428 0.15756,-0.03834c0.05072,-0.02712 0.04045,-0.09796 0.119,-0.09661c0.08175,0.0014 0.05314,0.05304 0.10062,0.08385z" fill="url(#color-22)"/><path d="M221.09612,85.30639c0.08175,0.0014 0.05314,0.05304 0.10062,0.08385c0.03862,0.02506 0.16166,0.02573 0.15964,0.0603c-0.00266,0.04545 -0.12312,0.03171 -0.18931,0.05608c-0.04604,0.01695 -0.02644,0.07992 -0.08725,0.07887c-0.08128,-0.00139 -0.06202,-0.0684 -0.1095,-0.09892c-0.03912,-0.02514 -0.1528,-0.01042 -0.15076,-0.04523c0.00211,-0.03623 0.11257,-0.01428 0.15756,-0.03834c0.05072,-0.02712 0.04045,-0.09796 0.119,-0.09662z" fill="url(#color-23)"/><path d="M203.5939,76.00584c0.12009,-0.071 0.09721,-0.30701 0.19756,-0.30226c0.11649,0.00552 0.10056,0.19474 0.21919,0.28409c0.07477,0.05632 0.30842,0.05379 0.30415,0.07699c-0.01027,0.05569 -0.19703,0.05836 -0.32192,0.12149c-0.11775,0.05952 -0.11992,0.24142 -0.21467,0.23242c-0.09919,-0.00942 -0.06361,-0.17438 -0.182,-0.23605c-0.12074,-0.06289 -0.27012,-0.09172 -0.27509,-0.11068c-0.0084,-0.03205 0.16906,-0.00467 0.27279,-0.066z" fill="url(#color-24)"/><path d="M224.65005,81.6926c-0.00967,-0.0369 0.19464,-0.00537 0.31406,-0.07598c0.13826,-0.08175 0.11191,-0.4349 0.22744,-0.42943c0.13411,0.00635 0.11577,0.30565 0.25235,0.40852c0.08608,0.06484 0.35508,0.06193 0.35016,0.08863c-0.01182,0.06412 -0.22684,0.06719 -0.37062,0.13987c-0.13557,0.06852 -0.09509,0.31284 -0.20418,0.30248c-0.1142,-0.01085 -0.1162,-0.23567 -0.2525,-0.30666c-0.13901,-0.0724 -0.31099,-0.1056 -0.31671,-0.12743z" fill="url(#color-25)"/><path d="M201.82711,75.97325c-0.0084,-0.03205 0.16906,-0.00467 0.27279,-0.066c0.12009,-0.071 0.09721,-0.30701 0.19756,-0.30226c0.11649,0.00552 0.10056,0.19474 0.21919,0.2841c0.07477,0.05632 0.30842,0.05379 0.30415,0.07698c-0.01027,0.0557 -0.19703,0.05836 -0.32192,0.12149c-0.11775,0.05952 -0.11992,0.24142 -0.21467,0.23242c-0.09919,-0.00942 -0.06361,-0.17439 -0.182,-0.23605c-0.12075,-0.06289 -0.27012,-0.09172 -0.27509,-0.11068z" fill="url(#color-26)"/><path d="M217.42651,77.02088c-0.00621,-0.02371 0.12507,-0.00345 0.2018,-0.04882c0.08884,-0.05253 0.07191,-0.22712 0.14615,-0.2236c0.08617,0.00408 0.07439,0.14406 0.16215,0.21016c0.05531,0.04167 0.22816,0.03979 0.225,0.05695c-0.0076,0.0412 -0.14576,0.04318 -0.23815,0.08988c-0.08711,0.04403 -0.08871,0.17859 -0.15881,0.17193c-0.07338,-0.00697 -0.04706,-0.12901 -0.13464,-0.17462c-0.08932,-0.04652 -0.19983,-0.06785 -0.2035,-0.08188z" fill="url(#color-27)"/><path d="M208.14412,76.70288c-0.00621,-0.02371 0.12506,-0.00345 0.2018,-0.04882c0.08884,-0.05253 0.07191,-0.22712 0.14615,-0.2236c0.08618,0.00408 0.07439,0.14406 0.16215,0.21016c0.05531,0.04167 0.22816,0.03979 0.225,0.05695c-0.0076,0.0412 -0.14576,0.04317 -0.23815,0.08988c-0.08711,0.04403 -0.08871,0.17859 -0.15881,0.17193c-0.07338,-0.00697 -0.04705,-0.12901 -0.13464,-0.17462c-0.08932,-0.04652 -0.19983,-0.06785 -0.20351,-0.08188z" fill="url(#color-28)"/><path d="M206.75844,79.4022c-0.00621,-0.02372 0.12506,-0.00346 0.2018,-0.04883c0.08884,-0.05253 0.07191,-0.22712 0.14615,-0.2236c0.08618,0.00408 0.07439,0.14406 0.16215,0.21016c0.05532,0.04167 0.22816,0.03979 0.225,0.05695c-0.00759,0.0412 -0.14576,0.04317 -0.23815,0.08988c-0.08711,0.04403 -0.08871,0.1786 -0.15881,0.17194c-0.07338,-0.00697 -0.04706,-0.12901 -0.13464,-0.17462c-0.08932,-0.04652 -0.19983,-0.06785 -0.20351,-0.08188z" fill="url(#color-29)"/><path d="M201.83686,77.06968c-0.00621,-0.02372 0.12506,-0.00346 0.2018,-0.04883c0.08884,-0.05253 0.07191,-0.22711 0.14615,-0.2236c0.08618,0.00408 0.07439,0.14406 0.16215,0.21016c0.05532,0.04167 0.22816,0.03979 0.225,0.05695c-0.00759,0.0412 -0.14576,0.04317 -0.23815,0.08987c-0.08711,0.04403 -0.08871,0.17859 -0.15881,0.17194c-0.07338,-0.00697 -0.04706,-0.12901 -0.13464,-0.17462c-0.08932,-0.04652 -0.19983,-0.06785 -0.2035,-0.08187z" fill="url(#color-30)"/><path d="M212.70346,76.33134c0.08174,0.0014 0.05314,0.05304 0.10062,0.08385c0.03862,0.02506 0.16166,0.02573 0.15964,0.0603c-0.00266,0.04545 -0.12312,0.03171 -0.18931,0.05608c-0.04604,0.01695 -0.02644,0.07991 -0.08725,0.07887c-0.08128,-0.00139 -0.06201,-0.0684 -0.1095,-0.09892c-0.03912,-0.02514 -0.1528,-0.01041 -0.15076,-0.04523c0.00211,-0.03623 0.11257,-0.01428 0.15756,-0.03834c0.05072,-0.02712 0.04045,-0.09796 0.119,-0.09661z" fill="url(#color-31)"/><path d="M202.81388,81.46066c0.08174,0.0014 0.05314,0.05304 0.10062,0.08385c0.03862,0.02507 0.16166,0.02573 0.15964,0.0603c-0.00265,0.04545 -0.12312,0.03171 -0.1893,0.05608c-0.04604,0.01695 -0.02644,0.07991 -0.08725,0.07887c-0.08128,-0.00139 -0.06201,-0.0684 -0.1095,-0.09892c-0.03912,-0.02514 -0.15279,-0.01042 -0.15076,-0.04523c0.00212,-0.03623 0.11257,-0.01428 0.15756,-0.03834c0.05072,-0.02712 0.04044,-0.09796 0.119,-0.09662z" fill="url(#color-32)"/><path d="M216.7382,78.63039c0.08175,0.0014 0.05314,0.05304 0.10062,0.08385c0.03862,0.02506 0.16166,0.02573 0.15964,0.0603c-0.00266,0.04545 -0.12312,0.03171 -0.18931,0.05608c-0.04604,0.01695 -0.02644,0.07991 -0.08725,0.07887c-0.08128,-0.00139 -0.06202,-0.0684 -0.1095,-0.09892c-0.03912,-0.02514 -0.15279,-0.01042 -0.15076,-0.04523c0.00212,-0.03623 0.11256,-0.01428 0.15756,-0.03834c0.05072,-0.02712 0.04045,-0.09796 0.119,-0.09661z" fill="url(#color-33)"/><path d="M210.03651,77.94764c0.08175,0.0014 0.05314,0.05304 0.10062,0.08385c0.03862,0.02506 0.16166,0.02573 0.15964,0.0603c-0.00266,0.04546 -0.12312,0.03171 -0.18931,0.05608c-0.04604,0.01695 -0.02643,0.07991 -0.08725,0.07887c-0.08128,-0.00139 -0.06202,-0.0684 -0.1095,-0.09892c-0.03912,-0.02514 -0.15279,-0.01042 -0.15076,-0.04523c0.00212,-0.03623 0.11257,-0.01428 0.15756,-0.03834c0.05072,-0.02712 0.04044,-0.09796 0.11899,-0.09661z" fill="url(#color-34)"/><path d="M220.72764,80.05361c-0.0084,-0.03205 0.16906,-0.00467 0.27279,-0.066c0.12009,-0.071 0.09721,-0.30701 0.19756,-0.30226c0.11649,0.00551 0.10056,0.19474 0.21919,0.28409c0.07477,0.05632 0.30842,0.05379 0.30415,0.07699c-0.01027,0.05569 -0.19703,0.05836 -0.32192,0.12149c-0.11775,0.05952 -0.11992,0.24141 -0.21467,0.23241c-0.09919,-0.00942 -0.06361,-0.17438 -0.182,-0.23604c-0.12075,-0.06289 -0.27012,-0.09172 -0.27509,-0.11068z" fill="url(#color-35)"/><path d="M203.5699,85.33675c0.13826,-0.08175 0.11191,-0.4349 0.22744,-0.42943c0.13411,0.00635 0.11577,0.30565 0.25235,0.40852c0.08608,0.06484 0.35508,0.06193 0.35016,0.08863c-0.01182,0.06412 -0.22684,0.06719 -0.37062,0.13987c-0.13557,0.06852 -0.09509,0.31284 -0.20418,0.30248c-0.11419,-0.01085 -0.11619,-0.23567 -0.2525,-0.30666c-0.13901,-0.0724 -0.31099,-0.1056 -0.31671,-0.12743c-0.00967,-0.0369 0.19464,-0.00538 0.31406,-0.07599z" fill="url(#color-36)"/><path d="M203.72303,89.66393c-0.0084,-0.03205 0.16906,-0.00467 0.27279,-0.066c0.12009,-0.071 0.09721,-0.30701 0.19756,-0.30226c0.11649,0.00551 0.10056,0.19474 0.21919,0.2841c0.07477,0.05632 0.30842,0.05379 0.30414,0.07699c-0.01027,0.05569 -0.19703,0.05836 -0.32192,0.12149c-0.11775,0.05952 -0.11992,0.24142 -0.21467,0.23242c-0.09919,-0.00942 -0.06361,-0.17438 -0.182,-0.23604c-0.12075,-0.06289 -0.27012,-0.09172 -0.27509,-0.11068z" fill="url(#color-37)"/><path d="M203.41767,87.8023c-0.00621,-0.02371 0.12507,-0.00345 0.2018,-0.04882c0.08885,-0.05253 0.07191,-0.22711 0.14615,-0.2236c0.08617,0.00408 0.07439,0.14406 0.16215,0.21016c0.05531,0.04167 0.22816,0.03979 0.225,0.05695c-0.00759,0.0412 -0.14576,0.04317 -0.23815,0.08987c-0.08711,0.04403 -0.08871,0.17859 -0.15881,0.17193c-0.07337,-0.00697 -0.04706,-0.129 -0.13464,-0.17462c-0.08932,-0.04652 -0.19983,-0.06785 -0.2035,-0.08188z" fill="url(#color-38)"/><path d="M200.91059,84.41594c-0.00673,-0.02569 0.13549,-0.00374 0.21861,-0.05289c0.09624,-0.0569 0.07791,-0.24604 0.15833,-0.24224c0.09336,0.00442 0.08059,0.15607 0.17566,0.22768c0.05993,0.04514 0.24718,0.04311 0.24375,0.0617c-0.00823,0.04464 -0.1579,0.04677 -0.25799,0.09737c-0.09437,0.0477 -0.0961,0.19347 -0.17204,0.18626c-0.07949,-0.00755 -0.05098,-0.13975 -0.14586,-0.18917c-0.09677,-0.0504 -0.21648,-0.07351 -0.22046,-0.0887z" fill="url(#color-39)"/><path d="M197.87096,78.47273c0.08884,-0.05253 0.07191,-0.22711 0.14615,-0.2236c0.08618,0.00408 0.07439,0.14406 0.16215,0.21016c0.05532,0.04166 0.22816,0.03979 0.225,0.05695c-0.00759,0.0412 -0.14576,0.04317 -0.23815,0.08987c-0.08711,0.04403 -0.08871,0.17859 -0.15881,0.17193c-0.07338,-0.00697 -0.04706,-0.129 -0.13464,-0.17462c-0.08932,-0.04652 -0.19983,-0.06785 -0.20351,-0.08188c-0.00621,-0.02371 0.12506,-0.00346 0.2018,-0.04883z" fill="url(#color-40)"/><path d="M201.40668,87.91637c0.08884,-0.05253 0.07191,-0.22712 0.14615,-0.2236c0.08618,0.00408 0.07439,0.14406 0.16215,0.21016c0.05532,0.04166 0.22817,0.03979 0.225,0.05695c-0.00759,0.0412 -0.14576,0.04317 -0.23815,0.08987c-0.08711,0.04403 -0.08871,0.17859 -0.15881,0.17194c-0.07338,-0.00697 -0.04706,-0.129 -0.13464,-0.17462c-0.08932,-0.04652 -0.19983,-0.06785 -0.2035,-0.08188c-0.00621,-0.02371 0.12506,-0.00345 0.2018,-0.04882z" fill="url(#color-41)"/><path d="M203.74573,86.16981c0.03862,0.02506 0.16166,0.02573 0.15964,0.0603c-0.00266,0.04545 -0.12312,0.03171 -0.18931,0.05608c-0.04604,0.01695 -0.02644,0.07992 -0.08725,0.07887c-0.08128,-0.00139 -0.06201,-0.0684 -0.1095,-0.09892c-0.03912,-0.02514 -0.15279,-0.01041 -0.15076,-0.04523c0.00212,-0.03623 0.11257,-0.01428 0.15756,-0.03834c0.05072,-0.02712 0.04044,-0.09796 0.11899,-0.09661c0.08175,0.0014 0.05314,0.05304 0.10062,0.08385z" fill="url(#color-42)"/><path d="M198.81135,86.13831c0.08174,0.0014 0.05314,0.05304 0.10062,0.08385c0.03862,0.02506 0.16166,0.02573 0.15964,0.0603c-0.00265,0.04545 -0.12312,0.03171 -0.18931,0.05608c-0.04604,0.01695 -0.02643,0.07992 -0.08725,0.07887c-0.08128,-0.00139 -0.06202,-0.0684 -0.10951,-0.09892c-0.03912,-0.02514 -0.15279,-0.01042 -0.15076,-0.04523c0.00212,-0.03623 0.11257,-0.01428 0.15756,-0.03834c0.05072,-0.02712 0.04044,-0.09796 0.119,-0.09661z" fill="url(#color-43)"/><path d="M203.67734,88.44204c0.08175,0.0014 0.05314,0.05304 0.10062,0.08385c0.03862,0.02506 0.16166,0.02573 0.15964,0.0603c-0.00266,0.04545 -0.12312,0.03171 -0.18931,0.05608c-0.04604,0.01695 -0.02644,0.07992 -0.08725,0.07887c-0.08128,-0.00139 -0.06201,-0.0684 -0.1095,-0.09892c-0.03912,-0.02514 -0.15279,-0.01042 -0.15076,-0.04523c0.00211,-0.03623 0.11256,-0.01428 0.15756,-0.03834c0.05072,-0.02712 0.04044,-0.09796 0.119,-0.09661z" fill="url(#color-44)"/><path d="M202.45278,87.35999c0.08174,0.0014 0.05314,0.05304 0.10062,0.08385c0.03862,0.02506 0.16166,0.02573 0.15964,0.0603c-0.00266,0.04545 -0.12312,0.03171 -0.18931,0.05608c-0.04604,0.01695 -0.02643,0.07992 -0.08725,0.07887c-0.08128,-0.00139 -0.06201,-0.0684 -0.1095,-0.09892c-0.03912,-0.02514 -0.15279,-0.01042 -0.15076,-0.04523c0.00212,-0.03623 0.11257,-0.01428 0.15756,-0.03834c0.05072,-0.02712 0.04044,-0.09796 0.11899,-0.09662z" fill="url(#color-45)"/></g><g stroke="none" stroke-width="0" stroke-linecap="butt"><g><path d="M231.14473,179.97186c-0.01397,0.28187 -0.03543,0.56172 -0.06421,0.83937c-4.67485,-0.56046 -9.39153,-0.25829 -14.08582,-0.02721c-6.62267,0.32601 -13.99451,-0.19885 -21.02974,0.41933c-0.13981,-0.97188 -0.1886,-1.96847 -0.1384,-2.98156c0.45105,-9.10266 8.72294,-16.09005 18.47578,-15.60679c9.75285,0.48327 17.29344,8.25419 16.84239,17.35684z" fill="url(#color-46)"/><path d="M213.15211,171.60236c-1.04765,1.39145 -8.15251,3.54357 -8.83194,4.17206c-1.1791,1.0907 -1.54407,-1.09802 -2.00377,-0.15991c-0.72507,1.47965 -1.25726,3.43912 -1.66841,5.32551c-1.27717,0.0379 -2.55122,0.09838 -3.81589,0.19291c0.02148,-2.62298 0.5079,-5.81541 1.57117,-8.0405c0.82437,-1.72515 5.77761,-7.71937 9.9371,-7.97365c2.64071,-0.16143 5.31624,0.74879 7.7049,2.14754c0.95132,0.55707 0.14482,-2.58982 1.48068,-2.50604c1.62751,0.10207 5.40072,3.46808 6.37846,4.87852c1.1707,2.44897 0.87677,5.66575 0.47454,7.51864c-0.13013,0.59945 -2.02869,-0.82106 -2.01275,-0.31067c0.0405,1.29649 0.00088,2.63941 -0.17509,3.69953c-1.73304,0.05773 -3.46625,0.15256 -5.19642,0.23773c-2.62693,0.12932 -5.37174,0.12476 -8.16666,0.11076c-0.02206,-0.10628 -0.0304,-0.18273 -0.0247,-0.22347c0.1404,-1.00287 -1.42034,-1.20006 -2.51258,0.21165c-1.05603,-0.00314 -2.11622,-0.00235 -3.17702,0.00892c1.31316,-4.56387 6.91879,-6.98656 7.95764,-6.99886c2.82906,-0.03351 5.4495,3.50147 5.14165,5.06661c-0.08149,0.4143 1.74749,-1.08589 0.83476,-3.09932c-1.37644,-3.03635 -3.29964,-5.04961 -3.8957,-4.25795z" fill="url(#color-47)"/><path d="M225.21536,167.17246c1.07161,-0.58999 2.47905,7.81236 1.69,13.3432c-0.76111,-0.02114 -1.52282,-0.02689 -2.28486,-0.02124c1.20838,-5.05417 -0.88175,-13.37797 0.59486,-13.32196z" fill="url(#color-48)"/><path d="" fill="url(#color-49)"/><path d="M223.44495,179.51073c-0.01679,0.33884 -0.04889,0.67337 -0.09561,1.00301c-2.11884,0.04755 -4.23901,0.16613 -6.35464,0.27028c-5.12201,0.25214 -10.69214,-0.00468 -16.2081,0.15197c-0.15455,-0.82609 -0.2155,-1.68211 -0.17217,-2.55654c0.30504,-6.15613 5.66312,-10.89342 11.96759,-10.58102c6.30447,0.31239 11.16797,5.55617 10.86292,11.7123z" fill="url(#color-50)"/><path d="M219.42325,172.49803c-0.43461,2.81138 -7.17048,-0.35913 -10.80659,1.5782c-2.65994,1.41722 -5.00043,5.64571 -6.58907,6.83112c-0.42204,0.00763 -0.84398,0.01728 -1.26561,0.02935c-0.05514,-0.06783 -0.10792,-0.14861 -0.15829,-0.24315c-1.33768,-2.51065 -0.32021,-11.36296 3.31591,-13.30029c3.63611,-1.93733 16.30356,-0.06959 15.50365,5.10477z" fill="url(#color-51)"/><path d="M219.24336,179.86733c0.24266,-1.96152 -1.95689,-4.73484 -2.88508,-6.57698c-0.58398,-1.15902 -4.06083,-4.37047 -7.75526,-4.02486c-3.4439,0.32217 -7.1073,4.09673 -7.98261,5.88297c-0.9001,1.83684 -1.34196,4.03049 -1.60187,5.85315c-0.32604,0.01516 -0.65169,0.03212 -0.97686,0.05108c0.07929,-2.2498 0.4879,-5.19651 1.68593,-7.70361c0.82437,-1.72515 4.74465,-6.14698 8.90415,-6.40125c4.97372,-0.30405 8.16493,2.23961 10.63915,5.61304c1.2528,1.7081 2.48723,5.49398 2.21182,8.01098c-0.8062,0.03116 -1.61234,0.06896 -2.4181,0.10871c0.08233,-0.25775 0.14355,-0.52886 0.17873,-0.81321z" fill="url(#color-52)"/><path d="M209.84661,180.81852c0.18854,-1.34676 0.85757,-1.60052 2.22458,-2.77942c0.63014,-0.79112 -0.82868,-1.41162 -2.06723,-0.76185c-0.72352,0.37957 -2.55747,1.56117 -3.72201,3.60569c-1.02829,-0.00304 -2.06052,-0.00233 -3.0934,0.00817c1.45919,-4.37864 6.8518,-6.70023 7.86868,-6.71228c2.82906,-0.03351 5.4495,3.50147 5.14165,5.06661c-0.09467,0.48132 -0.37948,1.0537 -0.75714,1.59997c-1.82444,0.05585 -3.69773,0.06056 -5.59824,0.05382c-0.00076,-0.03363 0.0003,-0.06073 0.0031,-0.08072z" fill="url(#color-53)"/><path d="M225.98395,170.93523c0.99052,0.11705 1.84773,5.17468 1.08072,9.58508c-0.51443,-0.01575 -1.02915,-0.02435 -1.54407,-0.02702c0.87153,-4.37642 -0.43713,-9.66447 0.46335,-9.55806z" fill="url(#color-54)"/><path d="" fill="url(#color-55)"/><path d="" fill="url(#color-56)"/><path d="M223.19379,169.73345c1.67271,1.9661 0.93966,6.90749 0.35785,7.40248c-0.5818,0.49499 -0.18348,-4.37751 -1.78023,-6.40579c-2.51713,-3.19741 -4.33207,-4.80173 -4.09227,-5.19689c0.15687,-0.2585 3.84193,2.2341 5.51464,4.2002z" fill="url(#color-57)"/><path d="M212.09359,171.66502c0.2049,0.5138 -2.04628,0.45663 -4.19935,1.31527c-2.15307,0.85864 -3.67644,2.62648 -3.88134,2.11268c-0.2049,-0.5138 1.2336,-2.49447 3.38667,-3.35311c2.15307,-0.85864 4.48913,-0.58864 4.69403,-0.07484z" fill="url(#color-58)"/><path d="M204.9473,179.2761c0.21372,-4.31317 3.82774,-7.6392 8.07214,-7.42888c4.2444,0.21032 7.5119,3.87733 7.29818,8.1905v0c-0.00978,0.19733 -0.02667,0.39259 -0.05042,0.58554c-1.09151,0.04963 -2.18261,0.10711 -3.27251,0.16077c-3.80955,0.18753 -7.86698,0.09352 -11.96565,0.09748c-0.07992,-0.52089 -0.10888,-1.05794 -0.08175,-1.6054z" fill="url(#color-59)"/><path d="M217.106,178.04265c0.43572,0.83274 0.34582,1.81605 -0.14487,2.74302c-2.84145,0.13859 -5.82036,0.12129 -8.85109,0.1054c0.1752,-1.49685 1.31453,-3.12669 3.09635,-3.98779c2.45808,-1.18792 4.97477,-0.62817 5.89961,1.13938z" fill="url(#color-60)"/><path d="M215.95744,180.26985c-0.0095,0.19177 -0.03466,0.37914 -0.0742,0.561c-2.26571,0.0803 -4.61013,0.07605 -6.99131,0.06425c-0.07627,-0.31339 -0.10918,-0.64228 -0.09245,-0.97993c0.0956,-1.92927 1.77546,-3.41385 3.75207,-3.31591c1.97662,0.09794 3.50148,1.74132 3.40588,3.6706z" fill="url(#color-61)"/><path d="M208.6048,179.04208c-0.76557,0.45333 -1.29291,1.10402 -1.65002,1.84332c-1.33532,-0.00571 -2.67854,-0.0073 -4.0224,0.00851c0.32571,-1.52473 1.10161,-2.90224 2.3706,-4.05065c1.8425,-1.66743 4.7894,-2.80936 7.41851,-2.25006c2.58076,0.54901 3.66029,3.92377 3.60408,5.05819v0c-0.0656,1.32378 -4.31093,-2.62845 -7.72078,-0.60932z" fill="url(#color-62)"/><path d="" fill="url(#color-63)"/><path d="" fill="url(#color-64)"/><path d="M217.5367,175.59901c-0.84596,-1.41938 -1.67335,-3.31599 -3.02143,-4.3421c-2.01325,-1.53241 -4.44389,-1.90897 -3.85073,-2.17166c1.28883,-0.5708 3.58667,-3.62395 6.43693,-3.48717c2.90206,0.13926 6.35333,3.4932 7.24316,5.71056c0.79414,1.9789 0.69277,5.99875 -0.38733,9.19348c-1.85371,0.02903 -3.70886,0.11871 -5.56153,0.21177c0.09032,-1.70332 0.042,-3.60306 -0.85906,-5.11488z" fill="url(#color-65)"/></g><path d="M204.35909,179.69923c-0.00607,0.03144 -0.14356,0.07291 -0.25798,0.17252c-0.11219,0.09768 -0.09366,0.37477 -0.18416,0.38607c-0.08645,0.01079 -0.07335,-0.29309 -0.17493,-0.39778c-0.10774,-0.11103 -0.27645,-0.12385 -0.28112,-0.21733c-0.00195,-0.03893 0.20918,-0.02423 0.28147,-0.11494c0.11469,-0.14391 0.11595,-0.46065 0.22177,-0.46464c0.09116,-0.00344 0.05093,0.38969 0.15368,0.51365c0.08875,0.10707 0.25152,0.06929 0.24127,0.12245z" fill="url(#color-66)"/><path d="M207.86709,177.55681c-0.00698,0.0362 -0.16528,0.08394 -0.29701,0.19862c-0.12916,0.11246 -0.14958,0.48784 -0.25377,0.50084c-0.09953,0.01242 -0.0427,-0.3938 -0.15964,-0.51432c-0.12404,-0.12783 -0.31827,-0.14259 -0.32365,-0.25021c-0.00224,-0.04482 0.24083,-0.0279 0.32405,-0.13233c0.13204,-0.16569 0.14023,-0.66637 0.26206,-0.67096c0.10495,-0.00396 0.05189,0.58467 0.17018,0.72738c0.10217,0.12327 0.28958,0.07978 0.27778,0.14097z" fill="url(#color-67)"/><path d="" fill="url(#color-68)"/><path d="" fill="url(#color-69)"/><path d="M205.29378,180.51552c-0.00448,0.02326 -0.1062,0.05394 -0.19085,0.12763c-0.0594,0.05172 -0.06927,0.17143 -0.09462,0.23837c-0.02805,0.00003 -0.05611,0.00006 -0.08416,0.0001c-0.02341,-0.06862 -0.0347,-0.19338 -0.08686,-0.24714c-0.0797,-0.08214 -0.20451,-0.09162 -0.20796,-0.16077c-0.00144,-0.0288 0.15474,-0.01793 0.20823,-0.08503c0.08485,-0.10646 0.08578,-0.34078 0.16406,-0.34373c0.06743,-0.00254 0.03767,0.28828 0.11368,0.37999c0.06565,0.07921 0.18607,0.05126 0.17849,0.09058z" fill="url(#color-70)"/><path d="" fill="url(#color-71)"/><path d="" fill="url(#color-72)"/><path d="" fill="url(#color-73)"/><path d="M206.87387,180.63247c0.07116,0.00128 0.05601,0.11912 0.09964,0.16669c0.0387,0.0422 0.14042,0.01049 0.13934,0.0711c-0.00011,0.00621 -0.00137,0.01143 -0.00357,0.01583c-0.15959,-0.00072 -0.3193,-0.00138 -0.47911,-0.00198c-0.0025,-0.00646 -0.00379,-0.01391 -0.00363,-0.02257c0.00104,-0.05783 0.11238,-0.05342 0.14939,-0.09354c0.0455,-0.04933 0.0239,-0.13685 0.09795,-0.13553z" fill="url(#color-74)"/><path d="" fill="url(#color-75)"/><path d="" fill="url(#color-76)"/><path d="M220.3208,167.88356c-0.00606,0.03144 -0.14356,0.07291 -0.25798,0.17252c-0.11219,0.09768 -0.09366,0.37477 -0.18416,0.38607c-0.08645,0.01079 -0.07335,-0.29309 -0.17493,-0.39778c-0.10774,-0.11103 -0.27644,-0.12385 -0.28112,-0.21733c-0.00195,-0.03893 0.20918,-0.02423 0.28147,-0.11494c0.11469,-0.14392 0.11595,-0.46065 0.22177,-0.46464c0.09116,-0.00344 0.05093,0.38969 0.15368,0.51365c0.08875,0.10707 0.25152,0.06929 0.24127,0.12245z" fill="url(#color-77)"/><path d="M219.46393,172.8787c-0.00698,0.0362 -0.16528,0.08393 -0.29701,0.19862c-0.12916,0.11245 -0.14958,0.48784 -0.25377,0.50084c-0.09953,0.01242 -0.0427,-0.3938 -0.15965,-0.51432c-0.12404,-0.12782 -0.31827,-0.14259 -0.32365,-0.25021c-0.00224,-0.04482 0.24083,-0.0279 0.32405,-0.13233c0.13205,-0.16569 0.14023,-0.66637 0.26206,-0.67096c0.10495,-0.00395 0.05189,0.58467 0.17019,0.72739c0.10217,0.12327 0.28958,0.07978 0.27778,0.14097z" fill="url(#color-78)"/><path d="M221.68029,167.78585c-0.00606,0.03144 -0.14356,0.07291 -0.25798,0.17252c-0.11219,0.09768 -0.09366,0.37477 -0.18416,0.38607c-0.08645,0.01079 -0.07335,-0.2931 -0.17494,-0.39778c-0.10774,-0.11103 -0.27645,-0.12385 -0.28112,-0.21733c-0.00195,-0.03893 0.20918,-0.02423 0.28147,-0.11494c0.11469,-0.14392 0.11595,-0.46065 0.22177,-0.46464c0.09116,-0.00344 0.05093,0.38969 0.15368,0.51365c0.08875,0.10707 0.25153,0.06929 0.24128,0.12245z" fill="url(#color-79)"/><path d="M207.48393,168.83637c-0.00448,0.02326 -0.1062,0.05393 -0.19084,0.12763c-0.083,0.07226 -0.06929,0.27724 -0.13623,0.2856c-0.06395,0.00798 -0.05426,-0.21682 -0.12941,-0.29426c-0.0797,-0.08214 -0.20451,-0.09163 -0.20797,-0.16078c-0.00144,-0.0288 0.15474,-0.01793 0.20822,-0.08503c0.08485,-0.10646 0.08578,-0.34078 0.16406,-0.34373c0.06743,-0.00254 0.03767,0.28828 0.11368,0.37999c0.06565,0.07921 0.18607,0.05126 0.17849,0.09058z" fill="url(#color-80)"/><path d="M215.90617,168.72129c-0.00448,0.02326 -0.1062,0.05393 -0.19085,0.12763c-0.083,0.07226 -0.06928,0.27725 -0.13623,0.2856c-0.06395,0.00798 -0.05427,-0.21682 -0.12941,-0.29426c-0.0797,-0.08214 -0.20451,-0.09162 -0.20797,-0.16077c-0.00144,-0.0288 0.15475,-0.01793 0.20823,-0.08503c0.08485,-0.10646 0.08578,-0.34078 0.16406,-0.34373c0.06743,-0.00254 0.03767,0.28828 0.11368,0.37999c0.06565,0.07921 0.18607,0.05126 0.17849,0.09058z" fill="url(#color-81)"/><path d="M216.93614,173.29155c-0.00448,0.02326 -0.1062,0.05393 -0.19085,0.12763c-0.083,0.07226 -0.06929,0.27725 -0.13623,0.2856c-0.06395,0.00798 -0.05427,-0.21682 -0.12941,-0.29427c-0.0797,-0.08214 -0.20451,-0.09162 -0.20796,-0.16077c-0.00144,-0.0288 0.15474,-0.01793 0.20823,-0.08503c0.08485,-0.10646 0.08578,-0.34078 0.16406,-0.34373c0.06743,-0.00254 0.03767,0.28828 0.11368,0.37999c0.06565,0.07921 0.18607,0.05126 0.17849,0.09059z" fill="url(#color-82)"/><path d="M221.58073,169.61658c-0.00448,0.02326 -0.1062,0.05393 -0.19084,0.12762c-0.08299,0.07226 -0.06929,0.27725 -0.13623,0.2856c-0.06395,0.00798 -0.05427,-0.21682 -0.12941,-0.29427c-0.0797,-0.08214 -0.20451,-0.09162 -0.20796,-0.16077c-0.00144,-0.0288 0.15474,-0.01793 0.20823,-0.08503c0.08485,-0.10646 0.08578,-0.34078 0.16406,-0.34373c0.06744,-0.00254 0.03768,0.28828 0.11369,0.37999c0.06565,0.07921 0.18607,0.05126 0.17849,0.09059z" fill="url(#color-83)"/><path d="M211.813,167.89644c0.07116,0.00127 0.05601,0.11912 0.09964,0.16669c0.0387,0.0422 0.14043,0.01049 0.13934,0.0711c-0.00104,0.05823 -0.10264,0.02854 -0.14011,0.06878c-0.04548,0.04883 -0.0336,0.16161 -0.10723,0.16029c-0.05509,-0.00099 -0.03215,-0.10526 -0.07239,-0.13564c-0.05785,-0.04367 -0.16795,-0.02611 -0.16659,-0.10214c0.00104,-0.05783 0.11238,-0.05342 0.14939,-0.09355c0.0455,-0.04933 0.0239,-0.13685 0.09795,-0.13553z" fill="url(#color-84)"/><path d="M220.33364,176.90621c0.07116,0.00127 0.05601,0.11912 0.09964,0.16669c0.0387,0.0422 0.14042,0.01049 0.13934,0.07109c-0.00104,0.05823 -0.10264,0.02855 -0.14011,0.06878c-0.04548,0.04883 -0.0336,0.16161 -0.10723,0.16029c-0.05509,-0.00099 -0.03215,-0.10526 -0.07239,-0.13564c-0.05785,-0.04367 -0.16795,-0.02611 -0.16658,-0.10215c0.00104,-0.05783 0.11238,-0.05342 0.14939,-0.09355c0.0455,-0.04933 0.0239,-0.13685 0.09795,-0.13553z" fill="url(#color-85)"/><path d="M207.97331,171.55526c0.07116,0.00127 0.05601,0.11912 0.09964,0.16669c0.0387,0.0422 0.14042,0.01049 0.13934,0.0711c-0.00104,0.05823 -0.10264,0.02855 -0.1401,0.06878c-0.04548,0.04883 -0.0336,0.16161 -0.10723,0.1603c-0.05509,-0.00099 -0.03215,-0.10526 -0.07239,-0.13564c-0.05785,-0.04367 -0.16795,-0.02611 -0.16659,-0.10215c0.00104,-0.05783 0.11238,-0.05342 0.14939,-0.09355c0.0455,-0.04933 0.0239,-0.13685 0.09795,-0.13553z" fill="url(#color-86)"/><path d="M214.09149,170.71536c0.07116,0.00127 0.05601,0.11912 0.09963,0.16669c0.0387,0.0422 0.14042,0.01049 0.13934,0.0711c-0.00104,0.05823 -0.10264,0.02855 -0.1401,0.06878c-0.04548,0.04883 -0.0336,0.16161 -0.10723,0.16029c-0.05509,-0.00099 -0.03215,-0.10526 -0.07239,-0.13564c-0.05785,-0.04367 -0.16795,-0.02611 -0.16659,-0.10215c0.00104,-0.05783 0.11238,-0.05342 0.14938,-0.09355c0.0455,-0.04933 0.0239,-0.13685 0.09795,-0.13553z" fill="url(#color-87)"/><path d="" fill="url(#color-88)"/><path d="" fill="url(#color-89)"/><path d="" fill="url(#color-90)"/><path d="" fill="url(#color-91)"/><path d="" fill="url(#color-92)"/><path d="" fill="url(#color-93)"/><path d="" fill="url(#color-94)"/><path d="" fill="url(#color-95)"/><path d="" fill="url(#color-96)"/><path d="" fill="url(#color-97)"/><path d="" fill="url(#color-98)"/></g></g></g></svg>