<svg version="1.1" xmlns="http://www.w3.org/2000/svg" xmlns:xlink="http://www.w3.org/1999/xlink" width="92.7346" height="165.80825" viewBox="0,0,92.7346,165.80825"><defs><linearGradient x1="242.9173" y1="89.81446" x2="242.9173" y2="221.62882" gradientUnits="userSpaceOnUse" id="color-1"><stop offset="0" stop-color="#000000"/><stop offset="1" stop-color="#000000" stop-opacity="0"/></linearGradient></defs><g transform="translate(-190.97229,-47.55526)"><g data-paper-data="{&quot;isPaintingLayer&quot;:true}" fill-rule="nonzero" stroke-miterlimit="10" stroke-dasharray="" stroke-dashoffset="0" style="mix-blend-mode: normal"><path d="M275.33333,179.28583c0.0562,1.38665 -5.0553,5.21154 -31.6814,5.21154c-26.6261,0 -34.06007,-3.26498 -34.06899,-5.49716c-0.0077,-1.92715 6.8919,-4.49747 33.518,-4.49747c26.6261,0 32.18096,3.51469 32.23238,4.78309z" fill="url(#color-1)" stroke="none" stroke-width="0" stroke-linecap="butt" stroke-linejoin="miter"/><text transform="translate(191.20237,65.04096) scale(0.46015,0.46015)" font-size="40" xml:space="preserve" fill="#000000" fill-rule="nonzero" stroke="#000000" stroke-width="1" stroke-linecap="butt" stroke-linejoin="miter" stroke-miterlimit="10" stroke-dasharray="" stroke-dashoffset="0" font-family="Handwriting" font-weight="normal" text-anchor="start" style="mix-blend-mode: normal"></text><text transform="translate(218.29468,205.54096) scale(0.46015,0.46015)" font-size="40" xml:space="preserve" fill="#000000" fill-rule="nonzero" stroke="#000000" stroke-width="1" stroke-linecap="butt" stroke-linejoin="miter" stroke-miterlimit="10" stroke-dasharray="" stroke-dashoffset="0" font-family="Handwriting" font-weight="normal" text-anchor="start" style="mix-blend-mode: normal"></text><g stroke-width="0.75"><path d="M249.21173,149.25969l2.2817,-0.17544c0,1.839 -0.05577,10.45133 -0.22917,11.53437c-0.17384,1.08303 -1.05261,13.57482 -0.99336,13.97122c0.05882,0.39639 3.36525,0.30541 5.00082,0.60216c0.8509,0.15379 1.13584,0.38773 1.21906,0.57185c-2.95179,-0.16245 -6.4386,-0.13647 -7.23765,-0.59567c-0.5311,-0.30758 0.10412,-10.62245 0.40998,-14.33294c0.14595,-1.79568 -0.36816,-10.25206 -0.45137,-11.57553z" fill="#ffc9c2" stroke="none" stroke-linecap="butt" stroke-linejoin="miter"/><path d="M257.34168,177.35158c0.43395,0.35307 0.34724,0.97257 -0.60779,0.94657c-0.95503,-0.02599 -1.47612,-0.21661 -2.95876,-0.29459c-1.74668,-0.07256 -3.49901,-0.06741 -5.24437,0.01516c-2.16014,0.11914 -4.3338,0.10831 -4.3338,-1.04621c0,-1.38196 0.21872,-1.68737 -0.0244,-3.17764c-0.33025,-2.04911 -1.89611,-7.72423 -2.12223,-11.7683c-0.09018,-1.67871 -1.57632,-7.59211 -2.14272,-12.0564l9.29715,-0.71048c0.08321,1.32348 0.59733,9.77985 0.45138,11.57553c-0.30542,3.71916 -0.94109,14.02536 -0.40999,14.33294c0.79905,0.4592 4.28587,0.43105 7.23765,0.59567c0.04879,0.09287 0.04879,0.19305 0,0.28592l-1.78153,0.7343c0,0 1.95188,0 2.6394,0.56751z" fill="#f8b1a4" stroke="none" stroke-linecap="butt" stroke-linejoin="miter"/><path d="M254.71621,176.7754c0,0 1.95145,0 2.64638,0.56751c0.43395,0.35307 0.34723,0.97258 -0.60779,0.94658c-0.95503,-0.02599 -1.47611,-0.21661 -2.95919,-0.29458c-1.74624,-0.07256 -3.49858,-0.06742 -5.24394,0.01516c-2.16014,0.11914 -4.33423,0.10831 -4.33423,-1.04621c0,-1.38196 0.21915,-1.68738 -0.02397,-3.17764c-0.33025,-2.04911 -1.89655,-7.72423 -2.12223,-11.7683c-0.09018,-1.67871 -1.57676,-7.59211 -2.14272,-12.0564l11.57886,-0.88593c0,1.839 -0.05576,10.45134 -0.2296,11.53437c-0.1734,1.08303 -1.05219,13.57481 -0.99293,13.97121c0.05882,0.39639 3.39967,0.30326 5.00083,0.60217c1.60115,0.29891 1.21209,0.86643 1.21209,0.86643z" fill="none" stroke="#5e154d" stroke-linecap="round" stroke-linejoin="round"/><path d="M254.62559,175.85482c0,0 1.18463,-0.04982 1.87912,0.19494c0.58687,0.21228 0.82301,0.53286 0.69448,1.19784c0,0 -0.65963,-0.42672 -2.46904,-0.46354" fill="#f8b1a4" stroke="#5e154d" stroke-linecap="round" stroke-linejoin="round"/></g><g stroke-width="0.75"><path d="M234.63012,161.70166c0.36468,-1.52708 0.65964,-9.78201 0.75331,-12.61741h2.21939c0,1.839 -1.03869,11.53437 -1.21209,12.61741c-0.17384,1.08303 -2.89298,12.49178 -2.83721,12.88817c0.05533,0.39639 3.36134,0.30541 4.99735,0.60216c0.84044,0.15379 1.13191,0.38123 1.21905,0.56318c-2.67076,-0.37473 -6.68912,-0.25776 -7.31041,-0.51552c-0.78162,-0.32491 1.60769,-11.1683 2.1706,-13.53799z" fill="#ffc9c2" stroke="none" stroke-linecap="butt" stroke-linejoin="miter"/><path d="M240.63086,177.35158c0.43438,0.35307 0.34768,0.97257 -0.60734,0.94657c-0.95503,-0.02599 -1.47612,-0.21661 -2.9592,-0.29459c-1.74755,-0.07256 -3.50119,-0.06741 -5.24743,0.01516c-2.16014,0.11914 -4.33074,0.10831 -4.33074,-1.04621c0,-1.38196 0.28145,-2.29388 0.28145,-3.79064c0,-1.70687 -0.72586,-10.01811 -0.81256,-11.69682c-0.08714,-1.67871 -1.18769,-10.62895 -0.82345,-12.4008h9.24487c-0.09367,2.8354 -0.40606,11.09033 -0.7533,12.61741c-0.56291,2.36969 -2.95222,13.21308 -2.1706,13.53799c0.62172,0.25777 4.63965,0.14079 7.31042,0.51552c0.05054,0.09558 0.05054,0.199 0,0.29458l-1.78153,0.7343c0,0 1.95493,0 2.64942,0.56751z" fill="#f8b1a4" stroke="none" stroke-linecap="butt" stroke-linejoin="miter"/><path d="M237.99189,176.7754c0,0 1.95493,0 2.64942,0.56751c0.43438,0.35307 0.34724,0.97258 -0.60779,0.94658c-0.95503,-0.02599 -1.47568,-0.21661 -2.95876,-0.29458c-1.74755,-0.07256 -3.5012,-0.06742 -5.24744,0.01516c-2.16014,0.11914 -4.33074,0.10831 -4.33074,-1.04621c0,-1.38196 0.28145,-2.29388 0.28145,-3.79064c0,-1.70687 -0.72586,-10.01811 -0.81256,-11.69682c-0.08714,-1.67871 -1.18812,-10.62896 -0.82345,-12.40081h11.46078c0,1.839 -1.03869,11.53438 -1.21209,12.61742c-0.17384,1.08303 -2.89297,12.49177 -2.8372,12.88816c0.05533,0.39639 3.39619,0.30326 4.99734,0.60217c1.60072,0.29891 1.21209,0.86643 1.21209,0.86643z" fill="none" stroke="#5e154d" stroke-linecap="round" stroke-linejoin="round"/><path d="M237.91172,175.85482c0,0 1.20163,-0.04982 1.87564,0.19494c0.5799,0.21661 0.81953,0.53286 0.69448,1.19784c0,0 -0.66007,-0.43322 -2.46948,-0.46354" fill="#f8b1a4" stroke="#5e154d" stroke-linecap="round" stroke-linejoin="round"/></g><g stroke-width="0.75"><path d="M216.95058,145.70981c0,0 -0.099,0.46092 -0.20182,0.99944c0.09518,-0.53382 0.20182,-0.99944 0.20182,-0.99944z" fill="#f8b1a4" stroke="none" stroke-linecap="butt" stroke-linejoin="miter"/><path d="M215.95963,143.99548c-0.67004,0.91743 -1.45248,1.80164 -2.34061,2.64557c-0.16452,-0.06526 -0.2793,-0.16873 -0.31852,-0.2869c-0.03969,-0.11787 -0.00048,-0.24104 0.10856,-0.34098c0.4156,-0.51265 0.99143,-0.99944 1.75378,-2.0365c0.70878,-0.96886 2.57303,-9.07491 3.14503,-10.66225c0.572,-1.58734 1.94029,-8.90088 5.17715,-11.87567c1.20952,-1.13613 3.12781,-1.91245 5.29863,-2.14468l-0.11813,1.22519c-1.92738,0.42564 -3.5482,1.25899 -4.57455,2.35161c-2.05843,2.16114 -3.27464,5.64389 -5.27615,12.58116c-2.00152,6.93728 -2.36738,7.76035 -2.85521,8.54344z" fill="#ffc9c2" stroke="none" stroke-linecap="butt" stroke-linejoin="miter"/><path d="M218.09075,148.07083c0.00143,0.00706 0.00143,0.01412 0,0.02116c0.01865,-0.47268 0.26687,-2.314 0.26687,-2.314c0,0 -0.06887,1.46976 -0.26687,2.29283z" fill="#f8b1a4" stroke="none" stroke-linecap="butt" stroke-linejoin="miter"/><path d="M228.69998,120.53572l-0.63656,6.62216c0,0 -2.63808,5.33817 -3.46164,7.11365c-1.08278,2.32575 -4.27325,9.09607 -4.0676,9.7216c0.20565,0.62553 1.07896,1.7449 1.34965,2.72317c0.20565,0.74546 -1.09426,0.87245 -1.3726,0.34099c-0.17887,-0.34569 -0.7853,-1.30515 -0.7853,-1.30515c0,0 -0.00001,1.2299 -0.16022,2.24815c-0.12578,0.80425 -1.4673,0.69137 -1.44864,0.09876c0.00191,-0.00706 0.00191,-0.01412 0,-0.02116c0.19082,-0.82307 0.25922,-2.29282 0.25922,-2.29282c0,0 -0.26686,1.84366 -0.26686,2.31399c-0.20183,0.69608 -1.5247,0.67491 -1.5247,-0.0729c0,-0.31042 0.07987,-0.83953 0.16787,-1.30985c0.10282,-0.52911 0.20183,-0.99944 0.20183,-0.99944c0,0 -0.10665,0.46562 -0.20183,0.99944c-0.07652,0.39742 -0.15639,0.84424 -0.19465,1.17581c-0.06456,0.55969 -1.42952,0.57144 -1.3836,-0.10583c0.03444,-0.46797 0.31613,-2.23404 0.31613,-2.23404c-0.1913,0.3842 -0.52226,0.73665 -0.968,1.03001c-0.23674,0.14668 -0.605,0.1749 -0.89195,0.0682c0.88478,-0.84717 1.66339,-1.73461 2.32913,-2.65498c0.48782,-0.78308 0.85369,-1.60616 2.85521,-8.54343c2.00152,-6.93728 3.21773,-10.42003 5.27615,-12.58117c1.03974,-1.09056 2.67299,-1.91804 4.60898,-2.33516z" fill="#f8b1a4" stroke="none" stroke-linecap="butt" stroke-linejoin="miter"/><path d="M229.4054,119.23763l-1.36878,7.9132c0,0 -2.63808,5.33817 -3.46164,7.11365c-1.0823,2.32575 -4.25794,9.09371 -4.0676,9.7216c0.19082,0.62788 1.07895,1.7449 1.34965,2.72317c0.20565,0.74546 -1.09426,0.87245 -1.3726,0.34098c-0.17887,-0.34569 -0.7853,-1.30515 -0.7853,-1.30515c0,0 0,1.2299 -0.15974,2.24815c-0.12578,0.79955 -1.47161,0.69137 -1.44483,0.09876c0,-0.47033 0.26305,-2.314 0.26305,-2.314c0,0 -0.06504,1.46976 -0.25539,2.29283c-0.16787,0.7196 -1.52517,0.70549 -1.52517,-0.05174c0,-0.66316 0.38117,-2.30929 0.38117,-2.30929c0,0 -0.30465,1.41097 -0.38117,2.1823c-0.06456,0.55969 -1.42952,0.57144 -1.38361,-0.10583c0.03395,-0.47033 0.31613,-2.23403 0.31613,-2.23403c-0.1913,0.3842 -0.52274,0.73665 -0.968,1.03001c-0.55669,0.33393 -1.55578,0 -1.10191,-0.55969c0.4156,-0.51265 0.99095,-0.99944 1.75377,-2.0365c0.70878,-0.96886 2.57304,-9.07491 3.14504,-10.66225c0.57152,-1.58734 1.94029,-8.90088 5.17667,-11.87567c1.6739,-1.53561 3.93034,-2.02944 5.91272,-2.21052" fill="none" stroke="#5e154d" stroke-linecap="round" stroke-linejoin="round"/></g><g stroke-width="0.75"><path d="M261.40669,147.27083c-0.10282,-0.53859 -0.2023,-0.99956 -0.2023,-0.99956c0,0 0.10712,0.46568 0.2023,0.99956z" fill="#f8b1a4" stroke="none" stroke-linecap="butt" stroke-linejoin="miter"/><path d="M259.34061,136.01215c-2.00151,-6.93819 -3.21772,-10.4214 -5.27615,-12.58282c-1.02539,-1.09336 -2.64669,-1.92682 -4.57455,-2.35193l-0.11861,-1.22535c2.17129,0.23225 4.0896,1.00868 5.29912,2.14495c3.23686,2.97519 4.60515,10.28969 5.17715,11.87725c0.57152,1.58756 2.43578,9.69465 3.14504,10.66365c0.76234,1.0372 1.33817,1.52405 1.75378,2.03677c0.10856,0.09995 0.14778,0.22314 0.10856,0.34103c-0.03969,0.11819 -0.154,0.22167 -0.31852,0.28694c-0.88526,-0.84728 -1.66386,-1.73485 -2.32912,-2.65533c-0.4993,-0.77379 -0.86565,-1.59696 -2.86669,-8.53516z" fill="#ffc9c2" stroke="none" stroke-linecap="butt" stroke-linejoin="miter"/><path d="M259.80165,146.33946c0,0 0.24391,1.84156 0.26304,2.3143c-0.00191,-0.00706 -0.00191,-0.01411 0,-0.02116c-0.198,-0.82317 -0.26304,-2.29313 -0.26304,-2.29313z" fill="#f8b1a4" stroke="none" stroke-linecap="butt" stroke-linejoin="miter"/><path d="M254.06446,123.42933c2.05843,2.16142 3.27464,5.64463 5.27615,12.58282c2.00104,6.93819 2.36739,7.74961 2.85904,8.54456c0.66526,0.92049 1.44434,1.80805 2.32912,2.65533c-0.28744,0.10584 -0.65474,0.07791 -0.89195,-0.06821c-0.44574,-0.2934 -0.77669,-0.64589 -0.96847,-1.03015c0,0 0.28217,1.7663 0.3166,2.23433c0.04974,0.67736 -1.31903,0.6656 -1.38408,0.10584c-0.03778,-0.33163 -0.11813,-0.77849 -0.19418,-1.17597c-0.09517,-0.53388 -0.2023,-0.99957 -0.2023,-0.99957c0,0 0.09948,0.47038 0.2023,0.99957c0.08752,0.47038 0.16787,0.99957 0.16787,1.31002c0,0.74792 -1.32286,0.76908 -1.52517,0.07291c-0.01913,-0.47038 -0.26304,-2.31429 -0.26304,-2.31429c0,0 0.06504,1.46995 0.25539,2.29313c-0.00144,0.00706 -0.00144,0.01411 0,0.02116c0,0.59268 -1.32287,0.70558 -1.44865,-0.09878c-0.15639,-1.01838 -0.15639,-2.24845 -0.15639,-2.24845c0,0 -0.60978,0.95959 -0.78913,1.30533c-0.27787,0.53153 -1.57825,0.40453 -1.37212,-0.34103c0.27069,-0.97841 1.14352,-2.09792 1.34965,-2.72353c0.20565,-0.62562 -2.96234,-7.40387 -4.03364,-9.71818c-0.82308,-1.7757 -3.46116,-7.11458 -3.46116,-7.11458l-0.63704,-6.62303c1.92165,0.42011 3.54055,1.24564 4.5712,2.33076z" fill="#f8b1a4" stroke="none" stroke-linecap="butt" stroke-linejoin="miter"/><path d="M248.74239,119.80736c1.98621,0.1811 4.23929,0.675 5.91272,2.21081c3.23686,2.97519 4.60515,10.28969 5.17715,11.87725c0.572,1.58756 2.43578,9.69465 3.14504,10.66365c0.76234,1.0372 1.33817,1.52405 1.75378,2.03677c0.45339,0.55976 -0.54522,0.89374 -1.10191,0.55976c-0.44574,-0.2934 -0.77669,-0.6459 -0.96847,-1.03015c0,0 0.28217,1.76395 0.31661,2.23434c0.04591,0.67736 -1.31904,0.6656 -1.38408,0.10583c-0.07605,-0.77143 -0.38117,-2.18259 -0.38117,-2.18259c0,0 0.38117,1.64635 0.38117,2.3096c0,0.75732 -1.36065,0.77144 -1.52469,0.05175c-0.19034,-0.82317 -0.25921,-2.29314 -0.25921,-2.29314c0,0 0.24774,1.84392 0.26687,2.3143c0.02296,0.59268 -1.32287,0.70088 -1.44865,-0.09878c-0.16021,-1.01838 -0.16021,-2.24845 -0.16021,-2.24845c0,0 -0.60595,0.95959 -0.7853,1.30532c-0.27835,0.53153 -1.57826,0.40453 -1.37213,-0.34103c0.27069,-0.97841 1.15883,-2.09557 1.34917,-2.72353c0.19083,-0.62796 -2.98481,-7.39682 -4.0676,-9.72287c-0.83456,-1.78746 -3.47264,-7.12634 -3.47264,-7.12634l-1.36877,-7.91424" fill="none" stroke="#5e154d" stroke-linecap="round" stroke-linejoin="round"/></g><g stroke-width="0.75"><path d="M246.37118,120.88383c-0.78148,0 -2.44725,0.02379 -3.73568,-0.91947c-1.17795,-0.86136 -1.57443,-2.5048 -1.71551,-3.45599h2.02782c0,0 0.19082,2.51008 2.09669,2.7743c0.36347,0.04261 0.72983,0.06936 1.09808,0.07927c0.13965,0.50168 0.21617,1.01096 0.2286,1.5219z" fill="#ffc9c2" stroke="none" stroke-linecap="butt" stroke-linejoin="miter"/><path d="M242.79523,120.07531c1.46013,1.01196 3.57978,0.66054 3.57978,0.66054c0.02295,4.15352 -3.02308,5.70185 -7.31546,5.70185c-5.31441,0 -9.14958,-2.46516 -7.96015,-7.06521c0.47013,-0.00826 0.93882,-0.03831 1.40321,-0.08984c1.90587,-0.26422 2.09669,-2.7743 2.09669,-2.7743h6.32067c0.14109,0.95119 0.66716,2.72674 1.87525,3.56695z" fill="#f8b1a4" stroke="none" stroke-linecap="butt" stroke-linejoin="miter"/><path d="M231.0994,119.3725c0.47013,-0.00826 0.93882,-0.03831 1.40321,-0.08983c1.90587,-0.26422 2.09669,-2.7743 2.09669,-2.7743h8.34849c0,0 0.19082,2.51008 2.09669,2.7743c0.36347,0.04261 0.72983,0.06936 1.09808,0.07927c1.16265,6.06382 -2.1273,7.07578 -7.08302,7.07578c-5.31441,0 -9.14958,-2.46517 -7.96015,-7.06522z" fill="none" stroke="#5e154d" stroke-linecap="round" stroke-linejoin="round"/><path d="M250.18338,124.60403c-0.15926,1.36998 -0.2066,2.74523 -0.14109,4.11917c0.187,2.25114 0.64039,7.38492 0.8427,10.17772c0.06839,0.91155 0.12578,2.31455 0.17169,3.94743c-4.09151,0.57269 -8.25428,0.86565 -12.42805,0.87457c-4.07429,-0.00693 -8.13806,-0.28734 -12.13439,-0.83757c0.04592,-1.64873 0.10331,-3.06495 0.17169,-3.98443c0.25156,-3.47976 0.79296,-10.5027 0.79296,-10.5027c-0.03444,0.49937 0.099,-1.07801 -0.03444,-3.36879c-0.19035,-3.25782 -0.93022,-5.14699 -0.93022,-5.14699c1.49361,-0.32433 3.04794,-0.4964 4.61281,-0.50995c0.52608,1.12293 0.33956,4.37547 3.43103,5.69656c2.12347,0.91684 6.1265,0.98289 8.22319,-0.04756c2.4243,-1.19163 3.19812,-4.04255 3.38129,-5.65957c0.17552,0.00793 1.09808,0.02907 2.43194,0.12418c0.79773,0.05648 1.57635,0.2018 2.30665,0.43068c0,0 -0.32044,2.00542 -0.69778,4.68725z" fill="none" stroke="#5e154d" stroke-linecap="round" stroke-linejoin="round"/><path d="M251.06433,142.85628c-7.49097,1.06348 -15.20195,1.15299 -22.74027,0.26422c0.374,-3.98706 1.01439,-11.17646 1.01439,-14.21498c-0.06696,-3.1267 -0.38548,-6.24845 -0.95317,-9.35071c0.89721,-0.11164 1.80639,-0.1724 2.71795,-0.18232c0.52608,1.12293 0.33956,4.37547 3.43103,5.69657c2.12347,0.91684 6.1265,0.98289 8.22319,-0.04757c2.4243,-1.19163 3.19812,-4.04255 3.3813,-5.65957c0.17552,0.00793 1.09808,0.02907 2.43194,0.12419c0.79773,0.05648 1.57635,0.20179 2.30665,0.43067c0,0 -0.31278,2.00542 -0.69395,4.68725c-0.15926,1.36998 -0.2066,2.74523 -0.14109,4.11917c0.187,2.25114 0.64039,7.38492 0.84269,10.17772c0.06839,0.91155 0.12578,2.31455 0.17169,3.94743z" fill="#ffffff" stroke="none" stroke-linecap="butt" stroke-linejoin="miter"/><path d="M229.66989,130.84224c-0.13343,2.57613 -0.45339,8.45501 -0.89578,12.32317c-0.73557,-0.08719 -1.82217,-0.21401 -2.28751,-0.28007c0.04592,-1.64873 0.10331,-3.06495 0.17169,-3.98443c0.25156,-3.47976 0.79296,-10.5027 0.79296,-10.5027c-0.03444,0.49937 0.099,-1.07801 -0.03444,-3.36879c-0.19035,-3.25782 -0.93022,-5.14699 -0.93022,-5.14699c0.6557,-0.1506 2.18086,-0.38841 2.18086,-0.38841c0.82021,3.75455 1.15595,7.55237 1.00243,11.34821z" fill="#fff2bb" stroke="none" stroke-linecap="butt" stroke-linejoin="miter"/><path d="M251.05669,142.85628c-7.49097,1.06348 -15.20196,1.15299 -22.74028,0.26422c-0.74704,-0.08719 -1.3683,-0.16911 -1.83364,-0.23515c0.04592,-1.64873 0.10331,-3.06495 0.17169,-3.98443c0.25156,-3.47976 0.79296,-10.5027 0.79296,-10.5027c-0.03444,0.49937 0.099,-1.07801 -0.03444,-3.36879c-0.19035,-3.25782 -0.93022,-5.14699 -0.93022,-5.14699c0.62317,-0.14136 1.26021,-0.251 1.90634,-0.32763c0.89721,-0.11164 1.80639,-0.1724 2.71795,-0.18232c0.52608,1.12293 0.33956,4.37547 3.43103,5.69656c2.12347,0.91684 6.1265,0.98289 8.22319,-0.04756c2.4243,-1.19163 3.19812,-4.04255 3.38129,-5.65957c0.17552,0.00793 1.09808,0.02907 2.43194,0.12418c0.79773,0.05648 1.57635,0.2018 2.30665,0.43068c0,0 -0.31278,2.00542 -0.69395,4.68725c-0.15926,1.36998 -0.2066,2.74523 -0.14109,4.11917c0.187,2.25114 0.64039,7.38492 0.84269,10.17772c0.06839,0.92477 0.12579,2.31456 0.16787,3.95536z" fill="none" stroke="#5e154d" stroke-linecap="round" stroke-linejoin="round"/></g><path d="M232.1674,106.51449c-3.10621,-0.41263 -5.65294,-1.5789 -7.90022,-3.86558c-3.04639,-3.10622 -4.5763,-8.6317 -2.29213,-13.21652c2.28417,-4.58482 7.75702,-6.79619 7.75702,-6.79619c0,0 -1.42774,-1.04878 -3.09511,-0.38111c0,0 1.66737,-1.52733 3.09511,-1.9113c1.42738,-0.38398 2.71221,0.04871 3.04353,0.33527c0.44451,-1.16089 1.28948,-2.12262 2.38124,-2.71077c1.90162,-1.09749 3.37771,-0.95421 3.37771,-0.95421c0,0 -1.69029,2.0517 -1.89302,4.01171c0,0 2.79781,-1.67346 7.36615,-0.14327c4.56834,1.53019 7.67304,6.57651 6.88794,11.7269c0.03921,0.20011 1.51969,10.41026 -3.52168,12.79327c-5.00784,2.36691 -12.30557,1.50726 -15.20654,1.11181z" fill="#5e154d" stroke="#5e154d" stroke-width="0.75" stroke-linecap="round" stroke-linejoin="round"/><path d="M250.32335,105.94712c-0.22908,4.60659 -2.63649,7.66107 -4.10044,9.78072c-0.03826,0.01913 -0.06839,0.04592 -0.10665,0.06887c-1.60313,0.9656 -3.40808,1.54191 -5.27233,1.68348c-6.92281,0.57391 -11.44809,-2.08904 -14.0063,-6.04138c-1.78391,-2.7586 -2.1933,-6.41919 -2.17082,-10.55709c0.29221,-3.5042 0.4029,-15.50083 11.43806,-16.67646c5.78984,-0.61682 9.92032,0.79728 12.55668,4.31345c0.20948,3.71895 1.84449,13.77833 1.6618,17.4284z" fill="#f8b1a4" stroke="none" stroke-width="0.75" stroke-linecap="butt" stroke-linejoin="miter"/><path d="M246.22674,115.72784c1.46395,-2.11965 3.07425,-4.71117 3.30334,-9.30246c0.07029,-1.42999 1.22472,-16.25984 -6.30732,-19.36039c-2.30906,-0.95051 -8.75402,-0.73036 -11.3545,0.1525c-3.74032,1.26984 -5.79297,5.60556 -5.79297,5.60556c0,0 2.0577,-5.5571 4.88941,-7.06756c2.36518,-1.26161 6.42902,-1.70193 10.43641,-1.67406c0.41534,0.0797 4.60015,1.20836 7.07248,3.6911c2.15668,2.16576 2.66727,5.61391 2.66727,5.61391c0,0 0.49309,4.26607 0.61887,11.40935c0.08752,4.87442 -2.17417,8.82389 -5.53298,10.93205z" fill="#ffc9c2" stroke="none" stroke-width="0.75" stroke-linecap="butt" stroke-linejoin="miter"/><path d="M226.34216,91.3127c2.09621,-6.22024 7.43345,-7.7207 14.82246,-7.34228c5.13457,0.26296 10.02539,5.58863 10.0958,9.65514c0.05459,3.15276 -0.10856,4.74433 0.4993,11.28978c0.66065,7.11384 -4.64103,12.04448 -10.91197,12.56483c-6.92281,0.57391 -11.75322,-2.11583 -13.8346,-5.73911c-3.14121,-5.46746 -2.90447,-14.76291 -0.671,-20.42836z" fill="none" stroke="#5e154d" stroke-width="0.75" stroke-linecap="round" stroke-linejoin="round"/><path d="M229.92193,95.8973c0,0 0.63273,-1.08278 2.66869,-1.08278c2.03547,0 2.47786,1.08278 2.47786,1.08278" fill="none" stroke="#5e154d" stroke-width="0.75" stroke-linecap="round" stroke-linejoin="round"/><path d="M243.89761,95.8973c0,0 0.63657,-1.08278 2.41665,-1.08278c1.78056,0 2.53907,1.08278 2.53907,1.08278" fill="none" stroke="#5e154d" stroke-width="0.75" stroke-linecap="round" stroke-linejoin="round"/><path d="M240.5962,101.68233c0,0 0.03444,2.39895 0.47635,3.54677c0.44239,1.14782 0.23243,1.936 -0.63656,2.06608c-0.49883,0.06217 -0.9986,-0.10234 -1.36495,-0.44765" fill="none" stroke="#5e154d" stroke-width="0.75" stroke-linecap="round" stroke-linejoin="round"/><path d="M233.01722,100.3585c0.28504,0 0.5433,0.11621 0.73078,0.30369c0.187,0.18796 0.30274,0.44718 0.30274,0.73318c0,0.286 -0.11574,0.54521 -0.30274,0.73317c-0.18748,0.18748 -0.44573,0.3037 -0.73078,0.3037c-0.28456,0 -0.5433,-0.11622 -0.7303,-0.3037c-0.187,-0.18796 -0.30274,-0.44717 -0.30274,-0.73317c0,-0.286 0.11574,-0.54522 0.30274,-0.73318c0.187,-0.18748 0.44574,-0.30369 0.7303,-0.30369z" fill="#5e154d" stroke="#5e154d" stroke-width="0.75" stroke-linecap="round" stroke-linejoin="round"/><path d="M245.97135,100.3585c0.28504,0 0.5433,0.11621 0.7303,0.30369c0.187,0.18796 0.30274,0.44718 0.30274,0.73318c0,0.286 -0.11574,0.54521 -0.30274,0.73317c-0.187,0.18748 -0.44526,0.3037 -0.7303,0.3037c-0.28504,0 -0.5433,-0.11622 -0.7303,-0.3037c-0.187,-0.18796 -0.30274,-0.44717 -0.30274,-0.73317c0,-0.286 0.11574,-0.54522 0.30274,-0.73318c0.187,-0.18748 0.44526,-0.30369 0.7303,-0.30369z" fill="#5e154d" stroke="#5e154d" stroke-width="0.75" stroke-linecap="round" stroke-linejoin="round"/><path d="M238.43447,109.98873h3.68642c0,0 0,2.90017 -1.84512,2.90017c-1.84512,0 -1.8413,-2.90017 -1.8413,-2.90017z" fill="#ff7bd0" stroke="#5e154d" stroke-width="0.75" stroke-linecap="round" stroke-linejoin="round"/><g stroke-width="0.75"><path d="M228.22114,145.41924c-0.18037,1.2195 0.51862,3.126 0.4977,4.4668c-0.69361,-0.07717 -2.14286,-0.28194 -2.81077,-0.42273c-0.1477,-1.46075 -0.81726,-3.11686 -0.66957,-4.57761c0.25009,-2.11193 1.54384,-3.7642 1.54384,-3.7642l3.54066,-0.1913c0,0 -1.87967,3.00096 -2.10187,4.48905z" fill="#fff2bb" stroke="none" stroke-linecap="butt" stroke-linejoin="miter"/><path d="M251.52088,149.46331c0,0 -4.21615,0.98557 -11.57884,0.50687c0,0 -0.34724,-3.48523 -1.2221,-3.48523c-0.87529,0 -1.22254,3.48523 -1.22254,3.48523c-3.17355,0.23204 -5.81066,0.17139 -8.9559,-0.17979c0.02091,-1.33864 -0.58243,-2.48209 -0.40205,-4.37115c0.01695,-1.58374 1.2694,-2.87221 1.48463,-3.39857l0.12504,-0.22961l21.26617,-1.72173c0,0 0.99983,2.70444 1.25688,4.81637c0.15031,1.46048 -0.61011,3.11686 -0.75127,4.57761z" fill="#ffffff" stroke="none" stroke-linecap="butt" stroke-linejoin="miter"/><path d="M251.50694,149.46331c0,0 -4.21616,0.98557 -11.57886,0.50687c0,0 -0.34724,-3.48523 -1.2221,-3.48523c-0.87529,0 -1.22254,3.48523 -1.22254,3.48523c-7.3627,0.4787 -11.57537,-0.50687 -11.57537,-0.50687c-0.1477,-1.46075 -0.91291,-1.77774 -0.86086,-4.57761c0.15444,-2.39888 1.54384,-3.95551 1.54384,-3.95551l24.42422,-1.05217c0,0 0.90418,2.13054 1.16124,4.52942c0.24117,2.22596 -0.52405,3.59512 -0.66957,5.05587z" fill="none" stroke="#5e154d" stroke-linecap="round" stroke-linejoin="round"/></g><path d="M225.8657,107.03211c-1.90177,0 -3.34781,-1.62734 -3.34781,-3.63477c0,-2.00743 1.5417,-3.63477 3.44347,-3.63477" fill="#f8b1a4" stroke="#5e154d" stroke-width="0.75" stroke-linecap="butt" stroke-linejoin="miter"/></g></g></svg>