<svg version="1.1" xmlns="http://www.w3.org/2000/svg" xmlns:xlink="http://www.w3.org/1999/xlink" width="125.1911" height="204.0935" viewBox="0,0,125.1911,204.0935"><defs><linearGradient x1="262.72709" y1="27.00081" x2="262.72709" y2="251.13477" gradientUnits="userSpaceOnUse" id="color-1"><stop offset="0" stop-color="#000000"/><stop offset="1" stop-color="#000000" stop-opacity="0"/></linearGradient><linearGradient x1="219.15947" y1="105.43726" x2="304.08957" y2="155.3284" gradientUnits="userSpaceOnUse" id="color-2"><stop offset="0" stop-color="#c74040"/><stop offset="1" stop-color="#690000"/></linearGradient><radialGradient cx="260.43361" cy="131.42298" r="30.28241" gradientUnits="userSpaceOnUse" id="color-3"><stop offset="0" stop-color="#de3b3b"/><stop offset="1" stop-color="#940000"/></radialGradient></defs><g transform="translate(-199.13498,-16.06741)"><g data-paper-data="{&quot;isPaintingLayer&quot;:true}" fill-rule="nonzero" stroke-linecap="butt" stroke-linejoin="miter" stroke-miterlimit="10" stroke-dasharray="" stroke-dashoffset="0" style="mix-blend-mode: normal"><path d="M314.08304,179.1358c0.08904,2.35783 -8.00899,8.86158 -50.19209,8.86158c-42.1831,0 -53.96057,-5.5517 -53.97468,-9.34723c-0.01219,-3.27688 10.91867,-7.6474 53.10177,-7.6474c42.1831,0 50.98354,5.97629 51.065,8.13305z" fill="url(#color-1)" stroke="none" stroke-width="0"/><text transform="translate(244.76857,212.33836) scale(0.46015,0.46015)" font-size="40" xml:space="preserve" fill="#000000" fill-rule="nonzero" stroke="#000000" stroke-width="1" stroke-linecap="butt" stroke-linejoin="miter" stroke-miterlimit="10" stroke-dasharray="" stroke-dashoffset="0" font-family="Handwriting" font-weight="normal" text-anchor="start" style="mix-blend-mode: normal"></text><text transform="translate(199.38432,35.01763) scale(0.49869,0.49869)" font-size="40" xml:space="preserve" fill="#000000" fill-rule="nonzero" stroke="#000000" stroke-width="1" stroke-linecap="butt" stroke-linejoin="miter" stroke-miterlimit="10" stroke-dasharray="" stroke-dashoffset="0" font-family="Handwriting" font-weight="normal" text-anchor="start" style="mix-blend-mode: normal"></text><text transform="translate(200.78877,54.63273) scale(0.32909,0.32909)" font-size="40" xml:space="preserve" fill="#000000" fill-rule="nonzero" stroke="#000000" stroke-width="1" stroke-linecap="butt" stroke-linejoin="miter" stroke-miterlimit="10" stroke-dasharray="" stroke-dashoffset="0" font-family="Handwriting" font-weight="normal" text-anchor="start" style="mix-blend-mode: normal"></text><path d="M304.09005,155.32758c-13.75433,23.41411 -43.99448,31.27501 -67.41063,17.51948c-23.41513,-13.75493 -31.27381,-43.99652 -17.51948,-67.41063c13.75493,-23.41513 43.99448,-31.27501 67.41063,-17.51948c23.41615,13.75553 31.27381,43.99652 17.51948,67.41063z" fill="url(#color-2)" stroke="none" stroke-width="1"/><path d="M234.32253,116.08454c8.47127,-14.42071 27.02888,-19.24368 41.44958,-10.77241c14.42071,8.47127 19.24368,27.02888 10.77241,41.44958c-8.47127,14.42071 -27.02888,19.24368 -41.44958,10.77241c-14.42071,-8.47127 -19.24368,-27.02888 -10.77241,-41.44958z" fill="url(#color-3)" stroke="none" stroke-width="1"/></g></g></svg>