<svg version="1.1" xmlns="http://www.w3.org/2000/svg" xmlns:xlink="http://www.w3.org/1999/xlink" width="102.06645" height="196.17358" viewBox="0,0,102.06645,196.17358"><defs><linearGradient x1="242.62029" y1="-6.60764" x2="242.62029" y2="270.2804" gradientUnits="userSpaceOnUse" id="color-1"><stop offset="0" stop-color="#000000"/><stop offset="1" stop-color="#000000" stop-opacity="0"/></linearGradient><radialGradient cx="239.89557" cy="129.13481" r="51.03322" gradientUnits="userSpaceOnUse" id="color-2"><stop offset="0" stop-color="#e673b8"/><stop offset="1" stop-color="#e673b8" stop-opacity="0"/></radialGradient><radialGradient cx="206.96367" cy="102.35665" r="4.28414" gradientUnits="userSpaceOnUse" id="color-3"><stop offset="0" stop-color="#dbcd6e"/><stop offset="1" stop-color="#b3a236"/></radialGradient><radialGradient cx="240.11127" cy="131.32629" r="6.81715" gradientUnits="userSpaceOnUse" id="color-4"><stop offset="0" stop-color="#7f7f7f"/><stop offset="1" stop-color="#333333"/></radialGradient><radialGradient cx="232.97393" cy="132.04365" r="6.81714" gradientUnits="userSpaceOnUse" id="color-5"><stop offset="0" stop-color="#dc6e6e"/><stop offset="1" stop-color="#b23535"/></radialGradient><radialGradient cx="240.47393" cy="122.54365" r="6.81714" gradientUnits="userSpaceOnUse" id="color-6"><stop offset="0" stop-color="#dc6e6e"/><stop offset="1" stop-color="#b23535"/></radialGradient><radialGradient cx="230.86128" cy="123.07629" r="6.81714" gradientUnits="userSpaceOnUse" id="color-7"><stop offset="0" stop-color="#7f7f7f"/><stop offset="1" stop-color="#333333"/></radialGradient><radialGradient cx="270.46367" cy="151.35665" r="4.28413" gradientUnits="userSpaceOnUse" id="color-8"><stop offset="0" stop-color="#dbcd6e"/><stop offset="1" stop-color="#b3a236"/></radialGradient></defs><g transform="translate(-188.86234,-24.9391)"><g data-paper-data="{&quot;isPaintingLayer&quot;:true}" fill-rule="nonzero" stroke-linecap="butt" stroke-linejoin="miter" stroke-miterlimit="10" stroke-dasharray="" stroke-dashoffset="0" style="mix-blend-mode: normal"><path d="M290.52516,181.33513c0.08306,2.91279 -7.47079,10.94732 -46.81921,10.94732c-39.34842,0 -50.33445,-6.8584 -50.34761,-11.54727c-0.01137,-4.04815 10.18494,-9.44736 49.53336,-9.44736c39.34842,0 47.55747,7.38292 47.63346,10.04731z" fill="url(#color-1)" stroke="none" stroke-width="0"/><text transform="translate(223.04395,213.29013) scale(0.46015,0.46015)" font-size="40" xml:space="preserve" fill="#000000" fill-rule="nonzero" stroke="#000000" stroke-width="1" stroke-linecap="butt" stroke-linejoin="miter" stroke-miterlimit="10" stroke-dasharray="" stroke-dashoffset="0" font-family="Handwriting" font-weight="normal" text-anchor="start" style="mix-blend-mode: normal"></text><text transform="translate(212.69562,43.88932) scale(0.49869,0.49869)" font-size="40" xml:space="preserve" fill="#000000" fill-rule="nonzero" stroke="#000000" stroke-width="1" stroke-linecap="butt" stroke-linejoin="miter" stroke-miterlimit="10" stroke-dasharray="" stroke-dashoffset="0" font-family="Handwriting" font-weight="normal" text-anchor="start" style="mix-blend-mode: normal"></text><text transform="translate(202.59859,63.06245) scale(0.32909,0.32909)" font-size="40" xml:space="preserve" fill="#000000" fill-rule="nonzero" stroke="#000000" stroke-width="1" stroke-linecap="butt" stroke-linejoin="miter" stroke-miterlimit="10" stroke-dasharray="" stroke-dashoffset="0" font-family="Handwriting" font-weight="normal" text-anchor="start" style="mix-blend-mode: normal"></text><g stroke="none" stroke-width="0"><path d="M290.92879,129.13481c0,27.31765 -22.84835,49.46298 -51.03322,49.46298c-28.18488,0 -51.03323,-22.14533 -51.03323,-49.46297c0,-27.31764 22.84836,-49.46297 51.03323,-49.46297c28.18488,0 51.03322,22.14533 51.03322,49.46297z" fill="url(#color-2)"/><g><path d="M212.78628,103.7536c0,2.36606 -1.89308,4.28414 -4.22831,4.28414c-2.33523,0 -4.22831,-1.91807 -4.22831,-4.28414c0,-2.36606 1.89308,-4.28413 4.22831,-4.28413c2.33523,0 4.22831,1.91807 4.22831,4.28413z" fill="url(#color-3)"/><path d="M206.10535,104.57957l-0.03303,-1.31307l4.84521,0.06038l-0.00993,1.31588z" fill="#524011"/></g><g><g fill="url(#color-4)"><path d="M249.37651,133.5492c0,3.765 -3.01236,6.81714 -6.72831,6.81714c-3.71595,0 -6.72831,-3.05214 -6.72831,-6.81714c0,-3.76501 3.01237,-6.81714 6.72831,-6.81714c3.71595,0 6.72831,3.05213 6.72831,6.81714z"/></g><g><path d="M242.23917,134.26656c0,3.765 -3.01237,6.81714 -6.72831,6.81714c-3.71594,0 -6.72831,-3.05214 -6.72831,-6.81714c0,-3.765 3.01237,-6.81714 6.72831,-6.81714c3.71594,0 6.72831,3.05214 6.72831,6.81714z" fill="url(#color-5)"/><path d="M234.24323,138.58535v-2.85416l-2.63511,-0.15031l-0.05256,-2.08943l2.68768,-0.08959v-3.48129h2.36312v3.66047l2.65915,0.00649l-0.01579,2.0939c0,0 -2.69748,0.07847 -2.69469,0.22874c0.01586,0.85396 0.05133,2.67518 0.05133,2.67518z" fill="#511111"/></g><g data-paper-data="{&quot;index&quot;:null}"><path d="M249.73917,124.76656c0,3.76501 -3.01236,6.81714 -6.72831,6.81714c-3.71595,0 -6.72831,-3.05213 -6.72831,-6.81714c0,-3.76501 3.01237,-6.81715 6.72831,-6.81715c3.71595,0 6.72831,3.05214 6.72831,6.81715z" fill="url(#color-6)"/><path d="M241.74323,129.08536v-2.85417l-2.63512,-0.15031l-0.05256,-2.08943l2.68768,-0.08959v-3.48129h2.36312v3.66047l2.65915,0.00649l-0.01579,2.0939c0,0 -2.69748,0.07846 -2.69469,0.22873c0.01585,0.85396 0.05133,2.67518 0.05133,2.67518z" fill="#511111"/></g><g fill="url(#color-7)"><path d="M240.12651,125.29919c0,3.76501 -3.01236,6.81715 -6.72831,6.81715c-3.71595,0 -6.72832,-3.05214 -6.72832,-6.81715c0,-3.76501 3.01237,-6.81714 6.72832,-6.81714c3.71595,0 6.72831,3.05213 6.72831,6.81714z"/></g></g><g><path d="M276.28628,152.75361c0,2.36606 -1.89308,4.28413 -4.22831,4.28413c-2.33524,0 -4.22832,-1.91807 -4.22832,-4.28413c0,-2.36606 1.89308,-4.28413 4.22832,-4.28413c2.33524,0 4.22831,1.91807 4.22831,4.28413z" fill="url(#color-8)"/><path d="M269.60535,153.57958l-0.03303,-1.31307l4.8452,0.06038l-0.00992,1.31588z" fill="#524011"/></g></g></g></g></svg>