<svg version="1.1" xmlns="http://www.w3.org/2000/svg" xmlns:xlink="http://www.w3.org/1999/xlink" width="135.62348" height="178.97305" viewBox="0,0,135.62348,178.97305"><defs><linearGradient x1="240.61952" y1="58.29925" x2="240.61952" y2="237.16748" gradientUnits="userSpaceOnUse" id="color-1"><stop offset="0" stop-color="#80b5ff"/><stop offset="1" stop-color="#80b5ff" stop-opacity="0"/></linearGradient></defs><g transform="translate(-178.30764,-33.02708)"><g data-paper-data="{&quot;isPaintingLayer&quot;:true}" stroke-linecap="butt" stroke-linejoin="miter" stroke-miterlimit="10" stroke-dasharray="" stroke-dashoffset="0" style="mix-blend-mode: normal"><path d="M284.37023,179.70936c0.07585,1.88165 -6.82295,7.07192 -42.75929,7.07192c-35.93634,0 -45.96971,-4.43047 -45.98172,-7.45949c-0.01038,-2.6151 9.30175,-6.10294 45.23807,-6.10294c35.93634,0 43.43354,4.76932 43.50294,6.49051z" fill="url(#color-1)" fill-rule="nonzero" stroke="none" stroke-width="0"/><text transform="translate(219.40924,206.02038) scale(0.357,0.357)" font-size="40" xml:space="preserve" fill="#ffffff" fill-rule="nonzero" stroke="#ffffff" stroke-width="0.5" stroke-linecap="butt" stroke-linejoin="miter" stroke-miterlimit="10" stroke-dasharray="" stroke-dashoffset="0" font-family="Handwriting" font-weight="normal" text-anchor="start" style="mix-blend-mode: normal"></text><text transform="translate(212.75236,46.13594) scale(0.34497,0.34497)" font-size="40" xml:space="preserve" fill="#ffffff" fill-rule="nonzero" stroke="#ffffff" stroke-width="1" stroke-linecap="butt" stroke-linejoin="miter" stroke-miterlimit="10" stroke-dasharray="" stroke-dashoffset="0" font-family="Handwriting" font-weight="normal" text-anchor="start" style="mix-blend-mode: normal"></text><text transform="translate(178.93818,66.43207) scale(0.26747,0.26747)" font-size="40" xml:space="preserve" fill="#ffffff" fill-rule="nonzero" stroke="#ffffff" stroke-width="1" stroke-linecap="butt" stroke-linejoin="miter" stroke-miterlimit="10" stroke-dasharray="" stroke-dashoffset="0" font-family="Handwriting" font-weight="normal" text-anchor="start" style="mix-blend-mode: normal"></text><g stroke="none"><path d="M303.67666,129.77283c0,5.1252 -2.22455,9.99162 -4.43244,14.73813c-2.8163,6.05447 -6.28675,11.77758 -12.44214,16.12106c-6.05229,4.27074 -14.50058,6.13265 -22.91977,8.16159c-7.42362,1.78902 -14.63122,3.99799 -22.89016,3.99799c-9.12728,0 -18.01622,0.3995 -25.83809,-2.00747c-7.73301,-2.37962 -13.52179,-7.10753 -19.17753,-11.59534c-5.50706,-4.36984 -11.47085,-7.49461 -14.62021,-12.79706c-2.75366,-4.63623 -3.04868,-11.34666 -3.04868,-16.61891c0,-5.47696 0.14041,-11.52145 3.14357,-16.55903c3.04328,-5.10485 7.36355,-9.91936 13.18482,-13.86115c3.40889,-2.30829 7.51643,-3.89941 11.63917,-5.67251c3.86785,-1.66348 7.72302,-3.53919 11.79454,-4.78279c8.58891,-2.6234 19.19893,-3.01241 28.57165,-3.01241c6.52435,0 13.2671,2.0186 18.85621,3.33799c8.20382,1.93664 14.38167,6.97967 20.10726,10.97208c7.55124,5.26541 12.95062,9.11849 15.20635,17.41739c1.0517,3.86924 2.86542,8.11923 2.86542,12.16044z" fill="#7fa9ff" fill-rule="nonzero" stroke-width="0"/><path d="M295.98687,137.21601c0.9462,2.69895 1.30102,5.62922 -1.30102,8.01971c-1.53757,1.38802 -3.66651,1.31091 -5.20407,2.39049c-3.90306,2.77605 -1.06447,6.78591 -4.6127,10.33309c-2.01067,2.00493 -8.39748,2.31338 -12.18227,2.46761c-0.35482,0 -2.24721,0.23134 -2.48376,1.2338c-1.65584,3.85563 -8.51576,4.47252 -14.31121,4.78098c-4.37615,0.23134 -7.80611,1.92781 -12.30054,1.46514c-2.01067,-0.23134 -4.02133,-0.92534 -6.032,-1.07957c-3.07514,-0.23134 -4.1396,0.69401 -6.74164,0.92535c-3.90306,0.23134 -6.15027,-1.69648 -9.46195,-2.54472c-3.42996,-0.84823 -7.21474,-0.53978 -10.52642,-1.69648c-3.54823,-1.2338 -5.44062,-3.6243 -8.75231,-5.01232c-2.60204,-1.07958 -4.1396,-2.39049 -5.44062,-4.24119c-1.18274,-1.54225 -1.41929,-2.69894 -3.78478,-3.7014c-1.18274,-0.53979 -2.12894,-0.69401 -3.19341,-1.38803c-2.60204,-1.69648 -5.79545,-2.4676 -6.26854,-6.94014c-0.11827,-1.31091 -0.82792,-2.23627 -0.82792,-3.54718c0,-1.38802 -0.23655,-2.31337 -0.82792,-3.77851c-1.18274,-2.54472 0.59137,-5.01232 1.41929,-7.63415c0.9462,-3.31584 -0.23655,-5.93767 0,-9.33062c0.11827,-2.39049 1.30102,-4.16408 3.90306,-5.86056c1.65584,-1.00246 3.78478,-1.61937 5.0858,-2.93028c1.41929,-1.46514 1.77412,-3.23873 2.83859,-4.78098c1.30102,-1.92782 3.07514,-3.47006 6.15027,-4.39541c0.23655,-0.07711 9.81678,-2.23627 17.14979,-6.94014c4.73098,-3.0845 10.6447,-0.38556 16.79497,-0.23133c6.85992,0.15423 12.53709,-1.85071 19.27873,-0.15423c3.07514,0.77113 5.91372,2.08205 8.98886,2.69895c2.95686,0.6169 4.73098,-0.07711 7.80611,0.38556c5.79545,0.92536 8.39748,7.71126 12.65536,11.0271c4.25788,3.23873 9.93505,3.62428 11.47262,8.09682c0.82792,2.15915 -0.35482,4.2412 1.06447,6.24613c1.18274,1.61936 3.19341,2.85316 4.02133,4.54964c1.77412,3.77851 -5.44062,8.94507 -4.37615,11.56689z" fill="#b1cbff" fill-rule="evenodd" stroke-width="1"/><path d="M240.16134,94.49563c6.032,0 12.89191,2.54471 18.33254,3.85562c5.79545,1.31091 10.76297,1.00246 15.49395,3.47007c4.37615,2.31338 3.90306,5.32078 6.97819,8.48239c2.12894,2.15915 7.92439,3.85563 9.93505,6.63169c2.83859,3.85563 1.65584,8.86794 1.65584,12.72357c0,2.62182 1.65584,7.63414 0.82792,10.10175c-2.01067,5.70633 -10.99952,7.47992 -16.67669,11.72112c-4.6127,3.39295 -7.56956,7.01724 -13.83811,8.94506c-6.85992,2.15915 -12.65536,5.24366 -20.8163,5.24366c-4.37615,0 -10.52642,-3.85563 -14.54775,-4.54965c-5.44062,-0.84823 -16.08532,0.84823 -18.68736,-2.31338c-8.75231,-10.79576 -11.59089,-9.33062 -15.7305,-13.34047c-5.5589,-5.39788 -3.66651,-9.1764 -3.66651,-16.19364c0,-3.6243 -3.07514,-7.09436 -1.41929,-10.33309c2.01067,-4.08697 7.56956,-7.47992 11.59089,-10.71865c5.67717,-4.62675 16.2036,-6.55457 24.71935,-8.79083c5.67717,-1.46514 9.10713,-4.93521 15.84877,-4.93521z" fill="#cbdcff" fill-rule="evenodd" stroke-width="1"/><path d="M192.96984,129.65898c0,-16.99265 21.12835,-30.76792 47.1915,-30.76792c26.06314,0 47.1915,13.77527 47.1915,30.76792c0,16.99265 -21.12835,30.76793 -47.1915,30.76793c-26.06314,0 -47.1915,-13.77527 -47.1915,-30.76793z" fill="#eaf1ff" fill-rule="evenodd" stroke-width="1"/></g></g></g></svg>