<svg version="1.1" xmlns="http://www.w3.org/2000/svg" xmlns:xlink="http://www.w3.org/1999/xlink" width="218.87807" height="174.24161" viewBox="0,0,218.87807,174.24161"><defs><linearGradient x1="240.61955" y1="58.29931" x2="240.61955" y2="237.16754" gradientUnits="userSpaceOnUse" id="color-1"><stop offset="0" stop-color="#000000"/><stop offset="1" stop-color="#000000" stop-opacity="0"/></linearGradient><radialGradient cx="206" cy="165.75" r="14.25" gradientUnits="userSpaceOnUse" id="color-2"><stop offset="0" stop-color="#656565"/><stop offset="1" stop-color="#656565" stop-opacity="0"/></radialGradient><radialGradient cx="221.75" cy="154.4697" r="18.5" gradientUnits="userSpaceOnUse" id="color-3"><stop offset="0" stop-color="#656565"/><stop offset="1" stop-color="#656565" stop-opacity="0"/></radialGradient><radialGradient cx="237.25" cy="146.25" r="14.5" gradientUnits="userSpaceOnUse" id="color-4"><stop offset="0" stop-color="#656565"/><stop offset="1" stop-color="#656565" stop-opacity="0"/></radialGradient><radialGradient cx="226" cy="132.75" r="10.75" gradientUnits="userSpaceOnUse" id="color-5"><stop offset="0" stop-color="#656565"/><stop offset="1" stop-color="#656565" stop-opacity="0"/></radialGradient><radialGradient cx="221.25" cy="120.25" r="14.5" gradientUnits="userSpaceOnUse" id="color-6"><stop offset="0" stop-color="#656565"/><stop offset="1" stop-color="#656565" stop-opacity="0"/></radialGradient><radialGradient cx="241.5" cy="116.75" r="16.25" gradientUnits="userSpaceOnUse" id="color-7"><stop offset="0" stop-color="#656565"/><stop offset="1" stop-color="#656565" stop-opacity="0"/></radialGradient><radialGradient cx="264.25" cy="112.75" r="12.5" gradientUnits="userSpaceOnUse" id="color-8"><stop offset="0" stop-color="#656565"/><stop offset="1" stop-color="#656565" stop-opacity="0"/></radialGradient><radialGradient cx="254.75" cy="97.5" r="11.5" gradientUnits="userSpaceOnUse" id="color-9"><stop offset="0" stop-color="#656565"/><stop offset="1" stop-color="#656565" stop-opacity="0"/></radialGradient><radialGradient cx="264.5" cy="89.25" r="13.75" gradientUnits="userSpaceOnUse" id="color-10"><stop offset="0" stop-color="#656565"/><stop offset="1" stop-color="#656565" stop-opacity="0"/></radialGradient><radialGradient cx="280" cy="85.75" r="13.75" gradientUnits="userSpaceOnUse" id="color-11"><stop offset="0" stop-color="#656565"/><stop offset="1" stop-color="#656565" stop-opacity="0"/></radialGradient><radialGradient cx="239.75" cy="159.5" r="14.5" gradientUnits="userSpaceOnUse" id="color-12"><stop offset="0" stop-color="#656565"/><stop offset="1" stop-color="#656565" stop-opacity="0"/></radialGradient><radialGradient cx="221" cy="155.5" r="6.25" gradientUnits="userSpaceOnUse" id="color-13"><stop offset="0" stop-color="#9e9e9e"/><stop offset="1" stop-color="#9e9e9e" stop-opacity="0"/></radialGradient><radialGradient cx="237" cy="139.25" r="10.25" gradientUnits="userSpaceOnUse" id="color-14"><stop offset="0" stop-color="#9e9e9e"/><stop offset="1" stop-color="#9e9e9e" stop-opacity="0"/></radialGradient><radialGradient cx="223" cy="122" r="4.25" gradientUnits="userSpaceOnUse" id="color-15"><stop offset="0" stop-color="#9e9e9e"/><stop offset="1" stop-color="#9e9e9e" stop-opacity="0"/></radialGradient><radialGradient cx="240.5" cy="113.25" r="9.5" gradientUnits="userSpaceOnUse" id="color-16"><stop offset="0" stop-color="#9e9e9e"/><stop offset="1" stop-color="#9e9e9e" stop-opacity="0"/></radialGradient><radialGradient cx="260.5" cy="112" r="5.25" gradientUnits="userSpaceOnUse" id="color-17"><stop offset="0" stop-color="#9e9e9e"/><stop offset="1" stop-color="#9e9e9e" stop-opacity="0"/></radialGradient><radialGradient cx="257.75" cy="97" r="7" gradientUnits="userSpaceOnUse" id="color-18"><stop offset="0" stop-color="#9e9e9e"/><stop offset="1" stop-color="#9e9e9e" stop-opacity="0"/></radialGradient><radialGradient cx="260.5" cy="88.25" r="5.5" gradientUnits="userSpaceOnUse" id="color-19"><stop offset="0" stop-color="#9e9e9e"/><stop offset="1" stop-color="#9e9e9e" stop-opacity="0"/></radialGradient><radialGradient cx="277" cy="83.5" r="3.25" gradientUnits="userSpaceOnUse" id="color-20"><stop offset="0" stop-color="#9e9e9e"/><stop offset="1" stop-color="#9e9e9e" stop-opacity="0"/></radialGradient><radialGradient cx="207" cy="162" r="6.25" gradientUnits="userSpaceOnUse" id="color-21"><stop offset="0" stop-color="#9e9e9e"/><stop offset="1" stop-color="#9e9e9e" stop-opacity="0"/></radialGradient><radialGradient cx="235.25" cy="154.25" r="2.5" gradientUnits="userSpaceOnUse" id="color-22"><stop offset="0" stop-color="#9e9e9e"/><stop offset="1" stop-color="#9e9e9e" stop-opacity="0"/></radialGradient><radialGradient cx="215.75" cy="145.5" r="4.5" gradientUnits="userSpaceOnUse" id="color-23"><stop offset="0" stop-color="#9e9e9e"/><stop offset="1" stop-color="#9e9e9e" stop-opacity="0"/></radialGradient><radialGradient cx="238.5" cy="124.25" r="2.75" gradientUnits="userSpaceOnUse" id="color-24"><stop offset="0" stop-color="#e6e6e6"/><stop offset="1" stop-color="#e6e6e6" stop-opacity="0"/></radialGradient><radialGradient cx="214.75" cy="118" r="2.25" gradientUnits="userSpaceOnUse" id="color-25"><stop offset="0" stop-color="#e6e6e6"/><stop offset="1" stop-color="#e6e6e6" stop-opacity="0"/></radialGradient><radialGradient cx="230.75" cy="116.25" r="1" gradientUnits="userSpaceOnUse" id="color-26"><stop offset="0" stop-color="#e6e6e6"/><stop offset="1" stop-color="#e6e6e6" stop-opacity="0"/></radialGradient><radialGradient cx="251" cy="113.5" r="1.25" gradientUnits="userSpaceOnUse" id="color-27"><stop offset="0" stop-color="#e6e6e6"/><stop offset="1" stop-color="#e6e6e6" stop-opacity="0"/></radialGradient><radialGradient cx="228.25" cy="144.25" r="1.5" gradientUnits="userSpaceOnUse" id="color-28"><stop offset="0" stop-color="#e6e6e6"/><stop offset="1" stop-color="#e6e6e6" stop-opacity="0"/></radialGradient><radialGradient cx="238.5" cy="168" r="1.25" gradientUnits="userSpaceOnUse" id="color-29"><stop offset="0" stop-color="#e6e6e6"/><stop offset="1" stop-color="#e6e6e6" stop-opacity="0"/></radialGradient><radialGradient cx="215.75" cy="164.75" r="1" gradientUnits="userSpaceOnUse" id="color-30"><stop offset="0" stop-color="#e6e6e6"/><stop offset="1" stop-color="#e6e6e6" stop-opacity="0"/></radialGradient><radialGradient cx="205.25" cy="170.75" r="1" gradientUnits="userSpaceOnUse" id="color-31"><stop offset="0" stop-color="#e6e6e6"/><stop offset="1" stop-color="#e6e6e6" stop-opacity="0"/></radialGradient><radialGradient cx="269.75" cy="93.75" r="1" gradientUnits="userSpaceOnUse" id="color-32"><stop offset="0" stop-color="#e6e6e6"/><stop offset="1" stop-color="#e6e6e6" stop-opacity="0"/></radialGradient><radialGradient cx="267.25" cy="80.25" r="2" gradientUnits="userSpaceOnUse" id="color-33"><stop offset="0" stop-color="#e6e6e6"/><stop offset="1" stop-color="#e6e6e6" stop-opacity="0"/></radialGradient></defs><g transform="translate(-136.08295,-39.59483)"><g data-paper-data="{&quot;isPaintingLayer&quot;:true}" fill-rule="nonzero" stroke-linecap="butt" stroke-linejoin="miter" stroke-miterlimit="10" stroke-dasharray="" stroke-dashoffset="0" style="mix-blend-mode: normal"><path d="M284.37023,179.70942c0.07585,1.88165 -6.82295,7.07192 -42.75929,7.07192c-35.93634,0 -45.96971,-4.43047 -45.98172,-7.45949c-0.01038,-2.6151 9.30175,-6.10294 45.23807,-6.10294c35.93634,0 43.43354,4.76932 43.50294,6.49051z" fill="url(#color-1)" stroke="none" stroke-width="0"/><text transform="translate(223.71781,207.85669) scale(0.357,0.357)" font-size="40" xml:space="preserve" fill="#ffffff" fill-rule="nonzero" stroke="#ffffff" stroke-width="0.5" stroke-linecap="butt" stroke-linejoin="miter" stroke-miterlimit="10" stroke-dasharray="" stroke-dashoffset="0" font-family="Handwriting" font-weight="normal" text-anchor="start" style="mix-blend-mode: normal"></text><text transform="translate(136.25543,52.70369) scale(0.34497,0.34497)" font-size="40" xml:space="preserve" fill="#ffffff" fill-rule="nonzero" stroke="#ffffff" stroke-width="1" stroke-linecap="butt" stroke-linejoin="miter" stroke-miterlimit="10" stroke-dasharray="" stroke-dashoffset="0" font-family="Handwriting" font-weight="normal" text-anchor="start" style="mix-blend-mode: normal"></text><text transform="translate(177.20844,68.94219) scale(0.26747,0.26747)" font-size="40" xml:space="preserve" fill="#ffffff" fill-rule="nonzero" stroke="#ffffff" stroke-width="1" stroke-linecap="butt" stroke-linejoin="miter" stroke-miterlimit="10" stroke-dasharray="" stroke-dashoffset="0" font-family="Handwriting" font-weight="normal" text-anchor="start" style="mix-blend-mode: normal"></text><path d="M220.25,165.75c0,7.45584 -6.37994,13.5 -14.25,13.5c-7.87006,0 -14.25,-6.04416 -14.25,-13.5c0,-7.45584 6.37994,-13.5 14.25,-13.5c7.87006,0 14.25,6.04416 14.25,13.5z" fill="url(#color-2)" stroke="none" stroke-width="0"/><path d="M240.25,154.4697c0,10.06246 -8.28273,18.2197 -18.5,18.2197c-10.21727,0 -18.5,-8.15724 -18.5,-18.2197c0,-10.06246 8.28273,-18.2197 18.5,-18.2197c10.21727,0 18.5,8.15724 18.5,18.2197z" fill="url(#color-3)" stroke="none" stroke-width="0"/><path d="M249.25,146.25c0,8.00813 -5.37258,14.5 -12,14.5c-6.62742,0 -12,-6.49187 -12,-14.5c0,-8.00813 5.37258,-14.5 12,-14.5c6.62742,0 12,6.49187 12,14.5z" fill="url(#color-4)" stroke="none" stroke-width="0"/><path d="M236.75,132.75c0,5.24671 -4.81294,9.5 -10.75,9.5c-5.93706,0 -10.75,-4.25329 -10.75,-9.5c0,-5.24671 4.81294,-9.5 10.75,-9.5c5.93706,0 10.75,4.25329 10.75,9.5z" fill="url(#color-5)" stroke="none" stroke-width="0"/><path d="M235.75,120.25c0,5.79899 -6.49187,10.5 -14.5,10.5c-8.00813,0 -14.5,-4.70101 -14.5,-10.5c0,-5.79899 6.49187,-10.5 14.5,-10.5c8.00813,0 14.5,4.70101 14.5,10.5z" fill="url(#color-6)" stroke="none" stroke-width="0"/><path d="M257.75,116.75c0,7.73199 -7.27537,14 -16.25,14c-8.97463,0 -16.25,-6.26801 -16.25,-14c0,-7.73199 7.27537,-14 16.25,-14c8.97463,0 16.25,6.26801 16.25,14z" fill="url(#color-7)" stroke="none" stroke-width="0"/><path d="M274.75,112.75c0,6.90356 -4.70101,12.5 -10.5,12.5c-5.79899,0 -10.5,-5.59644 -10.5,-12.5c0,-6.90356 4.70101,-12.5 10.5,-12.5c5.79899,0 10.5,5.59644 10.5,12.5z" fill="url(#color-8)" stroke="none" stroke-width="0"/><path d="M266.25,97.5c0,5.38478 -5.14873,9.75 -11.5,9.75c-6.35127,0 -11.5,-4.36522 -11.5,-9.75c0,-5.38478 5.14873,-9.75 11.5,-9.75c6.35127,0 11.5,4.36522 11.5,9.75z" fill="url(#color-9)" stroke="none" stroke-width="0"/><path d="M278.25,89.25c0,6.62742 -6.15608,12 -13.75,12c-7.59392,0 -13.75,-5.37258 -13.75,-12c0,-6.62742 6.15608,-12 13.75,-12c7.59392,0 13.75,5.37258 13.75,12z" fill="url(#color-10)" stroke="none" stroke-width="0"/><path d="M293.75,85.75c0,6.35127 -6.15608,11.5 -13.75,11.5c-7.59392,0 -13.75,-5.14873 -13.75,-11.5c0,-6.35127 6.15608,-11.5 13.75,-11.5c7.59392,0 13.75,5.14873 13.75,11.5z" fill="url(#color-11)" stroke="none" stroke-width="0"/><path d="M254.25,159.5c0,7.87006 -6.49187,14.25 -14.5,14.25c-8.00813,0 -14.5,-6.37994 -14.5,-14.25c0,-7.87006 6.49187,-14.25 14.5,-14.25c8.00813,0 14.5,6.37994 14.5,14.25z" fill="url(#color-12)" stroke="none" stroke-width="0"/><path d="M227.25,155.5c0,3.45178 -2.79822,6.25 -6.25,6.25c-3.45178,0 -6.25,-2.79822 -6.25,-6.25c0,-3.45178 2.79822,-6.25 6.25,-6.25c3.45178,0 6.25,2.79822 6.25,6.25z" fill="url(#color-13)" stroke="none" stroke-width="0"/><path d="M247.25,139.25c0,4.97056 -4.58908,9 -10.25,9c-5.66092,0 -10.25,-4.02944 -10.25,-9c0,-4.97056 4.58908,-9 10.25,-9c5.66092,0 10.25,4.02944 10.25,9z" fill="url(#color-14)" stroke="none" stroke-width="0"/><path d="M227.25,122c0,2.07107 -1.90279,3.75 -4.25,3.75c-2.34721,0 -4.25,-1.67893 -4.25,-3.75c0,-2.07107 1.90279,-3.75 4.25,-3.75c2.34721,0 4.25,1.67893 4.25,3.75z" fill="url(#color-15)" stroke="none" stroke-width="0"/><path d="M249.75,113.25c0,5.24671 -4.14137,9.5 -9.25,9.5c-5.10863,0 -9.25,-4.25329 -9.25,-9.5c0,-5.24671 4.14137,-9.5 9.25,-9.5c5.10863,0 9.25,4.25329 9.25,9.5z" fill="url(#color-16)" stroke="none" stroke-width="0"/><path d="M265.75,112c0,2.07107 -2.35051,3.75 -5.25,3.75c-2.89949,0 -5.25,-1.67893 -5.25,-3.75c0,-2.07107 2.35051,-3.75 5.25,-3.75c2.89949,0 5.25,1.67893 5.25,3.75z" fill="url(#color-17)" stroke="none" stroke-width="0"/><path d="M264.75,97c0,3.72792 -3.13401,6.75 -7,6.75c-3.86599,0 -7,-3.02208 -7,-6.75c0,-3.72792 3.13401,-6.75 7,-6.75c3.86599,0 7,3.02208 7,6.75z" fill="url(#color-18)" stroke="none" stroke-width="0"/><path d="M265.25,88.25c0,3.03757 -2.12665,5.5 -4.75,5.5c-2.62335,0 -4.75,-2.46243 -4.75,-5.5c0,-3.03757 2.12665,-5.5 4.75,-5.5c2.62335,0 4.75,2.46243 4.75,5.5z" fill="url(#color-19)" stroke="none" stroke-width="0"/><path d="M280.25,83.5c0,1.51878 -1.45507,2.75 -3.25,2.75c-1.79493,0 -3.25,-1.23122 -3.25,-2.75c0,-1.51878 1.45507,-2.75 3.25,-2.75c1.79493,0 3.25,1.23122 3.25,2.75z" fill="url(#color-20)" stroke="none" stroke-width="0"/><path d="M213.25,162c0,2.34721 -2.79822,4.25 -6.25,4.25c-3.45178,0 -6.25,-1.90279 -6.25,-4.25c0,-2.34721 2.79822,-4.25 6.25,-4.25c3.45178,0 6.25,1.90279 6.25,4.25z" fill="url(#color-21)" stroke="none" stroke-width="0"/><path d="M237.75,154.25c0,1.38071 -1.11929,2.5 -2.5,2.5c-1.38071,0 -2.5,-1.11929 -2.5,-2.5c0,-1.38071 1.11929,-2.5 2.5,-2.5c1.38071,0 2.5,1.11929 2.5,2.5z" fill="url(#color-22)" stroke="none" stroke-width="0"/><path d="M220.25,145.5c0,2.34721 -2.01472,4.25 -4.5,4.25c-2.48528,0 -4.5,-1.90279 -4.5,-4.25c0,-2.34721 2.01472,-4.25 4.5,-4.25c2.48528,0 4.5,1.90279 4.5,4.25z" fill="url(#color-23)" stroke="none" stroke-width="0"/><path d="M241.25,124.25c0,1.38071 -1.23122,2.5 -2.75,2.5c-1.51878,0 -2.75,-1.11929 -2.75,-2.5c0,-1.38071 1.23122,-2.5 2.75,-2.5c1.51878,0 2.75,1.11929 2.75,2.5z" fill="url(#color-24)" stroke="none" stroke-width="0"/><path d="M216.75,118c0,1.24264 -0.89543,2.25 -2,2.25c-1.10457,0 -2,-1.00736 -2,-2.25c0,-1.24264 0.89543,-2.25 2,-2.25c1.10457,0 2,1.00736 2,2.25z" fill="url(#color-25)" stroke="none" stroke-width="0"/><path d="M231.75,116.25c0,0.55228 -0.44772,1 -1,1c-0.55228,0 -1,-0.44772 -1,-1c0,-0.55228 0.44772,-1 1,-1c0.55228,0 1,0.44772 1,1z" fill="url(#color-26)" stroke="none" stroke-width="0"/><path d="M252.25,113.5c0,0.69036 -0.55964,1.25 -1.25,1.25c-0.69036,0 -1.25,-0.55964 -1.25,-1.25c0,-0.69036 0.55964,-1.25 1.25,-1.25c0.69036,0 1.25,0.55964 1.25,1.25z" fill="url(#color-27)" stroke="none" stroke-width="0"/><path d="M229.75,144.25c0,0.82843 -0.67157,1.5 -1.5,1.5c-0.82843,0 -1.5,-0.67157 -1.5,-1.5c0,-0.82843 0.67157,-1.5 1.5,-1.5c0.82843,0 1.5,0.67157 1.5,1.5z" fill="url(#color-28)" stroke="none" stroke-width="0"/><path d="M239.75,168c0,0.13807 -0.55964,0.25 -1.25,0.25c-0.69036,0 -1.25,-0.11193 -1.25,-0.25c0,-0.13807 0.55964,-0.25 1.25,-0.25c0.69036,0 1.25,0.11193 1.25,0.25z" fill="url(#color-29)" stroke="none" stroke-width="0"/><path d="M216.75,164.75c0,0.55228 -0.44772,1 -1,1c-0.55228,0 -1,-0.44772 -1,-1c0,-0.55228 0.44772,-1 1,-1c0.55228,0 1,0.44772 1,1z" fill="url(#color-30)" stroke="none" stroke-width="0"/><path d="M206.25,170.75c0,0.55228 -0.44772,1 -1,1c-0.55228,0 -1,-0.44772 -1,-1c0,-0.55228 0.44772,-1 1,-1c0.55228,0 1,0.44772 1,1z" fill="url(#color-31)" stroke="none" stroke-width="0"/><path d="M270.75,93.75c0,0.55228 -0.44772,1 -1,1c-0.55228,0 -1,-0.44772 -1,-1c0,-0.55228 0.44772,-1 1,-1c0.55228,0 1,0.44772 1,1z" fill="url(#color-32)" stroke="none" stroke-width="0"/><path d="M269.25,80.25c0,0.55228 -0.89543,1 -2,1c-1.10457,0 -2,-0.44772 -2,-1c0,-0.55228 0.89543,-1 2,-1c1.10457,0 2,0.44772 2,1z" fill="url(#color-33)" stroke="none" stroke-width="0"/></g></g></svg>