<svg version="1.1" xmlns="http://www.w3.org/2000/svg" xmlns:xlink="http://www.w3.org/1999/xlink" width="172.99089" height="193.50691" viewBox="0,0,172.99089,193.50691"><defs><linearGradient x1="260.67821" y1="-7.39276" x2="260.67821" y2="269.49528" gradientUnits="userSpaceOnUse" id="color-1"><stop offset="0" stop-color="#000000"/><stop offset="1" stop-color="#000000" stop-opacity="0"/></linearGradient><radialGradient cx="233.67399" cy="107.56717" r="3.25035" gradientUnits="userSpaceOnUse" id="color-2"><stop offset="0" stop-color="#979590"/><stop offset="1" stop-color="#353533"/></radialGradient><radialGradient cx="246.88298" cy="97.25772" r="3.25035" gradientUnits="userSpaceOnUse" id="color-3"><stop offset="0" stop-color="#979590"/><stop offset="1" stop-color="#353533"/></radialGradient><radialGradient cx="272.97879" cy="97.25772" r="3.25035" gradientUnits="userSpaceOnUse" id="color-4"><stop offset="0" stop-color="#979590"/><stop offset="1" stop-color="#353533"/></radialGradient><radialGradient cx="285.8656" cy="106.60066" r="3.25036" gradientUnits="userSpaceOnUse" id="color-5"><stop offset="0" stop-color="#979590"/><stop offset="1" stop-color="#353533"/></radialGradient><radialGradient cx="293.91987" cy="131.0856" r="3.25035" gradientUnits="userSpaceOnUse" id="color-6"><stop offset="0" stop-color="#979590"/><stop offset="1" stop-color="#353533"/></radialGradient><radialGradient cx="288.44297" cy="145.90544" r="3.25035" gradientUnits="userSpaceOnUse" id="color-7"><stop offset="0" stop-color="#979590"/><stop offset="1" stop-color="#353533"/></radialGradient><radialGradient cx="269.11274" cy="160.72529" r="3.25036" gradientUnits="userSpaceOnUse" id="color-8"><stop offset="0" stop-color="#979590"/><stop offset="1" stop-color="#353533"/></radialGradient><radialGradient cx="252.03771" cy="161.6918" r="3.25035" gradientUnits="userSpaceOnUse" id="color-9"><stop offset="0" stop-color="#979590"/><stop offset="1" stop-color="#353533"/></radialGradient><radialGradient cx="231.74097" cy="147.83846" r="3.25035" gradientUnits="userSpaceOnUse" id="color-10"><stop offset="0" stop-color="#979590"/><stop offset="1" stop-color="#353533"/></radialGradient><radialGradient cx="225.9419" cy="131.0856" r="3.25036" gradientUnits="userSpaceOnUse" id="color-11"><stop offset="0" stop-color="#979590"/><stop offset="1" stop-color="#353533"/></radialGradient><radialGradient cx="235.0905" cy="120.61299" r="3.08667" gradientUnits="userSpaceOnUse" id="color-12"><stop offset="0" stop-color="#979590"/><stop offset="1" stop-color="#353533"/></radialGradient><radialGradient cx="259.05999" cy="102.05597" r="3.08666" gradientUnits="userSpaceOnUse" id="color-13"><stop offset="0" stop-color="#979590"/><stop offset="1" stop-color="#353533"/></radialGradient><radialGradient cx="284.83362" cy="120.87073" r="3.08666" gradientUnits="userSpaceOnUse" id="color-14"><stop offset="0" stop-color="#979590"/><stop offset="1" stop-color="#353533"/></radialGradient><radialGradient cx="275.55511" cy="149.99494" r="3.08667" gradientUnits="userSpaceOnUse" id="color-15"><stop offset="0" stop-color="#979590"/><stop offset="1" stop-color="#353533"/></radialGradient><radialGradient cx="245.39996" cy="149.99494" r="3.08667" gradientUnits="userSpaceOnUse" id="color-16"><stop offset="0" stop-color="#979590"/><stop offset="1" stop-color="#353533"/></radialGradient><radialGradient cx="253.59843" cy="138.42134" r="2.70006" gradientUnits="userSpaceOnUse" id="color-17"><stop offset="0" stop-color="#979590"/><stop offset="1" stop-color="#353533"/></radialGradient><radialGradient cx="266.74298" cy="138.67908" r="2.70007" gradientUnits="userSpaceOnUse" id="color-18"><stop offset="0" stop-color="#979590"/><stop offset="1" stop-color="#353533"/></radialGradient><radialGradient cx="271.1245" cy="125.53452" r="2.70006" gradientUnits="userSpaceOnUse" id="color-19"><stop offset="0" stop-color="#979590"/><stop offset="1" stop-color="#353533"/></radialGradient><radialGradient cx="260.55731" cy="117.80244" r="2.70007" gradientUnits="userSpaceOnUse" id="color-20"><stop offset="0" stop-color="#979590"/><stop offset="1" stop-color="#353533"/></radialGradient><radialGradient cx="249.21691" cy="125.01905" r="2.70006" gradientUnits="userSpaceOnUse" id="color-21"><stop offset="0" stop-color="#979590"/><stop offset="1" stop-color="#353533"/></radialGradient><radialGradient cx="250.68459" cy="85.65958" r="3.25036" gradientUnits="userSpaceOnUse" id="color-22"><stop offset="0" stop-color="#979590"/><stop offset="1" stop-color="#353533"/></radialGradient><radialGradient cx="267.17972" cy="85.40184" r="3.25035" gradientUnits="userSpaceOnUse" id="color-23"><stop offset="0" stop-color="#979590"/><stop offset="1" stop-color="#353533"/></radialGradient><radialGradient cx="297.85035" cy="106.79396" r="3.25035" gradientUnits="userSpaceOnUse" id="color-24"><stop offset="0" stop-color="#979590"/><stop offset="1" stop-color="#353533"/></radialGradient><radialGradient cx="303.26281" cy="124.0623" r="3.25035" gradientUnits="userSpaceOnUse" id="color-25"><stop offset="0" stop-color="#979590"/><stop offset="1" stop-color="#353533"/></radialGradient><radialGradient cx="292.69561" cy="157.56802" r="3.25035" gradientUnits="userSpaceOnUse" id="color-26"><stop offset="0" stop-color="#979590"/><stop offset="1" stop-color="#353533"/></radialGradient><radialGradient cx="278.26238" cy="168.65069" r="3.25035" gradientUnits="userSpaceOnUse" id="color-27"><stop offset="0" stop-color="#979590"/><stop offset="1" stop-color="#353533"/></radialGradient><radialGradient cx="242.9525" cy="168.90843" r="3.25035" gradientUnits="userSpaceOnUse" id="color-28"><stop offset="0" stop-color="#979590"/><stop offset="1" stop-color="#353533"/></radialGradient><radialGradient cx="228.26153" cy="159.11444" r="3.25035" gradientUnits="userSpaceOnUse" id="color-29"><stop offset="0" stop-color="#979590"/><stop offset="1" stop-color="#353533"/></radialGradient><radialGradient cx="217.17886" cy="124.32003" r="3.25036" gradientUnits="userSpaceOnUse" id="color-30"><stop offset="0" stop-color="#979590"/><stop offset="1" stop-color="#353533"/></radialGradient><radialGradient cx="222.07586" cy="107.0517" r="3.25035" gradientUnits="userSpaceOnUse" id="color-31"><stop offset="0" stop-color="#979590"/><stop offset="1" stop-color="#353533"/></radialGradient><radialGradient cx="237.32211" cy="136.79584" r="4.70531" gradientUnits="userSpaceOnUse" id="color-32"><stop offset="0" stop-color="#66645f"/><stop offset="1" stop-color="#000000"/></radialGradient><radialGradient cx="245.69854" cy="109.41136" r="4.70531" gradientUnits="userSpaceOnUse" id="color-33"><stop offset="0" stop-color="#66645f"/><stop offset="1" stop-color="#000000"/></radialGradient><radialGradient cx="274.04954" cy="108.76702" r="4.70532" gradientUnits="userSpaceOnUse" id="color-34"><stop offset="0" stop-color="#66645f"/><stop offset="1" stop-color="#000000"/></radialGradient><radialGradient cx="282.10381" cy="136.1515" r="4.70531" gradientUnits="userSpaceOnUse" id="color-35"><stop offset="0" stop-color="#66645f"/><stop offset="1" stop-color="#000000"/></radialGradient><radialGradient cx="259.87404" cy="151.93786" r="4.70531" gradientUnits="userSpaceOnUse" id="color-36"><stop offset="0" stop-color="#66645f"/><stop offset="1" stop-color="#000000"/></radialGradient><radialGradient cx="300.53911" cy="142.5591" r="3.57772" gradientUnits="userSpaceOnUse" id="color-37"><stop offset="0" stop-color="#66645f"/><stop offset="1" stop-color="#000000"/></radialGradient><radialGradient cx="284.43059" cy="94.55572" r="3.57772" gradientUnits="userSpaceOnUse" id="color-38"><stop offset="0" stop-color="#66645f"/><stop offset="1" stop-color="#000000"/></radialGradient><radialGradient cx="234.49417" cy="95.20006" r="3.57772" gradientUnits="userSpaceOnUse" id="color-39"><stop offset="0" stop-color="#66645f"/><stop offset="1" stop-color="#000000"/></radialGradient><radialGradient cx="219.02999" cy="142.23694" r="3.57772" gradientUnits="userSpaceOnUse" id="color-40"><stop offset="0" stop-color="#66645f"/><stop offset="1" stop-color="#000000"/></radialGradient><radialGradient cx="259.94564" cy="172.19879" r="3.57771" gradientUnits="userSpaceOnUse" id="color-41"><stop offset="0" stop-color="#66645f"/><stop offset="1" stop-color="#000000"/></radialGradient><radialGradient cx="279.01604" cy="174.90087" r="3.25036" gradientUnits="userSpaceOnUse" id="color-42"><stop offset="0" stop-color="#66645f"/><stop offset="1" stop-color="#000000"/></radialGradient><radialGradient cx="297.70193" cy="160.72537" r="3.25036" gradientUnits="userSpaceOnUse" id="color-43"><stop offset="0" stop-color="#66645f"/><stop offset="1" stop-color="#000000"/></radialGradient><radialGradient cx="308.01138" cy="125.93096" r="3.25036" gradientUnits="userSpaceOnUse" id="color-44"><stop offset="0" stop-color="#66645f"/><stop offset="1" stop-color="#000000"/></radialGradient><radialGradient cx="300.60146" cy="103.05686" r="3.25036" gradientUnits="userSpaceOnUse" id="color-45"><stop offset="0" stop-color="#66645f"/><stop offset="1" stop-color="#000000"/></radialGradient><radialGradient cx="271.60612" cy="81.47144" r="3.25037" gradientUnits="userSpaceOnUse" id="color-46"><stop offset="0" stop-color="#66645f"/><stop offset="1" stop-color="#000000"/></radialGradient><radialGradient cx="247.44334" cy="82.11578" r="3.25036" gradientUnits="userSpaceOnUse" id="color-47"><stop offset="0" stop-color="#66645f"/><stop offset="1" stop-color="#000000"/></radialGradient><radialGradient cx="217.80365" cy="104.02337" r="3.25036" gradientUnits="userSpaceOnUse" id="color-48"><stop offset="0" stop-color="#66645f"/><stop offset="1" stop-color="#000000"/></radialGradient><radialGradient cx="211.68242" cy="126.57529" r="3.25036" gradientUnits="userSpaceOnUse" id="color-49"><stop offset="0" stop-color="#66645f"/><stop offset="1" stop-color="#000000"/></radialGradient><radialGradient cx="222.95838" cy="161.36971" r="3.25035" gradientUnits="userSpaceOnUse" id="color-50"><stop offset="0" stop-color="#66645f"/><stop offset="1" stop-color="#000000"/></radialGradient><radialGradient cx="241.64427" cy="175.54521" r="3.25035" gradientUnits="userSpaceOnUse" id="color-51"><stop offset="0" stop-color="#66645f"/><stop offset="1" stop-color="#000000"/></radialGradient></defs><g transform="translate(-179.0042,-26.15398)"><g data-paper-data="{&quot;isPaintingLayer&quot;:true}" fill-rule="nonzero" stroke-linejoin="miter" stroke-miterlimit="10" stroke-dasharray="" stroke-dashoffset="0" style="mix-blend-mode: normal"><path d="M308.58308,180.55001c0.08306,2.91279 -7.47079,10.94732 -46.81921,10.94732c-39.34842,0 -50.33445,-6.8584 -50.34761,-11.54727c-0.01137,-4.04815 10.18494,-9.44736 49.53336,-9.44736c39.34842,0 47.55747,7.38292 47.63346,10.04731z" fill="url(#color-1)" stroke="none" stroke-width="0" stroke-linecap="butt"/><text transform="translate(243.76854,211.83834) scale(0.46015,0.46015)" font-size="40" xml:space="preserve" fill="#000000" fill-rule="nonzero" stroke="#000000" stroke-width="1" stroke-linecap="butt" stroke-linejoin="miter" stroke-miterlimit="10" stroke-dasharray="" stroke-dashoffset="0" font-family="Handwriting" font-weight="normal" text-anchor="start" style="mix-blend-mode: normal"></text><text transform="translate(179.25354,45.1042) scale(0.49869,0.49869)" font-size="40" xml:space="preserve" fill="#000000" fill-rule="nonzero" stroke="#000000" stroke-width="1" stroke-linecap="butt" stroke-linejoin="miter" stroke-miterlimit="10" stroke-dasharray="" stroke-dashoffset="0" font-family="Handwriting" font-weight="normal" text-anchor="start" style="mix-blend-mode: normal"></text><g><g><path d="M237.59504,108.80539c0,1.76663 -1.45523,3.19877 -3.25035,3.19877c-1.79512,0 -3.25036,-1.43213 -3.25036,-3.19877c0,-1.76663 1.45524,-3.19877 3.25036,-3.19877c1.79512,0 3.25035,1.43213 3.25035,3.19877z" fill="url(#color-2)" stroke="none" stroke-width="0" stroke-linecap="butt"/><path d="M250.80403,98.49594c0,1.76663 -1.45523,3.19876 -3.25035,3.19876c-1.79512,0 -3.25036,-1.43212 -3.25036,-3.19876c0,-1.76663 1.45524,-3.19877 3.25036,-3.19877c1.79512,0 3.25035,1.43213 3.25035,3.19877z" fill="url(#color-3)" stroke="none" stroke-width="0" stroke-linecap="butt"/><path d="M276.89984,98.49594c0,1.76663 -1.45523,3.19876 -3.25035,3.19876c-1.79512,0 -3.25035,-1.43212 -3.25035,-3.19876c0,-1.76663 1.45523,-3.19877 3.25035,-3.19877c1.79512,0 3.25035,1.43213 3.25035,3.19877z" fill="url(#color-4)" stroke="none" stroke-width="0" stroke-linecap="butt"/><path d="M289.78666,107.83888c0,1.76663 -1.45522,3.19877 -3.25034,3.19877c-1.79512,0 -3.25035,-1.43213 -3.25035,-3.19877c0,-1.76663 1.45523,-3.19876 3.25035,-3.19876c1.79512,0 3.25034,1.43212 3.25034,3.19876z" fill="url(#color-5)" stroke="none" stroke-width="0" stroke-linecap="butt"/><path d="M297.84092,132.32383c0,1.76663 -1.45523,3.19877 -3.25035,3.19877c-1.79512,0 -3.25035,-1.43213 -3.25035,-3.19877c0,-1.76663 1.45523,-3.19877 3.25035,-3.19877c1.79512,0 3.25035,1.43213 3.25035,3.19877z" fill="url(#color-6)" stroke="none" stroke-width="0" stroke-linecap="butt"/><path d="M292.36402,147.14367c0,1.76663 -1.45522,3.19877 -3.25034,3.19877c-1.79512,0 -3.25036,-1.43213 -3.25036,-3.19877c0,-1.76663 1.45524,-3.19877 3.25036,-3.19877c1.79512,0 3.25034,1.43213 3.25034,3.19877z" fill="url(#color-7)" stroke="none" stroke-width="0" stroke-linecap="butt"/><path d="M273.03379,161.96352c0,1.76663 -1.45523,3.19877 -3.25035,3.19877c-1.79512,0 -3.25035,-1.43213 -3.25035,-3.19877c0,-1.76663 1.45523,-3.19877 3.25035,-3.19877c1.79512,0 3.25035,1.43213 3.25035,3.19877z" fill="url(#color-8)" stroke="none" stroke-width="0" stroke-linecap="butt"/><path d="M255.95876,162.93003c0,1.76663 -1.45523,3.19877 -3.25035,3.19877c-1.79512,0 -3.25035,-1.43213 -3.25035,-3.19877c0,-1.76663 1.45523,-3.19877 3.25035,-3.19877c1.79512,0 3.25035,1.43213 3.25035,3.19877z" fill="url(#color-9)" stroke="none" stroke-width="0" stroke-linecap="butt"/><path d="M235.66202,149.07669c0,1.76663 -1.45523,3.19877 -3.25035,3.19877c-1.79512,0 -3.25036,-1.43213 -3.25036,-3.19877c0,-1.76663 1.45524,-3.19877 3.25036,-3.19877c1.79512,0 3.25035,1.43213 3.25035,3.19877z" fill="url(#color-10)" stroke="none" stroke-width="0" stroke-linecap="butt"/><path d="M229.86295,132.32383c0,1.76663 -1.45523,3.19877 -3.25035,3.19877c-1.79512,0 -3.25035,-1.43213 -3.25035,-3.19877c0,-1.76663 1.45523,-3.19877 3.25035,-3.19877c1.79512,0 3.25035,1.43213 3.25035,3.19877z" fill="url(#color-11)" stroke="none" stroke-width="0" stroke-linecap="butt"/><path d="M238.8141,121.78886c0,1.67766 -1.38195,3.03768 -3.08667,3.03768c-1.70472,0 -3.08667,-1.36001 -3.08667,-3.03768c0,-1.67766 1.38195,-3.03768 3.08667,-3.03768c1.70472,0 3.08667,1.36001 3.08667,3.03768z" fill="url(#color-12)" stroke="none" stroke-width="0" stroke-linecap="butt"/><path d="M262.78358,103.23184c0,1.67766 -1.38195,3.03768 -3.08667,3.03768c-1.70472,0 -3.08667,-1.36001 -3.08667,-3.03768c0,-1.67766 1.38195,-3.03768 3.08667,-3.03768c1.70472,0 3.08667,1.36001 3.08667,3.03768z" fill="url(#color-13)" stroke="none" stroke-width="0" stroke-linecap="butt"/><path d="M288.55722,122.0466c0,1.67766 -1.38194,3.03768 -3.08666,3.03768c-1.70472,0 -3.08667,-1.36001 -3.08667,-3.03768c0,-1.67766 1.38195,-3.03768 3.08667,-3.03768c1.70472,0 3.08666,1.36001 3.08666,3.03768z" fill="url(#color-14)" stroke="none" stroke-width="0" stroke-linecap="butt"/><path d="M279.27871,151.1708c0,1.67766 -1.38194,3.03769 -3.08666,3.03769c-1.70472,0 -3.08668,-1.36001 -3.08668,-3.03769c0,-1.67766 1.38196,-3.03768 3.08668,-3.03768c1.70472,0 3.08666,1.36001 3.08666,3.03768z" fill="url(#color-15)" stroke="none" stroke-width="0" stroke-linecap="butt"/><path d="M249.12355,151.1708c0,1.67766 -1.38194,3.03769 -3.08666,3.03769c-1.70472,0 -3.08668,-1.36001 -3.08668,-3.03769c0,-1.67766 1.38196,-3.03768 3.08668,-3.03768c1.70472,0 3.08666,1.36001 3.08666,3.03768z" fill="url(#color-16)" stroke="none" stroke-width="0" stroke-linecap="butt"/><path d="M256.85565,139.44993c0,1.46754 -1.20886,2.65721 -2.70007,2.65721c-1.49121,0 -2.70006,-1.18966 -2.70006,-2.65721c0,-1.46754 1.20886,-2.65722 2.70006,-2.65722c1.49121,0 2.70007,1.18967 2.70007,2.65722z" fill="url(#color-17)" stroke="none" stroke-width="0" stroke-linecap="butt"/><path d="M270.0002,139.70767c0,1.46754 -1.20885,2.65721 -2.70006,2.65721c-1.49121,0 -2.70007,-1.18966 -2.70007,-2.65721c0,-1.46754 1.20886,-2.65721 2.70007,-2.65721c1.49121,0 2.70006,1.18966 2.70006,2.65721z" fill="url(#color-18)" stroke="none" stroke-width="0" stroke-linecap="butt"/><path d="M274.38172,126.56311c0,1.46754 -1.20885,2.65721 -2.70006,2.65721c-1.49121,0 -2.70006,-1.18966 -2.70006,-2.65721c0,-1.46754 1.20886,-2.65721 2.70006,-2.65721c1.49121,0 2.70006,1.18966 2.70006,2.65721z" fill="url(#color-19)" stroke="none" stroke-width="0" stroke-linecap="butt"/><path d="M263.81452,118.83103c0,1.46754 -1.20885,2.65721 -2.70005,2.65721c-1.49121,0 -2.70006,-1.18966 -2.70006,-2.65721c0,-1.46754 1.20886,-2.65721 2.70006,-2.65721c1.49121,0 2.70005,1.18966 2.70005,2.65721z" fill="url(#color-20)" stroke="none" stroke-width="0" stroke-linecap="butt"/><path d="M252.47413,126.04764c0,1.46754 -1.20885,2.65722 -2.70006,2.65722c-1.49121,0 -2.70007,-1.18967 -2.70007,-2.65722c0,-1.46754 1.20887,-2.65721 2.70007,-2.65721c1.49121,0 2.70006,1.18966 2.70006,2.65721z" fill="url(#color-21)" stroke="none" stroke-width="0" stroke-linecap="butt"/><path d="M254.60564,86.8978c0,1.76663 -1.45522,3.19876 -3.25034,3.19876c-1.79512,0 -3.25035,-1.43212 -3.25035,-3.19876c0,-1.76663 1.45523,-3.19877 3.25035,-3.19877c1.79512,0 3.25034,1.43213 3.25034,3.19877z" fill="url(#color-22)" stroke="none" stroke-width="0" stroke-linecap="butt"/><path d="M271.10077,86.64006c0,1.76663 -1.45522,3.19876 -3.25034,3.19876c-1.79512,0 -3.25035,-1.43212 -3.25035,-3.19876c0,-1.76663 1.45523,-3.19877 3.25035,-3.19877c1.79512,0 3.25034,1.43213 3.25034,3.19877z" fill="url(#color-23)" stroke="none" stroke-width="0" stroke-linecap="butt"/><path d="M301.7714,108.03218c0,1.76663 -1.45522,3.19877 -3.25034,3.19877c-1.79512,0 -3.25035,-1.43213 -3.25035,-3.19877c0,-1.76663 1.45523,-3.19876 3.25035,-3.19876c1.79512,0 3.25034,1.43212 3.25034,3.19876z" fill="url(#color-24)" stroke="none" stroke-width="0" stroke-linecap="butt"/><path d="M307.18386,125.30052c0,1.76663 -1.45522,3.19877 -3.25034,3.19877c-1.79512,0 -3.25036,-1.43213 -3.25036,-3.19877c0,-1.76663 1.45524,-3.19877 3.25036,-3.19877c1.79512,0 3.25034,1.43213 3.25034,3.19877z" fill="url(#color-25)" stroke="none" stroke-width="0" stroke-linecap="butt"/><path d="M296.61667,158.80624c0,1.76663 -1.45522,3.19877 -3.25034,3.19877c-1.79512,0 -3.25035,-1.43213 -3.25035,-3.19877c0,-1.76663 1.45523,-3.19876 3.25035,-3.19876c1.79512,0 3.25034,1.43212 3.25034,3.19876z" fill="url(#color-26)" stroke="none" stroke-width="0" stroke-linecap="butt"/><path d="M282.18343,169.88891c0,1.76663 -1.45523,3.19876 -3.25035,3.19876c-1.79512,0 -3.25035,-1.43212 -3.25035,-3.19876c0,-1.76663 1.45523,-3.19877 3.25035,-3.19877c1.79512,0 3.25035,1.43213 3.25035,3.19877z" fill="url(#color-27)" stroke="none" stroke-width="0" stroke-linecap="butt"/><path d="M246.87355,170.14665c0,1.76663 -1.45523,3.19876 -3.25035,3.19876c-1.79512,0 -3.25035,-1.43212 -3.25035,-3.19876c0,-1.76663 1.45523,-3.19877 3.25035,-3.19877c1.79512,0 3.25035,1.43213 3.25035,3.19877z" fill="url(#color-28)" stroke="none" stroke-width="0" stroke-linecap="butt"/><path d="M232.18258,160.35267c0,1.76663 -1.45523,3.19877 -3.25035,3.19877c-1.79512,0 -3.25035,-1.43213 -3.25035,-3.19877c0,-1.76663 1.45523,-3.19877 3.25035,-3.19877c1.79512,0 3.25035,1.43213 3.25035,3.19877z" fill="url(#color-29)" stroke="none" stroke-width="0" stroke-linecap="butt"/><path d="M221.09992,125.55826c0,1.76663 -1.45523,3.19877 -3.25035,3.19877c-1.79512,0 -3.25035,-1.43213 -3.25035,-3.19877c0,-1.76663 1.45523,-3.19877 3.25035,-3.19877c1.79512,0 3.25035,1.43213 3.25035,3.19877z" fill="url(#color-30)" stroke="none" stroke-width="0" stroke-linecap="butt"/><path d="M225.99691,108.28992c0,1.76663 -1.45523,3.19877 -3.25035,3.19877c-1.79512,0 -3.25035,-1.43213 -3.25035,-3.19877c0,-1.76663 1.45523,-3.19876 3.25035,-3.19876c1.79512,0 3.25035,1.43212 3.25035,3.19876z" fill="url(#color-31)" stroke="none" stroke-width="0" stroke-linecap="butt"/><path d="M270.07533,130.28348l-1.28868,5.5843" fill="none" stroke="#595855" stroke-width="1.5" stroke-linecap="round"/><path d="M258.04764,140.16339h5.3695" fill="none" stroke="#595855" stroke-width="1.5" stroke-linecap="round"/><path d="M250.31554,130.28348l1.50347,5.15473" fill="none" stroke="#595855" stroke-width="1.5" stroke-linecap="round"/><path d="M256.54417,120.61838l-2.79215,1.93303" fill="none" stroke="#595855" stroke-width="1.5" stroke-linecap="round"/><path d="M265.35017,120.61838l3.43648,3.00692" fill="none" stroke="#595855" stroke-width="1.5" stroke-linecap="round"/><path d="M260.41021,113.9602l-0.21478,-5.58429" fill="none" stroke="#595855" stroke-width="1.5" stroke-linecap="round"/><path d="M250.95988,143.38509l-2.79215,4.08083" fill="none" stroke="#595855" stroke-width="1.5" stroke-linecap="round"/><path d="M269.43099,142.3112l3.86605,4.93994" fill="none" stroke="#595855" stroke-width="1.5" stroke-linecap="round"/><path d="M239.79131,122.98097l5.79907,2.57737" fill="none" stroke="#595855" stroke-width="1.5" stroke-linecap="round"/><path d="M276.51874,124.69921l3.43649,-1.28868" fill="none" stroke="#595855" stroke-width="1.5" stroke-linecap="round"/><path d="M285.96907,112.45674l-0.21477,4.2956" fill="none" stroke="#595855" stroke-width="1.5" stroke-linecap="round"/><path d="M291.55336,129.63914l-3.43649,-4.08082" fill="none" stroke="#595855" stroke-width="1.5" stroke-linecap="round"/><path d="M300.14457,127.70612l-1.28868,1.50347" fill="none" stroke="#595855" stroke-width="1.5" stroke-linecap="round"/><path d="M301.64803,119.97404l-2.36258,-7.08774" fill="none" stroke="#595855" stroke-width="1.5" stroke-linecap="round"/><path d="M294.56028,107.73157h-3.2217" fill="none" stroke="#595855" stroke-width="1.5" stroke-linecap="round"/><path d="M277.16308,101.07338l5.58429,4.29561" fill="none" stroke="#595855" stroke-width="1.5" stroke-linecap="round"/><path d="M264.49104,102.36206l4.72517,-2.36259" fill="none" stroke="#595855" stroke-width="1.5" stroke-linecap="round"/><path d="M251.60422,100.64381l3.43649,1.50347" fill="none" stroke="#595855" stroke-width="1.5" stroke-linecap="round"/><path d="M243.01301,101.9325l-4.72517,3.22171" fill="none" stroke="#595855" stroke-width="1.5" stroke-linecap="round"/><path d="M235.49571,116.75233l-0.21479,-3.65126" fill="none" stroke="#595855" stroke-width="1.5" stroke-linecap="round"/><path d="M249.02687,93.98563l1.07389,-3.2217" fill="none" stroke="#595855" stroke-width="1.5" stroke-linecap="round"/><path d="M263.20236,87.32744l-7.08775,0.21478" fill="none" stroke="#595855" stroke-width="1.5" stroke-linecap="round"/><path d="M272.00835,94.20041l-1.50346,-3.86605" fill="none" stroke="#595855" stroke-width="1.5" stroke-linecap="round"/><path d="M229.69664,128.78004l3.22171,-3.00692" fill="none" stroke="#595855" stroke-width="1.5" stroke-linecap="round"/><path d="M230.77053,143.81464l-2.57736,-6.44341" fill="none" stroke="#595855" stroke-width="1.5" stroke-linecap="round"/><path d="M221.53498,112.8863l-2.36259,6.4434" fill="none" stroke="#595855" stroke-width="1.5" stroke-linecap="round"/><path d="M223.03845,129.85393l-1.28869,-1.0739" fill="none" stroke="#595855" stroke-width="1.5" stroke-linecap="round"/><path d="M247.95296,154.98324l1.71824,2.79214" fill="none" stroke="#595855" stroke-width="1.5" stroke-linecap="round"/><path d="M259.12153,162.50054l5.58429,0.64434" fill="none" stroke="#595855" stroke-width="1.5" stroke-linecap="round"/><path d="M273.29704,154.76845l-0.64435,2.57736" fill="none" stroke="#595855" stroke-width="1.5" stroke-linecap="round"/><path d="M281.24391,149.18417l2.79214,-0.64434" fill="none" stroke="#595855" stroke-width="1.5" stroke-linecap="round"/><path d="M291.33858,151.33197l0.64434,2.14781" fill="none" stroke="#595855" stroke-width="1.5" stroke-linecap="round"/><path d="M282.96215,166.36659l5.15472,-4.2956" fill="none" stroke="#595855" stroke-width="1.5" stroke-linecap="round"/><path d="M272.22314,165.72224l2.36257,1.93303" fill="none" stroke="#595855" stroke-width="1.5" stroke-linecap="round"/><path d="M292.84204,136.94169l-1.50347,4.2956" fill="none" stroke="#595855" stroke-width="1.5" stroke-linecap="round"/><path d="M246.87905,166.36659l1.93302,-0.64435" fill="none" stroke="#595855" stroke-width="1.5" stroke-linecap="round"/><path d="M239.79131,167.01093l-5.36951,-4.51039" fill="none" stroke="#595855" stroke-width="1.5" stroke-linecap="round"/><path d="M230.34098,152.62065l-0.42956,2.79214" fill="none" stroke="#595855" stroke-width="1.5" stroke-linecap="round"/><path d="M241.50955,149.61372l-4.51038,-1.0739" fill="none" stroke="#595855" stroke-width="1.5" stroke-linecap="round"/><path d="M227.33405,108.37591l2.57736,0.21478" fill="none" stroke="#595855" stroke-width="1.5" stroke-linecap="round"/></g><g><path d="M242.99836,138.58833c0,2.55742 -2.10664,4.63064 -4.70532,4.63064c-2.59867,0 -4.70531,-2.07319 -4.70531,-4.63064c0,-2.55742 2.10664,-4.63064 4.70531,-4.63064c2.59867,0 4.70532,2.0732 4.70532,4.63064z" fill="url(#color-32)" stroke="none" stroke-width="0" stroke-linecap="butt"/><path d="M251.37479,111.20386c0,2.55742 -2.10664,4.63063 -4.70532,4.63063c-2.59868,0 -4.7053,-2.07319 -4.7053,-4.63063c0,-2.55742 2.10663,-4.63065 4.7053,-4.63065c2.59868,0 4.70532,2.07321 4.70532,4.63065z" fill="url(#color-33)" stroke="none" stroke-width="0" stroke-linecap="butt"/><path d="M279.72578,110.55951c0,2.55742 -2.10663,4.63063 -4.70531,4.63063c-2.59868,0 -4.7053,-2.07319 -4.7053,-4.63063c0,-2.55742 2.10663,-4.63064 4.7053,-4.63064c2.59868,0 4.70531,2.0732 4.70531,4.63064z" fill="url(#color-34)" stroke="none" stroke-width="0" stroke-linecap="butt"/><path d="M287.78004,137.94399c0,2.55742 -2.10663,4.63064 -4.70531,4.63064c-2.59868,0 -4.70531,-2.07319 -4.70531,-4.63064c0,-2.55742 2.10663,-4.63064 4.70531,-4.63064c2.59868,0 4.70531,2.0732 4.70531,4.63064z" fill="url(#color-35)" stroke="none" stroke-width="0" stroke-linecap="butt"/><path d="M265.55029,153.73035c0,2.55742 -2.10664,4.63063 -4.70532,4.63063c-2.59868,0 -4.7053,-2.07319 -4.7053,-4.63063c0,-2.55742 2.10663,-4.63065 4.7053,-4.63065c2.59868,0 4.70532,2.07321 4.70532,4.63065z" fill="url(#color-36)" stroke="none" stroke-width="0" stroke-linecap="butt"/><path d="M304.85508,143.92205c0,1.94456 -1.60178,3.52094 -3.5777,3.52094c-1.97593,0 -3.57772,-1.57637 -3.57772,-3.52094c0,-1.94456 1.60179,-3.52094 3.57772,-3.52094c1.97593,0 3.5777,1.57637 3.5777,3.52094z" fill="url(#color-37)" stroke="none" stroke-width="0" stroke-linecap="butt"/><path d="M288.74656,95.91865c0,1.94455 -1.60179,3.52094 -3.57771,3.52094c-1.97593,0 -3.57771,-1.57637 -3.57771,-3.52094c0,-1.94455 1.60179,-3.52093 3.57771,-3.52093c1.97593,0 3.57771,1.57636 3.57771,3.52093z" fill="url(#color-38)" stroke="none" stroke-width="0" stroke-linecap="butt"/><path d="M238.81014,96.56299c0,1.94455 -1.6018,3.52094 -3.57772,3.52094c-1.97592,0 -3.57771,-1.57637 -3.57771,-3.52094c0,-1.94455 1.60179,-3.52093 3.57771,-3.52093c1.97592,0 3.57772,1.57636 3.57772,3.52093z" fill="url(#color-39)" stroke="none" stroke-width="0" stroke-linecap="butt"/><path d="M223.34596,143.59988c0,1.94456 -1.60179,3.52094 -3.57772,3.52094c-1.97592,0 -3.57771,-1.57637 -3.57771,-3.52094c0,-1.94456 1.60179,-3.52094 3.57771,-3.52094c1.97592,0 3.57772,1.57637 3.57772,3.52094z" fill="url(#color-40)" stroke="none" stroke-width="0" stroke-linecap="butt"/><path d="M264.26161,173.56173c0,1.94456 -1.6018,3.52093 -3.57772,3.52093c-1.97592,0 -3.57771,-1.57636 -3.57771,-3.52093c0,-1.94456 1.60179,-3.52094 3.57771,-3.52094c1.97592,0 3.57772,1.57637 3.57772,3.52094z" fill="url(#color-41)" stroke="none" stroke-width="0" stroke-linecap="butt"/><path d="M282.9371,176.1391c0,1.76663 -1.45522,3.19877 -3.25034,3.19877c-1.79512,0 -3.25036,-1.43213 -3.25036,-3.19877c0,-1.76663 1.45524,-3.19877 3.25036,-3.19877c1.79512,0 3.25034,1.43213 3.25034,3.19877z" fill="url(#color-42)" stroke="none" stroke-width="0" stroke-linecap="butt"/><path d="M301.62299,161.9636c0,1.76663 -1.45523,3.19877 -3.25035,3.19877c-1.79512,0 -3.25036,-1.43213 -3.25036,-3.19877c0,-1.76663 1.45524,-3.19877 3.25036,-3.19877c1.79512,0 3.25035,1.43213 3.25035,3.19877z" fill="url(#color-43)" stroke="none" stroke-width="0" stroke-linecap="butt"/><path d="M311.93244,127.16919c0,1.76663 -1.45522,3.19876 -3.25034,3.19876c-1.79512,0 -3.25036,-1.43212 -3.25036,-3.19876c0,-1.76663 1.45524,-3.19876 3.25036,-3.19876c1.79512,0 3.25034,1.43212 3.25034,3.19876z" fill="url(#color-44)" stroke="none" stroke-width="0" stroke-linecap="butt"/><path d="M304.52252,104.29508c0,1.76663 -1.45522,3.19876 -3.25034,3.19876c-1.79512,0 -3.25036,-1.43212 -3.25036,-3.19876c0,-1.76663 1.45524,-3.19877 3.25036,-3.19877c1.79512,0 3.25034,1.43213 3.25034,3.19877z" fill="url(#color-45)" stroke="none" stroke-width="0" stroke-linecap="butt"/><path d="M275.52718,82.70966c0,1.76663 -1.45523,3.19877 -3.25035,3.19877c-1.79512,0 -3.25035,-1.43213 -3.25035,-3.19877c0,-1.76663 1.45523,-3.19876 3.25035,-3.19876c1.79512,0 3.25035,1.43212 3.25035,3.19876z" fill="url(#color-46)" stroke="none" stroke-width="0" stroke-linecap="butt"/><path d="M251.3644,83.354c0,1.76663 -1.45523,3.19877 -3.25035,3.19877c-1.79512,0 -3.25035,-1.43213 -3.25035,-3.19877c0,-1.76663 1.45523,-3.19876 3.25035,-3.19876c1.79512,0 3.25035,1.43212 3.25035,3.19876z" fill="url(#color-47)" stroke="none" stroke-width="0" stroke-linecap="butt"/><path d="M221.72471,105.2616c0,1.76663 -1.45522,3.19876 -3.25034,3.19876c-1.79512,0 -3.25035,-1.43212 -3.25035,-3.19876c0,-1.76663 1.45523,-3.19877 3.25035,-3.19877c1.79512,0 3.25034,1.43213 3.25034,3.19877z" fill="url(#color-48)" stroke="none" stroke-width="0" stroke-linecap="butt"/><path d="M215.60348,127.81353c0,1.76663 -1.45523,3.19877 -3.25035,3.19877c-1.79512,0 -3.25035,-1.43213 -3.25035,-3.19877c0,-1.76663 1.45523,-3.19876 3.25035,-3.19876c1.79512,0 3.25035,1.43212 3.25035,3.19876z" fill="url(#color-49)" stroke="none" stroke-width="0" stroke-linecap="butt"/><path d="M226.87944,162.60794c0,1.76663 -1.45522,3.19877 -3.25034,3.19877c-1.79512,0 -3.25036,-1.43213 -3.25036,-3.19877c0,-1.76663 1.45524,-3.19877 3.25036,-3.19877c1.79512,0 3.25034,1.43213 3.25034,3.19877z" fill="url(#color-50)" stroke="none" stroke-width="0" stroke-linecap="butt"/><path d="M245.56533,176.78344c0,1.76663 -1.45523,3.19877 -3.25035,3.19877c-1.79512,0 -3.25035,-1.43213 -3.25035,-3.19877c0,-1.76663 1.45523,-3.19877 3.25035,-3.19877c1.79512,0 3.25035,1.43213 3.25035,3.19877z" fill="url(#color-51)" stroke="none" stroke-width="0" stroke-linecap="butt"/><path d="M240.40537,131.62595l3.86605,-13.20899" fill="none" stroke="#454441" stroke-width="2.5" stroke-linecap="round"/><path d="M266.50118,110.68488h-12.56465" fill="none" stroke="#454441" stroke-width="2.5" stroke-linecap="round"/><path d="M280.99884,130.33727l-4.18821,-12.24248" fill="none" stroke="#454441" stroke-width="2.5" stroke-linecap="round"/><path d="M276.48847,143.22409l-8.05427,6.76558" fill="none" stroke="#454441" stroke-width="2.5" stroke-linecap="round"/><path d="M244.59358,144.19059l9.02077,5.47689" fill="none" stroke="#454441" stroke-width="2.5" stroke-linecap="round"/><path d="M291.63047,140.32455l2.89953,1.28868" fill="none" stroke="#454441" stroke-width="2.5" stroke-linecap="round"/><path d="M281.64318,101.01976l-1.93301,2.89954" fill="none" stroke="#454441" stroke-width="2.5" stroke-linecap="round"/><path d="M291.63047,99.08674l4.18822,1.93302" fill="none" stroke="#454441" stroke-width="2.5" stroke-linecap="round"/><path d="M307.41683,120.67216l-3.86605,-10.9538" fill="none" stroke="#454441" stroke-width="2.5" stroke-linecap="round"/><path d="M303.87295,137.10283l2.25519,-4.18821" fill="none" stroke="#454441" stroke-width="2.5" stroke-linecap="round"/><path d="M299.68473,149.66749v4.83256" fill="none" stroke="#454441" stroke-width="2.5" stroke-linecap="round"/><path d="M285.8314,172.21943l6.44341,-5.47689" fill="none" stroke="#454441" stroke-width="2.5" stroke-linecap="round"/><path d="M251.037,179.62935h19.97457" fill="none" stroke="#454441" stroke-width="2.5" stroke-linecap="round"/><path d="M228.16289,167.06471l9.02077,6.76558" fill="none" stroke="#454441" stroke-width="2.5" stroke-linecap="round"/><path d="M309.67201,137.10285l-5.4769,17.07504" fill="none" stroke="#454441" stroke-width="2.5" stroke-linecap="round"/><path d="M216.88693,155.46656l-5.4769,-17.39721" fill="none" stroke="#454441" stroke-width="2.5" stroke-linecap="round"/><path d="M216.88693,111.00705l-3.22171,10.30945" fill="none" stroke="#454441" stroke-width="2.5" stroke-linecap="round"/><path d="M225.26336,142.25757l5.4769,-1.28868" fill="none" stroke="#454441" stroke-width="2.5" stroke-linecap="round"/><path d="M221.07514,150.63401l0.96651,5.4769" fill="none" stroke="#454441" stroke-width="2.5" stroke-linecap="round"/><path d="M214.63173,133.23681l2.25519,5.15472" fill="none" stroke="#454441" stroke-width="2.5" stroke-linecap="round"/><path d="M237.828,101.34193l4.18821,4.51039" fill="none" stroke="#454441" stroke-width="2.5" stroke-linecap="round"/><path d="M239.76103,91.03248l3.86605,-2.89953" fill="none" stroke="#454441" stroke-width="2.5" stroke-linecap="round"/><path d="M275.52195,86.84426l5.15473,4.18822" fill="none" stroke="#454441" stroke-width="2.5" stroke-linecap="round"/><path d="M267.14551,82.97821h-13.85333" fill="none" stroke="#454441" stroke-width="2.5" stroke-linecap="round"/><path d="M240.72753,85.55559l-16.43069,11.9203" fill="none" stroke="#454441" stroke-width="2.5" stroke-linecap="round"/><path d="M280.03233,85.55558l17.3972,11.59814" fill="none" stroke="#454441" stroke-width="2.5" stroke-linecap="round"/><path d="M260.37994,160.29913l0.32217,7.40992" fill="none" stroke="#454441" stroke-width="2.5" stroke-linecap="round"/><path d="M266.179,174.15246l7.73209,1.28868" fill="none" stroke="#454441" stroke-width="2.5" stroke-linecap="round"/><path d="M247.49312,175.76331l7.08775,-0.96651" fill="none" stroke="#454441" stroke-width="2.5" stroke-linecap="round"/></g></g><text transform="translate(181.78878,64.93362) scale(0.268,0.268)" font-size="40" xml:space="preserve" fill="#000000" fill-rule="nonzero" stroke="#000000" stroke-width="1" stroke-linecap="butt" stroke-linejoin="miter" stroke-miterlimit="10" stroke-dasharray="" stroke-dashoffset="0" font-family="Handwriting" font-weight="normal" text-anchor="start" style="mix-blend-mode: normal"></text></g></g></svg>