<svg version="1.1" xmlns="http://www.w3.org/2000/svg" xmlns:xlink="http://www.w3.org/1999/xlink" width="114.36151" height="171.57172" viewBox="0,0,114.36151,171.57172"><defs><linearGradient x1="240.61953" y1="58.29928" x2="240.61953" y2="237.16751" gradientUnits="userSpaceOnUse" id="color-1"><stop offset="0" stop-color="#000000"/><stop offset="1" stop-color="#000000" stop-opacity="0"/></linearGradient><radialGradient cx="239.57047" cy="127.22177" r="57.18075" gradientUnits="userSpaceOnUse" id="color-2"><stop offset="0" stop-color="#b3dfff"/><stop offset="1" stop-color="#b3dfff" stop-opacity="0"/></radialGradient><radialGradient cx="240.92832" cy="125.93086" r="52.42315" gradientUnits="userSpaceOnUse" id="color-3"><stop offset="0" stop-color="#b3fffe"/><stop offset="1" stop-color="#b3fffe" stop-opacity="0"/></radialGradient><radialGradient cx="244.29763" cy="127.02611" r="36.963" gradientUnits="userSpaceOnUse" id="color-4"><stop offset="0" stop-color="#af9c8b"/><stop offset="1" stop-color="#af9c8b" stop-opacity="0"/></radialGradient><radialGradient cx="256.65735" cy="114.19696" r="24.12602" gradientUnits="userSpaceOnUse" id="color-5"><stop offset="0" stop-color="#ffffff"/><stop offset="1" stop-color="#ffffff" stop-opacity="0"/></radialGradient><radialGradient cx="242.125" cy="132.125" r="66.62738" gradientUnits="userSpaceOnUse" id="color-6"><stop offset="0" stop-color="#e07641"/><stop offset="1" stop-color="#e07641" stop-opacity="0"/></radialGradient><radialGradient cx="240.875" cy="129.625" r="24.88483" gradientUnits="userSpaceOnUse" id="color-7"><stop offset="0" stop-color="#ffe9cf"/><stop offset="1" stop-color="#ffe9cf" stop-opacity="0"/></radialGradient><radialGradient cx="243.15913" cy="129.00659" r="12.61466" gradientUnits="userSpaceOnUse" id="color-8"><stop offset="0" stop-color="#fffcca"/><stop offset="1" stop-color="#fffcca" stop-opacity="0"/></radialGradient><radialGradient cx="242.11242" cy="129.30446" r="9.96386" gradientUnits="userSpaceOnUse" id="color-9"><stop offset="0" stop-color="#ffffff"/><stop offset="1" stop-color="#ffffff" stop-opacity="0"/></radialGradient><radialGradient cx="258.99797" cy="130.90015" r="24.57634" gradientUnits="userSpaceOnUse" id="color-10"><stop offset="0" stop-color="#ffffff"/><stop offset="1" stop-color="#ffffff" stop-opacity="0"/></radialGradient><radialGradient cx="207.48454" cy="150.59726" r="23.97758" gradientUnits="userSpaceOnUse" id="color-11"><stop offset="0" stop-color="#ffffff"/><stop offset="1" stop-color="#ffffff" stop-opacity="0"/></radialGradient><radialGradient cx="236.25068" cy="109.70273" r="24.12601" gradientUnits="userSpaceOnUse" id="color-12"><stop offset="0" stop-color="#ffffff"/><stop offset="1" stop-color="#ffffff" stop-opacity="0"/></radialGradient><radialGradient cx="270.29251" cy="129.78498" r="1.92079" gradientUnits="userSpaceOnUse" id="color-13"><stop offset="0" stop-color="#ffffff"/><stop offset="1" stop-color="#ffffff" stop-opacity="0"/></radialGradient><radialGradient cx="201.46299" cy="115.66718" r="3.04447" gradientUnits="userSpaceOnUse" id="color-14"><stop offset="0" stop-color="#ffffff"/><stop offset="1" stop-color="#ffffff" stop-opacity="0"/></radialGradient><radialGradient cx="267.4593" cy="147.9276" r="1.92079" gradientUnits="userSpaceOnUse" id="color-15"><stop offset="0" stop-color="#ffffff"/><stop offset="1" stop-color="#ffffff" stop-opacity="0"/></radialGradient><radialGradient cx="275.16276" cy="138.62942" r="1.42095" gradientUnits="userSpaceOnUse" id="color-16"><stop offset="0" stop-color="#dedede"/><stop offset="1" stop-color="#dedede" stop-opacity="0"/></radialGradient><radialGradient cx="266.79434" cy="131.68558" r="1.42095" gradientUnits="userSpaceOnUse" id="color-17"><stop offset="0" stop-color="#ffffff"/><stop offset="1" stop-color="#ffffff" stop-opacity="0"/></radialGradient><radialGradient cx="255.33221" cy="151.24818" r="1.42095" gradientUnits="userSpaceOnUse" id="color-18"><stop offset="0" stop-color="#fffdf7"/><stop offset="1" stop-color="#fffdf7" stop-opacity="0"/></radialGradient><radialGradient cx="268.68195" cy="139.29986" r="1.42095" gradientUnits="userSpaceOnUse" id="color-19"><stop offset="0" stop-color="#dedede"/><stop offset="1" stop-color="#dedede" stop-opacity="0"/></radialGradient><radialGradient cx="237.48743" cy="156.8143" r="0.7865" gradientUnits="userSpaceOnUse" id="color-20"><stop offset="0" stop-color="#ffffff"/><stop offset="1" stop-color="#ffffff" stop-opacity="0"/></radialGradient><radialGradient cx="260.65755" cy="132.37684" r="0.78651" gradientUnits="userSpaceOnUse" id="color-21"><stop offset="0" stop-color="#ffffff"/><stop offset="1" stop-color="#ffffff" stop-opacity="0"/></radialGradient><radialGradient cx="244.67707" cy="151.25037" r="0.78651" gradientUnits="userSpaceOnUse" id="color-22"><stop offset="0" stop-color="#ffffff"/><stop offset="1" stop-color="#ffffff" stop-opacity="0"/></radialGradient><radialGradient cx="271.32257" cy="137.40513" r="0.78651" gradientUnits="userSpaceOnUse" id="color-23"><stop offset="0" stop-color="#ffffff"/><stop offset="1" stop-color="#ffffff" stop-opacity="0"/></radialGradient><radialGradient cx="220.62569" cy="98.79268" r="1.92079" gradientUnits="userSpaceOnUse" id="color-24"><stop offset="0" stop-color="#ffffff"/><stop offset="1" stop-color="#ffffff" stop-opacity="0"/></radialGradient><radialGradient cx="283.75272" cy="122.00372" r="3.04448" gradientUnits="userSpaceOnUse" id="color-25"><stop offset="0" stop-color="#ffffff"/><stop offset="1" stop-color="#ffffff" stop-opacity="0"/></radialGradient><radialGradient cx="216.25003" cy="98.38687" r="1.92079" gradientUnits="userSpaceOnUse" id="color-26"><stop offset="0" stop-color="#ffffff"/><stop offset="1" stop-color="#ffffff" stop-opacity="0"/></radialGradient><radialGradient cx="261.58922" cy="102.70652" r="1.42095" gradientUnits="userSpaceOnUse" id="color-27"><stop offset="0" stop-color="#dedede"/><stop offset="1" stop-color="#dedede" stop-opacity="0"/></radialGradient><radialGradient cx="234.40293" cy="101.39765" r="1.42095" gradientUnits="userSpaceOnUse" id="color-28"><stop offset="0" stop-color="#ffffff"/><stop offset="1" stop-color="#ffffff" stop-opacity="0"/></radialGradient><radialGradient cx="230.34456" cy="112.50779" r="1.42095" gradientUnits="userSpaceOnUse" id="color-29"><stop offset="0" stop-color="#fffdf7"/><stop offset="1" stop-color="#fffdf7" stop-opacity="0"/></radialGradient><radialGradient cx="215.93023" cy="102.90738" r="1.42095" gradientUnits="userSpaceOnUse" id="color-30"><stop offset="0" stop-color="#dedede"/><stop offset="1" stop-color="#dedede" stop-opacity="0"/></radialGradient><radialGradient cx="246.74212" cy="100.46466" r="0.78651" gradientUnits="userSpaceOnUse" id="color-31"><stop offset="0" stop-color="#ffffff"/><stop offset="1" stop-color="#ffffff" stop-opacity="0"/></radialGradient><radialGradient cx="217.7775" cy="121.57649" r="0.7865" gradientUnits="userSpaceOnUse" id="color-32"><stop offset="0" stop-color="#ffffff"/><stop offset="1" stop-color="#ffffff" stop-opacity="0"/></radialGradient><radialGradient cx="258.5591" cy="109.9273" r="0.7865" gradientUnits="userSpaceOnUse" id="color-33"><stop offset="0" stop-color="#ffffff"/><stop offset="1" stop-color="#ffffff" stop-opacity="0"/></radialGradient><radialGradient cx="238.93117" cy="107.1172" r="0.78651" gradientUnits="userSpaceOnUse" id="color-34"><stop offset="0" stop-color="#ffffff"/><stop offset="1" stop-color="#ffffff" stop-opacity="0"/></radialGradient><radialGradient cx="271.60595" cy="115.18131" r="1.92079" gradientUnits="userSpaceOnUse" id="color-35"><stop offset="0" stop-color="#ffffff"/><stop offset="1" stop-color="#ffffff" stop-opacity="0"/></radialGradient><radialGradient cx="221.0933" cy="137.31544" r="3.04447" gradientUnits="userSpaceOnUse" id="color-36"><stop offset="0" stop-color="#ffffff"/><stop offset="1" stop-color="#ffffff" stop-opacity="0"/></radialGradient><radialGradient cx="221.80284" cy="154.73652" r="1.92079" gradientUnits="userSpaceOnUse" id="color-37"><stop offset="0" stop-color="#ffffff"/><stop offset="1" stop-color="#ffffff" stop-opacity="0"/></radialGradient><radialGradient cx="220.56011" cy="147.08187" r="1.42095" gradientUnits="userSpaceOnUse" id="color-38"><stop offset="0" stop-color="#dedede"/><stop offset="1" stop-color="#dedede" stop-opacity="0"/></radialGradient><radialGradient cx="213.29991" cy="133.14207" r="1.53937" gradientUnits="userSpaceOnUse" id="color-39"><stop offset="0" stop-color="#ffffff"/><stop offset="1" stop-color="#ffffff" stop-opacity="0"/></radialGradient><radialGradient cx="203.72388" cy="108.88314" r="1.42095" gradientUnits="userSpaceOnUse" id="color-40"><stop offset="0" stop-color="#fffdf7"/><stop offset="1" stop-color="#fffdf7" stop-opacity="0"/></radialGradient><radialGradient cx="214.07929" cy="147.75231" r="1.42095" gradientUnits="userSpaceOnUse" id="color-41"><stop offset="0" stop-color="#dedede"/><stop offset="1" stop-color="#dedede" stop-opacity="0"/></radialGradient><radialGradient cx="220.21201" cy="140.61378" r="0.78651" gradientUnits="userSpaceOnUse" id="color-42"><stop offset="0" stop-color="#ffffff"/><stop offset="1" stop-color="#ffffff" stop-opacity="0"/></radialGradient><radialGradient cx="206.05489" cy="140.82928" r="0.7865" gradientUnits="userSpaceOnUse" id="color-43"><stop offset="0" stop-color="#ffffff"/><stop offset="1" stop-color="#ffffff" stop-opacity="0"/></radialGradient><radialGradient cx="220.30639" cy="150.31122" r="0.78651" gradientUnits="userSpaceOnUse" id="color-44"><stop offset="0" stop-color="#ffffff"/><stop offset="1" stop-color="#ffffff" stop-opacity="0"/></radialGradient><radialGradient cx="216.71992" cy="145.85758" r="0.78651" gradientUnits="userSpaceOnUse" id="color-45"><stop offset="0" stop-color="#ffffff"/><stop offset="1" stop-color="#ffffff" stop-opacity="0"/></radialGradient></defs><g transform="translate(-182.38972,-37.0948)"><g data-paper-data="{&quot;isPaintingLayer&quot;:true}" fill-rule="nonzero" stroke-linecap="butt" stroke-linejoin="miter" stroke-miterlimit="10" stroke-dasharray="" stroke-dashoffset="0" style="mix-blend-mode: normal"><path d="M284.37023,179.70939c0.07585,1.88165 -6.82295,7.07192 -42.75929,7.07192c-35.93634,0 -45.96971,-4.43047 -45.98172,-7.45949c-0.01038,-2.6151 9.30175,-6.10294 45.23807,-6.10294c35.93634,0 43.43354,4.76932 43.50294,6.49051z" fill="url(#color-1)" stroke="none" stroke-width="0"/><text transform="translate(226.79696,202.68677) scale(0.357,0.357)" font-size="40" xml:space="preserve" fill="#ffffff" fill-rule="nonzero" stroke="#ffffff" stroke-width="0.5" stroke-linecap="butt" stroke-linejoin="miter" stroke-miterlimit="10" stroke-dasharray="" stroke-dashoffset="0" font-family="Handwriting" font-weight="normal" text-anchor="start" style="mix-blend-mode: normal"></text><text transform="translate(210.75542,50.20366) scale(0.34497,0.34497)" font-size="40" xml:space="preserve" fill="#ffffff" fill-rule="nonzero" stroke="#ffffff" stroke-width="1" stroke-linecap="butt" stroke-linejoin="miter" stroke-miterlimit="10" stroke-dasharray="" stroke-dashoffset="0" font-family="Handwriting" font-weight="normal" text-anchor="start" style="mix-blend-mode: normal"></text><text transform="translate(198.20842,65.44219) scale(0.26747,0.26747)" font-size="40" xml:space="preserve" fill="#ffffff" fill-rule="nonzero" stroke="#ffffff" stroke-width="1" stroke-linecap="butt" stroke-linejoin="miter" stroke-miterlimit="10" stroke-dasharray="" stroke-dashoffset="0" font-family="Handwriting" font-weight="normal" text-anchor="start" style="mix-blend-mode: normal"></text><g stroke="none" stroke-width="0"><path d="M239.57047,86.60307c31.58006,0 57.18076,18.18561 57.18076,40.6187c0,22.43309 -25.6007,40.61871 -57.18076,40.61871c-31.58006,0 -57.18075,-18.18562 -57.18075,-40.61871c0,-22.43309 25.60069,-40.6187 57.18075,-40.6187z" fill="url(#color-2)"/><path d="M242.09736,107.58789c-1.79862,-2.01884 -8.33297,2.6963 -13.26501,9.99326c-3.27048,4.83866 2.3972,8.74955 2.2003,7.72111c-0.74385,-3.88528 8.28621,-12.25652 17.41902,-11.82951c3.40106,0.15902 21.57683,6.98478 24.72421,18.66133c2.73388,10.14247 -8.20088,22.52413 -15.19758,24.67686c-2.70427,0.83204 -23.67086,4.89012 -39.40215,4.81562c-9.56849,-0.04532 -16.03396,-3.24673 -18.64365,-4.9324c-7.6476,-4.93976 -13.55654,-18.06495 -10.69162,-19.49442c3.59668,-1.79458 19.30949,11.43649 16.46169,8.10382c-2.79597,-3.27201 -5.61335,-6.80005 -7.41714,-10.20555c-2.80677,-5.2991 -5.46386,-19.61901 0.78362,-28.60934c7.56371,-10.88442 24.55262,-14.55289 26.77179,-13.51087c5.44686,0.04809 -27.81766,28.54795 -20.19093,39.82424c6.24534,9.23388 15.79279,15.28507 22.864,16.95462c1.49882,0.35388 -9.02123,-4.37015 -6.57918,-4.97095c8.78425,-2.16111 34.27966,-4.23176 36.52033,-2.14304c2.57786,2.40302 -5.18722,5.98317 -4.20043,5.87263c6.82207,-0.76423 11.45426,-7.33782 11.00467,-12.12478c-1.67662,-8.69962 -10.95996,-9.31148 -10.56651,-5.9776c0.14418,1.2217 -7.21001,15.07186 -18.42796,15.97902c-2.85443,0.23084 -20.19541,-5.66814 -24.10008,-15.21533c-1.12426,-2.74889 -1.13867,-7.40284 -0.66927,-11.81824c0.13319,-1.2528 18.78863,-21.52911 21.95066,-22.78273c7.93952,-3.14772 16.72744,-5.05951 25.23137,-4.34096c13.3949,1.13182 28.43497,16.47152 30.82166,20.81308c4.5039,8.19295 -1.31226,40.07617 -3.54599,46.35965c-1.0892,3.06392 -11.29377,5.62994 -11.56621,5.56448c-1.08645,1.20391 7.72285,-26.60606 0.08567,-41.25679c-7.19464,-13.80177 -30.84178,-14.40596 -32.37528,-16.12722z" fill="url(#color-3)"/><path d="M244.29764,99.55565c20.4141,0 36.96301,12.29895 36.96301,27.47046c0,15.17151 -16.54891,27.47045 -36.96301,27.47045c-20.4141,0 -36.963,-12.29894 -36.963,-27.47045c0,-15.17151 16.5489,-27.47046 36.963,-27.47046z" fill="url(#color-4)"/><path d="M221.44755,110.27586c-1.75558,-12.81819 39.46052,-15.86676 50.89547,-10.66105c11.43495,5.20571 13.30464,27.09234 8.58194,33.10163c-4.72269,6.00928 -13.38862,-12.03854 -24.82357,-17.24426c-11.43495,-5.20572 -33.69997,1.76818 -34.65383,-5.19632z" fill="url(#color-5)"/><path d="M236.97277,134.98144c-2.88577,-1.96815 -5.73334,-5.33895 -6.19012,-7.72482c-0.74385,-3.88528 8.28621,-12.25651 17.41902,-11.8295c3.40106,0.15901 21.57683,6.98478 24.72421,18.66133c2.73388,10.14248 -8.20088,22.52413 -15.19758,24.67686c-4.34913,1.33813 -21.5164,3.272 -33.05176,-0.59891c-6.83317,-2.293 -21.26138,-10.95725 -26.64111,-21.11401c-0.27151,-0.5126 -1.71275,-4.68582 -1.95487,-6.12796c-1.17016,-6.96988 -0.2101,-16.66966 4.46738,-23.68411c7.04821,-10.56967 21.55644,-15.24398 23.708,-15.35569c2.06047,-0.10698 -11.14457,7.24504 -18.3734,18.65356c-5.38684,8.5015 -5.89864,20.81203 -2.64205,25.62696c6.24534,9.23388 17.33524,16.22423 24.40644,17.89379c8.96659,2.11707 20.86239,1.34912 25.12373,0.87176c6.82207,-0.76423 12.68822,-11.79884 12.23863,-16.5858c-1.67663,-8.69962 -10.86525,-13.81008 -13.90135,-15.17227c-3.89663,-1.74828 -8.7081,-0.40055 -6.7993,1.62113c4.22687,3.06475 6.3473,3.77009 6.74075,7.10396c0.14418,1.22171 -3.81662,12.95874 -15.03457,13.8659c-2.85443,0.23084 -18.03599,-3.78981 -21.94066,-13.337c-2.42924,-5.93967 2.89334,-17.32974 7.85542,-21.97774c8.53192,-7.99191 19.24699,-13.85655 35.26397,-12.50318c13.39491,1.13182 25.35008,12.48009 27.73677,16.82165c2.7703,5.03938 6.86671,16.68169 5.08823,26.24487c-2.52283,13.56571 -15.05918,23.22224 -15.54667,23.10512c-1.30871,1.4502 8.7371,-10.02076 10.74203,-23.59029c1.22748,-8.30766 -1.15373,-17.37114 -3.45542,-21.4448c-2.54143,-4.49795 -13.77045,-14.22367 -24.84305,-15.43524c-11.87808,-1.2997 -23.62268,6.17188 -25.69451,8.95008c-3.29299,4.41569 -10.84166,10.96571 -10.3718,15.81752c0.6887,7.11159 10.1936,11.21853 12.08339,11.40209c6.01963,0.32486 6.24256,-3.33325 4.04026,-4.83526z" fill="url(#color-6)"/><path d="M217.60186,128.95262c0,-10.62962 11.14131,-19.24664 24.88483,-19.24664c13.74352,0 24.88483,8.61701 24.88483,19.24664c0,10.62963 -11.14131,19.24664 -24.88483,19.24664c-13.74351,0 -24.88483,-8.61701 -24.88483,-19.24664z" fill="url(#color-7)"/><path d="M232.55394,123.18914c2.55527,-4.23273 8.97715,-5.30225 15.03255,-2.0824c6.0554,3.21985 8.84175,9.88738 6.52395,14.07969c-2.00089,3.61912 -8.87426,4.46531 -14.92965,1.24545c-6.0554,-3.21985 -9.09935,-9.14709 -6.62684,-13.24274z" fill="url(#color-8)"/><path d="M242.11242,120.69549c5.50289,0 9.96386,3.85437 9.96386,8.60897c0,4.7546 -4.46097,8.60898 -9.96386,8.60898c-5.50289,0 -9.96386,-3.85437 -9.96386,-8.60898c0,-4.7546 4.46097,-8.60897 9.96386,-8.60897z" fill="url(#color-9)"/><path d="M230.30843,128.23921c0,-2.79571 4.02716,-10.9608 12.45116,-11.99612c8.58183,-1.05472 17.91786,2.1116 23.60244,6.4353c8.13457,6.18716 9.23533,14.54647 4.66199,23.31909c-1.78233,3.41887 -10.8541,3.72245 -10.27794,1.88584c0.57487,-1.83252 4.74797,-15.09494 -5.40121,-20.20155c-10.69099,-5.37923 -25.03644,3.81986 -25.03644,0.55743z" fill="url(#color-10)"/><path d="M244.22886,160.49961c-6.20331,0.59545 -19.11389,-0.58697 -31.18541,-7.76416c-11.43416,-6.79824 -16.19258,-19.90937 -16.43299,-20.3336c-0.83905,-1.48058 2.87184,-3.16075 3.67599,-2.08867c1.32714,1.76934 10.53053,14.45227 17.70824,18.5268c8.78483,4.98683 20.85097,7.23975 26.60945,7.4646c4.21339,0.16451 2.52506,3.91664 -0.37528,4.19504z" fill="url(#color-11)"/><path d="M236.02746,136.80176c-16.90654,0.72044 -20.3758,-25.71455 -15.03608,-34.54942c3.22914,-5.34279 14.91392,-13.16777 24.31016,-13.15661c9.2285,0.01095 16.16209,7.79678 20.2338,9.35705c1.87392,0.71808 -6.03757,1.34772 -12.78586,4.86977c-4.51868,2.35838 -7.4948,6.92026 -10.45451,10.30663c-7.37982,8.44366 -0.00542,22.68277 -6.2675,23.17256z" fill="url(#color-12)"/><path d="M269.75272,129.54287c0.35173,-0.29224 0.2847,-1.26361 0.5786,-1.24406c0.34116,0.02269 0.29453,0.80153 0.64197,1.1693c0.21899,0.23181 0.90332,0.2214 0.89079,0.31687c-0.03007,0.22923 -0.57706,0.2402 -0.94284,0.50004c-0.34488,0.24498 -0.35121,0.99364 -0.62872,0.95659c-0.29051,-0.03878 -0.18629,-0.71775 -0.53305,-0.97155c-0.35363,-0.25883 -0.79113,-0.3775 -0.80569,-0.45555c-0.0246,-0.13193 0.49514,-0.01923 0.79894,-0.27165z" fill="url(#color-13)"/><path d="M199.46548,115.6202c-0.02832,-0.15188 0.57005,-0.02213 0.91981,-0.31274c0.40493,-0.33645 0.32776,-1.79 0.66613,-1.76748c0.39278,0.02613 0.33909,1.258 0.73909,1.68142c0.25211,0.26688 1.03997,0.25489 1.02555,0.3648c-0.03462,0.26392 -0.66437,0.27656 -1.08548,0.57569c-0.39704,0.28204 -0.2785,1.28762 -0.59799,1.24497c-0.33446,-0.04466 -0.34033,-0.96999 -0.73954,-1.26219c-0.40713,-0.29798 -0.91082,-0.43463 -0.92757,-0.52447z" fill="url(#color-14)"/><path d="M266.12057,147.95713c-0.02459,-0.13193 0.49514,-0.01922 0.79894,-0.27165c0.35173,-0.29224 0.2847,-1.26361 0.5786,-1.24406c0.34116,0.02269 0.29452,0.80153 0.64196,1.1693c0.21899,0.23181 0.90332,0.2214 0.89079,0.31687c-0.03007,0.22923 -0.57706,0.24021 -0.94284,0.50004c-0.34488,0.24498 -0.35122,0.99365 -0.62873,0.9566c-0.29051,-0.03878 -0.18629,-0.71776 -0.53305,-0.97155c-0.35363,-0.25884 -0.79113,-0.37751 -0.80569,-0.45556z" fill="url(#color-15)"/><path d="M274.17239,138.65127c-0.0182,-0.0976 0.36628,-0.01422 0.59103,-0.20095c0.26021,-0.21619 0.21063,-0.93478 0.42804,-0.92032c0.25238,0.0168 0.21788,0.59294 0.4749,0.86501c0.16201,0.17148 0.66825,0.16379 0.65899,0.23441c-0.02224,0.16958 -0.42689,0.17771 -0.69748,0.36992c-0.25512,0.18123 -0.25981,0.73506 -0.46511,0.70765c-0.21491,-0.02869 -0.13782,-0.53097 -0.39434,-0.71873c-0.2616,-0.19147 -0.58526,-0.27927 -0.59602,-0.337z" fill="url(#color-16)"/><path d="M265.80397,131.70744c-0.01819,-0.0976 0.36629,-0.01422 0.59104,-0.20095c0.2602,-0.21619 0.21062,-0.93478 0.42803,-0.92032c0.25239,0.01679 0.21789,0.59294 0.47491,0.86501c0.16201,0.17148 0.66824,0.16379 0.65898,0.23441c-0.02224,0.16958 -0.42689,0.1777 -0.69748,0.36992c-0.25513,0.18123 -0.25981,0.73506 -0.46511,0.70766c-0.21491,-0.02869 -0.13782,-0.53097 -0.39434,-0.71872c-0.26161,-0.19147 -0.58527,-0.27928 -0.59603,-0.33702z" fill="url(#color-17)"/><path d="M254.34183,151.27002c-0.01819,-0.0976 0.36629,-0.01422 0.59104,-0.20095c0.2602,-0.21619 0.21062,-0.93478 0.42803,-0.92032c0.25239,0.0168 0.21789,0.59295 0.47491,0.86502c0.16201,0.17149 0.66825,0.16379 0.65899,0.23441c-0.02225,0.16958 -0.4269,0.17771 -0.69749,0.36992c-0.25512,0.18123 -0.25981,0.73507 -0.46511,0.70766c-0.21491,-0.02869 -0.13781,-0.53097 -0.39433,-0.71873c-0.2616,-0.19147 -0.58526,-0.27928 -0.59602,-0.33702z" fill="url(#color-18)"/><path d="M267.69158,139.32171c-0.0182,-0.0976 0.36628,-0.01422 0.59103,-0.20095c0.2602,-0.21619 0.21062,-0.93478 0.42803,-0.92032c0.25239,0.0168 0.21789,0.59294 0.47491,0.86501c0.16201,0.17149 0.66825,0.16379 0.65899,0.23441c-0.02225,0.16959 -0.4269,0.17771 -0.69749,0.36992c-0.25512,0.18123 -0.25981,0.73506 -0.46511,0.70766c-0.21491,-0.02869 -0.13781,-0.53097 -0.39433,-0.71873c-0.2616,-0.19147 -0.58526,-0.27928 -0.59602,-0.33701z" fill="url(#color-19)"/><path d="M237.80599,156.58504c0.11311,0.10315 0.47347,0.1059 0.46756,0.24818c-0.00778,0.18708 -0.36058,0.13052 -0.55444,0.23083c-0.13485,0.06977 -0.07743,0.32893 -0.25554,0.32464c-0.23805,-0.00573 -0.18163,-0.28152 -0.32071,-0.40713c-0.11458,-0.10348 -0.44751,-0.04287 -0.44155,-0.18616c0.0062,-0.14912 0.32969,-0.05878 0.46146,-0.15781c0.14855,-0.11163 0.11846,-0.40319 0.34852,-0.39765c0.23942,0.00576 0.15564,0.21829 0.2947,0.34511z" fill="url(#color-20)"/><path d="M260.6814,131.80246c0.23942,0.00575 0.15564,0.21829 0.2947,0.34511c0.11312,0.10315 0.47347,0.10589 0.46756,0.24817c-0.00777,0.18707 -0.36057,0.1305 -0.55443,0.23082c-0.13485,0.06978 -0.07743,0.32895 -0.25554,0.32465c-0.23806,-0.00573 -0.18163,-0.28152 -0.32071,-0.40713c-0.11458,-0.10347 -0.44751,-0.04286 -0.44155,-0.18615c0.0062,-0.14913 0.32969,-0.05878 0.46146,-0.15781c0.14855,-0.11163 0.11846,-0.40318 0.34852,-0.39765z" fill="url(#color-21)"/><path d="M244.99563,151.02111c0.11311,0.10315 0.47347,0.1059 0.46756,0.24818c-0.00778,0.18708 -0.36058,0.13052 -0.55444,0.23083c-0.13485,0.06978 -0.07743,0.32893 -0.25554,0.32464c-0.23805,-0.00573 -0.18163,-0.28152 -0.32071,-0.40713c-0.11458,-0.10347 -0.44751,-0.04287 -0.44155,-0.18616c0.0062,-0.14913 0.32969,-0.05878 0.46146,-0.15781c0.14855,-0.11164 0.11846,-0.40319 0.34852,-0.39765c0.23942,0.00575 0.15564,0.21829 0.2947,0.34511z" fill="url(#color-22)"/><path d="M271.34644,136.83077c0.23942,0.00576 0.15564,0.21829 0.2947,0.34511c0.11311,0.10315 0.47347,0.10589 0.46756,0.24818c-0.00778,0.18707 -0.36058,0.13051 -0.55444,0.23082c-0.13485,0.06977 -0.07743,0.32893 -0.25554,0.32464c-0.23806,-0.00573 -0.18163,-0.28152 -0.32071,-0.40713c-0.11458,-0.10347 -0.44751,-0.04287 -0.44155,-0.18616c0.00619,-0.14913 0.32969,-0.05878 0.46146,-0.15781c0.14855,-0.11164 0.11846,-0.4032 0.34852,-0.39766z" fill="url(#color-23)"/><path d="M220.0859,98.55057c0.35173,-0.29224 0.2847,-1.26362 0.5786,-1.24406c0.34117,0.02271 0.29452,0.80153 0.64196,1.1693c0.21899,0.2318 0.90331,0.2214 0.89079,0.31687c-0.03008,0.22922 -0.57707,0.24019 -0.94284,0.50003c-0.34488,0.24499 -0.35121,0.99365 -0.62872,0.9566c-0.2905,-0.03879 -0.1863,-0.71774 -0.53305,-0.97155c-0.35363,-0.25883 -0.79113,-0.37751 -0.80568,-0.45556c-0.0246,-0.13193 0.49514,-0.01922 0.79894,-0.27164z" fill="url(#color-24)"/><path d="M281.75522,121.95674c-0.02832,-0.15188 0.57005,-0.02212 0.91981,-0.31273c0.40494,-0.33646 0.32777,-1.79 0.66614,-1.7675c0.39277,0.02613 0.33907,1.25802 0.73908,1.68143c0.25211,0.26688 1.03997,0.25489 1.02555,0.3648c-0.03461,0.26392 -0.66436,0.27655 -1.08547,0.57569c-0.39705,0.28204 -0.2785,1.28763 -0.598,1.24498c-0.33446,-0.04466 -0.34032,-0.97 -0.73953,-1.26219c-0.40713,-0.29799 -0.91083,-0.43462 -0.92758,-0.52447z" fill="url(#color-25)"/><path d="M214.9113,98.41639c-0.0246,-0.13193 0.49515,-0.01923 0.79895,-0.27164c0.35173,-0.29224 0.2847,-1.26362 0.5786,-1.24406c0.34117,0.02271 0.29452,0.80153 0.64196,1.16931c0.21899,0.2318 0.90331,0.22139 0.89079,0.31686c-0.03007,0.22924 -0.57707,0.2402 -0.94284,0.50004c-0.34488,0.24498 -0.35122,0.99365 -0.62873,0.9566c-0.29051,-0.03879 -0.1863,-0.71776 -0.53305,-0.97155c-0.35364,-0.25883 -0.79114,-0.3775 -0.80569,-0.45555z" fill="url(#color-26)"/><path d="M260.59888,102.72837c-0.0182,-0.09759 0.3663,-0.01422 0.59104,-0.20095c0.2602,-0.21619 0.21062,-0.93479 0.42803,-0.92032c0.25238,0.01679 0.21787,0.59295 0.47491,0.86501c0.162,0.17149 0.66823,0.16379 0.65897,0.23441c-0.02225,0.16958 -0.4269,0.17771 -0.69749,0.36993c-0.25513,0.18122 -0.25981,0.73507 -0.46511,0.70766c-0.21491,-0.0287 -0.13782,-0.53098 -0.39434,-0.71873c-0.2616,-0.19147 -0.58526,-0.27927 -0.59602,-0.33701z" fill="url(#color-27)"/><path d="M233.41258,101.4195c-0.0182,-0.09759 0.36629,-0.01422 0.59103,-0.20095c0.2602,-0.21619 0.21062,-0.93479 0.42803,-0.92032c0.25239,0.01679 0.21787,0.59295 0.47491,0.86501c0.162,0.17149 0.66824,0.16379 0.65898,0.23441c-0.02225,0.16958 -0.4269,0.1777 -0.69749,0.36992c-0.25512,0.18122 -0.25981,0.73507 -0.46511,0.70766c-0.21491,-0.02869 -0.13781,-0.53098 -0.39433,-0.71872c-0.26161,-0.19147 -0.58527,-0.27927 -0.59603,-0.33701z" fill="url(#color-28)"/><path d="M229.3542,112.52965c-0.0182,-0.09761 0.36629,-0.01423 0.59103,-0.20096c0.2602,-0.21619 0.21062,-0.93479 0.42803,-0.92032c0.25239,0.01679 0.21787,0.59295 0.47491,0.86501c0.16201,0.17149 0.66824,0.16379 0.65898,0.23441c-0.02224,0.16958 -0.42689,0.1777 -0.69748,0.36992c-0.25512,0.18124 -0.25981,0.73509 -0.46511,0.70767c-0.21491,-0.02869 -0.13782,-0.53098 -0.39434,-0.71872c-0.26161,-0.19147 -0.58527,-0.27927 -0.59603,-0.33701z" fill="url(#color-29)"/><path d="M214.93986,102.92923c-0.0182,-0.09761 0.36629,-0.01423 0.59103,-0.20096c0.2602,-0.21619 0.21062,-0.93478 0.42804,-0.92031c0.25239,0.01678 0.21788,0.59295 0.47491,0.86501c0.16201,0.17149 0.66825,0.16379 0.65898,0.23441c-0.02224,0.16958 -0.42689,0.1777 -0.69748,0.36991c-0.25512,0.18123 -0.25982,0.73508 -0.46511,0.70767c-0.21491,-0.02868 -0.13783,-0.53098 -0.39434,-0.71873c-0.2616,-0.19147 -0.58526,-0.27926 -0.59602,-0.33699z" fill="url(#color-30)"/><path d="M246.76599,99.89029c0.23941,0.00576 0.15563,0.21829 0.29469,0.34511c0.11312,0.10315 0.47347,0.1059 0.46756,0.24818c-0.00778,0.18707 -0.36058,0.1305 -0.55444,0.23081c-0.13485,0.06977 -0.07743,0.32892 -0.25554,0.32464c-0.23805,-0.00572 -0.18162,-0.28154 -0.3207,-0.40713c-0.11458,-0.10347 -0.44752,-0.04286 -0.44156,-0.18615c0.00619,-0.14913 0.32969,-0.05877 0.46146,-0.15781c0.14855,-0.11164 0.11846,-0.40319 0.34852,-0.39765z" fill="url(#color-31)"/><path d="M217.80136,121.00211c0.23941,0.00576 0.15563,0.2183 0.29469,0.34511c0.11312,0.10317 0.47347,0.1059 0.46756,0.24818c-0.00777,0.18708 -0.36058,0.13052 -0.55443,0.23082c-0.13485,0.06978 -0.07743,0.32892 -0.25554,0.32464c-0.23805,-0.00572 -0.18162,-0.28154 -0.32071,-0.40713c-0.11457,-0.10347 -0.4475,-0.04287 -0.44155,-0.18615c0.0062,-0.14912 0.32969,-0.05877 0.46146,-0.1578c0.14855,-0.11164 0.11845,-0.4032 0.34852,-0.39766z" fill="url(#color-32)"/><path d="M258.58296,109.35294c0.23942,0.00576 0.15564,0.21829 0.2947,0.34511c0.11311,0.10316 0.47347,0.1059 0.46756,0.24818c-0.00778,0.18708 -0.36058,0.13052 -0.55444,0.23082c-0.13485,0.06978 -0.07743,0.32892 -0.25554,0.32464c-0.23805,-0.00573 -0.18163,-0.28154 -0.32071,-0.40714c-0.11457,-0.10347 -0.4475,-0.04287 -0.44154,-0.18616c0.0062,-0.14913 0.32968,-0.05877 0.46145,-0.15781c0.14854,-0.11164 0.11846,-0.40319 0.34852,-0.39765z" fill="url(#color-33)"/><path d="M238.95503,106.54281c0.23942,0.00576 0.15564,0.21829 0.2947,0.34511c0.11311,0.10315 0.47346,0.1059 0.46755,0.24818c-0.00778,0.18709 -0.36058,0.13052 -0.55444,0.23083c-0.13484,0.06978 -0.07742,0.32892 -0.25553,0.32464c-0.23805,-0.00573 -0.18163,-0.28154 -0.32071,-0.40713c-0.11457,-0.10347 -0.4475,-0.04287 -0.44154,-0.18615c0.0062,-0.14913 0.32969,-0.05878 0.46146,-0.15781c0.14854,-0.11164 0.11845,-0.40319 0.34851,-0.39765z" fill="url(#color-34)"/><path d="M270.26723,115.21084c-0.0246,-0.13193 0.49514,-0.01922 0.79894,-0.27164c0.35172,-0.29225 0.2847,-1.26362 0.5786,-1.24407c0.34117,0.02269 0.29452,0.80152 0.64196,1.1693c0.21899,0.23182 0.90331,0.22141 0.89079,0.31688c-0.03007,0.22923 -0.57707,0.24019 -0.94284,0.50003c-0.34488,0.24499 -0.35121,0.99364 -0.62872,0.95659c-0.29051,-0.03878 -0.1863,-0.71774 -0.53305,-0.97153c-0.35364,-0.25883 -0.79114,-0.37751 -0.80569,-0.45556z" fill="url(#color-35)"/><path d="M220.01559,136.95572c0.40494,-0.33646 0.32777,-1.78999 0.66614,-1.76748c0.39278,0.02614 0.33908,1.25802 0.73909,1.68143c0.25211,0.26688 1.03997,0.25489 1.02555,0.3648c-0.03462,0.26392 -0.66437,0.27656 -1.08548,0.57569c-0.39705,0.28204 -0.2785,1.28763 -0.598,1.24497c-0.33445,-0.04466 -0.34031,-0.97 -0.73953,-1.26219c-0.40712,-0.29799 -0.91083,-0.43462 -0.92758,-0.52447c-0.02832,-0.15188 0.57005,-0.02214 0.91981,-0.31275z" fill="url(#color-36)"/><path d="M220.4641,154.76603c-0.0246,-0.13193 0.49515,-0.01922 0.79895,-0.27164c0.35173,-0.29224 0.2847,-1.26362 0.5786,-1.24406c0.34117,0.02269 0.29453,0.80153 0.64197,1.16931c0.21899,0.23181 0.9033,0.2214 0.89078,0.31687c-0.03007,0.22923 -0.57707,0.2402 -0.94284,0.50004c-0.34488,0.24499 -0.35121,0.99365 -0.62872,0.9566c-0.29051,-0.03878 -0.1863,-0.71775 -0.53305,-0.97154c-0.35364,-0.25883 -0.79114,-0.37751 -0.80569,-0.45556z" fill="url(#color-37)"/><path d="M219.56974,147.10372c-0.0182,-0.0976 0.3663,-0.01422 0.59104,-0.20095c0.26021,-0.21619 0.21062,-0.93478 0.42804,-0.92031c0.25238,0.0168 0.21788,0.59294 0.47491,0.86501c0.16199,0.17149 0.66824,0.16379 0.65897,0.23441c-0.02224,0.16958 -0.42689,0.1777 -0.69748,0.36991c-0.25512,0.18123 -0.25982,0.73507 -0.46511,0.70766c-0.2149,-0.02869 -0.13783,-0.53097 -0.39434,-0.71873c-0.26161,-0.19147 -0.58526,-0.27927 -0.59602,-0.337z" fill="url(#color-38)"/><path d="M212.22701,133.16574c-0.01972,-0.10573 0.39681,-0.01541 0.64028,-0.2177c0.28188,-0.23421 0.22817,-1.01269 0.46371,-0.99702c0.27342,0.01819 0.23603,0.64237 0.51448,0.93711c0.17551,0.18578 0.72394,0.17742 0.7139,0.25394c-0.0241,0.18372 -0.46247,0.19251 -0.75561,0.40075c-0.27638,0.19634 -0.28147,0.79632 -0.50387,0.76664c-0.23282,-0.03108 -0.1493,-0.57521 -0.4272,-0.77862c-0.28341,-0.20743 -0.63403,-0.30255 -0.64569,-0.36509z" fill="url(#color-39)"/><path d="M203.32454,108.70403c0.2602,-0.21619 0.21062,-0.93478 0.42804,-0.92031c0.25239,0.0168 0.21788,0.59294 0.47491,0.86501c0.16201,0.17148 0.66825,0.16379 0.65898,0.23441c-0.02224,0.16958 -0.42689,0.1777 -0.69748,0.36991c-0.25513,0.18123 -0.25982,0.73507 -0.46511,0.70766c-0.21491,-0.02869 -0.13783,-0.53097 -0.39434,-0.71873c-0.2616,-0.19147 -0.58527,-0.27927 -0.59603,-0.337c-0.0182,-0.0976 0.36629,-0.01423 0.59103,-0.20096z" fill="url(#color-40)"/><path d="M213.67996,147.57321c0.2602,-0.21619 0.21062,-0.93479 0.42804,-0.92032c0.25239,0.01678 0.21787,0.59294 0.4749,0.86501c0.16201,0.17148 0.66826,0.16378 0.65899,0.2344c-0.02224,0.16958 -0.4269,0.1777 -0.69749,0.36991c-0.25513,0.18123 -0.25982,0.73507 -0.46511,0.70767c-0.21491,-0.02868 -0.13783,-0.53096 -0.39434,-0.71872c-0.2616,-0.19147 -0.58526,-0.27928 -0.59602,-0.33701c-0.01819,-0.0976 0.36629,-0.01422 0.59103,-0.20095z" fill="url(#color-41)"/><path d="M220.53057,140.38452c0.11311,0.10315 0.47347,0.1059 0.46756,0.24818c-0.00778,0.18708 -0.36059,0.1305 -0.55444,0.23083c-0.13485,0.06977 -0.07743,0.32894 -0.25554,0.32464c-0.23805,-0.00573 -0.18161,-0.28153 -0.3207,-0.40714c-0.11457,-0.10347 -0.4475,-0.04286 -0.44155,-0.18615c0.0062,-0.14913 0.32969,-0.05879 0.46146,-0.15781c0.14854,-0.11163 0.11844,-0.40319 0.34851,-0.39765c0.23942,0.00576 0.15564,0.2183 0.2947,0.34511z" fill="url(#color-42)"/><path d="M206.07876,140.2549c0.23941,0.00575 0.15563,0.2183 0.29469,0.34511c0.11311,0.10316 0.47347,0.1059 0.46756,0.24818c-0.00777,0.18708 -0.36059,0.1305 -0.55444,0.23083c-0.13484,0.06977 -0.07742,0.32893 -0.25553,0.32464c-0.23806,-0.00573 -0.18163,-0.28152 -0.32072,-0.40713c-0.11458,-0.10347 -0.4475,-0.04287 -0.44155,-0.18616c0.0062,-0.14913 0.32969,-0.05879 0.46146,-0.15781c0.14855,-0.11164 0.11845,-0.40319 0.34852,-0.39765z" fill="url(#color-43)"/><path d="M220.33027,149.73684c0.23942,0.00576 0.15563,0.21831 0.29469,0.34512c0.11311,0.10316 0.47347,0.10589 0.46756,0.24818c-0.00778,0.18708 -0.36059,0.1305 -0.55444,0.23082c-0.13485,0.06977 -0.07743,0.32894 -0.25554,0.32464c-0.23805,-0.00573 -0.18162,-0.28153 -0.32071,-0.40714c-0.11458,-0.10347 -0.4475,-0.04287 -0.44155,-0.18616c0.00619,-0.14913 0.32968,-0.05879 0.46145,-0.15781c0.14854,-0.11164 0.11845,-0.40319 0.34852,-0.39765z" fill="url(#color-44)"/><path d="M216.74379,145.2832c0.23941,0.00576 0.15564,0.21831 0.2947,0.34512c0.11311,0.10315 0.47346,0.10589 0.46755,0.24817c-0.00778,0.18708 -0.36059,0.1305 -0.55444,0.23083c-0.13484,0.06977 -0.07742,0.32894 -0.25553,0.32464c-0.23805,-0.00573 -0.18162,-0.28153 -0.32071,-0.40713c-0.11458,-0.10347 -0.4475,-0.04287 -0.44155,-0.18616c0.0062,-0.14912 0.32969,-0.05878 0.46146,-0.1578c0.14854,-0.11164 0.11844,-0.4032 0.34851,-0.39766z" fill="url(#color-45)"/></g></g></g></svg>