<svg version="1.1" xmlns="http://www.w3.org/2000/svg" xmlns:xlink="http://www.w3.org/1999/xlink" width="124.02082" height="154.62077" viewBox="0,0,124.02082,154.62077"><defs><linearGradient x1="240.75268" y1="68.29053" x2="240.75268" y2="232.47416" gradientUnits="userSpaceOnUse" id="color-1"><stop offset="0" stop-color="#000000"/><stop offset="1" stop-color="#000000" stop-opacity="0"/></linearGradient></defs><g transform="translate(-178.05654,-51.455)"><g data-paper-data="{&quot;isPaintingLayer&quot;:true}" fill-rule="nonzero" stroke-miterlimit="10" stroke-dasharray="" stroke-dashoffset="0" style="mix-blend-mode: normal"><path d="M293.91913,179.73317c0.09218,1.72716 -8.29132,6.49133 -51.96153,6.49133c-43.67021,0 -55.86285,-4.06675 -55.87747,-6.84709c-0.01262,-2.4004 11.30359,-5.6019 54.97377,-5.6019c43.67021,0 52.78087,4.37778 52.86521,5.95766z" fill="url(#color-1)" stroke="none" stroke-width="0" stroke-linecap="butt" stroke-linejoin="miter"/><text transform="translate(229.12799,201.22798) scale(0.28942,0.28942)" font-size="40" xml:space="preserve" fill="#000000" fill-rule="nonzero" stroke="#000000" stroke-width="0.5" stroke-linecap="butt" stroke-linejoin="miter" stroke-miterlimit="10" stroke-dasharray="" stroke-dashoffset="0" font-family="Handwriting" font-weight="normal" text-anchor="start" style="mix-blend-mode: normal"></text><text transform="translate(204.48912,62.96748) scale(0.30296,0.30296)" font-size="40" xml:space="preserve" fill="#000000" fill-rule="nonzero" stroke="#000000" stroke-width="1" stroke-linecap="butt" stroke-linejoin="miter" stroke-miterlimit="10" stroke-dasharray="" stroke-dashoffset="0" font-family="Handwriting" font-weight="normal" text-anchor="start" style="mix-blend-mode: normal"></text><text transform="translate(178.20153,78.03174) scale(0.28998,0.28998)" font-size="40" xml:space="preserve" fill="#000000" fill-rule="nonzero" stroke="#000000" stroke-width="1" stroke-linecap="butt" stroke-linejoin="miter" stroke-miterlimit="10" stroke-dasharray="" stroke-dashoffset="0" font-family="Handwriting" font-weight="normal" text-anchor="start" style="mix-blend-mode: normal"></text><g stroke-width="0.4" stroke-linecap="butt" stroke-linejoin="miter"><path d="M224.77618,140.44755l4.33705,-2.33534l16.2139,4.33705l-6.60566,2.8024z" fill="#cdc9ad" stroke="#5e154d"/><path d="M235.11838,148.12079l-0.09812,-1.13179c0,0 -2.21218,-0.83133 -2.21773,-1.13596c-0.00616,-0.33777 2.1824,-0.80155 2.1824,-0.80155l0.13345,-1.6681h3.40292v4.73739z" fill="#ccc58f" stroke="#5e154d"/><path d="M237.50708,149.02156c0,0 -0.89294,-1.24618 -0.91278,-3.45484c-0.01809,-2.01372 0.60645,-3.21754 0.60645,-3.21754h8.88358c0,0 0.51055,1.9265 0.51055,3.46964c0,1.85336 -0.51055,3.20275 -0.51055,3.20275z" fill="#ebebeb" stroke="#5e154d"/><path d="M237.65389,148.88812c0,0 -0.41974,-0.47037 -0.54207,-0.80677c-0.14171,-0.38969 -0.25862,-1.39511 -0.25862,-1.39511h9.60824l-0.46707,2.20189z" fill="#cdc9ad" stroke="none"/></g><g stroke-width="0.4" stroke-linecap="butt" stroke-linejoin="miter"><path d="M238.72147,136.1105l4.33705,-2.33534l16.2139,4.33705l-6.60566,2.8024z" fill="#cdc9ad" stroke="#5e154d"/><path d="M249.06367,143.78374l-0.09812,-1.13179c0,0 -2.21218,-0.83133 -2.21774,-1.13596c-0.00616,-0.33777 2.1824,-0.80155 2.1824,-0.80155l0.13345,-1.6681h3.40292v4.73739z" fill="#ccc58f" stroke="#5e154d"/><path d="M251.45237,144.68451c0,0 -0.89294,-1.24618 -0.91279,-3.45484c-0.01809,-2.01372 0.60646,-3.21754 0.60646,-3.21754h8.88358c0,0 0.51055,1.9265 0.51055,3.46964c0,1.85336 -0.51055,3.20275 -0.51055,3.20275z" fill="#ebebeb" stroke="#5e154d"/><path d="M251.59917,144.55107c0,0 -0.41974,-0.47037 -0.54207,-0.80677c-0.14171,-0.38969 -0.25862,-1.39511 -0.25862,-1.39511h9.60824l-0.46707,2.20189z" fill="#cdc9ad" stroke="none"/></g><path d="M193.07946,116.47325l-6.27754,-17.74506l5.05608,0.17088l14.96107,17.44911l58.58817,0.17863c0.24762,0 5.42549,0.3953 9.40238,1.92829c1.9868,0.76586 7.33035,5.48411 9.4921,7.97698c0.95771,1.10441 4.58398,2.59134 4.63704,4.39797c0.10697,3.64222 -5.82026,4.1459 -10.08356,4.12886c-0.50692,0.11139 -60.27744,0.49162 -61.65724,0.14072c-5.12932,-1.30445 -9.84995,-2.9794 -13.83115,-5.06456c-3.96838,-2.07845 -10.0177,-8.49392 -10.0177,-8.49392l-5.68555,-1.30815l0.02982,-2.6676c0,0 5.35652,-1.09203 5.38606,-1.09215z" data-paper-data="{&quot;index&quot;:null}" fill="#ebebeb" stroke="none" stroke-width="0.4" stroke-linecap="round" stroke-linejoin="round"/><path d="M194.71966,107.35396l2.8743,0.03536l21.36871,25.36418l-2.45101,0.03322z" fill="#fc8162" stroke="none" stroke-width="0.4" stroke-linecap="butt" stroke-linejoin="miter"/><text transform="translate(241.71977,125.35773) scale(0.15918,0.15918)" font-size="40" xml:space="preserve" fill="#fde982" fill-rule="nonzero" stroke="none" stroke-width="0.8" stroke-linecap="butt" stroke-linejoin="miter" stroke-miterlimit="10" stroke-dasharray="" stroke-dashoffset="0" font-family="Marker" font-weight="normal" text-anchor="start" style="mix-blend-mode: normal"></text><path d="M280.86608,134.91461c-0.84384,0.07933 -63.52111,0.40034 -63.52111,0.40034c0,0 -7.98533,-1.69939 -12.08391,-3.99619c-0.69384,-0.38882 -4.98696,-3.39446 -8.20645,-5.91926c-2.35217,-1.84463 -3.77553,-3.66388 -3.77553,-3.66388l-5.57537,-1.59519l-0.05017,-0.90991l6.47338,1.66192c0,0 8.23667,7.19376 16.04385,10.03445c1.18905,0.43265 3.8635,1.65734 7.44439,1.74544c1.19818,0.02948 58.32059,0.59948 64.92964,0.23034c3.90681,-0.21821 6.70576,-2.05479 6.71015,-1.93922c-1.09351,4.18387 -6.05351,3.73161 -8.38885,3.95117z" fill="#cdc9ad" stroke="none" stroke-width="0.4" stroke-linecap="butt" stroke-linejoin="miter"/><path d="M193.21291,116.6067l-6.27754,-17.74506l5.05608,0.17088l14.96107,17.44911l58.58817,0.17863c0.24762,0 5.42549,0.3953 9.40238,1.92829c1.9868,0.76586 7.33035,5.48411 9.4921,7.97698c0.95771,1.10441 4.58398,2.59134 4.63704,4.39797c0.10697,3.64222 -5.82026,4.1459 -10.08356,4.12886c-0.50692,0.11139 -60.27744,0.49162 -61.65724,0.14072c-5.12932,-1.30445 -9.84995,-2.9794 -13.83115,-5.06456c-3.96838,-2.07845 -10.0177,-8.49392 -10.0177,-8.49392l-5.68555,-1.30815l0.02982,-2.6676c0,0 5.35652,-1.09203 5.38606,-1.09215z" data-paper-data="{&quot;index&quot;:null}" fill="none" stroke="#5e154d" stroke-width="0.4" stroke-linecap="round" stroke-linejoin="round"/><g data-paper-data="{&quot;index&quot;:null}" stroke-width="0.4"><path d="M268.59478,125.81157h5.52345v6.11224h-5.52345v-6.11224" fill="#fde982" stroke="#5e154d" stroke-linecap="butt" stroke-linejoin="round"/><path d="M271.65478,126.3116h1.85956v4.41989h-1.85956v-4.41989" fill="#8b49d4" stroke="#ffffff" stroke-linecap="round" stroke-linejoin="round"/><path d="M270.30705,126.3116l0.73646,1.56198v0.4675l-0.96476,-2.02948h0.2283" fill="#b388ed" stroke="none" stroke-linecap="butt" stroke-linejoin="miter"/><path d="M271.05088,126.3116v1.57094l-0.73646,-1.5621l0.73646,-0.00884" fill="#8b49d4" stroke="none" stroke-linecap="butt" stroke-linejoin="miter"/><path d="M269.39753,126.3116l1.65336,3.47028v0.94961h-1.84115v-4.41989h0.1878" fill="#8b49d4" stroke="none" stroke-linecap="butt" stroke-linejoin="miter"/><path d="M269.87254,126.3116l1.17834,2.47623v0.99405l-1.65336,-3.47028h0.47502" fill="#b388ed" stroke="none" stroke-linecap="butt" stroke-linejoin="miter"/><path d="M270.08612,126.3116l0.96476,2.02948v0.44675l-1.17834,-2.47623h0.21358" fill="#8b49d4" stroke="none" stroke-linecap="butt" stroke-linejoin="miter"/><path d="M271.05088,126.3116v4.41989h-1.84115v-4.41989h1.84115" fill="none" stroke="#ffffff" stroke-linecap="round" stroke-linejoin="round"/></g><g stroke-width="0.4"><path d="M280.74208,124.54833l1.16616,2.44628h-3.47716l-1.16616,-2.44628h3.47716" fill="#a170e0" stroke="none" stroke-linecap="butt" stroke-linejoin="miter"/><path d="M280.91867,124.54833l1.16616,2.44628h-0.1766l-1.16616,-2.44628h0.1766" fill="#c5a2fc" stroke="none" stroke-linecap="butt" stroke-linejoin="miter"/><path d="M277.5085,124.54833l1.18443,2.44628h-0.43845l-1.1692,-2.44628h0.42323" fill="#c5a2fc" stroke="none" stroke-linecap="butt" stroke-linejoin="miter"/><path d="M277.08527,124.54833l1.1692,2.44628h-2.40358l-0.094,-2.44628h1.32837" fill="#a170e0" stroke="none" stroke-linecap="butt" stroke-linejoin="miter"/><path d="M281.30841,124.54833l1.16616,2.44628h-0.38973l-1.16616,-2.44628h0.38974" fill="#a170e0" stroke="none" stroke-linecap="butt" stroke-linejoin="miter"/><path d="M281.97826,124.54833l1.17225,2.44628h-0.67595l-1.16616,-2.44628h0.66986" fill="#c5a2fc" stroke="none" stroke-linecap="butt" stroke-linejoin="miter"/><path d="M282.63022,124.54833l1.99824,2.37659l-1.47795,0.07465l-1.17225,-2.44628z" fill="#a170e0" stroke="none" stroke-linecap="butt" stroke-linejoin="miter"/><path d="M284.70472,126.99631l-8.97188,0.02267l0.04873,-2.47064l6.83343,-0.03813c0.24663,0 2.08972,2.4861 2.08972,2.4861z" fill="none" stroke="#5e154d" stroke-linecap="round" stroke-linejoin="round"/><path d="M280.2001,126.99958h-0.42323v-2.45612h0.42323z" fill="#5e154d" stroke="#5e154d" stroke-linecap="round" stroke-linejoin="round"/><path d="M276.11398,126.99958h-0.42323v-2.45612h0.42323z" fill="#5e154d" stroke="#5e154d" stroke-linecap="round" stroke-linejoin="round"/></g><path d="M257.74856,133.14129c0,2.21103 -27.13539,11.38033 -37.83984,10.67582c-2.17765,-0.14332 6.15092,-5.07306 7.32174,-8.01257c0.56299,-1.41347 -6.0614,-3.2409 -6.0614,-4.26462c0,-0.74311 8.16266,-0.53379 18.89027,-0.53379c10.72761,0 17.68924,-0.07587 17.68924,2.13516z" fill="#ebebeb" stroke="#5e154d" stroke-width="0.4" stroke-linecap="butt" stroke-linejoin="miter"/><g data-paper-data="{&quot;index&quot;:null}" stroke-width="0.4"><path d="M261.78442,125.97194l1.20581,2.52946h-3.5954l-1.20581,-2.52946h3.5954" fill="#a170e0" stroke="none" stroke-linecap="butt" stroke-linejoin="miter"/><path d="M261.96703,125.97194l1.20581,2.52946h-0.1826l-1.20581,-2.52946h0.1826" fill="#c5a2fc" stroke="none" stroke-linecap="butt" stroke-linejoin="miter"/><path d="M258.44089,125.97194l1.2247,2.52946h-0.45336l-1.20896,-2.52946h0.43762" fill="#c5a2fc" stroke="none" stroke-linecap="butt" stroke-linejoin="miter"/><path d="M258.00327,125.97194l1.20896,2.52946h-7.67565l-1.20581,-2.52946h7.6725" fill="#a170e0" stroke="none" stroke-linecap="butt" stroke-linejoin="miter"/><path d="M262.37001,125.97194l1.20581,2.52946h-0.40299l-1.20581,-2.52946h0.40299" fill="#a170e0" stroke="none" stroke-linecap="butt" stroke-linejoin="miter"/><path d="M263.06264,125.97194l1.21211,2.52946h-0.69893l-1.20581,-2.52946h0.69263" fill="#c5a2fc" stroke="none" stroke-linecap="butt" stroke-linejoin="miter"/><path d="M264.40699,125.97194c0.25187,0 0.22668,-0.04041 0.27705,0.1417c0.05037,0.18212 0.36836,1.83133 0.40928,2.07916c0.04093,0.24793 -0.06297,0.31374 -0.31483,0.31374h-0.50373l-1.21211,-2.52946z" fill="#a170e0" stroke="none" stroke-linecap="butt" stroke-linejoin="miter"/><path d="M249.2383,125.97194l1.20581,2.52946h-7.79843l-1.20581,-2.52946h7.79843" fill="#a170e0" stroke="none" stroke-linecap="butt" stroke-linejoin="miter"/><path d="M241.67914,125.97194l1.19322,2.52946h-0.41243l-1.20581,-2.52946h0.42503" fill="#c5a2fc" stroke="none" stroke-linecap="butt" stroke-linejoin="miter"/><path d="M240.74409,125.97194h0.51003l1.20581,2.52946h-1.71584v-2.52946" fill="#a170e0" stroke="none" stroke-linecap="butt" stroke-linejoin="miter"/><path d="M249.73889,125.97194l1.20581,2.52946h-0.72727l-1.17118,-2.52946h0.69263" fill="#c5a2fc" stroke="none" stroke-linecap="butt" stroke-linejoin="miter"/><path d="M250.33077,125.97194l1.20581,2.52946h-0.1826l-1.20896,-2.52946h0.18575" fill="#c5a2fc" stroke="none" stroke-linecap="butt" stroke-linejoin="miter"/><path d="M250.14502,125.97194l1.20896,2.52946h-0.40928l-1.20581,-2.52946h0.40613" fill="#a170e0" stroke="none" stroke-linecap="butt" stroke-linejoin="miter"/><path d="M264.67145,126.1086c0.05037,0.18212 0.38725,1.84645 0.42188,2.07916c0.03463,0.23271 -0.07556,0.31364 -0.31483,0.31364h-24.047v-2.52946h23.65975c0.25502,0 0.22983,-0.04545 0.2802,0.13666z" fill="none" stroke="#5e154d" stroke-linecap="round" stroke-linejoin="round"/><path d="M261.22402,128.50654h-0.43762v-2.53964h0.43762z" fill="#5e154d" stroke="#5e154d" stroke-linecap="round" stroke-linejoin="round"/><path d="M256.99895,128.50654h-0.43762v-2.53964h0.43762z" fill="#5e154d" stroke="#5e154d" stroke-linecap="round" stroke-linejoin="round"/><path d="M252.73295,128.50654h-0.43762v-2.53964h0.43762z" fill="#5e154d" stroke="#5e154d" stroke-linecap="round" stroke-linejoin="round"/><path d="M248.46381,128.50654h-0.43762v-2.53964h0.43762z" fill="#5e154d" stroke="#5e154d" stroke-linecap="round" stroke-linejoin="round"/><path d="M244.19466,128.50654h-0.43762v-2.53964h0.43762z" fill="#5e154d" stroke="#5e154d" stroke-linecap="round" stroke-linejoin="round"/></g><g data-paper-data="{&quot;index&quot;:null}" stroke-width="0.4"><path d="M229.47271,126.19718l1.25533,2.62646h-0.47729l-1.25206,-2.62646h0.47402" fill="#b388ed" stroke="none" stroke-linecap="butt" stroke-linejoin="miter"/><path d="M231.05494,126.19718v2.62646h-0.32691l-1.25533,-2.62646h1.58223" fill="#8b49d4" stroke="none" stroke-linecap="butt" stroke-linejoin="miter"/><path d="M228.60967,126.19718l1.25206,2.62646h-0.19614l-1.25206,-2.62646h0.19614" fill="#b388ed" stroke="none" stroke-linecap="butt" stroke-linejoin="miter"/><path d="M228.99869,126.19718l1.25206,2.62646h-0.38902l-1.25206,-2.62646h0.38902" fill="#8b49d4" stroke="none" stroke-linecap="butt" stroke-linejoin="miter"/><path d="M223.73875,126.19718h4.67478l1.25206,2.62646h-5.92683v-2.62646" fill="#8b49d4" stroke="none" stroke-linecap="butt" stroke-linejoin="miter"/><path d="M223.73875,126.19718h7.31619v2.62646h-7.31619v-2.62646" fill="none" stroke="#5e154d" stroke-linecap="round" stroke-linejoin="round"/><path d="M227.59953,128.83149h-0.4544v-2.63693h0.4544z" fill="#5e154d" stroke="#5e154d" stroke-linecap="round" stroke-linejoin="round"/></g><g data-paper-data="{&quot;index&quot;:null}" stroke-width="0.4"><path d="M233.73582,124.87743h4.89968v5.42197h-4.89968v-5.42197" fill="#fde982" stroke="#5e154d" stroke-linecap="butt" stroke-linejoin="round"/><path d="M234.26172,125.321h1.63323v3.92074h-1.63323v-3.92074" fill="#8b49d4" stroke="#ffffff" stroke-linecap="round" stroke-linejoin="round"/><path d="M237.10679,125.321l0.97994,2.04956v0.88179l-1.39477,-2.93136h0.41484" fill="#b388ed" stroke="none" stroke-linecap="butt" stroke-linejoin="miter"/><path d="M236.70175,125.321l1.38498,2.93136v0.98939h-1.63323v-3.92074h0.24825" fill="#8b49d4" stroke="none" stroke-linecap="butt" stroke-linejoin="miter"/><path d="M238.08673,125.321v2.04956l-0.97994,-2.04956h0.97994" fill="#8b49d4" stroke="none" stroke-linecap="butt" stroke-linejoin="miter"/><path d="M236.4535,125.321h1.63323v3.92074h-1.63323v-3.92074" fill="none" stroke="#ffffff" stroke-linecap="round" stroke-linejoin="round"/></g><g data-paper-data="{&quot;index&quot;:null}" stroke-width="0.4"><path d="M216.81707,124.87744h4.93335v5.45923h-4.93335v-5.45923" fill="#fde982" stroke="#5e154d" stroke-linecap="butt" stroke-linejoin="round"/><path d="M219.55014,125.32404h1.6609v3.94768h-1.6609v-3.94768" fill="#8b49d4" stroke="#ffffff" stroke-linecap="round" stroke-linejoin="round"/><path d="M218.34641,125.32404l0.65778,1.3951v0.41755l-0.86169,-1.81265h0.20391" fill="#b388ed" stroke="none" stroke-linecap="butt" stroke-linejoin="miter"/><path d="M219.01076,125.32404v1.4031l-0.65778,-1.39521l0.65778,-0.00789" fill="#8b49d4" stroke="none" stroke-linecap="butt" stroke-linejoin="miter"/><path d="M217.53405,125.32404l1.47672,3.09952v0.84816h-1.64445v-3.94768h0.16773" fill="#8b49d4" stroke="none" stroke-linecap="butt" stroke-linejoin="miter"/><path d="M217.95832,125.32404l1.05245,2.21168v0.88785l-1.47672,-3.09952h0.42427" fill="#b388ed" stroke="none" stroke-linecap="butt" stroke-linejoin="miter"/><path d="M218.14907,125.32404l0.86169,1.81265v0.39902l-1.05245,-2.21168h0.19076" fill="#8b49d4" stroke="none" stroke-linecap="butt" stroke-linejoin="miter"/><path d="M219.01076,125.32404v3.94768h-1.64445v-3.94768h1.64445" fill="none" stroke="#ffffff" stroke-linecap="round" stroke-linejoin="round"/></g><g data-paper-data="{&quot;index&quot;:null}" stroke-width="0.4"><path d="M212.03484,125.93035l1.28104,2.68727h-0.6054l-1.28104,-2.68727h0.6054" fill="#b388ed" stroke="none" stroke-linecap="butt" stroke-linejoin="miter"/><path d="M211.42944,125.93035l1.28104,2.68727h-0.41475l-1.28105,-2.68727h0.41475" fill="#8b49d4" stroke="none" stroke-linecap="butt" stroke-linejoin="miter"/><path d="M211.01469,125.93035l1.28105,2.68727h-0.27427l-1.28104,-2.68727h0.27427" fill="#b388ed" stroke="none" stroke-linecap="butt" stroke-linejoin="miter"/><path d="M215.10868,125.93035v2.68727h-1.7928l-1.28104,-2.68727h3.07384" fill="#8b49d4" stroke="none" stroke-linecap="butt" stroke-linejoin="miter"/><path d="M208.88742,125.93035h1.85635l1.2777,2.68727h-3.13405v-2.68727" fill="#8b49d4" stroke="none" stroke-linecap="butt" stroke-linejoin="miter"/><path d="M208.92086,125.93035h6.22461v2.68727h-6.22461v-2.68727" fill="none" stroke="#5e154d" stroke-linecap="round" stroke-linejoin="round"/><path d="M214.02498,128.62565h-0.46492v-2.69798h0.46492z" fill="#5e154d" stroke="#5e154d" stroke-linecap="round" stroke-linejoin="round"/><path d="M210.50963,128.62565h-0.46492v-2.69798h0.46492z" fill="#5e154d" stroke="#5e154d" stroke-linecap="round" stroke-linejoin="round"/></g><path d="M219.63395,119.52481l1.25992,2.64297h-0.59542l-1.25992,-2.64297h0.59542" fill="#b388ed" stroke="none" stroke-width="0.4" stroke-linecap="butt" stroke-linejoin="miter"/><path d="M219.03853,119.52481l1.25992,2.64297h-0.40791l-1.25993,-2.64297h0.40791" fill="#8b49d4" stroke="none" stroke-width="0.4" stroke-linecap="butt" stroke-linejoin="miter"/><path d="M218.63062,119.52481l1.25993,2.64297h-0.26975l-1.25992,-2.64297h0.26975" fill="#b388ed" stroke="none" stroke-width="0.4" stroke-linecap="butt" stroke-linejoin="miter"/><path d="M222.65711,119.52481v2.64297h-1.76324l-1.25992,-2.64297h3.02316" fill="#8b49d4" stroke="none" stroke-width="0.4" stroke-linecap="butt" stroke-linejoin="miter"/><path d="M216.53842,119.52481h1.82574l1.25663,2.64297h-3.08237v-2.64297" fill="#8b49d4" stroke="none" stroke-width="0.4" stroke-linecap="butt" stroke-linejoin="miter"/><path d="M221.59128,122.17568h-0.45726v-2.6535h0.45726z" fill="#5e154d" stroke="#5e154d" stroke-width="0.4" stroke-linecap="round" stroke-linejoin="round"/><path d="M218.13389,122.17568h-0.45726v-2.6535h0.45726z" fill="#5e154d" stroke="#5e154d" stroke-width="0.4" stroke-linecap="round" stroke-linejoin="round"/><path d="M215.1938,119.5248l1.25533,2.62646h-0.47729l-1.25206,-2.62646h0.47402" fill="#b388ed" stroke="none" stroke-width="0.4" stroke-linecap="butt" stroke-linejoin="miter"/><path d="M216.77603,119.5248v2.62646h-0.32691l-1.25533,-2.62646h1.58223" fill="#8b49d4" stroke="none" stroke-width="0.4" stroke-linecap="butt" stroke-linejoin="miter"/><path d="M214.33077,119.5248l1.25206,2.62646h-0.19614l-1.25206,-2.62646h0.19614" fill="#b388ed" stroke="none" stroke-width="0.4" stroke-linecap="butt" stroke-linejoin="miter"/><path d="M214.71978,119.5248l1.25206,2.62646h-0.38902l-1.25206,-2.62646h0.38902" fill="#8b49d4" stroke="none" stroke-width="0.4" stroke-linecap="butt" stroke-linejoin="miter"/><path d="M209.45984,119.5248h4.67478l1.25206,2.62646h-5.92683v-2.62646" fill="#8b49d4" stroke="none" stroke-width="0.4" stroke-linecap="butt" stroke-linejoin="miter"/><path d="M209.45984,119.5248h13.14341v2.62646h-13.14341v-2.62646" fill="none" stroke="#5e154d" stroke-width="0.4" stroke-linecap="round" stroke-linejoin="round"/><path d="M213.32062,122.15911h-0.4544v-2.63693h0.4544z" fill="#5e154d" stroke="#5e154d" stroke-width="0.4" stroke-linecap="round" stroke-linejoin="round"/><g data-paper-data="{&quot;index&quot;:null}" stroke-width="0.4"><path d="M224.82394,118.20505h4.93335v5.45923h-4.93335v-5.45923" fill="#fde982" stroke="#5e154d" stroke-linecap="butt" stroke-linejoin="round"/><path d="M227.55701,118.65166h1.6609v3.94768h-1.6609v-3.94768" fill="#8b49d4" stroke="#ffffff" stroke-linecap="round" stroke-linejoin="round"/><path d="M226.35327,118.65166l0.65778,1.3951v0.41755l-0.86169,-1.81265h0.20391" fill="#b388ed" stroke="none" stroke-linecap="butt" stroke-linejoin="miter"/><path d="M227.01763,118.65166v1.4031l-0.65778,-1.39521l0.65778,-0.00789" fill="#8b49d4" stroke="none" stroke-linecap="butt" stroke-linejoin="miter"/><path d="M225.54091,118.65166l1.47672,3.09952v0.84816h-1.64445v-3.94768h0.16773" fill="#8b49d4" stroke="none" stroke-linecap="butt" stroke-linejoin="miter"/><path d="M225.96518,118.65166l1.05245,2.21168v0.88785l-1.47672,-3.09952h0.42427" fill="#b388ed" stroke="none" stroke-linecap="butt" stroke-linejoin="miter"/><path d="M226.15594,118.65166l0.86169,1.81265v0.39902l-1.05245,-2.21168h0.19076" fill="#8b49d4" stroke="none" stroke-linecap="butt" stroke-linejoin="miter"/><path d="M227.01763,118.65166v3.94768h-1.64445v-3.94768h1.64445" fill="none" stroke="#ffffff" stroke-linecap="round" stroke-linejoin="round"/></g><g data-paper-data="{&quot;index&quot;:null}" stroke-width="0.4"><path d="M253.24377,119.433l1.20581,2.52946h-3.5954l-1.20581,-2.52946h3.5954" fill="#a170e0" stroke="none" stroke-linecap="butt" stroke-linejoin="miter"/><path d="M253.42637,119.433l1.20581,2.52946h-0.1826l-1.20581,-2.52946h0.1826" fill="#c5a2fc" stroke="none" stroke-linecap="butt" stroke-linejoin="miter"/><path d="M249.90023,119.433l1.2247,2.52946h-0.45336l-1.20896,-2.52946h0.43762" fill="#c5a2fc" stroke="none" stroke-linecap="butt" stroke-linejoin="miter"/><path d="M249.46261,119.433l1.20896,2.52946h-7.67565l-1.20581,-2.52946h7.6725" fill="#a170e0" stroke="none" stroke-linecap="butt" stroke-linejoin="miter"/><path d="M253.82936,119.433l1.20581,2.52946h-0.40299l-1.20581,-2.52946h0.40299" fill="#a170e0" stroke="none" stroke-linecap="butt" stroke-linejoin="miter"/><path d="M254.52199,119.433l1.21211,2.52946h-0.69893l-1.20581,-2.52946h0.69263" fill="#c5a2fc" stroke="none" stroke-linecap="butt" stroke-linejoin="miter"/><path d="M255.86633,119.433c0.25187,0 0.22668,-0.04041 0.27705,0.1417c0.05037,0.18212 0.36836,1.83133 0.40928,2.07916c0.04093,0.24793 -0.06297,0.31374 -0.31483,0.31374h-0.50373l-1.21211,-2.52946z" fill="#a170e0" stroke="none" stroke-linecap="butt" stroke-linejoin="miter"/><path d="M240.69765,119.433l1.20581,2.52946h-7.79843l-1.20581,-2.52946h7.79843" fill="#a170e0" stroke="none" stroke-linecap="butt" stroke-linejoin="miter"/><path d="M233.13849,119.433l1.19322,2.52946h-0.41243l-1.20581,-2.52946h0.42503" fill="#c5a2fc" stroke="none" stroke-linecap="butt" stroke-linejoin="miter"/><path d="M232.20343,119.433h0.51003l1.20581,2.52946h-1.71584v-2.52946" fill="#a170e0" stroke="none" stroke-linecap="butt" stroke-linejoin="miter"/><path d="M241.19823,119.433l1.20581,2.52946h-0.72727l-1.17118,-2.52946h0.69263" fill="#c5a2fc" stroke="none" stroke-linecap="butt" stroke-linejoin="miter"/><path d="M241.79012,119.433l1.20581,2.52946h-0.1826l-1.20896,-2.52946h0.18575" fill="#c5a2fc" stroke="none" stroke-linecap="butt" stroke-linejoin="miter"/><path d="M241.60437,119.433l1.20896,2.52946h-0.40928l-1.20581,-2.52946h0.40613" fill="#a170e0" stroke="none" stroke-linecap="butt" stroke-linejoin="miter"/><path d="M256.13079,119.56966c0.05037,0.18212 0.38725,1.84645 0.42188,2.07916c0.03463,0.23271 -0.07556,0.31364 -0.31483,0.31364h-24.047v-2.52946h23.65975c0.25502,0 0.22983,-0.04545 0.2802,0.13666z" fill="none" stroke="#5e154d" stroke-linecap="round" stroke-linejoin="round"/><path d="M252.68336,121.9676h-0.43762v-2.53964h0.43762z" fill="#5e154d" stroke="#5e154d" stroke-linecap="round" stroke-linejoin="round"/><path d="M248.4583,121.9676h-0.43762v-2.53964h0.43762z" fill="#5e154d" stroke="#5e154d" stroke-linecap="round" stroke-linejoin="round"/><path d="M244.1923,121.9676h-0.43762v-2.53964h0.43762z" fill="#5e154d" stroke="#5e154d" stroke-linecap="round" stroke-linejoin="round"/><path d="M239.92315,121.9676h-0.43762v-2.53964h0.43762z" fill="#5e154d" stroke="#5e154d" stroke-linecap="round" stroke-linejoin="round"/><path d="M235.65401,121.9676h-0.43762v-2.53964h0.43762z" fill="#5e154d" stroke="#5e154d" stroke-linecap="round" stroke-linejoin="round"/></g><path d="M194.23049,126.64723c-0.88554,0.09075 -4.42165,0.05525 -5.87496,-0.02503c-1.08818,-0.06011 4.15676,-4.73757 4.49748,-5.03748c0.75717,-0.66647 13.21088,0.08012 12.94415,-0.11194c0,0 -10.77917,5.09375 -11.56666,5.17445z" fill="#ccc4c2" stroke="#5e154d" stroke-width="0.4" stroke-linecap="butt" stroke-linejoin="miter"/><path d="M257.48884,133.27473c-0.1315,0.50493 -3.30049,2.16493 -7.85164,3.86799c-4.71166,1.76313 -10.54146,3.48005 -16.33745,4.84643c-9.91007,2.33626 -13.54658,1.57744 -13.57662,1.42761c-0.03816,-0.27932 2.41312,-2.02031 4.59046,-4.06789c1.38152,-1.29919 2.51064,-2.6675 3.08278,-3.42742c0.20603,-0.27364 25.7137,-4.16383 26.435,-4.45983c1.13569,-0.13329 2.47219,0.2115 3.2508,0.71761c0.5882,0.38234 0.42577,1.02209 0.40666,1.0955z" fill="#ccc4c2" stroke="none" stroke-width="0.4" stroke-linecap="butt" stroke-linejoin="miter"/><path d="M257.75573,133.18577c-0.1315,0.50493 -3.56738,2.34286 -8.11853,4.04592c-4.71166,1.76313 -10.80836,3.48005 -16.60434,4.84643c-9.91007,2.33626 -13.45762,1.66641 -13.48765,1.51657c-0.06237,-0.31113 8.2605,-1.26775 16.30286,-3.13602c4.83706,-1.12366 12.75925,-3.84244 17.65179,-5.70347c1.54599,-0.58806 2.81296,-1.93001 3.53426,-2.226c0.5702,-0.23398 0.76603,0.48598 0.72161,0.65657z" fill="#999291" stroke="none" stroke-width="0.4" stroke-linecap="butt" stroke-linejoin="miter"/><path d="M204.22096,121.65366c-0.00337,0.01114 0.89533,-0.07932 0.76175,-0.01179c-2.45403,1.24071 -10.66676,4.89548 -10.69248,4.90487c-0.30553,0.11149 -5.98778,-0.02034 -5.99403,-0.0556c-0.0105,-0.05929 0.34545,-0.52407 0.45126,-0.51289c0.04555,0.00481 4.99837,0.05175 5.27587,-0.00978c0.06549,-0.01452 10.29712,-4.64404 10.19763,-4.31481z" fill="#999291" stroke="none" stroke-width="0.4" stroke-linecap="butt" stroke-linejoin="miter"/><path d="M191.13881,110.13966l-1.0231,-2.73568l4.75963,0.06672l2.22413,2.49103z" fill="#b6cb68" stroke="none" stroke-width="0.4" stroke-linecap="butt" stroke-linejoin="miter"/><path d="M192.94035,115.34412l-1.0231,-2.73568l7.22842,-0.20017l2.29085,2.6912z" fill="#5e154d" stroke="none" stroke-width="0.4" stroke-linecap="butt" stroke-linejoin="miter"/></g></g></svg>