<svg version="1.1" xmlns="http://www.w3.org/2000/svg" xmlns:xlink="http://www.w3.org/1999/xlink" width="104.89506" height="176.97305" viewBox="0,0,104.89506,176.97305"><defs><linearGradient x1="240.61952" y1="58.29925" x2="240.61952" y2="237.16748" gradientUnits="userSpaceOnUse" id="color-1"><stop offset="0" stop-color="#ffa580"/><stop offset="1" stop-color="#ffa580" stop-opacity="0"/></linearGradient></defs><g transform="translate(-187.24131,-35.02708)"><g data-paper-data="{&quot;isPaintingLayer&quot;:true}" stroke-linecap="butt" stroke-linejoin="miter" stroke-miterlimit="10" stroke-dasharray="" stroke-dashoffset="0" style="mix-blend-mode: normal"><path d="M284.37023,179.70936c0.07585,1.88165 -6.82295,7.07192 -42.75929,7.07192c-35.93634,0 -45.96971,-4.43047 -45.98172,-7.45949c-0.01038,-2.6151 9.30175,-6.10294 45.23807,-6.10294c35.93634,0 43.43354,4.76932 43.50294,6.49051z" fill="url(#color-1)" fill-rule="nonzero" stroke="none" stroke-width="0"/><text transform="translate(220.90924,206.02038) scale(0.357,0.357)" font-size="40" xml:space="preserve" fill="#ffffff" fill-rule="nonzero" stroke="#ffffff" stroke-width="0.5" stroke-linecap="butt" stroke-linejoin="miter" stroke-miterlimit="10" stroke-dasharray="" stroke-dashoffset="0" font-family="Handwriting" font-weight="normal" text-anchor="start" style="mix-blend-mode: normal"></text><text transform="translate(219.75236,48.13594) scale(0.34497,0.34497)" font-size="40" xml:space="preserve" fill="#ffffff" fill-rule="nonzero" stroke="#ffffff" stroke-width="1" stroke-linecap="butt" stroke-linejoin="miter" stroke-miterlimit="10" stroke-dasharray="" stroke-dashoffset="0" font-family="Handwriting" font-weight="normal" text-anchor="start" style="mix-blend-mode: normal"></text><text transform="translate(207.93818,65.43207) scale(0.26747,0.26747)" font-size="40" xml:space="preserve" fill="#ffffff" fill-rule="nonzero" stroke="#ffffff" stroke-width="1" stroke-linecap="butt" stroke-linejoin="miter" stroke-miterlimit="10" stroke-dasharray="" stroke-dashoffset="0" font-family="Handwriting" font-weight="normal" text-anchor="start" style="mix-blend-mode: normal"></text><path d="M290.15483,136.75257c-0.59169,0.88754 -1.57784,1.57784 -2.26815,2.46538c-1.57785,2.07092 -1.57784,3.94461 -0.69031,6.31137c1.97231,5.12799 0.69031,11.04491 -3.45153,14.69367c-1.97231,1.77507 -4.63491,2.85984 -7.19891,3.15569c-3.55014,0.39446 -3.35292,0.39446 -6.31137,3.2543c-2.46538,2.564 -2.95846,6.90306 -5.52245,9.36844c-1.57785,1.57784 -4.14184,4.24045 -10.3546,3.15569c-3.35291,-0.6903 -5.81829,-1.67646 -9.07259,-2.36676c-4.83214,-0.98615 -4.24046,-0.49308 -7.69199,2.36676c-4.63492,3.74738 -11.43936,6.01552 -16.2715,1.77507c-2.564,-2.26815 -3.84599,-5.02937 -5.8183,-7.69198c-2.95845,-4.04322 -6.31137,-3.74738 -10.84767,-4.04322c-5.12799,-0.29585 -8.57952,-4.83214 -8.57952,-10.15736c-0.09861,-3.45153 0.39446,-7.19891 -1.57784,-10.35459c-1.47923,-2.36676 -2.95846,-4.14184 -4.63492,-6.31137c-4.33907,-5.42383 -2.564,-10.74905 0.09861,-16.37012c1.97231,-4.14184 -2.85984,-6.21276 -1.77507,-10.25598c0.6903,-2.564 8.18506,-6.11414 8.67813,-12.81997c0.19723,-2.564 -0.59169,-10.74905 5.02938,-10.15736c1.67646,0.19723 3.9446,0.29584 5.42383,-0.69031c1.87369,-1.28199 1.87369,-1.87369 2.26815,-3.94461c1.18338,-6.31137 5.12799,-9.56567 11.63659,-7.59337c2.46538,0.78892 4.33907,1.9723 6.90306,1.67646c2.66261,-0.29584 3.9446,-2.26815 6.11414,-3.55015c2.36676,-1.47923 5.8183,-2.76122 8.67813,-2.07091c2.76122,0.6903 3.15569,2.85983 4.73353,4.93075c3.2543,4.24045 7.19891,0.59169 11.14351,0.09862c4.83215,-0.59169 8.87537,2.16953 9.86152,6.31137c0.39446,1.57784 0.88753,2.66261 1.9723,3.84599c1.47923,1.57784 2.16953,1.67646 4.14184,1.77508c2.36676,0.09861 5.62106,1.18338 7.29753,2.85984c4.73353,4.93076 0.39446,11.43936 0.98615,17.35627c0.39446,4.43769 4.04322,5.62107 6.5086,8.67814c1.57785,1.87369 2.46538,4.33907 2.56399,6.80445c0.09861,2.66261 -0.59168,5.32522 -1.9723,7.49475z" fill="#de3b31" fill-rule="evenodd" stroke="none" stroke-width="1"/><path d="M285.4213,139.90825c0.78892,3.45153 1.08477,7.19891 -1.08477,10.25598c-1.28199,1.77507 -3.05707,1.67646 -4.33907,3.05707c-3.2543,3.55014 -0.88754,8.67813 -3.846,13.21443c-1.67646,2.564 -7.00167,2.95846 -10.15736,3.15569c-0.29584,0 -1.87369,0.29585 -2.07092,1.57784c-1.38061,4.93076 -7.10029,5.71968 -11.93244,6.11414c-3.64876,0.29585 -6.5086,2.46538 -10.25598,1.87369c-1.67646,-0.29585 -3.35291,-1.18339 -5.02937,-1.38062c-2.564,-0.29585 -3.45153,0.88754 -5.62107,1.18339c-3.2543,0.29585 -5.12799,-2.16954 -7.88922,-3.25431c-2.85984,-1.08477 -6.01552,-0.6903 -8.77675,-2.16953c-2.95845,-1.57784 -4.5363,-4.63492 -7.29753,-6.40999c-2.16953,-1.38062 -3.45153,-3.05707 -4.5363,-5.42383c-0.98615,-1.97231 -1.18338,-3.45154 -3.15569,-4.73353c-0.98615,-0.6903 -1.77507,-0.88753 -2.66261,-1.77507c-2.16953,-2.16953 -4.83214,-3.15569 -5.22661,-8.87537c-0.09861,-1.67646 -0.6903,-2.85984 -0.6903,-4.53629c0,-1.77507 -0.19723,-2.95845 -0.6903,-4.83214c-0.98615,-3.2543 0.49308,-6.40999 1.18338,-9.7629c0.78892,-4.24045 -0.19723,-7.59337 0,-11.93244c0.09861,-3.05707 1.08477,-5.32522 3.2543,-7.49475c1.38062,-1.28199 3.15569,-2.07091 4.24045,-3.74737c1.18338,-1.87369 1.47923,-4.14184 2.36677,-6.11415c1.08477,-2.46538 2.56399,-4.43769 5.12799,-5.62107c0.19723,-0.09861 8.18506,-2.85984 14.2992,-8.87536c3.9446,-3.9446 8.87536,-0.49308 14.00336,-0.29584c5.71968,0.19723 10.45321,-2.36677 16.07428,-0.19723c2.564,0.98615 4.93076,2.66261 7.49475,3.45153c2.46538,0.78892 3.94461,-0.09861 6.5086,0.49308c4.83215,1.18338 7.00168,9.86152 10.55183,14.10197c3.55014,4.14184 8.28368,4.63491 9.56567,10.35459c0.69031,2.76122 -0.29585,5.42383 0.88753,7.98783c0.98615,2.07092 2.66261,3.64877 3.35292,5.8183c1.47923,4.83215 -4.5363,11.43936 -3.64876,14.79228z" fill="#eb571e" fill-rule="evenodd" stroke="none" stroke-width="1"/><path d="M238.87493,85.27544c5.02937,0 10.74905,3.2543 15.28535,4.93076c4.83215,1.67646 8.97398,1.28199 12.91859,4.43768c3.64876,2.95846 3.2543,6.80445 5.81829,10.84767c1.77508,2.76122 6.60721,4.93076 8.28368,8.4809c2.36676,4.93076 1.38062,11.34074 1.38062,16.2715c0,3.35291 1.38061,9.76291 0.6903,12.91859c-1.67646,7.29753 -9.17121,9.56567 -13.90474,14.98951c-3.84599,4.33907 -6.31137,8.97398 -11.53797,11.43936c-5.71968,2.76122 -10.55183,6.70584 -17.35628,6.70584c-3.64876,0 -8.77675,-4.93076 -12.12966,-5.8183c-4.5363,-1.08477 -13.41166,1.08476 -15.5812,-2.95846c-7.29753,-13.80613 -9.66429,-11.93243 -13.11582,-17.06043c-4.63492,-6.90306 -3.05707,-11.73521 -3.05707,-20.70919c0,-4.63492 -2.564,-9.0726 -1.18339,-13.21444c1.67646,-5.22661 6.31137,-9.56567 9.66429,-13.70751c4.73353,-5.91691 13.51028,-8.38229 20.61058,-11.24213c4.73353,-1.87369 7.59337,-6.31137 13.21444,-6.31137z" fill="#f88b0d" fill-rule="evenodd" stroke="none" stroke-width="1"/><path d="M200.02747,130.24396c0,-21.731 17.61646,-39.34745 39.34746,-39.34745c21.731,0 39.34745,17.61645 39.34745,39.34745c0,21.731 -17.61645,39.34746 -39.34745,39.34746c-21.731,0 -39.34746,-17.61646 -39.34746,-39.34746z" fill="#fa990c" fill-rule="evenodd" stroke="none" stroke-width="1"/></g></g></svg>