<svg version="1.1" xmlns="http://www.w3.org/2000/svg" xmlns:xlink="http://www.w3.org/1999/xlink" width="116.67788" height="197.81136" viewBox="0,0,116.67788,197.81136"><defs><linearGradient x1="241.62031" y1="-10.60764" x2="241.62031" y2="266.2804" gradientUnits="userSpaceOnUse" id="color-1"><stop offset="0" stop-color="#000000"/><stop offset="1" stop-color="#000000" stop-opacity="0"/></linearGradient><radialGradient cx="252.55515" cy="140.926" r="27.15361" gradientUnits="userSpaceOnUse" id="color-2"><stop offset="0" stop-color="#7f7f7f"/><stop offset="1" stop-color="#333333"/></radialGradient><radialGradient cx="211.11778" cy="141.12708" r="26.22573" gradientUnits="userSpaceOnUse" id="color-3"><stop offset="0" stop-color="#dc6e6e"/><stop offset="1" stop-color="#b23535"/></radialGradient><radialGradient cx="249.87157" cy="102.87773" r="26.06397" gradientUnits="userSpaceOnUse" id="color-4"><stop offset="0" stop-color="#dc6e6e"/><stop offset="1" stop-color="#b23535"/></radialGradient><radialGradient cx="203.3648" cy="97.43888" r="27.15361" gradientUnits="userSpaceOnUse" id="color-5"><stop offset="0" stop-color="#7f7f7f"/><stop offset="1" stop-color="#333333"/></radialGradient></defs><g transform="translate(-180.74721,-20.1567)"><g data-paper-data="{&quot;isPaintingLayer&quot;:true}" fill-rule="nonzero" stroke-linecap="butt" stroke-linejoin="miter" stroke-miterlimit="10" stroke-dasharray="" stroke-dashoffset="0" style="mix-blend-mode: normal"><path d="M289.52518,177.33513c0.08306,2.91279 -7.47079,10.94732 -46.81921,10.94732c-39.34842,0 -50.33445,-6.8584 -50.34761,-11.54727c-0.01137,-4.04815 10.18494,-9.44736 49.53336,-9.44736c39.34842,0 47.55747,7.38292 47.63346,10.04731z" fill="url(#color-1)" stroke="none" stroke-width="0"/><text transform="translate(222.76295,210.14551) scale(0.46015,0.46015)" font-size="40" xml:space="preserve" fill="#000000" fill-rule="nonzero" stroke="#000000" stroke-width="1" stroke-linecap="butt" stroke-linejoin="miter" stroke-miterlimit="10" stroke-dasharray="" stroke-dashoffset="0" font-family="Handwriting" font-weight="normal" text-anchor="start" style="mix-blend-mode: normal"></text><text transform="translate(180.99656,39.10692) scale(0.49869,0.49869)" font-size="40" xml:space="preserve" fill="#000000" fill-rule="nonzero" stroke="#000000" stroke-width="1" stroke-linecap="butt" stroke-linejoin="miter" stroke-miterlimit="10" stroke-dasharray="" stroke-dashoffset="0" font-family="Handwriting" font-weight="normal" text-anchor="start" style="mix-blend-mode: normal"></text><text transform="translate(194.09861,62.66103) scale(0.33183,0.33183)" font-size="40" xml:space="preserve" fill="#000000" fill-rule="nonzero" stroke="#000000" stroke-width="1" stroke-linecap="butt" stroke-linejoin="miter" stroke-miterlimit="10" stroke-dasharray="" stroke-dashoffset="0" font-family="Handwriting" font-weight="normal" text-anchor="start" style="mix-blend-mode: normal"></text><path d="M289.45984,149.78012c0,14.99655 -11.99864,27.15365 -26.79979,27.15365c-14.80114,0 -26.79983,-12.1571 -26.79983,-27.15365c0,-14.99655 11.99869,-27.15361 26.79983,-27.15361c14.80114,0 26.79979,12.15705 26.79979,27.15361z" fill="url(#color-2)" stroke="none" stroke-width="0"/><g data-paper-data="{&quot;index&quot;:null}" stroke="none" stroke-width="0"><path d="M246.7614,149.67868c0,14.4841 -11.58863,26.22572 -25.884,26.22572c-14.29536,0 -25.884,-11.74162 -25.884,-26.22572c0,-14.4841 11.58867,-26.22577 25.884,-26.22577c14.29536,0 25.884,11.74167 25.884,26.22577z" fill="url(#color-3)"/><path d="M216.00081,166.29322v-10.98007l-10.13738,-0.57825l-0.2022,-8.03809l10.33958,-0.34466v-13.39261h9.09099v14.08193l10.22982,0.02497l-0.06074,8.05529c0,0 -10.37728,0.30184 -10.36655,0.87993c0.06098,3.28521 0.19747,10.29149 0.19747,10.29149z" fill="#511111"/></g><g data-paper-data="{&quot;index&quot;:null}" stroke="none" stroke-width="0"><path d="M285.29536,111.37658c0,14.39476 -11.51716,26.06397 -25.72435,26.06397c-14.20719,0 -25.72435,-11.66921 -25.72435,-26.06397c0,-14.39476 11.5172,-26.06401 25.72435,-26.06401c14.20719,0 25.72435,11.66925 25.72435,26.06401z" fill="url(#color-4)"/><path d="M254.72449,127.88865v-10.91235l-10.07485,-0.57468l-0.20095,-7.98852l10.27581,-0.34253v-13.31001h9.03492v13.99507l10.16673,0.02481l-0.06037,8.0056c0,0 -10.31328,0.29998 -10.30262,0.87451c0.0606,3.26494 0.19625,10.22801 0.19625,10.22801z" fill="#511111"/></g><path d="M240.2695,106.293c0,14.99655 -11.99865,27.15365 -26.79979,27.15365c-14.80114,0 -26.79983,-12.15709 -26.79983,-27.15365c0,-14.99655 11.99869,-27.15361 26.79983,-27.15361c14.80114,0 26.79979,12.15705 26.79979,27.15361z" fill="url(#color-5)" stroke="none" stroke-width="0"/></g></g></svg>