<svg version="1.1" xmlns="http://www.w3.org/2000/svg" xmlns:xlink="http://www.w3.org/1999/xlink" width="126.21899" height="167.41711" viewBox="0,0,126.21899,167.41711"><defs><linearGradient x1="247.61943" y1="58.79922" x2="247.61943" y2="237.66742" gradientUnits="userSpaceOnUse" id="color-1"><stop offset="0" stop-color="#000000"/><stop offset="1" stop-color="#000000" stop-opacity="0"/></linearGradient></defs><g transform="translate(-182.98668,-40.15869)"><g data-paper-data="{&quot;isPaintingLayer&quot;:true}" fill-rule="nonzero" stroke-linecap="butt" stroke-linejoin="miter" stroke-miterlimit="10" stroke-dasharray="" stroke-dashoffset="0" style="mix-blend-mode: normal"><path d="M291.37023,180.2093c0.07585,1.88165 -6.82295,7.07192 -42.75929,7.07192c-35.93634,0 -45.96971,-4.43047 -45.98172,-7.45949c-0.01038,-2.6151 9.30175,-6.10294 45.23807,-6.10294c35.93634,0 43.43354,4.76932 43.50294,6.49051z" fill="url(#color-1)" stroke="none" stroke-width="0"/><text transform="translate(226.12806,202.72801) scale(0.28942,0.28942)" font-size="40" xml:space="preserve" fill="#000000" fill-rule="nonzero" stroke="#000000" stroke-width="0.5" stroke-linecap="butt" stroke-linejoin="miter" stroke-miterlimit="10" stroke-dasharray="" stroke-dashoffset="0" font-family="Handwriting" font-weight="normal" text-anchor="start" style="mix-blend-mode: normal"></text><text transform="translate(201.15722,51.67117) scale(0.30296,0.30296)" font-size="40" xml:space="preserve" fill="#000000" fill-rule="nonzero" stroke="#000000" stroke-width="1" stroke-linecap="butt" stroke-linejoin="miter" stroke-miterlimit="10" stroke-dasharray="" stroke-dashoffset="0" font-family="Handwriting" font-weight="normal" text-anchor="start" style="mix-blend-mode: normal"></text><text transform="translate(183.10479,70.30703) scale(0.23622,0.23622)" font-size="40" xml:space="preserve" fill="#000000" fill-rule="nonzero" stroke="#000000" stroke-width="1" stroke-linecap="butt" stroke-linejoin="miter" stroke-miterlimit="10" stroke-dasharray="" stroke-dashoffset="0" font-family="Handwriting" font-weight="normal" text-anchor="start" style="mix-blend-mode: normal"></text><g stroke="none" stroke-width="0.66342"><g><g><path d="M288.09439,112.54395c-3.71954,4.05597 -8.44314,9.09058 -13.0112,13.96033c-3.73908,3.98526 -7.27121,7.75045 -9.83961,10.5401c-0.34389,0.40469 -0.82972,0.94931 -1.41419,1.58664c-6.37591,6.95261 -24.69859,25.20984 -24.88314,25.39343c-0.86038,0.94842 -1.86304,2.24443 -2.92377,3.61666c-1.27758,1.65141 -2.72514,3.52445 -4.25321,5.19072c-3.13469,3.41823 -7.93618,7.58634 -13.41992,4.32997c-1.26318,-0.75035 -2.36316,-2.82155 -3.63679,-5.21925c-0.95141,-1.79189 -1.93518,-3.64414 -2.80644,-4.47718c-0.80965,-0.77487 -1.90085,-1.58725 -3.05595,-2.4472c-2.81771,-2.09745 -6.01162,-4.47504 -6.71763,-7.54169c-0.76331,-3.31007 0.04482,-7.11069 0.75761,-10.46365c0.51848,-2.43965 1.00819,-4.74372 0.78036,-6.35178c-0.23928,-1.68842 -0.7102,-3.31672 -1.16601,-4.89186c-0.98884,-3.41889 -1.92339,-6.64812 -0.44616,-10.01419c0.56966,-1.29851 1.29377,-2.41711 2.21229,-3.41871c1.27342,-1.38859 2.76927,-2.39159 4.35242,-3.45349c1.91743,-1.28621 3.90094,-2.61662 5.96638,-4.86888c0.89989,-0.98129 1.7258,-2.0389 2.524,-3.23354c3.22747,-4.82769 3.49569,-7.04178 3.77956,-9.38626c0.29749,-2.45401 0.60456,-4.99198 4.19817,-10.16221c0.76322,-1.09892 1.58237,-2.1269 2.43427,-3.05586c8.19726,-8.93869 20.38927,-9.51198 31.0622,-1.46178c4.3358,3.2714 8.41462,1.47834 13.13683,-0.59822c3.62514,-1.59386 7.37422,-3.24207 11.57144,-2.67019c6.27411,0.85567 8.94259,4.76422 10.07668,7.89195c2.28051,6.29399 0.36007,15.03004 -4.46931,20.32033l-0.80888,0.88582z" fill="#91b6c5"/><path d="M228.2215,88.81177c-0.81665,0.89052 -1.60269,1.87398 -2.35541,2.95684c-6.8733,9.89043 -1.21846,9.43953 -7.96822,19.53433c-0.87085,1.3027 -1.74562,2.40156 -2.61275,3.34713c-3.90637,4.25969 -7.66852,5.43237 -10.31926,8.32286c-0.78824,0.85954 -1.47828,1.87041 -2.04436,3.16039c-1.99467,4.54447 0.92453,9.04939 1.68214,14.39583c0.57721,4.07588 -2.81997,11.23689 -1.55299,16.73602c0.89878,3.90465 6.67986,6.81256 9.50653,9.51818c2.09541,2.00509 4.32609,8.41098 6.2728,9.56825c4.48274,2.66144 8.63829,-0.22442 12.24459,-4.1569c2.75516,-3.00436 5.18971,-6.61894 7.20681,-8.83795c0,0 18.41796,-18.34544 24.85331,-25.36285c0.57513,-0.62715 1.0529,-1.16298 1.41547,-1.58803c5.67177,-6.16069 16.05218,-17.08686 22.84999,-24.49952c0.27551,-0.30042 0.54544,-0.59477 0.80845,-0.88353c7.0553,-7.72958 8.22776,-24.83499 -5.03857,-26.64437c-9.28546,-1.26547 -16.85985,9.34017 -25.14855,3.087c-9.20403,-6.94334 -21.15489,-8.08067 -29.79995,1.34633M228.2215,88.81177l-1.3886,-1.27342v0c4.42544,-4.82572 9.98211,-7.39218 16.06853,-7.42264c5.52695,-0.02796 11.14741,1.99399 16.25409,5.84542c3.70677,2.79679 7.04758,1.55304 12.19066,-0.70836c3.5707,-1.5698 7.61729,-3.349 12.07827,-2.74063c5.25907,0.71654 9.10707,3.7375 10.83483,8.50462c2.39193,6.59897 0.38921,15.7452 -4.65911,21.27619l-0.81153,0.88674c-3.72255,4.05925 -8.44819,9.09622 -13.01791,13.96778c-3.7268,3.97187 -7.24654,7.72453 -9.81044,10.50815c-0.36254,0.42418 -0.84533,0.96646 -1.43703,1.61168c-6.25959,6.82576 -23.98268,24.49794 -24.8784,25.39007c-0.86026,0.9511 -1.84067,2.21808 -2.8774,3.55952c-1.28806,1.66661 -2.74914,3.55537 -4.30394,5.25081c-1.93383,2.10874 -7.819,8.52622 -14.59472,4.50246c-1.49004,-0.88492 -2.64746,-3.06351 -3.98741,-5.58664c-0.87397,-1.64509 -1.86454,-3.51039 -2.62684,-4.23926c-0.76694,-0.73403 -1.83563,-1.52924 -2.96692,-2.37145c-2.94805,-2.19399 -6.28935,-4.6813 -7.07271,-8.08463c-0.80984,-3.51381 0.02106,-7.42303 0.7542,-10.87241c0.50034,-2.35573 0.97345,-4.58035 0.76923,-6.02367c-0.23025,-1.62222 -0.69127,-3.21844 -1.13816,-4.76241c-0.99254,-3.42986 -2.01797,-6.97608 -0.40319,-10.65475c0.61166,-1.3946 1.39083,-2.59733 2.38068,-3.67672c1.34937,-1.47141 2.89019,-2.50482 4.52166,-3.5991c1.87165,-1.25576 3.80727,-2.55341 5.79715,-4.72327c0.86675,-0.94515 1.66359,-1.96559 2.43551,-3.12037c3.10226,-4.64003 3.35778,-6.74644 3.62759,-8.97615c0.31117,-2.56837 0.63318,-5.22391 4.35932,-10.58612c0.78838,-1.13378 1.63369,-2.19492 2.51401,-3.15486z" fill="#000000"/></g><path d="M214.49719,135.01566c-3.4598,2.35393 -5.01476,5.38193 -5.48368,9.49195c-0.34569,3.02325 -0.12124,6.35127 -1.13489,9.25274c-0.16547,0.4712 -1.00174,0.5181 -0.96055,-0.08158c0.5096,-7.44188 -0.84372,-16.03756 6.36142,-20.6107c1.25107,-0.79461 2.43915,1.11554 1.2177,1.94759z" fill="#231f20"/><path d="M210.70063,148.16215c-0.19901,0.25973 -0.62112,-0.04555 -0.46869,-0.32423c3.18803,-5.75936 3.42356,-12.39872 9.72697,-15.838c1.15153,-0.6285 2.24698,1.09356 1.08705,1.73402c-3.23546,1.78771 -5.39852,4.19756 -6.75422,7.63924c-0.97421,2.47666 -1.96738,4.67187 -3.5911,6.78897z" fill="#231f20"/><path d="M267.06413,107.96037c0.06847,-2.55833 0.36,-5.66105 -0.71893,-8.04793c-0.78035,-1.73135 -2.04228,-3.34624 -3.82929,-4.12947c-1.6466,-0.72344 -2.80104,-0.29528 -4.4067,-0.43337c-2.19099,-0.18653 -6.50607,-2.40278 -7.202,-4.68221c-0.21258,-0.70113 0.40134,-1.24326 1.06542,-1.16178c1.52551,0.18558 3.19997,2.10892 4.39479,2.95147c2.07407,1.4607 4.88954,0.49609 7.03481,2.051c4.27192,3.09105 5.01865,8.45397 4.83849,13.40139c-0.0279,0.75328 -1.19654,0.81316 -1.17659,0.05091z" fill="#231f20"/><path d="M269.27135,112.7036c-0.17263,0.34441 -0.75978,0.15019 -0.64747,-0.23335c0.83353,-2.80168 2.11832,-6.13537 1.83035,-9.1024c-0.15323,-1.57035 -0.48045,-3.56444 -1.67706,-4.73501c-0.64004,-0.62703 -1.3246,-1.10145 -1.82325,-1.85017c-0.35857,-0.54012 0.17124,-1.30091 0.80397,-1.14336c2.702,0.67737 3.58839,4.60393 3.58529,7.0176c-0.00348,3.55697 -0.47947,6.86545 -2.07183,10.04669z" fill="#231f20"/><path d="M228.66559,94.97671c-2.3366,2.79697 -2.31125,5.66367 -2.9951,9.04922c-0.56345,2.7971 -1.50853,5.00403 -2.88588,7.48245c-0.02842,0.05061 -0.10134,0.01021 -0.07735,-0.04101c1.50705,-3.32421 2.01017,-7.08511 2.49911,-10.65954c0.33067,-2.42603 0.70332,-4.90822 2.60198,-6.61726c0.5511,-0.49492 1.34441,0.2028 0.85724,0.78614z" fill="#231f20"/></g><g><g><path d="M264.56156,152.33899c-0.20205,0.22033 -0.40544,0.43006 -0.60962,0.63045c-1.47564,1.4409 -3.40317,2.43154 -5.26679,3.3896c-2.05853,1.05715 -4.18696,2.15062 -5.75155,3.85673c-0.07134,0.0778 -0.14209,0.1569 -0.21109,0.23761c-0.83615,0.97411 -1.60144,2.22951 -2.34239,3.44351c-0.83453,1.36914 -1.69786,2.78534 -2.70979,3.88879c-1.71354,1.86854 -3.60043,2.52577 -5.76785,2.01059c-4.20632,-1.00035 -4.19495,-3.3051 -4.17517,-7.49036c0.00623,-1.28526 0.01294,-2.74219 -0.07794,-4.50337c-0.02017,-0.39509 -0.34653,-1.24065 -0.69204,-2.1369c-1.33171,-3.45203 -3.81131,-9.87837 1.36418,-15.52198c3.98315,-4.34341 10.89667,-4.58165 15.47211,-4.73915c1.04925,-0.03655 1.95634,-0.06783 2.64469,-0.14378c3.83939,-0.42353 12.13355,1.60902 12.94875,5.38925c0.70268,3.25614 -1.90181,8.50088 -4.82549,11.68901v0z" fill="#5f8ba5"/><path d="M239.01488,140.78036c-6.21205,6.77393 -0.54673,14.6065 -0.42522,16.97351c0.39318,7.6069 -1.01712,10.04507 3.53017,11.12627c2.06501,0.49114 3.57564,-0.3348 4.85583,-1.73079c1.8337,-1.99955 3.1941,-5.16848 5.03188,-7.30905c0.07578,-0.08823 0.15288,-0.17512 0.23139,-0.26072c3.13808,-3.42192 8.10173,-4.39855 11.05452,-7.28395c0.19187,-0.18779 0.38376,-0.38597 0.57346,-0.59284c2.79553,-3.04838 5.21214,-8.01123 4.59842,-10.85429c-0.65494,-3.0369 -8.19717,-5.06232 -11.92468,-4.65127c-3.72743,0.41112 -12.91394,-0.44584 -17.52577,4.58312M239.01488,140.78036l-1.38852,-1.27335v0c4.25059,-4.63505 11.40154,-4.88133 16.13366,-5.04428c1.03101,-0.0353 1.9209,-0.0663 2.57385,-0.1381c3.77436,-0.41664 12.96835,1.46624 13.97271,6.12637c0.79753,3.68901 -2.00762,9.20648 -5.05108,12.52521c-0.2135,0.23282 -0.43094,0.4569 -0.64589,0.66706c-1.57612,1.54038 -3.56808,2.56403 -5.49479,3.55364c-2.07586,1.06681 -4.03644,2.07403 -5.48728,3.65609c-0.06449,0.07032 -0.12815,0.14155 -0.19079,0.21448c-0.78617,0.91681 -1.49792,2.08412 -2.25251,3.32042c-0.85832,1.40795 -1.74612,2.86388 -2.81997,4.03487c-1.93767,2.11293 -4.18548,2.8832 -6.68029,2.29012c-4.93398,-1.17328 -4.91908,-4.20935 -4.89903,-8.41157c0.00615,-1.27327 0.01316,-2.71554 -0.07644,-4.44562c-0.02549,-0.28244 -0.36095,-1.15252 -0.6303,-1.85113c-1.40624,-3.64304 -4.02209,-10.42347 1.54817,-16.49756z" fill="#000000"/></g><path d="M244.53095,151.63754c1.31541,-0.80985 2.61688,-1.48672 4.15785,-1.72585c0.78547,-0.12149 0.86547,1.17297 0.05405,1.24935c-3.01328,0.28729 -5.65396,3.84233 -8.7304,3.15141c-0.10241,-0.02405 -0.13956,-0.17486 -0.04011,-0.22854c1.52429,-0.83049 3.07271,-1.53224 4.55861,-2.44636z" fill="#231f20"/><path d="M247.24606,152.31924c0.50003,-0.14384 0.7405,0.62449 0.23928,0.77327c-2.34839,0.6959 -4.82574,4.25505 -7.49899,2.88567c-0.22045,-0.11186 -0.16575,-0.52179 0.10947,-0.50033c1.63928,0.12371 2.73026,-0.24088 4.05619,-1.21655c0.97645,-0.72009 1.90134,-1.59753 3.09404,-1.94206z" fill="#231f20"/></g></g></g></g></svg>