<svg version="1.1" xmlns="http://www.w3.org/2000/svg" xmlns:xlink="http://www.w3.org/1999/xlink" width="106.89882" height="176.09349" viewBox="0,0,106.89882,176.09349"><defs><linearGradient x1="240.72707" y1="27.50078" x2="240.72707" y2="251.63474" gradientUnits="userSpaceOnUse" id="color-1"><stop offset="0" stop-color="#000000"/><stop offset="1" stop-color="#000000" stop-opacity="0"/></linearGradient></defs><g transform="translate(-185.27016,-44.56738)"><g data-paper-data="{&quot;isPaintingLayer&quot;:true}" fill-rule="nonzero" stroke-linecap="butt" stroke-linejoin="miter" stroke-miterlimit="10" stroke-dasharray="" stroke-dashoffset="0" style="mix-blend-mode: normal"><path d="M292.08303,179.63576c0.08904,2.35783 -8.00899,8.86158 -50.19209,8.86158c-42.1831,0 -53.96057,-5.5517 -53.97468,-9.34723c-0.01219,-3.27688 10.91867,-7.6474 53.10177,-7.6474c42.1831,0 50.98354,5.97629 51.065,8.13305z" fill="url(#color-1)" stroke="none" stroke-width="0"/><text transform="translate(222.76854,212.83832) scale(0.46015,0.46015)" font-size="40" xml:space="preserve" fill="#000000" fill-rule="nonzero" stroke="#000000" stroke-width="1" stroke-linecap="butt" stroke-linejoin="miter" stroke-miterlimit="10" stroke-dasharray="" stroke-dashoffset="0" font-family="Handwriting" font-weight="normal" text-anchor="start" style="mix-blend-mode: normal"></text><text transform="translate(189.3843,63.5176) scale(0.49869,0.49869)" font-size="40" xml:space="preserve" fill="#000000" fill-rule="nonzero" stroke="#000000" stroke-width="1" stroke-linecap="butt" stroke-linejoin="miter" stroke-miterlimit="10" stroke-dasharray="" stroke-dashoffset="0" font-family="Handwriting" font-weight="normal" text-anchor="start" style="mix-blend-mode: normal"></text><g stroke="none" stroke-width="0"><path d="M291.70555,136.66926c0,26.98031 -20.5315,44.69455 -47.39701,44.69455c-26.8655,0 -59.03838,-22.28763 -59.03838,-49.26794c0,-26.98031 27.59948,-54.67286 54.46498,-54.67286c26.8655,0 51.9704,32.26595 51.9704,59.24626z" fill="#c9cde4"/><path d="M240.68694,172.86299c-19.43228,0 -47.06027,-19.70484 -47.06027,-38.04405c0,-18.33921 10.47519,-38.48387 29.90746,-38.48387c19.43228,0 36.58509,76.52792 17.15281,76.52792z" fill="#e6e8f8"/></g></g></g></svg>