<svg version="1.1" xmlns="http://www.w3.org/2000/svg" xmlns:xlink="http://www.w3.org/1999/xlink" width="111.11179" height="182.46472" viewBox="0,0,111.11179,182.46472"><defs><linearGradient x1="240.61951" y1="58.29924" x2="240.61951" y2="237.16744" gradientUnits="userSpaceOnUse" id="color-1"><stop offset="0" stop-color="#000000"/><stop offset="1" stop-color="#000000" stop-opacity="0"/></linearGradient></defs><g transform="translate(-188.00005,-26.1111)"><g data-paper-data="{&quot;isPaintingLayer&quot;:true}" fill-rule="nonzero" stroke-linecap="butt" stroke-linejoin="miter" stroke-miterlimit="10" stroke-dasharray="" stroke-dashoffset="0" style="mix-blend-mode: normal"><path d="M284.37023,179.70932c0.07585,1.88165 -6.82295,7.07192 -42.75929,7.07192c-35.93634,0 -45.96971,-4.43047 -45.98172,-7.45949c-0.01038,-2.6151 9.30175,-6.10294 45.23807,-6.10294c35.93634,0 43.43354,4.76932 43.50294,6.49051z" fill="url(#color-1)" stroke="none" stroke-width="0"/><text transform="translate(223.12813,203.72803) scale(0.28942,0.28942)" font-size="40" xml:space="preserve" fill="#ffffff" fill-rule="nonzero" stroke="#ffffff" stroke-width="0.5" stroke-linecap="butt" stroke-linejoin="miter" stroke-miterlimit="10" stroke-dasharray="" stroke-dashoffset="0" font-family="Handwriting" font-weight="normal" text-anchor="start" style="mix-blend-mode: normal"></text><text transform="translate(225.25236,37.62358) scale(0.30296,0.30296)" font-size="40" xml:space="preserve" fill="#ffffff" fill-rule="nonzero" stroke="#ffffff" stroke-width="1" stroke-linecap="butt" stroke-linejoin="miter" stroke-miterlimit="10" stroke-dasharray="" stroke-dashoffset="0" font-family="Handwriting" font-weight="normal" text-anchor="start" style="mix-blend-mode: normal"></text><text transform="translate(197.27151,52.97373) scale(0.23622,0.23622)" font-size="40" xml:space="preserve" fill="#ffffff" fill-rule="nonzero" stroke="#ffffff" stroke-width="1" stroke-linecap="butt" stroke-linejoin="miter" stroke-miterlimit="10" stroke-dasharray="" stroke-dashoffset="0" font-family="Handwriting" font-weight="normal" text-anchor="start" style="mix-blend-mode: normal"></text><text transform="translate(245.77151,71.14099) scale(0.18531,0.18531)" font-size="40" xml:space="preserve" fill="#ffffff" fill-rule="nonzero" stroke-opacity="0" stroke="#000000" stroke-width="0" stroke-linecap="butt" stroke-linejoin="miter" stroke-miterlimit="10" stroke-dasharray="" stroke-dashoffset="0" font-family="Handwriting" font-weight="normal" text-anchor="start" style="mix-blend-mode: normal"></text><g><path d="M289.75005,129.25c0,27.3381 -22.49769,49.5 -50.25,49.5c-27.75231,0 -50.25,-22.1619 -50.25,-49.5c0,-27.33809 22.49769,-49.5 50.25,-49.5c27.75231,0 50.25,22.16191 50.25,49.5z" fill="#a8a8a8" stroke="#000000" stroke-width="2.5"/><path d="M289.25001,129.25c-1.03733,31.35744 -26.58826,48.18332 -48,48.5c-3.20753,0.04744 14.34536,-14.27983 18.13596,-40.5517c0.37411,-2.59288 -11.71592,-0.23219 -13.43597,-18.0483c1.52154,-19.72521 11.73793,-11.23772 8.97024,-18.52429c-5.01443,-13.2016 -11.74614,-19.55305 -9.17023,-19.37571c18.5731,1.27872 44.38769,21.16615 43.5,48z" fill="#909090" stroke="none" stroke-width="0"/><path d="M217.1667,163.16668c-10.30932,0 -24.33333,-18.56597 -24.33333,-32.83333c0,-14.26735 14.02402,-33.5 24.33333,-33.5c10.30931,0 13,19.23265 13,33.5c0,14.26736 -2.69069,32.83333 -13,32.83333z" fill="#b5b5b5" stroke="none" stroke-width="0"/><path d="M226.52436,163.77749c0,2.56684 -1.85217,4.64767 -4.13694,4.64767c-2.28476,0 -5.66914,-1.97868 -5.66914,-4.54552c0,-2.56684 3.38437,-4.74982 5.66914,-4.74982c2.28476,0 4.13694,2.08083 4.13694,4.64767zM223.57394,165.6585c0.73758,-0.5596 1.21394,-1.44558 1.21394,-2.44282c0,-1.48771 -1.06016,-2.72781 -2.4662,-3.00605c-0.19347,-0.03829 -0.39349,-0.05835 -0.5982,-0.05835c-1.56184,-0.34208 -3.26869,1.73141 -3.26869,3.0644c0,1.58236 1.19899,2.6867 2.56434,2.98306c0.22616,0.05319 0.46196,0.08134 0.70435,0.08134c0.05748,0 0.11459,-0.00159 0.17128,-0.00471c0.47317,-0.02003 0.9404,-0.1418 1.36092,-0.37834c0.11872,-0.06678 0.22392,-0.1472 0.31826,-0.23853z" fill="#e3e3e3" stroke="none" stroke-width="0"/><path d="M239.36443,146.00272c0,2.40182 -1.87121,5.03296 -4.30002,5.03296c-2.42881,0 -4.39774,-1.94705 -4.39774,-4.34887c0,-2.40182 1.96893,-4.34887 4.39774,-4.34887c2.42881,0 4.30002,1.26296 4.30002,3.66478zM235.06442,150.15614c1.61921,0 2.93183,-2.19217 2.93183,-3.81139c0,-1.61921 -1.41035,-2.83409 -3.02955,-2.83409c-1.61921,0 -3.12728,1.50807 -3.12728,3.12728c0,1.61921 1.6058,3.51819 3.22501,3.51819z" fill="#e3e3e3" stroke="none" stroke-width="0"/><path d="M260.03103,160.75273c0,2.40182 -1.87121,5.03296 -4.30002,5.03296c-2.42881,0 -4.39774,-1.94705 -4.39774,-4.34887c0,-2.40182 1.96894,-4.34888 4.39774,-4.34888c2.42881,0 4.30002,1.26297 4.30002,3.66479zM255.73106,164.90614c1.6192,0 2.93183,-2.19217 2.93183,-3.81137c0,-1.61921 -1.41035,-2.83409 -3.02955,-2.83409c-1.6192,0 -3.12729,1.50808 -3.12729,3.12728c0,1.61921 1.60581,3.51819 3.22501,3.51819z" fill="#b5b5b5" stroke="none" stroke-width="0"/><path d="M222.77208,127.48821c-2.06915,0.7195 -5.50549,0.40886 -6.26633,-1.77921c-0.76085,-2.18807 1.15337,-3.20076 3.22252,-3.92025c2.06915,-0.7195 3.50969,-0.87336 4.27055,1.31471c0.76085,2.18807 0.84242,3.66525 -1.22673,4.38475zM217.56922,125.43575c0.60628,1.38383 2.63195,2.17412 4.05894,1.67792c1.427,-0.49621 2.18156,-2.05528 1.68535,-3.48228c-0.4962,-1.427 -1.90553,-1.75092 -3.33253,-1.25472c-0.26449,0.09197 -3.34764,0.92294 -2.41176,3.05908z" fill="#e3e3e3" stroke="none" stroke-width="0"/><path d="M206.77634,116.29689c0,2.05401 -2.19911,1.27108 -4.33111,1.27108c-2.132,0 -3.86033,-0.34693 -3.86033,-2.40094c0,-2.054 1.72833,-3.7191 3.86033,-3.7191c2.132,0 4.33111,2.79495 4.33111,4.84896zM202.44523,116.81474c1.56,0 2.82464,-0.32309 2.82464,-1.88309c0,-1.56001 -1.26463,-2.44801 -2.82464,-2.44801c-1.56,0 -2.82463,0.51139 -2.82463,2.0714c0,1.56001 1.26463,2.25971 2.82463,2.25971z" fill="#e3e3e3" stroke="none" stroke-width="0"/><path d="M245.18446,90.8905c0,3.13618 -2.41183,6.98397 -5.54801,6.98397c-3.13618,0 -5.28693,-3.84779 -5.28693,-6.98397c0,-3.13618 1.10641,-5.80909 4.24259,-5.80909c3.13618,0 6.59235,2.67292 6.59235,5.80909zM239.83229,96.30797c2.16288,0 3.65516,-2.27552 3.65516,-4.43841c0,-2.16289 -2.01444,-4.56895 -4.17732,-4.56895c-2.16288,0 -3.65516,2.40608 -3.65516,4.56896c0,2.16289 2.01444,4.4384 4.17732,4.4384z" fill="#b5b5b5" stroke="none" stroke-width="0"/><path d="M227.68208,103.68916c0,2.46833 -2.46287,3.24023 -5.36314,3.24023c-2.90028,0 -5.13968,-0.77192 -5.13968,-3.24023c0,-2.46833 2.2394,-5.69834 5.13968,-5.69834c2.90028,0 5.36314,3.23002 5.36314,5.69834zM221.76027,105.92381c1.85124,0 4.13409,-0.04821 4.13409,-1.89945c0,-1.85124 -1.94766,-4.80448 -3.79889,-4.80448c-1.85124,0 -3.57543,1.83592 -3.57543,3.68716c0,1.85124 1.389,3.01678 3.24024,3.01678z" fill="#e3e3e3" stroke="none" stroke-width="0"/><path d="M282.50001,117.56251c0,12.27683 -8.26278,22.64584 -19.02083,22.64584c-10.75805,0 -19.47917,-9.95234 -19.47917,-22.22917c0,-12.27683 8.72112,-22.22916 19.47917,-22.22916c10.75805,0 19.02083,9.53566 19.02083,21.8125zM263.1667,136.5c7.59391,0 16.4341,-10.36715 16.20833,-19.70834c-0.25,-10.34391 -7.32596,-17.57085 -15.91667,-17.79166c-8.59471,-0.22092 -16.63625,5.65419 -16.75,18.75c-0.10503,12.09253 10.11442,18.75 16.45833,18.75z" data-paper-data="{&quot;index&quot;:null}" fill="#e3e3e3" stroke="none" stroke-width="0"/><path d="M267.08336,117.58335c0,1.70288 -1.30584,3.08333 -2.91667,3.08333c-1.61083,0 -2.91667,-1.38045 -2.91667,-3.08333c0,-1.70288 1.30584,-3.08334 2.91667,-3.08334c1.61083,0 2.91667,1.38046 2.91667,3.08334z" fill="#767676" stroke="none" stroke-width="0"/><path d="M261.75485,119.36148c-0.81004,-0.08218 -2.57109,-2.95755 -0.35111,-4.78442c2.5913,-2.13244 4.48571,-0.14075 4.53793,0.08585c0.29963,1.30038 -1.22583,0.05506 -2.97434,1.60878c-2.12129,1.88497 -0.19247,3.19327 -1.21248,3.08979z" fill="#e3e3e3" stroke="none" stroke-width="0"/><path d="M254.59479,104.87365c-9.27029,6.64643 -5.77015,21.06333 -6.74186,20.26603c-2.63289,-2.16034 -3.24403,-17.57875 4.88567,-23.42997c8.13998,-5.85861 19.38973,-1.87736 21.24186,1.48398c0.70404,1.27774 -9.41354,-5.46966 -19.38567,1.67997z" fill="#767676" stroke="none" stroke-width="0"/><path d="M283.08255,118.48903c1.18239,1.52918 0.66584,14.18391 -7.4083,19.72336c-9.59426,6.58236 -19.56821,0.83979 -21.00673,-0.45139c-0.63175,-0.56704 10.07802,5.18023 18.6583,-1.22336c9.48672,-7.08008 9.12498,-18.86565 9.75673,-18.04861z" fill="#767676" stroke="none" stroke-width="0"/><path d="M225.12503,163.375c0,1.933 -1.51104,3.5 -3.375,3.5c-1.86396,0 -3.375,-1.567 -3.375,-3.5c0,-1.933 1.51104,-3.5 3.375,-3.5c1.86396,0 3.375,1.567 3.375,3.5z" fill="#909090" stroke="none" stroke-width="0"/><path d="M266.12501,149.625c0,1.933 -1.67893,3.5 -3.75,3.5c-2.07107,0 -3.75,-1.567 -3.75,-3.5c0,-1.933 1.67893,-3.5 3.75,-3.5c2.07107,0 3.75,1.567 3.75,3.5z" fill="#767676" stroke="none" stroke-width="0"/><path d="M243.62503,91.87501c0,2.62336 -1.79086,4.75 -4,4.75c-2.20914,0 -4,-2.12664 -4,-4.75c0,-2.62336 1.79086,-4.75 4,-4.75c2.20914,0 4,2.12664 4,4.75z" fill="#909090" stroke="none" stroke-width="0"/><path d="M260.37501,91.00001c0,1.1736 -0.89543,2.125 -2,2.125c-1.10457,0 -2,-0.9514 -2,-2.125c0,-1.1736 0.89543,-2.125 2,-2.125c1.10457,0 2,0.9514 2,2.125z" fill="#767676" stroke="none" stroke-width="0"/><path d="M281.87501,145.25c0,1.86396 -1.34314,3.375 -3,3.375c-1.65686,0 -3,-1.51104 -3,-3.375c0,-1.86396 1.34314,-3.375 3,-3.375c1.65686,0 3,1.51104 3,3.375z" fill="#767676" stroke="none" stroke-width="0"/><path d="M220.12503,139.5c0,2.27818 -1.73489,4.125 -3.875,4.125c-2.14011,0 -3.875,-1.84682 -3.875,-4.125c0,-2.27818 1.73489,-4.125 3.875,-4.125c2.14011,0 3.875,1.84682 3.875,4.125z" fill="#a8a8a8" stroke="none" stroke-width="0"/><path d="M206.62503,124.62501c0,1.51878 -1.28718,2.75 -2.875,2.75c-1.58782,0 -2.875,-1.23122 -2.875,-2.75c0,-1.51878 1.28718,-2.75 2.875,-2.75c1.58782,0 2.875,1.23122 2.875,2.75z" fill="#a8a8a8" stroke="none" stroke-width="0"/><path d="M211.37503,148.75c0,3.38275 -2.68629,6.125 -6,6.125c-3.31371,0 -6,-2.74225 -6,-6.125c0,-3.38274 2.68629,-6.125 6,-6.125c3.31371,0 6,2.74226 6,6.125z" fill="#a8a8a8" stroke="none" stroke-width="0"/><path d="M215.62503,102.25001c0,2.14011 -1.84682,3.875 -4.125,3.875c-2.27818,0 -4.125,-1.73489 -4.125,-3.875c0,-2.14011 1.84682,-3.875 4.125,-3.875c2.27818,0 4.125,1.73489 4.125,3.875z" fill="#a8a8a8" stroke="none" stroke-width="0"/><path d="M234.62503,113.25001c0,1.72589 -1.34314,3.125 -3,3.125c-1.65686,0 -3,-1.39911 -3,-3.125c0,-1.72589 1.34314,-3.125 3,-3.125c1.65686,0 3,1.39911 3,3.125z" fill="#b5b5b5" stroke="none" stroke-width="0"/><path d="M228.12503,132.875c0,1.10457 -0.89543,2 -2,2c-1.10457,0 -2,-0.89543 -2,-2c0,-1.10457 0.89543,-2 2,-2c1.10457,0 2,0.89543 2,2z" fill="#e3e3e3" stroke="none" stroke-width="0"/><path d="M243.62503,167.125c0,1.51879 -1.23121,2.75 -2.75,2.75c-1.51879,0 -2.75,-1.23121 -2.75,-2.75c0,-1.51879 1.23121,-2.75 2.75,-2.75c1.51879,0 2.75,1.23121 2.75,2.75z" fill="#b5b5b5" stroke="none" stroke-width="0"/></g></g></g></svg>