<svg version="1.1" xmlns="http://www.w3.org/2000/svg" xmlns:xlink="http://www.w3.org/1999/xlink" width="119.05" height="156.7825" viewBox="0,0,119.05,156.7825"><defs><radialGradient cx="239.525" cy="145.95324" r="59.95324" gradientUnits="userSpaceOnUse" id="color-1"><stop offset="0" stop-color="#401822"/><stop offset="1" stop-color="#401822" stop-opacity="0"/></radialGradient><linearGradient x1="240.61953" y1="58.29926" x2="240.61953" y2="237.16749" gradientUnits="userSpaceOnUse" id="color-2"><stop offset="0" stop-color="#000000"/><stop offset="1" stop-color="#000000" stop-opacity="0"/></linearGradient><radialGradient cx="217.75942" cy="115.92314" r="17.28056" gradientUnits="userSpaceOnUse" id="color-3"><stop offset="0" stop-color="#d20034"/><stop offset="1" stop-color="#d20034" stop-opacity="0"/></radialGradient><radialGradient cx="233.93222" cy="110.27882" r="14.13212" gradientUnits="userSpaceOnUse" id="color-4"><stop offset="0" stop-color="#d20034"/><stop offset="1" stop-color="#d20034" stop-opacity="0"/></radialGradient><radialGradient cx="205.06963" cy="128.40738" r="14.13211" gradientUnits="userSpaceOnUse" id="color-5"><stop offset="0" stop-color="#d20034"/><stop offset="1" stop-color="#d20034" stop-opacity="0"/></radialGradient><radialGradient cx="200.72548" cy="143.75112" r="10.98064" gradientUnits="userSpaceOnUse" id="color-6"><stop offset="0" stop-color="#d20034"/><stop offset="1" stop-color="#d20034" stop-opacity="0"/></radialGradient><radialGradient cx="259.45533" cy="115.16585" r="11.26971" gradientUnits="userSpaceOnUse" id="color-7"><stop offset="0" stop-color="#d20034"/><stop offset="1" stop-color="#d20034" stop-opacity="0"/></radialGradient><radialGradient cx="269.11595" cy="122.7873" r="14.48992" gradientUnits="userSpaceOnUse" id="color-8"><stop offset="0" stop-color="#d20034"/><stop offset="1" stop-color="#d20034" stop-opacity="0"/></radialGradient><radialGradient cx="277.82243" cy="138.38702" r="15.08625" gradientUnits="userSpaceOnUse" id="color-9"><stop offset="0" stop-color="#d20034"/><stop offset="1" stop-color="#d20034" stop-opacity="0"/></radialGradient><radialGradient cx="280.20777" cy="151.90005" r="11.26971" gradientUnits="userSpaceOnUse" id="color-10"><stop offset="0" stop-color="#d20034"/><stop offset="1" stop-color="#d20034" stop-opacity="0"/></radialGradient><radialGradient cx="272.57469" cy="127.36598" r="16.27892" gradientUnits="userSpaceOnUse" id="color-11"><stop offset="0" stop-color="#d10000"/><stop offset="1" stop-color="#d10000" stop-opacity="0"/></radialGradient><radialGradient cx="209.34605" cy="122.9531" r="12.92227" gradientUnits="userSpaceOnUse" id="color-12"><stop offset="0" stop-color="#d10000"/><stop offset="1" stop-color="#d10000" stop-opacity="0"/></radialGradient><radialGradient cx="223.91481" cy="147.29034" r="7.51381" gradientUnits="userSpaceOnUse" id="color-13"><stop offset="0" stop-color="#db002a"/><stop offset="1" stop-color="#db002a" stop-opacity="0"/></radialGradient><radialGradient cx="247.17186" cy="140.62086" r="10.97255" gradientUnits="userSpaceOnUse" id="color-14"><stop offset="0" stop-color="#f00030"/><stop offset="1" stop-color="#f00030" stop-opacity="0"/></radialGradient></defs><g transform="translate(-180,-55.384)"><g data-paper-data="{&quot;isPaintingLayer&quot;:true}" fill-rule="nonzero" stroke-linecap="butt" stroke-linejoin="miter" stroke-miterlimit="10" stroke-dasharray="" stroke-dashoffset="0" style="mix-blend-mode: normal"><path d="M299.05,145.95324c0,33.11126 -26.65025,59.95324 -59.525,59.95324c-32.87475,0 -59.525,-26.84198 -59.525,-59.95324c0,-33.11126 26.65025,-59.95324 59.525,-59.95324c32.87475,0 59.525,26.84198 59.525,59.95324z" fill="url(#color-1)" stroke="none" stroke-width="0"/><path d="M284.37023,179.70937c0.07585,1.88165 -6.82295,7.07192 -42.75929,7.07192c-35.93634,0 -45.96971,-4.43047 -45.98172,-7.45949c-0.01038,-2.6151 9.30175,-6.10294 45.23807,-6.10294c35.93634,0 43.43354,4.76932 43.50294,6.49051z" fill="url(#color-2)" stroke="none" stroke-width="0"/><text transform="translate(222.29696,206.18675) scale(0.357,0.357)" font-size="40" xml:space="preserve" fill="#ffffff" fill-rule="nonzero" stroke="#ffffff" stroke-width="0.5" stroke-linecap="butt" stroke-linejoin="miter" stroke-miterlimit="10" stroke-dasharray="" stroke-dashoffset="0" font-family="Handwriting" font-weight="normal" text-anchor="start" style="mix-blend-mode: normal"></text><text transform="translate(199.68232,68.49286) scale(0.34497,0.34497)" font-size="40" xml:space="preserve" fill="#ffffff" fill-rule="nonzero" stroke="#ffffff" stroke-width="1" stroke-linecap="butt" stroke-linejoin="miter" stroke-miterlimit="10" stroke-dasharray="" stroke-dashoffset="0" font-family="Handwriting" font-weight="normal" text-anchor="start" style="mix-blend-mode: normal"></text><g stroke="none" stroke-width="0"><path d="M235.03998,115.92314c0,9.15583 -7.73677,16.5781 -17.28056,16.5781c-9.54379,0 -17.28056,-7.42227 -17.28056,-16.5781c0,-9.15583 7.73677,-16.5781 17.28056,-16.5781c9.54379,0 17.28056,7.42227 17.28056,16.5781z" fill="url(#color-3)"/><path d="M248.06433,110.27882c0,7.48768 -6.32716,13.55764 -14.13212,13.55764c-7.80495,0 -14.13212,-6.06996 -14.13212,-13.55764c0,-7.48768 6.32716,-13.55764 14.13212,-13.55764c7.80495,0 14.13212,6.06996 14.13212,13.55764z" fill="url(#color-4)"/><path d="M219.20174,128.40738c0,7.48768 -6.32716,13.55764 -14.13211,13.55764c-7.80495,0 -14.13212,-6.06996 -14.13212,-13.55764c0,-7.48768 6.32716,-13.55764 14.13212,-13.55764c7.80495,0 14.13211,6.06996 14.13211,13.55764z" fill="url(#color-5)"/><path d="M211.70612,143.75112c0,5.81792 -4.9162,10.53427 -10.98064,10.53427c-6.06444,0 -10.98064,-4.71636 -10.98064,-10.53427c0,-5.81792 4.9162,-10.53427 10.98064,-10.53427c6.06444,0 10.98064,4.71635 10.98064,10.53427z" fill="url(#color-6)"/><path d="M270.72504,115.16585c0,5.97108 -5.04562,10.81159 -11.26971,10.81159c-6.22409,0 -11.26971,-4.84051 -11.26971,-10.81159c0,-5.97108 5.04562,-10.81159 11.26971,-10.81159c6.22409,0 11.26971,4.84052 11.26971,10.81159z" fill="url(#color-7)"/><path d="M283.60587,122.7873c0,7.67725 -6.48736,13.90089 -14.48992,13.90089c-8.00256,0 -14.48991,-6.22364 -14.48991,-13.90089c0,-7.67725 6.48735,-13.9009 14.48991,-13.9009c8.00256,0 14.48992,6.22365 14.48992,13.9009z" fill="url(#color-8)"/><path d="M292.90869,138.38702c0,7.99321 -6.75435,14.47298 -15.08625,14.47298c-8.33191,0 -15.08625,-6.47977 -15.08625,-14.47298c0,-7.99321 6.75434,-14.47299 15.08625,-14.47299c8.33191,0 15.08625,6.47978 15.08625,14.47299z" fill="url(#color-9)"/><path d="M291.47748,151.90005c0,5.97108 -5.04563,10.81159 -11.26971,10.81159c-6.22409,0 -11.26971,-4.84051 -11.26971,-10.81159c0,-5.97108 5.04562,-10.81159 11.26971,-10.81159c6.22409,0 11.26971,4.84052 11.26971,10.81159z" fill="url(#color-10)"/><path d="M288.85361,127.36598c0,8.62513 -7.28833,15.61717 -16.27892,15.61717c-8.9906,0 -16.27892,-6.99204 -16.27892,-15.61717c0,-8.62513 7.28832,-15.61718 16.27892,-15.61718c8.9906,0 16.27892,6.99205 16.27892,15.61718z" fill="url(#color-11)"/><path d="M222.26832,122.9531c0,6.84665 -5.7855,12.39696 -12.92227,12.39696c-7.13677,0 -12.92226,-5.55031 -12.92226,-12.39696c0,-6.84665 5.78549,-12.39697 12.92226,-12.39697c7.13677,0 12.92227,5.55031 12.92227,12.39697z" fill="url(#color-12)"/><path d="M231.42863,147.29034c0,4.01803 -3.36405,7.27528 -7.51381,7.27528c-4.14977,0 -7.51381,-3.25725 -7.51381,-7.27528c0,-4.01803 3.36405,-7.27528 7.51381,-7.27528c4.14977,0 7.51381,3.25725 7.51381,7.27528z" fill="url(#color-13)"/><path d="M258.14441,140.62086c0,5.86759 -4.91258,10.62422 -10.97255,10.62422c-6.05997,0 -10.97255,-4.75662 -10.97255,-10.62422c0,-5.86759 4.91258,-10.62422 10.97255,-10.62422c6.05997,0 10.97255,4.75663 10.97255,10.62422z" fill="url(#color-14)"/></g></g></g></svg>