<svg version="1.1" xmlns="http://www.w3.org/2000/svg" xmlns:xlink="http://www.w3.org/1999/xlink" width="109.08935" height="138.45202" viewBox="0,0,109.08935,138.45202"><defs><radialGradient cx="239.96379" cy="139.98761" r="22.38043" gradientUnits="userSpaceOnUse" id="color-1"><stop offset="0" stop-color="#fff8e0" stop-opacity="0"/><stop offset="1" stop-color="#fff8e0"/></radialGradient><linearGradient x1="240.61952" y1="58.29926" x2="240.61952" y2="237.16748" gradientUnits="userSpaceOnUse" id="color-2"><stop offset="0" stop-color="#000000"/><stop offset="1" stop-color="#000000" stop-opacity="0"/></linearGradient><radialGradient cx="240.78106" cy="142.31677" r="37.7324" gradientUnits="userSpaceOnUse" id="color-3"><stop offset="0" stop-color="#a5a59b"/><stop offset="1" stop-color="#f0f1cb"/></radialGradient><radialGradient cx="240.71342" cy="142.81011" r="47.71342" gradientUnits="userSpaceOnUse" id="color-4"><stop offset="0" stop-color="#979d8a"/><stop offset="1" stop-color="#d3d4bf"/></radialGradient></defs><g transform="translate(-186.82007,-75.04812)"><g data-paper-data="{&quot;isPaintingLayer&quot;:true}" fill-rule="nonzero" stroke-linecap="butt" stroke-linejoin="miter" stroke-miterlimit="10" stroke-dasharray="" stroke-dashoffset="0" style="mix-blend-mode: normal"><g stroke="none" stroke-width="0"><path d="M244.67545,153.18529c0.45899,0.39748 -3.32591,0.78528 -8.00984,0.78528c-4.68392,0 -8.32395,-1.43454 -8.32395,-2.04172c0,-0.60718 3.48297,1.57055 8.16689,1.57055c4.68392,0 8.00984,-0.45012 8.16689,-0.31411z" fill="#ffffff"/><path d="M261.58191,140.51106c0,11.70774 -9.63478,21.19872 -21.51991,21.19872c-11.88512,0 -21.51991,-9.49098 -21.51991,-21.19872c0,-11.70773 9.63479,-21.19872 21.51991,-21.19872c11.88512,0 21.51991,9.49099 21.51991,21.19873z" fill="#ffee97"/><path d="M260.7344,145.68587c-0.31944,0.48657 -10.79491,2.22733 -19.9439,2.50565c-9.04021,0.27501 -20.839,-1.37873 -21.08899,-1.7025c-1.23905,-1.60486 -1.4728,-9.35266 -0.11568,-12.5823c-0.11829,-0.48428 10.2301,-1.50567 20.73108,-1.66706c10.79894,-0.16597 19.71752,0.54139 19.62201,1.01858c2.79942,3.74879 1.41538,11.48347 0.79551,12.42764z" fill="#fff1c0"/><path d="M259.00678,151.02578c-0.31944,0.48657 -9.38142,2.38439 -18.5304,2.66269c-9.04021,0.27501 -18.16905,-1.06462 -18.41904,-1.38839c-1.23905,-1.60486 -2.88632,-6.05449 -3.09976,-6.9283c-0.11829,-0.48428 10.2301,0.53606 20.73108,0.37466c10.79894,-0.16597 21.75925,-1.50033 21.66374,-1.02314c-0.3417,1.70705 -1.72574,5.35829 -2.34561,6.30246z" fill="#ffd782"/><path d="M255.70862,126.21098c1.72762,1.72427 -10.53405,-0.70675 -15.39146,-0.70675c-4.85741,0 -17.08356,1.73377 -15.54852,0.39263c2.827,-3.29482 7.56127,-6.18685 15.07735,-6.51781c6.90851,-0.30421 14.41988,3.97847 15.86263,6.83192z" fill="#eeffca"/><path d="M246.53657,120.29307c0.51467,0.30354 -2.88727,2.2115 -3.0617,2.27817c-0.24862,0.09503 -6.50289,0.44906 -6.70717,0.36347c-0.67559,-0.28308 -4.30115,-2.18931 -3.26676,-2.54741c2.07314,-0.7177 3.75929,-1.03966 6.18799,-1.03966c2.42871,0 5.15143,-0.05496 6.84762,0.94543z" fill="#cae2c9"/><path d="M262.34422,139.98761c0,12.09739 -10.02006,21.90426 -22.38043,21.90426c-12.36038,0 -22.38043,-9.80686 -22.38043,-21.90426c0,-12.09739 10.02006,-21.90426 22.38043,-21.90426c12.36038,0 22.38043,9.80686 22.38043,21.90426z" fill="url(#color-1)"/></g><path d="M284.37023,179.70936c0.07585,1.88165 -6.82295,7.07192 -42.75929,7.07192c-35.93634,0 -45.96971,-4.43047 -45.98172,-7.45949c-0.01038,-2.6151 9.30175,-6.10294 45.23807,-6.10294c35.93634,0 43.43354,4.76932 43.50294,6.49051z" fill="url(#color-2)" stroke="none" stroke-width="0"/><text transform="translate(216.5759,207.52039) scale(0.357,0.357)" font-size="40" xml:space="preserve" fill="#ffffff" fill-rule="nonzero" stroke="#ffffff" stroke-width="0.5" stroke-linecap="butt" stroke-linejoin="miter" stroke-miterlimit="10" stroke-dasharray="" stroke-dashoffset="0" font-family="Handwriting" font-weight="normal" text-anchor="start" style="mix-blend-mode: normal"></text><text transform="translate(200.75236,87.75988) scale(0.33452,0.33452)" font-size="40" xml:space="preserve" fill="#ffffff" fill-rule="nonzero" stroke="#ffffff" stroke-width="1" stroke-linecap="butt" stroke-linejoin="miter" stroke-miterlimit="10" stroke-dasharray="" stroke-dashoffset="0" font-family="Handwriting" font-weight="normal" text-anchor="start" style="mix-blend-mode: normal"></text><path d="M278.51346,142.31677c0,12.58292 -16.89337,22.7834 -37.7324,22.7834c-20.83903,0 -37.73239,-10.20048 -37.73239,-22.7834c0,-11.67962 14.15494,-19.90657 26.31019,-21.22859c-3.01418,1.53899 -6.74433,4.16222 -8.82687,7.90613c-3.89466,0.90816 -9.08598,7.88161 -9.05178,12.83241c0.14927,6.52763 11.93643,15.83906 29.21881,15.59375c16.30673,-0.23146 28.31172,-9.02222 28.60914,-15.67072c-0.02963,-5.1876 -5.59296,-11.26955 -10.04839,-12.25284c-1.91207,-3.08648 -5.21353,-6.85767 -8.17935,-8.38858c8.4213,1.19685 27.43304,9.58641 27.43304,21.20843z" fill="url(#color-3)" stroke="none" stroke-width="0"/><path d="M288.42683,142.81011c0,15.91137 -21.36202,28.8101 -47.71342,28.8101c-26.35139,0 -47.71341,-12.89872 -47.71341,-28.8101c0,-15.91137 21.36202,-28.8101 47.71341,-28.8101c26.35139,0 47.71342,12.89872 47.71342,28.8101zM240.23482,167.9239c23.88564,-0.64064 42.12386,-11.80997 42.84945,-26.10938c-0.27337,-11.16807 -17.29796,-26.17572 -44.84441,-24.70297c-32.39806,1.73213 -40.55776,20.44973 -40.41071,24.96528c-0.3401,12.88389 19.48909,26.1353 42.40568,25.84707z" fill="url(#color-4)" stroke="none" stroke-width="0"/><text transform="translate(186.93818,103.47374) scale(0.23622,0.23622)" font-size="40" xml:space="preserve" fill="#ffffff" fill-rule="nonzero" stroke="#ffffff" stroke-width="1" stroke-linecap="butt" stroke-linejoin="miter" stroke-miterlimit="10" stroke-dasharray="" stroke-dashoffset="0" font-family="Handwriting" font-weight="normal" text-anchor="start" style="mix-blend-mode: normal"></text></g></g></svg>