<svg version="1.1" xmlns="http://www.w3.org/2000/svg" xmlns:xlink="http://www.w3.org/1999/xlink" width="145.0565" height="170.50089" viewBox="0,0,145.0565,170.50089"><defs><linearGradient x1="241.2011" y1="58.32061" x2="238.51495" y2="237.16867" gradientUnits="userSpaceOnUse" id="color-1"><stop offset="0" stop-color="#000000"/><stop offset="1" stop-color="#000000" stop-opacity="0"/></linearGradient><radialGradient cx="239.20809" cy="129.40717" r="44.05314" gradientUnits="userSpaceOnUse" id="color-2"><stop offset="0" stop-color="#72c5e6"/><stop offset="1" stop-color="#72c5e6" stop-opacity="0"/></radialGradient><radialGradient cx="241.63097" cy="128.41572" r="53.78066" gradientUnits="userSpaceOnUse" id="color-3"><stop offset="0" stop-color="#96afd6"/><stop offset="1" stop-color="#96afd6" stop-opacity="0"/></radialGradient><radialGradient cx="240.66666" cy="126.28392" r="60.16667" gradientUnits="userSpaceOnUse" id="color-4"><stop offset="0" stop-color="#3ce883"/><stop offset="1" stop-color="#3ce883" stop-opacity="0"/></radialGradient><radialGradient cx="239.94653" cy="126.09342" r="28.01472" gradientUnits="userSpaceOnUse" id="color-5"><stop offset="0" stop-color="#af9c8b"/><stop offset="1" stop-color="#af9c8b" stop-opacity="0"/></radialGradient><radialGradient cx="229.68157" cy="114.50102" r="18.28542" gradientUnits="userSpaceOnUse" id="color-6"><stop offset="0" stop-color="#ffffff"/><stop offset="1" stop-color="#ffffff" stop-opacity="0"/></radialGradient><radialGradient cx="242.62971" cy="128.29568" r="35.67511" gradientUnits="userSpaceOnUse" id="color-7"><stop offset="0" stop-color="#b3d3ff"/><stop offset="1" stop-color="#b3d3ff" stop-opacity="0"/></radialGradient><radialGradient cx="240.27383" cy="127.54567" r="22.78465" gradientUnits="userSpaceOnUse" id="color-8"><stop offset="0" stop-color="#ffcd91"/><stop offset="1" stop-color="#ffcd91" stop-opacity="0"/></radialGradient><radialGradient cx="239.47973" cy="129.31601" r="11.83774" gradientUnits="userSpaceOnUse" id="color-9"><stop offset="0" stop-color="#fffdd0"/><stop offset="1" stop-color="#fffdd0" stop-opacity="0"/></radialGradient><radialGradient cx="238.6038" cy="128.88518" r="8.20219" gradientUnits="userSpaceOnUse" id="color-10"><stop offset="0" stop-color="#ffffff"/><stop offset="1" stop-color="#ffffff" stop-opacity="0"/></radialGradient><radialGradient cx="227.34235" cy="123.98197" r="18.62671" gradientUnits="userSpaceOnUse" id="color-11"><stop offset="0" stop-color="#ffffff"/><stop offset="1" stop-color="#ffffff" stop-opacity="0"/></radialGradient><radialGradient cx="273.27673" cy="148.14249" r="18.17291" gradientUnits="userSpaceOnUse" id="color-12"><stop offset="0" stop-color="#ffffff"/><stop offset="1" stop-color="#ffffff" stop-opacity="0"/></radialGradient><radialGradient cx="226.8271" cy="123.77842" r="2.30745" gradientUnits="userSpaceOnUse" id="color-13"><stop offset="0" stop-color="#ffffff"/><stop offset="1" stop-color="#ffffff" stop-opacity="0"/></radialGradient><radialGradient cx="220.36093" cy="145.88626" r="1.45578" gradientUnits="userSpaceOnUse" id="color-14"><stop offset="0" stop-color="#ffffff"/><stop offset="1" stop-color="#ffffff" stop-opacity="0"/></radialGradient><radialGradient cx="204.41116" cy="115.67324" r="1.07695" gradientUnits="userSpaceOnUse" id="color-15"><stop offset="0" stop-color="#ffffff"/><stop offset="1" stop-color="#ffffff" stop-opacity="0"/></radialGradient><radialGradient cx="231.07774" cy="148.92656" r="1.07696" gradientUnits="userSpaceOnUse" id="color-16"><stop offset="0" stop-color="#fffdf7"/><stop offset="1" stop-color="#fffdf7" stop-opacity="0"/></radialGradient><radialGradient cx="246.85149" cy="154.03214" r="0.59609" gradientUnits="userSpaceOnUse" id="color-17"><stop offset="0" stop-color="#ffffff"/><stop offset="1" stop-color="#ffffff" stop-opacity="0"/></radialGradient><radialGradient cx="226.26485" cy="131.40997" r="0.5961" gradientUnits="userSpaceOnUse" id="color-18"><stop offset="0" stop-color="#ffffff"/><stop offset="1" stop-color="#ffffff" stop-opacity="0"/></radialGradient><radialGradient cx="240.47588" cy="148.88869" r="0.5961" gradientUnits="userSpaceOnUse" id="color-19"><stop offset="0" stop-color="#ffffff"/><stop offset="1" stop-color="#ffffff" stop-opacity="0"/></radialGradient><radialGradient cx="216.88887" cy="136.12255" r="0.59609" gradientUnits="userSpaceOnUse" id="color-20"><stop offset="0" stop-color="#ffffff"/><stop offset="1" stop-color="#ffffff" stop-opacity="0"/></radialGradient><radialGradient cx="196.33026" cy="153.77639" r="1.45578" gradientUnits="userSpaceOnUse" id="color-21"><stop offset="0" stop-color="#ffffff"/><stop offset="1" stop-color="#ffffff" stop-opacity="0"/></radialGradient><radialGradient cx="259.12732" cy="111.64087" r="2.30745" gradientUnits="userSpaceOnUse" id="color-22"><stop offset="0" stop-color="#ffffff"/><stop offset="1" stop-color="#ffffff" stop-opacity="0"/></radialGradient><radialGradient cx="194.94333" cy="148.17099" r="1.45579" gradientUnits="userSpaceOnUse" id="color-23"><stop offset="0" stop-color="#ffffff"/><stop offset="1" stop-color="#ffffff" stop-opacity="0"/></radialGradient><radialGradient cx="225.26102" cy="103.8418" r="1.07696" gradientUnits="userSpaceOnUse" id="color-24"><stop offset="0" stop-color="#dedede"/><stop offset="1" stop-color="#dedede" stop-opacity="0"/></radialGradient><radialGradient cx="249.23206" cy="102.5237" r="1.07695" gradientUnits="userSpaceOnUse" id="color-25"><stop offset="0" stop-color="#ffffff"/><stop offset="1" stop-color="#ffffff" stop-opacity="0"/></radialGradient><radialGradient cx="238.34284" cy="101.70292" r="0.5961" gradientUnits="userSpaceOnUse" id="color-26"><stop offset="0" stop-color="#ffffff"/><stop offset="1" stop-color="#ffffff" stop-opacity="0"/></radialGradient><radialGradient cx="264.01996" cy="121.21297" r="0.5961" gradientUnits="userSpaceOnUse" id="color-27"><stop offset="0" stop-color="#ffffff"/><stop offset="1" stop-color="#ffffff" stop-opacity="0"/></radialGradient><radialGradient cx="227.97798" cy="110.54049" r="0.59609" gradientUnits="userSpaceOnUse" id="color-28"><stop offset="0" stop-color="#ffffff"/><stop offset="1" stop-color="#ffffff" stop-opacity="0"/></radialGradient><radialGradient cx="245.27311" cy="107.85565" r="0.59611" gradientUnits="userSpaceOnUse" id="color-29"><stop offset="0" stop-color="#ffffff"/><stop offset="1" stop-color="#ffffff" stop-opacity="0"/></radialGradient><radialGradient cx="203.29945" cy="151.22711" r="1.45579" gradientUnits="userSpaceOnUse" id="color-30"><stop offset="0" stop-color="#ffffff"/><stop offset="1" stop-color="#ffffff" stop-opacity="0"/></radialGradient><radialGradient cx="261.19192" cy="135.85108" r="2.30745" gradientUnits="userSpaceOnUse" id="color-31"><stop offset="0" stop-color="#ffffff"/><stop offset="1" stop-color="#ffffff" stop-opacity="0"/></radialGradient><radialGradient cx="260.67299" cy="152.04259" r="1.45579" gradientUnits="userSpaceOnUse" id="color-32"><stop offset="0" stop-color="#ffffff"/><stop offset="1" stop-color="#ffffff" stop-opacity="0"/></radialGradient><radialGradient cx="268.04029" cy="131.94373" r="1.1667" gradientUnits="userSpaceOnUse" id="color-33"><stop offset="0" stop-color="#ffffff"/><stop offset="1" stop-color="#ffffff" stop-opacity="0"/></radialGradient><radialGradient cx="267.44252" cy="145.52346" r="1.07696" gradientUnits="userSpaceOnUse" id="color-34"><stop offset="0" stop-color="#dedede"/><stop offset="1" stop-color="#dedede" stop-opacity="0"/></radialGradient><radialGradient cx="261.98948" cy="138.91283" r="0.5961" gradientUnits="userSpaceOnUse" id="color-35"><stop offset="0" stop-color="#ffffff"/><stop offset="1" stop-color="#ffffff" stop-opacity="0"/></radialGradient><radialGradient cx="274.47778" cy="139.06007" r="0.5961" gradientUnits="userSpaceOnUse" id="color-36"><stop offset="0" stop-color="#ffffff"/><stop offset="1" stop-color="#ffffff" stop-opacity="0"/></radialGradient><radialGradient cx="261.96574" cy="147.9247" r="0.5961" gradientUnits="userSpaceOnUse" id="color-37"><stop offset="0" stop-color="#ffffff"/><stop offset="1" stop-color="#ffffff" stop-opacity="0"/></radialGradient><radialGradient cx="284.22046" cy="126.59057" r="0.5961" gradientUnits="userSpaceOnUse" id="color-38"><stop offset="0" stop-color="#ffffff"/><stop offset="1" stop-color="#ffffff" stop-opacity="0"/></radialGradient><radialGradient cx="197.13321" cy="116.19612" r="40.25496" gradientUnits="userSpaceOnUse" id="color-39"><stop offset="0" stop-color="#b3cfff"/><stop offset="1" stop-color="#b3cfff" stop-opacity="0"/></radialGradient><radialGradient cx="196.53244" cy="153.99236" r="1.07696" gradientUnits="userSpaceOnUse" id="color-40"><stop offset="0" stop-color="#ffffff"/><stop offset="1" stop-color="#ffffff" stop-opacity="0"/></radialGradient><radialGradient cx="284.14032" cy="136.59991" r="45.28468" gradientUnits="userSpaceOnUse" id="color-41"><stop offset="0" stop-color="#b3d3ff"/><stop offset="1" stop-color="#b3d3ff" stop-opacity="0"/></radialGradient><radialGradient cx="203.74065" cy="112.06563" r="1.45579" gradientUnits="userSpaceOnUse" id="color-42"><stop offset="0" stop-color="#ffffff"/><stop offset="1" stop-color="#ffffff" stop-opacity="0"/></radialGradient><radialGradient cx="201.11855" cy="118.60814" r="1.07696" gradientUnits="userSpaceOnUse" id="color-43"><stop offset="0" stop-color="#dedede"/><stop offset="1" stop-color="#dedede" stop-opacity="0"/></radialGradient><radialGradient cx="210.29588" cy="110.96632" r="1.07695" gradientUnits="userSpaceOnUse" id="color-44"><stop offset="0" stop-color="#dedede"/><stop offset="1" stop-color="#dedede" stop-opacity="0"/></radialGradient><radialGradient cx="281.37575" cy="118.12955" r="1.07696" gradientUnits="userSpaceOnUse" id="color-45"><stop offset="0" stop-color="#fffdf7"/><stop offset="1" stop-color="#fffdf7" stop-opacity="0"/></radialGradient><radialGradient cx="290.72053" cy="113.93657" r="1.07696" gradientUnits="userSpaceOnUse" id="color-46"><stop offset="0" stop-color="#dedede"/><stop offset="1" stop-color="#dedede" stop-opacity="0"/></radialGradient><radialGradient cx="287.63253" cy="109.55335" r="1.07696" gradientUnits="userSpaceOnUse" id="color-47"><stop offset="0" stop-color="#fffdf7"/><stop offset="1" stop-color="#fffdf7" stop-opacity="0"/></radialGradient></defs><g transform="translate(-167.57468,-40.08468)"><g data-paper-data="{&quot;isPaintingLayer&quot;:true}" fill-rule="nonzero" stroke-linecap="butt" stroke-linejoin="miter" stroke-miterlimit="10" stroke-dasharray="" stroke-dashoffset="0" style="mix-blend-mode: normal"><path d="M239.22757,173.22353c35.93227,0.53967 45.19097,4.16697 45.14132,6.78161c-0.05749,3.0285 -10.15627,7.30779 -46.08856,6.76812c-35.93229,-0.53967 -42.75237,-5.83296 -42.64827,-7.71326c0.09524,-1.71995 7.66322,-6.37615 43.5955,-5.83647z" data-paper-data="{&quot;index&quot;:null}" fill="url(#color-1)" stroke="none" stroke-width="0"/><text transform="translate(225.51958,204.60582) scale(0.357,0.357)" font-size="40" xml:space="preserve" fill="#ffffff" fill-rule="nonzero" stroke="#ffffff" stroke-width="0.5" stroke-linecap="butt" stroke-linejoin="miter" stroke-miterlimit="10" stroke-dasharray="" stroke-dashoffset="0" font-family="Handwriting" font-weight="normal" text-anchor="start" style="mix-blend-mode: normal"></text><text transform="translate(184.60958,53.19354) scale(0.34497,0.34497)" font-size="40" xml:space="preserve" fill="#ffffff" fill-rule="nonzero" stroke="#ffffff" stroke-width="1" stroke-linecap="butt" stroke-linejoin="miter" stroke-miterlimit="10" stroke-dasharray="" stroke-dashoffset="0" font-family="Handwriting" font-weight="normal" text-anchor="start" style="mix-blend-mode: normal"></text><g data-paper-data="{&quot;index&quot;:null}" stroke="none" stroke-width="0"><path d="M240.19286,90.02253c28.30065,-0.71083 50.80195,16.34603 50.25806,38.09756c-0.54388,21.75154 -23.92697,39.96088 -52.22761,40.6717c-28.30065,0.71083 -50.80196,-16.34603 -50.25807,-38.09756c0.54389,-21.75153 23.92698,-39.96087 52.22762,-40.67169z" data-paper-data="{&quot;index&quot;:null}" fill="url(#color-2)"/><path d="M242.52899,109.86918c-1.49774,1.79151 -8.15248,-2.21895 -15.72412,-0.14572c-6.41454,1.75638 -13.97895,9.6578 -14.51225,10.66688c-5.28033,9.99138 3.3452,39.0205 1.46984,36.85571c-0.2399,0.06186 -8.25006,2.63052 -9.22956,-0.21259c-0.88833,-2.57847 -12.62278,-6.57877 -14.5488,-14.46367c-2.42928,-9.94518 5.15804,-24.18215 7.3458,-28.43813c5.46082,-9.08915 18.67299,-17.36568 30.48071,-18.46761c7.4963,-0.69957 14.90435,1.33167 21.92655,4.22702c11.73619,4.26192 19.73059,19.63778 19.85575,20.80147c0.44111,4.10133 0.45696,8.42615 -0.51779,10.98481c-3.38543,8.88652 -18.64446,14.43318 -21.16356,14.22936c-9.90011,-0.80099 -16.47169,-13.64396 -16.35202,-14.77978c0.32659,-3.09953 -3.5674,-1.08406 -4.99285,7.0065c-0.36717,4.45005 -0.53153,9.1292 5.4904,9.81382c0.87106,0.09903 21.39182,1.39162 22.71165,1.05715c6.22675,-1.57794 12.05329,-11.36657 17.5052,-19.9707c6.65779,-10.50726 -12.50137,-32.91687 -7.69739,-32.98196c5.5978,-1.0207 22.01094,9.0007 24.29031,23.54461c1.49083,9.51249 -7.36332,22.31563 -14.3142,30.51975c-15.37605,18.14839 -44.72864,5.87331 -45.72902,5.55397c-6.18448,-1.97427 -15.90524,-13.43919 -13.55612,-22.8745c2.70444,-10.86242 18.69409,-17.27344 21.69294,-17.43395c8.05278,-0.43099 16.06891,7.3143 15.43664,10.92755c-0.16736,0.95643 4.80769,-2.69906 1.89335,-7.18322c-4.39498,-6.76236 -10.1874,-11.11952 -11.76144,-9.23673z" data-paper-data="{&quot;index&quot;:null}" fill="url(#color-3)"/><path d="M240.10084,76.16667c33.22913,0 60.73249,26.81325 60.73249,50.11725c0,23.304 -26.3717,53.51223 -59.60083,53.51223c-33.22913,0 -60.7325,-30.20823 -60.7325,-53.51223c0,-23.304 26.37171,-50.11725 59.60084,-50.11725z" fill="url(#color-4)"/><path d="M239.77797,100.56602c18.0058,-0.07646 32.67786,11.29059 32.77096,25.38897c0.0931,14.0984 -14.42803,25.58937 -32.43382,25.66582c-18.00582,0.07646 -32.67789,-11.29057 -32.77098,-25.38897c-0.09309,-14.0984 14.42804,-25.58937 32.43384,-25.66582z" data-paper-data="{&quot;index&quot;:null}" fill="url(#color-5)"/><path d="M230.17978,115.68396c-10.054,4.88034 -17.58684,21.68404 -21.78927,16.1175c-4.20242,-5.56654 -2.68761,-25.91208 7.36639,-30.79241c10.054,-4.88032 46.42644,-2.20173 44.95663,9.71637c-0.79861,6.47546 -20.47976,0.07821 -30.53375,4.95854z" data-paper-data="{&quot;index&quot;:null}" fill="url(#color-6)"/><path d="M247.17147,133.74164c-1.93327,1.40403 -1.71421,4.80256 3.59329,4.47813c1.66573,-0.17766 10.02412,-4.02969 10.58793,-10.64084c0.38465,-4.51037 -6.31366,-10.56885 -9.24528,-14.65987c-1.84446,-2.57394 -12.24936,-9.47305 -22.71818,-8.2208c-9.75892,1.16733 -20.4564,9.16597 -22.67042,13.35529c-1.44217,2.72885 -2.59743,6.80775 -3.55311,11.25159c-2.54343,11.82672 -3.67337,26.23823 -5.03655,24.6647c-0.73187,0.18867 -1.72307,-28.02715 4.11178,-39.37807c2.07848,-4.04342 15.06028,-14.08859 26.86801,-15.19052c14.11912,-1.31764 23.60608,4.09207 31.18052,11.48673c4.40521,4.30065 9.16978,14.86514 7.06356,20.39378c-3.38546,8.88652 -16.75134,12.67962 -19.27044,12.47581c-9.9001,-0.80098 -13.46566,-11.69301 -13.34599,-12.82883c0.32657,-3.09953 2.19251,-3.76293 5.90193,-6.62673c1.67121,-1.88582 -2.58091,-3.12019 -6.00711,-1.48099c-2.66956,1.2772 -10.74282,6.06059 -12.16827,14.15115c-0.36717,4.45004 4.87465,14.68219 10.89659,15.36681c3.76153,0.42765 14.25867,1.09674 22.15447,-0.90417c6.22675,-1.57793 15.96547,-8.11537 21.41736,-16.71952c6.65779,-10.50726 10.17141,-28.94138 13.34425,-28.78134c3.57541,0.18035 -3.34683,18.6771 -8.74781,29.58634c-4.68275,9.45851 -17.35566,17.56394 -23.36863,19.72034c-10.15074,3.64031 -25.30462,1.90752 -29.14889,0.68031c-6.18448,-1.97427 -15.90523,-13.43918 -13.55612,-22.87449c2.70443,-10.86242 18.69407,-17.27345 21.69293,-17.43396c8.05277,-0.431 16.06889,7.3143 15.43663,10.92755c-0.38825,2.21883 -2.87921,5.36186 -5.41245,7.2016z" data-paper-data="{&quot;index&quot;:null}" fill="url(#color-7)"/><path d="M264.91057,127.44106c0.07321,11.08729 -10.89768,20.12215 -24.50419,20.17992c-13.60651,0.05777 -24.69612,-8.88343 -24.76933,-19.97072c-0.07321,-11.08729 10.89768,-20.12214 24.5042,-20.17991c13.60653,-0.05777 24.69612,8.88344 24.76934,19.97072z" data-paper-data="{&quot;index&quot;:null}" fill="url(#color-8)"/><path d="M245.97635,121.29623c5.66936,2.76706 7.04913,8.68986 3.26207,13.18243c-3.78706,4.49257 -11.51573,5.76399 -16.3359,3.26559c-5.58357,-2.89409 -7.79298,-9.37187 -4.00591,-13.86444c3.78707,-4.49256 11.22064,-5.44326 17.07975,-2.58358z" data-paper-data="{&quot;index&quot;:null}" fill="url(#color-9)"/><path d="M238.5545,121.41444c5.27177,-0.02237 9.56746,3.30424 9.59471,7.43019c0.02725,4.12596 -4.22429,7.48887 -9.49605,7.51126c-5.27178,0.02238 -9.56747,-3.30425 -9.59472,-7.43021c-0.02724,-4.12595 4.22429,-7.48885 9.49605,-7.51123z" data-paper-data="{&quot;index&quot;:null}" fill="url(#color-10)"/><path d="M252.63097,121.40178c0.02002,3.03168 -12.6895,-5.46302 -22.08624,-0.42424c-8.92051,4.78342 -5.15836,17.09213 -4.64006,18.79287c0.51946,1.70455 -7.48394,1.45641 -9.07699,-1.71396c-4.08765,-8.13499 -3.16804,-15.90713 3.96891,-21.68713c4.98744,-4.03915 13.20264,-7.01648 20.77853,-6.0685c7.43655,0.93054 11.03875,8.50301 11.05589,11.10098z" data-paper-data="{&quot;index&quot;:null}" fill="url(#color-11)"/><path d="M240.92799,157.48203c-2.5599,-0.24785 -4.07208,-3.72826 -0.35676,-3.89691c5.07776,-0.23052 15.70661,-2.36926 23.42448,-7.03626c6.30595,-3.81321 14.34576,-15.63352 15.50548,-17.28268c0.70271,-0.99927 3.98612,0.54818 3.25513,1.92717c-0.20945,0.39512 -4.32607,12.59668 -14.3696,18.95689c-10.60337,6.71474 -21.9836,7.86188 -27.45875,7.33177z" data-paper-data="{&quot;index&quot;:null}" fill="url(#color-12)"/><path d="M228.58866,123.72725c-0.01422,0.08355 -0.45766,0.21242 -0.81492,0.49085c-0.35033,0.27302 -0.34982,1.13293 -0.64456,1.17568c-0.28153,0.04084 -0.18316,-0.89406 -0.53508,-1.15467c-0.37328,-0.2764 -0.92879,-0.28579 -0.96095,-0.53091c-0.01339,-0.10209 0.68159,-0.09389 0.90232,-0.34284c0.35022,-0.39497 0.29528,-1.5395 0.64157,-1.56526c0.29832,-0.02217 0.23918,1.32884 0.5984,1.63998c0.31029,0.26874 0.83727,0.14592 0.81322,0.28717z" data-paper-data="{&quot;index&quot;:null}" fill="url(#color-13)"/><path d="M221.54194,145.90869c-0.01237,0.07257 -0.39754,0.18449 -0.70785,0.42634c-0.3043,0.23714 -0.20821,0.8677 -0.46421,0.90483c-0.24455,0.03548 -0.25473,-0.66021 -0.56043,-0.88658c-0.32422,-0.24008 -0.80675,-0.24824 -0.83468,-0.46114c-0.01163,-0.08868 0.59203,-0.08157 0.78375,-0.2978c0.3042,-0.34305 0.25828,-1.06661 0.55905,-1.08899c0.25911,-0.01927 0.20594,0.88366 0.51797,1.1539c0.26952,0.23343 0.72724,0.12673 0.70636,0.24943z" data-paper-data="{&quot;index&quot;:null}" fill="url(#color-14)"/><path d="M205.28481,115.68986c-0.00914,0.0537 -0.29407,0.13649 -0.52364,0.31541c-0.22511,0.17545 -0.15403,0.64191 -0.34341,0.66938c-0.18091,0.02624 -0.18842,-0.48841 -0.41457,-0.65587c-0.23986,-0.17761 -0.59683,-0.18365 -0.61748,-0.34114c-0.00859,-0.06559 0.43795,-0.06034 0.5798,-0.2203c0.22503,-0.2538 0.19107,-0.78907 0.41358,-0.80562c0.19168,-0.01426 0.15236,0.65369 0.38319,0.85361c0.19939,0.17268 0.53799,0.09376 0.52254,0.18452z" data-paper-data="{&quot;index&quot;:null}" fill="url(#color-15)"/><path d="M231.9514,148.94312c-0.00913,0.0537 -0.29408,0.13649 -0.52364,0.31541c-0.22511,0.17545 -0.15402,0.6419 -0.3434,0.66938c-0.18091,0.02624 -0.18843,-0.4884 -0.41457,-0.65587c-0.23983,-0.1776 -0.59682,-0.18363 -0.61748,-0.34114c-0.00861,-0.06559 0.43795,-0.06033 0.57981,-0.22029c0.22503,-0.2538 0.19106,-0.78906 0.41358,-0.80562c0.19167,-0.01425 0.15236,0.65369 0.38319,0.85362c0.19939,0.17268 0.53798,0.09377 0.52256,0.18453z" data-paper-data="{&quot;index&quot;:null}" fill="url(#color-16)"/><path d="M246.82693,153.49848c0.20287,-0.00601 0.17813,0.26504 0.30984,0.36822c0.11682,0.09153 0.4016,0.00637 0.40799,0.14492c0.00613,0.13313 -0.28789,0.07805 -0.38832,0.17464c-0.1219,0.11723 -0.07043,0.37332 -0.28037,0.37954c-0.15707,0.00466 -0.10801,-0.23638 -0.22738,-0.30072c-0.17161,-0.09249 -0.48245,-0.0386 -0.49045,-0.21242c-0.00608,-0.13219 0.31174,-0.13609 0.41087,-0.23238c0.12187,-0.11836 0.04668,-0.31555 0.25783,-0.3218z" data-paper-data="{&quot;index&quot;:null}" fill="url(#color-17)"/><path d="M226.2403,130.87632c0.20287,-0.00601 0.17811,0.26504 0.30984,0.36821c0.11682,0.09153 0.4016,0.00636 0.40799,0.14492c0.00613,0.13314 -0.28789,0.07806 -0.38832,0.17465c-0.1219,0.11724 -0.07043,0.37334 -0.28038,0.37954c-0.15707,0.00466 -0.10802,-0.23638 -0.22738,-0.30073c-0.17162,-0.09249 -0.48244,-0.03859 -0.49044,-0.21241c-0.00608,-0.1322 0.31174,-0.13609 0.41087,-0.23238c0.12189,-0.11838 0.04667,-0.31556 0.25783,-0.32181z" data-paper-data="{&quot;index&quot;:null}" fill="url(#color-18)"/><path d="M240.1935,148.6768c0.12187,-0.11836 0.04666,-0.31555 0.25782,-0.3218c0.20288,-0.006 0.17815,0.26505 0.30985,0.36823c0.11683,0.09154 0.4016,0.00636 0.40799,0.14492c0.00613,0.13314 -0.28789,0.07806 -0.38832,0.17465c-0.1219,0.11724 -0.07045,0.37332 -0.28038,0.37954c-0.15707,0.00465 -0.10802,-0.23637 -0.22738,-0.30072c-0.17159,-0.0925 -0.48244,-0.0386 -0.49044,-0.21242c-0.00608,-0.1322 0.31175,-0.13609 0.41088,-0.23238z" data-paper-data="{&quot;index&quot;:null}" fill="url(#color-19)"/><path d="M216.86429,135.58887c0.20287,-0.006 0.17813,0.26505 0.30985,0.36823c0.11683,0.09154 0.40162,0.00637 0.40799,0.14492c0.00613,0.13314 -0.28788,0.07805 -0.38832,0.17464c-0.1219,0.11724 -0.07043,0.37335 -0.28038,0.37955c-0.15706,0.00466 -0.10802,-0.23637 -0.22738,-0.30072c-0.17162,-0.0925 -0.48245,-0.0386 -0.49045,-0.21241c-0.00608,-0.13219 0.31175,-0.13609 0.41088,-0.23238c0.12188,-0.11837 0.04667,-0.31556 0.25782,-0.32181z" data-paper-data="{&quot;index&quot;:null}" fill="url(#color-20)"/><path d="M196.8049,153.54937c0.26951,0.23343 0.72724,0.12673 0.70635,0.24943c-0.01237,0.07257 -0.39751,0.18451 -0.70784,0.42635c-0.3043,0.23715 -0.20821,0.86771 -0.46421,0.90483c-0.24454,0.03547 -0.25473,-0.66022 -0.56042,-0.88659c-0.32421,-0.24009 -0.80674,-0.24823 -0.83467,-0.46113c-0.01163,-0.08868 0.59203,-0.08156 0.78375,-0.29779c0.30419,-0.34305 0.25828,-1.06662 0.55905,-1.089c0.25911,-0.01927 0.20594,0.88364 0.51797,1.1539z" data-paper-data="{&quot;index&quot;:null}" fill="url(#color-21)"/><path d="M260.88892,111.58974c-0.01421,0.08356 -0.45766,0.21241 -0.81493,0.49085c-0.35032,0.27301 -0.3498,1.13293 -0.64454,1.17568c-0.28156,0.04084 -0.18317,-0.89406 -0.53511,-1.15467c-0.37327,-0.2764 -0.92881,-0.2858 -0.96095,-0.53092c-0.01339,-0.1021 0.6816,-0.09391 0.90233,-0.34285c0.35022,-0.39496 0.29528,-1.5395 0.64156,-1.56526c0.29832,-0.02218 0.23917,1.32883 0.5984,1.63998c0.31028,0.26875 0.83725,0.14592 0.8132,0.28717z" data-paper-data="{&quot;index&quot;:null}" fill="url(#color-22)"/><path d="M195.41646,148.61977c-0.30429,0.23715 -0.2082,0.8677 -0.46421,0.90483c-0.24455,0.03548 -0.25474,-0.66021 -0.56043,-0.88658c-0.32421,-0.24008 -0.80675,-0.24824 -0.83468,-0.46114c-0.01162,-0.08868 0.59204,-0.08156 0.78377,-0.29779c0.30419,-0.34305 0.25828,-1.06662 0.55905,-1.089c0.25911,-0.01927 0.20594,0.88366 0.51797,1.1539c0.26952,0.23342 0.72726,0.12673 0.70637,0.24943c-0.01236,0.07257 -0.39751,0.18449 -0.70784,0.42634z" data-paper-data="{&quot;index&quot;:null}" fill="url(#color-23)"/><path d="M225.61104,104.1738c-0.2251,0.17542 -0.15402,0.6419 -0.3434,0.66937c-0.18091,0.02624 -0.18842,-0.48841 -0.41457,-0.65587c-0.23986,-0.1776 -0.59682,-0.18363 -0.61748,-0.34114c-0.0086,-0.06559 0.43796,-0.06033 0.5798,-0.2203c0.22503,-0.2538 0.19106,-0.78906 0.41357,-0.80561c0.19168,-0.01427 0.15234,0.65369 0.38318,0.85361c0.19938,0.17269 0.53801,0.09377 0.52256,0.18453c-0.00913,0.05369 -0.29408,0.13649 -0.52364,0.31541z" data-paper-data="{&quot;index&quot;:null}" fill="url(#color-24)"/><path d="M250.1057,102.54029c-0.00913,0.0537 -0.29407,0.13649 -0.52364,0.31541c-0.2251,0.17542 -0.15401,0.64189 -0.34339,0.66936c-0.18091,0.02625 -0.18846,-0.4884 -0.41458,-0.65585c-0.23984,-0.17759 -0.59682,-0.18363 -0.61748,-0.34114c-0.0086,-0.06559 0.43796,-0.06033 0.57981,-0.22029c0.22503,-0.25379 0.19106,-0.78906 0.41357,-0.80561c0.19168,-0.01426 0.15236,0.6537 0.38319,0.85362c0.19938,0.17268 0.53799,0.09376 0.52253,0.18452z" data-paper-data="{&quot;index&quot;:null}" fill="url(#color-25)"/><path d="M238.31825,101.16926c0.20288,-0.00602 0.17813,0.26502 0.30985,0.36821c0.11682,0.09153 0.4016,0.00637 0.40799,0.14492c0.00613,0.13314 -0.28789,0.07805 -0.38832,0.17464c-0.12191,0.11724 -0.07042,0.37335 -0.28037,0.37955c-0.15707,0.00465 -0.10802,-0.2364 -0.22738,-0.30073c-0.17161,-0.0925 -0.48246,-0.03861 -0.49046,-0.21242c-0.00609,-0.1322 0.31174,-0.13608 0.41087,-0.23236c0.12188,-0.11835 0.04668,-0.31554 0.25782,-0.3218z" data-paper-data="{&quot;index&quot;:null}" fill="url(#color-26)"/><path d="M263.99538,120.67934c0.20291,-0.00601 0.17813,0.26504 0.30985,0.36822c0.11683,0.09154 0.40162,0.00637 0.408,0.14492c0.00611,0.13313 -0.28792,0.07806 -0.38833,0.17465c-0.12191,0.11723 -0.07042,0.37331 -0.28036,0.37953c-0.15707,0.00464 -0.10802,-0.23637 -0.22738,-0.30072c-0.17159,-0.09249 -0.48245,-0.0386 -0.49045,-0.21242c-0.00608,-0.1322 0.31175,-0.13608 0.41088,-0.23238c0.12188,-0.11837 0.04667,-0.31558 0.25782,-0.32182z" data-paper-data="{&quot;index&quot;:null}" fill="url(#color-27)"/><path d="M227.9534,110.00686c0.20288,-0.00602 0.17812,0.26502 0.30984,0.36821c0.11682,0.09154 0.40159,0.00636 0.40798,0.14492c0.00613,0.13313 -0.28788,0.07805 -0.38831,0.17464c-0.1219,0.11723 -0.07045,0.37332 -0.28038,0.37954c-0.15707,0.00465 -0.10801,-0.23637 -0.22737,-0.30072c-0.17161,-0.09249 -0.48245,-0.03859 -0.49045,-0.21241c-0.00608,-0.1322 0.31175,-0.13609 0.41088,-0.23238c0.12187,-0.11836 0.04666,-0.31556 0.25782,-0.32181z" data-paper-data="{&quot;index&quot;:null}" fill="url(#color-28)"/><path d="M245.24856,107.322c0.20288,-0.00602 0.17811,0.26502 0.30983,0.36821c0.11682,0.09153 0.40162,0.00636 0.408,0.14492c0.00613,0.13315 -0.28789,0.07806 -0.38832,0.17465c-0.12191,0.11724 -0.07045,0.37332 -0.28038,0.37954c-0.15706,0.00465 -0.10799,-0.23638 -0.22736,-0.30072c-0.17161,-0.09249 -0.48245,-0.0386 -0.49045,-0.21244c-0.00609,-0.1322 0.31173,-0.13609 0.41086,-0.23238c0.12187,-0.11837 0.04666,-0.31556 0.25782,-0.32181z" data-paper-data="{&quot;index&quot;:null}" fill="url(#color-29)"/><path d="M204.48045,151.24952c-0.01236,0.07258 -0.39751,0.18451 -0.70784,0.42635c-0.30429,0.23714 -0.20821,0.86769 -0.46421,0.90481c-0.24455,0.03548 -0.25474,-0.66021 -0.56043,-0.88658c-0.32422,-0.24008 -0.80675,-0.24823 -0.83468,-0.46113c-0.01162,-0.08868 0.59202,-0.08155 0.78375,-0.29779c0.30419,-0.34305 0.25829,-1.06662 0.55906,-1.089c0.25909,-0.01927 0.20594,0.88365 0.51796,1.15391c0.26952,0.23343 0.72726,0.12673 0.70637,0.24943z" data-paper-data="{&quot;index&quot;:null}" fill="url(#color-30)"/><path d="M262.14029,135.51276c0.31028,0.26875 0.83726,0.14593 0.81321,0.28718c-0.01422,0.08356 -0.45767,0.21241 -0.81493,0.49086c-0.35034,0.27302 -0.34982,1.13293 -0.64454,1.17568c-0.28153,0.04084 -0.18316,-0.89407 -0.53509,-1.15468c-0.37327,-0.2764 -0.9288,-0.28579 -0.96096,-0.53091c-0.01339,-0.10208 0.6816,-0.09389 0.90233,-0.34284c0.35022,-0.39497 0.29531,-1.53949 0.64158,-1.56526c0.29832,-0.02218 0.23915,1.32882 0.59839,1.63997z" data-paper-data="{&quot;index&quot;:null}" fill="url(#color-31)"/><path d="M261.85398,152.06502c-0.01234,0.07257 -0.3975,0.18451 -0.70783,0.42635c-0.30428,0.23715 -0.20821,0.8677 -0.46421,0.90482c-0.24455,0.03547 -0.25473,-0.66021 -0.56042,-0.88659c-0.32422,-0.24008 -0.80675,-0.24824 -0.83468,-0.46114c-0.01163,-0.08867 0.59203,-0.08155 0.78375,-0.29777c0.30419,-0.34306 0.25827,-1.06664 0.55905,-1.08901c0.25911,-0.01928 0.20595,0.88364 0.51797,1.15389c0.26951,0.23344 0.72724,0.12676 0.70636,0.24944z" data-paper-data="{&quot;index&quot;:null}" fill="url(#color-32)"/><path d="M268.98674,131.96172c-0.00989,0.05818 -0.31859,0.14786 -0.56728,0.34168c-0.24386,0.19005 -0.16685,0.69539 -0.37201,0.72515c-0.19598,0.02842 -0.20414,-0.52911 -0.44912,-0.71052c-0.25982,-0.19241 -0.64654,-0.19895 -0.66893,-0.36958c-0.00931,-0.07106 0.47447,-0.06535 0.62813,-0.23864c0.24381,-0.27495 0.20699,-0.85483 0.44805,-0.87276c0.20766,-0.01545 0.16505,0.70816 0.41512,0.92476c0.21599,0.18707 0.58282,0.10157 0.56608,0.1999z" data-paper-data="{&quot;index&quot;:null}" fill="url(#color-33)"/><path d="M267.79365,145.35553c0.19936,0.17268 0.53798,0.09375 0.52254,0.18452c-0.00914,0.05369 -0.29408,0.13648 -0.52364,0.31539c-0.2251,0.17544 -0.15403,0.6419 -0.34341,0.66937c-0.1809,0.02624 -0.18842,-0.4884 -0.41457,-0.65587c-0.23984,-0.17759 -0.59683,-0.18365 -0.61748,-0.34114c-0.00861,-0.06558 0.43795,-0.06033 0.57981,-0.22029c0.22503,-0.2538 0.19106,-0.78906 0.41357,-0.80561c0.19168,-0.01426 0.15234,0.65369 0.38318,0.85362z" data-paper-data="{&quot;index&quot;:null}" fill="url(#color-34)"/><path d="M261.9649,138.37918c0.20291,-0.00601 0.17813,0.26504 0.30984,0.36822c0.11682,0.09153 0.4016,0.00636 0.40799,0.14492c0.00612,0.13314 -0.28791,0.07805 -0.38832,0.17464c-0.12193,0.11725 -0.07043,0.37334 -0.28037,0.37955c-0.15707,0.00465 -0.10802,-0.23639 -0.22738,-0.30072c-0.17159,-0.0925 -0.48245,-0.03861 -0.49045,-0.21244c-0.00608,-0.1322 0.31175,-0.13608 0.41088,-0.23236c0.12187,-0.11836 0.04667,-0.31556 0.25782,-0.32181z" data-paper-data="{&quot;index&quot;:null}" fill="url(#color-35)"/><path d="M274.45322,138.52641c0.20291,-0.006 0.17815,0.26504 0.30985,0.36822c0.11683,0.09153 0.4016,0.00636 0.40799,0.14492c0.00612,0.13314 -0.28789,0.07806 -0.38832,0.17465c-0.12193,0.11724 -0.07045,0.37334 -0.28039,0.37954c-0.15707,0.00465 -0.10802,-0.23638 -0.22738,-0.30072c-0.17159,-0.09249 -0.48244,-0.0386 -0.49044,-0.21242c-0.00608,-0.13219 0.31174,-0.13609 0.41087,-0.23238c0.12188,-0.11837 0.04667,-0.31556 0.2578,-0.32181z" data-paper-data="{&quot;index&quot;:null}" fill="url(#color-36)"/><path d="M262.25101,147.75926c0.11683,0.09153 0.40159,0.00637 0.40798,0.14492c0.00612,0.13312 -0.28789,0.07805 -0.38832,0.17464c-0.12191,0.11725 -0.07043,0.37334 -0.28037,0.37955c-0.15707,0.00466 -0.10802,-0.23637 -0.22738,-0.30072c-0.17159,-0.0925 -0.48244,-0.0386 -0.49044,-0.21242c-0.00608,-0.1322 0.31174,-0.13609 0.41087,-0.23238c0.12188,-0.11836 0.04667,-0.31556 0.25782,-0.32181c0.20291,-0.00601 0.17815,0.26504 0.30985,0.36822z" data-paper-data="{&quot;index&quot;:null}" fill="url(#color-37)"/><path d="M284.19588,126.05692c0.20291,-0.006 0.17813,0.26505 0.30984,0.36823c0.11683,0.09154 0.4016,0.00637 0.40799,0.14492c0.00612,0.13314 -0.28788,0.07806 -0.38831,0.17465c-0.12191,0.11725 -0.07045,0.37332 -0.28038,0.37954c-0.15707,0.00466 -0.10801,-0.23638 -0.22737,-0.30072c-0.17159,-0.0925 -0.48245,-0.0386 -0.49045,-0.21242c-0.00609,-0.1322 0.31173,-0.13608 0.41086,-0.23236c0.12188,-0.11837 0.04667,-0.31558 0.25782,-0.32182z" data-paper-data="{&quot;index&quot;:null}" fill="url(#color-38)"/><path d="M205.55553,119.93138c-0.43964,0.725 -6.78333,8.95312 -4.78179,15.43643c3.47545,11.25758 16.18839,23.07314 14.19007,23.04111c-3.38773,-0.0543 -17.04761,-6.92032 -19.91152,-15.10175c-4.14468,-11.84028 3.6328,-26.97002 8.44872,-32.66647c15.23455,-18.02002 39.27357,-10.44433 49.41145,-7.22341c1.67034,0.53067 -1.28534,10.53809 -2.0004,9.97338c-10.50564,-8.29683 -33.86987,-12.40144 -45.35655,6.54071z" fill="url(#color-39)"/><path d="M196.88246,154.32436c-0.2251,0.17543 -0.15402,0.6419 -0.3434,0.66937c-0.18091,0.02624 -0.18846,-0.4884 -0.41458,-0.65587c-0.23984,-0.1776 -0.59683,-0.18363 -0.61747,-0.34114c-0.00861,-0.06558 0.43796,-0.06033 0.57981,-0.22029c0.22502,-0.2538 0.19106,-0.78906 0.41357,-0.80561c0.19169,-0.01427 0.15236,0.65368 0.38319,0.85361c0.19936,0.17268 0.53799,0.09376 0.52253,0.18453c-0.00914,0.05369 -0.29408,0.13648 -0.52364,0.31539z" data-paper-data="{&quot;index&quot;:null}" fill="url(#color-40)"/><path d="M279.72677,125.80784c9.62624,-18.31222 -26.73391,-33.19056 -26.73391,-33.19056c3.00208,-0.01886 25.29173,7.24223 32.07745,21.2502c3.94407,8.14185 -1.94477,21.95351 -7.89337,29.07886c-2.05581,2.46247 -4.21903,4.52136 -6.45175,6.23289c-16.21446,12.42937 -36.09383,6.53766 -45.10692,3.84235c-1.68951,-0.50523 2.41819,-9.99002 3.11818,-9.40529c10.28426,8.59085 33.78194,10.46555 46.95796,-10.72032c1.37997,-2.21886 2.72728,-4.60545 4.03236,-7.08813z" data-paper-data="{&quot;index&quot;:null}" fill="url(#color-41)"/><path d="M204.21527,111.83864c0.26951,0.23343 0.72725,0.12675 0.70636,0.24943c-0.01236,0.07257 -0.39751,0.18449 -0.70784,0.42634c-0.3043,0.23715 -0.2082,0.8677 -0.46421,0.90483c-0.24454,0.03548 -0.25471,-0.66021 -0.56041,-0.88658c-0.32421,-0.24008 -0.80674,-0.24823 -0.83467,-0.46113c-0.01163,-0.08868 0.59203,-0.08157 0.78375,-0.2978c0.30419,-0.34305 0.25828,-1.06662 0.55905,-1.089c0.25911,-0.01927 0.20594,0.88365 0.51797,1.1539z" data-paper-data="{&quot;index&quot;:null}" fill="url(#color-42)"/><path d="M201.99222,118.62472c-0.00914,0.0537 -0.29407,0.13649 -0.52363,0.31541c-0.2251,0.17544 -0.15403,0.64191 -0.34341,0.66938c-0.18091,0.02624 -0.18844,-0.48841 -0.41457,-0.65587c-0.23984,-0.1776 -0.59682,-0.18365 -0.61747,-0.34114c-0.0086,-0.06559 0.43796,-0.06033 0.57981,-0.22029c0.22502,-0.25379 0.19107,-0.78906 0.41357,-0.80561c0.19168,-0.01425 0.15234,0.6537 0.38318,0.85362c0.19938,0.17268 0.53799,0.09376 0.52253,0.18452z" data-paper-data="{&quot;index&quot;:null}" fill="url(#color-43)"/><path d="M211.16952,110.98291c-0.00914,0.0537 -0.29407,0.13649 -0.52363,0.31541c-0.22511,0.17544 -0.15402,0.6419 -0.3434,0.66937c-0.18091,0.02623 -0.18844,-0.48841 -0.41457,-0.65587c-0.23983,-0.17759 -0.59682,-0.18363 -0.61748,-0.34114c-0.0086,-0.06559 0.43798,-0.06033 0.57982,-0.2203c0.22502,-0.25379 0.19106,-0.78905 0.41357,-0.80561c0.19168,-0.01426 0.15236,0.65369 0.38319,0.85361c0.19939,0.17268 0.53799,0.09377 0.52253,0.18453z" data-paper-data="{&quot;index&quot;:null}" fill="url(#color-44)"/><path d="M281.72689,117.9616c0.19938,0.17268 0.53798,0.09377 0.52253,0.18454c-0.00914,0.05369 -0.29408,0.13648 -0.52364,0.31539c-0.22509,0.17544 -0.15402,0.64189 -0.3434,0.66937c-0.1809,0.02624 -0.18842,-0.4884 -0.41457,-0.65587c-0.23984,-0.1776 -0.59682,-0.18365 -0.61747,-0.34114c-0.00861,-0.06558 0.43794,-0.06033 0.5798,-0.22029c0.22502,-0.25379 0.19105,-0.78905 0.41357,-0.80561c0.19169,-0.01426 0.15236,0.65369 0.38319,0.85361z" data-paper-data="{&quot;index&quot;:null}" fill="url(#color-45)"/><path d="M291.59419,113.95317c-0.00916,0.05369 -0.29407,0.13648 -0.52364,0.31539c-0.22509,0.17544 -0.15403,0.64191 -0.3434,0.66938c-0.1809,0.02624 -0.18843,-0.48841 -0.41457,-0.65588c-0.23984,-0.17759 -0.59682,-0.18363 -0.61747,-0.34113c-0.00861,-0.06559 0.43796,-0.06033 0.5798,-0.2203c0.22503,-0.25379 0.19107,-0.78906 0.41357,-0.80561c0.19169,-0.01426 0.15234,0.65368 0.38319,0.85361c0.19936,0.17268 0.53799,0.09376 0.52254,0.18452z" data-paper-data="{&quot;index&quot;:null}" fill="url(#color-46)"/><path d="M288.50621,109.56994c-0.00914,0.05369 -0.29407,0.13648 -0.52364,0.31539c-0.2251,0.17542 -0.15402,0.64189 -0.3434,0.66937c-0.18091,0.02623 -0.18844,-0.48841 -0.41458,-0.65588c-0.23984,-0.1776 -0.59682,-0.18365 -0.61747,-0.34114c-0.0086,-0.06559 0.43795,-0.06033 0.57981,-0.22029c0.22503,-0.25379 0.19106,-0.78906 0.41357,-0.80561c0.19167,-0.01427 0.15233,0.6537 0.38317,0.85362c0.19938,0.17268 0.53799,0.09377 0.52254,0.18454z" data-paper-data="{&quot;index&quot;:null}" fill="url(#color-47)"/></g><text transform="translate(167.70842,68.44219) scale(0.26747,0.26747)" font-size="40" xml:space="preserve" fill="#ffffff" fill-rule="nonzero" stroke="#ffffff" stroke-width="1" stroke-linecap="butt" stroke-linejoin="miter" stroke-miterlimit="10" stroke-dasharray="" stroke-dashoffset="0" font-family="Handwriting" font-weight="normal" text-anchor="start" style="mix-blend-mode: normal"></text></g></g></svg>