<svg version="1.1" xmlns="http://www.w3.org/2000/svg" xmlns:xlink="http://www.w3.org/1999/xlink" width="124.26626" height="176.47305" viewBox="0,0,124.26626,176.47305"><defs><radialGradient cx="240.38313" cy="132.75" r="62.13313" gradientUnits="userSpaceOnUse" id="color-1"><stop offset="0" stop-color="#00ffbb"/><stop offset="1" stop-color="#00ffbb" stop-opacity="0"/></radialGradient><linearGradient x1="240.61952" y1="58.29925" x2="240.61952" y2="237.16748" gradientUnits="userSpaceOnUse" id="color-2"><stop offset="0" stop-color="#ff9a9a"/><stop offset="1" stop-color="#ff9a9a" stop-opacity="0"/></linearGradient></defs><g transform="translate(-178.24999,-34.52708)"><g data-paper-data="{&quot;isPaintingLayer&quot;:true}" stroke-linecap="butt" stroke-linejoin="miter" stroke-miterlimit="10" stroke-dasharray="" stroke-dashoffset="0" style="mix-blend-mode: normal"><path d="M302.51625,132.75c0,33.68937 -27.81795,61 -62.13313,61c-34.31518,0 -62.13313,-27.31063 -62.13313,-61c0,-33.68937 27.81795,-61 62.13313,-61c34.31518,0 62.13313,27.31063 62.13313,61z" fill="url(#color-1)" fill-rule="nonzero" stroke="none" stroke-width="0"/><path d="M284.37023,179.70936c0.07585,1.88165 -6.82295,7.07192 -42.75929,7.07192c-35.93634,0 -45.96971,-4.43047 -45.98172,-7.45949c-0.01038,-2.6151 9.30175,-6.10294 45.23807,-6.10294c35.93634,0 43.43354,4.76932 43.50294,6.49051z" fill="url(#color-2)" fill-rule="nonzero" stroke="none" stroke-width="0"/><text transform="translate(217.90924,205.02038) scale(0.357,0.357)" font-size="40" xml:space="preserve" fill="#00ffb7" fill-rule="nonzero" stroke="#00ffbb" stroke-width="0.5" stroke-linecap="butt" stroke-linejoin="miter" stroke-miterlimit="10" stroke-dasharray="" stroke-dashoffset="0" font-family="Handwriting" font-weight="normal" text-anchor="start" style="mix-blend-mode: normal"></text><text transform="translate(192.75236,47.63594) scale(0.34497,0.34497)" font-size="40" xml:space="preserve" fill="#00ffb7" fill-rule="nonzero" stroke="#00ffbb" stroke-width="1" stroke-linecap="butt" stroke-linejoin="miter" stroke-miterlimit="10" stroke-dasharray="" stroke-dashoffset="0" font-family="Handwriting" font-weight="normal" text-anchor="start" style="mix-blend-mode: normal"></text><path d="M285.59745,137.85503c-0.53386,0.8008 -1.42365,1.42364 -2.04649,2.22445c-1.42365,1.86854 -1.42364,3.55912 -0.62284,5.69459c1.77956,4.62685 0.62284,9.96552 -3.11423,13.2577c-1.77956,1.6016 -4.18196,2.58036 -6.49538,2.8473c-3.20321,0.35591 -3.02525,0.35591 -5.69458,2.93627c-2.22445,2.31342 -2.66933,6.22845 -4.98276,8.4529c-1.42365,1.42364 -3.73707,3.82604 -9.34268,2.84729c-3.02525,-0.62285 -5.2497,-1.51262 -8.18597,-2.13546c-4.35992,-0.88978 -3.82605,-0.4449 -6.94028,2.13546c-4.18196,3.38116 -10.32143,5.42766 -14.68134,1.60161c-2.31342,-2.04649 -3.47014,-4.53787 -5.2497,-6.94027c-2.66933,-3.64809 -5.69458,-3.38116 -9.78757,-3.64809c-4.62685,-0.26693 -7.74107,-4.35992 -7.74107,-9.16472c-0.08898,-3.11423 0.35591,-6.49539 -1.42364,-9.34268c-1.33467,-2.13547 -2.66933,-3.73707 -4.18196,-5.69458c-3.91502,-4.89379 -2.31342,-9.69858 0.08898,-14.77032c1.77955,-3.73707 -2.58036,-5.60561 -1.6016,-9.2537c0.62285,-2.31342 7.38517,-5.51663 7.83005,-11.56712c0.17795,-2.31342 -0.53387,-9.69858 4.53787,-9.16472c1.51263,0.17795 3.55912,0.26693 4.89379,-0.62285c1.69058,-1.15671 1.69058,-1.69058 2.04649,-3.55911c1.06773,-5.69459 4.62685,-8.63085 10.49938,-6.8513c2.22445,0.71183 3.91503,1.77956 6.22845,1.51262c2.4024,-0.26694 3.55911,-2.04649 5.51663,-3.2032c2.13547,-1.33467 5.24969,-2.49138 7.83005,-1.86853c2.49138,0.62284 2.8473,2.58035 4.27094,4.44889c2.93627,3.82605 6.49538,0.53387 10.0545,0.08898c4.35992,-0.53387 8.00801,1.95752 8.89779,5.69459c0.35591,1.42364 0.8008,2.4024 1.77956,3.47013c1.33467,1.42364 1.95752,1.51262 3.73707,1.6016c2.13547,0.08898 5.07174,1.06773 6.58436,2.58036c4.27094,4.44889 0.35591,10.32144 0.88977,15.66011c0.35591,4.00401 3.6481,5.07174 5.87254,7.83005c1.42365,1.69058 2.22445,3.91503 2.31342,6.13948c0.08898,2.4024 -0.53386,4.8048 -1.77956,6.76231z" fill="#ff563b" fill-rule="evenodd" stroke="none" stroke-width="1"/><path d="M281.32651,140.70233c0.71182,3.11423 0.97876,6.49538 -0.97875,9.2537c-1.15671,1.6016 -2.75832,1.51262 -3.91503,2.75831c-2.93627,3.2032 -0.80081,7.83005 -3.47014,11.92303c-1.51263,2.31342 -6.31743,2.66934 -9.16472,2.8473c-0.26693,0 -1.69058,0.26693 -1.86854,1.42364c-1.24569,4.44889 -6.4064,5.16072 -10.76632,5.51663c-3.29218,0.26693 -5.87254,2.22444 -9.2537,1.69058c-1.51263,-0.26693 -3.02524,-1.06773 -4.53787,-1.24569c-2.31342,-0.26693 -3.11422,0.8008 -5.07174,1.06773c-2.93627,0.26693 -4.62685,-1.95751 -7.11823,-2.93627c-2.58036,-0.97876 -5.42765,-0.62284 -7.91903,-1.95751c-2.66933,-1.42364 -4.09299,-4.18197 -6.58437,-5.78357c-1.95752,-1.24569 -3.11422,-2.75831 -4.09298,-4.89378c-0.88978,-1.77955 -1.06774,-3.11423 -2.84729,-4.27094c-0.88978,-0.62285 -1.6016,-0.8008 -2.4024,-1.6016c-1.95752,-1.95752 -4.35992,-2.84729 -4.71582,-8.008c-0.08898,-1.51263 -0.62285,-2.58036 -0.62285,-4.09298c0,-1.6016 -0.17796,-2.66933 -0.62285,-4.35992c-0.88978,-2.93627 0.44489,-5.78356 1.06773,-8.80881c0.71183,-3.82605 -0.17795,-6.8513 0,-10.76633c0.08898,-2.75831 0.97876,-4.8048 2.93627,-6.76232c1.24569,-1.15671 2.84729,-1.86853 3.82604,-3.38116c1.06773,-1.69058 1.33467,-3.73708 2.13547,-5.51663c0.97876,-2.22445 2.31343,-4.004 4.62685,-5.07173c0.17795,-0.08898 7.38516,-2.58036 12.90179,-8.00801c3.55911,-3.55912 8.008,-0.44488 12.63485,-0.26693c5.16072,0.17795 9.43166,-2.13547 14.5034,-0.17796c2.31342,0.88978 4.44889,2.4024 6.76232,3.11422c2.22445,0.71183 3.55912,-0.08898 5.87254,0.44489c4.35992,1.06773 6.31742,8.89779 9.52063,12.72384c3.20321,3.73707 7.47415,4.18196 8.63085,9.34268c0.62284,2.49138 -0.26694,4.89378 0.8008,7.20721c0.88978,1.86853 2.4024,3.29218 3.02525,5.24969c1.33467,4.35991 -4.09298,10.32143 -3.29218,13.34668z" fill="#ff4040" fill-rule="evenodd" stroke="none" stroke-width="1"/><path d="M239.32896,91.40859c4.53787,0 9.69859,2.93627 13.79157,4.44889c4.35992,1.51263 8.09699,1.15672 11.6561,4.00401c3.29218,2.66934 2.93626,6.13948 5.24969,9.78757c1.6016,2.49138 5.96151,4.44889 7.47414,7.6521c2.13547,4.44889 1.2457,10.23245 1.2457,14.68134c0,3.02525 1.24569,8.80881 0.62284,11.6561c-1.51263,6.58436 -8.27495,8.63085 -12.54588,13.52463c-3.47014,3.91503 -5.69458,8.09699 -10.41041,10.32144c-5.16072,2.49138 -9.52063,6.05049 -15.66011,6.05049c-3.29218,0 -7.91903,-4.44889 -10.94428,-5.2497c-4.09298,-0.97876 -12.10099,0.97876 -14.0585,-2.66933c-6.58436,-12.4569 -8.71983,-10.76632 -11.83406,-15.39317c-4.18196,-6.22845 -2.75831,-10.58837 -2.75831,-18.68535c0,-4.18196 -2.31342,-8.18596 -1.06773,-11.92303c1.51263,-4.71582 5.69458,-8.63085 8.71983,-12.36792c4.27094,-5.33867 12.18997,-7.56312 18.59637,-10.14348c4.27094,-1.69058 6.85129,-5.69458 11.92303,-5.69458z" fill="#ff2f43" fill-rule="evenodd" stroke="none" stroke-width="1"/><path d="M208.9974,131.09272c0,-17.19392 13.93843,-31.13236 31.13235,-31.13236c17.19392,0 31.13236,13.93844 31.13236,31.13236c0,17.19392 -13.93844,31.13235 -31.13236,31.13235c-17.19392,0 -31.13235,-13.93843 -31.13235,-31.13235z" fill="#ff0c48" fill-rule="evenodd" stroke="none" stroke-width="1"/></g></g></svg>