<svg version="1.1" xmlns="http://www.w3.org/2000/svg" xmlns:xlink="http://www.w3.org/1999/xlink" width="102.21896" height="174.17357" viewBox="0,0,102.21896,174.17357"><defs><linearGradient x1="242.62033" y1="-6.60764" x2="242.62033" y2="270.2804" gradientUnits="userSpaceOnUse" id="color-1"><stop offset="0" stop-color="#000000"/><stop offset="1" stop-color="#000000" stop-opacity="0"/></linearGradient><radialGradient cx="239.34014" cy="131.77497" r="51.03322" gradientUnits="userSpaceOnUse" id="color-2"><stop offset="0" stop-color="#e65117"/><stop offset="1" stop-color="#e65117" stop-opacity="0"/></radialGradient><radialGradient cx="223.65719" cy="119.02535" r="2.15913" gradientUnits="userSpaceOnUse" id="color-3"><stop offset="0" stop-color="#dbcd6e"/><stop offset="1" stop-color="#b3a236"/></radialGradient><radialGradient cx="251.55719" cy="137.37535" r="2.15913" gradientUnits="userSpaceOnUse" id="color-4"><stop offset="0" stop-color="#dbcd6e"/><stop offset="1" stop-color="#b3a236"/></radialGradient><radialGradient cx="243.90719" cy="105.77535" r="2.15913" gradientUnits="userSpaceOnUse" id="color-5"><stop offset="0" stop-color="#dbcd6e"/><stop offset="1" stop-color="#b3a236"/></radialGradient><radialGradient cx="262.05718" cy="121.22535" r="2.15913" gradientUnits="userSpaceOnUse" id="color-6"><stop offset="0" stop-color="#dbcd6e"/><stop offset="1" stop-color="#b3a236"/></radialGradient><radialGradient cx="262.25717" cy="131.02534" r="2.15913" gradientUnits="userSpaceOnUse" id="color-7"><stop offset="0" stop-color="#dbcd6e"/><stop offset="1" stop-color="#b3a236"/></radialGradient><radialGradient cx="232.25719" cy="106.22535" r="2.15913" gradientUnits="userSpaceOnUse" id="color-8"><stop offset="0" stop-color="#dbcd6e"/><stop offset="1" stop-color="#b3a236"/></radialGradient><radialGradient cx="245.85719" cy="150.02534" r="2.15913" gradientUnits="userSpaceOnUse" id="color-9"><stop offset="0" stop-color="#dbcd6e"/><stop offset="1" stop-color="#b3a236"/></radialGradient><radialGradient cx="231.85719" cy="148.62535" r="2.15913" gradientUnits="userSpaceOnUse" id="color-10"><stop offset="0" stop-color="#dbcd6e"/><stop offset="1" stop-color="#b3a236"/></radialGradient><radialGradient cx="214.45718" cy="134.42535" r="2.15913" gradientUnits="userSpaceOnUse" id="color-11"><stop offset="0" stop-color="#dbcd6e"/><stop offset="1" stop-color="#b3a236"/></radialGradient><radialGradient cx="213.85719" cy="124.82536" r="2.15913" gradientUnits="userSpaceOnUse" id="color-12"><stop offset="0" stop-color="#dbcd6e"/><stop offset="1" stop-color="#b3a236"/></radialGradient><radialGradient cx="219.25719" cy="156.22535" r="2.15913" gradientUnits="userSpaceOnUse" id="color-13"><stop offset="0" stop-color="#dbcd6e"/><stop offset="1" stop-color="#b3a236"/></radialGradient><radialGradient cx="209.65719" cy="147.82536" r="2.15913" gradientUnits="userSpaceOnUse" id="color-14"><stop offset="0" stop-color="#dbcd6e"/><stop offset="1" stop-color="#b3a236"/></radialGradient><radialGradient cx="255.05718" cy="154.02534" r="2.15913" gradientUnits="userSpaceOnUse" id="color-15"><stop offset="0" stop-color="#dbcd6e"/><stop offset="1" stop-color="#b3a236"/></radialGradient><radialGradient cx="266.05719" cy="144.02534" r="2.15913" gradientUnits="userSpaceOnUse" id="color-16"><stop offset="0" stop-color="#dbcd6e"/><stop offset="1" stop-color="#b3a236"/></radialGradient><radialGradient cx="264.25717" cy="110.42535" r="2.15913" gradientUnits="userSpaceOnUse" id="color-17"><stop offset="0" stop-color="#dbcd6e"/><stop offset="1" stop-color="#b3a236"/></radialGradient><radialGradient cx="257.25717" cy="102.42536" r="2.15913" gradientUnits="userSpaceOnUse" id="color-18"><stop offset="0" stop-color="#dbcd6e"/><stop offset="1" stop-color="#b3a236"/></radialGradient><radialGradient cx="218.25718" cy="102.02535" r="2.15913" gradientUnits="userSpaceOnUse" id="color-19"><stop offset="0" stop-color="#dbcd6e"/><stop offset="1" stop-color="#b3a236"/></radialGradient><radialGradient cx="212.05719" cy="110.82535" r="2.15913" gradientUnits="userSpaceOnUse" id="color-20"><stop offset="0" stop-color="#dbcd6e"/><stop offset="1" stop-color="#b3a236"/></radialGradient><radialGradient cx="203.45718" cy="133.02534" r="2.15913" gradientUnits="userSpaceOnUse" id="color-21"><stop offset="0" stop-color="#dbcd6e"/><stop offset="1" stop-color="#b3a236"/></radialGradient><radialGradient cx="203.05718" cy="123.62536" r="2.15913" gradientUnits="userSpaceOnUse" id="color-22"><stop offset="0" stop-color="#dbcd6e"/><stop offset="1" stop-color="#b3a236"/></radialGradient><radialGradient cx="273.05719" cy="132.62536" r="2.15913" gradientUnits="userSpaceOnUse" id="color-23"><stop offset="0" stop-color="#dbcd6e"/><stop offset="1" stop-color="#b3a236"/></radialGradient><radialGradient cx="273.05719" cy="122.02535" r="2.15913" gradientUnits="userSpaceOnUse" id="color-24"><stop offset="0" stop-color="#dbcd6e"/><stop offset="1" stop-color="#b3a236"/></radialGradient><radialGradient cx="237.65719" cy="162.42536" r="2.15913" gradientUnits="userSpaceOnUse" id="color-25"><stop offset="0" stop-color="#dbcd6e"/><stop offset="1" stop-color="#b3a236"/></radialGradient><radialGradient cx="237.85718" cy="95.02535" r="2.15913" gradientUnits="userSpaceOnUse" id="color-26"><stop offset="0" stop-color="#dbcd6e"/><stop offset="1" stop-color="#b3a236"/></radialGradient><radialGradient cx="269.85718" cy="93.62535" r="2.15913" gradientUnits="userSpaceOnUse" id="color-27"><stop offset="0" stop-color="#dbcd6e"/><stop offset="1" stop-color="#b3a236"/></radialGradient><radialGradient cx="207.85718" cy="164.42536" r="2.15913" gradientUnits="userSpaceOnUse" id="color-28"><stop offset="0" stop-color="#dbcd6e"/><stop offset="1" stop-color="#b3a236"/></radialGradient><radialGradient cx="222.16553" cy="125.20051" r="1.87218" gradientUnits="userSpaceOnUse" id="color-29"><stop offset="0" stop-color="#dbcd6e"/><stop offset="1" stop-color="#b3a236"/></radialGradient><radialGradient cx="249.8447" cy="133.70296" r="1.87218" gradientUnits="userSpaceOnUse" id="color-30"><stop offset="0" stop-color="#dbcd6e"/><stop offset="1" stop-color="#b3a236"/></radialGradient><radialGradient cx="235.80583" cy="109.25521" r="1.87218" gradientUnits="userSpaceOnUse" id="color-31"><stop offset="0" stop-color="#dbcd6e"/><stop offset="1" stop-color="#b3a236"/></radialGradient><radialGradient cx="254.66484" cy="117.71039" r="1.87218" gradientUnits="userSpaceOnUse" id="color-32"><stop offset="0" stop-color="#dbcd6e"/><stop offset="1" stop-color="#b3a236"/></radialGradient><radialGradient cx="257.21023" cy="125.81965" r="1.87218" gradientUnits="userSpaceOnUse" id="color-33"><stop offset="0" stop-color="#dbcd6e"/><stop offset="1" stop-color="#b3a236"/></radialGradient><radialGradient cx="226.21726" cy="112.4578" r="1.87218" gradientUnits="userSpaceOnUse" id="color-34"><stop offset="0" stop-color="#dbcd6e"/><stop offset="1" stop-color="#b3a236"/></radialGradient><radialGradient cx="248.1706" cy="145.61684" r="1.87218" gradientUnits="userSpaceOnUse" id="color-35"><stop offset="0" stop-color="#dbcd6e"/><stop offset="1" stop-color="#b3a236"/></radialGradient><radialGradient cx="236.17674" cy="147.84989" r="1.87218" gradientUnits="userSpaceOnUse" id="color-36"><stop offset="0" stop-color="#dbcd6e"/><stop offset="1" stop-color="#b3a236"/></radialGradient><radialGradient cx="218.24547" cy="140.25319" r="1.87218" gradientUnits="userSpaceOnUse" id="color-37"><stop offset="0" stop-color="#dbcd6e"/><stop offset="1" stop-color="#b3a236"/></radialGradient><radialGradient cx="215.41565" cy="132.40751" r="1.87218" gradientUnits="userSpaceOnUse" id="color-38"><stop offset="0" stop-color="#dbcd6e"/><stop offset="1" stop-color="#b3a236"/></radialGradient><radialGradient cx="227.53301" cy="157.23496" r="1.87218" gradientUnits="userSpaceOnUse" id="color-39"><stop offset="0" stop-color="#dbcd6e"/><stop offset="1" stop-color="#b3a236"/></radialGradient><radialGradient cx="217.50262" cy="152.57293" r="1.87218" gradientUnits="userSpaceOnUse" id="color-40"><stop offset="0" stop-color="#dbcd6e"/><stop offset="1" stop-color="#b3a236"/></radialGradient><radialGradient cx="256.79992" cy="146.71329" r="1.87218" gradientUnits="userSpaceOnUse" id="color-41"><stop offset="0" stop-color="#dbcd6e"/><stop offset="1" stop-color="#b3a236"/></radialGradient><radialGradient cx="263.52919" cy="135.71879" r="1.87218" gradientUnits="userSpaceOnUse" id="color-42"><stop offset="0" stop-color="#dbcd6e"/><stop offset="1" stop-color="#b3a236"/></radialGradient><radialGradient cx="253.87452" cy="108.18612" r="1.87218" gradientUnits="userSpaceOnUse" id="color-43"><stop offset="0" stop-color="#dbcd6e"/><stop offset="1" stop-color="#b3a236"/></radialGradient><radialGradient cx="246.10554" cy="103.22592" r="1.87218" gradientUnits="userSpaceOnUse" id="color-44"><stop offset="0" stop-color="#dbcd6e"/><stop offset="1" stop-color="#b3a236"/></radialGradient><radialGradient cx="213.54371" cy="112.36005" r="1.87218" gradientUnits="userSpaceOnUse" id="color-45"><stop offset="0" stop-color="#dbcd6e"/><stop offset="1" stop-color="#b3a236"/></radialGradient><radialGradient cx="210.51883" cy="121.19045" r="1.87218" gradientUnits="userSpaceOnUse" id="color-46"><stop offset="0" stop-color="#dbcd6e"/><stop offset="1" stop-color="#b3a236"/></radialGradient><radialGradient cx="208.7489" cy="141.758" r="1.87218" gradientUnits="userSpaceOnUse" id="color-47"><stop offset="0" stop-color="#dbcd6e"/><stop offset="1" stop-color="#b3a236"/></radialGradient><radialGradient cx="206.13412" cy="134.03027" r="1.87218" gradientUnits="userSpaceOnUse" id="color-48"><stop offset="0" stop-color="#dbcd6e"/><stop offset="1" stop-color="#b3a236"/></radialGradient><radialGradient cx="266.58888" cy="124.52988" r="1.87218" gradientUnits="userSpaceOnUse" id="color-49"><stop offset="0" stop-color="#dbcd6e"/><stop offset="1" stop-color="#b3a236"/></radialGradient><radialGradient cx="264.01577" cy="115.70612" r="1.87218" gradientUnits="userSpaceOnUse" id="color-50"><stop offset="0" stop-color="#dbcd6e"/><stop offset="1" stop-color="#b3a236"/></radialGradient><radialGradient cx="244.35474" cy="157.92949" r="1.87218" gradientUnits="userSpaceOnUse" id="color-51"><stop offset="0" stop-color="#dbcd6e"/><stop offset="1" stop-color="#b3a236"/></radialGradient><radialGradient cx="228.1601" cy="101.77521" r="1.87218" gradientUnits="userSpaceOnUse" id="color-52"><stop offset="0" stop-color="#dbcd6e"/><stop offset="1" stop-color="#b3a236"/></radialGradient><radialGradient cx="254.45799" cy="92.84193" r="1.87218" gradientUnits="userSpaceOnUse" id="color-53"><stop offset="0" stop-color="#dbcd6e"/><stop offset="1" stop-color="#b3a236"/></radialGradient><radialGradient cx="220.03383" cy="166.8282" r="1.87218" gradientUnits="userSpaceOnUse" id="color-54"><stop offset="0" stop-color="#dbcd6e"/><stop offset="1" stop-color="#b3a236"/></radialGradient><radialGradient cx="244.80334" cy="117.29532" r="1.72891" gradientUnits="userSpaceOnUse" id="color-55"><stop offset="0" stop-color="#dbcd6e"/><stop offset="1" stop-color="#b3a236"/></radialGradient><radialGradient cx="226.99844" cy="137.24515" r="1.72891" gradientUnits="userSpaceOnUse" id="color-56"><stop offset="0" stop-color="#dbcd6e"/><stop offset="1" stop-color="#b3a236"/></radialGradient><radialGradient cx="252.92594" cy="134.88848" r="1.72891" gradientUnits="userSpaceOnUse" id="color-57"><stop offset="0" stop-color="#dbcd6e"/><stop offset="1" stop-color="#b3a236"/></radialGradient><radialGradient cx="238.56075" cy="147.45496" r="1.72891" gradientUnits="userSpaceOnUse" id="color-58"><stop offset="0" stop-color="#dbcd6e"/><stop offset="1" stop-color="#b3a236"/></radialGradient><radialGradient cx="230.77453" cy="146.46496" r="1.72891" gradientUnits="userSpaceOnUse" id="color-59"><stop offset="0" stop-color="#dbcd6e"/><stop offset="1" stop-color="#b3a236"/></radialGradient><radialGradient cx="253.9347" cy="125.60754" r="1.72891" gradientUnits="userSpaceOnUse" id="color-60"><stop offset="0" stop-color="#dbcd6e"/><stop offset="1" stop-color="#b3a236"/></radialGradient><radialGradient cx="217.64606" cy="131.24766" r="1.72891" gradientUnits="userSpaceOnUse" id="color-61"><stop offset="0" stop-color="#dbcd6e"/><stop offset="1" stop-color="#b3a236"/></radialGradient><radialGradient cx="220.39563" cy="120.32202" r="1.72891" gradientUnits="userSpaceOnUse" id="color-62"><stop offset="0" stop-color="#dbcd6e"/><stop offset="1" stop-color="#b3a236"/></radialGradient><radialGradient cx="233.68278" cy="108.20314" r="1.72891" gradientUnits="userSpaceOnUse" id="color-63"><stop offset="0" stop-color="#dbcd6e"/><stop offset="1" stop-color="#b3a236"/></radialGradient><radialGradient cx="241.35745" cy="108.85285" r="1.72891" gradientUnits="userSpaceOnUse" id="color-64"><stop offset="0" stop-color="#dbcd6e"/><stop offset="1" stop-color="#b3a236"/></radialGradient><radialGradient cx="215.85204" cy="109.45068" r="1.72891" gradientUnits="userSpaceOnUse" id="color-65"><stop offset="0" stop-color="#dbcd6e"/><stop offset="1" stop-color="#b3a236"/></radialGradient><radialGradient cx="223.63083" cy="102.83067" r="1.72891" gradientUnits="userSpaceOnUse" id="color-66"><stop offset="0" stop-color="#dbcd6e"/><stop offset="1" stop-color="#b3a236"/></radialGradient><radialGradient cx="213.39947" cy="138.06643" r="1.72891" gradientUnits="userSpaceOnUse" id="color-67"><stop offset="0" stop-color="#dbcd6e"/><stop offset="1" stop-color="#b3a236"/></radialGradient><radialGradient cx="220.03164" cy="147.95163" r="1.72891" gradientUnits="userSpaceOnUse" id="color-68"><stop offset="0" stop-color="#dbcd6e"/><stop offset="1" stop-color="#b3a236"/></radialGradient><radialGradient cx="246.85786" cy="150.46323" r="1.72891" gradientUnits="userSpaceOnUse" id="color-69"><stop offset="0" stop-color="#dbcd6e"/><stop offset="1" stop-color="#b3a236"/></radialGradient><radialGradient cx="254.01512" cy="145.85586" r="1.72891" gradientUnits="userSpaceOnUse" id="color-70"><stop offset="0" stop-color="#dbcd6e"/><stop offset="1" stop-color="#b3a236"/></radialGradient><radialGradient cx="258.90221" cy="115.01001" r="1.72891" gradientUnits="userSpaceOnUse" id="color-71"><stop offset="0" stop-color="#dbcd6e"/><stop offset="1" stop-color="#b3a236"/></radialGradient><radialGradient cx="252.65809" cy="109.06763" r="1.72891" gradientUnits="userSpaceOnUse" id="color-72"><stop offset="0" stop-color="#dbcd6e"/><stop offset="1" stop-color="#b3a236"/></radialGradient><radialGradient cx="236.08079" cy="99.65386" r="1.72891" gradientUnits="userSpaceOnUse" id="color-73"><stop offset="0" stop-color="#dbcd6e"/><stop offset="1" stop-color="#b3a236"/></radialGradient><radialGradient cx="243.5736" cy="100.43855" r="1.72891" gradientUnits="userSpaceOnUse" id="color-74"><stop offset="0" stop-color="#dbcd6e"/><stop offset="1" stop-color="#b3a236"/></radialGradient><radialGradient cx="228.24152" cy="154.83238" r="1.72891" gradientUnits="userSpaceOnUse" id="color-75"><stop offset="0" stop-color="#dbcd6e"/><stop offset="1" stop-color="#b3a236"/></radialGradient><radialGradient cx="236.63801" cy="156.07456" r="1.72891" gradientUnits="userSpaceOnUse" id="color-76"><stop offset="0" stop-color="#dbcd6e"/><stop offset="1" stop-color="#b3a236"/></radialGradient><radialGradient cx="208.78467" cy="123.29917" r="1.72891" gradientUnits="userSpaceOnUse" id="color-77"><stop offset="0" stop-color="#dbcd6e"/><stop offset="1" stop-color="#b3a236"/></radialGradient><radialGradient cx="262.15022" cy="131.35589" r="1.72891" gradientUnits="userSpaceOnUse" id="color-78"><stop offset="0" stop-color="#dbcd6e"/><stop offset="1" stop-color="#b3a236"/></radialGradient><radialGradient cx="259.50926" cy="156.86783" r="1.72891" gradientUnits="userSpaceOnUse" id="color-79"><stop offset="0" stop-color="#dbcd6e"/><stop offset="1" stop-color="#b3a236"/></radialGradient><radialGradient cx="210.69255" cy="99.45957" r="1.72891" gradientUnits="userSpaceOnUse" id="color-80"><stop offset="0" stop-color="#dbcd6e"/><stop offset="1" stop-color="#b3a236"/></radialGradient><radialGradient cx="231.11105" cy="137.16186" r="3.33761" gradientUnits="userSpaceOnUse" id="color-81"><stop offset="0" stop-color="#7f7f7f"/><stop offset="1" stop-color="#333333"/></radialGradient><radialGradient cx="236.20827" cy="135.53009" r="3.33761" gradientUnits="userSpaceOnUse" id="color-82"><stop offset="0" stop-color="#dc6e6e"/><stop offset="1" stop-color="#b23535"/></radialGradient><radialGradient cx="237.76402" cy="132.55824" r="3.33761" gradientUnits="userSpaceOnUse" id="color-83"><stop offset="0" stop-color="#7f7f7f"/><stop offset="1" stop-color="#333333"/></radialGradient><radialGradient cx="235.88185" cy="129.28402" r="3.33761" gradientUnits="userSpaceOnUse" id="color-84"><stop offset="0" stop-color="#dc6e6e"/><stop offset="1" stop-color="#b23535"/></radialGradient><radialGradient cx="226.89568" cy="132.15459" r="3.33762" gradientUnits="userSpaceOnUse" id="color-85"><stop offset="0" stop-color="#7f7f7f"/><stop offset="1" stop-color="#333333"/></radialGradient><radialGradient cx="229.15952" cy="135.4588" r="3.33761" gradientUnits="userSpaceOnUse" id="color-86"><stop offset="0" stop-color="#dc6e6e"/><stop offset="1" stop-color="#b23535"/></radialGradient><radialGradient cx="228.24944" cy="129.23704" r="3.33761" gradientUnits="userSpaceOnUse" id="color-87"><stop offset="0" stop-color="#dc6e6e"/><stop offset="1" stop-color="#b23535"/></radialGradient><radialGradient cx="233.92917" cy="135.58841" r="3.33761" gradientUnits="userSpaceOnUse" id="color-88"><stop offset="0" stop-color="#7f7f7f"/><stop offset="1" stop-color="#333333"/></radialGradient><radialGradient cx="232.48004" cy="126.64019" r="3.33761" gradientUnits="userSpaceOnUse" id="color-89"><stop offset="0" stop-color="#7f7f7f"/><stop offset="1" stop-color="#333333"/></radialGradient><radialGradient cx="232.92045" cy="131.49078" r="3.33761" gradientUnits="userSpaceOnUse" id="color-90"><stop offset="0" stop-color="#dc6e6e"/><stop offset="1" stop-color="#b23535"/></radialGradient><radialGradient cx="238.39326" cy="132.46318" r="3.3376" gradientUnits="userSpaceOnUse" id="color-91"><stop offset="0" stop-color="#7f7f7f"/><stop offset="1" stop-color="#333333"/></radialGradient><radialGradient cx="243.49048" cy="130.8314" r="3.33761" gradientUnits="userSpaceOnUse" id="color-92"><stop offset="0" stop-color="#dc6e6e"/><stop offset="1" stop-color="#b23535"/></radialGradient><radialGradient cx="245.04623" cy="127.85957" r="3.33761" gradientUnits="userSpaceOnUse" id="color-93"><stop offset="0" stop-color="#7f7f7f"/><stop offset="1" stop-color="#333333"/></radialGradient><radialGradient cx="243.16406" cy="124.58533" r="3.33761" gradientUnits="userSpaceOnUse" id="color-94"><stop offset="0" stop-color="#dc6e6e"/><stop offset="1" stop-color="#b23535"/></radialGradient><radialGradient cx="234.17789" cy="127.4559" r="3.33761" gradientUnits="userSpaceOnUse" id="color-95"><stop offset="0" stop-color="#7f7f7f"/><stop offset="1" stop-color="#333333"/></radialGradient><radialGradient cx="236.44173" cy="130.76012" r="3.33761" gradientUnits="userSpaceOnUse" id="color-96"><stop offset="0" stop-color="#dc6e6e"/><stop offset="1" stop-color="#b23535"/></radialGradient><radialGradient cx="235.53165" cy="124.53836" r="3.3376" gradientUnits="userSpaceOnUse" id="color-97"><stop offset="0" stop-color="#dc6e6e"/><stop offset="1" stop-color="#b23535"/></radialGradient><radialGradient cx="241.21138" cy="130.88972" r="3.33761" gradientUnits="userSpaceOnUse" id="color-98"><stop offset="0" stop-color="#7f7f7f"/><stop offset="1" stop-color="#333333"/></radialGradient><radialGradient cx="239.76225" cy="121.94152" r="3.33761" gradientUnits="userSpaceOnUse" id="color-99"><stop offset="0" stop-color="#7f7f7f"/><stop offset="1" stop-color="#333333"/></radialGradient><radialGradient cx="240.20266" cy="126.7921" r="3.33761" gradientUnits="userSpaceOnUse" id="color-100"><stop offset="0" stop-color="#dc6e6e"/><stop offset="1" stop-color="#b23535"/></radialGradient><radialGradient cx="237.35078" cy="141.25623" r="3.3376" gradientUnits="userSpaceOnUse" id="color-101"><stop offset="0" stop-color="#7f7f7f"/><stop offset="1" stop-color="#333333"/></radialGradient><radialGradient cx="242.44799" cy="139.62445" r="3.33761" gradientUnits="userSpaceOnUse" id="color-102"><stop offset="0" stop-color="#dc6e6e"/><stop offset="1" stop-color="#b23535"/></radialGradient><radialGradient cx="244.00375" cy="136.65262" r="3.33761" gradientUnits="userSpaceOnUse" id="color-103"><stop offset="0" stop-color="#7f7f7f"/><stop offset="1" stop-color="#333333"/></radialGradient><radialGradient cx="242.12158" cy="133.37839" r="3.33761" gradientUnits="userSpaceOnUse" id="color-104"><stop offset="0" stop-color="#dc6e6e"/><stop offset="1" stop-color="#b23535"/></radialGradient><radialGradient cx="233.13541" cy="136.24895" r="3.33761" gradientUnits="userSpaceOnUse" id="color-105"><stop offset="0" stop-color="#7f7f7f"/><stop offset="1" stop-color="#333333"/></radialGradient><radialGradient cx="235.39925" cy="139.55318" r="3.3376" gradientUnits="userSpaceOnUse" id="color-106"><stop offset="0" stop-color="#dc6e6e"/><stop offset="1" stop-color="#b23535"/></radialGradient><radialGradient cx="234.48916" cy="133.33141" r="3.3376" gradientUnits="userSpaceOnUse" id="color-107"><stop offset="0" stop-color="#dc6e6e"/><stop offset="1" stop-color="#b23535"/></radialGradient><radialGradient cx="240.1689" cy="139.68278" r="3.3376" gradientUnits="userSpaceOnUse" id="color-108"><stop offset="0" stop-color="#7f7f7f"/><stop offset="1" stop-color="#333333"/></radialGradient><radialGradient cx="238.71977" cy="130.73456" r="3.33761" gradientUnits="userSpaceOnUse" id="color-109"><stop offset="0" stop-color="#7f7f7f"/><stop offset="1" stop-color="#333333"/></radialGradient><radialGradient cx="239.16018" cy="135.58515" r="3.3376" gradientUnits="userSpaceOnUse" id="color-110"><stop offset="0" stop-color="#dc6e6e"/><stop offset="1" stop-color="#b23535"/></radialGradient><radialGradient cx="244.3984" cy="111.28604" r="2.14615" gradientUnits="userSpaceOnUse" id="color-111"><stop offset="0" stop-color="#dbcd6e"/><stop offset="1" stop-color="#b3a236"/></radialGradient><radialGradient cx="232.18049" cy="142.14834" r="2.14615" gradientUnits="userSpaceOnUse" id="color-112"><stop offset="0" stop-color="#dbcd6e"/><stop offset="1" stop-color="#b3a236"/></radialGradient><radialGradient cx="261.38731" cy="128.3148" r="2.14615" gradientUnits="userSpaceOnUse" id="color-113"><stop offset="0" stop-color="#dbcd6e"/><stop offset="1" stop-color="#b3a236"/></radialGradient><radialGradient cx="250.02057" cy="149.10202" r="2.14615" gradientUnits="userSpaceOnUse" id="color-114"><stop offset="0" stop-color="#dbcd6e"/><stop offset="1" stop-color="#b3a236"/></radialGradient><radialGradient cx="240.52356" cy="151.27789" r="2.14615" gradientUnits="userSpaceOnUse" id="color-115"><stop offset="0" stop-color="#dbcd6e"/><stop offset="1" stop-color="#b3a236"/></radialGradient><radialGradient cx="258.59411" cy="117.06789" r="2.14615" gradientUnits="userSpaceOnUse" id="color-116"><stop offset="0" stop-color="#dbcd6e"/><stop offset="1" stop-color="#b3a236"/></radialGradient><radialGradient cx="218.71703" cy="139.15847" r="2.14615" gradientUnits="userSpaceOnUse" id="color-117"><stop offset="0" stop-color="#dbcd6e"/><stop offset="1" stop-color="#b3a236"/></radialGradient><radialGradient cx="217.24918" cy="125.25051" r="2.14615" gradientUnits="userSpaceOnUse" id="color-118"><stop offset="0" stop-color="#dbcd6e"/><stop offset="1" stop-color="#b3a236"/></radialGradient><radialGradient cx="227.55103" cy="105.44589" r="2.14615" gradientUnits="userSpaceOnUse" id="color-119"><stop offset="0" stop-color="#dbcd6e"/><stop offset="1" stop-color="#b3a236"/></radialGradient><radialGradient cx="236.77253" cy="102.92116" r="2.14614" gradientUnits="userSpaceOnUse" id="color-120"><stop offset="0" stop-color="#dbcd6e"/><stop offset="1" stop-color="#b3a236"/></radialGradient><radialGradient cx="207.30548" cy="114.52455" r="2.14615" gradientUnits="userSpaceOnUse" id="color-121"><stop offset="0" stop-color="#dbcd6e"/><stop offset="1" stop-color="#b3a236"/></radialGradient><radialGradient cx="213.53961" cy="103.48354" r="2.14615" gradientUnits="userSpaceOnUse" id="color-122"><stop offset="0" stop-color="#dbcd6e"/><stop offset="1" stop-color="#b3a236"/></radialGradient><radialGradient cx="216.68414" cy="148.92066" r="2.14615" gradientUnits="userSpaceOnUse" id="color-123"><stop offset="0" stop-color="#dbcd6e"/><stop offset="1" stop-color="#b3a236"/></radialGradient><radialGradient cx="228.64007" cy="157.6043" r="2.14615" gradientUnits="userSpaceOnUse" id="color-124"><stop offset="0" stop-color="#dbcd6e"/><stop offset="1" stop-color="#b3a236"/></radialGradient><radialGradient cx="260.976" cy="149.05967" r="2.14615" gradientUnits="userSpaceOnUse" id="color-125"><stop offset="0" stop-color="#dbcd6e"/><stop offset="1" stop-color="#b3a236"/></radialGradient><radialGradient cx="267.34648" cy="140.62986" r="2.14615" gradientUnits="userSpaceOnUse" id="color-126"><stop offset="0" stop-color="#dbcd6e"/><stop offset="1" stop-color="#b3a236"/></radialGradient><radialGradient cx="259.85125" cy="102.59385" r="2.14615" gradientUnits="userSpaceOnUse" id="color-127"><stop offset="0" stop-color="#dbcd6e"/><stop offset="1" stop-color="#b3a236"/></radialGradient><radialGradient cx="250.03356" cy="98.33904" r="2.14615" gradientUnits="userSpaceOnUse" id="color-128"><stop offset="0" stop-color="#dbcd6e"/><stop offset="1" stop-color="#b3a236"/></radialGradient><radialGradient cx="226.68968" cy="94.45755" r="2.14614" gradientUnits="userSpaceOnUse" id="color-129"><stop offset="0" stop-color="#dbcd6e"/><stop offset="1" stop-color="#b3a236"/></radialGradient><radialGradient cx="235.75697" cy="92.16789" r="2.14615" gradientUnits="userSpaceOnUse" id="color-130"><stop offset="0" stop-color="#dbcd6e"/><stop offset="1" stop-color="#b3a236"/></radialGradient><radialGradient cx="241.14982" cy="162.11205" r="2.14615" gradientUnits="userSpaceOnUse" id="color-131"><stop offset="0" stop-color="#dbcd6e"/><stop offset="1" stop-color="#b3a236"/></radialGradient><radialGradient cx="251.46585" cy="159.96907" r="2.14615" gradientUnits="userSpaceOnUse" id="color-132"><stop offset="0" stop-color="#dbcd6e"/><stop offset="1" stop-color="#b3a236"/></radialGradient><radialGradient cx="204.99146" cy="133.68505" r="2.14615" gradientUnits="userSpaceOnUse" id="color-133"><stop offset="0" stop-color="#dbcd6e"/><stop offset="1" stop-color="#b3a236"/></radialGradient><radialGradient cx="270.62619" cy="120.25358" r="2.14615" gradientUnits="userSpaceOnUse" id="color-134"><stop offset="0" stop-color="#dbcd6e"/><stop offset="1" stop-color="#b3a236"/></radialGradient><radialGradient cx="278.45805" cy="151.11322" r="2.14615" gradientUnits="userSpaceOnUse" id="color-135"><stop offset="0" stop-color="#dbcd6e"/><stop offset="1" stop-color="#b3a236"/></radialGradient><radialGradient cx="197.02044" cy="105.08774" r="2.14615" gradientUnits="userSpaceOnUse" id="color-136"><stop offset="0" stop-color="#dbcd6e"/><stop offset="1" stop-color="#b3a236"/></radialGradient></defs><g transform="translate(-188.30689,-48.10577)"><g data-paper-data="{&quot;isPaintingLayer&quot;:true}" fill-rule="nonzero" stroke-linecap="butt" stroke-linejoin="miter" stroke-miterlimit="10" stroke-dasharray="" stroke-dashoffset="0" style="mix-blend-mode: normal"><path d="M290.52518,181.33513c0.08306,2.91279 -7.47079,10.94732 -46.81921,10.94732c-39.34842,0 -50.33445,-6.8584 -50.34761,-11.54727c-0.01137,-4.04815 10.18494,-9.44736 49.53336,-9.44736c39.34842,0 47.55747,7.38292 47.63346,10.04731z" fill="url(#color-1)" stroke="none" stroke-width="0"/><text transform="translate(214.21066,214.45679) scale(0.46015,0.46015)" font-size="40" xml:space="preserve" fill="#000000" fill-rule="nonzero" stroke="#000000" stroke-width="1" stroke-linecap="butt" stroke-linejoin="miter" stroke-miterlimit="10" stroke-dasharray="" stroke-dashoffset="0" font-family="Handwriting" font-weight="normal" text-anchor="start" style="mix-blend-mode: normal"></text><text transform="translate(200.52899,67.05599) scale(0.49869,0.49869)" font-size="40" xml:space="preserve" fill="#000000" fill-rule="nonzero" stroke="#000000" stroke-width="1" stroke-linecap="butt" stroke-linejoin="miter" stroke-miterlimit="10" stroke-dasharray="" stroke-dashoffset="0" font-family="Handwriting" font-weight="normal" text-anchor="start" style="mix-blend-mode: normal"></text><path d="M290.37334,131.77496c0,27.31764 -22.84834,49.46297 -51.03322,49.46297c-28.18487,0 -51.03323,-22.14533 -51.03323,-49.46297c0,-27.31764 22.84835,-49.46297 51.03323,-49.46297c28.18487,0 51.03322,22.14533 51.03322,49.46298z" data-paper-data="{&quot;index&quot;:null}" fill="url(#color-2)" stroke="none" stroke-width="0"/><g data-paper-data="{&quot;index&quot;:null}" stroke="none" stroke-width="0"><g><path d="M224.46069,120.48044c-1.17692,0 -2.131,-0.96668 -2.131,-2.15913c0,-1.19245 0.95408,-2.15913 2.131,-2.15913c1.17692,0 2.131,0.96668 2.131,2.15913c0,1.19245 -0.95408,2.15913 -2.131,2.15913z" fill="url(#color-3)"/><path d="M225.64486,117.87319l0.005,0.66318l-2.4419,0.03043l0.01665,-0.66176z" fill="#524011"/></g><g><path d="M252.36069,138.83044c-1.17692,0 -2.131,-0.96668 -2.131,-2.15913c0,-1.19245 0.95408,-2.15913 2.131,-2.15913c1.17692,0 2.131,0.96668 2.131,2.15913c0,1.19246 -0.95408,2.15913 -2.131,2.15913z" fill="url(#color-4)"/><path d="M253.54486,136.22318l0.005,0.66318l-2.4419,0.03043l0.01665,-0.66176z" fill="#524011"/></g><g><path d="M244.71069,107.23044c-1.17692,0 -2.131,-0.96668 -2.131,-2.15913c0,-1.19245 0.95408,-2.15913 2.131,-2.15913c1.17692,0 2.131,0.96668 2.131,2.15913c0,1.19245 -0.95408,2.15913 -2.131,2.15913z" fill="url(#color-5)"/><path d="M245.89486,104.62319l0.005,0.66318l-2.4419,0.03043l0.01665,-0.66177z" fill="#524011"/></g><g><path d="M262.86068,122.68044c-1.17692,0 -2.131,-0.96668 -2.131,-2.15913c0,-1.19245 0.95408,-2.15913 2.131,-2.15913c1.17692,0 2.131,0.96668 2.131,2.15913c0,1.19245 -0.95408,2.15913 -2.131,2.15913z" fill="url(#color-6)"/><path d="M264.04485,120.07318l0.005,0.66318l-2.4419,0.03043l0.01665,-0.66176z" fill="#524011"/></g><g><path d="M263.06069,132.48044c-1.17692,0 -2.131,-0.96668 -2.131,-2.15913c0,-1.19245 0.95408,-2.15913 2.131,-2.15913c1.17692,0 2.131,0.96668 2.131,2.15913c0,1.19246 -0.95408,2.15913 -2.131,2.15913z" fill="url(#color-7)"/><path d="M264.24486,129.87318l0.005,0.66318l-2.4419,0.03044l0.01665,-0.66177z" fill="#524011"/></g><g><path d="M233.06069,107.68044c-1.17692,0 -2.131,-0.96668 -2.131,-2.15913c0,-1.19245 0.95408,-2.15913 2.131,-2.15913c1.17692,0 2.131,0.96668 2.131,2.15913c0,1.19246 -0.95408,2.15913 -2.131,2.15913z" fill="url(#color-8)"/><path d="M234.24486,105.07318l0.005,0.66318l-2.4419,0.03044l0.01665,-0.66177z" fill="#524011"/></g><g><path d="M246.66069,151.48044c-1.17692,0 -2.131,-0.96668 -2.131,-2.15913c0,-1.19246 0.95408,-2.15913 2.131,-2.15913c1.17692,0 2.131,0.96668 2.131,2.15913c0,1.19245 -0.95408,2.15913 -2.131,2.15913z" fill="url(#color-9)"/><path d="M247.84486,148.87319l0.005,0.66318l-2.4419,0.03043l0.01665,-0.66177z" fill="#524011"/></g><g><path d="M232.66069,150.08044c-1.17692,0 -2.131,-0.96668 -2.131,-2.15913c0,-1.19246 0.95408,-2.15913 2.131,-2.15913c1.17692,0 2.131,0.96668 2.131,2.15913c0,1.19245 -0.95408,2.15913 -2.131,2.15913z" fill="url(#color-10)"/><path d="M233.84486,147.47319l0.005,0.66318l-2.4419,0.03043l0.01665,-0.66177z" fill="#524011"/></g><g><path d="M215.26069,135.88044c-1.17692,0 -2.131,-0.96668 -2.131,-2.15913c0,-1.19245 0.95408,-2.15913 2.131,-2.15913c1.17692,0 2.131,0.96667 2.131,2.15913c0,1.19245 -0.95408,2.15913 -2.131,2.15913z" fill="url(#color-11)"/><path d="M216.44487,133.27319l0.00499,0.66318l-2.4419,0.03043l0.01665,-0.66177z" fill="#524011"/></g><g><path d="M214.66069,126.28044c-1.17692,0 -2.131,-0.96668 -2.131,-2.15913c0,-1.19245 0.95408,-2.15913 2.131,-2.15913c1.17692,0 2.131,0.96668 2.131,2.15913c0,1.19245 -0.95408,2.15913 -2.131,2.15913z" fill="url(#color-12)"/><path d="M215.84486,123.67319l0.005,0.66318l-2.4419,0.03043l0.01665,-0.66176z" fill="#524011"/></g><g><path d="M220.06069,157.68043c-1.17692,0 -2.131,-0.96668 -2.131,-2.15913c0,-1.19245 0.95408,-2.15913 2.131,-2.15913c1.17692,0 2.131,0.96668 2.131,2.15913c0,1.19245 -0.95408,2.15913 -2.131,2.15913z" fill="url(#color-13)"/><path d="M221.24487,155.07319l0.00499,0.66318l-2.4419,0.03043l0.01665,-0.66177z" fill="#524011"/></g><g><path d="M210.46069,149.28044c-1.17692,0 -2.131,-0.96668 -2.131,-2.15913c0,-1.19246 0.95408,-2.15913 2.131,-2.15913c1.17692,0 2.131,0.96668 2.131,2.15913c0,1.19245 -0.95408,2.15913 -2.131,2.15913z" fill="url(#color-14)"/><path d="M211.64486,146.67318l0.005,0.66318l-2.4419,0.03043l0.01665,-0.66177z" fill="#524011"/></g><g><path d="M255.86068,155.48044c-1.17692,0 -2.131,-0.96668 -2.131,-2.15913c0,-1.19245 0.95408,-2.15913 2.131,-2.15913c1.17692,0 2.131,0.96668 2.131,2.15913c0,1.19245 -0.95408,2.15913 -2.131,2.15913z" fill="url(#color-15)"/><path d="M257.04485,152.87319l0.005,0.66318l-2.4419,0.03043l0.01665,-0.66177z" fill="#524011"/></g><g><path d="M266.86068,145.48044c-1.17692,0 -2.131,-0.96668 -2.131,-2.15913c0,-1.19245 0.95408,-2.15913 2.131,-2.15913c1.17692,0 2.131,0.96668 2.131,2.15913c0,1.19246 -0.95408,2.15913 -2.131,2.15913z" fill="url(#color-16)"/><path d="M268.04485,142.87319l0.005,0.66318l-2.4419,0.03043l0.01665,-0.66176z" fill="#524011"/></g><g><path d="M265.06068,111.88044c-1.17692,0 -2.131,-0.96668 -2.131,-2.15913c0,-1.19245 0.95408,-2.15913 2.131,-2.15913c1.17692,0 2.131,0.96668 2.131,2.15913c0,1.19245 -0.95408,2.15913 -2.131,2.15913z" fill="url(#color-17)"/><path d="M266.24485,109.27318l0.005,0.66318l-2.4419,0.03043l0.01665,-0.66176z" fill="#524011"/></g><g><path d="M258.06068,103.88044c-1.17692,0 -2.131,-0.96668 -2.131,-2.15913c0,-1.19245 0.95408,-2.15913 2.131,-2.15913c1.17692,0 2.131,0.96668 2.131,2.15913c0,1.19245 -0.95408,2.15913 -2.131,2.15913z" fill="url(#color-18)"/><path d="M259.24486,101.27319l0.005,0.66318l-2.4419,0.03043l0.01665,-0.66177z" fill="#524011"/></g><g><path d="M219.06068,103.48044c-1.17692,0 -2.131,-0.96668 -2.131,-2.15913c0,-1.19245 0.95408,-2.15913 2.131,-2.15913c1.17692,0 2.131,0.96668 2.131,2.15913c0,1.19245 -0.95408,2.15913 -2.131,2.15913z" fill="url(#color-19)"/><path d="M220.24485,100.87318l0.005,0.66318l-2.4419,0.03044l0.01665,-0.66177z" fill="#524011"/></g><g><path d="M212.86068,112.28044c-1.17692,0 -2.131,-0.96668 -2.131,-2.15913c0,-1.19245 0.95408,-2.15913 2.131,-2.15913c1.17692,0 2.131,0.96668 2.131,2.15913c0,1.19245 -0.95408,2.15913 -2.131,2.15913z" fill="url(#color-20)"/><path d="M214.04485,109.67318l0.005,0.66318l-2.4419,0.03044l0.01665,-0.66177z" fill="#524011"/></g><g><path d="M204.26069,134.48044c-1.17692,0 -2.131,-0.96668 -2.131,-2.15913c0,-1.19245 0.95408,-2.15913 2.131,-2.15913c1.17692,0 2.131,0.96668 2.131,2.15913c0,1.19245 -0.95408,2.15913 -2.131,2.15913z" fill="url(#color-21)"/><path d="M205.44485,131.87319l0.005,0.66318l-2.4419,0.03044l0.01665,-0.66177z" fill="#524011"/></g><g><path d="M203.86068,125.08044c-1.17692,0 -2.131,-0.96668 -2.131,-2.15913c0,-1.19245 0.95408,-2.15913 2.131,-2.15913c1.17692,0 2.131,0.96668 2.131,2.15913c0,1.19245 -0.95408,2.15913 -2.131,2.15913z" fill="url(#color-22)"/><path d="M205.04485,122.47319l0.005,0.66318l-2.4419,0.03043l0.01665,-0.66177z" fill="#524011"/></g><g><path d="M273.86068,134.08044c-1.17692,0 -2.131,-0.96668 -2.131,-2.15913c0,-1.19245 0.95408,-2.15913 2.131,-2.15913c1.17692,0 2.131,0.96668 2.131,2.15913c0,1.19245 -0.95408,2.15913 -2.131,2.15913z" fill="url(#color-23)"/><path d="M275.04485,131.47319l0.005,0.66318l-2.4419,0.03043l0.01665,-0.66177z" fill="#524011"/></g><g><path d="M273.86068,123.48044c-1.17692,0 -2.131,-0.96668 -2.131,-2.15913c0,-1.19245 0.95408,-2.15913 2.131,-2.15913c1.17692,0 2.131,0.96668 2.131,2.15913c0,1.19245 -0.95408,2.15913 -2.131,2.15913z" fill="url(#color-24)"/><path d="M275.04485,120.87319l0.005,0.66318l-2.4419,0.03043l0.01665,-0.66177z" fill="#524011"/></g><g><path d="M238.46069,163.88044c-1.17692,0 -2.131,-0.96668 -2.131,-2.15913c0,-1.19245 0.95408,-2.15913 2.131,-2.15913c1.17692,0 2.131,0.96668 2.131,2.15913c0,1.19245 -0.95408,2.15913 -2.131,2.15913z" fill="url(#color-25)"/><path d="M239.64486,161.27319l0.005,0.66318l-2.4419,0.03043l0.01665,-0.66177z" fill="#524011"/></g><g><path d="M238.66069,96.48044c-1.17692,0 -2.131,-0.96668 -2.131,-2.15913c0,-1.19245 0.95408,-2.15913 2.131,-2.15913c1.17692,0 2.131,0.96668 2.131,2.15913c0,1.19245 -0.95408,2.15913 -2.131,2.15913z" fill="url(#color-26)"/><path d="M239.84485,93.87319l0.005,0.66318l-2.4419,0.03043l0.01665,-0.66177z" fill="#524011"/></g><g><path d="M270.66069,95.08044c-1.17692,0 -2.131,-0.96668 -2.131,-2.15913c0,-1.19245 0.95408,-2.15913 2.131,-2.15913c1.17692,0 2.131,0.96668 2.131,2.15913c0,1.19245 -0.95408,2.15913 -2.131,2.15913z" fill="url(#color-27)"/><path d="M271.84483,92.47319l0.005,0.66318l-2.4419,0.03043l0.01665,-0.66177z" fill="#524011"/></g><g><path d="M208.66068,165.88044c-1.17692,0 -2.131,-0.96668 -2.131,-2.15913c0,-1.19245 0.95408,-2.15913 2.131,-2.15913c1.17692,0 2.131,0.96668 2.131,2.15913c0,1.19245 -0.95408,2.15913 -2.131,2.15913z" fill="url(#color-28)"/><path d="M209.84485,163.27319l0.005,0.66318l-2.4419,0.03043l0.01665,-0.66177z" fill="#524011"/></g></g><g data-paper-data="{&quot;index&quot;:null}" stroke="none" stroke-width="0"><g><path d="M223.1876,126.21673c-0.9797,0.28569 -2.00857,-0.2874 -2.29803,-1.28003c-0.28946,-0.99263 0.27009,-2.02893 1.24979,-2.31462c0.9797,-0.28569 2.00857,0.2874 2.29803,1.28003c0.28946,0.99263 -0.27009,2.02893 -1.24979,2.31462z" fill="url(#color-29)"/><path d="M223.54043,123.75892l0.16515,0.55084l-2.02532,0.61809l-0.14678,-0.55491z" fill="#524011"/></g><g><path d="M250.86677,134.71918c-0.9797,0.28569 -2.00857,-0.2874 -2.29803,-1.28003c-0.28946,-0.99263 0.27009,-2.02893 1.24979,-2.31462c0.9797,-0.28569 2.00857,0.2874 2.29803,1.28003c0.28946,0.99264 -0.27009,2.02893 -1.24979,2.31462z" fill="url(#color-30)"/><path d="M251.2196,132.26136l0.16515,0.55084l-2.02532,0.61809l-0.14678,-0.55491z" fill="#524011"/></g><g><path d="M236.8279,110.27143c-0.9797,0.28569 -2.00857,-0.2874 -2.29803,-1.28003c-0.28946,-0.99263 0.27009,-2.02893 1.24979,-2.31462c0.9797,-0.28569 2.00857,0.2874 2.29803,1.28003c0.28946,0.99263 -0.27009,2.02893 -1.24979,2.31462z" fill="url(#color-31)"/><path d="M237.18073,107.81362l0.16515,0.55084l-2.02532,0.61809l-0.14678,-0.55492z" fill="#524011"/></g><g><path d="M255.68691,118.72661c-0.9797,0.28569 -2.00857,-0.2874 -2.29803,-1.28003c-0.28946,-0.99263 0.27009,-2.02893 1.24979,-2.31462c0.9797,-0.28569 2.00857,0.2874 2.29803,1.28003c0.28946,0.99263 -0.27009,2.02893 -1.24979,2.31462z" fill="url(#color-32)"/><path d="M256.03975,116.26879l0.16515,0.55084l-2.02532,0.61809l-0.14678,-0.55491z" fill="#524011"/></g><g><path d="M258.23232,126.83586c-0.9797,0.28569 -2.00857,-0.2874 -2.29803,-1.28003c-0.28946,-0.99263 0.27009,-2.02893 1.24979,-2.31462c0.9797,-0.28569 2.00857,0.2874 2.29803,1.28003c0.28946,0.99264 -0.27009,2.02893 -1.24979,2.31462z" fill="url(#color-33)"/><path d="M258.58516,124.37805l0.16515,0.55084l-2.02532,0.6181l-0.14678,-0.55492z" fill="#524011"/></g><g><path d="M227.23933,113.47401c-0.9797,0.28569 -2.00857,-0.2874 -2.29803,-1.28003c-0.28946,-0.99263 0.27009,-2.02893 1.24979,-2.31462c0.9797,-0.28569 2.00857,0.2874 2.29803,1.28003c0.28946,0.99264 -0.27009,2.02893 -1.24979,2.31462z" fill="url(#color-34)"/><path d="M227.59217,111.0162l0.16515,0.55084l-2.02532,0.6181l-0.14678,-0.55492z" fill="#524011"/></g><g><path d="M249.19267,146.63306c-0.9797,0.28569 -2.00857,-0.2874 -2.29803,-1.28003c-0.28946,-0.99264 0.27009,-2.02893 1.24979,-2.31462c0.9797,-0.28569 2.00857,0.2874 2.29803,1.28003c0.28946,0.99263 -0.27009,2.02893 -1.24979,2.31462z" fill="url(#color-35)"/><path d="M249.5455,144.17524l0.16515,0.55084l-2.02532,0.61809l-0.14678,-0.55492z" fill="#524011"/></g><g><path d="M237.19881,148.86611c-0.9797,0.28569 -2.00857,-0.2874 -2.29803,-1.28003c-0.28946,-0.99264 0.27009,-2.02893 1.24979,-2.31462c0.9797,-0.28569 2.00857,0.2874 2.29803,1.28003c0.28946,0.99263 -0.27009,2.02893 -1.24979,2.31462z" fill="url(#color-36)"/><path d="M237.55165,146.4083l0.16515,0.55084l-2.02532,0.61809l-0.14678,-0.55492z" fill="#524011"/></g><g><path d="M219.26755,141.2694c-0.9797,0.28569 -2.00857,-0.2874 -2.29803,-1.28003c-0.28946,-0.99263 0.27009,-2.02893 1.24979,-2.31462c0.9797,-0.28569 2.00856,0.28739 2.29803,1.28003c0.28946,0.99263 -0.27009,2.02893 -1.24979,2.31462z" fill="url(#color-37)"/><path d="M219.62039,138.8116l0.16514,0.55084l-2.02532,0.61809l-0.14678,-0.55492z" fill="#524011"/></g><g><path d="M216.43772,133.42372c-0.9797,0.28569 -2.00857,-0.2874 -2.29803,-1.28003c-0.28946,-0.99263 0.27009,-2.02893 1.24979,-2.31462c0.9797,-0.28569 2.00857,0.2874 2.29803,1.28003c0.28946,0.99263 -0.27009,2.02893 -1.24979,2.31462z" fill="url(#color-38)"/><path d="M216.79056,130.96592l0.16515,0.55084l-2.02532,0.61809l-0.14678,-0.55491z" fill="#524011"/></g><g><path d="M228.55508,158.25117c-0.9797,0.28569 -2.00857,-0.2874 -2.29803,-1.28003c-0.28946,-0.99263 0.27009,-2.02893 1.24979,-2.31462c0.9797,-0.28569 2.00857,0.2874 2.29803,1.28003c0.28946,0.99263 -0.27009,2.02893 -1.24979,2.31462z" fill="url(#color-39)"/><path d="M228.90792,155.79337l0.16514,0.55084l-2.02532,0.61809l-0.14678,-0.55492z" fill="#524011"/></g><g><path d="M218.52469,153.58914c-0.9797,0.28569 -2.00857,-0.2874 -2.29803,-1.28003c-0.28946,-0.99264 0.27009,-2.02893 1.24979,-2.31462c0.9797,-0.28569 2.00857,0.2874 2.29803,1.28003c0.28946,0.99263 -0.27009,2.02893 -1.24979,2.31462z" fill="url(#color-40)"/><path d="M218.87752,151.13133l0.16515,0.55084l-2.02532,0.61809l-0.14678,-0.55492z" fill="#524011"/></g><g><path d="M257.82199,147.7295c-0.9797,0.28569 -2.00857,-0.2874 -2.29803,-1.28003c-0.28946,-0.99263 0.27009,-2.02893 1.24979,-2.31462c0.9797,-0.28569 2.00857,0.2874 2.29803,1.28003c0.28946,0.99263 -0.27009,2.02893 -1.24979,2.31462z" fill="url(#color-41)"/><path d="M258.17483,145.2717l0.16515,0.55084l-2.02532,0.61809l-0.14678,-0.55492z" fill="#524011"/></g><g><path d="M264.55125,136.73501c-0.9797,0.28569 -2.00857,-0.2874 -2.29803,-1.28003c-0.28946,-0.99263 0.27009,-2.02893 1.24979,-2.31462c0.9797,-0.28569 2.00857,0.2874 2.29803,1.28003c0.28946,0.99264 -0.27009,2.02893 -1.24979,2.31462z" fill="url(#color-42)"/><path d="M264.90408,134.2772l0.16515,0.55084l-2.02532,0.61809l-0.14678,-0.55491z" fill="#524011"/></g><g><path d="M254.89659,109.20233c-0.9797,0.28569 -2.00857,-0.2874 -2.29803,-1.28003c-0.28946,-0.99263 0.27009,-2.02893 1.24979,-2.31462c0.9797,-0.28569 2.00857,0.2874 2.29803,1.28003c0.28946,0.99263 -0.27009,2.02893 -1.24979,2.31462z" fill="url(#color-43)"/><path d="M255.24943,106.74452l0.16515,0.55084l-2.02532,0.61809l-0.14678,-0.55491z" fill="#524011"/></g><g><path d="M247.12762,104.24212c-0.9797,0.28569 -2.00857,-0.2874 -2.29803,-1.28003c-0.28946,-0.99263 0.27009,-2.02893 1.24979,-2.31462c0.9797,-0.28569 2.00857,0.2874 2.29803,1.28003c0.28946,0.99263 -0.27009,2.02893 -1.24979,2.31462z" fill="url(#color-44)"/><path d="M247.48046,101.78432l0.16515,0.55084l-2.02532,0.61809l-0.14678,-0.55492z" fill="#524011"/></g><g><path d="M214.56578,113.37626c-0.9797,0.28569 -2.00857,-0.2874 -2.29803,-1.28003c-0.28946,-0.99263 0.27009,-2.02893 1.24979,-2.31462c0.9797,-0.28569 2.00857,0.2874 2.29803,1.28003c0.28946,0.99263 -0.27009,2.02893 -1.24979,2.31462z" fill="url(#color-45)"/><path d="M214.91862,110.91845l0.16515,0.55084l-2.02532,0.6181l-0.14678,-0.55492z" fill="#524011"/></g><g><path d="M211.54089,122.20667c-0.9797,0.28569 -2.00857,-0.2874 -2.29803,-1.28003c-0.28946,-0.99263 0.27009,-2.02893 1.24979,-2.31462c0.9797,-0.28569 2.00857,0.2874 2.29803,1.28003c0.28946,0.99263 -0.27009,2.02893 -1.24979,2.31462z" fill="url(#color-46)"/><path d="M211.89373,119.74885l0.16515,0.55084l-2.02532,0.6181l-0.14678,-0.55492z" fill="#524011"/></g><g><path d="M209.77098,142.77421c-0.9797,0.28569 -2.00857,-0.2874 -2.29803,-1.28003c-0.28946,-0.99263 0.27009,-2.02893 1.24979,-2.31462c0.9797,-0.28569 2.00857,0.2874 2.29803,1.28003c0.28946,0.99263 -0.27009,2.02893 -1.24979,2.31462z" fill="url(#color-47)"/><path d="M210.12381,140.31641l0.16515,0.55084l-2.02532,0.6181l-0.14678,-0.55492z" fill="#524011"/></g><g><path d="M207.15618,135.04647c-0.9797,0.28569 -2.00857,-0.2874 -2.29803,-1.28003c-0.28946,-0.99263 0.27009,-2.02893 1.24979,-2.31462c0.9797,-0.28569 2.00857,0.2874 2.29803,1.28003c0.28946,0.99263 -0.27009,2.02893 -1.24979,2.31462z" fill="url(#color-48)"/><path d="M207.50902,132.58867l0.16515,0.55084l-2.02532,0.61809l-0.14678,-0.55492z" fill="#524011"/></g><g><path d="M267.61094,125.54609c-0.9797,0.28569 -2.00857,-0.2874 -2.29803,-1.28003c-0.28946,-0.99263 0.27009,-2.02893 1.24979,-2.31462c0.9797,-0.28569 2.00857,0.2874 2.29803,1.28003c0.28946,0.99263 -0.27009,2.02893 -1.24979,2.31462z" fill="url(#color-49)"/><path d="M267.96378,123.08828l0.16515,0.55084l-2.02532,0.61809l-0.14678,-0.55492z" fill="#524011"/></g><g><path d="M265.03783,116.72234c-0.9797,0.28569 -2.00857,-0.2874 -2.29803,-1.28003c-0.28946,-0.99263 0.27009,-2.02893 1.24979,-2.31462c0.9797,-0.28569 2.00857,0.2874 2.29803,1.28003c0.28946,0.99263 -0.27009,2.02893 -1.24979,2.31462z" fill="url(#color-50)"/><path d="M265.39066,114.26454l0.16515,0.55084l-2.02532,0.61809l-0.14678,-0.55492z" fill="#524011"/></g><g><path d="M245.3768,158.9457c-0.9797,0.28569 -2.00857,-0.2874 -2.29803,-1.28003c-0.28946,-0.99263 0.27009,-2.02893 1.24979,-2.31462c0.9797,-0.28569 2.00857,0.2874 2.29803,1.28003c0.28946,0.99263 -0.27009,2.02893 -1.24979,2.31462z" fill="url(#color-51)"/><path d="M245.72964,156.4879l0.16515,0.55084l-2.02532,0.61809l-0.14678,-0.55492z" fill="#524011"/></g><g><path d="M229.18218,102.79143c-0.9797,0.28569 -2.00857,-0.2874 -2.29803,-1.28003c-0.28946,-0.99263 0.27009,-2.02893 1.24979,-2.31462c0.9797,-0.28569 2.00857,0.2874 2.29803,1.28003c0.28946,0.99263 -0.27009,2.02893 -1.24979,2.31462z" fill="url(#color-52)"/><path d="M229.535,100.33362l0.16515,0.55084l-2.02532,0.61809l-0.14678,-0.55492z" fill="#524011"/></g><g><path d="M255.48007,93.85814c-0.9797,0.28569 -2.00857,-0.2874 -2.29803,-1.28003c-0.28946,-0.99263 0.27009,-2.02893 1.24979,-2.31462c0.9797,-0.28569 2.00857,0.2874 2.29803,1.28003c0.28946,0.99263 -0.27009,2.02893 -1.24979,2.31462z" fill="url(#color-53)"/><path d="M255.83288,91.40034l0.16515,0.55084l-2.02532,0.61809l-0.14678,-0.55492z" fill="#524011"/></g><g><path d="M221.0559,167.84441c-0.9797,0.28569 -2.00857,-0.2874 -2.29803,-1.28003c-0.28946,-0.99263 0.27009,-2.02893 1.24979,-2.31462c0.9797,-0.28569 2.00857,0.2874 2.29803,1.28003c0.28946,0.99263 -0.27009,2.02893 -1.24979,2.31462z" fill="url(#color-54)"/><path d="M221.40873,165.38661l0.16515,0.55084l-2.02532,0.61809l-0.14678,-0.55492z" fill="#524011"/></g></g><g data-paper-data="{&quot;index&quot;:null}" stroke="none" stroke-width="0"><g><path d="M243.55658,117.76127c0.13792,-0.93226 1.01545,-1.57473 1.96002,-1.43499c0.94456,0.13974 1.59849,1.00877 1.46057,1.94103c-0.13792,0.93226 -1.01545,1.57473 -1.96002,1.43499c-0.94456,-0.13974 -1.59849,-1.00877 -1.46057,-1.94103z" fill="url(#color-55)"/><path d="M245.48308,119.00481l-0.52591,-0.07375l0.26205,-1.93785l0.52224,0.09074z" fill="#524011"/></g><g><path d="M225.75167,137.7111c0.13792,-0.93226 1.01545,-1.57473 1.96002,-1.43499c0.94456,0.13974 1.59849,1.00877 1.46057,1.94103c-0.13792,0.93226 -1.01545,1.57473 -1.96002,1.43499c-0.94457,-0.13974 -1.59849,-1.00877 -1.46057,-1.94103z" fill="url(#color-56)"/><path d="M227.67818,138.95464l-0.52591,-0.07375l0.26205,-1.93785l0.52224,0.09074z" fill="#524011"/></g><g><path d="M251.67918,135.35444c0.13792,-0.93226 1.01545,-1.57473 1.96002,-1.43499c0.94456,0.13974 1.59849,1.00877 1.46057,1.94103c-0.13792,0.93226 -1.01545,1.57473 -1.96002,1.43499c-0.94456,-0.13974 -1.59849,-1.00877 -1.46057,-1.94103z" fill="url(#color-57)"/><path d="M253.60568,136.59796l-0.52591,-0.07375l0.26205,-1.93785l0.52225,0.09074z" fill="#524011"/></g><g><path d="M237.31399,147.92092c0.13792,-0.93226 1.01545,-1.57473 1.96002,-1.43499c0.94456,0.13974 1.59849,1.00877 1.46057,1.94103c-0.13792,0.93226 -1.01545,1.57473 -1.96002,1.43499c-0.94456,-0.13974 -1.59849,-1.00877 -1.46057,-1.94103z" fill="url(#color-58)"/><path d="M239.24049,149.16445l-0.52591,-0.07375l0.26205,-1.93785l0.52224,0.09074z" fill="#524011"/></g><g><path d="M229.52776,146.93093c0.13792,-0.93226 1.01545,-1.57473 1.96002,-1.43499c0.94456,0.13974 1.59849,1.00877 1.46057,1.94103c-0.13792,0.93226 -1.01545,1.57473 -1.96002,1.43499c-0.94457,-0.13974 -1.59849,-1.00877 -1.46057,-1.94103z" fill="url(#color-59)"/><path d="M231.45427,148.17447l-0.52591,-0.07375l0.26204,-1.93785l0.52225,0.09074z" fill="#524011"/></g><g><path d="M252.68794,126.07349c0.13792,-0.93226 1.01545,-1.57473 1.96002,-1.43499c0.94456,0.13974 1.59849,1.00877 1.46057,1.94103c-0.13792,0.93226 -1.01545,1.57473 -1.96002,1.43499c-0.94457,-0.13974 -1.59849,-1.00877 -1.46057,-1.94103z" fill="url(#color-60)"/><path d="M254.61444,127.31703l-0.52591,-0.07375l0.26204,-1.93785l0.52225,0.09074z" fill="#524011"/></g><g><path d="M216.39929,131.71362c0.13792,-0.93226 1.01545,-1.57473 1.96002,-1.43499c0.94457,0.13974 1.59849,1.00877 1.46057,1.94103c-0.13792,0.93226 -1.01545,1.57473 -1.96002,1.43499c-0.94456,-0.13974 -1.59849,-1.00877 -1.46057,-1.94103z" fill="url(#color-61)"/><path d="M218.32579,132.95715l-0.52591,-0.07375l0.26205,-1.93785l0.52225,0.09074z" fill="#524011"/></g><g><path d="M219.14886,120.78798c0.13792,-0.93226 1.01545,-1.57473 1.96002,-1.43499c0.94457,0.13974 1.59849,1.00877 1.46057,1.94103c-0.13792,0.93226 -1.01545,1.57473 -1.96002,1.43499c-0.94456,-0.13974 -1.59849,-1.00877 -1.46057,-1.94103z" fill="url(#color-62)"/><path d="M221.07536,122.03151l-0.52591,-0.07375l0.26205,-1.93785l0.52225,0.09074z" fill="#524011"/></g><g><path d="M232.43601,108.6691c0.13792,-0.93226 1.01545,-1.57473 1.96002,-1.43499c0.94456,0.13974 1.59849,1.00877 1.46057,1.94103c-0.13792,0.93226 -1.01545,1.57473 -1.96002,1.43499c-0.94456,-0.13974 -1.59849,-1.00877 -1.46057,-1.94103z" fill="url(#color-63)"/><path d="M234.3625,109.91264l-0.5259,-0.07376l0.26205,-1.93785l0.52225,0.09074z" fill="#524011"/></g><g><path d="M240.11069,109.3188c0.13792,-0.93226 1.01545,-1.57473 1.96002,-1.43499c0.94456,0.13974 1.59849,1.00877 1.46057,1.94103c-0.13792,0.93226 -1.01545,1.57473 -1.96002,1.43499c-0.94456,-0.13974 -1.59849,-1.00877 -1.46057,-1.94103z" fill="url(#color-64)"/><path d="M242.03719,110.56234l-0.52591,-0.07375l0.26205,-1.93785l0.52224,0.09074z" fill="#524011"/></g><g><path d="M214.60528,109.91664c0.13792,-0.93226 1.01545,-1.57473 1.96002,-1.43499c0.94456,0.13974 1.59849,1.00877 1.46057,1.94103c-0.13792,0.93226 -1.01545,1.57473 -1.96002,1.43499c-0.94456,-0.13974 -1.59849,-1.00877 -1.46057,-1.94103z" fill="url(#color-65)"/><path d="M216.53176,111.16018l-0.5259,-0.07376l0.26205,-1.93785l0.52225,0.09074z" fill="#524011"/></g><g><path d="M222.38408,103.29663c0.13792,-0.93226 1.01545,-1.57473 1.96002,-1.43499c0.94457,0.13974 1.59849,1.00877 1.46057,1.94103c-0.13792,0.93226 -1.01545,1.57473 -1.96002,1.43499c-0.94456,-0.13974 -1.59849,-1.00877 -1.46057,-1.94103z" fill="url(#color-66)"/><path d="M224.31057,104.54016l-0.52591,-0.07375l0.26205,-1.93785l0.52225,0.09074z" fill="#524011"/></g><g><path d="M212.1527,138.53238c0.13792,-0.93226 1.01545,-1.57473 1.96002,-1.43499c0.94456,0.13974 1.59849,1.00877 1.46057,1.94103c-0.13792,0.93226 -1.01545,1.57473 -1.96002,1.43499c-0.94456,-0.13974 -1.59849,-1.00877 -1.46057,-1.94103z" fill="url(#color-67)"/><path d="M214.0792,139.77592l-0.52591,-0.07375l0.26205,-1.93785l0.52225,0.09074z" fill="#524011"/></g><g><path d="M218.78488,148.41757c0.13792,-0.93226 1.01545,-1.57473 1.96002,-1.43499c0.94456,0.13974 1.59849,1.00877 1.46057,1.94103c-0.13792,0.93226 -1.01545,1.57473 -1.96002,1.43499c-0.94457,-0.13974 -1.59849,-1.00877 -1.46057,-1.94103z" fill="url(#color-68)"/><path d="M220.71138,149.66111l-0.52591,-0.07375l0.26205,-1.93785l0.52224,0.09074z" fill="#524011"/></g><g><path d="M245.61109,150.92918c0.13792,-0.93226 1.01545,-1.57473 1.96002,-1.43499c0.94456,0.13974 1.59849,1.00877 1.46057,1.94103c-0.13792,0.93226 -1.01545,1.57473 -1.96002,1.43499c-0.94456,-0.13974 -1.59849,-1.00877 -1.46057,-1.94103z" fill="url(#color-69)"/><path d="M247.5376,152.17272l-0.52591,-0.07375l0.26205,-1.93785l0.52224,0.09074z" fill="#524011"/></g><g><path d="M252.76836,146.32181c0.13792,-0.93226 1.01545,-1.57473 1.96002,-1.43499c0.94456,0.13974 1.59849,1.00877 1.46057,1.94103c-0.13792,0.93226 -1.01545,1.57473 -1.96002,1.43499c-0.94456,-0.13974 -1.59849,-1.00877 -1.46057,-1.94103z" fill="url(#color-70)"/><path d="M254.69486,147.56537l-0.52591,-0.07375l0.26205,-1.93785l0.52225,0.09074z" fill="#524011"/></g><g><path d="M257.65544,115.47596c0.13792,-0.93226 1.01545,-1.57473 1.96002,-1.43499c0.94456,0.13974 1.59849,1.00877 1.46057,1.94103c-0.13792,0.93226 -1.01545,1.57473 -1.96002,1.43499c-0.94456,-0.13974 -1.59849,-1.00877 -1.46057,-1.94103z" fill="url(#color-71)"/><path d="M259.58195,116.7195l-0.52591,-0.07375l0.26204,-1.93785l0.52225,0.09074z" fill="#524011"/></g><g><path d="M251.41133,109.53358c0.13792,-0.93226 1.01545,-1.57473 1.96002,-1.43499c0.94456,0.13974 1.59849,1.00877 1.46057,1.94103c-0.13792,0.93226 -1.01545,1.57473 -1.96002,1.43499c-0.94456,-0.13974 -1.59849,-1.00877 -1.46057,-1.94103z" fill="url(#color-72)"/><path d="M253.33783,110.77711l-0.52591,-0.07375l0.26204,-1.93785l0.52225,0.09074z" fill="#524011"/></g><g><path d="M234.83402,100.11982c0.13792,-0.93226 1.01545,-1.57473 1.96002,-1.43499c0.94456,0.13974 1.59849,1.00877 1.46057,1.94103c-0.13792,0.93226 -1.01545,1.57473 -1.96002,1.43499c-0.94456,-0.13974 -1.59849,-1.00877 -1.46057,-1.94103z" fill="url(#color-73)"/><path d="M236.76052,101.36335l-0.52591,-0.07375l0.26204,-1.93785l0.52225,0.09074z" fill="#524011"/></g><g><path d="M242.32684,100.90451c0.13792,-0.93226 1.01545,-1.57473 1.96002,-1.43499c0.94456,0.13974 1.59849,1.00877 1.46057,1.94103c-0.13792,0.93226 -1.01545,1.57473 -1.96002,1.43499c-0.94456,-0.13974 -1.59849,-1.00877 -1.46057,-1.94103z" fill="url(#color-74)"/><path d="M244.25334,102.14804l-0.52591,-0.07375l0.26205,-1.93785l0.52225,0.09074z" fill="#524011"/></g><g><path d="M226.99476,155.29834c0.13792,-0.93226 1.01545,-1.57473 1.96002,-1.43499c0.94456,0.13974 1.59849,1.00877 1.46057,1.94103c-0.13792,0.93226 -1.01545,1.57473 -1.96002,1.43499c-0.94456,-0.13974 -1.59849,-1.00877 -1.46057,-1.94103z" fill="url(#color-75)"/><path d="M228.92126,156.54187l-0.52591,-0.07375l0.26205,-1.93785l0.52225,0.09074z" fill="#524011"/></g><g><path d="M235.39125,156.5405c0.13792,-0.93226 1.01545,-1.57473 1.96002,-1.43499c0.94456,0.13974 1.59849,1.00877 1.46057,1.94103c-0.13792,0.93226 -1.01545,1.57473 -1.96002,1.43499c-0.94456,-0.13974 -1.59849,-1.00877 -1.46057,-1.94103z" fill="url(#color-76)"/><path d="M237.31775,157.78403l-0.52591,-0.07375l0.26205,-1.93785l0.52225,0.09074z" fill="#524011"/></g><g><path d="M207.53791,123.76512c0.13792,-0.93226 1.01545,-1.57473 1.96002,-1.43499c0.94456,0.13974 1.59849,1.00877 1.46057,1.94103c-0.13792,0.93226 -1.01545,1.57473 -1.96002,1.43499c-0.94456,-0.13974 -1.59849,-1.00877 -1.46057,-1.94103z" fill="url(#color-77)"/><path d="M209.46441,125.00866l-0.52591,-0.07375l0.26205,-1.93785l0.52225,0.09074z" fill="#524011"/></g><g><path d="M260.90346,131.82185c0.13792,-0.93226 1.01545,-1.57473 1.96002,-1.43499c0.94456,0.13974 1.59849,1.00877 1.46057,1.94103c-0.13792,0.93226 -1.01545,1.57473 -1.96002,1.43499c-0.94456,-0.13974 -1.59849,-1.00877 -1.46057,-1.94103z" fill="url(#color-78)"/><path d="M262.82996,133.06537l-0.52591,-0.07375l0.26205,-1.93785l0.52225,0.09074z" fill="#524011"/></g><g><path d="M258.26249,157.33379c0.13792,-0.93226 1.01545,-1.57473 1.96002,-1.43499c0.94456,0.13974 1.59849,1.00877 1.46057,1.94103c-0.13792,0.93226 -1.01545,1.57473 -1.96002,1.43499c-0.94456,-0.13974 -1.59849,-1.00877 -1.46057,-1.94103z" fill="url(#color-79)"/><path d="M260.18899,158.5773l-0.52591,-0.07375l0.26205,-1.93785l0.52225,0.09074z" fill="#524011"/></g><g><path d="M209.4458,99.92552c0.13792,-0.93226 1.01545,-1.57473 1.96002,-1.43499c0.94456,0.13974 1.59849,1.00877 1.46057,1.94103c-0.13792,0.93226 -1.01545,1.57473 -1.96002,1.43499c-0.94456,-0.13974 -1.59849,-1.00877 -1.46057,-1.94103z" fill="url(#color-80)"/><path d="M211.37228,101.16906l-0.52591,-0.07375l0.26205,-1.93785l0.52225,0.09074z" fill="#524011"/></g></g><g data-paper-data="{&quot;index&quot;:null}" stroke="none" stroke-width="0"><g><path d="M232.35311,139.41116c-1.81929,0 -3.29413,-1.49429 -3.29413,-3.33761c0,-1.84331 1.47483,-3.33762 3.29413,-3.33762c1.81929,0 3.29412,1.4943 3.29412,3.33762c0,1.84331 -1.47482,3.33761 -3.29412,3.33761z" fill="url(#color-81)"/><g><path d="M237.45032,137.77938c-1.81928,0 -3.29412,-1.49429 -3.29412,-3.33761c0,-1.8433 1.47483,-3.33761 3.29412,-3.33761c1.81928,0 3.29412,1.49429 3.29412,3.33761c0,1.8433 -1.47483,3.33761 -3.29412,3.33761z" fill="url(#color-82)"/><path d="M237.98667,132.32733c0,0 -0.01737,0.89165 -0.02513,1.30974c-0.00136,0.07357 1.3193,0.11199 1.3193,0.11199l0.00772,1.02516l-1.30189,0.00318v1.79214h-1.15696v-1.70441l-1.31587,-0.04387l0.02573,-1.02296l1.29013,-0.07359v-1.39737z" fill="#511111"/></g><path d="M239.00608,134.80756c-1.81929,0 -3.29413,-1.49429 -3.29413,-3.33761c0,-1.84331 1.47483,-3.33762 3.29413,-3.33762c1.81929,0 3.29412,1.4943 3.29412,3.33762c0,1.84331 -1.47482,3.33761 -3.29412,3.33761z" fill="url(#color-83)"/><g data-paper-data="{&quot;index&quot;:null}"><path d="M237.1239,131.53332c-1.81928,0 -3.29412,-1.4943 -3.29412,-3.33762c0,-1.84331 1.47482,-3.33761 3.29412,-3.33761c1.81929,0 3.29412,1.49429 3.29412,3.33761c0,1.84331 -1.47482,3.33762 -3.29412,3.33762z" fill="url(#color-84)"/><path d="M237.66025,126.08125c0,0 -0.01738,0.89165 -0.02513,1.30974c-0.00136,0.07358 1.3193,0.11199 1.3193,0.11199l0.00772,1.02516l-1.30189,0.00318v1.79214h-1.15696v-1.70441l-1.31587,-0.04387l0.02573,-1.02296l1.29013,-0.07359v-1.39737z" fill="#511111"/></g><path d="M228.13773,134.40388c-1.81928,0 -3.29412,-1.49429 -3.29412,-3.33761c0,-1.8433 1.47482,-3.33761 3.29412,-3.33761c1.81929,0 3.29412,1.49429 3.29412,3.33761c0,1.84331 -1.47482,3.33761 -3.29412,3.33761z" fill="url(#color-85)"/><g><path d="M230.40158,137.7081c-1.81928,0 -3.29412,-1.49429 -3.29412,-3.33761c0,-1.8433 1.47483,-3.33761 3.29412,-3.33761c1.81928,0 3.29412,1.49429 3.29412,3.33761c0,1.8433 -1.47483,3.33761 -3.29412,3.33761z" fill="url(#color-86)"/><path d="M230.93792,132.25605c0,0 -0.01737,0.89165 -0.02513,1.30974c-0.00136,0.07357 1.3193,0.11199 1.3193,0.11199l0.00772,1.02516l-1.30189,0.00318v1.79214h-1.15696v-1.70441l-1.31587,-0.04387l0.02573,-1.02296l1.29013,-0.07359v-1.39737z" fill="#511111"/></g><g data-paper-data="{&quot;index&quot;:null}"><path d="M229.49149,131.48635c-1.81928,0 -3.29412,-1.4943 -3.29412,-3.33762c0,-1.84331 1.47482,-3.33761 3.29412,-3.33761c1.81929,0 3.29412,1.49429 3.29412,3.33761c0,1.84331 -1.47482,3.33762 -3.29412,3.33762z" fill="url(#color-87)"/><path d="M230.02785,126.03429c0,0 -0.01738,0.89165 -0.02513,1.30974c-0.00136,0.07358 1.3193,0.11199 1.3193,0.11199l0.00772,1.02516l-1.30189,0.00318v1.79214h-1.15696v-1.70441l-1.31587,-0.04387l0.02573,-1.02296l1.29013,-0.07359v-1.39737z" fill="#511111"/></g><path d="M235.17123,137.8377c-1.81929,0 -3.29413,-1.49429 -3.29413,-3.33761c0,-1.84331 1.47483,-3.33762 3.29413,-3.33762c1.81929,0 3.29412,1.4943 3.29412,3.33762c0,1.84331 -1.47482,3.33761 -3.29412,3.33761z" fill="url(#color-88)"/><path d="M233.7221,128.88949c-1.81929,0 -3.29413,-1.49429 -3.29413,-3.33761c0,-1.84331 1.47483,-3.33762 3.29413,-3.33762c1.81929,0 3.29412,1.4943 3.29412,3.33762c0,1.84331 -1.47482,3.33761 -3.29412,3.33761z" fill="url(#color-89)"/><g><path d="M234.16251,133.74007c-1.81928,0 -3.29412,-1.49429 -3.29412,-3.33761c0,-1.8433 1.47483,-3.33761 3.29412,-3.33761c1.81928,0 3.29412,1.49429 3.29412,3.33761c0,1.8433 -1.47483,3.33761 -3.29412,3.33761z" fill="url(#color-90)"/><path d="M234.69886,128.28803c0,0 -0.01737,0.89165 -0.02513,1.30974c-0.00136,0.07357 1.3193,0.11199 1.3193,0.11199l0.00772,1.02516l-1.30189,0.00318v1.79214h-1.15696v-1.70441l-1.31587,-0.04387l0.02573,-1.02296l1.29013,-0.07359v-1.39737z" fill="#511111"/></g></g><g><path d="M239.63532,134.71248c-1.81929,0 -3.29413,-1.49429 -3.29413,-3.33761c0,-1.84331 1.47483,-3.33762 3.29413,-3.33762c1.81929,0 3.29412,1.4943 3.29412,3.33762c0,1.84331 -1.47482,3.33761 -3.29412,3.33761z" fill="url(#color-91)"/><g><path d="M244.73253,133.08069c-1.81928,0 -3.29412,-1.49429 -3.29412,-3.33761c0,-1.84329 1.47483,-3.3376 3.29412,-3.3376c1.81929,0 3.29412,1.49429 3.29412,3.3376c0,1.8433 -1.47482,3.33761 -3.29412,3.33761z" fill="url(#color-92)"/><path d="M245.26888,127.62865c0,0 -0.01738,0.89165 -0.02514,1.30974c-0.00136,0.07357 1.3193,0.11199 1.3193,0.11199l0.00773,1.02515l-1.30189,0.00319v1.79214h-1.15696v-1.70441l-1.31587,-0.04386l0.02573,-1.02297l1.29013,-0.07359v-1.39738z" fill="#511111"/></g><path d="M246.28829,130.10887c-1.81929,0 -3.29412,-1.49429 -3.29412,-3.33761c0,-1.84331 1.47482,-3.33762 3.29412,-3.33762c1.81929,0 3.29412,1.4943 3.29412,3.33762c0,1.84331 -1.47482,3.33761 -3.29412,3.33761z" fill="url(#color-93)"/><g data-paper-data="{&quot;index&quot;:null}"><path d="M244.40612,126.83463c-1.81929,0 -3.29412,-1.4943 -3.29412,-3.33762c0,-1.84331 1.47482,-3.33761 3.29412,-3.33761c1.81929,0 3.29412,1.49429 3.29412,3.33761c0,1.84331 -1.47482,3.33762 -3.29412,3.33762z" fill="url(#color-94)"/><path d="M244.94245,121.38258c0,0 -0.01737,0.89165 -0.02513,1.30974c-0.00136,0.07358 1.3193,0.11199 1.3193,0.11199l0.00773,1.02515l-1.3019,0.00318v1.79214h-1.15696v-1.7044l-1.31587,-0.04386l0.02573,-1.02297l1.29014,-0.07359v-1.39738z" fill="#511111"/></g><path d="M235.41994,129.7052c-1.81929,0 -3.29412,-1.49429 -3.29412,-3.33761c0,-1.8433 1.47482,-3.33761 3.29412,-3.33761c1.81929,0 3.29412,1.49429 3.29412,3.33761c0,1.84331 -1.47482,3.33761 -3.29412,3.33761z" fill="url(#color-95)"/><g><path d="M237.6838,133.00941c-1.81928,0 -3.29412,-1.49429 -3.29412,-3.33761c0,-1.8433 1.47483,-3.33761 3.29412,-3.33761c1.81928,0 3.29411,1.49429 3.29411,3.33761c0,1.8433 -1.47482,3.33761 -3.29411,3.33761z" fill="url(#color-96)"/><path d="M238.22014,127.55737c0,0 -0.01737,0.89165 -0.02513,1.30974c-0.00136,0.07356 1.3193,0.11199 1.3193,0.11199l0.00772,1.02515l-1.30189,0.00318v1.79214h-1.15696v-1.7044l-1.31587,-0.04386l0.02573,-1.02297l1.29013,-0.07359v-1.39738z" fill="#511111"/></g><g data-paper-data="{&quot;index&quot;:null}"><path d="M236.7737,126.78766c-1.81929,0 -3.29412,-1.4943 -3.29412,-3.33762c0,-1.84331 1.47482,-3.33761 3.29412,-3.33761c1.81929,0 3.29412,1.49429 3.29412,3.33761c0,1.84331 -1.47482,3.33762 -3.29412,3.33762z" fill="url(#color-97)"/><path d="M237.31006,121.33561c0,0 -0.01738,0.89165 -0.02514,1.30974c-0.00136,0.07357 1.3193,0.11199 1.3193,0.11199l0.00773,1.02515l-1.30189,0.00318v1.79214h-1.15696v-1.7044l-1.31587,-0.04387l0.02573,-1.02297l1.29013,-0.07359v-1.39737z" fill="#511111"/></g><path d="M242.45344,133.13902c-1.81929,0 -3.29413,-1.49429 -3.29413,-3.33761c0,-1.84331 1.47483,-3.33762 3.29413,-3.33762c1.81929,0 3.29412,1.4943 3.29412,3.33762c0,1.84331 -1.47482,3.33761 -3.29412,3.33761z" fill="url(#color-98)"/><path d="M241.00431,124.1908c-1.81928,0 -3.29412,-1.49429 -3.29412,-3.3376c0,-1.84331 1.47482,-3.33762 3.29412,-3.33762c1.81929,0 3.29412,1.4943 3.29412,3.33762c0,1.84331 -1.47482,3.3376 -3.29412,3.3376z" fill="url(#color-99)"/><g><path d="M241.44472,129.04138c-1.81928,0 -3.29411,-1.49429 -3.29411,-3.33761c0,-1.8433 1.47482,-3.33761 3.29411,-3.33761c1.81929,0 3.29412,1.49429 3.29412,3.33761c0,1.8433 -1.47482,3.33761 -3.29412,3.33761z" fill="url(#color-100)"/><path d="M241.98107,123.58935c0,0 -0.01737,0.89165 -0.02513,1.30974c-0.00136,0.07357 1.3193,0.11199 1.3193,0.11199l0.00772,1.02516l-1.30189,0.00318v1.79214h-1.15696v-1.70441l-1.31587,-0.04387l0.02573,-1.02297l1.29013,-0.07359v-1.39737z" fill="#511111"/></g></g><g><path d="M238.59284,143.50553c-1.81928,0 -3.29412,-1.49429 -3.29412,-3.33761c0,-1.84331 1.47482,-3.33762 3.29412,-3.33762c1.81929,0 3.29412,1.4943 3.29412,3.33762c0,1.84331 -1.47482,3.33761 -3.29412,3.33761z" fill="url(#color-101)"/><g><path d="M243.69005,141.87374c-1.81929,0 -3.29412,-1.49429 -3.29412,-3.33761c0,-1.84329 1.47482,-3.3376 3.29412,-3.3376c1.81929,0 3.29412,1.49429 3.29412,3.3376c0,1.8433 -1.47482,3.33761 -3.29412,3.33761z" fill="url(#color-102)"/><path d="M244.22639,136.4217c0,0 -0.01738,0.89165 -0.02514,1.30974c-0.00136,0.07357 1.3193,0.11199 1.3193,0.11199l0.00773,1.02515l-1.30189,0.00319v1.79214h-1.15696v-1.70441l-1.31587,-0.04386l0.02573,-1.02297l1.29013,-0.07359v-1.39738z" fill="#511111"/></g><path d="M245.24581,138.90193c-1.81929,0 -3.29412,-1.49429 -3.29412,-3.33761c0,-1.84331 1.47482,-3.33762 3.29412,-3.33762c1.81929,0 3.29412,1.4943 3.29412,3.33762c0,1.84331 -1.47482,3.33761 -3.29412,3.33761z" fill="url(#color-103)"/><g data-paper-data="{&quot;index&quot;:null}"><path d="M243.36363,135.62769c-1.81929,0 -3.29412,-1.4943 -3.29412,-3.33762c0,-1.84331 1.47482,-3.33761 3.29412,-3.33761c1.81929,0 3.29412,1.49429 3.29412,3.33761c0,1.84331 -1.47482,3.33762 -3.29412,3.33762z" fill="url(#color-104)"/><path d="M243.89997,130.17563c0,0 -0.01738,0.89165 -0.02513,1.30974c-0.00136,0.07358 1.3193,0.11199 1.3193,0.11199l0.00773,1.02515l-1.3019,0.00318v1.79214h-1.15696v-1.7044l-1.31587,-0.04386l0.02573,-1.02297l1.29014,-0.07359v-1.39738z" fill="#511111"/></g><path d="M234.37746,138.49825c-1.81929,0 -3.29412,-1.49429 -3.29412,-3.33761c0,-1.8433 1.47482,-3.33761 3.29412,-3.33761c1.81929,0 3.29412,1.49429 3.29412,3.33761c0,1.84331 -1.47482,3.33761 -3.29412,3.33761z" fill="url(#color-105)"/><g><path d="M236.6413,141.80246c-1.81928,0 -3.29412,-1.49429 -3.29412,-3.33761c0,-1.8433 1.47483,-3.33761 3.29412,-3.33761c1.81929,0 3.29412,1.49429 3.29412,3.33761c0,1.8433 -1.47482,3.33761 -3.29412,3.33761z" fill="url(#color-106)"/><path d="M237.17765,136.35043c0,0 -0.01737,0.89165 -0.02513,1.30974c-0.00136,0.07356 1.3193,0.11199 1.3193,0.11199l0.00773,1.02515l-1.3019,0.00318v1.79214h-1.15696v-1.7044l-1.31587,-0.04386l0.02573,-1.02297l1.29014,-0.07359v-1.39738z" fill="#511111"/></g><g data-paper-data="{&quot;index&quot;:null}"><path d="M235.73122,135.58072c-1.81929,0 -3.29412,-1.4943 -3.29412,-3.33762c0,-1.84331 1.47482,-3.33761 3.29412,-3.33761c1.81929,0 3.29412,1.49429 3.29412,3.33761c0,1.84331 -1.47482,3.33762 -3.29412,3.33762z" fill="url(#color-107)"/><path d="M236.26758,130.12866c0,0 -0.01738,0.89165 -0.02514,1.30974c-0.00136,0.07357 1.3193,0.11199 1.3193,0.11199l0.00773,1.02515l-1.30189,0.00318v1.79214h-1.15696v-1.7044l-1.31587,-0.04387l0.02573,-1.02297l1.29013,-0.07359v-1.39737z" fill="#511111"/></g><path d="M241.41097,141.93208c-1.81928,0 -3.29412,-1.49429 -3.29412,-3.33761c0,-1.84331 1.47482,-3.33762 3.29412,-3.33762c1.81929,0 3.29412,1.4943 3.29412,3.33762c0,1.84331 -1.47482,3.33761 -3.29412,3.33761z" fill="url(#color-108)"/><path d="M239.96183,132.98385c-1.81928,0 -3.29412,-1.49429 -3.29412,-3.3376c0,-1.84331 1.47482,-3.33762 3.29412,-3.33762c1.81929,0 3.29412,1.4943 3.29412,3.33762c0,1.84331 -1.47482,3.3376 -3.29412,3.3376z" fill="url(#color-109)"/><g><path d="M240.40223,137.83444c-1.81929,0 -3.29412,-1.49429 -3.29412,-3.33761c0,-1.8433 1.47482,-3.33761 3.29412,-3.33761c1.81929,0 3.29412,1.49429 3.29412,3.33761c0,1.8433 -1.47482,3.33761 -3.29412,3.33761z" fill="url(#color-110)"/><path d="M240.93858,132.38241c0,0 -0.01737,0.89165 -0.02513,1.30974c-0.00136,0.07357 1.3193,0.11199 1.3193,0.11199l0.00772,1.02516l-1.30189,0.00318v1.79214h-1.15696v-1.70441l-1.31587,-0.04387l0.02573,-1.02297l1.29013,-0.07359v-1.39737z" fill="#511111"/></g></g></g><g data-paper-data="{&quot;index&quot;:null}" stroke="none" stroke-width="0"><g><path d="M243.14473,112.36218c-0.23793,-1.14539 0.50996,-2.26934 1.67047,-2.51042c1.1605,-0.24107 2.29417,0.49202 2.5321,1.63741c0.23793,1.14539 -0.50996,2.26934 -1.67047,2.51041c-1.1605,0.24107 -2.29417,-0.49201 -2.5321,-1.6374z" fill="url(#color-111)"/><path d="M245.92155,112.98752l-0.64441,0.13894l-0.52329,-2.37033l0.64739,-0.11758z" fill="#524011"/></g><g><path d="M230.92682,143.22448c-0.23793,-1.14539 0.50996,-2.26934 1.67047,-2.51041c1.1605,-0.24107 2.29417,0.49201 2.5321,1.6374c0.23793,1.14539 -0.50996,2.26934 -1.67047,2.51042c-1.16051,0.24107 -2.29417,-0.49202 -2.5321,-1.63741z" fill="url(#color-112)"/><path d="M233.70364,143.84982l-0.64441,0.13895l-0.52329,-2.37033l0.6474,-0.11758z" fill="#524011"/></g><g><path d="M260.13365,129.39095c-0.23793,-1.14539 0.50996,-2.26934 1.67047,-2.51042c1.1605,-0.24107 2.29417,0.49201 2.5321,1.6374c0.23793,1.14539 -0.50996,2.26934 -1.67047,2.51042c-1.1605,0.24107 -2.29417,-0.49201 -2.5321,-1.6374z" fill="url(#color-113)"/><path d="M262.91046,130.01628l-0.64441,0.13894l-0.52329,-2.37033l0.6474,-0.11758z" fill="#524011"/></g><g><path d="M248.76691,150.17817c-0.23793,-1.14539 0.50996,-2.26934 1.67047,-2.51041c1.1605,-0.24107 2.29417,0.49201 2.5321,1.6374c0.23793,1.14539 -0.50996,2.26934 -1.67047,2.51042c-1.1605,0.24107 -2.29417,-0.49202 -2.5321,-1.63741z" fill="url(#color-114)"/><path d="M251.54372,150.8035l-0.64441,0.13894l-0.52329,-2.37033l0.64739,-0.11758z" fill="#524011"/></g><g><path d="M239.26989,152.35406c-0.23793,-1.14539 0.50996,-2.26934 1.67047,-2.51042c1.1605,-0.24107 2.29417,0.49202 2.5321,1.63741c0.23793,1.14539 -0.50996,2.26934 -1.67047,2.51041c-1.16051,0.24107 -2.29417,-0.49201 -2.5321,-1.6374z" fill="url(#color-115)"/><path d="M242.04672,152.9794l-0.64441,0.13894l-0.5233,-2.37033l0.6474,-0.11758z" fill="#524011"/></g><g><path d="M257.34045,118.14403c-0.23793,-1.14539 0.50996,-2.26934 1.67047,-2.51042c1.1605,-0.24107 2.29417,0.49201 2.5321,1.6374c0.23793,1.14539 -0.50996,2.26934 -1.67047,2.51042c-1.16051,0.24107 -2.29417,-0.49201 -2.5321,-1.6374z" fill="url(#color-116)"/><path d="M260.11726,118.76937l-0.64441,0.13895l-0.5233,-2.37033l0.64741,-0.11758z" fill="#524011"/></g><g><path d="M217.46337,140.23463c-0.23793,-1.14539 0.50996,-2.26934 1.67047,-2.51042c1.16051,-0.24107 2.29417,0.49201 2.5321,1.6374c0.23793,1.14539 -0.50996,2.26934 -1.67047,2.51042c-1.1605,0.24107 -2.29417,-0.49201 -2.5321,-1.6374z" fill="url(#color-117)"/><path d="M220.24018,140.85996l-0.64441,0.13895l-0.52329,-2.37033l0.6474,-0.11758z" fill="#524011"/></g><g><path d="M215.99552,126.32666c-0.23793,-1.14539 0.50996,-2.26934 1.67047,-2.51042c1.16051,-0.24107 2.29417,0.49202 2.5321,1.63741c0.23793,1.14539 -0.50996,2.26934 -1.67047,2.51041c-1.1605,0.24107 -2.29417,-0.49201 -2.5321,-1.6374z" fill="url(#color-118)"/><path d="M218.77233,126.95199l-0.64441,0.13895l-0.52329,-2.37033l0.64741,-0.11758z" fill="#524011"/></g><g><path d="M226.29737,106.52204c-0.23793,-1.14539 0.50996,-2.26934 1.67047,-2.51042c1.1605,-0.24107 2.29417,0.49202 2.5321,1.63741c0.23793,1.14539 -0.50996,2.26934 -1.67047,2.51041c-1.1605,0.24107 -2.29417,-0.49201 -2.5321,-1.6374z" fill="url(#color-119)"/><path d="M229.07417,107.14739l-0.6444,0.13893l-0.52329,-2.37033l0.6474,-0.11758z" fill="#524011"/></g><g><path d="M235.51887,103.9973c-0.23793,-1.14539 0.50996,-2.26934 1.67047,-2.51042c1.1605,-0.24107 2.29417,0.49202 2.5321,1.63741c0.23793,1.14539 -0.50996,2.26934 -1.67047,2.51041c-1.1605,0.24107 -2.29417,-0.49201 -2.5321,-1.6374z" fill="url(#color-120)"/><path d="M238.29568,104.62264l-0.64441,0.13895l-0.52329,-2.37033l0.6474,-0.11758z" fill="#524011"/></g><g><path d="M206.05182,115.6007c-0.23793,-1.14539 0.50996,-2.26934 1.67047,-2.51042c1.1605,-0.24107 2.29417,0.49202 2.5321,1.63741c0.23793,1.14539 -0.50996,2.26934 -1.67047,2.51041c-1.1605,0.24107 -2.29417,-0.49201 -2.5321,-1.6374z" fill="url(#color-121)"/><path d="M208.82861,116.22605l-0.6444,0.13893l-0.52329,-2.37033l0.6474,-0.11758z" fill="#524011"/></g><g><path d="M212.28597,104.55968c-0.23793,-1.14539 0.50996,-2.26934 1.67047,-2.51041c1.16051,-0.24107 2.29417,0.49201 2.5321,1.6374c0.23793,1.14539 -0.50996,2.26934 -1.67047,2.51042c-1.1605,0.24107 -2.29417,-0.49202 -2.5321,-1.63741z" fill="url(#color-122)"/><path d="M215.06276,105.18501l-0.64441,0.13895l-0.52329,-2.37033l0.64741,-0.11758z" fill="#524011"/></g><g><path d="M215.43047,149.9968c-0.23793,-1.14539 0.50996,-2.26934 1.67047,-2.51041c1.1605,-0.24107 2.29417,0.49201 2.5321,1.6374c0.23793,1.14539 -0.50996,2.26934 -1.67047,2.51042c-1.1605,0.24107 -2.29417,-0.49202 -2.5321,-1.63741z" fill="url(#color-123)"/><path d="M218.20728,150.62214l-0.64441,0.13894l-0.52329,-2.37033l0.6474,-0.11758z" fill="#524011"/></g><g><path d="M227.38641,158.68042c-0.23793,-1.14539 0.50996,-2.26934 1.67047,-2.51042c1.1605,-0.24107 2.29417,0.49202 2.5321,1.63741c0.23793,1.14539 -0.50996,2.26934 -1.67047,2.51041c-1.16051,0.24107 -2.29417,-0.49201 -2.5321,-1.6374z" fill="url(#color-124)"/><path d="M230.16322,159.30576l-0.64441,0.13895l-0.52329,-2.37033l0.64739,-0.11758z" fill="#524011"/></g><g><path d="M259.72233,150.13582c-0.23793,-1.14539 0.50996,-2.26934 1.67047,-2.51042c1.1605,-0.24107 2.29417,0.49202 2.5321,1.63741c0.23793,1.14539 -0.50996,2.26934 -1.67047,2.51041c-1.1605,0.24107 -2.29417,-0.49201 -2.5321,-1.6374z" fill="url(#color-125)"/><path d="M262.49916,150.76115l-0.64441,0.13894l-0.52329,-2.37033l0.6474,-0.11758z" fill="#524011"/></g><g><path d="M266.09283,141.70601c-0.23793,-1.14539 0.50996,-2.26934 1.67047,-2.51041c1.1605,-0.24107 2.29417,0.49201 2.5321,1.6374c0.23793,1.14539 -0.50996,2.26934 -1.67047,2.51042c-1.1605,0.24107 -2.29417,-0.49202 -2.5321,-1.63741z" fill="url(#color-126)"/><path d="M268.86965,142.33136l-0.64441,0.13895l-0.52329,-2.37033l0.64741,-0.11758z" fill="#524011"/></g><g><path d="M258.59757,103.66999c-0.23793,-1.14539 0.50996,-2.26934 1.67047,-2.51042c1.1605,-0.24107 2.29417,0.49201 2.5321,1.6374c0.23793,1.14539 -0.50996,2.26934 -1.67047,2.51042c-1.1605,0.24107 -2.29417,-0.49201 -2.5321,-1.6374z" fill="url(#color-127)"/><path d="M261.3744,104.29533l-0.64441,0.13894l-0.5233,-2.37033l0.6474,-0.11758z" fill="#524011"/></g><g><path d="M248.77991,99.41517c-0.23793,-1.14539 0.50996,-2.26934 1.67047,-2.51041c1.1605,-0.24107 2.29417,0.49201 2.5321,1.6374c0.23793,1.14539 -0.50996,2.26934 -1.67047,2.51042c-1.1605,0.24107 -2.29417,-0.49202 -2.5321,-1.63741z" fill="url(#color-128)"/><path d="M251.55671,100.04051l-0.64441,0.13894l-0.5233,-2.37033l0.6474,-0.11758z" fill="#524011"/></g><g><path d="M225.43601,95.53371c-0.23793,-1.14539 0.50996,-2.26934 1.67047,-2.51042c1.1605,-0.24107 2.29417,0.49201 2.5321,1.6374c0.23793,1.14539 -0.50996,2.26934 -1.67047,2.51042c-1.1605,0.24107 -2.29417,-0.49201 -2.5321,-1.6374z" fill="url(#color-129)"/><path d="M228.21282,96.15904l-0.64441,0.13894l-0.5233,-2.37032l0.6474,-0.11759z" fill="#524011"/></g><g><path d="M234.50332,93.24404c-0.23793,-1.14539 0.50996,-2.26934 1.67047,-2.51042c1.1605,-0.24107 2.29417,0.49201 2.5321,1.6374c0.23793,1.14539 -0.50996,2.26934 -1.67047,2.51042c-1.1605,0.24107 -2.29417,-0.49201 -2.5321,-1.6374z" fill="url(#color-130)"/><path d="M237.28012,93.86937l-0.64441,0.13895l-0.52329,-2.37033l0.6474,-0.11758z" fill="#524011"/></g><g><path d="M239.89617,163.18818c-0.23793,-1.14539 0.50996,-2.26934 1.67047,-2.51041c1.1605,-0.24107 2.29417,0.49201 2.5321,1.6374c0.23793,1.14539 -0.50996,2.26934 -1.67047,2.51042c-1.1605,0.24107 -2.29417,-0.49202 -2.5321,-1.63741z" fill="url(#color-131)"/><path d="M242.67297,163.81351l-0.64441,0.13894l-0.52329,-2.37033l0.6474,-0.11759z" fill="#524011"/></g><g><path d="M250.21218,161.0452c-0.23793,-1.14539 0.50996,-2.26934 1.67047,-2.51042c1.1605,-0.24107 2.29417,0.49201 2.5321,1.6374c0.23793,1.14539 -0.50996,2.26934 -1.67047,2.51042c-1.1605,0.24107 -2.29417,-0.49201 -2.5321,-1.6374z" fill="url(#color-132)"/><path d="M252.98899,161.67054l-0.6444,0.13895l-0.52329,-2.37033l0.64741,-0.11758z" fill="#524011"/></g><g><path d="M203.73781,134.76118c-0.23793,-1.14539 0.50996,-2.26934 1.67047,-2.51042c1.1605,-0.24107 2.29417,0.49202 2.5321,1.63741c0.23793,1.14539 -0.50996,2.26934 -1.67047,2.51042c-1.1605,0.24107 -2.29417,-0.49202 -2.5321,-1.63741z" fill="url(#color-133)"/><path d="M206.51462,135.38653l-0.64441,0.13894l-0.52329,-2.37033l0.64741,-0.11759z" fill="#524011"/></g><g><path d="M269.37253,121.32973c-0.23793,-1.14539 0.50996,-2.26934 1.67047,-2.51041c1.1605,-0.24107 2.29417,0.49201 2.5321,1.6374c0.23793,1.14539 -0.50996,2.26934 -1.67047,2.51042c-1.1605,0.24107 -2.29417,-0.49202 -2.5321,-1.63741z" fill="url(#color-134)"/><path d="M272.14934,121.95505l-0.64441,0.13894l-0.52329,-2.37033l0.6474,-0.11758z" fill="#524011"/></g><g><path d="M277.20438,152.18938c-0.23793,-1.14539 0.50996,-2.26934 1.67047,-2.51042c1.1605,-0.24107 2.29417,0.49201 2.5321,1.6374c0.23793,1.14539 -0.50996,2.26934 -1.67047,2.51042c-1.1605,0.24107 -2.29417,-0.49201 -2.5321,-1.6374z" fill="url(#color-135)"/><path d="M279.98118,152.81469l-0.64441,0.13894l-0.52329,-2.37033l0.6474,-0.11758z" fill="#524011"/></g><g><path d="M195.76679,106.16387c-0.23793,-1.14539 0.50996,-2.26934 1.67047,-2.51042c1.1605,-0.24107 2.29417,0.49202 2.5321,1.63741c0.23793,1.14539 -0.50996,2.26934 -1.67047,2.51042c-1.1605,0.24107 -2.29417,-0.49202 -2.5321,-1.63741z" fill="url(#color-136)"/><path d="M198.54358,106.78922l-0.64441,0.13895l-0.52329,-2.37033l0.6474,-0.11758z" fill="#524011"/></g></g></g></g></svg>