<svg version="1.1" xmlns="http://www.w3.org/2000/svg" xmlns:xlink="http://www.w3.org/1999/xlink" width="129.36322" height="198.3382" viewBox="0,0,129.36322,198.3382"><defs><linearGradient x1="240.48975" y1="67.88095" x2="240.48975" y2="232.66659" gradientUnits="userSpaceOnUse" id="color-1"><stop offset="0" stop-color="#000000"/><stop offset="1" stop-color="#000000" stop-opacity="0"/></linearGradient></defs><g transform="translate(-172.12424,-24.32269)"><g data-paper-data="{&quot;isPaintingLayer&quot;:true}" fill-rule="nonzero" stroke-linecap="butt" stroke-linejoin="miter" stroke-miterlimit="10" stroke-dasharray="" stroke-dashoffset="0" style="mix-blend-mode: normal"><path d="M275.08329,179.73219c0.05998,1.7335 -5.39488,6.51513 -33.80952,6.51513c-28.41465,0 -36.34798,-4.08167 -36.35749,-6.87218c-0.00821,-2.40919 7.35484,-5.62245 35.76949,-5.62245c28.41465,0 34.34264,4.39383 34.39752,5.9795z" fill="url(#color-1)" stroke="none" stroke-width="0"/><text transform="translate(214.76856,214.83834) scale(0.46015,0.46015)" font-size="40" xml:space="preserve" fill="#000000" fill-rule="nonzero" stroke="#000000" stroke-width="1" stroke-linecap="butt" stroke-linejoin="miter" stroke-miterlimit="10" stroke-dasharray="" stroke-dashoffset="0" font-family="Handwriting" font-weight="normal" text-anchor="start" style="mix-blend-mode: normal"></text><text transform="translate(180.59103,43.27291) scale(0.49869,0.49869)" font-size="40" xml:space="preserve" fill="#000000" fill-rule="nonzero" stroke="#000000" stroke-width="1" stroke-linecap="butt" stroke-linejoin="miter" stroke-miterlimit="10" stroke-dasharray="" stroke-dashoffset="0" font-family="Handwriting" font-weight="normal" text-anchor="start" style="mix-blend-mode: normal"></text><g stroke="none" stroke-width="0"><path d="M245.57249,160.47529c0,0.43427 -0.4733,0.81661 -1.13877,1.12342c-0.42689,0.19681 -0.53132,4.32646 -1.12794,4.45487c-0.37763,0.08128 0.01857,-4.059 -1.40152,-3.9283c-0.52453,0.04827 -1.32293,5.75203 -1.90014,5.75203c-0.69168,0 -1.5108,-5.76268 -2.12671,-5.78967c-1.80145,-0.07895 -1.04139,3.64672 -1.50611,3.546c-0.38384,-0.08319 -0.72021,-3.90414 -1.0002,-4.03548c-0.59499,-0.27909 -0.93534,-0.70704 -0.93534,-1.12286c0,-1.09461 2.49304,-1.98196 5.56836,-1.98196c3.07532,0 5.56837,0.88736 5.56837,1.98196z" fill="#b324a6"/><path d="M236.99529,160.00321c-0.55328,1.05312 -8.13186,-12.90624 -8.13186,-12.90624c0,0 -5.5793,34.44642 -7.74505,34.41933c-0.62714,0.10172 6.21482,-39.60899 6.82326,-39.83299c1.06892,-0.4219 10.06506,16.39473 9.05364,18.3199z" fill="#b324a6"/><path d="M251.54025,141.49455c0.60844,0.22401 7.4504,39.93471 6.82327,39.83299c-2.16575,0.02708 -7.74505,-34.41933 -7.74505,-34.41933c0,0 -7.57857,13.95936 -8.13185,12.90624c-1.01141,-1.92516 7.98472,-18.74179 9.05363,-18.3199z" data-paper-data="{&quot;index&quot;:null}" fill="#b324a6"/><path d="M248.16793,157.75853c0.114,3.88323 -3.8621,3.72797 -8.80085,3.72797c-4.93875,0 -8.94241,-0.40559 -8.65928,-3.72797c0.1018,-1.19452 3.86209,-2.17072 8.80085,-2.17072c4.93875,0 8.61559,0.68262 8.65928,2.17072z" fill="#d841b0"/><g><path d="M243.49217,137.32838c0,7.68354 -0.05165,13.59979 -0.47685,17.28922c-0.08888,0.77122 5.32049,-0.10716 5.2153,2.73515c-0.0776,2.0969 -17.57275,2.35684 -17.68106,0.11908c-0.12518,-2.58619 5.30449,-2.15708 5.31837,-2.95336c0.0568,-3.25904 -0.50829,-8.97933 -0.50829,-16.94079c0,-12.43591 -0.46142,-22.10649 2.61675,-24.03347c0.41502,-0.25981 -1.18195,-9.43581 1.4479,-9.58286c2.1782,-0.13841 1.04357,9.12272 1.51942,9.46358c3.28574,2.35358 2.54846,11.57614 2.54846,23.90346z" fill="#ff66c2"/><path d="M239.30903,133.41439c0,0.7413 1.02483,1.90701 1.05255,3.33889c0.02567,1.32593 -0.94579,2.92275 -0.94186,3.59136c0.00671,1.14072 1.13308,2.1815 1.16995,3.29373c0.04728,1.42649 -0.99016,2.90618 -0.95088,4.18045c0.03708,1.20308 0.98809,2.34001 1.03665,3.39073c0.06473,1.40058 -0.77685,2.64801 -0.78055,3.69482c-0.00299,0.84605 -2.34709,2.57037 -3.82546,2.97588c-2.23243,0.61235 -3.9407,-0.33259 -4.1472,-0.33553c-0.65323,-0.00931 -0.15236,-1.06306 1.53558,-1.71523c1.16306,-0.44937 3.70762,-0.26195 3.51105,-1.21924c-0.83658,-4.07411 -0.78438,-10.93659 -0.78438,-18.07133c0,-11.24419 -0.22748,-22.50069 3.57329,-22.6862c0.58059,-0.02833 0.52282,0.60797 1.27201,2.75562c0.25364,0.7271 -0.95371,1.77516 -1.05595,2.80533c-0.08724,0.87911 1.03244,1.74758 0.95711,2.79372c-0.08406,1.1674 -1.36273,2.53159 -1.45482,3.87765c-0.0843,1.23219 1.07022,2.13387 1.04939,3.49094c-0.01705,1.11081 -1.21647,2.65837 -1.21647,3.83839z" fill="#ffa6db"/></g><g><path d="M225.66472,106.24108c0,0 -1.20272,-11.85218 -1.20272,-14.33156c0,-2.33758 1.04076,-6.62299 1.04076,-6.62299h27.91115c0,0 1.32459,4.47284 1.32459,6.7176c0,2.54321 -1.16264,14.23695 -1.16264,14.23695z" fill="#ff66c2"/><path d="M253.61786,105.96724c0.15752,1.22507 -13.25956,5.86139 -13.92617,5.35929c-0.58506,-0.41862 8.64124,-17.90588 9.25687,-18.01195c0.75404,-0.12991 4.53123,11.57893 4.6693,12.65267z" data-paper-data="{&quot;index&quot;:null}" fill="#d841b0"/><path d="M229.87529,93.07883c0.61562,0.10607 10.26047,17.63743 9.67541,18.05605c-0.66661,0.50211 -14.56958,-4.13423 -14.41206,-5.35929c0.13807,-1.07373 3.98262,-12.82668 4.73666,-12.69676z" data-paper-data="{&quot;index&quot;:null}" fill="#d841b0"/><path d="M248.94337,92.45955c0.72203,0.725 -8.15879,18.62344 -9.22487,18.91729c-0.72878,0.20087 -10.34836,-18.21201 -9.83986,-18.80618c0.62283,-0.72777 18.43189,-0.74655 19.06473,-0.11111z" data-paper-data="{&quot;index&quot;:null}" fill="#b324a6"/><path d="M248.95033,92.80308c-0.61562,-0.09101 -9.76013,-13.50103 -9.17507,-13.86023c0.66661,-0.43085 13.96181,5.50214 13.80429,6.55334c-0.13807,0.92136 -3.87518,7.41838 -4.62922,7.30689z" fill="#ffa6db"/><path d="M225.34068,85.49619c-0.15752,-1.0512 13.24672,-6.95692 13.91334,-6.52607c0.58506,0.35921 -8.66851,13.74195 -9.28413,13.83297c-0.75404,0.11149 -4.49114,-6.38554 -4.62921,-7.30689z" data-paper-data="{&quot;index&quot;:null}" fill="#ffa6db"/><path d="M229.97328,92.76104c-0.5085,-0.50599 8.97638,-14.1499 9.70516,-13.97884c1.06608,0.25024 10.0816,13.45605 9.35957,14.07345c-0.63283,0.54113 -18.4419,0.52514 -19.06473,-0.09462z" fill="#ff66c2"/></g><path d="M234.29614,160.75825c-0.97421,1.05312 -15.67382,-17.05892 -15.67382,-17.05892c0,0 -12.35543,38.97661 -13.7142,37.62822c-0.84856,-0.84207 11.71024,-40.74154 12.78159,-40.96554c1.11502,-0.23314 18.38734,18.47108 16.60644,20.39624z" fill="#d841b0"/><path d="M261.24132,139.79573c1.07135,0.22401 13.63014,40.12347 12.78158,40.96554c-1.35877,1.34839 -13.7142,-37.62822 -13.7142,-37.62822c0,0 -14.69962,18.11204 -15.67382,17.05892c-1.7809,-1.92516 15.49142,-20.62938 16.60644,-20.39624z" data-paper-data="{&quot;index&quot;:null}" fill="#d841b0"/></g><text transform="translate(172.28878,64.63271) scale(0.32909,0.32909)" font-size="40" xml:space="preserve" fill="#000000" fill-rule="nonzero" stroke="#000000" stroke-width="1" stroke-linecap="butt" stroke-linejoin="miter" stroke-miterlimit="10" stroke-dasharray="" stroke-dashoffset="0" font-family="Handwriting" font-weight="normal" text-anchor="start" style="mix-blend-mode: normal"></text><path d="M231.84373,78.08619c0.02025,0.05889 0.03865,0.09738 0.0368,0.15472c-0.00018,0.0057 0.12398,-0.0404 0.15413,0.00478c0.01275,0.0191 0.06231,0.05616 0.04416,0.11198c-0.00144,0.00441 0.47975,0.11238 0.82769,0.35717c0.23234,0.16347 0.36532,0.51086 0.37011,0.53838c0.00906,0.05206 0.07385,0.00544 0.10834,0.03271c0.03421,0.02705 0.04071,0.06504 0.05778,0.09659c0.03393,0.06271 0.05765,0.11626 0.05985,0.12171c0.03812,0.09456 -0.03088,0.18637 -0.03441,0.19877c-0.00439,0.01539 -0.05059,0.02371 -0.06262,0.04628c-0.03737,0.07013 -0.08497,0.1264 -0.17407,0.12731c-0.06751,0.00069 -0.16013,-0.08644 -0.19613,-0.10512c-0.07865,-0.0408 -0.14903,-0.02612 -0.1661,-0.11461c-0.01165,-0.06038 0.00352,-0.20985 0.06424,-0.27295c0.06444,-0.06696 0.17449,-0.04709 0.15441,-0.09354c-0.06676,-0.15439 -0.18444,-0.2781 -0.29906,-0.3841c-0.31041,-0.28708 -0.77179,-0.37304 -0.77911,-0.36163c-0.03465,0.054 -0.06834,0.02532 -0.1001,0.03035c-0.03135,0.00496 -0.03005,0.14577 -0.19379,0.2366c-0.04038,0.0224 -0.10777,0.18466 -0.22136,0.2818c-0.00911,0.00779 0.54609,0.35506 0.59877,0.42414c0.02116,0.02775 0.08212,0.03491 0.10378,0.05367c0.02718,0.02355 0.05288,0.0511 0.04956,0.06182c-0.00809,0.02611 0.87414,0.42474 0.98651,0.65286c0.07514,0.15252 0.12396,0.57969 0.13554,0.91373c0.00132,0.03813 0.26556,-0.033 0.26982,-0.06218c0.03587,-0.24582 0.39214,-1.12265 0.49207,-1.12048c0.19571,-0.03198 0.68615,1.00816 0.46304,1.46027c-0.07409,0.15013 -1.24059,0.14403 -1.2412,0.14446c-0.00592,0.00415 -0.52079,0.14043 -0.51099,-0.01728c0.02251,-0.36225 0.14253,-1.16852 0.11176,-1.20253c-0.02364,-0.02613 -0.89127,-0.6062 -0.91521,-0.59493c-0.03734,0.01757 -0.13077,0.06686 -0.16856,0.05261c-0.04773,-0.018 -0.04213,-0.10328 -0.11693,-0.10258c-0.08332,0.00079 -0.23539,0.09016 -0.30338,0.10769c-0.0481,0.0124 -0.11489,0.03142 -0.14813,0.06362c-0.04518,0.04378 -0.05297,0.10318 -0.0959,0.12238c-0.04759,0.0213 -0.09747,0.0239 -0.13016,0.03992c-0.00604,0.00296 -0.32223,0.7618 -0.28226,1.26609c0.02706,0.34129 0.51428,0.68645 0.52282,0.91467c0.00721,0.19262 -1.49195,0.87627 -1.65662,0.69953c-0.13806,-0.14816 -0.14209,-1.20154 0.01123,-1.25966c0.15247,-0.0578 0.54138,0.37742 0.82336,0.53807c0.08253,0.04702 0.31373,-0.02423 0.30135,-0.04627c-0.14459,-0.2575 -0.29781,-0.57742 -0.31936,-0.79113c-0.03467,-0.34381 0.38139,-1.30098 0.36632,-1.30531c-0.02029,-0.00584 -0.02165,-0.01919 -0.03568,-0.0297c-0.02874,-0.02153 -0.01736,-0.06192 -0.02418,-0.10362c-0.00678,-0.04152 -0.03183,-0.08433 -0.03198,-0.11696c-0.00074,-0.16291 0.13759,-0.62454 0.14491,-0.67125c0.00491,-0.03132 -0.01135,-0.0227 -0.07416,-0.17047c-0.04746,-0.11167 -0.01094,-0.21222 -0.08215,-0.1985c-0.28049,0.05406 -0.58546,0.27929 -0.72831,0.47631c-0.12936,0.17843 -0.24788,0.71967 -0.21906,0.77402c0.01814,0.03422 0.08054,0.02528 0.11176,0.0536c0.07472,0.0678 0.15872,-0.01181 0.22426,0.03404c0.05149,0.03602 0.09389,0.2043 0.09593,0.21181c0.03104,0.11448 -0.08951,0.37875 -0.12778,0.39578c-0.24715,0.11 -0.42615,0.05384 -0.5411,-0.17499c-0.02716,-0.05406 0.00851,-0.12997 0.02931,-0.24758c0.00147,-0.0083 -0.04565,-0.12122 0.04026,-0.17236c0.01607,-0.00957 -0.01509,-0.5962 0.21574,-0.94315c0.26125,-0.39267 0.78648,-0.5511 0.77499,-0.56018c-0.05293,-0.04183 -0.11844,-0.14433 -0.10505,-0.21373c0.01781,-0.09227 0.32515,-0.09207 0.3245,-0.09673c-0.01047,-0.0746 -0.00442,-0.07409 -0.01007,-0.15643c-0.00003,-0.00047 -0.09753,0.0639 -0.25317,0.03865c-0.31546,-0.05117 -0.82021,-0.21537 -0.88926,-0.24757c-0.01622,-0.00757 0.00717,-0.06658 0.08479,-0.10232c0.08803,-0.04053 0.23257,-0.05805 0.22744,-0.06283c-0.25084,-0.23338 -0.60115,-0.98356 -0.57567,-1.01838c0.03077,-0.04204 1.05449,0.45199 1.51171,0.75846c0.1607,0.10771 0.12441,0.27428 0.12583,0.273c0.04852,-0.04369 0.10682,-0.05419 0.15184,-0.06823c0.09817,-0.03063 0.20764,-0.03988 0.29398,0.00159c0.00155,0.00074 -0.05122,-0.35564 -0.06223,-0.64001c-0.0073,-0.1888 0.03513,-0.38255 0.03851,-0.36564c0.01489,0.07455 0.12628,0.36771 0.12628,0.36771c0,0 0.04782,-0.33943 0.08758,-0.5018c0.09777,-0.3993 0.27173,-0.72682 0.28605,-0.71189c0.01675,0.01746 0.00778,0.31079 0.06718,0.75271c0.04061,0.30211 0.17996,0.71013 0.16116,0.96042c-0.0169,0.22494 -0.36502,0.44749 -0.36215,0.45583z" fill="#b324a6" stroke="none" stroke-width="0"/></g></g></svg>