<svg version="1.1" xmlns="http://www.w3.org/2000/svg" xmlns:xlink="http://www.w3.org/1999/xlink" width="151.76256" height="176.27752" viewBox="0,0,151.76256,176.27752"><defs><linearGradient x1="240.6195" y1="58.29925" x2="240.6195" y2="237.16748" gradientUnits="userSpaceOnUse" id="color-1"><stop offset="0" stop-color="#000000"/><stop offset="1" stop-color="#000000" stop-opacity="0"/></linearGradient><radialGradient cx="238.87037" cy="129.81019" r="47" gradientUnits="userSpaceOnUse" id="color-2"><stop offset="0" stop-color="#b1ecff" stop-opacity="0"/><stop offset="1" stop-color="#b1ecff"/></radialGradient><radialGradient cx="239.01135" cy="131.64746" r="77.0473" gradientUnits="userSpaceOnUse" id="color-3"><stop offset="0" stop-color="#d6d6d6"/><stop offset="1" stop-color="#d6d6d6" stop-opacity="0"/></radialGradient></defs><g transform="translate(-162.81433,-34.72262)"><g data-paper-data="{&quot;isPaintingLayer&quot;:true}" fill-rule="nonzero" stroke-linecap="butt" stroke-linejoin="miter" stroke-miterlimit="10" stroke-dasharray="" stroke-dashoffset="0" style="mix-blend-mode: normal"><path d="M284.37023,179.70936c0.07585,1.88165 -6.82295,7.07192 -42.75929,7.07192c-35.93634,0 -45.96971,-4.43047 -45.98172,-7.45949c-0.01038,-2.6151 9.30175,-6.10294 45.23807,-6.10294c35.93634,0 43.43354,4.76932 43.50294,6.49051z" fill="url(#color-1)" stroke="none" stroke-width="0"/><text transform="translate(219.40922,205.02038) scale(0.357,0.357)" font-size="40" xml:space="preserve" fill="#ffffff" fill-rule="nonzero" stroke="#ffffff" stroke-width="0.5" stroke-linecap="butt" stroke-linejoin="miter" stroke-miterlimit="10" stroke-dasharray="" stroke-dashoffset="0" font-family="Handwriting" font-weight="normal" text-anchor="start" style="mix-blend-mode: normal"></text><text transform="translate(211.91901,50.03753) scale(0.39779,0.39779)" font-size="40" xml:space="preserve" fill="#ffffff" fill-rule="nonzero" stroke="#ffffff" stroke-width="2" stroke-linecap="butt" stroke-linejoin="miter" stroke-miterlimit="10" stroke-dasharray="" stroke-dashoffset="0" font-family="Handwriting" font-weight="normal" text-anchor="start" style="mix-blend-mode: normal"></text><text transform="translate(203.93816,69.97374) scale(0.23622,0.23622)" font-size="40" xml:space="preserve" fill="#ffffff" fill-rule="nonzero" stroke="#ffffff" stroke-width="1" stroke-linecap="butt" stroke-linejoin="miter" stroke-miterlimit="10" stroke-dasharray="" stroke-dashoffset="0" font-family="Handwriting" font-weight="normal" text-anchor="start" style="mix-blend-mode: normal"></text><path d="M285.13212,129.35034c0,24.84838 -20.44879,44.99195 -45.67365,44.99195c-25.22486,0 -45.67365,-20.14358 -45.67365,-44.99195c0,-24.84836 20.44879,-44.99195 45.67365,-44.99195c25.22486,0 45.67365,20.14359 45.67365,44.99196z" fill="#9bd8ff" stroke="none" stroke-width="0"/><path d="M278.91668,151.41669c-4.42921,9.09311 -21.2042,23.96118 -39.50001,23.41666c-24.18097,-0.71967 -33.96276,-15.43422 -39.16666,-22.41666c-3.21782,-4.31758 21.56055,4.58333 41.16666,4.58333c19.60611,0 38.42835,-11.37803 37.50001,-5.58334z" fill="#74bcf2" stroke="none" stroke-width="0"/><path d="M239.75001,106.95308c-19.60611,0 -44.71782,6.56758 -41.5,2.25c3.82643,-5.1342 6.72287,-12.22401 17.40522,-17.5115c4.67299,-2.31302 11.69409,3.28534 24.42811,2.76151c11.73701,-0.13106 16.40521,-5.56738 20.51106,-4.0028c12.95258,4.93573 16.95916,12.84834 20.32229,19.7528c0.92834,5.79469 -21.56056,-3.25001 -41.16667,-3.25001z" data-paper-data="{&quot;index&quot;:null}" fill="#74bcf2" stroke="none" stroke-width="0"/><path d="M247.65886,136.47465c0,1.8087 -3.9153,2.31092 -8.92223,3.90808c-6.22178,1.98468 -14.28589,4.87647 -20.45561,4.87647c-1.52716,0 -5.85766,0.45128 -9.906,-1.1542c-5.08074,-2.01491 -9.88269,-6.27559 -10.02131,-7.45154c-0.10532,-0.89342 2.97636,-5.19778 7.15071,-7.40143c4.86158,-2.56644 11.10258,-3.00203 13.92866,-3.00203c6.9761,0 15.1381,3.57331 21.12231,6.37941c3.56736,1.6728 7.10347,2.3303 7.10347,3.84524z" fill="#74c9f2" stroke="none" stroke-width="0"/><path d="M232.41186,143.29073c-0.04274,1.65631 -6.90044,3.49819 -14.9059,3.29161c-8.00546,-0.20658 -13.79386,-2.38342 -13.75111,-4.03973c0.04274,-1.65631 5.90044,2.83514 13.9059,3.04172c8.00546,0.20658 14.79386,-3.94991 14.75112,-2.2936z" fill="#ffffff" stroke="none" stroke-width="0"/><path d="M207.91906,137.81025c2.82847,3.19785 9.47352,-1.92629 6.69724,0.63006c-2.77628,2.55635 -6.64433,2.87211 -8.63953,0.70525c-1.9952,-2.16685 -1.62666,-5.29897 1.14962,-7.85532c2.77628,-2.55635 -1.83065,3.55412 0.79266,6.52001z" fill="#ffffff" stroke="none" stroke-width="0"/><path d="M246.41668,118.75c0,1.01252 -12.33281,-2.5 -18.49999,-2.5c-6.16718,0 -15.16667,3.17918 -15.16667,2.16666c0,-1.01252 9.33282,-3.5 15.5,-3.5c6.16718,0 18.16666,2.82082 18.16666,3.83334z" fill="#ffffff" stroke="none" stroke-width="0"/><path d="M284.08333,138.25c0,1.65686 -7.15363,2 -14.33333,2c-7.1797,0 -14.66666,-1.00981 -14.66666,-2.66666c0,-1.65686 8.15363,1 15.33333,1c7.1797,0 13.66667,-1.99019 13.66667,-0.33334z" fill="#ffffff" stroke="none" stroke-width="0"/><path d="M244.41634,94.90932c-0.10037,0.87516 -4.87148,2.21436 -12.27053,1.36577c-7.39906,-0.84859 -16.54184,-4.65926 -16.44147,-5.53442c0.10037,-0.87516 9.14214,2.9937 16.5412,3.84229c7.39906,0.84859 12.27118,-0.54879 12.17081,0.32636z" fill="#ffffff" stroke="none" stroke-width="0"/><path d="M246.75001,161.25c0.97415,0.84361 -7.05887,1.66666 -17,1.66666c-9.94112,0 -17.66666,-3.04466 -17.66666,-4.33333c0,-1.28867 7.3922,3.33333 17.33333,3.33333c9.94113,0 17,-0.95533 17.33334,-0.66666z" fill="#ffffff" stroke="none" stroke-width="0"/><path d="M285.87037,129.81019c0,25.4051 -21.04262,46 -47,46c-25.95738,0 -47,-20.5949 -47,-46c0,-25.4051 21.04262,-46 47,-46c25.95738,0 47,20.5949 47,46z" fill="url(#color-2)" stroke="none" stroke-width="0"/><path d="M245.1478,152.33755c-41.87861,7.40742 -78.5753,4.14905 -81.96436,-7.27777c-2.97964,-10.04633 12.54606,-19.44465 29.79036,-24.47687c0.07441,1.29139 0.4474,2.02313 0.78151,3.3189c-15.24028,6.16929 -24.12074,12.53713 -22.55389,19.65577c1.80005,8.1781 40.72796,10.95862 69.28156,5.90811c28.5536,-5.05051 69.03,-20.84262 66.74506,-30.16287c-1.65463,-6.74923 -10.47991,-8.78453 -25.086,-6.96717c-0.07046,-1.35357 -2.71089,-3.86397 -3.06684,-5.22249c3.99065,-0.22813 33.70862,-2.08654 35.5017,13.57002c-1.85589,12.84217 -47.42485,27.76231 -69.42909,31.65438z" fill="url(#color-3)" stroke="none" stroke-width="0"/></g></g></svg>