<svg version="1.1" xmlns="http://www.w3.org/2000/svg" xmlns:xlink="http://www.w3.org/1999/xlink" width="109.83546" height="175.80638" viewBox="0,0,109.83546,175.80638"><defs><linearGradient x1="240.61952" y1="58.29925" x2="240.61952" y2="237.16748" gradientUnits="userSpaceOnUse" id="color-1"><stop offset="0" stop-color="#000000"/><stop offset="1" stop-color="#000000" stop-opacity="0"/></linearGradient></defs><g transform="translate(-184.75001,-36.69375)"><g data-paper-data="{&quot;isPaintingLayer&quot;:true}" stroke-linecap="butt" stroke-linejoin="miter" stroke-miterlimit="10" stroke-dasharray="" stroke-dashoffset="0" style="mix-blend-mode: normal"><path d="M284.37023,179.70936c0.07585,1.88165 -6.82295,7.07192 -42.75929,7.07192c-35.93634,0 -45.96971,-4.43047 -45.98172,-7.45949c-0.01038,-2.6151 9.30175,-6.10294 45.23807,-6.10294c35.93634,0 43.43354,4.76932 43.50294,6.49051z" fill="url(#color-1)" fill-rule="nonzero" stroke="none" stroke-width="0"/><text transform="translate(223.40924,206.52038) scale(0.357,0.357)" font-size="40" xml:space="preserve" fill="#ffffff" fill-rule="nonzero" stroke="#ffffff" stroke-width="0.5" stroke-linecap="butt" stroke-linejoin="miter" stroke-miterlimit="10" stroke-dasharray="" stroke-dashoffset="0" font-family="Handwriting" font-weight="normal" text-anchor="start" style="mix-blend-mode: normal"></text><text transform="translate(196.58569,49.80261) scale(0.34497,0.34497)" font-size="40" xml:space="preserve" fill="#ffffff" fill-rule="nonzero" stroke="#ffffff" stroke-width="1" stroke-linecap="butt" stroke-linejoin="miter" stroke-miterlimit="10" stroke-dasharray="" stroke-dashoffset="0" font-family="Handwriting" font-weight="normal" text-anchor="start" style="mix-blend-mode: normal"></text><text transform="translate(189.93818,67.7654) scale(0.26747,0.26747)" font-size="40" xml:space="preserve" fill="#ffffff" fill-rule="nonzero" stroke="#ffffff" stroke-width="1" stroke-linecap="butt" stroke-linejoin="miter" stroke-miterlimit="10" stroke-dasharray="" stroke-dashoffset="0" font-family="Handwriting" font-weight="normal" text-anchor="start" style="mix-blend-mode: normal"></text><g><g fill-rule="evenodd" stroke="none" stroke-width="1"><path d="M255.18169,131.15654c-0.17371,0.26057 -0.46322,0.46322 -0.66588,0.72379c-0.46322,0.60798 -0.46322,1.15806 -0.20266,1.85289c0.57903,1.50547 0.20266,3.24257 -1.0133,4.31377c-0.57903,0.52113 -1.36072,0.83959 -2.11346,0.92645c-1.04225,0.1158 -0.98435,0.1158 -1.85289,0.95539c-0.72379,0.75274 -0.86855,2.0266 -1.62128,2.75039c-0.46322,0.46322 -1.21596,1.24491 -3.03991,0.92645c-0.98435,-0.20266 -1.70813,-0.49218 -2.66353,-0.69484c-1.41862,-0.28951 -1.24491,-0.14475 -2.25821,0.69484c-1.36072,1.10016 -3.35837,1.76603 -4.77699,0.52112c-0.75274,-0.66589 -1.12911,-1.47652 -1.70813,-2.25821c-0.86854,-1.18701 -1.85289,-1.10016 -3.18466,-1.18701c-1.50547,-0.08686 -2.51878,-1.41862 -2.51878,-2.982c-0.02895,-1.0133 0.1158,-2.11345 -0.46322,-3.0399c-0.43427,-0.69483 -0.86855,-1.21597 -1.36072,-1.8529c-1.27387,-1.59233 -0.75274,-3.15571 0.02895,-4.80594c0.57903,-1.21596 -0.8396,-1.82394 -0.52113,-3.01095c0.20266,-0.75274 2.40297,-1.79499 2.54773,-3.76369c0.05791,-0.75274 -0.1737,-3.1557 1.47653,-2.98199c0.49218,0.05791 1.15806,0.08685 1.59233,-0.20266c0.55007,-0.37637 0.55008,-0.55008 0.66589,-1.15806c0.34742,-1.85289 1.50547,-2.8083 3.41627,-2.22927c0.72379,0.23161 1.27387,0.57903 2.0266,0.49218c0.78169,-0.08685 1.15806,-0.66589 1.79499,-1.04225c0.69483,-0.43427 1.70814,-0.81064 2.54773,-0.60798c0.81064,0.20266 0.92644,0.8396 1.38967,1.44758c0.9554,1.24491 2.11346,0.1737 3.27151,0.02895c1.41862,-0.17371 2.60564,0.63693 2.89515,1.85289c0.1158,0.46322 0.26056,0.78169 0.57903,1.12911c0.43427,0.46322 0.63693,0.49218 1.21596,0.52113c0.69483,0.02895 1.65023,0.34741 2.14241,0.83959c1.38967,1.44757 0.1158,3.35836 0.28951,5.09545c0.1158,1.30281 1.187,1.65023 1.91079,2.54773c0.46322,0.55008 0.72378,1.27386 0.75274,1.99765c0.02895,0.78169 -0.1737,1.56338 -0.57903,2.20031z" fill="#df6530"/><path d="M253.79202,132.08298c0.23161,1.0133 0.31846,2.11346 -0.31847,3.01095c-0.37637,0.52113 -0.89749,0.49218 -1.27387,0.89749c-0.9554,1.04225 -0.26056,2.54773 -1.12911,3.8795c-0.49218,0.75274 -2.05554,0.86854 -2.98199,0.92645c-0.08685,0 -0.55007,0.08685 -0.60798,0.46322c-0.40532,1.44757 -2.08451,1.67919 -3.50313,1.795c-1.0712,0.08686 -1.9108,0.72379 -3.01095,0.55008c-0.49218,-0.08686 -0.98434,-0.34742 -1.47652,-0.40532c-0.75274,-0.08686 -1.01331,0.26056 -1.65024,0.34742c-0.9554,0.08686 -1.50548,-0.63693 -2.31612,-0.9554c-0.83959,-0.31847 -1.76604,-0.20266 -2.57668,-0.63693c-0.86854,-0.46322 -1.33176,-1.36072 -2.1424,-1.88185c-0.63693,-0.40533 -1.0133,-0.8975 -1.33177,-1.59233c-0.28951,-0.57903 -0.34742,-1.01329 -0.92645,-1.38967c-0.28951,-0.20266 -0.52112,-0.26056 -0.78169,-0.52112c-0.63693,-0.63693 -1.41861,-0.92645 -1.53442,-2.60563c-0.02895,-0.49218 -0.20266,-0.8396 -0.20266,-1.33176c0,-0.52113 -0.05791,-0.86855 -0.20266,-1.41862c-0.28951,-0.9554 0.14476,-1.88184 0.34742,-2.86619c0.23161,-1.24491 -0.05791,-2.22927 0,-3.50313c0.02895,-0.8975 0.31847,-1.56337 0.9554,-2.20031c0.40533,-0.37637 0.92645,-0.60798 1.24491,-1.10016c0.34742,-0.55008 0.43427,-1.21596 0.69483,-1.79499c0.31847,-0.72379 0.75274,-1.30282 1.50548,-1.65023c0.05791,-0.02895 2.40296,-0.8396 4.19796,-2.60563c1.15805,-1.15806 2.60563,-0.14476 4.11111,-0.08685c1.67918,0.05791 3.06886,-0.69483 4.71909,-0.0579c0.75274,0.28951 1.44757,0.78169 2.20031,1.0133c0.72379,0.23161 1.15806,-0.02895 1.9108,0.14476c1.41862,0.34741 2.05555,2.89514 3.0978,4.14006c1.04225,1.21596 2.43192,1.36071 2.80829,3.0399c0.20266,0.81064 -0.08686,1.59232 0.26056,2.34506c0.28951,0.60798 0.78169,1.07121 0.98435,1.70814c0.43427,1.41863 -1.33177,3.35837 -1.0712,4.34272z" fill="#ea9b1f"/><path d="M240.12693,116.04388c1.47653,0 3.1557,0.9554 4.48747,1.44758c1.41862,0.49218 2.63458,0.37636 3.79264,1.30281c1.0712,0.86854 0.95541,1.99765 1.70814,3.18466c0.52113,0.81064 1.93974,1.44758 2.43192,2.48982c0.69483,1.44757 0.40532,3.32941 0.40532,4.77698c0,0.98435 0.40532,2.8662 0.20266,3.79264c-0.49218,2.14241 -2.69249,2.80829 -4.08215,4.40062c-1.12911,1.27387 -1.85289,2.63458 -3.38732,3.35837c-1.67918,0.81064 -3.0978,1.9687 -5.09545,1.9687c-1.0712,0 -2.57668,-1.44757 -3.56103,-1.70814c-1.33177,-0.31847 -3.93739,0.31847 -4.57432,-0.86854c-2.14241,-4.0532 -2.83725,-3.50312 -3.85055,-5.0086c-1.36072,-2.0266 -0.89749,-3.44522 -0.89749,-6.0798c0,-1.36072 -0.75274,-2.66354 -0.34742,-3.8795c0.49218,-1.53443 1.85289,-2.80828 2.83724,-4.02424c1.38967,-1.73709 3.96635,-2.46088 6.05086,-3.30047c1.38967,-0.55008 2.22926,-1.85289 3.87949,-1.85289z" fill="#f3bb1b"/><path d="M228.57531,129.24574c0,-6.37979 5.17184,-11.55163 11.55163,-11.55163c6.37979,0 11.55163,5.17184 11.55163,11.55163c0,6.37979 -5.17184,11.55163 -11.55163,11.55163c-6.37979,0 -11.55163,-5.17183 -11.55163,-11.55163z" fill="#f9d20d"/></g><path d="M293.33547,130.25c0,26.3716 -24.02787,47.75 -53.66773,47.75c-29.63987,0 -53.66773,-21.3784 -53.66773,-47.75c0,-26.3716 24.02786,-47.75 53.66773,-47.75c29.63987,0 53.66773,21.3784 53.66773,47.75z" fill="none" fill-rule="nonzero" stroke="#ffffff" stroke-width="2.5"/><g fill-rule="nonzero" stroke-width="0"><path d="M208.07561,98.41667c0,4.39526 -3.61705,7.95834 -8.07891,7.95834c-4.46186,0 -8.07891,-3.56307 -8.07891,-7.95834c0,-4.39526 3.61705,-7.95833 8.07891,-7.95833c4.46186,0 8.07891,3.56307 8.07891,7.95833z" fill="#cccaca" stroke="#000000"/><path d="M200.02608,99.79517c0,1.88685 -1.88714,3.63083 -3.81839,3.63083c-1.93125,0 -3.7648,-1.95833 -3.7648,-3.84519c0,-1.88685 1.29763,-3.52364 3.22888,-3.52364c1.93125,0 4.35431,1.85115 4.35431,3.738z" fill="#b2abab" stroke="none"/><path d="M202.93341,94.78438c0,1.99785 -1.29802,4.47489 -3.29587,4.47489c-1.99785,0 -3.83179,-2.36986 -3.83179,-4.36771c0,-1.99785 1.61957,-3.61742 3.61742,-3.61742c1.99785,0 3.51024,1.51239 3.51024,3.51024z" fill="#b2abab" stroke="none"/><path d="M206.25608,100.95645c0,1.01612 -1.44052,1.83985 -2.51917,1.83985c-1.07865,0 -1.95307,-0.82373 -1.95307,-1.83985c0,-1.01612 0.53475,-2.17951 1.61341,-2.17951c1.07865,0 2.85884,1.16339 2.85884,2.17951z" fill="#b2abab" stroke="none"/><path d="M200.95053,104.08249c0,0.62156 -0.19432,1.44697 -0.83067,1.44697c-0.63635,0 -1.47376,-0.82541 -1.47376,-1.44697c0,-0.62156 0.51586,-1.12542 1.15221,-1.12542c0.63635,0 1.15222,0.50387 1.15222,1.12542z" fill="#b2abab" stroke="none"/><path d="M206.89918,96.68687c0,0.94712 -0.89898,1.2326 -1.8757,1.2326c-0.97672,0 -1.76852,-0.7678 -1.76852,-1.71493c0,-0.94712 0.7918,-1.71492 1.76852,-1.71492c0.97672,0 1.8757,1.25012 1.8757,2.19725z" fill="#b2abab" stroke="none"/><path d="M197.41621,95.54551c0,0.38859 -0.29884,0.86535 -0.68743,0.86535c-0.38859,0 -0.65508,-0.47677 -0.65508,-0.86535c0,-0.38859 0.13709,-0.71978 0.52568,-0.71978c0.38859,0 0.81683,0.33119 0.81683,0.71978zM196.75305,96.21676c0.26799,0 0.45289,-0.28195 0.45289,-0.54994c0,-0.26799 -0.2496,-0.56611 -0.51759,-0.56611c-0.26799,0 -0.45289,0.29812 -0.45289,0.56611c0,0.26799 0.2496,0.54994 0.51759,0.54994z" fill="#e9e9e9" stroke="none"/><path d="M205.33327,95.49146c0,0.37055 -0.39673,0.2293 -0.78134,0.2293c-0.38461,0 -0.69641,-0.06258 -0.69641,-0.43313c0,-0.37055 0.3118,-0.67093 0.69641,-0.67093c0.38461,0 0.78134,0.50421 0.78134,0.87476zM204.55192,95.58489c0.28143,0 0.50957,-0.05829 0.50957,-0.33971c0,-0.28142 -0.22814,-0.44163 -0.50957,-0.44163c-0.28143,0 -0.50957,0.09226 -0.50957,0.37368c0,0.28142 0.22814,0.40766 0.50957,0.40766z" fill="#e9e9e9" stroke="none"/><path d="M196.57182,100.49175c0,0.46385 -0.36138,0.97198 -0.83043,0.97198c-0.46905,0 -0.8493,-0.37601 -0.8493,-0.83986c0,-0.46385 0.38025,-0.83986 0.8493,-0.83986c0.46905,0 0.83043,0.2439 0.83043,0.70775zM195.74139,101.29387c0.3127,0 0.5662,-0.42336 0.5662,-0.73606c0,-0.3127 -0.27237,-0.54733 -0.58507,-0.54733c-0.3127,0 -0.60395,0.29125 -0.60395,0.60395c0,0.3127 0.31012,0.67945 0.62282,0.67945z" fill="#e9e9e9" stroke="none"/><path d="M199.96569,95.98286c-0.32586,0.11332 -0.86706,0.06439 -0.98689,-0.28021c-0.11983,-0.3446 0.18165,-0.50408 0.50751,-0.61739c0.32586,-0.11332 0.55274,-0.13755 0.67257,0.20705c0.11983,0.3446 0.13267,0.57724 -0.1932,0.69055zM199.14629,95.65962c0.09548,0.21793 0.4145,0.3424 0.63924,0.26425c0.22474,-0.07815 0.34357,-0.32368 0.26542,-0.54842c-0.07815,-0.22473 -0.30011,-0.27575 -0.52484,-0.1976c-0.04165,0.01448 -0.52721,0.14535 -0.37982,0.48177z" fill="#e9e9e9" stroke="none"/><path d="M202.82754,103.793c0,0.48633 -0.35092,0.88058 -0.78381,0.88058c-0.43289,0 -1.07411,-0.3749 -1.07411,-0.86123c0,-0.48633 0.64122,-0.89993 1.07411,-0.89993c0.43289,0 0.78381,0.39425 0.78381,0.88058zM202.26854,104.1494c0.13975,-0.10603 0.23,-0.27389 0.23,-0.46283c0,-0.28187 -0.20086,-0.51683 -0.46726,-0.56955c-0.03665,-0.00725 -0.07456,-0.01105 -0.11334,-0.01105c-0.29592,-0.06481 -0.6193,0.32805 -0.6193,0.58061c0,0.2998 0.22717,0.50904 0.48585,0.56519c0.04285,0.01008 0.08753,0.01541 0.13345,0.01541c0.01089,0 0.02171,-0.0003 0.03245,-0.00089c0.08965,-0.00379 0.17817,-0.02687 0.25785,-0.07168c0.02249,-0.01265 0.04243,-0.02789 0.0603,-0.0452z" fill="#e9e9e9" stroke="none"/><path d="M207.66525,99.07007c0,0.37506 -0.2922,0.78592 -0.67146,0.78592c-0.37927,0 -0.68672,-0.30405 -0.68672,-0.6791c0,-0.37506 0.30746,-0.67909 0.68672,-0.67909c0.37927,0 0.67146,0.19721 0.67146,0.57227zM206.99379,99.71864c0.25284,0 0.45782,-0.34232 0.45782,-0.59516c0,-0.25284 -0.22024,-0.44255 -0.47307,-0.44255c-0.25284,0 -0.48834,0.23549 -0.48834,0.48833c0,0.25284 0.25076,0.54938 0.5036,0.54938z" fill="#e9e9e9" stroke="none"/><path d="M204.40979,98.3686c0,3.2395 -1.77272,6.89694 -1.99818,6.89694c-0.22546,0 1.69738,-3.61447 1.69738,-6.85397c0,-3.2395 -1.49312,-6.29534 -1.26766,-6.29534c0.22546,0 1.56847,3.01287 1.56847,6.25236z" fill="#e9e9e9" stroke="none"/><path d="M201.34622,98.35601c0,3.2395 -0.95626,7.24072 -1.18172,7.24072c-0.22546,0 0.88092,-3.95825 0.88092,-7.19774c0,-3.2395 -0.67666,-6.93991 -0.4512,-6.93991c0.22546,0 0.752,3.65744 0.752,6.89694z" fill="#e9e9e9" stroke="none"/><path d="M206.71766,98.59952c0,2.5196 -1.42894,5.10645 -1.6544,5.10645c-0.22546,0 1.35361,-2.68234 1.35361,-5.20194c0,-2.5196 -1.49313,-4.89638 -1.26767,-4.89638c0.22546,0 1.56846,2.47226 1.56846,4.99187z" fill="#e9e9e9" stroke="none"/><path d="M201.96041,97.25656c0,0.28411 -0.41734,0.72855 -0.63202,1.01173c-0.10719,0.1414 0.04633,0.2636 -0.09198,0.2636c-0.15286,0 -0.04684,-0.19907 -0.17032,-0.36572c-0.21202,-0.28615 -0.60968,-0.64042 -0.60968,-0.90961c0,-0.30978 0.37408,-0.75946 0.63094,-1.02756c0.09635,-0.10056 0.00777,-0.24777 0.12106,-0.24777c0.14633,0 0.03088,0.21746 0.1464,0.37267c0.21235,0.28531 0.6056,0.62678 0.6056,0.90266z" fill="#e9e9e9" stroke="none"/><path d="M204.49573,101.14769c0,0.23349 -0.42318,0.60974 -0.67042,0.76628c-0.09203,0.05827 0.0092,0.03786 -0.0777,0.03786c-0.32039,0 -0.4121,-0.48375 -0.4121,-0.80414c0,-0.32039 0.45574,-0.86015 0.77613,-0.86015c0.12273,0 0.03977,0.0512 0.09802,0.16692c0.09382,0.18639 0.28609,0.49556 0.28609,0.69323z" fill="#e9e9e9" stroke="none"/><path d="M194.8508,93.76843c0.19914,0 -1.11965,2.09927 -1.11965,4.3247c0,2.22544 1.39471,4.59461 1.19557,4.59461c-0.19914,0 -1.46125,-2.28483 -1.46125,-4.51026c0,-2.22544 1.18619,-4.40905 1.38533,-4.40905z" data-paper-data="{&quot;index&quot;:null}" fill="#e9e9e9" stroke="none"/></g></g></g></g></svg>