<svg version="1.1" xmlns="http://www.w3.org/2000/svg" xmlns:xlink="http://www.w3.org/1999/xlink" width="140.89989" height="180.2306" viewBox="0,0,140.89989,180.2306"><defs><linearGradient x1="240.27333" y1="29.06428" x2="240.27333" y2="247.96086" gradientUnits="userSpaceOnUse" id="color-1"><stop offset="0" stop-color="#000000"/><stop offset="1" stop-color="#000000" stop-opacity="0"/></linearGradient><linearGradient x1="187.77506" y1="128.42288" x2="288.40741" y2="128.42288" gradientUnits="userSpaceOnUse" id="color-2"><stop offset="0" stop-color="#fff89f" stop-opacity="0"/><stop offset="1" stop-color="#fff89f"/></linearGradient><linearGradient x1="290.9074" y1="128.42288" x2="190.27505" y2="128.42288" gradientUnits="userSpaceOnUse" id="color-3"><stop offset="0" stop-color="#ff9090" stop-opacity="0"/><stop offset="1" stop-color="#ff9090"/></linearGradient></defs><g transform="translate(-171.81451,-29.03011)"><g data-paper-data="{&quot;isPaintingLayer&quot;:true}" fill-rule="nonzero" stroke-linecap="butt" stroke-linejoin="miter" stroke-miterlimit="10" stroke-dasharray="" stroke-dashoffset="0" style="mix-blend-mode: normal"><path d="M283.12482,177.64427c0.07429,2.30273 -6.68273,8.6545 -41.88034,8.6545c-35.19764,0 -45.02477,-5.42196 -45.03655,-9.12882c-0.01016,-3.20032 9.11056,-7.4687 44.30818,-7.4687c35.19762,0 42.54073,5.83664 42.60871,7.94301z" fill="url(#color-1)" stroke="none" stroke-width="0"/><text transform="translate(218.12796,203.93019) scale(0.31356,0.31356)" font-size="40" xml:space="preserve" fill="#ff00e9" fill-rule="nonzero" stroke="#ff00e9" stroke-width="1" stroke-linecap="butt" stroke-linejoin="miter" stroke-miterlimit="10" stroke-dasharray="" stroke-dashoffset="0" font-family="Handwriting" font-weight="normal" text-anchor="start" style="mix-blend-mode: normal"></text><text transform="translate(200.93815,65.59874) scale(0.26747,0.26747)" font-size="40" xml:space="preserve" fill="#ffffff" fill-rule="nonzero" stroke="#ffffff" stroke-width="1" stroke-linecap="butt" stroke-linejoin="miter" stroke-miterlimit="10" stroke-dasharray="" stroke-dashoffset="0" font-family="Handwriting" font-weight="normal" text-anchor="start" style="mix-blend-mode: normal"></text><text transform="translate(172.04127,46.26349) scale(0.45351,0.45351)" font-size="40" xml:space="preserve" fill="#ff00e9" fill-rule="nonzero" stroke="#ff00e9" stroke-width="1" stroke-linecap="butt" stroke-linejoin="miter" stroke-miterlimit="10" stroke-dasharray="" stroke-dashoffset="0" font-family="Handwriting" font-weight="normal" text-anchor="start" style="mix-blend-mode: normal"></text><path d="M289.75004,129.25c0,27.3381 -22.49769,49.5 -50.25,49.5c-27.75231,0 -50.25,-22.1619 -50.25,-49.5c0,-27.33809 22.49769,-49.5 50.25,-49.5c27.75231,0 50.25,22.16191 50.25,49.5z" fill="#b5ad94" stroke="none" stroke-width="0"/><path d="M250.01614,115.82415c0,11.73605 -11.73781,22.58334 -23.75,22.58334c-12.01219,0 -23.41666,-12.18062 -23.41666,-23.91667c0,-11.73605 8.07114,-21.91667 20.08334,-21.91667c12.01219,0 27.08333,11.51395 27.08333,23.25z" fill="#d1c59d" stroke="none" stroke-width="0"/><path d="M270.26614,107.15748c0,12.4264 -8.0736,27.83333 -20.5,27.83333c-12.4264,0 -23.83333,-14.74026 -23.83333,-27.16666c0,-12.42641 10.07359,-22.5 22.5,-22.5c12.4264,0 21.83333,9.40693 21.83333,21.83334z" fill="#d1c59d" stroke="none" stroke-width="0"/><path d="M269.26613,158.49083c0,5.98308 -8.48206,10.83334 -14.83333,10.83334c-6.35127,0 -11.5,-4.85025 -11.5,-10.83334c0,-5.98308 3.14873,-12.83333 9.5,-12.83333c6.35127,0 16.83333,6.85025 16.83333,12.83333z" fill="#d1c59d" stroke="none" stroke-width="0"/><path d="M210.59946,136.82414c0,3.86599 -1.20862,9 -5.16666,9c-3.95804,0 -9.16667,-5.13401 -9.16667,-9c0,-3.86599 3.20863,-7 7.16667,-7c3.95804,0 7.16666,3.13401 7.16666,7z" fill="#d1c59d" stroke="none" stroke-width="0"/><path d="M278.59945,137.82414c0,5.89104 -5.59154,7.66667 -11.66666,7.66667c-6.07513,0 -11,-4.77563 -11,-10.66667c0,-5.89104 4.92487,-10.66666 11,-10.66666c6.07513,0 11.66666,7.77563 11.66666,13.66666z" fill="#d1c59d" stroke="none" stroke-width="0"/><path d="M238.49234,178.48705c-24.30865,0.52094 -51.33199,-21.47742 -50.70663,-48.42554c0.52389,-22.57549 14.93432,-50.73472 53.98341,-51.70231c15.86628,-0.39315 47.06209,11.25345 46.63392,51.21959c-0.41212,38.46788 -32.15287,48.52772 -49.91069,48.90827z" fill="url(#color-2)" stroke="none" stroke-width="0"/><path d="M240.19011,178.48706c-17.75782,-0.38055 -49.49857,-10.44039 -49.91069,-48.90827c-0.42817,-39.96614 30.76764,-51.61274 46.63392,-51.21959c39.04909,0.96759 53.45952,29.12682 53.98341,51.70231c0.62536,26.94812 -26.39798,48.94648 -50.70663,48.42554z" data-paper-data="{&quot;index&quot;:null}" fill="url(#color-3)" stroke="none" stroke-width="0"/></g></g></svg>