<svg version="1.1" xmlns="http://www.w3.org/2000/svg" xmlns:xlink="http://www.w3.org/1999/xlink" width="124.37247" height="162.24161" viewBox="0,0,124.37247,162.24161"><defs><linearGradient x1="240.61955" y1="58.29931" x2="240.61955" y2="237.16754" gradientUnits="userSpaceOnUse" id="color-1"><stop offset="0" stop-color="#000000"/><stop offset="1" stop-color="#000000" stop-opacity="0"/></linearGradient><radialGradient cx="213.73084" cy="129.44809" r="16.40699" gradientUnits="userSpaceOnUse" id="color-2"><stop offset="0" stop-color="#323232" stop-opacity="0"/><stop offset="1" stop-color="#323232"/></radialGradient><radialGradient cx="229.40577" cy="92.0481" r="21.28244" gradientUnits="userSpaceOnUse" id="color-3"><stop offset="0" stop-color="#7d7d7d"/><stop offset="1" stop-color="#7d7d7d" stop-opacity="0"/></radialGradient><radialGradient cx="260.70133" cy="111.9041" r="31.92368" gradientUnits="userSpaceOnUse" id="color-4"><stop offset="0" stop-color="#7d7d7d"/><stop offset="1" stop-color="#7d7d7d" stop-opacity="0"/></radialGradient><radialGradient cx="235.21109" cy="141.84402" r="29.11558" gradientUnits="userSpaceOnUse" id="color-5"><stop offset="0" stop-color="#828282"/><stop offset="1" stop-color="#828282" stop-opacity="0"/></radialGradient><radialGradient cx="236.50629" cy="120.23105" r="14.63168" gradientUnits="userSpaceOnUse" id="color-6"><stop offset="0" stop-color="#808080"/><stop offset="1" stop-color="#808080" stop-opacity="0"/></radialGradient><radialGradient cx="232.38269" cy="103.21973" r="2.21242" gradientUnits="userSpaceOnUse" id="color-7"><stop offset="0" stop-color="#ffffff"/><stop offset="1" stop-color="#ffffff" stop-opacity="0"/></radialGradient><radialGradient cx="240.21013" cy="86.70265" r="1.50846" gradientUnits="userSpaceOnUse" id="color-8"><stop offset="0" stop-color="#ffffff"/><stop offset="1" stop-color="#ffffff" stop-opacity="0"/></radialGradient><radialGradient cx="253.76622" cy="94.18162" r="2.71525" gradientUnits="userSpaceOnUse" id="color-9"><stop offset="0" stop-color="#ffffff"/><stop offset="1" stop-color="#ffffff" stop-opacity="0"/></radialGradient><radialGradient cx="218.66513" cy="97.3171" r="1.50847" gradientUnits="userSpaceOnUse" id="color-10"><stop offset="0" stop-color="#ffffff"/><stop offset="1" stop-color="#ffffff" stop-opacity="0"/></radialGradient><radialGradient cx="230.51244" cy="163.12677" r="1.60903" gradientUnits="userSpaceOnUse" id="color-11"><stop offset="0" stop-color="#ffffff"/><stop offset="1" stop-color="#ffffff" stop-opacity="0"/></radialGradient><radialGradient cx="234.07245" cy="146.16311" r="2.31299" gradientUnits="userSpaceOnUse" id="color-12"><stop offset="0" stop-color="#ffffff"/><stop offset="1" stop-color="#ffffff" stop-opacity="0"/></radialGradient><radialGradient cx="243.4616" cy="143.93214" r="2.51411" gradientUnits="userSpaceOnUse" id="color-13"><stop offset="0" stop-color="#ffffff"/><stop offset="1" stop-color="#ffffff" stop-opacity="0"/></radialGradient><radialGradient cx="264.92472" cy="103.18055" r="2.21243" gradientUnits="userSpaceOnUse" id="color-14"><stop offset="0" stop-color="#efddc0"/><stop offset="1" stop-color="#efddc0" stop-opacity="0"/></radialGradient><radialGradient cx="229.13015" cy="152.67405" r="1.20678" gradientUnits="userSpaceOnUse" id="color-15"><stop offset="0" stop-color="#efddc0"/><stop offset="1" stop-color="#efddc0" stop-opacity="0"/></radialGradient><radialGradient cx="236.17338" cy="153.72632" r="3.01694" gradientUnits="userSpaceOnUse" id="color-16"><stop offset="0" stop-color="#efddc0"/><stop offset="1" stop-color="#efddc0" stop-opacity="0"/></radialGradient><radialGradient cx="247.03051" cy="158.1145" r="2.31299" gradientUnits="userSpaceOnUse" id="color-17"><stop offset="0" stop-color="#efddc0"/><stop offset="1" stop-color="#efddc0" stop-opacity="0"/></radialGradient><radialGradient cx="250.89184" cy="139.06529" r="2.21242" gradientUnits="userSpaceOnUse" id="color-18"><stop offset="0" stop-color="#efddc0"/><stop offset="1" stop-color="#efddc0" stop-opacity="0"/></radialGradient><radialGradient cx="258.20598" cy="131.31346" r="2.21242" gradientUnits="userSpaceOnUse" id="color-19"><stop offset="0" stop-color="#ffffff"/><stop offset="1" stop-color="#ffffff" stop-opacity="0"/></radialGradient><radialGradient cx="272.6773" cy="115.53183" r="1.50846" gradientUnits="userSpaceOnUse" id="color-20"><stop offset="0" stop-color="#ffffff"/><stop offset="1" stop-color="#ffffff" stop-opacity="0"/></radialGradient><radialGradient cx="267.24181" cy="110.70596" r="2.71524" gradientUnits="userSpaceOnUse" id="color-21"><stop offset="0" stop-color="#ffffff"/><stop offset="1" stop-color="#ffffff" stop-opacity="0"/></radialGradient><radialGradient cx="241.29765" cy="114.66087" r="1.50846" gradientUnits="userSpaceOnUse" id="color-22"><stop offset="0" stop-color="#ffffff"/><stop offset="1" stop-color="#ffffff" stop-opacity="0"/></radialGradient><radialGradient cx="244.85571" cy="111.57689" r="1.60903" gradientUnits="userSpaceOnUse" id="color-23"><stop offset="0" stop-color="#ffffff"/><stop offset="1" stop-color="#ffffff" stop-opacity="0"/></radialGradient><radialGradient cx="273.69955" cy="123.02198" r="2.31299" gradientUnits="userSpaceOnUse" id="color-24"><stop offset="0" stop-color="#ffffff"/><stop offset="1" stop-color="#ffffff" stop-opacity="0"/></radialGradient><radialGradient cx="240.90162" cy="127.63262" r="2.51411" gradientUnits="userSpaceOnUse" id="color-25"><stop offset="0" stop-color="#ffffff"/><stop offset="1" stop-color="#ffffff" stop-opacity="0"/></radialGradient><radialGradient cx="247.3335" cy="129.03308" r="2.21243" gradientUnits="userSpaceOnUse" id="color-26"><stop offset="0" stop-color="#efddc0"/><stop offset="1" stop-color="#efddc0" stop-opacity="0"/></radialGradient><radialGradient cx="264.90169" cy="116.20923" r="1.20678" gradientUnits="userSpaceOnUse" id="color-27"><stop offset="0" stop-color="#efddc0"/><stop offset="1" stop-color="#efddc0" stop-opacity="0"/></radialGradient><radialGradient cx="220.52463" cy="90.22619" r="3.01694" gradientUnits="userSpaceOnUse" id="color-28"><stop offset="0" stop-color="#efddc0"/><stop offset="1" stop-color="#efddc0" stop-opacity="0"/></radialGradient><radialGradient cx="269.83869" cy="131.9943" r="2.31299" gradientUnits="userSpaceOnUse" id="color-29"><stop offset="0" stop-color="#efddc0"/><stop offset="1" stop-color="#efddc0" stop-opacity="0"/></radialGradient><radialGradient cx="278.59627" cy="109.18002" r="2.21242" gradientUnits="userSpaceOnUse" id="color-30"><stop offset="0" stop-color="#efddc0"/><stop offset="1" stop-color="#efddc0" stop-opacity="0"/></radialGradient><radialGradient cx="233.49811" cy="96.36047" r="2.21243" gradientUnits="userSpaceOnUse" id="color-31"><stop offset="0" stop-color="#ffffff"/><stop offset="1" stop-color="#ffffff" stop-opacity="0"/></radialGradient><radialGradient cx="231.90941" cy="86.41796" r="1.50846" gradientUnits="userSpaceOnUse" id="color-32"><stop offset="0" stop-color="#ffffff"/><stop offset="1" stop-color="#ffffff" stop-opacity="0"/></radialGradient><radialGradient cx="259.16866" cy="103.31662" r="2.71524" gradientUnits="userSpaceOnUse" id="color-33"><stop offset="0" stop-color="#ffffff"/><stop offset="1" stop-color="#ffffff" stop-opacity="0"/></radialGradient><radialGradient cx="255.99279" cy="113.01865" r="1.50846" gradientUnits="userSpaceOnUse" id="color-34"><stop offset="0" stop-color="#ffffff"/><stop offset="1" stop-color="#ffffff" stop-opacity="0"/></radialGradient><radialGradient cx="240.91313" cy="132.44957" r="1.60903" gradientUnits="userSpaceOnUse" id="color-35"><stop offset="0" stop-color="#ffffff"/><stop offset="1" stop-color="#ffffff" stop-opacity="0"/></radialGradient><radialGradient cx="228.09616" cy="85.05879" r="2.31299" gradientUnits="userSpaceOnUse" id="color-36"><stop offset="0" stop-color="#ffffff"/><stop offset="1" stop-color="#ffffff" stop-opacity="0"/></radialGradient><radialGradient cx="238.96257" cy="108.13156" r="2.51411" gradientUnits="userSpaceOnUse" id="color-37"><stop offset="0" stop-color="#ffffff"/><stop offset="1" stop-color="#ffffff" stop-opacity="0"/></radialGradient><radialGradient cx="240.80085" cy="126.32606" r="2.21243" gradientUnits="userSpaceOnUse" id="color-38"><stop offset="0" stop-color="#efddc0"/><stop offset="1" stop-color="#efddc0" stop-opacity="0"/></radialGradient><radialGradient cx="261.60553" cy="122.40856" r="1.20678" gradientUnits="userSpaceOnUse" id="color-39"><stop offset="0" stop-color="#efddc0"/><stop offset="1" stop-color="#efddc0" stop-opacity="0"/></radialGradient><radialGradient cx="245.21135" cy="137.18169" r="3.01694" gradientUnits="userSpaceOnUse" id="color-40"><stop offset="0" stop-color="#efddc0"/><stop offset="1" stop-color="#efddc0" stop-opacity="0"/></radialGradient><radialGradient cx="219.28789" cy="81.68245" r="2.31299" gradientUnits="userSpaceOnUse" id="color-41"><stop offset="0" stop-color="#efddc0"/><stop offset="1" stop-color="#efddc0" stop-opacity="0"/></radialGradient><radialGradient cx="246.03584" cy="150.79061" r="2.21242" gradientUnits="userSpaceOnUse" id="color-42"><stop offset="0" stop-color="#efddc0"/><stop offset="1" stop-color="#efddc0" stop-opacity="0"/></radialGradient><radialGradient cx="210.43433" cy="133.33537" r="3.20345" gradientUnits="userSpaceOnUse" id="color-43"><stop offset="0" stop-color="#b7b3ff"/><stop offset="1" stop-color="#b7b3ff" stop-opacity="0"/></radialGradient><radialGradient cx="210.37905" cy="133.30707" r="2.93691" gradientUnits="userSpaceOnUse" id="color-44"><stop offset="0" stop-color="#b3c8ff"/><stop offset="1" stop-color="#b3c8ff" stop-opacity="0"/></radialGradient><radialGradient cx="210.19893" cy="133.21353" r="2.07079" gradientUnits="userSpaceOnUse" id="color-45"><stop offset="0" stop-color="#af9c8b"/><stop offset="1" stop-color="#af9c8b" stop-opacity="0"/></radialGradient><radialGradient cx="209.87857" cy="132.26109" r="1.35162" gradientUnits="userSpaceOnUse" id="color-46"><stop offset="0" stop-color="#ffffff"/><stop offset="1" stop-color="#ffffff" stop-opacity="0"/></radialGradient><radialGradient cx="210.26181" cy="133.37268" r="2.63702" gradientUnits="userSpaceOnUse" id="color-47"><stop offset="0" stop-color="#ffb3b7"/><stop offset="1" stop-color="#ffb3b7" stop-opacity="0"/></radialGradient><radialGradient cx="211.63606" cy="135.4777" r="0.83038" gradientUnits="userSpaceOnUse" id="color-48"><stop offset="0" stop-color="#ffb3b7"/><stop offset="1" stop-color="#ffb3b7" stop-opacity="0"/></radialGradient><radialGradient cx="209.75073" cy="134.40881" r="0.84834" gradientUnits="userSpaceOnUse" id="color-49"><stop offset="0" stop-color="#ffb3b7"/><stop offset="1" stop-color="#ffb3b7" stop-opacity="0"/></radialGradient><radialGradient cx="212.41641" cy="132.90079" r="1.02892" gradientUnits="userSpaceOnUse" id="color-50"><stop offset="0" stop-color="#ffb3b7"/><stop offset="1" stop-color="#ffb3b7" stop-opacity="0"/></radialGradient><radialGradient cx="209.85292" cy="132.0601" r="0.71957" gradientUnits="userSpaceOnUse" id="color-51"><stop offset="0" stop-color="#ffb3b7"/><stop offset="1" stop-color="#ffb3b7" stop-opacity="0"/></radialGradient><radialGradient cx="210.26344" cy="133.34853" r="1.50046" gradientUnits="userSpaceOnUse" id="color-52"><stop offset="0" stop-color="#ffe9cf"/><stop offset="1" stop-color="#ffe9cf" stop-opacity="0"/></radialGradient><radialGradient cx="210.34041" cy="133.45336" r="0.64925" gradientUnits="userSpaceOnUse" id="color-53"><stop offset="0" stop-color="#ffffff"/><stop offset="1" stop-color="#ffffff" stop-opacity="0"/></radialGradient><radialGradient cx="209.4838" cy="132.89079" r="1.37684" gradientUnits="userSpaceOnUse" id="color-54"><stop offset="0" stop-color="#ffffff"/><stop offset="1" stop-color="#ffffff" stop-opacity="0"/></radialGradient><radialGradient cx="211.50388" cy="135.29697" r="1.3433" gradientUnits="userSpaceOnUse" id="color-55"><stop offset="0" stop-color="#ffffff"/><stop offset="1" stop-color="#ffffff" stop-opacity="0"/></radialGradient><radialGradient cx="220.32722" cy="125.17709" r="3.81504" gradientUnits="userSpaceOnUse" id="color-56"><stop offset="0" stop-color="#b3dfff"/><stop offset="1" stop-color="#b3dfff" stop-opacity="0"/></radialGradient><radialGradient cx="220.38416" cy="125.06581" r="3.49763" gradientUnits="userSpaceOnUse" id="color-57"><stop offset="0" stop-color="#b3fffe"/><stop offset="1" stop-color="#b3fffe" stop-opacity="0"/></radialGradient><radialGradient cx="220.62047" cy="125.06027" r="2.46613" gradientUnits="userSpaceOnUse" id="color-58"><stop offset="0" stop-color="#af9c8b"/><stop offset="1" stop-color="#af9c8b" stop-opacity="0"/></radialGradient><radialGradient cx="221.11494" cy="123.97946" r="1.60966" gradientUnits="userSpaceOnUse" id="color-59"><stop offset="0" stop-color="#ffffff"/><stop offset="1" stop-color="#ffffff" stop-opacity="0"/></radialGradient><radialGradient cx="220.59642" cy="125.42928" r="4.44532" gradientUnits="userSpaceOnUse" id="color-60"><stop offset="0" stop-color="#e07641"/><stop offset="1" stop-color="#e07641" stop-opacity="0"/></radialGradient><radialGradient cx="220.46246" cy="125.29953" r="1.66029" gradientUnits="userSpaceOnUse" id="color-61"><stop offset="0" stop-color="#ffe9cf"/><stop offset="1" stop-color="#ffe9cf" stop-opacity="0"/></radialGradient><radialGradient cx="220.59258" cy="125.21011" r="0.84164" gradientUnits="userSpaceOnUse" id="color-62"><stop offset="0" stop-color="#fffcca"/><stop offset="1" stop-color="#fffcca" stop-opacity="0"/></radialGradient><radialGradient cx="220.53328" cy="125.252" r="0.66478" gradientUnits="userSpaceOnUse" id="color-63"><stop offset="0" stop-color="#ffffff"/><stop offset="1" stop-color="#ffffff" stop-opacity="0"/></radialGradient><radialGradient cx="221.63151" cy="124.9792" r="1.63971" gradientUnits="userSpaceOnUse" id="color-64"><stop offset="0" stop-color="#ffffff"/><stop offset="1" stop-color="#ffffff" stop-opacity="0"/></radialGradient><radialGradient cx="219.73098" cy="124.14763" r="1.60966" gradientUnits="userSpaceOnUse" id="color-65"><stop offset="0" stop-color="#ffffff"/><stop offset="1" stop-color="#ffffff" stop-opacity="0"/></radialGradient><radialGradient cx="213.65959" cy="137.64753" r="1.6302" gradientUnits="userSpaceOnUse" id="color-66"><stop offset="0" stop-color="#6e7db7"/><stop offset="1" stop-color="#6e7db7" stop-opacity="0"/></radialGradient><radialGradient cx="213.74031" cy="137.58774" r="1.04107" gradientUnits="userSpaceOnUse" id="color-67"><stop offset="0" stop-color="#c1c5d6"/><stop offset="1" stop-color="#c1c5d6" stop-opacity="0"/></radialGradient><radialGradient cx="214.28216" cy="137.20801" r="1.08215" gradientUnits="userSpaceOnUse" id="color-68"><stop offset="0" stop-color="#3b1a14"/><stop offset="1" stop-color="#3b1a14" stop-opacity="0"/></radialGradient><radialGradient cx="214.40682" cy="137.05863" r="0.09875" gradientUnits="userSpaceOnUse" id="color-69"><stop offset="0" stop-color="#ded9cc"/><stop offset="1" stop-color="#ded9cc" stop-opacity="0"/></radialGradient><radialGradient cx="213.543" cy="136.99193" r="0.15652" gradientUnits="userSpaceOnUse" id="color-70"><stop offset="0" stop-color="#ffffff"/><stop offset="1" stop-color="#ffffff" stop-opacity="0"/></radialGradient><radialGradient cx="214.41977" cy="138.10028" r="0.09875" gradientUnits="userSpaceOnUse" id="color-71"><stop offset="0" stop-color="#ffffff"/><stop offset="1" stop-color="#ffffff" stop-opacity="0"/></radialGradient><radialGradient cx="214.34697" cy="137.82345" r="0.07305" gradientUnits="userSpaceOnUse" id="color-72"><stop offset="0" stop-color="#dedede"/><stop offset="1" stop-color="#dedede" stop-opacity="0"/></radialGradient><radialGradient cx="213.97335" cy="136.78826" r="0.07305" gradientUnits="userSpaceOnUse" id="color-73"><stop offset="0" stop-color="#dedede"/><stop offset="1" stop-color="#dedede" stop-opacity="0"/></radialGradient><radialGradient cx="213.98792" cy="137.59212" r="0.07305" gradientUnits="userSpaceOnUse" id="color-74"><stop offset="0" stop-color="#dedcd7"/><stop offset="1" stop-color="#dedcd7" stop-opacity="0"/></radialGradient><radialGradient cx="214.18362" cy="138.14048" r="0.07305" gradientUnits="userSpaceOnUse" id="color-75"><stop offset="0" stop-color="#dedede"/><stop offset="1" stop-color="#dedede" stop-opacity="0"/></radialGradient><radialGradient cx="214.62346" cy="136.85437" r="0.04044" gradientUnits="userSpaceOnUse" id="color-76"><stop offset="0" stop-color="#ffffff"/><stop offset="1" stop-color="#ffffff" stop-opacity="0"/></radialGradient><radialGradient cx="213.70314" cy="136.81231" r="0.04044" gradientUnits="userSpaceOnUse" id="color-77"><stop offset="0" stop-color="#ffffff"/><stop offset="1" stop-color="#ffffff" stop-opacity="0"/></radialGradient><radialGradient cx="214.62831" cy="137.50942" r="0.04043" gradientUnits="userSpaceOnUse" id="color-78"><stop offset="0" stop-color="#ffffff"/><stop offset="1" stop-color="#ffffff" stop-opacity="0"/></radialGradient><radialGradient cx="214.44393" cy="137.20858" r="0.04044" gradientUnits="userSpaceOnUse" id="color-79"><stop offset="0" stop-color="#ffffff"/><stop offset="1" stop-color="#ffffff" stop-opacity="0"/></radialGradient><radialGradient cx="213.12737" cy="137.5455" r="0.09875" gradientUnits="userSpaceOnUse" id="color-80"><stop offset="0" stop-color="#ded9cc"/><stop offset="1" stop-color="#ded9cc" stop-opacity="0"/></radialGradient><radialGradient cx="213.01084" cy="137.22971" r="0.15652" gradientUnits="userSpaceOnUse" id="color-81"><stop offset="0" stop-color="#ffffff"/><stop offset="1" stop-color="#ffffff" stop-opacity="0"/></radialGradient><radialGradient cx="213.32147" cy="138.54186" r="0.09875" gradientUnits="userSpaceOnUse" id="color-82"><stop offset="0" stop-color="#ffffff"/><stop offset="1" stop-color="#ffffff" stop-opacity="0"/></radialGradient><radialGradient cx="213.53173" cy="138.09519" r="0.07305" gradientUnits="userSpaceOnUse" id="color-83"><stop offset="0" stop-color="#dedede"/><stop offset="1" stop-color="#dedede" stop-opacity="0"/></radialGradient><radialGradient cx="212.79579" cy="137.71672" r="0.07306" gradientUnits="userSpaceOnUse" id="color-84"><stop offset="0" stop-color="#dedede"/><stop offset="1" stop-color="#dedede" stop-opacity="0"/></radialGradient><radialGradient cx="212.88962" cy="138.22619" r="0.07306" gradientUnits="userSpaceOnUse" id="color-85"><stop offset="0" stop-color="#dedcd7"/><stop offset="1" stop-color="#dedcd7" stop-opacity="0"/></radialGradient><radialGradient cx="213.13061" cy="138.20841" r="0.07306" gradientUnits="userSpaceOnUse" id="color-86"><stop offset="0" stop-color="#dedede"/><stop offset="1" stop-color="#dedede" stop-opacity="0"/></radialGradient><radialGradient cx="213.9441" cy="137.0695" r="0.04044" gradientUnits="userSpaceOnUse" id="color-87"><stop offset="0" stop-color="#ffffff"/><stop offset="1" stop-color="#ffffff" stop-opacity="0"/></radialGradient><radialGradient cx="212.79733" cy="137.503" r="0.04044" gradientUnits="userSpaceOnUse" id="color-88"><stop offset="0" stop-color="#ffffff"/><stop offset="1" stop-color="#ffffff" stop-opacity="0"/></radialGradient><radialGradient cx="213.66588" cy="138.48317" r="0.04043" gradientUnits="userSpaceOnUse" id="color-89"><stop offset="0" stop-color="#ffffff"/><stop offset="1" stop-color="#ffffff" stop-opacity="0"/></radialGradient><radialGradient cx="213.20976" cy="137.93323" r="0.04043" gradientUnits="userSpaceOnUse" id="color-90"><stop offset="0" stop-color="#ffffff"/><stop offset="1" stop-color="#ffffff" stop-opacity="0"/></radialGradient><radialGradient cx="225.56429" cy="139.22485" r="2.23297" gradientUnits="userSpaceOnUse" id="color-91"><stop offset="0" stop-color="#a1d3e6"/><stop offset="1" stop-color="#a1d3e6" stop-opacity="0"/></radialGradient><radialGradient cx="225.59924" cy="139.15811" r="2.72605" gradientUnits="userSpaceOnUse" id="color-92"><stop offset="0" stop-color="#96d6d5"/><stop offset="1" stop-color="#96d6d5" stop-opacity="0"/></radialGradient><radialGradient cx="225.52918" cy="139.03011" r="1.42002" gradientUnits="userSpaceOnUse" id="color-93"><stop offset="0" stop-color="#af9c8b"/><stop offset="1" stop-color="#af9c8b" stop-opacity="0"/></radialGradient><radialGradient cx="225.2212" cy="138.32192" r="0.92686" gradientUnits="userSpaceOnUse" id="color-94"><stop offset="0" stop-color="#ffffff"/><stop offset="1" stop-color="#ffffff" stop-opacity="0"/></radialGradient><radialGradient cx="225.57118" cy="139.19198" r="1.80831" gradientUnits="userSpaceOnUse" id="color-95"><stop offset="0" stop-color="#ffb3b7"/><stop offset="1" stop-color="#ffb3b7" stop-opacity="0"/></radialGradient><radialGradient cx="225.55717" cy="139.17641" r="1.02892" gradientUnits="userSpaceOnUse" id="color-96"><stop offset="0" stop-color="#ffe9cf"/><stop offset="1" stop-color="#ffe9cf" stop-opacity="0"/></radialGradient><radialGradient cx="225.61598" cy="139.19538" r="0.49781" gradientUnits="userSpaceOnUse" id="color-97"><stop offset="0" stop-color="#fffee4"/><stop offset="1" stop-color="#fffee4" stop-opacity="0"/></radialGradient><radialGradient cx="225.56528" cy="139.21869" r="0.35825" gradientUnits="userSpaceOnUse" id="color-98"><stop offset="0" stop-color="#ffffff"/><stop offset="1" stop-color="#ffffff" stop-opacity="0"/></radialGradient><radialGradient cx="225.98754" cy="138.68477" r="0.94415" gradientUnits="userSpaceOnUse" id="color-99"><stop offset="0" stop-color="#ffffff"/><stop offset="1" stop-color="#ffffff" stop-opacity="0"/></radialGradient><radialGradient cx="225.02287" cy="140.97289" r="2.2954" gradientUnits="userSpaceOnUse" id="color-100"><stop offset="0" stop-color="#ffb3b7"/><stop offset="1" stop-color="#ffb3b7" stop-opacity="0"/></radialGradient><radialGradient cx="207.90806" cy="122.83462" r="0.0477" gradientUnits="userSpaceOnUse" id="color-101"><stop offset="0" stop-color="#fffdf7"/><stop offset="1" stop-color="#fffdf7" stop-opacity="0"/></radialGradient><radialGradient cx="208.37275" cy="121.05418" r="1.47221" gradientUnits="userSpaceOnUse" id="color-102"><stop offset="0" stop-color="#984e5c" stop-opacity="0"/><stop offset="1" stop-color="#984e5c"/></radialGradient><radialGradient cx="208.11276" cy="121.38446" r="1.34159" gradientUnits="userSpaceOnUse" id="color-103"><stop offset="0" stop-color="#9990c7"/><stop offset="1" stop-color="#9990c7" stop-opacity="0"/></radialGradient><radialGradient cx="208.79557" cy="120.75772" r="1.34159" gradientUnits="userSpaceOnUse" id="color-104"><stop offset="0" stop-color="#9990c7"/><stop offset="1" stop-color="#9990c7" stop-opacity="0"/></radialGradient><radialGradient cx="208.46684" cy="121.11642" r="1.69648" gradientUnits="userSpaceOnUse" id="color-105"><stop offset="0" stop-color="#c8b282"/><stop offset="1" stop-color="#c8b282" stop-opacity="0"/></radialGradient><radialGradient cx="207.64183" cy="121.78889" r="0.71778" gradientUnits="userSpaceOnUse" id="color-106"><stop offset="0" stop-color="#ffffff"/><stop offset="1" stop-color="#ffffff" stop-opacity="0"/></radialGradient><radialGradient cx="208.45315" cy="121.1406" r="0.639" gradientUnits="userSpaceOnUse" id="color-107"><stop offset="0" stop-color="#984e5c"/><stop offset="1" stop-color="#984e5c" stop-opacity="0"/></radialGradient><radialGradient cx="208.90551" cy="120.70195" r="0.59204" gradientUnits="userSpaceOnUse" id="color-108"><stop offset="0" stop-color="#ffffff"/><stop offset="1" stop-color="#ffffff" stop-opacity="0"/></radialGradient><radialGradient cx="208.02917" cy="121.38145" r="0.71778" gradientUnits="userSpaceOnUse" id="color-109"><stop offset="0" stop-color="#ffffff"/><stop offset="1" stop-color="#ffffff" stop-opacity="0"/></radialGradient><radialGradient cx="208.75796" cy="119.67551" r="0.51878" gradientUnits="userSpaceOnUse" id="color-110"><stop offset="0" stop-color="#f1ffff"/><stop offset="1" stop-color="#f1ffff" stop-opacity="0"/></radialGradient><radialGradient cx="209.76769" cy="120.19944" r="0.51348" gradientUnits="userSpaceOnUse" id="color-111"><stop offset="0" stop-color="#ffffff"/><stop offset="1" stop-color="#ffffff" stop-opacity="0"/></radialGradient><radialGradient cx="209.3738" cy="120.11639" r="0.38643" gradientUnits="userSpaceOnUse" id="color-112"><stop offset="0" stop-color="#ffffff"/><stop offset="1" stop-color="#ffffff" stop-opacity="0"/></radialGradient><radialGradient cx="209.53774" cy="120.95612" r="0.56112" gradientUnits="userSpaceOnUse" id="color-113"><stop offset="0" stop-color="#ffffff"/><stop offset="1" stop-color="#ffffff" stop-opacity="0"/></radialGradient><radialGradient cx="226.56381" cy="130.64728" r="2.016" gradientUnits="userSpaceOnUse" id="color-114"><stop offset="0" stop-color="#ffffff"/><stop offset="1" stop-color="#ffffff" stop-opacity="0"/></radialGradient><radialGradient cx="215.63707" cy="120.84951" r="0.68544" gradientUnits="userSpaceOnUse" id="color-115"><stop offset="0" stop-color="#ffffff"/><stop offset="1" stop-color="#ffffff" stop-opacity="0"/></radialGradient><radialGradient cx="208.41978" cy="139.5177" r="1.73376" gradientUnits="userSpaceOnUse" id="color-116"><stop offset="0" stop-color="#ffffff"/><stop offset="1" stop-color="#ffffff" stop-opacity="0"/></radialGradient><radialGradient cx="209.50842" cy="125.97016" r="1.08864" gradientUnits="userSpaceOnUse" id="color-117"><stop offset="0" stop-color="#ffffff"/><stop offset="1" stop-color="#ffffff" stop-opacity="0"/></radialGradient></defs><g transform="translate(-186.08295,-50.09483)"><g data-paper-data="{&quot;isPaintingLayer&quot;:true}" fill-rule="nonzero" stroke-linecap="butt" stroke-linejoin="miter" stroke-miterlimit="10" stroke-dasharray="" stroke-dashoffset="0" style="mix-blend-mode: normal"><path d="M284.37023,179.70942c0.07585,1.88165 -6.82295,7.07192 -42.75929,7.07192c-35.93634,0 -45.96971,-4.43047 -45.98172,-7.45949c-0.01038,-2.6151 9.30175,-6.10294 45.23807,-6.10294c35.93634,0 43.43354,4.76932 43.50294,6.49051z" fill="url(#color-1)" stroke="none" stroke-width="0"/><text transform="translate(230.71782,206.35669) scale(0.357,0.357)" font-size="40" xml:space="preserve" fill="#ffffff" fill-rule="nonzero" stroke="#ffffff" stroke-width="0.5" stroke-linecap="butt" stroke-linejoin="miter" stroke-miterlimit="10" stroke-dasharray="" stroke-dashoffset="0" font-family="Handwriting" font-weight="normal" text-anchor="start" style="mix-blend-mode: normal"><tspan x="0" dy="0">5Ym</tspan></text><text transform="translate(186.25544,63.20369) scale(0.34497,0.34497)" font-size="40" xml:space="preserve" fill="#ffffff" fill-rule="nonzero" stroke="#ffffff" stroke-width="1" stroke-linecap="butt" stroke-linejoin="miter" stroke-miterlimit="10" stroke-dasharray="" stroke-dashoffset="0" font-family="Handwriting" font-weight="normal" text-anchor="start" style="mix-blend-mode: normal"><tspan x="0" dy="0">Laniakea Supercluster</tspan></text><g><path d="M229.06781,129.44809c0,8.1749 -6.8666,14.80196 -15.33697,14.80196c-8.47037,0 -15.33697,-6.62706 -15.33697,-14.80196c0,-8.1749 6.8666,-14.80196 15.33697,-14.80196c8.47037,0 15.33697,6.62706 15.33697,14.80196z" fill="url(#color-2)" stroke="none" stroke-width="0"/><path d="M222.24921,73.10713c10.9953,-4.15441 23.11286,0.95795 27.06532,11.41876c3.95245,10.46081 -1.7569,22.30879 -12.75221,26.46319c-10.9953,4.15441 -23.11286,-0.95795 -27.06532,-11.41875c-3.95245,-10.46081 1.7569,-22.30879 12.7522,-26.4632z" fill="url(#color-3)" stroke="none" stroke-width="0"/><path d="M249.41801,82.04097c15.9432,-6.02389 33.91943,2.46296 40.15104,18.95593c6.23161,16.49295 -1.64119,34.74647 -17.58438,40.77035c-15.9432,6.02389 -33.91943,-2.46296 -40.15104,-18.95593c-6.23161,-16.49295 1.64119,-34.74647 17.58438,-40.77035z" fill="url(#color-4)" stroke="none" stroke-width="0"/><path d="M224.92028,114.60773c13.31393,-5.03047 28.71437,3.08563 34.39783,18.12783c5.68346,15.0422 -0.50228,31.31429 -13.81621,36.34475c-13.31393,5.03047 -28.71436,-3.08564 -34.39782,-18.12783c-5.68346,-15.0422 0.50226,-31.31429 13.8162,-36.34476z" fill="url(#color-5)" stroke="none" stroke-width="0"/><path d="M231.33478,106.54378c7.25384,-2.74075 15.44963,1.16542 18.30578,8.7247c2.85615,7.55927 -0.70889,15.9091 -7.96273,18.64985c-7.25384,2.74075 -15.44963,-1.16542 -18.30578,-8.7247c-2.85615,-7.55927 0.70889,-15.9091 7.96273,-18.64985z" fill="url(#color-6)" stroke="none" stroke-width="0"/><path d="M231.53602,103.53962c-0.43187,-1.14302 -0.40291,-2.21284 0.06469,-2.38952c0.4676,-0.17667 1.19677,0.6067 1.62864,1.74972c0.43187,1.14302 0.40291,2.21284 -0.06469,2.38952c-0.4676,0.17667 -1.19677,-0.6067 -1.62864,-1.74972z" fill="url(#color-7)" stroke="none" stroke-width="0"/><path d="M239.6073,86.33913c0.43021,-0.71344 1.04886,-1.12902 1.38179,-0.92825c0.33294,0.20077 0.25408,0.94186 -0.17614,1.65529c-0.43021,0.71344 -1.04886,1.12902 -1.3818,0.92826c-0.33294,-0.20077 -0.25408,-0.94186 0.17614,-1.65529z" fill="url(#color-8)" stroke="none" stroke-width="0"/><path d="M253.06271,94.15711c0.05222,-1.49868 0.40953,-2.70262 0.79808,-2.68909c0.38855,0.01354 0.6612,1.23943 0.60898,2.73811c-0.05222,1.49867 -0.40953,2.70262 -0.79808,2.68909c-0.38855,-0.01354 -0.66119,-1.23944 -0.60898,-2.73811z" fill="url(#color-9)" stroke="none" stroke-width="0"/><path d="M217.70714,98.48232c-0.47193,-0.388 -0.42559,-1.22421 0.10349,-1.86774c0.52908,-0.64353 1.34057,-0.85069 1.81249,-0.46269c0.47193,0.388 0.42559,1.22421 -0.1035,1.86774c-0.52908,0.64353 -1.34055,0.85068 -1.81249,0.46269z" fill="url(#color-10)" stroke="none" stroke-width="0"/><path d="M229.80448,163.97677c-0.68282,-0.56872 -0.91942,-1.41031 -0.52842,-1.87976c0.391,-0.46944 1.26149,-0.38897 1.94432,0.17974c0.68282,0.56872 0.91942,1.41031 0.52843,1.87975c-0.391,0.46944 -1.26149,0.38897 -1.94432,-0.17974z" fill="url(#color-11)" stroke="none" stroke-width="0"/><path d="M234.35576,145.0938c1.23483,0.32716 2.109,1.07113 1.95253,1.66169c-0.15647,0.59057 -1.28433,0.8041 -2.51915,0.47694c-1.23483,-0.32716 -2.109,-1.07113 -1.95253,-1.66169c0.15647,-0.59057 1.28433,-0.8041 2.51915,-0.47694z" fill="url(#color-12)" stroke="none" stroke-width="0"/><path d="M242.78898,144.67974c-1.03222,-0.92869 -1.56786,-2.01626 -1.19638,-2.42915c0.37148,-0.41289 1.5094,0.00525 2.54162,0.93395c1.03222,0.9287 1.56786,2.01626 1.19638,2.42915c-0.37148,0.41289 -1.5094,-0.00524 -2.54162,-0.93394z" fill="url(#color-13)" stroke="none" stroke-width="0"/><path d="M262.73858,102.84054c0.10242,-0.65857 1.16423,-1.04021 2.37161,-0.85243c1.20737,0.18779 2.10311,0.87389 2.00067,1.53246c-0.10242,0.65857 -1.16423,1.04021 -2.37159,0.85242c-1.20737,-0.18779 -2.10311,-0.87389 -2.00068,-1.53245z" fill="url(#color-14)" stroke="none" stroke-width="0"/><path d="M228.47163,152.92286c-0.23557,-0.62346 -0.1317,-1.24028 0.23198,-1.3777c0.36368,-0.13741 0.84948,0.25661 1.08504,0.88007c0.23557,0.62347 0.1317,1.24028 -0.23198,1.3777c-0.36368,0.13741 -0.84948,-0.25661 -1.08504,-0.88007z" fill="url(#color-15)" stroke="none" stroke-width="0"/><path d="M235.5841,153.59663c0.35817,-1.62727 0.91234,-2.88834 1.23779,-2.8167c0.32546,0.07164 0.29893,1.44885 -0.05924,3.07612c-0.35817,1.62727 -0.91234,2.88834 -1.23779,2.8167c-0.32546,-0.07164 -0.29893,-1.44885 0.05924,-3.07612z" fill="url(#color-16)" stroke="none" stroke-width="0"/><path d="M245.39905,159.75409c-0.19685,-0.19588 0.374,-1.08874 1.27503,-1.99425c0.90103,-0.90552 1.79104,-1.48079 1.9879,-1.28491c0.19685,0.19588 -0.374,1.08874 -1.27503,1.99425c-0.90103,0.90552 -1.79104,1.48079 -1.9879,1.28491z" fill="url(#color-17)" stroke="none" stroke-width="0"/><path d="M250.02163,138.81646c0.33593,-1.17481 0.99787,-2.01576 1.47847,-1.87833c0.4806,0.13742 0.59787,1.2012 0.26194,2.37599c-0.33593,1.17481 -0.99787,2.01576 -1.47847,1.87833c-0.4806,-0.13742 -0.59789,-1.20118 -0.26195,-2.37599z" fill="url(#color-18)" stroke="none" stroke-width="0"/><path d="M257.42401,129.24384c0.4676,-0.17667 1.19677,0.6067 1.62864,1.74972c0.43187,1.14302 0.40292,2.21285 -0.06468,2.38952c-0.4676,0.17667 -1.19677,-0.6067 -1.62864,-1.74973c-0.43187,-1.14302 -0.40291,-2.21284 0.06469,-2.38952z" fill="url(#color-19)" stroke="none" stroke-width="0"/><path d="M271.23875,115.07792c0.117,-0.37076 0.85589,-0.4681 1.65038,-0.2174c0.79449,0.2507 1.34372,0.75449 1.22673,1.12526c-0.117,0.37076 -0.8559,0.46809 -1.65039,0.2174c-0.79449,-0.2507 -1.34371,-0.75448 -1.22672,-1.12524z" fill="url(#color-20)" stroke="none" stroke-width="0"/><path d="M265.37648,108.73289c0.28252,-0.26708 1.34669,0.39977 2.37689,1.48948c1.0302,1.08971 1.63631,2.18961 1.3538,2.45669c-0.28252,0.26708 -1.34669,-0.39977 -2.37688,-1.48948c-1.0302,-1.08971 -1.63632,-2.18961 -1.3538,-2.45669z" fill="url(#color-21)" stroke="none" stroke-width="0"/><path d="M241.47408,113.56883c0.82245,0.13288 1.41016,0.72953 1.31272,1.33265c-0.09745,0.60313 -0.84316,0.98433 -1.66559,0.85145c-0.82245,-0.13288 -1.41016,-0.72953 -1.31271,-1.33266c0.09745,-0.60313 0.84314,-0.98432 1.66559,-0.85145z" fill="url(#color-22)" stroke="none" stroke-width="0"/><path d="M245.10224,109.98686c0.60373,0.09359 0.98277,0.88137 0.84662,1.75952c-0.13615,0.87816 -0.73594,1.51414 -1.33967,1.42055c-0.60373,-0.09359 -0.98277,-0.88137 -0.84662,-1.75952c0.13615,-0.87816 0.73595,-1.51415 1.33968,-1.42055z" fill="url(#color-23)" stroke="none" stroke-width="0"/><path d="M272.41406,124.94484c-0.50789,-0.33954 -0.3441,-1.4757 0.36586,-2.53767c0.70996,-1.06197 1.69722,-1.6476 2.20513,-1.30806c0.50789,0.33954 0.3441,1.4757 -0.36586,2.53767c-0.70996,1.06197 -1.69722,1.6476 -2.20513,1.30806z" fill="url(#color-24)" stroke="none" stroke-width="0"/><path d="M241.19169,125.1353c0.55169,0.06408 0.86906,1.23412 0.70885,2.61336c-0.1602,1.37925 -0.73732,2.44537 -1.28901,2.38129c-0.55169,-0.06408 -0.86905,-1.23412 -0.70885,-2.61336c0.1602,-1.37925 0.73732,-2.44537 1.28901,-2.38129z" fill="url(#color-25)" stroke="none" stroke-width="0"/><path d="M246.40585,128.26122c0.78153,-0.93926 1.83041,-1.35511 2.34275,-0.92881c0.51233,0.4263 0.2941,1.53329 -0.48745,2.47256c-0.78153,0.93926 -1.83041,1.35511 -2.34275,0.92881c-0.51233,-0.4263 -0.2941,-1.53329 0.48745,-2.47256z" fill="url(#color-26)" stroke="none" stroke-width="0"/><path d="M264.47515,115.08034c0.36368,-0.13741 0.84949,0.2566 1.08505,0.88007c0.23557,0.62347 0.1317,1.24028 -0.23199,1.3777c-0.36368,0.13741 -0.84948,-0.25661 -1.08504,-0.88007c-0.23557,-0.62347 -0.13171,-1.24028 0.23198,-1.3777z" fill="url(#color-27)" stroke="none" stroke-width="0"/><path d="M218.08977,88.44478c0.19677,-0.26895 1.4464,0.3106 2.79114,1.29445c1.34474,0.98385 2.27534,1.99943 2.07857,2.26838c-0.19677,0.26895 -1.4464,-0.3106 -2.79114,-1.29445c-1.34474,-0.98385 -2.27534,-1.99943 -2.07857,-2.26838z" fill="url(#color-28)" stroke="none" stroke-width="0"/><path d="M269.87154,131.49255c1.27469,0.08345 2.29334,0.37574 2.2752,0.65285c-0.01815,0.2771 -1.0662,0.4341 -2.3409,0.35065c-1.27469,-0.08345 -2.29334,-0.37574 -2.2752,-0.65285c0.01815,-0.2771 1.0662,-0.4341 2.3409,-0.35065z" fill="url(#color-29)" stroke="none" stroke-width="0"/><path d="M276.73336,107.98655c0.26965,-0.42089 1.32229,-0.22776 2.35115,0.43137c1.02886,0.65913 1.64432,1.53467 1.37468,1.95557c-0.26965,0.42089 -1.32229,0.22776 -2.35115,-0.43137c-1.02886,-0.65913 -1.64432,-1.53467 -1.37467,-1.95557z" fill="url(#color-30)" stroke="none" stroke-width="0"/><path d="M235.44314,97.41483c-0.23822,0.43945 -1.30214,0.32365 -2.37636,-0.25866c-1.07422,-0.58231 -1.75192,-1.4106 -1.51372,-1.85005c0.23822,-0.43945 1.30215,-0.32364 2.37636,0.25867c1.07422,0.58231 1.75192,1.4106 1.51372,1.85005z" fill="url(#color-31)" stroke="none" stroke-width="0"/><path d="M233.29457,85.82062c0.15395,0.357 -0.34139,0.91385 -1.10639,1.24375c-0.76501,0.3299 -1.50997,0.30794 -1.66393,-0.04906c-0.15395,-0.357 0.34139,-0.91385 1.10639,-1.24375c0.76501,-0.3299 1.50996,-0.30794 1.66392,0.04906z" fill="url(#color-32)" stroke="none" stroke-width="0"/><path d="M261.87017,103.58945c-0.03907,0.38681 -1.28025,0.57823 -2.77224,0.42755c-1.49199,-0.15069 -2.66983,-0.58641 -2.63076,-0.97323c0.03907,-0.38681 1.28025,-0.57823 2.77224,-0.42755c1.49199,0.15069 2.66983,0.58641 2.63076,0.97323z" fill="url(#color-33)" stroke="none" stroke-width="0"/><path d="M256.57347,113.9602c-0.7091,0.43732 -1.54391,0.37028 -1.86461,-0.14973c-0.3207,-0.52001 -0.00584,-1.29606 0.70326,-1.73338c0.7091,-0.43732 1.54391,-0.37028 1.86461,0.14973c0.3207,0.52001 0.00584,1.29606 -0.70326,1.73338z" fill="url(#color-34)" stroke="none" stroke-width="0"/><path d="M241.76644,133.81371c-0.51795,0.324 -1.31988,-0.0241 -1.79115,-0.77748c-0.47127,-0.75339 -0.43343,-1.62677 0.08452,-1.95079c0.51795,-0.324 1.31988,0.02409 1.79116,0.77748c0.47127,0.75339 0.43342,1.62679 -0.08453,1.95079z" fill="url(#color-35)" stroke="none" stroke-width="0"/><path d="M227.8112,82.76342c0.60628,-0.07527 1.22537,0.89139 1.38273,2.15908c0.15738,1.2677 -0.20654,2.35638 -0.81283,2.43166c-0.60628,0.07527 -1.22537,-0.89139 -1.38273,-2.15908c-0.15738,-1.2677 0.20654,-2.35638 0.81283,-2.43166z" fill="url(#color-36)" stroke="none" stroke-width="0"/><path d="M240.37627,110.21056c-0.45927,0.31231 -1.46454,-0.36533 -2.2453,-1.51352c-0.78076,-1.14821 -1.04138,-2.33218 -0.58209,-2.64448c0.45927,-0.31231 1.46453,0.36533 2.24529,1.51353c0.78076,1.14821 1.04138,2.33218 0.58209,2.64448z" fill="url(#color-37)" stroke="none" stroke-width="0"/><path d="M242.0074,126.30336c0.02298,1.22168 -0.49858,2.22219 -1.16494,2.23473c-0.66637,0.01254 -1.22521,-0.96766 -1.24818,-2.18933c-0.02298,-1.22168 0.49859,-2.22219 1.16494,-2.23473c0.66637,-0.01254 1.2252,0.96765 1.24818,2.18933z" fill="url(#color-38)" stroke="none" stroke-width="0"/><path d="M262.66646,122.98366c-0.18527,0.3418 -0.81047,0.36139 -1.39641,0.04377c-0.58593,-0.31763 -0.91073,-0.85219 -0.72545,-1.19397c0.18527,-0.3418 0.81047,-0.36139 1.39641,-0.04377c0.58593,0.31763 0.91073,0.85219 0.72545,1.19397z" fill="url(#color-39)" stroke="none" stroke-width="0"/><path d="M248.21835,136.9371c0.02702,0.33215 -1.29736,0.71091 -2.95808,0.846c-1.66073,0.13509 -3.02891,-0.02465 -3.05593,-0.3568c-0.02702,-0.33215 1.29736,-0.71091 2.95808,-0.846c1.66073,-0.13509 3.02891,0.02465 3.05593,0.3568z" fill="url(#color-40)" stroke="none" stroke-width="0"/><path d="M219.59117,82.08352c-1.01892,0.77047 -1.98071,1.21549 -2.1482,0.99399c-0.16749,-0.22151 0.52274,-1.02566 1.54165,-1.79613c1.01892,-0.77047 1.98071,-1.21549 2.1482,-0.99399c0.16749,0.22151 -0.52274,1.02566 -1.54165,1.79613z" fill="url(#color-41)" stroke="none" stroke-width="0"/><path d="M248.22568,150.47525c0.07125,0.49476 -0.85141,1.03703 -2.06082,1.21121c-1.20941,0.17417 -2.24759,-0.08571 -2.31884,-0.58047c-0.07125,-0.49476 0.85141,-1.03703 2.06082,-1.21121c1.20941,-0.17417 2.24759,0.08572 2.31884,0.58047z" fill="url(#color-42)" stroke="none" stroke-width="0"/><text transform="translate(192.3751,147.41301) scale(0.1479,0.1479)" font-size="40" xml:space="preserve" fill="#ffffff" fill-rule="nonzero" stroke="#ffffff" stroke-width="1" stroke-linecap="butt" stroke-linejoin="miter" stroke-miterlimit="10" stroke-dasharray="" stroke-dashoffset="0" font-family="Handwriting" font-weight="normal" text-anchor="start" style="mix-blend-mode: normal"><tspan x="0" dy="0">Local Group</tspan></text><g stroke="none" stroke-width="0"><g><path d="M213.33845,134.68747c-0.53746,1.15439 -2.27338,1.48486 -3.87728,0.73811c-1.6039,-0.74674 -2.46842,-2.28792 -1.93095,-3.44231c0.53746,-1.15439 2.27338,-1.48486 3.87728,-0.73811c1.6039,0.74674 2.46842,2.28791 1.93095,3.44231z" fill="url(#color-43)"/><path d="M210.75914,132.33551c-0.24558,0.10784 -1.54114,-0.10987 -1.68649,-0.07562c-0.25225,0.05945 -0.20207,-0.25132 -0.32645,-0.16132c-0.56485,0.40871 -1.06469,1.44774 -1.11583,1.27754c-0.0154,-0.00308 -0.2137,-0.33433 -0.19562,-0.51776c0.03709,-0.37616 0.36109,-1.04764 0.78612,-1.36275c0.22523,-0.16698 1.3566,-0.60071 2.06403,-0.34221c0.44911,0.16411 0.84964,0.47029 1.17746,0.82001c0.13056,0.13928 0.15567,-0.32729 0.37446,-0.22271c0.26656,0.12741 0.72568,0.83052 0.81732,1.08284c0.07114,0.40117 -0.14126,0.79968 -0.30249,1.0129c-0.05216,0.06898 -0.29705,-0.24921 -0.3203,-0.18159c-0.08195,0.23832 -0.19418,0.47746 -0.31714,0.59233c-0.42705,0.39896 -1.4491,0.29247 -1.58854,0.2131c-0.54801,-0.31194 -0.58969,-1.19856 -0.55309,-1.25802c0.09986,-0.16226 -0.38628,-0.35028 -0.67987,0.05775c-0.13752,0.2357 -0.05975,0.68351 0.26842,0.88415c0.04747,0.02902 -0.26113,-0.33883 -0.07263,-0.40153c0.16384,-0.0545 1.4091,0.65492 1.80346,0.97384c0.10963,0.08866 -0.53784,0.083 -0.45324,0.10023c0.39913,0.08129 1.02901,-0.00434 1.56743,-0.33183c0.65751,-0.39993 0.71431,-2.01709 0.9921,-1.89077c0.25139,-0.0021 -0.07728,1.72695 -0.67308,2.18306c-0.1732,0.13259 -0.40082,0.24753 -0.62121,0.34979c-0.22448,0.10416 0.89054,-0.20516 1.03022,-0.02777c0.11126,0.1413 -0.50331,0.677 -1.01006,0.75036c-0.17293,0.02503 -0.578,0.03689 -1.06506,-0.18703c-0.80075,-0.36815 -1.76838,-1.07276 -1.88579,-1.17952c-0.30377,-0.27622 -0.56249,-1.17194 -0.18064,-1.62921c0.4396,-0.52645 1.52625,-0.44792 1.7028,-0.37567c0.47407,0.19398 0.73213,0.83828 0.60127,1.02063c-0.03464,0.04826 0.34691,-0.01896 0.29674,-0.34529c-0.07567,-0.49212 -0.29457,-0.88927 -0.43428,-0.82791z" fill="url(#color-44)"/><path d="M212.07623,134.08755c-0.36349,0.78072 -1.49864,1.0223 -2.53544,0.53958c-1.0368,-0.48271 -1.58263,-1.50692 -1.21914,-2.28764c0.36349,-0.78072 1.49864,-1.0223 2.53544,-0.53958c1.0368,0.48271 1.58263,1.50692 1.21914,2.28764z" fill="url(#color-45)"/><path d="M211.76076,132.89188c-0.2153,0.33583 -1.17902,-0.54952 -1.88451,-0.55203c-0.70548,-0.00251 -1.57801,0.72131 -1.67389,0.3004c-0.09588,-0.42091 0.52344,-1.50297 1.22892,-1.50046c0.70548,0.00251 2.72574,1.13399 2.32947,1.75209z" fill="url(#color-46)"/><path d="M210.38036,133.79611c-0.14784,0.02522 -0.22416,0.21873 0.08935,0.34435c0.10037,0.03524 0.68151,0.04865 0.88688,-0.30102c0.1401,-0.23856 -0.08635,-0.75411 -0.1478,-1.05921c-0.03867,-0.19196 -0.45614,-0.85415 -1.09055,-1.06814c-0.59138,-0.19947 -1.39471,0.03548 -1.63155,0.20685c-0.56485,0.40871 -0.81559,1.24029 -0.86673,1.07009c-0.047,-0.00938 0.17674,-0.89838 0.80902,-1.36714c0.22523,-0.16698 1.1043,-0.46826 1.81172,-0.20977c0.8459,0.3091 1.2496,0.86426 1.49144,1.47726c0.14066,0.35652 0.13809,1.0685 -0.12759,1.31671c-0.42705,0.39896 -1.29442,0.24688 -1.43387,0.1675c-0.54801,-0.31194 -0.46797,-1.00958 -0.43137,-1.06904c0.09986,-0.16226 0.22445,-0.14841 0.51255,-0.20617c0.14538,-0.0589 -0.06669,-0.24203 -0.30649,-0.2442c-0.18684,-0.0017 -0.77594,0.04401 -1.06953,0.45204c-0.13752,0.2357 -0.10396,0.94226 0.22421,1.14289c0.20499,0.12533 0.79076,0.44613 1.29688,0.54922c0.39913,0.08129 1.12985,-0.01619 1.66827,-0.34369c0.65751,-0.39993 0.69219,-1.60106 0.87035,-1.50642c0.20076,0.10664 -0.03145,1.21905 -0.62725,1.67516c-0.51657,0.39545 -1.45694,0.50014 -1.85892,0.45656c-0.6786,-0.07357 -1.50417,-0.57903 -1.69299,-0.75072c-0.30377,-0.27622 -0.56249,-1.17194 -0.18064,-1.62922c0.4396,-0.52645 1.52625,-0.44792 1.7028,-0.37567c0.47407,0.19398 0.73213,0.83829 0.60127,1.02063c-0.08036,0.11198 -0.30574,0.2181 -0.49946,0.25114z" fill="url(#color-47)"/><path d="M211.81572,135.71886c-0.37278,0.14792 -0.96295,0.03946 -1.0378,-0.06475c-0.07485,-0.1042 0.5097,-0.04603 0.89183,-0.18045c0.60241,-0.21191 0.91512,-0.39607 0.97913,-0.34457c0.04188,0.03369 -0.46038,0.44185 -0.83317,0.58977z" fill="url(#color-48)"/><path d="M209.82767,134.66111c-0.43813,-0.16037 -0.70474,-0.70234 -0.59897,-0.75209c0.12503,-0.05881 0.27862,0.36384 0.71245,0.53728c0.68389,0.27341 0.77138,0.19172 0.77827,0.25968c0.00451,0.04445 -0.45362,0.11551 -0.89176,-0.04487z" fill="url(#color-49)"/><path d="M212.53069,132.79603c0.17947,0.37344 -0.1938,0.96589 -0.31608,0.98959c-0.12228,0.0237 0.19161,-0.58322 0.02798,-0.95945c-0.25795,-0.59308 -0.47954,-0.92936 -0.41943,-0.96403c0.03932,-0.02268 0.52806,0.56045 0.70753,0.93389z" fill="url(#color-50)"/><path d="M210.57922,132.26946c0.00813,0.08131 -0.36485,-0.08397 -0.76794,-0.12305c-0.40309,-0.03908 -0.74721,0.08446 -0.75533,0.00315c-0.00813,-0.08131 0.33262,-0.23852 0.73571,-0.19945c0.40309,0.03908 0.77944,0.23804 0.78756,0.31935z" fill="url(#color-51)"/><path d="M211.5273,133.93696c-0.25467,0.54699 -1.02697,0.72697 -1.72498,0.40199c-0.69801,-0.32498 -1.05741,-1.03185 -0.80274,-1.57885c0.25467,-0.54699 1.02696,-0.72698 1.72498,-0.402c0.69801,0.32498 1.05741,1.03186 0.80274,1.57885z" fill="url(#color-52)"/><path d="M210.92899,133.72739c-0.11391,0.24467 -0.46977,0.32033 -0.79483,0.16898c-0.32506,-0.15134 -0.49624,-0.47237 -0.38232,-0.71704c0.11391,-0.24467 0.46978,-0.32033 0.79484,-0.16898c0.32506,0.15134 0.49623,0.47237 0.38232,0.71704z" fill="url(#color-53)"/><path d="M211.00464,133.43225c-0.07816,0.16788 -0.58635,-0.64471 -1.25821,-0.6207c-0.63781,0.0228 -0.74361,0.80395 -0.75832,0.91185c-0.01474,0.10814 -0.4682,-0.12199 -0.47682,-0.34007c-0.0221,-0.55958 0.23408,-0.96371 0.79546,-1.08975c0.3923,-0.08807 0.94232,-0.03025 1.35291,0.22695c0.40304,0.25247 0.41194,0.76786 0.34496,0.91173z" fill="url(#color-54)"/><path d="M209.4819,134.71293c0.29785,0.12459 0.96465,0.29398 1.53029,0.24508c0.46216,-0.03995 1.23345,-0.47498 1.34325,-0.53465c0.06652,-0.03616 0.21474,0.13805 0.13666,0.1944c-0.02237,0.01615 -0.57817,0.57832 -1.32177,0.65778c-0.78505,0.08389 -1.46908,-0.16055 -1.76987,-0.33787c-0.14063,-0.08291 -0.13649,-0.31591 0.08144,-0.22475z" fill="url(#color-55)"/></g><g><path d="M219.42934,122.62011c1.98799,-0.69808 4.00156,-0.11918 4.49745,1.293c0.49589,1.41218 -0.71371,3.12288 -2.7017,3.82096c-1.98799,0.69808 -4.00156,0.11918 -4.49744,-1.293c-0.49589,-1.41218 0.7137,-3.12288 2.70169,-3.82095z" fill="url(#color-56)"/><path d="M220.05228,123.88526c-0.15785,-0.08733 -0.46496,0.35393 -0.61414,0.9223c-0.09892,0.37689 0.34431,0.49781 0.30918,0.43741c-0.13271,-0.22814 0.2507,-0.95472 0.83505,-1.12972c0.21762,-0.06517 1.51267,-0.03726 1.96891,0.62821c0.3963,0.57804 -0.01835,1.59919 -0.41121,1.88937c-0.15184,0.11215 -1.382,0.83109 -2.37394,1.17413c-0.60334,0.20866 -1.08112,0.15004 -1.28266,0.10161c-0.59061,-0.14191 -1.25273,-0.83754 -1.10397,-0.99085c0.18675,-0.19248 1.46835,0.2931 1.21541,0.14626c-0.24834,-0.14417 -0.50368,-0.30399 -0.69251,-0.47849c-0.29382,-0.27154 -0.77763,-1.11426 -0.58308,-1.8183c0.23554,-0.85238 1.22391,-1.45885 1.38665,-1.44231c0.34395,-0.11738 -1.12009,2.41202 -0.39072,2.95329c0.59726,0.44323 1.33204,0.61311 1.81409,0.5619c0.10218,-0.01086 -0.66449,-0.07569 -0.52405,-0.1675c0.50521,-0.33022 2.06439,-1.02414 2.25161,-0.94219c0.2154,0.09429 -0.19428,0.49131 -0.1346,0.46254c0.41256,-0.19891 0.55885,-0.71512 0.42473,-1.00652c-0.29785,-0.51059 -0.89577,-0.3439 -0.7973,-0.14272c0.03608,0.07372 -0.12071,1.10817 -0.80684,1.41325c-0.17458,0.07763 -1.39661,0.0896 -1.85345,-0.42509c-0.13154,-0.14819 -0.23532,-0.44084 -0.30337,-0.72917c-0.01931,-0.08181 0.70686,-1.7706 0.8782,-1.91941c0.43022,-0.37366 0.94116,-0.68826 1.49237,-0.83101c0.86824,-0.22484 2.15411,0.40834 2.40032,0.62888c0.46463,0.41619 0.80328,2.55183 0.80156,2.99676c-0.00084,0.21695 -0.5865,0.60406 -0.6051,0.60596c-0.04178,0.09981 -0.10197,-1.84559 -0.90659,-2.59904c-0.758,-0.70979 -2.25996,-0.22511 -2.39454,-0.29956z" fill="url(#color-57)"/><path d="M220.01324,123.33099c1.28508,-0.45125 2.59872,-0.04284 2.93408,0.91222c0.33537,0.95506 -0.43454,2.0951 -1.71962,2.54635c-1.28508,0.45125 -2.59872,0.04284 -2.93408,-0.91221c-0.33537,-0.95506 0.43454,-2.0951 1.71962,-2.54636z" fill="url(#color-58)"/><path d="M218.81178,124.51093c-0.39386,-0.76811 2.13333,-1.8711 2.96824,-1.79616c0.83491,0.07493 1.43641,1.41138 1.27195,1.89407c-0.16446,0.48269 -1.10893,-0.46188 -1.94384,-0.53681c-0.83491,-0.07493 -2.08235,0.85625 -2.29635,0.43891z" fill="url(#color-59)"/><path d="M220.33522,125.72298c-0.22517,-0.06011 -0.47894,-0.20935 -0.56043,-0.34945c-0.13271,-0.22814 0.2507,-0.95473 0.83505,-1.12972c0.21762,-0.06517 1.51267,-0.03725 1.96891,0.62822c0.3963,0.57805 -0.01835,1.59919 -0.41121,1.88937c-0.2442,0.18037 -1.28215,0.6816 -2.09387,0.69291c-0.48084,0.0067 -1.58063,-0.21979 -2.1438,-0.74024c-0.02843,-0.02627 -0.2114,-0.25712 -0.25852,-0.34255c-0.22773,-0.41289 -0.38171,-1.04472 -0.24231,-1.58968c0.21005,-0.82117 1.02003,-1.43613 1.153,-1.49072c0.12734,-0.05228 -0.54141,0.70243 -0.74429,1.5804c-0.15118,0.65425 0.08873,1.44053 0.40017,1.67164c0.59726,0.44323 1.44991,0.63813 1.93195,0.58692c0.61125,-0.06493 1.34312,-0.37624 1.60083,-0.50048c0.41256,-0.19891 0.53792,-1.02322 0.4038,-1.31463c-0.29785,-0.51059 -0.98925,-0.62918 -1.21048,-0.64782c-0.28394,-0.02392 -0.55703,0.16728 -0.39218,0.25235c0.33383,0.0995 0.4829,0.09702 0.58136,0.29819c0.03608,0.07372 0.0462,0.90013 -0.63993,1.20521c-0.17458,0.07763 -1.21916,0.16011 -1.676,-0.35458c-0.28422,-0.32021 -0.20094,-1.15488 0.00868,-1.55716c0.36043,-0.69169 0.90531,-1.29773 1.94351,-1.56659c0.86824,-0.22484 1.87168,0.22527 2.11789,0.44581c0.28579,0.256 0.80102,0.89834 0.90045,1.53966c0.14106,0.90974 -0.43466,1.79474 -0.46794,1.79814c-0.05033,0.12022 0.3285,-0.82395 0.15476,-1.72248c-0.10637,-0.55011 -0.45662,-1.06803 -0.69155,-1.27359c-0.25941,-0.22697 -1.18128,-0.59099 -1.90509,-0.4225c-0.77646,0.18075 -1.35063,0.91071 -1.41965,1.13139c-0.10969,0.35076 -0.44009,0.92996 -0.30327,1.22499c0.20056,0.43245 0.88968,0.48088 1.0127,0.45067c0.38612,-0.11261 0.31929,-0.34782 0.14745,-0.39369z" fill="url(#color-60)"/><path d="M218.98254,125.77166c-0.23497,-0.66914 0.27591,-1.45787 1.14107,-1.76167c0.86517,-0.3038 1.757,-0.00763 1.99196,0.66151c0.23497,0.66914 -0.27591,1.45787 -1.14107,1.76167c-0.86517,0.3038 -1.757,0.00763 -1.99196,-0.66151z" fill="url(#color-61)"/><path d="M219.79638,125.07833c0.06729,-0.32294 0.44792,-0.53222 0.90028,-0.46338c0.45237,0.06884 0.77516,0.42697 0.72192,0.74211c-0.04596,0.27206 -0.45994,0.47726 -0.9123,0.40842c-0.45237,-0.06884 -0.77501,-0.37467 -0.7099,-0.68715z" fill="url(#color-62)"/><path d="M220.34298,124.71006c0.34641,-0.12164 0.71244,0.02238 0.81753,0.32169c0.1051,0.29931 -0.09052,0.64055 -0.43693,0.76219c-0.34641,0.12164 -0.71244,-0.02238 -0.81753,-0.32169c-0.1051,-0.29931 0.09052,-0.64055 0.43693,-0.76219z" fill="url(#color-63)"/><path d="M219.76666,125.44587c-0.0618,-0.17599 0.01122,-0.77901 0.51863,-1.03039c0.51692,-0.2561 1.17462,-0.26315 1.62804,-0.11663c0.64884,0.20967 0.90292,0.71156 0.80894,1.3649c-0.03663,0.25462 -0.60099,0.47426 -0.60532,0.34591c-0.00432,-0.12807 -0.03478,-1.05519 -0.78656,-1.15231c-0.79191,-0.1023 -1.49163,0.79389 -1.56375,0.58852z" fill="url(#color-64)"/><path d="M220.31595,125.85847c-1.04835,0.41907 -1.85109,-1.16835 -1.71025,-1.84254c0.08517,-0.40772 0.64777,-1.15859 1.23952,-1.36559c0.58118,-0.20331 1.18976,0.13355 1.48057,0.14177c0.13384,0.00378 -0.35028,0.2183 -0.69723,0.58919c-0.23232,0.24835 -0.31883,0.60131 -0.43029,0.87991c-0.27792,0.69466 0.50106,1.42801 0.11769,1.59727z" fill="url(#color-65)"/></g><g data-paper-data="{&quot;index&quot;:null}"><path d="M212.02939,137.64753c0,-0.82264 0.72987,-1.48953 1.6302,-1.48953c0.90034,0 1.6302,0.66689 1.6302,1.48953c0,0.82264 -0.72986,1.48952 -1.6302,1.48952c-0.90034,0 -1.6302,-0.66688 -1.6302,-1.48952z" fill="url(#color-66)"/><path d="M213.74031,136.46882c0.57497,0 1.22549,0.5796 1.22549,1.13209c0,0.55248 -0.63735,1.18478 -1.21231,1.18478c-0.57497,0 -1.30453,-0.6323 -1.30453,-1.18478c0,-0.55248 0.71638,-1.13209 1.29135,-1.13209z" fill="url(#color-67)"/><path d="M213.91984,136.46072c0.55464,-0.00624 1.13226,0.38912 1.12094,0.97375c-0.0065,0.33547 -0.37915,1.19067 -1.01904,1.14359c-0.6667,-0.04906 -1.12696,-0.45208 -1.14359,-0.90581c-0.03248,-0.88612 0.46561,-1.20504 1.04168,-1.21153z" fill="url(#color-68)"/><path d="M214.338,137.06062c-0.00126,-0.00891 0.02546,-0.0013 0.04107,-0.01835c0.01808,-0.01974 0.01464,-0.08536 0.02975,-0.08404c0.01754,0.00154 0.01514,0.05415 0.033,0.07899c0.01126,0.01566 0.04644,0.01495 0.0458,0.0214c-0.00155,0.01548 -0.02967,0.01622 -0.04847,0.03378c-0.01773,0.01655 -0.01806,0.06712 -0.03233,0.06462c-0.01494,-0.00262 -0.00958,-0.04848 -0.0274,-0.06562c-0.01818,-0.01748 -0.04067,-0.0255 -0.04142,-0.03077z" fill="url(#color-69)"/><path d="M213.44031,136.98876c-0.00146,-0.01026 0.02931,-0.0015 0.04729,-0.02113c0.02082,-0.02273 0.01685,-0.12091 0.03425,-0.11939c0.02019,0.00177 0.01743,0.08498 0.038,0.11358c0.01296,0.01803 0.05347,0.01722 0.05273,0.02464c-0.00178,0.01783 -0.03416,0.01868 -0.05581,0.03888c-0.02041,0.01905 -0.01432,0.08698 -0.03074,0.0841c-0.0172,-0.00302 -0.01749,-0.06552 -0.03802,-0.08526c-0.02093,-0.02013 -0.04683,-0.02936 -0.04769,-0.03543z" fill="url(#color-70)"/><path d="M214.35094,138.10228c-0.00126,-0.00891 0.02546,-0.0013 0.04108,-0.01835c0.01808,-0.01974 0.01464,-0.08535 0.02975,-0.08403c0.01754,0.00154 0.01514,0.05414 0.033,0.07898c0.01126,0.01566 0.04644,0.01495 0.04579,0.0214c-0.00155,0.01548 -0.02966,0.01623 -0.04847,0.03378c-0.01773,0.01655 -0.01806,0.06712 -0.03233,0.06461c-0.01494,-0.00262 -0.00958,-0.04848 -0.0274,-0.06562c-0.01818,-0.01748 -0.04068,-0.0255 -0.04143,-0.03077z" fill="url(#color-71)"/><path d="M214.29605,137.82492c-0.00094,-0.00659 0.01883,-0.00096 0.03038,-0.01357c0.01338,-0.0146 0.01083,-0.06315 0.022,-0.06217c0.01297,0.00113 0.0112,0.04006 0.02441,0.05843c0.00833,0.01158 0.03436,0.01106 0.03388,0.01583c-0.00114,0.01145 -0.02195,0.01201 -0.03586,0.02499c-0.01312,0.01224 -0.01335,0.04965 -0.02391,0.0478c-0.01105,-0.00194 -0.00708,-0.03587 -0.02027,-0.04855c-0.01345,-0.01293 -0.03008,-0.01886 -0.03064,-0.02276z" fill="url(#color-72)"/><path d="M213.92243,136.78974c-0.00094,-0.00659 0.01883,-0.00096 0.03039,-0.01357c0.01338,-0.0146 0.01083,-0.06315 0.022,-0.06217c0.01297,0.00113 0.0112,0.04006 0.02441,0.05843c0.00833,0.01158 0.03435,0.01106 0.03388,0.01583c-0.00114,0.01145 -0.02195,0.01201 -0.03586,0.02499c-0.01312,0.01224 -0.01335,0.04965 -0.02391,0.0478c-0.01105,-0.00194 -0.00708,-0.03587 -0.02027,-0.04855c-0.01345,-0.01293 -0.03009,-0.01886 -0.03065,-0.02276z" fill="url(#color-73)"/><path d="M213.937,137.5936c-0.00094,-0.00659 0.01883,-0.00096 0.03038,-0.01357c0.01338,-0.0146 0.01083,-0.06315 0.022,-0.06217c0.01297,0.00113 0.0112,0.04006 0.02442,0.05843c0.00833,0.01158 0.03435,0.01106 0.03388,0.01583c-0.00114,0.01145 -0.02195,0.01201 -0.03586,0.02499c-0.01312,0.01224 -0.01336,0.04965 -0.02391,0.0478c-0.01105,-0.00194 -0.00708,-0.03587 -0.02027,-0.04855c-0.01345,-0.01293 -0.03008,-0.01886 -0.03064,-0.02276z" fill="url(#color-74)"/><path d="M214.16308,138.12838c0.01338,-0.01461 0.01083,-0.06315 0.022,-0.06217c0.01297,0.00113 0.0112,0.04006 0.02442,0.05843c0.00833,0.01158 0.03435,0.01106 0.03388,0.01583c-0.00114,0.01145 -0.02195,0.01201 -0.03586,0.02499c-0.01312,0.01224 -0.01335,0.04965 -0.02391,0.0478c-0.01105,-0.00194 -0.00709,-0.03587 -0.02028,-0.04855c-0.01345,-0.01293 -0.03008,-0.01886 -0.03064,-0.02276c-0.00094,-0.00659 0.01883,-0.00096 0.03038,-0.01357z" fill="url(#color-75)"/><path d="M214.62468,136.81557c0.01231,0.00039 0.008,0.01474 0.01515,0.02331c0.00582,0.00697 0.02434,0.00715 0.02404,0.01676c-0.0004,0.01264 -0.01853,0.00882 -0.0285,0.0156c-0.00693,0.00471 -0.00399,0.02222 -0.01314,0.02193c-0.01224,-0.00039 -0.00934,-0.01902 -0.01648,-0.0275c-0.00589,-0.00699 -0.02301,-0.00289 -0.0227,-0.01257c0.00032,-0.01007 0.01695,-0.00397 0.02372,-0.01066c0.00764,-0.00754 0.00609,-0.02724 0.01792,-0.02686z" fill="url(#color-76)"/><path d="M213.70437,136.77351c0.01231,0.00039 0.008,0.01475 0.01515,0.02332c0.00582,0.00697 0.02434,0.00715 0.02404,0.01676c-0.0004,0.01264 -0.01854,0.00881 -0.02851,0.01559c-0.00693,0.00471 -0.00398,0.02222 -0.01313,0.02193c-0.01224,-0.00039 -0.00934,-0.01901 -0.01649,-0.0275c-0.00589,-0.00699 -0.023,-0.0029 -0.0227,-0.01258c0.00032,-0.01007 0.01695,-0.00397 0.02372,-0.01066c0.00764,-0.00754 0.00608,-0.02724 0.01791,-0.02686z" fill="url(#color-77)"/><path d="M214.62953,137.47062c0.01231,0.00039 0.008,0.01474 0.01515,0.02331c0.00582,0.00697 0.02434,0.00715 0.02404,0.01676c-0.0004,0.01264 -0.01853,0.00882 -0.0285,0.0156c-0.00693,0.00471 -0.00399,0.02222 -0.01314,0.02193c-0.01224,-0.00039 -0.00934,-0.01902 -0.01648,-0.0275c-0.00589,-0.00699 -0.02301,-0.00289 -0.0227,-0.01257c0.00032,-0.01007 0.01695,-0.00398 0.02372,-0.01066c0.00764,-0.00754 0.00609,-0.02723 0.01792,-0.02686z" fill="url(#color-78)"/><path d="M214.44515,137.16979c0.01231,0.00039 0.008,0.01474 0.01515,0.02331c0.00582,0.00697 0.02434,0.00715 0.02403,0.01676c-0.0004,0.01264 -0.01853,0.00881 -0.0285,0.01559c-0.00693,0.00471 -0.00398,0.02222 -0.01313,0.02193c-0.01224,-0.00039 -0.00934,-0.01901 -0.01649,-0.0275c-0.00589,-0.00699 -0.02301,-0.00289 -0.0227,-0.01257c0.00032,-0.01007 0.01695,-0.00398 0.02372,-0.01066c0.00764,-0.00754 0.00609,-0.02723 0.01792,-0.02686z" fill="url(#color-79)"/><path d="M213.09962,137.52915c0.01808,-0.01974 0.01464,-0.08536 0.02975,-0.08404c0.01754,0.00154 0.01514,0.05414 0.033,0.07898c0.01126,0.01566 0.04644,0.01496 0.0458,0.02141c-0.00155,0.01548 -0.02967,0.01622 -0.04847,0.03378c-0.01773,0.01655 -0.01806,0.06712 -0.03233,0.06462c-0.01494,-0.00262 -0.00958,-0.04848 -0.0274,-0.06562c-0.01818,-0.01748 -0.04067,-0.0255 -0.04142,-0.03077c-0.00126,-0.00891 0.02546,-0.0013 0.04107,-0.01835z" fill="url(#color-80)"/><path d="M212.90814,137.22653c-0.00146,-0.01026 0.02931,-0.00149 0.04729,-0.02112c0.02082,-0.02273 0.01685,-0.12091 0.03425,-0.11939c0.02019,0.00177 0.01743,0.08498 0.038,0.11358c0.01296,0.01803 0.05347,0.01722 0.05273,0.02464c-0.00178,0.01783 -0.03416,0.01868 -0.05581,0.03888c-0.02041,0.01905 -0.01432,0.08698 -0.03074,0.0841c-0.0172,-0.00302 -0.01749,-0.06552 -0.03802,-0.08526c-0.02093,-0.02013 -0.04683,-0.02936 -0.04769,-0.03543z" fill="url(#color-81)"/><path d="M213.29372,138.52551c0.01808,-0.01974 0.01464,-0.08536 0.02975,-0.08404c0.01754,0.00154 0.01514,0.05414 0.033,0.07898c0.01126,0.01566 0.04644,0.01496 0.0458,0.02141c-0.00155,0.01548 -0.02967,0.01622 -0.04847,0.03378c-0.01773,0.01655 -0.01806,0.06712 -0.03233,0.06462c-0.01494,-0.00262 -0.00958,-0.04848 -0.0274,-0.06562c-0.01818,-0.01748 -0.04067,-0.0255 -0.04142,-0.03077c-0.00126,-0.00891 0.02546,-0.0013 0.04107,-0.01835z" fill="url(#color-82)"/><path d="M213.51121,138.08309c0.01338,-0.01461 0.01083,-0.06315 0.022,-0.06217c0.01297,0.00113 0.0112,0.04006 0.02441,0.05843c0.00833,0.01158 0.03436,0.01106 0.03388,0.01583c-0.00114,0.01145 -0.02195,0.01201 -0.03586,0.02499c-0.01312,0.01224 -0.01335,0.04965 -0.02391,0.0478c-0.01105,-0.00194 -0.00708,-0.03587 -0.02027,-0.04855c-0.01345,-0.01293 -0.03009,-0.01886 -0.03065,-0.02276c-0.00094,-0.00659 0.01883,-0.00096 0.03039,-0.01357z" fill="url(#color-83)"/><path d="M212.74487,137.7182c-0.00094,-0.00659 0.01883,-0.00096 0.03039,-0.01357c0.01338,-0.0146 0.01083,-0.06315 0.022,-0.06217c0.01297,0.00113 0.0112,0.04006 0.02441,0.05843c0.00833,0.01158 0.03435,0.01106 0.03388,0.01583c-0.00114,0.01145 -0.02195,0.01201 -0.03586,0.02499c-0.01312,0.01224 -0.01335,0.04965 -0.02391,0.0478c-0.01105,-0.00194 -0.00709,-0.03587 -0.02028,-0.04855c-0.01345,-0.01293 -0.03009,-0.01886 -0.03064,-0.02276z" fill="url(#color-84)"/><path d="M212.86909,138.21409c0.01338,-0.0146 0.01083,-0.06315 0.022,-0.06217c0.01297,0.00113 0.0112,0.04006 0.02442,0.05843c0.00833,0.01158 0.03435,0.01106 0.03388,0.01583c-0.00114,0.01145 -0.02195,0.01201 -0.03586,0.02499c-0.01312,0.01224 -0.01336,0.04965 -0.02391,0.0478c-0.01105,-0.00194 -0.00708,-0.03587 -0.02027,-0.04855c-0.01345,-0.01293 -0.03008,-0.01886 -0.03064,-0.02276c-0.00094,-0.00659 0.01883,-0.00096 0.03038,-0.01357z" fill="url(#color-85)"/><path d="M213.11008,138.19632c0.01338,-0.01461 0.01083,-0.06315 0.022,-0.06217c0.01297,0.00113 0.0112,0.04006 0.02441,0.05843c0.00833,0.01158 0.03435,0.01106 0.03388,0.01583c-0.00114,0.01145 -0.02195,0.01201 -0.03586,0.02499c-0.01312,0.01224 -0.01335,0.04965 -0.02391,0.0478c-0.01105,-0.00194 -0.00709,-0.03587 -0.02028,-0.04855c-0.01345,-0.01293 -0.03008,-0.01886 -0.03064,-0.02276c-0.00094,-0.00659 0.01883,-0.00096 0.03039,-0.01357z" fill="url(#color-86)"/><path d="M213.94532,137.03071c0.01231,0.00039 0.008,0.01474 0.01515,0.02331c0.00582,0.00697 0.02434,0.00715 0.02404,0.01676c-0.0004,0.01264 -0.01854,0.00882 -0.02851,0.0156c-0.00693,0.00471 -0.00398,0.02222 -0.01313,0.02193c-0.01224,-0.00039 -0.00934,-0.01902 -0.01649,-0.0275c-0.00589,-0.00699 -0.02301,-0.00289 -0.0227,-0.01257c0.00032,-0.01007 0.01695,-0.00397 0.02373,-0.01066c0.00764,-0.00754 0.00608,-0.02724 0.01791,-0.02686z" fill="url(#color-87)"/><path d="M212.79856,137.4642c0.01231,0.00039 0.008,0.01474 0.01515,0.02331c0.00582,0.00697 0.02434,0.00715 0.02403,0.01676c-0.0004,0.01264 -0.01854,0.00882 -0.02851,0.0156c-0.00693,0.00471 -0.00398,0.02222 -0.01313,0.02193c-0.01224,-0.00039 -0.00934,-0.01902 -0.01649,-0.0275c-0.00589,-0.00699 -0.023,-0.00289 -0.0227,-0.01257c0.00032,-0.01007 0.01695,-0.00398 0.02372,-0.01066c0.00764,-0.00754 0.00609,-0.02723 0.01792,-0.02686z" fill="url(#color-88)"/><path d="M213.66711,138.44437c0.01231,0.00039 0.008,0.01474 0.01515,0.02331c0.00582,0.00697 0.02434,0.00715 0.02404,0.01676c-0.0004,0.01264 -0.01854,0.00882 -0.02851,0.0156c-0.00693,0.00471 -0.00398,0.02222 -0.01313,0.02193c-0.01224,-0.00039 -0.00934,-0.01902 -0.01649,-0.0275c-0.00589,-0.00699 -0.023,-0.00289 -0.0227,-0.01257c0.00032,-0.01007 0.01695,-0.00397 0.02372,-0.01066c0.00764,-0.00754 0.00608,-0.02724 0.01791,-0.02686z" fill="url(#color-89)"/><path d="M213.21098,137.89443c0.01231,0.00039 0.008,0.01475 0.01515,0.02332c0.00582,0.00697 0.02434,0.00715 0.02404,0.01676c-0.0004,0.01264 -0.01853,0.00881 -0.0285,0.01559c-0.00693,0.00471 -0.00399,0.02222 -0.01314,0.02193c-0.01224,-0.00039 -0.00934,-0.01901 -0.01648,-0.0275c-0.00589,-0.00699 -0.02301,-0.00289 -0.0227,-0.01257c0.00032,-0.01007 0.01695,-0.00398 0.02372,-0.01066c0.00764,-0.00754 0.00609,-0.02723 0.01792,-0.02686z" fill="url(#color-90)"/></g><g><path d="M223.71073,138.15589c0.67013,-1.03528 2.04325,-1.39595 3.06694,-0.80558c1.02369,0.59037 1.31031,1.90821 0.64017,2.94349c-0.67013,1.03528 -2.04325,1.39594 -3.06694,0.80558c-1.02369,-0.59037 -1.31031,-1.90821 -0.64017,-2.94348z" data-paper-data="{&quot;index&quot;:null}" fill="url(#color-91)"/><path d="M224.71662,138.67092c-0.12298,0.00583 -0.05077,0.34413 0.16475,0.69785c0.14291,0.23455 0.42488,0.15168 0.37664,0.13107c-0.18225,-0.07786 -0.36195,-0.5942 -0.16063,-0.88236c0.07497,-0.10731 0.73303,-0.52352 1.29901,-0.31941c0.49162,0.17729 0.80592,0.8616 0.75851,1.14763c-0.00767,0.04627 -0.09764,1.48533 -1.28767,1.54916c-1.36047,0.07297 -3.56215,-0.65542 -3.27522,-0.95326c0.11117,-0.1773 1.70772,0.2297 2.34618,0.27643c0.52282,0.03827 1.10916,0.09582 1.3227,-0.09206c0.04526,-0.03982 0.44711,-0.84125 0.46211,-0.87651c0.10373,-0.24376 -0.11755,-0.36899 -0.33274,-0.48023c-0.4083,-0.17398 -0.58968,-0.08537 -0.4382,-0.01053c0.05551,0.02742 0.50478,0.63301 0.31916,1.02464c-0.04723,0.09965 -0.64865,0.51289 -1.13809,0.38964c-0.14092,-0.03549 -0.34167,-0.15749 -0.52245,-0.28908c-0.0513,-0.03733 -0.58631,-0.76708 -0.5203,-1.32433c0.02344,-0.34312 0.09576,-0.67636 0.29704,-0.93623c0.31705,-0.40934 0.99933,-0.66962 1.5449,-0.61807c0.44311,0.06796 1.82047,0.31433 2.04638,0.55292c0.11016,0.11634 -0.04174,0.60578 -0.05001,0.61298c0.05844,0.1307 -1.4587,-0.34868 -2.04216,-0.43229c-0.05893,-0.00845 -0.59662,0.05178 -0.8227,0.24165c-0.26685,0.22412 -0.23017,0.58484 -0.3472,0.59039z" data-paper-data="{&quot;index&quot;:null}" fill="url(#color-92)"/><path d="M224.34595,138.30717c0.40889,-0.66923 1.27011,-0.88807 1.92359,-0.48881c0.65348,0.39927 0.85176,1.26545 0.44288,1.93468c-0.40889,0.66923 -1.27011,0.88807 -1.92359,0.48881c-0.65348,-0.39927 -0.85176,-1.26545 -0.44288,-1.93468z" data-paper-data="{&quot;index&quot;:null}" fill="url(#color-93)"/><path d="M224.34707,139.373c-0.58728,-0.27978 0.10695,-1.71118 0.56021,-1.94905c0.45326,-0.23787 1.43343,0.27683 1.59768,0.58979c0.16424,0.31297 -0.7867,0.12209 -1.23997,0.35997c-0.45326,0.23787 -0.59884,1.15131 -0.91792,0.99929z" data-paper-data="{&quot;index&quot;:null}" fill="url(#color-94)"/><path d="M225.72218,139.51421c-0.14257,0.04281 -0.3448,0.04745 -0.45672,-0.00036c-0.18225,-0.07786 -0.36196,-0.59419 -0.16064,-0.88236c0.07497,-0.10731 0.73303,-0.52353 1.29902,-0.31942c0.49162,0.17729 0.80592,0.86161 0.7585,1.14763c-0.02947,0.17779 -0.29003,0.79147 -0.68781,1.06776c-0.23563,0.16367 -0.89782,0.40864 -1.44305,0.31771c-0.62886,-0.10488 -1.64479,-0.36605 -1.57269,-0.50442c0.06398,-0.1228 1.00027,0.26371 1.63873,0.31044c0.52282,0.03827 1.04605,-0.14132 1.25959,-0.3292c0.27078,-0.23823 0.47598,-0.64842 0.54077,-0.80068c0.10373,-0.24376 -0.25407,-0.72646 -0.46926,-0.8377c-0.4083,-0.17398 -0.81247,-0.00725 -0.93196,0.05643c-0.15335,0.08173 -0.19167,0.27494 -0.06636,0.26556c0.21667,-0.05791 0.28952,-0.10886 0.441,-0.03403c0.05551,0.02742 0.48172,0.46615 0.29611,0.85778c-0.04723,0.09965 -0.52449,0.49153 -1.01393,0.36829c-0.3045,-0.07668 -0.68849,-0.55092 -0.78931,-0.83591c-0.17334,-0.49002 -0.21133,-0.99562 0.16778,-1.48509c0.31705,-0.40934 1.07638,-0.61137 1.31119,-0.57536c0.65917,0.1011 1.94889,0.93018 1.92365,0.95217c0.04249,0.095 -0.65309,-0.26745 -1.26029,-0.50464c-0.22816,-0.08912 -0.44382,-0.16055 -0.60318,-0.18339c-0.24464,-0.03506 -0.8574,0.13927 -1.13136,0.47037c-0.29389,0.35519 -0.20731,0.93683 -0.12915,1.07786c0.12424,0.22416 0.25517,0.644 0.47356,0.75629c0.32011,0.16458 0.68739,-0.03894 0.73315,-0.09606c0.13457,-0.18879 -0.01853,-0.29237 -0.12734,-0.2597z" data-paper-data="{&quot;index&quot;:null}" fill="url(#color-95)"/><path d="M225.05873,139.9922c-0.45785,-0.27974 -0.60585,-0.87175 -0.33057,-1.3223c0.27528,-0.45055 0.86959,-0.58901 1.32744,-0.30927c0.45785,0.27974 0.60585,0.87175 0.33057,1.3223c-0.27528,0.45055 -0.86959,0.58901 -1.32744,0.30927z" data-paper-data="{&quot;index&quot;:null}" fill="url(#color-96)"/><path d="M225.18527,139.20956c-0.00089,-0.24785 0.17461,-0.45566 0.41865,-0.46817c0.24404,-0.01251 0.45268,0.20671 0.46004,0.44683c0.00636,0.2073 -0.18703,0.41676 -0.43107,0.42928c-0.24404,0.01251 -0.44676,-0.16812 -0.44763,-0.40794z" data-paper-data="{&quot;index&quot;:null}" fill="url(#color-97)"/><path d="M225.2669,139.03638c0.10316,-0.16884 0.32037,-0.22408 0.48516,-0.12339c0.16479,0.10068 0.21476,0.31917 0.1116,0.48801c-0.10316,0.16884 -0.32038,0.22408 -0.48517,0.1234c-0.16479,-0.10068 -0.21476,-0.31918 -0.1116,-0.48802z" data-paper-data="{&quot;index&quot;:null}" fill="url(#color-98)"/><path d="M225.29829,139.55525c-0.12042,-0.07357 -0.39146,-0.42048 -0.26732,-0.72388c0.12646,-0.30909 0.44984,-0.53182 0.74994,-0.60439c0.42943,-0.10385 0.81154,0.08006 1.0978,0.46085c0.11156,0.1484 -0.05706,0.45379 -0.12463,0.38657c-0.06742,-0.06707 -0.55508,-0.55291 -0.97833,-0.35458c-0.44584,0.20892 -0.33693,0.92129 -0.47746,0.83543z" data-paper-data="{&quot;index&quot;:null}" fill="url(#color-99)"/><path d="M222.26588,140.00616c0.02677,-0.04357 1.2863,0.34404 2.35452,0.4992c0.14482,0.02104 0.28613,0.0378 0.42037,0.04864c1.28175,0.10348 1.72354,-0.8253 1.55558,-1.44994c-0.01143,-0.04252 0.52208,0.07059 0.50754,0.14778c-0.07756,0.41173 -0.25111,1.31837 -1.19408,1.57401c-0.12985,0.0352 -0.27428,0.05806 -0.43507,0.06558c-1.26568,0.05921 -3.31711,-0.70911 -3.20886,-0.88527z" data-paper-data="{&quot;index&quot;:null}" fill="url(#color-100)"/></g><g><path d="M207.91519,122.8671c-0.00412,0.0014 -0.00291,-0.01196 -0.0124,-0.01784c-0.01099,-0.00681 -0.04182,0.00072 -0.04255,-0.00656c-0.00085,-0.00846 0.02433,-0.01205 0.03452,-0.02276c0.00642,-0.00675 0.00292,-0.02339 0.00604,-0.02366c0.00748,-0.00066 0.01037,0.01262 0.02039,0.01997c0.00945,0.00693 0.03348,0.00254 0.03357,0.00953c0.0001,0.00732 -0.02215,0.00891 -0.02868,0.01891c-0.00667,0.0102 -0.00845,0.02159 -0.01088,0.02242z" data-paper-data="{&quot;index&quot;:null}" fill="url(#color-101)"/><path d="M209.58937,120.24379c0.20331,0.16696 -0.3264,0.64685 -0.90431,1.16993c-0.5779,0.52308 -1.15937,0.96284 -1.35602,0.74716c-0.19824,-0.21741 0.21258,-0.84891 0.79048,-1.37199c0.5779,-0.52308 1.26484,-0.71346 1.46986,-0.54511z" fill="url(#color-102)"/><g><path d="M209.10742,120.48418c0.45939,0.50753 0.38646,1.32204 -0.16287,1.81926c-0.54933,0.49721 -1.36705,0.48886 -1.82644,-0.01868c-0.45939,-0.50753 -0.38647,-1.32205 0.16286,-1.81927c0.54933,-0.49721 1.36706,-0.48884 1.82645,0.01869z" fill="url(#color-103)"/><path d="M209.79023,119.85743c0.45939,0.50753 0.38646,1.32205 -0.16287,1.81927c-0.54933,0.49721 -1.36705,0.48884 -1.82644,-0.01869c-0.45939,-0.50753 -0.38647,-1.32204 0.16286,-1.81926c0.54933,-0.49721 1.36706,-0.48886 1.82645,0.01868z" fill="url(#color-104)"/></g><path d="M209.90144,120.15886c0.18195,0.20102 -0.41049,0.69281 -1.10514,1.32155c-0.69465,0.62874 -1.40527,0.97548 -1.58723,0.77446c-0.18195,-0.20102 0.23367,-0.87368 0.92832,-1.50243c0.69465,-0.62874 1.5821,-0.79461 1.76405,-0.59358z" fill="url(#color-105)"/><path d="M208.17399,121.30721c0.24681,0.27267 0.20863,0.70938 -0.08528,0.9754c-0.29391,0.26602 -0.73224,0.26063 -0.97905,-0.01204c-0.24681,-0.27267 -0.20862,-0.70938 0.08529,-0.9754c0.29391,-0.26602 0.73224,-0.26063 0.97904,0.01205z" fill="url(#color-106)"/><path d="M209.06227,120.64044c0.21972,0.24275 0.16039,0.77118 -0.10126,1.00801c-0.26165,0.23683 -0.80437,0.21831 -1.02409,-0.02444c-0.21972,-0.24275 -0.19645,-0.78524 0.0652,-1.02206c0.26165,-0.23683 0.84044,-0.20425 1.06016,0.0385z" fill="url(#color-107)"/><path d="M209.34445,120.30465c0.20357,0.22491 0.17208,0.58511 -0.07034,0.80453c-0.24242,0.21942 -0.60397,0.21497 -0.80754,-0.00994c-0.20357,-0.22491 -0.17208,-0.5851 0.07034,-0.80453c0.24242,-0.21942 0.60396,-0.21497 0.80753,0.00994z" fill="url(#color-108)"/><path d="M208.56134,120.89977c0.24681,0.27267 0.20863,0.70938 -0.08528,0.9754c-0.29391,0.26602 -0.73224,0.26063 -0.97905,-0.01205c-0.24681,-0.27267 -0.20863,-0.70938 0.08528,-0.9754c0.29391,-0.26602 0.73224,-0.26063 0.97905,0.01205z" fill="url(#color-109)"/><path d="M209.14258,119.32738c0.18246,0.20158 0.15817,0.52086 -0.05425,0.71313c-0.21242,0.19227 -0.53253,0.18472 -0.71499,-0.01686c-0.18245,-0.20158 -0.15817,-0.52086 0.05425,-0.71313c0.21242,-0.19227 0.53253,-0.18471 0.71499,0.01687z" fill="url(#color-110)"/><path d="M210.14839,119.85486c0.18125,0.20024 0.15773,0.51684 -0.05252,0.70714c-0.21025,0.1903 -0.52763,0.18225 -0.70887,-0.01799c-0.18124,-0.20024 -0.15773,-0.51684 0.05253,-0.70714c0.21025,-0.1903 0.52762,-0.18225 0.70886,0.01799z" fill="url(#color-111)"/><path d="M209.64747,119.86868c0.14322,0.15823 0.13679,0.39741 -0.01435,0.53421c-0.15115,0.13681 -0.38978,0.11944 -0.53299,-0.03879c-0.14322,-0.15823 -0.13679,-0.3974 0.01435,-0.53421c0.15115,-0.13681 0.38978,-0.11944 0.53299,0.03879z" fill="url(#color-112)"/><path d="M209.95375,120.57957c0.19619,0.21675 0.16898,0.56105 -0.06078,0.76902c-0.22976,0.20796 -0.57507,0.20083 -0.77126,-0.01592c-0.19619,-0.21675 -0.16898,-0.56105 0.06078,-0.76902c0.22976,-0.20796 0.57507,-0.20083 0.77126,0.01592z" fill="url(#color-113)"/></g><path d="M228.38398,131.51403c-0.1819,0.38199 -1.14428,0.30361 -2.14953,-0.17508c-1.00525,-0.47869 -1.67271,-1.17641 -1.49081,-1.55841c0.1819,-0.38199 1.14429,-0.30361 2.14954,0.17508c1.00525,0.47869 1.67271,1.17642 1.4908,1.55841z" fill="url(#color-114)"/><path d="M216.32252,120.84951c0,0.31175 -0.30689,0.56448 -0.68544,0.56448c-0.37856,0 -0.68544,-0.25272 -0.68544,-0.56448c0,-0.31175 0.30688,-0.56448 0.68544,-0.56448c0.37856,0 0.68544,0.25272 0.68544,0.56448z" fill="url(#color-115)"/><path d="M209.18372,139.25946c0.30663,0.90711 0.21317,1.75808 -0.20874,1.90069c-0.42191,0.14262 -1.01251,-0.47712 -1.31914,-1.38423c-0.30663,-0.90711 -0.21317,-1.75808 0.20874,-1.9007c0.42191,-0.14262 1.01251,0.47712 1.31914,1.38423z" fill="url(#color-116)"/><path d="M210.59707,125.97016c0,0.37856 -0.48741,0.68544 -1.08864,0.68544c-0.60124,0 -1.08864,-0.30688 -1.08864,-0.68544c0,-0.37856 0.4874,-0.68544 1.08864,-0.68544c0.60124,0 1.08864,0.30689 1.08864,0.68544z" fill="url(#color-117)"/></g></g></g></g></svg>