<svg version="1.1" xmlns="http://www.w3.org/2000/svg" xmlns:xlink="http://www.w3.org/1999/xlink" width="193.00509" height="161.96472" viewBox="0,0,193.00509,161.96472"><defs><linearGradient x1="240.61947" y1="58.29923" x2="240.61947" y2="237.16743" gradientUnits="userSpaceOnUse" id="color-1"><stop offset="0" stop-color="#000000"/><stop offset="1" stop-color="#000000" stop-opacity="0"/></linearGradient><radialGradient cx="239.30627" cy="134.55288" r="99.6392" gradientUnits="userSpaceOnUse" id="color-2"><stop offset="0" stop-color="#d6d6d6"/><stop offset="1" stop-color="#d6d6d6" stop-opacity="0"/></radialGradient></defs><g transform="translate(-142.27325,-41.11109)"><g data-paper-data="{&quot;isPaintingLayer&quot;:true}" fill-rule="nonzero" stroke-linecap="butt" stroke-linejoin="miter" stroke-miterlimit="10" stroke-dasharray="" stroke-dashoffset="0" style="mix-blend-mode: normal"><path d="M292.86654,106.96581c8.69501,20.52876 -8.6259,47.35608 -38.68734,59.92048c-30.06144,12.56439 -61.47977,6.108 -70.17479,-14.42078c-8.69502,-20.52876 8.62589,-47.35607 38.68735,-59.92047c30.06144,-12.56439 61.47977,-6.10799 70.17478,14.42077z" fill="#c2beba" stroke="#000000" stroke-width="2.5"/><path d="M284.37023,179.70932c0.07585,1.88165 -6.82295,7.07192 -42.75929,7.07192c-35.93634,0 -45.96971,-4.43047 -45.98172,-7.45949c-0.01038,-2.6151 9.30175,-6.10294 45.23807,-6.10294c35.93634,0 43.43354,4.76932 43.50294,6.49051z" fill="url(#color-1)" stroke="none" stroke-width="0"/><text transform="translate(225.62809,198.22803) scale(0.28942,0.28942)" font-size="40" xml:space="preserve" fill="#ffffff" fill-rule="nonzero" stroke="#ffffff" stroke-width="0.5" stroke-linecap="butt" stroke-linejoin="miter" stroke-miterlimit="10" stroke-dasharray="" stroke-dashoffset="0" font-family="Handwriting" font-weight="normal" text-anchor="start" style="mix-blend-mode: normal"></text><text transform="translate(220.25232,52.62357) scale(0.30296,0.30296)" font-size="40" xml:space="preserve" fill="#ffffff" fill-rule="nonzero" stroke="#ffffff" stroke-width="1" stroke-linecap="butt" stroke-linejoin="miter" stroke-miterlimit="10" stroke-dasharray="" stroke-dashoffset="0" font-family="Handwriting" font-weight="normal" text-anchor="start" style="mix-blend-mode: normal"></text><text transform="translate(195.77147,70.47372) scale(0.23622,0.23622)" font-size="40" xml:space="preserve" fill="#ffffff" fill-rule="nonzero" stroke="#ffffff" stroke-width="1" stroke-linecap="butt" stroke-linejoin="miter" stroke-miterlimit="10" stroke-dasharray="" stroke-dashoffset="0" font-family="Handwriting" font-weight="normal" text-anchor="start" style="mix-blend-mode: normal"></text><path d="M282.8342,109.6502c1.25437,10.96913 -6.30268,32.90448 -37.11364,40.49533c-24.35701,6.0008 -48.4079,4.01851 -52.22142,-14.29572c-3.1524,-15.13925 7.60713,-36.60518 44.11363,-46.49533c28.272,-7.65931 43.61509,6.24873 45.22142,20.29572z" fill="#d9d6d2" stroke="none" stroke-width="0"/><path d="M271.04167,136.83334c0,4.23418 -6.07608,7.66666 -11.10417,7.66666c-5.02809,0 -6.10416,0.56752 -6.10416,-3.66666c0,-4.23418 3.40941,-8 8.4375,-8c5.02809,0 8.77083,-0.23418 8.77083,4z" fill="#a9a7a4" stroke="none" stroke-width="0"/><path d="M274.31098,135.77133c2.34308,4.0194 -3.87541,5.59172 -9.0383,8.60139c-5.16289,3.00967 -9.74404,4.77058 -12.08712,0.75118c-2.34306,-4.01938 -0.05713,-9.7176 5.10575,-12.72726c5.16289,-3.00967 13.67658,-0.64472 16.01966,3.37471zM264.41341,142.89876c3.77772,-2.20219 6.47164,-4.61968 4.69209,-7.67238c-1.77955,-3.05271 -5.85502,-3.00521 -9.63274,-0.80302c-3.77773,2.20219 -6.25682,4.98817 -4.47727,8.04088c1.77954,3.05271 5.64019,2.63671 9.41791,0.43451z" fill="#c2beba" stroke="none" stroke-width="0"/><path d="M201.83334,152.83334c0,1.47276 -1.34314,2.66666 -3,2.66666c-1.65686,0 -3,-1.19391 -3,-2.66666c0,-1.47276 1.34314,-2.66667 3,-2.66667c1.65686,0 3,1.19391 3,2.66667z" fill="#a9a7a4" stroke="none" stroke-width="0"/><path d="M239.83334,151.33334c0,1.19662 -1.04467,2.16666 -2.33334,2.16666c-1.28867,0 -2.33334,-0.97005 -2.33334,-2.16666c0,-1.19662 1.04467,-2.16667 2.33334,-2.16667c1.28867,0 2.33334,0.97006 2.33334,2.16667z" fill="#a9a7a4" stroke="none" stroke-width="0"/><path d="M230.5,163.83334c0,2.02505 -1.71625,3.66666 -3.83334,3.66666c-2.11709,0 -3.83333,-1.64162 -3.83333,-3.66666c0,-2.02505 1.71624,-3.66667 3.83333,-3.66667c2.11709,0 3.83334,1.64163 3.83334,3.66667z" fill="#a9a7a4" stroke="none" stroke-width="0"/><path d="M291.5,122.5c0,2.20914 -1.9401,4 -4.33333,4c-2.39324,0 -4.33333,-1.79086 -4.33333,-4c0,-2.20914 1.9401,-4 4.33333,-4c2.39324,0 4.33333,1.79086 4.33333,4z" fill="#a9a7a4" stroke="none" stroke-width="0"/><path d="M195.83334,134c0,1.7489 -1.41777,3.16666 -3.16667,3.16666c-1.7489,0 -3.16666,-1.41777 -3.16666,-3.16666c0,-1.7489 1.41777,-3.16666 3.16666,-3.16666c1.7489,0 3.16667,1.41777 3.16667,3.16666z" fill="#a9a7a4" stroke="none" stroke-width="0"/><path d="M271.83333,96c0,1.19661 -1.11929,2.16666 -2.5,2.16666c-1.38071,0 -2.5,-0.97005 -2.5,-2.16666c0,-1.19661 1.11929,-2.16666 2.5,-2.16666c1.38071,0 2.5,0.97005 2.5,2.16666z" fill="#c2beba" stroke="none" stroke-width="0"/><path d="M264.16667,113.5c0,1.47276 -1.11929,2.66666 -2.5,2.66666c-1.38071,0 -2.5,-1.19391 -2.5,-2.66666c0,-1.47276 1.11929,-2.66666 2.5,-2.66666c1.38071,0 2.5,1.19391 2.5,2.66666z" fill="#c2beba" stroke="none" stroke-width="0"/><path d="M211.83334,124.16667c0,1.65685 -1.49239,3 -3.33334,3c-1.84095,0 -3.33334,-1.34315 -3.33334,-3c0,-1.65685 1.49239,-3 3.33334,-3c1.84095,0 3.33334,1.34315 3.33334,3z" fill="#c2beba" stroke="none" stroke-width="0"/><path d="M245.5,136.5c0,0.92048 -0.82082,1.66666 -1.83334,1.66666c-1.01252,0 -1.83333,-0.74619 -1.83333,-1.66666c0,-0.92048 0.82081,-1.66666 1.83333,-1.66666c1.01252,0 1.83334,0.74619 1.83334,1.66666z" fill="#c2beba" stroke="none" stroke-width="0"/><path d="M229.5,100.5c0,1.10457 -1.34314,2 -3,2c-1.65686,0 -3,-0.89543 -3,-2c0,-1.10457 1.34314,-2 3,-2c1.65686,0 3,0.89543 3,2z" fill="#c2beba" stroke="none" stroke-width="0"/><path d="M232.83333,117.5c0,1.84095 -1.71624,3.33333 -3.83333,3.33333c-2.11709,0 -3.83333,-1.49238 -3.83333,-3.33333c0,-1.84095 1.71624,-3.33333 3.83333,-3.33333c2.11709,0 3.83333,1.49238 3.83333,3.33333z" fill="#eeece7" stroke="none" stroke-width="0"/><path d="M207.16667,117.16667c0,1.47276 -1.49238,2.66667 -3.33333,2.66667c-1.84095,0 -3.33333,-1.19391 -3.33333,-2.66667c0,-1.47276 1.49238,-2.66667 3.33333,-2.66667c1.84095,0 3.33333,1.19391 3.33333,2.66667z" fill="#eeece7" stroke="none" stroke-width="0"/><path d="M258.83333,96.83333c0,2.02504 -1.9401,3.66667 -4.33333,3.66667c-2.39323,0 -4.33333,-1.64162 -4.33333,-3.66667c0,-2.02504 1.9401,-3.66667 4.33333,-3.66667c2.39323,0 4.33333,1.64162 4.33333,3.66667z" fill="#eeece7" stroke="none" stroke-width="0"/><path d="M280.16667,130.5c0,1.65685 -1.567,3 -3.5,3c-1.933,0 -3.5,-1.34315 -3.5,-3c0,-1.65685 1.567,-3 3.5,-3c1.933,0 3.5,1.34315 3.5,3z" fill="#eeece7" stroke="none" stroke-width="0"/><path d="M220.83333,150.16667c0,2.39323 -2.16396,4.33333 -4.83333,4.33333c-2.66938,0 -4.83333,-1.9401 -4.83333,-4.33333c0,-2.39323 2.16396,-4.33333 4.83333,-4.33333c2.66938,0 4.83333,1.9401 4.83333,4.33333z" fill="#c2beba" stroke="none" stroke-width="0"/><path d="M236.07522,162.27411c-53.55957,-12.5004 -95.53158,-35.04519 -93.74711,-50.3552c1.56886,-13.46039 40.30959,-11.73507 63.3722,-8.94434c-0.56857,1.57323 -2.99742,2.63299 -3.25945,4.34356c-21.2585,-0.4192 -48.05662,-2.36655 -49.81562,6.89421c-2.02078,10.63904 42.84712,33.75091 79.36501,42.27392c36.51789,8.52301 92.67636,10.34116 94.70175,-1.90252c1.46668,-8.86622 -15.99043,-18.77624 -34.28071,-24.04692c0.60491,-1.64515 0.74288,-5.47326 1.01088,-7.26955c4.86068,1.75916 47.13882,17.16977 41.30481,36.69663c-8.74046,14.3242 -70.50998,8.8783 -98.65173,2.31022z" fill="url(#color-2)" stroke="none" stroke-width="0"/></g></g></svg>