<svg version="1.1" xmlns="http://www.w3.org/2000/svg" xmlns:xlink="http://www.w3.org/1999/xlink" width="156.17532" height="195.34024" viewBox="0,0,156.17532,195.34024"><defs><linearGradient x1="298.6203" y1="-6.60764" x2="298.6203" y2="270.2804" gradientUnits="userSpaceOnUse" id="color-1"><stop offset="0" stop-color="#000000"/><stop offset="1" stop-color="#000000" stop-opacity="0"/></linearGradient><radialGradient cx="295.89557" cy="129.13481" r="51.03322" gradientUnits="userSpaceOnUse" id="color-2"><stop offset="0" stop-color="#7384e6"/><stop offset="1" stop-color="#7384e6" stop-opacity="0"/></radialGradient><radialGradient cx="294.55591" cy="129.51336" r="4.91739" gradientUnits="userSpaceOnUse" id="color-3"><stop offset="0" stop-color="#dc6e6e"/><stop offset="1" stop-color="#b23535"/></radialGradient><radialGradient cx="334.50739" cy="142.67383" r="3.27093" gradientUnits="userSpaceOnUse" id="color-4"><stop offset="0" stop-color="#dbcd6e"/><stop offset="1" stop-color="#b3a236"/></radialGradient></defs><g transform="translate(-222.96915,-24.9391)"><g data-paper-data="{&quot;isPaintingLayer&quot;:true}" fill-rule="nonzero" stroke-linecap="butt" stroke-linejoin="miter" stroke-miterlimit="10" stroke-dasharray="" stroke-dashoffset="0" style="mix-blend-mode: normal"><path d="M346.52517,181.33513c0.08306,2.91279 -7.47079,10.94732 -46.81921,10.94732c-39.34842,0 -50.33445,-6.8584 -50.34761,-11.54727c-0.01137,-4.04815 10.18494,-9.44736 49.53336,-9.44736c39.34842,0 47.55747,7.38292 47.63346,10.04731z" fill="url(#color-1)" stroke="none" stroke-width="0"/><text transform="translate(274.04396,212.45679) scale(0.46015,0.46015)" font-size="40" xml:space="preserve" fill="#000000" fill-rule="nonzero" stroke="#000000" stroke-width="1" stroke-linecap="butt" stroke-linejoin="miter" stroke-miterlimit="10" stroke-dasharray="" stroke-dashoffset="0" font-family="Handwriting" font-weight="normal" text-anchor="start" style="mix-blend-mode: normal"></text><text transform="translate(259.19562,43.88932) scale(0.49869,0.49869)" font-size="40" xml:space="preserve" fill="#000000" fill-rule="nonzero" stroke="#000000" stroke-width="1" stroke-linecap="butt" stroke-linejoin="miter" stroke-miterlimit="10" stroke-dasharray="" stroke-dashoffset="0" font-family="Handwriting" font-weight="normal" text-anchor="start" style="mix-blend-mode: normal"></text><path d="M346.92879,129.13481c0,27.31765 -22.84835,49.46298 -51.03322,49.46298c-28.18488,0 -51.03323,-22.14533 -51.03323,-49.46297c0,-27.31764 22.84836,-49.46297 51.03323,-49.46297c28.18488,0 51.03322,22.14533 51.03322,49.46297z" fill="url(#color-2)" stroke="none" stroke-width="0"/><g data-paper-data="{&quot;index&quot;:null}" stroke="none" stroke-width="0"><path d="M301.23918,131.1168c0,2.7158 -2.1729,4.91739 -4.85331,4.91739c-2.68041,0 -4.85331,-2.20158 -4.85331,-4.91739c0,-2.7158 2.1729,-4.91739 4.85331,-4.91739c2.68041,0 4.85331,2.20159 4.85331,4.91739z" fill="url(#color-3)"/><path d="M295.47149,134.23207v-2.05879l-1.90078,-0.10842l-0.03791,-1.50716l1.9387,-0.06462v-2.51115h1.70458v2.64039l1.91812,0.00468l-0.01139,1.51039c0,0 -1.94576,0.0566 -1.94375,0.16499c0.01143,0.61598 0.03703,1.92968 0.03703,1.92968z" fill="#511111"/></g><g stroke="none" stroke-width="0"><path d="M338.95295,143.74041c0,1.80648 -1.44537,3.27093 -3.22831,3.27093c-1.78295,0 -3.22832,-1.46444 -3.22832,-3.27093c0,-1.80648 1.44537,-3.27093 3.22832,-3.27093c1.78295,0 3.22831,1.46444 3.22831,3.27093z" fill="url(#color-4)"/><path d="M333.85207,144.37104l-0.02522,-1.00253l3.69931,0.0461l-0.00757,1.00467z" fill="#524011"/></g><text transform="translate(223.09861,65.53603) scale(0.25891,0.25891)" font-size="40" xml:space="preserve" fill="#000000" fill-rule="nonzero" stroke="#000000" stroke-width="1" stroke-linecap="butt" stroke-linejoin="miter" stroke-miterlimit="10" stroke-dasharray="" stroke-dashoffset="0" font-family="Handwriting" font-weight="normal" text-anchor="start" style="mix-blend-mode: normal"></text></g></g></svg>