<svg version="1.1" xmlns="http://www.w3.org/2000/svg" xmlns:xlink="http://www.w3.org/1999/xlink" width="176.21296" height="180.97311" viewBox="0,0,176.21296,180.97311"><defs><linearGradient x1="240.67821" y1="-8.39275" x2="240.67821" y2="268.49528" gradientUnits="userSpaceOnUse" id="color-1"><stop offset="0" stop-color="#04ff00"/><stop offset="1" stop-color="#04ff00" stop-opacity="0"/></linearGradient></defs><g transform="translate(-156.16507,-39.68778)"><g data-paper-data="{&quot;isPaintingLayer&quot;:true}" fill-rule="nonzero" stroke-linejoin="miter" stroke-miterlimit="10" stroke-dasharray="" stroke-dashoffset="0" style="mix-blend-mode: normal"><path d="M288.58308,179.55001c0.08306,2.91279 -7.47079,10.94732 -46.81921,10.94732c-39.34842,0 -50.33445,-6.8584 -50.34761,-11.54727c-0.01137,-4.04815 10.18494,-9.44736 49.53336,-9.44736c39.34842,0 47.55747,7.38292 47.63346,10.04731z" fill="url(#color-1)" stroke="none" stroke-width="0" stroke-linecap="butt"/><text transform="translate(213.76854,212.83834) scale(0.46015,0.46015)" font-size="40" xml:space="preserve" fill="#000000" fill-rule="nonzero" stroke="#000000" stroke-width="1" stroke-linecap="butt" stroke-linejoin="miter" stroke-miterlimit="10" stroke-dasharray="" stroke-dashoffset="0" font-family="Handwriting" font-weight="normal" text-anchor="start" style="mix-blend-mode: normal"></text><text transform="translate(156.3843,56.34926) scale(0.43846,0.43846)" font-size="40" xml:space="preserve" fill="#000000" fill-rule="nonzero" stroke="#000000" stroke-width="1" stroke-linecap="butt" stroke-linejoin="miter" stroke-miterlimit="10" stroke-dasharray="" stroke-dashoffset="0" font-family="Handwriting" font-weight="normal" text-anchor="start" style="mix-blend-mode: normal"></text><path d="M190.5,121.51739c0,0 11.29077,-40.15542 26.31232,-39.76646c17.22172,0.44595 28.14316,77.83307 47.36438,77.50374c17.17349,-0.29426 23.15845,-38.2455 23.15845,-38.2455" fill="none" stroke="#04ff00" stroke-width="10" stroke-linecap="round"/></g></g></svg>