<svg version="1.1" xmlns="http://www.w3.org/2000/svg" xmlns:xlink="http://www.w3.org/1999/xlink" width="88.74163" height="163.50275" viewBox="0,0,88.74163,163.50275"><defs><linearGradient x1="240.61951" y1="58.29925" x2="240.61951" y2="237.16747" gradientUnits="userSpaceOnUse" id="color-1"><stop offset="0" stop-color="#000000"/><stop offset="1" stop-color="#000000" stop-opacity="0"/></linearGradient></defs><g transform="translate(-195.62921,-47.49738)"><g data-paper-data="{&quot;isPaintingLayer&quot;:true}" fill-rule="nonzero" stroke-linejoin="miter" stroke-miterlimit="10" stroke-dasharray="" stroke-dashoffset="0" style="mix-blend-mode: normal"><path d="M284.37023,179.70935c0.07585,1.88165 -6.82295,7.07192 -42.75929,7.07192c-35.93634,0 -45.96971,-4.43047 -45.98172,-7.45949c-0.01038,-2.6151 9.30175,-6.10294 45.23807,-6.10294c35.93634,0 43.43354,4.76932 43.50294,6.49051z" fill="url(#color-1)" stroke="none" stroke-width="0" stroke-linecap="butt"/><text transform="translate(220.90924,205.02038) scale(0.357,0.357)" font-size="40" xml:space="preserve" fill="#ffffff" fill-rule="nonzero" stroke="#ffffff" stroke-width="0.5" stroke-linecap="butt" stroke-linejoin="miter" stroke-miterlimit="10" stroke-dasharray="" stroke-dashoffset="0" font-family="Handwriting" font-weight="normal" text-anchor="start" style="mix-blend-mode: normal"><tspan x="0" dy="0">12Gm</tspan></text><text transform="translate(197.93818,56.47374) scale(0.23622,0.23622)" font-size="40" xml:space="preserve" fill="#ffffff" fill-rule="nonzero" stroke="#ffffff" stroke-width="1" stroke-linecap="butt" stroke-linejoin="miter" stroke-miterlimit="10" stroke-dasharray="" stroke-dashoffset="0" font-family="Handwriting" font-weight="normal" text-anchor="start" style="mix-blend-mode: normal"><tspan x="0" dy="0">If every human stood</tspan><tspan x="0" dy="48px">on top of each other </tspan></text><g stroke-width="0.1"><g fill="#000000" stroke="none" stroke-linecap="butt"><path d="M237.11638,159.66189c0.01232,0.40203 0.07389,1.00975 -0.33254,0.94431c-0.41875,-0.08415 -0.18474,-0.49553 -0.20938,-0.89756c-0.04926,-0.86951 -0.18474,-0.86016 -0.06158,-1.72967c0.39413,-1.43983 1.76123,-2.04755 1.83513,-1.68292c0.06158,0.28984 -0.9114,0.46748 -1.17004,1.70162c-0.2217,1.0752 -0.0739,1.27154 -0.06158,1.66422z" data-paper-data="{&quot;origPos&quot;:null}"/><path d="M237.41197,158.81109c-0.12316,0.76666 -0.12316,1.47722 -0.55423,1.41178c-0.30791,-0.04674 -0.09853,-0.7573 0.01231,-1.43982c0.12316,-0.78536 0.20937,-1.77642 0.5296,-1.74837c0.35717,-0.00935 0.13548,0.9817 0.01232,1.77641z" data-paper-data="{&quot;origPos&quot;:null}"/><path d="M241.05759,159.00743c0.0739,0.77601 0.25865,1.38373 -0.07389,1.42113c-0.33254,0.0374 -0.39413,-0.68252 -0.4557,-1.37438c-0.0739,-0.78536 -0.16011,-1.42113 0.0739,-1.45853c0.34485,-0.0561 0.3818,0.62642 0.4557,1.41178z" data-paper-data="{&quot;origPos&quot;:null}"/><path d="M237.79377,159.46555c-0.09853,0.76666 -0.0739,1.47723 -0.50496,1.42113c-0.32022,-0.0374 -0.12317,-0.75731 -0.03695,-1.43983c0.09853,-0.78536 0.13548,-1.42112 0.39413,-1.43048c0.35717,-0.00935 0.24633,0.66381 0.1478,1.44917z" data-paper-data="{&quot;origPos&quot;:null}"/><path d="M238.44654,159.5684c0,0.77601 0.11084,1.47723 -0.32023,1.44917c-0.32022,-0.0187 -0.22169,-0.74796 -0.22169,-1.43048c0,-0.79471 -0.03695,-1.42113 0.20938,-1.44918c0.35717,-0.0374 0.33254,0.63577 0.33254,1.43048z" data-paper-data="{&quot;origPos&quot;:null}"/><path d="M240.3063,159.50295c0.0739,0.77601 0.24633,1.46787 -0.18474,1.46787c-0.32022,0 -0.28328,-0.72926 -0.35717,-1.42113c-0.0739,-0.78536 -0.17243,-1.42113 0.06158,-1.45853c0.36949,-0.0561 0.40643,0.62642 0.48033,1.41178z" data-paper-data="{&quot;origPos&quot;:null}"/></g><g fill="#000000" stroke="none" stroke-linecap="butt"><path d="M237.49818,156.00622c-0.83751,0.24309 0.34485,0.53293 0.0739,0.74796c-0.48033,0.38333 -1.45333,-0.46748 -0.39413,-1.0752c0.83751,-0.47682 1.98292,0.38333 1.5149,0.66381c-0.34485,0.21504 -0.2217,-0.62642 -1.19468,-0.33658z"/><path d="M237.7014,156.74484c-0.40643,0.21972 -0.85598,-0.43008 -0.22785,-0.74796c0.80056,-0.40203 1.207,0.28984 0.87446,0.46748c-0.2217,0.12154 -0.22169,-0.32724 -0.5296,-0.07479c-0.28328,0.21504 0.20322,0.27113 -0.11701,0.35528z"/></g><g stroke="none" stroke-linecap="butt"><path d="M240.04765,179.26787l0.08621,-0.9069l1.55186,0.0561l0.99761,0.21504l0.77593,0.63577z" fill="#ebebeb"/><path d="M240.22008,178.49186l-0.62813,-4.71216l-0.77593,-5.79671h3.15297v5.82476v4.68411z" fill="#7194cc"/></g><g stroke="none" stroke-linecap="butt"><path d="M235.90938,179.26787l0.08621,-0.9069l1.55186,0.0561l0.99762,0.21504l0.77593,0.63577z" fill="#ebebeb"/><path d="M236.10644,178.49186v-4.88981v-5.61907h3.05444l-0.71434,5.77801l-0.59118,4.73086z" fill="#7194cc"/></g><g fill="#72471e" stroke="none" stroke-linecap="butt"><path d="M243.54548,168.25412l-0.75129,0.22438l-0.81287,-2.53372c0,0 0.28328,-0.39269 0.61581,-0.36464c0.24633,0.0187 0.66508,0.0935 0.66508,0.0935z"/><path d="M243.16368,170.32971c-0.19706,0 -0.08622,-0.82276 -0.27096,-0.86015c-0.13548,-0.02805 0.02463,0.50487 -0.02463,0.58902c-0.04926,0.08415 -0.33254,-0.08414 -0.33254,-0.08414c0,0 -0.24633,-0.49553 -0.28328,-0.74797c-0.09853,-0.57032 0.50496,-1.05649 0.50496,-1.05649l0.75129,0.0374c0,0 0.44339,0.62642 0.44339,1.02845c0,0.37398 -0.33254,0.85081 -0.33254,0.85081c0,0 -0.24633,0.24309 -0.4557,0.24309z"/></g><g stroke="none" stroke-linecap="butt"><path d="M242.78187,166.01023c-0.29559,0.0374 -0.78824,-0.12154 -0.78824,-0.12154c0,0 -0.73898,-4.38493 -0.09853,-4.54387c1.15773,-0.31788 1.36711,4.35688 1.36711,4.35688c0,0 -0.18474,0.27114 -0.48034,0.30854z" fill="#72471e"/><path d="M241.45171,164.29926c0,0 -0.8375,-3.076 0.23401,-3.28169c0.93604,-0.18699 1.99524,2.71137 1.99524,2.71137z" fill="#a789d6"/></g><path d="M235.82317,168.25412l0.08622,-7.12435c0,0 1.40406,-0.53293 2.8697,-0.55163c1.47796,-0.0187 3.05444,0.33658 3.05444,0.33658l0.27095,7.24589z" fill="#b598e2" stroke="none" stroke-linecap="butt"/><g fill="#72471e" stroke="none" stroke-linecap="butt"><path d="M237.44892,158.63344c0.09853,0.22439 0.03695,0.43942 -0.12317,0.47682c-0.17243,0.04674 -0.39412,-0.09349 -0.49265,-0.31788c-0.09853,-0.22439 -0.03695,-0.43943 0.12316,-0.47683c0.17243,-0.04674 0.39413,0.10285 0.49266,0.31789z" data-paper-data="{&quot;origPos&quot;:null}"/><path d="M238.23716,159.83018l1.67502,0.15894l-0.01232,0.85081c0,0 0.6035,0.08415 0.59118,0.34593c-0.01232,0.42073 -2.32778,0.64512 -2.80812,0c-0.18474,-0.31788 0.48034,-0.46748 0.48034,-0.46748z" data-paper-data="{&quot;origPos&quot;:null}"/><path d="M241.32855,158.42775c0,1.19674 -0.97298,1.83251 -1.8105,1.86056c-1.45332,0.0187 -2.38936,-0.8882 -2.38936,-2.08495c0,-1.19674 0.27096,-2.0943 2.1184,-2.15974c1.40406,-0.0561 2.32317,1.0752 2.07684,2.35609z" data-paper-data="{&quot;origPos&quot;:null}"/></g><g stroke="none" stroke-linecap="butt"><path d="M234.65312,166.24397c-0.24633,-0.0187 -0.64045,-0.20569 -0.64045,-0.20569c0,0 0.56655,-4.73086 2.03219,-4.70281c1.14542,-0.02805 -0.73898,4.79631 -0.73898,4.79631c0,0 -0.39412,0.1309 -0.65276,0.1122z" fill="#72471e"/><path d="M234.0373,163.82244c0,0 1.15774,-2.71137 1.87208,-2.63657c1.68733,0.1683 0.39412,3.44998 0.39412,3.44998z" fill="#a789d6"/></g><g><path d="M238.16326,157.82003c0,0 0.35717,-0.07479 0.54191,-0.07479c0.20937,-0.00935 0.4557,0.07479 0.4557,0.07479" fill="none" stroke="#000000" stroke-linecap="round"/><g><path d="M238.15095,158.23141c0,0 0.27095,-0.17764 0.55423,-0.15894c0.30791,0.0187 0.35718,0.14024 0.35718,0.14024" fill="none" stroke="#000000" stroke-linecap="round"/><path d="M238.5697,158.29686c0,-0.1122 0.11085,-0.20568 0.25865,-0.20568c0.1478,0 0.25864,0.09349 0.25864,0.20568c0,0.1122 -0.11085,0.20569 -0.25864,0.20569c-0.1478,0 -0.25865,-0.09349 -0.25865,-0.20569z" fill="#000000" stroke="none" stroke-linecap="butt"/></g></g><path d="M240.31861,156.98792c-0.30791,-0.04674 -1.84744,-0.00935 -2.13072,0.0935c-0.70203,0.27113 -0.81288,1.34633 -0.81288,1.34633l-0.32022,-0.07479c0,0 -0.43107,-2.32803 2.20461,-2.30934c1.40406,-0.0561 2.00755,0.95365 2.06914,1.56137c0,-0.00935 -0.01231,-0.46748 -1.00993,-0.61707z" fill="#35210e" stroke="none" stroke-linecap="butt"/><g><path d="M240.05997,157.82003c0,0 0.28328,-0.07479 0.49265,-0.07479c0.18474,0.00935 0.39413,0.04675 0.39413,0.04675" fill="none" stroke="#000000" stroke-linecap="round"/><g><path d="M240.07229,158.20337c0,0 0.06158,-0.12155 0.35717,-0.14024c0.28328,-0.0187 0.55424,0.15894 0.55424,0.15894" fill="none" stroke="#000000" stroke-linecap="round"/><path d="M240.63884,158.4745c-0.1478,0 -0.25864,-0.09349 -0.25864,-0.20569c0,-0.1122 0.11085,-0.20568 0.25864,-0.20568c0.1478,0 0.25865,0.09349 0.25865,0.20568c0,0.1122 -0.11085,0.20569 -0.25865,0.20569z" fill="#000000" stroke="none" stroke-linecap="butt"/></g></g><g fill="none" stroke="#d20000"><path d="M237.91694,158.67084v-0.78536h1.30553v0.78536z" stroke-linecap="butt"/><path d="M239.93681,158.67084v-0.78536h1.34248v0.78536z" stroke-linecap="butt"/><path d="M239.28404,158.29686l0.54192,-0.0017" data-paper-data="{&quot;origPos&quot;:null}" stroke-linecap="round"/><path d="M237.21491,158.29686l0.6035,-0.0374" stroke-linecap="round"/></g><g fill="#000000" stroke="none" stroke-linecap="butt"><g data-paper-data="{&quot;origPos&quot;:null}"><path d="M239.61658,156.68874c-0.04926,0.29918 -0.87446,0.11219 -1.33016,1.31828c-0.38181,1.02845 -0.46802,1.75771 -0.94835,1.58007c-0.30791,-0.1122 0.03695,-0.73862 0.4557,-1.83251c0.5296,-1.41178 1.85976,-1.36503 1.82281,-1.06584z"/><path d="M241.45171,157.605c0.18474,0.93496 0.24633,1.29023 -0.19706,1.27154c-0.34485,-0.0187 -0.09853,-0.47683 -0.29559,-1.10325c-0.32022,-1.00975 -1.33016,-0.56097 -1.36711,-1.08454c-0.04926,-0.29918 1.63807,-0.23374 1.85976,0.91626z"/><path d="M238.98846,156.87573c-0.04926,0.42073 -0.84982,0.15895 -1.28089,0.65447c-0.43107,0.49552 -0.44749,1.02845 -0.73898,0.86015c-0.2997,-0.14024 -0.29039,-0.31651 0.31202,-1.14687c0.60241,-0.83036 1.72018,-0.57344 1.70786,-0.36775z" data-paper-data="{&quot;origPos&quot;:null}"/><path d="M237.83072,158.02572c-0.2217,0.18699 -0.81288,0.55163 -1.02225,0.26179c-0.20937,-0.28984 0.51729,-0.22439 0.71435,-0.50487c0.19706,-0.28048 0.17243,-0.75732 0.54192,-0.65447c0.27095,0.06545 0.12316,0.59837 -0.23401,0.89756z"/></g><g data-paper-data="{&quot;origPos&quot;:null}"><path d="M240.762,156.95988c-0.25864,0.12154 -0.48034,-0.1683 -0.65277,-0.40203c-0.19706,-0.28048 -0.39413,-0.41138 -0.1478,-0.55162c0.30791,-0.15894 0.45571,0.11219 0.64045,0.32723c0.24633,0.28048 0.4557,0.48618 0.16011,0.62642z"/><path d="M240.07229,156.88508c-0.25864,0.12154 -0.48033,-0.1683 -0.65276,-0.40203c-0.19706,-0.28048 -0.39413,-0.41138 -0.1478,-0.55163c0.30791,-0.15894 0.4557,0.1122 0.64044,0.32724c0.24633,0.28984 0.4557,0.49552 0.16011,0.62642z"/><path d="M239.41952,156.91313c-0.25864,0.12154 -0.48034,-0.1683 -0.65277,-0.40203c-0.19706,-0.28048 -0.39413,-0.41138 -0.1478,-0.55162c0.30791,-0.15894 0.4557,0.1122 0.64044,0.32724c0.25864,0.28048 0.45571,0.48618 0.16012,0.62642z"/><path d="M239.01308,156.88508c-0.19706,0.17764 -0.5296,-0.04675 -0.77593,-0.23374c-0.29559,-0.21504 -0.55424,-0.29919 -0.36949,-0.49553c0.23401,-0.22439 0.48034,0 0.73898,0.15894c0.35717,0.22439 0.64045,0.37398 0.40644,0.57032z"/><path d="M238.6436,157.01597c-0.12316,0.20569 -0.51728,0.0748 -0.8375,-0.05609c-0.36949,-0.14024 -0.64045,-0.16829 -0.5296,-0.39268c0.13548,-0.26179 0.4557,-0.10285 0.77593,-0.00935c0.40643,0.1309 0.72666,0.21504 0.59118,0.45813z"/><path d="M237.6583,157.36191c-0.40643,-0.0561 -0.6774,-0.0187 -0.66508,-0.25244c0.02463,-0.28048 0.40644,-0.19634 0.73898,-0.17764c0.4557,0.02805 0.78824,0.0374 0.75129,0.29919c-0.04926,0.25243 -0.82519,0.13089 -0.82519,0.13089z" data-paper-data="{&quot;origPos&quot;:null}"/></g></g><g fill="#72471e" stroke="none" stroke-linecap="butt"><path d="M234.20973,168.5533l-0.2217,-2.58982c0,0 0.40644,-0.11219 0.65277,-0.14959c0.33254,-0.0561 0.68971,0.30853 0.68971,0.30853l-0.32022,2.58983z"/><path d="M234.46837,170.33906c0,0 -0.41875,-0.44878 -0.49265,-0.82276c-0.0739,-0.40203 0.24633,-1.0565 0.24633,-1.0565l0.73898,-0.10285c0,0 0.68972,0.43942 0.70203,1.0004c0,0.25243 -0.13548,0.76666 -0.13548,0.76666c0,0 -0.24633,0.187 -0.30791,0.1122c-0.06158,-0.07479 0,-0.61707 -0.13548,-0.57967c-0.17243,0.04674 0.08621,0.86015 -0.11085,0.86951c-0.2217,0.02805 -0.50496,-0.18699 -0.50496,-0.18699z"/></g><path d="M239.89986,159.6245c0,0.06545 -0.24633,0.20569 -0.4557,0.20569c-0.2217,0 -0.43107,-0.17764 -0.43107,-0.25244c0,-0.06545 0.27096,0 0.49265,0c0.2217,0 0.39412,-0.0187 0.39412,0.04675z" fill="#000000" stroke="none" stroke-linecap="butt"/><path d="M239.56732,158.568c0,0 0.28328,0.17764 0.27096,0.32724c0,0.06545 -0.30791,0.19634 -0.30791,0.19634" fill="none" stroke="#000000" stroke-linecap="round"/><g stroke="none" stroke-linecap="butt"><path d="M239.6932,156.28166l0.09372,-0.76676l1.54114,0.04743l0.97883,0.18181l0.77057,0.53752z" fill="#ebebeb"/><path d="M239.7661,155.62556l-0.38529,-3.98401l-0.82263,-4.90097h3.12393l0.07289,4.92468v3.9603z" fill="#a4bdda"/></g><g stroke="none" stroke-linecap="butt"><path d="M235.74664,156.28166l0.09371,-0.76676l1.54114,0.04743l0.97884,0.18181l0.77057,0.53752z" fill="#ebebeb"/><path d="M235.90283,155.62556l0.05207,-4.13421l0.07289,-4.75078h3.03021l-0.83305,4.88515l-0.48942,3.99983z" fill="#a4bdda"/></g><g stroke="none" stroke-linecap="butt"><path d="M242.33813,145.11658c-0.33322,0.03162 -0.89553,-0.10276 -0.89553,-0.10276c0,0 -0.84346,-3.70735 -0.11454,-3.84172c1.31205,-0.26876 1.55155,3.68363 1.55155,3.68363c0,0 -0.21868,0.22924 -0.54148,0.26086z" fill="#d1a56b"/><path d="M240.83864,143.67001c0,0 -0.93718,-2.60068 0.26032,-2.77459c1.05172,-0.1581 2.24923,2.29239 2.24923,2.29239z" fill="#774444"/></g><g fill="#d1a56b" stroke="none" stroke-linecap="butt"><g data-paper-data="{&quot;origPos&quot;:null}"><path d="M243.17118,146.99793l-0.85387,0.18972l-0.91635,-2.1422c0,0 0.32281,-0.33201 0.69768,-0.30829c0.28116,0.01581 0.76016,0.07905 0.76016,0.07905z" data-paper-data="{&quot;origPos&quot;:null}"/></g><path d="M242.80836,148.78227c-0.19612,0.02129 -0.11588,-0.69166 -0.29963,-0.70446c-0.14087,-0.01116 0.02699,0.43103 -0.01821,0.50224c-0.05541,0.07274 -0.34087,-0.04568 -0.34087,-0.04568c0,0 -0.26399,-0.40363 -0.30814,-0.61456c-0.11059,-0.46687 0.47929,-0.93379 0.47929,-0.93379l0.75774,-0.02474c0,0 0.45765,0.49552 0.47271,0.83971c0.00902,0.32092 -0.31322,0.75586 -0.31322,0.75586c0,0 -0.23976,0.22117 -0.4297,0.22542z" data-paper-data="{&quot;origPos&quot;:null,&quot;index&quot;:null,&quot;origRot&quot;:0}"/></g><path d="M235.77788,147.14372l-0.02083,-6.03135c0,0 1.5828,-0.62448 2.9365,-0.64029c1.3537,-0.01581 2.4922,0.31707 2.74212,0.41983c0.2395,0.09485 0.31933,6.42571 0.31933,6.42571c0,0 -1.78064,0.22134 -2.98856,0.21343c-1.22875,-0.01581 -2.98856,-0.38734 -2.98856,-0.38734z" fill="#925353" stroke="none" stroke-linecap="butt"/><g stroke="none" stroke-linecap="butt"><path d="M234.69492,145.2703c-0.26032,-0.01581 -0.65602,-0.1739 -0.65602,-0.1739c0,0 0.58313,-3.99982 2.0722,-3.97611c1.16627,-0.02372 -0.74975,4.05515 -0.74975,4.05515c0,0 -0.40611,0.11067 -0.66644,0.09486z" fill="#d1a56b"/><path d="M234.05972,143.22295c0,0 1.30164,-2.23705 2.03055,-2.17381c1.72858,0.14228 0.29156,2.86153 0.29156,2.86153z" fill="#774444"/></g><g fill="#d1a56b" stroke="none" stroke-linecap="butt"><path d="M234.24715,147.22278l-0.21868,-2.18963c0,0 0.41653,-0.09485 0.65603,-0.12647c0.33322,-0.04743 0.69768,0.26086 0.69768,0.26086l-0.33322,2.18963z"/><path d="M234.50748,148.7326c0,0 -0.42694,-0.37944 -0.49983,-0.69563c-0.07289,-0.3399 0.24991,-0.89324 0.24991,-0.89324l0.74974,-0.08695c0,0 0.69768,0.37152 0.7081,0.84581c0.01041,0.21343 -0.14579,0.64819 -0.14579,0.64819c0,0 -0.24991,0.1581 -0.3228,0.09486c-0.07289,-0.06324 -0.01041,-0.52172 -0.14578,-0.4901c-0.17702,0.03952 0.0833,0.72724 -0.11455,0.73514c-0.18743,0.02372 -0.47901,-0.15809 -0.47901,-0.15809z"/></g><path d="M236.9858,139.41285c0,0.73514 -0.56231,1.55724 -0.78098,1.38334c-0.28116,-0.21343 -0.59355,-0.88534 -0.59355,-1.61258c0,-0.72724 0.47901,-1.09876 0.80181,-1.09876c0.3228,0 0.55884,0.1133 0.60049,0.13701c0.13537,0.07115 -0.02777,0.45584 -0.02777,1.19099z" fill="#1f1307" stroke="none" stroke-linecap="butt"/><path d="M240.93236,138.1718c0,1.03553 -1.05172,1.88134 -2.34294,1.88134c-1.29122,0 -2.34295,-0.84581 -2.34295,-1.88134c0,-1.03553 1.05173,-1.88134 2.34295,-1.88134c1.29122,0 2.34294,0.83791 2.34294,1.88134z" fill="#1f1307" stroke="none" stroke-linecap="butt"/><g fill="#cca168" stroke="none" stroke-linecap="butt"><path d="M237.91256,139.71323l1.58279,0.26876l-0.01041,0.71934c0,0 0.51024,0.07114 0.49983,0.29248c-0.01041,0.35572 -1.96807,0.54543 -2.37419,0c-0.1562,-0.26876 0.20826,-0.36362 0.20826,-0.36362z" data-paper-data="{&quot;origPos&quot;:null}"/><path d="M237.43356,138.83579c0.0833,0.18972 0.03123,0.37152 -0.10414,0.40314c-0.14578,0.03952 -0.33322,-0.07904 -0.41652,-0.26876c-0.0833,-0.18972 -0.03124,-0.37153 0.10413,-0.40315c0.14578,-0.03952 0.33322,0.08695 0.41653,0.26877z" data-paper-data="{&quot;origPos&quot;:null}"/><path d="M240.71369,138.66189c0,1.01181 -0.82263,1.54933 -1.53072,1.57305c-1.22875,0.01581 -2.02014,-0.75096 -2.02014,-1.76277c0,-1.01181 0.22908,-1.77067 1.79105,-1.82601c1.18709,-0.04743 1.96417,0.90905 1.75591,1.99201z" data-paper-data="{&quot;origPos&quot;:null}"/></g><path d="M239.50577,139.66581c0,0.05533 -0.20826,0.1739 -0.38529,0.1739c-0.18743,0 -0.36446,-0.15019 -0.36446,-0.21343c0,-0.05533 0.22909,0 0.41653,0c0.17702,0.0079 0.33322,-0.01581 0.33322,0.03952z" fill="#000000" stroke="none" stroke-linecap="butt"/><path d="M239.48494,139.15199c0,0 -0.12495,0.05533 -0.2395,0.05533c-0.13537,0 -0.26032,-0.03952 -0.26032,-0.03952" fill="none" stroke="#000000" stroke-linecap="round"/><g><path d="M238.03752,138.14808c0,0 0.30197,-0.06324 0.45818,-0.06324c0.17702,-0.0079 0.38528,0.06324 0.38528,0.06324" fill="none" stroke="#000000" stroke-linecap="round"/><g><path d="M238.02711,138.41685c0,0 0.22909,-0.07905 0.46859,-0.06324c0.26032,0.01581 0.30198,0.11858 0.30198,0.11858" fill="none" stroke="#000000" stroke-linecap="round"/><path d="M238.37074,138.55123c0,-0.09485 0.09372,-0.1739 0.21867,-0.1739c0.12495,0 0.21867,0.07905 0.21867,0.1739c0,0.09485 -0.09372,0.1739 -0.21867,0.1739c-0.11454,0 -0.21867,-0.07905 -0.21867,-0.1739z" fill="#000000" stroke="none" stroke-linecap="butt"/></g></g><g><path d="M239.64114,138.14018c0,0 0.23951,-0.06324 0.41653,-0.06324c0.1562,0.0079 0.33322,0.03952 0.33322,0.03952" fill="none" stroke="#000000" stroke-linecap="round"/><g><path d="M239.64114,138.46427c0,0 0.05207,-0.10276 0.30198,-0.11857c0.2395,-0.01581 0.46859,0.02371 0.46859,0.02371" fill="none" stroke="#000000" stroke-linecap="round"/><path d="M240.15138,138.70142c-0.12495,0 -0.21867,-0.07905 -0.21867,-0.17391c0,-0.09485 0.09372,-0.17391 0.21867,-0.17391c0.12495,0 0.21867,0.07906 0.21867,0.17391c0,0.09485 -0.09372,0.17391 -0.21867,0.17391z" fill="#000000" stroke="none" stroke-linecap="butt"/></g></g><g stroke="none" stroke-linecap="butt"><path d="M237.10034,136.80427c0.56231,-0.31619 1.67651,-0.56914 1.99932,-0.23714c0.3228,0.332 -0.44776,1.05924 -1.01007,1.37543c-0.56231,0.31619 -0.96842,0.90115 -1.30164,0.56915c-0.31239,-0.32409 -0.2395,-1.38334 0.31239,-1.70744z" fill="#1f1307"/><path d="M241.04691,138.5038c-0.3228,0.332 -0.47901,-0.57706 -0.86429,-1.01182c-0.40611,-0.45848 -1.3537,-0.61658 -1.0309,-0.94858c0.3228,-0.332 1.06213,-0.05533 1.62444,0.26086c0.56231,0.32409 0.60396,1.36753 0.27074,1.69953z" fill="#2c1b0a"/></g><g stroke="none" stroke-linecap="butt"><path d="M235.53362,136.66745l0.09574,-0.78336l1.5745,0.04846l1.00002,0.18574l0.78724,0.54915z" fill="#ebebeb"/><path d="M235.69319,135.99716l0.0532,-4.22368l0.07447,-4.8536h3.0958l-0.70214,4.99089l-0.50001,4.08639z" fill="#00bcbd"/></g><g stroke="none" stroke-linecap="butt"><path d="M239.5656,136.66745l0.09575,-0.78336l1.57449,0.04846l1.00002,0.18574l0.78724,0.54915z" fill="#ebebeb"/><path d="M239.4805,135.99716l-0.39362,-4.07024l-0.68087,-5.00704h3.19155l0.07447,5.03127v4.04601z" fill="#00bcbd"/></g><g stroke="none" stroke-linecap="butt"><path d="M242.26777,125.23381c-0.34043,0.0323 -0.91491,-0.10498 -0.91491,-0.10498c0,0 -0.86172,-3.78759 -0.11702,-3.92487c1.34044,-0.27458 1.58514,3.76336 1.58514,3.76336c0,0 -0.22341,0.2342 -0.5532,0.26651z" fill="#9e6b30"/><path d="M240.73583,123.75593c0,0 -0.95746,-2.65696 0.26596,-2.83464c1.07449,-0.16152 2.29791,2.34201 2.29791,2.34201z" fill="#62a7a7"/></g><g fill="#9e6b30" stroke="none" stroke-linecap="butt"><g data-paper-data="{&quot;origPos&quot;:null}"><path d="M243.11885,127.15587l-0.87235,0.19382l-0.93619,-2.18856c0,0 0.3298,-0.33919 0.71278,-0.31496c0.28724,0.01615 0.77661,0.08076 0.77661,0.08076z" data-paper-data="{&quot;origPos&quot;:null}"/></g><path d="M242.74818,128.97882c-0.20038,0.02175 -0.11839,-0.70664 -0.30612,-0.71971c-0.14392,-0.01139 0.02758,0.44036 -0.01859,0.51312c-0.05661,0.07432 -0.34826,-0.04668 -0.34826,-0.04668c0,0 -0.2697,-0.41237 -0.3148,-0.62786c-0.11299,-0.47697 0.48967,-0.95399 0.48967,-0.95399l0.77415,-0.02527c0,0 0.46756,0.50623 0.48295,0.85787c0.00922,0.32787 -0.32,0.77222 -0.32,0.77222c0,0 -0.24494,0.22597 -0.439,0.2303z" data-paper-data="{&quot;origPos&quot;:null,&quot;index&quot;:null,&quot;origRot&quot;:0}"/></g><path d="M235.45915,127.3479l0.02128,-6.16189c0,0 1.68088,-0.638 3.11708,-0.65414c1.43619,-0.01615 2.69153,0.39572 2.96813,0.50071c0.25532,0.09691 0.2766,6.493 0.2766,6.493c0,0 -1.89365,0.22613 -3.17027,0.21805c-1.30854,-0.01615 -3.21282,-0.39572 -3.21282,-0.39572z" fill="#a7d2fe" stroke="none" stroke-linecap="butt"/><g fill="#9e6b30" stroke="none" stroke-linecap="butt"><path d="M237.74642,119.74042l1.61705,0.27458l-0.01064,0.7349c0,0 0.52129,0.07268 0.51065,0.29881c-0.01064,0.36342 -2.01067,0.55724 -2.42557,0c-0.15957,-0.27458 0.21277,-0.37149 0.21277,-0.37149z" data-paper-data="{&quot;origPos&quot;:null}"/><path d="M237.25705,118.844c0.0851,0.19382 0.03191,0.37957 -0.10639,0.41187c-0.14894,0.04038 -0.34043,-0.08075 -0.42553,-0.27458c-0.0851,-0.19382 -0.03192,-0.37957 0.10638,-0.41187c0.14894,-0.04038 0.34044,0.08884 0.42554,0.27458z" data-paper-data="{&quot;origPos&quot;:null}"/><path d="M240.60817,118.66633c0,1.03371 -0.84045,1.58286 -1.56386,1.6071c-1.25534,0.01615 -2.06386,-0.76721 -2.06386,-1.80092c0,-1.03371 0.23404,-1.809 1.82982,-1.86553c1.21278,-0.04846 2.00668,0.92873 1.79392,2.03512z" data-paper-data="{&quot;origPos&quot;:null}"/></g><path d="M239.37411,119.69197c0,0.05653 -0.21277,0.17767 -0.39362,0.17767c-0.18086,0 -0.37235,-0.15344 -0.37235,-0.21805c0,-0.05653 0.23404,0 0.42554,0c0.1915,0 0.34043,-0.01615 0.34043,0.04038z" fill="#000000" stroke="none" stroke-linecap="butt"/><path d="M239.17198,118.86823c0,0 0.15958,0.08076 0.14894,0.2019c0,0.05653 -0.26596,0.1696 -0.26596,0.1696" fill="none" stroke="#000000" stroke-linecap="round"/><path d="M237.10811,117.43072" fill="none" stroke="#000000" stroke-linecap="round"/><g stroke="none" stroke-linecap="butt"><path d="M234.45913,125.41776c-0.26596,-0.01615 -0.67023,-0.17767 -0.67023,-0.17767c0,0 0.59576,-4.08639 2.11706,-4.06216c1.19151,-0.02423 -0.76597,4.14292 -0.76597,4.14292c0,0 -0.4149,0.11306 -0.68087,0.09691z" fill="#9e6b30"/><path d="M233.81018,123.32611c0,0 1.21278,-2.34201 1.95748,-2.2774c1.76599,0.14536 0.4149,2.98 0.4149,2.98z" fill="#62a7a7"/></g><g><path d="M237.87408,118.1414c0,0 0.30852,-0.06461 0.4681,-0.06461c0.18086,-0.00808 0.39362,0.06461 0.39362,0.06461" fill="none" stroke="#000000" stroke-linecap="round"/><g><path d="M237.86344,118.48866c0,0 0.23405,-0.15344 0.47874,-0.13729c0.26596,0.01615 0.30851,0.12114 0.30851,0.12114" fill="none" stroke="#000000" stroke-linecap="round"/><path d="M238.21452,118.55327c0,-0.09691 0.09574,-0.17766 0.22341,-0.17766c0.12766,0 0.22341,0.08075 0.22341,0.17766c0,0.09691 -0.09574,0.17767 -0.22341,0.17767c-0.11702,0 -0.22341,-0.08076 -0.22341,-0.17767z" fill="#000000" stroke="none" stroke-linecap="butt"/></g></g><g><path d="M239.51241,118.13332c0,0 0.24469,-0.06461 0.42554,-0.06461c0.15957,0.00808 0.34043,0.04038 0.34043,0.04038" fill="none" stroke="#000000" stroke-linecap="round"/><g><path d="M239.51241,118.46444c0,0 0.05319,-0.10499 0.30851,-0.12114c0.24469,-0.01615 0.47874,0.05653 0.47874,0.05653" fill="none" stroke="#000000" stroke-linecap="round"/><path d="M240.03369,118.70671c-0.12766,0 -0.22341,-0.08076 -0.22341,-0.17767c0,-0.09691 0.09574,-0.17766 0.22341,-0.17766c0.12766,0 0.22341,0.08075 0.22341,0.17766c0,0.09691 -0.09574,0.17767 -0.22341,0.17767z" fill="#000000" stroke="none" stroke-linecap="butt"/></g></g><g fill="#9e6b30" stroke="none" stroke-linecap="butt"><path d="M234.00168,127.4125l-0.22341,-2.23701c0,0 0.42554,-0.09691 0.67022,-0.12921c0.34043,-0.04846 0.71277,0.2665 0.71277,0.2665l-0.34043,2.23702z"/><path d="M234.26764,128.955c0,0 -0.43618,-0.38764 -0.51065,-0.71068c-0.07447,-0.34726 0.25533,-0.91257 0.25533,-0.91257l0.76597,-0.08884c0,0 0.71278,0.37957 0.72342,0.86412c0.01064,0.21805 -0.14894,0.66222 -0.14894,0.66222c0,0 -0.25532,0.16152 -0.32979,0.09691c-0.07447,-0.06461 -0.01064,-0.53301 -0.14894,-0.50071c-0.18086,0.04038 0.08511,0.74299 -0.11702,0.75106c-0.1915,0.02423 -0.48937,-0.16152 -0.48937,-0.16152z"/></g><path d="M239.73581,117.42264c-0.26596,-0.04038 -1.59577,-0.00808 -1.84045,0.08076c-0.60639,0.2342 -0.70214,1.16293 -0.70214,1.16293l-0.2766,-0.06461c0,0 -0.37235,-2.01089 1.90429,-1.99474c1.21278,-0.04846 1.73407,0.82374 1.78726,1.34867c0,-0.00808 -0.01064,-0.4038 -0.87235,-0.53301z" fill="#4d2f15" stroke="none" stroke-linecap="butt"/><g stroke="none" stroke-linecap="butt"><path d="M236.69485,118.87195c0.0187,0.16694 0.18322,0.28884 0.15211,0.29504c-0.02329,0.00464 -0.04456,0.00812 -0.06864,0.00812c-0.20213,0 -0.23404,-0.14536 -0.23404,-0.32303c0,-0.18574 0.10884,-0.31869 0.25778,-0.31869c0.14894,0 -0.14404,0.00962 -0.10721,0.33857z" data-paper-data="{&quot;origPos&quot;:null}" fill="#c5c5c5"/><path d="M236.84215,118.8763c0,-0.06461 0.07447,-0.12113 0.15957,-0.12113c0.0851,0 0.15958,0.05653 0.15958,0.12113c0,0.06461 -0.07448,0.12114 -0.15958,0.12114c-0.0851,0 -0.15957,-0.05653 -0.15957,-0.12114z" data-paper-data="{&quot;origPos&quot;:null}" fill="#f2f2f2"/><path d="M237.13713,118.59181c0.07862,0.08559 -0.00763,0.27885 -0.10695,0.22969c-0.07027,-0.03366 -0.00397,-0.11888 -0.03812,-0.16729c-0.08548,-0.12114 -0.2596,-0.01262 -0.29014,-0.10646c-0.01937,-0.05953 0.25388,-0.15335 0.43521,0.04405z" data-paper-data="{&quot;origPos&quot;:null,&quot;origRot&quot;:0}" fill="#f2f2f2"/></g><g fill="#000000" stroke="none" stroke-linecap="butt"><path d="M238.4592,116.57468c0.0851,0.30688 -0.50268,0.13977 -0.98938,0.32304c-0.47087,0.17731 -0.72155,0.58692 -0.97874,0.34726c-0.22,-0.205 0.18891,-0.43557 0.59931,-0.64338c0.56047,-0.2838 1.32054,-0.20096 1.36881,-0.02692z" data-paper-data="{&quot;origPos&quot;:null}"/><path d="M238.62941,116.75235c0.0851,0.30688 -0.5532,0.0969 -1.1064,0.48455c-0.52863,0.37042 -0.63108,0.83492 -0.98938,0.7026c-0.26242,-0.09691 0.17242,-0.59944 0.52483,-0.91795c0.5767,-0.52121 1.52269,-0.44323 1.57095,-0.26919z" data-paper-data="{&quot;origPos&quot;:null}"/><path d="M238.69325,116.96232c0.0851,0.30688 -0.63831,0.16152 -1.08512,0.58954c-0.44681,0.42802 -0.43958,0.83492 -0.79789,0.7026c-0.26242,-0.09691 0.05539,-0.65598 0.40781,-0.97449c0.5767,-0.52121 1.42694,-0.49169 1.4752,-0.31765z" data-paper-data="{&quot;origPos&quot;:null}"/><path d="M238.93793,117.09154c0.10638,0.35534 -0.33142,0.15335 -0.75534,0.38764c-0.51536,0.28484 0.09234,0.85107 -0.32979,0.94488c-0.28369,0.09691 -0.58292,-0.6802 -0.2305,-0.99871c0.5767,-0.52121 1.26736,-0.50785 1.31562,-0.33381z" data-paper-data="{&quot;origPos&quot;:null}"/></g><g fill="#000000" stroke="none" stroke-linecap="butt"><path d="M240.59692,116.89251c-0.14672,0.19145 -0.44587,-0.1229 -0.96593,-0.18073c-0.53755,-0.05978 -0.99629,0.18083 -1.04063,-0.13097c-0.02515,-0.17682 0.65066,-0.36612 1.29117,-0.20752c0.85086,0.2107 0.71538,0.51922 0.71538,0.51922z" data-paper-data="{&quot;origPos&quot;:null,&quot;index&quot;:null,&quot;origRot&quot;:0}"/><path d="M240.15446,116.80036c0.52745,0.281 1.14284,0.80525 0.91917,0.94754c-0.3054,0.19427 -0.61687,-0.36676 -1.24796,-0.62893c-0.66043,-0.27435 -0.90037,-0.05105 -0.94084,-0.26664c-0.04137,-0.22043 0.78691,-0.30913 1.26963,-0.05196z" data-paper-data="{&quot;origPos&quot;:null,&quot;index&quot;:null,&quot;origRot&quot;:0}"/><path d="M240.41704,117.32044c0.31825,0.383 0.59566,1.03992 0.1453,1.03188c-0.34063,-0.00608 -0.12717,-0.18562 -0.41839,-0.66411c-0.30173,-0.49577 -1.29671,-0.35792 -1.19938,-0.6627c0.05519,-0.17285 0.91685,-0.23931 1.47247,0.29493z" data-paper-data="{&quot;origPos&quot;:null,&quot;index&quot;:null,&quot;origRot&quot;:0}"/></g><path d="M239.86123,116.66499l0.06598,-0.78706l1.18762,0.05009l0.76347,0.18603l0.37703,0.55094z" fill="#464646" stroke="none" stroke-linecap="butt"/><path d="M236.00618,116.66499l0.06598,-0.78706l1.18762,0.05009l0.76347,0.18603l0.38645,0.55094z" fill="#464646" stroke="none" stroke-linecap="butt"/><path d="M234.92224,116.07112l0.57496,-3.91385l0.62208,-4.23583l5.31601,-0.05008l0.74462,4.42186l0.46186,3.67057z" fill="#262f46" stroke="none" stroke-linecap="butt"/><path d="M241.93485,106.73369c-0.25449,-0.01431 -0.91428,-0.17887 -0.91428,-0.17887l-0.28277,-1.83171c0,0 -0.28276,-1.73869 0.23565,-1.88895c0.443,-0.12879 0.87658,0.25758 1.19705,1.07327c0.32047,0.81569 0.45243,2.74041 0.45243,2.74041c0,0 -0.43357,0.10017 -0.68806,0.08586z" fill="#b33939" stroke="none" stroke-linecap="butt"/><g stroke="none" stroke-linecap="butt"><path d="M243.42409,108.57256l-1.56464,0.24328l-0.8483,-2.19662c0,0 0.49013,-0.37922 0.82945,-0.37922c0.25449,0 0.68806,0.02862 0.68806,0.02862z" data-paper-data="{&quot;origPos&quot;:null}" fill="#b33939"/><path d="M242.99531,110.23234c-0.18393,0.03216 -0.19261,-0.62045 -0.38425,-0.60894c-0.14373,0.00863 0.09353,0.38147 0.0532,0.45709c-0.04033,0.07562 -0.3431,-0.00051 -0.3431,-0.00051c0,0 -0.30466,-0.34346 -0.38317,-0.52737c-0.175,-0.416 0.3493,-0.90073 0.3493,-0.90073l0.74344,-0.108c0,0 0.52203,0.40079 0.5782,0.7085c0.04846,0.28705 -0.21288,0.71518 -0.21288,0.71518c0,0 -0.20125,0.22182 -0.40075,0.26477z" data-paper-data="{&quot;origPos&quot;:null,&quot;index&quot;:null,&quot;origRot&quot;:0}" fill="#88521f"/></g><path d="M235.93077,108.40799l0.01885,-5.45936c0,0 1.48924,-0.56526 2.76169,-0.57957c1.27245,-0.01431 2.38466,0.3506 2.62973,0.44362c0.22621,0.08586 0.24507,5.75272 0.24507,5.75272c0,0 -1.67775,0.20034 -2.80882,0.19318c-1.15935,-0.01431 -2.84651,-0.3506 -2.84651,-0.3506z" fill="#813333" stroke="none" stroke-linecap="butt"/><g fill="#88521f" stroke="none" stroke-linecap="butt"><path d="M238.09865,101.66786l1.43269,0.24327l-0.00943,0.65112c0,0 0.46185,0.06439 0.45242,0.26474c-0.00943,0.32198 -1.78143,0.49371 -2.14903,0c-0.14139,-0.24327 0.18852,-0.32913 0.18852,-0.32913z" data-paper-data="{&quot;origPos&quot;:null}"/><path d="M237.66507,100.87364c0.0754,0.17172 0.02828,0.33629 -0.09425,0.36491c-0.13196,0.03578 -0.30162,-0.07155 -0.37702,-0.24327c-0.0754,-0.17172 -0.02828,-0.33629 0.09426,-0.36491c0.13196,-0.03578 0.30162,0.0787 0.37703,0.24327z" data-paper-data="{&quot;origPos&quot;:null}"/><path d="M240.63412,100.71623c0,0.91585 -0.74462,1.4024 -1.38556,1.42387c-1.11221,0.01431 -1.82855,-0.67974 -1.82855,-1.59559c0,-0.91585 0.20737,-1.60274 1.6212,-1.65283c1.07451,-0.04293 1.78127,0.82284 1.59275,1.80309z" data-paper-data="{&quot;origPos&quot;:null}"/></g><g><path d="M238.21176,100.25115c0,0 0.27334,-0.05724 0.41472,-0.05724c0.16023,-0.00715 0.34875,0.05724 0.34875,0.05724" fill="none" stroke="#000000" stroke-linecap="round"/><g><path d="M238.20233,100.55882c0,0 0.20736,-0.13594 0.42415,-0.12163c0.23564,0.01431 0.27334,0.10733 0.27334,0.10733" fill="none" stroke="#000000" stroke-linecap="round"/><path d="M238.51337,100.61607c0,-0.08586 0.08483,-0.15741 0.19794,-0.15741c0.1131,0 0.19794,0.07155 0.19794,0.15741c0,0.08586 -0.08483,0.15741 -0.19794,0.15741c-0.1131,0 -0.19794,-0.07155 -0.19794,-0.15741z" fill="#000000" stroke="none" stroke-linecap="butt"/></g></g><g><path d="M239.66329,100.244c0,0 0.21679,-0.05724 0.37703,-0.05724c0.14139,0.00715 0.30161,0.03577 0.30161,0.03577" fill="none" stroke="#000000" stroke-linecap="round"/><g><path d="M239.66329,100.53736c0,0 0.04713,-0.09302 0.27334,-0.10733c0.21679,-0.01431 0.42415,0.12164 0.42415,0.12164" fill="none" stroke="#000000" stroke-linecap="round"/><path d="M240.10629,100.75201c-0.1131,0 -0.19794,-0.07155 -0.19794,-0.15741c0,-0.08586 0.08483,-0.15742 0.19794,-0.15742c0.1131,0 0.19794,0.07156 0.19794,0.15742c0,0.08586 -0.09426,0.15741 -0.19794,0.15741z" fill="#000000" stroke="none" stroke-linecap="butt"/></g></g><path d="M234.95052,106.59775c-0.25449,-0.00715 -0.65979,-0.13595 -0.65979,-0.13595c0,0 0.443,-1.90327 0.886,-2.69033c0.443,-0.78706 0.8106,-0.8443 1.22532,-0.68689c0.49013,0.18604 0.05655,1.60274 0.05655,1.60274l-0.57495,1.79594c0.00943,0 -0.66922,0.12164 -0.93313,0.11449z" fill="#b33939" stroke="none" stroke-linecap="butt"/><path d="M239.54076,101.62494c0,0.05009 -0.18851,0.15742 -0.34874,0.15742c-0.16023,0 -0.3299,-0.13595 -0.3299,-0.19319c0,-0.05009 0.20737,0 0.37703,0c0.16966,0 0.30161,-0.01431 0.30161,0.03577z" fill="#000000" stroke="none" stroke-linecap="butt"/><path d="M239.28627,100.82356c0,0 0.2168,0.13595 0.20737,0.25043c0,0.05009 -0.23565,0.15026 -0.23565,0.15026" fill="none" stroke="#000000" stroke-linecap="round"/><g stroke="none" stroke-linecap="butt"><path d="M234.29091,106.34016c0,0 0.41472,-0.08586 0.66921,-0.10732c0.33932,-0.03578 0.93313,0.27904 0.93313,0.27904l-0.19794,2.26102l-1.61177,-0.05724z" data-paper-data="{&quot;origPos&quot;:null}" fill="#b33939"/><path d="M234.5454,110.07514c0,0 -0.4053,-0.35776 -0.46186,-0.64397c-0.05656,-0.30767 0.30161,-0.80137 0.30161,-0.80137l0.75404,-0.05009c0,0 0.67864,0.35776 0.65979,0.79422c-0.00943,0.19319 -0.17909,0.58672 -0.17909,0.58672c0,0 -0.26391,0.13595 -0.32989,0.07155c-0.06598,-0.0644 0.02828,-0.47224 -0.1131,-0.45077c-0.18851,0.02862 0.0377,0.65827 -0.15081,0.66542c-0.20737,0 -0.4807,-0.17172 -0.4807,-0.17172z" data-paper-data="{&quot;origPos&quot;:null}" fill="#88521f"/></g><path d="M239.86123,99.47124c-0.23564,-0.03578 -1.41383,-0.00715 -1.63062,0.07155c-0.53725,0.2075 -0.62208,1.16629 -0.62208,1.16629l-0.24507,-0.05724c0,0 -0.32989,-1.78163 1.68717,-1.76732c1.07451,-0.04293 1.51973,0.72982 1.56686,1.19491c0,0 0.00721,-0.4937 -0.75626,-0.60819z" fill="#2c1b0c" stroke="none" stroke-linecap="butt"/><g fill="#ee9d88" stroke="none" stroke-linecap="butt"><path d="M237.28805,103.92173v-1.39525h1.40441v1.40241h-1.40441z" data-paper-data="{&quot;origPos&quot;:null}"/><path d="M241.11483,101.33158c0,0.46509 0.15081,0.82285 -0.15081,1.22353c-0.4053,0.55094 -1.26302,0.96594 -1.97937,0.64396c-0.443,-0.20034 -0.7729,-0.65112 -0.7729,-0.65112c0,0 0.89543,-0.11448 1.15935,-0.2075c0.08483,-0.02863 0.06598,-0.21466 0.15081,-0.25043c0.49955,-0.19319 0.96141,-0.52232 1.03681,-1.03749c0.12253,-0.81569 -0.63465,-1.88418 -1.59606,-1.50496c-0.82945,0.32913 -1.38634,1.09652 -1.18841,1.79057c0.21679,0.78706 1.73823,1.26705 1.96445,1.71783c0.0754,0.15026 -0.443,0.25759 -0.65036,0.25759c-0.8483,0 -1.9134,-0.00715 -2.41295,-0.52948c-0.56554,-0.59387 -0.12253,-1.28793 -0.12253,-2.01775c0,-1.40956 1.06509,-2.25386 2.46949,-2.25386c0,0 0.65036,0.03577 1.16877,0.37206c0.79174,0.51517 0.92371,1.04465 0.92371,2.44706z" data-paper-data="{&quot;origPos&quot;:null}"/></g><g stroke="none" stroke-linecap="butt"><path d="M239.45031,99.05918l0.08801,-0.72007l1.44729,0.04454l0.91922,0.17073l0.72365,0.50479z" fill="#ebebeb"/><path d="M239.37208,98.44304l-0.36182,-3.7414l-0.62585,-4.60251h2.93369l0.06846,4.62479v3.71913z" fill="#1b82c2"/></g><g stroke="none" stroke-linecap="butt"><path d="M235.74408,99.05918l0.08801,-0.72007l1.44729,0.04454l0.91923,0.17073l0.72364,0.50479z" fill="#ebebeb"/><path d="M235.89076,98.44304l0.04889,-3.88244l0.06846,-4.46147h2.84568l-0.64541,4.58767l-0.45961,3.75625z" fill="#1b82c2"/></g><g stroke="none" stroke-linecap="butt"><path d="M241.93417,88.56578c-0.31293,0.0297 -0.84099,-0.0965 -0.84099,-0.0965c0,0 -0.7921,-3.48158 -0.10757,-3.60778c1.23215,-0.2524 1.45707,3.45931 1.45707,3.45931c0,0 -0.20535,0.21528 -0.5085,0.24498z" fill="#dbae76"/><path d="M240.526,87.2073c0,0 -0.88011,-2.4423 0.24447,-2.60562c0.98767,-0.14847 2.11226,2.15278 2.11226,2.15278z" fill="#45b1b1"/></g><g fill="#dbae76" stroke="none" stroke-linecap="butt"><g data-paper-data="{&quot;origPos&quot;:null}"><path d="M242.71649,90.29956l-0.80188,0.17817l-0.86055,-2.01175c0,0 0.30315,-0.31178 0.65519,-0.28951c0.26404,0.01484 0.71386,0.07424 0.71386,0.07424z" data-paper-data="{&quot;origPos&quot;:null}"/></g><path d="M242.37576,91.97524c-0.18419,0.01999 -0.10882,-0.64954 -0.28139,-0.66156c-0.13229,-0.01047 0.02535,0.40478 -0.01709,0.47166c-0.05203,0.06831 -0.32012,-0.04291 -0.32012,-0.04291c0,0 -0.2479,-0.37905 -0.28936,-0.57713c-0.10386,-0.43843 0.4501,-0.87692 0.4501,-0.87692l0.7116,-0.02323c0,0 0.42978,0.46533 0.44393,0.78856c0.00847,0.30138 -0.29414,0.70983 -0.29414,0.70983c0,0 -0.22516,0.20771 -0.40353,0.21169z" data-paper-data="{&quot;origPos&quot;:null,&quot;index&quot;:null,&quot;origRot&quot;:0}"/></g><path d="M235.77341,90.47772l-0.01956,-5.66406c0,0 1.4864,-0.58645 2.75767,-0.60129c1.27127,-0.01484 2.34044,0.29775 2.57513,0.39426c0.22492,0.08908 0.29989,6.03441 0.29989,6.03441c0,0 -1.67221,0.20786 -2.80657,0.20043c-1.15392,-0.01484 -2.80657,-0.36375 -2.80657,-0.36375z" fill="#afe1c6" stroke="none" stroke-linecap="butt"/><g stroke="none" stroke-linecap="butt"><path d="M234.7564,88.71837c-0.24447,-0.01484 -0.61608,-0.16331 -0.61608,-0.16331c0,0 0.54762,-3.75625 1.94602,-3.73398c1.09525,-0.02227 -0.70409,3.80821 -0.70409,3.80821c0,0 -0.38138,0.10392 -0.62585,0.08908z" fill="#dbae76"/><path d="M234.15988,86.79571c0,0 1.11481,-2.15279 1.79934,-2.0934c1.62331,0.13362 0.38138,2.73924 0.38138,2.73924z" fill="#45b1b1"/></g><g fill="#dbae76" stroke="none" stroke-linecap="butt"><path d="M234.33591,90.55196l-0.20536,-2.05629c0,0 0.39116,-0.08908 0.61607,-0.11877c0.31293,-0.04454 0.65519,0.24497 0.65519,0.24497l-0.31293,2.05629z"/><path d="M234.58038,91.96983c0,0 -0.40094,-0.35632 -0.46939,-0.65326c-0.06846,-0.3192 0.23469,-0.83884 0.23469,-0.83884l0.70409,-0.08166c0,0 0.65518,0.34891 0.66496,0.79431c0.00978,0.20043 -0.1369,0.60872 -0.1369,0.60872c0,0 -0.23469,0.14847 -0.30315,0.08908c-0.05867,-0.05939 -0.00978,-0.48995 -0.13691,-0.46025c-0.16624,0.03712 0.07824,0.68296 -0.10757,0.69038c-0.17602,0.02227 -0.44984,-0.14847 -0.44984,-0.14847z"/></g><path d="M238.57998,80.07752c0.66497,-0.08166 1.35928,0.45283 1.35928,0.45283c0,0 0.39115,0.0297 0.49873,0.17817c0.10757,0.14847 0.14668,0.39344 0.19558,0.76461c0.11735,1.017 -0.93878,2.55366 -1.99491,2.5982c-0.70408,-0.51964 -0.929,-0.01485 -1.16369,-0.26725c-0.48895,-0.53449 -0.78232,-0.83885 -0.96812,-1.51438c-0.15646,-0.60129 -0.24448,-0.92792 0.07823,-1.42529c0.32271,-0.50479 1.0268,-0.49737 1.0268,-0.49737l-0.2836,-0.12619c0,0 0.62586,-0.11135 0.88011,-0.09651c0.21514,0.00742 0.6063,0.11135 0.6063,0.11135z" fill="#0a0500" stroke="none" stroke-linecap="butt"/><g fill="#cca168" stroke="none" stroke-linecap="butt"><path d="M237.77811,83.49971l1.4864,0.2524l-0.00978,0.67553c0,0 0.47917,0.06681 0.46939,0.27466c-0.00978,0.33406 -1.84823,0.51221 -2.22961,0c-0.14668,-0.2524 0.19558,-0.34147 0.19558,-0.34147z" data-paper-data="{&quot;origPos&quot;:null}"/><path d="M237.32827,82.67572c0.07824,0.17816 0.02934,0.34889 -0.09779,0.37859c-0.13691,0.03712 -0.31293,-0.07423 -0.39116,-0.25239c-0.07824,-0.17816 -0.02933,-0.3489 0.0978,-0.3786c0.13691,-0.03712 0.31293,0.08166 0.39115,0.2524z" data-paper-data="{&quot;origPos&quot;:null}"/><path d="M240.40865,82.5124c0,0.95019 -0.77254,1.45498 -1.43751,1.47725c-1.15392,0.01484 -1.89712,-0.70522 -1.89712,-1.65542c0,-0.95019 0.21514,-1.66284 1.68198,-1.71481c1.1148,-0.04454 1.8466,0.85369 1.65102,1.8707z" data-paper-data="{&quot;origPos&quot;:null}"/></g><path d="M239.27429,83.45518c0,0.05196 -0.19557,0.16331 -0.36182,0.16331c-0.16624,0 -0.34227,-0.14105 -0.34227,-0.20043c0,-0.05196 0.21514,0 0.39116,0c0.17602,0 0.31293,-0.01484 0.31293,0.03712z" fill="#000000" stroke="none" stroke-linecap="butt"/><path d="M237.19137,81.37662" fill="none" stroke="#000000" stroke-linecap="round"/><path d="M236.68286,81.95247c0,0 -0.2752,-2.1581 2.68922,-1.56316c0.67475,0.14105 1.1148,0.57903 1.1637,0.86854c0.04542,0.27396 -0.10804,0.74715 -0.10804,0.74715l-0.62538,-0.59126c0,0 -0.48895,0.193 -0.80188,0.25239c-0.47917,0.0965 -1.22237,0.14847 -1.22237,0.14847l0.08801,-0.37117l-0.78767,1.00179l-0.06729,-0.65289z" fill="#0a0500" stroke="none" stroke-linecap="butt"/><path d="M239.21561,82.90585c0,0 -0.02934,0.07424 -0.21514,0.07424c-0.13691,0 -0.21514,-0.05939 -0.21514,-0.05939" fill="none" stroke="#000000" stroke-linecap="round"/><g><path d="M237.89545,82.02988c0,0 0.28359,-0.05939 0.43027,-0.05939c0.16624,-0.00742 0.36182,0.05939 0.36182,0.05939" fill="none" stroke="#000000" stroke-linecap="round"/><g><path d="M237.88567,82.29712c0,0 0.21514,-0.08908 0.44006,-0.07424c0.24447,0.01484 0.28359,0.08166 0.28359,0.08166" fill="none" stroke="#000000" stroke-linecap="round"/><path d="M238.20838,82.40847c0,-0.08908 0.08802,-0.16331 0.20536,-0.16331c0.11735,0 0.20536,0.07424 0.20536,0.16331c0,0.08908 -0.08801,0.16332 -0.20536,0.16332c-0.10757,0 -0.20536,-0.07424 -0.20536,-0.16332z" fill="#000000" stroke="none" stroke-linecap="butt"/></g></g><g><path d="M239.40141,82.02245c0,0 0.22492,-0.05939 0.39116,-0.05939c0.14668,0.00742 0.31293,0.03712 0.31293,0.03712" fill="none" stroke="#000000" stroke-linecap="round"/><g><path d="M239.40141,82.3194c0,0 0.09779,-0.08166 0.28359,-0.0965c0.22492,-0.01484 0.44005,0.02969 0.44005,0.02969" fill="none" stroke="#000000" stroke-linecap="round"/><path d="M239.88058,82.54952c-0.11735,0 -0.20535,-0.07424 -0.20535,-0.16331c0,-0.08908 0.08801,-0.16331 0.20535,-0.16331c0.11735,0 0.20536,0.07424 0.20536,0.16331c0.00978,0.08908 -0.08801,0.16331 -0.20536,0.16331z" fill="#000000" stroke="none" stroke-linecap="butt"/></g></g></g><path d="M253.66667,174.91667l0.33333,-88.41667l-1.71799,-0.21908l2.5095,-4.32518l2.18881,4.09338l-1.64699,0.36755v88.5l1.04992,0.44081l-1.92492,3.30919l-1.89848,-3.26032z" fill="#ff0000" stroke="none" stroke-width="0" stroke-linecap="butt"/></g></g></svg>