<svg version="1.1" xmlns="http://www.w3.org/2000/svg" xmlns:xlink="http://www.w3.org/1999/xlink" width="117.99108" height="193.3711" viewBox="0,0,117.99108,193.3711"><defs><linearGradient x1="267.61949" y1="57.29925" x2="267.61949" y2="236.16746" gradientUnits="userSpaceOnUse" id="color-1"><stop offset="0" stop-color="#000000"/><stop offset="1" stop-color="#000000" stop-opacity="0"/></linearGradient><radialGradient cx="264.67311" cy="128.1686" r="47" gradientUnits="userSpaceOnUse" id="color-2"><stop offset="0" stop-color="#b6f0ff" stop-opacity="0"/><stop offset="1" stop-color="#b6f0ff"/></radialGradient><radialGradient cx="264.62071" cy="129.37836" r="95.25406" gradientUnits="userSpaceOnUse" id="color-3"><stop offset="0" stop-color="#ffffff"/><stop offset="1" stop-color="#ffffff" stop-opacity="0"/></radialGradient></defs><g transform="translate(-203.32004,-30.72261)"><g data-paper-data="{&quot;isPaintingLayer&quot;:true}" fill-rule="nonzero" stroke-linecap="butt" stroke-linejoin="miter" stroke-miterlimit="10" stroke-dasharray="" stroke-dashoffset="0" style="mix-blend-mode: normal"><path d="M311.37023,178.70934c0.07585,1.88165 -6.82295,7.07192 -42.75929,7.07192c-35.93634,0 -45.96971,-4.43047 -45.98172,-7.45949c-0.01038,-2.6151 9.30175,-6.10294 45.23807,-6.10294c35.93634,0 43.43354,4.76932 43.50294,6.49051z" fill="url(#color-1)" stroke="none" stroke-width="0"/><text transform="translate(206.419,46.03753) scale(0.39779,0.39779)" font-size="40" xml:space="preserve" fill="#ffffff" fill-rule="nonzero" stroke="#ffffff" stroke-width="2" stroke-linecap="butt" stroke-linejoin="miter" stroke-miterlimit="10" stroke-dasharray="" stroke-dashoffset="0" font-family="Handwriting" font-weight="normal" text-anchor="start" style="mix-blend-mode: normal"></text><text transform="translate(203.43815,66.47374) scale(0.23622,0.23622)" font-size="40" xml:space="preserve" fill="#ffffff" fill-rule="nonzero" stroke="#ffffff" stroke-width="1" stroke-linecap="butt" stroke-linejoin="miter" stroke-miterlimit="10" stroke-dasharray="" stroke-dashoffset="0" font-family="Handwriting" font-weight="normal" text-anchor="start" style="mix-blend-mode: normal"></text><g stroke="none" stroke-width="0"><path d="M268.22087,81.91008c24.72541,2.46908 42.73737,24.81826 40.23088,49.91828c-2.50649,25.10002 -24.58229,43.44602 -49.30769,40.97695c-24.72538,-2.46908 -42.73737,-24.81825 -40.23088,-49.91828c2.50649,-25.10002 24.5823,-43.44603 49.3077,-40.97694z" fill="#5cdeff"/><path d="M249.08646,84.65447c4.57645,-1.68998 -5.74916,22.34879 -7.52356,40.11763c-0.5873,5.88124 7.44393,44.75869 3.62027,43.88223c-2.26596,-0.5194 -11.15976,-5.058 -13.77857,-11.2578c-5.2007,-12.31218 -5.19685,-29.81509 -4.63498,-35.44164c1.2822,-12.83992 4.5733,-25.27925 11.37374,-32.20256c2.61051,-2.65767 8.56623,-4.22011 10.9431,-5.09784z" fill="#48f5ff"/><path d="M286.10231,88.01589c10.18002,2.35654 23.91516,22.13222 22.56006,42.45179c-1.44786,21.71045 -17.94174,35.72735 -25.89888,37.94767c-7.09285,1.97916 4.33668,-23.29995 5.96473,-39.60331c1.62806,-16.30336 -9.8,-42.45687 -2.62592,-40.79616z" fill="#52c2ff"/><path d="M288.45127,89.07034c2.59361,2.87831 8.40473,18.73309 6.18141,40.99741c-1.38498,13.86918 -5.0338,35.26626 -9.23406,37.35884c-1.52206,0.7583 -10.22712,4.58551 -11.16075,4.49228c-3.8553,-0.38499 8.189,-21.99369 10.41232,-44.25801c1.53902,-15.41173 -4.94827,-38.96887 -5.97489,-42.64604c-0.80691,-2.8902 8.37977,2.50605 9.77597,4.05552z" fill="#48f5ff"/><path d="M269.34331,81.40121c25.27937,2.5244 43.68143,25.50931 41.10215,51.33822c-2.57928,25.82891 -25.16317,44.72097 -50.44254,42.19657c-25.27937,-2.5244 -43.68143,-25.50931 -41.10215,-51.33823c2.57928,-25.82891 25.16317,-44.72096 50.44254,-42.19656z" fill="url(#color-2)"/><path d="M274.2416,34.66403c14.73423,-0.1772 22.37127,42.0842 17.0578,94.39348c-5.31347,52.30929 -21.56534,94.85798 -36.29957,95.03518c-12.95417,0.1558 -20.6716,-17.48606 -18.67603,-60.92569c1.5611,0.34704 2.73487,4.05569 4.38876,4.0953c-0.41135,31.67575 6.20921,46.24986 15.20466,46.78705c10.33425,0.61714 26.77025,-44.74657 30.39307,-80.41199c3.62282,-35.66542 -1.5095,-89.13472 -13.36577,-89.56032c-8.58568,-0.3082 -16.1841,12.73328 -22.57859,41.25502c-1.63372,-0.3727 -2.79405,1.40632 -4.52994,1.37151c7.38139,-37.16942 16.72124,-51.89902 28.40562,-52.03954z" fill="url(#color-3)"/></g><text transform="translate(271.40921,204.02038) scale(0.357,0.357)" font-size="40" xml:space="preserve" fill="#ffffff" fill-rule="nonzero" stroke="#ffffff" stroke-width="0.5" stroke-linecap="butt" stroke-linejoin="miter" stroke-miterlimit="10" stroke-dasharray="" stroke-dashoffset="0" font-family="Handwriting" font-weight="normal" text-anchor="start" style="mix-blend-mode: normal"></text></g></g></svg>