<svg version="1.1" xmlns="http://www.w3.org/2000/svg" xmlns:xlink="http://www.w3.org/1999/xlink" width="107.57334" height="171.46473" viewBox="0,0,107.57334,171.46473"><defs><linearGradient x1="240.61947" y1="58.29923" x2="240.61947" y2="237.16743" gradientUnits="userSpaceOnUse" id="color-1"><stop offset="0" stop-color="#000000"/><stop offset="1" stop-color="#000000" stop-opacity="0"/></linearGradient></defs><g transform="translate(-186.38002,-35.61109)"><g data-paper-data="{&quot;isPaintingLayer&quot;:true}" fill-rule="nonzero" stroke-linecap="butt" stroke-linejoin="miter" stroke-miterlimit="10" stroke-dasharray="" stroke-dashoffset="0" style="mix-blend-mode: normal"><path d="M284.37023,179.70932c0.07585,1.88165 -6.82295,7.07192 -42.75929,7.07192c-35.93634,0 -45.96971,-4.43047 -45.98172,-7.45949c-0.01038,-2.6151 9.30175,-6.10294 45.23807,-6.10294c35.93634,0 43.43354,4.76932 43.50294,6.49051z" fill="url(#color-1)" stroke="none" stroke-width="0"/><text transform="translate(222.62809,202.22803) scale(0.28942,0.28942)" font-size="40" xml:space="preserve" fill="#ffffff" fill-rule="nonzero" stroke="#ffffff" stroke-width="0.5" stroke-linecap="butt" stroke-linejoin="miter" stroke-miterlimit="10" stroke-dasharray="" stroke-dashoffset="0" font-family="Handwriting" font-weight="normal" text-anchor="start" style="mix-blend-mode: normal"></text><text transform="translate(227.25232,47.12357) scale(0.30296,0.30296)" font-size="40" xml:space="preserve" fill="#ffffff" fill-rule="nonzero" stroke="#ffffff" stroke-width="1" stroke-linecap="butt" stroke-linejoin="miter" stroke-miterlimit="10" stroke-dasharray="" stroke-dashoffset="0" font-family="Handwriting" font-weight="normal" text-anchor="start" style="mix-blend-mode: normal"></text><text transform="translate(210.27147,60.97372) scale(0.23622,0.23622)" font-size="40" xml:space="preserve" fill="#ffffff" fill-rule="nonzero" stroke="#ffffff" stroke-width="1" stroke-linecap="butt" stroke-linejoin="miter" stroke-miterlimit="10" stroke-dasharray="" stroke-dashoffset="0" font-family="Handwriting" font-weight="normal" text-anchor="start" style="mix-blend-mode: normal"></text><path d="M287.81111,102.81869c12.2102,20.94589 0.7774,50.36069 -25.53588,65.69976c-26.31329,15.33907 -57.54275,10.79384 -69.75296,-10.15207c-12.21021,-20.9459 -0.77741,-50.36068 25.53589,-65.69975c26.31329,-15.33907 57.54276,-10.79383 69.75296,10.15206z" fill="#d6d6d5" stroke="#000000" stroke-width="2.5"/><path d="M247.64074,119.76539c-11.38932,6.6393 -26.64277,7.94348 -31.88452,-1.04845c-5.24176,-8.99193 -2.13617,-21.25313 9.25317,-27.89244c5.67558,-3.30853 33.97487,-12.60006 50.96485,1.24074c5.4713,4.45717 3.13647,14.20151 -5.00912,19.79755c-7.51934,5.16581 -20.58171,6.30379 -23.32437,7.9026z" fill="#aeadaa" stroke="none" stroke-width="0"/><path d="M291.30755,117.68546c0.67227,6.91745 1.46299,10.98844 -4.55895,14.49888c-6.02194,3.51043 -13.07,2.64003 -15.74227,-1.94409c-2.67227,-4.58411 -2.74638,-11.57298 3.27556,-15.08341c6.02194,-3.51043 16.3534,-5.38882 16.69232,0.86196z" fill="#aeadaa" stroke="none" stroke-width="0"/><path d="M230.31189,155.59907c2.92179,5.01215 4.86278,12.79856 -1.48741,16.50035c-6.3502,3.7018 -18.58692,1.9171 -21.50868,-3.09502c-2.92178,-5.01215 -0.14249,-12.07615 6.20771,-15.77795c6.3502,-3.7018 13.86664,-2.63952 16.7884,2.3726z" fill="#aeadaa" stroke="none" stroke-width="0"/><path d="M262.78494,92.22268c2.63116,4.5136 -1.87738,8.96457 -7.6375,12.32237c-5.76012,3.3578 -12.5626,2.42086 -15.19375,-2.09274c-2.63116,-4.5136 -0.09463,-10.89462 5.6655,-14.25243c5.76012,-3.3578 14.53461,-0.49079 17.16575,4.0228z" fill="#939290" stroke="none" stroke-width="0"/><path d="M208.6531,126.67481c1.62698,2.79099 0.96698,7.76359 -2.48685,9.77697c-3.45383,2.01338 -7.81856,-0.03012 -9.44554,-2.82111c-1.62698,-2.79099 -1.79515,-5.87997 1.6587,-7.89336c3.45383,-2.01338 8.64672,-1.85348 10.27369,0.93749zM205.56924,134.93198c2.38195,-1.38854 2.84489,-4.37161 1.72284,-6.29642c-1.12204,-1.92481 -4.58873,-2.7728 -6.97068,-1.38426c-2.38195,1.38854 -2.77716,4.48779 -1.65512,6.41261c1.12205,1.92481 4.521,2.65663 6.90297,1.26809z" fill="#676665" stroke="none" stroke-width="0"/><path d="M277.49902,98.02179c1.47737,2.53433 -2.44354,3.52572 -5.69887,5.42339c-3.25533,1.89767 -6.14386,3.00797 -7.62123,0.47364c-1.47736,-2.53432 -0.03602,-6.12719 3.2193,-8.02486c3.25533,-1.89767 8.62342,-0.40651 10.10079,2.12784zM271.25836,102.51581c2.38195,-1.38854 4.08053,-2.91282 2.95848,-4.83763c-1.12205,-1.92481 -3.69173,-1.89486 -6.07368,-0.50632c-2.38195,1.38854 -3.94508,3.14516 -2.82303,5.06997c1.12204,1.92481 3.55628,1.66251 5.93823,0.27397z" fill="#676665" stroke="none" stroke-width="0"/><path d="M239.16821,115.99724c-2.14334,2.21441 -6.58139,4.38492 -8.80072,2.74405c-2.21932,-1.64087 -0.439,-4.0369 1.70434,-6.25131c2.14334,-2.21441 3.83804,-3.40867 6.05736,-1.7678c2.21932,1.64087 3.18236,3.06065 1.03902,5.27506zM231.52542,117.6998c1.55854,0.94743 4.52902,0.27575 6.00718,-1.25143c1.47815,-1.52719 1.50311,-3.63273 0.05572,-4.70286c-1.44737,-1.07013 -3.38223,-0.37668 -4.86039,1.15049c-0.27398,0.28306 -3.60836,3.3413 -1.20252,4.80379z" fill="#676665" stroke="none" stroke-width="0"/><path d="M257.35516,151.41722c2.22112,3.81024 0.61938,8.88237 -3.57763,11.32898c-4.197,2.4466 -12.1261,3.13352 -14.34724,-0.67668c-2.22113,-3.81024 2.10681,-10.67475 6.30381,-13.12134c4.197,-2.4466 9.39991,-1.34118 11.62105,2.46906zM253.56305,157.36882c0.87067,-1.62049 0.97907,-3.44576 0.11613,-4.92607c-1.28734,-2.20836 -4.30788,-2.91393 -7.13146,-1.82129c-0.38852,0.15034 -0.77332,0.33475 -1.14935,0.55395c-3.16502,1.16469 -4.50619,6.07033 -3.35273,8.04903c1.36925,2.34885 4.52734,2.70423 7.29186,1.68209c0.46145,-0.16322 0.91898,-0.37395 1.36425,-0.63351c0.10557,-0.06155 0.20911,-0.12507 0.31055,-0.1904c0.85188,-0.53643 1.60476,-1.21749 2.17255,-2.01892c0.1603,-0.22627 0.28396,-0.45826 0.37822,-0.69486z" fill="#676665" stroke="none" stroke-width="0"/><path d="M287.24072,124.24715c1.49607,2.56642 -1.20499,5.21629 -4.93672,7.39168c-3.73173,2.17537 -7.08098,3.05246 -8.57706,0.48604c-1.49607,-2.56642 -0.57242,-7.60448 3.15932,-9.77985c3.73173,-2.17537 8.85839,-0.66429 10.35446,1.90213zM280.97567,131.01231c2.38195,-1.38854 5.29003,-3.15094 4.16799,-5.07576c-1.12204,-1.92481 -5.41805,-3.53457 -7.8,-2.14602c-2.38195,1.38854 -3.48767,4.59067 -2.36563,6.51548c1.12205,1.92481 3.61568,2.09484 5.99763,0.7063z" fill="#676665" stroke="none" stroke-width="0"/><path d="M265.13318,126.20504c2.26121,3.87897 0.99856,10.30834 -3.85559,13.138c-4.85415,2.82967 -10.62227,1.97907 -12.88347,-1.8999c-2.26121,-3.87897 -0.15921,-9.31737 4.69494,-12.14704c4.85415,-2.82967 9.78291,-2.97003 12.04412,0.90894zM260.44955,137.92255c3.23611,-1.88646 3.79566,-6.95607 2.27125,-9.57111c-1.52441,-2.61504 -5.48685,-2.93398 -8.72296,-1.04753c-3.23611,1.88646 -4.83033,6.07899 -3.30593,8.69403c1.52441,2.61504 6.52154,3.81106 9.75763,1.9246z" fill="#676665" stroke="none" stroke-width="0"/><path d="M245.20876,97.1974c1.97978,3.3962 -1.4126,6.74526 -5.74672,9.27179c-4.33412,2.52653 -9.45255,1.82155 -11.43232,-1.57465c-1.97978,-3.3962 -0.0712,-8.19751 4.26292,-10.72404c4.33412,-2.52653 10.93636,-0.36929 12.91612,3.0269z" fill="#939290" stroke="none" stroke-width="0"/><path d="M212.94379,161.07571c1.95002,3.34513 4.57878,8.54183 0.34063,11.01242c-4.23816,2.4706 -8.07167,-0.72052 -11.35501,-4.39897c-3.61668,-2.67846 -4.42843,-5.72636 -0.19027,-8.19696c4.23816,-2.4706 9.25466,-1.76164 11.20466,1.58348z" fill="#aeadaa" stroke="none" stroke-width="0"/><path d="M221.49092,156.66234c1.41191,2.42206 0.6235,6.43662 -2.40747,8.2035c-3.03097,1.76687 -6.63263,1.23575 -8.04454,-1.18631c-1.41191,-2.42206 -0.09942,-5.81785 2.93156,-7.58472c3.03097,-1.76687 6.10854,-1.85451 7.52046,0.56754zM218.56641,163.97887c2.02066,-1.17792 2.37003,-4.34345 1.41817,-5.97629c-0.95185,-1.63285 -3.42603,-1.83199 -5.44668,-0.65408c-2.02066,1.17792 -3.0161,3.79578 -2.06424,5.42863c0.95185,1.63285 4.0721,2.37966 6.09276,1.20174z" fill="#676665" stroke="none" stroke-width="0"/></g></g></svg>