<svg version="1.1" xmlns="http://www.w3.org/2000/svg" xmlns:xlink="http://www.w3.org/1999/xlink" width="143.21961" height="153.17596" viewBox="0,0,143.21961,153.17596"><defs><linearGradient x1="240.39344" y1="86.23728" x2="240.39344" y2="224.0439" gradientUnits="userSpaceOnUse" id="color-1"><stop offset="0" stop-color="#000000"/><stop offset="1" stop-color="#000000" stop-opacity="0"/></linearGradient></defs><g transform="translate(-172.09955,-52.89982)"><g data-paper-data="{&quot;isPaintingLayer&quot;:true}" fill-rule="nonzero" stroke-linecap="butt" stroke-linejoin="miter" stroke-miterlimit="10" stroke-dasharray="" stroke-dashoffset="0" style="mix-blend-mode: normal"><path d="M268.18452,179.77604c0.04818,1.44969 -4.33402,5.44846 -27.16125,5.44846c-22.82722,0 -29.20054,-3.4134 -29.20818,-5.74706c-0.0066,-2.01477 5.90859,-4.70193 28.7358,-4.70193c22.82722,0 27.58953,3.67446 27.63362,5.00053z" fill="url(#color-1)" stroke="none" stroke-width="0"/><text transform="translate(229.12801,201.228) scale(0.28942,0.28942)" font-size="40" xml:space="preserve" fill="#000000" fill-rule="nonzero" stroke="#000000" stroke-width="0.5" stroke-linecap="butt" stroke-linejoin="miter" stroke-miterlimit="10" stroke-dasharray="" stroke-dashoffset="0" font-family="Handwriting" font-weight="normal" text-anchor="start" style="mix-blend-mode: normal"></text><text transform="translate(172.25103,64.4123) scale(0.30296,0.30296)" font-size="40" xml:space="preserve" fill="#000000" fill-rule="nonzero" stroke="#000000" stroke-width="1" stroke-linecap="butt" stroke-linejoin="miter" stroke-miterlimit="10" stroke-dasharray="" stroke-dashoffset="0" font-family="Handwriting" font-weight="normal" text-anchor="start" style="mix-blend-mode: normal"></text><g stroke-width="1"><g stroke="none"><path d="M240.34168,114.01003v-37.45156l1.73134,1.35134l0.19304,36.10022z" fill="#7dc9e4"/><path d="M239.18338,114.01003l0.11559,-37.12981l1.0366,-0.32174v37.45156z" data-paper-data="{&quot;index&quot;:null}" fill="#c3e8f3"/></g><path d="M241.11122,143.03595l12.90678,2.13083l-0.30441,34.1847h-29.1333l0.148,-22.08825l1.99417,-1.59136l0.56159,-9.43966l13.82717,-3.19625" fill="#c3e8f3" stroke="none"/><path d="M254.01799,145.01639l-0.09652,10.66065l2.17234,1.09498l-0.26773,22.96292l-15.22235,-0.35004l0.65609,-36.76972" fill="#7dc9e4" stroke="none"/><path d="M241.39827,110.41815l12.90678,2.13083l-0.30441,34.1847h-26.72677l-0.30441,-33.11929l14.42881,-3.19625" fill="#c3e8f3" stroke="none"/><path d="M229.5569,114.52761l-0.30441,-3.95726l12.29797,-3.04405l11.38475,1.97863l0.1522,3.19625" fill="#c3e8f3" stroke="none"/><path d="M230.77453,110.87475l0.60881,-3.95726l10.01493,-2.13083l9.10172,2.13083l0.60881,2.43524" fill="#c3e8f3" stroke="none"/><path d="M242.92029,106.46088l0.60881,-10.86726l3.31801,0.9741l1.40026,10.34978" fill="#7dc9e4" stroke="none"/><path d="M232.90536,107.3741l1.94819,-10.01493l8.24938,-1.82643l-0.18264,10.16713" fill="#c3e8f3" stroke="none"/><path d="M242.70721,105.24326c0,0 0.42617,-7.30572 0.66969,-9.6192" fill="none" stroke="#64c7ea"/><path d="M241.24606,110.44859l0.1522,-0.03045l12.90678,2.13083l-0.30441,34.39778h-12.75457v-36.49818" fill="#7dc9e4" stroke="none"/><g fill="#7dc9e4" stroke="none"><path d="M252.93522,109.50493l0.1522,3.19625l-11.84136,0.91322v-3.5311l9.86273,-0.73057l-0.03045,-0.1522l1.85687,0.30441"/><path d="M251.07835,109.20052l0.03045,0.1522l-9.86273,0.73057v-5.23577l0.1522,-0.06088l9.10172,2.13083l0.57837,2.28304"/></g><path d="M226.90858,113.6144l14.39837,-3.28758l13.05898,2.16128" fill="none" stroke="#64c7ea"/><path d="M229.1003,110.50947c2.52656,-0.60881 11.99356,-3.28758 11.99356,-3.28758l11.84136,2.28304" fill="none" stroke="#64c7ea"/><path d="M231.32245,107.06969c2.00907,-0.42617 9.83228,-2.37436 9.83228,-2.37436l9.37568,2.03952" fill="none" stroke="#64c7ea"/><path d="M236.95395,99.12472l-0.73057,4.17035" fill="none" stroke="#64c7ea"/><path d="M239.48051,102.86889l0.70013,-4.13991" fill="none" stroke="#64c7ea"/><path d="M245.96434,98.02886l0.09132,5.44885" fill="none" stroke="#64c7ea"/><path d="M242.0984,119.58074l1.4307,0.1522l10.53242,1.15673" fill="none" stroke="#c3e8f3"/><path d="M244.22923,119.79383l-0.15041,57.08421" fill="none" stroke="#c3e8f3"/><path d="M247.79078,120.18955l-0.45123,56.38766" fill="none" stroke="#c3e8f3"/><path d="M251.02106,177.02844l0.30081,-56.6258" fill="none" stroke="#c3e8f3"/><path d="M229.49423,116.2842h1.55247v4.04859h-1.55247z" fill="#ffffff" stroke="none"/><path d="M236.03355,114.37721h1.55247v4.04859h-1.55247z" fill="#ffffff" stroke="none"/><path d="M229.64463,135.35071h1.55247v4.04859h-1.55247z" fill="#ffffff" stroke="none"/><path d="M236.63519,133.86451h1.55247v4.04859h-1.55247z" fill="#ffffff" stroke="none"/><path d="M229.58561,126.25971h1.55247v4.04859h-1.55247z" fill="#ffffff" stroke="none"/><path d="M236.24491,124.05189h1.55247v4.04859h-1.55247z" fill="#ffffff" stroke="none"/><path d="M229.508,145.59301h1.55247v4.04859h-1.55247z" fill="#ffffff" stroke="none"/><path d="M236.94977,145.34053h1.55247v4.04859h-1.55247z" fill="#ffffff" stroke="none"/><path d="M229.80882,164.65954h1.55247v4.04859h-1.55247z" fill="#ffffff" stroke="none"/><path d="M237.401,164.52702h1.55247v4.04859h-1.55247z" fill="#ffffff" stroke="none"/><path d="M229.74979,154.81649h1.55247v4.04859h-1.55247z" fill="#ffffff" stroke="none"/><path d="M237.01072,155.01522h1.55247v4.04859h-1.55247z" fill="#ffffff" stroke="none"/><path d="M229.44897,174.41839h1.55247v2.557h-1.55247z" fill="#ffffff" stroke="none"/><path d="M237.76276,173.68424h1.55247v3.56154h-1.55247z" fill="#ffffff" stroke="none"/><path d="M232.33248,178.97972v-66.60815l1.133,-0.15041l0.45123,67.00495z" fill="#7dc9e4" stroke="none"/></g></g></g></svg>