<svg version="1.1" xmlns="http://www.w3.org/2000/svg" xmlns:xlink="http://www.w3.org/1999/xlink" width="164.21783" height="193.8852" viewBox="0,0,164.21783,193.8852"><defs><linearGradient x1="302.77942" y1="7.56733" x2="302.77942" y2="264.67258" gradientUnits="userSpaceOnUse" id="color-1"><stop offset="0" stop-color="#000000"/><stop offset="1" stop-color="#000000" stop-opacity="0"/></linearGradient></defs><g transform="translate(-216.05242,-27.8116)"><g data-paper-data="{&quot;isPaintingLayer&quot;:true}" fill-rule="nonzero" stroke-linecap="butt" stroke-linejoin="miter" stroke-miterlimit="10" stroke-dasharray="" stroke-dashoffset="0" style="mix-blend-mode: normal"><path d="M357.83298,182.08215c0.09545,2.70468 -8.58563,10.16516 -53.80589,10.16516c-45.22026,0 -57.8457,-6.36838 -57.86083,-10.72226c-0.01307,-3.75893 11.70481,-8.77237 56.92507,-8.77237c45.22026,0 54.65432,6.85543 54.74165,9.32947z" fill="url(#color-1)" stroke="none" stroke-width="0"/><text transform="translate(282.4613,213.87425) scale(0.46015,0.46015)" font-size="40" xml:space="preserve" fill="#000000" fill-rule="nonzero" stroke="#000000" stroke-width="1" stroke-linecap="butt" stroke-linejoin="miter" stroke-miterlimit="10" stroke-dasharray="" stroke-dashoffset="0" font-family="Handwriting" font-weight="normal" text-anchor="start" style="mix-blend-mode: normal"></text><text transform="translate(245.4613,46.76182) scale(0.49869,0.49869)" font-size="40" xml:space="preserve" fill="#000000" fill-rule="nonzero" stroke="#000000" stroke-width="1" stroke-linecap="butt" stroke-linejoin="miter" stroke-miterlimit="10" stroke-dasharray="" stroke-dashoffset="0" font-family="Handwriting" font-weight="normal" text-anchor="start" style="mix-blend-mode: normal"></text><g stroke="none" stroke-width="1"><path d="M343.34567,153.03237c-0.86534,4.65939 -5.53936,21.66404 -23.51639,27.61379c-0.48752,0.16423 -11.06044,2.28981 -19.06784,2.21942c-9.65885,-0.08446 -17.23357,-2.50565 -19.50051,-3.03118c-14.76554,-3.40656 -26.97164,-13.50425 -30.06126,-25.46006c-1.26144,-4.894 -0.26204,-10.95635 0.80439,-15.85035c1.5052,-6.91635 1.99881,-14.48493 5.22249,-21.05405c4.25964,-8.70878 4.77837,-17.40555 12.70044,-25.93134c1.42597,-1.52967 14.74042,-8.14365 16.51375,-8.79587c2.88465,-1.00374 5.98163,-1.59672 9.14086,-1.7502c5.24685,-0.07038 11.01168,2.28511 15.46634,4.22301c17.85516,7.76564 26.99602,25.43659 31.07894,40.1702c2.42923,9.09658 2.84131,18.44415 1.21878,27.64663z" fill="#f0eadd"/><path d="M257.31797,142.01032c0.11578,-1.9285 1.02377,-8.98093 6.53876,-11.70712c1.90522,-0.63569 3.92522,-1.04392 5.99031,-1.2106c2.16779,-0.02457 4.31894,0.29488 6.31938,0.93845c4.82029,1.17775 9.04944,5.12393 10.43886,9.98038c0.56673,1.98481 0.45705,4.49046 0.28642,6.51751c-0.16553,2.86424 -0.61577,5.71451 -1.34676,8.52579c-1.05425,3.64587 -1.73676,7.68117 -3.97322,11.30358c-1.08409,1.2939 -2.33347,2.50112 -3.72948,3.60364c-0.85227,0.44886 -1.825,0.74397 -2.84584,0.86337c-1.66363,0.11731 -3.57714,-0.76015 -5.06404,-1.48275c-5.95375,-2.90449 -9.43946,-10.01791 -11.26763,-16.00051c-1.0912,-3.71557 -1.544,-7.52539 -1.34676,-11.33174z" fill="#fff8f1"/></g><text transform="translate(216.25,69.62167) scale(0.39517,0.39517)" font-size="40" xml:space="preserve" fill="#000000" fill-rule="nonzero" stroke="#000000" stroke-width="1" stroke-linecap="butt" stroke-linejoin="miter" stroke-miterlimit="10" stroke-dasharray="" stroke-dashoffset="0" font-family="Handwriting" font-weight="normal" text-anchor="start" style="mix-blend-mode: normal"></text></g></g></svg>