<svg version="1.1" xmlns="http://www.w3.org/2000/svg" xmlns:xlink="http://www.w3.org/1999/xlink" width="102.06645" height="179.17358" viewBox="0,0,102.06645,179.17358"><defs><linearGradient x1="254.6203" y1="-7.60764" x2="254.6203" y2="269.2804" gradientUnits="userSpaceOnUse" id="color-1"><stop offset="0" stop-color="#000000"/><stop offset="1" stop-color="#000000" stop-opacity="0"/></linearGradient><radialGradient cx="251.64558" cy="131.88481" r="51.03322" gradientUnits="userSpaceOnUse" id="color-2"><stop offset="0" stop-color="#e67373"/><stop offset="1" stop-color="#e67373" stop-opacity="0"/></radialGradient><radialGradient cx="259.41922" cy="110.26787" r="3.53414" gradientUnits="userSpaceOnUse" id="color-3"><stop offset="0" stop-color="#dbcd6e"/><stop offset="1" stop-color="#b3a236"/></radialGradient><radialGradient cx="238.84236" cy="145.18364" r="3.40913" gradientUnits="userSpaceOnUse" id="color-4"><stop offset="0" stop-color="#dbcd6e"/><stop offset="1" stop-color="#b3a236"/></radialGradient><radialGradient cx="252.4257" cy="168.76697" r="3.40913" gradientUnits="userSpaceOnUse" id="color-5"><stop offset="0" stop-color="#dbcd6e"/><stop offset="1" stop-color="#b3a236"/></radialGradient><radialGradient cx="217.1757" cy="151.76697" r="3.40913" gradientUnits="userSpaceOnUse" id="color-6"><stop offset="0" stop-color="#dbcd6e"/><stop offset="1" stop-color="#b3a236"/></radialGradient><radialGradient cx="287.42571" cy="149.26697" r="3.40913" gradientUnits="userSpaceOnUse" id="color-7"><stop offset="0" stop-color="#dbcd6e"/><stop offset="1" stop-color="#b3a236"/></radialGradient><radialGradient cx="287.92571" cy="107.76697" r="3.40913" gradientUnits="userSpaceOnUse" id="color-8"><stop offset="0" stop-color="#dbcd6e"/><stop offset="1" stop-color="#b3a236"/></radialGradient><radialGradient cx="249.4257" cy="88.26697" r="3.40913" gradientUnits="userSpaceOnUse" id="color-9"><stop offset="0" stop-color="#dbcd6e"/><stop offset="1" stop-color="#b3a236"/></radialGradient><radialGradient cx="213.9257" cy="106.76697" r="3.40913" gradientUnits="userSpaceOnUse" id="color-10"><stop offset="0" stop-color="#dbcd6e"/><stop offset="1" stop-color="#b3a236"/></radialGradient><radialGradient cx="249.59686" cy="120.527" r="4.73735" gradientUnits="userSpaceOnUse" id="color-11"><stop offset="0" stop-color="#7f7f7f"/><stop offset="1" stop-color="#333333"/></radialGradient><radialGradient cx="256.83178" cy="122.84312" r="4.73735" gradientUnits="userSpaceOnUse" id="color-12"><stop offset="0" stop-color="#dc6e6e"/><stop offset="1" stop-color="#b23535"/></radialGradient><radialGradient cx="259.03999" cy="127.0613" r="4.73735" gradientUnits="userSpaceOnUse" id="color-13"><stop offset="0" stop-color="#7f7f7f"/><stop offset="1" stop-color="#333333"/></radialGradient><radialGradient cx="256.36847" cy="131.7087" r="4.73735" gradientUnits="userSpaceOnUse" id="color-14"><stop offset="0" stop-color="#dc6e6e"/><stop offset="1" stop-color="#b23535"/></radialGradient><radialGradient cx="243.61363" cy="127.63425" r="4.73736" gradientUnits="userSpaceOnUse" id="color-15"><stop offset="0" stop-color="#7f7f7f"/><stop offset="1" stop-color="#333333"/></radialGradient><radialGradient cx="246.82689" cy="122.9443" r="4.73735" gradientUnits="userSpaceOnUse" id="color-16"><stop offset="0" stop-color="#dc6e6e"/><stop offset="1" stop-color="#b23535"/></radialGradient><radialGradient cx="245.53513" cy="131.77537" r="4.73735" gradientUnits="userSpaceOnUse" id="color-17"><stop offset="0" stop-color="#dc6e6e"/><stop offset="1" stop-color="#b23535"/></radialGradient><radialGradient cx="253.59686" cy="122.76033" r="4.73735" gradientUnits="userSpaceOnUse" id="color-18"><stop offset="0" stop-color="#7f7f7f"/><stop offset="1" stop-color="#333333"/></radialGradient><radialGradient cx="251.53999" cy="135.4613" r="4.73735" gradientUnits="userSpaceOnUse" id="color-19"><stop offset="0" stop-color="#7f7f7f"/><stop offset="1" stop-color="#333333"/></radialGradient><radialGradient cx="252.1651" cy="128.57645" r="4.73735" gradientUnits="userSpaceOnUse" id="color-20"><stop offset="0" stop-color="#dc6e6e"/><stop offset="1" stop-color="#b23535"/></radialGradient></defs><g transform="translate(-200.61234,-41.4391)"><g data-paper-data="{&quot;isPaintingLayer&quot;:true}" fill-rule="nonzero" stroke-linecap="butt" stroke-linejoin="miter" stroke-miterlimit="10" stroke-dasharray="" stroke-dashoffset="0" style="mix-blend-mode: normal"><path d="M302.52518,180.33513c0.08306,2.91279 -7.47079,10.94732 -46.81921,10.94732c-39.34842,0 -50.33445,-6.8584 -50.34761,-11.54727c-0.01137,-4.04815 10.18494,-9.44736 49.53336,-9.44736c39.34842,0 47.55747,7.38292 47.63346,10.04731z" fill="url(#color-1)" stroke="none" stroke-width="0"/><text transform="translate(232.04396,212.79013) scale(0.46015,0.46015)" font-size="40" xml:space="preserve" fill="#000000" fill-rule="nonzero" stroke="#000000" stroke-width="1" stroke-linecap="butt" stroke-linejoin="miter" stroke-miterlimit="10" stroke-dasharray="" stroke-dashoffset="0" font-family="Handwriting" font-weight="normal" text-anchor="start" style="mix-blend-mode: normal"></text><text transform="translate(220.69563,60.38932) scale(0.49869,0.49869)" font-size="40" xml:space="preserve" fill="#000000" fill-rule="nonzero" stroke="#000000" stroke-width="1" stroke-linecap="butt" stroke-linejoin="miter" stroke-miterlimit="10" stroke-dasharray="" stroke-dashoffset="0" font-family="Handwriting" font-weight="normal" text-anchor="start" style="mix-blend-mode: normal"></text><path d="M302.67879,131.88481c0,27.31765 -22.84835,49.46298 -51.03322,49.46298c-28.18488,0 -51.03323,-22.14533 -51.03323,-49.46297c0,-27.31764 22.84836,-49.46297 51.03323,-49.46297c28.18488,0 51.03322,22.14533 51.03322,49.46297z" fill="url(#color-2)" stroke="none" stroke-width="0"/><g stroke="none" stroke-width="0"><path d="M264.2225,111.42027c0,1.95185 -1.56167,3.53414 -3.48808,3.53414c-1.92641,0 -3.48808,-1.58228 -3.48808,-3.53414c0,-1.95185 1.56167,-3.53413 3.48808,-3.53413c1.92641,0 3.48808,1.58228 3.48808,3.53413z" fill="url(#color-3)"/><path d="M258.71116,112.10164l-0.02725,-1.0832l3.99698,0.04981l-0.00819,1.08552z" fill="#524011"/></g><g stroke="none" stroke-width="0"><path d="M243.47575,146.29528c0,1.88281 -1.50644,3.40913 -3.36472,3.40913c-1.85828,0 -3.36471,-1.52632 -3.36471,-3.40913c0,-1.88281 1.50643,-3.40913 3.36471,-3.40913c1.85828,0 3.36472,1.52632 3.36472,3.40913z" fill="url(#color-4)"/><path d="M238.15935,146.95255l-0.02629,-1.04488l3.85561,0.04805l-0.00789,1.04712z" fill="#524011"/></g><g stroke="none" stroke-width="0"><path d="M257.05909,169.87861c0,1.88281 -1.50644,3.40913 -3.36472,3.40913c-1.85828,0 -3.36471,-1.52632 -3.36471,-3.40913c0,-1.88281 1.50643,-3.40913 3.36471,-3.40913c1.85828,0 3.36472,1.52632 3.36472,3.40913z" fill="url(#color-5)"/><path d="M251.74268,170.53588l-0.02629,-1.04488l3.85561,0.04805l-0.00789,1.04712z" fill="#524011"/></g><g stroke="none" stroke-width="0"><path d="M221.80909,152.87861c0,1.88281 -1.50644,3.40913 -3.36472,3.40913c-1.85828,0 -3.36471,-1.52632 -3.36471,-3.40913c0,-1.88281 1.50643,-3.40913 3.36471,-3.40913c1.85828,0 3.36472,1.52632 3.36472,3.40913z" fill="url(#color-6)"/><path d="M216.49268,153.53588l-0.02629,-1.04488l3.85561,0.04805l-0.00789,1.04712z" fill="#524011"/></g><g stroke="none" stroke-width="0"><path d="M292.05909,150.37861c0,1.88281 -1.50644,3.40913 -3.36471,3.40913c-1.85829,0 -3.36471,-1.52632 -3.36471,-3.40913c0,-1.88281 1.50643,-3.40913 3.36471,-3.40913c1.85829,0 3.36471,1.52632 3.36471,3.40913z" fill="url(#color-7)"/><path d="M286.74268,151.03588l-0.02629,-1.04488l3.85561,0.04805l-0.00789,1.04712z" fill="#524011"/></g><g stroke="none" stroke-width="0"><path d="M292.55909,108.87861c0,1.88281 -1.50644,3.40913 -3.36471,3.40913c-1.85829,0 -3.36471,-1.52632 -3.36471,-3.40913c0,-1.88281 1.50643,-3.40913 3.36471,-3.40913c1.85829,0 3.36471,1.52632 3.36471,3.40913z" fill="url(#color-8)"/><path d="M287.24268,109.53588l-0.02629,-1.04489l3.85561,0.04805l-0.00789,1.04712z" fill="#524011"/></g><g stroke="none" stroke-width="0"><path d="M254.05909,89.37861c0,1.88281 -1.50644,3.40913 -3.36472,3.40913c-1.85828,0 -3.36471,-1.52632 -3.36471,-3.40913c0,-1.88281 1.50643,-3.40913 3.36471,-3.40913c1.85828,0 3.36472,1.52632 3.36472,3.40913z" fill="url(#color-9)"/><path d="M248.74268,90.03588l-0.02629,-1.04489l3.85561,0.04805l-0.00789,1.04712z" fill="#524011"/></g><g stroke="none" stroke-width="0"><path d="M218.55909,107.87861c0,1.88281 -1.50644,3.40913 -3.36472,3.40913c-1.85828,0 -3.36471,-1.52632 -3.36471,-3.40913c0,-1.88281 1.50643,-3.40913 3.36471,-3.40913c1.85828,0 3.36472,1.52632 3.36472,3.40913z" fill="url(#color-10)"/><path d="M213.24268,108.53588l-0.02629,-1.04489l3.85561,0.04805l-0.00789,1.04712z" fill="#524011"/></g><g stroke="none" stroke-width="0"><path d="M256.03545,122.07173c0,2.61637 -2.09334,4.73736 -4.67562,4.73736c-2.58228,0 -4.67563,-2.12099 -4.67563,-4.73736c0,-2.61637 2.09335,-4.73735 4.67563,-4.73735c2.58228,0 4.67562,2.12098 4.67562,4.73735z" fill="url(#color-11)"/><g><path d="M263.27036,124.38786c0,2.61637 -2.09335,4.73735 -4.67562,4.73735c-2.58227,0 -4.67562,-2.12099 -4.67562,-4.73735c0,-2.61637 2.09335,-4.73735 4.67562,-4.73735c2.58227,0 4.67562,2.12099 4.67562,4.73735z" fill="url(#color-12)"/><path d="M257.71383,127.38906v-1.98341l-1.83119,-0.10445l-0.03652,-1.45198l1.86772,-0.06226v-2.41921h1.64217v2.54373l1.84789,0.00451l-0.01097,1.45509c0,0 -1.87453,0.05453 -1.87259,0.15896c0.01102,0.59343 0.03567,1.85903 0.03567,1.85903z" fill="#511111"/></g><path d="M265.47857,128.60602c0,2.61637 -2.09334,4.73736 -4.67562,4.73736c-2.58228,0 -4.67563,-2.12099 -4.67563,-4.73736c0,-2.61637 2.09335,-4.73735 4.67563,-4.73735c2.58228,0 4.67562,2.12098 4.67562,4.73735z" fill="url(#color-13)"/><g data-paper-data="{&quot;index&quot;:null}"><path d="M262.80704,133.25344c0,2.61637 -2.09334,4.73735 -4.67562,4.73735c-2.58228,0 -4.67562,-2.12098 -4.67562,-4.73735c0,-2.61637 2.09335,-4.73736 4.67562,-4.73736c2.58228,0 4.67562,2.12099 4.67562,4.73736z" fill="url(#color-14)"/><path d="M257.25052,136.25465v-1.98341l-1.83119,-0.10445l-0.03652,-1.45198l1.86772,-0.06226v-2.41921h1.64217v2.54373l1.84789,0.00451l-0.01097,1.45509c0,0 -1.87453,0.05452 -1.87259,0.15895c0.01101,0.59343 0.03567,1.85903 0.03567,1.85903z" fill="#511111"/></g><path d="M250.0522,129.17899c0,2.61637 -2.09334,4.73735 -4.67562,4.73735c-2.58228,0 -4.67562,-2.12099 -4.67562,-4.73735c0,-2.61637 2.09335,-4.73735 4.67562,-4.73735c2.58228,0 4.67562,2.12098 4.67562,4.73735z" fill="url(#color-15)"/><g><path d="M253.26547,124.48904c0,2.61637 -2.09335,4.73735 -4.67562,4.73735c-2.58227,0 -4.67562,-2.12099 -4.67562,-4.73735c0,-2.61637 2.09335,-4.73735 4.67562,-4.73735c2.58227,0 4.67562,2.12099 4.67562,4.73735z" fill="url(#color-16)"/><path d="M247.70895,127.49024v-1.98341l-1.83119,-0.10445l-0.03652,-1.45198l1.86772,-0.06226v-2.41921h1.64217v2.54373l1.84789,0.00451l-0.01097,1.45509c0,0 -1.87453,0.05453 -1.87259,0.15896c0.01102,0.59343 0.03567,1.85903 0.03567,1.85903z" fill="#511111"/></g><g data-paper-data="{&quot;index&quot;:null}"><path d="M251.97371,133.32011c0,2.61637 -2.09334,4.73735 -4.67562,4.73735c-2.58228,0 -4.67562,-2.12098 -4.67562,-4.73735c0,-2.61637 2.09335,-4.73736 4.67562,-4.73736c2.58228,0 4.67562,2.12099 4.67562,4.73736z" fill="url(#color-17)"/><path d="M246.4172,136.32132v-1.98341l-1.83119,-0.10445l-0.03652,-1.45198l1.86772,-0.06226v-2.41921h1.64217v2.54373l1.84789,0.00451l-0.01097,1.45509c0,0 -1.87453,0.05452 -1.87259,0.15895c0.01101,0.59343 0.03567,1.85903 0.03567,1.85903z" fill="#511111"/></g><path d="M260.03545,124.30506c0,2.61637 -2.09334,4.73736 -4.67562,4.73736c-2.58228,0 -4.67563,-2.12099 -4.67563,-4.73736c0,-2.61637 2.09335,-4.73735 4.67563,-4.73735c2.58228,0 4.67562,2.12098 4.67562,4.73735z" fill="url(#color-18)"/><path d="M257.97857,137.00603c0,2.61637 -2.09334,4.73736 -4.67562,4.73736c-2.58228,0 -4.67563,-2.12099 -4.67563,-4.73736c0,-2.61637 2.09335,-4.73735 4.67563,-4.73735c2.58228,0 4.67562,2.12098 4.67562,4.73735z" fill="url(#color-19)"/><g><path d="M258.60368,130.12119c0,2.61637 -2.09335,4.73735 -4.67562,4.73735c-2.58227,0 -4.67562,-2.12099 -4.67562,-4.73735c0,-2.61637 2.09335,-4.73735 4.67562,-4.73735c2.58227,0 4.67562,2.12099 4.67562,4.73735z" fill="url(#color-20)"/><path d="M253.04716,133.12239v-1.98341l-1.83119,-0.10445l-0.03652,-1.45198l1.86772,-0.06226v-2.41921h1.64217v2.54373l1.84789,0.00451l-0.01097,1.45509c0,0 -1.87453,0.05453 -1.87259,0.15896c0.01102,0.59343 0.03567,1.85903 0.03567,1.85903z" fill="#511111"/></g></g></g></g></svg>