<svg version="1.1" xmlns="http://www.w3.org/2000/svg" xmlns:xlink="http://www.w3.org/1999/xlink" width="150.53835" height="172.77751" viewBox="0,0,150.53835,172.77751"><defs><linearGradient x1="240.61952" y1="58.29925" x2="240.61952" y2="237.16748" gradientUnits="userSpaceOnUse" id="color-1"><stop offset="0" stop-color="#000000"/><stop offset="1" stop-color="#000000" stop-opacity="0"/></linearGradient><radialGradient cx="238.75003" cy="136.88476" r="64.16667" gradientUnits="userSpaceOnUse" id="color-2"><stop offset="0" stop-color="#f7d280" stop-opacity="0"/><stop offset="1" stop-color="#f7d280"/></radialGradient><radialGradient cx="237.50878" cy="141.36645" r="75.25879" gradientUnits="userSpaceOnUse" id="color-3"><stop offset="0" stop-color="#d9d9d9"/><stop offset="1" stop-color="#d9d9d9" stop-opacity="0"/></radialGradient></defs><g transform="translate(-162.22949,-38.22262)"><g data-paper-data="{&quot;isPaintingLayer&quot;:true}" fill-rule="nonzero" stroke-linecap="butt" stroke-linejoin="miter" stroke-miterlimit="10" stroke-dasharray="" stroke-dashoffset="0" style="mix-blend-mode: normal"><path d="M284.37023,179.70936c0.07585,1.88165 -6.82295,7.07192 -42.75929,7.07192c-35.93634,0 -45.96971,-4.43047 -45.98172,-7.45949c-0.01038,-2.6151 9.30175,-6.10294 45.23807,-6.10294c35.93634,0 43.43354,4.76932 43.50294,6.49051z" fill="url(#color-1)" stroke="none" stroke-width="0"/><text transform="translate(217.90924,205.02038) scale(0.357,0.357)" font-size="40" xml:space="preserve" fill="#ffffff" fill-rule="nonzero" stroke="#ffffff" stroke-width="0.5" stroke-linecap="butt" stroke-linejoin="miter" stroke-miterlimit="10" stroke-dasharray="" stroke-dashoffset="0" font-family="Handwriting" font-weight="normal" text-anchor="start" style="mix-blend-mode: normal"></text><text transform="translate(214.91903,53.53753) scale(0.39779,0.39779)" font-size="40" xml:space="preserve" fill="#ffffff" fill-rule="nonzero" stroke="#ffffff" stroke-width="2" stroke-linecap="butt" stroke-linejoin="miter" stroke-miterlimit="10" stroke-dasharray="" stroke-dashoffset="0" font-family="Handwriting" font-weight="normal" text-anchor="start" style="mix-blend-mode: normal"></text><text transform="translate(185.43818,73.47374) scale(0.23622,0.23622)" font-size="40" xml:space="preserve" fill="#ffffff" fill-rule="nonzero" stroke="#ffffff" stroke-width="1" stroke-linecap="butt" stroke-linejoin="miter" stroke-miterlimit="10" stroke-dasharray="" stroke-dashoffset="0" font-family="Handwriting" font-weight="normal" text-anchor="start" style="mix-blend-mode: normal"></text><path d="M248.75003,161.24999c0.97415,0.84361 -7.05887,1.66666 -17,1.66666c-9.94112,0 -17.66666,-3.04466 -17.66666,-4.33333c0,-1.28867 7.3922,3.33333 17.33333,3.33333c9.94113,0 17,-0.95533 17.33334,-0.66666z" fill="#ffffff" stroke="none" stroke-width="0"/><path d="M284.63212,134.35034c0,24.84838 -20.44879,44.99195 -45.67365,44.99195c-25.22486,0 -45.67365,-20.14358 -45.67365,-44.99195c0,-24.84836 20.44879,-44.99195 45.67365,-44.99195c25.22486,0 45.67365,20.14359 45.67365,44.99196z" fill="#f7d280" stroke="none" stroke-width="0"/><path d="M279.91667,153.91668c-0.85874,1.96185 -80.20054,3.9621 -81.16667,2.33334c-5.33334,-8.99131 -8.17947,-30.32148 -1.3902,-40.8837c0.51543,-0.80187 22.78088,-5.61149 44.14315,-5.83696c19.63472,-0.20723 38.50644,4.07901 39.02537,5.31833c7.63743,18.24011 3.08951,30.6134 -0.61165,39.06899z" fill="#f2feea" stroke="none" stroke-width="0"/><path d="M284.5,142.25c-0.32178,2.38226 -1.17338,7.11628 -3.6635,11.84743c-0.40408,0.76774 -2.73065,5.33427 -8.24127,5.87304c-3.15521,0.30848 -5.13056,-4.52492 -8.80586,-4.30519c-3.85385,0.2304 -4.7872,5.85927 -8.30499,5.98086c-3.55355,0.12282 -6.85511,-4.95263 -11.08437,-3.4628c-4.57964,1.61325 -7.45108,12.20845 -19.17417,12.09501c-9.83392,-0.09517 -13.98095,-6.01392 -18.16582,-11.29311c-2.40935,-3.03938 -7.58655,-1.8226 -7.62668,-1.93523c-0.14502,-0.40708 -4.01416,-5.94637 -4.63936,-11.44398c-0.17007,-1.4955 35.61744,-2.02268 48.87269,-2.02268c21.26296,0 41.0032,-2.59096 40.83334,-1.33334z" fill="#f2926b" stroke="none" stroke-width="0"/><path d="M282.33333,120.12552c1.67822,2.5212 1.99329,4.87746 1.8365,8.23189c0.09355,0.46399 -5.44228,5.65601 -8.29338,5.62663c-2.88164,-0.0297 -10.08649,-5.82223 -13.50669,-5.9144c-3.40055,-0.09164 -6.76396,7.3301 -10.48422,7.29144c-2.66849,-0.02773 -8.89196,-6.53508 -11.63126,-6.51236c-3.66642,0.0304 -7.05828,6.16165 -10.37287,6.06243c-3.42893,-0.10264 -6.77518,-6.43438 -10.25721,-6.30846c-3.08368,0.11151 -5.52039,5.2338 -8.23355,5.35961c-3.30331,0.15317 -6.77526,-4.68844 -9.27771,-4.53794c-1.19791,0.07204 -3.03823,4.4019 -4.0058,4.48043c-3.13124,0.25412 -4.22705,-3.75572 -4.27379,-3.83951c-0.14502,-0.25994 -0.3475,-5.36414 2.0273,-9.208c-0.02184,-0.12264 3.49048,-2.80891 7.27674,-3.36753c2.37076,-0.34978 4.24099,2.61847 7.30131,2.32597c2.85026,-0.27243 6.34879,-3.9977 9.6866,-4.20329c2.84886,-0.17547 5.82348,3.33006 8.83534,3.16617c3.45368,-0.18793 6.94718,-4.69061 9.99296,-4.83593c3.96588,-0.18922 6.90449,4.66229 10.87797,4.56657c3.45883,-0.08332 7.11367,-4.10095 10.48232,-4.42202c3.56859,-0.34012 6.81603,4.68664 9.16906,4.76737c2.6208,0.08991 4.99605,-3.0556 6.82344,-3.05148c4.49167,0.01011 5.68037,3.75056 6.02696,4.32243z" fill="#f2926b" stroke="none" stroke-width="0"/><path d="M272.5,103.5c1.33898,1.97862 -4.64211,3.384 -7.49318,3.15453c-2.21417,-0.17821 -4.96502,-4.06623 -8.00771,-4.50684c-2.36785,-0.34288 -6.18292,4.05016 -10.01437,3.71098c-3.42316,-0.30303 -6.89301,-5.35867 -8.81807,-5.35867c-3.84831,0 -6.17932,5.82581 -10.21903,6.28248c-2.76343,0.31239 -7.30187,-4.81399 -9.80761,-4.44155c-3.06349,0.45535 -5.3347,4.70668 -7.53868,5.08008c-2.24543,0.38043 -6.19977,-3.04287 -5.768,-3.58768c2.70284,-3.41043 18.42164,-15 33.33333,-15c14.91169,0 30.66667,9.24838 34.33334,14.66666z" fill="#de9f6e" stroke="none" stroke-width="0"/><path d="M238.16667,180.26468c-14.91169,0 -27.29715,-8.58957 -29.99999,-12c-0.2535,-0.24906 2.22837,-2.55253 6.99549,-1.9184c2.03066,0.27012 4.88526,3.32429 7.4517,3.62323c2.64875,0.30853 5.82182,-1.58984 8.80338,-1.3309c2.55775,0.22214 4.90853,2.62607 7.41609,2.62607c2.87982,0 6.09616,-2.4689 8.99995,-2.7796c3.14783,-0.33681 5.97216,1.46851 8.7831,1.07788c2.61211,-0.363 6.49678,-3.46123 8.50163,-3.73849c4.15273,-0.57429 5.17588,1.90593 4.71532,2.4402c-3.66667,5.41828 -16.75498,12 -31.66667,12z" data-paper-data="{&quot;index&quot;:null}" fill="#c7b67c" stroke="none" stroke-width="0"/><path d="M236.16667,157c0,4.14214 -5.67106,7.5 -12.66667,7.5c-6.99561,0 -12.66667,-3.35786 -12.66667,-7.5c0,-4.14214 5.67106,-7.5 12.66667,-7.5c6.99561,0 12.66667,3.35786 12.66667,7.5z" fill="#ee6339" stroke="none" stroke-width="0"/><path d="M286.25001,134.88476c-0.24215,23.68628 -23.06174,46.80142 -45.83333,46.80142c-22.7716,0 -48.53489,-19.44365 -48.83333,-45.46808c-0.22178,-19.33956 17.06273,-48.88346 47.83333,-48.46808c28.43618,0.38386 47.08224,22.78831 46.83333,47.13475z" fill="url(#color-2)" stroke="none" stroke-width="0"/><path d="M252.55556,91.33335c0,1.28866 -6.82521,4.5 -14.83334,4.5c-8.00813,0 -15.33333,-2.21134 -15.33333,-3.5c0,-1.28866 7.49187,2 15.5,2c8.00813,0 14.66666,-4.28866 14.66666,-3z" fill="#18fffd" stroke="none" stroke-width="0"/><path d="M245.54168,88.25652c0,1.03553 -4.80558,-1.125 -9.5,-1.125c-4.69442,0 -11.5,3.91053 -11.5,2.875c0,-1.03553 6.55558,-4.375 11.25,-4.375c4.69442,0 9.75,1.58947 9.75,2.625z" fill="#18fffd" stroke="none" stroke-width="0"/><path d="M241.625,90.625c0,0.69036 -3.48858,2.5 -6.25,2.5c-2.76142,0 -6.5,-1.55964 -6.5,-2.25c0,-0.69036 3.73858,0.5 6.5,0.5c2.76142,0 6.25,-1.44036 6.25,-0.75z" fill="#18fffd" stroke="none" stroke-width="0"/><path d="M312.72386,140.77155c1.40718,11.55678 -31.12701,21.19175 -72.66715,21.52031c-41.54015,0.32856 -76.35582,-8.77371 -77.763,-20.33049c-1.23718,-10.16059 15.62097,-17.0733 31.57616,-19.57771c-0.13821,1.25593 -0.28325,3.16362 -0.17203,4.46596c-13.57969,1.73624 -23.78954,7.85682 -23.4373,14.96793c0.40466,8.16946 37.44705,17.17409 65.76988,16.95008c28.32282,-0.22402 69.87507,-8.85636 69.189,-18.20471c-0.49682,-6.76958 -10.05996,-11.28159 -20.34412,-11.51584c0.15212,-1.31517 -1.01162,-3.40671 -1.13367,-4.77305c13.49417,0.93181 27.86633,7.3329 28.98224,16.49753z" fill="url(#color-3)" stroke="none" stroke-width="0"/></g></g></svg>