<svg version="1.1" xmlns="http://www.w3.org/2000/svg" xmlns:xlink="http://www.w3.org/1999/xlink" width="106.28027" height="154.87166" viewBox="0,0,106.28027,154.87166"><defs><linearGradient x1="240.29955" y1="87.89562" x2="240.29955" y2="223.26498" gradientUnits="userSpaceOnUse" id="color-1"><stop offset="0" stop-color="#000000"/><stop offset="1" stop-color="#000000" stop-opacity="0"/></linearGradient><radialGradient cx="240" cy="129.75" r="49.06667" gradientUnits="userSpaceOnUse" id="color-2"><stop offset="0" stop-color="#fff380"/><stop offset="1" stop-color="#ffe700"/></radialGradient></defs><g transform="translate(-189.7815,-56.65849)"><g data-paper-data="{&quot;isPaintingLayer&quot;:true}" fill-rule="nonzero" stroke-linejoin="miter" stroke-miterlimit="10" stroke-dasharray="" stroke-dashoffset="0" style="mix-blend-mode: normal"><path d="M261.45846,179.78001c0.03668,1.42405 -3.29975,5.35209 -20.67938,5.35209c-17.37964,0 -22.23201,-3.35303 -22.23782,-5.64542c-0.00502,-1.97913 4.49855,-4.61877 21.87818,-4.61877c17.37964,0 21.00546,3.60948 21.03903,4.91209z" fill="url(#color-1)" stroke="none" stroke-width="0" stroke-linecap="butt"/><path d="M230.5641,178.81667v-98.13333h18.8718v98.13333z" fill="url(#color-2)" stroke="#000000" stroke-width="2" stroke-linecap="butt"/><g fill="none" stroke="#000000" stroke-width="2" stroke-linecap="round"><path d="M248.48315,86.13095h-7.71429"/><path d="M248.34029,94.27381h-4"/><path d="M244.48315,110.27381h4.14286"/><path d="M248.34029,118.13095h-7.57143"/><path d="M248.62601,125.9881h-4.14286"/><path d="M248.76886,134.13095h-7.85714"/><path d="M244.48315,141.9881h3.85714"/><path d="M240.48315,101.98809h8"/><path d="M240.91172,150.13095h7.71429"/><path d="M244.48315,157.84524h4.14286"/><path d="M248.62601,165.9881h-8.14286"/><path d="M248.48315,174.13095h-4"/></g><text transform="translate(190.24165,74.37426) scale(0.46015,0.46015)" font-size="40" xml:space="preserve" fill="#000000" fill-rule="nonzero" stroke="#000000" stroke-width="2" stroke-linecap="butt" stroke-linejoin="miter" stroke-miterlimit="10" stroke-dasharray="" stroke-dashoffset="0" font-family="Handwriting" font-weight="normal" text-anchor="start" style="mix-blend-mode: normal"></text><text transform="translate(228.79463,203.70759) scale(0.46015,0.46015)" font-size="40" xml:space="preserve" fill="#000000" fill-rule="nonzero" stroke="#000000" stroke-width="1" stroke-linecap="butt" stroke-linejoin="miter" stroke-miterlimit="10" stroke-dasharray="" stroke-dashoffset="0" font-family="Handwriting" font-weight="normal" text-anchor="start" style="mix-blend-mode: normal"></text></g></g></svg>