<svg version="1.1" xmlns="http://www.w3.org/2000/svg" xmlns:xlink="http://www.w3.org/1999/xlink" width="131.19806" height="167.88717" viewBox="0,0,131.19806,167.88717"><defs><linearGradient x1="240.76948" y1="58.29922" x2="240.76948" y2="237.16742" gradientUnits="userSpaceOnUse" id="color-1"><stop offset="0" stop-color="#000000"/><stop offset="1" stop-color="#000000" stop-opacity="0"/></linearGradient></defs><g transform="translate(-178.92682,-42.39373)"><g data-paper-data="{&quot;isPaintingLayer&quot;:true}" fill-rule="nonzero" stroke-linecap="butt" stroke-linejoin="miter" stroke-miterlimit="10" stroke-dasharray="" stroke-dashoffset="0" style="mix-blend-mode: normal"><path d="M295.12005,179.7093c0.09422,1.88165 -8.47599,7.07192 -53.11886,7.07192c-44.64286,0 -57.10709,-4.43047 -57.12201,-7.45949c-0.0129,-2.6151 11.55535,-6.10294 56.19819,-6.10294c44.64286,0 53.95646,4.76932 54.04268,6.49051z" fill="url(#color-1)" stroke="none" stroke-width="0"/><text transform="translate(225.15798,205.43311) scale(0.28942,0.28942)" font-size="40" xml:space="preserve" fill="#000000" fill-rule="nonzero" stroke="#000000" stroke-width="0.5" stroke-linecap="butt" stroke-linejoin="miter" stroke-miterlimit="10" stroke-dasharray="" stroke-dashoffset="0" font-family="Handwriting" font-weight="normal" text-anchor="start" style="mix-blend-mode: normal"></text><text transform="translate(206.09735,53.90621) scale(0.30296,0.30296)" font-size="40" xml:space="preserve" fill="#000000" fill-rule="nonzero" stroke="#000000" stroke-width="1" stroke-linecap="butt" stroke-linejoin="miter" stroke-miterlimit="10" stroke-dasharray="" stroke-dashoffset="0" font-family="Handwriting" font-weight="normal" text-anchor="start" style="mix-blend-mode: normal"></text><text transform="translate(179.04493,70.30703) scale(0.23622,0.23622)" font-size="40" xml:space="preserve" fill="#000000" fill-rule="nonzero" stroke="#000000" stroke-width="1" stroke-linecap="butt" stroke-linejoin="miter" stroke-miterlimit="10" stroke-dasharray="" stroke-dashoffset="0" font-family="Handwriting" font-weight="normal" text-anchor="start" style="mix-blend-mode: normal"></text><path d="M188.00003,178.0054c0,0 5.05518,-17.71172 9.191,-24.67821c2.4644,-4.15111 4.19195,2.87613 5.46063,-0.56216c4.45199,-12.06547 -0.01527,-30.66254 -0.01527,-30.66254l31.06352,-13.08536l21.91582,-27.08715l9.83427,6.79102l17.41107,35.14912c0,0 -0.77364,4.32842 0.21271,11.00524c0.4562,3.08812 3.58847,-5.82064 4.63163,0.03399c2.43117,13.64461 3.38554,44.6708 3.38554,44.6708l-24.07962,2.68373l-19.0913,-3.4768l-32.66117,2.24307z" fill="#8f8ba3" stroke="none" stroke-width="NaN"/><path d="M214.56821,155.76233l10.81818,-27.95146l10.5,-19.29045l3.18182,26.37673l8.86873,44.00752l-33.3309,2.16283l13.14741,-19.43735z" fill="#7d7894" stroke="none" stroke-width="0"/><path d="M224.75003,128.99191c-6.85335,0 -22.59091,-2.94362 -22.59091,-6.29892c0,-2.17425 24.64665,-14.17257 31.5,-14.17257c6.85335,0 -2.05574,20.47149 -8.90909,20.47149z" fill="#f2f7ff" stroke="none" stroke-width="0"/><path d="M249.22355,132.3327c2.17147,-7.2461 -4.29054,-9.55936 -3.44358,-14.05338c2.20225,-11.68528 9.19733,-28.65567 9.19733,-28.65567l27.04546,34.25039l2.22727,10.23575l-28.56344,3.47113c0,0 -4.8857,6.74825 -8.30004,13.80714c-2.44657,5.0581 -3.51841,11.23342 -4.35864,10.77219c-0.43349,-0.23796 -4.69466,-6.71371 -3.80623,-11.07424c0.70107,-3.4409 2.48021,-0.67033 5.6219,-5.31952c2.74995,-4.06947 4.05209,-12.33964 4.37997,-13.43378z" fill="#7d7894" stroke="none" stroke-width="0"/><path d="M267.38639,182.13906l-17.18182,-42.12404l36.59091,-5.51156c0,0 2.85295,14.04372 3.48717,21.69455c0.63849,7.70244 0.96738,23.97263 0.96738,23.97263z" fill="#7d7894" stroke="none" stroke-width="0"/><path d="M282.65909,125.05509c-1.96309,0 -25.89918,-12.07603 -26.65757,-16.60215c-0.31123,-1.85747 -1.03703,-11.9781 -1.31205,-18.79183c-0.07787,-1.92928 -7.71463,4.56722 -7.6477,3.09125c0.11876,-2.6191 7.76769,-11.00234 8.25369,-11.00234c1.09628,0 8.947,4.87129 10.59959,6.97543c1.79575,2.28641 19.35804,36.32967 16.76404,36.32967z" fill="#f2f7ff" stroke="none" stroke-width="0"/><path d="M287.75001,133.91295c0,3.58751 -17.32378,13.58205 -23.38636,13.58205c-6.06258,0 -14.47727,-12.35663 -14.47727,-15.94414c0,-3.58751 8.73287,-0.19684 14.79545,-0.19684c3.04855,0 8.86407,-0.26007 13.89302,-0.06253c4.97203,0.19531 9.17516,0.83793 9.17516,2.62147z" fill="#f2f7ff" stroke="none" stroke-width="0"/><path d="M239.38639,134.10979c0.87236,3.76187 -6.1963,30.31356 -19.72727,30.31356c-13.53097,0 -22.59091,-7.50315 -22.59091,-11.4168c0,-3.91365 6.51448,0 20.04545,0c13.53097,0 21,-24.38514 22.27273,-18.89676z" fill="#f2f7ff" stroke="none" stroke-width="0"/><path d="M235.52138,109.26623c1.87036,1.08227 -1.0151,12.97697 -3.9766,15.60902c-2.96149,2.63205 -7.13423,5.44579 -8.33884,3.37087c-0.54842,-0.94465 3.10429,-4.95152 5.80027,-9.18524c3.22577,-5.06569 5.85897,-10.17433 6.51516,-9.79464z" fill="#cddfff" stroke="none" stroke-width="0"/><path d="M283.21592,124.95667c-4.71145,0.69302 -26.04327,-13.15558 -27.52272,-16.33783c-0.00905,-0.01949 2.37486,-14.76411 6.83159,-12.35926c8.43642,4.5523 21.5605,27.84235 20.69114,28.69709z" fill="#cddfff" stroke="none" stroke-width="0"/><path d="M287.30368,134.03884c0.32492,1.36509 -3.88899,5.92322 -9.51552,9.02369c-5.08081,2.79975 -11.46034,4.19289 -14.07425,4.85631c-5.50856,1.39809 -13.55836,-14.28979 -13.85851,-16.10021c-0.30015,-1.81042 10.87541,12.39448 19.13522,11.11885c8.24963,-1.27406 17.89109,-10.67147 18.31306,-8.89864z" fill="#cddfff" stroke="none" stroke-width="0"/><path d="M234.8523,150.25077c0,1.68505 -3.48497,14.07415 -18.45455,14.66468c-9.39662,0.37068 -19.40909,-9.23964 -19.40909,-10.92469c0,-1.68505 9.53552,6.01446 18.93182,6.39734c14.49231,0.59052 18.93182,-11.82237 18.93182,-10.13733z" fill="#cddfff" stroke="none" stroke-width="0"/></g></g></svg>