<svg version="1.1" xmlns="http://www.w3.org/2000/svg" xmlns:xlink="http://www.w3.org/1999/xlink" width="52.76563" height="156.34284" viewBox="0,0,52.76563,156.34284"><defs><linearGradient x1="241.72606" y1="88.33586" x2="241.72606" y2="223.70522" gradientUnits="userSpaceOnUse" id="color-1"><stop offset="0" stop-color="#000000"/><stop offset="1" stop-color="#000000" stop-opacity="0"/></linearGradient><radialGradient cx="241.4265" cy="130.35691" r="49.06667" gradientUnits="userSpaceOnUse" id="color-2"><stop offset="0" stop-color="#ffff7f"/><stop offset="1" stop-color="#ffff00"/></radialGradient></defs><g transform="translate(-216.96777,-53.29421)"><g data-paper-data="{&quot;isPaintingLayer&quot;:true}" fill-rule="nonzero" stroke-linejoin="miter" stroke-miterlimit="10" stroke-dasharray="" stroke-dashoffset="0" style="mix-blend-mode: normal"><path d="M262.88496,180.22025c0.03668,1.42405 -3.29975,5.35209 -20.67938,5.35209c-17.37964,0 -22.23201,-3.35303 -22.23783,-5.64542c-0.00502,-1.97913 4.49855,-4.61877 21.87818,-4.61877c17.37963,0 21.00546,3.60948 21.03903,4.91209z" fill="url(#color-1)" stroke="none" stroke-width="0" stroke-linecap="butt"/><g stroke="#000000" stroke-width="2"><path d="M231.9906,179.42358v-98.13333h18.8718v98.13333z" fill="url(#color-2)" stroke-linecap="butt"/><g fill="none" stroke-linecap="round"><path d="M242.19536,86.73786h7.71429"/><path d="M249.76679,94.88072h-4"/><path d="M250.05251,110.88072h-4.14286"/><path d="M249.76679,118.73786h-7.57143"/><path d="M245.90965,126.59501h4.14286"/><path d="M242.33822,134.73786h7.85714"/><path d="M249.76679,142.59501h-3.85714"/><path d="M241.90965,102.595h8"/><path d="M250.05251,150.73786h-7.71429"/><path d="M250.05251,158.45215h-4.14286"/><path d="M250.05251,166.59501h-8.14286"/><path d="M249.90965,174.73786h-4"/></g></g><text transform="translate(217.46777,72.54421) scale(0.5,0.5)" font-size="40" xml:space="preserve" fill="#000000" fill-rule="nonzero" stroke="#000000" stroke-width="2" stroke-linecap="butt" stroke-linejoin="miter" stroke-miterlimit="10" stroke-dasharray="" stroke-dashoffset="0" font-family="Handwriting" font-weight="normal" text-anchor="start" style="mix-blend-mode: normal"></text><text transform="translate(231.72113,201.8145) scale(0.46015,0.46015)" font-size="40" xml:space="preserve" fill="#000000" fill-rule="nonzero" stroke="#000000" stroke-width="1" stroke-linecap="butt" stroke-linejoin="miter" stroke-miterlimit="10" stroke-dasharray="" stroke-dashoffset="0" font-family="Handwriting" font-weight="normal" text-anchor="start" style="mix-blend-mode: normal"></text></g></g></svg>