<svg version="1.1" xmlns="http://www.w3.org/2000/svg" xmlns:xlink="http://www.w3.org/1999/xlink" width="110.24164" height="169.80552" viewBox="0,0,110.24164,169.80552"><defs><linearGradient x1="263.26947" y1="57.79922" x2="263.26947" y2="236.66742" gradientUnits="userSpaceOnUse" id="color-1"><stop offset="0" stop-color="#000000"/><stop offset="1" stop-color="#000000" stop-opacity="0"/></linearGradient></defs><g transform="translate(-207.37917,-36.27027)"><g data-paper-data="{&quot;isPaintingLayer&quot;:true}" fill-rule="nonzero" stroke-linecap="butt" stroke-linejoin="miter" stroke-miterlimit="10" stroke-dasharray="" stroke-dashoffset="0" style="mix-blend-mode: normal"><path d="M317.62005,179.2093c0.09422,1.88165 -8.47599,7.07192 -53.11886,7.07192c-44.64286,0 -57.10709,-4.43047 -57.12201,-7.45949c-0.0129,-2.6151 11.55535,-6.10294 56.19819,-6.10294c44.64286,0 53.95646,4.76932 54.04268,6.49051z" fill="url(#color-1)" stroke="none" stroke-width="0"/><text transform="translate(250.12805,201.22801) scale(0.28942,0.28942)" font-size="40" xml:space="preserve" fill="#000000" fill-rule="nonzero" stroke="#000000" stroke-width="0.5" stroke-linecap="butt" stroke-linejoin="miter" stroke-miterlimit="10" stroke-dasharray="" stroke-dashoffset="0" font-family="Handwriting" font-weight="normal" text-anchor="start" style="mix-blend-mode: normal"></text><text transform="translate(225.60478,63.80703) scale(0.23622,0.23622)" font-size="40" xml:space="preserve" fill="#000000" fill-rule="nonzero" stroke="#000000" stroke-width="1" stroke-linecap="butt" stroke-linejoin="miter" stroke-miterlimit="10" stroke-dasharray="" stroke-dashoffset="0" font-family="Handwriting" font-weight="normal" text-anchor="start" style="mix-blend-mode: normal"></text><text transform="translate(244.66561,47.78276) scale(0.30296,0.30296)" font-size="40" xml:space="preserve" fill="#000000" fill-rule="nonzero" stroke="#000000" stroke-width="1" stroke-linecap="butt" stroke-linejoin="miter" stroke-miterlimit="10" stroke-dasharray="" stroke-dashoffset="0" font-family="Handwriting" font-weight="normal" text-anchor="start" style="mix-blend-mode: normal"></text><g stroke="none"><path d="M267.73202,163.58686c-0.67026,-0.44276 -1.31298,-0.89353 -1.93124,-1.35041c-4.44877,-3.30486 -7.89433,-7.99963 -11.22636,-12.53862c-3.67755,-5.01416 -7.48111,-10.19845 -12.67132,-13.62696c-0.23666,-0.15633 -0.47654,-0.31052 -0.71993,-0.45941c-2.93914,-1.80586 -6.59462,-3.30445 -10.12995,-4.75601c-3.98665,-1.63415 -8.1104,-3.32471 -11.46724,-5.54214c-5.6843,-3.75489 -8.22796,-8.48311 -7.77955,-14.45263c0.87166,-11.58526 6.99202,-12.53192 18.10583,-14.25325c3.41302,-0.52819 7.28178,-1.12787 11.91648,-2.11543c1.03983,-0.22099 3.14514,-1.44533 5.37687,-2.74196c8.59542,-4.99668 24.59652,-14.29983 41.76513,-2.95875c13.21322,8.72827 16.77546,26.97205 19.13257,39.04604c0.54168,2.76863 1.00912,5.16232 1.50239,6.95664c2.75106,10.00817 0.873,32.87779 -8.8122,36.64304c-8.34222,3.24455 -23.36277,-1.44349 -33.06145,-7.85016v0z" fill="#5f8ba5" stroke-width="0.66342"/><path d="M289.22622,89.1762c-20.60716,-13.61249 -41.5381,4.336 -47.76735,5.66161c-20.01795,4.26727 -28.20185,3.63622 -29.14353,16.16052c-0.42801,5.68758 3.2408,11.17849 7.48759,13.9838c6.0829,4.01819 15.06808,6.28489 21.52688,10.25416c0.26624,0.16368 0.65044,0.92325 0.91086,1.09527c10.40992,6.87649 15.46141,19.8688 24.36918,26.481c0.57963,0.42953 0.65224,0.50158 1.28154,0.91728c9.27356,6.12584 25.71597,10.12921 32.99977,7.29577c7.78073,-3.02495 10.83318,-27.15777 8.16267,-36.87434c-2.67066,-9.71636 -4.88527,-35.10459 -20.18399,-45.21049M287.57507,90.90087l2.7903,-4.22406v0c14.1004,9.31431 17.78467,28.18469 20.2226,40.67211c0.53062,2.72077 0.99003,5.06893 1.45729,6.77108c2.70519,9.83854 1.60568,35.0324 -10.33411,39.6725c-9.45062,3.67968 -25.27989,-1.42523 -35.37589,-8.09435c-0.70826,-0.46785 -1.39498,-0.94984 -2.04375,-1.43115c-4.75534,-3.52931 -8.31579,-8.38107 -11.75825,-13.07411c-3.71054,-5.05607 -7.21408,-9.83153 -12.02691,-13.01075c-0.21394,-0.14132 -0.42991,-0.28002 -0.64997,-0.41533c-2.7659,-1.69751 -6.16498,-3.09139 -9.76526,-4.56969c-4.09973,-1.68079 -8.33924,-3.41947 -11.90153,-5.77262c-6.42779,-4.24601 -9.42435,-9.88405 -8.90801,-16.75527c1.02212,-13.58938 9.08452,-14.8366 20.24345,-16.5644c3.38116,-0.52334 7.21115,-1.11601 11.76386,-2.087c0.73864,-0.18734 2.9052,-1.44622 4.64478,-2.45702c9.07066,-5.27539 25.9536,-15.09015 44.43173,-2.88403z" fill="#000000" stroke-width="0.66342"/><path d="M288.90329,88.88614c15.29873,10.1059 17.54044,35.56971 20.2111,45.28606c2.67052,9.71656 -0.40873,33.8829 -8.18944,36.90786c-7.28381,2.83343 -23.76244,-1.16036 -33.03601,-7.2862c-0.6293,-0.4157 -0.7039,-0.48786 -1.28354,-0.91738c-8.90777,-6.6122 -14.01025,-19.63631 -24.42017,-26.5128c-0.26042,-0.17202 -0.64597,-0.93408 -0.91222,-1.09776c-6.4588,-3.96925 -15.45099,-6.25987 -21.53389,-10.27805c-4.24678,-2.8053 -7.915,-8.31245 -7.48698,-14.00003c0.94169,-12.52429 9.1415,-11.92596 29.15945,-16.19323c6.22925,-1.32561 27.24156,-19.28514 47.84871,-5.67266" data-paper-data="{&quot;noHover&quot;:false,&quot;origItem&quot;:[&quot;Path&quot;,{&quot;applyMatrix&quot;:true,&quot;segments&quot;:[[[358.43453,180.66689],[0,0],[-19.2746,0]],[[329.76442,204.90104],[3.48619,-3.54277],[-11.19984,11.38962]],[[317.73806,227.96081],[-4.77418,-8.56073],[2.16783,3.88779]],[[328.62908,233.84605],[-3.97216,0],[5.68955,0]],[[347.05799,231.26352],[-5.91328,0.19356],[0.24378,-0.00794]],[[348.12227,231.58494],[-0.24358,0],[9.73676,0]],[[375.38211,238.34649],[-8.6449,-0.47406],[0.56221,0.03037]],[[376.61121,238.39255],[-0.58861,0],[8.67389,0]],[[401.23855,228.94844],[-3.52431,4.97826],[3.76551,-5.31673]],[[390.69228,201.42513],[5.91864,5.17856],[-5.91864,-5.17837]],[[358.1012,180.66689],[14.30944,0],[0,0]]],&quot;fillColor&quot;:[0,0,0,1]}]}" fill="#c4b489" stroke-width="0.5"/><path d="M261.10383,110.13902c2.70642,3.14715 5.05405,6.31366 6.34167,10.3012c0.65526,2.03274 -2.74563,2.79362 -3.2922,0.67294c-2.03941,-7.87386 -12.59172,-13.37408 -12.06226,-21.83013c0.0204,-0.28193 0.40483,-0.44442 0.58943,-0.20328c2.84968,3.69267 5.36803,7.50392 8.42336,11.05927z" fill="#231f20" stroke-width="0.66342"/><path d="M260.44571,117.63239c0.59359,1.26584 -1.34323,2.22956 -1.95044,0.96265c-2.84183,-5.9364 -13.33587,-11.0015 -10.83524,-18.67523c0.20341,-0.63236 1.31431,-0.66097 1.37401,0.07842c0.36651,4.40219 1.79631,7.14257 4.94717,10.24734c2.32456,2.28579 5.04483,4.36807 6.46452,7.38683z" fill="#231f20" stroke-width="0.66342"/><path d="M240.67164,109.11158c4.80719,3.17548 5.80049,12.94935 3.60509,16.27284c-2.19539,3.32348 -7.74586,-0.48621 -12.55304,-3.6617c-4.80719,-3.17548 -5.57377,-10.02131 -3.37838,-13.34479c2.19539,-3.32348 7.51916,-2.44182 12.32633,0.73365zM242.79692,123.70421c1.95023,-2.95234 -0.25813,-10.35218 -3.21047,-12.30241c-2.95233,-1.95023 -7.52067,-4.61135 -9.4709,-1.659c-1.95023,2.95234 -1.44416,8.26487 1.50819,10.2151c2.95235,1.95023 9.22296,6.69866 11.17319,3.74631z" data-paper-data="{&quot;index&quot;:null}" fill="#231f20" stroke-width="0"/></g></g></g></svg>