<svg version="1.1" xmlns="http://www.w3.org/2000/svg" xmlns:xlink="http://www.w3.org/1999/xlink" width="92.97971" height="157.16298" viewBox="0,0,92.97971,157.16298"><defs><linearGradient x1="240.61954" y1="58.29926" x2="240.61954" y2="237.16749" gradientUnits="userSpaceOnUse" id="color-1"><stop offset="0" stop-color="#000000"/><stop offset="1" stop-color="#000000" stop-opacity="0"/></linearGradient><radialGradient cx="231.07543" cy="114.34419" r="10.17576" gradientUnits="userSpaceOnUse" id="color-2"><stop offset="0" stop-color="#ded9cc"/><stop offset="1" stop-color="#ded9cc" stop-opacity="0"/></radialGradient><radialGradient cx="262.91811" cy="130.8065" r="16.1287" gradientUnits="userSpaceOnUse" id="color-3"><stop offset="0" stop-color="#ffffff"/><stop offset="1" stop-color="#ffffff" stop-opacity="0"/></radialGradient><radialGradient cx="229.7421" cy="154.01085" r="10.17576" gradientUnits="userSpaceOnUse" id="color-4"><stop offset="0" stop-color="#ffffff"/><stop offset="1" stop-color="#ffffff" stop-opacity="0"/></radialGradient><radialGradient cx="206.90865" cy="138.31838" r="7.52776" gradientUnits="userSpaceOnUse" id="color-5"><stop offset="0" stop-color="#dedede"/><stop offset="1" stop-color="#dedede" stop-opacity="0"/></radialGradient><radialGradient cx="251.24198" cy="89.98504" r="7.52776" gradientUnits="userSpaceOnUse" id="color-6"><stop offset="0" stop-color="#dedede"/><stop offset="1" stop-color="#dedede" stop-opacity="0"/></radialGradient><radialGradient cx="274.24198" cy="169.31838" r="7.52776" gradientUnits="userSpaceOnUse" id="color-7"><stop offset="0" stop-color="#dedcd7"/><stop offset="1" stop-color="#dedcd7" stop-opacity="0"/></radialGradient><radialGradient cx="241.24198" cy="142.98504" r="7.52776" gradientUnits="userSpaceOnUse" id="color-8"><stop offset="0" stop-color="#dedede"/><stop offset="1" stop-color="#dedede" stop-opacity="0"/></radialGradient><radialGradient cx="208.75274" cy="93.29657" r="4.16666" gradientUnits="userSpaceOnUse" id="color-9"><stop offset="0" stop-color="#ffffff"/><stop offset="1" stop-color="#ffffff" stop-opacity="0"/></radialGradient><radialGradient cx="283.75274" cy="94.79657" r="4.16666" gradientUnits="userSpaceOnUse" id="color-10"><stop offset="0" stop-color="#ffffff"/><stop offset="1" stop-color="#ffffff" stop-opacity="0"/></radialGradient><radialGradient cx="208.25274" cy="160.79656" r="4.16666" gradientUnits="userSpaceOnUse" id="color-11"><stop offset="0" stop-color="#ffffff"/><stop offset="1" stop-color="#ffffff" stop-opacity="0"/></radialGradient><radialGradient cx="227.25274" cy="129.79656" r="4.16666" gradientUnits="userSpaceOnUse" id="color-12"><stop offset="0" stop-color="#ffffff"/><stop offset="1" stop-color="#ffffff" stop-opacity="0"/></radialGradient></defs><g transform="translate(-194.93804,-55.884)"><g data-paper-data="{&quot;isPaintingLayer&quot;:true}" fill-rule="nonzero" stroke-linecap="butt" stroke-linejoin="miter" stroke-miterlimit="10" stroke-dasharray="" stroke-dashoffset="0" style="mix-blend-mode: normal"><path d="M284.37023,179.70937c0.07585,1.88165 -6.82295,7.07192 -42.75929,7.07192c-35.93634,0 -45.96971,-4.43047 -45.98172,-7.45949c-0.01038,-2.6151 9.30175,-6.10294 45.23807,-6.10294c35.93634,0 43.43354,4.76932 43.50294,6.49051z" fill="url(#color-1)" stroke="none" stroke-width="0"/><text transform="translate(219.07986,207.06723) scale(0.357,0.357)" font-size="40" xml:space="preserve" fill="#ffffff" fill-rule="nonzero" stroke="#ffffff" stroke-width="0.5" stroke-linecap="butt" stroke-linejoin="miter" stroke-miterlimit="10" stroke-dasharray="" stroke-dashoffset="0" font-family="Handwriting" font-weight="normal" text-anchor="start" style="mix-blend-mode: normal"></text><text transform="translate(195.11053,68.99286) scale(0.34497,0.34497)" font-size="40" xml:space="preserve" fill="#ffffff" fill-rule="nonzero" stroke="#ffffff" stroke-width="1" stroke-linecap="butt" stroke-linejoin="miter" stroke-miterlimit="10" stroke-dasharray="" stroke-dashoffset="0" font-family="Handwriting" font-weight="normal" text-anchor="start" style="mix-blend-mode: normal"></text><g stroke="none" stroke-width="0"><path d="M238.16763,114.54976c-0.07709,0.54323 -2.39485,1.36932 -4.26827,3.17093c-1.83699,1.76659 -1.2849,6.49258 -2.82393,6.76255c-1.47018,0.2579 -1.50374,-4.95324 -3.33077,-6.65847c-1.93777,-1.80858 -4.83557,-1.88498 -4.99486,-3.48059c-0.06634,-0.66452 3.55897,-0.59206 4.71912,-2.20557c1.84064,-2.55992 1.59354,-7.98107 3.40093,-8.13905c1.55698,-0.13609 1.2019,6.62521 3.06525,8.6594c1.60945,1.75701 4.36285,0.97249 4.23253,1.8908z" fill="url(#color-2)"/><path d="M273.50029,130.47951c-0.08875,0.62542 -2.75717,1.57648 -4.91402,3.65066c-2.11491,2.03385 -2.14595,8.47482 -3.91782,8.78564c-1.6926,0.29692 -1.06457,-6.70261 -3.168,-8.66581c-2.23093,-2.08219 -5.56712,-2.17015 -5.75051,-4.00716c-0.07638,-0.76505 4.09739,-0.68163 5.43306,-2.53925c2.11911,-2.9472 1.83463,-11.52184 3.91546,-11.70372c1.79253,-0.15668 1.38373,9.96085 3.52898,12.30279c1.85294,2.02283 5.02289,1.11962 4.87286,2.17686z" fill="url(#color-3)"/><path d="M236.8343,154.21642c-0.07709,0.54323 -2.39485,1.36932 -4.26827,3.17093c-1.83699,1.76658 -1.2849,6.49258 -2.82393,6.76255c-1.47018,0.2579 -1.50374,-4.95324 -3.33077,-6.65847c-1.93777,-1.80857 -4.83557,-1.88497 -4.99486,-3.48059c-0.06634,-0.66452 3.55897,-0.59206 4.71912,-2.20558c1.84064,-2.55992 1.59354,-7.98107 3.40094,-8.13905c1.55698,-0.1361 1.20189,6.62521 3.06524,8.6594c1.60945,1.75701 4.36285,0.97249 4.23253,1.8908z" fill="url(#color-4)"/><path d="M212.15527,138.47045c-0.05703,0.40186 -1.77165,1.01299 -3.15756,2.34577c-1.35896,1.30687 -0.95053,4.80304 -2.08907,5.00276c-1.0876,0.19079 -1.11243,-3.66428 -2.46402,-4.92576c-1.4335,-1.33793 -3.57722,-1.39445 -3.69506,-2.57485c-0.04907,-0.49159 2.63283,-0.43799 3.49108,-1.63163c1.36166,-1.89376 1.17886,-5.90418 2.51592,-6.02105c1.15181,-0.10068 0.88913,4.90116 2.26759,6.406c1.19063,1.29979 3.22751,0.71942 3.13111,1.39876z" fill="url(#color-5)"/><path d="M256.4886,90.13712c-0.05703,0.40187 -1.77165,1.01299 -3.15756,2.34577c-1.35896,1.30687 -0.95053,4.80304 -2.08906,5.00276c-1.0876,0.19079 -1.11243,-3.66428 -2.46402,-4.92576c-1.4335,-1.33794 -3.57722,-1.39445 -3.69506,-2.57485c-0.04907,-0.4916 2.63283,-0.43799 3.49108,-1.63162c1.36166,-1.89376 1.17885,-5.90418 2.51592,-6.02105c1.15181,-0.10068 0.88914,4.90116 2.26759,6.406c1.19063,1.2998 3.22751,0.71942 3.13111,1.39876z" fill="url(#color-6)"/><path d="M279.4886,169.47046c-0.05703,0.40186 -1.77165,1.01299 -3.15756,2.34577c-1.35895,1.30687 -0.95053,4.80304 -2.08907,5.00276c-1.0876,0.19079 -1.11243,-3.66428 -2.46402,-4.92576c-1.43351,-1.33793 -3.57722,-1.39445 -3.69506,-2.57485c-0.04908,-0.49159 2.63283,-0.43799 3.49108,-1.63163c1.36166,-1.89376 1.17885,-5.90418 2.51592,-6.02105c1.15181,-0.10068 0.88914,4.90116 2.26759,6.406c1.19063,1.29979 3.22751,0.71942 3.13111,1.39876z" fill="url(#color-7)"/><path d="M246.4886,143.13712c-0.05703,0.40186 -1.77165,1.01298 -3.15756,2.34577c-1.35896,1.30687 -0.95053,4.80304 -2.08906,5.00276c-1.0876,0.19079 -1.11243,-3.66428 -2.46402,-4.92576c-1.4335,-1.33793 -3.57722,-1.39445 -3.69506,-2.57485c-0.04907,-0.49159 2.63283,-0.43799 3.49108,-1.63162c1.36166,-1.89376 1.17885,-5.90418 2.51592,-6.02105c1.15181,-0.10068 0.88914,4.90115 2.26759,6.40599c1.19063,1.29979 3.22751,0.71942 3.1311,1.39876z" fill="url(#color-8)"/><path d="M208.62636,89.29857c1.21882,-0.03853 1.0594,1.99085 1.84633,2.7679c0.69808,0.68933 2.41183,0.06047 2.44465,1.09845c0.03153,0.99736 -1.73219,0.57554 -2.33919,1.29575c-0.73683,0.87426 -0.43789,2.79403 -1.69902,2.83389c-0.94358,0.02983 -0.63936,-1.77398 -1.35374,-2.25968c-1.02697,-0.69824 -2.89606,-0.30447 -2.93723,-1.60667c-0.03131,-0.99042 1.87773,-1.00943 2.47698,-1.72745c0.73671,-0.88273 0.29287,-2.3621 1.56122,-2.4022z" fill="url(#color-9)"/><path d="M283.62636,90.79857c1.21882,-0.03853 1.05941,1.99085 1.84633,2.7679c0.69808,0.68933 2.41183,0.06047 2.44465,1.09845c0.03153,0.99736 -1.73218,0.57554 -2.33919,1.29575c-0.73683,0.87426 -0.4379,2.79403 -1.69902,2.83389c-0.94358,0.02983 -0.63936,-1.77398 -1.35374,-2.25968c-1.02697,-0.69824 -2.89607,-0.30447 -2.93723,-1.60667c-0.03131,-0.99042 1.87773,-1.00943 2.47698,-1.72745c0.7367,-0.88273 0.29287,-2.3621 1.56122,-2.4022z" fill="url(#color-10)"/><path d="M208.12636,156.79857c1.21882,-0.03853 1.0594,1.99086 1.84633,2.76791c0.69808,0.68933 2.41183,0.06047 2.44465,1.09845c0.03153,0.99736 -1.73219,0.57554 -2.33919,1.29576c-0.73683,0.87426 -0.43789,2.79402 -1.69902,2.83389c-0.94358,0.02983 -0.63936,-1.77398 -1.35374,-2.25968c-1.02697,-0.69824 -2.89606,-0.30447 -2.93723,-1.60667c-0.03131,-0.99042 1.87773,-1.00943 2.47698,-1.72745c0.73671,-0.88273 0.29287,-2.3621 1.56122,-2.4022z" fill="url(#color-11)"/><path d="M227.12636,125.79857c1.21882,-0.03853 1.0594,1.99086 1.84633,2.76791c0.69808,0.68933 2.41183,0.06047 2.44465,1.09845c0.03153,0.99736 -1.73219,0.57554 -2.33919,1.29576c-0.73683,0.87426 -0.43789,2.79402 -1.69902,2.83389c-0.94358,0.02983 -0.63936,-1.77398 -1.35374,-2.25968c-1.02697,-0.69824 -2.89606,-0.30447 -2.93723,-1.60667c-0.03131,-0.99042 1.87773,-1.00943 2.47698,-1.72745c0.73671,-0.88273 0.29287,-2.3621 1.56122,-2.4022z" fill="url(#color-12)"/></g></g></g></svg>