<svg version="1.1" xmlns="http://www.w3.org/2000/svg" xmlns:xlink="http://www.w3.org/1999/xlink" width="209.42486" height="211.27006" viewBox="0,0,209.42486,211.27006"><defs><radialGradient cx="314.21243" cy="163.39857" r="71.21242" gradientUnits="userSpaceOnUse" id="color-1"><stop offset="0" stop-color="#ff2c00"/><stop offset="1" stop-color="#ff2c00" stop-opacity="0"/></radialGradient><radialGradient cx="313.85531" cy="164.31471" r="60.84708" gradientUnits="userSpaceOnUse" id="color-2"><stop offset="0" stop-color="#ff8100"/><stop offset="1" stop-color="#ff8100" stop-opacity="0"/></radialGradient><radialGradient cx="313.30573" cy="164.70844" r="45.67007" gradientUnits="userSpaceOnUse" id="color-3"><stop offset="0" stop-color="#ffb100"/><stop offset="1" stop-color="#ffb100" stop-opacity="0"/></radialGradient><radialGradient cx="315.26042" cy="167.59543" r="31.45763" gradientUnits="userSpaceOnUse" id="color-4"><stop offset="0" stop-color="#fff180"/><stop offset="1" stop-color="#fff180" stop-opacity="0"/></radialGradient><radialGradient cx="312.07225" cy="95.8" r="67.57225" gradientUnits="userSpaceOnUse" id="color-5"><stop offset="0" stop-color="#ff2c00"/><stop offset="1" stop-color="#ff2c00" stop-opacity="0"/></radialGradient><radialGradient cx="311.73339" cy="96.66931" r="57.73675" gradientUnits="userSpaceOnUse" id="color-6"><stop offset="0" stop-color="#ff8100"/><stop offset="1" stop-color="#ff8100" stop-opacity="0"/></radialGradient><radialGradient cx="311.2119" cy="97.04291" r="43.33555" gradientUnits="userSpaceOnUse" id="color-7"><stop offset="0" stop-color="#ffb100"/><stop offset="1" stop-color="#ffb100" stop-opacity="0"/></radialGradient><radialGradient cx="313.06668" cy="99.78233" r="29.8496" gradientUnits="userSpaceOnUse" id="color-8"><stop offset="0" stop-color="#fff180"/><stop offset="1" stop-color="#fff180" stop-opacity="0"/></radialGradient><radialGradient cx="233.96243" cy="119.3" r="57.96243" gradientUnits="userSpaceOnUse" id="color-9"><stop offset="0" stop-color="#ff2c00"/><stop offset="1" stop-color="#ff2c00" stop-opacity="0"/></radialGradient><radialGradient cx="233.67176" cy="120.04568" r="49.52569" gradientUnits="userSpaceOnUse" id="color-10"><stop offset="0" stop-color="#ff8100"/><stop offset="1" stop-color="#ff8100" stop-opacity="0"/></radialGradient><radialGradient cx="233.22443" cy="120.36615" r="37.17256" gradientUnits="userSpaceOnUse" id="color-11"><stop offset="0" stop-color="#ffb100"/><stop offset="1" stop-color="#ffb100" stop-opacity="0"/></radialGradient><radialGradient cx="234.81543" cy="122.71598" r="25.60452" gradientUnits="userSpaceOnUse" id="color-12"><stop offset="0" stop-color="#fff180"/><stop offset="1" stop-color="#fff180" stop-opacity="0"/></radialGradient></defs><g transform="translate(-176,-22.52708)"><g data-paper-data="{&quot;isPaintingLayer&quot;:true}" fill-rule="nonzero" stroke-linecap="butt" stroke-linejoin="miter" stroke-miterlimit="10" stroke-dasharray="" stroke-dashoffset="0" style="mix-blend-mode: normal"><g stroke="none" stroke-width="0"><path d="M385.42486,163.39857c0,38.88006 -31.88289,70.39857 -71.21242,70.39857c-39.32954,0 -71.21243,-31.51852 -71.21243,-70.39857c0,-38.88006 31.88289,-70.39857 71.21243,-70.39857c39.32954,0 71.21242,31.51852 71.21242,70.39857z" fill="url(#color-1)"/><path d="M374.70238,164.31471c0,33.22085 -27.24216,60.15168 -60.84708,60.15168c-33.60491,0 -60.84708,-26.93083 -60.84708,-60.15168c0,-33.22085 27.24216,-60.15168 60.84708,-60.15168c33.60491,0 60.84708,26.93083 60.84708,60.15168z" fill="url(#color-2)"/><path d="M358.9758,164.70844c0,24.93462 -20.44719,45.14813 -45.67007,45.14813c-25.22289,0 -45.67008,-20.21351 -45.67008,-45.14813c0,-24.93462 20.44719,-45.14813 45.67008,-45.14813c25.22289,0 45.67007,20.21351 45.67007,45.14813z" fill="url(#color-3)"/><path d="M346.71805,167.59543c0,17.17501 -14.08406,31.09811 -31.45763,31.09811c-17.37357,0 -31.45763,-13.92311 -31.45763,-31.09811c0,-17.17501 14.08406,-31.09811 31.45763,-31.09811c17.37357,0 31.45763,13.9231 31.45763,31.09811z" fill="url(#color-4)"/></g><g stroke="none" stroke-width="0"><path d="M379.64451,95.8c0,36.89262 -30.25313,66.8 -67.57225,66.8c-37.31913,0 -67.57225,-29.90738 -67.57225,-66.8c0,-36.89262 30.25313,-66.8 67.57225,-66.8c37.31913,0 67.57225,29.90738 67.57225,66.8z" fill="url(#color-5)"/><path d="M369.47014,96.66931c0,31.5227 -25.84963,57.0769 -57.73675,57.0769c-31.88712,0 -57.73675,-25.5542 -57.73675,-57.0769c0,-31.5227 25.84962,-57.0769 57.73675,-57.0769c31.88712,0 57.73675,25.5542 57.73675,57.0769z" fill="url(#color-6)"/><path d="M354.54745,97.04291c0,23.66003 -19.40199,42.84029 -43.33555,42.84029c-23.93356,0 -43.33555,-19.18026 -43.33555,-42.84029c0,-23.66003 19.40199,-42.84029 43.33555,-42.84029c23.93356,0 43.33555,19.18025 43.33555,42.84029z" fill="url(#color-7)"/><path d="M342.91628,99.78233c0,16.29707 -13.36412,29.50847 -29.8496,29.50847c-16.48548,0 -29.84961,-13.21139 -29.84961,-29.50847c0,-16.29707 13.36413,-29.50847 29.84961,-29.50847c16.48548,0 29.8496,13.21139 29.8496,29.50847z" fill="url(#color-8)"/></g><g stroke="none" stroke-width="0"><path d="M291.92486,119.3c0,31.64592 -25.95066,57.3 -57.96243,57.3c-32.01176,0 -57.96243,-25.65408 -57.96243,-57.3c0,-31.64592 25.95066,-57.3 57.96243,-57.3c32.01176,0 57.96243,25.65408 57.96243,57.3z" fill="url(#color-9)"/><path d="M283.19744,120.04568c0,27.03968 -22.17341,48.95968 -49.52569,48.95968c-27.35228,0 -49.52569,-21.92 -49.52569,-48.95968c0,-27.03968 22.17341,-48.95968 49.52569,-48.95968c27.35228,0 49.52569,21.91999 49.52569,48.95968z" fill="url(#color-10)"/><path d="M270.39699,120.36615c0,20.29521 -16.64272,36.74773 -37.17256,36.74773c-20.52984,0 -37.17256,-16.45252 -37.17256,-36.74773c0,-20.29521 16.64272,-36.74773 37.17256,-36.74773c20.52984,0 37.17256,16.45252 37.17256,36.74773z" fill="url(#color-11)"/><path d="M260.41995,122.71598c0,13.97938 -11.46353,25.3119 -25.60452,25.3119c-14.14099,0 -25.60453,-11.33252 -25.60453,-25.3119c0,-13.97938 11.46354,-25.3119 25.60453,-25.3119c14.14099,0 25.60452,11.33252 25.60452,25.3119z" fill="url(#color-12)"/></g><text transform="translate(268.40924,207.52038) scale(0.357,0.357)" font-size="40" xml:space="preserve" fill="#ffffff" fill-rule="nonzero" stroke="#ffffff" stroke-width="0.5" stroke-linecap="butt" stroke-linejoin="miter" stroke-miterlimit="10" stroke-dasharray="" stroke-dashoffset="0" font-family="Handwriting" font-weight="normal" text-anchor="start" style="mix-blend-mode: normal"></text><text transform="translate(251.25236,35.63594) scale(0.34497,0.34497)" font-size="40" xml:space="preserve" fill="#ffffff" fill-rule="nonzero" stroke="#ffffff" stroke-width="1" stroke-linecap="butt" stroke-linejoin="miter" stroke-miterlimit="10" stroke-dasharray="" stroke-dashoffset="0" font-family="Handwriting" font-weight="normal" text-anchor="start" style="mix-blend-mode: normal"></text><text transform="translate(226.93818,53.93207) scale(0.26747,0.26747)" font-size="40" xml:space="preserve" fill="#ffffff" fill-rule="nonzero" stroke="#ffffff" stroke-width="1" stroke-linecap="butt" stroke-linejoin="miter" stroke-miterlimit="10" stroke-dasharray="" stroke-dashoffset="0" font-family="Handwriting" font-weight="normal" text-anchor="start" style="mix-blend-mode: normal"></text><path d="M336.75001,129.25c0,27.3381 -22.49769,49.5 -50.25,49.5c-27.75231,0 -50.25,-22.1619 -50.25,-49.5c0,-27.33809 22.49769,-49.5 50.25,-49.5c27.75231,0 50.25,22.16191 50.25,49.5z" fill="#000000" stroke="none" stroke-width="0"/></g></g></svg>