<svg version="1.1" xmlns="http://www.w3.org/2000/svg" xmlns:xlink="http://www.w3.org/1999/xlink" width="102.06645" height="174.00691" viewBox="0,0,102.06645,174.00691"><defs><linearGradient x1="293.62031" y1="-6.60764" x2="293.62031" y2="270.2804" gradientUnits="userSpaceOnUse" id="color-1"><stop offset="0" stop-color="#000000"/><stop offset="1" stop-color="#000000" stop-opacity="0"/></linearGradient><radialGradient cx="290.64559" cy="133.55148" r="51.03322" gradientUnits="userSpaceOnUse" id="color-2"><stop offset="0" stop-color="#4d4d4d"/><stop offset="1" stop-color="#4d4d4d" stop-opacity="0"/></radialGradient><radialGradient cx="290.16923" cy="108.26787" r="3.53414" gradientUnits="userSpaceOnUse" id="color-3"><stop offset="0" stop-color="#dbcd6e"/><stop offset="1" stop-color="#b3a236"/></radialGradient><radialGradient cx="288.84237" cy="151.43364" r="3.40913" gradientUnits="userSpaceOnUse" id="color-4"><stop offset="0" stop-color="#dbcd6e"/><stop offset="1" stop-color="#b3a236"/></radialGradient><radialGradient cx="257.17571" cy="164.51697" r="3.40913" gradientUnits="userSpaceOnUse" id="color-5"><stop offset="0" stop-color="#dbcd6e"/><stop offset="1" stop-color="#b3a236"/></radialGradient><radialGradient cx="323.67571" cy="165.51697" r="3.40913" gradientUnits="userSpaceOnUse" id="color-6"><stop offset="0" stop-color="#dbcd6e"/><stop offset="1" stop-color="#b3a236"/></radialGradient><radialGradient cx="326.17571" cy="98.76697" r="3.40913" gradientUnits="userSpaceOnUse" id="color-7"><stop offset="0" stop-color="#dbcd6e"/><stop offset="1" stop-color="#b3a236"/></radialGradient><radialGradient cx="255.17571" cy="98.01697" r="3.40913" gradientUnits="userSpaceOnUse" id="color-8"><stop offset="0" stop-color="#dbcd6e"/><stop offset="1" stop-color="#b3a236"/></radialGradient><radialGradient cx="289.99219" cy="135.91758" r="4.73736" gradientUnits="userSpaceOnUse" id="color-9"><stop offset="0" stop-color="#7f7f7f"/><stop offset="1" stop-color="#333333"/></radialGradient><radialGradient cx="284.80069" cy="135.48953" r="4.73735" gradientUnits="userSpaceOnUse" id="color-10"><stop offset="0" stop-color="#dc6e6e"/><stop offset="1" stop-color="#b23535"/></radialGradient><radialGradient cx="283.33257" cy="129.25795" r="4.73735" gradientUnits="userSpaceOnUse" id="color-11"><stop offset="0" stop-color="#7f7f7f"/><stop offset="1" stop-color="#333333"/></radialGradient><radialGradient cx="294.877" cy="132.88359" r="4.73735" gradientUnits="userSpaceOnUse" id="color-12"><stop offset="0" stop-color="#dc6e6e"/><stop offset="1" stop-color="#b23535"/></radialGradient><radialGradient cx="286.80715" cy="132.96418" r="4.73736" gradientUnits="userSpaceOnUse" id="color-13"><stop offset="0" stop-color="#7f7f7f"/><stop offset="1" stop-color="#333333"/></radialGradient><radialGradient cx="293.06142" cy="127.1732" r="4.73735" gradientUnits="userSpaceOnUse" id="color-14"><stop offset="0" stop-color="#7f7f7f"/><stop offset="1" stop-color="#333333"/></radialGradient><radialGradient cx="287.58036" cy="124.89203" r="4.73735" gradientUnits="userSpaceOnUse" id="color-15"><stop offset="0" stop-color="#dc6e6e"/><stop offset="1" stop-color="#b23535"/></radialGradient></defs><g transform="translate(-239.61234,-47.4391)"><g data-paper-data="{&quot;isPaintingLayer&quot;:true}" fill-rule="nonzero" stroke-linecap="butt" stroke-linejoin="miter" stroke-miterlimit="10" stroke-dasharray="" stroke-dashoffset="0" style="mix-blend-mode: normal"><path d="M341.52518,181.33513c0.08306,2.91279 -7.47079,10.94732 -46.81921,10.94732c-39.34842,0 -50.33445,-6.8584 -50.34761,-11.54727c-0.01137,-4.04815 10.18494,-9.44736 49.53336,-9.44736c39.34842,0 47.55747,7.38292 47.63346,10.04731z" fill="url(#color-1)" stroke="none" stroke-width="0"/><text transform="translate(269.21064,213.62346) scale(0.46015,0.46015)" font-size="40" xml:space="preserve" fill="#000000" fill-rule="nonzero" stroke="#000000" stroke-width="1" stroke-linecap="butt" stroke-linejoin="miter" stroke-miterlimit="10" stroke-dasharray="" stroke-dashoffset="0" font-family="Handwriting" font-weight="normal" text-anchor="start" style="mix-blend-mode: normal"></text><text transform="translate(261.69564,66.38932) scale(0.49869,0.49869)" font-size="40" xml:space="preserve" fill="#000000" fill-rule="nonzero" stroke="#000000" stroke-width="1" stroke-linecap="butt" stroke-linejoin="miter" stroke-miterlimit="10" stroke-dasharray="" stroke-dashoffset="0" font-family="Handwriting" font-weight="normal" text-anchor="start" style="mix-blend-mode: normal"></text><path d="M341.67879,133.55148c0,27.31765 -22.84835,49.46298 -51.03322,49.46298c-28.18488,0 -51.03323,-22.14533 -51.03323,-49.46297c0,-27.31764 22.84836,-49.46297 51.03323,-49.46297c28.18488,0 51.03322,22.14533 51.03322,49.46297z" fill="url(#color-2)" stroke="none" stroke-width="0"/><g stroke="none" stroke-width="0"><path d="M294.97251,109.42027c0,1.95185 -1.56167,3.53414 -3.48808,3.53414c-1.92641,0 -3.48808,-1.58228 -3.48808,-3.53414c0,-1.95185 1.56167,-3.53413 3.48808,-3.53413c1.92641,0 3.48808,1.58228 3.48808,3.53413z" fill="url(#color-3)"/><path d="M289.46117,110.10164l-0.02725,-1.0832l3.99698,0.04981l-0.00819,1.08552z" fill="#524011"/></g><g stroke="none" stroke-width="0"><path d="M293.47576,152.54528c0,1.88281 -1.50644,3.40913 -3.36472,3.40913c-1.85828,0 -3.36471,-1.52632 -3.36471,-3.40913c0,-1.88281 1.50643,-3.40913 3.36471,-3.40913c1.85828,0 3.36472,1.52632 3.36472,3.40913z" fill="url(#color-4)"/><path d="M288.15936,153.20255l-0.02629,-1.04488l3.85561,0.04805l-0.00789,1.04712z" fill="#524011"/></g><g stroke="none" stroke-width="0"><path d="M261.8091,165.62861c0,1.88281 -1.50644,3.40913 -3.36472,3.40913c-1.85828,0 -3.36471,-1.52632 -3.36471,-3.40913c0,-1.88281 1.50643,-3.40913 3.36471,-3.40913c1.85828,0 3.36472,1.52632 3.36472,3.40913z" fill="url(#color-5)"/><path d="M256.49269,166.28588l-0.02629,-1.04488l3.85561,0.04805l-0.00789,1.04712z" fill="#524011"/></g><g stroke="none" stroke-width="0"><path d="M328.3091,166.62861c0,1.88281 -1.50644,3.40913 -3.36471,3.40913c-1.85829,0 -3.36471,-1.52632 -3.36471,-3.40913c0,-1.88281 1.50643,-3.40913 3.36471,-3.40913c1.85829,0 3.36471,1.52632 3.36471,3.40913z" fill="url(#color-6)"/><path d="M322.99269,167.28588l-0.02629,-1.04488l3.85561,0.04805l-0.00789,1.04712z" fill="#524011"/></g><g stroke="none" stroke-width="0"><path d="M330.8091,99.87861c0,1.88281 -1.50644,3.40913 -3.36471,3.40913c-1.85829,0 -3.36471,-1.52632 -3.36471,-3.40913c0,-1.88281 1.50643,-3.40913 3.36471,-3.40913c1.85829,0 3.36471,1.52632 3.36471,3.40913z" fill="url(#color-7)"/><path d="M325.49269,100.53588l-0.02629,-1.04489l3.85561,0.04805l-0.00789,1.04712z" fill="#524011"/></g><g stroke="none" stroke-width="0"><path d="M259.8091,99.12861c0,1.88281 -1.50644,3.40913 -3.36472,3.40913c-1.85828,0 -3.36471,-1.52632 -3.36471,-3.40913c0,-1.88281 1.50643,-3.40913 3.36471,-3.40913c1.85828,0 3.36472,1.52632 3.36472,3.40913z" fill="url(#color-8)"/><path d="M254.49269,99.78588l-0.02629,-1.04489l3.85561,0.04805l-0.00789,1.04712z" fill="#524011"/></g><g stroke="none" stroke-width="0"><path d="M296.43077,137.46232c0,2.61637 -2.09334,4.73735 -4.67562,4.73735c-2.58228,0 -4.67562,-2.12099 -4.67562,-4.73735c0,-2.61637 2.09335,-4.73735 4.67562,-4.73735c2.58228,0 4.67562,2.12098 4.67562,4.73735z" fill="url(#color-9)"/><g><path d="M291.23927,137.03427c0,2.61637 -2.09335,4.73735 -4.67562,4.73735c-2.58227,0 -4.67562,-2.12099 -4.67562,-4.73735c0,-2.61637 2.09335,-4.73735 4.67562,-4.73735c2.58227,0 4.67562,2.12099 4.67562,4.73735z" fill="url(#color-10)"/><path d="M285.68275,140.03547v-1.98341l-1.83119,-0.10445l-0.03652,-1.45198l1.86772,-0.06226v-2.41921h1.64217v2.54373l1.84789,0.00451l-0.01097,1.45509c0,0 -1.87453,0.05453 -1.87259,0.15896c0.01102,0.59343 0.03567,1.85903 0.03567,1.85903z" fill="#511111"/></g><path d="M289.77114,130.80268c0,2.61637 -2.09334,4.73736 -4.67562,4.73736c-2.58228,0 -4.67563,-2.12099 -4.67563,-4.73736c0,-2.61637 2.09335,-4.73735 4.67563,-4.73735c2.58228,0 4.67562,2.12098 4.67562,4.73735z" fill="url(#color-11)"/><g><path d="M301.31558,134.42833c0,2.61637 -2.09335,4.73735 -4.67562,4.73735c-2.58227,0 -4.67562,-2.12099 -4.67562,-4.73735c0,-2.61637 2.09335,-4.73735 4.67562,-4.73735c2.58227,0 4.67562,2.12099 4.67562,4.73735z" fill="url(#color-12)"/><path d="M295.75906,137.42953v-1.98341l-1.83119,-0.10445l-0.03652,-1.45198l1.86772,-0.06226v-2.41921h1.64217v2.54373l1.84789,0.00451l-0.01097,1.45509c0,0 -1.87453,0.05453 -1.87259,0.15896c0.01102,0.59343 0.03567,1.85903 0.03567,1.85903z" fill="#511111"/></g><path d="M293.24573,134.50892c0,2.61637 -2.09334,4.73735 -4.67562,4.73735c-2.58228,0 -4.67562,-2.12099 -4.67562,-4.73735c0,-2.61637 2.09335,-4.73735 4.67562,-4.73735c2.58228,0 4.67562,2.12098 4.67562,4.73735z" fill="url(#color-13)"/><path d="M299.5,128.71793c0,2.61637 -2.09334,4.73736 -4.67562,4.73736c-2.58228,0 -4.67563,-2.12099 -4.67563,-4.73736c0,-2.61637 2.09335,-4.73735 4.67563,-4.73735c2.58228,0 4.67562,2.12098 4.67562,4.73735z" fill="url(#color-14)"/><g data-paper-data="{&quot;index&quot;:null}"><path d="M294.01894,126.43677c0,2.61637 -2.09334,4.73735 -4.67562,4.73735c-2.58228,0 -4.67562,-2.12098 -4.67562,-4.73735c0,-2.61637 2.09335,-4.73736 4.67562,-4.73736c2.58228,0 4.67562,2.12099 4.67562,4.73736z" fill="url(#color-15)"/><path d="M288.46242,129.43798v-1.98341l-1.83119,-0.10445l-0.03652,-1.45198l1.86772,-0.06226v-2.41921h1.64217v2.54373l1.84789,0.00451l-0.01097,1.45509c0,0 -1.87453,0.05452 -1.87259,0.15895c0.01101,0.59343 0.03567,1.85903 0.03567,1.85903z" fill="#511111"/></g></g></g></g></svg>