<svg version="1.1" xmlns="http://www.w3.org/2000/svg" xmlns:xlink="http://www.w3.org/1999/xlink" width="147.25001" height="167.62621" viewBox="0,0,147.25001,167.62621"><defs><linearGradient x1="240.76952" y1="58.29923" x2="240.76952" y2="237.16742" gradientUnits="userSpaceOnUse" id="color-1"><stop offset="0" stop-color="#000000"/><stop offset="1" stop-color="#000000" stop-opacity="0"/></linearGradient></defs><g transform="translate(-175.50003,-41.1547)"><g data-paper-data="{&quot;isPaintingLayer&quot;:true}" fill-rule="nonzero" stroke-linecap="butt" stroke-linejoin="miter" stroke-miterlimit="10" stroke-dasharray="" stroke-dashoffset="0" style="mix-blend-mode: normal"><path d="M295.12005,179.70931c0.09422,1.88165 -8.47599,7.07192 -53.11886,7.07192c-44.64286,0 -57.10709,-4.43047 -57.12201,-7.45949c-0.0129,-2.6151 11.55535,-6.10294 56.19819,-6.10294c44.64286,0 53.95646,4.76932 54.04268,6.49051z" fill="url(#color-1)" stroke="none" stroke-width="0"/><text transform="translate(232.15801,203.93312) scale(0.28942,0.28942)" font-size="40" xml:space="preserve" fill="#000000" fill-rule="nonzero" stroke="#000000" stroke-width="0.5" stroke-linecap="butt" stroke-linejoin="miter" stroke-miterlimit="10" stroke-dasharray="" stroke-dashoffset="0" font-family="Handwriting" font-weight="normal" text-anchor="start" style="mix-blend-mode: normal"></text><text transform="translate(189.11331,52.66718) scale(0.30296,0.30296)" font-size="40" xml:space="preserve" fill="#000000" fill-rule="nonzero" stroke="#000000" stroke-width="1" stroke-linecap="butt" stroke-linejoin="miter" stroke-miterlimit="10" stroke-dasharray="" stroke-dashoffset="0" font-family="Handwriting" font-weight="normal" text-anchor="start" style="mix-blend-mode: normal"></text><text transform="translate(183.50713,69.42655) scale(0.23622,0.23622)" font-size="40" xml:space="preserve" fill="#000000" fill-rule="nonzero" stroke="#000000" stroke-width="1" stroke-linecap="butt" stroke-linejoin="miter" stroke-miterlimit="10" stroke-dasharray="" stroke-dashoffset="0" font-family="Handwriting" font-weight="normal" text-anchor="start" style="mix-blend-mode: normal"></text><g stroke="none"><path d="M175.50004,179.0054c0,0 6.55518,-19.71172 10.691,-26.67821c2.4644,-4.15111 6.19195,1.87613 7.46063,-1.56216c4.45199,-12.06547 1.98473,-30.16254 1.98473,-30.16254l18.56352,-32.08536l10.6577,-2.97541c0,0 11.22805,5.22954 15.34475,4.74614c5.64527,-0.66289 15.41336,-8.35788 15.41336,-8.35788l9.83427,6.79102l17.41107,35.14912c0,0 -0.77364,4.32842 0.21271,11.00524c0.4562,3.08812 3.58847,-5.82064 4.63163,0.03399c2.43117,13.64461 3.38554,44.6708 3.38554,44.6708l-24.07962,2.68373l-19.0913,-3.4768l-32.66117,2.24307z" fill="#db8571" stroke-width="NaN"/><path d="M214.56821,155.76233l10.81818,-27.95146l-0.83333,-40.62379l14.51515,47.71007l8.86873,44.00752l-33.3309,2.16283l13.14741,-19.43735z" fill="#b64545" stroke-width="0"/><path d="M256.72355,129.3327c2.17147,-7.2461 0.20946,-8.05936 1.05642,-12.55338c2.20225,-11.68528 -3.13601,-34.489 -3.13601,-34.489l11.06901,6.10762l26.80978,17.30943l2.89393,32.73575l-25.2301,-0.8622c0,0 -19.3857,6.74825 -22.80004,13.80714c-2.44657,5.0581 -3.51841,11.23342 -4.35864,10.77219c-0.43349,-0.23796 -4.69466,-6.71371 -3.80623,-11.07424c0.70107,-3.4409 2.48021,-0.67033 5.6219,-5.31952c2.74995,-4.06947 4.05209,-12.33964 4.37997,-13.43378z" fill="#b64545" stroke-width="0"/><path d="M267.3864,182.13906l1.15152,-47.2907l29.09091,0.1551c0,0 12.51961,14.54372 13.15384,22.19455c0.63849,7.70244 11.96738,22.47263 11.96738,22.47263z" fill="#b64545" stroke-width="0"/></g></g></g></svg>