<svg version="1.1" xmlns="http://www.w3.org/2000/svg" xmlns:xlink="http://www.w3.org/1999/xlink" width="102.21896" height="171.67358" viewBox="0,0,102.21896,171.67358"><defs><linearGradient x1="242.62033" y1="-6.60764" x2="242.62033" y2="270.2804" gradientUnits="userSpaceOnUse" id="color-1"><stop offset="0" stop-color="#000000"/><stop offset="1" stop-color="#000000" stop-opacity="0"/></linearGradient><radialGradient cx="239.34014" cy="129.27495" r="51.03322" gradientUnits="userSpaceOnUse" id="color-2"><stop offset="0" stop-color="#e6ad18"/><stop offset="1" stop-color="#e6ad18" stop-opacity="0"/></radialGradient><radialGradient cx="223.65719" cy="142.02457" r="2.15913" gradientUnits="userSpaceOnUse" id="color-3"><stop offset="0" stop-color="#dbcd6e"/><stop offset="1" stop-color="#b3a236"/></radialGradient><radialGradient cx="251.55719" cy="123.67457" r="2.15913" gradientUnits="userSpaceOnUse" id="color-4"><stop offset="0" stop-color="#dbcd6e"/><stop offset="1" stop-color="#b3a236"/></radialGradient><radialGradient cx="243.90719" cy="155.27457" r="2.15913" gradientUnits="userSpaceOnUse" id="color-5"><stop offset="0" stop-color="#dbcd6e"/><stop offset="1" stop-color="#b3a236"/></radialGradient><radialGradient cx="262.05718" cy="139.82457" r="2.15913" gradientUnits="userSpaceOnUse" id="color-6"><stop offset="0" stop-color="#dbcd6e"/><stop offset="1" stop-color="#b3a236"/></radialGradient><radialGradient cx="262.25717" cy="130.02457" r="2.15913" gradientUnits="userSpaceOnUse" id="color-7"><stop offset="0" stop-color="#dbcd6e"/><stop offset="1" stop-color="#b3a236"/></radialGradient><radialGradient cx="232.25719" cy="154.82457" r="2.15913" gradientUnits="userSpaceOnUse" id="color-8"><stop offset="0" stop-color="#dbcd6e"/><stop offset="1" stop-color="#b3a236"/></radialGradient><radialGradient cx="245.85719" cy="111.02457" r="2.15913" gradientUnits="userSpaceOnUse" id="color-9"><stop offset="0" stop-color="#dbcd6e"/><stop offset="1" stop-color="#b3a236"/></radialGradient><radialGradient cx="231.85719" cy="112.42457" r="2.15913" gradientUnits="userSpaceOnUse" id="color-10"><stop offset="0" stop-color="#dbcd6e"/><stop offset="1" stop-color="#b3a236"/></radialGradient><radialGradient cx="214.45718" cy="126.62457" r="2.15913" gradientUnits="userSpaceOnUse" id="color-11"><stop offset="0" stop-color="#dbcd6e"/><stop offset="1" stop-color="#b3a236"/></radialGradient><radialGradient cx="213.85719" cy="136.22456" r="2.15913" gradientUnits="userSpaceOnUse" id="color-12"><stop offset="0" stop-color="#dbcd6e"/><stop offset="1" stop-color="#b3a236"/></radialGradient><radialGradient cx="219.25719" cy="104.82457" r="2.15913" gradientUnits="userSpaceOnUse" id="color-13"><stop offset="0" stop-color="#dbcd6e"/><stop offset="1" stop-color="#b3a236"/></radialGradient><radialGradient cx="209.65719" cy="113.22456" r="2.15913" gradientUnits="userSpaceOnUse" id="color-14"><stop offset="0" stop-color="#dbcd6e"/><stop offset="1" stop-color="#b3a236"/></radialGradient><radialGradient cx="255.05718" cy="107.02457" r="2.15913" gradientUnits="userSpaceOnUse" id="color-15"><stop offset="0" stop-color="#dbcd6e"/><stop offset="1" stop-color="#b3a236"/></radialGradient><radialGradient cx="266.05719" cy="117.02457" r="2.15913" gradientUnits="userSpaceOnUse" id="color-16"><stop offset="0" stop-color="#dbcd6e"/><stop offset="1" stop-color="#b3a236"/></radialGradient><radialGradient cx="264.25717" cy="150.62457" r="2.15913" gradientUnits="userSpaceOnUse" id="color-17"><stop offset="0" stop-color="#dbcd6e"/><stop offset="1" stop-color="#b3a236"/></radialGradient><radialGradient cx="257.25717" cy="158.62456" r="2.15913" gradientUnits="userSpaceOnUse" id="color-18"><stop offset="0" stop-color="#dbcd6e"/><stop offset="1" stop-color="#b3a236"/></radialGradient><radialGradient cx="218.25718" cy="159.02457" r="2.15913" gradientUnits="userSpaceOnUse" id="color-19"><stop offset="0" stop-color="#dbcd6e"/><stop offset="1" stop-color="#b3a236"/></radialGradient><radialGradient cx="212.05719" cy="150.22457" r="2.15913" gradientUnits="userSpaceOnUse" id="color-20"><stop offset="0" stop-color="#dbcd6e"/><stop offset="1" stop-color="#b3a236"/></radialGradient><radialGradient cx="203.45718" cy="128.02457" r="2.15913" gradientUnits="userSpaceOnUse" id="color-21"><stop offset="0" stop-color="#dbcd6e"/><stop offset="1" stop-color="#b3a236"/></radialGradient><radialGradient cx="203.05718" cy="137.42456" r="2.15913" gradientUnits="userSpaceOnUse" id="color-22"><stop offset="0" stop-color="#dbcd6e"/><stop offset="1" stop-color="#b3a236"/></radialGradient><radialGradient cx="273.05719" cy="128.42456" r="2.15913" gradientUnits="userSpaceOnUse" id="color-23"><stop offset="0" stop-color="#dbcd6e"/><stop offset="1" stop-color="#b3a236"/></radialGradient><radialGradient cx="273.05719" cy="139.02457" r="2.15913" gradientUnits="userSpaceOnUse" id="color-24"><stop offset="0" stop-color="#dbcd6e"/><stop offset="1" stop-color="#b3a236"/></radialGradient><radialGradient cx="237.65719" cy="98.62456" r="2.15913" gradientUnits="userSpaceOnUse" id="color-25"><stop offset="0" stop-color="#dbcd6e"/><stop offset="1" stop-color="#b3a236"/></radialGradient><radialGradient cx="237.85718" cy="166.02457" r="2.15913" gradientUnits="userSpaceOnUse" id="color-26"><stop offset="0" stop-color="#dbcd6e"/><stop offset="1" stop-color="#b3a236"/></radialGradient><radialGradient cx="269.85718" cy="167.42457" r="2.15913" gradientUnits="userSpaceOnUse" id="color-27"><stop offset="0" stop-color="#dbcd6e"/><stop offset="1" stop-color="#b3a236"/></radialGradient><radialGradient cx="207.85718" cy="96.62456" r="2.15913" gradientUnits="userSpaceOnUse" id="color-28"><stop offset="0" stop-color="#dbcd6e"/><stop offset="1" stop-color="#b3a236"/></radialGradient><radialGradient cx="222.16553" cy="135.84941" r="1.87218" gradientUnits="userSpaceOnUse" id="color-29"><stop offset="0" stop-color="#dbcd6e"/><stop offset="1" stop-color="#b3a236"/></radialGradient><radialGradient cx="249.8447" cy="127.34696" r="1.87218" gradientUnits="userSpaceOnUse" id="color-30"><stop offset="0" stop-color="#dbcd6e"/><stop offset="1" stop-color="#b3a236"/></radialGradient><radialGradient cx="235.80583" cy="151.79471" r="1.87218" gradientUnits="userSpaceOnUse" id="color-31"><stop offset="0" stop-color="#dbcd6e"/><stop offset="1" stop-color="#b3a236"/></radialGradient><radialGradient cx="254.66484" cy="143.33953" r="1.87218" gradientUnits="userSpaceOnUse" id="color-32"><stop offset="0" stop-color="#dbcd6e"/><stop offset="1" stop-color="#b3a236"/></radialGradient><radialGradient cx="257.21023" cy="135.23027" r="1.87218" gradientUnits="userSpaceOnUse" id="color-33"><stop offset="0" stop-color="#dbcd6e"/><stop offset="1" stop-color="#b3a236"/></radialGradient><radialGradient cx="226.21726" cy="148.59212" r="1.87218" gradientUnits="userSpaceOnUse" id="color-34"><stop offset="0" stop-color="#dbcd6e"/><stop offset="1" stop-color="#b3a236"/></radialGradient><radialGradient cx="248.1706" cy="115.43308" r="1.87218" gradientUnits="userSpaceOnUse" id="color-35"><stop offset="0" stop-color="#dbcd6e"/><stop offset="1" stop-color="#b3a236"/></radialGradient><radialGradient cx="236.17674" cy="113.20003" r="1.87218" gradientUnits="userSpaceOnUse" id="color-36"><stop offset="0" stop-color="#dbcd6e"/><stop offset="1" stop-color="#b3a236"/></radialGradient><radialGradient cx="218.24547" cy="120.79673" r="1.87218" gradientUnits="userSpaceOnUse" id="color-37"><stop offset="0" stop-color="#dbcd6e"/><stop offset="1" stop-color="#b3a236"/></radialGradient><radialGradient cx="215.41565" cy="128.6424" r="1.87218" gradientUnits="userSpaceOnUse" id="color-38"><stop offset="0" stop-color="#dbcd6e"/><stop offset="1" stop-color="#b3a236"/></radialGradient><radialGradient cx="227.53301" cy="103.81496" r="1.87218" gradientUnits="userSpaceOnUse" id="color-39"><stop offset="0" stop-color="#dbcd6e"/><stop offset="1" stop-color="#b3a236"/></radialGradient><radialGradient cx="217.50262" cy="108.47699" r="1.87218" gradientUnits="userSpaceOnUse" id="color-40"><stop offset="0" stop-color="#dbcd6e"/><stop offset="1" stop-color="#b3a236"/></radialGradient><radialGradient cx="256.79992" cy="114.33663" r="1.87218" gradientUnits="userSpaceOnUse" id="color-41"><stop offset="0" stop-color="#dbcd6e"/><stop offset="1" stop-color="#b3a236"/></radialGradient><radialGradient cx="263.52919" cy="125.33113" r="1.87218" gradientUnits="userSpaceOnUse" id="color-42"><stop offset="0" stop-color="#dbcd6e"/><stop offset="1" stop-color="#b3a236"/></radialGradient><radialGradient cx="253.87452" cy="152.8638" r="1.87218" gradientUnits="userSpaceOnUse" id="color-43"><stop offset="0" stop-color="#dbcd6e"/><stop offset="1" stop-color="#b3a236"/></radialGradient><radialGradient cx="246.10554" cy="157.824" r="1.87218" gradientUnits="userSpaceOnUse" id="color-44"><stop offset="0" stop-color="#dbcd6e"/><stop offset="1" stop-color="#b3a236"/></radialGradient><radialGradient cx="213.54371" cy="148.68987" r="1.87218" gradientUnits="userSpaceOnUse" id="color-45"><stop offset="0" stop-color="#dbcd6e"/><stop offset="1" stop-color="#b3a236"/></radialGradient><radialGradient cx="210.51883" cy="139.85947" r="1.87218" gradientUnits="userSpaceOnUse" id="color-46"><stop offset="0" stop-color="#dbcd6e"/><stop offset="1" stop-color="#b3a236"/></radialGradient><radialGradient cx="208.7489" cy="119.29192" r="1.87218" gradientUnits="userSpaceOnUse" id="color-47"><stop offset="0" stop-color="#dbcd6e"/><stop offset="1" stop-color="#b3a236"/></radialGradient><radialGradient cx="206.13412" cy="127.01965" r="1.87218" gradientUnits="userSpaceOnUse" id="color-48"><stop offset="0" stop-color="#dbcd6e"/><stop offset="1" stop-color="#b3a236"/></radialGradient><radialGradient cx="266.58888" cy="136.52004" r="1.87218" gradientUnits="userSpaceOnUse" id="color-49"><stop offset="0" stop-color="#dbcd6e"/><stop offset="1" stop-color="#b3a236"/></radialGradient><radialGradient cx="264.01577" cy="145.3438" r="1.87218" gradientUnits="userSpaceOnUse" id="color-50"><stop offset="0" stop-color="#dbcd6e"/><stop offset="1" stop-color="#b3a236"/></radialGradient><radialGradient cx="244.35474" cy="103.12043" r="1.87218" gradientUnits="userSpaceOnUse" id="color-51"><stop offset="0" stop-color="#dbcd6e"/><stop offset="1" stop-color="#b3a236"/></radialGradient><radialGradient cx="228.1601" cy="159.27471" r="1.87218" gradientUnits="userSpaceOnUse" id="color-52"><stop offset="0" stop-color="#dbcd6e"/><stop offset="1" stop-color="#b3a236"/></radialGradient><radialGradient cx="254.45799" cy="168.20799" r="1.87218" gradientUnits="userSpaceOnUse" id="color-53"><stop offset="0" stop-color="#dbcd6e"/><stop offset="1" stop-color="#b3a236"/></radialGradient><radialGradient cx="220.03383" cy="94.22172" r="1.87218" gradientUnits="userSpaceOnUse" id="color-54"><stop offset="0" stop-color="#dbcd6e"/><stop offset="1" stop-color="#b3a236"/></radialGradient><radialGradient cx="244.80334" cy="143.7546" r="1.72891" gradientUnits="userSpaceOnUse" id="color-55"><stop offset="0" stop-color="#dbcd6e"/><stop offset="1" stop-color="#b3a236"/></radialGradient><radialGradient cx="226.99844" cy="123.80477" r="1.72891" gradientUnits="userSpaceOnUse" id="color-56"><stop offset="0" stop-color="#dbcd6e"/><stop offset="1" stop-color="#b3a236"/></radialGradient><radialGradient cx="252.92594" cy="126.16144" r="1.72891" gradientUnits="userSpaceOnUse" id="color-57"><stop offset="0" stop-color="#dbcd6e"/><stop offset="1" stop-color="#b3a236"/></radialGradient><radialGradient cx="238.56075" cy="113.59496" r="1.72891" gradientUnits="userSpaceOnUse" id="color-58"><stop offset="0" stop-color="#dbcd6e"/><stop offset="1" stop-color="#b3a236"/></radialGradient><radialGradient cx="230.77453" cy="114.58496" r="1.72891" gradientUnits="userSpaceOnUse" id="color-59"><stop offset="0" stop-color="#dbcd6e"/><stop offset="1" stop-color="#b3a236"/></radialGradient><radialGradient cx="253.9347" cy="135.44238" r="1.72891" gradientUnits="userSpaceOnUse" id="color-60"><stop offset="0" stop-color="#dbcd6e"/><stop offset="1" stop-color="#b3a236"/></radialGradient><radialGradient cx="217.64606" cy="129.80226" r="1.72891" gradientUnits="userSpaceOnUse" id="color-61"><stop offset="0" stop-color="#dbcd6e"/><stop offset="1" stop-color="#b3a236"/></radialGradient><radialGradient cx="220.39563" cy="140.7279" r="1.72891" gradientUnits="userSpaceOnUse" id="color-62"><stop offset="0" stop-color="#dbcd6e"/><stop offset="1" stop-color="#b3a236"/></radialGradient><radialGradient cx="233.68278" cy="152.84678" r="1.72891" gradientUnits="userSpaceOnUse" id="color-63"><stop offset="0" stop-color="#dbcd6e"/><stop offset="1" stop-color="#b3a236"/></radialGradient><radialGradient cx="241.35745" cy="152.19707" r="1.72891" gradientUnits="userSpaceOnUse" id="color-64"><stop offset="0" stop-color="#dbcd6e"/><stop offset="1" stop-color="#b3a236"/></radialGradient><radialGradient cx="215.85204" cy="151.59924" r="1.72891" gradientUnits="userSpaceOnUse" id="color-65"><stop offset="0" stop-color="#dbcd6e"/><stop offset="1" stop-color="#b3a236"/></radialGradient><radialGradient cx="223.63083" cy="158.21925" r="1.72891" gradientUnits="userSpaceOnUse" id="color-66"><stop offset="0" stop-color="#dbcd6e"/><stop offset="1" stop-color="#b3a236"/></radialGradient><radialGradient cx="213.39947" cy="122.98349" r="1.72891" gradientUnits="userSpaceOnUse" id="color-67"><stop offset="0" stop-color="#dbcd6e"/><stop offset="1" stop-color="#b3a236"/></radialGradient><radialGradient cx="220.03164" cy="113.09829" r="1.72891" gradientUnits="userSpaceOnUse" id="color-68"><stop offset="0" stop-color="#dbcd6e"/><stop offset="1" stop-color="#b3a236"/></radialGradient><radialGradient cx="246.85786" cy="110.58669" r="1.72891" gradientUnits="userSpaceOnUse" id="color-69"><stop offset="0" stop-color="#dbcd6e"/><stop offset="1" stop-color="#b3a236"/></radialGradient><radialGradient cx="254.01512" cy="115.19406" r="1.72891" gradientUnits="userSpaceOnUse" id="color-70"><stop offset="0" stop-color="#dbcd6e"/><stop offset="1" stop-color="#b3a236"/></radialGradient><radialGradient cx="258.90221" cy="146.03991" r="1.72891" gradientUnits="userSpaceOnUse" id="color-71"><stop offset="0" stop-color="#dbcd6e"/><stop offset="1" stop-color="#b3a236"/></radialGradient><radialGradient cx="252.65809" cy="151.98229" r="1.72891" gradientUnits="userSpaceOnUse" id="color-72"><stop offset="0" stop-color="#dbcd6e"/><stop offset="1" stop-color="#b3a236"/></radialGradient><radialGradient cx="236.08079" cy="161.39606" r="1.72891" gradientUnits="userSpaceOnUse" id="color-73"><stop offset="0" stop-color="#dbcd6e"/><stop offset="1" stop-color="#b3a236"/></radialGradient><radialGradient cx="243.5736" cy="160.61137" r="1.72891" gradientUnits="userSpaceOnUse" id="color-74"><stop offset="0" stop-color="#dbcd6e"/><stop offset="1" stop-color="#b3a236"/></radialGradient><radialGradient cx="228.24152" cy="106.21753" r="1.72891" gradientUnits="userSpaceOnUse" id="color-75"><stop offset="0" stop-color="#dbcd6e"/><stop offset="1" stop-color="#b3a236"/></radialGradient><radialGradient cx="236.63801" cy="104.97536" r="1.72891" gradientUnits="userSpaceOnUse" id="color-76"><stop offset="0" stop-color="#dbcd6e"/><stop offset="1" stop-color="#b3a236"/></radialGradient><radialGradient cx="208.78467" cy="137.75075" r="1.72891" gradientUnits="userSpaceOnUse" id="color-77"><stop offset="0" stop-color="#dbcd6e"/><stop offset="1" stop-color="#b3a236"/></radialGradient><radialGradient cx="262.15022" cy="129.69403" r="1.72891" gradientUnits="userSpaceOnUse" id="color-78"><stop offset="0" stop-color="#dbcd6e"/><stop offset="1" stop-color="#b3a236"/></radialGradient><radialGradient cx="259.50926" cy="104.18209" r="1.72891" gradientUnits="userSpaceOnUse" id="color-79"><stop offset="0" stop-color="#dbcd6e"/><stop offset="1" stop-color="#b3a236"/></radialGradient><radialGradient cx="210.69255" cy="161.59035" r="1.72891" gradientUnits="userSpaceOnUse" id="color-80"><stop offset="0" stop-color="#dbcd6e"/><stop offset="1" stop-color="#b3a236"/></radialGradient><radialGradient cx="230.8463" cy="123.96152" r="3.55164" gradientUnits="userSpaceOnUse" id="color-81"><stop offset="0" stop-color="#7f7f7f"/><stop offset="1" stop-color="#333333"/></radialGradient><radialGradient cx="236.27039" cy="125.69794" r="3.55164" gradientUnits="userSpaceOnUse" id="color-82"><stop offset="0" stop-color="#dc6e6e"/><stop offset="1" stop-color="#b23535"/></radialGradient><radialGradient cx="237.9259" cy="128.86035" r="3.55164" gradientUnits="userSpaceOnUse" id="color-83"><stop offset="0" stop-color="#7f7f7f"/><stop offset="1" stop-color="#333333"/></radialGradient><radialGradient cx="235.92304" cy="132.34455" r="3.55164" gradientUnits="userSpaceOnUse" id="color-84"><stop offset="0" stop-color="#dc6e6e"/><stop offset="1" stop-color="#b23535"/></radialGradient><radialGradient cx="226.36061" cy="129.2899" r="3.55165" gradientUnits="userSpaceOnUse" id="color-85"><stop offset="0" stop-color="#7f7f7f"/><stop offset="1" stop-color="#333333"/></radialGradient><radialGradient cx="228.76962" cy="125.7738" r="3.55164" gradientUnits="userSpaceOnUse" id="color-86"><stop offset="0" stop-color="#dc6e6e"/><stop offset="1" stop-color="#b23535"/></radialGradient><radialGradient cx="227.80118" cy="132.39454" r="3.55164" gradientUnits="userSpaceOnUse" id="color-87"><stop offset="0" stop-color="#dc6e6e"/><stop offset="1" stop-color="#b23535"/></radialGradient><radialGradient cx="233.84514" cy="125.63587" r="3.55164" gradientUnits="userSpaceOnUse" id="color-88"><stop offset="0" stop-color="#7f7f7f"/><stop offset="1" stop-color="#333333"/></radialGradient><radialGradient cx="232.30308" cy="135.15792" r="3.55164" gradientUnits="userSpaceOnUse" id="color-89"><stop offset="0" stop-color="#7f7f7f"/><stop offset="1" stop-color="#333333"/></radialGradient><radialGradient cx="232.77173" cy="129.99628" r="3.55164" gradientUnits="userSpaceOnUse" id="color-90"><stop offset="0" stop-color="#dc6e6e"/><stop offset="1" stop-color="#b23535"/></radialGradient><radialGradient cx="238.5955" cy="128.96152" r="3.55163" gradientUnits="userSpaceOnUse" id="color-91"><stop offset="0" stop-color="#7f7f7f"/><stop offset="1" stop-color="#333333"/></radialGradient><radialGradient cx="244.01959" cy="130.69794" r="3.55164" gradientUnits="userSpaceOnUse" id="color-92"><stop offset="0" stop-color="#dc6e6e"/><stop offset="1" stop-color="#b23535"/></radialGradient><radialGradient cx="245.6751" cy="133.86035" r="3.55164" gradientUnits="userSpaceOnUse" id="color-93"><stop offset="0" stop-color="#7f7f7f"/><stop offset="1" stop-color="#333333"/></radialGradient><radialGradient cx="243.67224" cy="137.34455" r="3.55164" gradientUnits="userSpaceOnUse" id="color-94"><stop offset="0" stop-color="#dc6e6e"/><stop offset="1" stop-color="#b23535"/></radialGradient><radialGradient cx="234.10981" cy="134.2899" r="3.55164" gradientUnits="userSpaceOnUse" id="color-95"><stop offset="0" stop-color="#7f7f7f"/><stop offset="1" stop-color="#333333"/></radialGradient><radialGradient cx="236.51882" cy="130.77379" r="3.55164" gradientUnits="userSpaceOnUse" id="color-96"><stop offset="0" stop-color="#dc6e6e"/><stop offset="1" stop-color="#b23535"/></radialGradient><radialGradient cx="235.55038" cy="137.39454" r="3.55163" gradientUnits="userSpaceOnUse" id="color-97"><stop offset="0" stop-color="#dc6e6e"/><stop offset="1" stop-color="#b23535"/></radialGradient><radialGradient cx="241.59434" cy="130.63587" r="3.55164" gradientUnits="userSpaceOnUse" id="color-98"><stop offset="0" stop-color="#7f7f7f"/><stop offset="1" stop-color="#333333"/></radialGradient><radialGradient cx="240.05228" cy="140.15791" r="3.55164" gradientUnits="userSpaceOnUse" id="color-99"><stop offset="0" stop-color="#7f7f7f"/><stop offset="1" stop-color="#333333"/></radialGradient><radialGradient cx="240.52093" cy="134.99627" r="3.55164" gradientUnits="userSpaceOnUse" id="color-100"><stop offset="0" stop-color="#dc6e6e"/><stop offset="1" stop-color="#b23535"/></radialGradient><radialGradient cx="237.48616" cy="119.60459" r="3.55163" gradientUnits="userSpaceOnUse" id="color-101"><stop offset="0" stop-color="#7f7f7f"/><stop offset="1" stop-color="#333333"/></radialGradient><radialGradient cx="242.91025" cy="121.34101" r="3.55164" gradientUnits="userSpaceOnUse" id="color-102"><stop offset="0" stop-color="#dc6e6e"/><stop offset="1" stop-color="#b23535"/></radialGradient><radialGradient cx="244.56577" cy="124.50342" r="3.55164" gradientUnits="userSpaceOnUse" id="color-103"><stop offset="0" stop-color="#7f7f7f"/><stop offset="1" stop-color="#333333"/></radialGradient><radialGradient cx="242.5629" cy="127.98762" r="3.55164" gradientUnits="userSpaceOnUse" id="color-104"><stop offset="0" stop-color="#dc6e6e"/><stop offset="1" stop-color="#b23535"/></radialGradient><radialGradient cx="233.00047" cy="124.93297" r="3.55164" gradientUnits="userSpaceOnUse" id="color-105"><stop offset="0" stop-color="#7f7f7f"/><stop offset="1" stop-color="#333333"/></radialGradient><radialGradient cx="235.40949" cy="121.41686" r="3.55163" gradientUnits="userSpaceOnUse" id="color-106"><stop offset="0" stop-color="#dc6e6e"/><stop offset="1" stop-color="#b23535"/></radialGradient><radialGradient cx="234.44104" cy="128.03761" r="3.55163" gradientUnits="userSpaceOnUse" id="color-107"><stop offset="0" stop-color="#dc6e6e"/><stop offset="1" stop-color="#b23535"/></radialGradient><radialGradient cx="240.485" cy="121.27894" r="3.55163" gradientUnits="userSpaceOnUse" id="color-108"><stop offset="0" stop-color="#7f7f7f"/><stop offset="1" stop-color="#333333"/></radialGradient><radialGradient cx="238.94294" cy="130.80098" r="3.55164" gradientUnits="userSpaceOnUse" id="color-109"><stop offset="0" stop-color="#7f7f7f"/><stop offset="1" stop-color="#333333"/></radialGradient><radialGradient cx="239.4116" cy="125.63934" r="3.55163" gradientUnits="userSpaceOnUse" id="color-110"><stop offset="0" stop-color="#dc6e6e"/><stop offset="1" stop-color="#b23535"/></radialGradient></defs><g transform="translate(-188.30689,-50.10577)"><g data-paper-data="{&quot;isPaintingLayer&quot;:true}" fill-rule="nonzero" stroke-linecap="butt" stroke-linejoin="miter" stroke-miterlimit="10" stroke-dasharray="" stroke-dashoffset="0" style="mix-blend-mode: normal"><path d="M290.52518,181.33513c0.08306,2.91279 -7.47079,10.94732 -46.81921,10.94732c-39.34842,0 -50.33445,-6.8584 -50.34761,-11.54727c-0.01137,-4.04815 10.18494,-9.44736 49.53336,-9.44736c39.34842,0 47.55747,7.38292 47.63346,10.04731z" fill="url(#color-1)" stroke="none" stroke-width="0"/><text transform="translate(215.21066,213.95679) scale(0.46015,0.46015)" font-size="40" xml:space="preserve" fill="#000000" fill-rule="nonzero" stroke="#000000" stroke-width="1" stroke-linecap="butt" stroke-linejoin="miter" stroke-miterlimit="10" stroke-dasharray="" stroke-dashoffset="0" font-family="Handwriting" font-weight="normal" text-anchor="start" style="mix-blend-mode: normal"></text><text transform="translate(215.52899,69.05599) scale(0.49869,0.49869)" font-size="40" xml:space="preserve" fill="#000000" fill-rule="nonzero" stroke="#000000" stroke-width="1" stroke-linecap="butt" stroke-linejoin="miter" stroke-miterlimit="10" stroke-dasharray="" stroke-dashoffset="0" font-family="Handwriting" font-weight="normal" text-anchor="start" style="mix-blend-mode: normal"></text><path d="M290.37334,129.27495c0,27.31765 -22.84835,49.46298 -51.03322,49.46298c-28.18488,0 -51.03323,-22.14533 -51.03323,-49.46297c0,-27.31764 22.84836,-49.46297 51.03323,-49.46297c28.18488,0 51.03322,22.14533 51.03322,49.46297z" fill="url(#color-2)" stroke="none" stroke-width="0"/><g stroke="none" stroke-width="0"><g><path d="M226.59169,142.72861c0,1.19245 -0.95408,2.15913 -2.131,2.15913c-1.17692,0 -2.131,-0.96668 -2.131,-2.15913c0,-1.19245 0.95408,-2.15913 2.131,-2.15913c1.17692,0 2.131,0.96668 2.131,2.15913z" fill="url(#color-3)"/><path d="M223.22461,143.14488l-0.01665,-0.66176l2.4419,0.03043l-0.005,0.66318z" fill="#524011"/></g><g><path d="M254.49169,124.37861c0,1.19245 -0.95408,2.15913 -2.131,2.15913c-1.17692,0 -2.131,-0.96668 -2.131,-2.15913c0,-1.19245 0.95408,-2.15913 2.131,-2.15913c1.17692,0 2.131,0.96667 2.131,2.15913z" fill="url(#color-4)"/><path d="M251.12461,124.79489l-0.01665,-0.66176l2.4419,0.03043l-0.005,0.66318z" fill="#524011"/></g><g><path d="M246.84169,155.97861c0,1.19245 -0.95408,2.15913 -2.131,2.15913c-1.17692,0 -2.131,-0.96668 -2.131,-2.15913c0,-1.19245 0.95408,-2.15913 2.131,-2.15913c1.17692,0 2.131,0.96668 2.131,2.15913z" fill="url(#color-5)"/><path d="M243.47461,156.39489l-0.01665,-0.66177l2.4419,0.03043l-0.005,0.66318z" fill="#524011"/></g><g><path d="M264.99168,140.52861c0,1.19245 -0.95408,2.15913 -2.131,2.15913c-1.17692,0 -2.131,-0.96668 -2.131,-2.15913c0,-1.19245 0.95408,-2.15913 2.131,-2.15913c1.17692,0 2.131,0.96668 2.131,2.15913z" fill="url(#color-6)"/><path d="M261.6246,140.94489l-0.01665,-0.66176l2.4419,0.03043l-0.005,0.66318z" fill="#524011"/></g><g><path d="M265.19169,130.72861c0,1.19245 -0.95408,2.15913 -2.131,2.15913c-1.17692,0 -2.131,-0.96668 -2.131,-2.15913c0,-1.19245 0.95408,-2.15913 2.131,-2.15913c1.17692,0 2.131,0.96667 2.131,2.15913z" fill="url(#color-7)"/><path d="M261.82461,131.14489l-0.01665,-0.66177l2.4419,0.03044l-0.005,0.66318z" fill="#524011"/></g><g><path d="M235.19169,155.52861c0,1.19245 -0.95408,2.15913 -2.131,2.15913c-1.17692,0 -2.131,-0.96668 -2.131,-2.15913c0,-1.19245 0.95408,-2.15913 2.131,-2.15913c1.17692,0 2.131,0.96667 2.131,2.15913z" fill="url(#color-8)"/><path d="M231.82461,155.94489l-0.01665,-0.66177l2.4419,0.03044l-0.005,0.66318z" fill="#524011"/></g><g><path d="M248.79169,111.72861c0,1.19245 -0.95408,2.15913 -2.131,2.15913c-1.17692,0 -2.131,-0.96667 -2.131,-2.15913c0,-1.19245 0.95408,-2.15913 2.131,-2.15913c1.17692,0 2.131,0.96668 2.131,2.15913z" fill="url(#color-9)"/><path d="M245.42461,112.14489l-0.01665,-0.66177l2.4419,0.03043l-0.005,0.66318z" fill="#524011"/></g><g><path d="M234.79169,113.12861c0,1.19245 -0.95408,2.15913 -2.131,2.15913c-1.17692,0 -2.131,-0.96667 -2.131,-2.15913c0,-1.19245 0.95408,-2.15913 2.131,-2.15913c1.17692,0 2.131,0.96668 2.131,2.15913z" fill="url(#color-10)"/><path d="M231.42461,113.54489l-0.01665,-0.66177l2.4419,0.03043l-0.005,0.66318z" fill="#524011"/></g><g><path d="M217.39169,127.32861c0,1.19246 -0.95408,2.15913 -2.131,2.15913c-1.17692,0 -2.131,-0.96668 -2.131,-2.15913c0,-1.19245 0.95408,-2.15913 2.131,-2.15913c1.17692,0 2.131,0.96668 2.131,2.15913z" fill="url(#color-11)"/><path d="M214.02461,127.74489l-0.01665,-0.66177l2.4419,0.03043l-0.00499,0.66318z" fill="#524011"/></g><g><path d="M216.79169,136.92861c0,1.19245 -0.95408,2.15913 -2.131,2.15913c-1.17692,0 -2.131,-0.96668 -2.131,-2.15913c0,-1.19245 0.95408,-2.15913 2.131,-2.15913c1.17692,0 2.131,0.96668 2.131,2.15913z" fill="url(#color-12)"/><path d="M213.42461,137.34488l-0.01665,-0.66176l2.4419,0.03043l-0.005,0.66318z" fill="#524011"/></g><g><path d="M222.19169,105.52861c0,1.19245 -0.95408,2.15913 -2.131,2.15913c-1.17692,0 -2.131,-0.96668 -2.131,-2.15913c0,-1.19245 0.95408,-2.15913 2.131,-2.15913c1.17692,0 2.131,0.96668 2.131,2.15913z" fill="url(#color-13)"/><path d="M218.82461,105.94489l-0.01665,-0.66177l2.4419,0.03043l-0.00499,0.66318z" fill="#524011"/></g><g><path d="M212.59169,113.92861c0,1.19245 -0.95408,2.15913 -2.131,2.15913c-1.17692,0 -2.131,-0.96667 -2.131,-2.15913c0,-1.19245 0.95408,-2.15913 2.131,-2.15913c1.17692,0 2.131,0.96668 2.131,2.15913z" fill="url(#color-14)"/><path d="M209.22461,114.34489l-0.01665,-0.66177l2.4419,0.03043l-0.005,0.66318z" fill="#524011"/></g><g><path d="M257.99168,107.72861c0,1.19245 -0.95408,2.15913 -2.131,2.15913c-1.17692,0 -2.131,-0.96668 -2.131,-2.15913c0,-1.19245 0.95408,-2.15913 2.131,-2.15913c1.17692,0 2.131,0.96668 2.131,2.15913z" fill="url(#color-15)"/><path d="M254.6246,108.14489l-0.01665,-0.66177l2.4419,0.03043l-0.005,0.66318z" fill="#524011"/></g><g><path d="M268.99168,117.72861c0,1.19245 -0.95408,2.15913 -2.131,2.15913c-1.17692,0 -2.131,-0.96668 -2.131,-2.15913c0,-1.19245 0.95408,-2.15913 2.131,-2.15913c1.17692,0 2.131,0.96667 2.131,2.15913z" fill="url(#color-16)"/><path d="M265.6246,118.14488l-0.01665,-0.66176l2.4419,0.03043l-0.005,0.66318z" fill="#524011"/></g><g><path d="M267.19168,151.32861c0,1.19245 -0.95408,2.15913 -2.131,2.15913c-1.17692,0 -2.131,-0.96668 -2.131,-2.15913c0,-1.19245 0.95408,-2.15913 2.131,-2.15913c1.17692,0 2.131,0.96668 2.131,2.15913z" fill="url(#color-17)"/><path d="M263.8246,151.74489l-0.01665,-0.66176l2.4419,0.03043l-0.005,0.66318z" fill="#524011"/></g><g><path d="M260.19168,159.32861c0,1.19245 -0.95408,2.15913 -2.131,2.15913c-1.17692,0 -2.131,-0.96668 -2.131,-2.15913c0,-1.19245 0.95408,-2.15913 2.131,-2.15913c1.17692,0 2.131,0.96668 2.131,2.15913z" fill="url(#color-18)"/><path d="M256.82461,159.74489l-0.01665,-0.66177l2.4419,0.03043l-0.005,0.66318z" fill="#524011"/></g><g><path d="M221.19168,159.72861c0,1.19245 -0.95408,2.15913 -2.131,2.15913c-1.17692,0 -2.131,-0.96668 -2.131,-2.15913c0,-1.19245 0.95408,-2.15913 2.131,-2.15913c1.17692,0 2.131,0.96668 2.131,2.15913z" fill="url(#color-19)"/><path d="M217.8246,160.14489l-0.01665,-0.66177l2.4419,0.03044l-0.005,0.66318z" fill="#524011"/></g><g><path d="M214.99168,150.92861c0,1.19245 -0.95408,2.15913 -2.131,2.15913c-1.17692,0 -2.131,-0.96668 -2.131,-2.15913c0,-1.19245 0.95408,-2.15913 2.131,-2.15913c1.17692,0 2.131,0.96668 2.131,2.15913z" fill="url(#color-20)"/><path d="M211.6246,151.34489l-0.01665,-0.66177l2.4419,0.03044l-0.005,0.66318z" fill="#524011"/></g><g><path d="M206.39169,128.72861c0,1.19245 -0.95408,2.15913 -2.131,2.15913c-1.17692,0 -2.131,-0.96668 -2.131,-2.15913c0,-1.19245 0.95408,-2.15913 2.131,-2.15913c1.17692,0 2.131,0.96668 2.131,2.15913z" fill="url(#color-21)"/><path d="M203.0246,129.14488l-0.01665,-0.66177l2.4419,0.03044l-0.005,0.66318z" fill="#524011"/></g><g><path d="M205.99168,138.12861c0,1.19245 -0.95408,2.15913 -2.131,2.15913c-1.17692,0 -2.131,-0.96668 -2.131,-2.15913c0,-1.19245 0.95408,-2.15913 2.131,-2.15913c1.17692,0 2.131,0.96668 2.131,2.15913z" fill="url(#color-22)"/><path d="M202.6246,138.54489l-0.01665,-0.66177l2.4419,0.03043l-0.005,0.66318z" fill="#524011"/></g><g><path d="M275.99168,129.12861c0,1.19245 -0.95408,2.15913 -2.131,2.15913c-1.17692,0 -2.131,-0.96668 -2.131,-2.15913c0,-1.19245 0.95408,-2.15913 2.131,-2.15913c1.17692,0 2.131,0.96668 2.131,2.15913z" fill="url(#color-23)"/><path d="M272.6246,129.54489l-0.01665,-0.66177l2.4419,0.03043l-0.005,0.66318z" fill="#524011"/></g><g><path d="M275.99168,139.72861c0,1.19245 -0.95408,2.15913 -2.131,2.15913c-1.17692,0 -2.131,-0.96668 -2.131,-2.15913c0,-1.19245 0.95408,-2.15913 2.131,-2.15913c1.17692,0 2.131,0.96668 2.131,2.15913z" fill="url(#color-24)"/><path d="M272.6246,140.14489l-0.01665,-0.66177l2.4419,0.03043l-0.005,0.66318z" fill="#524011"/></g><g><path d="M240.59169,99.32861c0,1.19245 -0.95408,2.15913 -2.131,2.15913c-1.17692,0 -2.131,-0.96668 -2.131,-2.15913c0,-1.19245 0.95408,-2.15913 2.131,-2.15913c1.17692,0 2.131,0.96668 2.131,2.15913z" fill="url(#color-25)"/><path d="M237.22461,99.74489l-0.01665,-0.66177l2.4419,0.03043l-0.005,0.66318z" fill="#524011"/></g><g><path d="M240.79169,166.72861c0,1.19245 -0.95408,2.15913 -2.131,2.15913c-1.17692,0 -2.131,-0.96668 -2.131,-2.15913c0,-1.19245 0.95408,-2.15913 2.131,-2.15913c1.17692,0 2.131,0.96668 2.131,2.15913z" fill="url(#color-26)"/><path d="M237.4246,167.14489l-0.01665,-0.66177l2.4419,0.03043l-0.005,0.66318z" fill="#524011"/></g><g><path d="M272.79169,168.12861c0,1.19245 -0.95408,2.15913 -2.131,2.15913c-1.17692,0 -2.131,-0.96668 -2.131,-2.15913c0,-1.19245 0.95408,-2.15913 2.131,-2.15913c1.17692,0 2.131,0.96668 2.131,2.15913z" fill="url(#color-27)"/><path d="M269.42458,168.54489l-0.01665,-0.66177l2.4419,0.03043l-0.005,0.66318z" fill="#524011"/></g><g><path d="M210.79168,97.32861c0,1.19245 -0.95408,2.15913 -2.131,2.15913c-1.17692,0 -2.131,-0.96668 -2.131,-2.15913c0,-1.19245 0.95408,-2.15913 2.131,-2.15913c1.17692,0 2.131,0.96668 2.131,2.15913z" fill="url(#color-28)"/><path d="M207.4246,97.74488l-0.01665,-0.66177l2.4419,0.03043l-0.005,0.66318z" fill="#524011"/></g></g><g stroke="none" stroke-width="0"><g><path d="M224.43739,137.14781c-0.28946,0.99263 -1.31833,1.56572 -2.29803,1.28003c-0.9797,-0.28569 -1.53925,-1.32199 -1.24979,-2.31462c0.28946,-0.99263 1.31833,-1.56572 2.29803,-1.28003c0.9797,0.28569 1.53925,1.32199 1.24979,2.31462z" fill="url(#color-29)"/><path d="M221.53348,136.67698l0.14678,-0.55491l2.02532,0.61809l-0.16515,0.55084z" fill="#524011"/></g><g><path d="M252.11656,128.64536c-0.28946,0.99263 -1.31833,1.56572 -2.29803,1.28003c-0.9797,-0.28569 -1.53925,-1.32199 -1.24979,-2.31462c0.28946,-0.99263 1.31833,-1.56572 2.29803,-1.28003c0.9797,0.28569 1.53925,1.32198 1.24979,2.31462z" fill="url(#color-30)"/><path d="M249.21265,128.17454l0.14678,-0.55491l2.02532,0.61809l-0.16515,0.55084z" fill="#524011"/></g><g><path d="M238.07769,153.09311c-0.28946,0.99263 -1.31833,1.56572 -2.29803,1.28003c-0.9797,-0.28569 -1.53925,-1.32199 -1.24979,-2.31462c0.28946,-0.99263 1.31833,-1.56572 2.29803,-1.28003c0.9797,0.28569 1.53925,1.32199 1.24979,2.31462z" fill="url(#color-31)"/><path d="M235.17378,152.62229l0.14678,-0.55492l2.02532,0.61809l-0.16515,0.55084z" fill="#524011"/></g><g><path d="M256.9367,144.63793c-0.28946,0.99263 -1.31833,1.56572 -2.29803,1.28003c-0.9797,-0.28569 -1.53925,-1.32199 -1.24979,-2.31462c0.28946,-0.99263 1.31833,-1.56572 2.29803,-1.28003c0.9797,0.28569 1.53925,1.32199 1.24979,2.31462z" fill="url(#color-32)"/><path d="M254.0328,144.16711l0.14678,-0.55491l2.02532,0.61809l-0.16515,0.55084z" fill="#524011"/></g><g><path d="M259.48211,136.52868c-0.28946,0.99263 -1.31833,1.56572 -2.29803,1.28003c-0.9797,-0.28569 -1.53925,-1.32199 -1.24979,-2.31462c0.28946,-0.99263 1.31833,-1.56572 2.29803,-1.28003c0.9797,0.28569 1.53925,1.32198 1.24979,2.31462z" fill="url(#color-33)"/><path d="M256.57821,136.05785l0.14678,-0.55492l2.02532,0.6181l-0.16515,0.55084z" fill="#524011"/></g><g><path d="M228.48912,149.89053c-0.28946,0.99263 -1.31833,1.56572 -2.29803,1.28003c-0.9797,-0.28569 -1.53925,-1.32199 -1.24979,-2.31462c0.28946,-0.99263 1.31833,-1.56572 2.29803,-1.28003c0.9797,0.28569 1.53925,1.32198 1.24979,2.31462z" fill="url(#color-34)"/><path d="M225.58522,149.4197l0.14678,-0.55492l2.02532,0.6181l-0.16515,0.55084z" fill="#524011"/></g><g><path d="M250.44246,116.73148c-0.28946,0.99263 -1.31833,1.56572 -2.29803,1.28003c-0.9797,-0.28569 -1.53925,-1.32198 -1.24979,-2.31462c0.28946,-0.99263 1.31833,-1.56572 2.29803,-1.28003c0.9797,0.28569 1.53925,1.32199 1.24979,2.31462z" fill="url(#color-35)"/><path d="M247.53855,116.26066l0.14678,-0.55492l2.02532,0.61809l-0.16515,0.55084z" fill="#524011"/></g><g><path d="M238.4486,114.49843c-0.28946,0.99263 -1.31833,1.56572 -2.29803,1.28003c-0.9797,-0.28569 -1.53925,-1.32198 -1.24979,-2.31462c0.28946,-0.99263 1.31833,-1.56572 2.29803,-1.28003c0.9797,0.28569 1.53925,1.32199 1.24979,2.31462z" fill="url(#color-36)"/><path d="M235.5447,114.02761l0.14678,-0.55492l2.02532,0.61809l-0.16515,0.55084z" fill="#524011"/></g><g><path d="M220.51734,122.09514c-0.28947,0.99264 -1.31833,1.56572 -2.29803,1.28003c-0.9797,-0.28569 -1.53925,-1.32199 -1.24979,-2.31462c0.28946,-0.99263 1.31833,-1.56572 2.29803,-1.28003c0.9797,0.28569 1.53925,1.32199 1.24979,2.31462z" fill="url(#color-37)"/><path d="M217.61343,121.62431l0.14678,-0.55492l2.02532,0.61809l-0.16514,0.55084z" fill="#524011"/></g><g><path d="M217.68751,129.94081c-0.28946,0.99263 -1.31833,1.56572 -2.29803,1.28003c-0.9797,-0.28569 -1.53925,-1.32199 -1.24979,-2.31462c0.28946,-0.99263 1.31833,-1.56572 2.29803,-1.28003c0.9797,0.28569 1.53925,1.32199 1.24979,2.31462z" fill="url(#color-38)"/><path d="M214.78361,129.46998l0.14678,-0.55491l2.02532,0.61809l-0.16515,0.55084z" fill="#524011"/></g><g><path d="M229.80487,105.11336c-0.28946,0.99263 -1.31833,1.56572 -2.29803,1.28003c-0.9797,-0.28569 -1.53925,-1.32199 -1.24979,-2.31462c0.28946,-0.99263 1.31833,-1.56572 2.29803,-1.28003c0.9797,0.28569 1.53925,1.32199 1.24979,2.31462z" fill="url(#color-39)"/><path d="M226.90096,104.64254l0.14678,-0.55492l2.02532,0.61809l-0.16514,0.55084z" fill="#524011"/></g><g><path d="M219.77448,109.7754c-0.28946,0.99263 -1.31833,1.56572 -2.29803,1.28003c-0.9797,-0.28569 -1.53925,-1.32198 -1.24979,-2.31462c0.28946,-0.99263 1.31833,-1.56572 2.29803,-1.28003c0.9797,0.28569 1.53925,1.32199 1.24979,2.31462z" fill="url(#color-40)"/><path d="M216.87057,109.30458l0.14678,-0.55492l2.02532,0.61809l-0.16515,0.55084z" fill="#524011"/></g><g><path d="M259.07178,115.63503c-0.28946,0.99263 -1.31833,1.56572 -2.29803,1.28003c-0.9797,-0.28569 -1.53925,-1.32199 -1.24979,-2.31462c0.28946,-0.99263 1.31833,-1.56572 2.29803,-1.28003c0.9797,0.28569 1.53925,1.32199 1.24979,2.31462z" fill="url(#color-41)"/><path d="M256.16788,115.16421l0.14678,-0.55492l2.02532,0.61809l-0.16515,0.55084z" fill="#524011"/></g><g><path d="M265.80104,126.62953c-0.28946,0.99263 -1.31833,1.56572 -2.29803,1.28003c-0.9797,-0.28569 -1.53925,-1.32199 -1.24979,-2.31462c0.28946,-0.99263 1.31833,-1.56572 2.29803,-1.28003c0.9797,0.28569 1.53925,1.32198 1.24979,2.31462z" fill="url(#color-42)"/><path d="M262.89713,126.1587l0.14678,-0.55491l2.02532,0.61809l-0.16515,0.55084z" fill="#524011"/></g><g><path d="M256.14638,154.16221c-0.28946,0.99263 -1.31833,1.56572 -2.29803,1.28003c-0.9797,-0.28569 -1.53925,-1.32199 -1.24979,-2.31462c0.28946,-0.99263 1.31833,-1.56572 2.29803,-1.28003c0.9797,0.28569 1.53925,1.32199 1.24979,2.31462z" fill="url(#color-43)"/><path d="M253.24248,153.69138l0.14678,-0.55491l2.02532,0.61809l-0.16515,0.55084z" fill="#524011"/></g><g><path d="M248.37741,159.12242c-0.28946,0.99263 -1.31833,1.56572 -2.29803,1.28003c-0.9797,-0.28569 -1.53925,-1.32199 -1.24979,-2.31462c0.28946,-0.99263 1.31833,-1.56572 2.29803,-1.28003c0.9797,0.28569 1.53925,1.32199 1.24979,2.31462z" fill="url(#color-44)"/><path d="M245.47351,158.65159l0.14678,-0.55492l2.02532,0.61809l-0.16515,0.55084z" fill="#524011"/></g><g><path d="M215.81557,149.98828c-0.28946,0.99263 -1.31833,1.56572 -2.29803,1.28003c-0.9797,-0.28569 -1.53925,-1.32199 -1.24979,-2.31462c0.28946,-0.99263 1.31833,-1.56572 2.29803,-1.28003c0.9797,0.28569 1.53925,1.32199 1.24979,2.31462z" fill="url(#color-45)"/><path d="M212.91167,149.51745l0.14678,-0.55492l2.02532,0.6181l-0.16515,0.55084z" fill="#524011"/></g><g><path d="M212.79068,141.15787c-0.28946,0.99263 -1.31833,1.56572 -2.29803,1.28003c-0.9797,-0.28569 -1.53925,-1.32199 -1.24979,-2.31462c0.28946,-0.99263 1.31833,-1.56572 2.29803,-1.28003c0.9797,0.28569 1.53925,1.32199 1.24979,2.31462z" fill="url(#color-46)"/><path d="M209.88678,140.68705l0.14678,-0.55492l2.02532,0.6181l-0.16515,0.55084z" fill="#524011"/></g><g><path d="M211.02077,120.59033c-0.28946,0.99263 -1.31833,1.56572 -2.29803,1.28003c-0.9797,-0.28569 -1.53925,-1.32199 -1.24979,-2.31462c0.28946,-0.99263 1.31833,-1.56572 2.29803,-1.28003c0.9797,0.28569 1.53925,1.32199 1.24979,2.31462z" fill="url(#color-47)"/><path d="M208.11686,120.11949l0.14678,-0.55492l2.02532,0.6181l-0.16515,0.55084z" fill="#524011"/></g><g><path d="M208.40597,128.31806c-0.28946,0.99263 -1.31833,1.56572 -2.29803,1.28003c-0.9797,-0.28569 -1.53925,-1.32199 -1.24979,-2.31462c0.28946,-0.99263 1.31833,-1.56572 2.29803,-1.28003c0.9797,0.28569 1.53925,1.32199 1.24979,2.31462z" fill="url(#color-48)"/><path d="M205.50207,127.84724l0.14678,-0.55492l2.02532,0.61809l-0.16515,0.55084z" fill="#524011"/></g><g><path d="M268.86073,137.81845c-0.28946,0.99263 -1.31833,1.56572 -2.29803,1.28003c-0.9797,-0.28569 -1.53925,-1.32199 -1.24979,-2.31462c0.28946,-0.99263 1.31833,-1.56572 2.29803,-1.28003c0.9797,0.28569 1.53925,1.32199 1.24979,2.31462z" fill="url(#color-49)"/><path d="M265.95683,137.34763l0.14678,-0.55492l2.02532,0.61809l-0.16515,0.55084z" fill="#524011"/></g><g><path d="M266.28762,146.6422c-0.28946,0.99263 -1.31833,1.56572 -2.29803,1.28003c-0.9797,-0.28569 -1.53925,-1.32199 -1.24979,-2.31462c0.28946,-0.99263 1.31833,-1.56572 2.29803,-1.28003c0.9797,0.28569 1.53925,1.32199 1.24979,2.31462z" fill="url(#color-50)"/><path d="M263.38371,146.17137l0.14678,-0.55492l2.02532,0.61809l-0.16515,0.55084z" fill="#524011"/></g><g><path d="M246.62659,104.41884c-0.28946,0.99263 -1.31833,1.56572 -2.29803,1.28003c-0.9797,-0.28569 -1.53925,-1.32199 -1.24979,-2.31462c0.28946,-0.99263 1.31833,-1.56572 2.29803,-1.28003c0.9797,0.28569 1.53925,1.32199 1.24979,2.31462z" fill="url(#color-51)"/><path d="M243.72269,103.94801l0.14678,-0.55492l2.02532,0.61809l-0.16515,0.55084z" fill="#524011"/></g><g><path d="M230.43197,160.57311c-0.28946,0.99263 -1.31833,1.56572 -2.29803,1.28003c-0.9797,-0.28569 -1.53925,-1.32199 -1.24979,-2.31462c0.28946,-0.99263 1.31833,-1.56572 2.29803,-1.28003c0.9797,0.28569 1.53925,1.32199 1.24979,2.31462z" fill="url(#color-52)"/><path d="M227.52805,160.10229l0.14678,-0.55492l2.02532,0.61809l-0.16515,0.55084z" fill="#524011"/></g><g><path d="M256.72986,169.5064c-0.28946,0.99263 -1.31833,1.56572 -2.29803,1.28003c-0.9797,-0.28569 -1.53925,-1.32199 -1.24979,-2.31462c0.28946,-0.99263 1.31833,-1.56572 2.29803,-1.28003c0.9797,0.28569 1.53925,1.32199 1.24979,2.31462z" fill="url(#color-53)"/><path d="M253.82593,169.03557l0.14678,-0.55492l2.02532,0.61809l-0.16515,0.55084z" fill="#524011"/></g><g><path d="M222.30569,95.52013c-0.28946,0.99263 -1.31833,1.56572 -2.29803,1.28003c-0.9797,-0.28569 -1.53925,-1.32199 -1.24979,-2.31462c0.28946,-0.99263 1.31833,-1.56572 2.29803,-1.28003c0.9797,0.28569 1.53925,1.32199 1.24979,2.31462z" fill="url(#color-54)"/><path d="M219.40178,95.0493l0.14678,-0.55492l2.02532,0.61809l-0.16515,0.55084z" fill="#524011"/></g></g><g stroke="none" stroke-width="0"><g><path d="M245.01715,141.34762c0.94457,-0.13974 1.8221,0.50273 1.96002,1.43499c0.13792,0.93226 -0.51601,1.80129 -1.46057,1.94103c-0.94457,0.13974 -1.8221,-0.50273 -1.96002,-1.43499c-0.13792,-0.93226 0.51601,-1.80129 1.46057,-1.94103z" fill="url(#color-55)"/><path d="M245.74146,143.96597l-0.52224,0.09074l-0.26205,-1.93785l0.52591,-0.07375z" fill="#524011"/></g><g><path d="M227.21224,121.39779c0.94457,-0.13974 1.8221,0.50273 1.96002,1.43499c0.13792,0.93226 -0.51601,1.80129 -1.46057,1.94103c-0.94457,0.13974 -1.8221,-0.50273 -1.96002,-1.43499c-0.13792,-0.93226 0.516,-1.80129 1.46057,-1.94103z" fill="url(#color-56)"/><path d="M227.93656,124.01614l-0.52224,0.09074l-0.26205,-1.93785l0.52591,-0.07375z" fill="#524011"/></g><g><path d="M253.13975,123.75445c0.94457,-0.13974 1.8221,0.50273 1.96002,1.43499c0.13792,0.93226 -0.51601,1.80129 -1.46057,1.94103c-0.94457,0.13974 -1.8221,-0.50273 -1.96002,-1.43499c-0.13792,-0.93226 0.51601,-1.80129 1.46057,-1.94103z" fill="url(#color-57)"/><path d="M253.86407,126.37281l-0.52225,0.09074l-0.26205,-1.93785l0.52591,-0.07375z" fill="#524011"/></g><g><path d="M238.77456,111.18797c0.94457,-0.13974 1.8221,0.50273 1.96002,1.43499c0.13792,0.93226 -0.51601,1.80129 -1.46057,1.94103c-0.94457,0.13974 -1.8221,-0.50273 -1.96002,-1.43499c-0.13792,-0.93226 0.51601,-1.80129 1.46057,-1.94103z" fill="url(#color-58)"/><path d="M239.49887,113.80633l-0.52224,0.09074l-0.26205,-1.93785l0.52591,-0.07375z" fill="#524011"/></g><g><path d="M230.98833,112.17796c0.94457,-0.13974 1.8221,0.50273 1.96002,1.43499c0.13792,0.93226 -0.51601,1.80129 -1.46057,1.94103c-0.94457,0.13974 -1.8221,-0.50273 -1.96002,-1.43499c-0.13792,-0.93226 0.516,-1.80129 1.46057,-1.94103z" fill="url(#color-59)"/><path d="M231.71265,114.79631l-0.52225,0.09074l-0.26204,-1.93785l0.52591,-0.07375z" fill="#524011"/></g><g><path d="M254.14851,133.0354c0.94457,-0.13974 1.8221,0.50273 1.96002,1.43499c0.13792,0.93226 -0.51601,1.80129 -1.46057,1.94103c-0.94457,0.13974 -1.8221,-0.50273 -1.96002,-1.43499c-0.13792,-0.93226 0.516,-1.80129 1.46057,-1.94103z" fill="url(#color-60)"/><path d="M254.87282,135.65375l-0.52225,0.09074l-0.26204,-1.93785l0.52591,-0.07375z" fill="#524011"/></g><g><path d="M217.85986,127.39527c0.94457,-0.13974 1.8221,0.50273 1.96002,1.43499c0.13792,0.93226 -0.516,1.80129 -1.46057,1.94103c-0.94457,0.13974 -1.8221,-0.50273 -1.96002,-1.43499c-0.13792,-0.93226 0.51601,-1.80129 1.46057,-1.94103z" fill="url(#color-61)"/><path d="M218.58418,130.01363l-0.52225,0.09074l-0.26205,-1.93785l0.52591,-0.07375z" fill="#524011"/></g><g><path d="M220.60943,138.32091c0.94457,-0.13974 1.8221,0.50273 1.96002,1.43499c0.13792,0.93226 -0.516,1.80129 -1.46057,1.94103c-0.94457,0.13974 -1.8221,-0.50273 -1.96002,-1.43499c-0.13792,-0.93226 0.51601,-1.80129 1.46057,-1.94103z" fill="url(#color-62)"/><path d="M221.33375,140.93927l-0.52225,0.09074l-0.26205,-1.93785l0.52591,-0.07375z" fill="#524011"/></g><g><path d="M233.89658,150.43979c0.94457,-0.13974 1.8221,0.50273 1.96002,1.43499c0.13792,0.93226 -0.51601,1.80129 -1.46057,1.94103c-0.94457,0.13974 -1.8221,-0.50273 -1.96002,-1.43499c-0.13792,-0.93226 0.51601,-1.80129 1.46057,-1.94103z" fill="url(#color-63)"/><path d="M234.6209,153.05815l-0.52225,0.09074l-0.26205,-1.93785l0.5259,-0.07376z" fill="#524011"/></g><g><path d="M241.57126,149.79009c0.94457,-0.13974 1.8221,0.50273 1.96002,1.43499c0.13792,0.93226 -0.51601,1.80129 -1.46057,1.94103c-0.94457,0.13974 -1.8221,-0.50273 -1.96002,-1.43499c-0.13792,-0.93226 0.51601,-1.80129 1.46057,-1.94103z" fill="url(#color-64)"/><path d="M242.29557,152.40844l-0.52224,0.09074l-0.26205,-1.93785l0.52591,-0.07375z" fill="#524011"/></g><g><path d="M216.06585,149.19225c0.94457,-0.13974 1.8221,0.50273 1.96002,1.43499c0.13792,0.93226 -0.51601,1.80129 -1.46057,1.94103c-0.94457,0.13974 -1.8221,-0.50273 -1.96002,-1.43499c-0.13792,-0.93226 0.51601,-1.80129 1.46057,-1.94103z" fill="url(#color-65)"/><path d="M216.79016,151.81061l-0.52225,0.09074l-0.26205,-1.93785l0.5259,-0.07376z" fill="#524011"/></g><g><path d="M223.84465,155.81226c0.94457,-0.13974 1.8221,0.50273 1.96002,1.43499c0.13792,0.93226 -0.516,1.80129 -1.46057,1.94103c-0.94457,0.13974 -1.8221,-0.50273 -1.96002,-1.43499c-0.13792,-0.93226 0.51601,-1.80129 1.46057,-1.94103z" fill="url(#color-66)"/><path d="M224.56896,158.43062l-0.52225,0.09074l-0.26205,-1.93785l0.52591,-0.07375z" fill="#524011"/></g><g><path d="M213.61327,120.57651c0.94457,-0.13974 1.8221,0.50273 1.96002,1.43499c0.13792,0.93226 -0.51601,1.80129 -1.46057,1.94103c-0.94457,0.13974 -1.8221,-0.50273 -1.96002,-1.43499c-0.13792,-0.93226 0.51601,-1.80129 1.46057,-1.94103z" fill="url(#color-67)"/><path d="M214.33759,123.19486l-0.52225,0.09074l-0.26205,-1.93785l0.52591,-0.07375z" fill="#524011"/></g><g><path d="M220.24545,110.69132c0.94457,-0.13974 1.8221,0.50273 1.96002,1.43499c0.13792,0.93226 -0.51601,1.80129 -1.46057,1.94103c-0.94457,0.13974 -1.8221,-0.50273 -1.96002,-1.43499c-0.13792,-0.93226 0.516,-1.80129 1.46057,-1.94103z" fill="url(#color-68)"/><path d="M220.96976,113.30967l-0.52224,0.09074l-0.26205,-1.93785l0.52591,-0.07375z" fill="#524011"/></g><g><path d="M247.07166,108.1797c0.94457,-0.13974 1.8221,0.50273 1.96002,1.43499c0.13792,0.93226 -0.51601,1.80129 -1.46057,1.94103c-0.94457,0.13974 -1.8221,-0.50273 -1.96002,-1.43499c-0.13792,-0.93226 0.51601,-1.80129 1.46057,-1.94103z" fill="url(#color-69)"/><path d="M247.79598,110.79806l-0.52224,0.09074l-0.26205,-1.93785l0.52591,-0.07375z" fill="#524011"/></g><g><path d="M254.22893,112.78707c0.94457,-0.13974 1.8221,0.50273 1.96002,1.43499c0.13792,0.93226 -0.51601,1.80129 -1.46057,1.94103c-0.94457,0.13974 -1.8221,-0.50273 -1.96002,-1.43499c-0.13792,-0.93226 0.51601,-1.80129 1.46057,-1.94103z" fill="url(#color-70)"/><path d="M254.95325,115.40541l-0.52225,0.09074l-0.26205,-1.93785l0.52591,-0.07375z" fill="#524011"/></g><g><path d="M259.11601,143.63293c0.94457,-0.13974 1.8221,0.50273 1.96002,1.43499c0.13792,0.93226 -0.51601,1.80129 -1.46057,1.94103c-0.94457,0.13974 -1.8221,-0.50273 -1.96002,-1.43499c-0.13792,-0.93226 0.51601,-1.80129 1.46057,-1.94103z" fill="url(#color-71)"/><path d="M259.84033,146.25128l-0.52225,0.09074l-0.26204,-1.93785l0.52591,-0.07375z" fill="#524011"/></g><g><path d="M252.8719,149.57531c0.94457,-0.13974 1.8221,0.50273 1.96002,1.43499c0.13792,0.93226 -0.51601,1.80129 -1.46057,1.94103c-0.94457,0.13974 -1.8221,-0.50273 -1.96002,-1.43499c-0.13792,-0.93226 0.51601,-1.80129 1.46057,-1.94103z" fill="url(#color-72)"/><path d="M253.59621,152.19367l-0.52225,0.09074l-0.26204,-1.93785l0.52591,-0.07375z" fill="#524011"/></g><g><path d="M236.29459,158.98907c0.94457,-0.13974 1.8221,0.50273 1.96002,1.43499c0.13792,0.93226 -0.51601,1.80129 -1.46057,1.94103c-0.94457,0.13974 -1.8221,-0.50273 -1.96002,-1.43499c-0.13792,-0.93226 0.51601,-1.80129 1.46057,-1.94103z" fill="url(#color-73)"/><path d="M237.0189,161.60743l-0.52225,0.09074l-0.26204,-1.93785l0.52591,-0.07375z" fill="#524011"/></g><g><path d="M243.78741,158.20438c0.94457,-0.13974 1.8221,0.50273 1.96002,1.43499c0.13792,0.93226 -0.51601,1.80129 -1.46057,1.94103c-0.94457,0.13974 -1.8221,-0.50273 -1.96002,-1.43499c-0.13792,-0.93226 0.51601,-1.80129 1.46057,-1.94103z" fill="url(#color-74)"/><path d="M244.51173,160.82274l-0.52225,0.09074l-0.26205,-1.93785l0.52591,-0.07375z" fill="#524011"/></g><g><path d="M228.45533,103.81055c0.94457,-0.13974 1.8221,0.50273 1.96002,1.43499c0.13792,0.93226 -0.51601,1.80129 -1.46057,1.94103c-0.94457,0.13974 -1.8221,-0.50273 -1.96002,-1.43499c-0.13792,-0.93226 0.51601,-1.80129 1.46057,-1.94103z" fill="url(#color-75)"/><path d="M229.17965,106.42891l-0.52225,0.09074l-0.26205,-1.93785l0.52591,-0.07375z" fill="#524011"/></g><g><path d="M236.85182,102.56839c0.94457,-0.13974 1.8221,0.50273 1.96002,1.43499c0.13792,0.93226 -0.51601,1.80129 -1.46057,1.94103c-0.94457,0.13974 -1.8221,-0.50273 -1.96002,-1.43499c-0.13792,-0.93226 0.51601,-1.80129 1.46057,-1.94103z" fill="url(#color-76)"/><path d="M237.57614,105.18674l-0.52225,0.09074l-0.26205,-1.93785l0.52591,-0.07375z" fill="#524011"/></g><g><path d="M208.99848,135.34377c0.94457,-0.13974 1.8221,0.50273 1.96002,1.43499c0.13792,0.93226 -0.51601,1.80129 -1.46057,1.94103c-0.94457,0.13974 -1.8221,-0.50273 -1.96002,-1.43499c-0.13792,-0.93226 0.51601,-1.80129 1.46057,-1.94103z" fill="url(#color-77)"/><path d="M209.7228,137.96212l-0.52225,0.09074l-0.26205,-1.93785l0.52591,-0.07375z" fill="#524011"/></g><g><path d="M262.36403,127.28704c0.94457,-0.13974 1.8221,0.50273 1.96002,1.43499c0.13792,0.93226 -0.51601,1.80129 -1.46057,1.94103c-0.94457,0.13974 -1.8221,-0.50273 -1.96002,-1.43499c-0.13792,-0.93226 0.51601,-1.80129 1.46057,-1.94103z" fill="url(#color-78)"/><path d="M263.08835,129.90541l-0.52225,0.09074l-0.26205,-1.93785l0.52591,-0.07375z" fill="#524011"/></g><g><path d="M259.72306,101.7751c0.94457,-0.13974 1.8221,0.50273 1.96002,1.43499c0.13792,0.93226 -0.51601,1.80129 -1.46057,1.94103c-0.94457,0.13974 -1.8221,-0.50273 -1.96002,-1.43499c-0.13792,-0.93226 0.51601,-1.80129 1.46057,-1.94103z" fill="url(#color-79)"/><path d="M260.44738,104.39348l-0.52225,0.09074l-0.26205,-1.93785l0.52591,-0.07375z" fill="#524011"/></g><g><path d="M210.90637,159.18337c0.94457,-0.13974 1.8221,0.50273 1.96002,1.43499c0.13792,0.93226 -0.51601,1.80129 -1.46057,1.94103c-0.94457,0.13974 -1.8221,-0.50273 -1.96002,-1.43499c-0.13792,-0.93226 0.51601,-1.80129 1.46057,-1.94103z" fill="url(#color-80)"/><path d="M211.63067,161.80172l-0.52225,0.09074l-0.26205,-1.93785l0.52591,-0.07375z" fill="#524011"/></g></g><g stroke="none" stroke-width="0"><g><path d="M235.67337,125.11962c0,1.96152 -1.5694,3.55165 -3.50536,3.55165c-1.93596,0 -3.50537,-1.59013 -3.50537,-3.55165c0,-1.96152 1.56941,-3.55164 3.50537,-3.55164c1.93596,0 3.50536,1.59012 3.50536,3.55164z" fill="url(#color-81)"/><g><path d="M241.09745,126.85605c0,1.96152 -1.56941,3.55164 -3.50536,3.55164c-1.93595,0 -3.50536,-1.59013 -3.50536,-3.55164c0,-1.96152 1.56941,-3.55164 3.50536,-3.55164c1.93595,0 3.50536,1.59013 3.50536,3.55164z" fill="url(#color-82)"/><path d="M236.93167,129.10608v-1.48698l-1.37286,-0.07831l-0.02738,-1.08856l1.40025,-0.04668v-1.81371h1.23115v1.90706l1.38538,0.00338l-0.00822,1.0909c0,0 -1.40535,0.04088 -1.4039,0.11917c0.00826,0.4449 0.02674,1.39373 0.02674,1.39373z" fill="#511111"/></g><path d="M242.75297,130.01844c0,1.96152 -1.5694,3.55165 -3.50536,3.55165c-1.93596,0 -3.50537,-1.59013 -3.50537,-3.55165c0,-1.96152 1.56941,-3.55164 3.50537,-3.55164c1.93596,0 3.50536,1.59012 3.50536,3.55164z" fill="url(#color-83)"/><g data-paper-data="{&quot;index&quot;:null}"><path d="M240.7501,133.50266c0,1.96152 -1.5694,3.55164 -3.50536,3.55164c-1.93596,0 -3.50536,-1.59012 -3.50536,-3.55164c0,-1.96152 1.56941,-3.55165 3.50536,-3.55165c1.93596,0 3.50536,1.59013 3.50536,3.55165z" fill="url(#color-84)"/><path d="M236.58432,135.7527v-1.48698l-1.37286,-0.07831l-0.02738,-1.08856l1.40025,-0.04668v-1.81371h1.23115v1.90706l1.38538,0.00338l-0.00822,1.0909c0,0 -1.40535,0.04087 -1.4039,0.11917c0.00825,0.4449 0.02674,1.39373 0.02674,1.39373z" fill="#511111"/></g><path d="M231.18767,130.44801c0,1.96152 -1.5694,3.55164 -3.50536,3.55164c-1.93596,0 -3.50536,-1.59013 -3.50536,-3.55164c0,-1.96152 1.56941,-3.55164 3.50536,-3.55164c1.93596,0 3.50536,1.59012 3.50536,3.55164z" fill="url(#color-85)"/><g><path d="M233.59669,126.9319c0,1.96152 -1.56941,3.55164 -3.50536,3.55164c-1.93595,0 -3.50536,-1.59013 -3.50536,-3.55164c0,-1.96152 1.56941,-3.55164 3.50536,-3.55164c1.93595,0 3.50536,1.59013 3.50536,3.55164z" fill="url(#color-86)"/><path d="M229.43091,129.18193v-1.48698l-1.37286,-0.07831l-0.02738,-1.08856l1.40025,-0.04668v-1.81371h1.23115v1.90706l1.38538,0.00338l-0.00822,1.0909c0,0 -1.40535,0.04088 -1.4039,0.11917c0.00826,0.4449 0.02674,1.39373 0.02674,1.39373z" fill="#511111"/></g><g data-paper-data="{&quot;index&quot;:null}"><path d="M232.62824,133.55264c0,1.96152 -1.5694,3.55164 -3.50536,3.55164c-1.93596,0 -3.50536,-1.59012 -3.50536,-3.55164c0,-1.96152 1.56941,-3.55165 3.50536,-3.55165c1.93596,0 3.50536,1.59013 3.50536,3.55165z" fill="url(#color-87)"/><path d="M228.46247,135.80268v-1.48698l-1.37286,-0.07831l-0.02738,-1.08856l1.40025,-0.04668v-1.81371h1.23115v1.90706l1.38538,0.00338l-0.00822,1.0909c0,0 -1.40535,0.04087 -1.4039,0.11917c0.00825,0.4449 0.02674,1.39373 0.02674,1.39373z" fill="#511111"/></g><path d="M238.67221,126.79397c0,1.96152 -1.5694,3.55165 -3.50536,3.55165c-1.93596,0 -3.50537,-1.59013 -3.50537,-3.55165c0,-1.96152 1.56941,-3.55164 3.50537,-3.55164c1.93596,0 3.50536,1.59012 3.50536,3.55164z" fill="url(#color-88)"/><path d="M237.13015,136.31602c0,1.96152 -1.5694,3.55165 -3.50536,3.55165c-1.93596,0 -3.50537,-1.59013 -3.50537,-3.55165c0,-1.96152 1.56941,-3.55164 3.50537,-3.55164c1.93596,0 3.50536,1.59012 3.50536,3.55164z" fill="url(#color-89)"/><g><path d="M237.5988,131.15438c0,1.96152 -1.56941,3.55164 -3.50536,3.55164c-1.93595,0 -3.50536,-1.59013 -3.50536,-3.55164c0,-1.96152 1.56941,-3.55164 3.50536,-3.55164c1.93595,0 3.50536,1.59013 3.50536,3.55164z" fill="url(#color-90)"/><path d="M233.43302,133.40441v-1.48698l-1.37286,-0.07831l-0.02738,-1.08856l1.40025,-0.04668v-1.81371h1.23115v1.90706l1.38538,0.00338l-0.00822,1.0909c0,0 -1.40535,0.04088 -1.4039,0.11917c0.00826,0.4449 0.02674,1.39373 0.02674,1.39373z" fill="#511111"/></g></g><g><path d="M243.42257,130.11962c0,1.96152 -1.5694,3.55165 -3.50536,3.55165c-1.93596,0 -3.50537,-1.59013 -3.50537,-3.55165c0,-1.96152 1.56941,-3.55164 3.50537,-3.55164c1.93596,0 3.50536,1.59012 3.50536,3.55164z" fill="url(#color-91)"/><g><path d="M248.84665,131.85605c0,1.96152 -1.5694,3.55163 -3.50536,3.55163c-1.93595,0 -3.50536,-1.59013 -3.50536,-3.55163c0,-1.96152 1.56941,-3.55164 3.50536,-3.55164c1.93596,0 3.50536,1.59013 3.50536,3.55164z" fill="url(#color-92)"/><path d="M244.68087,134.10608v-1.48699l-1.37286,-0.07831l-0.02738,-1.08857l1.40025,-0.04667v-1.81371h1.23115v1.90706l1.38538,0.00339l-0.00823,1.09089c0,0 -1.40535,0.04088 -1.4039,0.11917c0.00826,0.4449 0.02675,1.39373 0.02675,1.39373z" fill="#511111"/></g><path d="M250.50217,135.01844c0,1.96152 -1.5694,3.55165 -3.50536,3.55165c-1.93596,0 -3.50536,-1.59013 -3.50536,-3.55165c0,-1.96152 1.5694,-3.55164 3.50536,-3.55164c1.93596,0 3.50536,1.59012 3.50536,3.55164z" fill="url(#color-93)"/><g data-paper-data="{&quot;index&quot;:null}"><path d="M248.4993,138.50266c0,1.96152 -1.5694,3.55164 -3.50536,3.55164c-1.93596,0 -3.50536,-1.59012 -3.50536,-3.55164c0,-1.96152 1.5694,-3.55165 3.50536,-3.55165c1.93596,0 3.50536,1.59013 3.50536,3.55165z" fill="url(#color-94)"/><path d="M244.33352,140.7527v-1.48699l-1.37287,-0.07831l-0.02738,-1.08857l1.40025,-0.04667v-1.8137h1.23115v1.90706l1.38539,0.00338l-0.00823,1.09089c0,0 -1.40535,0.04087 -1.4039,0.11917c0.00826,0.4449 0.02674,1.39373 0.02674,1.39373z" fill="#511111"/></g><path d="M238.93687,135.448c0,1.96152 -1.5694,3.55164 -3.50536,3.55164c-1.93596,0 -3.50536,-1.59013 -3.50536,-3.55164c0,-1.96152 1.5694,-3.55164 3.50536,-3.55164c1.93596,0 3.50536,1.59012 3.50536,3.55164z" fill="url(#color-95)"/><g><path d="M241.34589,131.9319c0,1.96152 -1.5694,3.55164 -3.50535,3.55164c-1.93595,0 -3.50536,-1.59013 -3.50536,-3.55164c0,-1.96152 1.56941,-3.55164 3.50536,-3.55164c1.93595,0 3.50535,1.59013 3.50535,3.55164z" fill="url(#color-96)"/><path d="M237.18011,134.18193v-1.48699l-1.37286,-0.07831l-0.02738,-1.08857l1.40025,-0.04667v-1.8137h1.23115v1.90706l1.38538,0.00338l-0.00822,1.09089c0,0 -1.40535,0.04089 -1.4039,0.11917c0.00826,0.4449 0.02674,1.39373 0.02674,1.39373z" fill="#511111"/></g><g data-paper-data="{&quot;index&quot;:null}"><path d="M240.37744,138.55264c0,1.96152 -1.5694,3.55164 -3.50536,3.55164c-1.93596,0 -3.50536,-1.59012 -3.50536,-3.55164c0,-1.96152 1.5694,-3.55165 3.50536,-3.55165c1.93596,0 3.50536,1.59013 3.50536,3.55165z" fill="url(#color-97)"/><path d="M236.21167,140.80268v-1.48698l-1.37286,-0.07831l-0.02738,-1.08857l1.40025,-0.04668v-1.8137h1.23115v1.90706l1.38538,0.00338l-0.00823,1.09089c0,0 -1.40535,0.04088 -1.4039,0.11917c0.00826,0.4449 0.02675,1.39373 0.02675,1.39373z" fill="#511111"/></g><path d="M246.42141,131.79397c0,1.96152 -1.5694,3.55165 -3.50536,3.55165c-1.93596,0 -3.50537,-1.59013 -3.50537,-3.55165c0,-1.96152 1.56941,-3.55164 3.50537,-3.55164c1.93596,0 3.50536,1.59012 3.50536,3.55164z" fill="url(#color-98)"/><path d="M244.87935,141.31601c0,1.96152 -1.5694,3.55165 -3.50536,3.55165c-1.93596,0 -3.50536,-1.59013 -3.50536,-3.55165c0,-1.96152 1.56941,-3.55163 3.50536,-3.55163c1.93596,0 3.50536,1.59011 3.50536,3.55163z" fill="url(#color-99)"/><g><path d="M245.348,136.15438c0,1.96152 -1.5694,3.55164 -3.50536,3.55164c-1.93595,0 -3.50535,-1.59013 -3.50535,-3.55164c0,-1.96152 1.5694,-3.55164 3.50535,-3.55164c1.93596,0 3.50536,1.59013 3.50536,3.55164z" fill="url(#color-100)"/><path d="M241.18222,138.40441v-1.48698l-1.37286,-0.07831l-0.02738,-1.08857l1.40025,-0.04668v-1.81371h1.23115v1.90706l1.38538,0.00338l-0.00822,1.0909c0,0 -1.40535,0.04088 -1.4039,0.11917c0.00826,0.4449 0.02674,1.39373 0.02674,1.39373z" fill="#511111"/></g></g><g><path d="M242.31324,120.76269c0,1.96152 -1.5694,3.55165 -3.50536,3.55165c-1.93596,0 -3.50536,-1.59013 -3.50536,-3.55165c0,-1.96152 1.56941,-3.55164 3.50536,-3.55164c1.93596,0 3.50536,1.59012 3.50536,3.55164z" fill="url(#color-101)"/><g><path d="M247.73732,122.49912c0,1.96152 -1.5694,3.55163 -3.50536,3.55163c-1.93596,0 -3.50536,-1.59013 -3.50536,-3.55163c0,-1.96152 1.5694,-3.55164 3.50536,-3.55164c1.93596,0 3.50536,1.59013 3.50536,3.55164z" fill="url(#color-102)"/><path d="M243.57153,124.74915v-1.48699l-1.37286,-0.07831l-0.02738,-1.08857l1.40025,-0.04667v-1.81371h1.23115v1.90706l1.38538,0.00339l-0.00823,1.09089c0,0 -1.40535,0.04088 -1.4039,0.11917c0.00826,0.4449 0.02675,1.39373 0.02675,1.39373z" fill="#511111"/></g><path d="M249.39284,125.66151c0,1.96152 -1.5694,3.55165 -3.50536,3.55165c-1.93596,0 -3.50536,-1.59013 -3.50536,-3.55165c0,-1.96152 1.5694,-3.55164 3.50536,-3.55164c1.93596,0 3.50536,1.59012 3.50536,3.55164z" fill="url(#color-103)"/><g data-paper-data="{&quot;index&quot;:null}"><path d="M247.38996,129.14573c0,1.96152 -1.5694,3.55164 -3.50536,3.55164c-1.93596,0 -3.50536,-1.59012 -3.50536,-3.55164c0,-1.96152 1.5694,-3.55165 3.50536,-3.55165c1.93596,0 3.50536,1.59013 3.50536,3.55165z" fill="url(#color-104)"/><path d="M243.22419,131.39577v-1.48699l-1.37287,-0.07831l-0.02738,-1.08857l1.40025,-0.04667v-1.8137h1.23115v1.90706l1.38539,0.00338l-0.00823,1.09089c0,0 -1.40535,0.04087 -1.4039,0.11917c0.00825,0.4449 0.02674,1.39373 0.02674,1.39373z" fill="#511111"/></g><path d="M237.82753,126.09107c0,1.96152 -1.5694,3.55164 -3.50536,3.55164c-1.93596,0 -3.50536,-1.59013 -3.50536,-3.55164c0,-1.96152 1.5694,-3.55164 3.50536,-3.55164c1.93596,0 3.50536,1.59012 3.50536,3.55164z" fill="url(#color-105)"/><g><path d="M240.23655,122.57497c0,1.96152 -1.5694,3.55164 -3.50536,3.55164c-1.93595,0 -3.50536,-1.59013 -3.50536,-3.55164c0,-1.96152 1.56941,-3.55164 3.50536,-3.55164c1.93596,0 3.50536,1.59013 3.50536,3.55164z" fill="url(#color-106)"/><path d="M236.07078,124.825v-1.48699l-1.37287,-0.07831l-0.02738,-1.08857l1.40025,-0.04667v-1.8137h1.23115v1.90706l1.38539,0.00338l-0.00823,1.09089c0,0 -1.40535,0.04089 -1.4039,0.11917c0.00826,0.4449 0.02674,1.39373 0.02674,1.39373z" fill="#511111"/></g><g data-paper-data="{&quot;index&quot;:null}"><path d="M239.26811,129.19571c0,1.96152 -1.5694,3.55164 -3.50536,3.55164c-1.93596,0 -3.50536,-1.59012 -3.50536,-3.55164c0,-1.96152 1.5694,-3.55165 3.50536,-3.55165c1.93596,0 3.50536,1.59013 3.50536,3.55165z" fill="url(#color-107)"/><path d="M235.10234,131.44575v-1.48698l-1.37286,-0.07831l-0.02738,-1.08857l1.40025,-0.04668v-1.8137h1.23115v1.90706l1.38538,0.00338l-0.00823,1.09089c0,0 -1.40535,0.04088 -1.4039,0.11917c0.00826,0.4449 0.02675,1.39373 0.02675,1.39373z" fill="#511111"/></g><path d="M245.31208,122.43704c0,1.96152 -1.5694,3.55165 -3.50536,3.55165c-1.93596,0 -3.50536,-1.59013 -3.50536,-3.55165c0,-1.96152 1.56941,-3.55164 3.50536,-3.55164c1.93596,0 3.50536,1.59012 3.50536,3.55164z" fill="url(#color-108)"/><path d="M243.77001,131.95908c0,1.96152 -1.5694,3.55165 -3.50536,3.55165c-1.93596,0 -3.50536,-1.59013 -3.50536,-3.55165c0,-1.96152 1.56941,-3.55163 3.50536,-3.55163c1.93596,0 3.50536,1.59011 3.50536,3.55163z" fill="url(#color-109)"/><g><path d="M244.23866,126.79745c0,1.96152 -1.5694,3.55164 -3.50536,3.55164c-1.93596,0 -3.50536,-1.59013 -3.50536,-3.55164c0,-1.96152 1.5694,-3.55164 3.50536,-3.55164c1.93596,0 3.50536,1.59013 3.50536,3.55164z" fill="url(#color-110)"/><path d="M240.07288,129.04748v-1.48698l-1.37286,-0.07831l-0.02738,-1.08857l1.40025,-0.04668v-1.81371h1.23115v1.90706l1.38538,0.00338l-0.00822,1.0909c0,0 -1.40535,0.04088 -1.4039,0.11917c0.00826,0.4449 0.02674,1.39373 0.02674,1.39373z" fill="#511111"/></g></g></g></g></g></svg>