<svg version="1.1" xmlns="http://www.w3.org/2000/svg" xmlns:xlink="http://www.w3.org/1999/xlink" width="102.67899" height="166.03831" viewBox="0,0,102.67899,166.03831"><defs><linearGradient x1="239.61889" y1="61.39429" x2="239.61889" y2="232.77418" gradientUnits="userSpaceOnUse" id="color-1"><stop offset="0" stop-color="#000000"/><stop offset="1" stop-color="#000000" stop-opacity="0"/></linearGradient></defs><g transform="translate(-192.32102,-48.15849)"><g data-paper-data="{&quot;isPaintingLayer&quot;:true}" stroke-miterlimit="10" stroke-dasharray="" stroke-dashoffset="0" style="mix-blend-mode: normal"><path d="M283.33315,177.72148c0.07579,1.80287 -6.81726,6.77584 -42.72357,6.77584c-35.90631,0 -45.9313,-4.245 -45.94332,-7.14719c-0.01038,-2.50561 9.29399,-5.84744 45.20029,-5.84744c35.90631,0 43.39725,4.56966 43.46659,6.21879z" fill="url(#color-1)" fill-rule="nonzero" stroke="none" stroke-width="0" stroke-linecap="butt" stroke-linejoin="miter"/><text transform="translate(226.53567,65.87426) scale(0.46015,0.46015)" font-size="40" xml:space="preserve" fill="#000000" fill-rule="nonzero" stroke="#000000" stroke-width="2" stroke-linecap="butt" stroke-linejoin="miter" stroke-miterlimit="10" stroke-dasharray="" stroke-dashoffset="0" font-family="Handwriting" font-weight="normal" text-anchor="start" style="mix-blend-mode: normal"></text><text transform="translate(219.46131,206.37425) scale(0.46015,0.46015)" font-size="40" xml:space="preserve" fill="#000000" fill-rule="nonzero" stroke="#000000" stroke-width="1" stroke-linecap="butt" stroke-linejoin="miter" stroke-miterlimit="10" stroke-dasharray="" stroke-dashoffset="0" font-family="Handwriting" font-weight="normal" text-anchor="start" style="mix-blend-mode: normal"></text><g fill-rule="evenodd"><g><path d="M227.23613,147.31425c0.86384,0.43192 2.69951,1.40375 0.10798,5.07508c-2.59153,3.67134 -10.04219,4.4272 -10.90603,4.4272c-3.3474,0.10798 -7.45066,0.10798 -11.98584,-1.40375c-13.17362,-4.31922 -13.2816,-18.46467 -9.07036,-20.73226c4.10326,-2.26759 5.93893,6.47883 11.87786,11.76988c2.59153,2.37557 5.72297,3.23942 8.3145,3.77932c3.67134,0.64788 10.69007,-3.45538 11.66189,-2.91547z" fill="#ffab19" stroke="#001026" stroke-width="1.2" stroke-linecap="round" stroke-linejoin="round"/><path d="M200.45696,138.56783c1.72769,2.91547 5.07508,7.01873 5.07508,7.01873c0,0 -3.99528,-0.97182 -6.26287,0.86384c-1.83567,1.40375 -1.40375,3.77932 -1.18779,4.53518c-1.40375,-1.40375 -3.13143,-3.3474 -4.21124,-7.12671c-1.07981,-3.77932 0,-8.3145 2.15961,-8.96238c2.15961,-0.43192 2.69951,1.18779 4.4272,3.67134z" fill="#ffffff" stroke="none" stroke-width="1" stroke-linecap="butt" stroke-linejoin="miter"/></g><path d="M232.63516,158.54423c-1.94365,1.29577 -8.63844,6.04691 -17.1689,8.74642l-0.43192,0.10798c-0.43192,0.10798 -0.64788,0.64788 -0.43192,1.07981c1.83567,2.59153 5.18306,7.7746 -0.75586,9.61027c-5.72297,1.83567 -16.41304,-13.38958 -11.87786,-17.38486c2.05163,-1.51173 3.8873,-0.75586 4.85912,-0.32394c0.5399,0.21596 1.07981,0.21596 1.61971,0.10798c1.29577,-0.43192 3.67134,-1.29577 5.50701,-2.26759c4.64316,-2.37557 5.72297,-3.3474 7.88258,-4.9671c2.15961,-1.61971 7.12671,-5.61499 11.12199,-2.15961c3.45538,2.91547 1.51173,6.15489 -0.32394,7.45066z" fill="#ffab19" stroke="#001026" stroke-width="1.2" stroke-linecap="round" stroke-linejoin="round"/><path d="M249.80406,136.08428c0.5399,0.43192 7.12671,8.20652 9.28632,6.26287c2.59153,-2.26759 6.15489,-6.69479 10.04219,-3.13143c3.8873,3.56336 -3.45538,9.61027 -6.58681,11.22997c-7.45066,3.3474 -13.49756,-3.02345 -14.79333,-4.75114c-1.29577,-1.72769 -3.56336,-4.64316 -3.56336,-7.45066c0.10798,-3.02345 3.77932,-3.77932 5.61499,-2.15961z" fill="#ffab19" stroke="#001026" stroke-width="1.2" stroke-linecap="round" stroke-linejoin="round"/><g><path d="M249.91204,161.24374c2.26759,2.05163 7.23469,6.26287 7.23469,6.26287c0,0 15.44121,-2.69951 15.44121,5.07508c0,4.64316 -7.7746,5.72297 -18.24871,4.75114c-0.64788,-0.10798 -1.29577,-0.32394 -1.83567,-0.75586c-2.37557,-2.05163 -9.17834,-8.09854 -13.49756,-12.30978c-6.37085,-6.26287 -11.66189,-10.36613 -11.66189,-10.36613c-9.17834,-8.96238 -1.72769,-12.7417 1.18779,-17.92476c2.69951,-4.4272 3.8873,-3.56336 10.36613,-2.26759c3.67134,0.5399 5.83095,0.86384 8.20652,0.75586c3.56336,-0.10798 2.91547,5.07508 1.94365,7.7746c0,0 -1.51173,3.99528 -2.91547,6.04691c-1.72769,2.48355 -3.02345,4.10326 -4.31922,5.07508z" fill="#ffab19" stroke="#001026" stroke-width="1.2" stroke-linecap="round" stroke-linejoin="round"/><path d="M240.84167,153.25318c0,0 -1.61971,-1.29577 -3.3474,-2.91547c-2.15961,-1.94365 -4.31922,-3.56336 -2.15961,-6.91075c1.94365,-2.59153 3.77932,-6.04691 8.63844,-2.91547c4.64316,2.91547 2.59153,5.61499 2.59153,5.61499c-2.37557,4.85912 -5.72297,7.12671 -5.72297,7.12671z" fill="#ffffff" stroke="none" stroke-width="1" stroke-linecap="butt" stroke-linejoin="miter"/></g><path d="M224.53662,144.39878c2.37557,3.02345 6.04691,6.80277 1.40375,9.93421c-6.37085,3.56336 -11.66189,-7.23469 -12.7417,-11.01401c-0.97182,-3.3474 1.83567,-5.50701 4.21124,-7.34267c4.64316,-3.3474 8.53046,-6.37085 12.84968,-4.75114c5.39903,1.94365 1.51173,6.26287 -1.18779,8.20652c-1.61971,1.18779 -3.23942,2.48355 -4.4272,3.23942c-0.32394,0.5399 -0.43192,1.18779 -0.10798,1.72769z" fill="#ffab19" stroke="#001026" stroke-width="1.2" stroke-linecap="round" stroke-linejoin="round"/><g><path d="M258.55048,71.61992c0.32394,-0.21596 0.86384,-0.10798 0.97182,0.32394l2.80749,11.55391c0,0 6.91075,5.07508 8.96238,8.63844c3.45538,5.93893 3.56336,10.79805 3.56336,10.79805c0,0 7.66662,2.26759 8.96238,8.42248c1.29577,6.15489 -3.45538,17.81678 -23.75571,21.81206c-20.30034,3.99528 -36.60539,-1.51173 -44.27201,-13.8215c-7.66662,-12.30978 4.4272,-26.99513 3.77932,-26.13128l-2.26759,-19.32851c-0.10798,-0.43192 0.43192,-0.75586 0.86384,-0.5399l13.06564,8.53046c0,0 4.85912,-1.83567 9.93421,-2.05163c3.02345,-0.21596 5.61499,0 8.09854,0.43192z" fill="#ffab19" stroke="#001026" stroke-width="1.2" stroke-linecap="butt" stroke-linejoin="miter"/><path d="M274.53159,103.36619c0,0 7.45066,1.94365 8.74642,8.09854c1.29577,6.15489 -3.8873,17.27688 -23.97167,21.16418c-26.13128,5.39903 -38.54904,-10.15017 -31.31435,-21.5961c7.23469,-11.55391 19.65245,-1.72769 28.72282,-2.37557c7.7746,-0.5399 8.63844,-7.34267 17.81678,-5.29104z" fill="#ffffff" stroke="none" stroke-width="1" stroke-linecap="butt" stroke-linejoin="miter"/><path d="M240.51773,114.9201c0,-0.43192 0.43192,-0.75586 0.86384,-0.64788c2.05163,0.75586 7.88258,2.48355 14.36141,2.91547c5.83095,0.32394 9.28632,0 10.90603,-0.32394c0.5399,-0.10798 0.97182,0.43192 0.75586,0.97182c-0.97182,2.91547 -5.07508,11.01401 -16.41304,10.36613c-9.82623,-1.07981 -10.79805,-7.99056 -10.47411,-13.2816z" fill="#ffffff" stroke="#001026" stroke-width="1.2" stroke-linecap="round" stroke-linejoin="round"/><path d="M294.40001,104.55397c-5.07508,4.10326 -12.84968,4.21124 -12.84968,4.21124" fill="none" stroke="#001026" stroke-width="1.2" stroke-linecap="round" stroke-linejoin="round"/><path d="M292.99626,116.64779c-6.80277,0.5399 -11.01401,-1.51173 -11.01401,-1.51173" fill="none" stroke="#001026" stroke-width="1.2" stroke-linecap="round" stroke-linejoin="round"/><path d="M256.28289,105.84974c2.26759,0 4.64316,0.21596 4.75114,0.97182c0.10798,1.51173 -1.51173,4.53518 -3.23942,4.64316c-1.94365,0.21596 -6.47883,-2.48355 -6.47883,-4.21124c-0.10798,-1.29577 2.80749,-1.40375 4.9671,-1.40375z" fill="#001026" stroke="#001026" stroke-width="1.2" stroke-linecap="round" stroke-linejoin="round"/><path d="M207.69166,104.23003c0,0 9.28632,3.02345 13.06564,6.37085" fill="none" stroke="#001026" stroke-width="1.2" stroke-linecap="round" stroke-linejoin="round"/><path d="M221.08124,114.3802c-4.64316,1.83567 -12.63372,0.64788 -12.63372,0.64788" fill="none" stroke="#001026" stroke-width="1.2" stroke-linecap="round" stroke-linejoin="round"/><g><path d="M269.02459,93.21602c3.13143,4.85912 3.23942,10.36613 0.21596,12.30978c-3.02345,1.94365 -7.99056,-0.32394 -11.22997,-5.18306c-3.13143,-4.85912 -3.23942,-10.36613 -0.21596,-12.30978c3.02345,-2.05163 8.09854,0.32394 11.22997,5.18306z" fill="#ffffff" stroke="#001026" stroke-width="1.2" stroke-linecap="round" stroke-linejoin="round"/><path d="M268.59265,99.37091c0,1.18779 -0.86384,2.15961 -1.94365,2.15961c-1.07981,0 -1.94365,-0.97182 -1.94365,-2.15961c0,-1.18779 0.86384,-2.15961 1.94365,-2.15961c1.07981,0 1.94365,0.97182 1.94365,2.15961" fill="#001026" stroke="none" stroke-width="1" stroke-linecap="butt" stroke-linejoin="miter"/></g><g><path d="M242.24542,96.23947c3.23942,4.75114 3.02345,10.58209 0.10798,12.63372c-3.56336,2.05163 -8.3145,0.5399 -11.55391,-4.21124c-3.3474,-4.75114 -3.56336,-10.90603 -0.21596,-13.2816c3.3474,-2.48355 8.42248,0.10798 11.66189,4.85912z" fill="#ffffff" stroke="#001026" stroke-width="1.2" stroke-linecap="round" stroke-linejoin="round"/><path d="M241.59754,102.50234c0,1.18779 -0.86384,2.15961 -1.94365,2.15961c-1.07981,0 -1.94365,-0.97182 -1.94365,-2.15961c0,-1.18779 0.86384,-2.15961 1.94365,-2.15961c1.07981,0.10798 1.94365,0.97182 1.94365,2.15961" fill="#001026" stroke="none" stroke-width="1" stroke-linecap="butt" stroke-linejoin="miter"/></g></g></g></g></g></svg>