<svg version="1.1" xmlns="http://www.w3.org/2000/svg" xmlns:xlink="http://www.w3.org/1999/xlink" width="103" height="167.32415" viewBox="0,0,103,167.32415"><defs><linearGradient x1="240.61954" y1="58.29929" x2="240.61954" y2="237.16749" gradientUnits="userSpaceOnUse" id="color-1"><stop offset="0" stop-color="#000000"/><stop offset="1" stop-color="#000000" stop-opacity="0"/></linearGradient></defs><g transform="translate(-188.00005,-39.11115)"><g data-paper-data="{&quot;isPaintingLayer&quot;:true}" fill-rule="nonzero" stroke-linecap="butt" stroke-linejoin="miter" stroke-miterlimit="10" stroke-dasharray="" stroke-dashoffset="0" style="mix-blend-mode: normal"><path d="M284.37023,179.70936c0.07585,1.88165 -6.82295,7.07192 -42.75929,7.07192c-35.93634,0 -45.96971,-4.43047 -45.98172,-7.45949c-0.01038,-2.6151 9.30175,-6.10294 45.23807,-6.10294c35.93634,0 43.43354,4.76932 43.50294,6.49051z" fill="url(#color-1)" stroke="none" stroke-width="0"/><text transform="translate(223.98221,201.58752) scale(0.28942,0.28942)" font-size="40" xml:space="preserve" fill="#ffffff" fill-rule="nonzero" stroke="#ffffff" stroke-width="0.5" stroke-linecap="butt" stroke-linejoin="miter" stroke-miterlimit="10" stroke-dasharray="" stroke-dashoffset="0" font-family="Handwriting" font-weight="normal" text-anchor="start" style="mix-blend-mode: normal"></text><text transform="translate(224.25238,50.62363) scale(0.30296,0.30296)" font-size="40" xml:space="preserve" fill="#ffffff" fill-rule="nonzero" stroke="#ffffff" stroke-width="1" stroke-linecap="butt" stroke-linejoin="miter" stroke-miterlimit="10" stroke-dasharray="" stroke-dashoffset="0" font-family="Handwriting" font-weight="normal" text-anchor="start" style="mix-blend-mode: normal"></text><text transform="translate(198.77151,67.97378) scale(0.23622,0.23622)" font-size="40" xml:space="preserve" fill="#ffffff" fill-rule="nonzero" stroke="#ffffff" stroke-width="1" stroke-linecap="butt" stroke-linejoin="miter" stroke-miterlimit="10" stroke-dasharray="" stroke-dashoffset="0" font-family="Handwriting" font-weight="normal" text-anchor="start" style="mix-blend-mode: normal"></text><g><path d="M289.75005,129.25004c0,27.3381 -22.49769,49.5 -50.25,49.5c-27.75231,0 -50.25,-22.1619 -50.25,-49.5c0,-27.33809 22.49769,-49.5 50.25,-49.5c27.75231,0 50.25,22.16191 50.25,49.5z" fill="#cac7bd" stroke="#000000" stroke-width="2.5"/><path d="M249.50003,154.66668c1.32243,3.02521 2.02466,17.3476 -6.02051,22.33768c-2.46624,1.5297 -5.62919,0.16233 -10.97949,-0.17101c-17.08769,-1.06459 -38,-18.42656 -40.33334,-35.16667c-0.99373,-7.1293 -2.59046,-17.22324 -0.07421,-26.25716c2.62027,-9.40739 46.67512,-8.05851 43.74088,0.75717c-1.88611,5.66666 -8.52162,21.24605 -5.89132,25.98131c5.95915,10.72807 8.50056,11.12609 11.2006,11.24261c3.59965,0.15534 6.77804,-2.33687 8.35738,1.27608z" fill="#c79f8f" stroke="none" stroke-width="0"/><path d="M220.16711,171.26182c-11.53152,0 -28.65663,-18.30082 -26.92501,-29.43338c0.35932,-2.31007 9.12361,-0.36767 18.60425,-6.00498c6.64954,-3.9539 7.68563,-5.25894 17.7668,-11.98006c4.49547,-0.32157 -5.56848,11.60653 -3.45462,23.92232c1.65867,9.66376 18.07971,5.18191 14.68681,11.78995c-3.34653,6.51772 -17.19011,11.70615 -20.67822,11.70615z" fill="#bd5c57" stroke="none" stroke-width="0"/><path d="M210.06746,103.29032c0,1.93882 -1.49103,4.31758 -3.42986,4.31758c-1.93883,0 -3.26844,-2.37875 -3.26844,-4.31758c0,-1.93882 0.684,-3.59126 2.62283,-3.59126c1.93883,0 4.07547,1.65243 4.07547,3.59126zM206.75866,106.63946c1.33712,0 2.25967,-1.40675 2.25967,-2.74387c0,-1.33713 -1.24535,-2.82458 -2.58247,-2.82458c-1.33712,0 -2.25967,1.48747 -2.25967,2.82459c0,1.33713 1.24535,2.74388 2.58247,2.74388z" fill="#adaaa2" stroke="none" stroke-width="0"/><path d="M270.63487,100.58309c0,2.2347 -2.39256,1.3829 -4.71211,1.3829c-2.31955,0 -4.19993,-0.37745 -4.19993,-2.61215c0,-2.23469 1.88038,-4.04627 4.19993,-4.04627c2.31955,0 4.71211,3.04082 4.71211,5.27552zM265.92276,101.1465c1.69724,0 3.07312,-0.35151 3.07312,-2.04875c0,-1.69724 -1.37588,-2.66337 -3.07312,-2.66337c-1.69724,0 -3.07311,0.55638 -3.07311,2.25362c0,1.69724 1.37588,2.45849 3.07311,2.45849z" fill="#e8dad0" stroke="none" stroke-width="0"/><path d="M211.20335,148.98033c0,3.47555 -2.70773,7.28294 -6.22233,7.28294c-3.51459,0 -6.36373,-2.81748 -6.36373,-6.29302c0,-3.47555 2.84913,-6.29302 6.36373,-6.29302c3.51459,0 6.22233,1.82756 6.22233,5.30311zM204.98098,154.99055c2.34307,0 4.24248,-3.17217 4.24248,-5.51525c0,-2.34307 -2.04084,-4.10107 -4.3839,-4.10107c-2.34307,0 -4.52533,2.18225 -4.52533,4.52533c0,2.34307 2.32368,5.09099 4.66674,5.09099z" fill="#adaaa2" stroke="none" stroke-width="0"/><path d="M285.53103,123.94706c0,3.62145 -2.8214,7.58868 -6.48354,7.58868c-3.66214,0 -6.63088,-2.93576 -6.63088,-6.55721c0,-3.62145 2.96874,-6.55721 6.63088,-6.55721c3.66214,0 6.48354,1.90429 6.48354,5.52574zM279.04751,130.20956c2.44143,0 4.42059,-3.30534 4.42059,-5.74677c0,-2.44143 -2.12651,-4.27324 -4.56794,-4.27324c-2.44143,0 -4.7153,2.27387 -4.7153,4.7153c0,2.44143 2.42123,5.30471 4.86265,5.30471z" fill="#e8dad0" stroke="none" stroke-width="0"/><path d="M227.98644,95.80766c0,2.29084 -1.65301,4.14792 -3.69211,4.14792c-2.03909,0 -5.05956,-1.76592 -5.05956,-4.05676c0,-2.29084 3.02046,-4.23909 5.05956,-4.23909c2.03909,0 3.69211,1.85709 3.69211,4.14792zM225.35327,97.48642c0.65827,-0.49942 1.08341,-1.29014 1.08341,-2.18016c0,-1.32774 -0.94616,-2.4345 -2.20102,-2.68282c-0.17266,-0.03417 -0.35118,-0.05208 -0.53388,-0.05208c-1.3939,-0.3053 -2.91722,1.54524 -2.91722,2.7349c0,1.41221 1.07007,2.39781 2.28861,2.66231c0.20184,0.04747 0.41229,0.07259 0.62862,0.07259c0.0513,0 0.10226,-0.00141 0.15286,-0.0042c0.4223,-0.01787 0.83929,-0.12655 1.21459,-0.33766c0.10596,-0.0596 0.19984,-0.13137 0.28404,-0.21288z" fill="#cfb7a5" stroke="none" stroke-width="0"/><path d="M287.16668,137.16668c0,5.33875 -12.62149,28.66667 -17.5,28.66667c-4.87851,0 -0.16667,-9.66125 -0.16667,-15c0,-5.33875 4.28816,-11.33334 9.16667,-11.33334c4.87851,0 8.5,-7.67209 8.5,-2.33334z" fill="#c79f8f" stroke="none" stroke-width="0"/><path d="M286.50001,140.83335c0,2.20655 -1.61008,7.24257 -4.32603,11.95316c-2.49574,4.32864 -6.029,8.38248 -7.84063,9.7135c-1.36109,1 -0.83333,-7.09915 -0.83333,-11.33334c0,-4.23418 3.80558,-7.66666 8.5,-7.66666c4.69442,0 4.5,-6.90085 4.5,-2.66666z" fill="#bd5c57" stroke="none" stroke-width="0"/><path d="M267.83336,90.16668c2.83213,2.46191 7.14778,21.44937 2.78809,25.14332c-2.91215,2.46746 -7.27611,-6.80508 -23.62143,-5.80998c-13.98864,0.85162 -43.20904,-13.52991 -35.83334,-19c6.05913,-4.49368 15.81979,-9.33334 29.16667,-9.33334c13.34688,0 21.83333,4.07411 27.5,9z" fill="#cfbf8b" stroke="none" stroke-width="0"/><path d="M272.1948,141.22692c-1.20804,1.10944 -7.67507,4.07698 -8.28068,7.34972c-1.52861,8.26059 5.51683,18.58929 3.04555,20.7355c-1.55286,1.34859 -9.61188,6.22862 -16.16523,7.67872c-5.63477,1.24684 -13.89568,0.17582 -14.96109,0.17582c-5.29174,0 9.84088,-8.15454 10.12345,-18.34839c0.2286,-8.24717 -12.45678,-17.50795 -12.45678,-22.81827c0,-11.87412 8.42706,-21.16667 19.33334,-20.83334c3.56916,0.10908 9.83606,1.61074 16.25314,3.0294c1.66296,0.36764 10.63336,-6.98073 13.7777,1.05255c5.84042,14.92135 -6.59935,18.24042 -10.66938,21.97829z" fill="#deddd8" stroke="none" stroke-width="0"/><path d="M220.39216,98.7615c-2.28053,0.793 -6.0679,0.45063 -6.90647,-1.96097c-0.83858,-2.4116 1.2712,-3.52773 3.55173,-4.32073c2.28053,-0.793 3.86822,-0.96258 4.70681,1.44902c0.83858,2.4116 0.92848,4.03968 -1.35205,4.83268zM214.65782,96.49937c0.66821,1.52519 2.90081,2.39622 4.47359,1.84933c1.57278,-0.5469 2.40442,-2.26524 1.85752,-3.83801c-0.54689,-1.57277 -2.10019,-1.92979 -3.67297,-1.3829c-0.29151,0.10137 -3.68962,1.01723 -2.65814,3.37159z" fill="#adaaa2" stroke="none" stroke-width="0"/><path d="M277.58563,122.01794c0,2.06096 -2.05641,2.70548 -4.47804,2.70548c-2.42163,0 -4.29145,-0.64453 -4.29145,-2.70548c0,-2.06096 1.86982,-4.75791 4.29145,-4.75791c2.42163,0 4.47804,2.69696 4.47804,4.75791zM272.64113,123.88379c1.54572,0 3.45182,-0.04025 3.45182,-1.58597c0,-1.54572 -1.62622,-4.01157 -3.17194,-4.01157c-1.54572,0 -2.98537,1.53293 -2.98537,3.07865c0,1.54572 1.15976,2.5189 2.70549,2.5189z" fill="#adaaa2" stroke="none" stroke-width="0"/><path d="M287.38453,129.88807c0,1.96925 -1.42096,3.56563 -3.17381,3.56563c-1.75284,0 -4.34929,-1.51802 -4.34929,-3.48727c0,-1.96925 2.59645,-3.644 4.34929,-3.644c1.75284,0 3.17381,1.59639 3.17381,3.56564zM285.121,131.33116c0.56586,-0.42932 0.93133,-1.10903 0.93133,-1.8741c0,-1.14136 -0.81334,-2.09275 -1.89204,-2.3062c-0.14842,-0.02937 -0.30189,-0.04477 -0.45893,-0.04477c-1.19822,-0.26244 -2.5077,1.32832 -2.5077,2.35097c0,1.21397 0.91985,2.06121 1.96733,2.28857c0.1735,0.04081 0.35441,0.06239 0.54037,0.06239c0.0441,0 0.08791,-0.00121 0.1314,-0.00361c0.36302,-0.01537 0.72147,-0.10879 1.04408,-0.29026c0.09108,-0.05123 0.17178,-0.11293 0.24416,-0.183z" fill="#adaaa2" stroke="none" stroke-width="0"/><path d="M225.72551,163.42816c-2.28053,0.793 -6.0679,0.45063 -6.90647,-1.96097c-0.83858,-2.41159 1.2712,-3.52772 3.55173,-4.32072c2.28053,-0.793 3.86822,-0.96258 4.70681,1.44901c0.83858,2.4116 0.92848,4.03968 -1.35205,4.83268zM219.99115,161.16603c0.66821,1.52519 2.90081,2.39621 4.47359,1.84932c1.57278,-0.5469 2.40442,-2.26523 1.85752,-3.83802c-0.54689,-1.57277 -2.10019,-1.92979 -3.67297,-1.3829c-0.29151,0.10137 -3.68962,1.01723 -2.65814,3.37159z" fill="#adaaa2" stroke="none" stroke-width="0"/></g></g></g></svg>