<svg version="1.1" xmlns="http://www.w3.org/2000/svg" xmlns:xlink="http://www.w3.org/1999/xlink" width="111.13412" height="168.12621" viewBox="0,0,111.13412,168.12621"><defs><linearGradient x1="240.76949" y1="58.29923" x2="240.76949" y2="237.16742" gradientUnits="userSpaceOnUse" id="color-1"><stop offset="0" stop-color="#000000"/><stop offset="1" stop-color="#000000" stop-opacity="0"/></linearGradient></defs><g transform="translate(-184.87917,-42.1547)"><g data-paper-data="{&quot;isPaintingLayer&quot;:true}" fill-rule="nonzero" stroke-linecap="butt" stroke-linejoin="miter" stroke-miterlimit="10" stroke-dasharray="" stroke-dashoffset="0" style="mix-blend-mode: normal"><path d="M295.12005,179.70931c0.09422,1.88165 -8.47599,7.07192 -53.11886,7.07192c-44.64286,0 -57.10709,-4.43047 -57.12201,-7.45949c-0.0129,-2.6151 11.55535,-6.10294 56.19819,-6.10294c44.64286,0 53.95646,4.76932 54.04268,6.49051z" fill="url(#color-1)" stroke="none" stroke-width="0"/><text transform="translate(225.15799,205.43312) scale(0.28942,0.28942)" font-size="40" xml:space="preserve" fill="#000000" fill-rule="nonzero" stroke="#000000" stroke-width="0.5" stroke-linecap="butt" stroke-linejoin="miter" stroke-miterlimit="10" stroke-dasharray="" stroke-dashoffset="0" font-family="Handwriting" font-weight="normal" text-anchor="start" style="mix-blend-mode: normal"></text><text transform="translate(188.11327,53.66718) scale(0.30296,0.30296)" font-size="40" xml:space="preserve" fill="#000000" fill-rule="nonzero" stroke="#000000" stroke-width="1" stroke-linecap="butt" stroke-linejoin="miter" stroke-miterlimit="10" stroke-dasharray="" stroke-dashoffset="0" font-family="Handwriting" font-weight="normal" text-anchor="start" style="mix-blend-mode: normal"></text><text transform="translate(187.50711,69.42655) scale(0.23622,0.23622)" font-size="40" xml:space="preserve" fill="#000000" fill-rule="nonzero" stroke="#000000" stroke-width="1" stroke-linecap="butt" stroke-linejoin="miter" stroke-miterlimit="10" stroke-dasharray="" stroke-dashoffset="0" font-family="Handwriting" font-weight="normal" text-anchor="start" style="mix-blend-mode: normal"></text><path d="M188.00004,178.00541c0,0 5.05518,-17.71172 9.191,-24.67821c2.4644,-4.15111 4.19195,2.87613 5.46063,-0.56216c4.45199,-12.06547 -0.01527,-30.66254 -0.01527,-30.66254l31.06352,-13.08536l21.91582,-27.08715l9.83427,6.79102l17.41107,35.14912c0,0 -0.77364,4.32842 0.21271,11.00524c0.4562,3.08812 0.53175,-1.84691 1.57491,4.00772c2.43117,13.64461 6.44226,40.69707 6.44226,40.69707l-24.07962,2.68373l-19.0913,-3.4768l-32.66117,2.24307z" fill="#cdd5b8" stroke="none" stroke-width="NaN"/><path d="M214.56822,155.76234l10.81818,-27.95146l10.5,-19.29045l3.18182,26.37673l8.86873,44.00752l-33.3309,2.16283l13.14741,-19.43735z" fill="#a5a88f" stroke="none" stroke-width="0"/><path d="M249.22356,132.3327c2.17147,-7.2461 -4.29054,-9.55936 -3.44358,-14.05338c2.20225,-11.68528 9.19733,-28.65567 9.19733,-28.65567l27.04546,34.25039l2.22727,10.23575l-28.56344,3.47113c0,0 -4.8857,6.74825 -8.30004,13.80714c-2.44657,5.0581 -3.51841,11.23342 -4.35864,10.77219c-0.43349,-0.23796 -4.69466,-6.71371 -3.80623,-11.07424c0.70107,-3.4409 2.48021,-0.67033 5.6219,-5.31952c2.74995,-4.06947 4.05209,-12.33964 4.37997,-13.43378z" fill="#a5a88f" stroke="none" stroke-width="0"/><path d="M267.3864,182.13907l-17.48749,-45.18076c0,0 21.26127,-6.58908 28.28812,-7.42929c4.03422,-0.48238 10.13682,4.05744 10.13682,4.05744c0,0 1.32459,14.96073 1.95881,22.61156c0.63849,7.70244 0.96738,23.97263 0.96738,23.97263z" fill="#a5a88f" stroke="none" stroke-width="0"/><path d="M282.65909,125.0551c-1.96309,0 -25.89918,-12.07603 -26.65757,-16.60215c-0.31123,-1.85747 -1.03703,-11.9781 -1.31205,-18.79183c-0.07787,-1.92928 -7.71463,4.56722 -7.6477,3.09125c0.11876,-2.6191 7.76769,-11.00234 8.25369,-11.00234c1.09628,0 8.947,4.87129 10.59959,6.97543c1.79575,2.28641 19.35804,36.32967 16.76404,36.32967z" fill="#f2f7ff" stroke="none" stroke-width="0"/><path d="M283.21593,124.95668c-4.71145,0.69302 -26.04327,-13.15558 -27.52272,-16.33783c-0.00905,-0.01949 2.37486,-14.76411 6.83159,-12.35926c8.43642,4.5523 21.5605,27.84235 20.69114,28.69709z" fill="#cddfff" stroke="none" stroke-width="0"/></g></g></svg>