<svg version="1.1" xmlns="http://www.w3.org/2000/svg" xmlns:xlink="http://www.w3.org/1999/xlink" width="143.94219" height="178.50691" viewBox="0,0,143.94219,178.50691"><defs><linearGradient x1="273.81085" y1="-7.39274" x2="273.81085" y2="269.4953" gradientUnits="userSpaceOnUse" id="color-1"><stop offset="0" stop-color="#000000"/><stop offset="1" stop-color="#000000" stop-opacity="0"/></linearGradient></defs><g transform="translate(-201.00421,-41.15399)"><g data-paper-data="{&quot;isPaintingLayer&quot;:true}" fill-rule="nonzero" stroke-linejoin="miter" stroke-miterlimit="10" stroke-dasharray="" stroke-dashoffset="0" style="mix-blend-mode: normal"><path d="M331.08297,180.55003c0.0993,2.91279 -8.93162,10.94732 -55.97417,10.94732c-47.04256,0 -60.17678,-6.8584 -60.19251,-11.54727c-0.01359,-4.04815 12.17649,-9.44736 59.21905,-9.44736c47.04256,0 56.85679,7.38292 56.94764,10.04731z" fill="url(#color-1)" stroke="none" stroke-width="0" stroke-linecap="butt"/><text transform="translate(254.76855,211.83836) scale(0.46015,0.46015)" font-size="40" xml:space="preserve" fill="#000000" fill-rule="nonzero" stroke="#000000" stroke-width="1" stroke-linecap="butt" stroke-linejoin="miter" stroke-miterlimit="10" stroke-dasharray="" stroke-dashoffset="0" font-family="Handwriting" font-weight="normal" text-anchor="start" style="mix-blend-mode: normal"></text><text transform="translate(201.25355,60.10422) scale(0.49869,0.49869)" font-size="40" xml:space="preserve" fill="#000000" fill-rule="nonzero" stroke="#000000" stroke-width="1" stroke-linecap="butt" stroke-linejoin="miter" stroke-miterlimit="10" stroke-dasharray="" stroke-dashoffset="0" font-family="Handwriting" font-weight="normal" text-anchor="start" style="mix-blend-mode: normal"></text><g fill="none" stroke-width="2.5" stroke-linecap="round"><g stroke="#454441"><g><path d="M326.66132,130.12762l-82.26611,-0.36736"/><path d="M324.8794,106.24923l-82.26612,-0.36736"/><path d="M242.61328,153.63863l82.26612,0.36737"/><path d="M237.86144,167.96566l82.26613,0.36736"/><path d="M238.15844,90.82011l82.26612,0.36736"/><path d="M312.10884,176.7823c0,0 -82.00641,0.14987 -82.32552,0.36736c-0.39589,0.26981 4.82307,-8.94553 4.82307,-8.94553l3.51039,-0.32584l4.31805,-14.43031l-4.76292,0.13696l0.83146,-24.2549c0,0 5.30755,0.39696 5.30587,0.10574c-0.05293,-9.17676 -2.2706,-23.32898 -2.2706,-23.32898l-4.42888,-0.40767l-5.92417,-14.95789l6.0782,0.14661c0,0 -7.34023,-10.36209 -7.42107,-10.35383c-0.50824,0.05195 82.8601,0.73472 82.8601,0.73472c0,0 4.71022,8.45982 4.93285,9.00496c0.40789,0.99876 3.01855,0.33339 3.14556,0.57341c1.93993,3.66617 3.8302,8.13625 5.13284,15.36722c0.03264,0.18117 -4.26896,-0.1202 -4.26896,-0.1202l1.96747,24.32317c0,0 4.39003,-0.27998 4.36693,0.00429c-0.08851,9.57579 -1.07855,17.4284 -2.5275,23.49645c-0.04411,0.3577 -4.03031,-0.04033 -4.03031,-0.04033l-5.2032,13.72271c0,0 3.96638,0.97971 3.75692,1.27949c-4.21616,6.03412 -7.86657,7.90237 -7.86657,7.90237z"/></g><g><path d="M249.50126,90.92734c1.87387,5.30841 2.89656,9.83465 3.71061,14.76433"/><path d="M255.08244,129.93263c-0.25564,11.77149 -1.04014,17.42482 -2.50501,24.1947"/><path d="M248.8058,168.12171c-2.66329,6.62708 -5.00456,8.84428 -5.00456,8.84428"/><path d="M258.35373,80.71772c0,0 1.77614,3.14006 3.9676,9.20626"/><path d="M266.4045,105.29813c1.25131,6.85923 2.24963,15.09548 2.04248,24.6345"/><path d="M266.06185,153.44914c-1.17994,7.07332 -3.20839,11.55236 -4.82326,15.11666"/></g><g><path d="M275.04237,91.2947c1.87387,5.30841 2.89656,9.83465 3.71061,14.76433"/><path d="M280.62354,130.29999c-0.25564,11.77149 -1.04014,17.42482 -2.50501,24.19469"/><path d="M274.34691,168.48907c-2.66329,6.62708 -5.00456,8.84428 -5.00456,8.84428"/><path d="M283.89484,81.08508c0,0 1.77614,3.14005 3.9676,9.20625"/><path d="M291.94561,105.6655c1.25131,6.85923 2.24963,15.09548 2.04248,24.6345"/><path d="M291.60296,153.81651c-1.17994,7.07332 -3.20839,11.55236 -4.82327,15.11666"/></g><g><path d="M304.44433,91.2947c1.87387,5.30841 2.89657,9.83465 3.71061,14.76433"/><path d="M310.02552,130.29999c-0.25563,11.77149 -1.04014,17.42482 -2.50501,24.19469"/><path d="M303.74888,168.48907c-2.66328,6.62708 -5.00456,8.84428 -5.00456,8.84428"/></g></g><g data-paper-data="{&quot;index&quot;:null}" stroke="#80807d"><g><path d="M297.16035,127.73975l-82.26612,-0.36737"/><path d="M298.94228,151.61814l-82.26612,-0.36737"/><path d="M216.67616,103.494l82.26612,0.36736"/><path d="M303.69413,89.53434l-82.26613,-0.36737"/><path d="M221.13102,166.31254l82.26612,0.36735"/><path d="M229.44672,80.71769c0,0 82.00641,-0.14987 82.32552,-0.36735c0.39589,-0.26981 -4.82307,8.94552 -4.82307,8.94552l-3.51039,0.32584l-4.31805,14.43031l4.76292,-0.13697l-0.83146,24.2549c0,0 -5.30755,-0.39696 -5.30587,-0.10574c0.05293,9.17676 2.27061,23.32898 2.27061,23.32898l4.42887,0.40767l5.92417,14.95789l-6.0782,-0.14661c0,0 7.34023,10.36209 7.42107,10.35383c0.50824,-0.05195 -82.8601,-0.73472 -82.8601,-0.73472c0,0 -4.71022,-8.45982 -4.93285,-9.00495c-0.40789,-0.99876 -3.01855,-0.33339 -3.14556,-0.57341c-1.93993,-3.66618 -3.83021,-8.13625 -5.13285,-15.36722c-0.03263,-0.18117 4.26896,0.1202 4.26896,0.1202l-1.96747,-24.32317c0,0 -4.39003,0.27998 -4.36693,-0.00429c0.08852,-9.57579 1.07855,-17.4284 2.5275,-23.49645c0.04411,-0.3577 4.03032,0.04033 4.03032,0.04033l5.2032,-13.72271c0,0 -3.96638,-0.97971 -3.75692,-1.27949c4.21616,-6.03412 7.86657,-7.90237 7.86657,-7.90237z"/></g><g><path d="M292.05431,166.57267c-1.87387,-5.30841 -2.89656,-9.83465 -3.7106,-14.76433"/><path d="M286.47313,127.56737c0.25564,-11.77148 1.04014,-17.42482 2.50501,-24.19469"/><path d="M292.74976,89.3783c2.66328,-6.62708 5.00456,-8.84428 5.00456,-8.84428"/><path d="M283.20183,176.78228c0,0 -1.77614,-3.14005 -3.9676,-9.20626"/><path d="M275.15107,152.20187c-1.25131,-6.85923 -2.24964,-15.09549 -2.04248,-24.6345"/><path d="M275.49371,104.05086c1.17994,-7.07331 3.20839,-11.55235 4.82326,-15.11665"/></g><g><path d="M266.5132,166.2053c-1.87387,-5.30841 -2.89656,-9.83465 -3.7106,-14.76433"/><path d="M260.93201,127.20001c0.25564,-11.77148 1.04014,-17.42482 2.50501,-24.1947"/><path d="M267.20867,89.01094c2.66329,-6.62708 5.00456,-8.84428 5.00456,-8.84428"/><path d="M257.66074,176.41492c0,0 -1.77615,-3.14005 -3.96761,-9.20625"/><path d="M249.60997,151.83451c-1.25131,-6.85923 -2.24964,-15.09548 -2.04248,-24.63449"/><path d="M249.9526,103.68349c1.17994,-7.07331 3.20839,-11.55236 4.82327,-15.11666"/></g><g><path d="M237.11124,166.2053c-1.87387,-5.30841 -2.89657,-9.83465 -3.71061,-14.76433"/><path d="M231.53005,127.20001c0.25564,-11.77148 1.04015,-17.42482 2.50502,-24.1947"/><path d="M237.8067,89.01094c2.66329,-6.62708 5.00456,-8.84428 5.00456,-8.84428"/></g></g></g></g></g></svg>