<svg version="1.1" xmlns="http://www.w3.org/2000/svg" xmlns:xlink="http://www.w3.org/1999/xlink" width="110.48821" height="182.23262" viewBox="0,0,110.48821,182.23262"><defs><linearGradient x1="240.95283" y1="56.63257" x2="240.95283" y2="235.50077" gradientUnits="userSpaceOnUse" id="color-1"><stop offset="0" stop-color="#000000"/><stop offset="1" stop-color="#000000" stop-opacity="0"/></linearGradient></defs><g transform="translate(-186.65336,-24.10894)"><g data-paper-data="{&quot;isPaintingLayer&quot;:true}" fill-rule="nonzero" stroke-linecap="butt" stroke-linejoin="miter" stroke-miterlimit="10" stroke-dasharray="" stroke-dashoffset="0" style="mix-blend-mode: normal"><path d="M284.70357,178.04265c0.07585,1.88165 -6.82295,7.07192 -42.75929,7.07192c-35.93634,0 -45.96971,-4.43047 -45.98172,-7.45949c-0.01038,-2.6151 9.30175,-6.10294 45.23807,-6.10294c35.93634,0 43.43354,4.76932 43.50294,6.49051z" fill="url(#color-1)" stroke="none" stroke-width="0"/><text transform="translate(223.48215,201.49378) scale(0.28942,0.28942)" font-size="40" xml:space="preserve" fill="#ffffff" fill-rule="nonzero" stroke="#ffffff" stroke-width="0.5" stroke-linecap="butt" stroke-linejoin="miter" stroke-miterlimit="10" stroke-dasharray="" stroke-dashoffset="0" font-family="Handwriting" font-weight="normal" text-anchor="start" style="mix-blend-mode: normal"></text><text transform="translate(214.25234,35.66284) scale(0.30405,0.30405)" font-size="40" xml:space="preserve" fill="#ffffff" fill-rule="nonzero" stroke="#ffffff" stroke-width="1" stroke-linecap="butt" stroke-linejoin="miter" stroke-miterlimit="10" stroke-dasharray="" stroke-dashoffset="0" font-family="Handwriting" font-weight="normal" text-anchor="start" style="mix-blend-mode: normal"></text><text transform="translate(197.27147,52.47373) scale(0.23622,0.23622)" font-size="40" xml:space="preserve" fill="#ffffff" fill-rule="nonzero" stroke="#ffffff" stroke-width="1" stroke-linecap="butt" stroke-linejoin="miter" stroke-miterlimit="10" stroke-dasharray="" stroke-dashoffset="0" font-family="Handwriting" font-weight="normal" text-anchor="start" style="mix-blend-mode: normal"></text><g><path d="M233.26537,92.8443c0,2.17455 -2.16975,2.8546 -4.72485,2.8546c-2.55509,0 -4.52797,-0.68005 -4.52797,-2.8546c0,-2.17455 1.97288,-5.02014 4.52797,-5.02014c2.55509,0 4.72485,2.8456 4.72485,5.02014zM228.04837,94.81299c1.63091,0 3.64207,-0.04247 3.64207,-1.67338c0,-1.63092 -1.71586,-4.23268 -3.34677,-4.23268c-1.63091,0 -3.1499,1.61741 -3.1499,3.24833c0,1.63092 1.22369,2.65773 2.8546,2.65773z" fill="#e9e9e9" stroke="none" stroke-width="0"/><path d="M289.75005,129.25c0,27.3381 -22.49769,49.5 -50.25,49.5c-27.75231,0 -50.25,-22.1619 -50.25,-49.5c0,-27.33809 22.49769,-49.5 50.25,-49.5c27.75231,0 50.25,22.16191 50.25,49.5z" fill="#ccbead" stroke="#000000" stroke-width="2.5"/><path d="M243.16667,151.25c0,6.71947 -4.41725,12.5 -12.33333,12.5c-7.91608,0 -21.66667,-4.78053 -21.66667,-11.5c0,-6.71947 13.41726,-7.5 21.33334,-7.5c7.91608,0 12.66666,-0.21947 12.66666,6.5z" fill="#a58368" stroke="none" stroke-width="0"/><path d="M281.5,130.41667c0,3.86599 -13.23264,1 -27.5,1c-14.26736,0 -25.41666,10.19933 -25.41666,6.33334c0,-3.86599 13.14931,-13.66666 27.41666,-13.66666c6.7982,0 25.5,4.30943 25.5,6.33333z" fill="#a58368" stroke="none" stroke-width="0"/><path d="M279.5,143.58334c0,1.7489 -9.01911,-0.16667 -18.5,-0.16667c-9.48089,0 -16.88363,1.82836 -17,-2.66666c-0.09724,-3.75597 7.18578,-3.33334 16.66667,-3.33334c9.48089,0 18.83333,4.41777 18.83333,6.16667z" fill="#a58368" stroke="none" stroke-width="0"/><path d="M276.16667,156.25c0,2.11709 -6.74077,1.83334 -13,1.83334c-5.00369,0 -14.37914,0.77757 -16.91871,-1.85298c-0.63724,-0.66007 1.03395,-5.72335 2.26641,-6.16448c3.52963,-1.26335 11.45751,1.01746 14.65231,1.01746c6.25923,0 13,3.04958 13,5.16666z" fill="#a58368" stroke="none" stroke-width="0"/><path d="M254.5,99.08334c0,5.89104 -8.80016,2.66666 -18.83334,2.66666c-10.03317,0 -26.5,2.22437 -26.5,-3.66666c0,-5.89104 14.80016,-15.33334 24.83334,-15.33334c10.03318,0 20.5,10.4423 20.5,16.33334z" fill="#a58368" stroke="none" stroke-width="0"/><path d="M244.16667,111.91667c0,4.87851 -13.42706,13.83334 -23,13.83334c-9.57294,0 -18,-9.28815 -18,-14.16666c0,-4.87851 8.42706,-3.5 18,-3.5c9.57294,0 23,-1.04519 23,3.83333z" fill="#a58368" stroke="none" stroke-width="0"/><path d="M289.16667,129.66667c0,26.50967 -22.01267,48 -49.16666,48c-27.154,0 -49.16667,-21.49033 -49.16667,-48c0,-26.50967 22.01267,-48 49.16667,-48c27.154,0 49.16666,21.49033 49.16666,48zM260.90601,124.16666c-1.37464,0 -8.50715,-0.3492 -15.97022,2.25731c-8.16468,2.85155 -16.5882,8.84694 -14.95439,13.07603c0.74085,1.91769 10.27568,-1.07451 13.91391,-1.31659c2.29214,-0.15251 2.22914,2.35416 2.53289,4.42769c0.76837,5.24509 17.2746,3.44444 20.15312,3.44444c6.46902,0 17.48426,2.34523 18.18414,-0.33333c1.57734,-2.92263 5.18983,-11.79583 1.04034,-15.45217c-6.61301,-5.82709 -23.13108,-6.10339 -24.89978,-6.10339zM224.97206,173.16666c4.31777,0 14.60823,-1.44793 17.98145,-15.58333c3.06207,-12.83157 -6.01939,-12.75 -10.33716,-12.75c-4.31777,0 -35.84087,-0.53424 -34.74676,7.58333c-1.0424,9.14213 22.7847,20.75 27.10247,20.75zM275.33129,161.96666c14.70946,-13.94623 -13.49806,-12.05481 -18.98473,-12.2671c-7.65325,-0.29612 -7.39193,7.01488 -7.30699,7.48933c0.58265,3.25422 14.02422,5.89589 17.02008,5.91627c8.90227,0.06056 8.71841,-0.61397 9.27164,-1.1385zM206.94714,134.45833c12.16261,-0.17021 37.9026,-12.01406 46.01883,-24.83659c5.31314,-5.86236 18.78552,2.80197 21.8498,-1.28652c5.45383,-14.34278 -30.28796,-27.28214 -38.16015,-26.87689c-14.60479,0.75182 -32.83989,11.43856 -37.38634,24.8748c-4.51008,13.32874 -0.87275,26.41098 7.67786,28.1252z" fill="#e7e0d1" stroke="none" stroke-width="0"/><path d="M252.16667,172.36994c-5.89103,0 -14.16667,-1.53596 -14.16667,-2.91667c0,-1.38071 7.60897,-1.75 13.5,-1.75c5.89103,0 12.33334,-2.21404 12.33334,-0.83333c0,1.38071 -5.77563,5.5 -11.66667,5.5z" data-paper-data="{&quot;index&quot;:null}" fill="#a58368" stroke="none" stroke-width="0"/><path d="M266.83333,116.16667c0,2.94552 -2.46243,5.33333 -5.5,5.33333c-3.03757,0 -5.5,-2.38781 -5.5,-5.33333c0,-2.94552 2.46243,-5.33333 5.5,-5.33333c3.03757,0 5.5,2.38781 5.5,5.33333z" fill="#fffefa" stroke="none" stroke-width="0"/><path d="M211.5,143.83333c0,2.94552 -2.53705,5.33333 -5.66667,5.33333c-3.12961,0 -5.66667,-2.38781 -5.66667,-5.33333c0,-2.94552 2.53705,-5.33333 5.66667,-5.33333c3.12961,0 5.66667,2.38781 5.66667,5.33333z" fill="#fffefa" stroke="none" stroke-width="0"/><path d="M207.83333,124c0,1.38071 -1.26853,2.5 -2.83333,2.5c-1.56481,0 -2.83333,-1.11929 -2.83333,-2.5c0,-1.38071 1.26853,-2.5 2.83333,-2.5c1.56481,0 2.83333,1.11929 2.83333,2.5z" fill="#fffefa" stroke="none" stroke-width="0"/><path d="M284.5,139.33333c0,1.19662 -0.82081,2.16667 -1.83333,2.16667c-1.01252,0 -1.83333,-0.97005 -1.83333,-2.16667c0,-1.19662 0.82081,-2.16667 1.83333,-2.16667c1.01252,0 1.83333,0.97005 1.83333,2.16667z" fill="#fffefa" stroke="none" stroke-width="0"/><path d="M258.5,90.33333c0,1.38071 -1.19391,2.5 -2.66667,2.5c-1.47276,0 -2.66667,-1.11929 -2.66667,-2.5c0,-1.38071 1.19391,-2.5 2.66667,-2.5c1.47276,0 2.66667,1.11929 2.66667,2.5z" fill="#fffefa" stroke="none" stroke-width="0"/><path d="M240.16667,174.5c0,1.10457 -1.19391,2 -2.66667,2c-1.47276,0 -2.66667,-0.89543 -2.66667,-2c0,-1.10457 1.19391,-2 2.66667,-2c1.47276,0 2.66667,0.89543 2.66667,2z" fill="#fffefa" stroke="none" stroke-width="0"/><path d="M230.5,89.33333c0,1.7489 -1.567,3.16667 -3.5,3.16667c-1.933,0 -3.5,-1.41776 -3.5,-3.16667c0,-1.7489 1.567,-3.16667 3.5,-3.16667c1.933,0 3.5,1.41776 3.5,3.16667z" fill="#fffefa" stroke="none" stroke-width="0"/></g><text transform="translate(186.77147,69.47373) scale(0.23622,0.23622)" font-size="40" xml:space="preserve" fill="#ffffff" fill-rule="nonzero" stroke="#ffffff" stroke-width="1" stroke-linecap="butt" stroke-linejoin="miter" stroke-miterlimit="10" stroke-dasharray="" stroke-dashoffset="0" font-family="Handwriting" font-weight="normal" text-anchor="start" style="mix-blend-mode: normal"></text></g></g></svg>