<svg version="1.1" xmlns="http://www.w3.org/2000/svg" xmlns:xlink="http://www.w3.org/1999/xlink" width="158.58882" height="211.31136" viewBox="0,0,158.58882,211.31136"><defs><linearGradient x1="242.62032" y1="-6.60763" x2="242.62032" y2="270.2804" gradientUnits="userSpaceOnUse" id="color-1"><stop offset="0" stop-color="#000000"/><stop offset="1" stop-color="#000000" stop-opacity="0"/></linearGradient><radialGradient cx="219.543" cy="111.9671" r="50.02373" gradientUnits="userSpaceOnUse" id="color-2"><stop offset="0" stop-color="#dc6e6e"/><stop offset="1" stop-color="#b23535"/></radialGradient></defs><g transform="translate(-165.9327,-11.1567)"><g data-paper-data="{&quot;isPaintingLayer&quot;:true}" fill-rule="nonzero" stroke-linecap="butt" stroke-linejoin="miter" stroke-miterlimit="10" stroke-dasharray="" stroke-dashoffset="0" style="mix-blend-mode: normal"><path d="M290.52519,181.33514c0.08306,2.91279 -7.47079,10.94732 -46.81921,10.94732c-39.34842,0 -50.33445,-6.8584 -50.34761,-11.54727c-0.01137,-4.04815 10.18494,-9.44736 49.53336,-9.44736c39.34842,0 47.55747,7.38292 47.63346,10.04731z" fill="url(#color-1)" stroke="none" stroke-width="0"/><text transform="translate(221.76296,214.64552) scale(0.46015,0.46015)" font-size="40" xml:space="preserve" fill="#000000" fill-rule="nonzero" stroke="#000000" stroke-width="1" stroke-linecap="butt" stroke-linejoin="miter" stroke-miterlimit="10" stroke-dasharray="" stroke-dashoffset="0" font-family="Handwriting" font-weight="normal" text-anchor="start" style="mix-blend-mode: normal"></text><text transform="translate(208.99657,30.10693) scale(0.49869,0.49869)" font-size="40" xml:space="preserve" fill="#000000" fill-rule="nonzero" stroke="#000000" stroke-width="1" stroke-linecap="butt" stroke-linejoin="miter" stroke-miterlimit="10" stroke-dasharray="" stroke-dashoffset="0" font-family="Handwriting" font-weight="normal" text-anchor="start" style="mix-blend-mode: normal"></text><g data-paper-data="{&quot;index&quot;:null}" stroke="none" stroke-width="0"><path d="M287.53071,128.27866c0,27.6274 -22.1045,50.02372 -49.3719,50.02372c-27.2674,0 -49.3719,-22.39632 -49.3719,-50.02372c0,-27.6274 22.10458,-50.0238 49.3719,-50.0238c27.2674,0 49.3719,22.39641 49.3719,50.02381z" fill="url(#color-2)"/><path d="M228.85704,159.96973v-20.94371l-19.33633,-1.10297l-0.38568,-15.3321l19.72202,-0.65741v-25.54547h17.34043v26.86029l19.51267,0.04762l-0.11586,15.3649c0,0 -19.79394,0.57574 -19.77347,1.67841c0.11631,6.2663 0.37666,19.63029 0.37666,19.63029z" fill="#511111"/></g><text transform="translate(166.09862,53.16105) scale(0.33183,0.33183)" font-size="40" xml:space="preserve" fill="#000000" fill-rule="nonzero" stroke="#000000" stroke-width="1" stroke-linecap="butt" stroke-linejoin="miter" stroke-miterlimit="10" stroke-dasharray="" stroke-dashoffset="0" font-family="Handwriting" font-weight="normal" text-anchor="start" style="mix-blend-mode: normal"></text><text transform="translate(194.09863,69.66105) scale(0.33183,0.33183)" font-size="40" xml:space="preserve" fill="#000000" fill-rule="nonzero" stroke="#000000" stroke-width="1" stroke-linecap="butt" stroke-linejoin="miter" stroke-miterlimit="10" stroke-dasharray="" stroke-dashoffset="0" font-family="Handwriting" font-weight="normal" text-anchor="start" style="mix-blend-mode: normal"></text></g></g></svg>