<svg version="1.1" xmlns="http://www.w3.org/2000/svg" xmlns:xlink="http://www.w3.org/1999/xlink" width="154.18033" height="193.00691" viewBox="0,0,154.18033,193.00691"><defs><linearGradient x1="288.05977" y1="60.40316" x2="288.05977" y2="236.17923" gradientUnits="userSpaceOnUse" id="color-1"><stop offset="0" stop-color="#000000"/><stop offset="1" stop-color="#000000" stop-opacity="0"/></linearGradient><radialGradient cx="281.33333" cy="131.92976" r="94.5" gradientUnits="userSpaceOnUse" id="color-2"><stop offset="0" stop-color="#cfd8e5"/><stop offset="1" stop-color="#ffffff"/></radialGradient><radialGradient cx="295.83333" cy="129.72811" r="94.5" gradientUnits="userSpaceOnUse" id="color-3"><stop offset="0" stop-color="#b8c1cd"/><stop offset="1" stop-color="#e4e4e4"/></radialGradient><radialGradient cx="281.33333" cy="131.68513" r="94.5" gradientUnits="userSpaceOnUse" id="color-4"><stop offset="0" stop-color="#cfd8e5"/><stop offset="1" stop-color="#ffffff"/></radialGradient><radialGradient cx="262.96516" cy="132.95171" r="21.23512" gradientUnits="userSpaceOnUse" id="color-5"><stop offset="0" stop-color="#ece8f8"/><stop offset="1" stop-color="#a3a3cc"/></radialGradient><radialGradient cx="262.83333" cy="134.753" r="19.33334" gradientUnits="userSpaceOnUse" id="color-6"><stop offset="0" stop-color="#ffffff" stop-opacity="0"/><stop offset="1" stop-color="#ffffff"/></radialGradient><radialGradient cx="311.96516" cy="130.50543" r="21.23513" gradientUnits="userSpaceOnUse" id="color-7"><stop offset="0" stop-color="#ece8f8"/><stop offset="1" stop-color="#a3a3cc"/></radialGradient><radialGradient cx="311.83333" cy="132.30674" r="19.33334" gradientUnits="userSpaceOnUse" id="color-8"><stop offset="0" stop-color="#ffffff" stop-opacity="0"/><stop offset="1" stop-color="#ffffff"/></radialGradient><radialGradient cx="223.96516" cy="136.37649" r="21.23512" gradientUnits="userSpaceOnUse" id="color-9"><stop offset="0" stop-color="#ece8f8"/><stop offset="1" stop-color="#a3a3cc"/></radialGradient><radialGradient cx="223.83333" cy="138.1778" r="19.33334" gradientUnits="userSpaceOnUse" id="color-10"><stop offset="0" stop-color="#ffffff" stop-opacity="0"/><stop offset="1" stop-color="#ffffff"/></radialGradient><radialGradient cx="356.96516" cy="133.93021" r="21.23513" gradientUnits="userSpaceOnUse" id="color-11"><stop offset="0" stop-color="#ece8f8"/><stop offset="1" stop-color="#a3a3cc"/></radialGradient><radialGradient cx="356.83333" cy="135.77306" r="19.33334" gradientUnits="userSpaceOnUse" id="color-12"><stop offset="0" stop-color="#ffffff" stop-opacity="0"/><stop offset="1" stop-color="#ffffff"/></radialGradient><radialGradient cx="276.96516" cy="115.58319" r="21.23512" gradientUnits="userSpaceOnUse" id="color-13"><stop offset="0" stop-color="#f7e9f1"/><stop offset="1" stop-color="#c5a3cc"/></radialGradient><radialGradient cx="276.83333" cy="116.85473" r="19.33334" gradientUnits="userSpaceOnUse" id="color-14"><stop offset="0" stop-color="#ffffff" stop-opacity="0"/><stop offset="1" stop-color="#ffffff"/></radialGradient><radialGradient cx="301.2985" cy="116.07244" r="21.23512" gradientUnits="userSpaceOnUse" id="color-15"><stop offset="0" stop-color="#f7e9f1"/><stop offset="1" stop-color="#c5a3cc"/></radialGradient><radialGradient cx="301.16667" cy="117.34399" r="19.33334" gradientUnits="userSpaceOnUse" id="color-16"><stop offset="0" stop-color="#ffffff" stop-opacity="0"/><stop offset="1" stop-color="#ffffff"/></radialGradient><radialGradient cx="324.46516" cy="149.83099" r="22.43733" gradientUnits="userSpaceOnUse" id="color-17"><stop offset="0" stop-color="#f7e9f1"/><stop offset="1" stop-color="#c5a3cc"/></radialGradient><radialGradient cx="324.32587" cy="150.93631" r="20.42788" gradientUnits="userSpaceOnUse" id="color-18"><stop offset="0" stop-color="#ffffff" stop-opacity="0"/><stop offset="1" stop-color="#ffffff"/></radialGradient><radialGradient cx="346.13183" cy="151.29875" r="22.43733" gradientUnits="userSpaceOnUse" id="color-19"><stop offset="0" stop-color="#f7e9f1"/><stop offset="1" stop-color="#c5a3cc"/></radialGradient><radialGradient cx="345.99253" cy="152.40407" r="20.42787" gradientUnits="userSpaceOnUse" id="color-20"><stop offset="0" stop-color="#ffffff" stop-opacity="0"/><stop offset="1" stop-color="#ffffff"/></radialGradient><radialGradient cx="253.13183" cy="149.83099" r="22.43733" gradientUnits="userSpaceOnUse" id="color-21"><stop offset="0" stop-color="#f7e9f1"/><stop offset="1" stop-color="#c5a3cc"/></radialGradient><radialGradient cx="252.99253" cy="150.93631" r="20.42788" gradientUnits="userSpaceOnUse" id="color-22"><stop offset="0" stop-color="#ffffff" stop-opacity="0"/><stop offset="1" stop-color="#ffffff"/></radialGradient><radialGradient cx="233.79849" cy="151.78801" r="22.43733" gradientUnits="userSpaceOnUse" id="color-23"><stop offset="0" stop-color="#f7e9f1"/><stop offset="1" stop-color="#c5a3cc"/></radialGradient><radialGradient cx="233.6592" cy="152.89333" r="20.42788" gradientUnits="userSpaceOnUse" id="color-24"><stop offset="0" stop-color="#ffffff" stop-opacity="0"/><stop offset="1" stop-color="#ffffff"/></radialGradient></defs><g transform="translate(-211.08292,-26.654)"><g data-paper-data="{&quot;isPaintingLayer&quot;:true}" fill-rule="nonzero" stroke-linejoin="miter" stroke-miterlimit="10" stroke-dasharray="" stroke-dashoffset="0" style="mix-blend-mode: normal"><path d="M362.91603,179.71433c0.12979,1.84912 -11.67387,6.94966 -73.15981,6.94966c-61.48593,0 -78.65273,-4.3539 -78.67329,-7.33052c-0.01777,-2.56988 15.91501,-5.99744 77.40095,-5.99744c61.48593,0 74.31341,4.68688 74.43216,6.37831z" fill="url(#color-1)" stroke="none" stroke-width="0" stroke-linecap="butt"/><text transform="translate(269.76854,211.83836) scale(0.46015,0.46015)" font-size="40" xml:space="preserve" fill="#000000" fill-rule="nonzero" stroke="#000000" stroke-width="1" stroke-linecap="butt" stroke-linejoin="miter" stroke-miterlimit="10" stroke-dasharray="" stroke-dashoffset="0" font-family="Handwriting" font-weight="normal" text-anchor="start" style="mix-blend-mode: normal"></text><text transform="translate(266.25354,45.60422) scale(0.49869,0.49869)" font-size="40" xml:space="preserve" fill="#000000" fill-rule="nonzero" stroke="#000000" stroke-width="1" stroke-linecap="butt" stroke-linejoin="miter" stroke-miterlimit="10" stroke-dasharray="" stroke-dashoffset="0" font-family="Handwriting" font-weight="normal" text-anchor="start" style="mix-blend-mode: normal"></text><g><g fill="none" stroke-width="5" stroke-linecap="round"><path d="M362.16052,172.06467c-3.39022,6.09022 -7.20119,10.30449 -11.18187,9.96433c-18.1901,-1.55439 -26.45551,-98.72401 -45.2328,-97.87168c-20.33174,0.92289 -28.88457,93.56539 -47.20129,93.58607c-20.18563,0.0228 -25.85124,-84.35814 -42.97848,-94.863" stroke="url(#color-2)"/><path d="M362.76325,80.59149c-16.34751,10.27322 -24.70032,97.71779 -42.5174,96.90905c-20.33173,-0.9229 -28.88456,-93.5654 -47.20129,-93.58608c-21.63647,-0.02443 -26.59066,96.92396 -46.85882,95.92441c-4.58776,-0.22625 -8.77559,-5.41288 -12.35241,-12.37509" data-paper-data="{&quot;index&quot;:null}" stroke="url(#color-3)"/><g stroke="url(#color-4)"><path d="M268.33987,168.22277c-2.99872,5.71911 -6.20996,9.27195 -9.79531,9.276c-13.61405,0.01537 -20.62333,-38.36224 -28.99866,-66.57483"/><path d="M362.13331,171.86887c-3.3834,6.06389 -7.18463,10.25475 -11.15467,9.9155c-10.39085,-0.88792 -17.54316,-32.97619 -25.26633,-60.17062"/></g></g><path d="M264.05555,135.19695c0,1.47645 1.25523,2.09932 1.27393,3.54991c0.14903,11.55647 0.80591,22.2527 0.28677,29.06501c-0.09985,1.31025 -4.86417,6.14755 -5.03575,5.44654c-1.331,-5.43804 -0.25719,-19.38809 -0.04309,-34.50792c0.0086,-0.60687 1.01078,-2.28457 1.01063,-3.33141c-0.00018,-1.23325 -1.0036,-1.84924 -1.0036,-2.57495c0,-21.33023 -1.64606,-41.21531 2.88889,-41.71931c4.11965,-0.45784 2.11673,21.11374 1.883,41.64035c-0.0106,0.93139 -1.26078,1.50593 -1.26078,2.43178z" fill="url(#color-5)" stroke="url(#color-6)" stroke-width="0" stroke-linecap="butt"/><path d="M313.05555,132.75068c0,1.47645 1.25523,2.09932 1.27394,3.54991c0.25154,19.50584 1.13594,36.56094 -2.69615,36.62564c-3.86945,0.06533 -2.37476,-16.93064 -2.09592,-36.622c0.0086,-0.60687 1.01078,-2.28457 1.01063,-3.33141c-0.00018,-1.23325 -1.0036,-1.84924 -1.0036,-2.57495c0,-17.50686 -0.99357,-34.80265 1.06794,-40.58769c0.45022,-1.26341 3.70467,1.46392 3.94392,6.86811c0.36503,8.24557 -0.09878,21.24088 -0.23996,33.64063c-0.01061,0.93139 -1.26078,1.50593 -1.26078,2.43178z" fill="url(#color-7)" stroke="url(#color-8)" stroke-width="0" stroke-linecap="butt"/><path d="M225.05555,138.62173c0,1.47645 1.25523,2.09932 1.27393,3.54991c0.25154,19.50584 1.13594,37.14805 -2.69615,37.21275c-3.86945,0.06533 -2.37475,-17.51775 -2.09592,-37.20911c0.0086,-0.60687 1.01078,-2.28457 1.01063,-3.33141c-0.00018,-1.23325 -1.0036,-1.84924 -1.0036,-2.57495c0,-17.15318 -1.39383,-33.4579 0.49701,-39.56302c0.46045,-1.48669 4.96544,11.73857 4.85062,13.78309c-0.41944,7.46846 -0.47545,16.89386 -0.57573,25.70098c-0.0106,0.93139 -1.26078,1.50593 -1.26078,2.43178z" fill="url(#color-9)" stroke="url(#color-10)" stroke-width="0" stroke-linecap="butt"/><path d="M358.05555,136.22724c0,1.51051 1.25523,2.14775 1.27394,3.63179c0.1658,13.15313 0.25822,26.23909 -0.37622,31.68775c-0.20662,1.77445 -3.92383,6.08844 -4.29571,5.26069c-1.94521,-4.3297 -0.35423,-20.03243 -0.12015,-36.94472c0.0086,-0.62087 1.01078,-2.33726 1.01063,-3.40825c-0.00018,-1.2617 -1.0036,-1.8919 -1.0036,-2.63435c0,-21.82225 -1.84606,-42.76666 2.68889,-43.28228c4.11965,-0.4684 2.31673,22.20141 2.083,43.2015c-0.01061,0.95287 -1.26078,1.54067 -1.26078,2.48787z" fill="url(#color-11)" stroke="url(#color-12)" stroke-width="0" stroke-linecap="butt"/><path d="M278.05555,117.16811c0,1.04223 1.25523,1.48191 1.27393,2.50588c0.05397,2.9539 0.13706,5.82818 0.19646,8.52151c0.07558,3.42696 -1.55635,6.10203 -2.24294,8.65205c-1.28911,4.78779 -2.13163,8.07575 -2.38327,7.62256c-1.7862,-3.21681 -0.59163,-13.36171 -0.36231,-24.79356c0.0086,-0.42839 1.01078,-1.61268 1.01063,-2.35165c-0.00018,-0.87055 -1.0036,-1.30538 -1.0036,-1.81766c0,-15.05702 -1.84606,-29.50835 2.68889,-29.86412c4.11965,-0.32318 2.31672,15.31864 2.083,29.80838c-0.0106,0.65747 -1.26078,1.06304 -1.26078,1.7166z" fill="url(#color-13)" stroke="url(#color-14)" stroke-width="0" stroke-linecap="butt"/><path d="M302.38889,117.65736c0,1.04223 1.25523,1.48191 1.27394,2.50588c0.25154,13.76919 1.13594,25.80839 -2.69616,25.85406c-3.86945,0.04611 -2.37475,-11.95135 -2.09592,-25.8515c0.0086,-0.42839 1.01078,-1.61268 1.01063,-2.35164c-0.00018,-0.87055 -1.0036,-1.30538 -1.0036,-1.81766c0,-8.74514 -0.62274,-16.91904 -0.25634,-22.61258c0.26445,-4.10935 4.69128,-6.70105 5.09291,-4.917c1.13825,5.05622 0.10808,16.76325 -0.06468,27.47384c-0.0106,0.65747 -1.26078,1.06304 -1.26078,1.7166z" fill="url(#color-15)" stroke="url(#color-16)" stroke-width="0" stroke-linecap="butt"/><path d="M325.61728,151.20873c0,0.906 1.3263,1.28822 1.34606,2.17835c0.26578,11.96945 1.20025,22.43504 -2.8488,22.47474c-4.08851,0.04009 -2.5092,-10.38923 -2.21458,-22.47252c0.00908,-0.3724 1.068,-1.40188 1.06785,-2.04426c-0.00019,-0.75677 -1.06042,-1.13476 -1.06042,-1.58008c0,-13.08896 -2.45057,-25.16213 2.34112,-25.4714c0.64646,0.32921 2.67861,9.81046 2.72671,10.77039c0.23022,4.59486 0.08049,9.23244 -0.02578,14.65256c-0.01121,0.57153 -1.33216,0.92409 -1.33216,1.49223z" fill="url(#color-17)" stroke="url(#color-18)" stroke-width="0" stroke-linecap="butt"/><path d="M347.28395,152.67649c0,0.906 1.32629,1.28821 1.34606,2.17834c0.21524,9.69322 1.03569,18.15554 -0.87391,21.13768c-0.44842,0.70029 -4.75622,-5.44639 -4.7342,-6.36604c0.09496,-3.96484 0.41193,-9.32257 0.54473,-14.76941c0.00908,-0.3724 1.06801,-1.40188 1.06785,-2.04426c-0.00019,-0.75677 -1.06042,-1.13476 -1.06042,-1.58008c0,-13.08896 -1.95057,-25.65139 2.84112,-25.96066c4.35288,-0.28094 2.44789,13.31638 2.20093,25.91221c-0.01121,0.57153 -1.33216,0.92409 -1.33216,1.49223z" fill="url(#color-19)" stroke="url(#color-20)" stroke-width="0" stroke-linecap="butt"/><path d="M254.28395,151.20873c0,0.906 1.32629,1.28822 1.34606,2.17835c0.17661,7.95376 0.03584,17.31366 -0.38569,19.88022c-0.09073,0.55246 -5.27973,-4.93571 -5.21812,-5.86503c0.25672,-3.87262 0.41328,-8.79757 0.54045,-14.01298c0.00908,-0.3724 1.068,-1.40188 1.06784,-2.04426c-0.00019,-0.75677 -1.06041,-1.13476 -1.06041,-1.58008c0,-13.08896 -1.95058,-27.99981 2.84111,-28.30908c2.55288,-0.28095 2.44789,15.66481 2.20093,28.26063c-0.0112,0.57153 -1.33216,0.92409 -1.33216,1.49223z" fill="url(#color-21)" stroke="url(#color-22)" stroke-width="0" stroke-linecap="butt"/><path d="M234.95061,153.16575c0,0.906 1.32629,1.28821 1.34606,2.17834c0.26578,11.96945 -0.19975,20.67372 -2.84879,21.00698c-2.88852,0.33364 -2.5092,-8.92147 -2.21458,-21.00476c0.00908,-0.3724 1.068,-1.40188 1.06784,-2.04426c-0.00019,-0.75677 -1.06041,-1.13476 -1.06041,-1.58008c0,-10.10402 -0.87833,-19.96431 0.51171,-24.26997c0.29456,-0.91239 4.89373,14.00055 4.62076,16.52486c-0.27016,2.49822 -0.04011,5.13074 -0.09042,7.69666c-0.0112,0.57153 -1.33216,0.92409 -1.33216,1.49223z" fill="url(#color-23)" stroke="url(#color-24)" stroke-width="0" stroke-linecap="butt"/></g><text transform="translate(234.78878,64.63271) scale(0.32909,0.32909)" font-size="40" xml:space="preserve" fill="#000000" fill-rule="nonzero" stroke="#000000" stroke-width="1" stroke-linecap="butt" stroke-linejoin="miter" stroke-miterlimit="10" stroke-dasharray="" stroke-dashoffset="0" font-family="Handwriting" font-weight="normal" text-anchor="start" style="mix-blend-mode: normal"></text></g></g></svg>