<svg version="1.1" xmlns="http://www.w3.org/2000/svg" xmlns:xlink="http://www.w3.org/1999/xlink" width="140.81662" height="191.68169" viewBox="0,0,140.81662,191.68169"><defs><linearGradient x1="240.40206" y1="69.91146" x2="240.40206" y2="231.71279" gradientUnits="userSpaceOnUse" id="color-1"><stop offset="0" stop-color="#000000"/><stop offset="1" stop-color="#000000" stop-opacity="0"/></linearGradient></defs><g transform="translate(-169.65865,-29.5541)"><g data-paper-data="{&quot;isPaintingLayer&quot;:true}" fill-rule="nonzero" stroke-linecap="butt" stroke-linejoin="miter" stroke-miterlimit="10" stroke-dasharray="" stroke-dashoffset="0" style="mix-blend-mode: normal"><path d="M268.80144,179.73704c0.04924,1.70211 -4.4289,6.39714 -27.75576,6.39714c-23.32687,0 -29.8397,-4.00775 -29.84751,-6.74772c-0.00674,-2.36557 6.03792,-5.52062 29.36479,-5.52062c23.32687,0 28.19343,4.31425 28.23848,5.87122z" fill="url(#color-1)" stroke="none" stroke-width="0"/><text transform="translate(209.55582,47.8929) scale(0.4826,0.4826)" font-size="40" xml:space="preserve" fill="#000000" fill-rule="nonzero" stroke="#000000" stroke-width="1" stroke-linecap="butt" stroke-linejoin="miter" stroke-miterlimit="10" stroke-dasharray="" stroke-dashoffset="0" font-family="Handwriting" font-weight="normal" text-anchor="start" style="mix-blend-mode: normal"></text><text transform="translate(221.95773,213.41324) scale(0.46015,0.46015)" font-size="40" xml:space="preserve" fill="#000000" fill-rule="nonzero" stroke="#000000" stroke-width="1" stroke-linecap="butt" stroke-linejoin="miter" stroke-miterlimit="10" stroke-dasharray="" stroke-dashoffset="0" font-family="Handwriting" font-weight="normal" text-anchor="start" style="mix-blend-mode: normal"></text><g stroke="none"><path d="M227.86024,178.63079c-0.98835,-1.46197 4.02794,-10.19351 3.5439,-13.43317c-0.50406,-3.37374 -2.59282,-26.48136 -5.8475,-45.64048c-2.41908,-14.24027 -12.22309,-28.35467 -10.74346,-32.53428c2.19082,-6.43818 16.97471,-10.55747 29.60444,-9.21419c11.60822,1.23463 23.24345,9.052 23.9964,21.28984c-0.24225,11.45571 -13.75553,14.70204 -16.15235,24.33003c-4.52308,18.16916 -7.88174,42.2148 -8.78892,45.12646c-0.59647,1.91444 4.29899,9.83565 3.4021,11.02437c-0.93359,1.23737 -18.46863,-0.14094 -19.01462,-0.9486z" fill="#00b38c" stroke-width="0"/><path d="M230.74677,176.99659c-0.98835,-1.46197 3.53696,-7.48108 3.05292,-10.72073c-0.50406,-3.37374 -3.23944,-28.70281 -6.49412,-47.86193c-0.37123,-2.18528 -3.40829,-12.17184 -5.12866,-16.81856c-0.23424,-0.63267 4.95681,-2.81406 7.69821,-1.62507c4.41799,1.91616 1.75624,8.96134 4.47286,7.05914c1.35879,-0.95145 1.98822,-13.40007 -3.50336,-11.61716c-8.15067,2.6462 -14.67034,-2.11123 -13.86934,-6.6405c1.18433,-6.6968 14.49572,-8.49165 27.12546,-7.14837c11.60822,1.23463 21.02077,9.82892 20.89768,18.19112c-0.14447,9.81481 -9.80036,10.3736 -14.97554,11.51389c-1.83117,0.40348 -10.24793,-2.07531 -10.24146,-4.97298c0.00355,-1.5889 0.72155,-2.09446 2.34536,-2.6733c0.87006,-0.31015 -1.21363,2.31245 0.6715,3.61154c1.56898,1.08123 4.75965,-0.85553 3.91134,-2.55751c-1.22746,-2.46269 -1.64919,-5.08562 -5.02634,-4.64223c-2.89178,0.37966 -8.05393,7.90618 -3.71959,11.08104c2.63127,1.92736 9.02004,3.49106 10.67093,5.68884c1.32414,1.76279 0.88586,5.82168 0.8312,6.04125c-4.52308,18.16916 -7.26199,42.21479 -8.16916,45.12646c-0.59647,1.91444 1.89502,8.4674 0.99813,9.65613c-0.93359,1.23737 -11.002,0.11659 -11.548,-0.69107z" fill="#7fffb2" stroke-width="0"/><path d="M238.83546,113.01058c-1.20404,1.65432 -3.00466,2.59333 -5.1857,2.59333c-3.65094,0 -6.61061,-3.00592 -6.61061,-6.7139c0,-2.2028 1.17826,-4.15784 2.79171,-5.38207c0.61139,-0.46389 0.88887,3.23606 3.25911,5.8614c1.90387,2.10877 6.10693,3.14461 5.74549,3.64124z" fill="#00c6cd" stroke-width="0"/><path d="M260.24581,105.25362c0.60624,1.50657 -2.1917,3.3411 -5.88865,4.06246c-3.69696,0.72136 -7.87642,0.2069 -7.90039,-0.64782c-0.02436,-0.86877 3.39525,-2.93991 7.09221,-3.66127c3.69695,-0.72136 6.32238,-0.68391 6.69683,0.24663z" fill="#00e625" stroke-width="0"/><path d="M229.09466,119.95353c0,-1.72727 1.40023,-3.12749 3.1275,-3.12749c1.72727,0 3.1275,1.40022 3.1275,3.12749c0,1.72727 -1.40023,3.1275 -3.1275,3.1275c-1.72727,0 -3.1275,-1.40023 -3.1275,-3.1275z" fill="#00b38c" stroke-width="0.5"/><path d="M230.23589,127.9818c0,-1.61648 1.31042,-2.9269 2.9269,-2.9269c1.61649,0 2.92691,1.31042 2.92691,2.9269c0,1.61648 -1.31042,2.9269 -2.92691,2.9269c-1.61649,0 -2.9269,-1.31042 -2.9269,-2.9269z" fill="#00b38c" stroke-width="0.5"/><path d="M230.97595,135.54202c0,-1.46877 1.19067,-2.65945 2.65944,-2.65945c1.46877,0 2.65946,1.19068 2.65946,2.65945c0,1.46877 -1.19069,2.65945 -2.65946,2.65945c-1.46877,0 -2.65944,-1.19068 -2.65944,-2.65945z" fill="#00b38c" stroke-width="0.5"/><path d="M231.84973,143.3697c0,-1.32106 1.07093,-2.39199 2.39199,-2.39199c1.32106,0 2.392,1.07093 2.392,2.39199c0,1.32106 -1.07094,2.39199 -2.392,2.39199c-1.32106,0 -2.39199,-1.07093 -2.39199,-2.39199z" fill="#00b38c" stroke-width="0.5"/><path d="M232.99097,150.66246c0,-1.24721 1.01106,-2.25826 2.25827,-2.25826c1.24721,0 2.25826,1.01105 2.25826,2.25826c0,1.24721 -1.01105,2.25826 -2.25826,2.25826c-1.24721,0 -2.25827,-1.01105 -2.25827,-2.25826z" fill="#00b38c" stroke-width="0.5"/><path d="M233.86476,156.61793c0,-1.09949 0.89131,-1.9908 1.9908,-1.9908c1.09949,0 1.99079,0.8913 1.99079,1.9908c0,1.09949 -0.8913,1.9908 -1.99079,1.9908c-1.09949,0 -1.9908,-0.89131 -1.9908,-1.9908z" fill="#00b38c" stroke-width="0.5"/><path d="M237.14565,161.36984c0,-0.95178 0.77157,-1.72334 1.72335,-1.72334c0.95178,0 1.72334,0.77156 1.72334,1.72334c0,0.95178 -0.77156,1.72334 -1.72334,1.72334c-0.95178,0 -1.72335,-0.77156 -1.72335,-1.72334z" fill="#00b38c" stroke-width="0.5"/><path d="M224.28951,92.21392c0,-1.46877 1.19067,-2.65945 2.65945,-2.65945c1.46877,0 2.65945,1.19068 2.65945,2.65945c0,1.46877 -1.19068,2.65945 -2.65945,2.65945c-1.46877,0 -2.65945,-1.19068 -2.65945,-2.65945z" fill="#00b38c" stroke-width="0.5"/></g><text transform="translate(169.82927,67.80352) scale(0.34126,0.34126)" font-size="40" xml:space="preserve" fill="#000000" fill-rule="nonzero" stroke="#000000" stroke-width="1" stroke-linecap="butt" stroke-linejoin="miter" stroke-miterlimit="10" stroke-dasharray="" stroke-dashoffset="0" font-family="Handwriting" font-weight="normal" text-anchor="start" style="mix-blend-mode: normal"></text></g></g></svg>