<svg version="1.1" xmlns="http://www.w3.org/2000/svg" xmlns:xlink="http://www.w3.org/1999/xlink" width="156.40002" height="200.39063" viewBox="0,0,156.40002,200.39063"><defs><linearGradient x1="240.34874" y1="17.0437" x2="240.34874" y2="251.8259" gradientUnits="userSpaceOnUse" id="color-1"><stop offset="0" stop-color="#000000"/><stop offset="1" stop-color="#000000" stop-opacity="0"/></linearGradient><radialGradient cx="237.69206" cy="125.95501" r="15.1748" gradientUnits="userSpaceOnUse" id="color-2"><stop offset="0" stop-color="#faaeff"/><stop offset="1" stop-color="#de92f1"/></radialGradient><radialGradient cx="247.1109" cy="145.49039" r="15.69807" gradientUnits="userSpaceOnUse" id="color-3"><stop offset="0" stop-color="#f1a4ff"/><stop offset="1" stop-color="#c255d6"/></radialGradient><radialGradient cx="218.85437" cy="137.46693" r="14.82595" gradientUnits="userSpaceOnUse" id="color-4"><stop offset="0" stop-color="#e7b0ff"/><stop offset="1" stop-color="#b568d6"/></radialGradient><radialGradient cx="235.94783" cy="132.93192" r="44.97593" gradientUnits="userSpaceOnUse" id="color-5"><stop offset="0" stop-color="#ffe8f8" stop-opacity="0"/><stop offset="1" stop-color="#ffe8f8"/></radialGradient></defs><g transform="translate(-166.62423,-16.45079)"><g data-paper-data="{&quot;isPaintingLayer&quot;:true}" fill-rule="nonzero" stroke-linecap="butt" stroke-linejoin="miter" stroke-miterlimit="10" stroke-dasharray="" stroke-dashoffset="0" style="mix-blend-mode: normal"><path d="M282.64103,176.40637c0.07333,2.46985 -6.59551,9.28258 -41.33383,9.28258c-34.73832,0 -44.43722,-5.81546 -44.44884,-9.7913c-0.01004,-3.43255 8.99167,-8.01072 43.72999,-8.01072c34.73832,0 41.98559,6.26022 42.05268,8.51944z" fill="url(#color-1)" stroke="none" stroke-width="0"/><text transform="translate(220.29168,209.01887) scale(0.46015,0.46015)" font-size="40" xml:space="preserve" fill="#000000" fill-rule="nonzero" stroke="#000000" stroke-width="1" stroke-linecap="butt" stroke-linejoin="miter" stroke-miterlimit="10" stroke-dasharray="" stroke-dashoffset="0" font-family="Handwriting" font-weight="normal" text-anchor="start" style="mix-blend-mode: normal"></text><text transform="translate(175.27264,33.85745) scale(0.45807,0.45807)" font-size="40" xml:space="preserve" fill="#000000" fill-rule="nonzero" stroke="#000000" stroke-width="1" stroke-linecap="butt" stroke-linejoin="miter" stroke-miterlimit="10" stroke-dasharray="" stroke-dashoffset="0" font-family="Handwriting" font-weight="normal" text-anchor="start" style="mix-blend-mode: normal"></text><g stroke="none" stroke-width="0"><path d="M255.4832,127.00155c0,8.28448 -5.93498,15.00038 -13.25615,15.00038c-7.32117,0 -13.25614,-6.7159 -13.25614,-15.00038c0,-8.28448 3.49305,-15.34921 10.81422,-15.34921c7.32117,0 15.69807,7.06475 15.69807,15.34921z" fill="url(#color-2)"/><path d="M263.8555,146.18807c0,8.09182 -5.85689,14.65153 -13.08172,14.65153c-7.22484,0 -13.08172,-6.55971 -13.08172,-14.65153c0,-8.09181 1.67073,-16.7446 8.89557,-16.7446c7.22484,0 17.26787,8.65279 17.26787,16.7446z" fill="url(#color-3)"/><path d="M235.09553,141.82749c0,7.22484 -6.05655,13.08172 -13.52769,13.08172c-7.47114,0 -13.52768,-5.85689 -13.52768,-13.08172c0,-7.22484 10.59155,-16.57018 18.06269,-16.57018c7.47114,0 8.99269,9.34534 8.99269,16.57018z" fill="url(#color-4)"/><path d="M224.43591,111.65233c0,2.69727 -1.9523,4.88385 -4.36058,4.88385c-2.40828,0 -4.36058,-2.18657 -4.36058,-4.88385c0,-2.69727 1.9523,-4.88385 4.36058,-4.88385c2.40828,0 4.36058,2.18657 4.36058,4.88385z" fill="#cb55e8"/><path d="M212.57516,120.72233c0,2.50461 -1.63992,4.53499 -3.66288,4.53499c-2.02296,0 -3.66288,-2.03039 -3.66288,-4.53499c0,-2.50461 1.63992,-4.53499 3.66288,-4.53499c2.02296,0 3.66288,2.03039 3.66288,4.53499z" fill="#cb55e8"/><path d="M211.52862,108.68714c0,2.21561 -1.56183,4.01172 -3.48846,4.01172c-1.92662,0 -3.48846,-1.79611 -3.48846,-4.01172c0,-2.21561 1.56183,-4.01172 3.48846,-4.01172c1.92662,0 3.48846,1.79611 3.48846,4.01172z" fill="#cb55e8"/><path d="M265.59972,118.10598c0,2.40828 -1.56183,4.36058 -3.48846,4.36058c-1.92662,0 -3.48846,-1.9523 -3.48846,-4.36058c0,-2.40828 1.56183,-4.36058 3.48846,-4.36058c1.92662,0 3.48846,1.9523 3.48846,4.36058z" fill="#cb55e8"/><path d="M269.43703,128.04809c0,2.31195 -1.56183,4.18615 -3.48846,4.18615c-1.92662,0 -3.48846,-1.8742 -3.48846,-4.18615c0,-2.31195 1.56183,-4.18615 3.48846,-4.18615c1.92662,0 3.48846,1.8742 3.48846,4.18615z" fill="#cb55e8"/><path d="M251.29705,152.81614c0,2.11928 -1.48374,3.83731 -3.31404,3.83731c-1.83029,0 -3.31404,-1.71802 -3.31404,-3.83731c0,-2.11928 1.48374,-3.83731 3.31404,-3.83731c1.83029,0 3.31404,1.71802 3.31404,3.83731z" fill="#cb55e8"/><path d="M243.27359,159.44422c0,1.73396 -1.63992,3.13961 -3.66288,3.13961c-2.02296,0 -3.66288,-1.40566 -3.66288,-3.13961c0,-1.73396 1.63992,-3.13961 3.66288,-3.13961c2.02296,0 3.66288,1.40566 3.66288,3.13961z" fill="#cb55e8"/><path d="M254.43666,164.67691c0,2.11928 -1.40566,3.83731 -3.13961,3.83731c-1.73396,0 -3.13961,-1.71802 -3.13961,-3.83731c0,-2.11928 1.40566,-3.83731 3.13961,-3.83731c1.73396,0 3.13961,1.71802 3.13961,3.83731z" fill="#cb55e8"/><path d="M280.6001,138.68788c0,4.29722 2.42286,11.08878 1.10357,14.74913c-1.47985,4.10583 -6.8574,4.99256 -9.69223,8.17958c-4.50829,5.0684 -7.0377,10.64062 -13.91669,12.97835c-5.08097,1.7267 -14.12019,0.89617 -19.87944,0.89617c-7.16752,0 -13.65825,1.19164 -20.14803,-3.18792c-5.04544,-3.40487 -10.36629,-11.69505 -14.22904,-16.76749c-3.40981,-4.47766 -8.32016,-7.02708 -10.31231,-12.11642c-2.09452,-5.35086 -1.18386,-13.25198 -1.18386,-18.3364c0,-5.38049 -0.87594,-11.00203 1.35651,-14.84852c1.79831,-3.09846 6.34853,-4.67769 9.359,-6.87097c5.02655,-3.66211 12.21258,-9.60702 19.25511,-11.04515c5.34639,-1.09178 10.31451,1.89177 15.90262,1.89177c4.00638,0 9.30725,-1.06574 13.02388,0.1744c3.93599,1.31333 6.26478,5.00079 9.67269,7.43516c4.48752,3.20559 9.82202,1.68125 12.97414,6.27324c5.07454,7.39251 6.71407,21.75255 6.71407,30.59506z" fill="url(#color-5)"/></g><text transform="translate(166.78877,60.1327) scale(0.32909,0.32909)" font-size="40" xml:space="preserve" fill="#000000" fill-rule="nonzero" stroke="#000000" stroke-width="1" stroke-linecap="butt" stroke-linejoin="miter" stroke-miterlimit="10" stroke-dasharray="" stroke-dashoffset="0" font-family="Handwriting" font-weight="normal" text-anchor="start" style="mix-blend-mode: normal"></text></g></g></svg>