<svg version="1.1" xmlns="http://www.w3.org/2000/svg" xmlns:xlink="http://www.w3.org/1999/xlink" width="106.06164" height="162.30638" viewBox="0,0,106.06164,162.30638"><defs><linearGradient x1="240.61953" y1="58.29926" x2="240.61953" y2="237.16749" gradientUnits="userSpaceOnUse" id="color-1"><stop offset="0" stop-color="#000000"/><stop offset="1" stop-color="#000000" stop-opacity="0"/></linearGradient><radialGradient cx="240.06497" cy="128.75809" r="53.03082" gradientUnits="userSpaceOnUse" id="color-2"><stop offset="0" stop-color="#b2b2b2" stop-opacity="0"/><stop offset="1" stop-color="#b2b2b2"/></radialGradient><radialGradient cx="221.29131" cy="113.07605" r="4.53299" gradientUnits="userSpaceOnUse" id="color-3"><stop offset="0" stop-color="#99a5ff" stop-opacity="0"/><stop offset="1" stop-color="#99a5ff"/></radialGradient></defs><g transform="translate(-187.03414,-50.19376)"><g data-paper-data="{&quot;isPaintingLayer&quot;:true}" stroke-linecap="butt" stroke-linejoin="miter" stroke-miterlimit="10" stroke-dasharray="" stroke-dashoffset="0" style="mix-blend-mode: normal"><path d="M284.37023,179.70937c0.07585,1.88165 -6.82295,7.07192 -42.75929,7.07192c-35.93634,0 -45.96971,-4.43047 -45.98172,-7.45949c-0.01038,-2.6151 9.30175,-6.10294 45.23807,-6.10294c35.93634,0 43.43354,4.76932 43.50294,6.49051z" fill="url(#color-1)" fill-rule="nonzero" stroke="none" stroke-width="0"/><text transform="translate(228.34559,206.52039) scale(0.357,0.357)" font-size="40" xml:space="preserve" fill="#ffffff" fill-rule="nonzero" stroke="#ffffff" stroke-width="0.5" stroke-linecap="butt" stroke-linejoin="miter" stroke-miterlimit="10" stroke-dasharray="" stroke-dashoffset="0" font-family="Handwriting" font-weight="normal" text-anchor="start" style="mix-blend-mode: normal"></text><text transform="translate(200.0857,63.30262) scale(0.34497,0.34497)" font-size="40" xml:space="preserve" fill="#ffffff" fill-rule="nonzero" stroke="#ffffff" stroke-width="1" stroke-linecap="butt" stroke-linejoin="miter" stroke-miterlimit="10" stroke-dasharray="" stroke-dashoffset="0" font-family="Handwriting" font-weight="normal" text-anchor="start" style="mix-blend-mode: normal"></text><g fill-rule="evenodd" stroke="none" stroke-width="1"><path d="M246.67989,129.91472c-0.0807,0.12105 -0.21519,0.21519 -0.30933,0.33623c-0.21519,0.28243 -0.21519,0.53797 -0.09414,0.86075c0.26898,0.69936 0.09414,1.50632 -0.47072,2.00394c-0.26898,0.24209 -0.63211,0.39003 -0.98179,0.43038c-0.48417,0.05379 -0.45727,0.05379 -0.86075,0.44382c-0.33623,0.34968 -0.40348,0.94144 -0.75316,1.27768c-0.21519,0.21519 -0.56487,0.57832 -1.41217,0.43038c-0.45727,-0.09414 -0.7935,-0.22864 -1.23733,-0.32278c-0.65901,-0.13449 -0.57832,-0.06724 -1.04904,0.32278c-0.63211,0.51107 -1.56011,0.8204 -2.21912,0.24208c-0.34968,-0.30934 -0.52452,-0.68591 -0.7935,-1.04904c-0.40347,-0.55142 -0.86075,-0.51107 -1.47941,-0.55142c-0.69936,-0.04035 -1.17008,-0.65901 -1.17008,-1.38527c-0.01345,-0.47072 0.05379,-0.98179 -0.21519,-1.41217c-0.20174,-0.32278 -0.40348,-0.56487 -0.63211,-0.86075c-0.59177,-0.73971 -0.34968,-1.46597 0.01345,-2.23257c0.26898,-0.56487 -0.39003,-0.8473 -0.24209,-1.39872c0.09414,-0.34968 1.11628,-0.83385 1.18353,-1.7484c0.0269,-0.34968 -0.08069,-1.46596 0.68591,-1.38527c0.22864,0.0269 0.53797,0.04035 0.73971,-0.09414c0.25553,-0.17484 0.25554,-0.25554 0.30934,-0.53797c0.16139,-0.86075 0.69936,-1.30458 1.58701,-1.03559c0.33623,0.10759 0.59177,0.26898 0.94144,0.22864c0.36313,-0.04035 0.53797,-0.30934 0.83385,-0.48417c0.32278,-0.20174 0.79351,-0.37658 1.18353,-0.28243c0.37658,0.09414 0.43037,0.39003 0.64556,0.67246c0.44383,0.57832 0.98179,0.08069 1.51976,0.01345c0.65901,-0.0807 1.21043,0.29588 1.34492,0.86075c0.05379,0.21519 0.12104,0.36313 0.26898,0.52452c0.20174,0.21519 0.29588,0.22864 0.56487,0.24209c0.32278,0.01345 0.7666,0.16139 0.99524,0.39003c0.64556,0.67246 0.05379,1.56011 0.13449,2.36706c0.05379,0.60521 0.55141,0.7666 0.88765,1.18353c0.21519,0.25554 0.33623,0.59176 0.34968,0.928c0.01345,0.36313 -0.08069,0.72626 -0.26898,1.02214z" fill="#df6530"/><path d="M246.03433,130.34509c0.10759,0.47072 0.14794,0.98179 -0.14794,1.39872c-0.17484,0.24209 -0.41692,0.22864 -0.59177,0.41692c-0.44383,0.48417 -0.12104,1.18353 -0.52452,1.8022c-0.22864,0.34968 -0.95489,0.40347 -1.38527,0.43038c-0.04035,0 -0.25553,0.04035 -0.28243,0.21519c-0.18829,0.67246 -0.96835,0.78006 -1.62736,0.83386c-0.49762,0.04035 -0.88765,0.33623 -1.39872,0.25554c-0.22864,-0.04035 -0.45727,-0.16139 -0.68591,-0.18829c-0.34968,-0.04035 -0.47073,0.12104 -0.76661,0.16139c-0.44383,0.04035 -0.69936,-0.29588 -1.07594,-0.44383c-0.39003,-0.14794 -0.8204,-0.09414 -1.19698,-0.29588c-0.40347,-0.21519 -0.61866,-0.63211 -0.99524,-0.8742c-0.29588,-0.18829 -0.47072,-0.41693 -0.61867,-0.73971c-0.13449,-0.26898 -0.16139,-0.47072 -0.43038,-0.64556c-0.13449,-0.09414 -0.24208,-0.12104 -0.36313,-0.24208c-0.29588,-0.29588 -0.65901,-0.43038 -0.71281,-1.21043c-0.01345,-0.22864 -0.09414,-0.39003 -0.09414,-0.61866c0,-0.24209 -0.0269,-0.40348 -0.09414,-0.65901c-0.13449,-0.44383 0.06725,-0.8742 0.16139,-1.33147c0.10759,-0.57832 -0.0269,-1.03559 0,-1.62736c0.01345,-0.41693 0.14794,-0.72625 0.44383,-1.02214c0.18829,-0.17484 0.43038,-0.28243 0.57832,-0.51107c0.16139,-0.25554 0.20174,-0.56487 0.32278,-0.83385c0.14794,-0.33623 0.34968,-0.60522 0.69936,-0.7666c0.0269,-0.01345 1.11628,-0.39003 1.95014,-1.21043c0.53796,-0.53797 1.21043,-0.06725 1.90979,-0.04035c0.78005,0.0269 1.42562,-0.32278 2.19222,-0.0269c0.34968,0.13449 0.67246,0.36313 1.02214,0.47072c0.33623,0.10759 0.53797,-0.01345 0.88765,0.06725c0.65901,0.16139 0.95489,1.34492 1.43906,1.92324c0.48417,0.56487 1.12973,0.63211 1.30457,1.41217c0.09414,0.37658 -0.04035,0.7397 0.12104,1.08938c0.13449,0.28243 0.36313,0.49762 0.45727,0.79351c0.20174,0.65902 -0.61867,1.56011 -0.49762,2.01738z" fill="#ea9b1f"/><path d="M239.68629,122.89422c0.68591,0 1.46596,0.44383 2.08463,0.67246c0.65901,0.22864 1.22388,0.17484 1.76185,0.60521c0.49762,0.40347 0.44383,0.928 0.79351,1.47941c0.24209,0.37658 0.90109,0.67246 1.12973,1.15663c0.32278,0.67246 0.18829,1.54666 0.18829,2.21912c0,0.45727 0.18829,1.33148 0.09414,1.76185c-0.22864,0.99524 -1.25078,1.30457 -1.89634,2.04428c-0.52452,0.59177 -0.86075,1.22388 -1.57356,1.56011c-0.78005,0.37658 -1.43906,0.91455 -2.36706,0.91455c-0.49762,0 -1.19698,-0.67246 -1.65425,-0.79351c-0.61867,-0.14794 -1.82909,0.14794 -2.12497,-0.40347c-0.99524,-1.88289 -1.31803,-1.62735 -1.78875,-2.32671c-0.63211,-0.94144 -0.41692,-1.60046 -0.41692,-2.82433c0,-0.63211 -0.34968,-1.23733 -0.16139,-1.8022c0.22864,-0.71281 0.86075,-1.30457 1.31802,-1.86944c0.64556,-0.80695 1.84254,-1.14319 2.81089,-1.53321c0.64556,-0.25554 1.03559,-0.86075 1.80219,-0.86075z" fill="#f3bb1b"/><path d="M234.32006,129.02707c0,-2.96369 2.40255,-5.36624 5.36624,-5.36624c2.96369,0 5.36624,2.40255 5.36624,5.36624c0,2.96369 -2.40255,5.36624 -5.36624,5.36624c-2.96369,0 -5.36624,-2.40254 -5.36624,-5.36624z" fill="#f9d20d"/></g><path d="M293.09578,128.75809c0,28.41057 -23.74271,51.44188 -53.03082,51.44188c-29.28811,0 -53.03082,-23.03131 -53.03082,-51.44188c0,-28.41057 23.74271,-51.44188 53.03082,-51.44188c29.28811,0 53.03082,23.03131 53.03082,51.44188zM239.58162,153.55948c13.80712,0 25,-11.19288 25,-25c0,-13.80712 -11.19288,-25 -25,-25c-13.80712,0 -25,11.19288 -25,25c0,13.80712 11.19288,25 25,25z" fill="url(#color-2)" fill-rule="nonzero" stroke="none" stroke-width="0"/><g fill-rule="nonzero" stroke="none" stroke-width="0"><path d="M225.66826,112.98928c0,2.39655 -1.97222,4.33931 -4.40507,4.33931c-2.43284,0 -4.40507,-1.94277 -4.40507,-4.33931c0,-2.39653 1.97222,-4.33932 4.40507,-4.33932c2.43284,0 4.40507,1.94277 4.40507,4.33932z" fill="#4f64ff"/><path d="M225.06879,115.1175c-0.42719,0.87699 -2.04508,2.31098 -3.80964,2.25846c-2.33217,-0.06941 -3.27559,-1.48858 -3.77749,-2.16201c-0.31035,-0.41642 2.07944,0.44205 3.97038,0.44205c1.89094,0 3.70628,-1.09737 3.61675,-0.53849z" fill="#402fc7"/><path d="M221.29131,110.82914c-1.89094,0 -4.31288,0.63343 -4.00253,0.21701c0.36904,-0.49518 0.6484,-1.17896 1.67867,-1.68892c0.45069,-0.22308 1.12786,0.31685 2.35601,0.26633c1.13199,-0.01264 1.58223,-0.53695 1.97822,-0.38605c1.24923,0.47603 1.63565,1.23918 1.96002,1.90509c0.08953,0.55889 -2.07943,-0.31345 -3.97038,-0.31345z" data-paper-data="{&quot;index&quot;:null}" fill="#402fc7"/><path d="M222.05409,113.6764c0,0.17444 -0.37762,0.22288 -0.86052,0.37692c-0.60007,0.19141 -1.37783,0.47031 -1.97287,0.47031c-0.14729,0 -0.56496,0.04352 -0.9554,-0.11131c-0.49001,-0.19433 -0.95315,-0.60527 -0.96653,-0.71868c-0.01015,-0.08617 0.28706,-0.50131 0.68966,-0.71384c0.46889,-0.24753 1.07081,-0.28954 1.34337,-0.28954c0.67282,0 1.46002,0.34463 2.03717,0.61527c0.34405,0.16134 0.68511,0.22475 0.68511,0.37085z" fill="#402fc7"/><path d="M220.58356,114.33379c-0.00412,0.15975 -0.66552,0.33739 -1.43762,0.31746c-0.7721,-0.01993 -1.33037,-0.22988 -1.32625,-0.38963c0.00412,-0.15975 0.56908,0.27344 1.34117,0.29337c0.7721,0.01993 1.42682,-0.38096 1.4227,-0.2212z" fill="#ffffff"/><path d="M218.22131,113.8052c0.2728,0.30841 0.91369,-0.18578 0.64592,0.06076c-0.26777,0.24654 -0.64083,0.27701 -0.83325,0.06803c-0.19242,-0.20898 -0.15689,-0.51107 0.11088,-0.75763c0.26777,-0.24654 -0.17656,0.34279 0.07645,0.62883z" fill="#ffffff"/><path d="M221.93428,111.96692c0,0.09765 -1.18945,-0.24111 -1.78426,-0.24111c-0.5948,0 -1.46278,0.30662 -1.46278,0.20897c0,-0.09765 0.90012,-0.33756 1.49492,-0.33756c0.5948,0 1.75212,0.27205 1.75212,0.36971z" fill="#ffffff"/><path d="M225.5671,113.84762c0,0.15981 -0.68994,0.1929 -1.38241,0.1929c-0.69246,0 -1.41454,-0.0974 -1.41454,-0.25719c0,-0.15981 0.78639,0.09645 1.47885,0.09645c0.69246,0 1.31809,-0.19195 1.31809,-0.03215z" fill="#ffffff"/><path d="M221.74136,109.66756c-0.00967,0.08441 -0.46983,0.21357 -1.18345,0.13173c-0.71362,-0.08185 -1.5954,-0.44936 -1.58573,-0.53377c0.00967,-0.08441 0.88173,0.28872 1.59535,0.37057c0.71362,0.08185 1.18351,-0.05293 1.17383,0.03148z" fill="#ffffff"/><path d="M221.96643,116.0659c0.09395,0.08137 -0.6808,0.16074 -1.63959,0.16074c-0.95879,0 -1.70389,-0.29364 -1.70389,-0.41793c0,-0.12429 0.71295,0.32149 1.67174,0.32149c0.95879,0 1.63959,-0.09213 1.67173,-0.0643z" fill="#ffffff"/><path d="M225.82428,113.07605c0,2.45024 -2.02949,4.43654 -4.53299,4.43654c-2.5035,0 -4.53299,-1.9863 -4.53299,-4.43654c0,-2.45024 2.02949,-4.43654 4.53299,-4.43654c2.5035,0 4.53299,1.98631 4.53299,4.43654z" fill="url(#color-3)"/></g><g stroke="none" stroke-width="1"><path d="M246.25216,116.59442c0,-2.07233 1.67996,-3.75229 3.75229,-3.75229c2.07233,0 3.75229,1.67996 3.75229,3.75229c0,2.07233 -1.67996,3.75229 -3.75229,3.75229c-2.07233,0 -3.75229,-1.67996 -3.75229,-3.75229z" fill="#0077b8" fill-rule="evenodd"/><path d="M246.30601,115.95952c-0.00615,0.03595 -0.01176,0.07217 -0.01681,0.10839c0.00506,-0.03691 0.01066,-0.07313 0.01681,-0.10839z" fill="#74b140" fill-rule="evenodd"/><path d="M246.33554,115.91769c-0.01123,0.01268 -0.02121,0.02641 -0.0298,0.04101c0.00492,-0.02861 0.01012,-0.05704 0.01558,-0.08529v-0.00082c0.0056,-0.02843 0.01148,-0.05659 0.01763,-0.08474c0.00893,0.00364 0.01724,0.00867 0.0246,0.0149c0.01517,0.01299 0.03185,0.03622 0.02734,0.05755c-0.00533,0.02543 -0.03827,0.03896 -0.05536,0.05741z" fill="#74b140" fill-rule="evenodd"/><path d="M246.75762,114.78908c-0.01897,0.01771 -0.04114,0.03163 -0.06534,0.04101c0.01376,-0.02597 0.02788,-0.05167 0.04237,-0.07709c0.10107,-0.17808 0.21654,-0.34759 0.34527,-0.50683c0.02077,-0.02579 0.04187,-0.05134 0.06329,-0.07668c0.02641,0.00735 0.04996,0.02256 0.06752,0.0436c0.02679,0.03267 0.02242,0.05003 0.00519,0.07736c0.01588,-0.00196 0.03144,-0.00591 0.04634,-0.01176c0.01793,-0.00463 0.03674,-0.00463 0.05467,0c0.03553,0.00998 0.0637,0.03786 0.08529,0.06656c0.03513,0.04661 0.05755,0.10237 0.0831,0.15459l0.08119,0.1658c0.02324,0.04729 0.06738,0.14967 -0.00096,0.18398c-0.02539,0.01102 -0.05487,0.00633 -0.07559,-0.01203c-0.01463,-0.01107 -0.03567,-0.04333 -0.05659,-0.05289c0.00699,0.05872 0.02333,0.11593 0.04839,0.16949c0.00406,0.00754 0.00331,0.01677 -0.00191,0.02355c-0.00522,0.00679 -0.01395,0.00987 -0.02228,0.00788c-0.01919,-0.00419 -0.039,-0.00466 -0.05837,-0.00136c0.00984,0.04524 0.00889,0.09185 -0.03212,0.12234c-0.00576,0.00328 -0.01271,0.00372 -0.01884,0.00121c-0.00614,-0.00251 -0.01078,-0.00769 -0.0126,-0.01406c-0.04321,-0.12937 -0.14061,-0.23351 -0.26681,-0.28526c-0.0087,-0.00306 -0.01452,-0.01128 -0.01452,-0.0205c0,-0.00922 0.00582,-0.01745 0.01452,-0.0205c0.04866,-0.01285 0.10128,-0.01176 0.14858,-0.02939c0.02482,-0.00776 0.0462,-0.02383 0.06055,-0.04552c0.01189,-0.02228 -0.00027,-0.0447 -0.00683,-0.06725c-0.02296,-0.07832 -0.05672,-0.18658 -0.15637,-0.18876c-0.09664,-0.00259 -0.07613,0.11577 -0.10115,0.17769c-0.02146,0.05112 -0.06615,0.08967 -0.12302,0.07039c-0.02064,-0.00697 -0.04333,-0.02488 -0.06438,-0.00943c-0.01123,0.01115 -0.01986,0.02464 -0.02529,0.0395c-0.01244,0.02624 -0.02269,0.05331 -0.04333,0.07436z" fill="#74b140" fill-rule="evenodd"/><path d="M248.12188,118.30285c0.03267,0.11372 -0.08871,0.17304 -0.12548,0.26407c-0.04497,0.11086 -0.00096,0.23742 -0.05098,0.34841c-0.02,0.04491 -0.0563,0.08057 -0.10155,0.09978c-0.05536,0.02474 -0.11154,0.03691 -0.15623,0.08078c-0.08174,0.08024 -0.11522,0.20434 -0.16908,0.30877c-0.04333,-0.03786 -0.08433,-0.07696 -0.12534,-0.11673c-0.0678,-0.06574 -0.1334,-0.13354 -0.19601,-0.20421c-0.10072,-0.11341 -0.19447,-0.23282 -0.28075,-0.35757c-0.22492,-0.32497 -0.39683,-0.68358 -0.50929,-1.06246l0.0015,0.00082c0.08283,-0.06752 0.13422,-0.20571 0.26216,-0.17031c0.00635,0.0019 0.01149,0.00657 0.01399,0.01271c0.0025,0.00614 0.00208,0.01307 -0.00114,0.01886c-0.00341,0.00738 -0.0067,0.0149 -0.01012,0.02242l0.2187,0.02802c0.06042,0.00765 0.14037,0.00396 0.18343,0.05358c0.01845,0.02132 0.02788,0.0488 0.04579,0.07039c0.02258,0.0248 0.05129,0.04323 0.08324,0.05344c0.05262,0.01955 0.11017,0.02611 0.16197,0.0488c0.04363,0.01725 0.08136,0.04672 0.10867,0.08488c0.01199,0.01795 0.01945,0.03854 0.02173,0.06c0.00314,0.03198 -0.00807,0.05003 0.02392,0.07176c0.03198,0.02173 0.07176,0.03677 0.10634,0.05467c0.02884,0.01504 0.05755,0.03117 0.08693,0.04484c0.06055,0.02898 0.12042,0.01831 0.18234,0.03622c0.02338,0.00719 0.04452,0.02027 0.06137,0.038c0.00772,0.00897 0.01598,0.01746 0.02474,0.02543c0.01708,0.0134 0.03759,0.01312 0.05809,0.01695c0.04019,0.00752 0.07025,0.02748 0.08106,0.06766z" fill="#74b140" fill-rule="evenodd"/><path d="M246.2873,116.68634c-0.01048,-0.006 -0.02328,-0.00633 -0.03406,-0.00089c-0.00109,-0.03035 -0.00109,-0.06055 -0.00109,-0.09103c0,-0.02834 0.00055,-0.05672 0.00164,-0.08515c0,-0.00902 0,-0.01818 0,-0.02734c0.00068,-0.01968 0.00136,-0.0395 0.00232,-0.05919c0.00055,-0.0123 0.00177,-0.0246 0.00177,-0.03677c0.00109,-0.02146 0.00246,-0.04169 0.00396,-0.06247c0.00109,-0.01695 0.00259,-0.03376 0.00396,-0.05057l0.00301,-0.0216c0.00556,-0.0616 0.01262,-0.12284 0.02119,-0.1837c0.00929,0.01094 0.02378,0.01476 0.0447,0.00232c0.02091,-0.01244 0.02993,-0.03636 0.03704,-0.05823c0.01367,-0.04183 0.02269,-0.12821 0.07586,-0.14188c0.04374,-0.01107 0.06411,0.04046 0.06629,0.07436c0.00023,0.02572 -0.00289,0.05136 -0.00929,0.07627c0.0596,-0.0488 0.15199,-0.11017 0.05358,-0.16594c-0.03092,-0.01604 -0.05513,-0.04254 -0.06834,-0.07477c-0.01804,-0.03909 -0.04032,-0.06151 -0.08406,-0.06834c-0.01565,-0.0023 -0.03147,-0.00331 -0.04729,-0.00301c0.01476,-0.06096 0.03117,-0.12151 0.0488,-0.18138c0.0015,-0.00492 0.00301,-0.00984 0.00437,-0.01463c0.00533,-0.01777 0.0108,-0.03553 0.0164,-0.05317c0.00205,-0.00615 0.00424,-0.01326 0.00642,-0.01982c0.00847,-0.02624 0.01722,-0.05249 0.02624,-0.07846l0.01367,-0.03841l0.01299,-0.03553c0.00588,-0.01545 0.01176,-0.03103 0.01777,-0.04647c0.00355,-0.00916 0.00697,-0.01831 0.01052,-0.02734c0.0108,0.00807 0.02132,0.01599 0.03117,0.02365c0.10279,0.0816 0.18712,0.21063 0.15979,0.34499c0.03062,0 0.0555,-0.02543 0.06479,-0.05577c0.01176,-0.03896 0.00014,-0.0816 -0.00889,-0.12001c-0.00173,-0.00646 -0.00038,-0.01336 0.00365,-0.0187c0.00403,-0.00534 0.0103,-0.00853 0.01699,-0.00864c0.0499,0.00738 0.09865,-0.01924 0.11941,-0.06522c0.02077,-0.04598 0.00851,-0.10015 -0.03002,-0.13271c-0.00467,-0.00471 -0.0069,-0.01131 -0.00605,-0.01788c0.00086,-0.00657 0.0047,-0.01239 0.01042,-0.01574c0.07751,-0.03175 0.13206,-0.10258 0.14298,-0.18562c0.00023,-0.00758 0.00437,-0.01451 0.01094,-0.0183c0.00657,-0.00379 0.01464,-0.0039 0.02132,-0.00029c0.06971,0.0298 0.15008,0.06861 0.18206,0.14243c0.01818,0.04155 0.00219,0.1032 0.04948,0.12507c0.05604,0.02583 0.11263,-0.01804 0.15459,-0.05112c0.00627,-0.00575 0.0153,-0.00734 0.02315,-0.00409c0.00786,0.00325 0.01311,0.01077 0.01348,0.01926c0.01802,0.16529 0.06426,0.32627 0.13668,0.47594c0.00471,0.00844 0.00325,0.01897 -0.00358,0.0258c-0.00683,0.00683 -0.01737,0.00829 -0.0258,0.00358c-0.03896,-0.02077 -0.08939,0.03144 -0.12302,0.04675c-0.03868,0.01763 -0.07641,0.01476 -0.11646,0.00301c-0.05139,-0.01504 -0.09664,-0.03076 -0.15035,-0.01708c-0.03746,0.00962 -0.07123,0.03012 -0.09705,0.05891l0.13081,0.00301c0.00669,0.00012 0.01297,0.0033 0.01702,0.00863c0.00405,0.00533 0.00544,0.01222 0.00376,0.0187c-0.0128,0.06495 0.00984,0.13182 0.05946,0.17564c0.00521,0.00548 0.0072,0.01328 0.00525,0.02059c-0.00195,0.00731 -0.00757,0.01307 -0.01482,0.01522c-0.03567,0.01121 -0.07148,0.02488 -0.10785,0.03362c-0.01856,0.00657 -0.03914,0.00399 -0.0555,-0.00697c-0.01831,-0.01381 -0.02912,-0.03772 -0.03923,-0.05905c-0.0038,0.00672 -0.00839,0.01296 -0.01367,0.01859c-0.02269,0.02392 -0.05358,0.02748 -0.08351,0.03759c-0.04224,0.01422 -0.09089,0.05412 -0.06738,0.10388c0.00367,0.00669 0.0036,0.0148 -0.0002,0.02142c-0.0038,0.00662 -0.01077,0.01078 -0.01839,0.01098c-0.08349,0.00806 -0.16002,0.05001 -0.21173,0.11604c-0.01121,0.01381 -0.03076,0.0041 -0.03581,-0.00957c-0.00007,-0.00045 -0.00007,-0.00091 0,-0.00136c0.00109,0.02775 0.01066,0.05659 0.00834,0.08392c-0.00287,0.02707 -0.01399,0.0526 -0.03185,0.07313c-0.04402,0.05372 -0.11208,0.07135 -0.16799,0.10839c-0.13217,0.08734 -0.00861,0.2608 -0.08734,0.37643c-0.00342,0.00568 -0.00925,0.00949 -0.01582,0.01034c-0.00657,0.00085 -0.01318,-0.00134 -0.01794,-0.00596c-0.03021,-0.03568 -0.0486,-0.07986 -0.05262,-0.12644c-0.00219,-0.0283 0.00902,-0.05563 0.00697,-0.08297c-0.00077,-0.01205 -0.00754,-0.02291 -0.01802,-0.02891z" fill="#74b140" fill-rule="evenodd"/><path d="M246.44159,117.1413c-0.03691,-0.01012 -0.07381,-0.01326 -0.10347,-0.03978c-0.01968,-0.0175 -0.03171,-0.03896 -0.05782,-0.04743c-0.00341,-0.02816 -0.00656,-0.05632 -0.00943,-0.08474c0.01476,0.00492 0.02898,0.01135 0.04101,0.01654c0.02624,0.01138 0.0514,0.0251 0.07518,0.04101c0.02105,0.01422 0.04032,0.03472 0.06288,0.0462c0.03007,0.01517 0.06574,0.00834 0.09841,0.00807c0.03267,-0.00027 0.0652,0.00109 0.09787,0.00314c0.01695,0.00123 0.03048,0.02378 0.01517,0.03663c-0.03117,0.02624 -0.06711,0.05508 -0.10935,0.05877c-0.04374,0.00369 -0.07067,-0.02706 -0.11044,-0.03841z" fill="#74b140" fill-rule="evenodd"/><path d="M246.74723,117.17916c0.04019,0.00109 0.09185,0.02255 0.06615,0.07148c-0.0038,0.00664 -0.01093,0.01069 -0.01859,0.01052c-0.04456,-0.00287 -0.08037,0.01012 -0.12302,0.01708c-0.02038,0.00427 -0.04161,0.00055 -0.05932,-0.01039c-0.00631,-0.00091 -0.01198,-0.00432 -0.01574,-0.00946c-0.00376,-0.00514 -0.00528,-0.01159 -0.00422,-0.01787c0.00051,-0.00884 0.00573,-0.01672 0.01367,-0.02064c0.01285,-0.01613 0.02679,-0.03553 0.04607,-0.04101c0.02788,-0.00807 0.06643,-0.00055 0.095,0.00027z" fill="#74b140" fill-rule="evenodd"/><path d="M247.18531,114.11877c0.02661,-0.03089 0.05394,-0.06124 0.08201,-0.09103c0.00298,0.0043 0.00554,0.00888 0.00765,0.01367c0.0205,0.04552 -0.01203,0.08051 -0.05809,0.08051c-0.01059,-0.00025 -0.02114,-0.00131 -0.03158,-0.00314z" fill="#74b140" fill-rule="evenodd"/><path d="M247.36234,113.99798c-0.00808,0.00331 -0.01735,0.00146 -0.02355,-0.00469c-0.00743,-0.00589 -0.01534,-0.01115 -0.02365,-0.01572c0.02059,-0.02105 0.04141,-0.04196 0.06247,-0.06274c0,0.00328 0,0.00656 0,0.01012c-0.00055,0.01777 -0.00177,0.0354 -0.00177,0.05317c-0.0001,0.00873 -0.00541,0.01655 -0.01349,0.01986z" fill="#74b140" fill-rule="evenodd"/><path d="M247.41084,113.88258c0.0257,-0.02447 0.0518,-0.04866 0.07805,-0.07258c0.00164,-0.00136 0.00328,-0.00273 0.00478,-0.00424c0.02419,-0.02173 0.04866,-0.04306 0.0734,-0.06424l0.01094,-0.00929c0.02378,-0.02005 0.04784,-0.04005 0.07217,-0.06l0.00834,-0.0067c0.02679,-0.0215 0.05385,-0.04265 0.08119,-0.06342c0.05016,0.01135 0.10675,0.00971 0.14393,0.05303c0.00521,0.00549 0.0072,0.01328 0.00528,0.0206c-0.00192,0.00732 -0.00749,0.01312 -0.01472,0.01535l-0.10935,0.03048c-0.02871,0.00793 -0.06288,0.01257 -0.08857,0.0283c-0.02324,0.01408 -0.03117,0.04046 -0.05755,0.05057c-0.02214,0.00861 -0.04456,0.00424 -0.06738,0.00424c-0.04716,0.00082 -0.03035,0.02378 -0.04716,0.05331c-0.00876,0.01491 -0.02387,0.02499 -0.04101,0.02734c-0.01763,0.00369 -0.03553,-0.00273 -0.05235,-0.00273z" fill="#74b140" fill-rule="evenodd"/><path d="M248.63335,114.80712c-0.0261,0.00487 -0.0512,0.01411 -0.07422,0.02734c-0.02037,0.01299 -0.03376,0.03226 -0.05112,0.04852c-0.03294,0.03062 -0.06588,0.03267 -0.10935,0.03062c-0.10757,-0.00506 -0.15582,0.10155 -0.18958,0.18726c-0.02912,0.07381 -0.06096,0.14776 -0.13094,0.19136c-0.00667,0.00376 -0.01484,0.00373 -0.02148,-0.00009c-0.00664,-0.00382 -0.01079,-0.01085 -0.01092,-0.0185c-0.00317,-0.03938 -0.02791,-0.07375 -0.06424,-0.08926c-0.01859,-0.00779 -0.04101,-0.00998 -0.05467,-0.02583c-0.01695,-0.01872 -0.01107,-0.03854 -0.00971,-0.0611c0.00219,-0.03964 -0.01299,-0.07039 -0.02993,-0.10552c-0.02378,-0.04921 -0.038,-0.0965 -0.03117,-0.15117c0.00656,-0.05317 0.02816,-0.10279 0.04934,-0.15145c0.02433,-0.05755 0.05344,-0.11809 0.05467,-0.1822c0.00123,-0.07518 -0.04128,-0.13382 -0.08078,-0.19341c-0.03417,-0.0518 -0.02242,-0.12028 -0.06506,-0.16621c-0.03929,-0.04274 -0.10106,-0.05644 -0.15473,-0.03431c-0.00576,0.00328 -0.01271,0.00372 -0.01884,0.00121c-0.00614,-0.00251 -0.01078,-0.00769 -0.0126,-0.01406c-0.00555,-0.02355 -0.00094,-0.04836 0.01271,-0.06834l-0.05057,-0.01654c-0.00723,-0.00218 -0.01281,-0.00797 -0.01473,-0.01527c-0.00192,-0.0073 0.00008,-0.01508 0.0053,-0.02054c0.00862,-0.0108 0.01902,-0.02004 0.03076,-0.02734c-0.023,-0.02061 -0.03633,-0.0499 -0.03677,-0.08078c0.00007,-0.01182 0.00964,-0.02138 0.02146,-0.02146l0.1345,-0.00068l-0.01777,-0.0667c-0.00179,-0.00647 -0.00046,-0.0134 0.00358,-0.01875c0.00404,-0.00535 0.01035,-0.00853 0.01706,-0.00858c0.07504,0.00834 0.13067,-0.01572 0.19806,-0.04306c0.04729,-0.01955 0.10128,-0.01859 0.15172,-0.0175c0.04499,-0.00075 0.08968,0.00743 0.13149,0.02405c0.02147,0.00959 0.04094,0.02313 0.05741,0.03991l0.0123,0.01367c0.01107,0.00875 0.01476,0.00875 0.01107,0c0.00219,-0.00492 -0.00369,-0.02064 -0.00301,-0.02734c0.00328,-0.03608 0.03772,-0.05741 0.07053,-0.06137c0.0328,-0.00396 0.06424,0.0067 0.09705,-0.00164c0.02871,-0.00752 0.05522,-0.02337 0.08338,-0.03335c0.04251,-0.01504 0.09541,-0.01982 0.12931,0.01558c0.01499,0.01525 0.02342,0.03575 0.02351,0.05713c0.06848,-0.01367 0.18343,-0.03403 0.19232,0.04101c0.00194,0.01586 -0.0035,0.03173 -0.01476,0.04306c0.0139,-0.00041 0.02776,0.00152 0.04101,0.00574c0.00723,0.00223 0.0128,0.00803 0.01472,0.01535c0.00192,0.00732 -0.00008,0.01511 -0.00528,0.0206c-0.03991,0.04114 0.0216,0.01708 0.0421,0.0108c0.02164,-0.00655 0.04425,-0.00932 0.06684,-0.0082c0.04509,0.00226 0.08824,0.01904 0.12302,0.04784c0.00556,0.00541 0.00771,0.01344 0.0056,0.02091c-0.01627,0.06588 -0.09486,0.04388 -0.12944,0.0883c-0.0205,0.02624 -0.01708,0.06615 -0.022,0.09746c-0.00531,0.02908 -0.01683,0.05668 -0.03376,0.08092c-0.04306,0.07135 0.01872,0.16977 -0.02091,0.24426c-0.01699,0.03368 -0.0577,0.04774 -0.09185,0.03171l-0.0164,0.02283c0.05369,0.04884 0.05913,0.1314 0.0123,0.18685c-0.00403,0.00494 -0.0104,0.00733 -0.01668,0.00629c0.00607,0.00653 0.00707,0.01629 0.00246,0.02392c-0.04388,0.07914 -0.13395,0.08762 -0.21227,0.10607z" fill="#74b140" fill-rule="evenodd"/><path d="M248.88827,115.14624c-0.03936,-0.00314 -0.09555,-0.01203 -0.12001,-0.04689c-0.02734,-0.03909 -0.00232,-0.1047 -0.04265,-0.13573c-0.01177,-0.01632 -0.01177,-0.03835 0,-0.05467c0.02228,-0.03827 0.05071,-0.02665 0.07354,-0.02077c0.02001,0.00527 0.03791,0.01658 0.05126,0.03239c0.02337,0.02706 0.03786,0.04128 0.07586,0.03117c0.05126,-0.01367 0.09336,-0.05946 0.15035,-0.04948c0.04237,0.00779 0.03718,0.04183 0.03021,0.07613c-0.00943,0.04689 -0.02077,0.10456 -0.06315,0.13272c-0.04673,0.028 -0.10119,0.04031 -0.15541,0.03513z" fill="#74b140" fill-rule="evenodd"/><path d="M249.85481,114.18936c-0.00712,-0.00194 -0.01275,-0.00737 -0.01494,-0.01441c-0.01039,-0.04975 -0.06971,-0.07121 -0.0596,-0.12958c0.00861,-0.05098 0.05467,-0.07272 0.10155,-0.06465c0.00619,0.00094 0.0114,0.00511 0.01367,0.01094c0.02187,-0.00889 0.04306,-0.03444 0.05672,-0.04524c0.01604,-0.01318 0.03467,-0.02287 0.05467,-0.02843c0.04169,-0.01107 0.08652,-0.00396 0.12753,0.00629c0.02939,0.00738 0.06903,0.01599 0.07613,0.05098c0.00546,0.02871 -0.01913,0.05768 -0.04402,0.06506c-0.02488,0.00738 -0.04975,-0.00123 -0.0734,-0.00765c-0.01599,-0.00396 -0.02324,-0.00902 -0.0395,0c-0.02077,0.01203 -0.01271,0.01804 -0.01271,0.03936c0.00068,0.04224 -0.0067,0.08748 -0.04333,0.114c-0.02187,0.01572 -0.057,0.02214 -0.07723,0c-0.0092,-0.01002 -0.01283,-0.02394 -0.00971,-0.03718l-0.00109,0.00123c-0.00998,0.01217 -0.02351,0.02337 -0.03458,0.03444c-0.00546,0.00496 -0.01307,0.00678 -0.02019,0.00484z" fill="#74b140" fill-rule="evenodd"/><path d="M251.56498,117.52661c-0.05276,0.24234 -0.27146,0.38614 -0.39447,0.58897c-0.03398,0.05371 -0.05767,0.11327 -0.06985,0.17564c-0.01285,0.07381 0.00546,0.14298 0.01668,0.21542c0.01381,0.09021 0.00424,0.20216 -0.0883,0.24726c-0.02337,0.01148 -0.0503,0.01531 -0.06985,0.03636c-0.01955,0.02105 -0.02242,0.05221 -0.02474,0.07955c-0.00383,0.04524 -0.00465,0.08871 -0.02091,0.1319c-0.03553,0.09486 -0.1047,0.17701 -0.16634,0.25601c-0.0555,0.07121 -0.098,0.16634 -0.17537,0.21664c-0.04962,0.03253 -0.117,0.03622 -0.17455,0.04101c-0.05112,0.0041 -0.12261,0.01476 -0.17127,-0.00683c-0.03239,-0.01435 -0.04962,-0.06192 -0.06329,-0.09158c-0.02047,-0.04465 -0.03708,-0.09097 -0.04962,-0.13846c-0.03048,-0.11086 -0.05891,-0.22047 -0.09213,-0.3316c-0.03321,-0.11113 -0.05659,-0.22635 -0.03978,-0.3424c0.00943,-0.06534 0.02761,-0.12931 0.02119,-0.19587c-0.00559,-0.05597 -0.02433,-0.10983 -0.05467,-0.15719c-0.0272,-0.04237 -0.07395,-0.07299 -0.09445,-0.11905c-0.0205,-0.04607 -0.00287,-0.09117 0.01367,-0.13518c0.01052,-0.02693 0.02365,-0.05987 0.01367,-0.08884c-0.01094,-0.03185 -0.04511,-0.03117 -0.07176,-0.04101c-0.03499,-0.01285 -0.06192,-0.03786 -0.09076,-0.06055c-0.022,-0.01736 -0.0488,-0.03936 -0.07914,-0.03226c-0.02077,0.00492 -0.03718,0.02255 -0.05467,0.03472c-0.03827,0.02665 -0.0801,0.02871 -0.1252,0.0257c-0.03499,-0.00246 -0.06875,-0.00588 -0.10251,0.00629c-0.02242,0.00807 -0.04306,0.02064 -0.06465,0.03062c-0.03567,0.01627 -0.07354,0.0272 -0.11263,0.01627c-0.0447,-0.01244 -0.07901,-0.04675 -0.11031,-0.07901c-0.04101,-0.04224 -0.08447,-0.08365 -0.12206,-0.12876c-0.03431,-0.04101 -0.03308,-0.08187 -0.04675,-0.13067c-0.01299,-0.04442 -0.05467,-0.05973 -0.08201,-0.09363c-0.02252,-0.02635 -0.0241,-0.06469 -0.00383,-0.09281c0.01381,-0.02173 0.03308,-0.03814 0.03417,-0.06547c0.00057,-0.02921 -0.01615,-0.05601 -0.04265,-0.06834c-0.00655,-0.00391 -0.01059,-0.01096 -0.01066,-0.01859c-0.00406,-0.07699 0.02389,-0.15223 0.07723,-0.2079c0.01517,-0.01545 0.03403,-0.02665 0.04893,-0.04196c0.02064,-0.02119 0.0164,-0.04114 0.02064,-0.06656c0.00416,-0.0257 0.02382,-0.04612 0.04934,-0.05126c0.0313,-0.00875 0.06233,-0.00369 0.08392,-0.0328c0.01627,-0.02214 0.02146,-0.05221 0.02734,-0.07859c0.01176,-0.05467 0.02405,-0.10867 0.06643,-0.14885c0.10525,-0.09964 0.26039,-0.05864 0.38915,-0.06766c0.04894,-0.00409 0.09644,-0.01863 0.13928,-0.04265c0.02652,-0.01367 0.05522,-0.02925 0.08597,-0.02925c0.06547,-0.00136 0.08269,0.05495 0.10867,0.10251c0.02214,0.04073 0.05782,0.04647 0.09882,0.06014c0.02795,0.00922 0.05395,0.02354 0.07668,0.04224c0.03076,0.02474 0.06151,0.06288 0.10169,0.07162c0.02037,0.00437 0.05755,-0.00219 0.06998,-0.02228c-0.0149,-0.03745 0.01613,-0.07654 0.05632,-0.08078c0.03649,-0.0041 0.07559,0.01326 0.10935,0.02324l0.12179,0.03581c0.06192,0.01831 0.13286,0.03185 0.17837,0.07723c0.04552,0.04538 0.08351,0.10128 0.1222,0.15254c0.04281,0.05569 0.08199,0.11408 0.11728,0.17482c0.03335,0.05905 0.05659,0.12234 0.08802,0.18206c0.03294,0.0626 0.08734,0.10074 0.12944,0.15541c0.0328,0.04251 0.05289,0.11454 0.10935,0.13135c0.05016,0.01476 0.1058,-0.02077 0.15035,-0.03841c0.04224,-0.01668 0.08611,-0.02734 0.12985,-0.00971c0.01006,0.00408 0.01572,0.01482 0.0134,0.02543z" fill="#74b140" fill-rule="evenodd"/><path d="M251.52137,118.66739c-0.01036,0.04428 -0.02688,0.08688 -0.04907,0.12657c-0.02529,0.04948 -0.05672,0.09089 -0.0693,0.14639c-0.00943,0.04155 -0.01558,0.08488 -0.03909,0.12151c-0.02898,0.04497 -0.11714,0.09185 -0.14448,0.01763c-0.02351,-0.06465 -0.0123,-0.14707 0.03608,-0.19587c-0.01709,-0.06255 -0.00421,-0.12949 0.03486,-0.18125c0.02693,-0.03486 0.06424,-0.04825 0.09746,-0.07791c0.03321,-0.02966 0.05331,-0.07067 0.07299,-0.10935c0.005,-0.00823 0.01485,-0.01215 0.02414,-0.00962c0.00929,0.00254 0.01578,0.01092 0.0159,0.02055c-0.00259,0.04907 0.02966,0.08994 0.0205,0.14133z" fill="#74b140" fill-rule="evenodd"/><path d="M249.16575,115.54782c0.00353,-0.00942 0.01371,-0.01454 0.02337,-0.01176c0.00966,-0.00214 0.01972,-0.00162 0.02912,0.0015c0.00657,0.00196 0.0117,0.0071 0.01367,0.01367c0.0166,0.00701 0.03144,0.0176 0.04346,0.03103c0.02337,0.0272 0.02405,0.06547 0.02925,0.09937c0.0041,0.02638 0.00957,0.05167 -0.01995,0.06329c-0.04236,0.01517 -0.08628,0.02557 -0.13094,0.03103c-0.02638,0.00355 -0.05385,-0.00068 -0.06411,-0.03021c-0.01025,-0.02953 0.00902,-0.0518 0.02802,-0.07053c0.01069,-0.00917 0.01868,-0.02107 0.0231,-0.03444c0.00049,-0.01317 0.00017,-0.02637 -0.00096,-0.0395c0.00062,-0.01468 0.00536,-0.02889 0.01367,-0.04101c0.0035,-0.0047 0.00764,-0.00889 0.0123,-0.01244z" fill="#74b140" fill-rule="evenodd"/><path d="M249.34097,115.51009c-0.01623,-0.03756 -0.02006,-0.07931 -0.01094,-0.11919c0.00506,-0.02324 0.01681,-0.03964 0.04183,-0.04101c0.04852,-0.00273 0.05837,0.01189 0.07709,0.05905c0.01982,0.05003 0.06329,0.08474 0.08297,0.13559c0.01012,0.02455 0.0142,0.05118 0.01189,0.07764c-0.00136,0.0134 -0.00602,0.02488 -0.00861,0.03854c-0.00478,0.02419 0.00109,0.04429 0.00355,0.06834c0.00492,0.04647 -0.01968,0.05686 -0.05877,0.07162c-0.03335,0.0123 -0.10757,0.03731 -0.13409,-0.00136c-0.02378,-0.03581 0.01094,-0.10443 0.02734,-0.13668c0.01941,-0.03663 0.03212,-0.06206 0.00574,-0.098c-0.0147,-0.01667 -0.02746,-0.03497 -0.038,-0.05454z" fill="#74b140" fill-rule="evenodd"/><path d="M252.789,117.6372c0.00838,0.02174 0.01134,0.0452 0.00861,0.06834c0.00122,0.02366 -0.00039,0.04739 -0.00478,0.07067c-0.00957,0.038 -0.05276,0.05659 -0.08201,0.02433c-0.01531,-0.01681 -0.01695,-0.03936 -0.01695,-0.06096c-0.00096,-0.03226 0,-0.06465 0,-0.09705c0.00006,-0.00349 0.00095,-0.00691 0.00259,-0.00998c0.00039,-0.00471 0.00237,-0.00914 0.0056,-0.01257c0.02597,-0.02898 0.0708,-0.01558 0.08693,0.01722z" fill="#74b140" fill-rule="evenodd"/><path d="M253.51453,117.92341c-0.00807,0.02105 -0.01545,0.04087 -0.02447,0.06301c-0.00902,0.02214 -0.01804,0.04429 -0.02734,0.06615c-0.01613,-0.0246 -0.03212,-0.04921 -0.04839,-0.07381l-0.06397,-0.09691c-0.01955,-0.02953 -0.03827,-0.06274 -0.07313,-0.07573c-0.02255,-0.00027 -0.03048,-0.03608 -0.0056,-0.04196h0.00164c0.00185,-0.00065 0.00378,-0.00102 0.00574,-0.00109c0.05426,-0.00916 0.09445,0.02296 0.13012,0.06206c0.03311,0.03486 0.0683,0.06768 0.10538,0.09828z" fill="#74b140" fill-rule="evenodd"/><path d="M250.97655,114.33023c0.05317,-0.06315 0.10935,-0.12411 0.16402,-0.18617l0.08201,-0.09295c0.0216,-0.02474 0.04196,-0.05317 0.0693,-0.07244c0.03649,-0.02556 0.08926,-0.0283 0.10935,0.01763c0.02009,0.04593 -0.00902,0.08994 -0.04593,0.11577c-0.06424,0.04497 -0.23852,0.19983 -0.16552,0.28308c0.02638,0.03007 0,0.11454 -0.01572,0.12015c-0.01176,0.02501 -0.07573,0.01886 -0.07367,0.01367c-0.0436,-0.01052 -0.04866,-0.01162 -0.08201,-0.04374c-0.04224,-0.0406 -0.08433,-0.10279 -0.04183,-0.155z" fill="#74b140" fill-rule="evenodd"/><path d="M253.75632,116.59442c-0.00009,0.02834 -0.00045,0.05668 -0.00109,0.08502c0,0.00615 0,0.0123 0,0.01831c-0.00068,0.02433 -0.00164,0.04839 -0.00273,0.07258c-0.00055,0.01162 -0.00177,0.02324 -0.00177,0.03472c-0.00082,0.01613 -0.00191,0.03226 -0.00301,0.04825c-0.0015,0.02146 -0.00301,0.04169 -0.00478,0.06247c-0.00096,0.00341 -0.00096,0.0067 -0.00096,0.01012c-0.00291,0.03353 -0.00629,0.06688 -0.01012,0.10005c-0.00282,0.02552 -0.00597,0.05094 -0.00943,0.07627c-0.00474,0.03426 -0.00989,0.06843 -0.01545,0.10251c-0.00082,0.0056 -0.00177,0.01121 -0.00273,0.01681c-0.00437,0.02533 -0.00893,0.05057 -0.01367,0.07573c-0.00205,0.01066 -0.00396,0.02132 -0.00615,0.03185c-0.00259,0.01326 -0.00533,0.02611 -0.00807,0.03978c-0.00437,0.02105 -0.00902,0.0421 -0.01367,0.06301c-0.00219,0.00957 -0.00451,0.01913 -0.00683,0.02871c-0.00465,0.01859 -0.00902,0.03663 -0.01367,0.05467l-0.00574,0.02324c-0.01349,0.05203 -0.02811,0.10365 -0.04388,0.15486c-0.00838,0.02734 -0.01713,0.05467 -0.02624,0.08201v0.00109c-0.0092,0.02734 -0.01859,0.05467 -0.02816,0.08201c-0.04166,-0.0523 -0.07589,-0.11013 -0.10169,-0.17182c-0.0254,-0.06279 -0.04267,-0.12857 -0.05139,-0.19573c-0.00984,-0.0678 -0.0175,-0.13614 -0.04907,-0.1971c-0.02624,0.02119 -0.06042,0.03321 -0.08639,0.00259c-0.01886,-0.02214 -0.0257,-0.05522 -0.03827,-0.08119c-0.01542,-0.03155 -0.03305,-0.06197 -0.05276,-0.09103c-0.02228,-0.0328 -0.04552,-0.07736 -0.08967,-0.0719c-0.02556,0.00314 -0.04265,0.01257 -0.0693,0.00383c-0.01765,-0.00591 -0.03331,-0.01661 -0.04524,-0.03089c-0.01365,0.04978 -0.03938,0.09542 -0.07491,0.13286c-0.02993,0.02953 -0.06656,0.0477 -0.08926,0.0842c-0.01807,0.03176 -0.03021,0.06654 -0.03581,0.10265c-0.0231,0.12096 -0.01572,0.28157 -0.14612,0.34404c-0.01027,0.0057 -0.0232,0.00233 -0.02939,-0.00765c-0.05467,-0.1032 -0.10935,-0.20694 -0.14707,-0.31766c-0.02966,-0.08625 -0.0328,-0.18794 -0.06834,-0.27337c-0.00232,0.0123 -0.00465,0.02474 -0.00683,0.03704c-0.0019,0.00737 -0.00766,0.01314 -0.01504,0.01504c-0.04702,0.00642 -0.07654,-0.02037 -0.10169,-0.05755c-0.03499,-0.0518 -0.0652,-0.10716 -0.09677,-0.16184l-0.00341,0.00068c-0.07067,0.00752 -0.14133,0.01572 -0.21214,0.02269c-0.04511,0.00424 -0.08953,0.0056 -0.12712,-0.0231c-0.02255,-0.01668 -0.03827,-0.04169 -0.06356,-0.05385c-0.00807,-0.00378 -0.01656,-0.00657 -0.02529,-0.00834c0.04975,0.06807 0.06465,0.18261 0.15295,0.20024c0.01139,0.00319 0.0181,0.01495 0.01504,0.02638c-0.10169,0.25273 -0.37889,0.32695 -0.62,0.37957c-0.00648,0.00167 -0.01337,0.00029 -0.0187,-0.00376c-0.00533,-0.00405 -0.00851,-0.01032 -0.00863,-0.01702c-0.00998,-0.1073 -0.12548,-0.17058 -0.17017,-0.26285c-0.02706,-0.05563 -0.04169,-0.11536 -0.07217,-0.17004c-0.02515,-0.04484 -0.08775,-0.1535 -0.15104,-0.14215c-0.01139,0.00275 -0.02295,-0.00384 -0.02638,-0.01504c-0.01558,-0.0596 -0.09527,-0.09486 -0.07135,-0.16566c0.01203,-0.03608 0.04784,-0.06178 0.06834,-0.09295c0.02255,-0.03497 0.03707,-0.07451 0.04251,-0.11577c-0.08119,-0.00219 -0.16238,-0.0041 -0.24357,-0.00642c-0.05713,-0.00109 -0.10374,-0.00984 -0.12548,-0.06834c-0.00916,-0.02474 -0.00971,-0.05221 -0.01913,-0.07682c-0.00752,-0.01982 -0.03622,-0.06643 -0.06055,-0.02543c-0.00765,0.01176 -0.00136,0.03991 0,0.05276c0.0041,0.03814 0.00383,0.09035 -0.03567,0.11208c-0.04634,0.02556 -0.07955,-0.02433 -0.09377,-0.06083c-0.01422,-0.03649 -0.01886,-0.07682 -0.03581,-0.11222c-0.01804,-0.03759 -0.05112,-0.05987 -0.08379,-0.08351l-0.1073,-0.07764c-0.00656,-0.00478 -0.04292,-0.03786 -0.04989,-0.03553c-0.02665,0.00875 0.00287,0.03267 0.0108,0.04196c0.05212,0.0595 0.11627,0.10725 0.18822,0.1401c0.00723,0.00449 0.01118,0.0128 0.01009,0.02124c-0.00109,0.00844 -0.00701,0.01547 -0.01515,0.01799c-0.03417,0.00642 -0.04196,0.05071 -0.05467,0.07805c-0.01048,0.02456 -0.02866,0.04505 -0.0518,0.05837c-0.04903,0.02625 -0.10955,0.01665 -0.14803,-0.02351c-0.00587,-0.00623 -0.00754,-0.01532 -0.00427,-0.02323c0.00328,-0.00791 0.01088,-0.01315 0.01944,-0.01341c0.01433,-0.00036 0.02858,-0.00224 0.04251,-0.0056c0.01344,-0.00249 0.02536,-0.01015 0.03321,-0.02132l-0.01148,-0.03526c-0.01203,-0.01039 -0.04183,-0.00875 -0.05741,-0.01872c-0.03076,-0.01995 -0.04634,-0.05495 -0.06,-0.08734c-0.00743,-0.02222 -0.01887,-0.04288 -0.03376,-0.06096c-0.00909,-0.01081 -0.02088,-0.01901 -0.03417,-0.02378c-0.02447,-0.00656 -0.03117,0.01066 -0.04484,0.02624c-0.01872,0.02105 -0.03978,0.04101 -0.07053,0.02734c-0.02802,-0.01257 -0.04005,-0.04716 -0.04265,-0.07559c-0.00109,-0.01162 0.00355,-0.06711 -0.00738,-0.07299c-0.00793,-0.0041 -0.01135,0.03978 -0.01135,0.04429c0,0.0257 0.0015,0.0559 -0.01367,0.07819c-0.00594,0.0091 -0.01453,0.01616 -0.0246,0.02023c-0.00505,0.0018 -0.01035,0.00282 -0.01572,0.00301l0.01367,0.00752c0.00644,0.00395 0.01036,0.01097 0.01036,0.01852c0,0.00755 -0.00392,0.01457 -0.01036,0.01852c-0.03343,0.0236 -0.0639,0.05113 -0.09076,0.08201c-0.0257,0.03198 -0.02953,0.06561 -0.04415,0.10183c-0.02255,0.05399 -0.10757,0.07094 -0.15924,0.07162c-0.06315,0.00136 -0.11236,-0.03827 -0.13545,-0.09568c-0.02597,-0.06452 -0.01135,-0.13409 0.0067,-0.19901h-0.01217c-0.02734,-0.00109 -0.02734,-0.04402 0,-0.04292c0.0457,0.00232 0.09152,-0.0002 0.13668,-0.00752c0.03649,-0.00615 0.08447,-0.01312 0.11263,-0.03882c0.04388,-0.03964 0.00246,-0.07613 -0.02734,-0.10538l-0.09103,-0.08967c-0.00587,-0.00623 -0.00754,-0.01532 -0.00427,-0.02323c0.00328,-0.00791 0.01088,-0.01315 0.01944,-0.01341c0.05782,0 0.11755,-0.00109 0.17304,-0.01927c0.06615,-0.0216 0.09732,-0.06629 0.12548,-0.12712c0.04237,-0.09199 0.13067,-0.15104 0.23045,-0.12302c0.00586,-0.00224 0.01247,-0.0012 0.01736,0.00273c0.0257,0.01872 0.04934,0.03226 0.07819,0.01176c0.00998,-0.00724 0.01722,-0.01804 0.02802,-0.02501c0.02492,-0.01431 0.05269,-0.02294 0.08133,-0.02529c0.03308,-0.00437 0.0682,-0.0041 0.09992,-0.01531c0.05358,-0.01886 0.06342,-0.06247 0.05467,-0.11318c-0.01135,-0.06643 0.02966,-0.10948 0.09336,-0.1211c0.04046,-0.00752 0.08133,-0.0041 0.12069,-0.01777c0.0313,-0.01144 0.05941,-0.03019 0.08201,-0.05467c-0.06945,-0.01599 -0.1423,-0.00739 -0.20612,0.02433c-0.02146,0.0108 -0.04114,0.02501 -0.06588,0.0149c-0.02084,-0.01068 -0.03711,-0.02855 -0.04579,-0.0503c-0.0205,-0.04346 -0.01476,-0.095 0.00246,-0.13846c0.00939,-0.02378 0.02219,-0.04607 0.038,-0.06615c0.01777,-0.02296 0.04538,-0.0488 0.05084,-0.07613c0.00546,-0.02734 -0.0164,-0.05645 -0.04565,-0.04101c-0.01524,0.00998 -0.02718,0.02425 -0.03431,0.04101c-0.01169,0.02596 -0.0254,0.05096 -0.04101,0.07477c-0.01955,0.02652 -0.04456,0.04934 -0.06137,0.07778c-0.0231,0.03896 -0.01968,0.07039 0.00177,0.10853c0.02953,0.05262 0.00437,0.09035 -0.00451,0.14584c-0.00875,0.05016 -0.01927,0.0991 -0.06834,0.12397c-0.03745,0.019 -0.08051,0.01012 -0.09937,-0.02912c-0.01217,-0.02556 -0.01148,-0.05577 -0.01859,-0.0831c-0.00617,-0.02385 -0.01536,-0.04682 -0.02734,-0.06834c-0.03745,0.04716 -0.06383,0.11659 -0.13313,0.11427c-0.07518,-0.00246 -0.12015,-0.09568 -0.13464,-0.15869c-0.01736,-0.07531 0.019,-0.12644 0.08351,-0.16088c0.08187,-0.04374 0.13764,-0.09992 0.19519,-0.17222c0.06365,-0.07796 0.12297,-0.15937 0.17769,-0.24385c0.03936,-0.06206 0.08707,-0.11673 0.16771,-0.10935c0.08666,0.00779 0.16634,0.0667 0.24836,0.09226c0.07067,0.02187 0.15596,0.0283 0.21651,0.07463c0.022,0.01736 0.04866,0.04251 0.03841,0.07203c-0.00958,0.02336 -0.0286,0.04159 -0.05235,0.05016c-0.0667,0.02748 -0.12589,-0.00971 -0.18972,-0.02337c0.02535,0.06003 0.08026,0.10244 0.14475,0.11181c0.01956,0.00306 0.03952,0.00227 0.05877,-0.00232c0.03171,-0.00807 0.04183,-0.03444 0.05467,-0.06178l0.06219,-0.13067c0.01052,-0.02187 0.04784,-0.00602 0.03923,0.01654c-0.00082,0.00164 -0.00155,0.00334 -0.00219,0.00506v0.00096c-0.00656,0.01872 0.00765,0.02761 0.04292,0.02652c0.00259,-0.00424 0.00533,-0.00847 0.00807,-0.01271c0.00489,-0.00983 0.00847,-0.02027 0.01066,-0.03103c0.00466,-0.01589 0.01167,-0.031 0.02077,-0.04484c0.01942,-0.02501 0.04582,-0.0437 0.07586,-0.05372c0.08994,-0.03472 0.19382,-0.04579 0.2895,-0.06069c0.00082,-0.04114 0.03622,-0.06725 0.07901,-0.06574c0.03182,0.00363 0.06316,0.01065 0.0935,0.02091l0.08666,0.02105c-0.02843,-0.05481 -0.05727,-0.10962 -0.08201,-0.16566c-0.01736,-0.03936 -0.02419,-0.09172 0.0175,-0.11905c0.04593,-0.03035 0.08939,0.01326 0.10935,0.05167c0.01627,0.0313 0.03007,0.05727 0.06042,0.0775c0.01586,0.01026 0.03266,0.019 0.05016,0.02611c-0.0041,-0.04538 0.00533,-0.09472 0.04839,-0.1073c-0.00479,-0.0178 -0.0066,-0.03628 -0.00533,-0.05467c0.00015,-0.00762 0.00428,-0.0146 0.01088,-0.0184c0.0066,-0.0038 0.01472,-0.00387 0.02138,-0.00018c0.0462,0.02706 0.09623,0.05522 0.14967,0.05344c-0.04087,-0.04073 -0.09923,-0.07395 -0.09226,-0.13901c0.0067,-0.05755 0.05837,-0.0831 0.10935,-0.09568c-0.01982,-0.03978 -0.00465,-0.09062 0.02652,-0.12425c0.05208,-0.05632 0.13245,-0.08939 0.20175,-0.11823c0.02132,-0.00875 0.04292,-0.01722 0.06438,-0.02556c0.02788,-0.01066 0.05044,-0.02187 0.05139,-0.05303c0.00068,-0.0246 -0.00478,-0.05208 0.00889,-0.07436c0.00824,-0.01679 0.02576,-0.02698 0.04442,-0.02583c0.02205,0.01822 0.04397,0.03645 0.06574,0.05467c0.02141,0.01822 0.04265,0.03645 0.0637,0.05467l0.0015,0.00123c0.02087,0.0185 0.04155,0.03722 0.06206,0.05618l0.0015,0.00136c0.02059,0.01913 0.04096,0.03845 0.0611,0.05795c0.00889,0.00929 0.01818,0.01818 0.02734,0.02734c0.1939,0.19166 0.36641,0.40381 0.51448,0.63272c0.0164,0.02524 0.03244,0.05066 0.04811,0.07627c-0.00002,0.00032 -0.00002,0.00064 0,0.00096c0.01549,0.02543 0.03071,0.05098 0.04565,0.07668l0.00123,0.00191c0.01463,0.02529 0.02953,0.05098 0.04319,0.07668l0.00177,0.00301c0.01367,0.02543 0.02734,0.05098 0.04101,0.07668l0.00232,0.00424c0.01299,0.02529 0.0257,0.05084 0.03827,0.07641l0.00273,0.0056c0.01221,0.02533 0.02415,0.05071 0.03581,0.07613c0.00109,0.00246 0.00232,0.00478 0.00341,0.00711c0.01135,0.02501 0.02242,0.0503 0.03335,0.07559l0.00383,0.00875c0.01052,0.02474 0.02064,0.04962 0.03076,0.07463l0.00424,0.01066c0.00984,0.02447 0.01913,0.04921 0.02843,0.07395c0.0015,0.0041 0.00314,0.0082 0.00465,0.01244c0.00902,0.02419 0.0175,0.04852 0.02597,0.07299l0.00506,0.01435c0.00802,0.02397 0.01586,0.04798 0.02351,0.07203c0.00177,0.00546 0.00369,0.0108 0.00533,0.01627c0.00765,0.02351 0.01435,0.04729 0.02132,0.07094c0.00177,0.00615 0.00369,0.01217 0.00533,0.01818c0.0067,0.0231 0.01285,0.04634 0.019,0.06971c0.00191,0.00683 0.00383,0.01353 0.0056,0.0205c0.00588,0.02269 0.01135,0.04552 0.01681,0.06834c0.00177,0.00752 0.00369,0.01504 0.00546,0.02255c0.00519,0.02242 0.00998,0.04484 0.01476,0.06738c0.00177,0.0082 0.00369,0.01627 0.00533,0.02433c0.00451,0.022 0.00861,0.04402 0.01285,0.06615c0.00164,0.00875 0.00341,0.01763 0.00506,0.02652c0.00383,0.02146 0.00738,0.04319 0.0108,0.06493c0.0015,0.00943 0.00328,0.01886 0.00478,0.0283c0.00314,0.02132 0.00602,0.04278 0.00902,0.06424c0.00136,0.00998 0.00287,0.01982 0.0041,0.0298c0.00273,0.02132 0.00506,0.04265 0.00738,0.06397c0.00123,0.01025 0.00246,0.0205 0.00355,0.03076c0.00219,0.02132 0.00396,0.04278 0.00574,0.06411c0.00082,0.01052 0.00191,0.02091 0.00273,0.03144c0.00177,0.02214 0.00301,0.04456 0.00437,0.06698c0.00055,0.00971 0.00177,0.01927 0.00177,0.02898c0.00123,0.02419 0.00273,0.04839 0.00273,0.07258c0.00027,0.00807 0.00096,0.01613 0.00096,0.02405c0,0.0328 0.00005,0.06524 0.00014,0.09732zM251.06211,116.14117c-0.01468,-0.01765 -0.03421,-0.03062 -0.05618,-0.03731c-0.01504,-0.0056 -0.03089,-0.00889 -0.04607,-0.01449c-0.0119,-0.00367 -0.02295,-0.00967 -0.03253,-0.01763c-0.00394,-0.00345 -0.00619,-0.00844 -0.00619,-0.01367c0,-0.00524 0.00226,-0.01022 0.00619,-0.01367c0.00724,-0.02993 0.04346,-0.07969 -0.01121,-0.0883c-0.02966,-0.00424 -0.06615,0.00834 -0.09568,0.01367c-0.03126,0.00565 -0.06247,0.01162 -0.09363,0.0179c-0.00527,-0.00501 -0.01267,-0.00707 -0.01977,-0.00551c-0.0071,0.00156 -0.01295,0.00655 -0.01563,0.0133c-0.02501,0.06752 -0.05905,0.14489 -0.06602,0.21719c-0.00451,0.04743 0.03472,0.07354 0.07887,0.0555c0.03198,-0.01299 0.05618,-0.03649 0.09049,-0.04647c0.03923,-0.01121 0.07326,-0.0123 0.10607,0.01367c0.03608,0.02857 0.0995,0.02543 0.14051,0.00683c0.04073,-0.01872 0.04743,-0.06643 0.02077,-0.10101zM251.35161,116.27512c0.00492,0.04921 0.04784,0.08789 0.08816,0.11195c0.03486,0.02077 0.08365,0.02966 0.11359,-0.00793c0.02993,-0.03759 0.00383,-0.07067 -0.02009,-0.10032c-0.00943,-0.01162 -0.01463,-0.00232 -0.0067,-0.01941c0.00259,-0.00437 0.01052,-0.00902 0.01367,-0.01299c0.00628,-0.00758 0.01093,-0.01638 0.01367,-0.02583c0.00546,-0.0183 0.00017,-0.03811 -0.01367,-0.05126c-0.02337,-0.02064 -0.05358,-0.02173 -0.0734,-0.04989c-0.01908,-0.0302 -0.02773,-0.06583 -0.0246,-0.10142c0.02138,-0.0173 0.02791,-0.04711 0.01572,-0.07176c-0.01736,-0.03759 -0.06547,-0.04798 -0.10279,-0.03759c-0.1047,0.02925 -0.10812,0.1483 -0.05167,0.2228c0.01463,0.01913 0.06889,0.05809 0.0637,0.08543c-0.0041,0.02119 -0.01763,0.03376 -0.01558,0.05823zM251.67994,116.79207h-0.00383c-0.04875,0.00264 -0.09746,-0.00587 -0.14243,-0.02488c-0.0503,-0.02337 -0.07791,-0.06028 -0.11441,-0.09937c-0.00929,-0.00998 -0.02993,-0.03212 -0.0462,-0.02296c-0.01886,0.01052 0.00164,0.04183 0.00779,0.05344c0.01337,0.02593 0.02902,0.05064 0.04675,0.07381c0.03403,0.0421 0.0801,0.07969 0.13668,0.08201c0.04743,0.00191 0.09677,-0.01845 0.11563,-0.06206z" fill="#74b140" fill-rule="nonzero"/></g><g fill-rule="nonzero" stroke="none" stroke-width="0"><path d="M253.20882,149.32294c0,2.78168 -2.28915,5.03666 -5.11298,5.03666c-2.82382,0 -5.11298,-2.25499 -5.11298,-5.03666c0,-2.78167 2.28915,-5.03666 5.11298,-5.03666c2.82382,0 5.11298,2.255 5.11298,5.03666z" fill="#cac7bd"/><path d="M249.11334,151.9091c0.13456,0.30782 0.20601,1.76513 -0.61259,2.27287c-0.25094,0.15565 -0.57278,0.01652 -1.11718,-0.0174c-1.73869,-0.10833 -3.86653,-1.87492 -4.10395,-3.57824c-0.10111,-0.72541 -0.26358,-1.75248 -0.00755,-2.67168c0.26662,-0.95721 4.74923,-0.81995 4.45067,0.07704c-0.19191,0.57658 -0.86708,2.1618 -0.59945,2.64362c0.60635,1.09159 0.86494,1.13209 1.13967,1.14395c0.36626,0.01581 0.68967,-0.23778 0.85037,0.12984z" fill="#c79f8f"/><path d="M246.12871,153.59767c-1.17334,0 -2.91583,-1.86213 -2.73964,-2.99487c0.03656,-0.23505 0.92833,-0.03741 1.89299,-0.61101c0.67659,-0.40231 0.78202,-0.5351 1.80778,-1.21898c0.45742,-0.03272 -0.56659,1.18097 -0.35151,2.43411c0.16877,0.98329 1.83962,0.52726 1.49439,1.19964c-0.34051,0.66318 -1.74911,1.19111 -2.10403,1.19111z" fill="#bd5c57"/><path d="M245.10105,146.68151c0,0.19727 -0.15171,0.43932 -0.34899,0.43932c-0.19727,0 -0.33257,-0.24205 -0.33257,-0.43932c0,-0.19727 0.0696,-0.36541 0.26687,-0.36541c0.19727,0 0.41468,0.16814 0.41468,0.36541zM244.76438,147.02229c0.13605,0 0.22992,-0.14314 0.22992,-0.27919c0,-0.13605 -0.12671,-0.28741 -0.26277,-0.28741c-0.13605,0 -0.22992,0.15135 -0.22992,0.28741c0,0.13605 0.12671,0.27919 0.26277,0.27919z" fill="#adaaa2"/><path d="M251.26384,146.40605c0,0.22738 -0.24344,0.14071 -0.47946,0.14071c-0.23602,0 -0.42735,-0.03841 -0.42735,-0.26579c0,-0.22738 0.19133,-0.41171 0.42735,-0.41171c0.23602,0 0.47946,0.30941 0.47946,0.53679zM250.78438,146.46338c0.1727,0 0.31269,-0.03576 0.31269,-0.20846c0,-0.1727 -0.14,-0.271 -0.31269,-0.271c-0.1727,0 -0.31269,0.05661 -0.31269,0.22931c0,0.1727 0.13999,0.25016 0.31269,0.25016z" fill="#e8dad0"/><path d="M245.21664,151.3305c0,0.35364 -0.27551,0.74105 -0.63313,0.74105c-0.35761,0 -0.64751,-0.28668 -0.64751,-0.64032c0,-0.35364 0.2899,-0.64032 0.64751,-0.64032c0.35761,0 0.63313,0.18595 0.63313,0.53959zM244.5835,151.94205c0.23841,0 0.43168,-0.32277 0.43168,-0.56118c0,-0.23841 -0.20766,-0.41729 -0.44607,-0.41729c-0.23841,0 -0.46046,0.22205 -0.46046,0.46046c0,0.23841 0.23644,0.51801 0.47485,0.51801z" fill="#adaaa2"/><path d="M252.77952,148.78335c0,0.36848 -0.28708,0.77215 -0.65971,0.77215c-0.37262,0 -0.67469,-0.29872 -0.67469,-0.6672c0,-0.36848 0.30207,-0.6672 0.67469,-0.6672c0.37262,0 0.65971,0.19376 0.65971,0.56225zM252.11983,149.42057c0.24841,0 0.4498,-0.33633 0.4498,-0.58474c0,-0.24841 -0.21638,-0.43481 -0.46479,-0.43481c-0.24841,0 -0.47978,0.23137 -0.47978,0.47979c0,0.24841 0.24636,0.53976 0.49478,0.53976z" fill="#e8dad0"/><path d="M246.92433,145.92015c0,0.23309 -0.16819,0.42206 -0.37568,0.42206c-0.20748,0 -0.51481,-0.17969 -0.51481,-0.41278c0,-0.23309 0.30733,-0.43133 0.51481,-0.43133c0.20748,0 0.37568,0.18896 0.37568,0.42206zM246.65639,146.09096c0.06698,-0.05082 0.11024,-0.13127 0.11024,-0.22183c0,-0.1351 -0.09627,-0.24772 -0.22396,-0.27298c-0.01757,-0.00348 -0.03573,-0.0053 -0.05432,-0.0053c-0.14183,-0.03107 -0.29683,0.15723 -0.29683,0.27828c0,0.1437 0.10888,0.24397 0.23287,0.27089c0.02053,0.00483 0.04196,0.00738 0.06396,0.00738c0.00522,0 0.01041,-0.00014 0.01556,-0.00042c0.04297,-0.00182 0.0854,-0.01288 0.12358,-0.03436c0.01078,-0.00607 0.02033,-0.01336 0.0289,-0.02166z" fill="#cfb7a5"/><path d="M252.94596,150.12846c0,0.54322 -1.28425,2.91685 -1.78064,2.91685c-0.49639,0 -0.01696,-0.98305 -0.01696,-1.52626c0,-0.54322 0.43633,-1.15318 0.93272,-1.15318c0.49639,0 0.86488,-0.78064 0.86488,-0.23742z" fill="#c79f8f"/><path d="M252.87813,150.50155c0,0.22452 -0.16383,0.73694 -0.44018,1.21625c-0.25394,0.44044 -0.61345,0.85292 -0.79779,0.98835c-0.13849,0.10175 -0.08479,-0.72235 -0.08479,-1.15318c0,-0.43083 0.38722,-0.78009 0.86488,-0.78009c0.47766,0 0.45788,-0.70216 0.45788,-0.27133z" fill="#bd5c57"/><path d="M250.97878,145.34617c0.28817,0.2505 0.72729,2.1825 0.28369,2.55836c-0.29631,0.25107 -0.74034,-0.69242 -2.40349,-0.59117c-1.42335,0.08666 -4.39656,-1.37668 -3.64607,-1.93327c0.61652,-0.45723 1.60967,-0.94967 2.96773,-0.94967c1.35806,0 2.22155,0.41454 2.79815,0.91575z" fill="#cfbf8b"/><path d="M251.42256,150.54159c-0.12292,0.11289 -0.78095,0.41484 -0.84257,0.74784c-0.15553,0.84052 0.56134,1.89147 0.30989,2.10985c-0.15801,0.13722 -0.97801,0.63377 -1.64482,0.78132c-0.57334,0.12687 -1.4139,0.01789 -1.5223,0.01789c-0.53844,0 1.00132,-0.82973 1.03007,-1.86696c0.02326,-0.83916 -1.26749,-1.78144 -1.26749,-2.32178c0,-1.2082 0.85746,-2.15373 1.96719,-2.11981c0.36317,0.0111 1.00083,0.16389 1.65377,0.30824c0.16921,0.03741 1.08195,-0.71029 1.40189,0.1071c0.59427,1.51826 -0.67149,1.85598 -1.08562,2.23631z" fill="#deddd8"/><path d="M246.1516,146.2207c-0.23204,0.08069 -0.61741,0.04585 -0.70273,-0.19953c-0.08533,-0.24538 0.12935,-0.35895 0.36139,-0.43964c0.23204,-0.08069 0.39359,-0.09795 0.47892,0.14744c0.08533,0.24538 0.09447,0.41104 -0.13757,0.49173zM245.56812,145.99053c0.06799,0.15519 0.29516,0.24381 0.45519,0.18817c0.16003,-0.05564 0.24465,-0.23049 0.189,-0.39052c-0.05564,-0.16003 -0.2137,-0.19636 -0.37373,-0.14072c-0.02966,0.01031 -0.37542,0.1035 -0.27047,0.34306z" fill="#adaaa2"/><path d="M251.97108,148.58706c0,0.20971 -0.20923,0.27528 -0.45564,0.27528c-0.24641,0 -0.43666,-0.06558 -0.43666,-0.27528c0,-0.20971 0.19026,-0.48412 0.43666,-0.48412c0.24641,0 0.45564,0.27442 0.45564,0.48412zM251.46798,148.77692c0.15728,0 0.35122,-0.0041 0.35122,-0.16137c0,-0.15728 -0.16547,-0.40818 -0.32274,-0.40818c-0.15728,0 -0.30376,0.15598 -0.30376,0.31325c0,0.15728 0.11801,0.2563 0.27528,0.2563z" fill="#adaaa2"/><path d="M252.96813,149.38786c0,0.20038 -0.14458,0.36281 -0.32294,0.36281c-0.17836,0 -0.44255,-0.15446 -0.44255,-0.35484c0,-0.20038 0.26419,-0.37078 0.44255,-0.37078c0.17836,0 0.32294,0.16243 0.32294,0.36281zM252.7378,149.53469c0.05758,-0.04369 0.09476,-0.11285 0.09476,-0.19069c0,-0.11614 -0.08275,-0.21294 -0.19251,-0.23466c-0.0151,-0.00299 -0.03072,-0.00456 -0.0467,-0.00456c-0.12192,-0.0267 -0.25516,0.13516 -0.25516,0.23922c0,0.12352 0.0936,0.20973 0.20018,0.23286c0.01765,0.00415 0.03606,0.00635 0.05498,0.00635c0.00448,0 0.00895,-0.00012 0.01337,-0.00037c0.03694,-0.00156 0.07342,-0.01107 0.10624,-0.02953c0.00926,-0.00521 0.01747,-0.01149 0.02484,-0.01862z" fill="#adaaa2"/><path d="M246.69427,152.80059c-0.23204,0.08069 -0.61741,0.04585 -0.70274,-0.19953c-0.08533,-0.24538 0.12935,-0.35895 0.36139,-0.43964c0.23204,-0.08069 0.3936,-0.09794 0.47893,0.14744c0.08533,0.24538 0.09447,0.41104 -0.13757,0.49173zM246.1108,152.57041c0.06799,0.15519 0.29516,0.24381 0.45519,0.18817c0.16003,-0.05564 0.24465,-0.23048 0.18901,-0.39052c-0.05564,-0.16003 -0.2137,-0.19636 -0.37373,-0.14072c-0.02966,0.01031 -0.37542,0.1035 -0.27047,0.34306z" fill="#adaaa2"/></g><text transform="translate(215.43818,94.76541) scale(0.26747,0.26747)" font-size="40" xml:space="preserve" fill="#ffffff" fill-rule="nonzero" stroke="#ffffff" stroke-width="1" stroke-linecap="butt" stroke-linejoin="miter" stroke-miterlimit="10" stroke-dasharray="" stroke-dashoffset="0" font-family="Handwriting" font-weight="normal" text-anchor="start" style="mix-blend-mode: normal"></text></g></g></svg>