<svg version="1.1" xmlns="http://www.w3.org/2000/svg" xmlns:xlink="http://www.w3.org/1999/xlink" width="114.36151" height="175.57172" viewBox="0,0,114.36151,175.57172"><defs><linearGradient x1="240.61953" y1="58.29928" x2="240.61953" y2="237.16751" gradientUnits="userSpaceOnUse" id="color-1"><stop offset="0" stop-color="#000000"/><stop offset="1" stop-color="#000000" stop-opacity="0"/></linearGradient><radialGradient cx="240.57047" cy="123.97177" r="57.18075" gradientUnits="userSpaceOnUse" id="color-2"><stop offset="0" stop-color="#b7b3ff"/><stop offset="1" stop-color="#b7b3ff" stop-opacity="0"/></radialGradient><radialGradient cx="239.46261" cy="123.91802" r="52.42315" gradientUnits="userSpaceOnUse" id="color-3"><stop offset="0" stop-color="#b3c8ff"/><stop offset="1" stop-color="#b3c8ff" stop-opacity="0"/></radialGradient><radialGradient cx="235.84331" cy="123.71469" r="36.963" gradientUnits="userSpaceOnUse" id="color-4"><stop offset="0" stop-color="#af9c8b"/><stop offset="1" stop-color="#af9c8b" stop-opacity="0"/></radialGradient><radialGradient cx="223.48359" cy="106.85853" r="24.12602" gradientUnits="userSpaceOnUse" id="color-5"><stop offset="0" stop-color="#ffffff"/><stop offset="1" stop-color="#ffffff" stop-opacity="0"/></radialGradient><radialGradient cx="238.05986" cy="126.44004" r="47.07023" gradientUnits="userSpaceOnUse" id="color-6"><stop offset="0" stop-color="#ffb3b7"/><stop offset="1" stop-color="#ffb3b7" stop-opacity="0"/></radialGradient><radialGradient cx="276.15695" cy="157.18581" r="14.82202" gradientUnits="userSpaceOnUse" id="color-7"><stop offset="0" stop-color="#ffb3b7"/><stop offset="1" stop-color="#ffb3b7" stop-opacity="0"/></radialGradient><radialGradient cx="237.59575" cy="153.17545" r="15.14266" gradientUnits="userSpaceOnUse" id="color-8"><stop offset="0" stop-color="#ffb3b7"/><stop offset="1" stop-color="#ffb3b7" stop-opacity="0"/></radialGradient><radialGradient cx="269.37018" cy="95.48789" r="18.36599" gradientUnits="userSpaceOnUse" id="color-9"><stop offset="0" stop-color="#ffb3b7"/><stop offset="1" stop-color="#ffb3b7" stop-opacity="0"/></radialGradient><radialGradient cx="221.55428" cy="102.89164" r="12.84417" gradientUnits="userSpaceOnUse" id="color-10"><stop offset="0" stop-color="#ffb3b7"/><stop offset="1" stop-color="#ffb3b7" stop-opacity="0"/></radialGradient><radialGradient cx="237.90424" cy="125.91744" r="26.78283" gradientUnits="userSpaceOnUse" id="color-11"><stop offset="0" stop-color="#ffe9cf"/><stop offset="1" stop-color="#ffe9cf" stop-opacity="0"/></radialGradient><radialGradient cx="238.52332" cy="127.63073" r="16.14429" gradientUnits="userSpaceOnUse" id="color-12"><stop offset="0" stop-color="#fffcca"/><stop offset="1" stop-color="#fffcca" stop-opacity="0"/></radialGradient><radialGradient cx="237.15352" cy="127.36515" r="11.58886" gradientUnits="userSpaceOnUse" id="color-13"><stop offset="0" stop-color="#ffffff"/><stop offset="1" stop-color="#ffffff" stop-opacity="0"/></radialGradient><radialGradient cx="221.14297" cy="128.80477" r="24.57634" gradientUnits="userSpaceOnUse" id="color-14"><stop offset="0" stop-color="#ffffff"/><stop offset="1" stop-color="#ffffff" stop-opacity="0"/></radialGradient><radialGradient cx="272.6564" cy="154.6847" r="23.97758" gradientUnits="userSpaceOnUse" id="color-15"><stop offset="0" stop-color="#ffffff"/><stop offset="1" stop-color="#ffffff" stop-opacity="0"/></radialGradient><radialGradient cx="278.05929" cy="158.36836" r="15.42449" gradientUnits="userSpaceOnUse" id="color-16"><stop offset="0" stop-color="#ffffff"/><stop offset="1" stop-color="#ffffff" stop-opacity="0"/></radialGradient><radialGradient cx="259.14026" cy="106.86612" r="24.12601" gradientUnits="userSpaceOnUse" id="color-17"><stop offset="0" stop-color="#ffffff"/><stop offset="1" stop-color="#ffffff" stop-opacity="0"/></radialGradient><radialGradient cx="209.84842" cy="127.33955" r="1.92079" gradientUnits="userSpaceOnUse" id="color-18"><stop offset="0" stop-color="#ffffff"/><stop offset="1" stop-color="#ffffff" stop-opacity="0"/></radialGradient><radialGradient cx="220.17795" cy="119.95836" r="3.04447" gradientUnits="userSpaceOnUse" id="color-19"><stop offset="0" stop-color="#ffffff"/><stop offset="1" stop-color="#ffffff" stop-opacity="0"/></radialGradient><radialGradient cx="212.68164" cy="151.17705" r="1.92079" gradientUnits="userSpaceOnUse" id="color-20"><stop offset="0" stop-color="#ffffff"/><stop offset="1" stop-color="#ffffff" stop-opacity="0"/></radialGradient><radialGradient cx="204.97817" cy="138.96022" r="1.42095" gradientUnits="userSpaceOnUse" id="color-21"><stop offset="0" stop-color="#dedede"/><stop offset="1" stop-color="#dedede" stop-opacity="0"/></radialGradient><radialGradient cx="213.3466" cy="129.83674" r="1.42095" gradientUnits="userSpaceOnUse" id="color-22"><stop offset="0" stop-color="#ffffff"/><stop offset="1" stop-color="#ffffff" stop-opacity="0"/></radialGradient><radialGradient cx="224.80873" cy="155.53994" r="1.42095" gradientUnits="userSpaceOnUse" id="color-23"><stop offset="0" stop-color="#fffdf7"/><stop offset="1" stop-color="#fffdf7" stop-opacity="0"/></radialGradient><radialGradient cx="211.45899" cy="139.84111" r="1.42095" gradientUnits="userSpaceOnUse" id="color-24"><stop offset="0" stop-color="#dedede"/><stop offset="1" stop-color="#dedede" stop-opacity="0"/></radialGradient><radialGradient cx="242.65351" cy="162.85324" r="0.7865" gradientUnits="userSpaceOnUse" id="color-25"><stop offset="0" stop-color="#ffffff"/><stop offset="1" stop-color="#ffffff" stop-opacity="0"/></radialGradient><radialGradient cx="219.48339" cy="130.74498" r="0.78651" gradientUnits="userSpaceOnUse" id="color-26"><stop offset="0" stop-color="#ffffff"/><stop offset="1" stop-color="#ffffff" stop-opacity="0"/></radialGradient><radialGradient cx="235.46387" cy="155.54282" r="0.78651" gradientUnits="userSpaceOnUse" id="color-27"><stop offset="0" stop-color="#ffffff"/><stop offset="1" stop-color="#ffffff" stop-opacity="0"/></radialGradient><radialGradient cx="208.81836" cy="137.35163" r="0.78651" gradientUnits="userSpaceOnUse" id="color-28"><stop offset="0" stop-color="#ffffff"/><stop offset="1" stop-color="#ffffff" stop-opacity="0"/></radialGradient><radialGradient cx="259.51525" cy="86.61893" r="1.92079" gradientUnits="userSpaceOnUse" id="color-29"><stop offset="0" stop-color="#ffffff"/><stop offset="1" stop-color="#ffffff" stop-opacity="0"/></radialGradient><radialGradient cx="256.88822" cy="102.99143" r="3.04448" gradientUnits="userSpaceOnUse" id="color-30"><stop offset="0" stop-color="#ffffff"/><stop offset="1" stop-color="#ffffff" stop-opacity="0"/></radialGradient><radialGradient cx="263.89091" cy="86.08574" r="1.92079" gradientUnits="userSpaceOnUse" id="color-31"><stop offset="0" stop-color="#ffffff"/><stop offset="1" stop-color="#ffffff" stop-opacity="0"/></radialGradient><radialGradient cx="218.55172" cy="91.76131" r="1.42095" gradientUnits="userSpaceOnUse" id="color-32"><stop offset="0" stop-color="#dedede"/><stop offset="1" stop-color="#dedede" stop-opacity="0"/></radialGradient><radialGradient cx="245.73801" cy="90.04159" r="1.42095" gradientUnits="userSpaceOnUse" id="color-33"><stop offset="0" stop-color="#ffffff"/><stop offset="1" stop-color="#ffffff" stop-opacity="0"/></radialGradient><radialGradient cx="249.79638" cy="104.63915" r="1.42095" gradientUnits="userSpaceOnUse" id="color-34"><stop offset="0" stop-color="#fffdf7"/><stop offset="1" stop-color="#fffdf7" stop-opacity="0"/></radialGradient><radialGradient cx="264.21071" cy="92.02522" r="1.42095" gradientUnits="userSpaceOnUse" id="color-35"><stop offset="0" stop-color="#dedede"/><stop offset="1" stop-color="#dedede" stop-opacity="0"/></radialGradient><radialGradient cx="233.39882" cy="88.81574" r="0.78651" gradientUnits="userSpaceOnUse" id="color-36"><stop offset="0" stop-color="#ffffff"/><stop offset="1" stop-color="#ffffff" stop-opacity="0"/></radialGradient><radialGradient cx="262.36344" cy="116.55446" r="0.7865" gradientUnits="userSpaceOnUse" id="color-37"><stop offset="0" stop-color="#ffffff"/><stop offset="1" stop-color="#ffffff" stop-opacity="0"/></radialGradient><radialGradient cx="221.58184" cy="101.24865" r="0.7865" gradientUnits="userSpaceOnUse" id="color-38"><stop offset="0" stop-color="#ffffff"/><stop offset="1" stop-color="#ffffff" stop-opacity="0"/></radialGradient><radialGradient cx="241.20977" cy="97.55647" r="0.78651" gradientUnits="userSpaceOnUse" id="color-39"><stop offset="0" stop-color="#ffffff"/><stop offset="1" stop-color="#ffffff" stop-opacity="0"/></radialGradient><radialGradient cx="282.03499" cy="154.79513" r="1.92079" gradientUnits="userSpaceOnUse" id="color-40"><stop offset="0" stop-color="#ffffff"/><stop offset="1" stop-color="#ffffff" stop-opacity="0"/></radialGradient><radialGradient cx="259.04764" cy="137.23378" r="3.04447" gradientUnits="userSpaceOnUse" id="color-41"><stop offset="0" stop-color="#ffffff"/><stop offset="1" stop-color="#ffffff" stop-opacity="0"/></radialGradient><radialGradient cx="258.3381" cy="160.12325" r="1.92079" gradientUnits="userSpaceOnUse" id="color-42"><stop offset="0" stop-color="#ffffff"/><stop offset="1" stop-color="#ffffff" stop-opacity="0"/></radialGradient><radialGradient cx="259.58083" cy="150.06585" r="1.42095" gradientUnits="userSpaceOnUse" id="color-43"><stop offset="0" stop-color="#dedede"/><stop offset="1" stop-color="#dedede" stop-opacity="0"/></radialGradient><radialGradient cx="266.84103" cy="131.75042" r="1.53937" gradientUnits="userSpaceOnUse" id="color-44"><stop offset="0" stop-color="#ffffff"/><stop offset="1" stop-color="#ffffff" stop-opacity="0"/></radialGradient><radialGradient cx="274.16706" cy="162.94368" r="1.42095" gradientUnits="userSpaceOnUse" id="color-45"><stop offset="0" stop-color="#fffdf7"/><stop offset="1" stop-color="#fffdf7" stop-opacity="0"/></radialGradient><radialGradient cx="266.06165" cy="150.94673" r="1.42095" gradientUnits="userSpaceOnUse" id="color-46"><stop offset="0" stop-color="#dedede"/><stop offset="1" stop-color="#dedede" stop-opacity="0"/></radialGradient><radialGradient cx="259.92893" cy="141.56746" r="0.78651" gradientUnits="userSpaceOnUse" id="color-47"><stop offset="0" stop-color="#ffffff"/><stop offset="1" stop-color="#ffffff" stop-opacity="0"/></radialGradient><radialGradient cx="274.08605" cy="141.8506" r="0.7865" gradientUnits="userSpaceOnUse" id="color-48"><stop offset="0" stop-color="#ffffff"/><stop offset="1" stop-color="#ffffff" stop-opacity="0"/></radialGradient><radialGradient cx="259.83455" cy="154.30887" r="0.78651" gradientUnits="userSpaceOnUse" id="color-49"><stop offset="0" stop-color="#ffffff"/><stop offset="1" stop-color="#ffffff" stop-opacity="0"/></radialGradient><radialGradient cx="263.42102" cy="148.45726" r="0.78651" gradientUnits="userSpaceOnUse" id="color-50"><stop offset="0" stop-color="#ffffff"/><stop offset="1" stop-color="#ffffff" stop-opacity="0"/></radialGradient></defs><g transform="translate(-183.38971,-33.0948)"><g data-paper-data="{&quot;isPaintingLayer&quot;:true}" fill-rule="nonzero" stroke-linecap="butt" stroke-linejoin="miter" stroke-miterlimit="10" stroke-dasharray="" stroke-dashoffset="0" style="mix-blend-mode: normal"><path d="M284.37023,179.70939c0.07585,1.88165 -6.82295,7.07192 -42.75929,7.07192c-35.93634,0 -45.96971,-4.43047 -45.98172,-7.45949c-0.01038,-2.6151 9.30175,-6.10294 45.23807,-6.10294c35.93634,0 43.43354,4.76932 43.50294,6.49051z" fill="url(#color-1)" stroke="none" stroke-width="0"/><text transform="translate(226.79696,202.68677) scale(0.357,0.357)" font-size="40" xml:space="preserve" fill="#ffffff" fill-rule="nonzero" stroke="#ffffff" stroke-width="0.5" stroke-linecap="butt" stroke-linejoin="miter" stroke-miterlimit="10" stroke-dasharray="" stroke-dashoffset="0" font-family="Handwriting" font-weight="normal" text-anchor="start" style="mix-blend-mode: normal"></text><text transform="translate(210.25542,46.20366) scale(0.34497,0.34497)" font-size="40" xml:space="preserve" fill="#ffffff" fill-rule="nonzero" stroke="#ffffff" stroke-width="1" stroke-linecap="butt" stroke-linejoin="miter" stroke-miterlimit="10" stroke-dasharray="" stroke-dashoffset="0" font-family="Handwriting" font-weight="normal" text-anchor="start" style="mix-blend-mode: normal"></text><text transform="translate(196.68818,63.93207) scale(0.26747,0.26747)" font-size="40" xml:space="preserve" fill="#ffffff" fill-rule="nonzero" stroke="#ffffff" stroke-width="1" stroke-linecap="butt" stroke-linejoin="miter" stroke-miterlimit="10" stroke-dasharray="" stroke-dashoffset="0" font-family="Handwriting" font-weight="normal" text-anchor="start" style="mix-blend-mode: normal"></text><g stroke="none" stroke-width="0"><g><path d="M297.75122,123.97177c0,29.47472 -25.60069,53.36871 -57.18075,53.36871c-31.58006,0 -57.18076,-23.89399 -57.18076,-53.36871c0,-29.47472 25.6007,-53.3687 57.18076,-53.3687c31.58006,0 57.18075,23.89398 57.18075,53.3687z" fill="url(#color-2)"/><path d="M238.29358,99.81724c-3.16132,4.66221 -25.76628,12.75096 -27.86032,14.88979c-3.63406,3.71179 -5.16325,-3.29959 -6.49799,-0.1958c-6.06122,14.09476 -6.32136,40.78137 -8.4313,37.7094c-0.27244,0.08601 -5.97701,-4.92784 -7.06621,-8.9535c-2.23373,-8.25583 -2.04989,-25.5115 2.45401,-36.27617c2.38669,-5.70435 17.42676,-25.85911 30.82166,-27.3462c8.50393,-0.9441 17.29185,1.56779 25.23137,5.70357c3.16203,1.64713 0.05327,-8.38857 4.38163,-8.33177c5.27335,0.0692 17.99999,10.33785 21.38393,14.73721c4.17345,7.72306 3.73889,18.16064 2.73621,24.21003c-0.32439,1.95712 -6.6843,-2.3274 -6.55111,-0.68135c0.4694,5.80137 0.45499,11.91617 -0.66927,15.52792c-3.90467,12.54401 -21.24565,20.29463 -24.10008,19.99134c-11.21795,-1.19191 -18.57214,-19.38956 -18.42796,-20.99475c0.39345,-4.38036 -8.88989,-3.57645 -10.56651,7.85394c-0.44959,6.28956 4.1826,14.92658 11.00467,15.93069c0.98679,0.14524 -6.77829,-4.55871 -4.20043,-7.71602c2.24067,-2.74435 27.73608,-0.02374 36.52033,2.81573c2.44205,0.78938 -8.078,6.99626 -6.57918,6.5313c7.07121,-2.19362 16.61866,-10.14425 22.864,-22.27659c7.62673,-14.81586 -3.63779,-49.30541 1.80907,-49.36859c4.05217,-2.49997 11.76027,36.9935 5.55541,52.38526c-1.80379,4.47447 -4.62117,9.10995 -7.41714,13.40902c-2.8478,4.37878 12.86501,-13.00546 16.46169,-10.64757c2.86492,1.87817 -3.04402,19.12329 -10.69162,25.61362c-2.60969,2.21479 -9.07516,6.4211 -18.64365,6.48065c-15.73129,0.09789 -36.69788,-5.23399 -39.40215,-6.32721c-6.9967,-2.82847 -17.93146,-19.09666 -15.19758,-32.4228c3.14738,-15.34176 21.32315,-24.31009 24.72421,-24.51902c9.13281,-0.56104 18.16287,10.43788 17.41902,15.54273c-0.1969,1.35126 5.47078,-3.78723 2.2003,-10.14473c-4.93204,-9.58743 -11.46639,-15.78264 -13.26501,-13.13009z" fill="url(#color-3)"/><path d="M272.8063,123.71469c0,19.93377 -16.5489,36.09328 -36.963,36.09328c-20.4141,0 -36.96301,-16.15951 -36.96301,-36.09328c0,-19.93377 16.54891,-36.09329 36.96301,-36.09329c20.4141,0 36.963,16.15952 36.963,36.09329z" fill="url(#color-4)"/><path d="M258.69338,101.70661c-0.95386,9.15062 -23.21888,-0.01235 -34.65383,6.82742c-11.43495,6.83977 -20.10088,30.55271 -24.82357,22.65715c-4.7227,-7.89557 -2.85301,-36.6523 8.58194,-43.49206c11.43495,-6.83976 52.65105,-2.83425 50.89547,14.0075z" fill="url(#color-5)"/><path d="M243.16817,134.16714c-2.2023,1.97349 -1.97937,6.77987 4.04026,6.35303c1.88979,-0.24117 11.39469,-5.63725 12.08339,-14.98114c0.46986,-6.37476 -7.07881,-14.9808 -10.3718,-20.78256c-2.07183,-3.65027 -13.81643,-13.46713 -25.69451,-11.75946c-11.0726,1.59187 -22.30162,14.37044 -24.84305,20.28027c-6.06122,14.09476 -3.85345,33.9946 -5.96339,30.92264c-0.83115,0.26237 -3.90851,-20.57831 2.79156,-36.59196c2.38669,-5.70435 14.34186,-20.61479 27.73677,-22.10188c16.01698,-1.77819 26.73205,5.92734 35.26397,16.42786c4.96208,6.10699 10.28466,21.07233 7.85542,28.87644c-3.90467,12.54401 -19.08623,17.82671 -21.94066,17.52342c-11.21795,-1.19191 -15.17875,-16.61314 -15.03457,-18.21834c0.39345,-4.38036 2.51388,-5.30711 6.74075,-9.33386c1.9088,-2.65627 -2.90267,-4.42704 -6.7993,-2.12999c-3.0361,1.78977 -12.22472,8.50438 -13.90135,19.93477c-0.44959,6.28956 5.41656,20.78789 12.23863,21.792c4.26134,0.62721 16.15714,1.63621 25.12373,-1.1454c7.0712,-2.19362 18.1611,-11.37821 24.40644,-23.51056c7.62673,-14.81586 -0.86137,-40.35921 2.73454,-40.11389c4.05217,0.27644 8.67538,25.88788 2.47051,41.27964c-5.37973,13.34492 -19.80794,24.72883 -26.64111,27.74159c-11.53536,5.08596 -28.70263,2.54507 -33.05176,0.7869c-6.9967,-2.82847 -17.93146,-19.09665 -15.19758,-32.4228c3.14738,-15.34176 21.32315,-24.3101 24.72421,-24.51903c9.13281,-0.56104 18.16287,10.43789 17.41902,15.54273c-0.45678,3.13478 -3.30435,7.56366 -6.19012,10.1496z" fill="url(#color-6)"/><path d="M280.88102,160.49111c-4.91795,6.74599 -15.28505,10.23569 -17.28131,8.78038c-1.99626,-1.45531 7.90115,-5.9455 13.07206,-12.4996c8.15152,-10.33202 11.82434,-17.25177 13.2482,-16.79642c0.93144,0.29788 -4.12099,13.76966 -9.03895,20.51565z" fill="url(#color-7)"/><path d="M240.74161,157.7179c-8.29802,0.91513 -16.6955,-7.85269 -15.35867,-9.93016c1.58014,-2.45554 7.24988,4.91285 15.5767,4.31391c13.12656,-0.94418 13.92678,-3.5131 14.5503,-2.15445c0.40788,0.88879 -6.47031,6.85557 -14.76834,7.7707z" fill="url(#color-8)"/><path d="M270.43014,92.17326c5.71771,6.08297 4.14078,22.16152 2.34071,23.8535c-1.80006,1.69198 -1.29332,-14.11045 -6.7756,-20.40643c-8.64236,-9.9251 -14.76158,-14.81671 -14.05024,-16.13151c0.46534,-0.8601 12.76741,6.60147 18.48512,12.68444z" fill="url(#color-9)"/><path d="M234.8845,100.18908c0.74409,1.62684 -6.53661,1.80247 -13.35382,4.92058c-6.81722,3.1181 -11.4549,9.07225 -12.19899,7.44541c-0.74409,-1.62683 3.58539,-8.25483 10.4026,-11.37295c6.81721,-3.11811 14.40613,-2.61989 15.15022,-0.99305z" fill="url(#color-10)"/><path d="M262.78907,125.91744c0,13.96621 -11.14132,25.28806 -24.88483,25.28806c-13.74352,0 -24.88483,-11.32185 -24.88483,-25.28806c0,-13.96621 11.14131,-25.28805 24.88483,-25.28805c13.74352,0 24.88483,11.32186 24.88483,25.28806z" fill="url(#color-11)"/><path d="M252.09587,119.98721c3.16433,5.38125 -0.73134,13.16902 -8.48106,17.39957c-7.74972,4.23055 -16.54628,3.11876 -19.10703,-1.63639c-2.96633,-5.50826 0.59965,-14.26868 8.34938,-18.49923c7.74973,-4.23055 15.96848,-2.82531 19.23872,2.73605z" fill="url(#color-12)"/><path d="M248.74238,127.36515c0,6.24705 -5.18851,11.31129 -11.58886,11.31129c-6.40035,0 -11.58886,-5.06424 -11.58886,-11.31129c0,-6.24705 5.18851,-11.31128 11.58886,-11.31128c6.40035,0 11.58886,5.06423 11.58886,11.31128z" fill="url(#color-13)"/><path d="M249.83251,125.30856c0,4.28648 -14.34545,-7.80016 -25.03644,-0.73241c-10.14918,6.70955 -5.97608,24.13498 -5.40121,26.54271c0.57616,2.41312 -8.49561,2.01424 -10.27794,-2.4778c-4.57334,-11.5263 -3.47258,-22.50955 4.66199,-30.63883c5.68458,-5.68088 15.02061,-9.84109 23.60244,-8.4553c8.424,1.3603 12.45116,12.08837 12.45116,15.76164z" fill="url(#color-14)"/><path d="M235.5368,162.18351c5.75848,-0.29543 17.82462,-3.25553 26.60945,-9.8077c7.17771,-5.3535 16.3811,-22.01755 17.70824,-24.34227c0.80415,-1.4086 4.51504,0.79897 3.67599,2.7443c-0.24041,0.55739 -4.99883,17.78404 -16.43299,26.71621c-12.07152,9.43007 -24.9821,10.98366 -31.18541,10.2013c-2.90034,-0.36579 -4.58867,-5.29569 -0.37528,-5.51184z" fill="url(#color-15)"/><path d="M289.04602,139.93983c1.40077,0.99481 -3.14761,16.25197 -9.32898,22.11362c-6.18138,5.86165 -16.64113,9.60074 -19.43121,8.16232c-1.1821,-0.60942 9.72872,-7.4086 15.91009,-13.27025c6.18138,-5.86165 9.91142,-18.61588 12.8501,-17.00569z" fill="url(#color-16)"/><path d="M259.36347,142.47138c-6.26208,-0.64354 1.11232,-19.35223 -6.2675,-30.44631c-2.95971,-4.44934 -5.93583,-10.44317 -10.45451,-13.54183c-6.74829,-4.62761 -14.65978,-5.45489 -12.78586,-6.39837c4.07171,-2.05003 11.0053,-12.27979 20.2338,-12.29418c9.39624,-0.01466 21.08102,10.26653 24.31016,17.2864c5.33972,11.60808 1.87046,46.34088 -15.03608,45.3943z" fill="url(#color-17)"/></g><path d="M211.18716,127.37836c-0.01456,0.10254 -0.45206,0.25848 -0.80569,0.59855c-0.34676,0.33347 -0.24254,1.22555 -0.53305,1.27651c-0.27751,0.04868 -0.28384,-0.93498 -0.62872,-1.25686c-0.36578,-0.3414 -0.91277,-0.35581 -0.94284,-0.657c-0.01253,-0.12544 0.6718,-0.11176 0.89079,-0.41633c0.34744,-0.48321 0.30081,-1.50652 0.64197,-1.53634c0.2939,-0.02569 0.22687,1.25059 0.5786,1.63456c0.3038,0.33165 0.82354,0.18357 0.79894,0.35691z" fill="url(#color-18)"/><path d="M222.17546,119.89664c-0.01675,0.11805 -0.52044,0.29758 -0.92757,0.6891c-0.39921,0.38392 -0.40508,1.59972 -0.73954,1.65839c-0.31949,0.05604 -0.20095,-1.26519 -0.59799,-1.63577c-0.42111,-0.39304 -1.05086,-0.40964 -1.08548,-0.7564c-0.01442,-0.14441 0.77344,-0.12866 1.02555,-0.47931c0.4,-0.55632 0.34631,-2.17488 0.73909,-2.20921c0.33837,-0.02958 0.2612,1.88023 0.66613,2.32229c0.34976,0.38183 0.94813,0.21134 0.91981,0.4109z" fill="url(#color-19)"/><path d="M214.02038,151.21585c-0.01456,0.10254 -0.45206,0.25847 -0.80569,0.59855c-0.34676,0.33346 -0.24254,1.22556 -0.53305,1.27652c-0.27751,0.04868 -0.28385,-0.93499 -0.62873,-1.25687c-0.36578,-0.34139 -0.91277,-0.35581 -0.94284,-0.657c-0.01253,-0.12544 0.6718,-0.11176 0.89079,-0.41633c0.34744,-0.48321 0.3008,-1.50652 0.64196,-1.53634c0.2939,-0.02569 0.22687,1.25059 0.5786,1.63456c0.3038,0.33166 0.82353,0.18357 0.79894,0.35691z" fill="url(#color-20)"/><path d="M205.96854,138.98893c-0.01076,0.07586 -0.33442,0.19121 -0.59602,0.44279c-0.25652,0.24669 -0.17943,0.90663 -0.39434,0.94433c-0.2053,0.03601 -0.20999,-0.69168 -0.46511,-0.92979c-0.27059,-0.25255 -0.67524,-0.26322 -0.69748,-0.48603c-0.00926,-0.09279 0.49698,-0.08268 0.65899,-0.30799c0.25702,-0.35747 0.22252,-1.11447 0.4749,-1.13654c0.21741,-0.019 0.16783,0.92515 0.42804,1.2092c0.22475,0.24535 0.60923,0.1358 0.59103,0.26403z" fill="url(#color-21)"/><path d="M214.33697,129.86545c-0.01076,0.07586 -0.33442,0.19122 -0.59603,0.4428c-0.25652,0.24669 -0.17943,0.90663 -0.39434,0.94433c-0.2053,0.03601 -0.20998,-0.69168 -0.46511,-0.92979c-0.27059,-0.25256 -0.67524,-0.26322 -0.69748,-0.48603c-0.00926,-0.09279 0.49697,-0.08268 0.65898,-0.30799c0.25702,-0.35747 0.22252,-1.11448 0.47491,-1.13654c0.21741,-0.019 0.16783,0.92515 0.42803,1.2092c0.22475,0.24535 0.60923,0.1358 0.59104,0.26403z" fill="url(#color-22)"/><path d="M225.79909,155.56864c-0.01076,0.07586 -0.33442,0.19122 -0.59602,0.4428c-0.25652,0.24669 -0.17942,0.90663 -0.39433,0.94433c-0.2053,0.03601 -0.20999,-0.69168 -0.46511,-0.9298c-0.27059,-0.25255 -0.67524,-0.26322 -0.69749,-0.48603c-0.00926,-0.09279 0.49698,-0.08267 0.65899,-0.30799c0.25702,-0.35747 0.22252,-1.11448 0.47491,-1.13655c0.21741,-0.019 0.16783,0.92515 0.42803,1.2092c0.22475,0.24535 0.60923,0.1358 0.59104,0.26403z" fill="url(#color-23)"/><path d="M212.44935,139.86981c-0.01076,0.07586 -0.33442,0.19122 -0.59602,0.4428c-0.25652,0.24669 -0.17942,0.90663 -0.39433,0.94433c-0.2053,0.03601 -0.20999,-0.69168 -0.46511,-0.92979c-0.27059,-0.25255 -0.67524,-0.26322 -0.69749,-0.48604c-0.00926,-0.09279 0.49698,-0.08267 0.65899,-0.30799c0.25702,-0.35747 0.22252,-1.11447 0.47491,-1.13654c0.21741,-0.019 0.16783,0.92515 0.42803,1.2092c0.22475,0.24535 0.60923,0.1358 0.59103,0.26403z" fill="url(#color-24)"/><path d="M242.62965,162.09857c0.23006,-0.00727 0.19997,0.3758 0.34852,0.52247c0.13177,0.13012 0.45526,0.01142 0.46146,0.20735c0.00596,0.18827 -0.32697,0.10863 -0.44155,0.24459c-0.13908,0.16503 -0.08266,0.52741 -0.32071,0.53493c-0.17811,0.00564 -0.12069,-0.33486 -0.25554,-0.42654c-0.19386,-0.1318 -0.54666,-0.05747 -0.55444,-0.30328c-0.00591,-0.18695 0.35445,-0.19055 0.46756,-0.32608c0.13906,-0.16663 0.05528,-0.44587 0.2947,-0.45344z" fill="url(#color-25)"/><path d="M219.45953,129.99031c0.23006,-0.00727 0.19997,0.3758 0.34852,0.52247c0.13177,0.13012 0.45526,0.01141 0.46146,0.20735c0.00596,0.18827 -0.32697,0.10864 -0.44155,0.24459c-0.13908,0.16503 -0.08265,0.5274 -0.32071,0.53492c-0.17811,0.00564 -0.12069,-0.33486 -0.25554,-0.42655c-0.19386,-0.1318 -0.54666,-0.05747 -0.55443,-0.30327c-0.00591,-0.18695 0.35444,-0.19054 0.46756,-0.32607c0.13906,-0.16663 0.05528,-0.44588 0.2947,-0.45344z" fill="url(#color-26)"/><path d="M235.44001,154.78815c0.23006,-0.00727 0.19997,0.3758 0.34852,0.52248c0.13177,0.13012 0.45526,0.01141 0.46146,0.20735c0.00596,0.18827 -0.32697,0.10864 -0.44155,0.24459c-0.13908,0.16503 -0.08266,0.5274 -0.32071,0.53492c-0.17811,0.00564 -0.12069,-0.33485 -0.25554,-0.42654c-0.19386,-0.1318 -0.54666,-0.05747 -0.55444,-0.30328c-0.00591,-0.18695 0.35445,-0.19055 0.46756,-0.32608c0.13906,-0.16663 0.05528,-0.44588 0.2947,-0.45344z" fill="url(#color-27)"/><path d="M208.7945,136.59696c0.23006,-0.00727 0.19997,0.3758 0.34852,0.52248c0.13177,0.13012 0.45527,0.01141 0.46146,0.20735c0.00596,0.18827 -0.32697,0.10864 -0.44155,0.24459c-0.13908,0.16503 -0.08265,0.52741 -0.32071,0.53493c-0.17811,0.00564 -0.12069,-0.33486 -0.25554,-0.42654c-0.19386,-0.1318 -0.54666,-0.05747 -0.55444,-0.30327c-0.00591,-0.18695 0.35445,-0.19055 0.46756,-0.32608c0.13906,-0.16663 0.05528,-0.44587 0.2947,-0.45344z" fill="url(#color-28)"/><path d="M260.85398,86.65773c-0.01455,0.10254 -0.45205,0.25848 -0.80568,0.59855c-0.34675,0.33347 -0.24255,1.22555 -0.53305,1.27651c-0.27751,0.04868 -0.28384,-0.93498 -0.62872,-1.25687c-0.36577,-0.3414 -0.91276,-0.35581 -0.94284,-0.65699c-0.01252,-0.12544 0.6718,-0.11176 0.89079,-0.41633c0.34744,-0.48322 0.30079,-1.50651 0.64196,-1.53634c0.2939,-0.02569 0.22687,1.25058 0.5786,1.63456c0.3038,0.33165 0.82354,0.18357 0.79894,0.35691z" fill="url(#color-29)"/><path d="M258.88572,102.92971c-0.01675,0.11806 -0.52045,0.29757 -0.92758,0.6891c-0.39921,0.38391 -0.40507,1.59972 -0.73953,1.65839c-0.3195,0.05604 -0.20095,-1.26519 -0.598,-1.63577c-0.42111,-0.39303 -1.05086,-0.40964 -1.08547,-0.7564c-0.01442,-0.14441 0.77344,-0.12866 1.02555,-0.47931c0.40001,-0.55632 0.34631,-2.17489 0.73908,-2.20922c0.33837,-0.02957 0.2612,1.88023 0.66614,2.3223c0.34976,0.38183 0.94813,0.21134 0.91981,0.4109z" fill="url(#color-30)"/><path d="M265.22965,86.12454c-0.01455,0.10254 -0.45205,0.25848 -0.80569,0.59855c-0.34675,0.33346 -0.24254,1.22555 -0.53305,1.27651c-0.27751,0.04868 -0.28385,-0.93499 -0.62873,-1.25687c-0.36577,-0.3414 -0.91277,-0.35581 -0.94284,-0.657c-0.01252,-0.12544 0.6718,-0.11176 0.89079,-0.41633c0.34744,-0.48322 0.30079,-1.50651 0.64196,-1.53634c0.2939,-0.02569 0.22687,1.25059 0.5786,1.63456c0.3038,0.33165 0.82355,0.18357 0.79895,0.35691z" fill="url(#color-31)"/><path d="M219.54207,91.79002c-0.01076,0.07585 -0.33442,0.19121 -0.59602,0.44279c-0.25652,0.24668 -0.17943,0.90662 -0.39434,0.94433c-0.2053,0.03602 -0.20998,-0.69168 -0.46511,-0.92979c-0.27059,-0.25255 -0.67524,-0.26323 -0.69749,-0.48604c-0.00926,-0.09279 0.49697,-0.08267 0.65897,-0.30799c0.25704,-0.35747 0.22253,-1.11448 0.47491,-1.13654c0.21741,-0.01901 0.16783,0.92515 0.42803,1.2092c0.22474,0.24535 0.60924,0.1358 0.59104,0.26403z" fill="url(#color-32)"/><path d="M246.72837,90.0703c-0.01076,0.07586 -0.33442,0.19121 -0.59603,0.44279c-0.25652,0.24668 -0.17942,0.90663 -0.39433,0.94433c-0.2053,0.03602 -0.20999,-0.69168 -0.46511,-0.92979c-0.27059,-0.25255 -0.67524,-0.26322 -0.69749,-0.48603c-0.00926,-0.09279 0.49698,-0.08268 0.65898,-0.30799c0.25704,-0.35747 0.22252,-1.11448 0.47491,-1.13654c0.21741,-0.01901 0.16783,0.92515 0.42803,1.2092c0.22474,0.24535 0.60923,0.1358 0.59103,0.26403z" fill="url(#color-33)"/><path d="M250.78675,104.66786c-0.01076,0.07585 -0.33442,0.19121 -0.59603,0.44279c-0.25652,0.24668 -0.17943,0.90663 -0.39434,0.94433c-0.2053,0.03602 -0.20999,-0.69168 -0.46511,-0.92981c-0.27059,-0.25255 -0.67524,-0.26322 -0.69748,-0.48603c-0.00926,-0.09279 0.49697,-0.08268 0.65898,-0.30799c0.25704,-0.35747 0.22252,-1.11448 0.47491,-1.13654c0.21741,-0.01901 0.16783,0.92516 0.42803,1.20921c0.22474,0.24535 0.60923,0.1358 0.59103,0.26404z" fill="url(#color-34)"/><path d="M265.20107,92.05393c-0.01076,0.07585 -0.33442,0.1912 -0.59602,0.44278c-0.25651,0.24668 -0.17943,0.90664 -0.39434,0.94433c-0.20529,0.03602 -0.20999,-0.69168 -0.46511,-0.9298c-0.27059,-0.25255 -0.67524,-0.26322 -0.69748,-0.48603c-0.00927,-0.09279 0.49697,-0.08268 0.65898,-0.30799c0.25703,-0.35747 0.22252,-1.11449 0.47491,-1.13654c0.21742,-0.01901 0.16784,0.92515 0.42804,1.2092c0.22474,0.24535 0.60923,0.1358 0.59103,0.26404z" fill="url(#color-35)"/><path d="M233.37496,88.06107c0.23006,-0.00728 0.19997,0.37579 0.34852,0.52247c0.13177,0.13012 0.45527,0.01141 0.46146,0.20735c0.00596,0.18827 -0.32698,0.10863 -0.44156,0.24458c-0.13908,0.16502 -0.08265,0.52741 -0.3207,0.53493c-0.17811,0.00563 -0.12069,-0.33487 -0.25554,-0.42654c-0.19386,-0.1318 -0.54666,-0.05747 -0.55444,-0.30327c-0.00591,-0.18695 0.35444,-0.19055 0.46756,-0.32608c0.13906,-0.16662 0.05528,-0.44587 0.29469,-0.45344z" fill="url(#color-36)"/><path d="M262.33958,115.79979c0.23007,-0.00728 0.19997,0.37579 0.34852,0.52248c0.13177,0.13012 0.45526,0.01141 0.46146,0.20734c0.00595,0.18827 -0.32698,0.10864 -0.44155,0.24459c-0.13909,0.16502 -0.08266,0.52741 -0.32071,0.53493c-0.17811,0.00563 -0.12069,-0.33486 -0.25554,-0.42654c-0.19385,-0.1318 -0.54666,-0.05747 -0.55443,-0.30328c-0.00591,-0.18695 0.35444,-0.19053 0.46756,-0.32608c0.13906,-0.16662 0.05528,-0.44588 0.29469,-0.45345z" fill="url(#color-37)"/><path d="M221.55798,100.49399c0.23006,-0.00728 0.19998,0.37579 0.34852,0.52247c0.13177,0.13012 0.45525,0.01141 0.46145,0.20735c0.00596,0.18827 -0.32697,0.10864 -0.44154,0.24459c-0.13908,0.16502 -0.08266,0.52741 -0.32071,0.53494c-0.17811,0.00563 -0.12069,-0.33486 -0.25554,-0.42654c-0.19386,-0.1318 -0.54666,-0.05747 -0.55444,-0.30328c-0.00591,-0.18695 0.35445,-0.19054 0.46756,-0.32608c0.13906,-0.16662 0.05528,-0.44587 0.2947,-0.45344z" fill="url(#color-38)"/><path d="M241.18591,96.8018c0.23006,-0.00728 0.19997,0.37579 0.34851,0.52247c0.13177,0.13012 0.45526,0.01141 0.46146,0.20735c0.00596,0.18827 -0.32697,0.10864 -0.44154,0.24459c-0.13908,0.16502 -0.08266,0.5274 -0.32071,0.53493c-0.17811,0.00563 -0.12069,-0.33486 -0.25553,-0.42654c-0.19386,-0.1318 -0.54666,-0.05747 -0.55444,-0.30329c-0.00591,-0.18695 0.35444,-0.19055 0.46755,-0.32608c0.13906,-0.16662 0.05528,-0.44587 0.2947,-0.45344z" fill="url(#color-39)"/><path d="M283.37372,154.83394c-0.01455,0.10254 -0.45205,0.25848 -0.80569,0.59855c-0.34675,0.33346 -0.24254,1.22555 -0.53305,1.2765c-0.27751,0.04868 -0.28384,-0.93498 -0.62872,-1.25687c-0.36577,-0.3414 -0.91277,-0.35581 -0.94284,-0.65699c-0.01252,-0.12544 0.6718,-0.11176 0.89079,-0.41634c0.34744,-0.48322 0.30079,-1.50652 0.64196,-1.53634c0.2939,-0.02569 0.22688,1.25059 0.5786,1.63457c0.3038,0.33166 0.82354,0.18357 0.79894,0.35691z" fill="url(#color-40)"/><path d="M261.04516,137.17206c-0.01675,0.11806 -0.52046,0.29758 -0.92758,0.68911c-0.39922,0.38391 -0.40508,1.59972 -0.73953,1.65839c-0.3195,0.05605 -0.20095,-1.2652 -0.598,-1.63577c-0.42111,-0.39303 -1.05086,-0.40964 -1.08548,-0.7564c-0.01442,-0.14441 0.77344,-0.12866 1.02555,-0.47931c0.40001,-0.55632 0.34631,-2.17488 0.73909,-2.20922c0.33837,-0.02957 0.2612,1.88022 0.66614,2.32229c0.34976,0.38183 0.94813,0.21135 0.91981,0.41091z" fill="url(#color-41)"/><path d="M259.67684,160.16205c-0.01455,0.10254 -0.45205,0.25848 -0.80569,0.59855c-0.34675,0.33346 -0.24254,1.22555 -0.53305,1.2765c-0.27751,0.04868 -0.28384,-0.93498 -0.62872,-1.25687c-0.36577,-0.3414 -0.91277,-0.35582 -0.94284,-0.657c-0.01252,-0.12544 0.67179,-0.11176 0.89078,-0.41633c0.34744,-0.48322 0.3008,-1.50652 0.64197,-1.53634c0.2939,-0.02569 0.22687,1.25059 0.5786,1.63456c0.3038,0.33166 0.82355,0.18357 0.79895,0.35691z" fill="url(#color-42)"/><path d="M260.57119,150.09456c-0.01076,0.07585 -0.33441,0.19121 -0.59602,0.44279c-0.25651,0.24669 -0.17944,0.90663 -0.39434,0.94433c-0.20529,0.03601 -0.20999,-0.69168 -0.46511,-0.9298c-0.27059,-0.25255 -0.67524,-0.26322 -0.69748,-0.48603c-0.00927,-0.09279 0.49698,-0.08267 0.65897,-0.30799c0.25703,-0.35747 0.22253,-1.11447 0.47491,-1.13654c0.21742,-0.019 0.16783,0.92515 0.42804,1.2092c0.22474,0.24535 0.60924,0.1358 0.59104,0.26403z" fill="url(#color-43)"/><path d="M267.91393,131.78152c-0.01166,0.08218 -0.36228,0.20715 -0.64569,0.47969c-0.2779,0.26725 -0.19438,0.98218 -0.4272,1.02302c-0.2224,0.03901 -0.22749,-0.74931 -0.50387,-1.00728c-0.29314,-0.2736 -0.73151,-0.28516 -0.75561,-0.52654c-0.01004,-0.10053 0.53839,-0.08956 0.7139,-0.33365c0.27845,-0.38726 0.24106,-1.20736 0.51448,-1.23126c0.23554,-0.02059 0.18183,1.00225 0.46371,1.30998c0.24347,0.26579 0.66,0.14711 0.64028,0.28603z" fill="url(#color-44)"/><path d="M275.15743,162.97239c-0.01076,0.07585 -0.33443,0.19121 -0.59603,0.44279c-0.25651,0.24669 -0.17943,0.90663 -0.39434,0.94433c-0.20529,0.03601 -0.20998,-0.69168 -0.46511,-0.9298c-0.27059,-0.25255 -0.67524,-0.26322 -0.69748,-0.48603c-0.00927,-0.09279 0.49697,-0.08268 0.65898,-0.30799c0.25703,-0.35747 0.22252,-1.11447 0.47491,-1.13654c0.21742,-0.019 0.16784,0.92515 0.42804,1.2092c0.22474,0.24535 0.60923,0.1358 0.59103,0.26404z" fill="url(#color-45)"/><path d="M267.05201,150.97544c-0.01076,0.07585 -0.33442,0.19121 -0.59602,0.44279c-0.25651,0.24669 -0.17943,0.90663 -0.39434,0.94432c-0.20529,0.03601 -0.20998,-0.69168 -0.46511,-0.9298c-0.27059,-0.25255 -0.67525,-0.26322 -0.69749,-0.48603c-0.00927,-0.09279 0.49698,-0.08267 0.65899,-0.30798c0.25703,-0.35747 0.22251,-1.11449 0.4749,-1.13654c0.21742,-0.019 0.16784,0.92515 0.42804,1.20921c0.22474,0.24535 0.60922,0.1358 0.59103,0.26403z" fill="url(#color-46)"/><path d="M259.90507,140.8128c0.23007,-0.00727 0.19997,0.3758 0.34851,0.52247c0.13177,0.13011 0.45526,0.01141 0.46146,0.20735c0.00595,0.18827 -0.32698,0.10864 -0.44155,0.24459c-0.13909,0.16503 -0.08265,0.52741 -0.3207,0.53493c-0.17811,0.00564 -0.12069,-0.33487 -0.25554,-0.42654c-0.19385,-0.13181 -0.54666,-0.05747 -0.55444,-0.30328c-0.00591,-0.18695 0.35445,-0.19055 0.46756,-0.32608c0.13906,-0.16662 0.05528,-0.44587 0.2947,-0.45344z" fill="url(#color-47)"/><path d="M274.06219,141.09593c0.23007,-0.00727 0.19997,0.37579 0.34852,0.52247c0.13177,0.13011 0.45526,0.01141 0.46146,0.20735c0.00595,0.18827 -0.32697,0.10864 -0.44155,0.24459c-0.13909,0.16503 -0.08266,0.52741 -0.32072,0.53493c-0.17811,0.00564 -0.12069,-0.33486 -0.25553,-0.42654c-0.19385,-0.13181 -0.54667,-0.05747 -0.55444,-0.30328c-0.00591,-0.18695 0.35445,-0.19054 0.46756,-0.32608c0.13906,-0.16662 0.05528,-0.44588 0.29469,-0.45344z" fill="url(#color-48)"/><path d="M259.81069,153.5542c0.23007,-0.00727 0.19998,0.3758 0.34852,0.52248c0.13177,0.13011 0.45526,0.01141 0.46145,0.20735c0.00595,0.18827 -0.32697,0.10864 -0.44155,0.24459c-0.13909,0.16503 -0.08266,0.52741 -0.32071,0.53493c-0.17811,0.00564 -0.12069,-0.33486 -0.25554,-0.42654c-0.19385,-0.13181 -0.54666,-0.05747 -0.55444,-0.30328c-0.00591,-0.18695 0.35445,-0.19054 0.46756,-0.32608c0.13906,-0.16662 0.05527,-0.44588 0.29469,-0.45345z" fill="url(#color-49)"/><path d="M263.39716,147.70259c0.23007,-0.00727 0.19997,0.3758 0.34851,0.52248c0.13177,0.13011 0.45526,0.01141 0.46146,0.20734c0.00595,0.18827 -0.32697,0.10864 -0.44155,0.24459c-0.13909,0.16503 -0.08266,0.5274 -0.32071,0.53493c-0.17811,0.00564 -0.12069,-0.33486 -0.25553,-0.42654c-0.19385,-0.13181 -0.54666,-0.05747 -0.55444,-0.30328c-0.00591,-0.18695 0.35444,-0.19054 0.46755,-0.32607c0.13906,-0.16662 0.05529,-0.44588 0.2947,-0.45345z" fill="url(#color-50)"/></g></g></g></svg>