<svg version="1.1" xmlns="http://www.w3.org/2000/svg" xmlns:xlink="http://www.w3.org/1999/xlink" width="133.21257" height="180.50691" viewBox="0,0,133.21257,180.50691"><defs><linearGradient x1="246.62031" y1="-10.60764" x2="246.62031" y2="266.2804" gradientUnits="userSpaceOnUse" id="color-1"><stop offset="0" stop-color="#000000"/><stop offset="1" stop-color="#000000" stop-opacity="0"/></linearGradient><radialGradient cx="242.16423" cy="114.486" r="40.18134" gradientUnits="userSpaceOnUse" id="color-2"><stop offset="0" stop-color="#e64444"/><stop offset="1" stop-color="#e64444" stop-opacity="0"/></radialGradient><radialGradient cx="237.17075" cy="107.68898" r="18.1753" gradientUnits="userSpaceOnUse" id="color-3"><stop offset="0" stop-color="#ff4a4a"/><stop offset="1" stop-color="#b21212"/></radialGradient><radialGradient cx="271.29856" cy="134.79142" r="32.52642" gradientUnits="userSpaceOnUse" id="color-4"><stop offset="0" stop-color="#4561e6"/><stop offset="1" stop-color="#4561e6" stop-opacity="0"/></radialGradient><radialGradient cx="267.25638" cy="129.28929" r="14.71274" gradientUnits="userSpaceOnUse" id="color-5"><stop offset="0" stop-color="#4a6aff"/><stop offset="1" stop-color="#122eb3"/></radialGradient><radialGradient cx="213.54309" cy="136.26746" r="32.52642" gradientUnits="userSpaceOnUse" id="color-6"><stop offset="0" stop-color="#4561e6"/><stop offset="1" stop-color="#4561e6" stop-opacity="0"/></radialGradient><radialGradient cx="209.50091" cy="130.76534" r="14.71274" gradientUnits="userSpaceOnUse" id="color-7"><stop offset="0" stop-color="#4a6aff"/><stop offset="1" stop-color="#122eb3"/></radialGradient></defs><g transform="translate(-176.94629,-37.9391)"><g data-paper-data="{&quot;isPaintingLayer&quot;:true}" fill-rule="nonzero" stroke-linecap="butt" stroke-linejoin="miter" stroke-miterlimit="10" stroke-dasharray="" stroke-dashoffset="0" style="mix-blend-mode: normal"><path d="M294.52518,177.33513c0.08306,2.91279 -7.47079,10.94732 -46.81921,10.94732c-39.34842,0 -50.33445,-6.8584 -50.34761,-11.54727c-0.01137,-4.04815 10.18494,-9.44736 49.53336,-9.44736c39.34842,0 47.55747,7.38292 47.63346,10.04731z" fill="url(#color-1)" stroke="none" stroke-width="0"/><text transform="translate(219.21064,210.62346) scale(0.46015,0.46015)" font-size="40" xml:space="preserve" fill="#000000" fill-rule="nonzero" stroke="#000000" stroke-width="1" stroke-linecap="butt" stroke-linejoin="miter" stroke-miterlimit="10" stroke-dasharray="" stroke-dashoffset="0" font-family="Handwriting" font-weight="normal" text-anchor="start" style="mix-blend-mode: normal"></text><text transform="translate(177.19564,56.88932) scale(0.49869,0.49869)" font-size="40" xml:space="preserve" fill="#000000" fill-rule="nonzero" stroke="#000000" stroke-width="1" stroke-linecap="butt" stroke-linejoin="miter" stroke-miterlimit="10" stroke-dasharray="" stroke-dashoffset="0" font-family="Handwriting" font-weight="normal" text-anchor="start" style="mix-blend-mode: normal"></text><g data-paper-data="{&quot;index&quot;:null}" stroke="none" stroke-width="0"><g><path d="M240.15353,154.61698c-21.48177,-1.07631 -37.99597,-19.91609 -36.88548,-42.07983c1.11049,-22.16373 19.42513,-39.25847 40.90689,-38.18216c21.48177,1.07631 37.99597,19.9161 36.88549,42.07984c-1.11048,22.16373 -19.42512,39.25847 -40.9069,38.18215z" fill="url(#color-2)"/><path d="M224.59885,113.83133c0.49577,-9.89471 9.02484,-17.50879 19.05021,-17.00648c10.02538,0.50231 17.75064,8.93075 17.25488,18.8255c-0.49577,9.89475 -9.02481,17.50879 -19.05019,17.00648c-10.02538,-0.50231 -17.75067,-8.93075 -17.2549,-18.8255z" fill="url(#color-3)"/></g><g><path d="M269.67092,167.27708c-17.3893,-0.87127 -30.75739,-16.12189 -29.85846,-34.06324c0.89893,-17.94135 15.72447,-31.77938 33.11376,-30.90811c17.38929,0.87127 30.75739,16.1219 29.85846,34.06325c-0.89893,17.94134 -15.72447,31.77937 -33.11377,30.9081z" fill="url(#color-4)"/><path d="M257.07953,134.26146c0.40132,-8.00968 7.30553,-14.1732 15.42098,-13.76659c8.11545,0.40662 14.36898,7.22935 13.96767,15.23907c-0.40132,8.00971 -7.30551,14.1732 -15.42096,13.76659c-8.11545,-0.40661 -14.36901,-7.22935 -13.96769,-15.23907z" fill="url(#color-5)"/></g><g><path d="M211.91544,168.75313c-17.3893,-0.87127 -30.75739,-16.1219 -29.85846,-34.06324c0.89893,-17.94135 15.72447,-31.77937 33.11377,-30.90811c17.3893,0.87127 30.75739,16.1219 29.85846,34.06324c-0.89893,17.94134 -15.72447,31.77938 -33.11377,30.90811z" fill="url(#color-6)"/><path d="M199.32407,135.73752c0.40132,-8.00968 7.30551,-14.1732 15.42097,-13.76659c8.11545,0.40661 14.36898,7.22936 13.96767,15.23907c-0.40132,8.00971 -7.3055,14.1732 -15.42095,13.76659c-8.11545,-0.40661 -14.369,-7.22936 -13.96768,-15.23907z" fill="url(#color-7)"/></g></g><text transform="translate(227.59859,77.39044) scale(0.39376,0.39376)" font-size="40" xml:space="preserve" fill="#000000" fill-rule="nonzero" stroke="#000000" stroke-width="1" stroke-linecap="butt" stroke-linejoin="miter" stroke-miterlimit="10" stroke-dasharray="" stroke-dashoffset="0" font-family="Handwriting" font-weight="normal" text-anchor="start" style="mix-blend-mode: normal"></text></g></g></svg>