<svg version="1.1" xmlns="http://www.w3.org/2000/svg" xmlns:xlink="http://www.w3.org/1999/xlink" width="117.61801" height="175.71297" viewBox="0,0,117.61801,175.71297"><defs><linearGradient x1="240.57776" y1="-158.88227" x2="240.57776" y2="332.07542" gradientUnits="userSpaceOnUse" id="color-1"><stop offset="0" stop-color="#000000"/><stop offset="1" stop-color="#000000" stop-opacity="0"/></linearGradient><radialGradient cx="226.27221" cy="137.25914" r="46.78863" gradientUnits="userSpaceOnUse" id="color-2"><stop offset="0" stop-color="#ffdfd6"/><stop offset="1" stop-color="#ffcabc"/></radialGradient><linearGradient x1="279.68713" y1="93.71336" x2="279.68713" y2="183.08889" gradientUnits="userSpaceOnUse" id="color-3"><stop offset="0" stop-color="#d48974"/><stop offset="1" stop-color="#b76d60"/></linearGradient></defs><g transform="translate(-179.48357,-43.62845)"><g data-paper-data="{&quot;isPaintingLayer&quot;:true}" fill-rule="nonzero" stroke-linecap="butt" stroke-linejoin="miter" stroke-miterlimit="10" stroke-dasharray="" stroke-dashoffset="0" style="mix-blend-mode: normal"><path d="M181.62732,100.66682c2.91999,-13.20347 16.39542,-17.24758 21.11813,-19.06221c1.90978,-0.7338 36.26352,-4.79515 47.8545,-6.36078c6.83844,-0.92369 30.99129,8.24421 37.90194,12.24404c7.71609,3.25111 8.46449,8.98825 6.88081,9.8048c-0.84161,0.43394 -4.03209,19.51886 -21.22598,19.37203c-27.14854,-0.23185 -69.94935,-17.04148 -75.63459,-17.96729c-6.0938,-0.99235 -17.65139,5.39045 -16.89481,1.96941z" fill="#ffefcf" stroke="none" stroke-width="0"/><path d="M296.92093,174.36414c0.09769,5.16475 -8.78675,19.41098 -55.06627,19.41098c-46.27952,0 -59.20071,-12.16081 -59.21619,-20.47478c-0.01337,-7.17789 11.97899,-16.75137 58.25851,-16.75137c46.27952,0 55.93458,13.09086 56.02395,17.81516z" fill="url(#color-1)" stroke="none" stroke-width="0"/><text transform="translate(215.29168,211.51887) scale(0.46015,0.46015)" font-size="40" xml:space="preserve" fill="#000000" fill-rule="nonzero" stroke="#000000" stroke-width="1" stroke-linecap="butt" stroke-linejoin="miter" stroke-miterlimit="10" stroke-dasharray="" stroke-dashoffset="0" font-family="Handwriting" font-weight="normal" text-anchor="start" style="mix-blend-mode: normal"></text><text transform="translate(199.24348,60.83143) scale(0.45271,0.45271)" font-size="40" xml:space="preserve" fill="#000000" fill-rule="nonzero" stroke="#000000" stroke-width="1" stroke-linecap="butt" stroke-linejoin="miter" stroke-miterlimit="10" stroke-dasharray="" stroke-dashoffset="0" font-family="Handwriting" font-weight="normal" text-anchor="start" style="mix-blend-mode: normal"></text><path d="M181.72492,164.171c-0.63225,-15.81228 -1.87303,-46.72757 -2.23172,-57.33764c-0.14569,-4.30957 1.35893,-11.36078 4.77589,-14.89514c2.11575,-2.18844 17.25025,-1.19427 24.59299,0.36671c13.03456,2.771 34.96025,8.75905 49.96989,12.53782c7.62788,1.92037 10.43945,-1.05593 13.40584,3.29914c1.26164,1.85226 0.69711,11.96699 0.69711,14.02478c0,9.31429 -0.47419,33.72041 -0.57277,49.6617c-0.05307,8.58199 -9.49954,12.97033 -17.55308,11.8453c-11.70275,-1.63479 -45.5015,-6.06221 -62.70697,-8.35608c-6.45416,-0.86049 -10.14932,-5.44783 -10.37719,-11.14659z" fill="url(#color-2)" stroke="none" stroke-width="0"/><path d="M271.36596,175.16293c0.07412,-9.26012 0.26572,-37.93833 0.60713,-56.0125c0.01693,-0.89659 -2.19128,-12.19205 -1.43615,-12.6946c7.21227,-4.79989 8.51809,-5.96268 11.83675,-7.55278c2.31477,-1.10909 6.29873,-3.30804 9.58794,-4.84253c3.03179,-1.4144 5.11819,1.57754 5.08577,7.43883c-0.09443,17.07017 0.05419,51.69442 0.05419,61.334c0,4.90993 -2.88473,11.00657 -6.16053,12.56043c-4.38657,2.08074 -9.40545,4.82732 -12.00304,6.2919c-1.76544,0.9954 -18.17756,1.64823 -16.55234,1.31565c5.38166,-1.10129 8.95535,-4.72438 8.98028,-7.83839z" fill="url(#color-3)" stroke="none" stroke-width="0"/><path d="M268.83333,145.16667c-0.19027,9.75518 -4.13298,19 -20.33333,19c-16.20036,0 -33.66666,-10.5763 -33.66666,-20.33333c0,-9.75703 13.13297,-17.66667 29.33333,-17.66667c16.20035,0 25,1.90964 24.66667,19z" fill="#e0abe8" stroke="none" stroke-width="0"/></g></g></svg>