<svg version="1.1" xmlns="http://www.w3.org/2000/svg" xmlns:xlink="http://www.w3.org/1999/xlink" width="103" height="172.6787" viewBox="0,0,103,172.6787"><defs><linearGradient x1="240.6195" y1="58.29925" x2="240.6195" y2="237.16745" gradientUnits="userSpaceOnUse" id="color-1"><stop offset="0" stop-color="#000000"/><stop offset="1" stop-color="#000000" stop-opacity="0"/></linearGradient></defs><g transform="translate(-188.00005,-33.32954)"><g data-paper-data="{&quot;isPaintingLayer&quot;:true}" fill-rule="nonzero" stroke-linecap="butt" stroke-linejoin="miter" stroke-miterlimit="10" stroke-dasharray="" stroke-dashoffset="0" style="mix-blend-mode: normal"><path d="M284.37023,179.70933c0.07585,1.88165 -6.82295,7.07192 -42.75929,7.07192c-35.93634,0 -45.96971,-4.43047 -45.98172,-7.45949c-0.01038,-2.6151 9.30175,-6.10294 45.23807,-6.10294c35.93634,0 43.43354,4.76932 43.50294,6.49051z" fill="url(#color-1)" stroke="none" stroke-width="0"/><text transform="translate(226.84161,201.16046) scale(0.28942,0.28942)" font-size="40" xml:space="preserve" fill="#ffffff" fill-rule="nonzero" stroke="#ffffff" stroke-width="0.5" stroke-linecap="butt" stroke-linejoin="miter" stroke-miterlimit="10" stroke-dasharray="" stroke-dashoffset="0" font-family="Handwriting" font-weight="normal" text-anchor="start" style="mix-blend-mode: normal"></text><text transform="translate(214.25234,46.99859) scale(0.35504,0.35504)" font-size="40" xml:space="preserve" fill="#ffffff" fill-rule="nonzero" stroke="#ffffff" stroke-width="2" stroke-linecap="butt" stroke-linejoin="miter" stroke-miterlimit="10" stroke-dasharray="" stroke-dashoffset="0" font-family="Handwriting" font-weight="normal" text-anchor="start" style="mix-blend-mode: normal"></text><text transform="translate(192.77146,66.47374) scale(0.23622,0.23622)" font-size="40" xml:space="preserve" fill="#ffffff" fill-rule="nonzero" stroke="#ffffff" stroke-width="1" stroke-linecap="butt" stroke-linejoin="miter" stroke-miterlimit="10" stroke-dasharray="" stroke-dashoffset="0" font-family="Handwriting" font-weight="normal" text-anchor="start" style="mix-blend-mode: normal"></text><path d="M233.26536,92.84431c0,2.17455 -2.16975,2.8546 -4.72485,2.8546c-2.55509,0 -4.52797,-0.68005 -4.52797,-2.8546c0,-2.17455 1.97288,-5.02014 4.52797,-5.02014c2.55509,0 4.72485,2.8456 4.72485,5.02014zM228.04837,94.813c1.63091,0 3.64207,-0.04247 3.64207,-1.67338c0,-1.63092 -1.71586,-4.23268 -3.34677,-4.23268c-1.63091,0 -3.1499,1.61741 -3.1499,3.24833c0,1.63092 1.22369,2.65773 2.8546,2.65773z" fill="#e9e9e9" stroke="none" stroke-width="0"/><g><path d="M289.75005,129.25c0,27.3381 -22.49769,49.5 -50.25,49.5c-27.75231,0 -50.25,-22.1619 -50.25,-49.5c0,-27.33809 22.49769,-49.5 50.25,-49.5c27.75231,0 50.25,22.16191 50.25,49.5z" fill="#cccaca" stroke="#000000" stroke-width="2.5"/><path d="M239.6828,137.82414c0,11.73605 -11.73781,22.58334 -23.75,22.58334c-12.01219,0 -23.41666,-12.18062 -23.41666,-23.91667c0,-11.73605 8.07114,-21.91667 20.08334,-21.91667c12.01219,0 27.08333,11.51395 27.08333,23.25z" fill="#b2abab" stroke="none" stroke-width="0"/><path d="M257.76615,106.65749c0,12.4264 -8.0736,27.83333 -20.5,27.83333c-12.4264,0 -23.83333,-14.74026 -23.83333,-27.16666c0,-12.42641 10.07359,-22.5 22.5,-22.5c12.4264,0 21.83333,9.40693 21.83333,21.83334z" fill="#b2abab" stroke="none" stroke-width="0"/><path d="M278.4328,145.04718c0,6.32016 -8.95992,11.44366 -15.66901,11.44366c-6.70909,0 -12.14788,-5.1235 -12.14788,-11.44366c0,-6.32015 3.32612,-13.55634 10.03521,-13.55634c6.70909,0 17.78168,7.23618 17.78168,13.55634z" fill="#b2abab" stroke="none" stroke-width="0"/><path d="M245.4328,164.49082c0,3.86599 -1.20862,9 -5.16666,9c-3.95804,0 -9.16667,-5.13401 -9.16667,-9c0,-3.86599 3.20863,-7 7.16667,-7c3.95804,0 7.16666,3.13401 7.16666,7z" fill="#b2abab" stroke="none" stroke-width="0"/><path d="M282.4328,118.49082c0,5.89104 -5.59154,7.66667 -11.66666,7.66667c-6.07513,0 -11,-4.77563 -11,-10.66667c0,-5.89104 4.92487,-10.66666 11,-10.66666c6.07513,0 11.66666,7.77563 11.66666,13.66666z" fill="#b2abab" stroke="none" stroke-width="0"/><path d="M223.44973,111.39169c0,2.41698 -1.85874,5.38238 -4.27573,5.38238c-2.41699,0 -4.07452,-2.9654 -4.07452,-5.38238c0,-2.41698 0.85269,-4.47695 3.26967,-4.47695c2.41699,0 5.08057,2.05997 5.08057,4.47695zM219.32491,115.5668c1.66689,0 2.81695,-1.7537 2.81695,-3.42058c0,-1.66688 -1.55248,-3.52119 -3.21937,-3.52119c-1.66689,0 -2.81695,1.85431 -2.81695,3.5212c0,1.66688 1.55248,3.42057 3.21937,3.42057z" fill="#e9e9e9" stroke="none" stroke-width="0"/><path d="M272.69298,111.05551c0,2.30476 -2.46757,1.42626 -4.85984,1.42626c-2.39227,0 -4.3316,-0.38928 -4.3316,-2.69404c0,-2.30475 1.93932,-4.17312 4.3316,-4.17312c2.39227,0 4.85984,3.13615 4.85984,5.44091zM267.83311,111.63659c1.75045,0 3.16947,-0.36253 3.16947,-2.11298c0,-1.75044 -1.41902,-2.74686 -3.16947,-2.74686c-1.75045,0 -3.16947,0.57383 -3.16947,2.32428c0,1.75044 1.41902,2.53557 3.16947,2.53557z" fill="#e9e9e9" stroke="none" stroke-width="0"/><path d="M218.19773,142.15675c0,2.88506 -2.2477,6.0456 -5.16519,6.0456c-2.91748,0 -5.28256,-2.33881 -5.28256,-5.22387c0,-2.88506 2.36508,-5.22387 5.28256,-5.22387c2.91748,0 5.16519,1.51708 5.16519,4.40214zM213.03255,147.14585c1.945,0 3.52171,-2.63324 3.52171,-4.57824c0,-1.945 -1.69411,-3.40432 -3.63909,-3.40432c-1.945,0 -3.7565,1.81151 -3.7565,3.7565c0,1.945 1.9289,4.22606 3.87389,4.22606z" fill="#e9e9e9" stroke="none" stroke-width="0"/><path d="M239.30718,114.11198c-2.02687,0.7048 -5.39299,0.40051 -6.13829,-1.74286c-0.74531,-2.14337 1.12981,-3.13535 3.15668,-3.84014c2.02687,-0.7048 3.43797,-0.85552 4.18328,1.28785c0.74531,2.14337 0.82521,3.59036 -1.20166,4.29515zM234.21063,112.10146c0.59389,1.35555 2.57816,2.12969 3.976,1.64363c1.39784,-0.48607 2.13698,-2.01328 1.65091,-3.41112c-0.48606,-1.39784 -1.8666,-1.71514 -3.26444,-1.22908c-0.25908,0.09009 -3.27923,0.90408 -2.36248,2.99657z" fill="#e9e9e9" stroke="none" stroke-width="0"/><path d="M257.10763,162.69024c0,3.02492 -2.18271,5.47709 -4.87523,5.47709c-2.69251,0 -6.68086,-2.33179 -6.68086,-5.35672c0,-3.02492 3.98835,-5.59748 6.68086,-5.59748c2.69251,0 4.87523,2.45218 4.87523,5.4771zM253.63069,164.90695c0.86921,-0.65946 1.43059,-1.70356 1.43059,-2.87877c0,-1.75321 -1.24935,-3.21463 -2.90632,-3.54251c-0.22799,-0.04512 -0.46372,-0.06876 -0.70496,-0.06876c-1.84056,-0.40312 -3.85202,2.0404 -3.85202,3.61128c0,1.86474 1.41297,3.16617 3.02197,3.51542c0.26651,0.06268 0.54441,0.09585 0.83005,0.09585c0.06773,0 0.13504,-0.00187 0.20184,-0.00555c0.55762,-0.02361 1.10823,-0.1671 1.60379,-0.44586c0.13991,-0.0787 0.26388,-0.17347 0.37506,-0.2811z" fill="#e9e9e9" stroke="none" stroke-width="0"/><path d="M287.19768,133.31406c0,2.33279 -1.81743,4.88831 -4.17642,4.88831c-2.35899,0 -4.27133,-1.8911 -4.27133,-4.22388c0,-2.33279 1.91233,-4.22387 4.27133,-4.22387c2.35899,0 4.17642,1.22666 4.17642,3.55944zM283.02128,137.3481c1.57266,0 2.84756,-2.12916 2.84756,-3.70182c0,-1.57267 -1.36981,-2.75264 -2.94247,-2.75264c-1.57266,0 -3.0374,1.46473 -3.0374,3.0374c0,1.57267 1.55966,3.41707 3.13232,3.41707z" fill="#e9e9e9" stroke="none" stroke-width="0"/><path d="M266.94903,128.95102c0,20.14931 -11.02613,42.89824 -12.42846,42.89824c-1.40233,0 10.55751,-22.48166 10.55751,-42.63096c0,-20.14931 -9.28706,-39.15634 -7.88473,-39.15634c1.40233,0 9.75567,18.73975 9.75567,38.88906z" fill="#e9e9e9" stroke="none" stroke-width="0"/><path d="M247.89394,128.87272c0,20.14931 -5.94783,45.03647 -7.35016,45.03647c-1.40233,0 5.47921,-24.61988 5.47921,-44.76919c0,-20.14931 -4.20876,-43.16552 -2.80642,-43.16552c1.40233,0 4.67738,22.74893 4.67738,42.89824z" fill="#e9e9e9" stroke="none" stroke-width="0"/><path d="M281.30377,130.38731c0,15.67168 -8.88789,31.76163 -10.29023,31.76163c-1.40233,0 8.41928,-16.6839 8.41928,-32.35558c0,-15.67168 -9.28706,-30.45493 -7.88473,-30.45493c1.40233,0 9.75567,15.3772 9.75567,31.04889z" fill="#e9e9e9" stroke="none" stroke-width="0"/><path d="M251.71414,122.03423c0,1.76712 -2.59581,4.53153 -3.93113,6.29284c-0.66676,0.87947 0.28823,1.63959 -0.57208,1.63959c-0.95078,0 -0.29134,-1.23818 -1.0594,-2.27479c-1.31874,-1.77984 -3.79215,-3.98332 -3.79215,-5.65764c0,-1.92678 2.32672,-4.72376 3.92443,-6.39135c0.59928,-0.62548 0.04831,-1.54108 0.75295,-1.54108c0.91018,0 0.19208,1.35254 0.91062,2.31795c1.32079,1.7746 3.76676,3.89851 3.76676,5.61447z" fill="#e9e9e9" stroke="none" stroke-width="0"/><path d="M267.48359,146.23666c0,1.45227 -2.63219,3.79251 -4.16998,4.76622c-0.57236,0.36241 0.0572,0.23543 -0.48332,0.23543c-1.99279,0 -2.56322,-3.00886 -2.56322,-5.00165c0,-1.99279 2.83469,-5.35 4.82748,-5.35c0.76333,0 0.24737,0.31841 0.60965,1.0382c0.58353,1.15935 1.7794,3.08233 1.7794,4.31179z" fill="#e9e9e9" stroke="none" stroke-width="0"/><path d="M207.49317,100.33842c1.23861,0 -6.96416,13.05725 -6.96416,26.89921c0,13.84197 8.67491,28.57796 7.4363,28.57796c-1.23861,0 -9.08881,-14.21139 -9.08881,-28.05335c0,-13.84197 7.37806,-27.42383 8.61667,-27.42383z" data-paper-data="{&quot;index&quot;:null}" fill="#e9e9e9" stroke="none" stroke-width="0"/></g></g></g></svg>