<svg version="1.1" xmlns="http://www.w3.org/2000/svg" xmlns:xlink="http://www.w3.org/1999/xlink" width="120.52128" height="153.79348" viewBox="0,0,120.52128,153.79348"><defs><linearGradient x1="240.35505" y1="86.23727" x2="240.35505" y2="224.04389" gradientUnits="userSpaceOnUse" id="color-1"><stop offset="0" stop-color="#000000"/><stop offset="1" stop-color="#000000" stop-opacity="0"/></linearGradient></defs><g transform="translate(-179.98203,-52.7823)"><g data-paper-data="{&quot;isPaintingLayer&quot;:true}" fill-rule="nonzero" stroke-linecap="butt" stroke-linejoin="miter" stroke-miterlimit="10" stroke-dasharray="" stroke-dashoffset="0" style="mix-blend-mode: normal"><text transform="translate(225.12801,201.728) scale(0.28942,0.28942)" font-size="40" xml:space="preserve" fill="#000000" fill-rule="nonzero" stroke="#000000" stroke-width="0.5" stroke-linecap="butt" stroke-linejoin="miter" stroke-miterlimit="10" stroke-dasharray="" stroke-dashoffset="0" font-family="Handwriting" font-weight="normal" text-anchor="start" style="mix-blend-mode: normal"></text><text transform="translate(180.13351,64.29478) scale(0.30296,0.30296)" font-size="40" xml:space="preserve" fill="#000000" fill-rule="nonzero" stroke="#000000" stroke-width="1" stroke-linecap="butt" stroke-linejoin="miter" stroke-miterlimit="10" stroke-dasharray="" stroke-dashoffset="0" font-family="Handwriting" font-weight="normal" text-anchor="start" style="mix-blend-mode: normal"></text><path d="M265.43456,179.77603c0.04348,1.44969 -3.91115,5.44846 -24.51113,5.44846c-20.59997,0 -26.35145,-3.4134 -26.35834,-5.74706c-0.00595,-2.01477 5.33209,-4.70193 25.93205,-4.70193c20.59997,0 24.89763,3.67446 24.93741,5.00053z" fill="url(#color-1)" stroke="none" stroke-width="0"/><g stroke-width="1.5"><path d="M249.84941,85.06651l0.73041,94.05482h-24.16432v-93.27991l11.5882,-2.95435l11.84571,2.17943" data-paper-data="{&quot;index&quot;:null}" fill="#7aded4" stroke="none"/><path d="M250.57982,84.72749v91.70587l-14.1963,-0.28891l-10.31093,-59.21372l0.26423,-31.72724c0,0 7.78293,-3.17594 11.71863,-3.25322c4.13541,-0.08119 12.52438,2.77723 12.52438,2.77723z" data-paper-data="{&quot;index&quot;:null}" fill="#e7f5f5" stroke="none"/><path d="M225.76231,96.14128l3.61221,1.63054" data-paper-data="{&quot;index&quot;:null}" fill="none" stroke="#7aded4"/><path d="M226.02451,100.85533l4.39881,2.11486" data-paper-data="{&quot;index&quot;:null}" fill="none" stroke="#7aded4"/><path d="M226.28671,105.19805l6.2342,2.59918" data-paper-data="{&quot;index&quot;:null}" fill="none" stroke="#7aded4"/><path d="M226.54891,109.58922l7.28299,2.92206" data-paper-data="{&quot;index&quot;:null}" fill="none" stroke="#7aded4"/><path d="M226.33968,113.73274l9.14354,3.48192" data-paper-data="{&quot;index&quot;:null}" fill="none" stroke="#7aded4"/><path d="M237.37158,122.85956l-9.38058,-4.21358" data-paper-data="{&quot;index&quot;:null}" fill="none" stroke="#7aded4"/><path d="M228.2532,123.36003l10.56047,4.64947" data-paper-data="{&quot;index&quot;:null}" fill="none" stroke="#7aded4"/><path d="M239.60026,132.40065l-10.56047,-4.6979" data-paper-data="{&quot;index&quot;:null}" fill="none" stroke="#7aded4"/><path d="M241.04235,136.90481l-10.56047,-4.64946" data-paper-data="{&quot;index&quot;:null}" fill="none" stroke="#7aded4"/><path d="M231.13738,136.59809l10.56047,4.6979" data-paper-data="{&quot;index&quot;:null}" fill="none" stroke="#7aded4"/><path d="M242.48444,146.17147l-10.56047,-4.6979" data-paper-data="{&quot;index&quot;:null}" fill="none" stroke="#7aded4"/><path d="M243.40214,151.15995l-10.56047,-4.69789" data-paper-data="{&quot;index&quot;:null}" fill="none" stroke="#7aded4"/><path d="M244.18874,156.03544l-10.56047,-4.6979" data-paper-data="{&quot;index&quot;:null}" fill="none" stroke="#7aded4"/><path d="M245.23753,161.02393l-10.56047,-4.6979" data-paper-data="{&quot;index&quot;:null}" fill="none" stroke="#7aded4"/><path d="M246.02413,165.73796l-10.56047,-4.6979" data-paper-data="{&quot;index&quot;:null}" fill="none" stroke="#7aded4"/><path d="M236.90575,166.19l10.56047,4.6979" data-paper-data="{&quot;index&quot;:null}" fill="none" stroke="#7aded4"/><path d="M249.00239,175.82518l-10.61754,-4.49863" data-paper-data="{&quot;index&quot;:null}" fill="none" stroke="#7aded4"/><path d="M237.41547,82.71531c0,0 -4.20497,0.14064 -6.19843,0.74834c-1.4089,0.4295 -4.86552,2.3588 -4.86552,2.3588l0.21345,-4.26869c0,0 7.58788,-2.30477 11.20501,-2.44441c5.15316,-0.19894 12.87996,2.32251 12.87996,2.32251l0.09832,45.0417z" fill="#f6f9f9" stroke="none"/><g data-paper-data="{&quot;index&quot;:null}" fill="none" stroke="#e7f5f5"><path d="M249.49127,112.81802l1.38353,0.6619" data-paper-data="{&quot;index&quot;:null}"/><path d="M250.6126,109.29863l-3.21892,-1.30766" data-paper-data="{&quot;index&quot;:null}"/><path d="M250.6126,105.0689l-4.52991,-1.79197" data-paper-data="{&quot;index&quot;:null}"/><path d="M250.82182,100.92539l-6.39045,-2.35185" data-paper-data="{&quot;index&quot;:null}"/><path d="M242.54302,92.92864l7.93848,3.40638" data-paper-data="{&quot;index&quot;:null}"/><path d="M241.10092,87.41547l9.24947,4.16514" data-paper-data="{&quot;index&quot;:null}"/><path d="M240.51097,82.66106l10.16718,4.21358" data-paper-data="{&quot;index&quot;:null}"/></g></g></g></g></svg>