<svg version="1.1" xmlns="http://www.w3.org/2000/svg" xmlns:xlink="http://www.w3.org/1999/xlink" width="197.98772" height="179.72181" viewBox="0,0,197.98772,179.72181"><defs><linearGradient x1="241.77942" y1="4.06733" x2="241.77942" y2="261.17258" gradientUnits="userSpaceOnUse" id="color-1"><stop offset="0" stop-color="#000000"/><stop offset="1" stop-color="#000000" stop-opacity="0"/></linearGradient></defs><g transform="translate(-145.52832,-41.47499)"><g data-paper-data="{&quot;isPaintingLayer&quot;:true}" fill-rule="nonzero" stroke-linecap="butt" stroke-linejoin="miter" stroke-miterlimit="10" stroke-dasharray="" stroke-dashoffset="0" style="mix-blend-mode: normal"><path d="M296.83298,178.58215c0.09545,2.70468 -8.58563,10.16516 -53.80589,10.16516c-45.22026,0 -57.8457,-6.36838 -57.86083,-10.72226c-0.01307,-3.75893 11.70481,-8.77237 56.92507,-8.77237c45.22026,0 54.65432,6.85543 54.74165,9.32947z" fill="url(#color-1)" stroke="none" stroke-width="0"/><text transform="translate(195.93676,86.79709) scale(0.41166,0.41166)" font-size="40" xml:space="preserve" fill="#000000" fill-rule="nonzero" stroke="#000000" stroke-width="1" stroke-linecap="butt" stroke-linejoin="miter" stroke-miterlimit="10" stroke-dasharray="" stroke-dashoffset="0" font-family="Handwriting" font-weight="normal" text-anchor="start" style="mix-blend-mode: normal"></text><text transform="translate(218.9613,213.37425) scale(0.46015,0.46015)" font-size="40" xml:space="preserve" fill="#000000" fill-rule="nonzero" stroke="#000000" stroke-width="1" stroke-linecap="butt" stroke-linejoin="miter" stroke-miterlimit="10" stroke-dasharray="" stroke-dashoffset="0" font-family="Handwriting" font-weight="normal" text-anchor="start" style="mix-blend-mode: normal"></text><text transform="translate(145.77767,60.42521) scale(0.49869,0.49869)" font-size="40" xml:space="preserve" fill="#000000" fill-rule="nonzero" stroke="#000000" stroke-width="1" stroke-linecap="butt" stroke-linejoin="miter" stroke-miterlimit="10" stroke-dasharray="" stroke-dashoffset="0" font-family="Handwriting" font-weight="normal" text-anchor="start" style="mix-blend-mode: normal"></text><g stroke="none" stroke-width="1"><g><path d="M288.84484,132.71358c0.84717,0.62251 -5.08302,7.78137 -18.74366,9.88233c-1.05897,0.23344 -2.22382,0.38907 -3.38869,0.62251c-0.1059,2.41222 -1.69434,5.05789 -3.071,6.84761c-3.60048,4.66882 -9.42477,6.92541 -14.61369,10.2714c1.58845,-1.40064 3.60047,-2.72348 5.08302,-4.27975c3.49458,-3.57943 4.12995,-7.70356 6.03609,-11.51643c-4.34175,0.77813 -8.7894,1.40064 -12.70756,1.08939c-1.80023,-0.15563 -4.02407,-0.23343 -4.02407,-0.23343c0,0 -1.90614,5.21352 -2.54152,6.45854c-2.01203,3.89068 -5.50661,7.23667 -9.74247,9.96015c-0.63538,-1.08939 0.63538,-2.41222 1.05897,-3.50161c1.69434,-3.89068 3.70637,-9.18202 2.9651,-13.30615c0,0 -5.29482,-2.17879 -8.25992,-4.27975c-2.9651,-2.10097 -4.44765,-4.12413 -5.82431,-3.81287c-3.17689,0.62251 -6.24788,1.55627 -9.31887,2.41223c-8.8953,2.56785 -16.83753,6.61416 -26.57999,6.8476c2.11793,-2.64566 7.51864,-4.27975 11.01323,-5.75821c4.34176,-1.86754 9.74247,-2.87911 13.87242,-5.0579c7.62454,-4.04631 -12.81346,-7.00323 -15.24908,-7.23667c-5.08302,-0.46688 -10.37784,-2.33441 -14.93139,-4.27976c-1.48255,-0.62251 -6.14199,-1.32283 -6.14199,-1.32283c0,0 11.96629,0.15563 13.44884,0.5447c5.6125,0.93376 11.43681,2.33441 17.04931,3.19036c8.04812,1.16721 17.5788,-0.38907 17.5788,-0.38907c2.32972,-2.64566 10.58964,-5.13571 10.58964,-5.13571c-2.43562,-4.591 -6.45967,-7.08105 -13.44884,-10.34923c-2.8592,-1.40064 -15.67266,-5.99166 -15.67266,-5.99166c2.75331,-1.24501 6.14199,-1.01158 9.00119,-0.93377c2.75331,0.07781 6.67147,1.24502 9.21299,2.02316c4.55354,1.47847 9.63657,3.9685 13.44884,6.2251c1.80023,1.08939 3.28279,2.2566 4.76534,3.57943c0.84717,0.85595 3.49458,3.34599 3.49458,3.34599l10.48374,0.93377c0,0 -10.37784,-8.79295 -19.90852,-13.85084c3.17689,-1.32283 10.69554,1.71191 13.55474,2.95692c3.91817,1.71191 6.88327,4.20194 9.84836,6.69197c1.37665,1.08939 4.55355,3.73506 4.55355,3.73506c0,0 5.9302,1.1672 8.25992,1.94534c3.60048,1.1672 6.88326,3.11255 10.37784,4.51319c2.43562,0.93376 5.29483,2.02315 6.67148,3.89069c0.84717,1.1672 1.37665,1.32284 0.42359,2.2566c-1.05897,0.85595 0.52948,0.38906 1.37665,1.01157z" fill="#f7e37c"/><path d="M237.80278,121.27497c0,0 0,0.07781 -0.1059,0.15563c-1.27076,1.24501 -13.23705,2.49005 -13.02526,2.41223c3.38869,-1.78972 7.94223,-3.19036 7.94223,-3.19036c-0.21179,-0.31126 -0.31769,-0.62251 -0.52948,-0.93377c-2.75331,1.24501 -5.50661,2.2566 -8.57761,2.87911c0,-0.15563 -0.1059,-0.38907 -0.2118,-0.5447c1.58845,-0.23344 3.17689,-0.6225 4.65944,-1.1672c1.27076,-0.5447 2.54151,-1.08939 3.81227,-1.71191c-0.31769,-0.38907 -0.52948,-0.70033 -0.84717,-1.0894c-2.75331,1.01157 -5.40072,2.10097 -8.25992,2.80129c-0.1059,-0.23344 -0.21179,-0.38907 -0.31768,-0.62251c2.75331,-0.70033 5.40071,-1.71191 8.04812,-2.72348c-0.42359,-0.46688 -0.84716,-0.93376 -1.37665,-1.40064c-0.74127,0.23344 -1.37665,0.38907 -1.80024,0.5447c-2.01203,0.62251 -4.02407,1.1672 -6.03609,1.63408c-0.21179,-0.23344 -0.31769,-0.38907 -0.42359,-0.62251c1.80023,-0.38907 3.70637,-0.85595 5.50661,-1.47846c0.42359,-0.15563 1.16487,-0.38907 1.90614,-0.62251c-0.31769,-0.23344 -0.63538,-0.46688 -0.95307,-0.70033c-2.6474,0.31126 -5.29482,0.46688 -7.94223,0.77814c-0.21179,-0.23344 -0.31769,-0.46688 -0.52948,-0.62251c2.54152,-0.31126 5.08302,-0.46687 7.62454,-0.77813c-0.52948,-0.38907 -1.05896,-0.70033 -1.69434,-1.0894c-2.54152,0.31126 -5.08302,0.46688 -7.62454,0.38907c-0.21179,-0.23344 -0.52948,-0.46687 -0.74127,-0.70032c2.43562,0.07781 4.87124,0 7.30686,-0.23344c-0.84717,-0.5447 -1.90614,-1.01157 -2.9651,-1.55627c-2.01203,0 -4.12996,0 -6.24789,-0.15563c-0.31769,-0.23344 -0.52948,-0.46688 -0.74127,-0.70033c0,-0.07781 0.1059,-0.07781 0.21179,-0.07781c1.80023,0.15563 3.49459,0.15563 5.29482,0.15563c-0.1059,0 -0.1059,-0.07782 -0.2118,-0.07782c-0.52948,-0.15563 -1.27075,-0.46687 -2.11793,-0.85594c-1.48255,-0.07781 -2.9651,-0.15563 -4.44765,-0.23344c-0.21179,-0.23344 -0.52948,-0.46688 -0.84717,-0.70033c1.16486,0 2.22382,0.0778 3.28278,0.15563c-2.01203,-0.77814 -9.42478,-4.20193 -9.63657,-4.27975c-0.1059,-0.07781 4.76534,-1.01158 4.76534,-1.01158c2.9651,0 5.6125,0.5447 8.25992,1.40065c1.48255,0.46688 14.08422,6.84761 17.89649,13.38396c0.84717,1.32283 1.69434,2.72348 1.69434,3.19036z" fill="#f7e37c"/><path d="M238.22637,136.13738c3.81227,6.53635 0.95307,14.62898 0.42359,15.64056c-1.05897,1.94535 -8.15402,10.34922 -8.15402,10.34922c0,-0.15563 1.80024,-6.45854 2.43562,-8.01481c-0.63538,0.62251 -1.37665,1.24502 -2.01203,1.86754c0,-0.31126 -0.1059,-0.62251 -0.1059,-0.93377c0.95307,-0.85595 1.90614,-1.7119 2.85921,-2.56785c0.31769,-0.70032 0.42358,-1.32283 0.52948,-1.7119c0,-0.07781 0,-0.07781 0,-0.15563c-1.16486,0.93376 -2.32972,1.86754 -3.49459,2.87911c-0.1059,0.07781 -0.1059,0.07781 -0.21179,0.07781c-0.1059,-0.31126 -0.1059,-0.5447 -0.2118,-0.85595c1.27076,-1.1672 2.75331,-2.33441 4.23586,-3.4238c0.21179,-0.93376 0.42358,-1.78972 0.52948,-2.64567c-1.90614,1.08939 -3.70637,2.33442 -5.29482,3.73506c-0.1059,-0.31126 -0.1059,-0.62251 -0.21179,-0.93377c1.69434,-1.40064 3.60047,-2.64566 5.6125,-3.73506c0.1059,-0.5447 0.1059,-1.08939 0.1059,-1.63408c-2.11793,1.08939 -4.02407,2.41223 -6.03609,3.57943c-0.1059,-0.23344 -0.1059,-0.46688 -0.2118,-0.70033c2.11793,-1.24501 4.12996,-2.49004 6.24789,-3.65724c0,-0.31126 0,-0.70033 0,-1.01158c-0.74127,0.23344 -1.48255,0.46688 -1.90613,0.62251c-1.90614,0.5447 -3.60048,1.16721 -5.29482,1.94535c-0.1059,-0.23344 -0.21179,-0.38907 -0.31768,-0.62251c1.80023,-0.77813 3.70637,-1.47846 5.8243,-2.02316c0.42359,-0.15563 1.05897,-0.31125 1.80024,-0.54469c-0.1059,-0.5447 -0.21179,-1.1672 -0.42359,-1.71191c-2.8592,0.70032 -5.6125,1.40064 -8.25992,2.41222c-0.1059,-0.23344 -0.21179,-0.38906 -0.42359,-0.6225c2.75331,-1.01157 5.6125,-1.71191 8.4717,-2.41223c-0.1059,-0.38907 -0.31769,-0.77813 -0.52948,-1.24501c-1.48255,0.23344 -2.8592,0.46688 -4.34175,0.85595c-1.58845,0.38907 -3.071,1.01157 -4.44765,1.63408c-0.1059,-0.15563 -0.2118,-0.31126 -0.31769,-0.46688c2.75331,-1.24501 5.6125,-1.94535 8.7894,-2.56786c-0.21179,-0.31126 -0.31768,-0.6225 -0.52948,-0.93376c0,0 -4.55354,1.47847 -8.57761,2.02316c-0.21179,0.07781 9.31887,-5.44697 11.33091,-5.29134c0.1059,0 0.2118,0.00001 0.31769,0.07782c0.31769,-0.07781 1.16486,1.32283 1.80023,2.72348z" fill="#f7e37c"/><path d="M264.91226,138.54961c0.63538,1.55627 1.37665,3.11255 2.01203,4.66882c0,0.07781 -0.1059,0.07781 -0.2118,0.07781c-0.1059,2.41222 -1.69434,5.05789 -3.071,6.8476c-3.60048,4.66882 -9.42477,6.92542 -14.61369,10.27141c1.58845,-1.40064 3.60047,-2.72348 5.08302,-4.27975c0.31768,-0.31126 0.52948,-0.70032 0.84717,-1.01157c3.38869,-2.87911 5.82431,-5.75821 6.77738,-9.18202c0.21179,-0.70032 0.31768,-0.77813 0.21179,-1.32283c-0.1059,-0.62251 -0.52948,-1.24501 -0.74127,-1.78972c-0.84717,-2.02316 -1.69434,-4.04631 -2.43562,-6.06947c-1.58845,-4.43538 -2.11793,-8.87076 -2.32972,-13.46177c0,-1.01157 -0.10589,-1.94535 -0.10589,-2.87911c0,-0.23344 0.21179,0.15563 -0.52949,-0.93377c-3.49459,-5.0579 -15.67266,-13.77302 -21.92055,-13.85084c3.17689,-1.32283 10.69554,1.71191 13.55474,2.95692c3.91817,1.71191 6.88327,4.20194 9.84836,6.69197c0.84717,0.77814 2.54152,2.17878 3.60048,3.03473c0,0.07781 0.10589,0.15563 0.10589,0.23344c0.84717,1.47847 0.42359,3.57943 0.52949,5.1357c0.31768,5.13571 1.27076,9.88234 3.38869,14.86242z" fill="#3e3d44"/><path d="M213.6584,131.15731c0.1059,0 0.2118,0 0.31769,0c1.69434,0 1.69434,1.94535 0,1.94535c-0.1059,0 -0.2118,0 -0.31769,0c-1.69434,0 -1.69434,-1.94535 0,-1.94535z" fill="#ffffff"/><path d="M220.11809,131.54638c1.69434,0 1.69434,1.94534 0,1.94534c-1.69434,0 -1.69434,-1.86753 0,-1.94534z" fill="#ffffff"/><path d="M239.81482,142.59592c0.63538,1.86754 1.05897,2.80129 0.52948,4.74663c-1.05897,3.65724 -2.32972,7.31449 -4.23586,10.7383c-1.48255,1.32283 -3.071,2.56785 -4.87123,3.73505c-0.63538,-1.08939 0.63538,-2.41222 1.05897,-3.50161c1.48255,-3.57943 3.38869,-8.40389 3.071,-12.37238c0,-0.07781 0.1059,-0.15563 0.1059,-0.15563c0,-0.07781 -0.1059,-0.15562 -0.1059,-0.31125c-0.1059,0 -0.1059,-0.07781 -0.1059,-0.15563c0,-0.07781 0,-0.23344 0,-0.31126h-0.1059c-0.42359,-1.24501 -0.84717,-2.41222 -1.16486,-3.65724c-1.69434,-6.45854 -2.22382,-13.85084 0.95307,-20.15376c-5.18892,-7.70355 -18.74366,-16.26306 -31.34533,-17.0412c2.6474,-1.08939 5.9302,-0.85595 8.6835,-0.77814c0.63538,0 1.48255,0.07781 2.22382,0.23344c4.12995,0.77814 8.15402,2.17878 11.75449,4.04631c3.17689,1.63408 6.03609,3.50162 8.47171,5.83603c1.37665,1.32283 2.54152,2.72348 3.60047,4.20194c0.74127,1.1672 2.11793,2.64566 1.80024,3.9685c-0.21179,1.08939 -0.95307,2.17879 -1.27076,3.26818c-0.95307,2.87911 -1.16486,5.83603 -1.05897,8.79295c0.21179,2.95692 0.84717,5.91384 2.01203,8.87076z" fill="#3e3d44"/><path d="M189.40813,145.39721c0.1059,-0.31126 0.2118,-0.54469 0.31769,-0.77813v0c0.42359,-0.85595 1.05897,-1.55628 1.90614,-2.25661v0c0.42359,-0.31126 0.84716,-0.6225 1.27075,-0.93376c0.31769,-0.07781 0.63538,-0.15563 1.05897,-0.15563c0.84717,-0.31126 1.58845,-0.6225 2.32972,-0.93376c1.05897,-0.38907 2.11793,-0.77813 3.17689,-1.1672c-1.05897,0.07781 -2.11793,0.15563 -3.17689,0.15563c0.31769,-0.23344 0.63538,-0.46688 0.95307,-0.70033c1.69434,-0.07781 3.49458,-0.15563 5.18892,-0.38907c2.11793,-0.62251 4.34176,-1.32283 6.24789,-2.17878c-3.28278,0.38907 -6.45968,0.6225 -9.74247,0.77813c0.1059,-0.23344 0.2118,-0.46687 0.31769,-0.70032c3.81227,-0.15563 7.51864,-0.46688 11.22502,-0.93376c0.74127,-0.46688 1.16487,-0.93376 1.27076,-1.40064c-4.23585,0.62251 -8.47171,0.77814 -12.70757,0.23344c-0.1059,-0.31126 -0.21179,-0.5447 -0.42359,-0.77814c4.34176,0.62251 8.6835,0.46688 13.02526,-0.15563c-0.21179,-0.46688 -0.84717,-0.93376 -1.69434,-1.40064c-4.02407,0.31126 -7.94223,0.62251 -11.96629,0.85595c-0.21179,-0.15563 -0.52948,-0.38907 -0.74127,-0.62251c3.70637,-0.23344 7.51864,-0.46688 11.22502,-0.77814c-1.05897,-0.38907 -2.32972,-0.77814 -3.60048,-1.0894c-0.52948,0.07781 -1.16486,0.15563 -1.80023,0.23344c-2.54152,0.23344 -5.08302,0.31126 -7.62454,0.31126c-0.42359,-0.23344 -0.84717,-0.46688 -1.27076,-0.70033c2.9651,0.07781 5.93021,0 8.7894,-0.31126c-1.69434,-0.38907 -3.38868,-0.70032 -4.87123,-0.93376c-0.63538,0.07781 -1.37665,0.15563 -2.01203,0.23344c-1.16486,0.07781 -2.32972,0.15563 -3.49459,0.15563c-0.42359,-0.23344 -0.95307,-0.38907 -1.37665,-0.62251c1.16486,0 3.70638,-0.23344 3.60048,-0.23344c-1.69434,-0.15563 -3.38869,-0.46688 -5.08303,-0.85595c-0.52948,0 -0.95307,-0.07781 -1.48255,-0.07781c-0.63538,-0.23344 -1.37665,-0.5447 -2.11793,-0.77814c0.21179,0 -2.32972,-1.01157 -3.81227,-1.55627l8.4717,1.08939l7.94223,1.01158c0,0 22.97951,1.63409 22.97951,5.52477c0,3.96849 -28.06254,12.91708 -32.29839,12.83926z" fill="#f7e37c"/><path d="M211.75227,139.48337c-1.37665,0.38907 -2.7533,0.77814 -4.12995,1.24502c-0.95307,0.23344 -1.80024,0.38906 -2.32972,0.6225c-2.8592,1.01157 -5.7184,2.02316 -8.5776,2.95692c-3.70637,1.08939 -7.51864,1.86754 -11.64861,1.94535c0.52948,-0.5447 1.05897,-1.08939 1.80023,-1.55627c6.67147,-1.78972 12.17809,-4.66882 19.16725,-7.08104c5.29482,-1.78972 10.90733,-3.11255 15.99036,-0.46688c-0.31769,-0.15563 -0.74127,-0.23344 -1.05897,-0.15563c-3.17689,0.62251 -6.24789,1.55627 -9.21299,2.49004z" fill="#3e3d44"/><path d="M204.55131,128.2782c-11.01323,-1.01157 -19.80263,-4.98007 -30.81585,-5.75821c0,0 11.96629,0.15562 13.44884,0.38906c5.6125,0.93376 11.43681,2.33441 17.04931,3.19036c6.77737,0.93376 15.03729,0.00001 17.4729,-0.31126c-0.84717,1.7119 -2.6474,2.49004 -5.40071,2.64566c-3.81227,0.23344 -8.04812,0.15563 -11.75449,-0.15563z" fill="#3e3d44"/></g><g fill="#ffffff"><path d="M242.14454,123.765c1.69434,0 1.69434,1.94535 0,1.94535c-1.69434,0 -1.69434,-1.94535 0,-1.94535z"/><path d="M246.27449,121.43059c1.69434,0 1.69434,1.94534 0,1.94534c-1.69434,0 -1.69434,-1.94534 0,-1.94534z"/><path d="M248.07473,125.24347c1.69434,0 1.69434,1.94534 0,1.94534c-1.69434,0 -1.69434,-1.86753 0,-1.94534z"/><path d="M245.95681,132.63577c1.69434,0 1.69434,1.94534 0,1.94534c-1.69434,0 -1.69434,-1.86753 0,-1.94534z"/><path d="M242.77991,128.58945c1.69434,0 1.69434,1.94534 0,1.94534c-1.69434,0 -1.69434,-1.86753 0,-1.94534z"/><path d="M242.14454,136.7599c1.69434,0 1.69434,1.94535 0,1.94535c-1.69434,0 -1.69434,-1.94535 0,-1.94535z"/><path d="M248.39242,139.79463c1.69434,0 1.69434,1.94535 0,1.94535c-1.69434,0 -1.69434,-1.86754 0,-1.94535z"/><path d="M253.05186,133.64735c1.69434,0 1.69434,1.94535 0,1.94535c-1.69434,0 -1.69434,-1.86754 0,-1.94535z"/><path d="M253.05186,129.21196c1.69434,0 1.69434,1.94535 0,1.94535c-1.69434,0 -1.69434,-1.94535 0,-1.94535z"/><path d="M254.7462,139.79463c1.69434,0 1.69434,1.94535 0,1.94535c-1.69434,0 -1.69434,-1.86754 0,-1.94535z"/><path d="M270.41887,136.7599c1.69434,0 1.69434,1.94535 0,1.94535c-1.69434,0 -1.69434,-1.94535 0,-1.94535z"/><path d="M225.41291,130.37917c1.69434,0 1.69434,1.94535 0,1.94535c-1.58845,0 -1.58845,-1.94535 0,-1.94535z"/><path d="M230.28414,139.17212c1.69434,0 1.69434,1.94535 0,1.94535c-1.69434,0 -1.69434,-1.94535 0,-1.94535z"/><path d="M232.50796,144.46345c1.69434,0 1.69434,1.94535 0,1.94535c-1.69434,0 -1.69434,-1.86754 0,-1.94535z"/><path d="M232.50796,147.65381c1.69434,0 1.69434,1.94534 0,1.94534c-1.69434,0 -1.69434,-1.94534 0,-1.94534z"/><path d="M225.41291,126.25504c1.69434,0 1.69434,1.94535 0,1.94535c-1.58845,0 -1.58845,-1.94535 0,-1.94535z"/><path d="M227.84853,135.43706c1.69434,0 1.69434,1.94535 0,1.94535c-1.58845,0 -1.58845,-1.86754 0,-1.94535z"/><path d="M231.02541,123.765c1.69434,0 1.69434,1.94535 0,1.94535c-1.69434,0 -1.69434,-1.94535 0,-1.94535z"/><path d="M228.16621,117.77335c1.69434,0 1.69434,1.94535 0,1.94535c-1.69434,0 -1.69434,-1.86754 0,-1.94535z"/><path d="M224.45984,113.26016c1.69434,0 1.69434,1.94535 0,1.94535c-1.69434,0 -1.69434,-1.94535 0,-1.94535z"/><path d="M230.28414,130.14573c1.69434,0 1.69434,1.94534 0,1.94534c-1.69434,0 -1.69434,-1.94534 0,-1.94534z"/></g><g><path d="M265.01792,116.56554c2.93957,-3.07954 7.55888,-2.79958 11.05836,-1.11983c0.83988,0.41993 0.13999,1.67974 -0.69988,1.25981c-2.93957,-1.39978 -6.99896,-1.67975 -9.37861,0.83987c-0.55992,0.55992 -1.53978,-0.41993 -0.97986,-0.97986z" fill="#030000"/><g><path d="M266.55769,127.90385c-1.53977,-6.29906 4.61931,-9.3786 8.67871,-7.97881c5.31921,1.67976 4.47933,8.25877 0.55992,10.7784c-4.7593,3.07954 -8.81869,-1.25981 -9.23862,-2.79959z" fill="#ffffff"/><path d="M277.05613,128.74373c-1.81973,1.39979 -3.49948,0.69989 -4.7593,-0.27996c1.11984,-0.83988 1.25981,-2.6596 -0.27996,-3.21952c-0.41994,-0.13998 -0.97986,-0.13998 -1.3998,0c-0.27996,-3.3595 2.09969,-5.87913 5.73915,-4.7593c3.21952,0.97985 3.07954,6.43905 0.6999,8.25878z" fill="#3f669e"/><path d="M273.83661,125.66419c-0.6999,-3.21953 2.09968,-4.89927 3.77944,-4.19938c2.37964,0.83988 1.95972,4.33935 0.27996,5.59917c-2.09969,1.67976 -3.91942,-0.55992 -4.0594,-1.39979z" fill="#030000"/><path d="M273.83661,132.10323c-3.07954,0.83988 -6.99896,-1.11983 -7.97881,-4.19939c-0.6999,-3.63947 0.69989,-7.13894 4.33935,-8.53873c3.21952,-1.25981 7.55889,-0.41994 8.95868,3.07954c1.67976,3.91942 -1.25981,8.81869 -5.31922,9.65857zM277.61605,122.58465c-1.53977,-2.51962 -5.03925,-2.65961 -7.4189,-1.53977c-2.6596,1.25982 -3.63946,3.91943 -3.07954,6.71901c0.83988,2.37965 4.0594,3.77944 6.29907,3.21952c3.3595,-0.83988 6.0191,-5.31922 4.19937,-8.39876z" fill="#030000"/></g></g></g></g></g></svg>