<svg version="1.1" xmlns="http://www.w3.org/2000/svg" xmlns:xlink="http://www.w3.org/1999/xlink" width="157.13463" height="157.78815" viewBox="0,0,157.13463,157.78815"><defs><linearGradient x1="285.59674" y1="-2.59192" x2="285.59674" y2="264.30056" gradientUnits="userSpaceOnUse" id="color-1"><stop offset="0" stop-color="#000000"/><stop offset="1" stop-color="#000000" stop-opacity="0"/></linearGradient></defs><g transform="translate(-205.93268,-50.43607)"><g data-paper-data="{&quot;isPaintingLayer&quot;:true}" fill-rule="nonzero" stroke-linecap="butt" stroke-linejoin="miter" stroke-miterlimit="10" stroke-dasharray="" stroke-dashoffset="0" style="mix-blend-mode: normal"><path d="M363.06623,178.56624c0.13431,2.80764 -12.08138,10.55213 -75.71379,10.55213c-63.63241,0 -81.39846,-6.61079 -81.41974,-11.13043c-0.01839,-3.90204 16.47059,-9.10631 80.10295,-9.10631c63.63241,0 76.90767,7.11639 77.03056,9.68461z" fill="url(#color-1)" stroke="none" stroke-width="0"/><text transform="translate(270.62801,202.853) scale(0.32067,0.32067)" font-size="40" xml:space="preserve" fill="#000000" fill-rule="nonzero" stroke="#000000" stroke-width="0.5" stroke-linecap="butt" stroke-linejoin="miter" stroke-miterlimit="10" stroke-dasharray="" stroke-dashoffset="0" font-family="Handwriting" font-weight="normal" text-anchor="start" style="mix-blend-mode: normal"></text><text transform="translate(208.65493,61.94855) scale(0.30296,0.30296)" font-size="40" xml:space="preserve" fill="#000000" fill-rule="nonzero" stroke="#000000" stroke-width="1" stroke-linecap="butt" stroke-linejoin="miter" stroke-miterlimit="10" stroke-dasharray="" stroke-dashoffset="0" font-family="Handwriting" font-weight="normal" text-anchor="start" style="mix-blend-mode: normal"></text><g stroke="none" stroke-width="0"><path d="M211.5,179.33333l47.84036,-66.44494l-1.86144,-1.97024l26.02107,-31.58482l26.55767,31.745l-1.45209,2.648l47.56109,65.607z" fill="#fff267"/><path d="M211.16666,179.83333l47.30887,-65.48162l-1.40007,-3.18305l26.50787,-31.33533l-10.15347,29.32166l16.54705,8.78813l8.12819,-7.9418l11.93424,0.89737l-0.89211,3.20631l-10.03144,-0.73832l-8.18024,7.42398l-18.55446,-6.3246l-19.88109,65.36727z" fill="#cca43e"/></g></g></g></svg>