<svg version="1.1" xmlns="http://www.w3.org/2000/svg" xmlns:xlink="http://www.w3.org/1999/xlink" width="117.97452" height="181.88326" viewBox="0,0,117.97452,181.88326"><defs><linearGradient x1="240.4772" y1="86.23727" x2="240.4772" y2="224.0439" gradientUnits="userSpaceOnUse" id="color-1"><stop offset="0" stop-color="#000000"/><stop offset="1" stop-color="#000000" stop-opacity="0"/></linearGradient></defs><g transform="translate(-185.21927,-24.69254)"><g data-paper-data="{&quot;isPaintingLayer&quot;:true}" fill-rule="nonzero" stroke-linecap="butt" stroke-linejoin="miter" stroke-miterlimit="10" stroke-dasharray="" stroke-dashoffset="0" style="mix-blend-mode: normal"><path d="M274.18444,179.77605c0.05844,1.44969 -5.25665,5.44846 -32.94333,5.44846c-27.68668,0 -35.41675,-3.4134 -35.42601,-5.74706c-0.008,-2.01477 7.16641,-4.70193 34.85307,-4.70193c27.68668,0 33.46279,3.67446 33.51626,5.00053z" fill="url(#color-1)" stroke="none" stroke-width="0"/><text transform="translate(228.12801,201.72802) scale(0.28942,0.28942)" font-size="40" xml:space="preserve" fill="#000000" fill-rule="nonzero" stroke="#000000" stroke-width="0.5" stroke-linecap="butt" stroke-linejoin="miter" stroke-miterlimit="10" stroke-dasharray="" stroke-dashoffset="0" font-family="Handwriting" font-weight="normal" text-anchor="start" style="mix-blend-mode: normal"></text><path d="M193.80496,85.44954l0.21983,-11.84759l12.74327,5.11937l12.20548,-5.3064l13.08117,8.46272l14.39521,-0.1938l10.67841,-9.007l13.60812,6.00092l11.77216,-5.67194l0.32638,12.66356z" fill="#6bb300" stroke="none" stroke-width="0"/><path d="M193.75,178.43645v-103.53861l12.20041,5.93533l13.1911,-5.42076l10.55236,5.01891l18.13463,-0.0526l9.4355,-5.89369l12.98402,5.07888l12.20225,-4.66608v103.53862z" fill="#e47344" stroke="none" stroke-width="0"/><path d="M193.75,178.27158v-103.20887l11.21119,87.05157l24.40082,16.1573z" fill="#cc3814" stroke="none" stroke-width="0"/><path d="M223.75642,178.27158l30.43828,-62.67924l-6.69694,-35.25378l9.56248,-5.93533l8.79531,38.92862l1.09691,65.26948z" fill="#cc3814" stroke="none" stroke-width="0"/><path d="M209.9073,107.3773l-3.95689,-26.70901l12.53015,-4.94611l0.32974,37.92019z" fill="#cc3814" stroke="none" stroke-width="0"/><path d="M270.24987,79.67907l12.85989,-5.27586l-0.65949,56.38568z" fill="#cc3814" stroke="none" stroke-width="0"/><path d="M231.01071,178.60132v-98.26276c0,0 4.77881,-1.31896 7.2543,-1.31896c2.76769,0 8.57326,1.31896 8.57326,1.31896v98.26276z" fill="#e6ffff" stroke="none" stroke-width="0"/><path d="M224.74564,153.21128v-17.47626h10.88145v17.47626z" fill="#ffffff" stroke="none" stroke-width="0"/><path d="M244.20035,164.42245v-15.16807h9.89222v15.16807z" fill="#ffffff" stroke="none" stroke-width="0"/><path d="M224.74564,180.25002v-9.23274h29.34694v9.23274z" fill="#ffffff" stroke="none" stroke-width="0"/><path d="M215.34803,166.12612v-9.23274h7.91377v9.23274z" fill="#ffffff" stroke="none" stroke-width="0"/><path d="M253.37813,142.38476v-7.2543h4.61637v7.2543z" fill="#ffffff" stroke="none" stroke-width="0"/><path d="M257.9945,175.13903v-6.59482h5.49568v6.59482z" fill="#ffffff" stroke="none" stroke-width="0"/><text transform="translate(185.37075,36.20502) scale(0.30296,0.30296)" font-size="40" xml:space="preserve" fill="#000000" fill-rule="nonzero" stroke="#000000" stroke-width="1" stroke-linecap="butt" stroke-linejoin="miter" stroke-miterlimit="10" stroke-dasharray="" stroke-dashoffset="0" font-family="Handwriting" font-weight="normal" text-anchor="start" style="mix-blend-mode: normal"></text><text transform="translate(200.70238,55.49149) scale(0.28998,0.28998)" font-size="40" xml:space="preserve" fill="#000000" fill-rule="nonzero" stroke="#000000" stroke-width="1" stroke-linecap="butt" stroke-linejoin="miter" stroke-miterlimit="10" stroke-dasharray="" stroke-dashoffset="0" font-family="Handwriting" font-weight="normal" text-anchor="start" style="mix-blend-mode: normal"></text></g></g></svg>