<svg version="1.1" xmlns="http://www.w3.org/2000/svg" xmlns:xlink="http://www.w3.org/1999/xlink" width="109.7161" height="158.53831" viewBox="0,0,109.7161,158.53831"><defs><linearGradient x1="246.53637" y1="51.09376" x2="246.53637" y2="240.05834" gradientUnits="userSpaceOnUse" id="color-1"><stop offset="0" stop-color="#000000"/><stop offset="1" stop-color="#000000" stop-opacity="0"/></linearGradient><radialGradient cx="279.45689" cy="129.2912" r="49.06667" gradientUnits="userSpaceOnUse" id="color-2"><stop offset="0" stop-color="#ff80cb"/><stop offset="1" stop-color="#ff0097"/></radialGradient></defs><g transform="translate(-186.45139,-53.65849)"><g data-paper-data="{&quot;isPaintingLayer&quot;:true}" fill-rule="nonzero" stroke-miterlimit="10" stroke-dasharray="" stroke-dashoffset="0" style="mix-blend-mode: normal"><path d="M296.16679,179.35687c0.08605,1.98786 -7.73989,7.47108 -48.50565,7.47108c-40.76576,0 -52.14751,-4.68056 -52.16115,-7.88054c-0.01178,-2.7627 10.55181,-6.44742 51.31757,-6.44742c40.76576,0 49.27051,5.03854 49.34923,6.85688z" fill="url(#color-1)" stroke="none" stroke-width="0" stroke-linecap="butt" stroke-linejoin="miter"/><path d="M270.02099,178.35787v-98.13333h18.8718v98.13333z" fill="url(#color-2)" stroke="#000000" stroke-width="2" stroke-linecap="butt" stroke-linejoin="miter"/><g fill="none" stroke="#000000" stroke-width="2" stroke-linecap="round" stroke-linejoin="miter"><path d="M287.94004,85.67215h-7.71429"/><path d="M283.79718,93.81501h4"/><path d="M283.94004,109.81501h4.14286"/><path d="M287.79718,117.67215h-7.57143"/><path d="M283.94004,125.5293h4.14286"/><path d="M280.36861,133.67215h7.85714"/><path d="M287.79718,141.5293h-3.85714"/><path d="M287.94004,101.52929h-8"/><path d="M288.0829,149.67215h-7.71429"/><path d="M283.94004,157.38644h4.14286"/><path d="M288.0829,165.5293h-8.14286"/><path d="M283.94004,173.67215h4"/></g><text transform="translate(195.53566,71.37426) scale(0.46015,0.46015)" font-size="40" xml:space="preserve" fill="#ffffff" fill-rule="nonzero" stroke="#ffffff" stroke-width="2" stroke-linecap="butt" stroke-linejoin="miter" stroke-miterlimit="10" stroke-dasharray="" stroke-dashoffset="0" font-family="Handwriting" font-weight="normal" text-anchor="start" style="mix-blend-mode: normal"></text><text transform="translate(225.9613,204.37425) scale(0.46015,0.46015)" font-size="40" xml:space="preserve" fill="#ffffff" fill-rule="nonzero" stroke="#ffffff" stroke-width="1" stroke-linecap="butt" stroke-linejoin="miter" stroke-miterlimit="10" stroke-dasharray="" stroke-dashoffset="0" font-family="Handwriting" font-weight="normal" text-anchor="start" style="mix-blend-mode: normal"></text><g><path d="M233.73505,166.3197v0v0v0v0v0c-0.17344,1.28578 -0.898,3.65055 -1.405,4.26346c0,0 -2.09229,2.30797 -3.57665,1.47939c-0.63441,-0.35381 -0.91628,-0.97302 -0.92889,-1.78584c-0.27682,-0.09274 -0.66026,-0.2825 -0.8311,-0.69115c-0.28439,-0.67728 1.16151,-1.19563 1.16151,-1.19563v0.01324c0.06879,-0.21182 0.14128,-0.42308 0.22765,-0.64632c0.4925,-1.26119 1.57647,-2.97327 2.12445,-3.9292c0,0 0.45278,-0.84308 1.56954,-0.82039c1.18806,0.02396 1.83193,2.02666 1.65849,3.31244z" fill="#be1e2d" stroke="#231f20" stroke-width="0.78673" stroke-linecap="round" stroke-linejoin="round"/><path d="M243.41017,169.96836c-0.97302,-1.1143 -1.5708,-4.34478 -1.71075,-5.00504c-0.13939,-0.66019 0.24341,-2.15471 1.12054,-2.45675c0.87712,-0.30274 1.73415,0.55239 1.73415,0.55239c0.63939,0.89667 1.88734,2.4952 2.50403,3.69902c0.10724,0.21378 0.19991,0.41874 0.29069,0.62047l-0.00126,-0.01261c0,0 1.4901,0.37461 1.27443,1.07585c-0.1305,0.42434 -0.49061,0.6501 -0.75861,0.76932c0.06626,0.8103 -0.14941,1.45725 -0.74782,1.86969c-1.39365,0.97554 -3.7054,-1.11234 -3.7054,-1.11234v0v0v0v0z" fill="#be1e2d" stroke="#231f20" stroke-width="0.78673" stroke-linecap="round" stroke-linejoin="round"/><path d="M240.51073,170.93815c1.09154,-0.31717 2.43153,0 2.43153,0c0,0 0.59344,3.60572 0.775,4.91041c0.18226,1.30658 0.85828,3.3497 0.85828,3.3497c0,0 0.34113,0.20433 0.2453,0.7378c-0.09842,0.53221 -1.27002,0.6356 -2.73931,0.91502c-1.46678,0.27619 -2.66612,0.03972 -2.89692,-0.48493c-0.2327,-0.52213 0.20117,-0.76554 0.20117,-0.76554c0,0 0.68352,-4.30633 0.06115,-5.78824c0.00315,0.00315 -0.32789,-2.46999 1.0638,-2.87422v0v0v0v0z" fill="#be1e2d" stroke="#231f20" stroke-width="0.90025" stroke-linecap="round" stroke-linejoin="round"/><path d="M235.80591,171.34239v0v0v0v0v0c1.9674,0.90234 2.17677,2.71088 2.1774,2.71277c-0.38967,1.55504 0.85702,5.16769 0.85702,5.16769c0,0 0.46658,0.17154 0.32032,0.7233c-0.14885,0.55302 -1.2946,0.97302 -2.78975,0.92574c-1.49262,-0.04861 -2.66549,0.03026 -2.84523,-0.48241c-0.17974,-0.51267 0.12678,-0.76617 0.12678,-0.76617c0,0 0.03467,-1.23408 0.01135,-2.55327c-0.02466,-1.31541 -0.24026,-4.92617 -0.24026,-4.92617c0,0 1.09343,-1.39295 2.38236,-0.80147z" fill="#be1e2d" stroke="#231f20" stroke-width="0.90025" stroke-linecap="round" stroke-linejoin="round"/><g stroke-width="0.90025"><path d="M243.39441,166.31213v0v0v0v0v0c0.29069,1.96243 -0.17659,5.57634 -2.42523,6.8451c-2.22412,1.25236 -4.58315,1.0846 -7.02855,-0.58391c-2.0261,-1.38293 -1.97756,-5.33798 -1.76567,-7.55075v0c0,0 0.01387,-5.11908 4.32209,-5.74971c4.30689,-0.63056 6.30714,3.29738 6.64007,5.74782c0.10472,0.43135 0.19424,0.87152 0.25728,1.29145z" fill="#be1e2d" stroke="#000000" stroke-linecap="butt" stroke-linejoin="miter"/><path d="M242.20642,171.93576v0v0v0v0v0l-0.01072,0.10024c-0.33048,0.45656 -0.73654,0.84378 -1.22589,1.11998c-2.06014,1.16025 -4.23509,1.10225 -6.48814,-0.239l-0.02333,-0.10087c0,0 -1.1931,-6.51028 2.95744,-6.80097c4.71302,-0.32789 4.82026,4.83161 4.79063,5.92062z" fill="#e6e7e8" stroke="#231f20" stroke-linecap="round" stroke-linejoin="round"/></g><g stroke-width="0.90025"><g stroke="#000000" stroke-linecap="round" stroke-linejoin="round"><path d="M268.50327,145.40117l-0.37454,1.0846c-2.07779,5.47856 -5.03152,8.6315 -5.03152,8.6315c0,0 0.10598,-0.97806 0.04924,-2.54949l-0.09211,-0.03215c-0.26611,0.82732 -0.70313,1.89427 -1.42951,3.21227c-1.59293,2.8944 -6.27065,5.32088 -6.27065,5.32088c0,0 0.29076,-0.99508 0.47296,-2.62325l-0.06556,-0.24909c-0.507,0.39037 -1.03291,0.74915 -1.56449,1.09847c-0.15641,0.10346 -0.31276,0.20433 -0.47169,0.30204c-0.48367,0.30085 -0.97617,0.58776 -1.47876,0.85576c-0.19858,0.10465 -0.4048,0.2018 -0.60597,0.30204c-0.36697,0.18352 -0.73906,0.35689 -1.11675,0.52465c-0.27745,0.12167 -0.5568,0.24278 -0.84126,0.35563c-0.29448,0.11859 -0.59715,0.22513 -0.89793,0.33615c-0.55302,0.19795 -1.11423,0.38273 -1.68812,0.55302c-0.18723,0.05548 -0.37454,0.11095 -0.565,0.16265c-0.40921,0.11228 -0.82165,0.22198 -1.24158,0.31913l0.00126,0.00126c-2.10812,0.49124 -4.34478,0.81156 -6.73919,0.95908c-2.59047,0.15894 -4.93878,0.13309 -7.13194,-0.01954v0c-1.73541,-0.12167 -3.35979,-0.32978 -4.8978,-0.61102c-0.07439,-0.01324 -0.14948,-0.02711 -0.2245,-0.04035c-0.47548,-0.09022 -0.94339,-0.18604 -1.4024,-0.28943c-0.1602,-0.03726 -0.31346,-0.07761 -0.47296,-0.11607c-0.60983,-0.145 -1.20256,-0.30393 -1.7871,-0.47296c-0.3695,-0.10717 -0.73654,-0.21693 -1.09532,-0.33356c-0.21315,-0.06745 -0.42693,-0.13813 -0.63567,-0.20937c-0.57004,-0.19676 -1.13504,-0.3966 -1.68301,-0.61228l-0.09526,0.09141c0.20685,1.48128 0.71763,2.27834 1.12565,2.65792c0.83173,0.775 2.43279,0.95915 2.43279,0.95915c0,0 -4.89402,0.68485 -7.55888,-3.09368c-0.28313,-0.40165 -0.56878,-0.81786 -0.83993,-1.26119l-0.1167,-0.2535c-0.57887,-0.19354 -1.1653,-0.45082 -1.74423,-0.78193c-3.53,-2.03366 -3.97333,-3.711 -3.97333,-3.711l0.07376,0.6148c0.33994,1.60239 0.67161,2.61379 0.67161,2.61379c0,0 -4.22493,-2.67368 -6.10667,-6.68042c-1.51714,-3.23433 -1.63762,-5.19354 -1.64771,-5.52276l-0.14191,-1.17664c-0.09141,-4.60774 0.19487,-9.77606 0.82802,-14.86054l0.03909,-0.13554c0.56437,-3.93046 0.01702,-10.442 5.232,-17.10476c9.77228,-12.48196 19.75575,-12.0481 25.72681,-21.27296c4.39207,-6.78647 3.26396,-14.56985 3.26396,-14.56985c0,0 2.69329,3.8132 3.76781,6.05245c1.04047,2.18244 2.15155,4.99552 2.15155,4.99552l0.03593,-0.02396c0.02459,-0.08202 0.04665,-0.16587 0.06556,-0.24972c0.29329,-1.30595 0.17722,-3.23686 0.17722,-3.23686c0,0 2.56777,7.52546 6.71327,12.4592c4.14298,4.93128 10.13106,6.34062 17.69119,23.22845c0.94087,2.0986 1.81547,3.86489 2.28338,5.82291l0.21189,1.12684c0.659,3.52125 0.39983,13.24933 -0.985,17.45227v0v0v0v0v0zM220.07266,128.86203c0,0 -4.89717,5.08693 -4.57433,12.16535c0.28565,6.26301 1.90884,8.19763 2.78344,8.68193c0.89926,0.49502 2.29347,0.2018 2.29347,0.2018c0,0 -3.9437,2.08851 -7.15849,-0.74537c-2.15029,-1.89427 -4.49041,-4.33785 -5.14563,-11.23016M260.82461,140.142c0,0 0.6085,1.74171 -0.87467,5.38211c-1.66851,4.10137 -5.18913,5.37013 -5.18913,5.37013c0,0 2.92529,-6.31856 0.47043,-12.25936c-1.07136,-2.59551 -4.3782,-4.52887 -7.83003,-5.89408c-4.67772,-1.85147 -9.62098,-2.65862 -9.62098,-2.65862M263.07577,152.46692c-0.26359,0.83741 -0.70684,1.93021 -1.45473,3.28351c-1.5923,2.8944 -6.27002,5.32088 -6.27002,5.32088c0,0 0.84504,-2.90322 0.55687,-6.90058M209.26873,143.01433c-0.48052,0.89169 -0.85002,1.84762 -1.05686,2.8572c-1.29902,6.2946 0.98689,13.22796 0.98689,13.22796c0,0 -4.22367,-2.67249 -6.10667,-6.68049c-1.66914,-3.55718 -1.64771,-5.57193 -1.64771,-5.57193M268.12558,146.49019c-2.07905,5.47856 -5.03215,8.6315 -5.03215,8.6315c0,0 0.60983,-5.55673 -1.85014,-11.49816c-0.11095,-0.26863 -0.23648,-0.52969 -0.3695,-0.78319M237.78087,130.08218c0,0 0.83748,0.22198 3.04703,1.98071c2.20962,1.75873 3.02244,3.67759 3.02244,3.67759c0,0 -6.52408,-1.71831 -10.1361,-3.01733c-3.60824,-1.30028 -15.78431,-4.61593 -15.78431,-4.61593M217.12152,156.24159c1.76875,2.7784 3.60887,4.28994 3.60887,4.28994c0,0 -4.32776,1.33999 -8.30368,-0.94843c-3.53,-2.03359 -3.97333,-3.711 -3.97333,-3.711M255.75716,158.20024c-4.66448,3.5887 -10.32278,5.34743 -17.20507,5.77114c-8.2052,0.50511 -14.20273,-0.6936 -19.32882,-2.70457M219.07758,160.89977c0.15515,1.77701 0.72645,2.69834 1.17482,3.11448c0.83236,0.775 2.43342,0.95915 2.43342,0.95915c0,0 -4.89528,0.68485 -7.55951,-3.09368c-0.28313,-0.40165 -0.56878,-0.81786 -0.83993,-1.26119M238.25446,130.29281c0,0 17.8722,2.17999 17.8722,11.93455" fill="#be1e2d"/><path d="M259.62962,146.44543c-0.66656,7.01531 -8.73118,14.33456 -20.53327,15.02445c-10.4193,0.6148 -25.81703,-4.07048 -28.05124,-12.6982c-0.22198,-0.86711 -0.33987,-1.70452 -0.37202,-2.50914l0.22639,0.16524c0.79076,1.15773 1.66788,1.99262 2.51727,2.73924c3.21479,2.83262 7.15849,0.74411 7.15849,0.74411c0,0 -1.39421,0.29448 -2.29347,-0.20054c-0.8746,-0.4843 -2.49779,-2.41892 -2.78344,-8.68193c-0.32285,-7.07969 4.57433,-12.16535 4.57433,-12.16535l0.01702,-0.16272c3.66498,1.01526 10.96658,3.06468 13.6233,4.02257c3.61203,1.29965 10.1361,3.01733 10.1361,3.01733c0,0 -0.81282,-1.91886 -3.02244,-3.67759c-1.10604,-0.87965 -1.86716,-1.37467 -2.35147,-1.65023l0.45404,0.07124c0,0 13.77965,2.03682 16.30329,8.15098c2.45422,5.94143 -0.4698,12.25936 -0.4698,12.25936c0,0 2.99786,-1.08145 4.76857,-4.46835l0.09835,0.01954v0v0v0v0v0z" fill="#e6e7e8"/></g><g stroke="#000000" stroke-linecap="round" stroke-linejoin="miter"><path d="M264.49968,133.63873c0,0 6.35001,-7.10988 6.70319,-7.44666c0.35311,-0.33671 2.97761,-3.55396 10.54153,-4.65313c0,0 -4.85739,21.59966 -16.17209,26.54033c0,-0.00063 1.07641,-6.18106 -1.07262,-14.44054v0v0v0v0v0zM264.54381,133.81279c-0.16335,-0.68295 -0.65648,-1.8893 -0.65648,-1.8893M265.03001,149.73517c0,0 0.43443,-1.03543 0.5423,-1.65653" fill="#be1e2d"/><path d="M270.08163,144.68417c0,0 -1.13314,-0.87089 -1.26371,-3.73566c-0.08385,-1.77701 0.69682,-5.01758 0.69682,-5.01758l-0.06304,0.10339c0.49502,-0.57256 1.01715,-1.24158 1.4901,-1.9756c0.80147,-1.24165 1.73912,-3.10377 2.59866,-4.93941l0.13302,-0.25287c0,0 2.27266,-3.32385 6.98316,-3.74448l0.05422,0.02963c-0.99249,3.28351 -2.61127,8.09936 -4.40404,11.3891c-2.0109,3.69027 -4.33778,6.37025 -6.3084,8.21094l0.08322,-0.06745v0v0v0v0v0zM267.55302,137.88516c0,0 1.65275,-1.615 1.96173,-1.95423" fill="#929497"/></g><g stroke="#000000" stroke-linecap="round" stroke-linejoin="miter"><path d="M203.20563,148.07864c-11.31408,-4.94067 -16.17153,-26.54033 -16.17153,-26.54033c7.56399,1.0998 10.1885,4.31705 10.5416,4.65313c0.35311,0.33615 6.70319,7.44666 6.70319,7.44666c-2.14966,8.26011 -1.07325,14.44054 -1.07325,14.44054v0v0v0v0v0zM204.89053,131.92349c0,0 -0.49313,1.20634 -0.65641,1.8893M203.20563,148.07864c0.1078,0.6211 0.5423,1.65653 0.5423,1.65653" fill="#be1e2d"/><path d="M198.77952,144.75163c-1.97062,-1.84132 -4.29687,-4.5213 -6.30847,-8.21094c-1.7934,-3.28974 -3.41148,-8.10559 -4.40404,-11.3891l0.05429,-0.02963c4.71113,0.42126 6.98316,3.74448 6.98316,3.74448l0.13302,0.25287c0.85947,1.83564 1.79719,3.69776 2.59866,4.93941c0.47296,0.73402 0.99508,1.40303 1.4901,1.9756l-0.06304,-0.10339c0,0 0.78067,3.24057 0.69675,5.01758c-0.1305,2.86477 -1.26371,3.73566 -1.26371,3.73566l0.08329,0.06745v0v0v0v0v0zM199.2632,135.93093c0.30898,0.33924 1.96173,1.95423 1.96173,1.95423" fill="#929497"/></g><path d="M229.03653,143.1657v0v0v0v0v0c0.50258,0.14058 0.79454,0.66145 0.65262,1.16404c-0.14058,0.50385 -0.65893,0.7958 -1.1653,0.65774c-0.029,-0.00883 -2.96318,-0.80652 -5.83173,0.02963c-0.08826,0.02522 -0.17596,0.03846 -0.26359,0.03846c-0.40984,0 -0.78824,-0.26989 -0.90865,-0.68225c-0.07131,-0.24089 -0.036,-0.48872 0.0725,-0.69682c-0.17722,-0.15515 -0.34491,-0.35563 -0.46098,-0.63189c-0.13617,-0.32032 0.01387,-0.69108 0.33545,-0.82669c0.3185,-0.13176 0.69052,0.01198 0.82739,0.33489c0.10843,0.25728 0.42245,0.33104 0.42623,0.3323c0.09274,0.0208 0.17407,0.06367 0.24404,0.11915c0.09337,-0.01954 0.1873,-0.03972 0.27935,-0.05548c-0.09708,-0.14626 -0.18723,-0.31024 -0.24152,-0.51204c-0.08952,-0.33734 0.11102,-0.68106 0.44837,-0.77121c0.33987,-0.0933 0.68232,0.11228 0.77121,0.44837c0.07124,0.26863 0.36445,0.3903 0.36697,0.39156c0.13687,0.04672 0.23774,0.14128 0.31157,0.2535c2.25872,-0.10528 4.03511,0.37839 4.13605,0.40676z" fill="#231f20" stroke="none" stroke-linecap="butt" stroke-linejoin="miter"/><path d="M251.6022,142.38881v0v0v0v0v0c-0.11102,0.56247 -0.44837,0.89856 -0.72393,1.10099c0.06998,0.17722 0.10598,0.37209 0.05674,0.5713c-0.12545,0.50637 -0.62678,0.8192 -1.14512,0.69241c-1.96432,-0.4843 -4.5075,-0.66019 -5.01891,-0.13932c-0.18471,0.18723 -0.42686,0.28187 -0.67217,0.28187c-0.24152,0 -0.48052,-0.09148 -0.6653,-0.27367c-0.37202,-0.36578 -0.37706,-0.96419 -0.01009,-1.33754c0.98815,-1.00384 3.07351,-0.97799 4.74209,-0.75861c0.08132,-0.06998 0.21056,-0.21308 0.22317,-0.4111c0.01772,-0.34617 0.2895,-0.6363 0.66152,-0.59715c0.34743,0.01765 0.61417,0.31276 0.59715,0.66145c-0.01261,0.21946 -0.06682,0.40487 -0.13428,0.57382c0.08259,0.01702 0.16139,0.03215 0.23522,0.04924c0.06556,-0.10094 0.14752,-0.18983 0.26611,-0.24152c0.01765,-0.01009 0.297,-0.14885 0.35121,-0.41874c0.06935,-0.34113 0.39541,-0.56878 0.74158,-0.49502c0.34113,0.06935 0.56247,0.3992 0.49502,0.74158z" fill="#231f20" stroke="none" stroke-linecap="butt" stroke-linejoin="miter"/><path d="M244.25389,149.32343c0,0 -1.82177,4.62854 -7.53618,4.60396c-5.71567,-0.02087 -7.97817,-3.49288 -7.97817,-3.49288" fill="none" stroke="#231f20" stroke-linecap="round" stroke-linejoin="miter"/></g></g></g></g></svg>