<svg version="1.1" xmlns="http://www.w3.org/2000/svg" xmlns:xlink="http://www.w3.org/1999/xlink" width="149.13535" height="183.24161" viewBox="0,0,149.13535,183.24161"><defs><linearGradient x1="240.61953" y1="58.2993" x2="240.61953" y2="237.16753" gradientUnits="userSpaceOnUse" id="color-1"><stop offset="0" stop-color="#000000"/><stop offset="1" stop-color="#000000" stop-opacity="0"/></linearGradient><radialGradient cx="234.75" cy="126.93504" r="71.5" gradientUnits="userSpaceOnUse" id="color-2"><stop offset="0" stop-color="#505050"/><stop offset="1" stop-color="#505050" stop-opacity="0"/></radialGradient><radialGradient cx="240.46515" cy="125.57556" r="57.27188" gradientUnits="userSpaceOnUse" id="color-3"><stop offset="0" stop-color="#000000"/><stop offset="1" stop-color="#000000" stop-opacity="0"/></radialGradient><radialGradient cx="289.75" cy="160.75" r="6" gradientUnits="userSpaceOnUse" id="color-4"><stop offset="0" stop-color="#ffffff"/><stop offset="1" stop-color="#ffffff" stop-opacity="0"/></radialGradient><radialGradient cx="306" cy="152.75" r="6.75" gradientUnits="userSpaceOnUse" id="color-5"><stop offset="0" stop-color="#ffffff"/><stop offset="1" stop-color="#ffffff" stop-opacity="0"/></radialGradient><radialGradient cx="195.25" cy="85" r="6.5" gradientUnits="userSpaceOnUse" id="color-6"><stop offset="0" stop-color="#ffffff"/><stop offset="1" stop-color="#ffffff" stop-opacity="0"/></radialGradient><radialGradient cx="202" cy="172.25" r="6.25" gradientUnits="userSpaceOnUse" id="color-7"><stop offset="0" stop-color="#ffffff"/><stop offset="1" stop-color="#ffffff" stop-opacity="0"/></radialGradient><radialGradient cx="192.75" cy="161.25" r="4.5" gradientUnits="userSpaceOnUse" id="color-8"><stop offset="0" stop-color="#ffffff"/><stop offset="1" stop-color="#ffffff" stop-opacity="0"/></radialGradient><radialGradient cx="291.02009" cy="144.85451" r="6.86912" gradientUnits="userSpaceOnUse" id="color-9"><stop offset="0" stop-color="#b7b3ff"/><stop offset="1" stop-color="#b7b3ff" stop-opacity="0"/></radialGradient><radialGradient cx="290.91458" cy="144.93579" r="6.2976" gradientUnits="userSpaceOnUse" id="color-10"><stop offset="0" stop-color="#b3c8ff"/><stop offset="1" stop-color="#b3c8ff" stop-opacity="0"/></radialGradient><radialGradient cx="290.56825" cy="145.19931" r="4.44037" gradientUnits="userSpaceOnUse" id="color-11"><stop offset="0" stop-color="#af9c8b"/><stop offset="1" stop-color="#af9c8b" stop-opacity="0"/></radialGradient><radialGradient cx="288.4282" cy="144.9481" r="2.89826" gradientUnits="userSpaceOnUse" id="color-12"><stop offset="0" stop-color="#ffffff"/><stop offset="1" stop-color="#ffffff" stop-opacity="0"/></radialGradient><radialGradient cx="290.93441" cy="145.22317" r="5.65455" gradientUnits="userSpaceOnUse" id="color-13"><stop offset="0" stop-color="#ffb3b7"/><stop offset="1" stop-color="#ffb3b7" stop-opacity="0"/></radialGradient><radialGradient cx="296.2744" cy="144.48671" r="1.78057" gradientUnits="userSpaceOnUse" id="color-14"><stop offset="0" stop-color="#ffb3b7"/><stop offset="1" stop-color="#ffb3b7" stop-opacity="0"/></radialGradient><radialGradient cx="292.47521" cy="147.16308" r="1.81908" gradientUnits="userSpaceOnUse" id="color-15"><stop offset="0" stop-color="#ffb3b7"/><stop offset="1" stop-color="#ffb3b7" stop-opacity="0"/></radialGradient><radialGradient cx="291.9929" cy="140.61353" r="2.20631" gradientUnits="userSpaceOnUse" id="color-16"><stop offset="0" stop-color="#ffb3b7"/><stop offset="1" stop-color="#ffb3b7" stop-opacity="0"/></radialGradient><radialGradient cx="288.01502" cy="144.81375" r="1.54297" gradientUnits="userSpaceOnUse" id="color-17"><stop offset="0" stop-color="#ffb3b7"/><stop offset="1" stop-color="#ffb3b7" stop-opacity="0"/></radialGradient><radialGradient cx="290.88908" cy="145.1979" r="3.21742" gradientUnits="userSpaceOnUse" id="color-18"><stop offset="0" stop-color="#ffe9cf"/><stop offset="1" stop-color="#ffe9cf" stop-opacity="0"/></radialGradient><radialGradient cx="291.16282" cy="145.14467" r="1.39217" gradientUnits="userSpaceOnUse" id="color-19"><stop offset="0" stop-color="#ffffff"/><stop offset="1" stop-color="#ffffff" stop-opacity="0"/></radialGradient><radialGradient cx="289.28751" cy="146.29026" r="2.95236" gradientUnits="userSpaceOnUse" id="color-20"><stop offset="0" stop-color="#ffffff"/><stop offset="1" stop-color="#ffffff" stop-opacity="0"/></radialGradient><radialGradient cx="295.80292" cy="144.57746" r="2.88043" gradientUnits="userSpaceOnUse" id="color-21"><stop offset="0" stop-color="#ffffff"/><stop offset="1" stop-color="#ffffff" stop-opacity="0"/></radialGradient></defs><g transform="translate(-163.25,-31.09482)"><g data-paper-data="{&quot;isPaintingLayer&quot;:true}" fill-rule="nonzero" stroke-linecap="butt" stroke-linejoin="miter" stroke-miterlimit="10" stroke-dasharray="" stroke-dashoffset="0" style="mix-blend-mode: normal"><path d="M284.37023,179.70941c0.07585,1.88165 -6.82295,7.07192 -42.75929,7.07192c-35.93634,0 -45.96971,-4.43047 -45.98172,-7.45949c-0.01038,-2.6151 9.30175,-6.10294 45.23807,-6.10294c35.93634,0 43.43354,4.76932 43.50294,6.49051z" fill="url(#color-1)" stroke="none" stroke-width="0"/><text transform="translate(222.2178,208.35668) scale(0.357,0.357)" font-size="40" xml:space="preserve" fill="#ffffff" fill-rule="nonzero" stroke="#ffffff" stroke-width="0.5" stroke-linecap="butt" stroke-linejoin="miter" stroke-miterlimit="10" stroke-dasharray="" stroke-dashoffset="0" font-family="Handwriting" font-weight="normal" text-anchor="start" style="mix-blend-mode: normal"></text><text transform="translate(213.25542,44.20368) scale(0.34497,0.34497)" font-size="40" xml:space="preserve" fill="#ffffff" fill-rule="nonzero" stroke="#ffffff" stroke-width="1" stroke-linecap="butt" stroke-linejoin="miter" stroke-miterlimit="10" stroke-dasharray="" stroke-dashoffset="0" font-family="Handwriting" font-weight="normal" text-anchor="start" style="mix-blend-mode: normal"></text><text transform="translate(180.20843,59.94219) scale(0.26747,0.26747)" font-size="40" xml:space="preserve" fill="#ffffff" fill-rule="nonzero" stroke="#ffffff" stroke-width="1" stroke-linecap="butt" stroke-linejoin="miter" stroke-miterlimit="10" stroke-dasharray="" stroke-dashoffset="0" font-family="Handwriting" font-weight="normal" text-anchor="start" style="mix-blend-mode: normal"></text><g stroke="none" stroke-width="0"><path d="M306.25,126.93504c0,37.9337 -32.01164,68.68504 -71.5,68.68504c-39.48836,0 -71.5,-30.75134 -71.5,-68.68504c0,-37.9337 32.01164,-68.68504 71.5,-68.68504c39.48836,0 71.5,30.75134 71.5,68.68504z" fill="url(#color-2)"/><path d="M282.75,129.85757c-0.02784,24.12056 -24.49433,44.28222 -41.21434,44.42585c-20.24391,0.17391 -41.8947,-25.62043 -42.28485,-43.35535c-0.61281,-27.85648 21.89474,-49.77836 42.8201,-48.17261c18.72929,1.43723 40.71623,14.92791 40.67909,47.10211z" fill="url(#color-3)"/><path d="M295.35007,158.59613c0.49565,1.28868 -1.60979,3.29769 -4.70263,4.48724c-3.09284,1.18955 -6.00187,1.10919 -6.49752,-0.17949c-0.49565,-1.28868 1.60979,-3.29769 4.70263,-4.48724c3.09284,-1.18955 6.00187,-1.10919 6.49752,0.17949z" fill="url(#color-4)"/><path d="M312.29103,155.19651c-0.60052,1.5442 -3.90393,1.70067 -7.37837,0.3495c-3.47444,-1.35117 -5.80421,-3.69833 -5.20369,-5.24253c0.60052,-1.5442 3.90393,-1.70067 7.37837,-0.3495c3.47444,1.35117 5.80421,3.69833 5.20369,5.24253z" fill="url(#color-5)"/><path d="M201.70913,84.27221c0.17005,1.50923 -2.58394,3.05855 -6.15122,3.4605c-3.56728,0.40195 -6.59698,-0.49569 -6.76704,-2.00492c-0.17005,-1.50923 2.58394,-3.05855 6.15122,-3.4605c3.56728,-0.40195 6.59698,0.49569 6.76704,2.00492z" fill="url(#color-6)"/><path d="M208.25,172.25c0,2.48528 -2.79822,4.5 -6.25,4.5c-3.45178,0 -6.25,-2.01472 -6.25,-4.5c0,-2.48528 2.79822,-4.5 6.25,-4.5c3.45178,0 6.25,2.01472 6.25,4.5z" fill="url(#color-7)"/><path d="M197.25,161.25c0,1.65685 -2.01472,3 -4.5,3c-2.48528,0 -4.5,-1.34315 -4.5,-3c0,-1.65685 2.01472,-3 4.5,-3c2.48528,0 4.5,1.34315 4.5,3z" fill="url(#color-8)"/><path d="M296.30149,140.46229c1.74592,2.09937 0.79671,5.76771 -2.12013,8.19348c-2.91684,2.42576 -6.69675,2.69036 -8.44268,0.59099c-1.74592,-2.09937 -0.79671,-5.76771 2.12013,-8.19348c2.91684,-2.42576 6.69675,-2.69036 8.44268,-0.59098z" fill="url(#color-9)"/><path d="M289.37901,143.30898c-0.01583,0.5749 -1.62456,2.88739 -1.69128,3.20058c-0.11579,0.54352 -0.67234,0.16159 -0.61178,0.48518c0.27506,1.4695 1.83181,3.39026 1.45496,3.33353c-0.02007,0.02705 -0.84395,0.10812 -1.18301,-0.09494c-0.69534,-0.41645 -1.7005,-1.65963 -1.92214,-2.77231c-0.11745,-0.58963 0.07784,-3.18045 1.22695,-4.31527c0.72952,-0.72046 1.69,-1.21657 2.6683,-1.53186c0.38962,-0.12557 -0.49198,-0.60158 -0.08883,-0.93001c0.49116,-0.40013 2.2749,-0.64631 2.84805,-0.59289c0.84295,0.22951 1.42107,1.00632 1.6868,1.51421c0.08597,0.16432 -0.75525,0.34767 -0.64544,0.45468c0.387,0.37715 0.74787,0.81379 0.85797,1.1574c0.38239,1.19339 -0.76017,3.07745 -1.04178,3.27511c-1.10673,0.77679 -2.86392,0.04554 -2.94568,-0.07987c-0.22313,-0.34222 -1.03295,0.42812 -0.51073,1.37106c0.33103,0.48252 1.27049,0.74188 1.96008,0.28938c0.09974,-0.06546 -0.8961,0.19596 -0.84502,-0.22694c0.04439,-0.36758 2.56039,-2.13219 3.53992,-2.60469c0.27231,-0.13136 -0.33169,1.11881 -0.2208,0.97057c0.52318,-0.6994 0.93406,-1.99907 0.79225,-3.34293c-0.17318,-1.64111 -3.25658,-3.2324 -2.75724,-3.65529c0.22619,-0.48932 3.27751,1.73156 3.61613,3.30447c0.09844,0.45725 0.1128,1.00383 0.10921,1.5248c-0.00365,0.53063 0.41788,-1.91453 0.88975,-2.02286c0.37587,-0.08629 0.8516,1.5959 0.5297,2.64562c-0.10985,0.35821 -0.45786,1.15445 -1.33811,1.89367c-1.4472,1.21534 -3.69957,2.44608 -4.0141,2.57594c-0.81378,0.33598 -2.78739,0.01719 -3.32425,-1.14198c-0.61806,-1.3345 0.52947,-3.36941 0.83124,-3.64554c0.8103,-0.74148 2.29587,-0.6517 2.52955,-0.23096c0.06185,0.11137 0.28096,-0.68998 -0.39769,-0.89158c-1.02345,-0.30403 -1.99395,-0.24337 -2.00296,0.08372z" fill="url(#color-10)"/><path d="M293.98227,142.36007c1.18077,1.4198 0.60946,3.84196 -1.27605,5.41003c-1.88551,1.56807 -4.37122,1.68826 -5.552,0.26846c-1.18077,-1.4198 -0.60946,-3.84196 1.27605,-5.41003c1.88551,-1.56807 4.37122,-1.68826 5.55199,-0.26846z" fill="url(#color-11)"/><path d="M291.37512,141.87658c0.45393,0.72503 -2.1453,1.78264 -2.79632,3.14816c-0.65102,1.36552 -0.04681,3.72016 -0.9507,3.52055c-0.9039,-0.1996 -2.4346,-2.39146 -1.78358,-3.75698c0.65102,-1.36552 4.69514,-4.24616 5.5306,-2.91174z" fill="url(#color-12)"/><path d="M291.86395,145.38116c-0.08651,0.30973 0.21878,0.63495 0.74949,0.14216c0.16026,-0.16233 0.71853,-1.27678 0.22866,-1.99521c-0.33421,-0.49014 -1.5412,-0.52328 -2.18902,-0.68358c-0.40759,-0.10085 -2.07385,0.10207 -3.06979,1.13609c-0.92841,0.96391 -1.20863,2.73661 -1.09329,3.35276c0.27506,1.4695 1.65774,2.7173 1.28089,2.66057c-0.06123,0.08253 -1.57995,-1.16549 -1.90968,-2.82073c-0.11745,-0.58963 0.10355,-2.56995 1.25266,-3.70478c1.37405,-1.35697 2.82016,-1.63119 4.23019,-1.53864c0.82006,0.05382 2.19813,0.7109 2.43604,1.45336c0.38239,1.19339 -0.70691,2.7358 -0.98852,2.93346c-1.10673,0.77679 -2.38603,-0.01736 -2.4678,-0.14277c-0.22313,-0.34222 -0.08218,-0.5711 0.06971,-1.18259c0.01896,-0.33582 -0.53033,-0.09236 -0.75417,0.37057c-0.17441,0.36069 -0.62536,1.54475 -0.10315,2.48768c0.33103,0.48252 1.73166,1.06458 2.42124,0.61207c0.43074,-0.28265 1.58924,-1.12454 2.25266,-2.01142c0.52318,-0.6994 1.00344,-2.20544 0.86162,-3.5493c-0.17318,-1.64111 -2.47023,-2.80847 -2.12356,-3.06721c0.39065,-0.29157 2.33474,1.17751 2.67337,2.75042c0.29359,1.36374 -0.36472,3.28285 -0.8174,4.02231c-0.76418,1.24832 -2.50031,2.38601 -3.00615,2.59486c-0.81378,0.33598 -2.78739,0.01719 -3.32425,-1.14198c-0.61806,-1.3345 0.52947,-3.36941 0.83124,-3.64554c0.8103,-0.74148 2.29587,-0.6517 2.52955,-0.23096c0.1435,0.25837 0.14283,0.79255 0.02947,1.1984z" fill="url(#color-13)"/><path d="M296.90652,144.35927c-0.05464,0.85825 -0.80547,1.90314 -1.07606,1.95282c-0.27059,0.04968 0.3776,-1.03039 0.46697,-1.8944c0.14089,-1.36205 0.07024,-2.13704 0.22872,-2.21398c0.10367,-0.05033 0.43501,1.29731 0.38037,2.15556z" fill="url(#color-14)"/><path d="M293.03484,147.24497c-0.71222,0.70258 -2.0072,0.72312 -2.00679,0.47246c0.00049,-0.29627 0.96063,-0.20696 1.69425,-0.88923c1.15648,-1.07555 1.07822,-1.31999 1.21629,-1.2711c0.09032,0.03197 -0.19153,0.9853 -0.90376,1.68788z" fill="url(#color-15)"/><path d="M291.89446,140.29602c0.88843,-0.00593 1.69519,1.26041 1.62915,1.5192c-0.06604,0.25878 -0.95528,-0.90569 -1.83458,-0.93302c-1.38615,-0.04308 -2.24109,0.07855 -2.25327,-0.06974c-0.00797,-0.097 1.57028,-0.51051 2.4587,-0.51644z" fill="url(#color-16)"/><path d="M289.08616,143.59732c0.16509,0.05872 -0.49698,0.63048 -0.94193,1.37622c-0.44496,0.74574 -0.52062,1.52607 -0.68572,1.46735c-0.16509,-0.05872 -0.15782,-0.86337 0.28714,-1.60911c0.44496,-0.74574 1.17541,-1.29318 1.3405,-1.23447z" fill="url(#color-17)"/><path d="M293.18752,143.28642c0.82728,0.99476 0.46888,2.65697 -0.80052,3.71265c-1.2694,1.05568 -2.96909,1.10507 -3.79637,0.11031c-0.82728,-0.99476 -0.46888,-2.65697 0.80052,-3.71265c1.2694,-1.05568 2.96909,-1.10507 3.79637,-0.11031z" fill="url(#color-18)"/><path d="M292.23321,144.2545c0.37004,0.44495 0.1908,1.20421 -0.40037,1.69583c-0.59116,0.49163 -1.37036,0.52947 -1.7404,0.08452c-0.37004,-0.44495 -0.19079,-1.2042 0.40037,-1.69583c0.59116,-0.49163 1.37036,-0.52947 1.7404,-0.08452z" fill="url(#color-19)"/><path d="M291.73028,143.83751c0.25391,0.30531 -1.78703,0.54634 -2.35583,1.87096c-0.53997,1.25749 0.87766,2.17808 1.07338,2.30542c0.19616,0.12762 -0.66537,0.79604 -1.09608,0.613c-1.10517,-0.46968 -1.65408,-1.33653 -1.38428,-2.54039c0.18854,-0.84128 0.80442,-1.85472 1.67915,-2.41522c0.85864,-0.55019 1.86608,-0.0954 2.08367,0.16623z" fill="url(#color-20)"/><path d="M292.81863,147.96285c0.51437,-0.46337 1.4535,-1.60105 1.87678,-2.74252c0.34585,-0.93265 0.20881,-2.82651 0.19368,-3.09403c-0.00917,-0.1621 0.46435,-0.28991 0.50208,-0.0869c0.01081,0.05817 0.59172,1.65067 0.06472,3.16516c-0.55638,1.59892 -1.65681,2.70128 -2.27612,3.12205c-0.28955,0.19673 -0.73752,-0.02472 -0.36115,-0.36376z" fill="url(#color-21)"/></g></g></g></svg>