<svg version="1.1" xmlns="http://www.w3.org/2000/svg" xmlns:xlink="http://www.w3.org/1999/xlink" width="94.74601" height="175.38325" viewBox="0,0,94.74601,175.38325"><defs><linearGradient x1="240.30619" y1="108.67072" x2="240.30619" y2="213.50606" gradientUnits="userSpaceOnUse" id="color-1"><stop offset="0" stop-color="#000000"/><stop offset="1" stop-color="#000000" stop-opacity="0"/></linearGradient></defs><g transform="translate(-192.59956,-31.19255)"><g data-paper-data="{&quot;isPaintingLayer&quot;:true}" fill-rule="nonzero" stroke-linecap="butt" stroke-linejoin="miter" stroke-miterlimit="10" stroke-dasharray="" stroke-dashoffset="0" style="mix-blend-mode: normal"><path d="M261.93461,179.82963c0.0375,1.10284 -3.37296,4.14487 -21.13825,4.14487c-17.76529,0 -22.72532,-2.59672 -22.73127,-4.37203c-0.00513,-1.53272 4.59836,-3.57696 22.36364,-3.57696c17.76529,0 21.47156,2.79532 21.50587,3.80412z" fill="url(#color-1)" stroke="none" stroke-width="0"/><text transform="translate(225.12801,201.72802) scale(0.28942,0.28942)" font-size="40" xml:space="preserve" fill="#000000" fill-rule="nonzero" stroke="#000000" stroke-width="0.5" stroke-linecap="butt" stroke-linejoin="miter" stroke-miterlimit="10" stroke-dasharray="" stroke-dashoffset="0" font-family="Handwriting" font-weight="normal" text-anchor="start" style="mix-blend-mode: normal"></text><g><g stroke="none" stroke-width="1.6289"><path d="M238.57231,79.19474h2.02068v39.49567h-2.02068z" fill="#ffffff"/><path d="M238.98417,79.14073h0.24025v39.55228h-0.24025z" fill="#d1e6bb"/><path d="M239.61341,79.14073h0.24025v39.55228h-0.24025z" fill="#d1e6bb"/><path d="M240.23121,79.14073h0.24025v39.55228h-0.24025z" fill="#d1e6bb"/><path d="M238.52654,79.00033h0.24025v39.84237h-0.24025z" fill="#d1e6bb"/><path d="M239.08714,79.30748h0.6178v39.31776h-0.6178z" fill="#c3e8f3"/><path d="M238.62423,78.9539h1.78782v0.50537h-1.78782z" fill="#d1e6bb"/></g><g stroke="none" stroke-width="1.6289"><path d="M237.24549,96.00114h3.05265v39.49567h-3.05265z" fill="#ffffff"/><path d="M237.65735,95.94713h0.24025v39.55228h-0.24025z" fill="#d1e6bb"/><path d="M238.28659,95.94713h0.24025v39.55228h-0.24025z" fill="#d1e6bb"/><path d="M238.90439,95.94713h0.24025v39.55228h-0.24025z" fill="#d1e6bb"/><path d="M239.53363,95.94713h0.24025v39.55228h-0.24025z" fill="#d1e6bb"/><path d="M240.15142,95.94713h0.24025v39.55228h-0.24025z" fill="#d1e6bb"/><path d="M237.19972,95.80674h0.24025v39.84237h-0.24025z" fill="#d1e6bb"/><path d="M237.76032,96.11389h0.6178v39.31776h-0.6178z" fill="#c3e8f3"/><path d="M239.0188,96.11389h0.61779v39.31776h-0.61779z" fill="#c3e8f3"/><path d="M237.29741,95.76031h3.14413v0.50537h-3.14413z" fill="#d1e6bb"/></g><g stroke="none" stroke-width="1.6289"><path d="M237.11053,109.99904h5.41145v65.86518h-5.41145z" fill="#ffffff"/><path d="M237.52239,109.90897h0.24025v65.95959h-0.24025z" fill="#d1e6bb"/><path d="M238.15163,109.90897h0.24026v65.95959h-0.24026z" fill="#d1e6bb"/><path d="M238.76943,109.90897h0.24025v65.95959h-0.24025z" fill="#d1e6bb"/><path d="M239.39867,109.90897h0.24026v65.95959h-0.24026z" fill="#d1e6bb"/><path d="M240.01646,109.90897h0.24025v65.95959h-0.24025z" fill="#d1e6bb"/><path d="M240.6457,109.90897h0.24025v65.95959h-0.24025z" fill="#d1e6bb"/><path d="M241.2635,109.90897h0.24025v65.95959h-0.24025z" fill="#d1e6bb"/><path d="M241.89274,109.90897h0.24025v65.95959h-0.24025z" fill="#d1e6bb"/><path d="M242.39613,109.77734h0.24025v66.34085h-0.24025z" fill="#d1e6bb"/><path d="M237.06476,109.67484h0.24025v66.44335h-0.24025z" fill="#d1e6bb"/><path d="M237.62536,110.18706h0.6178v65.56849h-0.6178z" fill="#c3e8f3"/><path d="M238.88384,110.18706h0.61779v65.56849h-0.61779z" fill="#c3e8f3"/><path d="M240.13087,110.18706h0.61779v65.56849h-0.61779z" fill="#c3e8f3"/><path d="M241.37791,110.18706h0.6178v65.56849h-0.6178z" fill="#c3e8f3"/><path d="M237.16245,109.59741h5.35424v0.84279h-5.35424z" fill="#d1e6bb"/></g><g stroke="none" stroke-width="1.6289"><path d="M234.25962,120.15228h5.41145v58.65088h-5.41145z" fill="#ffffff"/><path d="M234.67149,120.07208h0.24025v58.73495h-0.24025z" fill="#d1e6bb"/><path d="M235.30072,120.07208h0.24025v58.73495h-0.24025z" fill="#d1e6bb"/><path d="M235.91853,120.07208h0.24025v58.73495h-0.24025z" fill="#d1e6bb"/><path d="M236.54776,120.07208h0.24026v58.73495h-0.24026z" fill="#d1e6bb"/><path d="M237.16555,120.07208h0.24025v58.73495h-0.24025z" fill="#d1e6bb"/><path d="M237.7948,120.07208h0.24025v58.73495h-0.24025z" fill="#d1e6bb"/><path d="M238.41259,120.07208h0.24025v58.73495h-0.24025z" fill="#d1e6bb"/><path d="M239.04183,120.07208h0.24025v58.73495h-0.24025z" fill="#d1e6bb"/><path d="M239.54522,119.95486h0.24025v59.07445h-0.24025z" fill="#d1e6bb"/><path d="M234.21386,119.86359h0.24025v59.16573h-0.24025z" fill="#d1e6bb"/><path d="M234.77445,120.31971h0.6178v58.38669h-0.6178z" fill="#c3e8f3"/><path d="M236.03294,120.31971h0.61779v58.38669h-0.61779z" fill="#c3e8f3"/><path d="M237.27997,120.31971h0.61779v58.38669h-0.61779z" fill="#c3e8f3"/><path d="M238.52701,120.31971h0.6178v58.38669h-0.6178z" fill="#c3e8f3"/><path d="M234.31155,119.79464h5.35424v0.75047h-5.35424z" fill="#d1e6bb"/></g><g stroke="none" stroke-width="1.6289"><path d="M239.85761,129.89092h5.41145v48.82554h-5.41145z" fill="#ffffff"/><path d="M240.26948,129.82414h0.24025v48.89552h-0.24025z" fill="#d1e6bb"/><path d="M240.89871,129.82414h0.24025v48.89552h-0.24025z" fill="#d1e6bb"/><path d="M241.51652,129.82414h0.24025v48.89552h-0.24025z" fill="#d1e6bb"/><path d="M242.14575,129.82414h0.24025v48.89552h-0.24025z" fill="#d1e6bb"/><path d="M242.76354,129.82414h0.24025v48.89552h-0.24025z" fill="#d1e6bb"/><path d="M243.39278,129.82414h0.24025v48.89552h-0.24025z" fill="#d1e6bb"/><path d="M244.01059,129.82414h0.24025v48.89552h-0.24025z" fill="#d1e6bb"/><path d="M244.63982,129.82414h0.24025v48.89552h-0.24025z" fill="#d1e6bb"/><path d="M245.14321,129.72658h0.24025v49.17815h-0.24025z" fill="#d1e6bb"/><path d="M239.81185,129.65058h0.24025v49.25414h-0.24025z" fill="#d1e6bb"/><path d="M240.37244,130.03031h0.6178v48.60561h-0.6178z" fill="#c3e8f3"/><path d="M241.63093,130.03031h0.61779v48.60561h-0.61779z" fill="#c3e8f3"/><path d="M242.87795,130.03031h0.6178v48.60561h-0.6178z" fill="#c3e8f3"/><path d="M244.12499,130.03031h0.61779v48.60561h-0.61779z" fill="#c3e8f3"/><path d="M239.90954,129.59319h5.35424v0.62475h-5.35424z" fill="#d1e6bb"/></g><g stroke="none" stroke-width="1.6289"><path d="M232.08563,141.98071h5.41145v36.72221h-5.41145z" fill="#ffffff"/><path d="M232.49749,141.93048h0.24025v36.77484h-0.24025z" fill="#d1e6bb"/><path d="M233.12673,141.93048h0.24025v36.77484h-0.24025z" fill="#d1e6bb"/><path d="M233.74453,141.93048h0.24025v36.77484h-0.24025z" fill="#d1e6bb"/><path d="M234.37377,141.93048h0.24025v36.77484h-0.24025z" fill="#d1e6bb"/><path d="M234.99156,141.93048h0.24026v36.77484h-0.24026z" fill="#d1e6bb"/><path d="M235.6208,141.93048h0.24025v36.77484h-0.24025z" fill="#d1e6bb"/><path d="M236.2386,141.93048h0.24025v36.77484h-0.24025z" fill="#d1e6bb"/><path d="M236.86784,141.93048h0.24025v36.77484h-0.24025z" fill="#d1e6bb"/><path d="M237.37122,141.85708h0.24026v36.98741h-0.24026z" fill="#d1e6bb"/><path d="M232.03986,141.79994h0.24025v37.04456h-0.24025z" fill="#d1e6bb"/><path d="M232.60046,142.08554h0.6178v36.55679h-0.6178z" fill="#c3e8f3"/><path d="M233.85894,142.08554h0.61779v36.55679h-0.61779z" fill="#c3e8f3"/><path d="M235.10596,142.08554h0.61779v36.55679h-0.61779z" fill="#c3e8f3"/><path d="M236.353,142.08554h0.6178v36.55679h-0.6178z" fill="#c3e8f3"/><path d="M232.13755,141.75678h5.35424v0.46988h-5.35424z" fill="#d1e6bb"/></g><g stroke="none" stroke-width="1.6289"><path d="M241.97139,151.72125h5.41145v27.20936h-5.41145z" fill="#ffffff"/><path d="M242.38326,151.68406h0.24025v27.24837h-0.24025z" fill="#d1e6bb"/><path d="M243.01249,151.68406h0.24026v27.24837h-0.24026z" fill="#d1e6bb"/><path d="M243.6303,151.68406h0.24025v27.24837h-0.24025z" fill="#d1e6bb"/><path d="M244.25953,151.68406h0.24025v27.24837h-0.24025z" fill="#d1e6bb"/><path d="M244.87733,151.68406h0.24025v27.24837h-0.24025z" fill="#d1e6bb"/><path d="M245.50657,151.68406h0.24025v27.24837h-0.24025z" fill="#d1e6bb"/><path d="M246.12437,151.68406h0.24025v27.24837h-0.24025z" fill="#d1e6bb"/><path d="M246.7536,151.68406h0.24025v27.24837h-0.24025z" fill="#d1e6bb"/><path d="M247.25699,151.62966h0.24025v27.40587h-0.24025z" fill="#d1e6bb"/><path d="M241.92563,151.58734h0.24025v27.44821h-0.24025z" fill="#d1e6bb"/><path d="M242.48622,151.79894h0.6178v27.0868h-0.6178z" fill="#c3e8f3"/><path d="M243.7447,151.79894h0.61779v27.0868h-0.61779z" fill="#c3e8f3"/><path d="M244.99174,151.79894h0.61779v27.0868h-0.61779z" fill="#c3e8f3"/><path d="M246.23878,151.79894h0.61779v27.0868h-0.61779z" fill="#c3e8f3"/><path d="M242.02332,151.55534h5.35424v0.34816h-5.35424z" fill="#d1e6bb"/></g><g stroke="none" stroke-width="1.6289"><path d="M228.73223,162.31173h5.41145v16.44239h-5.41145z" fill="#ffffff"/><path d="M229.1441,162.28922h0.24025v16.46596h-0.24025z" fill="#d1e6bb"/><path d="M229.77333,162.28922h0.24025v16.46596h-0.24025z" fill="#d1e6bb"/><path d="M230.39113,162.28922h0.24025v16.46596h-0.24025z" fill="#d1e6bb"/><path d="M231.02037,162.28922h0.24025v16.46596h-0.24025z" fill="#d1e6bb"/><path d="M231.63817,162.28922h0.24025v16.46596h-0.24025z" fill="#d1e6bb"/><path d="M232.2674,162.28922h0.24025v16.46596h-0.24025z" fill="#d1e6bb"/><path d="M232.8852,162.28922h0.24025v16.46596h-0.24025z" fill="#d1e6bb"/><path d="M233.51444,162.28922h0.24025v16.46596h-0.24025z" fill="#d1e6bb"/><path d="M234.01783,162.25637h0.24026v16.56114h-0.24026z" fill="#d1e6bb"/><path d="M228.68647,162.2308h0.24026v16.58673h-0.24026z" fill="#d1e6bb"/><path d="M229.24706,162.35866h0.6178v16.36833h-0.6178z" fill="#c3e8f3"/><path d="M230.50554,162.35866h0.61779v16.36833h-0.61779z" fill="#c3e8f3"/><path d="M231.75257,162.35866h0.6178v16.36833h-0.6178z" fill="#c3e8f3"/><path d="M232.99961,162.35866h0.61779v16.36833h-0.61779z" fill="#c3e8f3"/><path d="M228.78416,162.21146h5.35424v0.21039h-5.35424z" fill="#d1e6bb"/></g><g stroke="none" stroke-width="1.6289"><path d="M244.08518,170.30418h5.41145v8.67094h-5.41145z" fill="#ffffff"/><path d="M244.49704,170.29231h0.24025v8.68336h-0.24025z" fill="#d1e6bb"/><path d="M245.12628,170.29231h0.24025v8.68336h-0.24025z" fill="#d1e6bb"/><path d="M245.74408,170.29231h0.24025v8.68336h-0.24025z" fill="#d1e6bb"/><path d="M246.37332,170.29231h0.24025v8.68336h-0.24025z" fill="#d1e6bb"/><path d="M246.99111,170.29231h0.24025v8.68336h-0.24025z" fill="#d1e6bb"/><path d="M247.62035,170.29231h0.24025v8.68336h-0.24025z" fill="#d1e6bb"/><path d="M248.23815,170.29231h0.24025v8.68336h-0.24025z" fill="#d1e6bb"/><path d="M248.86739,170.29231h0.24025v8.68336h-0.24025z" fill="#d1e6bb"/><path d="M249.37077,170.275h0.24025v8.73356h-0.24025z" fill="#d1e6bb"/><path d="M244.03941,170.2615h0.24025v8.74705h-0.24025z" fill="#d1e6bb"/><path d="M244.60001,170.32894h0.6178v8.63188h-0.6178z" fill="#c3e8f3"/><path d="M245.85849,170.32894h0.61779v8.63188h-0.61779z" fill="#c3e8f3"/><path d="M247.10552,170.32894h0.6178v8.63188h-0.6178z" fill="#c3e8f3"/><path d="M248.35256,170.32894h0.61779v8.63188h-0.61779z" fill="#c3e8f3"/><path d="M244.1371,170.25131h5.35424v0.11095h-5.35424z" fill="#d1e6bb"/></g><path d="M228.41776,178.94671h21.18153" fill="none" stroke="#d1e6bb" stroke-width="1.5"/></g><text transform="translate(192.75104,42.70503) scale(0.30296,0.30296)" font-size="40" xml:space="preserve" fill="#000000" fill-rule="nonzero" stroke="#000000" stroke-width="1" stroke-linecap="butt" stroke-linejoin="miter" stroke-miterlimit="10" stroke-dasharray="" stroke-dashoffset="0" font-family="Handwriting" font-weight="normal" text-anchor="start" style="mix-blend-mode: normal"></text><text transform="translate(203.20238,63.99151) scale(0.28998,0.28998)" font-size="40" xml:space="preserve" fill="#000000" fill-rule="nonzero" stroke="#000000" stroke-width="1" stroke-linecap="butt" stroke-linejoin="miter" stroke-miterlimit="10" stroke-dasharray="" stroke-dashoffset="0" font-family="Handwriting" font-weight="normal" text-anchor="start" style="mix-blend-mode: normal"></text></g></g></svg>