<svg version="1.1" xmlns="http://www.w3.org/2000/svg" xmlns:xlink="http://www.w3.org/1999/xlink" width="159.89312" height="203.62037" viewBox="0,0,159.89312,203.62037"><defs><linearGradient x1="270.01673" y1="-41.06285" x2="270.01673" y2="275.39072" gradientUnits="userSpaceOnUse" id="color-1"><stop offset="0" stop-color="#000000"/><stop offset="1" stop-color="#000000" stop-opacity="0"/></linearGradient></defs><g transform="translate(-196.16623,-25.3956)"><g data-paper-data="{&quot;isPaintingLayer&quot;:true}" fill-rule="nonzero" stroke-linecap="butt" stroke-linejoin="miter" stroke-miterlimit="10" stroke-dasharray="" stroke-dashoffset="0" style="mix-blend-mode: normal"><path d="M341.83274,173.73572c0.12451,3.32901 -11.19974,12.51161 -70.18846,12.51161c-58.98871,0 -75.45829,-7.83841 -75.47803,-13.19731c-0.01705,-4.62661 15.26864,-10.79732 74.25735,-10.79732c58.98871,0 71.29521,8.43789 71.40913,11.48302z" fill="url(#color-1)" stroke="none" stroke-width="0"/><text transform="translate(211.03566,67.96214) scale(0.41166,0.41166)" font-size="40" xml:space="preserve" fill="#000000" fill-rule="nonzero" stroke="#000000" stroke-width="1" stroke-linecap="butt" stroke-linejoin="miter" stroke-miterlimit="10" stroke-dasharray="" stroke-dashoffset="0" font-family="Handwriting" font-weight="normal" text-anchor="start" style="mix-blend-mode: normal"></text><text transform="translate(242.16364,209.08808) scale(0.46015,0.46015)" font-size="40" xml:space="preserve" fill="#000000" fill-rule="nonzero" stroke="#000000" stroke-width="1" stroke-linecap="butt" stroke-linejoin="miter" stroke-miterlimit="10" stroke-dasharray="" stroke-dashoffset="0" font-family="Handwriting" font-weight="normal" text-anchor="start" style="mix-blend-mode: normal"></text><text transform="translate(212.9613,44.59517) scale(0.49869,0.49869)" font-size="40" xml:space="preserve" fill="#000000" fill-rule="nonzero" stroke="#000000" stroke-width="2" stroke-linecap="butt" stroke-linejoin="miter" stroke-miterlimit="10" stroke-dasharray="" stroke-dashoffset="0" font-family="Handwriting" font-weight="normal" text-anchor="start" style="mix-blend-mode: normal"></text><g stroke="none" stroke-width="1"><path d="M231.18612,96.45253c0.05974,0.92585 -0.11703,1.85332 -0.62477,2.64599c-0.61589,0.96219 -1.48363,1.71449 -2.49907,2.09144c-0.04843,-0.03713 -0.10736,-0.06457 -0.18646,-0.07184c-0.5941,-0.05166 -1.0986,-0.0775 -1.59987,0.08555c-4.56793,-0.30351 -7.90486,2.56689 -9.99146,6.78851c-1.38273,2.79289 1.01302,33.49052 1.06873,36.37948c-1.84258,-2.71128 -4.12498,-11.70638 -6.03028,-20.10821c-1.50102,-6.61896 -3.13547,-12.86973 -1.61949,-15.38982c1.71899,-2.84883 4.55084,-8.29035 8.81869,-11.64765c4.05306,-3.18833 5.50775,-4.56333 7.31796,-3.39283c0.53032,0.76603 5.28389,1.66605 5.34605,2.61935z" data-paper-data="{&quot;index&quot;:null}" fill="#4d392c"/><path d="M224.48559,93.17289c0.36647,0.22278 0.89114,0.56342 0.96056,1.03321c0.03551,0.23812 -0.10009,0.42217 -0.29463,0.56827c-1.71287,-0.00162 -3.30062,0.98236 -4.93277,1.70642c-1.79638,0.9438 -9.26533,6.55938 -9.97267,17.20695c-0.20172,3.03653 0.54745,7.44649 1.64952,11.5724c2.18603,8.18392 4.95331,16.68203 5.24935,17.27597c-0.05098,-1.53888 -2.61484,-12.93202 -2.69444,-23.65055c-0.05022,-6.76091 0.88798,-13.2534 4.06864,-16.83515c3.24977,-3.65957 9.38742,-1.94103 9.46402,-1.57724c-0.00808,0.04117 -0.01373,0.08152 -0.02099,0.12269c-0.11139,0.2688 -0.33982,0.4932 -0.56826,0.65947c-0.43105,0.31561 -0.98881,0.62881 -1.55143,0.72809c-2.29728,-0.68128 -5.03771,0.47059 -6.78609,2.55881c-5.60194,8.8291 -0.16305,42.57632 -0.06458,43.06145c-3.50914,-3.50515 -5.04661,-7.59636 -7.10302,-14.45386c-2.09252,-6.97791 -3.54652,-14.79709 -3.94183,-19.68321c1.11474,-13.07817 12.5091,-20.22105 15.17043,-20.82887c0.48674,0.10655 0.95491,0.28332 1.36819,0.53517z" data-paper-data="{&quot;index&quot;:null}" fill="#272525"/></g><path d="M306.60291,120.74453c0,0.19835 -9.31456,16.11013 -21.57257,17.89973c-10.79487,1.57599 -18.19792,-3.51261 -30.88742,-7.66503c-10.31811,-3.37643 -18.9768,-2.11877 -18.9768,-3.17175c0,-3.56642 11.15803,-6.45756 24.92216,-6.45756c13.76412,0 46.51462,-4.17181 46.51462,-0.60539z" fill="#272525" stroke="none" stroke-width="NaN"/><g><path d="M247.80847,103.69748c3.4645,5.45892 2.33049,11.00983 1.96323,22.06104c-0.23235,6.99168 -12.80694,11.08526 -12.03104,16.63641c1.61307,11.54071 1.95961,14.88229 -2.28581,16.00228c-4.75864,1.2554 -4.93865,-6.80217 -6.01,-18.31545c-0.43256,-4.64849 7.78152,-10.04613 6.60721,-15.4508c-2.20658,-10.15565 -16.67626,-8.68502 -17.86708,-22.08606" data-paper-data="{&quot;index&quot;:null}" fill="#82583e" stroke="#272525" stroke-width="2"/><path d="M243.85866,163.59533c0.44041,2.393 -0.8454,5.1041 -2.83095,6.37513c-0.71429,0.45535 -1.27867,0.15114 -1.92347,0.82007c-1.03174,1.06709 -1.06723,2.40046 -2.20023,3.24455c-1.67953,1.25819 -3.75845,1.0401 -4.26051,-0.95251c-2.03771,2.30715 -4.44872,0.71872 -5.54205,-1.56448c-0.54635,-1.11293 -0.11357,-2.34049 0.2217,-3.81703c1.07648,-4.77255 2.95498,-7.35213 3.57984,-12.09352c0.3937,-2.95722 1.77379,-5.79053 0.71679,-8.0593c1.1096,-3.23757 1.24791,-3.17079 1.84984,-3.42016c1.01645,-0.42109 3.64375,1.40861 4.10144,3.22039c0.81014,3.22556 -0.21689,6.45996 0.145,9.95789c0.16393,1.64817 2.07809,2.82814 3.31158,3.26675c1.4569,0.49977 2.49209,1.14612 2.831,3.02222z" fill="#82583e" stroke="none" stroke-width="1"/><path d="M239.47706,157.97959c4.57597,0.22797 7.74127,8.05926 3.2257,11.92193c-0.54922,0.468 -1.56517,1.36804 -2.15786,1.29777c-2.14196,3.99053 -4.72322,5.77135 -7.29831,2.86969c-1.78735,1.34859 -3.6112,1.43458 -5.03818,0.27984c-4.93282,-3.986 1.93639,-11.73199 1.93597,-17.34497c-0.00223,-2.97692 0.00813,-8.89738 0.47106,-8.05004c1.80813,3.31075 1.46438,6.8606 0.26466,11.57158c-1.26051,3.11853 -3.79587,7.61774 -1.61001,10.57c2.30976,3.12295 4.63539,-0.20922 5.0999,-3.42264c0.52541,0.09853 0.59723,2.26392 -0.25816,4.03612c0.79758,2.59281 3.53063,0.54249 4.57739,-1.68855c1.55231,-3.31454 -0.37637,-3.71821 -0.84719,-4.76948c2.44644,-0.48684 3.19142,2.23624 3.27761,3.5809c2.36315,-1.30405 2.84037,-5.75103 1.42698,-7.07899c-1.55125,-1.45874 -3.61905,-2.11949 -4.92183,-2.06773c-0.74763,-3.29656 1.85773,-8.08212 2.03118,-7.05331c0.00656,0.0389 -0.26961,2.8378 -0.17892,5.34788z" fill="#272525" stroke="none" stroke-width="1"/></g><g><path d="M293.25453,100.64478c5.23335,3.79668 11.11096,12.19946 14.84475,22.6073c6.48159,18.06729 16.78728,31.06944 11.22794,35.17074c-5.55934,4.1013 -8.03451,-13.34318 -18.75879,-29.30428c-5.796,-8.62628 -12.35311,-14.86583 -15.12582,-20.36776" data-paper-data="{&quot;index&quot;:null}" fill="#82583e" stroke="#272525" stroke-width="2"/><path d="M329.05561,160.15568c1.2918,2.06196 1.09634,5.05617 -0.28061,6.96977c-0.49606,0.68666 -1.13283,0.61201 -1.48553,1.47157c-0.56555,1.37234 -0.10684,2.62483 -0.84874,3.82724c-1.09721,1.78886 -3.11005,2.35275 -4.31151,0.68569c-1.04334,2.89596 -3.87018,2.30854 -5.72841,0.58942c-0.91824,-0.83304 -0.96864,-2.13367 -1.20146,-3.6298c-0.75927,-4.83316 0.03561,-7.92364 -1.13195,-12.56132c-0.72452,-2.894 -0.48649,-6.03655 -2.30559,-7.75566c-0.16245,-3.41859 -0.00927,-3.4075 0.45829,-3.86125c0.78954,-0.76623 3.9064,-0.03431 4.99993,1.48102c1.94247,2.6995 2.1805,6.08468 3.80676,9.20267c0.76014,1.47157 2.97453,1.86254 4.28284,1.81538c1.53851,-0.0727 2.7391,0.14637 3.74595,1.76528z" fill="#82583e" stroke="none" stroke-width="1"/><path d="M322.91197,156.55144c4.33756,-1.47548 10.16759,4.6367 7.39462,9.89227c-0.33794,0.63755 -0.95039,1.84879 -1.52723,2.00202c-0.51949,4.49917 -2.26216,7.10632 -5.72578,5.35872c-1.1641,1.91263 -2.82771,2.66513 -4.57993,2.11795c-6.05503,-1.88611 -2.52626,-11.61925 -4.59645,-16.83651c-1.09982,-2.7663 -3.27336,-8.27337 -2.5306,-7.65644c2.90155,2.41069 3.89103,5.83713 4.51304,10.65851c-0.02172,3.36358 -0.7193,8.48063 2.40116,10.41882c3.29856,2.05115 4.23157,-1.90379 3.47839,-5.06205c0.52471,-0.10216 1.38997,1.88414 1.24837,3.84687c1.6975,2.11599 3.48186,-0.79767 3.63214,-3.25748c0.22066,-3.65336 -1.72095,-3.31741 -2.54624,-4.12097c2.0945,-1.35466 3.79113,0.9018 4.3671,2.11992c1.71574,-2.08357 0.51949,-6.39314 -1.28398,-7.10633c-1.97984,-0.78392 -4.14557,-0.63559 -5.33746,-0.10708c-1.91054,-2.78855 -1.25349,-8.19759 -0.71287,-7.30524c0.02045,0.03374 0.79583,2.73725 1.80574,5.037z" fill="#272525" stroke="none" stroke-width="1"/></g><path d="M320.94503,63.345c6.96206,-1.34754 8.74677,-0.24455 11.40163,3.47524c1.15453,1.61763 2.64062,2.76722 4.2088,3.60824c2.03788,1.09294 4.2144,1.66481 5.98205,2.06561c3.12788,0.70924 10.89714,0.21277 12.30973,6.87955c1.4126,6.66679 -4.54047,6.31217 -4.54047,6.31217c0.10089,6.59587 -11.60343,5.31925 -11.60343,5.31925c-3.53148,6.73771 -15.2358,2.34047 -15.2358,2.34047c-10.077,12.13267 -13.29209,-18.7124 -13.29209,-18.7124c0,-1.91492 3.80754,-9.94061 10.76959,-11.28814z" fill="#82583e" stroke="none" stroke-width="1"/><path d="M351.24324,86.15792c5.56481,-0.27233 6.13549,-6.27416 2.59675,-9.95819c0,0 -1.66362,-2.91069 -9.21413,-3.87581c-1.93242,-0.36539 -5.37189,-1.00371 -6.02006,-1.23292c-0.34387,-0.122 -0.66432,-0.27519 -0.9872,-0.46753c-6.30824,-2.14359 -3.06653,-9.54798 -14.97266,-7.99106c-4.43221,0.57959 -7.40505,2.26896 -9.39086,4.16155c-3.34858,3.19141 -4.51887,6.96064 -4.51887,6.96064c-2.59981,5.14973 -5.03337,11.26808 1.9182,18.80539c1.05139,1.13999 2.36806,6.81454 4.51589,6.97702c3.68249,0.27856 8.68514,-5.08536 8.81603,-5.05115c3.97937,1.33739 12.52479,2.12806 15.42827,-2.82578c6.8095,1.15577 10.80753,-1.46063 11.82863,-5.50211zM351.44303,85.08769c0.02825,-0.45334 -0.43669,-2.99749 -0.89114,-3.7124c-0.15497,-0.24455 -1.05338,-0.17078 -1.06711,0.31206c-0.12996,4.6049 0.25992,8.61463 -6.51085,8.95506c-3.22071,0.16227 -8.53851,-1.36001 -11.29751,0.11349c2.62661,-0.11348 4.6002,0.49475 6.25899,0.8959c-3.51777,3.8656 -9.6028,2.97986 -14.35314,1.16706c-0.29301,0.16794 -4.28097,3.99615 -4.33101,4.03757c-2.68797,2.2287 -4.43957,3.54616 -9.62419,4.86364c-25.6299,6.51349 -9.92188,-16.43098 -5.28942,-22.0677c0.54732,-0.66596 5.73095,-4.42754 5.73095,-4.42754c0,0 0.20179,-7.09232 9.78724,-10.56756c9.58545,-3.47524 11.01095,1.66924 12.81422,3.68801c1.80328,2.01877 4.04566,3.0741 4.04566,3.0741c1.30362,0.81249 2.77757,1.41222 4.61474,1.58244c2.16005,0.26554 10.61946,1.47804 11.98121,4.32972c1.19465,2.32913 1.77986,6.90622 -1.86867,7.75616z" fill="#272525" stroke="none" stroke-width="1"/><path d="M324.15206,93.50546c0,0 -17.23444,12.59446 -19.3288,24.1867c-0.07797,0.43154 0.22877,1.06694 0.11401,1.50157c-2.54884,9.65263 -14.33499,19.60686 -23.80817,18.87569c-8.58334,-0.66249 -14.34671,-3.85743 -26.03438,-8.99346c-7.36781,-3.23771 -19.26687,0.0073 -25.33635,-3.08537c-7.1111,-3.62342 -14.78312,-18.09365 -13.57233,-26.84065c1.45064,-10.47974 49.53272,-12.51985 64.60363,-11.8117c11.45247,0.53813 24.38254,-11.31012 28.93059,-15.76" fill="#82583e" stroke="#272525" stroke-width="2"/><g stroke="none" stroke-width="1"><path d="M349.54335,83.7565c-2.9172,0.71599 -8.07033,-0.15983 -9.76625,-4.29993c-2.45307,-5.98858 11.07472,-10.31918 13.42849,-6.21137c2.37073,4.13849 -0.74585,9.79451 -3.66224,10.5113zM352.11668,74.30585c-1.48766,-2.11969 -8.94937,0.18969 -9.84616,2.72187c-1.34721,3.79462 4.89887,5.66893 7.00161,5.03124c2.10274,-0.63606 4.08925,-5.97809 2.84455,-7.75311z" fill="#272525"/><path d="M352.11668,74.30585c1.24469,1.77502 -0.74181,7.11705 -2.84455,7.75311c-2.10354,0.63768 -8.34882,-1.23662 -7.00161,-5.03124c0.8968,-2.53217 8.3585,-4.84156 9.84616,-2.72186z" fill="#205ed8"/></g><g stroke="none" stroke-width="1"><path d="M333.61328,76.49973c-0.16628,-5.317 8.0768,-6.20894 6.87811,-2.52814c-0.86451,2.65325 -4.92228,4.64379 -6.87811,2.52814z" fill="#272525"/><path d="M334.53346,76.03076c-0.12754,-1.51107 3.02698,-3.2651 4.12881,-2.88733c1.6943,0.58198 -1.57807,3.90521 -4.12881,2.88733z" fill="#ffffff"/><path d="M337.19721,73.99339c0,-0.74448 0.57173,-1.34802 1.27699,-1.34802c0.70525,0 1.27699,0.60352 1.27699,1.34802c0,0.74448 -0.57173,1.34802 -1.27699,1.34802c-0.70525,0 -1.27699,-0.60353 -1.27699,-1.34802z" fill="#272525"/></g><g stroke="none" stroke-width="1"><path d="M330.48296,76.39159c-0.92989,6.51972 -10.5904,5.13214 -8.43761,1.01465c1.55466,-2.97048 6.63596,-4.17562 8.43761,-1.01465z" fill="#272525"/><path d="M329.32545,76.68622c-0.17032,1.87673 -4.16513,3.06493 -5.35251,2.27467c-1.82426,-1.21563 2.63791,-4.27732 5.35251,-2.27467z" fill="#ffffff"/><path d="M326.48413,77.47163c0,-0.95715 0.73508,-1.73305 1.64183,-1.73305c0.90676,0 1.64183,0.77591 1.64183,1.73305c0,0.95715 -0.73508,1.73305 -1.64183,1.73305c-0.90676,0 -1.64183,-0.77592 -1.64183,-1.73305z" fill="#272525"/></g><g stroke="none" stroke-width="1"><path d="M312.48742,93.00296c-1.42471,2.17781 -4.38146,1.79923 -6.02167,-0.12592c-1.96309,-2.30454 -2.68796,-4.54611 -2.68796,-7.82817c0,-5.86992 0.69903,-11.14091 5.16201,-13.76187c2.17861,-1.26246 4.03517,-0.31481 6.238,0.88468c1.20918,0.66271 2.3667,1.01061 2.68797,2.52491c0.29705,1.48363 -0.64334,2.33602 -1.39725,3.53551c-3.06573,4.79796 -0.80559,9.97451 -3.98109,14.77087z" fill="#82583e"/><path d="M317.70755,75.64342c0.50287,1.54417 -1.46909,3.59767 -1.7726,4.99493c-0.86127,3.96251 -0.61104,6.93785 -2.18669,10.8471c-0.77167,1.91143 -2.15118,3.95849 -4.17965,3.94719c-2.56931,-0.01614 -5.54544,-3.45721 -6.17021,-6.24608c-1.14218,-5.10389 0.23086,-15.70882 5.13538,-18.06504c0.96783,-0.43265 1.5022,-0.54324 2.29485,-0.53598c0.98963,-0.03955 3.57265,-0.01292 5.74885,2.59674c-0.78702,0.27767 -4.73016,-2.46275 -7.63041,-0.82172c-4.6333,2.62258 -6.08625,16.44579 -1.56676,20.23638c0.95814,0.80396 2.7259,1.20756 3.75345,0.38341c4.38066,-3.50968 2.07449,-17.94234 6.5738,-17.33694z" fill="#272525"/></g><g><path d="M289.16429,101.76751c3.15615,5.64283 4.96354,15.7367 3.98345,26.75049c-1.70139,19.1192 2.19433,35.24638 -4.57313,36.63515c-6.76745,1.38876 -2.31261,-15.22736 -5.34614,-34.21587c-1.63948,-10.26247 -12.42218,-14.09101 -12.62918,-20.24864" data-paper-data="{&quot;index&quot;:null}" fill="#82583e" stroke="#272525" stroke-width="2"/><path d="M296.67696,170.8097c0.3069,2.41375 -1.12741,5.04932 -3.18044,6.20817c-0.73846,0.41501 -1.28508,0.07993 -1.96604,0.71204c-1.08937,1.00817 -1.19883,2.33752 -2.37692,3.11742c-1.74678,1.16303 -3.8104,0.82988 -4.20108,-1.18753c-2.16263,2.1905 -4.48175,0.47065 -5.44667,-1.8697c-0.48373,-1.14154 0.0165,-2.34318 0.43324,-3.79883c1.33972,-4.70543 3.35849,-7.17676 4.24557,-11.87616c0.55724,-2.93081 2.09245,-5.68315 1.16302,-8.00708c1.28759,-3.17099 1.42198,-3.09664 2.03683,-3.3122c1.03826,-0.36402 3.55995,1.60867 3.91636,3.44307c0.62984,3.26555 -0.57512,6.43795 -0.40794,9.95058c0.07219,1.65472 1.9179,2.93912 3.12516,3.44552c1.42691,0.57985 2.42463,1.28267 2.65891,3.17469z" fill="#82583e" stroke="none" stroke-width="1"/><path d="M292.6138,164.95942c4.55627,0.48162 7.28201,8.47653 2.55899,12.08259c-0.57434,0.4368 -1.63868,1.27904 -2.22656,1.176c-2.36015,3.86549 -5.03628,5.5003 -7.44635,2.46017c-1.85945,1.2473 -3.68527,1.23193 -5.04594,-0.00024c-4.70396,-4.25366 2.58459,-11.60641 2.89574,-17.21076c0.16302,-2.97246 0.50198,-8.8832 0.91716,-8.01148c1.62157,3.40601 1.08132,6.93131 -0.37803,11.56844c-1.43166,3.04376 -4.21284,7.39529 -2.19422,10.46435c2.13284,3.24634 4.63986,0.04839 5.28201,-3.1343c0.51913,0.12754 0.47065,2.29357 -0.4818,4.01557c0.65244,2.63309 3.49509,0.73762 4.66405,-1.43188c1.73388,-3.22327 -0.16941,-3.73339 -0.58114,-4.80915c2.46968,-0.35029 3.06238,2.40993 3.0738,3.7573c2.43188,-1.17087 3.15522,-5.58451 1.81771,-6.98888c-1.46787,-1.5426 -3.49583,-2.31709 -4.79948,-2.33774c-0.56348,-3.33297 2.30347,-7.96656 2.41956,-6.92969c0.00439,0.03921 -0.42673,2.81847 -0.4755,5.32973z" fill="#272525" stroke="none" stroke-width="1"/></g><g><path d="M243.13424,114.38369c1.15605,6.3613 -1.98314,11.07767 -6.48135,21.17868c-2.84586,6.39052 -16.03666,5.45219 -17.40636,10.88738c-2.84757,11.29963 -3.78374,14.52604 -8.13861,13.96642c-4.88131,-0.62726 -2.01648,-8.16048 1.32267,-19.23087c1.34819,-4.46967 10.98952,-6.38019 11.93497,-11.82956c1.77655,-10.23962 -12.18321,-14.32121 -8.24448,-27.18558" data-paper-data="{&quot;index&quot;:null}" fill="#82583e" stroke="#272525" stroke-width="2"/><path d="M216.9385,168.39421c-0.49231,2.38286 -2.70367,4.41099 -5.02153,4.84156c-0.83314,0.15314 -1.24158,-0.34106 -2.0907,0.03612c-1.35741,0.60049 -1.89197,1.82253 -3.25929,2.17831c-2.0295,0.53382 -3.87361,-0.45042 -3.58908,-2.4855c-2.75603,1.37094 -4.39224,-1.00792 -4.5462,-3.53469c-0.08748,-1.23671 0.77537,-2.21125 1.64154,-3.45313c2.79301,-4.01685 5.50404,-5.70011 7.8669,-9.858c1.47741,-2.5918 3.8221,-4.69767 3.69638,-7.19743c2.24619,-2.5822 2.34919,-2.46828 3.00072,-2.47285c1.1002,-0.00773 2.84604,2.67604 2.58842,4.5269c-0.463,3.29335 -2.63148,5.90367 -3.61226,9.28074c-0.46823,1.58873 0.86133,3.40219 1.83917,4.27269c1.16182,1.01119 1.87775,1.99953 1.4859,3.86528z" fill="#82583e" stroke="none" stroke-width="1"/><path d="M214.99172,161.54253c4.15397,1.9329 4.14022,10.37968 -1.49687,12.25957c-0.68494,0.22698 -1.96487,0.67863 -2.48758,0.39053c-3.486,2.89141 -6.54759,3.5702 -7.84175,-0.08712c-2.16341,0.57702 -3.88561,-0.02952 -4.77326,-1.6363c-3.07065,-5.54907 6.20818,-10.14138 8.31966,-15.34207c1.11797,-2.75902 3.35512,-8.24055 3.46523,-7.28131c0.42963,3.74778 -1.22448,6.90745 -4.10852,10.82089c-2.34122,2.41512 -6.38307,5.62982 -5.46861,9.18759c0.96504,3.76251 4.37351,1.55019 6.01291,-1.25236c0.44972,0.28897 -0.29845,2.32227 -1.75776,3.64242c-0.23654,2.70238 3.0671,1.831 4.87636,0.15773c2.6853,-2.48694 1.05024,-3.58662 1.00954,-4.73778c2.44984,0.46939 2.11555,3.27267 1.68949,4.55096c2.68014,-0.31911 4.79547,-4.25978 3.98554,-6.02195c-0.88842,-1.93519 -2.55568,-3.32538 -3.78222,-3.76761c0.54763,-3.3356 4.76207,-6.7893 4.5357,-5.77081c-0.00856,0.03852 -1.31753,2.52784 -2.17788,4.88762z" fill="#272525" stroke="none" stroke-width="1"/></g><path d="M220.90436,98.89508c0.91769,0.22842 1.06518,12.48114 -2.99918,11.15898c-2.31614,-0.75345 -2.54048,0.9656 -3.11014,2.24872c-0.32913,0.74133 -1.48607,-2.15909 -1.35652,-5.24993c0.10726,-2.5586 1.53806,-5.4783 2.00809,-6.34008c0.72286,-1.32536 1.66119,-2.95646 2.85483,-3.28484c0.69907,-0.19232 2.07157,1.3349 2.60292,1.46716z" fill="#82583e" stroke="none" stroke-width="0"/><path d="M299.9086,81.01939c0.00482,0.04127 1.00552,10.38944 -0.98053,11.97846c-1.41542,1.13247 -5.9367,-6.68568 -6.21039,-5.43658c-0.79911,3.64709 -0.83729,9.67887 -2.43479,10.28937c-1.71454,0.65524 -5.97239,-7.75239 -7.47569,-6.16622c-3.04646,3.21437 -3.05552,9.83212 -4.09966,10.06601c-1.5402,0.34499 -3.87293,-10.43575 -6.05381,-8.66859c-1.82941,1.48238 -4.07657,12.07528 -6.10389,12.61253c-2.00657,0.53176 -5.07416,-11.71561 -6.92298,-10.86369c-2.11209,0.97325 -1.02413,18.48022 -4.18616,18.5933c-3.63776,0.13008 -6.52615,-16.95569 -10.24726,-16.71961c-3.86864,0.24545 -5.21067,12.93236 -7.63351,12.85549c-2.90212,-0.09208 -2.85584,-13.06907 -5.04217,-12.38007c-2.70445,0.85227 -4.94963,10.55624 -6.82437,10.14948c-2.41116,-0.52313 -4.83916,-11.7444 -4.77145,-12.13052c0.00858,-0.04897 4.10289,-1.89105 10.77102,-3.35785c5.40315,-1.18854 13.1561,-2.10571 20.1922,-2.76729c5.95264,-0.55969 11.13206,-0.99549 16.1933,-1.031c6.20983,-0.04356 12.1058,0.3115 17.36581,-0.72236c11.24039,-2.20933 14.34763,-7.29841 14.46436,-6.30081z" fill="#4d392c" stroke="none" stroke-width="0"/><text transform="translate(268.16667,224.02409) scale(0.29364,0.29364)" font-size="40" xml:space="preserve" fill="#000000" fill-rule="nonzero" stroke="none" stroke-width="1" stroke-linecap="butt" stroke-linejoin="miter" stroke-miterlimit="10" stroke-dasharray="" stroke-dashoffset="0" font-family="Handwriting" font-weight="normal" text-anchor="start" style="mix-blend-mode: normal"></text></g></g></svg>