<svg version="1.1" xmlns="http://www.w3.org/2000/svg" xmlns:xlink="http://www.w3.org/1999/xlink" width="110.24164" height="163.92609" viewBox="0,0,110.24164,163.92609"><defs><linearGradient x1="239.5" y1="81.75" x2="239.5" y2="179.75001" gradientUnits="userSpaceOnUse" id="color-1"><stop offset="0" stop-color="#006bff"/><stop offset="1" stop-color="#2e005a"/></linearGradient><linearGradient x1="240.76949" y1="58.29923" x2="240.76949" y2="237.16744" gradientUnits="userSpaceOnUse" id="color-2"><stop offset="0" stop-color="#000000"/><stop offset="1" stop-color="#000000" stop-opacity="0"/></linearGradient></defs><g transform="translate(-184.87917,-43.64971)"><g data-paper-data="{&quot;isPaintingLayer&quot;:true}" fill-rule="nonzero" stroke-linecap="butt" stroke-linejoin="miter" stroke-miterlimit="10" stroke-dasharray="" stroke-dashoffset="0" style="mix-blend-mode: normal"><path d="M214.75,179.75001v-98h49.5v98z" fill="url(#color-1)" stroke="none" stroke-width="0"/><path d="M295.12005,179.70931c0.09422,1.88165 -8.47599,7.07192 -53.11886,7.07192c-44.64286,0 -57.10709,-4.43047 -57.12201,-7.45949c-0.0129,-2.6151 11.55535,-6.10294 56.19819,-6.10294c44.64286,0 53.95646,4.76932 54.04268,6.49051z" fill="url(#color-2)" stroke="none" stroke-width="0"/><text transform="translate(222.62807,202.72802) scale(0.28942,0.28942)" font-size="40" xml:space="preserve" fill="#000000" fill-rule="nonzero" stroke="#000000" stroke-width="0.5" stroke-linecap="butt" stroke-linejoin="miter" stroke-miterlimit="10" stroke-dasharray="" stroke-dashoffset="0" font-family="Handwriting" font-weight="normal" text-anchor="start" style="mix-blend-mode: normal"></text><text transform="translate(188.80192,65.50207) scale(0.23622,0.23622)" font-size="40" xml:space="preserve" fill="#000000" fill-rule="nonzero" stroke="#000000" stroke-width="1" stroke-linecap="butt" stroke-linejoin="miter" stroke-miterlimit="10" stroke-dasharray="" stroke-dashoffset="0" font-family="Handwriting" font-weight="normal" text-anchor="start" style="mix-blend-mode: normal"></text><text transform="translate(203.99341,52.66939) scale(0.23736,0.23736)" font-size="40" xml:space="preserve" fill="#000000" fill-rule="nonzero" stroke="#000000" stroke-width="1" stroke-linecap="butt" stroke-linejoin="miter" stroke-miterlimit="10" stroke-dasharray="" stroke-dashoffset="0" font-family="Handwriting" font-weight="normal" text-anchor="start" style="mix-blend-mode: normal"></text><path d="M214.25,180.33334l0.58334,-80.66667l12.65044,2.54651l6.01512,22.29643l6.2175,46.80412l2.36313,-36.12784l8.68694,-32.7343l13.60643,-2.27598l-0.1229,80.15774z" fill="#000000" stroke="none" stroke-width="0"/><path d="M214.5,120.08334v-20.66667l13,2l5.66666,22l2.8356,22.05398z" fill="#2a004d" stroke="none" stroke-width="0"/><path d="M242.00227,134.75l9.33334,-32.33334l13,-2l-0.33333,23.00001z" data-paper-data="{&quot;index&quot;:null}" fill="#2a004d" stroke="none" stroke-width="0"/><path d="M224.16667,106.75l-9.66666,-7l12.91666,1.33334l6.08334,23z" fill="#46007f" stroke="none" stroke-width="0"/><path d="M244.75,124.83334l6.33334,-22.5l12.91666,-1.83334z" data-paper-data="{&quot;index&quot;:null}" fill="#46007f" stroke="none" stroke-width="0"/><g stroke="none" stroke-width="1"><path d="M232.54768,91.57992c0.08596,0.08629 0.17622,0.17505 0.22473,0.27502c0.03721,0.24682 -0.17711,0.15586 -0.40351,0.01823c0.00337,0.16755 0.17869,0.3566 -0.09271,0.42663c-0.32453,-0.06285 -0.34339,-0.38 -0.54275,-0.54424c-0.02227,0.05691 -0.0386,0.18434 -0.15572,0.1631c-0.28603,-0.05195 -0.43664,-0.40949 -0.30486,-0.5617c-0.1832,-0.13808 -0.39935,-0.25951 -0.50849,-0.44049c0.13389,-0.10306 0.34012,-0.13411 0.49616,-0.21453c0.33057,0.12365 0.28312,0.3188 0.70814,0.31337c0.27239,-0.00341 0.79174,0.3077 0.8605,0.52557c0.0155,0.04986 -0.10298,0.09007 -0.28149,0.03904z" fill="#272525"/><path d="M232.54092,91.42723c-0.17442,0.0386 -0.39421,-0.18017 -0.54784,-0.08537c0.36084,0.16326 0.496,0.31177 0.58142,0.48135c-0.21911,-0.09956 -0.3685,-0.27616 -0.60038,-0.3634c0.13968,0.1681 0.22322,0.42276 0.25143,0.6334c-0.18717,-0.08477 -0.339,-0.51099 -0.55877,-0.68692c-0.16562,0.04018 -0.09773,0.228 -0.1073,0.33798c-0.31209,0.01339 -0.17653,-0.3641 -0.04963,-0.44093c-0.14832,-0.14682 -0.3517,-0.25689 -0.48702,-0.41154l0.18023,-0.06665c0.13263,0.07211 0.3588,0.31648 0.46507,0.34679c0.32302,0.0927 0.58732,-0.01877 0.8728,0.25528z" fill="#7300a6"/><path d="M222.76147,86.04434c-0.02019,0.23723 -0.23332,0.36881 -0.53491,0.43247c-0.41648,0.09813 -0.79575,0.25236 -1.1331,0.42864c-0.18871,0.11288 -0.37015,0.24125 -0.50587,0.3797l-0.01486,0.00845c-0.22265,-0.41616 -0.70937,-0.86457 -1.19533,-0.9552c0.31738,-0.15173 0.75914,-0.23642 0.44767,-0.88988c0.89634,0.29796 1.75493,0.4066 2.56568,0.31862c0.16876,0.02701 0.3398,0.14341 0.37071,0.2772z" fill="#272525"/><path d="M227.19389,87.96236c0.13956,-0.14742 0.21284,-0.34023 0.54998,-0.26828c0.32201,0.06869 1.96485,0.9821 2.05223,1.22293c0.04096,0.11329 -0.03541,0.28796 -0.11627,0.36624c0.03079,0.06446 0.11027,0.10419 0.17205,0.15192c0.13734,-0.07207 0.21575,-0.20713 0.3439,-0.29386c0.33317,-0.22553 0.72076,-0.49766 1.26589,-0.3246c0.52381,0.1663 1.08259,0.5073 1.1523,0.97287c0.05949,0.39491 -0.35702,0.67303 -0.65505,0.90817c-0.14464,0.11425 -0.59003,0.2393 -0.82337,0.14618c-0.08912,0.12801 -0.18814,0.26626 -0.3891,0.30165c0.30588,0.46782 0.73425,0.88941 1.08481,1.34097c0.59373,0.09529 1.23772,0.84258 0.76878,0.87303c-0.10987,0.00718 -0.22169,-0.09772 -0.32707,-0.12597c0.0749,0.15075 0.18933,0.3447 0.04332,0.46118c-0.21672,-0.00216 -0.38827,-0.0657 -0.47748,-0.24911c-0.09046,0.11618 -0.15011,0.25631 -0.37926,0.03911c-0.17364,-0.16471 -0.10527,-0.35809 -0.35986,-0.67679c-0.07869,-0.09871 -0.06298,-0.33824 -0.07739,-0.44974c-0.46086,-0.38552 -0.94392,-0.75861 -1.35729,-1.1741c-0.17541,-0.17656 -0.47869,-0.53121 -0.65787,-0.83328c-0.1775,-0.04096 -0.53917,-0.10675 -0.67037,-0.13003c-0.02209,0.06472 -0.00057,0.12523 -0.11987,0.10806c-0.11709,-0.01647 -0.4412,-0.10885 -0.54869,-0.1608l-0.01848,-0.13427c-0.59134,-0.23113 -1.17684,-0.48553 -1.71508,-0.8013c-0.53994,0.15403 -1.19158,0.09017 -1.7946,-0.06929c-0.65863,-0.17434 -2.05242,-0.67384 -2.55159,-1.07572c-0.098,-0.07904 -0.02334,-0.44111 0.00856,-0.43142c0.193,0.05839 0.46097,0.23069 0.65885,0.31554c0.62135,0.26667 1.39215,0.50783 2.05815,0.54703c0.38324,0.0226 0.83596,-0.01499 1.15565,-0.13356c-0.3572,-0.12868 -0.94805,-0.44643 -1.0938,-0.53233c-0.50727,-0.2993 -0.97015,-0.65159 -1.39116,-1.0228c-0.15579,-0.13724 -0.48901,-0.48301 -0.48901,-0.48301c0.0456,-0.15411 0.14855,-0.41875 0.18547,-0.41057c0.00807,0.00179 0.6333,0.43019 0.88851,0.59213c0.79193,0.50203 2.69292,1.38471 3.6242,1.43385z" fill="#272525"/><path d="M222.50466,86.0248c-0.31944,0.50552 -1.24826,0.19725 -1.79469,0.97143c-0.20516,-0.12956 -0.39121,-0.46857 -0.85999,-0.62514c0.157,-0.15284 0.42994,-0.35322 0.33598,-0.59525c0.29953,0.08579 0.79212,0.24096 1.14932,0.21622c0.37997,-0.02637 0.72907,-0.17689 1.1418,-0.07354c0.0002,0.00006 0.06324,0.04277 0.02758,0.10628z" fill="#4ea9f7"/><path d="M227.94796,88.95913c-0.10783,0.29851 -0.28849,0.57258 -0.31514,0.89642c-0.29989,-0.11292 -1.32406,-0.65989 -1.55748,-0.77783c-0.08648,-0.04384 -0.13724,-0.00704 -0.22044,0.00086c-1.23379,0.1154 -3.07879,-0.37393 -4.17819,-1.03854l0.00343,-0.24233c1.09505,0.59151 2.84647,1.28634 3.91992,0.73494c0.09311,-0.04782 0.27016,-0.14038 0.17288,-0.25517c-1.0477,-0.27516 -2.57931,-1.2199 -3.1299,-1.99012l0.09428,-0.14286c0.92475,0.79005 3.64544,2.00956 4.36253,1.9607c-0.19093,0.32316 0.40419,0.5919 0.84812,0.85394z" fill="#7300a6"/><path d="M231.86563,90.47695c0,0 -1.15501,-1.18051 -1.3034,-1.2947c0.43235,-0.45008 1.54241,-0.0659 1.78655,0.50574c0.14018,0.32832 -0.2355,0.61907 -0.48315,0.78895z" fill="#7300a6"/><path d="M229.51955,88.83585c0.15323,0.11495 -0.01941,0.46108 -0.23145,0.42918c-0.18117,-0.0273 -0.34984,-0.11107 -0.51689,-0.18181c0.02354,-0.05463 0.08566,-0.09689 0.06908,-0.15972c-0.14086,-0.11556 -0.37714,-0.19943 -0.5379,-0.29032c-0.06988,0.00881 -0.13528,0.04118 -0.1872,0.06909c-0.2472,-0.08745 -0.46622,-0.24553 -0.68462,-0.38571c0.10924,-0.15128 0.20414,-0.31598 0.38497,-0.42251c0.55698,0.24767 1.16379,0.65949 1.70401,0.9418z" fill="#ff66f7"/><path d="M230.68781,89.5189c-0.22728,0.08968 -0.20417,0.03503 -0.3634,-0.14647c0.03401,-0.03215 0.07187,-0.07924 0.13166,-0.08661c0.0107,0.02487 0.21123,0.21052 0.23174,0.23308z" fill="#4ea9f7"/><path d="M228.56775,88.9521c-0.24747,0.34506 -0.44248,0.75814 -0.46652,1.18044c-0.06494,-0.00291 -0.13026,-0.00671 -0.19599,-0.01794c0.00241,-0.31792 0.1753,-1.09855 0.45286,-1.29116c0.07977,0.02975 0.15242,0.07462 0.20965,0.12866z" fill="#4ea9f7"/><path d="M230.4069,89.6335c-0.04361,0.04671 -0.32596,0.20004 -0.13596,0.46625c-0.11788,0.00973 -0.24659,0.15539 -0.35539,0.00229c-0.05777,-0.03074 -0.12233,-0.0188 -0.15253,0.0181c0.00282,0.01274 0.00553,0.0457 0.01236,0.05695c0.13378,0.21493 1.4991,1.92302 2.02907,2.4911c0.19686,0.04589 0.85066,0.37456 0.71527,0.55938c-0.15633,-0.05395 -0.56937,-0.43458 -0.67078,-0.37246c0.03648,0.20552 0.45953,0.45107 0.3019,0.66725c-0.26076,-0.04404 -0.28037,-0.50876 -0.54801,-0.58587l-0.03444,0.05094c0.04574,0.13939 0.15526,0.30068 0.07255,0.42629c-0.18196,-0.16603 -0.17447,-0.37197 -0.2677,-0.55776c-0.03757,-0.07447 -0.09731,-0.122 -0.14378,-0.18866c-0.05202,-0.07463 0.01021,-0.27205 -0.02467,-0.32674c-0.15042,-0.23505 -1.08647,-0.95186 -1.39141,-1.30094c-0.25124,-0.28776 -0.52316,-0.57211 -0.69049,-0.88813c-0.25221,-0.06645 -0.50994,-0.06913 -0.76039,-0.14842c0.0124,-0.24966 0.09181,-0.54059 0.25293,-0.73884c0.24748,0.07436 0.47202,0.20077 0.72336,0.26507c0.10546,-0.03128 0.19654,-0.08527 0.26762,-0.14982c0.13022,0.08772 0.22357,0.20337 0.36273,0.28352c0.10067,-0.05139 0.16997,-0.12813 0.25146,-0.1948c0.05528,0.06017 0.14312,0.09835 0.18629,0.1653z" fill="#7300a6"/><path d="M231.10991,90.69387c-0.16013,-0.22363 0.09789,-0.50047 0.09789,-0.50047c0,0 -0.56609,0.10565 -0.70012,-0.04958c-0.16512,-0.23894 0.12748,-0.39212 0.36212,-0.44747c0.11312,0.06104 0.77836,0.78674 0.79484,0.86802c0.01857,0.08969 -0.38532,0.29322 -0.55474,0.12951z" fill="#ffffff"/><path d="M230.85851,90.5607c-0.10509,-0.0731 -0.15299,-0.17255 -0.22283,-0.26114c0.10048,0.04961 0.18804,0.02416 0.28191,0.03636z" fill="#7300a6"/><path d="M230.41003,90.25892c0.16871,0.18197 0.28295,0.39988 0.54059,0.51267c-0.02224,0.10806 -0.16636,0.17743 -0.29676,0.20256c-0.15709,-0.21824 -0.30899,-0.45243 -0.46428,-0.65681c0.03032,-0.05679 0.14007,-0.07508 0.22045,-0.05842z" fill="#4ea9f7"/><path d="M218.85416,88.77525c0.53985,-0.31799 0.25033,-0.76689 -0.35845,-1.04805l-0.07397,-0.03688c0.0182,-0.05001 0.14256,-0.03344 0.20294,-0.04195c0.53488,-0.07604 0.48662,-0.36301 0.33584,-0.73045l0.0452,-0.00779c0.48624,0.32926 1.05909,0.76716 1.70019,0.7523c0.23373,-0.00539 0.74844,-0.25465 0.96727,-0.00286c0.63107,0.72592 -1.65583,1.47301 -2.81902,1.11569z" fill="#272525"/><path d="M219.32026,88.73283c0.00452,-0.05502 0.04472,-0.07358 0.0784,-0.11237c0.27231,-0.31382 -0.13304,-0.61685 -0.46108,-0.85936c0.21862,-0.05125 0.44908,-0.15165 0.38614,-0.369c0.84597,0.78297 1.87636,0.25143 2.13124,0.35792c0.00848,0.02107 0.02813,0.05575 0.03092,0.07623c0.03156,0.23252 -0.5171,0.49911 -0.72798,0.5971c-0.39597,0.18379 -0.94934,0.28009 -1.43765,0.30948z" fill="#4ea9f7"/><path d="M230.74433,89.92106c0.05662,-0.03505 0.13704,-0.03243 0.1794,0.0057c0.04256,0.0382 0.03096,0.09739 -0.02583,0.13227c-0.05672,0.03501 -0.13714,0.0324 -0.17946,-0.00583c-0.04266,-0.03823 -0.03116,-0.09745 0.0259,-0.13214z" fill="#272525"/><path d="M231.239,90.42635c0.05362,-0.03744 0.13325,-0.03828 0.17796,-0.00128c0.0445,0.0366 0.03689,0.09684 -0.01673,0.13428c-0.05365,0.03754 -0.13338,0.03835 -0.17799,0.00139c-0.04457,-0.03673 -0.03689,-0.09684 0.01676,-0.13438z" fill="#272525"/><path d="M229.60772,91.12366c-0.2104,0.06338 -0.48862,0.04014 -0.77882,-0.07889c-0.42989,-0.17865 -0.64251,-0.52566 -0.55521,-0.8505c0.14725,-0.54679 0.8197,-0.63218 0.87061,-1.20956c0.17792,-0.12738 0.52147,0.02375 0.48937,0.22421c-0.03842,0.27129 -0.08627,0.45513 -0.30049,0.64769c-0.22858,0.20328 -0.70798,0.43021 -0.47593,0.69926c0.08011,0.09251 0.15381,0.14835 0.4323,0.13724c0.2193,0.12862 0.53208,0.36618 0.31816,0.43054z" fill="#272525"/><path d="M229.29148,89.05457c0.11447,-0.05409 0.16755,-0.00614 0.15964,0.09651c-0.01723,0.22931 -0.10216,0.39817 -0.28371,0.56103c-0.21848,0.19619 -0.7733,0.59168 -0.47943,0.94322c0.12931,0.1544 0.42478,0.15013 0.63061,0.14685c0.05704,0.08707 0.05605,0.07624 0.14724,0.16906c-0.59143,0.17885 -1.21111,-0.25067 -1.08069,-0.74413c0.1293,-0.48818 0.88583,-0.47437 0.90635,-1.17254z" fill="#ff9991"/></g></g></g></svg>