<svg version="1.1" xmlns="http://www.w3.org/2000/svg" xmlns:xlink="http://www.w3.org/1999/xlink" width="100.73606" height="174.49084" viewBox="0,0,100.73606,174.49084"><defs><linearGradient x1="240.61948" y1="58.29924" x2="240.61948" y2="237.16744" gradientUnits="userSpaceOnUse" id="color-1"><stop offset="0" stop-color="#000000"/><stop offset="1" stop-color="#000000" stop-opacity="0"/></linearGradient><radialGradient cx="238.83136" cy="126.85244" r="186.12172" gradientUnits="userSpaceOnUse" id="color-2"><stop offset="0" stop-color="#30ffff" stop-opacity="0"/><stop offset="1" stop-color="#30ffff"/></radialGradient></defs><g transform="translate(-189.1414,-34.6111)"><g data-paper-data="{&quot;isPaintingLayer&quot;:true}" fill-rule="nonzero" stroke-linecap="butt" stroke-linejoin="miter" stroke-miterlimit="10" stroke-dasharray="" stroke-dashoffset="0" style="mix-blend-mode: normal"><path d="M284.37023,179.70932c0.07585,1.88165 -6.82295,7.07192 -42.75929,7.07192c-35.93634,0 -45.96971,-4.43047 -45.98172,-7.45949c-0.01038,-2.6151 9.30175,-6.10294 45.23807,-6.10294c35.93634,0 43.43354,4.76932 43.50294,6.49051z" fill="url(#color-1)" stroke="none" stroke-width="0"/><text transform="translate(223.57587,204.25415) scale(0.28942,0.28942)" font-size="40" xml:space="preserve" fill="#ffffff" fill-rule="nonzero" stroke="#ffffff" stroke-width="0.5" stroke-linecap="butt" stroke-linejoin="miter" stroke-miterlimit="10" stroke-dasharray="" stroke-dashoffset="0" font-family="Handwriting" font-weight="normal" text-anchor="start" style="mix-blend-mode: normal"></text><text transform="translate(224.91899,46.12358) scale(0.30296,0.30296)" font-size="40" xml:space="preserve" fill="#ffffff" fill-rule="nonzero" stroke="#ffffff" stroke-width="1" stroke-linecap="butt" stroke-linejoin="miter" stroke-miterlimit="10" stroke-dasharray="" stroke-dashoffset="0" font-family="Handwriting" font-weight="normal" text-anchor="start" style="mix-blend-mode: normal"></text><text transform="translate(198.43814,64.47373) scale(0.23622,0.23622)" font-size="40" xml:space="preserve" fill="#ffffff" fill-rule="nonzero" stroke="#ffffff" stroke-width="1" stroke-linecap="butt" stroke-linejoin="miter" stroke-miterlimit="10" stroke-dasharray="" stroke-dashoffset="0" font-family="Handwriting" font-weight="normal" text-anchor="start" style="mix-blend-mode: normal"></text><g stroke="none" stroke-width="0"><path d="M285.1321,129.35032c0,24.84838 -20.44879,44.99195 -45.67365,44.99195c-25.22486,0 -45.67365,-20.14358 -45.67365,-44.99195c0,-24.84836 20.44879,-44.99195 45.67365,-44.99195c25.22486,0 45.67365,20.14359 45.67365,44.99196z" fill="#ffe49a"/><path d="M239.62457,137.1436c0,10.66723 -10.66883,20.52664 -21.58705,20.52664c-10.91822,0 -21.28407,-11.0713 -21.28407,-21.73853c0,-10.66723 7.33609,-19.92069 18.25432,-19.92069c10.91822,0 24.61681,10.46536 24.61681,21.13259z" fill="#f2d585"/><path d="M276.96638,113.66295c0,11.29471 -7.33832,25.29851 -18.63304,25.29851c-11.29471,0 -21.66279,-13.39783 -21.66279,-24.69254c0,-11.29471 9.15617,-20.45089 20.45089,-20.45089c11.29471,0 19.84494,8.55022 19.84494,19.84494z" fill="#f2d585"/><path d="M257.27292,132.4987c0,5.74457 -8.14392,10.40147 -14.24201,10.40147c-6.09808,0 -11.04156,-4.65689 -11.04156,-10.40147c0,-5.74456 3.02321,-12.32174 9.12129,-12.32174c6.09808,0 16.16227,6.57716 16.16227,12.32174z" fill="#f2d585"/><path d="M267.87708,147.74776c0,3.51391 -1.09855,8.18036 -4.69612,8.18036c-3.59758,0 -8.33184,-4.66645 -8.33184,-8.18036c0,-3.51391 2.91641,-6.36249 6.51398,-6.36249c3.59758,0 6.51398,2.84858 6.51398,6.36249z" fill="#f2d585"/><path d="M229.70209,110.17872c0,5.35453 -5.08231,6.96845 -10.60416,6.96845c-5.52186,0 -9.99822,-4.3407 -9.99822,-9.69523c0,-5.35453 4.47636,-9.69523 9.99822,-9.69523c5.52186,0 10.60416,7.0675 10.60416,12.42202z" fill="#f2d585"/><path d="M289.87708,129.51333c-0.08475,20.35726 -16.35076,48.516 -48.79014,48.62345c-29.10976,0.44388 -50.64311,-21.16073 -51.91144,-46.72996c-0.97792,-27.78912 19.15149,-50.51166 50.78596,-50.90172c30.11969,-1.42226 50.01639,24.80487 49.91562,49.00824z" fill="url(#color-2)"/></g></g></g></svg>