<svg version="1.1" xmlns="http://www.w3.org/2000/svg" xmlns:xlink="http://www.w3.org/1999/xlink" width="155.74597" height="206.59349" viewBox="0,0,155.74597,206.59349"><defs><linearGradient x1="240.81083" y1="58.90758" x2="240.81083" y2="236.88173" gradientUnits="userSpaceOnUse" id="color-1"><stop offset="0" stop-color="#000000"/><stop offset="1" stop-color="#000000" stop-opacity="0"/></linearGradient></defs><g transform="translate(-148.49033,-14.06738)"><g data-paper-data="{&quot;isPaintingLayer&quot;:true}" fill-rule="nonzero" stroke-linecap="butt" stroke-linejoin="miter" stroke-miterlimit="10" stroke-dasharray="" stroke-dashoffset="0" style="mix-blend-mode: normal"><path d="M298.08295,179.71075c0.0993,1.87224 -8.93162,7.03656 -55.97417,7.03656c-47.04255,0 -60.17678,-4.40834 -60.19251,-7.42219c-0.01359,-2.60202 12.17649,-6.07244 59.21904,-6.07244c47.04255,0 56.8568,4.74549 56.94764,6.45807z" fill="url(#color-1)" stroke="none" stroke-width="0"/><text transform="translate(222.76854,212.83832) scale(0.46015,0.46015)" font-size="40" xml:space="preserve" fill="#000000" fill-rule="nonzero" stroke="#000000" stroke-width="1" stroke-linecap="butt" stroke-linejoin="miter" stroke-miterlimit="10" stroke-dasharray="" stroke-dashoffset="0" font-family="Handwriting" font-weight="normal" text-anchor="start" style="mix-blend-mode: normal"></text><text transform="translate(201.8843,33.0176) scale(0.49869,0.49869)" font-size="40" xml:space="preserve" fill="#000000" fill-rule="nonzero" stroke="#000000" stroke-width="1" stroke-linecap="butt" stroke-linejoin="miter" stroke-miterlimit="10" stroke-dasharray="" stroke-dashoffset="0" font-family="Handwriting" font-weight="normal" text-anchor="start" style="mix-blend-mode: normal"></text><g stroke="none"><g stroke-width="1"><g fill="#ffb68a" opacity="0.9"><path d="M230.48222,141.38073c-5.00358,-5.16421 -14.02427,0.37008 -18.89163,2.98735c-2.92933,1.57706 -5.74706,3.20967 -8.76595,4.57507c-2.08315,0.94011 -4.53407,1.94778 -6.84233,1.66193c-5.35257,-0.71532 -21.48364,-6.57361 -20.08212,4.37185c0.42966,3.44416 3.21114,6.5832 2.74911,10.14041c-0.38494,3.01079 -3.38229,3.94136 -6.03582,3.84565c-3.36707,-0.11676 -6.89222,-1.3704 -9.70479,-3.16041c-2.05351,-1.24506 -4.59935,-3.51492 -3.90167,-6.20294c0.27677,-1.11534 2.07213,-0.86206 1.79536,0.25329c-0.8303,3.34602 4.85944,5.62155 7.17969,6.38675c2.46535,0.86529 9.16841,2.44783 8.8594,-2.1337c-0.25152,-3.57826 -2.85436,-6.57268 -2.77161,-10.26301c0.09425,-3.48967 2.00734,-6.04603 5.42851,-6.877c3.95608,-0.95454 8.23882,0.00791 12.14226,0.83725c2.97775,0.61912 5.33151,1.42886 8.26181,0.40922c5.98319,-2.06178 11.2274,-5.93949 16.99795,-8.46914c4.83481,-2.10437 10.87452,-3.72031 15.00697,0.56468c0.79307,0.8682 -0.6656,1.89642 -1.42514,1.07275z"/></g><g fill="#ffbc8a" opacity="0.9"><path d="M231.88534,140.46409c2.22892,5.92715 -4.11768,10.56489 -8.11441,13.78266c-5.04307,4.14493 -11.51227,8.80518 -12.83812,15.66387c-1.13767,6.08911 -0.29504,16.1994 -8.21869,17.90782c-3.28755,0.73039 -6.09964,-0.78091 -8.82264,-2.35925c-3.23639,-1.88961 -6.50484,-2.98762 -10.02414,-0.89668c-5.99177,3.53341 0.62142,11.11405 3.63707,14.28612c0.8376,0.83468 -0.63208,1.94096 -1.42514,1.07276c-3.42894,-3.62845 -9.48423,-10.93135 -4.62076,-15.77832c2.13675,-2.16655 5.69152,-3.0981 8.65826,-2.40091c3.07832,0.75273 5.43452,2.95605 8.39073,4.00999c4.28371,1.51988 7.67945,-1.10597 8.99916,-5.09946c1.23112,-3.64774 0.9456,-7.54924 1.79744,-11.33009c1.43793,-6.52443 6.90385,-11.12718 11.84684,-15.127c3.46229,-2.81548 11.21346,-7.53372 9.19719,-12.993c-0.40326,-1.09186 1.24554,-1.7748 1.53722,-0.73849z"/></g><path d="M180.07109,181.28029c1.30353,-0.49281 1.31064,-2.80058 1.43129,-3.93794c0.12016,-1.41608 0.17328,-2.92123 0.41604,-4.35982c0.41993,-2.13011 1.73203,-4.09456 4.12887,-4.15448c2.63102,-0.02689 5.15337,1.56296 7.65176,2.19406c3.80337,0.97443 7.45871,0.1765 10.79987,-1.78033c3.76449,-2.13595 7.09269,-5.12957 10.3208,-7.9781c3.77356,-3.32887 7.45756,-6.86939 10.70624,-10.71017c1.86904,-2.24412 5.69718,-6.24201 4.88872,-9.54058c-0.31419,-1.15891 1.50271,-1.34045 1.78338,-0.22608c0.92102,3.91154 -3.26291,8.45632 -5.55481,11.15827c-3.38228,3.94135 -7.15537,7.54892 -11.06253,10.97836c-3.4618,3.0942 -7.10176,6.32249 -11.22303,8.44791c-3.05192,1.59957 -6.54013,2.34146 -9.95271,1.70081c-1.55017,-0.2983 -2.98925,-0.81977 -4.42833,-1.34125c-1.24944,-0.45491 -2.5549,-1.07695 -3.87041,-1.06351c-4.90527,0.0643 -1.0183,10.60407 -5.45229,12.40673c-1.09186,0.40326 -1.73027,-1.27907 -0.58285,-1.7939z" fill="#f7b5bc"/><path d="M164.95572,156.93588c1.98063,-2.18858 4.53116,-3.62005 7.53093,-3.15705c2.84366,0.44099 5.45557,2.24249 7.81079,3.88837c2.4668,1.70143 4.92357,4.03834 7.74617,5.19287c2.77807,1.18805 6.29883,-0.06674 8.97293,-0.9633c4.2228,-1.43439 8.43412,-3.06943 12.51133,-4.88262c4.91287,-2.09336 9.71367,-4.52098 14.17924,-7.39395c1.71488,-1.1513 8.70895,-5.29963 6.85316,-8.22846c-0.54788,-0.91323 0.7882,-1.91893 1.33607,-1.00571c2.43717,3.8866 -3.20835,7.78731 -5.85847,9.6426c-8.25111,5.72247 -17.77659,9.47388 -27.14645,12.96859c-2.85224,1.03065 -6.07226,2.12882 -9.14962,1.93352c-2.8767,-0.2068 -5.29945,-2.22046 -7.54309,-3.81079c-4.69943,-3.36981 -10.8854,-8.89987 -16.02612,-3.21626c-0.71209,0.81509 -2.04055,-0.20826 -1.21688,-0.9678z" fill="#f2d8d0"/><path d="M148.511,169.3841c1.05152,-4.34978 3.00721,-8.05452 5.73247,-11.57108c2.2914,-2.98067 4.53731,-6.48525 8.20269,-7.91866c3.11945,-1.23179 6.57609,-0.90337 9.85457,-0.44084c2.88819,0.40745 6.91521,1.7717 9.3527,-0.55146c2.15926,-2.04396 3.35832,-4.90009 5.87483,-6.65481c2.42745,-1.68767 5.43678,-2.13887 8.29193,-1.49723c3.08934,0.67467 5.79031,2.40913 7.93484,4.702c2.01044,2.11472 3.64061,3.5389 6.6514,3.92384c7.54924,0.9456 14.95466,-3.86122 19.98478,-9.04293c0.80116,-0.88214 2.27473,0.2413 1.44004,1.07889c-5.21928,5.39388 -12.49108,10.10011 -20.29554,9.83503c-2.37481,-0.09619 -4.76162,-0.67175 -6.67051,-2.09544c-1.18337,-0.92326 -1.99942,-2.19278 -3.09371,-3.1831c-1.16134,-1.07939 -2.50081,-2.02468 -3.99592,-2.71327c-3.06828,-1.38822 -6.68054,-1.45996 -9.45278,0.69656c-2.32687,1.82128 -3.43687,4.61036 -5.61864,6.53172c-1.99261,1.70922 -4.64615,1.61351 -7.11052,1.30564c-3.74684,-0.52859 -7.73985,-1.56958 -11.50628,-0.5485c-3.76644,1.02109 -5.78966,4.35805 -8.02551,7.22714c-2.62518,3.37145 -4.68143,6.94258 -5.71094,11.13625c-0.27677,1.11534 -2.07213,0.86206 -1.8399,-0.21976z" fill="#ef8989"/><g fill="#fcded0" opacity="0.6"><path d="M179.69216,194.12411c0.89686,-3.53566 2.40718,-6.90517 6.21816,-7.95979c2.02808,-0.54982 4.13568,-0.25249 6.14126,-0.9249c2.33983,-0.78448 3.52934,-2.72641 4.97554,-4.51271c1.83552,-2.28867 2.77692,-5.85786 5.98641,-6.59926c2.87524,-0.62933 5.7759,0.5362 8.59656,0.57587c4.21422,0.03724 7.46242,-4.08226 9.73131,-7.18552c3.16965,-4.40921 5.70284,-9.38592 7.54452,-14.53977c1.18707,-3.3355 2.9957,-8.25518 1.50674,-11.80898c-0.44779,-1.05833 1.23453,-1.69673 1.68232,-0.6384c1.65706,4.05519 -0.12857,9.37619 -1.50431,13.20255c-1.79713,5.12034 -4.31931,10.01896 -7.45543,14.47271c-2.27991,3.18132 -5.38349,7.12219 -9.35058,8.15478c-2.59652,0.62885 -5.3516,-0.15788 -7.93857,-0.44323c-1.52767,-0.17571 -3.16642,-0.12826 -4.22329,1.15568c-0.612,0.66998 -0.85574,1.55115 -1.32263,2.32121c-0.52245,0.88165 -1.19,1.66322 -1.82403,2.48932c-1.15696,1.42903 -2.17982,3.03622 -3.68302,4.09795c-1.35859,0.88311 -2.85174,1.30936 -4.43447,1.52394c-2.15116,0.29362 -4.34784,0.06333 -6.1513,1.56039c-1.58078,1.32944 -2.23488,3.42651 -2.74436,5.34495c-0.27677,1.11534 -2.08315,0.94012 -1.75083,-0.2868z"/></g><g fill="#fcd2b3" opacity="0.6"><path d="M158.4848,186.15645c-0.55937,-1.11389 -0.98562,-2.60704 0.03821,-3.6568c0.93477,-0.98271 2.61806,-1.06368 3.86652,-1.1662c3.65632,-0.2405 10.24584,0.17165 12.02241,-3.95643c0.65508,-1.53965 0.47353,-3.35655 0.54868,-5.01782c0.08615,-1.73933 0.2949,-3.50117 0.96099,-5.11888c0.83274,-1.95245 2.30145,-3.61616 3.46893,-5.40197c0.96732,-1.4956 1.97916,-3.02472 3.44885,-4.13099c2.85029,-2.1455 6.34045,-1.77254 9.68502,-1.77838c2.58649,0.00663 5.16146,-0.18739 7.74746,-0.45946c6.89982,-0.65866 14.02183,-1.76366 20.60649,-4.13865c4.18929,-1.47892 11.27437,-4.57944 9.52531,-10.23987c-0.3252,-1.08085 1.3236,-1.76379 1.68232,-0.63841c1.91716,6.16182 -3.95153,9.95143 -8.85339,11.96673c-6.42805,2.67573 -13.43849,3.83627 -20.28228,4.66206c-2.87572,0.35063 -5.77396,0.57865 -8.61664,0.6951c-3.07686,0.08341 -6.48944,-0.55725 -9.30767,0.79665c-1.79342,0.86157 -2.93888,2.49126 -3.96174,4.09844c-1.25655,1.85286 -2.90341,3.65065 -3.68011,5.77024c-1.20959,3.2129 -0.02137,6.9233 -1.49865,10.05864c-1.58838,3.35849 -5.84569,4.19091 -9.15624,4.52c-1.77237,0.14802 -3.60076,0.12891 -5.38414,0.355c-1.70532,0.2371 -2.05011,0.70594 -1.2781,2.28769c0.48131,1.10287 -1.20101,1.74127 -1.58224,0.4933z"/></g><path d="M165.71871,178.89725c-0.08487,-3.913 0.54381,-7.80496 1.62983,-11.55277c0.66463,-2.45385 1.42935,-5.05281 2.85254,-7.24041c2.19035,-3.39299 5.56454,-5.584 9.28596,-6.85028c2.9303,-1.01963 5.87209,-1.83862 8.97244,-1.24201c2.86617,0.56357 5.65525,1.67357 8.37729,2.69448c2.68851,0.97638 5.65622,2.23099 8.57697,2.12556c1.96201,-0.08146 3.95608,-0.95454 5.72747,-1.65999c2.57352,-1.03016 5.01296,-2.23846 7.42987,-3.56937c4.18783,-2.31507 10.41377,-5.81544 11.64247,-10.85674c0.27677,-1.11534 2.07213,-0.86207 1.79536,0.25328c-1.36182,5.42058 -7.25301,9.08761 -11.7636,11.71539c-3.98717,2.30356 -8.3201,4.51855 -12.77757,5.64119c-5.20406,1.33576 -10.8287,-1.96555 -15.65883,-3.56251c-2.88916,-0.96489 -5.52115,-1.49543 -8.57453,-0.73199c-4.29034,1.06661 -8.47915,2.82424 -11.11485,6.55247c-1.47923,2.02048 -2.23293,4.54137 -2.88656,6.91716c-0.98594,3.60271 -1.71518,7.36105 -1.60829,11.11794c0.03547,1.15939 -1.7479,1.38547 -1.90597,0.24859z" fill="#f7b5bc"/><path d="M231.02912,141.73653c-5.41913,-0.52568 -10.0758,1.44461 -12.57546,6.46583c-2.16637,4.35172 -2.648,9.45862 -2.80687,14.25278c-0.07417,2.21869 -0.02574,4.41488 0.05621,6.65561c0.05895,1.83941 0.39662,3.67834 -0.09084,5.44066c-0.47597,1.96298 -1.77657,4.12807 -3.81566,4.75595c-1.87196,0.57184 -3.83592,-0.46153 -5.42058,-1.36181c-1.03777,-0.54447 -2.08752,-1.5683 -3.39153,-1.35421c-0.93623,0.14657 -1.67082,0.83906 -2.28283,1.50904c-1.78046,1.89837 -2.93547,4.44226 -3.9904,6.84104c-0.98836,2.20914 -1.83164,4.51837 -2.93158,6.67197c-0.49993,1.00425 -1.52231,2.89013 -2.90632,1.97836c-0.58042,-0.40034 -0.74902,-1.18043 -0.93963,-1.80442c-0.44925,-1.89447 -1.15372,-3.10844 -3.16124,-3.55088c-4.21569,-0.87338 -8.95948,2.2788 -10.64747,6.06112c-0.46642,1.04878 -2.11765,0.33815 -1.65123,-0.71063c1.86564,-4.19512 6.27517,-7.23523 10.90172,-7.29905c1.79488,-0.02543 3.60174,0.42851 4.85263,1.71956c0.62545,0.64552 1.07275,1.42515 1.30839,2.29432c0.08955,0.21167 0.5043,1.50418 0.43775,1.69382c-0.05554,0.11158 0.00001,0 -0.04453,0.03352c0.13361,-0.10057 -0.5129,-0.03255 -0.47938,0.01199c0,0 0.33378,-0.39078 0.43385,-0.53589c0.4779,-0.84813 0.88878,-1.78532 1.2551,-2.689c1.12149,-2.58843 2.13139,-5.2324 3.43151,-7.67621c1.05542,-2.12007 2.42258,-4.47481 4.47171,-5.73818c2.43894,-1.48702 4.28079,-0.1524 6.4569,1.07014c1.13834,0.67808 2.68949,1.53381 4.04856,0.92941c1.32555,-0.64893 2.13626,-2.44526 2.40153,-3.76126c0.3869,-1.89594 -0.05183,-4.14718 -0.09977,-6.06466c-0.13038,-4.4369 -0.04909,-8.96336 0.76825,-13.34618c0.75127,-3.91446 2.11552,-7.94148 5.0314,-10.83406c3.13855,-3.06018 7.39586,-3.89262 11.63308,-3.45407c1.21542,0.13166 0.96214,1.92703 -0.25328,1.79537z" fill="#ef8989"/></g><path d="M276.07213,163.52126c-2.02118,-2.37872 -3.1514,-5.0297 -3.99006,-8.01604c-0.7398,-2.57326 -1.49982,-4.93511 -0.38636,-7.53286c0.93612,-2.13037 2.70738,-3.82912 4.3118,-5.41119c1.56959,-1.57964 3.39758,-2.96735 5.07896,-4.44982c1.44974,-1.29128 3.46968,-2.9374 3.92306,-4.96404c0.15544,-0.78085 -0.06739,-1.46526 -0.19059,-2.22664c-0.12563,-0.7962 -0.18161,-1.59727 -0.16792,-2.40322c-0.01903,-3.7786 0.68848,-7.67796 2.12178,-11.20806c1.07376,-2.66498 3.00929,-6.02017 6.25571,-6.14202c1.1518,-0.04548 1.27592,1.73081 0.12412,1.77629c-3.38574,0.13158 -4.92825,5.10428 -5.65614,7.71009c-0.89307,3.24734 -1.44834,6.82107 -0.96846,10.18248c0.25371,1.62724 0.33888,2.84627 -0.50173,4.33998c-0.96533,1.71242 -2.44746,3.04097 -3.8972,4.33225c-1.61415,1.44277 -3.34497,2.71867 -4.88217,4.26106c-1.53963,1.50755 -3.31819,3.10181 -4.11987,5.15279c-0.92881,2.23486 0.07015,4.51001 0.71352,6.70502c0.77463,2.57083 1.81085,4.87838 3.59872,6.92341c0.75986,0.85689 -0.71179,1.8347 -1.36716,0.97051z" fill="#ef8989" stroke-width="1"/><path d="M243.60112,179.73759c-0.09108,-1.14856 -0.77661,-2.28501 -1.24502,-3.3336c-0.50598,-1.08064 -1.08433,-2.19056 -1.52346,-3.31153c-0.92135,-2.34358 -0.57147,-4.99811 0.40597,-7.2471c0.88683,-2.06668 2.38466,-3.93666 4.28298,-5.17293c1.83147,-1.19595 4.00211,-1.64827 6.14897,-1.95861c2.42255,-0.36723 4.8937,-0.56319 7.31072,-1.00003c1.86291,-0.35787 4.34679,-0.83504 5.55346,-2.40172c0.89173,-1.12143 0.86367,-2.80034 0.72122,-4.15498c-0.19489,-2.01593 -0.83948,-3.96117 -1.58296,-5.82852c-0.7783,-1.86459 -1.72509,-3.64578 -2.87243,-5.30598c-0.75238,-1.09613 -1.69258,-2.35247 -2.95767,-2.84755c-1.01318,-0.40999 -0.29102,-1.90323 0.71939,-1.52805c1.51977,0.61498 2.68812,2.09841 3.59627,3.39232c1.30037,1.82319 2.33886,3.87729 3.16852,5.94795c1.2257,3.08997 2.62865,7.53181 0.95174,10.67684c-0.88514,1.64626 -2.74145,2.52898 -4.45134,3.04983c-2.29053,0.707 -4.65175,0.96429 -7.0102,1.25638c-2.35845,0.29209 -4.82961,0.48806 -7.03674,1.36356c-2.37563,0.95891 -4.17014,3.06255 -5.14206,5.38115c-0.90783,2.24347 -0.90521,4.48479 0.10951,6.68087c0.89099,1.96073 2.31509,4.01927 2.52378,6.20923c0.12036,1.07619 -1.55027,1.20867 -1.67064,0.13248z" fill="#f7b5bc" stroke-width="1"/><path d="M276.40565,147.50707c0.07816,-2.33403 0.62135,-4.61175 2.7664,-5.83046c1.14979,-0.66291 2.51477,-0.765 3.66456,-1.42791c1.21742,-0.70191 1.62923,-1.89457 2.21528,-3.09758c0.33623,-0.69851 0.67246,-1.39702 0.90207,-2.12417c0.13382,-0.45565 0.19012,-0.92067 0.40144,-1.36692c0.2686,-0.65951 0.76033,-1.21338 1.38829,-1.59345c1.45884,-0.87714 3.26069,-0.69041 4.85771,-0.89023c1.29687,-0.18899 2.20572,-0.55077 2.99565,-1.619c0.80919,-1.09735 1.32713,-2.38726 1.74831,-3.65743c1.01421,-3.1801 1.45627,-6.57105 1.48217,-9.90229c0.03965,-2.27578 0.10455,-5.53938 -1.27806,-7.49981c-0.60369,-0.85951 0.63153,-1.96819 1.26435,-1.08943c1.67483,2.40475 1.70767,5.90037 1.69907,8.69895c-0.00616,3.42799 -0.47687,6.92557 -1.51971,10.2123c-0.74658,2.26882 -1.90738,5.10089 -4.27604,6.08805c-1.6242,0.6841 -3.46505,0.42974 -5.15834,0.77519c-0.91921,0.18753 -1.51805,0.58686 -1.80494,1.52727c-0.36342,1.18279 -0.7757,2.24957 -1.304,3.36521c-0.49966,1.00902 -0.89269,2.04667 -1.71272,2.84387c-0.69463,0.67084 -1.61288,1.11013 -2.53161,1.42354c-1.24752,0.43088 -2.56364,0.649 -3.35309,1.84311c-0.65467,0.99024 -0.69819,2.25895 -0.74221,3.40177c-0.02476,1.1137 -1.71012,1.00399 -1.70461,-0.08059z" fill="#f7b5bc" stroke-width="1"/><path d="M256.46087,179.30084c-1.78154,-1.83435 -3.10708,-4.00792 -4.23487,-6.28582c-0.78711,-1.64384 -1.53337,-3.31541 -1.68499,-5.12191c-0.36737,-4.76286 2.8943,-9.54149 6.79856,-11.92189c1.85327,-1.13804 3.71455,-2.13235 5.0214,-3.94385c0.58228,-0.81273 1.13684,-1.66633 1.6914,-2.51991c1.05512,-1.61087 8.91525,-13.50715 5.18124,-14.6135c-0.63838,-0.19339 -0.44132,-1.22211 0.19707,-1.02872c2.66298,0.75898 1.66318,4.12237 0.98014,6.01782c-1.1187,3.05622 -2.83494,5.8913 -4.53803,8.65782c-1.52796,2.40903 -2.9859,5.00921 -5.36232,6.65137c-1.80439,1.25405 -3.93343,2.16151 -5.42632,3.83072c-1.89347,2.09017 -3.50538,5.123 -3.55082,7.95822c-0.04611,1.91082 0.66586,3.57581 1.44641,5.25395c1.05921,2.26476 2.37816,4.47262 4.13198,6.26611c0.48296,0.44801 -0.20218,1.24103 -0.65086,0.79959z" fill="#f2b197" stroke-width="1"/><path d="M199.82398,126.86197c-1.37332,-6.81379 6.2443,-11.03719 12.18927,-10.90227c1.0931,-0.00552 2.19058,0.21532 3.26893,-0.1491c1.52071,-0.50573 2.82429,-1.74127 3.96696,-2.81753c1.94118,-1.77886 3.76019,-3.4148 6.54803,-3.40624c2.14747,0.00533 4.16953,0.79394 6.21557,1.20728c1.95223,0.40734 3.93279,0.66578 5.89701,0.88548c4.73407,0.50972 9.63503,0.76635 14.37557,-0.00467c2.98909,-0.48727 7.68215,-1.69465 7.47519,-5.53249c-0.08135,-1.38055 2.02901,-1.67904 2.11036,-0.29849c0.24682,4.68821 -3.9209,6.81465 -7.89452,7.67235c-4.64234,1.00337 -9.58803,0.85694 -14.27299,0.4634c-3.76913,-0.27851 -7.48157,-0.85484 -11.1313,-1.82281c-1.49949,-0.4161 -3.17625,-0.71164 -4.64785,-0.08973c-1.1618,0.49098 -2.08849,1.43033 -3.00917,2.27584c-2.06336,1.92177 -4.24289,3.89265 -7.21837,3.8721c-1.29711,-0.0452 -2.54948,-0.20058 -3.80948,0.05804c-1.60254,0.3121 -3.2067,0.94438 -4.61285,1.7212c-2.57993,1.45544 -3.98218,3.64554 -3.40109,6.64062c0.25262,1.35381 -1.85774,1.65231 -2.04928,0.22703z" fill="#ef8989" stroke-width="1"/><path d="M208.47214,104.84759c-0.42032,-2.37572 0.83365,-4.7627 2.14149,-6.67707c1.59573,-2.27632 3.6648,-4.33728 6.11677,-5.66393c4.98918,-2.69293 11.85097,-0.24336 15.76799,3.4095c2.44235,2.26499 4.30966,5.52306 7.56333,6.76804c2.56345,0.96458 6.02423,1.13872 8.67513,0.50751c3.37251,-0.86304 6.72929,-2.65185 9.74508,-4.28211c1.8358,-0.95722 3.65813,-2.03259 5.27631,-3.32407c0.55036,-0.42177 2.42428,-1.83216 1.90305,-2.73023c-0.36943,-0.61617 0.59371,-1.35427 0.96986,-0.67902c1.69531,2.79893 -4.00874,5.78278 -5.77874,6.79234c-3.33658,1.96603 -6.96258,3.75559 -10.64915,5.01348c-4.57867,1.56899 -10.4967,0.83706 -14.05179,-2.52789c-1.24436,-1.20466 -2.32496,-2.54766 -3.48406,-3.79195c-1.29072,-1.34898 -2.6921,-2.35621 -4.3754,-3.21163c-2.91941,-1.4626 -6.43555,-2.64775 -9.68243,-1.4699c-2.49909,0.91312 -4.63397,2.92174 -6.25662,4.96176c-1.43944,1.80969 -3.04115,4.29613 -2.64026,6.76383c0.11368,0.73507 -1.06782,0.86971 -1.24058,0.14136z" fill="#ffbc8a" stroke-width="1"/><path d="M240.41531,77.31048c2.39096,4.80538 8.70099,4.7398 13.28391,4.19988c5.1013,-0.61857 10.04396,-2.48314 15.24393,-2.07293c1.83371,0.13051 3.77805,0.54488 5.18404,1.84147c1.0355,0.94746 1.88845,2.1388 2.68275,3.32214c2.22165,3.19956 4.16878,6.66032 5.58154,10.31701c0.97027,2.52131 2.67224,6.90428 0.1923,9.10457c-0.58234,0.54774 -1.34198,-0.4517 -0.75965,-0.99944c0.91548,-0.80095 0.7635,-2.31483 0.61419,-3.41025c-0.24529,-1.70577 -0.83305,-3.30889 -1.48744,-4.86139c-1.46206,-3.51409 -3.35855,-6.90824 -5.57087,-9.95721c-0.67569,-0.95814 -1.42735,-2.01621 -2.36955,-2.77177c-1.94305,-1.51912 -5.03077,-1.43236 -7.35621,-1.24169c-4.82679,0.35737 -9.4443,2.02737 -14.31374,2.25946c-4.66021,0.23075 -9.82956,-0.62324 -12.13522,-5.17809c-0.33986,-0.7929 0.82884,-1.26072 1.21001,-0.55177z" data-paper-data="{&quot;index&quot;:null}" fill="#ffbc8a" stroke-width="1"/><path d="M229.78145,88.32503c1.84198,0.6254 4.10134,0.37151 5.94192,-0.13292c1.92427,-0.50454 3.38742,-1.67803 5.4797,-1.68063c3.89159,-0.04668 7.24235,2.45991 9.58934,5.38619c1.0478,1.33776 2.05407,2.92664 3.51981,3.84542c1.34004,0.7934 2.80459,0.74975 4.26898,0.58055c3.05431,-0.33856 6.14995,-1.09562 9.036,-2.14535c2.38416,-0.83987 5.6884,-2.09934 6.77322,-4.65327c0.29204,-0.71174 1.29706,-0.12715 1.00502,0.58459c-1.16819,2.80511 -4.807,4.23238 -7.48392,5.19815c-3.01153,1.09173 -6.14902,1.84884 -9.32887,2.18755c-1.38075,0.12725 -2.71971,0.21261 -4.01759,-0.32978c-1.59091,-0.62571 -2.68055,-1.96342 -3.72836,-3.30118c-2.68243,-3.46986 -6.57879,-7.27298 -11.38943,-5.9698c-0.87844,0.25216 -1.63099,0.79709 -2.50934,1.13295c-0.83649,0.33581 -1.71504,0.50427 -2.59365,0.6309c-1.58988,0.2112 -3.34729,0.29708 -4.8962,-0.20315c-0.71163,-0.20835 -0.42016,-1.38039 0.33336,-1.13025z" fill="#f2b197" stroke-width="1"/><path d="M290.17867,122.3541c-0.51349,0.41206 -2.90193,7.17148 -3.60184,7.67986c-1.4387,1.04501 -1.46326,-4.0071 -3.47957,-2.56638c-0.44725,0.31957 -1.10861,5.77147 -1.58913,6.12917c-1.61167,1.19973 -3.12997,-2.57111 -4.32211,-1.62845c-0.46764,0.36978 -0.70761,5.04321 -1.73967,5.97484c-1.20121,1.08431 -3.22695,-1.54696 -4.07427,-0.91453c-0.83833,0.62572 -2.66825,5.65868 -3.2588,6.01056c-1.33021,0.79261 -1.18606,-3.37612 -3.44404,-1.72479c-0.74928,0.54798 -2.05776,5.28801 -2.49553,5.66697c-1.02586,0.88804 -0.79889,-2.79576 -2.70927,-1.45582c-1.59001,1.11523 -4.0312,5.88592 -5.64164,6.94565c-1.45839,0.95969 -2.11175,-1.77521 -3.10779,-1.05869c-1.42109,1.0223 -4.90035,5.12616 -6.70876,5.50787c-1.26935,0.26793 -0.83838,-3.05994 -2.07126,-2.9882c-1.75722,0.10225 -5.11202,4.468 -6.87504,4.10816c-0.99894,-0.20389 -0.44889,-5.02319 -1.38339,-5.30627c-4.00497,-1.21318 -7.40683,-3.20157 -9.72597,-5.86701c-1.24113,-1.42645 0.23753,-5.0769 -1.10829,-6.89977c-1.26505,-1.71348 -5.38892,-1.57489 -5.55563,-3.68018c-0.1246,-1.57356 2.28533,-3.73958 2.48776,-5.35536c0.21086,-1.68312 -2.37898,-4.85975 -1.77692,-6.48745c0.39459,-1.06678 3.85844,-0.62283 4.44862,-1.60999c0.52272,-0.87432 -2.24437,-1.65329 -1.55208,-2.43246c0.52916,-0.59556 4.48087,-1.2143 5.11693,-1.73844c1.01177,-0.83378 -1.21037,-2.14351 -0.24535,-3.01763c0.54604,-0.4946 4.23619,-0.55013 4.85422,-1.04251c1.26684,-1.00927 -0.36202,-2.61852 0.95282,-3.64098c1.10221,-0.85711 5.14281,-1.12654 6.26307,-1.98355c1.21862,-0.93226 -0.35507,-3.3985 1.06256,-4.38859c1.38299,-0.96591 5.75663,-0.45538 7.00905,-1.38946c1.43846,-1.07283 -2.47687,-4.41656 -1.26179,-5.39868c0.904,-0.73068 6.95142,0.88206 7.89111,0.19263c1.41327,-1.03688 -1.0109,-4.53138 0.20448,-5.49267c1.2547,-0.99239 6.14352,0.55245 7.25778,-0.25841c1.00969,-0.73476 -0.21416,-3.45983 0.67413,-4.04777c1.24654,-0.82505 4.53481,0.54413 5.42907,-0.12901c0.7768,-0.58473 -2.33481,-4.37161 -1.46094,-4.88189c0.73367,-0.42842 5.44866,2.40167 6.16141,2.0883c0.8877,-0.39029 0.69263,-4.23343 1.60267,-4.49393c1.27006,-0.36356 3.65317,2.91706 4.94072,2.80665c1.30127,-0.11159 2.43618,-6.17229 3.76905,-6.05864c1.58607,0.13525 3.36557,6.49766 4.83089,7.04056c1.92622,0.71367 4.34994,-2.72333 6.00103,-1.33309c1.39767,1.17684 2.06126,7.09161 3.26572,8.69173c0.4204,0.5585 5.23042,1.24017 5.59864,1.84894c0.84285,1.39345 -1.29357,4.07868 -0.84929,5.5081c0.42555,1.36915 4.10735,6.39838 4.26892,7.76874c0.20186,1.71207 -5.3772,0.16767 -5.66434,1.90248c-0.22321,1.34856 2.37036,7.35211 1.97077,8.67038c-0.50353,1.66114 -4.51198,-1.97505 -5.45105,-0.47257c-0.38869,0.6219 -0.8668,6.52861 -1.33957,7.11002c-1.36985,1.68464 -1.95401,-3.20372 -3.56808,-1.90847z" fill="#f7d1d4" stroke-width="0"/><path d="M284.17263,119.70298c-0.42289,0.3363 -2.51455,4.47326 -3.08798,4.8919c-1.1787,0.86053 -1.0614,-1.86701 -2.712,-0.67879c-0.36612,0.26356 -0.81627,3.62497 -1.21044,3.91886c-1.32204,0.98569 -2.66314,-0.99897 -3.64414,-0.22865c-0.38482,0.30218 -1.05731,3.5062 -1.91307,4.25931c-0.99601,0.87653 -2.202,-0.67643 -2.89715,-0.15696c-0.68777,0.51396 -1.6537,2.88402 -2.13321,3.17973c-1.08008,0.66609 -1.47507,-0.96449 -3.32562,0.39445c-0.61408,0.45095 -1.23107,3.09381 -1.59315,3.40116c-0.84848,0.72024 -1.13273,-1.07374 -2.6952,0.03334c-1.30043,0.92141 -3.69216,4.32144 -5.00538,5.20259c-1.18924,0.79796 -1.32096,-0.9093 -2.1366,-0.31873c-1.16371,0.84259 -2.54395,2.46165 -3.9733,2.84792c-1.00328,0.27113 -2.03979,-0.5979 -3.00367,-0.47522c-1.37381,0.17485 -1.92763,2.35286 -3.28004,2.18319c-0.7663,-0.09614 -2.37068,-2.45533 -3.08236,-2.61418c-3.05003,-0.68076 -5.58705,-1.97385 -7.24314,-3.83291c-0.88628,-0.9949 0.46963,-3.80202 -0.47593,-5.08688c-0.88881,-1.20776 -3.88362,-0.57604 -3.89535,-2.13779c-0.00877,-1.1673 1.76535,-3.21591 2.01355,-4.43305c0.25854,-1.26788 -1.57963,-3.49323 -1.01961,-4.74168c0.36703,-0.81822 3.03891,-0.68117 3.55375,-1.45094c0.456,-0.68179 -1.65464,-1.10792 -1.07196,-1.72821c0.44538,-0.47411 3.55668,-1.15747 4.08127,-1.58428c0.83447,-0.67895 -0.82213,-1.53175 -0.0218,-2.23819c0.45286,-0.39973 3.32893,-0.64809 3.83771,-1.05019c1.0429,-0.82422 -0.13501,-1.9338 0.946,-2.77055c0.90619,-0.70144 4.0671,-1.1291 4.98734,-1.83147c1.00104,-0.76404 -0.08586,-2.51626 1.07336,-3.33463c1.13089,-0.79837 4.50735,-0.66265 5.53481,-1.42995c1.18007,-0.88128 -1.68069,-3.157 -0.67962,-3.95807c0.74479,-0.59597 5.36256,0.26842 6.13281,-0.29876c1.15845,-0.85304 1.47617,-2.51047 2.47631,-3.296c1.0325,-0.81095 2.74296,-0.74668 3.65593,-1.41428c0.82729,-0.60495 0.99511,-1.90239 1.71965,-2.39096c1.01676,-0.68561 2.53223,-0.51577 3.26621,-1.06826c0.63757,-0.47992 0.13944,-2.09341 0.8484,-2.52321c0.59522,-0.36086 2.39532,0.44869 2.9678,0.17487c0.71301,-0.34104 1.22384,-2.604 1.94696,-2.84943c1.00919,-0.34253 2.2334,1.37794 3.24202,1.22334c1.01936,-0.15624 1.79888,-3.47789 2.83021,-3.46782c1.22724,0.01199 2.69982,3.39536 3.8102,3.71833c1.45963,0.42457 3.09542,-1.01138 4.30291,-0.0665c1.02215,0.79985 1.65105,3.91174 2.49905,5.0383c0.29598,0.39321 2.59083,1.22951 2.84337,1.66316c0.57806,0.99262 0.17593,2.51897 0.44167,3.56078c0.25453,0.99788 2.16819,3.65341 2.21713,4.66699c0.06115,1.26633 -3.52504,1.3178 -3.84587,2.62852c-0.24941,1.0189 -0.20545,3.79501 -0.59048,4.80119c-0.48518,1.26788 -1.76345,0.33778 -2.57881,1.51169c-0.33749,0.48591 -1.11764,3.58234 -1.51832,4.04274c-1.16096,1.334 -1.26494,-0.94293 -2.59422,0.11418z" fill="#ffa7af" stroke-width="0"/></g><text transform="translate(167.28877,56.63272) scale(0.32909,0.32909)" font-size="40" xml:space="preserve" fill="#000000" fill-rule="nonzero" stroke="#000000" stroke-width="1" stroke-linecap="butt" stroke-linejoin="miter" stroke-miterlimit="10" stroke-dasharray="" stroke-dashoffset="0" font-family="Handwriting" font-weight="normal" text-anchor="start" style="mix-blend-mode: normal"></text></g></g></svg>