<svg version="1.1" xmlns="http://www.w3.org/2000/svg" xmlns:xlink="http://www.w3.org/1999/xlink" width="132.35074" height="200.00691" viewBox="0,0,132.35074,200.00691"><defs><linearGradient x1="292.28716" y1="72.87793" x2="292.28716" y2="231.47324" gradientUnits="userSpaceOnUse" id="color-1"><stop offset="0" stop-color="#000000"/><stop offset="1" stop-color="#000000" stop-opacity="0"/></linearGradient><radialGradient cx="310.51769" cy="103.61326" r="28.19738" gradientUnits="userSpaceOnUse" id="color-2"><stop offset="0" stop-color="#c4f392"/><stop offset="1" stop-color="#67c04f"/></radialGradient><radialGradient cx="305.58012" cy="99.54959" r="28.19738" gradientUnits="userSpaceOnUse" id="color-3"><stop offset="0" stop-color="#ebff99"/><stop offset="1" stop-color="#92cc53"/></radialGradient><radialGradient cx="289.70808" cy="146.4475" r="28.19738" gradientUnits="userSpaceOnUse" id="color-4"><stop offset="0" stop-color="#c4f392"/><stop offset="1" stop-color="#67c04f"/></radialGradient><radialGradient cx="283.31332" cy="146.4475" r="28.19738" gradientUnits="userSpaceOnUse" id="color-5"><stop offset="0" stop-color="#ebff99"/><stop offset="1" stop-color="#92cc53"/></radialGradient><radialGradient cx="267.33905" cy="105.31214" r="28.19738" gradientUnits="userSpaceOnUse" id="color-6"><stop offset="0" stop-color="#c4f392"/><stop offset="1" stop-color="#67c04f"/></radialGradient><radialGradient cx="262.20146" cy="109.11979" r="28.19738" gradientUnits="userSpaceOnUse" id="color-7"><stop offset="0" stop-color="#ebff99"/><stop offset="1" stop-color="#92cc53"/></radialGradient></defs><g transform="translate(-226.94257,-20.4391)"><g data-paper-data="{&quot;isPaintingLayer&quot;:true}" fill-rule="nonzero" stroke-linecap="butt" stroke-linejoin="miter" stroke-miterlimit="10" stroke-dasharray="" stroke-dashoffset="0" style="mix-blend-mode: normal"><path d="M325.40164,180.52737c0.05742,1.66838 -5.16422,6.27038 -32.364,6.27038c-27.19978,0 -34.79393,-3.92834 -34.80303,-6.61402c-0.00786,-2.31869 7.04039,-5.41124 34.24017,-5.41124c27.19978,0 32.87433,4.22877 32.92686,5.75488z" fill="url(#color-1)" stroke="none" stroke-width="0"/><text transform="translate(274.58689,212.62346) scale(0.46015,0.46015)" font-size="40" xml:space="preserve" fill="#000000" fill-rule="nonzero" stroke="#000000" stroke-width="1" stroke-linecap="butt" stroke-linejoin="miter" stroke-miterlimit="10" stroke-dasharray="" stroke-dashoffset="0" font-family="Handwriting" font-weight="normal" text-anchor="start" style="mix-blend-mode: normal"></text><text transform="translate(249.57189,39.38932) scale(0.49869,0.49869)" font-size="40" xml:space="preserve" fill="#000000" fill-rule="nonzero" stroke="#000000" stroke-width="1" stroke-linecap="butt" stroke-linejoin="miter" stroke-miterlimit="10" stroke-dasharray="" stroke-dashoffset="0" font-family="Handwriting" font-weight="normal" text-anchor="start" style="mix-blend-mode: normal"></text><g stroke="none" stroke-width="0"><path d="M294.1548,133.41368c-5.88114,-4.04226 2.82021,-14.63105 12.39526,-26.80353c9.57505,-12.17248 15.26849,-22.65282 22.68822,-17.31666c6.0179,4.328 -1.89666,13.50888 -11.4717,25.68137c-9.57505,12.17248 -17.0434,22.95345 -23.61177,18.43883z" fill="url(#color-2)"/><path d="M289.21722,129.35001c-5.88114,-4.04226 2.82022,-14.63105 12.39527,-26.80353c9.57505,-12.17248 15.26849,-22.65282 22.68821,-17.31666c6.0179,4.328 -1.89666,13.50888 -11.4717,25.68137c-9.57505,12.17248 -17.0434,22.95346 -23.61178,18.43883z" fill="url(#color-3)"/><path d="M296.01105,179.85532c-7.10972,0.61613 -7.11999,-13.08919 -7.46205,-28.57253c-0.34206,-15.48335 -2.60592,-27.1935 6.51402,-27.7883c7.39689,-0.48242 7.12,11.63584 7.46206,27.11918c0.34206,15.48334 1.4265,28.55352 -6.51402,29.24165z" fill="url(#color-4)"/><path d="M289.61629,179.85532c-7.10972,0.61613 -7.12,-13.08919 -7.46206,-28.57253c-0.34206,-15.48335 -2.60591,-27.1935 6.51402,-27.7883c7.39689,-0.48242 7.12,11.63584 7.46206,27.11918c0.34206,15.48334 1.4265,28.55352 -6.51401,29.24165z" fill="url(#color-5)"/><path d="M292.29501,128.39916c-5.34512,4.72837 -13.51398,-6.27644 -23.00808,-18.51217c-9.4941,-12.23573 -18.28549,-20.29575 -11.31266,-26.20392c5.65545,-4.79193 12.6486,5.10882 22.14271,17.34454c9.4941,12.23573 18.14776,22.09066 12.17804,27.37154z" fill="url(#color-6)"/><path d="M287.15742,132.20681c-5.34512,4.72836 -13.51397,-6.27645 -23.00807,-18.51217c-9.4941,-12.23573 -18.2855,-20.29575 -11.31267,-26.20391c5.65545,-4.79193 12.6486,5.10881 22.14271,17.34454c9.4941,12.23573 18.14776,22.09066 12.17803,27.37155z" fill="url(#color-7)"/></g><text transform="translate(227.10712,59.41782) scale(0.32909,0.32909)" font-size="40" xml:space="preserve" fill="#000000" fill-rule="nonzero" stroke="#000000" stroke-width="1" stroke-linecap="butt" stroke-linejoin="miter" stroke-miterlimit="10" stroke-dasharray="" stroke-dashoffset="0" font-family="Handwriting" font-weight="normal" text-anchor="start" style="mix-blend-mode: normal"></text></g></g></svg>