<svg version="1.1" xmlns="http://www.w3.org/2000/svg" xmlns:xlink="http://www.w3.org/1999/xlink" width="122.79854" height="182.30638" viewBox="0,0,122.79854,182.30638"><defs><linearGradient x1="240.36827" y1="107.65277" x2="240.36827" y2="213.9842" gradientUnits="userSpaceOnUse" id="color-1"><stop offset="0" stop-color="#000000"/><stop offset="1" stop-color="#000000" stop-opacity="0"/></linearGradient></defs><g transform="translate(-178.91321,-30.19376)"><g data-paper-data="{&quot;isPaintingLayer&quot;:true}" stroke-linejoin="miter" stroke-miterlimit="10" stroke-dasharray="" stroke-dashoffset="0" style="mix-blend-mode: normal"><path d="M266.37666,179.82719c0.04509,1.11858 -4.05603,4.20403 -25.41903,4.20403c-21.363,0 -27.32752,-2.63377 -27.33466,-4.43443c-0.00617,-1.55459 5.52959,-3.628 26.89258,-3.628c21.363,0 25.81985,2.83521 25.8611,3.8584z" fill="url(#color-1)" fill-rule="nonzero" stroke="none" stroke-width="0" stroke-linecap="butt"/><text transform="translate(228.34559,206.52039) scale(0.357,0.357)" font-size="40" xml:space="preserve" fill="#ffffff" fill-rule="nonzero" stroke="#ffffff" stroke-width="0.5" stroke-linecap="butt" stroke-linejoin="miter" stroke-miterlimit="10" stroke-dasharray="" stroke-dashoffset="0" font-family="Handwriting" font-weight="normal" text-anchor="start" style="mix-blend-mode: normal"></text><text transform="translate(179.0857,43.30262) scale(0.34497,0.34497)" font-size="40" xml:space="preserve" fill="#ffffff" fill-rule="nonzero" stroke="#ffffff" stroke-width="1" stroke-linecap="butt" stroke-linejoin="miter" stroke-miterlimit="10" stroke-dasharray="" stroke-dashoffset="0" font-family="Handwriting" font-weight="normal" text-anchor="start" style="mix-blend-mode: normal"></text><text transform="translate(181.43819,61.76542) scale(0.26747,0.26747)" font-size="40" xml:space="preserve" fill="#ffffff" fill-rule="nonzero" stroke="#ffffff" stroke-width="1" stroke-linecap="butt" stroke-linejoin="miter" stroke-miterlimit="10" stroke-dasharray="" stroke-dashoffset="0" font-family="Handwriting" font-weight="normal" text-anchor="start" style="mix-blend-mode: normal"></text><g><path d="M265.75004,77.25622v93.49379" fill="none" fill-rule="nonzero" stroke="#ff0000" stroke-width="1.5" stroke-linecap="round"/><path d="M263.08335,79.78308c0,0 1.80898,-3.14054 2.83552,-3.11172c0.9703,0.02724 2.33115,3.61708 2.33115,3.61708" fill="none" fill-rule="nonzero" stroke="#ff0000" stroke-width="1.5" stroke-linecap="round"/><g stroke="none" stroke-width="1" stroke-linecap="butt"><path d="M230.24869,172.39265c10.26572,-3.79297 20.87032,-1.0687 28.85044,6.22624c-5.90537,-0.19593 -31.8771,0.02444 -39.31205,0.43747c3.27368,-3.36419 6.11089,-5.05622 10.46161,-6.66371z" fill="#0077b8" fill-rule="nonzero"/><path d="M235.64793,170.99435c-0.31347,0.04768 -0.62783,0.10175 -0.94082,0.16137c0.31867,-0.06171 0.63303,-0.11579 0.94082,-0.16137z" fill="#74b140" fill-rule="evenodd"/><path d="M236.06861,171.166c-0.13322,-0.07518 -0.27204,-0.13443 -0.41455,-0.17693c0.24956,-0.0377 0.4983,-0.07207 0.7462,-0.10309l0.00681,-0.00251c0.24975,-0.0302 0.49794,-0.05678 0.7468,-0.08059c-0.00787,0.10187 -0.02878,0.20157 -0.06199,0.29546c-0.0697,0.19384 -0.22066,0.43434 -0.40875,0.45387c-0.22414,0.02376 -0.41877,-0.26926 -0.61452,-0.38621z" fill="#74b140" fill-rule="evenodd"/><path d="M246.48283,171.99411c-0.19429,-0.13832 -0.36518,-0.32086 -0.50348,-0.53779c0.24976,0.06016 0.49818,0.12484 0.74523,0.19407c1.72948,0.48062 3.42391,1.13381 5.06635,1.95305c0.26581,0.13195 0.53053,0.26784 0.79415,0.40767c0.00511,0.29066 -0.06207,0.57637 -0.19262,0.8192c-0.20384,0.37211 -0.35873,0.38089 -0.62849,0.28976c0.05603,0.15518 0.12771,0.30113 0.2134,0.43447c0.08325,0.16789 0.13031,0.35891 0.13679,0.55516c0.00618,0.39142 -0.15459,0.76275 -0.33857,1.06997c-0.26657,0.44592 -0.61902,1.01843 -0.95412,1.39017c-1.66677,-0.03508 -3.32793,-0.0524 -4.95228,-0.03717c0.69646,-0.81779 1.13749,-2.1267 1.23135,-3.31888c0.00359,-0.09774 0.05719,-0.18204 0.13367,-0.21029c0.07648,-0.02825 0.15921,0.00568 0.20634,0.08467c0.22827,0.45472 0.35086,0.99241 0.61539,1.41859c0.12641,0.22824 0.31321,0.39613 0.52891,0.47538c0.2145,0.05248 0.36992,-0.13971 0.54051,-0.27542c0.59197,-0.47311 1.40515,-1.14758 1.17399,-2.16605c-0.22024,-0.98919 -1.15045,-0.41835 -1.72645,-0.48264c-0.47757,-0.06128 -0.90901,-0.39703 -0.89146,-1.03344c0.00617,-0.23093 0.09787,-0.51618 -0.08286,-0.68259c-0.12054,-0.07985 -0.25397,-0.12619 -0.39081,-0.13573c-0.24872,-0.0459 -0.49877,-0.06707 -0.72495,-0.21215z" fill="#74b140" fill-rule="evenodd"/><path d="M222.5985,176.51761l-0.00304,0.01778c0.76711,0.6342 2.04153,0.73267 2.06807,2.14019c0.00013,0.07027 -0.02576,0.13682 -0.07039,0.18097c-0.04463,0.04415 -0.10321,0.06115 -0.15927,0.04622c-0.06975,-0.01208 -0.1403,-0.02237 -0.21117,-0.03403l0.01544,0.1131c-1.55069,0.10035 -3.10162,0.19513 -4.65291,0.28133c0.95874,-0.98447 1.96474,-1.9014 3.01328,-2.74555z" fill="#74b140" fill-rule="evenodd"/><path d="M229.57443,173.03116c0.02351,-0.12481 -0.00573,-0.25573 -0.07782,-0.34851c0.24887,-0.10406 0.49935,-0.19662 0.75208,-0.29c0.23498,-0.08682 0.47172,-0.16823 0.71019,-0.24423c0.0748,-0.02764 0.15073,-0.05568 0.22667,-0.08374c0.16492,-0.05336 0.33097,-0.10714 0.49658,-0.15772c0.10337,-0.03213 0.20845,-0.05733 0.30932,-0.09461c0.18068,-0.05464 0.35183,-0.10273 0.52787,-0.15113c0.14328,-0.04083 0.28643,-0.07705 0.42926,-0.11468l0.18658,-0.03563c0.52468,-0.13227 1.0501,-0.24818 1.57626,-0.3477c-0.06742,0.12787 -0.06289,0.28672 0.09256,0.46096c0.15545,0.17425 0.37636,0.19255 0.57548,0.19772c0.381,0.01065 1.11986,-0.1624 1.36623,0.33561c0.20124,0.4102 -0.17509,0.77487 -0.4507,0.90093c-0.21268,0.08114 -0.43309,0.12797 -0.65567,0.13929c0.55371,0.45562 1.29376,1.2058 1.50996,0.03567c0.05569,-0.36307 0.21479,-0.69015 0.44898,-0.923c0.27901,-0.30296 0.40913,-0.59787 0.35637,-1.06293c-0.02006,-0.16602 -0.05129,-0.3297 -0.09338,-0.48942c0.54241,-0.03688 1.08553,-0.05584 1.62606,-0.06022c0.04456,0.00018 0.08913,0.00038 0.13221,-0.00039c0.16067,-0.00031 0.32169,0.00076 0.48191,0.00365c0.05613,0.00197 0.12054,0.00241 0.18042,0.00451c0.23881,0.00564 0.4783,0.01407 0.71621,0.02611l0.35268,0.02112l0.32716,0.02298c0.14278,0.01236 0.28669,0.0243 0.4298,0.03805c0.08483,0.00803 0.16931,0.01467 0.25301,0.02311c-0.03985,0.13435 -0.07926,0.26551 -0.11811,0.38888c-0.41947,1.29368 -1.27838,2.54532 -2.46086,2.67938c0.07659,0.31089 0.34964,0.48559 0.62449,0.487c0.35243,0.00001 0.67697,-0.24862 0.97288,-0.45789c0.04928,-0.03734 0.10985,-0.04478 0.16421,-0.02021c0.05436,0.02458 0.09644,0.07843 0.11409,0.14602c0.06366,0.52931 0.40634,0.9427 0.83949,1.0127c0.43316,0.07 0.85168,-0.22039 1.02527,-0.71138c0.02733,-0.06184 0.0765,-0.10473 0.13316,-0.11619c0.05666,-0.01146 0.11446,0.00979 0.15658,0.05758c0.45713,0.68968 1.18097,1.02666 1.89682,0.88307c0.06345,-0.02095 0.13123,-0.00012 0.17909,0.05503c0.04786,0.05514 0.06896,0.13673 0.05575,0.21556c-0.07267,0.79911 -0.388,2.51488 -0.92001,3.06578c-0.23765,0.24785 -7.26721,0.18512 -7.99994,0.23574c-0.10942,-0.15206 -0.18901,-0.33654 -0.28937,-0.5091c-0.22353,-0.38531 -0.67623,-0.75711 -1.02995,-0.36597c-0.04623,0.05777 -0.11372,0.08188 -0.17808,0.0636c-0.06436,-0.01828 -0.11629,-0.0763 -0.13703,-0.15311c-0.27572,-0.82301 -0.815,-1.47157 -1.49194,-1.79431c-0.14186,-0.07119 -0.11123,-0.29763 -0.01163,-0.39165c-0.22266,0.09751 -0.43417,0.27729 -0.66232,0.33632c-0.23159,0.05381 -0.47108,0.01913 -0.68603,-0.09934c-0.55552,-0.28232 -0.87203,-0.91947 -1.31903,-1.37364c-1.0549,-1.0745 -2.18402,0.71155 -3.33982,0.2664c-0.05567,-0.01734 -0.10181,-0.06485 -0.12532,-0.12901c-0.02351,-0.06416 -0.02182,-0.13797 0.00459,-0.20041c0.22023,-0.4161 0.54056,-0.73815 0.91671,-0.92168c0.22914,-0.10889 0.48386,-0.07885 0.7054,-0.1834c0.09801,-0.04474 0.17111,-0.14675 0.19461,-0.27156zM233.88564,175.60749c0.00423,-0.00186 0.00847,-0.00368 0.01271,-0.00546c-0.00394,0.00064 -0.00777,0.00205 -0.01134,0.00418c-0.00045,0.00043 -0.00091,0.00084 -0.00136,0.00128z" fill="#74b140" fill-rule="nonzero"/><path d="M226.18803,175.99172c-0.00845,-0.40571 -0.07473,-0.79008 0.07093,-1.17249c0.09582,-0.25346 0.24368,-0.44133 0.24864,-0.73239c0.22492,-0.12096 0.45053,-0.23915 0.67909,-0.3554c-0.00387,0.16497 -0.02157,0.32899 -0.03455,0.46704c-0.02869,0.30131 -0.07955,0.59885 -0.15193,0.88897c-0.0652,0.25728 -0.187,0.51578 -0.22577,0.77997c-0.05057,0.35181 0.09536,0.69311 0.17935,1.02398c0.08399,0.33087 0.15404,0.66538 0.21877,1.00335c0.03221,0.17586 -0.12095,0.38237 -0.26578,0.26629c-0.29558,-0.23603 -0.62465,-0.5127 -0.76092,-0.93025c-0.14003,-0.43282 0.04762,-0.80045 0.04218,-1.23908z" fill="#74b140" fill-rule="evenodd"/><path d="M226.01743,178.48617c0.01936,0.08713 0.03246,0.1823 0.03658,0.27713c-0.23698,0.0163 -0.47395,0.03253 -0.71094,0.04867c-0.09738,-0.26934 -0.22431,-0.50854 -0.3361,-0.78831c-0.08639,-0.1938 -0.10867,-0.42082 -0.06227,-0.63416c-0.00826,-0.0668 0.00582,-0.13487 0.0391,-0.18879c0.03328,-0.05391 0.0829,-0.0891 0.13765,-0.09759c0.07457,-0.02188 0.15298,0.00697 0.20534,0.07555c0.16589,0.08105 0.36169,0.16315 0.45524,0.3421c0.13663,0.25842 0.17073,0.67283 0.2354,0.96541z" fill="#74b140" fill-rule="evenodd"/><path d="M253.1109,174.28321c0.32271,0.17553 0.64271,0.36014 0.96,0.55383c-0.02821,0.04345 -0.05975,0.08352 -0.09419,0.11961c-0.32612,0.34763 -0.69765,0.12451 -0.81289,-0.3432c-0.02438,-0.10829 -0.04207,-0.21869 -0.05291,-0.33024z" fill="#74b140" fill-rule="evenodd"/><path d="M254.55541,175.71084c-0.04764,-0.07189 -0.05555,-0.17171 -0.02006,-0.25345c0.03029,-0.09347 0.0541,-0.1899 0.07118,-0.28826c0.22606,0.14462 0.45155,0.29196 0.67649,0.44205c-0.02721,0.01005 -0.05439,0.02011 -0.08387,0.031c-0.14871,0.04888 -0.29799,0.09042 -0.44533,0.14486c-0.07264,0.02571 -0.15078,-0.00429 -0.19842,-0.07618z" fill="#74b140" fill-rule="evenodd"/><path d="M255.63359,175.8496c0.26717,0.18597 0.53308,0.37693 0.79708,0.57013c0.01544,0.01247 0.03087,0.02492 0.0471,0.03559c0.24073,0.17908 0.47875,0.36217 0.71632,0.54848l0.10442,0.08256c0.22573,0.18007 0.45176,0.36306 0.67811,0.54896l0.07639,0.06414c0.24534,0.20613 0.48835,0.41618 0.72901,0.6301c0.00535,0.09259 0.01429,0.1859 0.02411,0.27955c-0.37613,-0.01263 -0.75472,-0.02558 -1.13537,-0.0387c-0.07874,-0.15984 -0.16485,-0.31438 -0.27259,-0.43217c-0.17487,-0.19281 -0.41345,-0.19248 -0.56331,-0.42935c-0.1268,-0.19845 -0.14662,-0.43947 -0.20373,-0.67124c-0.12478,-0.47631 -0.27312,-0.23525 -0.56,-0.3155c-0.14557,-0.04325 -0.26691,-0.16584 -0.32926,-0.33262c-0.07471,-0.16772 -0.06625,-0.36923 -0.1083,-0.53993z" fill="#74b140" fill-rule="evenodd"/><path d="M254.98062,178.07754c0.00002,-0.0801 0.03401,-0.15444 0.08976,-0.19634c0.05575,-0.0419 0.12525,-0.04536 0.18359,-0.00914c0.1111,0.05445 0.21377,0.13174 0.30363,0.22852c0.11336,-0.29667 0.32286,-0.52177 0.57782,-0.62083c0.09821,-0.03546 0.20144,0.03235 0.23163,0.15215l0.22618,0.90136c-0.53713,-0.01847 -1.07754,-0.0369 -1.62015,-0.05473z" fill="#74b140" fill-rule="evenodd"/></g><g fill-rule="nonzero" stroke="none" stroke-width="0" stroke-linecap="butt"><path d="M239.42792,82.43584l-0.36299,-0.72412l19.09867,-9.57372l0.36299,0.72412z" fill="#e5e5e5"/><path d="M227.78626,84.17196l-0.91126,-1.21501l6.27754,-2.22751l10.93507,0.30375v1.82251l-10.93507,-0.10125z" fill="#6e6e6e"/><path d="M232.44379,83.56445v-4.96128h7.8278v4.96128l-1.44756,1.32936l-4.25397,-0.11435z" fill="#f0a53d"/><path d="M244.84699,73.99628c0.18706,3.74191 -3.66126,6.88504 -8.30255,6.88504c-4.64129,0 -8.6063,-3.0372 -8.6063,-6.78379c0,-2.02532 3.56001,-3.84753 8.2013,-3.84753c4.64129,0 8.6063,1.72095 8.70755,3.74627z" fill="#e6e6e6"/><path d="M244.49424,73.79377c0,1.87329 -3.64954,3.3919 -8.15149,3.3919c-4.50195,0 -8.15149,-1.51861 -8.15149,-3.3919c0,-1.87329 3.64954,-3.39189 8.15149,-3.39189c4.50195,0 8.15149,1.5186 8.15149,3.39189z" fill="#ffffff"/><path d="M239.22758,72.88252c0,0.53074 -0.79417,0.87728 -2.01863,1.01753c-0.25917,0.02969 -0.5331,1.46311 -0.81638,1.46311c-0.32019,0 -0.83091,-1.43784 -1.11941,-1.47541c-1.17264,-0.15272 -1.91812,-0.48914 -1.91812,-1.00523c0,-0.64307 1.31461,-1.16438 2.93626,-1.16438c1.62166,0 2.93627,0.52131 2.93627,1.16438z" fill="#e6e6e6"/><path d="M239.21361,83.02229l0.46549,-0.66289l17.4838,12.27729l-0.46549,0.66289z" fill="#e5e5e5"/><path d="M236.36467,84.30335l0.68948,-0.42512l11.21263,18.18495l-0.68948,0.42512z" fill="#e5e5e5"/></g></g></g></g></svg>