<svg version="1.1" xmlns="http://www.w3.org/2000/svg" xmlns:xlink="http://www.w3.org/1999/xlink" width="101.53973" height="201.82679" viewBox="0,0,101.53973,201.82679"><defs><linearGradient x1="240.52487" y1="69.91146" x2="240.52487" y2="231.71279" gradientUnits="userSpaceOnUse" id="color-1"><stop offset="0" stop-color="#000000"/><stop offset="1" stop-color="#000000" stop-opacity="0"/></linearGradient><linearGradient x1="186.24995" y1="149.18378" x2="237.12585" y2="142.572" gradientUnits="userSpaceOnUse" id="color-2"><stop offset="0" stop-color="#e4e4e4" stop-opacity="0"/><stop offset="1" stop-color="#e4e4e4"/></linearGradient><linearGradient x1="291.0709" y1="150.04337" x2="240.195" y2="143.43159" gradientUnits="userSpaceOnUse" id="color-3"><stop offset="0" stop-color="#e4e4e4" stop-opacity="0"/><stop offset="1" stop-color="#e4e4e4"/></linearGradient></defs><g transform="translate(-188.73228,-21.67921)"><g data-paper-data="{&quot;isPaintingLayer&quot;:true}" stroke-miterlimit="10" stroke-dasharray="" stroke-dashoffset="0" style="mix-blend-mode: normal"><path d="M277.5984,179.73704c0.06428,1.70211 -5.78164,6.39714 -36.23334,6.39714c-30.45171,0 -38.95379,-4.00775 -38.96398,-6.74772c-0.0088,-2.36557 7.88212,-5.52062 38.33383,-5.52062c30.45171,0 36.80469,4.31425 36.8635,5.87122z" fill="url(#color-1)" fill-rule="nonzero" stroke="none" stroke-width="0" stroke-linecap="butt" stroke-linejoin="miter"/><text transform="translate(201.0425,38.67015) scale(0.44713,0.44713)" font-size="40" xml:space="preserve" fill="#000000" fill-rule="nonzero" stroke="#000000" stroke-width="1" stroke-linecap="butt" stroke-linejoin="miter" stroke-miterlimit="10" stroke-dasharray="" stroke-dashoffset="0" font-family="Handwriting" font-weight="normal" text-anchor="start" style="mix-blend-mode: normal"></text><text transform="translate(216.28219,215.68345) scale(0.46015,0.46015)" font-size="40" xml:space="preserve" fill="#000000" fill-rule="nonzero" stroke="#000000" stroke-width="1" stroke-linecap="butt" stroke-linejoin="miter" stroke-miterlimit="10" stroke-dasharray="" stroke-dashoffset="0" font-family="Handwriting" font-weight="normal" text-anchor="start" style="mix-blend-mode: normal"></text><path d="M253.69525,113.1337c-0.04773,1.94365 1.4204,4.69259 0.64222,6.49592c-0.80654,1.86907 -3.8817,2.7806 -5.1884,4.10233c-1.26094,1.27544 -2.00062,3.95325 -3.5888,4.5878c-1.86579,0.74546 -4.63862,-0.6689 -6.89898,-0.7244c-2.07212,-0.05087 -5.0515,0.91576 -6.81949,0.08899c-1.72792,-0.80804 -2.25312,-3.39408 -3.53547,-4.7787c-1.4036,-1.51552 -3.99167,-2.38179 -4.66919,-4.38396c-0.54677,-1.61576 0.6729,-4.3012 0.71726,-6.1084c0.04656,-1.89613 -1.26919,-3.98817 -0.58604,-5.63899c0.66254,-1.60105 3.30701,-2.76998 4.44957,-4.02602c1.34615,-1.47983 1.78736,-3.93895 3.62301,-4.7698c1.93536,-0.87598 5.2871,-0.08235 7.5482,-0.02684c2.06088,0.0506 4.29367,-0.93901 6.05417,-0.12031c1.81323,0.84323 3.14259,3.51551 4.46319,4.98893c1.43281,1.59862 4.51202,2.57915 5.14826,4.68968c0.4463,1.48054 -1.31942,3.99145 -1.3595,5.62372" fill="#19242d" fill-rule="evenodd" stroke="none" stroke-width="2.5" stroke-linecap="butt" stroke-linejoin="miter"/><path d="M255.90933,135.52225c0,21.49903 -8.19775,42.88235 -17.29493,42.88235c-9.09685,0 -15.64841,-21.3833 -15.64841,-42.88235c0,-6.81409 7.37466,-13.0294 16.47151,-13.0294c9.09717,0 16.47183,7.25128 16.47183,13.0294" fill="#19242d" fill-rule="evenodd" stroke="none" stroke-width="2.5" stroke-linecap="butt" stroke-linejoin="miter"/><path d="M252.0979,93.1093c0,5.58818 -5.6253,10.1183 -12.56447,10.1183c-6.93918,0 -12.56449,-4.53011 -12.56449,-10.1183c0,-3.89553 2.50471,-7.27691 6.51144,-8.96793c0.67286,-0.28397 -1.38908,-6.73557 -0.3817,-7.15114c0.5586,-0.23042 4.4846,6.32486 6.64769,6.39784c2.21114,0.0746 4.98926,-5.84965 6.02026,-5.72608c0.76363,0.09153 -0.95857,6.33835 -0.48402,6.54548c3.92262,1.71199 6.81529,5.0564 6.81529,8.90183z" fill="#19242d" fill-rule="nonzero" stroke="none" stroke-width="2.5" stroke-linecap="butt" stroke-linejoin="miter"/><path d="M210.15526,54.52073l4.76161,3.4132c8.85379,6.34747 14.45826,16.2194 15.33509,27.01445l0.54115,6.66421" fill="none" fill-rule="evenodd" stroke="#19242d" stroke-width="2.5" stroke-linecap="round" stroke-linejoin="miter"/><path d="M247.91412,92.23564l0.54105,-6.66433c0.87684,-10.79448 6.4814,-20.66686 15.33519,-27.01432l4.76162,-3.4132" fill="none" fill-rule="evenodd" stroke="#19242d" stroke-width="2.5" stroke-linecap="round" stroke-linejoin="miter"/><path d="M236.65718,93.06445c0,2.89002 -2.36346,5.23318 -5.27955,5.23318c-2.91608,0 -5.27983,-2.34319 -5.27983,-5.23318c0,-2.88974 2.36373,-5.23295 5.27983,-5.23295c2.91608,0 5.27955,2.34321 5.27955,5.23295" fill="#f2f253" fill-rule="evenodd" stroke="none" stroke-width="2.5" stroke-linecap="butt" stroke-linejoin="miter"/><path d="M252.38997,93.06445c0,2.89002 -2.36347,5.23318 -5.27981,5.23318c-2.91608,0 -5.27956,-2.34319 -5.27956,-5.23318c0,-2.88974 2.36348,-5.23295 5.27956,-5.23295c2.91635,0 5.27981,2.34321 5.27981,5.23295" fill="#f2f253" fill-rule="evenodd" stroke="none" stroke-width="2.5" stroke-linecap="butt" stroke-linejoin="miter"/><path d="M189.98228,111.60547l19.75548,11.09402l9.24455,-14.17588l22.24613,18.69033" fill="none" fill-rule="evenodd" stroke="#19242d" stroke-width="2.5" stroke-linecap="round" stroke-linejoin="round"/><path d="M193.0638,142.75095l25.03169,-10.73434l3.50187,-11.83539l19.63112,14.36425" fill="none" fill-rule="evenodd" stroke="#19242d" stroke-width="2.5" stroke-linecap="round" stroke-linejoin="round"/><path d="M195.34996,186.01144l16.77647,-17.20167l4.62227,-19.09365l21.01304,-22.84196" fill="none" fill-rule="evenodd" stroke="#19242d" stroke-width="2.5" stroke-linecap="round" stroke-linejoin="round"/><path d="M237.77584,127.21392l22.24613,-18.69033l9.24456,14.17588l19.75548,-11.09401" data-paper-data="{&quot;index&quot;:null}" fill="none" fill-rule="evenodd" stroke="#19242d" stroke-width="2.5" stroke-linecap="round" stroke-linejoin="round"/><path d="M253.65576,113.98198c0,8.18831 -6.56998,14.82631 -14.67446,14.82631c-8.10523,0 -14.67524,-6.638 -14.67524,-14.82631c0,-8.18847 6.56998,-14.82631 14.67524,-14.82631c8.10447,0 14.67446,6.63785 14.67446,14.82631" fill="#19242d" fill-rule="evenodd" stroke="none" stroke-width="2.5" stroke-linecap="butt" stroke-linejoin="miter"/><path d="M237.77584,134.54545l19.63112,-14.36425l3.50188,11.83538l25.03168,10.73435" data-paper-data="{&quot;index&quot;:null}" fill="none" fill-rule="evenodd" stroke="#19242d" stroke-width="2.5" stroke-linecap="round" stroke-linejoin="round"/><path d="M241.24254,126.87416l21.01305,22.84196l4.62228,19.09365l16.77649,17.20167" data-paper-data="{&quot;index&quot;:null}" fill="none" fill-rule="evenodd" stroke="#19242d" stroke-width="2.5" stroke-linecap="round" stroke-linejoin="round"/><path d="M223.08625,133.32789c-0.03665,-0.76771 2.09283,-6.33717 5.64879,-7.61359c1.71008,-0.49413 18.35036,-1.18183 20.63031,0c5.2602,2.72666 6.08902,6.53612 6.13996,7.61359c0.04131,0.87382 -32.24602,1.2779 -32.41907,0z" fill="#f2f253" fill-rule="nonzero" stroke="none" stroke-width="2.5" stroke-linecap="butt" stroke-linejoin="miter"/><path d="M223.82304,149.78302c-0.01201,-0.25186 -0.79296,-4.60985 -1.00399,-8.41256c-0.05337,-0.96152 33.29505,-1.13798 33.08285,0.38455c-0.70188,5.03601 -1.14868,7.9503 -1.1334,8.27361c-0.20427,0.62822 -30.71762,1.43711 -30.94547,-0.2456z" fill="#f2f253" fill-rule="nonzero" stroke="none" stroke-width="2.5" stroke-linecap="butt" stroke-linejoin="miter"/><path d="M227.50703,166.72934c-0.01201,-0.25186 -1.77536,-4.60985 -1.98639,-8.41256c-0.05337,-0.96152 27.40068,-0.89238 27.18848,0.63015c-0.70188,5.03601 -2.86789,7.4591 -2.85261,7.78241c-0.20427,0.62822 -22.12166,1.68271 -22.3495,0z" fill="#f2f253" fill-rule="nonzero" stroke="none" stroke-width="2.5" stroke-linecap="butt" stroke-linejoin="miter"/><path d="M228.76371,109.01699c3.15485,1.51454 7.49711,24.1682 8.60243,35.99529c0.09516,1.01831 0.5512,5.17116 0.48032,5.88151c-0.81493,8.16679 -17.38915,28.99724 -19.705,28.67231c-0.6514,-0.09139 -2.89807,-3.33077 -3.33431,-4.39298c-2.79864,-6.81435 -4.55357,-20.67254 -2.57495,-33.75769c2.74053,-18.12386 12.53654,-34.31627 16.53152,-32.39844z" fill="url(#color-2)" fill-rule="nonzero" stroke="none" stroke-width="2.5" stroke-linecap="butt" stroke-linejoin="miter"/><path d="M265.08864,142.27501c1.9786,13.08515 0.22368,26.94334 -2.57495,33.75768c-0.43624,1.06218 -2.68289,4.3016 -3.33429,4.39299c-2.31585,0.32493 -18.89008,-20.50553 -19.70501,-28.67231c-0.07088,-0.71035 0.38517,-4.8632 0.48032,-5.88152c1.10532,-11.82709 5.44758,-34.48074 8.60243,-35.99528c3.99498,-1.91783 13.79099,14.27456 16.53151,32.39845z" data-paper-data="{&quot;index&quot;:null}" fill="url(#color-3)" fill-rule="nonzero" stroke="none" stroke-width="2.5" stroke-linecap="butt" stroke-linejoin="miter"/></g></g></svg>