<svg version="1.1" xmlns="http://www.w3.org/2000/svg" xmlns:xlink="http://www.w3.org/1999/xlink" width="103.47442" height="190.00692" viewBox="0,0,103.47442,190.00692"><defs><linearGradient x1="239.67821" y1="-7.39275" x2="239.67821" y2="269.49528" gradientUnits="userSpaceOnUse" id="color-1"><stop offset="0" stop-color="#000000"/><stop offset="1" stop-color="#000000" stop-opacity="0"/></linearGradient><radialGradient cx="240.23364" cy="125.15943" r="52.75727" gradientUnits="userSpaceOnUse" id="color-2"><stop offset="0" stop-color="#cf5315"/><stop offset="1" stop-color="#c72e00"/></radialGradient><radialGradient cx="259.75" cy="97.18943" r="15.27273" gradientUnits="userSpaceOnUse" id="color-3"><stop offset="0" stop-color="#ffa44c"/><stop offset="1" stop-color="#ff7f48"/></radialGradient><radialGradient cx="235.08334" cy="80.91666" r="12" gradientUnits="userSpaceOnUse" id="color-4"><stop offset="0" stop-color="#ffa44c"/><stop offset="1" stop-color="#ff7f48"/></radialGradient><radialGradient cx="233.08333" cy="106.43185" r="10.18182" gradientUnits="userSpaceOnUse" id="color-5"><stop offset="0" stop-color="#ffa44c"/><stop offset="1" stop-color="#ff7f48"/></radialGradient><radialGradient cx="276.58334" cy="136.61363" r="13.63636" gradientUnits="userSpaceOnUse" id="color-6"><stop offset="0" stop-color="#ffa44c"/><stop offset="1" stop-color="#ff7f48"/></radialGradient><radialGradient cx="248.41667" cy="128.58335" r="12" gradientUnits="userSpaceOnUse" id="color-7"><stop offset="0" stop-color="#ffa44c"/><stop offset="1" stop-color="#ff7f48"/></radialGradient><radialGradient cx="224.08333" cy="137.58333" r="12" gradientUnits="userSpaceOnUse" id="color-8"><stop offset="0" stop-color="#ffa44c"/><stop offset="1" stop-color="#ff7f48"/></radialGradient><radialGradient cx="239.08334" cy="162.25" r="12" gradientUnits="userSpaceOnUse" id="color-9"><stop offset="0" stop-color="#ffa44c"/><stop offset="1" stop-color="#ff7f48"/></radialGradient><radialGradient cx="262.08334" cy="157.40153" r="9.81818" gradientUnits="userSpaceOnUse" id="color-10"><stop offset="0" stop-color="#ffa44c"/><stop offset="1" stop-color="#ff7f48"/></radialGradient><radialGradient cx="209.13889" cy="102.52275" r="14.60606" gradientUnits="userSpaceOnUse" id="color-11"><stop offset="0" stop-color="#ffa44c"/><stop offset="1" stop-color="#ff7f48"/></radialGradient><radialGradient cx="200.75" cy="132.25" r="12" gradientUnits="userSpaceOnUse" id="color-12"><stop offset="0" stop-color="#ffa44c"/><stop offset="1" stop-color="#ff7f48"/></radialGradient><radialGradient cx="281.58334" cy="112.12882" r="8.54545" gradientUnits="userSpaceOnUse" id="color-13"><stop offset="0" stop-color="#ffa44c"/><stop offset="1" stop-color="#ff7f48"/></radialGradient><radialGradient cx="211.91667" cy="157.79546" r="8.54545" gradientUnits="userSpaceOnUse" id="color-14"><stop offset="0" stop-color="#ffa44c"/><stop offset="1" stop-color="#ff7f48"/></radialGradient><radialGradient cx="270.5" cy="123.1667" r="5.66667" gradientUnits="userSpaceOnUse" id="color-15"><stop offset="0" stop-color="#ffa44c"/><stop offset="1" stop-color="#ff7f48"/></radialGradient><radialGradient cx="211.5" cy="142.83333" r="5.66667" gradientUnits="userSpaceOnUse" id="color-16"><stop offset="0" stop-color="#ffa44c"/><stop offset="1" stop-color="#ff7f48"/></radialGradient></defs><g transform="translate(-186.5042,-29.65398)"><g data-paper-data="{&quot;isPaintingLayer&quot;:true}" fill-rule="nonzero" stroke-linecap="butt" stroke-linejoin="miter" stroke-miterlimit="10" stroke-dasharray="" stroke-dashoffset="0" style="mix-blend-mode: normal"><path d="M287.58308,180.55001c0.08306,2.91279 -7.47079,10.94732 -46.81921,10.94732c-39.34842,0 -50.33445,-6.8584 -50.34761,-11.54727c-0.01137,-4.04815 10.18494,-9.44736 49.53336,-9.44736c39.34842,0 47.55747,7.38292 47.63346,10.04731z" fill="url(#color-1)" stroke="none" stroke-width="0"/><text transform="translate(222.76854,211.83834) scale(0.46015,0.46015)" font-size="40" xml:space="preserve" fill="#000000" fill-rule="nonzero" stroke="#000000" stroke-width="1" stroke-linecap="butt" stroke-linejoin="miter" stroke-miterlimit="10" stroke-dasharray="" stroke-dashoffset="0" font-family="Handwriting" font-weight="normal" text-anchor="start" style="mix-blend-mode: normal"></text><text transform="translate(186.75354,48.6042) scale(0.49869,0.49869)" font-size="40" xml:space="preserve" fill="#000000" fill-rule="nonzero" stroke="#000000" stroke-width="1" stroke-linecap="butt" stroke-linejoin="miter" stroke-miterlimit="10" stroke-dasharray="" stroke-dashoffset="0" font-family="Handwriting" font-weight="normal" text-anchor="start" style="mix-blend-mode: normal"></text><g stroke="none" stroke-width="0"><path d="M286.08333,145.6667c-4.66593,8.95024 -29.04261,32.25 -44.5,32.25c-13.2788,0 -39.55583,-20.5221 -45.41976,-30.34591c-4.4421,-7.44183 -3.08206,-43.24578 -1.08024,-47.40409c2.69792,-5.60429 30.06361,-28.42191 47.5,-27.75c8.03838,0.30976 37.26238,21.6081 41.5918,29.71459c3.74543,7.01302 3.68991,40.11772 1.9082,43.53541z" fill="url(#color-2)"/><path d="M276.08334,92.85609c1.52068,2.31731 -3.89504,3.74777 -7.04506,8.81651c-3.49067,5.61687 1.70764,12.45622 -5.28827,14.45622c-7.43417,2.12529 -18,-10.50449 -18,-18.93939c0,-8.43489 5.613,-16.69702 13.33334,-16.27273c1.29952,0.07142 3.7063,-2.18353 5.13964,-1.54265c2.0012,0.89479 2.5759,3.28944 4.28146,5.25388c1.76876,2.03722 6.19501,0.39111 7.79922,2.07488c0.91213,0.95736 -0.66707,5.47252 -0.22033,6.15329z" fill="url(#color-3)"/><path d="M254.08334,78.58337c-6.61947,0.32445 -10.65952,14.42699 -19,13c-13.21373,-2.26076 -17.19523,-10.51556 -16.33334,-11.33334c0.79302,-0.75242 1.7509,-5.46885 3.81008,-6.5867c2.46177,-1.3364 5.36081,1.05167 8.54416,0.77778c3.54076,-0.30464 5.02086,-5.19108 7.31242,-5.19108c1.51246,0 5.47013,3.4363 7.46501,4.09619c2.42059,0.80071 6.57238,-3.35853 7.98677,-1.82808c2.10201,2.27451 2.90862,6.9332 0.2149,7.06523z" fill="url(#color-4)"/><path d="M242.08333,95.76518c2.22644,2.38691 1.5185,5.27003 2.3713,9.07834c0.81671,3.64714 3.25817,6.559 1.6287,8.10347c-2.54317,2.41052 -24,5.77478 -24,0.15152c0,-1.02567 2.17037,-4.68534 2.74573,-8.59911c0.72636,-4.94094 0.0982,-10.28688 2.5876,-11.24937c4.19676,-2.2553 12.9608,1.42182 14.66667,2.51515z" fill="url(#color-5)"/><path d="M287.41667,127.28033c0.47693,1.71384 2.77992,6.85473 2.5452,9.23237c-0.24599,2.49191 -3.0498,2.24387 -3.39603,5.0368c-0.22286,1.79772 1.68593,4.20676 0.98594,5.7877c-0.86209,1.94702 -3.70012,2.71897 -5.61339,3.98789c-1.56588,1.03852 -2.18215,2.7401 -3.35506,2.92494c-2.42037,0.38144 -17.55207,-12.72351 -16.83333,-16.30303c0.72249,-3.59821 10.27424,-7.0641 12.83333,-7.30303c3.57023,-0.33333 12.5,-4.56147 12.83333,-3.36364z" fill="url(#color-6)"/><path d="M263.08333,123.25002c0.60646,6.59961 -7.59153,19.33333 -13.66667,19.33333c-6.07513,0 -20.59183,-14.65836 -18.66667,-21c1,-3.29409 13.59153,-6 19.66667,-6c3.40847,0 12.33333,4.03925 12.66667,7.66667z" fill="url(#color-7)"/><path d="M239.41666,144.25c0,6.62742 -4.2582,11.33333 -10.33333,11.33333c-6.07513,0 -12.66667,-12.70592 -12.66667,-19.33333c0,-6.62742 -0.07514,-15.66667 6,-15.66667c3.34592,0 4.59737,9.20967 8.34096,14.98412c3.05358,4.71012 8.65904,7.35245 8.65904,8.68255z" fill="url(#color-8)"/><path d="M254.75,172.91669c0,3.29408 -6.92486,5.33333 -13,5.33333c-2.97461,0 -7.25807,1.63204 -11.15662,-0.19009c-2.02186,-0.94499 -3.59973,-3.75481 -4.98889,-5.56296c-1.40282,-1.82591 -2.60663,-2.65011 -2.52115,-3.58028c0.17915,-1.94953 6.99737,-4.38335 10.40784,-8.0457c6.79879,-7.30092 9.94255,-16.84334 15.83041,-15.34524c5.74584,1.46197 0.17909,7.42281 1.13647,14.31343c0.73863,5.3162 4.29194,10.52638 4.29194,13.07751z" fill="url(#color-9)"/><path d="M274.41667,159.40151c-1.43105,1.21624 -9.36277,10.81818 -14.33333,10.81818c-4.97056,0 -6,-9.06242 -6,-14.48485c0,-5.42244 0.36277,-12.48485 5.33333,-12.48485c4.97056,0 16.25816,15.08221 15,16.15151z" fill="url(#color-10)"/><path d="M221.86111,102.52275c-1.73764,7.87732 -5.32773,14.60607 -12.72222,14.60607c-7.39448,0 -15.05555,-8.20603 -14.38889,-15.60606c0.08448,-0.9377 -1.62594,-6.27886 -1.17463,-7.32352c0.90348,-2.09129 3.26169,0.30633 5.31921,-1.3671c2.24425,-1.82529 3.48799,-8.33875 5.93063,-10.21202c1.7791,-1.36439 4.11498,0.39195 5.88325,0.62389c1.9926,0.26136 3.35438,-0.87336 4.09708,-0.32732c6.03997,4.44071 9.05555,10.53935 7.05555,19.60606z" fill="url(#color-11)"/><path d="M211.08333,123.9167c0,6.62741 -11.03811,23.64456 -13.33333,23.33333c-1.33987,-0.18169 -4.18842,-1.14843 -5.25017,-4.1834c-1.05332,-3.01089 -0.32173,-8.07838 -1.17553,-11.185c-0.98298,-3.57663 -2.30573,-4.08392 -2.44001,-7.38369c-0.10454,-2.56893 2.8657,-5.11656 2.8657,-6.58124c0,-6.62742 2.92487,2.33333 9,2.33333c6.07513,0 10.33333,-2.96075 10.33333,3.66667z" fill="url(#color-12)"/><path d="M286.91667,121.67426c-4.01443,1.61264 -15.16667,-3.82592 -15.16667,-8.54545c0,-4.71953 4.97093,-16.6 9.16667,-15.54545c0.63224,0.15891 4.65998,5.12607 6.08036,11.05093c1.55911,6.50356 0.78806,12.69112 -0.08036,13.03997z" fill="url(#color-13)"/><path d="M227.41667,159.12881c0,4.71953 -6.17376,6.21212 -10.5,6.21212c-4.32623,0 -15.5,-7.15926 -15.5,-11.87878c0,-4.71953 26,5.1785 26,5.66667z" fill="url(#color-14)"/><path d="M278.5,125.1667c0.74293,2.85029 -8.20372,5 -11.33333,5c-3.12961,0 -1,-4.72115 -1,-7.66667c0,-2.94552 0.20372,-4.33333 3.33333,-4.33333c3.12961,0 8.66667,5.72115 9,7z" fill="url(#color-15)"/><path d="M217.5,150.83333c-2.57733,0 -14.66667,0.12961 -14.66667,-3c0,-3.12961 6.42267,-10 9,-10c1.10315,0 1.43893,3.71495 2.78533,6.43942c1.79925,3.64082 4.35551,6.56058 2.88133,6.56058z" fill="url(#color-16)"/></g></g></g></svg>