<svg version="1.1" xmlns="http://www.w3.org/2000/svg" xmlns:xlink="http://www.w3.org/1999/xlink" width="103.94925" height="173.51995" viewBox="0,0,103.94925,173.51995"><defs><linearGradient x1="240.71898" y1="39.35419" x2="240.71898" y2="246.06672" gradientUnits="userSpaceOnUse" id="color-1"><stop offset="0" stop-color="#000000"/><stop offset="1" stop-color="#000000" stop-opacity="0"/></linearGradient></defs><g transform="translate(-188.16604,-47.71583)"><g data-paper-data="{&quot;isPaintingLayer&quot;:true}" fill-rule="nonzero" stroke-linecap="butt" stroke-linejoin="miter" stroke-miterlimit="10" stroke-dasharray="" stroke-dashoffset="0" style="mix-blend-mode: normal"><path d="M291.50329,179.66405c0.08805,2.17456 -7.91984,8.17279 -49.63339,8.17279c-41.71356,0 -53.35993,-5.12018 -53.37389,-8.62069c-0.01206,-3.02218 10.79713,-7.05298 52.51069,-7.05298c41.71356,0 50.41603,5.51176 50.49659,7.50089z" fill="url(#color-1)" stroke="none" stroke-width="0"/><text transform="translate(200.47495,66.05463) scale(0.4826,0.4826)" font-size="40" xml:space="preserve" fill="#000000" fill-rule="nonzero" stroke="#000000" stroke-width="1" stroke-linecap="butt" stroke-linejoin="miter" stroke-miterlimit="10" stroke-dasharray="" stroke-dashoffset="0" font-family="Handwriting" font-weight="normal" text-anchor="start" style="mix-blend-mode: normal"></text><text transform="translate(221.95773,213.41324) scale(0.46015,0.46015)" font-size="40" xml:space="preserve" fill="#000000" fill-rule="nonzero" stroke="#000000" stroke-width="1" stroke-linecap="butt" stroke-linejoin="miter" stroke-miterlimit="10" stroke-dasharray="" stroke-dashoffset="0" font-family="Handwriting" font-weight="normal" text-anchor="start" style="mix-blend-mode: normal"></text><g stroke-width="1"><path d="M291.61529,128.06297v1.82682h-9.62l8.24358,6.92532l-1.10773,1.31877l-8.86282,-7.44522v4.1622l3.16772,3.35457l-1.32288,1.24928l-3.579,-3.79056l0.01853,-0.0175v-5.75687h-12.64616l8.7156,12.14531l0.26664,0.28826l0.08853,0.20641l0.46893,0.65372l0.34076,0.56415l-0.59967,0.06074l-0.79424,0.13074l-0.1117,-0.0139l-0.48952,0.11273l-14.87447,2.44553l8.99356,8.99356l4.14212,-4.14264l-0.00052,-0.02573l5.21124,-0.14927l0.05199,1.81858l-4.61208,0.13229l-2.94329,2.94329l11.53123,1.0022l-0.14927,1.71563l-10.88317,-0.94609l6.88775,6.88775l-1.29149,1.29148l-6.8023,-6.80231l0.93219,10.72618l-1.71563,0.14928l-1.00221,-11.53124l-2.94329,2.94329l-0.13229,4.61208l-1.81858,-0.05199l0.14927,-5.21124l0.02573,0.00052l4.07058,-4.07058l-8.94209,-8.94208l-2.42494,14.75094l-0.11273,0.48952l0.0139,0.11169l-0.13074,0.79425l-0.06074,0.59967l-0.56415,-0.34076l-0.65373,-0.46893l-0.20641,-0.08853l-0.28825,-0.26664l-12.24672,-8.78869v12.71874h5.85827l0.0175,-0.01853l3.79055,3.57899l-1.24928,1.32289l-3.35457,-3.16772h-4.16219l7.44521,8.86282l-1.31876,1.10772l-7.02674,-8.36455v9.74045h-1.8263v-9.61897l-6.92533,8.24358l-1.31876,-1.10772l7.44521,-8.86281h-4.16219l-3.35457,3.16771l-1.24928,-1.32288l3.79056,-3.579l0.0175,0.01853h5.75738v-12.64616l-12.14532,8.7156l-0.28825,0.26664l-0.20641,0.08853l-0.65372,0.46893l-0.56416,0.34076l-0.06074,-0.59967l-0.13074,-0.79425l0.0139,-0.11169l-0.11273,-0.48952l-2.44554,-14.87448l-8.99356,8.99356l4.14212,4.14264l0.02574,-0.00052l0.14927,5.21124l-1.81858,0.05199l-0.13228,-4.61208l-2.94329,-2.94329l-1.0022,11.53124l-1.71564,-0.14928l0.9461,-10.88317l-6.88775,6.88775l-1.29148,-1.29148l6.8023,-6.80231l-10.72617,0.9322l-0.14928,-1.71563l11.53123,-1.0022l-2.94329,-2.94329l-4.61208,-0.13229l0.05199,-1.81858l5.21124,0.14927l-0.00052,0.02573l4.07058,4.07058l8.94208,-8.94209l-14.75094,-2.42494l-0.48952,-0.11273l-0.1117,0.0139l-0.79425,-0.13074l-0.59967,-0.06074l0.34076,-0.56415l0.46945,-0.65372l0.08854,-0.20641l0.26664,-0.28826l8.7156,-12.14531h-12.64616v5.75687l0.01853,0.0175l-3.579,3.79056l-1.32288,-1.24928l3.16772,-3.35457v-4.1622l-8.86282,7.44522l-1.10772,-1.31877l8.24409,-6.92532h-9.61999v-1.82631h9.74044l-8.36454,-7.02673l1.10772,-1.31877l8.86282,7.4447v-4.1622l-3.16772,-3.35456l1.32288,-1.24928l3.579,3.79055l-0.01853,0.0175v5.85827h12.71874l-8.78869,-12.24672l0.06537,0.04375l-0.42055,-0.53893l-0.46944,-0.65372l-0.34076,-0.56415l0.59968,-0.06074l0.79424,-0.13075l0.1117,0.0139l0.48952,-0.11273l14.75094,-2.42495l-8.94208,-8.94208l-4.07058,4.07057l0.00052,0.02573l-5.21124,0.14928l-0.05199,-1.81858l4.61208,-0.13229l2.94329,-2.94329l-11.53123,-1.0022l0.14928,-1.71563l10.72617,0.9322l-6.8023,-6.80231l1.29148,-1.29148l6.88775,6.88827l-0.94609,-10.88318l1.71563,-0.14927l1.0022,11.53123l2.94329,-2.94329l0.13229,-4.61208l1.81858,0.05199l-0.14927,5.21124l-0.02574,-0.00051l-4.14212,4.14212l8.99355,8.99356l2.44554,-14.87345l0.11273,-0.48952l-0.01389,-0.11169l0.13074,-0.79425l0.06073,-0.59967l0.56416,0.34076l0.65372,0.46893l0.20641,0.08853l0.28825,0.26664l12.14532,8.7156v-12.64616h-5.75687l-0.0175,0.01853l-3.79056,-3.579l1.24928,-1.32288l3.35457,3.16772h4.16219l-7.44521,-8.86281l1.31876,-1.10772l6.92585,8.2441v-9.62h1.8263v9.74045l7.02674,-8.36454l1.31876,1.10772l-7.44521,8.86281h4.16219l3.35457,-3.16772l1.24928,1.32288l-3.79055,3.579l-0.0175,-0.01853h-5.85827v12.71822l12.24672,-8.78869l0.28825,-0.26664l0.20641,-0.08853l0.65372,-0.46892l0.56416,-0.34076l0.06074,0.59967l0.13074,0.79425l-0.01389,0.11169l0.11273,0.48952l2.42494,14.75094l8.94209,-8.94208l-4.07058,-4.07058l-0.02573,0.00052l-0.14927,-5.21124l1.81858,-0.05199l0.13229,4.61208l2.94329,2.94329l1.00221,-11.53123l1.71563,0.14928l-0.93219,10.72618l6.80179,-6.80231l1.29149,1.29149l-6.88775,6.88775l10.88317,-0.94609l0.14927,1.71563l-11.53123,1.0022l2.94329,2.94329l4.61208,0.13229l-0.05199,1.81858l-5.21124,-0.14928l0.00052,-0.02573l-4.14212,-4.14264l-8.99356,8.99356l14.87447,2.44554l0.48952,0.11273l0.1117,-0.0139l0.79424,0.13075l0.59967,0.06074l-0.34076,0.56415l-0.46893,0.65372l-0.42054,0.53893l0.06537,-0.04375l-8.78869,12.24672h12.71874v-5.85827l-0.01853,-0.0175l3.579,-3.79055l1.32288,1.24928l-3.16772,3.35456v4.1622l8.86282,-7.44522l1.10773,1.31877l-8.36455,7.02673h9.74045zM257.31448,112.97076l-10.48734,10.48734l8.7995,-2.01109l0.45143,-0.28362l-0.73454,-3.7015l1.64357,-0.32635l0.88227,4.44582l2.51966,3.76739l-1.39289,0.93168l-2.09809,-3.13683l-0.51938,0.1189l-7.64442,4.80048h14.83124l9.02805,-12.58027zM244.34249,125.94378l-0.07001,0.07v0l-2.0497,2.0497h2.89902h0.09883l-0.03654,-0.05816l5.46758,-3.43333l-6.29425,1.43819zM243.07365,124.62862l1.42017,-6.21447l-3.43332,5.46759l-0.05817,-0.03655v0.09934v2.75541l1.97815,-1.97815v0zM239.17655,123.94453v-0.13177l-3.39008,-5.39861l1.43819,6.29426l-0.06692,0.01544l2.0183,2.0183v-2.79762zM235.84308,125.99166l-6.21395,-1.42018l5.46758,3.43333l-0.03654,0.05817h0.09883h2.75541zM235.0267,129.88979l-5.39861,3.39008l6.21447,-1.42018l1.96991,-1.96991h-2.654zM237.15722,133.12751l0.06691,0.01544l-1.43819,6.29426l3.39008,-5.39861v-0.13177v-2.79762zM241.00233,134.00618l0.05817,-0.03655l3.43332,5.46758l-1.42017,-6.21447l-0.09317,-0.09316v0l-1.97815,-1.97815v2.75541zM244.35793,131.84169l6.29425,1.43819l-5.39861,-3.39008h-0.13178h-2.79762l1.9483,1.9483v0l0.07001,0.07zM241.00233,105.49981v14.83176l4.80048,-7.64442l0.11891,-0.51937l-3.13684,-2.09808l0.93168,-1.39289l3.7674,2.51966l4.44582,0.88227l-0.32635,1.64357l-3.7015,-0.73453l-0.28363,0.45143l-1.96837,8.61368l10.42454,-10.42454l-2.49187,-15.15604zM224.18522,111.75134l10.48734,10.48734l-2.0111,-8.7995l-0.28362,-0.45143l-3.7015,0.73453l-0.32635,-1.64357l4.44582,-0.88227l3.76739,-2.51966l0.93168,1.39289l-3.13684,2.09808l0.11891,0.51937l4.69907,7.48279v-14.7427l-12.47887,-8.95495zM216.71427,128.06297h14.83123l-7.64442,-4.80048l-0.51937,-0.1189l-2.09808,3.13683l-1.39289,-0.93168l2.51966,-3.76739l0.88227,-4.44582l1.64357,0.32635l-0.73453,3.7015l0.45143,0.28362l8.61368,1.96837l-10.42454,-10.42454l-15.15604,2.49186zM222.84226,144.86052l10.42454,-10.42454l-8.61368,1.96838l-0.45143,0.28362l0.73453,3.7015l-1.64357,0.32635l-0.88227,-4.44582l-2.51966,-3.76739l1.39289,-0.93168l2.09808,3.13683l0.51937,-0.1189l7.4828,-4.69907h-14.7427l-8.95496,12.47887zM239.17603,152.42413v-14.7427l-4.69907,7.4828l-0.11891,0.51937l3.13684,2.09808l-0.93168,1.39289l-3.76739,-2.51966l-4.44582,-0.88226l0.32635,-1.64357l3.7015,0.73453l0.28362,-0.45143l2.0111,-8.7995l-10.48734,10.48734l2.51194,15.27906zM256.07447,146.22304l-10.42454,-10.42454l1.96837,8.61368l0.28363,0.45143l3.7015,-0.73453l0.32635,1.64357l-4.44582,0.88226l-3.7674,2.51966l-0.93168,-1.39289l3.13684,-2.09808l-0.11891,-0.51937l-4.80048,-7.64443v14.83124l12.58028,9.02804zM263.63859,129.88979h-14.7427l7.48279,4.69907l0.51938,0.1189l2.09809,-3.13683l1.39289,0.93168l-2.51966,3.76739l-0.88227,4.44582l-1.64357,-0.32635l0.73454,-3.7015l-0.45143,-0.28362l-8.7995,-2.0111l10.48734,10.48734l15.27907,-2.51193z" fill="#bee4fa" stroke="none"/><path d="M291.61529,128.06297v1.82682h-9.62l8.24358,6.92532l-1.10773,1.31877l-8.86282,-7.44522v4.1622l3.16772,3.35457l-1.32288,1.24928l-3.579,-3.79056l0.01853,-0.0175v-5.75687h-12.64616l8.7156,12.14531l0.26664,0.28826l0.08853,0.20641l0.46893,0.65372l0.34076,0.56415l-0.59967,0.06074l-0.79424,0.13074l-0.1117,-0.0139l-0.48952,0.11273l-14.87447,2.44553l8.99356,8.99356l4.14212,-4.14264l-0.00052,-0.02573l5.21124,-0.14927l0.05199,1.81858l-4.61208,0.13229l-2.94329,2.94329l11.53123,1.0022l-0.14927,1.71563l-10.88317,-0.94609l6.88775,6.88775l-1.29149,1.29148l-6.8023,-6.80231l0.93219,10.72618l-1.71563,0.14928l-1.00221,-11.53124l-2.94329,2.94329l-0.13229,4.61208l-1.81858,-0.05199l0.14927,-5.21124l0.02573,0.00052l4.07058,-4.07058l-8.94209,-8.94208l-2.42494,14.75094l-0.11273,0.48952l0.0139,0.11169l-0.13074,0.79425l-0.06074,0.59967l-0.56415,-0.34076l-0.65373,-0.46893l-0.20641,-0.08853l-0.28825,-0.26664l-12.24672,-8.78869v12.71874h5.85827l0.0175,-0.01853l3.79055,3.57899l-1.24928,1.32289l-3.35457,-3.16772h-4.16219l7.44521,8.86282l-1.31876,1.10772l-7.02674,-8.36455v9.74045h-1.8263v-9.61897l-6.92533,8.24358l-1.31876,-1.10772l7.44521,-8.86281h-4.16219l-3.35457,3.16771l-1.24928,-1.32288l3.79056,-3.579l0.0175,0.01853h5.75738v-12.64616l-12.14532,8.7156l-0.28825,0.26664l-0.20641,0.08853l-0.65372,0.46893l-0.56416,0.34076l-0.06074,-0.59967l-0.13074,-0.79425l0.0139,-0.11169l-0.11273,-0.48952l-2.44554,-14.87448l-8.99356,8.99356l4.14212,4.14264l0.02574,-0.00052l0.14927,5.21124l-1.81858,0.05199l-0.13228,-4.61208l-2.94329,-2.94329l-1.0022,11.53124l-1.71564,-0.14928l0.9461,-10.88317l-6.88775,6.88775l-1.29148,-1.29148l6.8023,-6.80231l-10.72617,0.9322l-0.14928,-1.71563l11.53123,-1.0022l-2.94329,-2.94329l-4.61208,-0.13229l0.05199,-1.81858l5.21124,0.14927l-0.00052,0.02573l4.07058,4.07058l8.94208,-8.94209l-14.75094,-2.42494l-0.48952,-0.11273l-0.1117,0.0139l-0.79425,-0.13074l-0.59967,-0.06074l0.34076,-0.56415l0.46945,-0.65372l0.08854,-0.20641l0.26664,-0.28826l8.7156,-12.14531h-12.64616v5.75687l0.01853,0.0175l-3.579,3.79056l-1.32288,-1.24928l3.16772,-3.35457v-4.1622l-8.86282,7.44522l-1.10772,-1.31877l8.24409,-6.92532h-9.61999v-1.82631h9.74044l-8.36454,-7.02673l1.10772,-1.31877l8.86282,7.4447v-4.1622l-3.16772,-3.35456l1.32288,-1.24928l3.579,3.79055l-0.01853,0.0175v5.85827h12.71874l-8.78869,-12.24672l0.06537,0.04375l-0.42055,-0.53893l-0.46944,-0.65372l-0.34076,-0.56415l0.59968,-0.06074l0.79424,-0.13075l0.1117,0.0139l0.48952,-0.11273l14.75094,-2.42495l-8.94208,-8.94208l-4.07058,4.07057l0.00052,0.02573l-5.21124,0.14928l-0.05199,-1.81858l4.61208,-0.13229l2.94329,-2.94329l-11.53123,-1.0022l0.14928,-1.71563l10.72617,0.9322l-6.8023,-6.80231l1.29148,-1.29148l6.88775,6.88827l-0.94609,-10.88318l1.71563,-0.14927l1.0022,11.53123l2.94329,-2.94329l0.13229,-4.61208l1.81858,0.05199l-0.14927,5.21124l-0.02574,-0.00051l-4.14212,4.14212l8.99355,8.99356l2.44554,-14.87345l0.11273,-0.48952l-0.01389,-0.11169l0.13074,-0.79425l0.06073,-0.59967l0.56416,0.34076l0.65372,0.46893l0.20641,0.08853l0.28825,0.26664l12.14532,8.7156v-12.64616h-5.75687l-0.0175,0.01853l-3.79056,-3.579l1.24928,-1.32288l3.35457,3.16772h4.16219l-7.44521,-8.86281l1.31876,-1.10772l6.92585,8.2441v-9.62h1.8263v9.74045l7.02674,-8.36454l1.31876,1.10772l-7.44521,8.86281h4.16219l3.35457,-3.16772l1.24928,1.32288l-3.79055,3.579l-0.0175,-0.01853h-5.85827v12.71822l12.24672,-8.78869l0.28825,-0.26664l0.20641,-0.08853l0.65372,-0.46892l0.56416,-0.34076l0.06074,0.59967l0.13074,0.79425l-0.01389,0.11169l0.11273,0.48952l2.42494,14.75094l8.94209,-8.94208l-4.07058,-4.07058l-0.02573,0.00052l-0.14927,-5.21124l1.81858,-0.05199l0.13229,4.61208l2.94329,2.94329l1.00221,-11.53123l1.71563,0.14928l-0.93219,10.72618l6.80179,-6.80231l1.29149,1.29149l-6.88775,6.88775l10.88317,-0.94609l0.14927,1.71563l-11.53123,1.0022l2.94329,2.94329l4.61208,0.13229l-0.05199,1.81858l-5.21124,-0.14928l0.00052,-0.02573l-4.14212,-4.14264l-8.99356,8.99356l14.87447,2.44554l0.48952,0.11273l0.1117,-0.0139l0.79424,0.13075l0.59967,0.06074l-0.34076,0.56415l-0.46893,0.65372l-0.42054,0.53893l0.06537,-0.04375l-8.78869,12.24672h12.71874v-5.85827l-0.01853,-0.0175l3.579,-3.79055l1.32288,1.24928l-3.16772,3.35456v4.1622l8.86282,-7.44522l1.10773,1.31877l-8.36455,7.02673h9.74045zM257.31448,112.97076l-10.48734,10.48734l8.7995,-2.01109l0.45143,-0.28362l-0.73454,-3.7015l1.64357,-0.32635l0.88227,4.44582l2.51966,3.76739l-1.39289,0.93168l-2.09809,-3.13683l-0.51938,0.1189l-7.64442,4.80048h14.83124l9.02805,-12.58027zM244.34249,125.94378l-0.07001,0.07v0l-2.0497,2.0497h2.89902h0.09883l-0.03654,-0.05816l5.46758,-3.43333l-6.29425,1.43819zM243.07365,124.62862l1.42017,-6.21447l-3.43332,5.46759l-0.05817,-0.03655v0.09934v2.75541l1.97815,-1.97815v0zM239.17655,123.94453v-0.13177l-3.39008,-5.39861l1.43819,6.29426l-0.06692,0.01544l2.0183,2.0183v-2.79762zM235.84308,125.99166l-6.21395,-1.42018l5.46758,3.43333l-0.03654,0.05817h0.09883h2.75541zM235.0267,129.88979l-5.39861,3.39008l6.21447,-1.42018l1.96991,-1.96991h-2.654zM237.15722,133.12751l0.06691,0.01544l-1.43819,6.29426l3.39008,-5.39861v-0.13177v-2.79762zM241.00233,134.00618l0.05817,-0.03655l3.43332,5.46758l-1.42017,-6.21447l-0.09317,-0.09316v0l-1.97815,-1.97815v2.75541zM244.35793,131.84169l6.29425,1.43819l-5.39861,-3.39008h-0.13178h-2.79762l1.9483,1.9483v0l0.07001,0.07zM241.00233,105.49981v14.83176l4.80048,-7.64442l0.11891,-0.51937l-3.13684,-2.09808l0.93168,-1.39289l3.7674,2.51966l4.44582,0.88227l-0.32635,1.64357l-3.7015,-0.73453l-0.28363,0.45143l-1.96837,8.61368l10.42454,-10.42454l-2.49187,-15.15604zM224.18522,111.75134l10.48734,10.48734l-2.0111,-8.7995l-0.28362,-0.45143l-3.7015,0.73453l-0.32635,-1.64357l4.44582,-0.88227l3.76739,-2.51966l0.93168,1.39289l-3.13684,2.09808l0.11891,0.51937l4.69907,7.48279v-14.7427l-12.47887,-8.95495zM216.71427,128.06297h14.83123l-7.64442,-4.80048l-0.51937,-0.1189l-2.09808,3.13683l-1.39289,-0.93168l2.51966,-3.76739l0.88227,-4.44582l1.64357,0.32635l-0.73453,3.7015l0.45143,0.28362l8.61368,1.96837l-10.42454,-10.42454l-15.15604,2.49186zM222.84226,144.86052l10.42454,-10.42454l-8.61368,1.96838l-0.45143,0.28362l0.73453,3.7015l-1.64357,0.32635l-0.88227,-4.44582l-2.51966,-3.76739l1.39289,-0.93168l2.09808,3.13683l0.51937,-0.1189l7.4828,-4.69907h-14.7427l-8.95496,12.47887zM239.17603,152.42413v-14.7427l-4.69907,7.4828l-0.11891,0.51937l3.13684,2.09808l-0.93168,1.39289l-3.76739,-2.51966l-4.44582,-0.88226l0.32635,-1.64357l3.7015,0.73453l0.28362,-0.45143l2.0111,-8.7995l-10.48734,10.48734l2.51194,15.27906zM256.07447,146.22304l-10.42454,-10.42454l1.96837,8.61368l0.28363,0.45143l3.7015,-0.73453l0.32635,1.64357l-4.44582,0.88226l-3.7674,2.51966l-0.93168,-1.39289l3.13684,-2.09808l-0.11891,-0.51937l-4.80048,-7.64443v14.83124l12.58028,9.02804zM263.63859,129.88979h-14.7427l7.48279,4.69907l0.51938,0.1189l2.09809,-3.13683l1.39289,0.93168l-2.51966,3.76739l-0.88227,4.44582l-1.64357,-0.32635l0.73454,-3.7015l-0.45143,-0.28362l-8.7995,-2.0111l10.48734,10.48734l15.27907,-2.51193z" fill="none" stroke="#4bb4f0"/></g></g></g></svg>