<svg version="1.1" xmlns="http://www.w3.org/2000/svg" xmlns:xlink="http://www.w3.org/1999/xlink" width="144.11661" height="172.24161" viewBox="0,0,144.11661,172.24161"><defs><linearGradient x1="240.61955" y1="58.29931" x2="240.61955" y2="237.16754" gradientUnits="userSpaceOnUse" id="color-1"><stop offset="0" stop-color="#000000"/><stop offset="1" stop-color="#000000" stop-opacity="0"/></linearGradient><radialGradient cx="234.89466" cy="127.82561" r="60.45933" gradientUnits="userSpaceOnUse" id="color-2"><stop offset="0" stop-color="#5b5b5b"/><stop offset="1" stop-color="#5b5b5b" stop-opacity="0"/></radialGradient><radialGradient cx="255.23437" cy="152.65254" r="29.03589" gradientUnits="userSpaceOnUse" id="color-3"><stop offset="0" stop-color="#a4a4a4"/><stop offset="1" stop-color="#a4a4a4" stop-opacity="0"/></radialGradient><radialGradient cx="194.58485" cy="118.18685" r="20.34689" gradientUnits="userSpaceOnUse" id="color-4"><stop offset="0" stop-color="#a4a4a4"/><stop offset="1" stop-color="#a4a4a4" stop-opacity="0"/></radialGradient><radialGradient cx="190.80614" cy="164.9847" r="10.46411" gradientUnits="userSpaceOnUse" id="color-5"><stop offset="0" stop-color="#cccccc"/><stop offset="1" stop-color="#cccccc" stop-opacity="0"/></radialGradient><radialGradient cx="274.51906" cy="89.99187" r="5.8134" gradientUnits="userSpaceOnUse" id="color-6"><stop offset="0" stop-color="#cccccc"/><stop offset="1" stop-color="#cccccc" stop-opacity="0"/></radialGradient><radialGradient cx="284.98317" cy="111.50144" r="2.61603" gradientUnits="userSpaceOnUse" id="color-7"><stop offset="0" stop-color="#cccccc"/><stop offset="1" stop-color="#cccccc" stop-opacity="0"/></radialGradient><radialGradient cx="198.36356" cy="85.34116" r="3.19737" gradientUnits="userSpaceOnUse" id="color-8"><stop offset="0" stop-color="#cccccc"/><stop offset="1" stop-color="#cccccc" stop-opacity="0"/></radialGradient><radialGradient cx="189.64346" cy="92.6079" r="2.9067" gradientUnits="userSpaceOnUse" id="color-9"><stop offset="0" stop-color="#cccccc"/><stop offset="1" stop-color="#cccccc" stop-opacity="0"/></radialGradient><radialGradient cx="235.44729" cy="130.01699" r="46.69856" gradientUnits="userSpaceOnUse" id="color-10"><stop offset="0" stop-color="#000000"/><stop offset="1" stop-color="#000000" stop-opacity="0"/></radialGradient><radialGradient cx="234.94729" cy="129.517" r="46.69856" gradientUnits="userSpaceOnUse" id="color-11"><stop offset="0" stop-color="#000000"/><stop offset="1" stop-color="#000000" stop-opacity="0"/></radialGradient><radialGradient cx="234.94729" cy="129.517" r="46.69856" gradientUnits="userSpaceOnUse" id="color-12"><stop offset="0" stop-color="#000000"/><stop offset="1" stop-color="#000000" stop-opacity="0"/></radialGradient><radialGradient cx="234.94729" cy="132.017" r="46.69856" gradientUnits="userSpaceOnUse" id="color-13"><stop offset="0" stop-color="#000000"/><stop offset="1" stop-color="#000000" stop-opacity="0"/></radialGradient><radialGradient cx="234.94729" cy="132.517" r="46.69856" gradientUnits="userSpaceOnUse" id="color-14"><stop offset="0" stop-color="#000000"/><stop offset="1" stop-color="#000000" stop-opacity="0"/></radialGradient></defs><g transform="translate(-169.58294,-41.09483)"><g data-paper-data="{&quot;isPaintingLayer&quot;:true}" fill-rule="nonzero" stroke-linecap="butt" stroke-linejoin="miter" stroke-miterlimit="10" stroke-dasharray="" stroke-dashoffset="0" style="mix-blend-mode: normal"><path d="M284.37023,179.70942c0.07585,1.88165 -6.82295,7.07192 -42.75929,7.07192c-35.93634,0 -45.96971,-4.43047 -45.98172,-7.45949c-0.01038,-2.6151 9.30175,-6.10294 45.23807,-6.10294c35.93634,0 43.43354,4.76932 43.50294,6.49051z" fill="url(#color-1)" stroke="none" stroke-width="0"/><text transform="translate(223.71781,207.35669) scale(0.357,0.357)" font-size="40" xml:space="preserve" fill="#ffffff" fill-rule="nonzero" stroke="#ffffff" stroke-width="0.5" stroke-linecap="butt" stroke-linejoin="miter" stroke-miterlimit="10" stroke-dasharray="" stroke-dashoffset="0" font-family="Handwriting" font-weight="normal" text-anchor="start" style="mix-blend-mode: normal"></text><text transform="translate(169.75543,54.20369) scale(0.34497,0.34497)" font-size="40" xml:space="preserve" fill="#ffffff" fill-rule="nonzero" stroke="#ffffff" stroke-width="1" stroke-linecap="butt" stroke-linejoin="miter" stroke-miterlimit="10" stroke-dasharray="" stroke-dashoffset="0" font-family="Handwriting" font-weight="normal" text-anchor="start" style="mix-blend-mode: normal"></text><text transform="translate(195.20843,68.94219) scale(0.26747,0.26747)" font-size="40" xml:space="preserve" fill="#ffffff" fill-rule="nonzero" stroke="#ffffff" stroke-width="1" stroke-linecap="butt" stroke-linejoin="miter" stroke-miterlimit="10" stroke-dasharray="" stroke-dashoffset="0" font-family="Handwriting" font-weight="normal" text-anchor="start" style="mix-blend-mode: normal"></text><path d="M294.19131,127.82561c0,33.39077 -26.54801,60.45933 -59.29665,60.45933c-32.74864,0 -59.29665,-27.06856 -59.29665,-60.45933c0,-33.39077 26.54801,-60.45933 59.29665,-60.45933c32.74864,0 59.29665,27.06856 59.29665,60.45933z" fill="url(#color-2)" stroke="none" stroke-width="0"/><path d="M284.27025,152.65254c0,15.41332 -12.99981,27.90828 -29.03589,27.90828c-16.03608,0 -29.03589,-12.49496 -29.03589,-27.90828c0,-15.41332 12.99981,-27.90828 29.03589,-27.90828c16.03608,0 29.03589,12.49496 29.03589,27.90828z" fill="url(#color-3)" stroke="none" stroke-width="0"/><path d="M213.47839,118.18685c0,11.23728 -8.45893,20.34689 -18.89354,20.34689c-10.43461,0 -18.89354,-9.10961 -18.89354,-20.34689c0,-11.23728 8.45893,-20.34689 18.89354,-20.34689c10.43461,0 18.89354,9.10961 18.89354,20.34689z" fill="url(#color-4)" stroke="none" stroke-width="0"/><path d="M201.27025,164.9847c0,4.65544 -4.68494,8.42943 -10.46411,8.42943c-5.77917,0 -10.46411,-3.77398 -10.46411,-8.42943c0,-4.65544 4.68494,-8.42943 10.46411,-8.42943c5.77917,0 10.46411,3.77398 10.46411,8.42943z" fill="url(#color-5)" stroke="none" stroke-width="0"/><path d="M280.33246,89.99187c0,3.05012 -2.60275,5.52273 -5.8134,5.52273c-3.21065,0 -5.8134,-2.47261 -5.8134,-5.52273c0,-3.05012 2.60275,-5.52273 5.8134,-5.52273c3.21065,0 5.8134,2.47261 5.8134,5.52273z" fill="url(#color-6)" stroke="none" stroke-width="0"/><path d="M287.30853,111.50144c0,1.44479 -1.0411,2.61603 -2.32536,2.61603c-1.28426,0 -2.32536,-1.17124 -2.32536,-2.61603c0,-1.44479 1.0411,-2.61603 2.32536,-2.61603c1.28426,0 2.32536,1.17124 2.32536,2.61603z" fill="url(#color-7)" stroke="none" stroke-width="0"/><path d="M200.68891,85.34116c0,1.76586 -1.0411,3.19737 -2.32536,3.19737c-1.28426,0 -2.32536,-1.43151 -2.32536,-3.19737c0,-1.76586 1.0411,-3.19737 2.32536,-3.19737c1.28426,0 2.32536,1.43151 2.32536,3.19737z" fill="url(#color-8)" stroke="none" stroke-width="0"/><path d="M192.55016,92.6079c0,0.9632 -1.30137,1.74402 -2.9067,1.74402c-1.60533,0 -2.9067,-0.78082 -2.9067,-1.74402c0,-0.9632 1.30137,-1.74402 2.9067,-1.74402c1.60533,0 2.9067,0.78082 2.9067,1.74402z" fill="url(#color-9)" stroke="none" stroke-width="0"/><path d="M282.14585,130.01699c0,25.79091 -20.90766,46.69856 -46.69856,46.69856c-25.79091,0 -46.69856,-20.90766 -46.69856,-46.69856c0,-25.79091 20.90766,-46.69856 46.69856,-46.69856c25.79091,0 46.69856,20.90766 46.69856,46.69856z" fill="url(#color-10)" stroke="none" stroke-width="0"/><path d="M281.64586,129.517c0,25.79091 -20.90766,46.69856 -46.69856,46.69856c-25.79091,0 -46.69856,-20.90765 -46.69856,-46.69856c0,-25.7909 20.90766,-46.69856 46.69857,-46.69856c25.79091,0 46.69856,20.90766 46.69856,46.69857z" fill="url(#color-11)" stroke="none" stroke-width="0"/><path d="M281.64586,129.517c0,25.79091 -20.90766,46.69856 -46.69856,46.69856c-25.79091,0 -46.69856,-20.90765 -46.69856,-46.69856c0,-25.7909 20.90766,-46.69856 46.69857,-46.69856c25.79091,0 46.69856,20.90766 46.69856,46.69857z" fill="url(#color-12)" stroke="none" stroke-width="0"/><path d="M281.64586,132.017c0,25.79091 -20.90766,46.69856 -46.69856,46.69856c-25.79091,0 -46.69856,-20.90765 -46.69856,-46.69856c0,-25.7909 20.90766,-46.69856 46.69857,-46.69856c25.79091,0 46.69856,20.90766 46.69856,46.69857z" fill="url(#color-13)" stroke="none" stroke-width="0"/><path d="M281.64586,132.517c0,25.79091 -20.90766,46.69856 -46.69856,46.69856c-25.79091,0 -46.69856,-20.90765 -46.69856,-46.69856c0,-25.7909 20.90766,-46.69856 46.69857,-46.69856c25.79091,0 46.69856,20.90766 46.69856,46.69857z" fill="url(#color-14)" stroke="none" stroke-width="0"/></g></g></svg>