<svg version="1.1" xmlns="http://www.w3.org/2000/svg" xmlns:xlink="http://www.w3.org/1999/xlink" width="179.18406" height="205.50148" viewBox="0,0,179.18406,205.50148"><defs><linearGradient x1="240.67821" y1="-8.39275" x2="240.67821" y2="268.49528" gradientUnits="userSpaceOnUse" id="color-1"><stop offset="0" stop-color="#7f00ff"/><stop offset="1" stop-color="#7f00ff" stop-opacity="0"/></linearGradient></defs><g transform="translate(-153.658,-15.15941)"><g data-paper-data="{&quot;isPaintingLayer&quot;:true}" fill-rule="nonzero" stroke-linejoin="miter" stroke-miterlimit="10" stroke-dasharray="" stroke-dashoffset="0" style="mix-blend-mode: normal"><path d="M288.58308,179.55001c0.08306,2.91279 -7.47079,10.94732 -46.81921,10.94732c-39.34842,0 -50.33445,-6.8584 -50.34761,-11.54727c-0.01137,-4.04815 10.18494,-9.44736 49.53336,-9.44736c39.34842,0 47.55747,7.38292 47.63346,10.04731z" fill="url(#color-1)" stroke="none" stroke-width="0" stroke-linecap="butt"/><text transform="translate(213.76854,212.83834) scale(0.46015,0.46015)" font-size="40" xml:space="preserve" fill="#000000" fill-rule="nonzero" stroke="#000000" stroke-width="1" stroke-linecap="butt" stroke-linejoin="miter" stroke-miterlimit="10" stroke-dasharray="" stroke-dashoffset="0" font-family="Handwriting" font-weight="normal" text-anchor="start" style="mix-blend-mode: normal"></text><text transform="translate(153.8843,32.35859) scale(0.45261,0.45261)" font-size="40" xml:space="preserve" fill="#000000" fill-rule="nonzero" stroke="#000000" stroke-width="1" stroke-linecap="butt" stroke-linejoin="miter" stroke-miterlimit="10" stroke-dasharray="" stroke-dashoffset="0" font-family="Handwriting" font-weight="normal" text-anchor="start" style="mix-blend-mode: normal"></text><path d="M189,112.83183c0,0 11.29077,-52.58943 26.31232,-52.08002c17.22172,0.58403 28.14316,101.93386 47.36438,101.50254c17.17349,-0.38537 23.15845,-50.0881 23.15845,-50.0881" fill="none" stroke="#7f00ff" stroke-width="10" stroke-linecap="round"/></g></g></svg>