<svg version="1.1" xmlns="http://www.w3.org/2000/svg" xmlns:xlink="http://www.w3.org/1999/xlink" width="93.11675" height="156.7825" viewBox="0,0,93.11675,156.7825"><defs><linearGradient x1="240.61953" y1="58.29926" x2="240.61953" y2="237.16749" gradientUnits="userSpaceOnUse" id="color-1"><stop offset="0" stop-color="#000000"/><stop offset="1" stop-color="#000000" stop-opacity="0"/></linearGradient><radialGradient cx="239.33898" cy="129.21515" r="64.38969" gradientUnits="userSpaceOnUse" id="color-2"><stop offset="0" stop-color="#194082" stop-opacity="0"/><stop offset="1" stop-color="#194082"/></radialGradient><radialGradient cx="264.86282" cy="142.55716" r="64.38969" gradientUnits="userSpaceOnUse" id="color-3"><stop offset="0" stop-color="#003082" stop-opacity="0"/><stop offset="1" stop-color="#003082"/></radialGradient><linearGradient x1="231.03998" y1="69.4139" x2="231.03998" y2="139.57675" gradientUnits="userSpaceOnUse" id="color-4"><stop offset="0" stop-color="#003082"/><stop offset="1" stop-color="#003082" stop-opacity="0"/></linearGradient><radialGradient cx="209.17412" cy="108.71111" r="4.25304" gradientUnits="userSpaceOnUse" id="color-5"><stop offset="0" stop-color="#ded9cc"/><stop offset="1" stop-color="#ded9cc" stop-opacity="0"/></radialGradient><radialGradient cx="263.23304" cy="123.59167" r="6.74112" gradientUnits="userSpaceOnUse" id="color-6"><stop offset="0" stop-color="#ffffff"/><stop offset="1" stop-color="#ffffff" stop-opacity="0"/></radialGradient><radialGradient cx="258.86685" cy="97.79012" r="4.25304" gradientUnits="userSpaceOnUse" id="color-7"><stop offset="0" stop-color="#ffffff"/><stop offset="1" stop-color="#ffffff" stop-opacity="0"/></radialGradient><radialGradient cx="204.57342" cy="154.48132" r="3.14629" gradientUnits="userSpaceOnUse" id="color-8"><stop offset="0" stop-color="#dedede"/><stop offset="1" stop-color="#dedede" stop-opacity="0"/></radialGradient><radialGradient cx="223.1029" cy="134.28" r="3.14629" gradientUnits="userSpaceOnUse" id="color-9"><stop offset="0" stop-color="#dedede"/><stop offset="1" stop-color="#dedede" stop-opacity="0"/></radialGradient><radialGradient cx="277.21594" cy="164.18803" r="3.14629" gradientUnits="userSpaceOnUse" id="color-10"><stop offset="0" stop-color="#dedcd7"/><stop offset="1" stop-color="#dedcd7" stop-opacity="0"/></radialGradient><radialGradient cx="260.67332" cy="170.93179" r="3.14629" gradientUnits="userSpaceOnUse" id="color-11"><stop offset="0" stop-color="#dedede"/><stop offset="1" stop-color="#dedede" stop-opacity="0"/></radialGradient><radialGradient cx="205.34417" cy="135.66408" r="1.74149" gradientUnits="userSpaceOnUse" id="color-12"><stop offset="0" stop-color="#ffffff"/><stop offset="1" stop-color="#ffffff" stop-opacity="0"/></radialGradient><radialGradient cx="241.94105" cy="112.29101" r="1.74149" gradientUnits="userSpaceOnUse" id="color-13"><stop offset="0" stop-color="#ffffff"/><stop offset="1" stop-color="#ffffff" stop-opacity="0"/></radialGradient><radialGradient cx="205.13519" cy="163.87626" r="1.74149" gradientUnits="userSpaceOnUse" id="color-14"><stop offset="0" stop-color="#ffffff"/><stop offset="1" stop-color="#ffffff" stop-opacity="0"/></radialGradient><radialGradient cx="236.0764" cy="156.41955" r="1.74149" gradientUnits="userSpaceOnUse" id="color-15"><stop offset="0" stop-color="#ffffff"/><stop offset="1" stop-color="#ffffff" stop-opacity="0"/></radialGradient></defs><g transform="translate(-191.61373,-55.384)"><g data-paper-data="{&quot;isPaintingLayer&quot;:true}" stroke-linecap="butt" stroke-linejoin="miter" stroke-miterlimit="10" stroke-dasharray="" stroke-dashoffset="0" style="mix-blend-mode: normal"><path d="M284.37023,179.70937c0.07585,1.88165 -6.82295,7.07192 -42.75929,7.07192c-35.93634,0 -45.96971,-4.43047 -45.98172,-7.45949c-0.01038,-2.6151 9.30175,-6.10294 45.23807,-6.10294c35.93634,0 43.43354,4.76932 43.50294,6.49051z" fill="url(#color-1)" fill-rule="nonzero" stroke="none" stroke-width="0"/><text transform="translate(222.29696,206.18675) scale(0.357,0.357)" font-size="40" xml:space="preserve" fill="#ffffff" fill-rule="nonzero" stroke="#ffffff" stroke-width="0.5" stroke-linecap="butt" stroke-linejoin="miter" stroke-miterlimit="10" stroke-dasharray="" stroke-dashoffset="0" font-family="Handwriting" font-weight="normal" text-anchor="start" style="mix-blend-mode: normal"></text><text transform="translate(199.68232,68.49286) scale(0.34497,0.34497)" font-size="40" xml:space="preserve" fill="#ffffff" fill-rule="nonzero" stroke="#ffffff" stroke-width="1" stroke-linecap="butt" stroke-linejoin="miter" stroke-miterlimit="10" stroke-dasharray="" stroke-dashoffset="0" font-family="Handwriting" font-weight="normal" text-anchor="start" style="mix-blend-mode: normal"></text><g stroke="none"><path d="M225.41689,181.42301c-25.11987,0.58009 -30.20599,5.31832 -30.74463,-27.84419c-0.29407,-18.10507 -11.72895,-60.12955 11.60175,-70.19056c15.17586,-6.54436 23.67148,7.31709 36.35329,6.45474c16.45443,-1.1189 29.45612,-7.61884 39.07801,0.04903c14.33098,21.06438 -30.01538,90.92427 -56.28841,91.531z" fill="url(#color-2)" fill-rule="nonzero" stroke-width="0"/><path d="M280.52518,175.62214c-13.26682,13.75378 -30.9276,-7.9415 -36.17315,-3.91241c-2.45668,1.88697 10.87433,-10.07742 17.42357,-18.17228c7.63869,-9.44143 21.22391,-34.61253 17.08652,-28.88936c-3.47462,4.80638 13.37911,33.81397 1.66308,50.97404z" fill="url(#color-3)" fill-rule="nonzero" stroke-width="0"/><path d="M215.53198,154.33904c-4.83685,-2.34551 -10.75142,-45.18277 7.669,-50.30954c4.84168,-1.34753 11.31843,-0.16652 15.81154,-1.46652c8.12071,-2.34956 13.70609,-6.22946 19.42071,-1.16689c4.60797,4.08219 -25.45155,61.40476 -42.90125,52.94295z" fill="url(#color-4)" fill-rule="nonzero" stroke-width="0"/><path d="M242.68906,131.0568c-0.05667,0.08501 -0.15112,0.15112 -0.21724,0.23614c-0.15113,0.19836 -0.15112,0.37782 -0.06612,0.60451c0.18891,0.49117 0.06612,1.05789 -0.33059,1.40737c-0.18891,0.17002 -0.44394,0.27392 -0.68952,0.30225c-0.34004,0.03778 -0.32115,0.03778 -0.60451,0.3117c-0.23614,0.24558 -0.28336,0.66118 -0.52894,0.89731c-0.15113,0.15112 -0.39671,0.40615 -0.99178,0.30225c-0.32114,-0.06612 -0.55728,-0.16057 -0.86898,-0.22669c-0.46283,-0.09446 -0.40615,-0.04723 -0.73675,0.22669c-0.44393,0.35893 -1.09567,0.57617 -1.5585,0.17002c-0.24558,-0.21724 -0.36837,-0.48171 -0.55728,-0.73674c-0.28336,-0.38726 -0.60451,-0.35893 -1.039,-0.38727c-0.49117,-0.02834 -0.82175,-0.46283 -0.82175,-0.97288c-0.00944,-0.33059 0.03779,-0.68951 -0.15112,-0.99177c-0.14168,-0.22669 -0.28337,-0.39671 -0.44394,-0.60451c-0.4156,-0.5195 -0.24559,-1.02955 0.00944,-1.56794c0.18891,-0.39671 -0.27392,-0.59507 -0.17002,-0.98233c0.06612,-0.24558 0.78398,-0.58562 0.8312,-1.22791c0.01889,-0.24558 -0.05667,-1.02955 0.48172,-0.97288c0.16057,0.01889 0.37782,0.02834 0.5195,-0.06612c0.17946,-0.12279 0.17946,-0.17947 0.21724,-0.37782c0.11334,-0.60451 0.49117,-0.91621 1.11456,-0.7273c0.23614,0.07556 0.4156,0.18891 0.66118,0.16057c0.25503,-0.02834 0.37782,-0.21725 0.58562,-0.34004c0.22669,-0.14168 0.55728,-0.26447 0.8312,-0.19835c0.26447,0.06612 0.30225,0.27392 0.45338,0.47227c0.3117,0.40615 0.68951,0.05667 1.06733,0.00944c0.46283,-0.05667 0.85009,0.2078 0.94455,0.60451c0.03778,0.15112 0.08501,0.25503 0.18891,0.36837c0.14168,0.15112 0.2078,0.16057 0.39671,0.17002c0.22669,0.00944 0.53839,0.11334 0.69896,0.27392c0.45338,0.47227 0.03778,1.09567 0.09445,1.6624c0.03778,0.42505 0.38727,0.53839 0.6234,0.8312c0.15113,0.17946 0.23614,0.4156 0.24558,0.65173c0.00944,0.25503 -0.05667,0.51005 -0.18891,0.71785z" fill="#ff8f5f" fill-rule="evenodd" stroke-width="1"/><path d="M241.51131,131.00805c0.0656,0.28698 0.0902,0.59856 -0.09019,0.85275c-0.10659,0.14759 -0.25419,0.13939 -0.36078,0.25418c-0.27058,0.29518 -0.07379,0.72155 -0.31978,1.09873c-0.13939,0.21319 -0.58216,0.24598 -0.84454,0.26238c-0.0246,0 -0.15579,0.0246 -0.17219,0.13119c-0.11479,0.40997 -0.59036,0.47557 -0.99213,0.50837c-0.30338,0.0246 -0.54116,0.20499 -0.85275,0.15579c-0.13939,-0.0246 -0.27878,-0.09839 -0.41817,-0.11479c-0.21319,-0.0246 -0.28697,0.07379 -0.46736,0.09839c-0.27058,0.0246 -0.42637,-0.1804 -0.65596,-0.27059c-0.23778,-0.09019 -0.50017,-0.05739 -0.72976,-0.18038c-0.24599,-0.13119 -0.37717,-0.38538 -0.60676,-0.53297c-0.18039,-0.11479 -0.28698,-0.25418 -0.37717,-0.45097c-0.082,-0.16399 -0.09839,-0.28698 -0.26239,-0.39357c-0.082,-0.05739 -0.14759,-0.0738 -0.22138,-0.14759c-0.18039,-0.18039 -0.40177,-0.26239 -0.43457,-0.73795c-0.0082,-0.13939 -0.05739,-0.23778 -0.05739,-0.37717c0,-0.14759 -0.0164,-0.24599 -0.0574,-0.40177c-0.082,-0.27058 0.041,-0.53297 0.09839,-0.81175c0.0656,-0.35258 -0.0164,-0.63136 0,-0.99213c0.0082,-0.25418 0.09019,-0.44277 0.27058,-0.62316c0.11479,-0.10659 0.26239,-0.17219 0.35258,-0.31158c0.09839,-0.15579 0.123,-0.34437 0.19679,-0.50837c0.09019,-0.20499 0.21318,-0.36898 0.42637,-0.46737c0.0164,-0.0082 0.68056,-0.23778 1.18892,-0.73795c0.32798,-0.32798 0.73795,-0.04099 1.16432,-0.0246c0.47557,0.0164 0.86914,-0.19679 1.33651,-0.0164c0.21319,0.082 0.40997,0.22138 0.62316,0.28698c0.20499,0.0656 0.32798,-0.0082 0.54116,0.04099c0.40177,0.09839 0.58216,0.81995 0.87735,1.17252c0.29518,0.34437 0.68876,0.38538 0.79535,0.86094c0.05739,0.22959 -0.0246,0.45097 0.07379,0.66415c0.082,0.17219 0.22139,0.30338 0.27878,0.48377c0.12299,0.40177 -0.37717,0.95113 -0.30338,1.22992z" fill="#ffbe55" fill-rule="evenodd" stroke-width="1"/><path d="M237.63535,126.70636c0.37682,0 0.80538,0.24383 1.14525,0.36943c0.36205,0.12561 0.67237,0.09606 0.96792,0.33249c0.27338,0.22166 0.24382,0.50982 0.43593,0.81276c0.133,0.20688 0.49505,0.36943 0.62066,0.63543c0.17733,0.36943 0.10344,0.84971 0.10344,1.21914c0,0.25122 0.10344,0.73148 0.05172,0.96792c-0.12561,0.54677 -0.68715,0.7167 -1.04181,1.12308c-0.28816,0.3251 -0.47288,0.67238 -0.86448,0.8571c-0.42855,0.20688 -0.7906,0.50243 -1.30042,0.50243c-0.27338,0 -0.6576,-0.36943 -0.90882,-0.43594c-0.33988,-0.08128 -1.00486,0.08128 -1.16741,-0.22166c-0.54677,-1.03442 -0.7241,-0.89403 -0.9827,-1.27825c-0.34727,-0.51721 -0.22905,-0.87926 -0.22905,-1.55163c0,-0.34727 -0.1921,-0.67976 -0.08866,-0.99009c0.12561,-0.39161 0.47288,-0.7167 0.72409,-1.02703c0.35466,-0.44333 1.01226,-0.62804 1.54424,-0.84232c0.35466,-0.14039 0.56893,-0.47288 0.99009,-0.47288z" fill="#ffd258" fill-rule="evenodd" stroke-width="1"/><path d="M235.07219,130.14335c0,-1.33388 1.08132,-2.41519 2.41519,-2.41519c1.33388,0 2.4152,1.08132 2.4152,2.41519c0,1.33388 -1.08132,2.4152 -2.4152,2.4152c-1.33388,0 -2.41519,-1.08132 -2.41519,-2.4152z" fill="#ffe563" fill-rule="evenodd" stroke-width="1"/></g><path d="M212.13837,108.79703c-0.03222,0.22705 -1.00095,0.57232 -1.78396,1.32532c-0.76779,0.73836 -0.53703,2.71363 -1.18029,2.82646c-0.61447,0.10779 -0.6285,-2.07025 -1.39212,-2.78296c-0.80991,-0.75591 -2.02107,-0.78784 -2.08764,-1.45474c-0.02773,-0.27774 1.4875,-0.24746 1.9724,-0.92184c0.76931,-1.06994 0.66603,-3.33575 1.42145,-3.40178c0.65075,-0.05688 0.50234,2.76906 1.28115,3.61927c0.67268,0.73436 1.82349,0.40646 1.76902,0.79028z" fill="url(#color-5)" fill-rule="nonzero" stroke="none" stroke-width="0"/><path d="M267.65595,123.455c-0.03709,0.2614 -1.15238,0.6589 -2.05386,1.52582c-0.88394,0.85006 -0.89692,3.54212 -1.63749,3.67203c-0.70744,0.1241 -0.44495,-2.80141 -1.32409,-3.62195c-0.93244,-0.87027 -2.32682,-0.90703 -2.40347,-1.67483c-0.03192,-0.31976 1.71254,-0.28489 2.27079,-1.0613c0.8857,-1.23181 0.7668,-4.81565 1.6365,-4.89167c0.7492,-0.06549 0.57834,4.16322 1.47497,5.14205c0.77445,0.84546 2.09936,0.46795 2.03665,0.90984z" fill="url(#color-6)" fill-rule="nonzero" stroke="none" stroke-width="0"/><path d="M261.83109,97.87604c-0.03222,0.22705 -1.00095,0.57232 -1.78396,1.32532c-0.76779,0.73836 -0.53703,2.71363 -1.18029,2.82646c-0.61447,0.10779 -0.6285,-2.07025 -1.39212,-2.78296c-0.80991,-0.75591 -2.02107,-0.78784 -2.08764,-1.45474c-0.02773,-0.27774 1.4875,-0.24746 1.9724,-0.92184c0.76931,-1.06994 0.66603,-3.33575 1.42145,-3.40178c0.65075,-0.05688 0.50234,2.76906 1.28114,3.61927c0.67268,0.73436 1.82349,0.40646 1.76902,0.79028z" fill="url(#color-7)" fill-rule="nonzero" stroke="none" stroke-width="0"/><path d="M206.76628,154.54488c-0.02384,0.16796 -0.74048,0.42339 -1.31973,0.98043c-0.56799,0.54622 -0.39728,2.00747 -0.87314,2.09095c-0.45457,0.07974 -0.46495,-1.53152 -1.02986,-2.05876c-0.59914,-0.5592 -1.49513,-0.58282 -1.54438,-1.07618c-0.02051,-0.20546 1.10041,-0.18306 1.45913,-0.68195c0.56912,-0.79151 0.49271,-2.4677 1.05155,-2.51655c0.48141,-0.04208 0.37162,2.04848 0.94776,2.67744c0.49763,0.54326 1.34896,0.30069 1.30867,0.58462z" fill="url(#color-8)" fill-rule="nonzero" stroke="none" stroke-width="0"/><path d="M225.29577,134.34356c-0.02384,0.16796 -0.74048,0.42339 -1.31973,0.98043c-0.56799,0.54622 -0.39728,2.00747 -0.87314,2.09095c-0.45457,0.07974 -0.46495,-1.53152 -1.02986,-2.05876c-0.59914,-0.5592 -1.49513,-0.58282 -1.54438,-1.07618c-0.02051,-0.20547 1.10041,-0.18306 1.45913,-0.68195c0.56912,-0.79151 0.49271,-2.4677 1.05155,-2.51655c0.48141,-0.04208 0.37162,2.04848 0.94776,2.67744c0.49763,0.54326 1.34896,0.30069 1.30867,0.58462z" fill="url(#color-9)" fill-rule="nonzero" stroke="none" stroke-width="0"/><path d="M279.40881,164.25159c-0.02384,0.16796 -0.74048,0.42339 -1.31973,0.98043c-0.56798,0.54622 -0.39728,2.00747 -0.87314,2.09095c-0.45457,0.07974 -0.46495,-1.53152 -1.02986,-2.05876c-0.59915,-0.5592 -1.49513,-0.58282 -1.54438,-1.07618c-0.02051,-0.20546 1.10041,-0.18306 1.45913,-0.68195c0.56912,-0.79151 0.49271,-2.4677 1.05155,-2.51655c0.48141,-0.04208 0.37162,2.04848 0.94776,2.67744c0.49763,0.54326 1.34896,0.30069 1.30867,0.58462z" fill="url(#color-10)" fill-rule="nonzero" stroke="none" stroke-width="0"/><path d="M262.86619,170.99535c-0.02384,0.16796 -0.74048,0.42338 -1.31973,0.98043c-0.56799,0.54622 -0.39728,2.00747 -0.87314,2.09095c-0.45457,0.07974 -0.46495,-1.53152 -1.02986,-2.05876c-0.59914,-0.5592 -1.49513,-0.58282 -1.54438,-1.07618c-0.02051,-0.20546 1.10041,-0.18306 1.45913,-0.68195c0.56912,-0.79151 0.49271,-2.4677 1.05155,-2.51655c0.48141,-0.04208 0.37162,2.04848 0.94776,2.67744c0.49763,0.54326 1.34896,0.30069 1.30867,0.58462z" fill="url(#color-11)" fill-rule="nonzero" stroke="none" stroke-width="0"/><path d="M205.29135,133.99308c0.50942,-0.0161 0.44279,0.83209 0.77169,1.15687c0.29177,0.28811 1.00804,0.02527 1.02176,0.45911c0.01318,0.41685 -0.72398,0.24055 -0.97768,0.54157c-0.30796,0.3654 -0.18302,1.16779 -0.71012,1.18445c-0.39438,0.01247 -0.26723,-0.74145 -0.56581,-0.94445c-0.42923,-0.29184 -1.21043,-0.12726 -1.22764,-0.67152c-0.01309,-0.41395 0.78481,-0.4219 1.03527,-0.722c0.30791,-0.36894 0.12241,-0.98726 0.65252,-1.00402z" fill="url(#color-12)" fill-rule="nonzero" stroke="none" stroke-width="0"/><path d="M241.88822,110.62002c0.50942,-0.0161 0.44279,0.83209 0.77169,1.15687c0.29177,0.28811 1.00804,0.02527 1.02176,0.45911c0.01318,0.41685 -0.72398,0.24055 -0.97768,0.54157c-0.30796,0.3654 -0.18302,1.16779 -0.71012,1.18445c-0.39438,0.01247 -0.26723,-0.74145 -0.56581,-0.94445c-0.42923,-0.29184 -1.21044,-0.12726 -1.22764,-0.67152c-0.01309,-0.41395 0.78481,-0.4219 1.03527,-0.722c0.30791,-0.36894 0.12241,-0.98726 0.65252,-1.00402z" fill="url(#color-13)" fill-rule="nonzero" stroke="none" stroke-width="0"/><path d="M205.08237,162.20527c0.50942,-0.0161 0.44279,0.8321 0.77169,1.15687c0.29177,0.28811 1.00804,0.02527 1.02176,0.45911c0.01318,0.41685 -0.72398,0.24055 -0.97768,0.54157c-0.30796,0.3654 -0.18302,1.16778 -0.71012,1.18445c-0.39438,0.01247 -0.26723,-0.74145 -0.56581,-0.94445c-0.42923,-0.29184 -1.21043,-0.12726 -1.22764,-0.67152c-0.01309,-0.41395 0.78481,-0.4219 1.03527,-0.722c0.30791,-0.36894 0.12241,-0.98726 0.65252,-1.00402z" fill="url(#color-14)" fill-rule="nonzero" stroke="none" stroke-width="0"/><path d="M236.02358,154.74856c0.50942,-0.0161 0.44279,0.8321 0.77169,1.15687c0.29177,0.28811 1.00804,0.02527 1.02176,0.45911c0.01318,0.41685 -0.72398,0.24055 -0.97768,0.54157c-0.30796,0.3654 -0.18302,1.16778 -0.71012,1.18445c-0.39438,0.01247 -0.26723,-0.74145 -0.56581,-0.94445c-0.42923,-0.29184 -1.21043,-0.12726 -1.22764,-0.67152c-0.01309,-0.41395 0.78481,-0.4219 1.03527,-0.722c0.30791,-0.36894 0.12241,-0.98726 0.65252,-1.00402z" fill="url(#color-15)" fill-rule="nonzero" stroke="none" stroke-width="0"/><text transform="translate(243.77151,137.65238) scale(0.14165,0.14165)" font-size="40" xml:space="preserve" fill="#ffffff" fill-rule="nonzero" stroke="#ffffff" stroke-width="1" stroke-linecap="butt" stroke-linejoin="miter" stroke-miterlimit="10" stroke-dasharray="" stroke-dashoffset="0" font-family="Handwriting" font-weight="normal" text-anchor="start" style="mix-blend-mode: normal"></text></g></g></svg>