<svg version="1.1" xmlns="http://www.w3.org/2000/svg" xmlns:xlink="http://www.w3.org/1999/xlink" width="89.28013" height="152.91711" viewBox="0,0,89.28013,152.91711"><defs><linearGradient x1="240.61943" y1="58.29922" x2="240.61943" y2="237.16742" gradientUnits="userSpaceOnUse" id="color-1"><stop offset="0" stop-color="#980000"/><stop offset="1" stop-color="#980000" stop-opacity="0"/></linearGradient><linearGradient x1="238.47044" y1="82.607" x2="238.47044" y2="109.73713" gradientUnits="userSpaceOnUse" id="color-2"><stop offset="0" stop-color="#fa0800" stop-opacity="0"/><stop offset="1" stop-color="#fa0800"/></linearGradient><linearGradient x1="249.94392" y1="101.95003" x2="250.11078" y2="109.62186" gradientUnits="userSpaceOnUse" id="color-3"><stop offset="0" stop-color="#fa0800" stop-opacity="0"/><stop offset="1" stop-color="#fa0800"/></linearGradient><linearGradient x1="226.00045" y1="102.43971" x2="225.1753" y2="110.06886" gradientUnits="userSpaceOnUse" id="color-4"><stop offset="0" stop-color="#fa0800" stop-opacity="0"/><stop offset="1" stop-color="#fa0800"/></linearGradient><linearGradient x1="239.94983" y1="84.4263" x2="239.94983" y2="104.57396" gradientUnits="userSpaceOnUse" id="color-5"><stop offset="0" stop-color="#fa0800" stop-opacity="0"/><stop offset="1" stop-color="#fa0800"/></linearGradient><linearGradient x1="215.39221" y1="93.15887" x2="215.39221" y2="106.54097" gradientUnits="userSpaceOnUse" id="color-6"><stop offset="0" stop-color="#fa0800" stop-opacity="0"/><stop offset="1" stop-color="#fa0800"/></linearGradient><linearGradient x1="262.39554" y1="98.17574" x2="261.26892" y2="108.59223" gradientUnits="userSpaceOnUse" id="color-7"><stop offset="0" stop-color="#fa0800" stop-opacity="0"/><stop offset="1" stop-color="#fa0800"/></linearGradient></defs><g transform="translate(-195.09072,-53.15869)"><g data-paper-data="{&quot;isPaintingLayer&quot;:true}" fill-rule="nonzero" stroke-linecap="butt" stroke-linejoin="miter" stroke-miterlimit="10" stroke-dasharray="" stroke-dashoffset="0" style="mix-blend-mode: normal"><path d="M284.37023,179.7093c0.07585,1.88165 -6.82295,7.07192 -42.75929,7.07192c-35.93634,0 -45.96971,-4.43047 -45.98172,-7.45949c-0.01038,-2.6151 9.30175,-6.10294 45.23807,-6.10294c35.93634,0 43.43354,4.76932 43.50294,6.49051z" fill="url(#color-1)" stroke="none" stroke-width="0"/><text transform="translate(225.12805,201.22801) scale(0.28942,0.28942)" font-size="40" xml:space="preserve" fill="#000000" fill-rule="nonzero" stroke="#000000" stroke-width="0.5" stroke-linecap="butt" stroke-linejoin="miter" stroke-miterlimit="10" stroke-dasharray="" stroke-dashoffset="0" font-family="Handwriting" font-weight="normal" text-anchor="start" style="mix-blend-mode: normal"></text><text transform="translate(199.65721,64.67117) scale(0.30296,0.30296)" font-size="40" xml:space="preserve" fill="#000000" fill-rule="nonzero" stroke="#000000" stroke-width="1" stroke-linecap="butt" stroke-linejoin="miter" stroke-miterlimit="10" stroke-dasharray="" stroke-dashoffset="0" font-family="Handwriting" font-weight="normal" text-anchor="start" style="mix-blend-mode: normal"></text><g stroke="none"><g stroke-width="0"><path d="M281.14261,100.45577c0,7.49178 -20.89617,13.33351 -41.92379,13.33351c-21.02762,0 -43.78842,-6.15905 -43.78842,-13.65083c0,-7.49178 7.26689,-22.96836 42.45027,-23.30595c35.96697,-0.34511 43.26194,16.13149 43.26194,23.62327z" fill="url(#color-2)"/><path d="M198.15327,92.36557c0,0 -1.63351,8.74154 -0.90577,9.78978c0.44276,0.63774 3.66725,2.80525 7.65309,4.71049c5.1269,2.45067 11.22393,4.66044 11.22393,4.66044c0,0 27.84506,1.93788 30.72849,1.22495c1.1339,-0.28035 12.39331,-0.84891 20.33845,-3.53461c3.67596,-1.24259 7.31933,-2.22804 9.27784,-3.43311c1.95851,-1.20507 3.69681,-3.77899 3.69681,-3.77899l1.2714,-0.8469c0,0 -0.50101,2.6898 -2.85841,4.57298c-2.89529,2.31287 -7.84116,3.93375 -8.93685,4.27346c-1.95068,0.6048 -23.03762,4.28481 -23.03762,4.28481c0,0 -30.46163,-0.89306 -30.92433,-0.96774c-2.29051,-0.36969 -7.89046,-2.85742 -12.54908,-5.45845c-4.1533,-2.31891 -7.52815,-4.78838 -7.61625,-4.9802c-0.25108,-0.5467 -0.72033,-3.14995 -0.16249,-5.61353c0.19586,-0.86499 0.52084,-1.72883 0.89373,-2.53262c1.04893,-2.26104 2.47703,-4.047 2.47703,-4.047z" fill="#231f20"/></g><g stroke-width="0.66342"><path d="M230.90057,124.13819l-3.14328,9.95954l2.33743,-1.65912l-4.76673,15.47317l0.97067,-10.95359l-1.66805,1.72814l1.14486,-9.59285l-2.60319,1.92744l1.59385,-7.83391l-2.26719,1.44324l-0.28721,-11.76487l5.76084,-0.00016l-1.26332,7.1823l3.30102,-1.64931l-2.35542,7.33082l3.2457,-1.59085" fill="#fa0800"/><path d="M231.33024,123.62907l-2.45498,9.03933l2.45498,-1.68692l-6.31513,18.77162l0.39886,-11.04454l-1.33537,1.17371l1.22131,-9.5631l-2.63145,1.53478l1.29957,-7.61363l-1.90385,1.40305l-0.2517,-13.39544l6.89917,0.3526l-1.10798,6.47104l3.04674,-1.31965l-2.08999,7.02276l2.76984,-1.14561zM229.81948,132.81947l-2.34167,1.66183l3.17258,-10.05212l-3.24812,1.59189l2.35435,-7.32717l-3.24811,1.62284l1.28412,-7.30042l-5.42618,0.00014l0.27692,11.34277l2.34167,-1.49065l-1.58629,7.79656l2.5683,-1.9016l-1.13308,9.49466l1.65338,-1.71274l-0.88259,9.95498l4.21471,-13.68095z" fill="#231f20"/></g><g stroke-width="0.66342"><path d="M257.98667,123.10121l-1.73668,10.36291l2.0964,-1.98036l-2.58187,16.08352l-0.56712,-11.04898l-1.41982,1.95538l-0.20299,-9.71768l-2.32359,2.28491l0.49071,-8.02813l-2.05664,1.75544l-1.93396,-11.68108l5.73947,-0.80703l-0.25267,7.33264l3.05779,-2.10554l-1.31992,7.63358l3.01086,-2.03956" fill="#fa0800"/><path d="M258.34344,122.53379l-1.17982,9.34972l2.20962,-2.02453l-3.66254,19.58662l-1.14955,-11.05951l-1.16603,1.3564l-0.12265,-9.69873l-2.40674,1.89766l0.22837,-7.76745l-1.70029,1.6645l-2.12697,-13.31057l6.92302,-0.61501l-0.19754,6.60226l2.85063,-1.7415l-1.09862,7.28948l2.59912,-1.52932zM258.1255,131.90176l-2.10024,1.98365l1.75291,-10.45926l-3.01313,2.04093l1.31937,-7.6298l-3.00879,2.07177l0.25686,-7.45324l-5.40606,0.76013l1.86459,11.26198l2.12421,-1.81311l-0.48841,7.98987l2.29244,-2.25428l0.20097,9.6182l1.40736,-1.93798l0.51501,10.04173l2.28292,-14.22061z" fill="#231f20"/></g><g stroke-width="0.66342"><path d="M221.61316,130.27318l-5.47249,15.43008l3.49939,-2.40771l-8.33562,23.98271l2.47145,-17.1932l-2.55123,2.57666l2.58497,-15.0309l-3.90516,2.80718l3.05107,-12.21571l-3.37775,2.07344l0.75733,-18.58592l8.21896,0.51656l-2.51485,11.2174l4.87317,-2.30579l-4.08769,11.35373l4.78844,-2.21853" fill="#fa0800"/><path d="M222.27666,129.50855l-4.39922,14.04012l3.66986,-2.44102l-10.87193,29.04739l1.66467,-17.38799l-2.02159,1.73183l2.69109,-14.97708l-3.90653,2.18518l2.60936,-11.8946l-2.8554,2.04263l0.96974,-21.15509l9.80803,1.17521l-2.22268,10.10924l4.47768,-1.80854l-3.67844,10.89154l4.06535,-1.55881zM219.20958,143.87171l-3.50571,2.41161l5.52349,-15.57352l-4.792,2.21996l4.0858,-11.34808l-4.79506,2.26879l2.55626,-11.40187l-7.7415,-0.48658l-0.73014,17.91909l3.48872,-2.14155l-3.03658,12.15747l3.85283,-2.76954l-2.55844,14.87704l2.52877,-2.55369l-2.24671,15.6257z" fill="#231f20"/></g><g stroke-width="0.66342"><path d="M269.69039,124.0348l-1.76846,11.27954l2.25517,-2.17571l-2.62136,17.50484l-0.74255,-11.99863l-1.52032,2.14082l-0.33168,-10.55629l-2.49853,2.50921l0.44137,-8.72846l-2.21454,1.93087l-2.23491,-12.6698l6.22692,-0.94252l-0.19067,7.97008l3.29833,-2.32272l-1.34685,8.30925l3.24809,-2.25048" fill="#fa0800"/><path d="M270.07155,123.4142l-1.17499,10.17229l2.37768,-2.22499l-3.75549,21.32345l-1.37551,-12.0034l-1.25142,1.48711l-0.24419,-10.53663l-2.5933,2.08941l0.15931,-8.44223l-1.82839,1.828l-2.46325,-14.4381l7.51507,-0.74741l-0.13912,7.17585l3.07739,-1.92481l-1.11034,7.93285l2.80655,-1.69137zM269.9419,133.59533l-2.25931,2.17933l1.78499,-11.38441l-3.25052,2.25201l1.34628,-8.30514l-3.24546,2.28547l0.19385,-8.10115l-5.86519,0.88774l2.15473,12.21522l2.2873,-1.9943l-0.4393,8.68687l2.46504,-2.47558l0.32835,10.44823l1.50699,-2.12178l0.67441,10.90481l2.31785,-15.47732z" fill="#231f20"/></g><g stroke-width="0.66342"><path d="M249.693,133.76952l-5.76734,18.27394l4.28877,-3.04418l-8.74609,28.39048l1.781,-20.09785l-3.06056,3.17083l2.10061,-17.60116l-4.77639,3.53651l2.92443,-14.3738l-4.15987,2.64808l-0.52697,-21.58641l10.57009,-0.00029l-2.31796,13.17822l6.05678,-3.02617l-4.32178,13.45073l5.95528,-2.91892" fill="#fa0800"/><path d="M250.48136,132.83538l-4.50445,16.58554l4.50445,-3.0952l-11.58713,34.44253l0.73183,-20.26474l-2.45015,2.15354l2.24087,-17.54655l-4.82824,2.81604l2.38447,-13.96963l-3.49322,2.57433l-0.46182,-24.5782l12.65873,0.64696l-2.03295,11.87318l5.59023,-2.42132l-3.83476,12.88549l5.08214,-2.10198zM247.70939,149.69811l-4.29654,3.04915l5.82112,-18.44383l-5.95971,2.92083l4.31982,-13.44404l-5.95971,2.97763l2.35614,-13.39495l-9.95604,0.00025l0.50808,20.81193l4.29654,-2.73507l-2.91055,14.30527l4.71236,-3.48909l-2.07899,17.42099l3.03365,-3.14258l-1.61938,18.26558l7.73324,-25.10207z" fill="#231f20"/></g><g data-paper-data="{&quot;index&quot;:null}" stroke-width="0"><path d="M249.96314,100.31774c3.26763,0.13187 4.21187,7.8046 4.25795,9.92311c0.04608,2.11852 -1.93574,3.36811 -3.88742,3.34635c-1.95168,-0.02175 -4.02761,-1.57903 -4.07369,-3.69754c-0.04608,-2.11852 0.36276,-9.70672 3.70317,-9.57192z" fill="url(#color-3)"/><path d="M246.26628,108.12377l0.49296,3.22398l1.45523,1.2347c0,0 1.71771,0.66215 1.99081,0.6652c0.19769,0.00221 1.12724,0.16563 1.84494,-0.22113c0.6435,-0.34677 1.3749,-1.05466 1.3749,-1.05466c0,0 0.21698,-1.02271 0.33827,-2.2471c0.15856,-1.6008 -0.04899,-3.69386 -0.02736,-3.63932c0.65064,1.64026 0.53882,5.66076 0.08915,6.35271c-0.3525,0.54242 -2.2908,1.85117 -3.79679,1.545c-0.11451,-0.02329 -2.28753,-1.02618 -2.28753,-1.02618c0,0 -1.35776,-1.62785 -1.40722,-1.73153c-0.05204,-0.10909 -0.06737,-3.10168 -0.06737,-3.10168z" fill="#231f20"/></g><g data-paper-data="{&quot;index&quot;:null}" stroke-width="0"><path d="M226.23028,100.82357c3.22325,0.55268 3.16886,8.28311 2.941,10.38984c-0.22786,2.10673 -2.35443,3.08996 -4.28697,2.81638c-1.93254,-0.27358 -3.79001,-2.08587 -3.56215,-4.1926c0.22786,-2.10673 1.61308,-9.57862 4.90812,-9.01363z" fill="url(#color-4)"/><path d="M221.55642,108.0869l0.07255,3.26064l1.28363,1.41227c0,0 1.61784,0.87842 1.88825,0.9167c0.19575,0.02772 1.09642,0.3098 1.85805,0.01895c0.68289,-0.26078 1.49957,-0.8683 1.49957,-0.8683c0,0 0.34723,-0.98612 0.62559,-2.18461c0.36393,-1.56693 0.42838,-3.66926 0.44279,-3.61239c0.4334,1.71054 -0.19663,5.68295 -0.73188,6.31104c-0.41959,0.49237 -2.51065,1.53988 -3.9645,1.04181c-0.11055,-0.03787 -2.13588,-1.31296 -2.13588,-1.31296c0,0 -1.13619,-1.78954 -1.17185,-1.89873c-0.03752,-0.1149 0.33369,-3.08442 0.33369,-3.08442z" fill="#231f20"/></g><g stroke-width="0"><path d="M250.1672,105.39019c0,5.56363 -5.41003,9.59353 -10.57939,9.59353c-5.16935,0 -10.49178,-3.34048 -10.49178,-8.90411c0,-5.56363 2.05946,-25.69092 10.70881,-25.94162c8.84198,-0.25629 10.36236,19.68858 10.36236,25.2522z" fill="url(#color-5)"/><path d="M250.049,108.89691c-0.12506,0.27089 -3.62837,4.5072 -3.62837,4.5072c0,0 -5.69922,2.57081 -6.00125,2.62861c-3.97218,0.76017 -9.18274,-2.73442 -10.14788,-4.1696c-1.23119,-1.83079 -1.75909,-12.39521 -0.12986,-16.68485c0.05417,-0.14263 -0.3751,5.34936 0.13722,9.55904c0.39185,3.21982 1.02566,5.91264 1.02566,5.91264c0,0 1.97848,1.88091 3.70329,2.81067c1.9237,1.03696 4.37694,0.63489 4.90054,0.63489c0.72333,0 5.23595,-1.68909 5.23595,-1.68909l3.78422,-3.20072l1.12024,-8.4544c0,0 0.13182,7.86056 0.00023,8.1456z" fill="#231f20"/></g><g stroke-width="0"><path d="M221.92328,107.08311c0,3.69536 -3.45816,6.37202 -6.76247,6.37202c-3.30431,0 -6.70647,-2.21874 -6.70647,-5.91411c0,-3.69536 1.31643,-17.06392 6.8452,-17.23045c5.6519,-0.17023 6.62374,13.07717 6.62374,16.77254z" fill="url(#color-6)"/><path d="M221.84772,109.41227c-0.07994,0.17992 -2.3193,2.99369 -2.3193,2.99369c0,0 -3.643,1.70753 -3.83607,1.74592c-2.53907,0.5049 -5.86972,-1.8162 -6.48665,-2.76945c-0.78699,-1.21601 -1.12444,-8.23291 -0.08301,-11.08209c0.03463,-0.09474 -0.23977,3.55306 0.08772,6.34913c0.25048,2.1386 0.65561,3.92718 0.65561,3.92718c0,0 1.26467,1.2493 2.36719,1.86685c1.22965,0.68875 2.79779,0.42169 3.13249,0.42169c0.46236,0 3.34688,-1.12189 3.34688,-1.12189l2.41892,-2.12592l0.71607,-5.61543c0,0 0.08426,5.221 0.00015,5.41032z" fill="#231f20"/></g><g data-paper-data="{&quot;index&quot;:null}" stroke-width="0"><path d="M262.70935,95.96913c4.40088,0.75462 4.32661,11.30939 4.01551,14.18582c-0.3111,2.87644 -3.21463,4.2189 -5.85323,3.84536c-2.6386,-0.37354 -5.17469,-2.84795 -4.86359,-5.72438c0.3111,-2.87644 2.20243,-13.07822 6.70132,-12.3068z" fill="url(#color-7)"/><path d="M256.32786,105.88615l0.09906,4.45194l1.75261,1.92824c0,0 2.20893,1.19934 2.57814,1.25161c0.26727,0.03784 1.497,0.42298 2.5369,0.02587c0.93239,-0.35606 2.04744,-1.18554 2.04744,-1.18554c0,0 0.47409,-1.34641 0.85415,-2.98276c0.4969,-2.13941 0.58489,-5.00984 0.60456,-4.93219c0.59174,2.3355 -0.26846,7.75924 -0.99927,8.6168c-0.57289,0.67226 -3.42793,2.10247 -5.41295,1.42243c-0.15094,-0.05171 -2.91623,-1.79265 -2.91623,-1.79265c0,0 -1.55131,-2.44335 -1.6,-2.59244c-0.05123,-0.15687 0.4556,-4.21132 0.4556,-4.21132z" fill="#231f20"/></g></g></g></g></svg>