<svg version="1.1" xmlns="http://www.w3.org/2000/svg" xmlns:xlink="http://www.w3.org/1999/xlink" width="81.39255" height="184.01931" viewBox="0,0,81.39255,184.01931"><defs><linearGradient x1="240.42052" y1="80.73266" x2="240.42052" y2="226.62959" gradientUnits="userSpaceOnUse" id="color-1"><stop offset="0" stop-color="#000000"/><stop offset="1" stop-color="#000000" stop-opacity="0"/></linearGradient><linearGradient x1="196.32441" y1="74.48912" x2="360.32024" y2="74.48912" gradientUnits="userSpaceOnUse" id="color-2"><stop offset="0" stop-color="#000000"/><stop offset="1" stop-color="#000000" stop-opacity="0"/></linearGradient></defs><g transform="translate(-200.82214,-27.70258)"><g data-paper-data="{&quot;isPaintingLayer&quot;:true}" stroke-linejoin="miter" stroke-miterlimit="10" stroke-dasharray="" stroke-dashoffset="0" style="mix-blend-mode: normal"><text transform="translate(216.74603,205.74214) scale(0.357,0.357)" font-size="40" xml:space="preserve" fill="#ffffff" fill-rule="nonzero" stroke="#ffffff" stroke-width="0.5" stroke-linecap="butt" stroke-linejoin="miter" stroke-miterlimit="10" stroke-dasharray="" stroke-dashoffset="0" font-family="Handwriting" font-weight="normal" text-anchor="start" style="mix-blend-mode: normal"></text><path d="M270.12041,179.76288c0.05149,1.5348 -4.63171,5.76833 -29.02684,5.76833c-24.39513,0 -31.20621,-3.61379 -31.21437,-6.08446c-0.00705,-2.13305 6.31443,-4.97797 30.70955,-4.97797c24.39513,0 29.48455,3.89018 29.53166,5.2941z" fill="url(#color-1)" fill-rule="nonzero" stroke="none" stroke-width="0" stroke-linecap="butt"/><path d="M276.75005,74.08706v106.41294" fill="none" fill-rule="nonzero" stroke="#ff0000" stroke-width="1.5" stroke-linecap="round"/><path d="M274.08336,76.96309c0,0 1.80898,-3.57451 2.83552,-3.5417c0.9703,0.031 2.33115,4.1169 2.33115,4.1169" fill="none" fill-rule="nonzero" stroke="#ff0000" stroke-width="1.5" stroke-linecap="round"/><g stroke="none" stroke-width="1" stroke-linecap="butt"><path d="M225.77296,169.50358c14.94212,-5.5208 30.37749,-1.55553 41.99284,9.06252c-8.59548,-0.28518 -46.39826,0.03556 -57.22009,0.63675c4.76496,-4.89671 8.89463,-7.35951 15.22725,-9.69927z" fill="#0077b8" fill-rule="nonzero"/><path d="M233.63175,167.46831c-0.45626,0.0694 -0.91382,0.14811 -1.3694,0.23488c0.46383,-0.08982 0.92139,-0.16853 1.3694,-0.23488z" fill="#74b140" fill-rule="evenodd"/><path d="M234.24405,167.71814c-0.19391,-0.10942 -0.39597,-0.19566 -0.6034,-0.25752c0.36325,-0.05487 0.72529,-0.10489 1.08612,-0.15005l0.00991,-0.00366c0.36353,-0.04396 0.72477,-0.08265 1.087,-0.11731c-0.01145,0.14827 -0.0419,0.29339 -0.09023,0.43005c-0.10146,0.28214 -0.32118,0.6322 -0.59495,0.66063c-0.32625,0.03458 -0.60953,-0.39192 -0.89445,-0.56215z" fill="#74b140" fill-rule="evenodd"/><path d="M249.40234,168.92349c-0.28279,-0.20132 -0.53153,-0.46702 -0.73283,-0.78276c0.36354,0.08756 0.72511,0.18171 1.08471,0.28248c2.51731,0.69956 4.98363,1.65031 7.37425,2.84273c0.38689,0.19206 0.7722,0.38985 1.15591,0.59337c0.00744,0.42307 -0.09035,0.83892 -0.28037,1.19237c-0.2967,0.54161 -0.52215,0.55439 -0.91479,0.42175c0.08155,0.22587 0.18589,0.43832 0.31061,0.6324c0.12117,0.24436 0.18968,0.5224 0.1991,0.80805c0.00899,0.56973 -0.22501,1.11021 -0.4928,1.55739c-0.38801,0.64906 -0.90102,1.48236 -1.38876,2.02344c-2.42604,-0.05105 -4.84392,-0.07627 -7.20823,-0.05411c1.01372,-1.19033 1.65566,-3.09548 1.79228,-4.83075c0.00523,-0.14226 0.08324,-0.26496 0.19456,-0.30608c0.11132,-0.04112 0.23173,0.00827 0.30034,0.12324c0.33226,0.66187 0.51069,1.44448 0.89572,2.06481c0.18399,0.33221 0.45588,0.57658 0.76984,0.69194c0.31221,0.07639 0.53844,-0.20335 0.78674,-0.40088c0.86164,-0.68863 2.04524,-1.67034 1.70878,-3.15276c-0.32056,-1.4398 -1.67451,-0.60893 -2.5129,-0.7025c-0.69512,-0.0892 -1.3231,-0.57789 -1.29755,-1.50421c0.00898,-0.33613 0.14245,-0.75131 -0.12061,-0.99354c-0.17545,-0.11622 -0.36967,-0.18368 -0.56883,-0.19756c-0.36202,-0.0668 -0.72599,-0.09763 -1.0552,-0.3088z" fill="#74b140" fill-rule="evenodd"/><path d="M214.63783,175.5076l-0.00442,0.02588c1.11656,0.92309 2.97152,1.06643 3.01014,3.11512c0.00019,0.10227 -0.03749,0.19915 -0.10245,0.26341c-0.06497,0.06426 -0.15023,0.08901 -0.23183,0.06728c-0.10153,-0.01758 -0.2042,-0.03255 -0.30737,-0.04953l0.02247,0.16461c-2.25709,0.14606 -4.51452,0.28403 -6.77247,0.40949c1.39549,-1.43293 2.85974,-2.76756 4.38593,-3.99626z" fill="#74b140" fill-rule="evenodd"/><path d="M224.79155,170.43296c0.03421,-0.18166 -0.00834,-0.37223 -0.11328,-0.50728c0.36225,-0.15147 0.72682,-0.28618 1.09469,-0.4221c0.34202,-0.12637 0.6866,-0.24486 1.03371,-0.35548c0.10888,-0.04023 0.2194,-0.08106 0.32993,-0.1219c0.24004,-0.07767 0.48173,-0.15594 0.72278,-0.22957c0.15046,-0.04677 0.30342,-0.08345 0.45023,-0.1377c0.26298,-0.07954 0.5121,-0.14954 0.76833,-0.21997c0.20855,-0.05942 0.41691,-0.11216 0.62481,-0.16693l0.27158,-0.05186c0.76369,-0.19253 1.52846,-0.36123 2.29431,-0.50608c-0.09813,0.18613 -0.09155,0.41733 0.13472,0.67094c0.22627,0.25362 0.54781,0.28027 0.83764,0.28779c0.55456,0.0155 1.63,-0.23638 1.9886,0.48849c0.29291,0.59706 -0.25486,1.12786 -0.65601,1.31134c-0.30956,0.1181 -0.63039,0.18626 -0.95436,0.20274c0.80594,0.66317 1.88311,1.75509 2.19781,0.05193c0.08106,-0.52846 0.31262,-1.00453 0.6535,-1.34346c0.4061,-0.44097 0.59551,-0.87022 0.51872,-1.54713c-0.02919,-0.24165 -0.07466,-0.4799 -0.13592,-0.71237c0.7895,-0.05367 1.58004,-0.08128 2.36679,-0.08765c0.06486,0.00027 0.12973,0.00056 0.19244,-0.00057c0.23387,-0.00045 0.46823,0.00111 0.70144,0.00531c0.0817,0.00287 0.17545,0.0035 0.2626,0.00657c0.34759,0.00822 0.69618,0.02049 1.04247,0.038l0.51333,0.03073l0.47619,0.03345c0.20782,0.01799 0.41728,0.03537 0.62559,0.05538c0.12347,0.01169 0.24644,0.02135 0.36826,0.03364c-0.05801,0.19555 -0.11536,0.38646 -0.17191,0.56603c-0.61055,1.883 -1.86073,3.70479 -3.58188,3.89993c0.11149,0.45251 0.50891,0.7068 0.90898,0.70885c0.51297,0.00002 0.98536,-0.36187 1.41606,-0.66647c0.07173,-0.05434 0.15989,-0.06517 0.23902,-0.02941c0.07913,0.03578 0.14038,0.11417 0.16607,0.21254c0.09266,0.77043 0.59144,1.37213 1.22191,1.47401c0.63048,0.10188 1.23964,-0.32079 1.49232,-1.03543c0.03979,-0.09001 0.11134,-0.15245 0.19381,-0.16912c0.08247,-0.01668 0.16661,0.01426 0.22792,0.08382c0.66538,1.00386 1.71894,1.49434 2.76089,1.28533c0.09235,-0.03049 0.19101,-0.00018 0.26067,0.08009c0.06966,0.08026 0.10038,0.19902 0.08114,0.31376c-0.10577,1.16313 -0.56475,3.66049 -1.3391,4.46234c-0.34591,0.36075 -10.57769,0.26945 -11.64421,0.34313c-0.15927,-0.22133 -0.2751,-0.48985 -0.42118,-0.74102c-0.32536,-0.56083 -0.98427,-1.102 -1.49913,-0.53268c-0.0673,0.08409 -0.16553,0.11919 -0.2592,0.09258c-0.09367,-0.02661 -0.16926,-0.11106 -0.19946,-0.22286c-0.40133,-1.19792 -1.18625,-2.14192 -2.17157,-2.61168c-0.20649,-0.10361 -0.16189,-0.43322 -0.01692,-0.57006c-0.32409,0.14194 -0.63196,0.40359 -0.96404,0.48952c-0.33709,0.07832 -0.68567,0.02784 -0.99854,-0.1446c-0.80858,-0.41093 -1.26927,-1.33832 -1.9199,-1.99937c-1.53545,-1.56397 -3.17892,1.03568 -4.86123,0.38775c-0.08102,-0.02523 -0.14819,-0.09439 -0.18241,-0.18777c-0.03422,-0.09339 -0.03177,-0.20081 0.00668,-0.2917c0.32055,-0.60564 0.7868,-1.0744 1.3343,-1.34154c0.33352,-0.15849 0.70427,-0.11476 1.02674,-0.26695c0.14265,-0.06512 0.24906,-0.21361 0.28327,-0.39527zM231.06667,174.18289c0.00616,-0.0027 0.01233,-0.00536 0.0185,-0.00795c-0.00573,0.00093 -0.01131,0.00299 -0.0165,0.00609c-0.00066,0.00062 -0.00133,0.00123 -0.00199,0.00186z" fill="#74b140" fill-rule="nonzero"/><path d="M219.86252,174.74215c-0.01231,-0.59053 -0.10877,-1.14998 0.10325,-1.7066c0.13948,-0.36891 0.35468,-0.64238 0.3619,-1.06602c0.32738,-0.17606 0.65577,-0.34809 0.98844,-0.51729c-0.00564,0.24012 -0.0314,0.47886 -0.05029,0.67979c-0.04177,0.43857 -0.11578,0.87165 -0.22114,1.29393c-0.09491,0.37448 -0.27219,0.75075 -0.32863,1.13527c-0.07361,0.51208 0.13879,1.00885 0.26105,1.49044c0.12225,0.48159 0.22422,0.96848 0.31844,1.46042c0.04688,0.25598 -0.17604,0.55654 -0.38686,0.38759c-0.43022,-0.34356 -0.9092,-0.74625 -1.10754,-1.35401c-0.20382,-0.62998 0.06931,-1.16509 0.06139,-1.80353z" fill="#74b140" fill-rule="evenodd"/><path d="M219.61421,178.37292c0.02819,0.12683 0.04724,0.26534 0.05324,0.40337c-0.34493,0.02373 -0.68986,0.04735 -1.0348,0.07084c-0.14174,-0.39203 -0.32649,-0.7402 -0.4892,-1.14741c-0.12574,-0.28208 -0.15818,-0.61252 -0.09065,-0.92305c-0.01202,-0.09724 0.00848,-0.19632 0.05691,-0.2748c0.04844,-0.07847 0.12067,-0.12968 0.20035,-0.14204c0.10853,-0.03185 0.22267,0.01014 0.29888,0.10996c0.24146,0.11798 0.52646,0.23748 0.66263,0.49793c0.19887,0.37615 0.2485,0.97933 0.34263,1.4052z" fill="#74b140" fill-rule="evenodd"/><path d="M259.04972,172.25536c0.46972,0.25549 0.93548,0.52419 1.39731,0.80612c-0.04105,0.06325 -0.08697,0.12156 -0.13709,0.17409c-0.47468,0.50599 -1.01545,0.18123 -1.18319,-0.49954c-0.03549,-0.15763 -0.06124,-0.31831 -0.07702,-0.48067z" fill="#74b140" fill-rule="evenodd"/><path d="M261.15225,174.33333c-0.06934,-0.10464 -0.08085,-0.24994 -0.02919,-0.36891c0.04409,-0.13604 0.07875,-0.27641 0.1036,-0.41958c0.32903,0.2105 0.65725,0.42497 0.98466,0.64343c-0.0396,0.01463 -0.07917,0.02926 -0.12207,0.04511c-0.21645,0.07115 -0.43374,0.13161 -0.64819,0.21085c-0.10573,0.03742 -0.21947,-0.00625 -0.28881,-0.11088z" fill="#74b140" fill-rule="evenodd"/><path d="M262.72159,174.5353c0.38887,0.27068 0.77592,0.54863 1.16018,0.82984c0.02247,0.01815 0.04494,0.03628 0.06856,0.0518c0.35039,0.26065 0.69685,0.52716 1.04264,0.79833l0.15199,0.12016c0.32856,0.2621 0.65756,0.52845 0.98701,0.79904l0.11119,0.09336c0.3571,0.30004 0.71082,0.60575 1.0611,0.91712c0.00779,0.13477 0.02079,0.27059 0.03509,0.4069c-0.54746,-0.01838 -1.09852,-0.03723 -1.65257,-0.05632c-0.11461,-0.23265 -0.23995,-0.45759 -0.39677,-0.62904c-0.25453,-0.28064 -0.60179,-0.28016 -0.81991,-0.62494c-0.18457,-0.28886 -0.21341,-0.63967 -0.29653,-0.97702c-0.18162,-0.69329 -0.39754,-0.34241 -0.81509,-0.45922c-0.21188,-0.06295 -0.38851,-0.24138 -0.47926,-0.48413c-0.10875,-0.24413 -0.09642,-0.53743 -0.15763,-0.7859z" fill="#74b140" fill-rule="evenodd"/><path d="M261.77117,177.77814c0.00004,-0.11658 0.0495,-0.22479 0.13064,-0.28578c0.08114,-0.06099 0.18231,-0.06602 0.26723,-0.01331c0.1617,0.07926 0.31115,0.19175 0.44194,0.33262c0.16501,-0.43182 0.46995,-0.75946 0.84105,-0.90364c0.14294,-0.05161 0.2932,0.04709 0.33714,0.22146l0.3292,1.31196c-0.78181,-0.02689 -1.5684,-0.0537 -2.35818,-0.07966z" fill="#74b140" fill-rule="evenodd"/></g><g fill-rule="nonzero" stroke-linecap="butt"><path d="M259.19437,74.77336c0,10.36065 -8.52622,18.75961 -19.04385,18.75961c-10.51763,0 -19.04385,-8.39896 -19.04385,-18.75961c0,-10.36064 8.52622,-18.75961 19.04385,-18.75961c10.51763,0 19.04385,8.39897 19.04385,18.75961z" fill="#b9b9b9" stroke="#000000" stroke-width="2.5"/><path d="M237.60159,87.10118c0,1.444 -1.04195,2.61459 -2.32727,2.61459c-1.28531,0 -3.18922,-1.11312 -3.18922,-2.55712c0,-1.444 1.90391,-2.67205 3.18922,-2.67205c1.28531,0 2.32727,1.17059 2.32727,2.61459zM235.94181,88.15936c0.41493,-0.31481 0.68291,-0.81322 0.68291,-1.37423c0,-0.83692 -0.5964,-1.53455 -1.38738,-1.69107c-0.10884,-0.02154 -0.22136,-0.03283 -0.33652,-0.03283c-0.87862,-0.19244 -1.83883,0.97402 -1.83883,1.72391c0,0.89017 0.6745,1.51143 1.44259,1.67815c0.12722,0.02992 0.25988,0.04575 0.39624,0.04575c0.03233,0 0.06446,-0.00089 0.09635,-0.00265c0.26619,-0.01127 0.52903,-0.07977 0.7656,-0.21284c0.06679,-0.03757 0.12597,-0.08281 0.17904,-0.13419z" fill="#e3e3e3" stroke="none" stroke-width="0"/><path d="M258.69033,76.79234c-0.96744,5.29592 -3.83791,10.95987 -7.3282,10.83518c-3.39621,-0.12133 -7.41287,-5.9586 -8.44067,-6.1941c-4.13729,-0.94796 -10.42323,2.73532 -14.97842,1.5508c-4.66108,-1.21206 -7.52782,-7.3248 -6.01396,-11.24497c0.80948,-2.09616 2.72314,-9.42575 8.35059,-12.52918c7.23515,-3.99004 10.29507,2.35982 14.89364,2.35982c7.18617,0 15.22594,5.86752 13.51702,15.22244z" fill="#a8a6a5" stroke="none" stroke-width="0"/><path d="M244.03637,69.40219c-0.63163,9.43531 -9.83622,11.87477 -14.02233,11.87477c-4.18612,0 -8.77775,-6.56151 -7.95862,-10.73782c0.88429,-4.50854 3.01454,-7.32699 7.45331,-10.6115c3.36505,-2.49 14.81191,5.22817 14.52765,9.47455z" fill="#7b7875" stroke="none" stroke-width="0"/><path d="M251.64806,65.19374c0.98203,1.77864 0.67919,4.06275 -1.20256,5.1017c-1.88174,1.03896 -3.67014,0.97248 -4.65217,-0.80616c-0.98203,-1.77864 -0.25266,-4.06275 1.62909,-5.1017c1.88174,-1.03896 3.24361,-0.97248 4.22564,0.80616z" fill="#7b7875" stroke="none" stroke-width="0"/><path d="M245.21537,81.08774c0,1.19804 -0.93337,2.51048 -2.14488,2.51048c-1.2115,0 -2.19362,-0.9712 -2.19362,-2.16924c0,-1.19804 0.98211,-2.16924 2.19362,-2.16924c1.2115,0 2.14488,0.62997 2.14488,1.82802zM243.07049,83.15949c0.80767,0 1.46241,-1.09347 1.46241,-1.90114c0,-0.80767 -0.70349,-1.41366 -1.51116,-1.41366c-0.80767,0 -1.55991,0.75224 -1.55991,1.55991c0,0.80767 0.80099,1.7549 1.60866,1.7549z" fill="#e3e3e3" stroke="none" stroke-width="0"/><path d="M250.39478,86.77247c0,1.19804 -0.93337,2.51048 -2.14488,2.51048c-1.2115,0 -2.19362,-0.9712 -2.19362,-2.16924c0,-1.19804 0.98212,-2.16925 2.19362,-2.16925c1.2115,0 2.14488,0.62997 2.14488,1.82802zM248.24991,88.84422c0.80767,0 1.46241,-1.09347 1.46241,-1.90114c0,-0.80767 -0.70349,-1.41366 -1.51116,-1.41366c-0.80767,0 -1.55991,0.75224 -1.55991,1.55991c0,0.80767 0.80099,1.7549 1.60865,1.7549z" fill="#e3e3e3" stroke="none" stroke-width="0"/><path d="M258.69033,76.16345c-0.66086,4.85773 -1.2988,8.65617 -4.92677,8.65617c-3.62797,0 -6.56902,-3.19679 -6.56902,-7.14024c0,-3.94345 2.94105,-7.14024 6.56902,-7.14024c3.62797,0 5.28657,2.97954 4.92677,5.62431z" fill="#7b7875" stroke="none" stroke-width="0"/><path d="M235.69555,73.21262c-1.02452,0.35625 -2.726,0.20244 -3.10273,-0.88096c-0.37673,-1.08341 0.57108,-1.58483 1.59561,-1.94108c1.02452,-0.35625 1.7378,-0.43244 2.11453,0.65097c0.37673,1.08341 0.41712,1.81482 -0.60741,2.17107zM233.11939,72.19636c0.30019,0.68519 1.30319,1.0765 2.00975,0.83081c0.70657,-0.24569 1.08018,-1.01765 0.83449,-1.72422c-0.24569,-0.70657 -0.94351,-0.86696 -1.65008,-0.62127c-0.13096,0.04554 -1.65756,0.45699 -1.19416,1.51468z" fill="#e3e3e3" stroke="none" stroke-width="0"/><path d="M231.63338,69.65962c0,1.25358 -1.34213,0.77576 -2.64332,0.77576c-1.30118,0 -2.356,-0.21174 -2.356,-1.46532c0,-1.25358 1.05482,-2.26981 2.356,-2.26981c1.30118,0 2.64332,1.70579 2.64332,2.95937zM228.99006,69.97567c0.95209,0 1.72391,-0.19718 1.72391,-1.14927c0,-0.95209 -0.77182,-1.49405 -1.72391,-1.49405c-0.95209,0 -1.7239,0.31211 -1.7239,1.2642c0,0.95209 0.77182,1.37912 1.7239,1.37912z" fill="#e3e3e3" stroke="none" stroke-width="0"/><path d="M244.01021,59.64392c0,1.38053 -1.06167,3.07429 -2.4422,3.07429c-1.38053,0 -2.32727,-1.69377 -2.32727,-3.07429c0,-1.38053 0.48703,-2.55712 1.86756,-2.55712c1.38053,0 2.90191,1.1766 2.90191,2.55712zM241.65423,62.02865c0.95209,0 1.60898,-1.00167 1.60898,-1.95375c0,-0.95209 -0.88674,-2.01122 -1.83883,-2.01122c-0.95209,0 -1.60898,1.05914 -1.60898,2.01122c0,0.95209 0.88674,1.95375 1.83883,1.95375z" fill="#e3e3e3" stroke="none" stroke-width="0"/><path d="M252.06268,64.37231c0,1.09132 -1.08891,1.4326 -2.3712,1.4326c-1.2823,0 -2.2724,-0.34129 -2.2724,-1.4326c0,-1.09132 0.9901,-2.5194 2.2724,-2.5194c1.2823,0 2.3712,1.42809 2.3712,2.5194zM249.44448,65.36031c0.81848,0 1.8278,-0.02131 1.8278,-0.8398c0,-0.81848 -0.86112,-2.1242 -1.6796,-2.1242c-0.81848,0 -1.5808,0.81171 -1.5808,1.6302c0,0.81848 0.61412,1.3338 1.4326,1.3338z" fill="#e3e3e3" stroke="none" stroke-width="0"/><path d="M245.62843,74.48912c0,8.73853 -6.93163,15.8225 -15.48223,15.8225c-8.5506,0 -15.48223,-7.08397 -15.48223,-15.8225c0,-0.25767 0.04567,-1.31564 0.06728,-1.55294c0.73243,-8.04223 7.35432,-14.26956 15.41495,-14.26956c8.01472,0 14.53899,6.22387 15.33381,14.20036c0.02878,0.28885 0.14842,1.37109 0.14842,1.62213z" fill="url(#color-2)" stroke="none" stroke-width="0"/></g><text transform="translate(200.94025,36.67894) scale(0.23622,0.23622)" font-size="40" xml:space="preserve" fill="#ffffff" fill-rule="nonzero" stroke="#ffffff" stroke-width="1" stroke-linecap="butt" stroke-linejoin="miter" stroke-miterlimit="10" stroke-dasharray="" stroke-dashoffset="0" font-family="Handwriting" font-weight="normal" text-anchor="start" style="mix-blend-mode: normal"></text></g></g></svg>