<svg version="1.1" xmlns="http://www.w3.org/2000/svg" xmlns:xlink="http://www.w3.org/1999/xlink" width="109.62206" height="159.03831" viewBox="0,0,109.62206,159.03831"><defs><linearGradient x1="246.53637" y1="51.09376" x2="246.53637" y2="240.05834" gradientUnits="userSpaceOnUse" id="color-1"><stop offset="0" stop-color="#000000"/><stop offset="1" stop-color="#000000" stop-opacity="0"/></linearGradient><radialGradient cx="279.45689" cy="129.29119" r="49.06667" gradientUnits="userSpaceOnUse" id="color-2"><stop offset="0" stop-color="#ff8080"/><stop offset="1" stop-color="#ff0000"/></radialGradient></defs><g transform="translate(-186.54543,-53.15849)"><g data-paper-data="{&quot;isPaintingLayer&quot;:true}" fill-rule="nonzero" stroke-miterlimit="10" stroke-dasharray="" stroke-dashoffset="0" style="mix-blend-mode: normal"><path d="M296.16679,179.35687c0.08605,1.98786 -7.73989,7.47108 -48.50565,7.47108c-40.76576,0 -52.14751,-4.68056 -52.16115,-7.88054c-0.01178,-2.7627 10.55181,-6.44742 51.31757,-6.44742c40.76576,0 49.27051,5.03854 49.34923,6.85688z" fill="url(#color-1)" stroke="none" stroke-width="0" stroke-linecap="butt" stroke-linejoin="miter"/><path d="M270.02099,178.35787v-98.13333h18.8718v98.13333z" fill="url(#color-2)" stroke="#000000" stroke-width="2" stroke-linecap="butt" stroke-linejoin="miter"/><g fill="none" stroke="#000000" stroke-width="2" stroke-linecap="round" stroke-linejoin="miter"><path d="M280.22575,85.67215h7.71429"/><path d="M283.79718,93.81501h4"/><path d="M288.0829,109.81501h-4.14286"/><path d="M280.22575,117.67215h7.57143"/><path d="M288.0829,125.5293h-4.14286"/><path d="M280.36861,133.67215h7.85714"/><path d="M287.79718,141.52929h-3.85714"/><path d="M287.94004,101.52929h-8"/><path d="M280.36861,149.67215h7.71429"/><path d="M283.94004,157.38644h4.14286"/><path d="M279.94004,165.52929h8.14286"/><path d="M287.94004,173.67215h-4"/></g><text transform="translate(193.53566,70.87426) scale(0.46015,0.46015)" font-size="40" xml:space="preserve" fill="#ffffff" fill-rule="nonzero" stroke="#ffffff" stroke-width="2" stroke-linecap="butt" stroke-linejoin="miter" stroke-miterlimit="10" stroke-dasharray="" stroke-dashoffset="0" font-family="Handwriting" font-weight="normal" text-anchor="start" style="mix-blend-mode: normal"></text><text transform="translate(225.9613,204.37425) scale(0.46015,0.46015)" font-size="40" xml:space="preserve" fill="#ffffff" fill-rule="nonzero" stroke="#ffffff" stroke-width="1" stroke-linecap="butt" stroke-linejoin="miter" stroke-miterlimit="10" stroke-dasharray="" stroke-dashoffset="0" font-family="Handwriting" font-weight="normal" text-anchor="start" style="mix-blend-mode: normal"></text><g stroke-width="0.77378"><path d="M241.76437,141.93301v0c0,0.00123 0.79815,-1.26257 1.727,-1.30324c0.92828,-0.03993 1.078,0.83373 1.078,0.83373c1.55317,6.0217 5.0662,19.32143 6.2476,20.87468c1.53291,2.01571 6.31803,9.65535 2.03727,12.56243c-4.28584,2.90839 -11.26944,-3.24466 -12.23002,-13.51801c-0.79561,-8.578 -1.59252,-13.8054 1.14015,-19.44959z" fill="#1b75bb" stroke="#000000" stroke-linecap="butt" stroke-linejoin="miter"/><path d="M236.76607,176.46075v0c0.02919,-1.3171 0.38636,-2.70283 0.98149,-4.65507c0,0 0.4422,-1.39327 0.70049,-2.50235c0.00631,-0.02853 0.15924,-1.11982 1.42058,-0.93074c1.0056,0.15038 1.79743,0.63194 1.79678,2.06203c0,0.06027 -0.07109,0.22967 -0.07109,0.22967c-0.30519,0.97132 -0.74862,2.71103 -0.81463,4.79274c-0.10151,3.2117 0.14972,6.3555 -1.30316,6.42085c-2.20864,0.09963 -2.75998,-3.15963 -2.71046,-5.41714z" fill="#1b75bb" stroke="#000000" stroke-linecap="butt" stroke-linejoin="miter"/><path d="M230.83374,176.46075v0c0.0305,-1.3171 0.38636,-2.70283 0.98215,-4.65507c0,0 0.44097,-1.39327 0.70049,-2.50235c0.00566,-0.02853 0.15858,-1.11982 1.41992,-0.93074c1.00502,0.15038 1.79678,0.63194 1.79678,2.06203c0,0.06027 -0.07166,0.22967 -0.07166,0.22967c-0.30519,0.97132 -0.74805,2.71103 -0.8134,4.79274c-0.10274,3.2117 0.14915,6.3555 -1.30447,6.42085c-2.20856,0.09963 -2.75867,-3.15963 -2.7098,-5.41714z" fill="#1b75bb" stroke="#000000" stroke-linecap="butt" stroke-linejoin="miter"/><g stroke="#000000" stroke-linecap="butt" stroke-linejoin="miter"><path d="M240.29492,170.43585v0c0,-0.00123 -1.44083,0.09963 -2.44586,-0.05141c-1.00502,-0.14972 -3.16217,-0.45237 -4.41778,-1.05316c-1.25437,-0.60218 -2.60575,-1.68961 -2.60575,-1.68961c-0.4759,-0.39145 -0.86038,-0.77093 -1.13892,-1.09702c-1.59375,-1.85516 -2.52072,-5.70134 -2.52072,-5.70134c-0.33815,-1.6204 -0.36423,-2.84936 -0.36168,-3.27254c0.13267,-0.02476 0.11488,-1.22453 0.20302,-1.24232c0.59644,-0.1275 0.13013,-0.97395 2.65913,-6.52933c1.38819,-3.04926 0.55257,-3.90137 1.38311,-5.72225c0,0 2.23332,-1.77718 7.20121,-1.7721c1.3508,0.00131 4.03969,0.38513 5.30481,1.04438c1.06783,0.55765 0.90097,1.47765 1.21313,1.87352l0.55511,4.68557l0.05207,0.12185c0.28928,1.94142 0.64334,3.98508 1.01642,5.3777c0.92819,3.44776 3.57904,12.33153 -3.31509,14.45194c-0.96821,0.29822 -1.89648,0.48287 -2.7822,0.5761z" fill="#1b75bb"/><path d="M247.65225,163.65528v0l-0.0419,0.11422c-0.97198,1.71052 -3.70023,2.14386 -5.18362,2.14386c-2.96423,0 -5.84024,-4.65507 -5.84024,-9.87362c0,-5.21724 1.66673,-8.78102 5.37204,-9.44781c1.69215,-0.3033 2.29613,0.91294 3.01819,1.54931l0.14464,0.11865c0.32101,2.37739 0.77781,5.3581 1.27651,7.20186c0.48984,1.81457 1.45674,5.14172 1.25437,8.19352z" fill="#d0d2d3"/></g><path d="M231.13516,143.72413v0c0.00123,0 1.33932,-0.66941 2.15526,-0.2227c0.81652,0.44852 0.48919,1.27397 0.48919,1.27397c-1.79555,5.95389 -5.6842,19.14891 -5.48052,21.08853c0.26706,2.51818 0.39711,11.5333 -4.7738,11.79978c-5.17156,0.2646 -7.95434,-8.61736 -3.44703,-17.89774c3.76747,-7.75001 5.79457,-12.63163 11.0569,-16.04184z" fill="#1b75bb" stroke="#000000" stroke-linecap="butt" stroke-linejoin="miter"/><g><path d="M265.21307,121.79621c0.07552,0.2678 1.85967,6.79451 -2.64953,12.83851c-3.05435,4.09102 -8.37564,9.31908 -21.97416,10.4922c-6.65815,0.57291 -12.58473,-1.14458 -16.84516,-3.76878c0.06281,0.0387 0.12185,0.07937 0.18523,0.11742l-0.06092,-0.03682c-3.95843,-1.78726 -8.97773,-4.5529 -12.31054,-9.18141c0,0 -1.79366,3.74213 -9.83557,3.89882c-10.16224,0.20048 -14.26475,-5.43362 -14.79009,-9.67945c-0.53355,-4.30806 0.78232,-9.24545 9.37049,-10.70219c7.18981,-1.21633 11.09815,0.9555 12.17926,1.69338l0.08372,0.09577c0.79249,-2.45094 2.11344,-3.58027 2.11344,-3.58027l-0.10848,-0.0387c-3.02647,-1.13638 -7.00835,-2.94964 -11.88112,-5.84795c-10.20029,-6.06803 -10.09944,-16.77341 -7.27796,-20.62271c2.92045,-3.97877 11.57208,-8.97904 23.79382,-2.17306c6.87765,3.82708 10.35838,9.72193 12.08857,14.13978l0.36546,-0.14472c0.47139,-0.27149 0.98592,-0.53929 1.53537,-0.79241l0.07109,-0.12562c-2.68004,-6.29778 -6.72662,-19.24723 4.79471,-20.24659c10.95728,-0.95041 10.01441,12.25289 9.13057,17.86666l0.087,0.01337c1.41484,0.09954 2.85256,0.30707 4.29027,0.64457c-0.03173,-0.06592 -1.66616,-3.4959 0.43269,-8.49232c1.64451,-3.91088 9.01135,-13.28711 14.99435,-8.3052c6.31237,5.25717 2.88626,11.20343 -0.39907,14.85036c-2.84616,3.15774 -6.12009,4.44828 -7.60537,5.01799l0.04124,0.02665c0.36546,0.22967 0.73091,0.46893 1.09194,0.72394c10.04745,7.07051 9.18584,21.70899 9.18584,21.70899l-0.02156,-0.10405c-0.04001,-0.16366 -0.06724,-0.25886 -0.07552,-0.28617v0zM253.4811,98.85826c0.60718,0.32044 1.20108,0.66687 1.77841,1.03676M243.16404,96.35149c-0.13013,0.70426 -0.27788,1.40475 -0.43909,2.10139M230.86736,101.77109c-0.60333,-1.14204 -1.14524,-2.31827 -1.64836,-3.50795M208.00116,122.11731c-0.06412,-1.40853 0.06724,-2.8291 0.45295,-4.18687" fill="#1b75bb" stroke="#000000" stroke-linecap="round" stroke-linejoin="round"/><path d="M198.90667,136.05144c-8.11612,-0.78675 -11.50042,-5.74447 -11.97435,-9.57474c-0.53355,-4.30806 0.78232,-9.24545 9.37049,-10.70219c1.24929,-0.21196 2.39953,-0.3211 3.45088,-0.3534l0.08118,0.00508c-3.42358,6.62125 -3.74713,14.40816 -0.98026,20.54342l0.05207,0.08183v0z" fill="#f1f1f2" stroke="#000000" stroke-linecap="butt" stroke-linejoin="miter"/><path d="M197.1035,107.05941c-8.59514,-6.18479 -8.3585,-15.94738 -5.69248,-19.58603c2.78155,-3.79157 10.7727,-8.50888 22.09347,-3.05623l-0.11356,0.03739c-6.4976,2.03415 -12.11899,7.15111 -14.75771,14.29271c-1.01134,2.74219 -1.49356,5.54399 -1.50118,8.28175l-0.02853,0.03042v0z" fill="#f1f1f2" stroke="#000000" stroke-linecap="butt" stroke-linejoin="miter"/><path d="M226.41851,88.26833c-0.47845,-4.97863 0.97518,-9.5608 7.64341,-10.13814c6.72793,-0.58242 8.97076,4.16974 9.49357,9.2252l-0.05207,-0.05207c-5.62197,-2.18126 -11.76494,-1.71306 -17.05769,0.88638l-0.02722,0.07863z" fill="#f1f1f2" stroke="#000000" stroke-linecap="butt" stroke-linejoin="miter"/><path d="M256.62236,79.00386c2.09311,-0.87367 4.31569,-0.85907 6.37198,0.85464c4.04223,3.36962 4.09045,7.01975 2.73711,10.16798l-0.06789,0.00508c-1.64705,-4.54471 -4.74519,-8.47715 -9.05071,-11.00483l0.00951,-0.02288v0z" fill="#f1f1f2" stroke="#000000" stroke-linecap="butt" stroke-linejoin="miter"/><path d="M256.40097,112.89588v0c5.53317,4.03018 7.48606,4.27445 8.80956,8.88827c0,0 1.95675,6.67906 -2.64699,12.85122c-3.055,4.09102 -8.37564,9.31842 -21.97359,10.4922c-13.59599,1.16992 -24.15673,-7.19998 -23.66057,-13.37968c0.65925,-8.22591 6.62133,-7.15111 18.03607,-14.18988c11.41342,-7.03435 11.57143,-15.3903 11.57143,-15.3903c0,0 6.01793,7.92195 9.86411,10.72818z" fill="#e6e7e8" stroke="#000000" stroke-linecap="butt" stroke-linejoin="miter"/><path d="M249.07283,136.74685c-7.9905,1.36408 -10.0773,-9.90338 -10.0773,-9.90338c0,0 3.54165,-0.96124 10.0773,-1.91674c6.53376,-0.95427 8.07364,0.49804 8.07364,0.49804c0,0 -0.08191,9.96111 -8.07364,11.32208z" fill="#ffffff" stroke="#231f20" stroke-linecap="round" stroke-linejoin="miter"/><path d="M255.99681,121.91674c-0.31536,0 -0.59709,-0.21885 -0.66622,-0.53609c-0.12816,-0.58496 -0.01837,-1.18263 0.30388,-1.68387c0.32298,-0.50378 0.82291,-0.84956 1.40795,-0.97649c0.58242,-0.12685 1.18132,-0.01714 1.68321,0.3065c0.49993,0.3229 0.84513,0.82291 0.97329,1.40853c0.02599,0.12685 0.04124,0.25312 0.04567,0.3794c0.01525,0.37685 -0.27854,0.6941 -0.65605,0.70803c-0.34766,0.02542 -0.69475,-0.27854 -0.7068,-0.65605c-0.00254,-0.04944 -0.01017,-0.09897 -0.01779,-0.14464c-0.10151,-0.46951 -0.56594,-0.77084 -1.03348,-0.66745c-0.22778,0.04944 -0.42261,0.18523 -0.55011,0.3794c-0.12504,0.19482 -0.16498,0.42703 -0.11742,0.65351c0.07995,0.36931 -0.15415,0.73222 -0.52149,0.8134c-0.04887,0.01017 -0.09708,0.01583 -0.14464,0.01583v0v0z" fill="#231f20" stroke="none" stroke-linecap="butt" stroke-linejoin="miter"/><path d="M236.52623,123.45794c-0.31347,0 -0.59578,-0.21704 -0.66556,-0.53617c-0.12504,-0.58307 -0.01845,-1.18074 0.30388,-1.68198c0.32167,-0.50181 0.82422,-0.84825 1.40787,-0.97583c0.5825,-0.1307 1.17886,-0.0196 1.67944,0.3033c0.50378,0.32298 0.84956,0.82357 0.97838,1.40984c0.02665,0.12619 0.0419,0.25312 0.04821,0.38128c0.01205,0.37685 -0.27977,0.69344 -0.65728,0.70746c-0.38194,0.01648 -0.69541,-0.27854 -0.70869,-0.65671c-0.00197,-0.04756 -0.00828,-0.09774 -0.01845,-0.14407c-0.04887,-0.2277 -0.18457,-0.42375 -0.38062,-0.55068c-0.19351,-0.12496 -0.42515,-0.16563 -0.65039,-0.11676c-0.22778,0.05018 -0.42318,0.18465 -0.54945,0.38071c-0.12562,0.19474 -0.16809,0.42572 -0.11799,0.6522c0.07995,0.368 -0.15481,0.73157 -0.52281,0.81217c-0.04944,0.01074 -0.09831,0.01525 -0.14653,0.01525v0v0z" fill="#231f20" stroke="none" stroke-linecap="butt" stroke-linejoin="miter"/></g></g></g></g></svg>