<svg version="1.1" xmlns="http://www.w3.org/2000/svg" xmlns:xlink="http://www.w3.org/1999/xlink" width="208" height="200.5" viewBox="0,0,208,200.5"><defs><radialGradient cx="240" cy="132" r="104" gradientUnits="userSpaceOnUse" id="color-1"><stop offset="0" stop-color="#4b53b3"/><stop offset="1" stop-color="#4b53b3" stop-opacity="0"/></radialGradient><radialGradient cx="238.75" cy="136.005" r="70.75" gradientUnits="userSpaceOnUse" id="color-2"><stop offset="0" stop-color="#ff6f33"/><stop offset="1" stop-color="#ff6f33" stop-opacity="0"/></radialGradient><linearGradient x1="240.61953" y1="58.29926" x2="240.61953" y2="237.16749" gradientUnits="userSpaceOnUse" id="color-3"><stop offset="0" stop-color="#000000"/><stop offset="1" stop-color="#000000" stop-opacity="0"/></linearGradient><radialGradient cx="238.90731" cy="131.23101" r="79.90295" gradientUnits="userSpaceOnUse" id="color-4"><stop offset="0" stop-color="#ffaa34" stop-opacity="0"/><stop offset="1" stop-color="#ffaa34"/></radialGradient><radialGradient cx="240.17097" cy="132.71547" r="58.42096" gradientUnits="userSpaceOnUse" id="color-5"><stop offset="0" stop-color="#d6ff33"/><stop offset="1" stop-color="#d6ff33" stop-opacity="0"/></radialGradient><radialGradient cx="239.91775" cy="133.05076" r="49.16774" gradientUnits="userSpaceOnUse" id="color-6"><stop offset="0" stop-color="#33fffd"/><stop offset="1" stop-color="#33fffd" stop-opacity="0"/></radialGradient><radialGradient cx="238.55504" cy="131.89446" r="47.7775" gradientUnits="userSpaceOnUse" id="color-7"><stop offset="0" stop-color="#4b53b3"/><stop offset="1" stop-color="#4b53b3" stop-opacity="0"/></radialGradient><radialGradient cx="239.25" cy="131.31667" r="43.5" gradientUnits="userSpaceOnUse" id="color-8"><stop offset="0" stop-color="#4b53b3"/><stop offset="1" stop-color="#4b53b3" stop-opacity="0"/></radialGradient></defs><g transform="translate(-136,-31.75)"><g data-paper-data="{&quot;isPaintingLayer&quot;:true}" fill-rule="nonzero" stroke-linecap="butt" stroke-linejoin="miter" stroke-miterlimit="10" stroke-dasharray="" stroke-dashoffset="0" style="mix-blend-mode: normal"><path d="M344,132c0,55.36655 -46.56239,100.25 -104,100.25c-57.43761,0 -104,-44.88345 -104,-100.25c0,-55.36655 46.56239,-100.25 104,-100.25c57.43761,0 104,44.88345 104,100.25z" fill="url(#color-1)" stroke="none" stroke-width="0"/><path d="M309.5,136.005c0,36.7297 -31.67586,66.505 -70.75,66.505c-39.07414,0 -70.75,-29.7753 -70.75,-66.505c0,-36.7297 31.67586,-66.505 70.75,-66.505c39.07414,0 70.75,29.7753 70.75,66.505z" fill="url(#color-2)" stroke="none" stroke-width="0"/><path d="M284.37023,179.70937c0.07585,1.88165 -6.82295,7.07192 -42.75929,7.07192c-35.93634,0 -45.96971,-4.43047 -45.98172,-7.45949c-0.01038,-2.6151 9.30175,-6.10294 45.23807,-6.10294c35.93634,0 43.43354,4.76932 43.50294,6.49051z" fill="url(#color-3)" stroke="none" stroke-width="0"/><text transform="translate(219.07985,206.06723) scale(0.357,0.357)" font-size="40" xml:space="preserve" fill="#ffffff" fill-rule="nonzero" stroke="#ffffff" stroke-width="0.5" stroke-linecap="butt" stroke-linejoin="miter" stroke-miterlimit="10" stroke-dasharray="" stroke-dashoffset="0" font-family="Handwriting" font-weight="normal" text-anchor="start" style="mix-blend-mode: normal"></text><text transform="translate(200.61052,68.49286) scale(0.34497,0.34497)" font-size="40" xml:space="preserve" fill="#ffffff" fill-rule="nonzero" stroke="#ffffff" stroke-width="1" stroke-linecap="butt" stroke-linejoin="miter" stroke-miterlimit="10" stroke-dasharray="" stroke-dashoffset="0" font-family="Handwriting" font-weight="normal" text-anchor="start" style="mix-blend-mode: normal"></text><path d="M300.75,133.96741c0,19.71094 -25.35954,45.20888 -60.74813,45.47947c-35.35158,0.27031 -59.58734,-24.2508 -60.74814,-44.93219c-1.20046,-21.38797 22.68796,-49.59127 61.8427,-48.76315c37.05041,0.78361 59.65357,27.95765 59.65357,48.21587z" fill="url(#color-4)" stroke="none" stroke-width="0"/><path d="M298.59193,132.71547c0,27.63026 -26.15595,50.029 -58.42096,50.029c-32.26501,0 -58.42097,-22.39875 -58.42097,-50.029c0,-27.63026 26.15596,-50.02901 58.42097,-50.02901c32.26501,0 58.42096,22.39875 58.42096,50.02901z" fill="url(#color-5)" stroke="none" stroke-width="0"/><path d="M289.08549,133.05076c0,23.25393 -21.0569,48.32054 -48.2115,48.32054c-27.15459,0 -50.12399,-25.06661 -50.12399,-48.32054c0,-23.25393 22.01315,-47.36429 49.16775,-47.36429c27.1546,0 49.16774,24.11036 49.16774,47.3643z" fill="url(#color-6)" stroke="none" stroke-width="0"/><path d="M274.60394,141.48315c-4.1609,17.59378 -25.08681,30.20186 -45.27401,24.99633c-17.78007,-4.58482 -30.98269,-24.73341 -27.12101,-42.97709c3.37314,-15.93566 25.23203,-30.89175 46.02091,-25.44604c21.31069,5.5824 30.68207,25.21118 26.3741,43.4268z" fill="url(#color-7)" stroke="none" stroke-width="0"/><path d="M282.75,131.31667c0,22.95664 -19.47561,41.56667 -43.5,41.56667c-24.02439,0 -43.5,-18.61003 -43.5,-41.56667c0,-22.95664 19.47561,-41.56667 43.5,-41.56667c24.02439,0 43.5,18.61003 43.5,41.56667z" fill="url(#color-8)" stroke="none" stroke-width="0"/></g></g></svg>