<svg version="1.1" xmlns="http://www.w3.org/2000/svg" xmlns:xlink="http://www.w3.org/1999/xlink" width="99.91007" height="153.66379" viewBox="0,0,99.91007,153.66379"><defs><linearGradient x1="258.77316" y1="88.47292" x2="258.77316" y2="223.84228" gradientUnits="userSpaceOnUse" id="color-1"><stop offset="0" stop-color="#000000"/><stop offset="1" stop-color="#000000" stop-opacity="0"/></linearGradient><radialGradient cx="258.7236" cy="130.3273" r="49.06667" gradientUnits="userSpaceOnUse" id="color-2"><stop offset="0" stop-color="#ff80f1"/><stop offset="1" stop-color="#ff00e3"/></radialGradient></defs><g transform="translate(-209.80472,-56.77698)"><g data-paper-data="{&quot;isPaintingLayer&quot;:true}" fill-rule="nonzero" stroke-linejoin="miter" stroke-miterlimit="10" stroke-dasharray="" stroke-dashoffset="0" style="mix-blend-mode: normal"><path d="M279.93206,180.35731c0.03668,1.42405 -3.29975,5.35209 -20.67938,5.35209c-17.37964,0 -22.23201,-3.35303 -22.23783,-5.64542c-0.00502,-1.97913 4.49855,-4.61877 21.87818,-4.61877c17.37963,0 21.00546,3.60948 21.03903,4.91209z" fill="url(#color-1)" stroke="none" stroke-width="0" stroke-linecap="butt"/><path d="M249.2877,179.39397v-98.13333h18.8718v98.13333z" fill="url(#color-2)" stroke="#000000" stroke-width="2" stroke-linecap="butt"/><g fill="none" stroke="#000000" stroke-width="2" stroke-linecap="round"><path d="M259.49246,86.70825h7.71429"/><path d="M267.06389,94.85111h-4"/><path d="M267.34961,110.85111h-4.14286"/><path d="M267.06389,118.70825h-7.57143"/><path d="M267.34961,126.5654h-4.14286"/><path d="M267.49246,134.70825h-7.85714"/><path d="M267.06389,142.5654h-3.85714"/><path d="M267.20675,102.56539h-8"/><path d="M267.34961,150.70825h-7.71429"/><path d="M263.20675,158.42254h4.14286"/><path d="M267.34961,166.5654h-8.14286"/><path d="M267.20675,174.70825h-4"/></g><text transform="translate(210.26487,74.49276) scale(0.46015,0.46015)" font-size="40" xml:space="preserve" fill="#000000" fill-rule="nonzero" stroke="#000000" stroke-width="2" stroke-linecap="butt" stroke-linejoin="miter" stroke-miterlimit="10" stroke-dasharray="" stroke-dashoffset="0" font-family="Handwriting" font-weight="normal" text-anchor="start" style="mix-blend-mode: normal"></text><text transform="translate(246.10157,202.61822) scale(0.46015,0.46015)" font-size="40" xml:space="preserve" fill="#000000" fill-rule="nonzero" stroke="#000000" stroke-width="1" stroke-linecap="butt" stroke-linejoin="miter" stroke-miterlimit="10" stroke-dasharray="" stroke-dashoffset="0" font-family="Handwriting" font-weight="normal" text-anchor="start" style="mix-blend-mode: normal"></text></g></g></svg>