<svg version="1.1" xmlns="http://www.w3.org/2000/svg" xmlns:xlink="http://www.w3.org/1999/xlink" width="104.89506" height="176.47305" viewBox="0,0,104.89506,176.47305"><defs><linearGradient x1="240.61952" y1="58.29926" x2="240.61952" y2="237.16749" gradientUnits="userSpaceOnUse" id="color-1"><stop offset="0" stop-color="#ffffff"/><stop offset="1" stop-color="#ffffff" stop-opacity="0"/></linearGradient></defs><g transform="translate(-187.74131,-36.02708)"><g data-paper-data="{&quot;isPaintingLayer&quot;:true}" stroke-linecap="butt" stroke-linejoin="miter" stroke-miterlimit="10" stroke-dasharray="" stroke-dashoffset="0" style="mix-blend-mode: normal"><path d="M284.37023,179.70937c0.07585,1.88165 -6.82295,7.07192 -42.75929,7.07192c-35.93634,0 -45.96971,-4.43047 -45.98172,-7.45949c-0.01038,-2.6151 9.30175,-6.10294 45.23807,-6.10294c35.93634,0 43.43354,4.76932 43.50294,6.49051z" fill="url(#color-1)" fill-rule="nonzero" stroke="none" stroke-width="0"/><text transform="translate(223.40924,206.52038) scale(0.357,0.357)" font-size="40" xml:space="preserve" fill="#ffffff" fill-rule="nonzero" stroke="#ffffff" stroke-width="0.5" stroke-linecap="butt" stroke-linejoin="miter" stroke-miterlimit="10" stroke-dasharray="" stroke-dashoffset="0" font-family="Handwriting" font-weight="normal" text-anchor="start" style="mix-blend-mode: normal"></text><text transform="translate(211.25236,49.13594) scale(0.34497,0.34497)" font-size="40" xml:space="preserve" fill="#ffffff" fill-rule="nonzero" stroke="#ffffff" stroke-width="1" stroke-linecap="butt" stroke-linejoin="miter" stroke-miterlimit="10" stroke-dasharray="" stroke-dashoffset="0" font-family="Handwriting" font-weight="normal" text-anchor="start" style="mix-blend-mode: normal"></text><text transform="translate(205.43818,65.93208) scale(0.26747,0.26747)" font-size="40" xml:space="preserve" fill="#ffffff" fill-rule="nonzero" stroke="#ffffff" stroke-width="1" stroke-linecap="butt" stroke-linejoin="miter" stroke-miterlimit="10" stroke-dasharray="" stroke-dashoffset="0" font-family="Handwriting" font-weight="normal" text-anchor="start" style="mix-blend-mode: normal"></text><path d="M189.72288,137.25262c-1.38062,-2.16953 -2.07091,-4.83214 -1.9723,-7.49475c0.09861,-2.46538 0.98614,-4.93076 2.56399,-6.80445c2.46538,-3.05707 6.11414,-4.24045 6.5086,-8.67814c0.59169,-5.91691 -3.74738,-12.42551 0.98615,-17.35627c1.67647,-1.67646 4.93077,-2.76123 7.29753,-2.85984c1.97231,-0.09862 2.66261,-0.19724 4.14184,-1.77508c1.08477,-1.18338 1.57784,-2.26815 1.9723,-3.84599c0.98615,-4.14184 5.02937,-6.90306 9.86152,-6.31137c3.9446,0.49307 7.88921,4.14183 11.14351,-0.09862c1.57784,-2.07092 1.97231,-4.24045 4.73353,-4.93075c2.85983,-0.69031 6.31137,0.59168 8.67813,2.07091c2.16954,1.282 3.45153,3.25431 6.11414,3.55015c2.56399,0.29584 4.43768,-0.88754 6.90306,-1.67646c6.5086,-1.9723 10.45321,1.282 11.63659,7.59337c0.39446,2.07092 0.39446,2.66262 2.26815,3.94461c1.47923,0.98615 3.74737,0.88754 5.42383,0.69031c5.62107,-0.59169 4.83215,7.59336 5.02938,10.15736c0.49307,6.70583 7.98783,10.25597 8.67813,12.81997c1.08477,4.04322 -3.74738,6.11414 -1.77507,10.25598c2.66261,5.62107 4.43768,10.94629 0.09861,16.37012c-1.67646,2.16953 -3.15569,3.94461 -4.63492,6.31137c-1.9723,3.15568 -1.47923,6.90306 -1.57784,10.35459c0,5.32522 -3.45153,9.86151 -8.57952,10.15736c-4.5363,0.29584 -7.88922,0 -10.84767,4.04322c-1.97231,2.66261 -3.2543,5.42383 -5.8183,7.69198c-4.83214,4.24045 -11.63658,1.97231 -16.2715,-1.77507c-3.45153,-2.85984 -2.85985,-3.35291 -7.69199,-2.36676c-3.2543,0.6903 -5.71968,1.67646 -9.07259,2.36676c-6.21276,1.08476 -8.77675,-1.57785 -10.3546,-3.15569c-2.56399,-2.46538 -3.05707,-6.80444 -5.52245,-9.36844c-2.95845,-2.85984 -2.76123,-2.85984 -6.31137,-3.2543c-2.564,-0.29585 -5.2266,-1.38062 -7.19891,-3.15569c-4.14184,-3.64876 -5.42384,-9.56568 -3.45153,-14.69367c0.88753,-2.36676 0.88754,-4.24045 -0.69031,-6.31137c-0.69031,-0.88754 -1.67646,-1.57784 -2.26815,-2.46538z" data-paper-data="{&quot;index&quot;:null}" fill="#b3d1ff" fill-rule="evenodd" stroke="none" stroke-width="1"/><path d="M193.9564,139.90828c0.88754,-3.35292 -5.12799,-9.96013 -3.64876,-14.79228c0.69031,-2.16953 2.36677,-3.74738 3.35292,-5.8183c1.18338,-2.564 0.19722,-5.22661 0.88753,-7.98783c1.28199,-5.71968 6.01553,-6.21275 9.56567,-10.35459c3.55015,-4.24045 5.71968,-12.91859 10.55183,-14.10197c2.56399,-0.59169 4.04322,0.29584 6.5086,-0.49308c2.56399,-0.78892 4.93075,-2.46538 7.49475,-3.45153c5.62107,-2.16954 10.3546,0.39446 16.07428,0.19723c5.128,-0.19724 10.05876,-3.64876 14.00336,0.29584c6.11414,6.01552 14.10197,8.77675 14.2992,8.87536c2.564,1.18338 4.04322,3.15569 5.12799,5.62107c0.88754,1.97231 1.18339,4.24046 2.36677,6.11415c1.08476,1.67646 2.85983,2.46538 4.24045,3.74737c2.16953,2.16953 3.15569,4.43768 3.2543,7.49475c0.19723,4.33907 -0.78892,7.69199 0,11.93244c0.6903,3.35291 2.16953,6.5086 1.18338,9.7629c-0.49307,1.87369 -0.6903,3.05707 -0.6903,4.83214c0,1.67645 -0.59169,2.85983 -0.6903,4.53629c-0.39447,5.71968 -3.05708,6.70584 -5.22661,8.87537c-0.88754,0.88754 -1.67646,1.08477 -2.66261,1.77507c-1.97231,1.28199 -2.16954,2.76122 -3.15569,4.73353c-1.08477,2.36676 -2.36677,4.04321 -4.5363,5.42383c-2.76123,1.77507 -4.33908,4.83215 -7.29753,6.40999c-2.76123,1.47923 -5.91691,1.08476 -8.77675,2.16953c-2.76123,1.08477 -4.63492,3.55016 -7.88922,3.25431c-2.16954,-0.29585 -3.05707,-1.47924 -5.62107,-1.18339c-1.67646,0.19723 -3.35291,1.08477 -5.02937,1.38062c-3.74738,0.59169 -6.60722,-1.57784 -10.25598,-1.87369c-4.83215,-0.39446 -10.55183,-1.18338 -11.93244,-6.11414c-0.19723,-1.28199 -1.77508,-1.57784 -2.07092,-1.57784c-3.15569,-0.19723 -8.4809,-0.59169 -10.15736,-3.15569c-2.95846,-4.5363 -0.5917,-9.66429 -3.846,-13.21443c-1.282,-1.38061 -3.05708,-1.282 -4.33907,-3.05707c-2.16954,-3.05707 -1.87369,-6.80445 -1.08477,-10.25598z" data-paper-data="{&quot;index&quot;:null}" fill="#cce0ff" fill-rule="evenodd" stroke="none" stroke-width="1"/><path d="M240.50274,85.27542c5.62107,0 8.48091,4.43768 13.21444,6.31137c7.1003,2.85984 15.87705,5.32522 20.61058,11.24213c3.35292,4.14184 7.98783,8.4809 9.66429,13.70751c1.38061,4.14184 -1.18339,8.57952 -1.18339,13.21444c0,8.97398 1.57785,13.80613 -3.05707,20.70919c-3.45153,5.128 -5.81829,3.2543 -13.11582,17.06043c-2.16954,4.04322 -11.0449,1.87369 -15.5812,2.95846c-3.35291,0.88754 -8.4809,5.8183 -12.12966,5.8183c-6.80445,0 -11.6366,-3.94462 -17.35628,-6.70584c-5.2266,-2.46538 -7.69198,-7.10029 -11.53797,-11.43936c-4.73353,-5.42384 -12.22828,-7.69198 -13.90474,-14.98951c-0.69031,-3.15568 0.6903,-9.56568 0.6903,-12.91859c0,-4.93076 -0.98614,-11.34074 1.38062,-16.2715c1.67647,-3.55014 6.5086,-5.71968 8.28368,-8.4809c2.56399,-4.04322 2.16953,-7.88921 5.81829,-10.84767c3.94461,-3.15569 8.08644,-2.76122 12.91859,-4.43768c4.5363,-1.67646 10.25598,-4.93076 15.28535,-4.93076z" data-paper-data="{&quot;index&quot;:null}" fill="#e8f1ff" fill-rule="evenodd" stroke="none" stroke-width="1"/><path d="M240.00275,169.59144c-21.731,0 -39.34745,-17.61646 -39.34745,-39.34746c0,-21.731 17.61645,-39.34745 39.34745,-39.34745c21.731,0 39.34746,17.61645 39.34746,39.34745c0,21.731 -17.61646,39.34746 -39.34746,39.34746z" data-paper-data="{&quot;index&quot;:null}" fill="#ffffff" fill-rule="evenodd" stroke="none" stroke-width="1"/></g></g></svg>