<svg version="1.1" xmlns="http://www.w3.org/2000/svg" xmlns:xlink="http://www.w3.org/1999/xlink" width="166.54563" height="195.8852" viewBox="0,0,166.54563,195.8852"><defs><linearGradient x1="292.72707" y1="27.50078" x2="292.72707" y2="251.63474" gradientUnits="userSpaceOnUse" id="color-1"><stop offset="0" stop-color="#000000"/><stop offset="1" stop-color="#000000" stop-opacity="0"/></linearGradient></defs><g transform="translate(-208.38279,-23.45622)"><g data-paper-data="{&quot;isPaintingLayer&quot;:true}" fill-rule="nonzero" stroke-linecap="butt" stroke-linejoin="miter" stroke-miterlimit="10" stroke-dasharray="" stroke-dashoffset="0" style="mix-blend-mode: normal"><path d="M344.08303,179.63576c0.08904,2.35783 -8.00899,8.86158 -50.19209,8.86158c-42.1831,0 -53.96057,-5.5517 -53.97468,-9.34723c-0.01219,-3.27688 10.91867,-7.6474 53.10177,-7.6474c42.1831,0 50.98354,5.97629 51.065,8.13305z" fill="url(#color-1)" stroke="none" stroke-width="0"/><text transform="translate(267.29168,211.51887) scale(0.46015,0.46015)" font-size="40" xml:space="preserve" fill="#000000" fill-rule="nonzero" stroke="#000000" stroke-width="1" stroke-linecap="butt" stroke-linejoin="miter" stroke-miterlimit="10" stroke-dasharray="" stroke-dashoffset="0" font-family="Handwriting" font-weight="normal" text-anchor="start" style="mix-blend-mode: normal"></text><text transform="translate(223.79168,42.40644) scale(0.49869,0.49869)" font-size="40" xml:space="preserve" fill="#000000" fill-rule="nonzero" stroke="#000000" stroke-width="1" stroke-linecap="butt" stroke-linejoin="miter" stroke-miterlimit="10" stroke-dasharray="" stroke-dashoffset="0" font-family="Handwriting" font-weight="normal" text-anchor="start" style="mix-blend-mode: normal"></text><text transform="translate(208.58038,67.26629) scale(0.39517,0.39517)" font-size="40" xml:space="preserve" fill="#000000" fill-rule="nonzero" stroke="#000000" stroke-width="1" stroke-linecap="butt" stroke-linejoin="miter" stroke-miterlimit="10" stroke-dasharray="" stroke-dashoffset="0" font-family="Handwriting" font-weight="normal" text-anchor="start" style="mix-blend-mode: normal"></text><g stroke="none" stroke-width="0"><path d="M342.92494,128.96907c0,6.16438 -3.02531,11.63469 -5.21067,17.10883c-2.61706,6.5555 -4.79324,12.92555 -9.45158,17.91839c-4.35582,4.66859 -9.81929,5.8787 -15.43696,8.65293c-6.38788,3.15459 -13.104,7.55837 -20.9194,7.55837c-7.89914,0 -14.93919,-4.00199 -21.61404,-7.22044c-6.40366,-3.08768 -12.50621,-5.27913 -17.08743,-10.63044c-4.12719,-4.82096 -4.73773,-11.30134 -6.86037,-17.43176c-1.82576,-5.27301 -5.45677,-10.05827 -5.45677,-15.95588c0,-5.66538 3.55442,-11.02455 5.24498,-16.01983c2.01687,-5.95946 2.49796,-11.40101 6.48251,-16.22668c4.95543,-6.0015 12.56753,-8.77337 19.73857,-12.12236c6.37122,-2.97546 12.11637,-6.86965 19.55255,-6.86965c7.57284,0 13.44088,3.85612 19.90313,6.82886c6.4773,2.97967 13.54544,5.0821 18.22327,10.36173c4.35153,4.91135 5.57731,11.98857 7.8,18.31607c1.87374,5.33414 5.09222,9.75371 5.09222,15.73186z" fill="#ffe7d9"/><path d="M300.11133,141.94364c0,5.70713 -3.69772,9.62464 -6.9282,13.72015c-4.19419,5.31726 -8.80699,10.0299 -15.94221,10.0299c-6.25238,0 -9.27988,-3.9249 -13.40839,-8.14733c-4.21185,-4.30766 -9.46202,-8.97879 -9.46202,-15.60271c0,-5.91311 5.15962,-8.68261 8.60245,-12.83965c4.19425,-5.06434 7.33109,-10.9104 14.26797,-10.9104c6.79771,0 11.58329,6.59829 15.77236,11.48747c3.59474,4.19553 7.09805,6.20494 7.09805,12.26257z" fill="#fff8f3"/></g></g></g></svg>