<svg version="1.1" xmlns="http://www.w3.org/2000/svg" xmlns:xlink="http://www.w3.org/1999/xlink" width="70.12079" height="166.76673" viewBox="0,0,70.12079,166.76673"><defs><linearGradient x1="239.4267" y1="37.53828" x2="239.4267" y2="245.08246" gradientUnits="userSpaceOnUse" id="color-1"><stop offset="0" stop-color="#000000"/><stop offset="1" stop-color="#000000" stop-opacity="0"/></linearGradient></defs><g transform="translate(-203.0574,-40.45749)"><g data-paper-data="{&quot;isPaintingLayer&quot;:true}" fill-rule="nonzero" stroke-linecap="butt" stroke-linejoin="miter" stroke-miterlimit="10" stroke-dasharray="" stroke-dashoffset="0" style="mix-blend-mode: normal"><path d="M269.5669,178.41269c0.05225,2.18331 -4.70037,8.20568 -29.45713,8.20568c-24.75676,0 -31.6688,-5.14076 -31.67708,-8.65538c-0.00715,-3.03435 6.40803,-7.08136 31.16477,-7.08136c24.75676,0 29.92162,5.53393 29.96943,7.53106z" fill="url(#color-1)" stroke="none" stroke-width="0"/><text transform="translate(229.12802,201.853) scale(0.32067,0.32067)" font-size="40" xml:space="preserve" fill="#000000" fill-rule="nonzero" stroke="#000000" stroke-width="0.5" stroke-linecap="butt" stroke-linejoin="miter" stroke-miterlimit="10" stroke-dasharray="" stroke-dashoffset="0" font-family="Handwriting" font-weight="normal" text-anchor="start" style="mix-blend-mode: normal"></text><g stroke="none"><path d="M247.77907,124.95927c0,4.10816 1.42917,14.15829 1.59595,17.09578c0.14001,2.466 -7.69332,-3.89781 -9.18834,-3.89781c-1.30111,0 -8.6134,3.27697 -9.30253,1.29135c-0.55875,-1.60998 -0.34904,-4.06944 -0.17761,-6.96202c0.13603,-2.29513 0.14282,-4.96807 0.46861,-6.95964c0.56766,-3.4701 0.81078,-10.20891 1.89383,-16.18178c0.38552,-2.1261 1.33724,-4.17314 1.66994,-5.97833c0.59687,-3.23851 3.58098,-2.39097 4.73819,-2.39097c1.373,0 3.99455,-0.50101 4.99024,3.60008c1.4836,6.11066 3.31172,15.98998 3.31172,20.38335z" fill="#c1b4d8" stroke-width="0"/><path d="M239.21198,161.80766l0.32911,5.65725l-2.94386,-0.45596l-4.02269,-1.31354l-2.00511,-1.16177l-0.48169,-3.93278v-2.06438l2.17601,1.52845l4.22339,1.45744c0,0 2.37743,0.41914 2.44433,0.39236z" data-paper-data="{&quot;origPos&quot;:null}" fill="#897ab8" stroke-width="1"/><path d="M242.81404,161.86117l0.9873,0.05356l1.79198,-0.50948l1.8103,-0.83118l1.35301,-1.01863l0.9873,-0.83118l0.65823,-0.96541l0.25609,5.79149l-1.90162,1.93048l-3.0537,1.3407l-2.67114,0.80401l-1.26,-0.16064l0.31077,-5.55013l0.73147,-0.05356" data-paper-data="{&quot;origPos&quot;:null}" fill="#897ab8" stroke-width="1"/><path d="M250.4754,157.54463l-0.91432,1.28676l-1.88331,1.39421l-2.54147,1.50134l-2.24902,0.18779h-0.65845l0.11595,-5.55013v-3.02945l-0.56297,-2.12011l-0.70486,-0.9365l-0.69482,-0.2592l-0.84104,0.95613l-0.42067,1.04575l-0.16454,2.52035l0.12815,3.05661l0.09133,4.31655h-0.71313l-2.83399,-0.56304l-3.7119,-1.47456l-1.44459,-1.2332l-0.42041,-0.80439l-0.20116,-5.79153l0.32908,-8.95517l0.47537,-5.44268l1.29834,-5.44268l0.93237,-2.60068l0.85935,-1.98404l1.59082,-1.85019l0.52416,0.75978l1.15111,0.51378l2.20119,0.44239l1.99291,-0.48275l1.57249,-0.83118l0.56689,-0.66446l1.59082,2.13939l1.64553,3.11013l1.28002,4.10201l0.7522,3.7l0.50951,3.85637l0.38378,3.85704l0.39648,4.93996l0.57275,6.32959" data-paper-data="{&quot;origPos&quot;:null}" fill="#c1b4d8" stroke-width="1"/><path d="M242.90101,102.26944l-1.35634,1.80083l-2.14549,1.21632h-1.99903l-1.68212,-1.82449l-0.32472,-1.82438l-0.45747,-1.36317l0.75615,-3.93606l3.51504,-15.16871l3.8762,16.68926l0.44724,2.7052z" fill="#ef463c" stroke-width="1"/><path d="M230.56942,164.53364l-1.146,0.67906l-0.68261,1.60883l-0.21925,1.96621l0.12184,2.18077l0.48753,4.32549l0.17066,1.93052l-0.2439,0.21457l-0.41429,-0.50059l-0.92652,-1.60879l-0.96287,-2.6453l-1.4751,-3.46754l-1.31641,-4.46866l-0.73144,-4.64757l-0.29249,-4.0038l0.2439,-2.2165l0.3655,-2.03764l0.82885,-1.82337l1.09717,-1.00079l1.87717,-0.65802l2.58424,0.83654v7.61455l0.31714,5.68437l0.31689,2.03764" data-paper-data="{&quot;origPos&quot;:null}" fill="#ef463c" stroke-width="1"/><path d="M241.39387,150.3771l0.46337,1.00075l0.38989,1.60883l0.09764,3.28902l-0.26806,4.39693l-0.29272,5.07632l-0.39013,6.72088l-0.65819,5.18383l-0.34131,0.64338l-0.39016,-3.32475l-0.31688,-4.79035l-0.14623,-3.82529l-0.2195,-4.6829l-0.19482,-4.03952l-0.19531,-2.93166l0.17065,-1.78769l0.2439,-1.32244l0.61572,-1.00113l0.67651,-0.57199l0.75563,0.35775" data-paper-data="{&quot;origPos&quot;:null}" fill="#ef463c" stroke-width="1"/><path d="M249.90261,149.59053l1.14576,-1.23001l1.82835,-0.01746l1.80421,0.74692l1.60887,2.12505l0.53638,2.12905l0.24391,3.3247l-0.39016,3.89673l-0.9995,5.64831l-1.26783,4.71896l-0.65819,1.89446l-0.39013,0.39343v-3.18152v-2.03798l-0.3899,-1.78734l-0.75586,-1.46562l-0.73144,-0.75084l-0.92625,-0.39313v-2.8245l-0.14625,-3.82494l-0.21947,-3.14585l-0.29249,-4.21841" data-paper-data="{&quot;origPos&quot;:null}" fill="#ef463c" stroke-width="1"/><path d="M229.96223,143.21264c0.0708,-2.19601 0.14259,-4.39297 0.2317,-6.58039c0.07883,-1.93974 0.16771,-3.87783 0.27855,-5.79758c0.10695,-1.85387 0.2278,-3.70505 0.37915,-5.518c0.14967,-1.78862 0.33351,-3.54336 0.52541,-5.28163c0.10888,-0.98603 0.26731,-1.90246 0.39721,-2.86145c0.05543,-0.40917 0.15357,-0.76364 0.11109,-1.31347c-0.01417,-0.17982 0.0476,-0.44303 0.08006,-0.65766c0.1255,-0.83397 0.24585,-1.67829 0.38137,-2.49144c0.19019,-1.13882 0.39453,-2.24812 0.58789,-3.38094c0.06372,-0.37177 0.10864,-0.78445 0.16893,-1.16575c0.09034,-0.57335 0.16993,-1.18233 0.28442,-1.68959c0.14844,-0.65766 0.36362,-2.5793 0.53474,-3.16652c0.30372,-1.04248 0.78257,-4.27152 1.08679,-5.31224c0.11083,-0.37964 0.95537,-3.47937 1.0623,-3.87466c0.02612,-0.09551 0.77659,-4.27197 0.81099,-4.33972c0.21997,-0.4335 0.77341,-4.26619 0.99189,-4.71005c0.20998,-0.42656 0.91584,-5.43062 1.44126,-5.48967c0.41574,-0.04693 1.21166,5.67079 1.35325,6.16075c0.29222,1.01379 1.02216,4.02424 1.31121,5.05192c0.28859,1.02591 1.40746,5.91151 1.71558,6.86005c0.36692,1.12929 0.78142,3.35388 0.99749,4.83754c0.05176,0.3553 1.89612,9.79935 1.95323,10.14854c0.09695,0.59417 0.1741,1.22832 0.26783,1.82953c0.10938,0.70189 0.24413,1.35946 0.3379,2.08487c0.12547,0.97205 0.21875,1.9962 0.33301,2.98741c0.0515,0.44646 0.13013,0.85562 0.17968,1.3057c0.12329,1.11541 0.2444,2.23507 0.35229,3.36964c0.14649,1.54104 0.28492,3.09431 0.41749,4.65182c0.08567,1.00509 0.15452,2.02841 0.23094,3.04397c0.10108,1.34382 0.21045,2.68162 0.30055,4.03508c0.07909,1.19092 0.13499,2.40018 0.20605,3.59805c0.01121,0.18594 0.03709,0.45785 0.0752,0.50995c0.16332,0.22064 0.19677,0.72106 0.23656,1.22138c0.0205,0.2572 0.02271,0.54382 0.0559,0.77668c0.0901,0.63145 0.04274,1.09884 -0.10693,1.50976c-0.01126,0.03054 -0.0223,0.074 -0.03178,0.12341c-0.22896,-0.20656 -0.45973,-0.39568 -0.68497,-0.56348c0.1195,-0.41573 0.19865,-0.87355 0.10152,-1.538c-0.03467,-0.23804 -0.01541,-0.57075 -0.02859,-0.85655c-0.03976,-0.85044 -0.07543,-1.70523 -0.12768,-2.54613c-0.06347,-1.02332 -0.14427,-2.03276 -0.21435,-3.0508c-0.06053,-0.88265 -0.10253,-1.78344 -0.177,-2.65045c-0.15062,-1.75122 -0.31639,-3.48514 -0.47779,-5.22434c-0.11962,-1.28995 -0.23753,-2.58177 -0.36498,-3.86219c-0.08448,-0.84702 -0.18212,-1.6783 -0.27808,-2.51144c-0.10108,-0.87737 -0.20117,-1.75557 -0.31249,-2.61564c-0.07936,-0.61322 -0.17726,-1.19445 -0.26561,-1.79203c-0.10501,-0.71236 -0.2046,-1.43507 -0.31496,-2.13614c-0.07031,-0.44656 -0.1572,-0.8609 -0.23485,-1.29348c-0.07056,-0.39352 -0.12183,-1.06154 -0.21167,-1.13364c-0.17895,-0.14512 -0.19191,-0.61416 -0.25977,-1.00686c-0.09523,-0.549 -0.17799,-1.14576 -0.2998,-1.61055c-0.47048,-1.79555 -0.95045,-3.56169 -1.4358,-5.3069c-0.1731,-0.62193 -0.37182,-1.15364 -0.56396,-1.74169c-0.05883,0.30485 -0.09767,0.73225 -0.17773,0.88089c-0.29176,0.54206 -0.58692,1.11365 -0.89991,1.44367c-0.38646,0.40833 -0.79175,0.58298 -1.18847,0.86784c-0.27785,0.19898 -0.55444,0.41879 -0.83179,0.62027c-0.19214,0.13901 -0.38378,0.30662 -0.57836,0.37965c-0.13942,0.05293 -0.28274,-0.04516 -0.42434,-0.05034c-0.31467,-0.01129 -0.63013,0.04858 -0.94334,-0.02787c-0.26195,-0.06339 -0.52099,-0.29014 -0.78198,-0.42563c-0.3816,-0.19889 -0.76392,-0.37871 -1.14526,-0.57511c-0.03272,-0.0173 -0.06273,-0.10162 -0.09327,-0.15631c-0.11523,-0.20676 -0.22559,-0.46126 -0.34644,-0.60815c-0.13182,-0.15983 -0.28221,-0.14678 -0.40722,-0.3466c-0.08789,-0.1416 -0.18874,-0.36659 -0.18897,-0.87478c-0.00023,-0.26839 -0.06763,-0.53513 -0.10474,-0.80258c-0.06079,0.12068 -0.13086,0.20583 -0.18114,0.36825c-0.28053,0.90265 -0.56177,1.80519 -0.83228,2.74595c-0.22754,0.79057 -0.45875,1.58279 -0.65479,2.46803c-0.15919,0.71837 -0.27686,1.56186 -0.39869,2.3776c-0.1858,1.24572 -0.36448,2.50615 -0.53613,3.77705c-0.26928,1.99371 -0.53834,3.98991 -0.79222,6.0088c-0.16748,1.33076 -0.32449,2.68515 -0.45703,4.06377c-0.13869,1.4385 -0.26271,2.9032 -0.35671,4.38603c-0.15159,2.39241 -0.28906,4.80037 -0.40184,7.21889c-0.07496,1.60796 -0.09741,3.24803 -0.14113,4.87422c-0.0166,0.61851 -0.01514,1.24573 -0.04344,1.85636c-0.01118,0.24262 -0.01602,0.47455 -0.0136,0.69387c-0.18061,-0.02394 -0.34425,-0.02224 -0.47481,0.02651c0.00237,-0.0751 0.00477,-0.15017 0.00719,-0.22523zM236.41274,102.57159c0.38134,0.19982 0.96311,1.37086 1.34495,1.52034c0.645,0.25368 1.89405,0.87525 1.92165,0.85795c0.22337,-0.13725 0.97797,-0.9618 1.2028,-1.02954c0.43385,-0.13125 1.16795,-0.82139 1.57298,-1.38002c0.10046,-0.13916 0.70046,-1.64693 0.70046,-1.64693l-0.03064,-2.57421l-0.95097,-3.66788l-1.16995,-4.97467l-0.91075,-2.97894c0,0 -0.53833,-4.42052 -0.74392,-4.39794c-0.38401,0.04257 -1.19197,5.2178 -1.19197,5.2178l-0.71476,3.05938l-0.85376,3.15122l-1.22026,6.3274c0,0 0.73873,2.35622 1.04414,2.51605z" fill="#30419a" stroke-width="1"/><path d="M236.48713,147.75428c0.00195,-0.17243 0.04614,-0.33987 0.20215,-0.37559c0.1538,-0.03567 0.23877,0.09141 0.28149,0.29279c0.01537,0.07285 0.02931,0.14782 0.03685,0.22279c0.0227,0.22385 -0.08518,0.43809 -0.23045,0.4638c-0.13281,0.02355 -0.25123,-0.12104 -0.27513,-0.34063c-0.00833,-0.07531 -0.00879,-0.15246 -0.0149,-0.26311z" data-paper-data="{&quot;origPos&quot;:null}" fill="#30419a" stroke-width="1"/><path d="M248.61285,146.01087c-0.00099,0.29708 -0.1028,0.47521 -0.26734,0.46738c-0.15429,-0.00788 -0.25051,-0.18639 -0.25147,-0.467c-0.00099,-0.29134 0.10158,-0.48271 0.25954,-0.48381c0.15794,-0.00107 0.26,0.18924 0.25927,0.48343z" data-paper-data="{&quot;origPos&quot;:null}" fill="#30419a" stroke-width="1"/><path d="M231.71858,146.28653c-0.00073,0.2881 -0.09228,0.46091 -0.2473,0.46734c-0.16358,0.00643 -0.26294,-0.17102 -0.26367,-0.46985c-0.0005,-0.29597 0.10032,-0.48773 0.25657,-0.48701c0.15674,0.00038 0.25563,0.18997 0.25441,0.48952z" data-paper-data="{&quot;origPos&quot;:null}" fill="#30419a" stroke-width="1"/><path d="M243.68485,148.34235c-0.14524,-0.01324 -0.24509,-0.19639 -0.23388,-0.42919c0.01002,-0.21066 0.13112,-0.38096 0.26247,-0.36989c0.13767,0.01145 0.25779,0.21636 0.24926,0.42451c-0.00856,0.21781 -0.13452,0.38742 -0.27784,0.37457z" data-paper-data="{&quot;origPos&quot;:null}" fill="#30419a" stroke-width="1"/><path d="M257.3035,156.01651c0.00585,0.40343 -0.02684,0.80155 -0.02539,1.20497c0.00073,0.19924 -0.01904,0.38492 -0.03639,0.57986c-0.04053,0.45699 -0.09397,0.89257 -0.12084,1.34922c-0.03467,0.57948 -0.18018,1.14073 -0.24559,1.71378c-0.06155,0.53771 -0.14526,1.03077 -0.24122,1.55847c-0.02344,0.12887 -0.03395,0.26243 -0.05494,0.39237c-0.04737,0.29457 -0.09057,0.59093 -0.14795,0.88154c-0.05665,0.28563 -0.13403,0.56304 -0.1919,0.84833c-0.03101,0.15246 -0.03074,0.31918 -0.06224,0.47164c-0.06104,0.29564 -0.14966,0.5802 -0.19898,0.87937c-0.08961,0.54486 -0.22387,1.06329 -0.36084,1.58525c-0.15062,0.57411 -0.25927,1.17181 -0.38672,1.75878c-0.00681,0.03286 -0.01683,0.0639 -0.02783,0.09391c-0.09741,0.26277 -0.19994,0.52162 -0.291,0.78903c-0.05299,0.1557 -0.0674,0.34667 -0.13526,0.48308c-0.13403,0.27026 -0.19214,0.56376 -0.24853,0.88329c-0.05153,0.29316 -0.19581,0.55415 -0.37916,0.74765c-0.05127,0.05428 -0.05321,0.20065 -0.08838,0.29636c-0.14259,0.38593 -0.28955,0.76833 -0.43383,1.1532c-0.03639,0.0975 -0.06396,0.20317 -0.1057,0.2953c-0.02638,0.0582 -0.07106,0.09817 -0.10865,0.14458c-0.0127,0.0161 -0.03761,0.0218 -0.04174,0.04002c-0.06277,0.27741 -0.13234,0.55265 -0.17849,0.83615c-0.01682,0.10214 0.01319,0.20351 -0.10032,0.19818c-0.03272,-0.0011 -0.07618,0.06245 -0.09912,0.11138c-0.07959,0.16851 -0.16676,0.19673 -0.27712,0.06356c-0.09814,-0.11857 -0.1096,-0.33455 -0.04564,-0.47628c0.04859,-0.1075 0.07225,-0.24246 0.09645,-0.3692c0.02294,-0.12104 0.02588,-0.25029 0.04931,-0.37095c0.03418,-0.17604 0.08836,-0.34421 0.11718,-0.52166c0.08131,-0.50127 0.16163,-1.00399 0.22658,-1.5099c0.02661,-0.20674 0.01538,-0.4245 0.01659,-0.63729c0.00268,-0.34706 0.00463,-0.69447 0.0005,-1.04115c-0.00393,-0.31348 -0.00832,-0.62767 -0.02783,-0.93936c-0.02588,-0.41808 -0.0586,-0.83581 -0.10256,-1.2507c-0.06174,-0.58552 -0.14355,-1.16428 -0.33715,-1.69594c-0.05077,-0.1396 -0.06567,-0.30666 -0.11499,-0.44805c-0.04053,-0.11605 -0.10253,-0.22032 -0.16381,-0.31705c-0.20166,-0.3185 -0.38527,-0.67373 -0.61694,-0.93582c-0.29028,-0.32773 -0.57302,-0.70158 -0.96143,-0.82794c-0.02955,0.05283 -0.06227,0.10959 -0.0935,0.16779c-0.05566,0.10426 -0.11622,0.1614 -0.20411,0.06642c-0.07936,-0.08532 -0.13502,-0.05534 -0.20337,0.05641c-0.19019,0.31169 -0.40966,0.56913 -0.6687,0.76229c-0.26611,0.19848 -0.50928,0.46269 -0.77662,0.65552c-0.20361,0.1471 -0.4292,0.22994 -0.64574,0.33774c-0.35156,0.17532 -0.72509,0.23851 -1.05444,0.53558c-0.17459,0.1571 -0.40163,0.18958 -0.60547,0.27456c-0.27589,0.11495 -0.55103,0.23386 -0.82911,0.33595c-0.19531,0.07178 -0.39575,0.1132 -0.59228,0.17711c-0.12474,0.03997 -0.24585,0.10887 -0.37135,0.1428c-0.28244,0.07642 -0.5664,0.14497 -0.85082,0.20568c-0.2678,0.05709 -0.53636,0.11209 -0.80614,0.14458c-0.21558,0.02644 -0.43382,0.00966 -0.65039,0.02784c-0.10596,0.00928 -0.21068,0.05429 -0.31615,0.08358c-0.00562,0.00179 -0.01024,0.01213 -0.01537,0.01213c-0.07741,0.00107 -0.20999,-0.03427 -0.22219,0.00711c-0.04932,0.16604 -0.07008,0.35455 -0.08521,0.53737c-0.03613,0.4377 -0.06641,0.87652 -0.09325,1.31567c-0.02931,0.47913 -0.05004,0.96009 -0.07863,1.43922c-0.01171,0.19422 -0.03904,0.38665 -0.05149,0.58088c-0.05615,0.86868 -0.10254,1.73877 -0.16748,2.60673c-0.02294,0.30777 -0.08789,0.60877 -0.13354,0.9133c-0.08253,0.54699 -0.19141,1.08935 -0.23904,1.64276c-0.04687,0.54269 -0.08862,1.07644 -0.25266,1.57592c-0.04542,0.13819 -0.05811,0.30133 -0.10964,0.43345c-0.03759,0.09605 -0.13427,0.24067 -0.16944,0.22211c-0.11109,-0.05892 -0.25609,-0.15284 -0.29612,-0.291c-0.09205,-0.31526 -0.13357,-0.66267 -0.18727,-1.00007c-0.03759,-0.23671 -0.06297,-0.47734 -0.09008,-0.71729c-0.07007,-0.61766 -0.15015,-1.23392 -0.2036,-1.85516c-0.05275,-0.61375 -0.07302,-1.2332 -0.11695,-1.84874c-0.04614,-0.65159 -0.09913,-1.30213 -0.1565,-1.95156c-0.04393,-0.49808 -0.11817,-0.99186 -0.14551,-1.49138c-0.04201,-0.76297 -0.05566,-1.5299 -0.08154,-2.295c-0.00122,-0.03249 -0.00807,-0.06429 -0.01174,-0.0932c-0.32934,-0.0539 -0.65013,-0.12317 -0.97266,-0.15497c-0.29417,-0.02856 -0.59373,0.0232 -0.88474,-0.03283c-0.40722,-0.07821 -0.80786,-0.22564 -1.21217,-0.33812c-0.14818,-0.04176 -0.29857,-0.07106 -0.44823,-0.10175c-0.19948,-0.04143 -0.40015,-0.07285 -0.59913,-0.11925c-0.16503,-0.03819 -0.33179,-0.07429 -0.4917,-0.14177c-0.41284,-0.17494 -0.82128,-0.37235 -1.23412,-0.5484c-0.13845,-0.05892 -0.28957,-0.0582 -0.42605,-0.12423c-0.29296,-0.14211 -0.57493,-0.33672 -0.87083,-0.45989c-0.43385,-0.18064 -0.84669,-0.43485 -1.26733,-0.66479c-0.14943,-0.08174 -0.35182,-0.00643 -0.52125,0.05284c-0.19922,0.06999 -0.41039,0.15352 -0.57592,0.31849c-0.1504,0.14922 -0.25121,0.41093 -0.36597,0.63193c-0.22192,0.42812 -0.32885,0.94119 -0.43237,1.4396c-0.08961,0.43306 -0.09546,0.90363 -0.13892,1.35743c-0.06224,0.64981 0.01441,1.28535 0.07545,1.92588c0.04026,0.41986 0.02122,0.8508 0.04442,1.27531c0.01636,0.29457 0.0625,0.58557 0.08961,0.87941c0.01831,0.19742 0.02026,0.39807 0.04149,0.59481c0.02393,0.22496 0.0591,0.44737 0.09229,0.66982c0.09622,0.6441 0.20606,1.28463 0.28565,1.93265c0.04809,0.39023 0.05324,0.79226 0.0708,1.18965c0.00856,0.19099 0.00294,0.38343 0.00099,0.57518c-0.00172,0.15531 -0.13916,0.33063 -0.23829,0.27813c-0.09912,-0.05249 -0.19313,-0.14104 -0.27636,-0.23744c-0.07447,-0.08639 -0.13208,-0.20388 -0.1963,-0.30921c-0.36692,-0.60017 -0.75831,-1.17322 -1.09251,-1.81089c-0.26734,-0.50983 -0.46609,-1.09714 -0.6924,-1.65269c-0.19555,-0.48023 -0.37866,-0.97188 -0.58204,-1.44496c-0.24145,-0.56087 -0.5156,-1.09322 -0.74413,-1.66448c-0.21386,-0.53486 -0.38379,-1.10752 -0.57959,-1.65843c-0.12207,-0.34277 -0.26707,-0.66909 -0.38306,-1.01616c-0.11863,-0.35417 -0.21558,-0.7244 -0.32032,-1.08824c-0.18259,-0.63338 -0.37889,-1.25925 -0.54098,-1.90336c-0.14992,-0.59484 -0.26026,-1.21072 -0.39283,-1.81481c-0.08521,-0.3867 -0.2085,-0.7605 -0.26268,-1.15538c-0.10012,-0.73159 -0.15919,-1.47456 -0.24146,-2.21152c-0.02882,-0.25741 -0.09695,-0.50842 -0.11086,-0.7662c-0.02416,-0.44341 -0.01758,-0.89078 -0.02856,-1.33602c-0.00463,-0.20099 -0.01685,-0.40202 -0.03246,-0.60195c-0.06666,-0.86119 -0.05787,-1.71663 0.06274,-2.56995c0.05517,-0.38849 0.06422,-0.79085 0.11548,-1.18075c0.05101,-0.38917 0.11156,-0.77975 0.19995,-1.15321c0.10352,-0.43847 0.21484,-0.88226 0.37207,-1.28212c0.21898,-0.55661 0.43505,-1.14789 0.74314,-1.58742c0.27467,-0.39164 0.55883,-0.84296 0.9761,-0.98112c0.13377,-0.04394 0.24608,-0.21317 0.3779,-0.28636c0.2312,-0.12853 0.47194,-0.21994 0.70582,-0.33953c0.46436,-0.23777 0.92334,-0.23067 1.40113,-0.05177c0.55516,0.20781 1.12329,0.34276 1.68529,0.51055c0.06201,0.01856 0.12256,0.04534 0.22291,0.08319c0.00757,-0.34524 0.0088,-0.67195 0.02295,-0.99756c0.02928,-0.6748 0.0664,-1.34853 0.0979,-2.02334c0.01513,-0.32063 0.01855,-0.64265 0.03712,-0.96294c0.03237,-0.55235 0.06512,-1.10496 0.10634,-1.65584c0.03954,0.02981 0.06327,0.04645 0.06874,0.04802c0.15928,0.04556 0.30895,0.08745 0.45074,0.12545c0.04378,0.17017 0.12754,0.31092 0.26091,0.41379v-0.00004c0.34666,0.26779 0.70701,0.5088 1.07566,0.70157c0.44899,0.23459 0.91164,0.41595 1.37135,0.60413c0.31225,0.12781 0.62695,0.25277 0.94579,0.33383c0.4529,0.11495 0.92675,0.07356 1.34276,0.4377c0.05275,0.04606 0.12209,0.06574 0.18483,0.06966c0.64695,0.0421 1.29444,0.08391 1.94189,0.11423c0.2981,0.01392 0.59695,-0.00643 0.89502,0.00643c0.14649,0.00643 0.29199,0.07569 0.43823,0.07715c0.27368,0.00285 0.54736,-0.0318 0.82104,-0.035c0.52687,-0.00609 1.05397,0.01712 1.58058,-0.00536c0.59522,-0.02499 1.18823,-0.07464 1.78223,-0.17707c0.69772,-0.11998 1.39158,-0.25352 2.07202,-0.50773c0.41674,-0.15531 0.82273,-0.38023 1.24195,-0.51732c0.56029,-0.1832 1.05394,-0.57913 1.55784,-0.94902c0.07665,-0.05569 0.1643,-0.09247 0.22803,-0.17068c0.2002,-0.24599 0.3938,-0.50412 0.58544,-0.76476c0.12369,-0.16818 0.21619,-0.34913 0.14328,-0.60962c0.22363,0.00315 0.47094,0.07905 0.68325,0.05469c0.00542,0.02847 0.01214,0.05599 0.02112,0.0819c0.0901,0.25953 0.04274,0.45163 -0.10693,0.62052c-0.03199,0.03567 -0.06224,0.11423 -0.05982,0.16996c0.02369,0.55159 0.02955,1.10825 0.0906,1.65128c0.0581,0.51915 0.18186,1.02148 0.26489,1.53561c0.0393,0.24353 0.05761,0.49556 0.07325,0.74586c0.02806,0.44881 0.04492,0.89938 0.072,1.34853c0.00515,0.08783 0.03467,0.17209 0.06055,0.29457c0.28419,-0.23565 0.54029,-0.47772 0.8142,-0.66411c0.16431,-0.11175 0.35523,-0.14458 0.53616,-0.19814c0.23167,-0.06855 0.46629,-0.17494 0.69849,-0.16996c0.39159,0.00894 0.78856,-0.03142 1.17455,0.13568c0.38917,0.16817 0.7981,0.26171 1.16919,0.48947c0.23144,0.14211 0.44798,0.33029 0.65965,0.52698c0.16407,0.15284 0.35694,0.28422 0.50928,0.45665c0.36107,0.40812 0.67432,1.09148 0.90477,1.65988c0.10157,0.25063 0.13574,0.52128 0.22267,0.78013c0.09715,0.29027 0.20728,0.57445 0.26341,0.88971c0.06104,0.3417 0.12867,0.67412 0.2007,1.00581c0.07887,0.3638 0.06541,0.79584 0.08177,1.17321c0.01758,0.40309 0.0276,0.79797 0.03395,1.19608zM247.82498,159.90783c0.53662,-0.29743 0.97534,-0.85152 1.47755,-1.23784c0.27808,-0.21424 0.48608,-0.52413 0.67676,-0.8683c0.07762,-0.13998 0.17506,-0.31956 0.1743,-0.48023c-0.0039,-0.78477 -0.0349,-1.56954 -0.06273,-2.35359c-0.0083,-0.23029 -0.03613,-0.4595 -0.05666,-0.68872c-0.04661,-0.52737 -0.09715,-1.05397 -0.1411,-1.58202c-0.04003,-0.48202 -0.06934,-0.96579 -0.11109,-1.44743c-0.02123,-0.24638 -0.07543,-0.48807 -0.08667,-0.73444c-0.01904,-0.42416 -0.00073,-0.85225 -0.02635,-1.27463c-0.03811,-0.63231 -0.10181,-1.26139 -0.15161,-1.89229c-0.01197,-0.14961 0.0039,-0.30777 -0.02099,-0.45163c-0.06006,-0.35243 -0.1526,-0.69409 -0.20166,-1.04898c-0.05129,-0.37133 -0.0669,-0.75301 -0.09816,-1.13039c-0.02806,-0.3406 -0.05616,-0.68123 -0.08445,-1.02612c-0.22046,0.20457 -0.43386,0.35596 -0.60719,0.5759c-0.19531,0.24744 -0.40186,0.43882 -0.64232,0.56769c-0.26026,0.13998 -0.51173,0.31778 -0.77563,0.43915c-0.26806,0.12355 -0.54614,0.20137 -0.82081,0.29384c-0.30297,0.10175 -0.60743,0.19282 -0.90967,0.29704c-0.40404,0.1396 -0.80395,0.31134 -1.21143,0.42416c-0.36253,0.10035 -0.73193,0.15106 -1.10008,0.2021c-0.31007,0.04322 -0.62306,0.04143 -0.9331,0.08392c-0.63624,0.08677 -1.27123,0.19209 -1.91015,0.06033c-0.08032,-0.01677 -0.16137,-0.04177 -0.24172,-0.03998c-0.44189,0.00856 -0.88401,0.05139 -1.32494,0.03215c-0.72532,-0.0318 -1.44995,-0.10572 -2.17505,-0.15425c-0.28855,-0.01895 -0.57129,-0.02606 -0.8574,-0.14603c-0.22463,-0.09426 -0.49293,0.06821 -0.69435,-0.22781c-0.01369,-0.02035 -0.04443,-0.01499 -0.06736,-0.02142c-0.43092,-0.12244 -0.86183,-0.24633 -1.29298,-0.36703c-0.07324,-0.02035 -0.15016,-0.01716 -0.22242,-0.04355c-0.14891,-0.05356 -0.29516,-0.12249 -0.44384,-0.17958c-0.1775,-0.06855 -0.36157,-0.10891 -0.53272,-0.20104c-0.2473,-0.13245 -0.48168,-0.31666 -0.72925,-0.44877c-0.22192,-0.11819 -0.45749,-0.18209 -0.6804,-0.29781c-0.0984,-0.05104 -0.1814,-0.16744 -0.26929,-0.25885c-0.094,-0.09779 -0.18529,-0.201 -0.30296,-0.32918c-0.02148,0.14424 -0.04102,0.22458 -0.04469,0.30636c-0.02222,0.48198 -0.04029,0.96435 -0.06029,1.44671c-0.01907,0.45912 -0.04178,0.91794 -0.05788,1.37744c-0.0149,0.42557 -0.01977,0.85259 -0.03613,1.27821c-0.0122,0.31773 -0.07056,0.63801 0.04833,0.94221c0.01197,0.02997 -0.00218,0.08285 -0.00585,0.12495c-0.04393,0.49914 -0.09522,0.99756 -0.12963,1.49848c-0.0193,0.28099 -0.01758,0.56662 -0.01391,0.84974c0.00707,0.52916 0.02883,1.05827 0.03223,1.58742c0.00195,0.30918 -0.03173,0.61907 -0.02734,0.92794c0.00585,0.40595 0.03269,0.8115 0.05176,1.21711c0.02562,0.53805 0.07248,1.07611 0.07298,1.61454c0.00073,0.52056 0.1538,0.91117 0.38647,1.26568c0.18483,0.28206 0.39845,0.48701 0.64454,0.64661c0.3025,0.19529 0.57909,0.4802 0.88405,0.66442c0.33152,0.20065 0.67845,0.3574 1.02683,0.48521c0.58203,0.21278 1.17115,0.38419 1.75612,0.58054c0.2722,0.09141 0.53979,0.21461 0.81321,0.29887c0.32398,0.09924 0.65138,0.17494 0.97778,0.25456c0.10303,0.02499 0.20995,0.01677 0.31202,0.04606c0.22754,0.06535 0.45115,0.18851 0.67968,0.20887c0.36061,0.03142 0.72387,0.00677 1.08593,-0.01213c0.1538,-0.0086 0.22509,-0.16319 0.21071,-0.37921c-0.00516,-0.07566 0.00119,-0.15386 0.00364,-0.23063c0.0083,-0.25885 0.03173,-0.51842 0.0232,-0.77549c-0.02198,-0.65552 -0.07738,-1.30925 -0.08326,-1.9648c-0.00804,-0.87187 -0.02489,-1.73877 -0.12475,-2.60136c-0.04591,-0.39773 -0.05787,-0.80759 -0.05909,-1.21213c-0.00122,-0.33774 0.0281,-0.67731 0.05837,-1.01326c0.03514,-0.3924 0.07371,-0.78549 0.13427,-1.17003c0.03907,-0.24671 0.09571,-0.50165 0.18724,-0.71264c0.3108,-0.7155 0.73904,-1.26177 1.22559,-1.71161c0.03589,-0.03286 0.08816,-0.02857 0.13331,-0.04002c0.29444,-0.07497 0.53785,0.12747 0.79566,0.28993c0.34521,0.21815 0.56468,0.58088 0.70972,1.0761c0.05982,0.20389 0.15893,0.3824 0.24046,0.57271c0.03884,0.09175 0.05322,0.21313 0.08521,0.32416c0.03517,0.12142 0.10719,0.22603 0.12673,0.35026c0.05368,0.34562 0.08862,0.69732 0.13086,1.04685c0.00096,0.00822 0.00095,0.01711 0.00145,0.02571c0.01808,0.5352 0.04469,1.06968 0.052,1.60522c0.00562,0.38883 0.0027,0.78046 -0.02757,1.16572c-0.04251,0.54307 -0.12672,1.07827 -0.06349,1.63132c0.02221,0.19316 0.0227,0.39666 0.00978,0.59233c-0.0281,0.42843 -0.07837,0.85438 -0.10402,1.28353c-0.0083,0.13535 0.06056,0.28243 0.0476,0.41454c-0.04492,0.45129 -0.10861,0.89938 -0.16917,1.34743c-0.01954,0.1439 0.00367,0.20959 0.11132,0.20316c0.19872,-0.01175 0.39843,0.00038 0.59642,-0.02214c0.61036,-0.06995 1.22316,-0.12244 1.82936,-0.24276c0.28198,-0.05573 0.54687,-0.27779 0.8269,-0.38133c0.45531,-0.16851 0.89403,-0.39062 1.30736,-0.71836c0.04591,-0.03606 0.0979,-0.05607 0.14795,-0.07928c0.23266,-0.1089 0.46949,-0.20171 0.69802,-0.32811zM230.32406,164.26763c-0.03761,-0.14283 -0.08448,-0.25706 -0.09668,-0.37848c-0.06396,-0.64338 -0.12207,-1.2885 -0.17701,-1.93367c-0.06178,-0.72053 -0.12672,-1.441 -0.17383,-2.16366c-0.03689,-0.56628 -0.0464,-1.13682 -0.07229,-1.7045c-0.04221,-0.9265 -0.09423,-1.85159 -0.13013,-2.77809c-0.02072,-0.53771 -0.01805,-1.07755 -0.02612,-1.61632c-0.00244,-0.16851 -0.00635,-0.33741 -0.00829,-0.50664c-0.00513,-0.4145 -0.01831,-0.82938 -0.01293,-1.24354c0.00952,-0.75408 0.03346,-1.50742 0.04026,-2.26149c0.00073,-0.08068 -0.06079,-0.20781 -0.11278,-0.23599c-0.15575,-0.08426 -0.32032,-0.13356 -0.48242,-0.18924c-0.37866,-0.13032 -0.76125,-0.23956 -1.13647,-0.3881c-0.38623,-0.15246 -0.77027,-0.28312 -1.16992,-0.14497c-0.23412,0.08106 -0.46705,0.1732 -0.69799,0.27137c-0.19971,0.08498 -0.40285,0.16353 -0.59255,0.28529c-0.26026,0.16706 -0.46533,0.45593 -0.68993,0.70622c-0.36524,0.40735 -0.6006,0.94187 -0.80127,1.49703c-0.20824,0.57556 -0.33203,1.22001 -0.47657,1.84197c-0.18823,0.81116 -0.25953,1.66486 -0.28465,2.50817c-0.02832,0.95188 0.03931,1.91085 0.07007,2.86631c0.00853,0.26205 0.0239,0.52592 0.05539,0.7837c0.06835,0.55806 0.16943,1.10931 0.22046,1.67023c0.08253,0.91224 0.22487,1.79876 0.4419,2.66135c0.1338,0.53124 0.26171,1.06576 0.40087,1.59381c0.18384,0.69621 0.36184,1.39673 0.56911,2.07829c0.16722,0.54951 0.3784,1.06967 0.56128,1.60951c0.07299,0.21462 0.11741,0.44954 0.18309,0.66982c0.03199,0.10745 0.09106,0.1978 0.12378,0.30491c0.10449,0.33953 0.18678,0.68408 0.36133,0.9815c0.17551,0.29917 0.29638,0.66552 0.42725,1.01931c0.19138,0.51664 0.42943,0.99615 0.66282,1.47958c0.0083,0.0421 0.01979,0.08281 0.03711,0.12104c0.11962,0.26383 0.1814,0.55337 0.28614,0.82904c0.07447,0.3549 0.21729,0.66407 0.36058,0.95971c0.18483,0.38129 0.44143,0.68693 0.64331,1.05324c0.115,0.20887 0.24608,0.31386 0.43971,0.35065c-0.04297,-0.37525 -0.0708,-0.72947 -0.1255,-1.07436c-0.12547,-0.78941 -0.28466,-1.56843 -0.39062,-2.3632c-0.09837,-0.73802 -0.15648,-1.48992 -0.21141,-2.23863c-0.03834,-0.51949 -0.05225,-1.04434 -0.05738,-1.56703c-0.00513,-0.50417 -0.01024,-1.01327 0.03051,-1.51207c0.07887,-0.96435 0.34792,-1.83265 0.68261,-2.66527c0.09912,-0.24671 0.21583,-0.45771 0.37575,-0.59484c0.19922,-0.1703 0.41674,-0.29632 0.62987,-0.42881c0.11158,-0.06927 0.23071,-0.11065 0.32349,-0.15314zM256.79251,157.17078c-0.00172,-0.49803 -0.01001,-0.9961 -0.01636,-1.49384c0,-0.10567 -0.0005,-0.211 -0.00076,-0.31633c-0.00073,-0.36205 0.03933,-0.7387 -0.01587,-1.08287c-0.12158,-0.75978 -0.28075,-1.50849 -0.44919,-2.24971c-0.02369,-0.10426 -0.06349,-0.20852 -0.11133,-0.30385c-0.09741,-0.35847 -0.24463,-0.68694 -0.40652,-1.01292c-0.04271,-0.08532 -0.09593,-0.1542 -0.15525,-0.20133c-0.03957,-0.06642 -0.0791,-0.13356 -0.12207,-0.19427c-0.01369,-0.01925 -0.0281,-0.03316 -0.04224,-0.04888c-0.13575,-0.22351 -0.30762,-0.38631 -0.49243,-0.54627c-0.43115,-0.37312 -0.83618,-0.80908 -1.3452,-0.94008c-0.209,-0.05428 -0.41555,-0.14854 -0.626,-0.17532c-0.31176,-0.04036 -0.62646,-0.0275 -0.93921,-0.05428c-0.45068,-0.03925 -0.86425,0.15246 -1.26707,0.4131c-0.20484,0.13283 -0.40381,0.28528 -0.55397,0.39236c-0.03197,0.25387 -0.05883,0.45882 -0.083,0.66446c-0.00658,0.05713 -0.0088,0.1164 -0.00612,0.17426c0.031,0.70622 0.05397,1.41351 0.09741,2.11828c0.04029,0.64947 0.10329,1.29604 0.15505,1.94406c0.01441,0.17711 0.02245,0.35562 0.03831,0.53273c0.0276,0.3099 0.06862,0.61801 0.08717,0.92935c0.03004,0.5045 0.04565,1.01147 0.06862,1.51704c0.03295,0.73372 0.06763,1.46706 0.10032,2.20078c0.0115,0.25885 0.0188,0.51809 0.02882,0.77694c0.02393,0.60766 0.04737,1.2157 0.07301,1.82336c0.01511,0.36098 0.02879,0.72266 0.0554,1.0822c0.00538,0.07178 0.05639,0.16778 0.1023,0.19528c0.12646,0.07642 0.27391,0.09 0.39085,0.18673c0.27735,0.22888 0.55127,0.47236 0.80885,0.7462c0.29784,0.31671 0.57765,0.64806 0.75196,1.16862c0.22143,0.66122 0.36766,1.35637 0.52148,2.04794c0.08078,0.36418 0.09473,0.7619 0.12842,1.14643c0.02684,0.31207 0.04786,0.62699 0.05272,0.9408c0.00367,0.22317 -0.04003,0.44809 -0.03418,0.67054c0.00684,0.26596 0.05883,0.52945 0.06495,0.79546c0.01124,0.48023 0.00317,0.96187 0.00317,1.52632c0.17165,-0.44379 0.33398,-0.8333 0.47607,-1.23856c0.15284,-0.43558 0.28687,-0.8858 0.42847,-1.32993c0.11916,-0.37312 0.24291,-0.74301 0.354,-1.1211c0.07983,-0.27137 0.14184,-0.5541 0.21217,-0.83118c0.10253,-0.40416 0.2207,-0.80155 0.30492,-1.21396c0.11254,-0.55052 0.1936,-1.11463 0.2986,-1.66912c0.12937,-0.68515 0.29051,-1.35854 0.40014,-2.05012c0.17016,-1.07184 0.31689,-2.15221 0.4558,-3.23368c0.02661,-0.20708 0.03904,-0.41812 0.04809,-0.62984c0.01831,-0.05424 0.03295,-0.11282 0.03907,-0.18098c0.01756,-0.20138 0.02635,-0.38419 0.02149,-0.57628c0,-0.00498 0.00046,-0.01035 0.00046,-0.01499c0.05176,-0.42203 0.10035,-0.83939 0.09863,-1.28356zM241.97272,158.7582c0.02856,-0.71265 0.05444,-1.4253 0.08105,-2.13833c0.00218,-0.05927 -0.0005,-0.11925 -0.0005,-0.17885c0.0005,-0.20138 -0.0078,-0.40454 0.00367,-0.6048c0.01173,-0.20138 0.06347,-0.40025 0.06102,-0.59949c-0.00463,-0.35562 -0.03025,-0.71158 -0.05907,-1.06575c-0.03272,-0.40168 -0.05273,-0.81155 -0.12597,-1.19859c-0.07447,-0.39343 -0.22268,-0.7562 -0.31057,-1.14571c-0.12524,-0.55661 -0.32763,-0.99973 -0.70678,-1.23571c-0.02588,-0.01605 -0.05907,-0.03712 -0.07129,-0.0696c-0.08545,-0.23245 -0.19578,-0.22816 -0.33226,-0.09712c-0.04174,0.03964 -0.1062,0.0264 -0.14893,0.06463c-0.177,0.15778 -0.37549,0.28776 -0.51831,0.49769c-0.3274,0.48202 -0.47461,1.1243 -0.59447,1.7584c-0.07034,0.37099 -0.05421,0.77979 -0.06006,1.17253c-0.00905,0.57663 -0.05298,1.15287 0.04271,1.72843c0.05202,0.3142 0.06788,0.64406 0.08104,0.96865c0.01735,0.41949 0.01002,0.84152 0.02443,1.26138c0.0149,0.43379 0.04737,0.86655 0.06372,1.30034c0.01709,0.4463 0.02562,0.89367 0.03467,1.34066c0.0044,0.22671 -0.00073,0.45346 0.00245,0.68017c0.00146,0.11069 0.00879,0.22134 0.01805,0.33169c0.03689,0.45414 0.08937,0.90649 0.11086,1.36246c0.03831,0.81938 0.05907,1.64021 0.08545,2.4607c0.02367,0.73083 0.04492,1.46203 0.06641,2.1929c0.00536,0.1946 -0.01125,0.39526 0.01536,0.58306c0.02465,0.17566 0.0393,0.31313 -0.06273,0.36703c0.0625,0.48662 0.14061,0.94685 0.1775,1.41423c0.06005,0.7637 0.08812,1.53275 0.1406,2.29751c0.02443,0.35741 0.08155,0.70946 0.11232,1.06615c0.04638,0.54337 0.06934,1.09215 0.12669,1.63306c0.08399,0.79047 0.1897,1.57631 0.28615,2.36465l0.05176,0.00536c0.0205,-0.09963 0.04809,-0.19746 0.06006,-0.29883c0.01537,-0.13177 0.0078,-0.26958 0.02832,-0.39845c0.10326,-0.65198 0.24559,-1.29391 0.31077,-1.953c0.08888,-0.89759 0.12087,-1.80769 0.17676,-2.71278c0.01418,-0.23169 0.02222,-0.46448 0.04079,-0.69588c0.04492,-0.55981 0.09324,-1.11927 0.14233,-1.67806c0.05054,-0.57841 0.10693,-1.15538 0.15429,-1.73379c0.02955,-0.36129 0.05272,-0.7244 0.06812,-1.08751c0.00684,-0.15961 -0.02052,-0.32242 -0.01807,-0.48309c0.00489,-0.30347 0.02174,-0.60659 0.03004,-0.91006c0.00681,-0.23956 -0.00149,-0.48058 0.01415,-0.71836c0.03957,-0.60127 0.09206,-1.2011 0.13281,-1.80233c0.01219,-0.17852 -0.00926,-0.36239 0.00561,-0.53984c0.0625,-0.74266 0.13965,-1.48278 0.19825,-2.22612c0.03345,-0.42416 0.0437,-0.85263 0.06079,-1.27965zM235.70293,165.93535c-0.03002,-0.5234 -0.08495,-1.04541 -0.09863,-1.56988c-0.01904,-0.72729 -0.01855,-1.45709 -0.00708,-2.18545c0.0044,-0.27954 -0.04832,-0.4031 -0.24145,-0.47092c-0.69187,-0.24353 -1.37865,-0.5177 -2.06785,-0.77761c-0.03735,-0.01392 -0.08498,-0.02678 -0.11645,-0.00502c-0.16798,0.11499 -0.31886,0.02321 -0.47339,-0.06105c-0.14064,-0.07638 -0.2832,-0.14531 -0.44434,-0.22743c0,0.45844 -0.0071,0.87438 0.00169,1.28999c0.01051,0.49769 0.03467,0.99471 0.05152,1.49206c0.00145,0.0421 -0.00684,0.08459 -0.00902,0.12708c-0.00806,0.14356 -0.02248,0.2878 -0.02076,0.43098c0.00244,0.2167 0.0354,0.43591 0.02171,0.64943c-0.02516,0.39062 0.04442,0.58948 0.28931,0.6966c0.32128,0.14067 0.64722,0.26064 0.96533,0.41557c0.58375,0.28495 1.16993,0.55129 1.77685,0.70945c0.11572,0.02997 0.23144,0.05782 0.37403,0.09354c0,-0.23995 0.00902,-0.4245 -0.00146,-0.60732zM239.28056,166.38663c-0.04248,-0.96541 -0.09179,-1.93014 -0.14111,-2.89521c-0.01855,-0.36737 -0.0437,-0.73407 -0.06542,-1.09752c-0.11915,0.01426 -0.22314,0.04606 -0.32521,0.03606c-0.35449,-0.03572 -0.71068,-0.06212 -1.06177,-0.13747c-0.29051,-0.06212 -0.57225,-0.21278 -0.86253,-0.27847c-0.26439,-0.05964 -0.53517,-0.06284 -0.80346,-0.07391c-0.02711,-0.00145 -0.07986,0.1121 -0.08131,0.17421c-0.00684,0.28886 0.04786,0.56841 0.07814,0.84799c0.06663,0.6166 0.03491,1.2564 0.04125,1.88692c0.00073,0.08247 -0.02125,0.16638 -0.01636,0.24778c0.02003,0.34455 0.06128,0.68766 0.06641,1.03221c0.00538,0.34132 0.08081,0.54448 0.29834,0.61157c0.32178,0.09996 0.64381,0.20244 0.969,0.26852c0.32299,0.06531 0.65015,0.08924 0.97583,0.12641c0.22437,0.02567 0.44946,0.03713 0.67359,0.06709c0.12914,0.01716 0.23461,0.01895 0.23633,-0.23526c0.00145,-0.19388 0.02707,-0.38883 0.01828,-0.58093zM247.70291,164.92208c-0.01659,-0.29027 -0.04148,-0.57948 -0.05272,-0.86974c-0.01002,-0.26635 0.00096,-0.53486 -0.01124,-0.80082c-0.01414,-0.30849 -0.0664,-0.6166 -0.06055,-0.9233c0.00978,-0.53234 0.04737,-1.06325 -0.10303,-1.60739c-0.09741,0.06782 -0.17845,0.13602 -0.26512,0.18175c-0.57301,0.30134 -1.14599,0.60336 -1.72218,0.89184c-0.13648,0.06859 -0.28686,0.07642 -0.42675,0.13317c-0.04224,0.01716 -0.09963,0.10354 -0.10085,0.16067c-0.00512,0.24241 0.01197,0.48595 0.01296,0.72943c0.00122,0.20351 -0.00585,0.40705 -0.01464,0.61017c-0.00684,0.1614 -0.02224,0.32208 -0.03273,0.48309c-0.0039,0.05854 -0.01612,0.1221 -0.00635,0.176c0.1455,0.79584 0.17651,1.60956 0.17456,2.4275c-0.0005,0.16464 0.04931,0.22245 0.14893,0.19494c0.18285,-0.0507 0.36303,-0.11886 0.54638,-0.16459c0.14821,-0.03746 0.30419,-0.02605 0.44801,-0.08425c0.21068,-0.08532 0.41234,-0.21956 0.62034,-0.32203c0.20605,-0.10175 0.41797,-0.1789 0.62111,-0.29065c0.09351,-0.05139 0.23094,-0.14246 0.24486,-0.24527c0.02955,-0.21636 -0.00781,-0.45308 -0.02099,-0.68051zM244.63408,166.02424c-0.01488,-0.55091 -0.04199,-1.10109 -0.06225,-1.65166c-0.01758,-0.47342 -0.03979,-0.94719 -0.04495,-1.421c-0.00317,-0.28277 0.02297,-0.56518 0.03616,-0.85332c-0.05738,-0.0118 -0.07985,-0.02179 -0.10181,-0.01962c-0.51222,0.04819 -1.02442,0.09711 -1.53661,0.14744c-0.0281,0.00285 -0.06105,0.01072 -0.08204,0.03427c-0.17138,0.19282 -0.34815,0.14889 -0.54174,0.02359c-0.03371,0.13066 -0.0669,0.23923 -0.0901,0.35238c-0.04809,0.2342 -0.11132,0.46738 -0.13135,0.70728c-0.03465,0.4188 -0.03931,0.84297 -0.06128,1.26462c-0.01977,0.38206 -0.06958,0.76441 -0.06396,1.14503c0.00684,0.47985 0.05176,0.95937 0.09377,1.43671c0.00536,0.06071 0.09031,0.14781 0.14085,0.15139c0.13063,0.00928 0.26343,-0.0157 0.39455,-0.03785c0.61106,-0.10281 1.22166,-0.2153 1.83374,-0.31062c0.15723,-0.02499 0.17796,-0.18064 0.19214,-0.34562c0.01755,-0.20602 0.03051,-0.41595 0.0249,-0.62303zM250.40972,163.11047c-0.00955,-0.38559 -0.02221,-0.77156 -0.03467,-1.15788c-0.00929,-0.30309 -0.02076,-0.60622 -0.03027,-0.90973c-0.01173,-0.37167 -0.01782,-0.74407 -0.03564,-1.11501c-0.01272,-0.26209 -0.04812,-0.52201 -0.05909,-0.78405c-0.01051,-0.24671 -0.00219,-0.49488 -0.00219,-0.77301c-0.23316,0.14854 -0.36768,0.37882 -0.45094,0.65053c-0.09618,0.3142 -0.25855,0.49914 -0.45654,0.63912c-0.22486,0.15885 -0.45263,0.30845 -0.67944,0.4609c-0.02099,0.01392 -0.04832,0.03572 -0.0664,0.02678c-0.2124,-0.10818 -0.36742,0.0932 -0.53735,0.21066c-0.12841,0.0889 -0.17677,0.26957 -0.1067,0.44809c0.08644,0.221 0.13063,0.44524 0.12233,0.70478c-0.0115,0.35635 -0.00734,0.71482 0.00194,1.07184c0.00804,0.31062 0.03613,0.62018 0.04883,0.9308c0.02294,0.55627 0.03954,1.11289 0.06297,1.66912c0.00367,0.08642 0.03004,0.17068 0.05129,0.28674c0.38987,-0.30636 0.82617,-0.38917 1.14282,-0.83765c0.02879,-0.04032 0.06493,-0.07565 0.10227,-0.09672c0.41773,-0.23889 0.65578,-0.75586 0.90407,-1.25534c0.02122,-0.04249 0.02416,-0.11283 0.0227,-0.16996zM231.78376,160.2913c-0.39965,-0.14067 -0.74095,-0.45056 -1.07569,-0.78153c-0.12401,-0.12249 -0.24754,-0.24532 -0.41991,-0.41667c0.0586,1.77555 0.18408,3.46256 0.40136,5.14347c0.41724,0 0.72265,0.51735 1.16992,0.65444c0,-0.64053 0.00635,-1.24964 -0.00171,-1.85836c-0.00757,-0.55308 -0.03808,-1.10505 -0.04271,-1.65775c-0.00149,-0.17349 0.03904,-0.352 0.07567,-0.52123c0.05639,-0.26243 0.01709,-0.51915 -0.10693,-0.56236z" fill="#30419a" stroke-width="1"/><g stroke-width="1"><path d="M237.24066,117.09484l0.31109,-0.34683l0.9747,-0.25222l1.28923,0.1735l1.11623,0.65004l0.4613,0.78436l0.45042,0.94586l-0.11966,0.85127l-0.25756,0.5674l-0.78607,0.66217l-1.069,0.20483l-1.03782,-0.07888l-0.77019,-0.45703l-0.90037,-0.91439l-0.40461,-1.3083v-0.34683l0.17396,-0.78294l0.56835,-0.35201" fill="#ef463c"/><g><path d="M240.52349,118.0136l0.31833,0.96948l-0.08249,0.76847c0,0 -0.79001,0.39012 -0.82529,0.3665c-0.03542,-0.02362 -1.15559,0 -1.15559,0l-1.08473,-0.75663l-0.22404,-1.04035l0.27111,-0.61478l0.69571,-0.39013l1.32058,0.26009z" data-paper-data="{&quot;origPos&quot;:null}" fill="#ffffff"/><g data-paper-data="{&quot;origPos&quot;:null}" fill="#30419a"><path d="M239.71522,121.44492c-0.17962,0 -0.35974,0.00646 -0.53906,-0.00236c-0.12045,-0.00597 -0.23915,-0.03763 -0.3596,-0.05037c-0.09824,-0.01055 -0.20025,0.00252 -0.29549,-0.01811c-0.09037,-0.0195 -0.18028,-0.04707 -0.22168,-0.16232c-0.01716,-0.04724 -0.11902,-0.06217 -0.18058,-0.0954c-0.30702,-0.16578 -0.59686,-0.35721 -0.84717,-0.60218c-0.18876,-0.18484 -0.37595,-0.37235 -0.55086,-0.57009c-0.06912,-0.07807 -0.10785,-0.18529 -0.15193,-0.28306c-0.0688,-0.15287 -0.14042,-0.30573 -0.19254,-0.4646c-0.07053,-0.21554 -0.15287,-0.43373 -0.17523,-0.6562c-0.01827,-0.18247 0.00692,-0.37612 0.07053,-0.56032c0.08895,-0.25693 0.2075,-0.49561 0.36809,-0.71381c0.15869,-0.21568 0.32463,-0.42509 0.53938,-0.58881c0.09383,-0.07149 0.18452,-0.15082 0.28811,-0.20452c0.30259,-0.1565 0.61905,-0.26449 0.96492,-0.29109c0.22436,-0.01733 0.44744,-0.02834 0.66865,0.00079c0.26292,0.03463 0.50898,0.13539 0.76009,0.21977c0.23774,0.07982 0.4446,0.21017 0.64471,0.34651c0.18263,0.12437 0.33283,0.29662 0.4964,0.44885c0.06297,0.05889 0.13587,0.11242 0.18199,0.1831c0.08517,0.13083 0.15949,0.26969 0.22828,0.41013c0.11037,0.22559 0.20641,0.45829 0.31961,0.68216c0.12546,0.24845 0.16688,0.51592 0.1719,0.78577c0.00646,0.34023 -0.11271,0.64895 -0.27865,0.94557c-0.17493,0.31266 -0.42273,0.55873 -0.69069,0.78025c-0.21852,0.18073 -0.486,0.28717 -0.76528,0.35329c-0.1044,0.02456 -0.20609,0.06013 -0.31,0.08784c-0.04644,0.0126 -0.09493,0.01812 -0.14249,0.02662c-0.00047,-0.00268 -0.00094,-0.00505 -0.00141,-0.00742zM236.5218,118.40105c0.01132,0.0022 0.02265,0.0044 0.03384,0.00661c-0.01952,0.35076 0.08674,0.6702 0.22262,0.9879c0.16688,0.38966 0.47152,0.66503 0.75914,0.95139c0.23395,0.23255 0.51593,0.40745 0.80183,0.57639c0.1916,0.11319 0.3829,0.18058 0.60235,0.17758c0.24514,-0.0033 0.49026,-0.00346 0.73538,-0.00676c0.12077,-0.00158 0.25081,0.02014 0.36054,-0.01686c0.21805,-0.07352 0.45042,-0.14594 0.63021,-0.28133c0.2689,-0.20262 0.50017,-0.45625 0.74058,-0.69508c0.04423,-0.04393 0.05826,-0.11966 0.08187,-0.1823c0.01857,-0.04881 0.02236,-0.10455 0.04691,-0.14942c0.09447,-0.17239 0.13177,-0.35455 0.11508,-0.54977c-0.02283,-0.26526 -0.04974,-0.52915 -0.18341,-0.76813c-0.07053,-0.12595 -0.14956,-0.24906 -0.2023,-0.38241c-0.12375,-0.31236 -0.3385,-0.55325 -0.57889,-0.7749c-0.28969,-0.26718 -0.61527,-0.47751 -0.99484,-0.5926c-0.19586,-0.05936 -0.39453,-0.14296 -0.59417,-0.15004c-0.30039,-0.01072 -0.60329,0.03259 -0.90447,0.05888c-0.35801,0.03149 -0.65258,0.20797 -0.91565,0.43657c-0.12454,0.10832 -0.22954,0.24072 -0.33392,0.37013c-0.10785,0.13352 -0.23333,0.26435 -0.2974,0.4188c-0.0729,0.17553 -0.08611,0.37579 -0.12531,0.56535z" data-paper-data="{&quot;origPos&quot;:null}"/><path d="M239.89408,120.37749c-0.17555,0.02425 -0.35061,0.06077 -0.52695,0.06849c-0.12374,0.00537 -0.25804,-0.00597 -0.3725,-0.04975c-0.25348,-0.09713 -0.49971,-0.21505 -0.74483,-0.33266c-0.25883,-0.12421 -0.47688,-0.31471 -0.61463,-0.55763c-0.12783,-0.22559 -0.24906,-0.46332 -0.29063,-0.73366c-0.03762,-0.24418 -0.05337,-0.46963 0.05825,-0.70499c0.0784,-0.16532 0.11414,-0.35502 0.26953,-0.46823c0.13949,-0.10187 0.29521,-0.18136 0.44396,-0.27063c0.0063,-0.00378 0.01497,-0.00362 0.02127,-0.0074c0.17742,-0.10769 0.37139,-0.09304 0.5677,-0.08707c0.21758,0.00646 0.43581,-0.0085 0.65384,-0.00834c0.037,0 0.07338,0.03087 0.11083,0.04534c0.21302,0.08266 0.42541,0.16672 0.63951,0.24608c0.13761,0.05085 0.23742,0.14342 0.3418,0.24529c0.18183,0.17727 0.31519,0.38618 0.40193,0.61336c0.08675,0.2264 0.19727,0.45594 0.17303,0.71272c-0.01575,0.16924 -0.01072,0.34416 -0.05433,0.50585c-0.0565,0.2094 -0.22466,0.35392 -0.38949,0.48097c-0.13966,0.10769 -0.30339,0.18514 -0.46004,0.2692c-0.06754,0.03621 -0.14437,0.05495 -0.21695,0.08155c-0.00377,-0.01637 -0.00756,-0.03242 -0.01133,-0.04849zM240.67384,119.28914c-0.01292,-0.41515 -0.12201,-0.71429 -0.28449,-0.99688c-0.03981,-0.06945 -0.06627,-0.15383 -0.12265,-0.20467c-0.09225,-0.0833 -0.19978,-0.1521 -0.30825,-0.21395c-0.36353,-0.20782 -0.77838,-0.2464 -1.17321,-0.35218c-0.26418,-0.07085 -0.49909,0.01526 -0.7291,0.11209c-0.09068,0.03826 -0.16863,0.12972 -0.22767,0.21426c-0.07603,0.10879 -0.1275,0.23506 -0.18891,0.35408c-0.02017,0.0392 -0.0584,0.08076 -0.0551,0.11823c0.01274,0.14232 0.04139,0.28308 0.05966,0.42493c0.03008,0.23472 0.17666,0.41327 0.29867,0.59904c0.085,0.12957 0.19853,0.25395 0.32731,0.33801c0.22796,0.14894 0.45074,0.32102 0.74263,0.33961c0.15176,0.00976 0.30448,0.05951 0.4534,0.0477c0.22247,-0.0178 0.45452,-0.02505 0.64834,-0.16799c0.09871,-0.0729 0.20341,-0.13729 0.29913,-0.21366c0.15445,-0.12295 0.26117,-0.27502 0.26023,-0.39863z" data-paper-data="{&quot;origPos&quot;:null}"/></g></g></g><g stroke-width="1"><path d="M237.38259,109.5734l0.3111,-0.34684l0.9747,-0.25221l1.28923,0.1735l1.11624,0.65004l0.46129,0.78437l0.45042,0.94586l-0.11966,0.85127l-0.25756,0.5674l-0.78607,0.66217l-1.069,0.20484l-1.03782,-0.07888l-0.77019,-0.45704l-0.90037,-0.91438l-0.40461,-1.3083v-0.34683l0.17395,-0.78294l0.56835,-0.35201" fill="#ef463c"/><g><path d="M240.66542,110.49216l0.31833,0.96949l-0.08249,0.76846c0,0 -0.79001,0.39013 -0.82529,0.36651c-0.03542,-0.02362 -1.15558,0 -1.15558,0l-1.08473,-0.75664l-0.22404,-1.04035l0.2711,-0.61478l0.69572,-0.39012l1.32058,0.26008z" data-paper-data="{&quot;origPos&quot;:null}" fill="#ffffff"/><g data-paper-data="{&quot;origPos&quot;:null}" fill="#30419a"><path d="M239.85713,113.92348c-0.17962,0 -0.35974,0.00646 -0.53905,-0.00236c-0.12045,-0.00597 -0.23915,-0.03762 -0.3596,-0.05036c-0.09824,-0.01055 -0.20025,0.00251 -0.29549,-0.01812c-0.09037,-0.0195 -0.18028,-0.04706 -0.22168,-0.16231c-0.01716,-0.04724 -0.11902,-0.06217 -0.18058,-0.0954c-0.30702,-0.16578 -0.59686,-0.35722 -0.84718,-0.60219c-0.18876,-0.18484 -0.37595,-0.37234 -0.55086,-0.57008c-0.06913,-0.07807 -0.10785,-0.1853 -0.15193,-0.28307c-0.0688,-0.15287 -0.14042,-0.30574 -0.19254,-0.4646c-0.07053,-0.21554 -0.15287,-0.43373 -0.17523,-0.6562c-0.01826,-0.18247 0.00693,-0.37612 0.07053,-0.56032c0.08895,-0.25693 0.2075,-0.49561 0.36808,-0.71381c0.15869,-0.21568 0.32463,-0.42508 0.53937,-0.5888c0.09383,-0.07149 0.18453,-0.15082 0.28812,-0.20452c0.30259,-0.1565 0.61904,-0.2645 0.96492,-0.2911c0.22435,-0.01733 0.44744,-0.02835 0.66864,0.00079c0.26292,0.03463 0.50898,0.1354 0.76009,0.21978c0.23774,0.07982 0.4446,0.21017 0.64471,0.34652c0.18262,0.12437 0.33283,0.29661 0.4964,0.44884c0.06296,0.05889 0.13586,0.11242 0.18199,0.1831c0.08517,0.13083 0.15949,0.2697 0.22828,0.41014c0.11037,0.22559 0.20641,0.45829 0.31961,0.68216c0.12546,0.24845 0.16688,0.51592 0.17191,0.78577c0.00646,0.34023 -0.11272,0.64895 -0.27865,0.94557c-0.17493,0.31266 -0.42273,0.55872 -0.69068,0.78025c-0.21852,0.18073 -0.486,0.28717 -0.76529,0.35329c-0.1044,0.02456 -0.20609,0.06014 -0.31,0.08785c-0.04645,0.0126 -0.09493,0.01811 -0.14249,0.02662c-0.00047,-0.00268 -0.00094,-0.00505 -0.00141,-0.00742zM236.66371,110.87962c0.01132,0.0022 0.02266,0.00439 0.03385,0.00661c-0.01952,0.35076 0.08674,0.6702 0.22262,0.9879c0.16688,0.38966 0.47152,0.66502 0.75914,0.95139c0.23395,0.23255 0.51593,0.40745 0.80183,0.5764c0.1916,0.11319 0.3829,0.18058 0.60235,0.17758c0.24514,-0.0033 0.49026,-0.00346 0.73538,-0.00676c0.12077,-0.00158 0.25081,0.02014 0.36054,-0.01686c0.21805,-0.07352 0.45043,-0.14594 0.63022,-0.28133c0.26891,-0.20262 0.50017,-0.45625 0.74058,-0.69508c0.04423,-0.04393 0.05825,-0.11966 0.08187,-0.1823c0.01856,-0.04881 0.02236,-0.10454 0.04692,-0.14941c0.09447,-0.17239 0.13177,-0.35456 0.11508,-0.54978c-0.02283,-0.26526 -0.04975,-0.52914 -0.18342,-0.76812c-0.07053,-0.12595 -0.14956,-0.24906 -0.20229,-0.38241c-0.12375,-0.31236 -0.33851,-0.55325 -0.57889,-0.7749c-0.28969,-0.26718 -0.61527,-0.47751 -0.99485,-0.5926c-0.19586,-0.05936 -0.39453,-0.14296 -0.59417,-0.15004c-0.30039,-0.01072 -0.60329,0.03259 -0.90447,0.05888c-0.358,0.03149 -0.65258,0.20797 -0.91564,0.43657c-0.12454,0.10832 -0.22954,0.24072 -0.33392,0.37013c-0.10785,0.13352 -0.23333,0.26435 -0.2974,0.41879c-0.07289,0.17553 -0.08612,0.3758 -0.12532,0.56535z" data-paper-data="{&quot;origPos&quot;:null}"/><path d="M240.03599,112.85606c-0.17555,0.02425 -0.35061,0.06077 -0.52694,0.06848c-0.12374,0.00537 -0.25804,-0.00597 -0.3725,-0.04975c-0.25347,-0.09713 -0.4997,-0.21505 -0.74482,-0.33266c-0.25883,-0.12421 -0.47688,-0.31472 -0.61463,-0.55764c-0.12782,-0.22559 -0.24906,-0.46332 -0.29063,-0.73365c-0.03762,-0.24418 -0.05337,-0.46963 0.05826,-0.70499c0.0784,-0.16532 0.11414,-0.35502 0.26952,-0.46822c0.13948,-0.10187 0.2952,-0.18137 0.44396,-0.27063c0.0063,-0.00378 0.01497,-0.00362 0.02127,-0.0074c0.17743,-0.10769 0.37139,-0.09304 0.5677,-0.08707c0.21758,0.00646 0.4358,-0.0085 0.65383,-0.00834c0.037,0 0.07339,0.03086 0.11084,0.04534c0.21302,0.08266 0.4254,0.16672 0.63951,0.24608c0.13761,0.05085 0.23742,0.14342 0.3418,0.24529c0.18183,0.17727 0.31518,0.38618 0.40193,0.61335c0.08675,0.2264 0.19727,0.45594 0.17303,0.71273c-0.01575,0.16924 -0.01072,0.34416 -0.05433,0.50584c-0.05651,0.2094 -0.22465,0.35392 -0.38949,0.48097c-0.13965,0.10769 -0.30339,0.18514 -0.46003,0.2692c-0.06754,0.03621 -0.14437,0.05495 -0.21695,0.08155c-0.00378,-0.01637 -0.00756,-0.03242 -0.01134,-0.04849zM240.81577,111.76771c-0.01291,-0.41515 -0.12201,-0.71429 -0.28449,-0.99688c-0.03982,-0.06945 -0.06627,-0.15383 -0.12264,-0.20467c-0.09225,-0.0833 -0.19979,-0.1521 -0.30826,-0.21395c-0.36352,-0.20782 -0.77837,-0.2464 -1.17321,-0.35219c-0.26417,-0.07085 -0.49908,0.01526 -0.72909,0.11209c-0.09068,0.03826 -0.16863,0.12972 -0.22767,0.21426c-0.07603,0.10879 -0.12751,0.23506 -0.18891,0.35408c-0.02016,0.0392 -0.05841,0.08076 -0.0551,0.11823c0.01274,0.14232 0.04139,0.28308 0.05966,0.42493c0.03008,0.23472 0.17666,0.41327 0.29866,0.59903c0.085,0.12957 0.19852,0.25395 0.32731,0.33801c0.22797,0.14894 0.45074,0.32102 0.74263,0.33961c0.15176,0.00976 0.30448,0.05951 0.45341,0.0477c0.22246,-0.0178 0.45452,-0.02504 0.64833,-0.16798c0.09871,-0.0729 0.20341,-0.13729 0.29913,-0.21366c0.15445,-0.12295 0.26117,-0.27502 0.26023,-0.39862z" data-paper-data="{&quot;origPos&quot;:null}"/></g></g></g></g><text transform="translate(215.68899,51.96997) scale(0.30296,0.30296)" font-size="40" xml:space="preserve" fill="#000000" fill-rule="nonzero" stroke="#000000" stroke-width="1" stroke-linecap="butt" stroke-linejoin="miter" stroke-miterlimit="10" stroke-dasharray="" stroke-dashoffset="0" font-family="Handwriting" font-weight="normal" text-anchor="start" style="mix-blend-mode: normal"></text><text transform="translate(203.20239,69.49147) scale(0.28998,0.28998)" font-size="40" xml:space="preserve" fill="#000000" fill-rule="nonzero" stroke="#000000" stroke-width="1" stroke-linecap="butt" stroke-linejoin="miter" stroke-miterlimit="10" stroke-dasharray="" stroke-dashoffset="0" font-family="Handwriting" font-weight="normal" text-anchor="start" style="mix-blend-mode: normal"></text><g stroke="none" stroke-width="1"><path d="M239.4439,112.64313l-0.33185,-0.00499l-0.27847,-0.0511l-0.17707,-0.0467l-0.32446,-0.17454l-0.37197,-0.30789l-0.22078,-0.38499l-0.06839,-0.3254l0.00567,-0.45184l0.13393,-0.30329l0.11096,-0.21423l0.22394,-0.22135l0.38058,-0.207l0.35398,-0.12524l0.28703,-0.05075l0.42471,0.00042l0.47082,0.10992l0.50964,0.22216l0.2928,0.2899l0.18562,0.34787l0.10955,0.31748l-0.00356,0.24862l-0.07405,0.34736l-0.14464,0.31284l-0.18592,0.22836l-0.23916,0.19543l-0.40266,0.18026l-0.36341,0.09653l-0.30284,-0.02783" fill="#ffffff"/><path d="M238.90833,110.85691c0,0 0.38074,-0.14502 0.38602,-0.15156c0.00523,-0.00649 0.35784,-0.02319 0.35784,-0.02319l0.69011,0.25747l0.15802,0.21789l0.09149,0.35204l-0.0992,0.51921l-0.29908,0.37695l-0.42995,0.19662l-0.58377,-0.01391l-0.48144,-0.26165l-0.19455,-0.45503l-0.02705,-0.41862l0.14292,-0.33285z" fill="#fbae5a"/><path d="M238.42217,111.15591c-0.01603,-0.00377 -0.27824,-0.05361 -0.27824,-0.05361l-0.20323,-0.18231l-0.09053,-0.21173l0.02407,-0.26195l0.24477,-0.26971l0.35732,-0.14483l0.18688,0.05457l0.2184,0.1954l0.09954,0.29199l-0.01389,0.20209l0.30839,-0.07688l0.24659,-0.02878l0.20422,0.01877l0.23817,0.03125l0.01733,-0.0358l-0.0598,-0.13875l0.01067,-0.14158l0.04004,-0.18101l0.13494,-0.1442l0.18783,-0.05758l0.21115,0.0451l0.27806,0.25929l0.15492,0.3509c0,0 -0.14057,0.30732 -0.15007,0.30878c-0.00945,0.00152 -0.19438,0.07799 -0.19438,0.07799l-0.10064,0.05155l-0.00937,0.10202c0,0 -0.20239,0.01177 -0.21378,0.00843c-0.01139,-0.00339 -0.35517,-0.13318 -0.35517,-0.13318l-0.22657,-0.25929l-0.13789,-0.13189l-0.0645,0.19514l-0.24609,0.17607c0,0 -0.31788,0.07834 -0.32966,0.0796c-0.01182,0.00126 -0.2251,-0.02069 -0.2251,-0.02069c0,0 -0.24835,0.02861 -0.26438,0.0248z" fill="#79c8a2"/><path d="M239.54904,109.23266c0,0 -0.08925,0.0035 -0.09642,0.00518c-0.00717,0.00163 -0.15375,-0.05859 -0.15375,-0.05859c0,0 -0.11507,-0.19995 -0.11206,-0.20664c0.00296,-0.00675 0.09961,-0.26905 0.09961,-0.26905c0,0 0.26637,-0.07138 0.27772,-0.068c0.01139,0.00339 0.24847,0.07193 0.24847,0.07193l0.09811,0.2311l-0.04827,0.19425l-0.13258,0.09303z" fill="#ef463c"/><path d="M239.84533,111.71271l0.0408,0.09085l-0.01087,0.11826l-0.09256,0.16682l-0.19909,0.02729l-0.25227,-0.10037l-0.10314,-0.17076l0.04278,-0.18488l0.14603,-0.09933l0.21466,0.01973l0.21366,0.13239" fill="#ffffff"/><path d="M239.55872,112.17085c-0.12485,0.00131 -0.23171,-0.06333 -0.32291,-0.16602c-0.07215,-0.08119 -0.08139,-0.19404 -0.04209,-0.29527c0.11079,-0.28525 0.50264,-0.24245 0.65368,-0.05357c0.09685,0.12109 0.10922,0.24574 0.04359,0.36749c-0.06312,0.11697 -0.1502,0.19158 -0.33228,0.14737zM239.55634,111.63093c-0.03625,-0.00333 -0.06596,-0.00803 -0.09569,-0.00837c-0.08088,-0.00107 -0.13864,0.04539 -0.15969,0.11451c-0.01947,0.06416 -0.03714,0.13269 0.02667,0.20076c0.08044,0.08574 0.17806,0.10581 0.28336,0.12723c0.08326,0.01692 0.13523,-0.02661 0.1711,-0.08182c0.02647,-0.04049 0.04363,-0.10551 0.03058,-0.14944c-0.03697,-0.12485 -0.11548,-0.21328 -0.25633,-0.20287z" fill="#30419a"/><path d="M239.86912,111.25879c0.06629,0.00487 0.11406,0.07648 0.09842,0.13963c-0.00633,0.02558 -0.04801,0.0569 -0.0761,0.05961c-0.05468,0.00518 -0.08284,-0.05399 -0.07081,-0.1523c0.00258,-0.02092 0.03843,-0.03775 0.0485,-0.04694z" fill="#30419a"/><path d="M239.39029,111.3721c-0.01507,0.00812 -0.04056,0.03241 -0.06749,0.03414c-0.04336,0.0028 -0.09924,-0.0783 -0.08254,-0.1245c0.00867,-0.02405 0.04649,-0.04904 0.0736,-0.05225c0.03686,-0.00433 0.08638,0.08025 0.07643,0.14261z" fill="#30419a"/><g><path d="M238.59475,109.99198c-0.00223,-0.00634 -0.00446,-0.01267 -0.00667,-0.01906c0.08536,-0.03344 0.16878,-0.07384 0.2566,-0.09848c0.09215,-0.02589 0.188,-0.04109 0.28325,-0.05284c0.08673,-0.01075 0.17472,-0.01174 0.26224,-0.0147c0.03437,-0.00119 0.07045,-0.00317 0.09387,0.03376c0.00523,0.00825 0.03049,0.01404 0.03823,0.00876c0.0388,-0.02648 0.07684,-0.01161 0.11559,-0.00393c0.15091,0.02992 0.30217,0.0581 0.45253,0.09036c0.04034,0.00867 0.07807,0.02955 0.12063,0.05227c-0.15107,0.03653 -0.25825,0.12824 -0.29935,0.26984c-0.03774,0.13006 -0.06251,0.26965 0.03646,0.40694c-0.32065,-0.05456 -0.61612,-0.04291 -0.91768,0.04779c0.02648,-0.34055 -0.1315,-0.5757 -0.4357,-0.72071z" fill="none"/><path d="M239.27384,110.99417c-0.1022,0.03442 -0.20272,0.0739 -0.3051,0.10779c-0.06618,0.02186 -0.13412,0.01861 -0.22169,-0.00282c0.07751,-0.07638 0.13747,-0.15282 0.21379,-0.20562c0.07587,-0.05252 0.16504,-0.09272 0.25416,-0.11729c0.08999,-0.02478 0.18706,-0.02372 0.281,-0.03394c0.00302,0.00842 0.00604,0.0168 0.00906,0.02517c-0.0633,0.08887 -0.1154,0.18775 -0.23122,0.22672z" fill="none"/><path d="M237.96622,110.86534c-0.05698,-0.10371 -0.09494,-0.21213 -0.07945,-0.33179c0.00422,-0.0327 0.01957,-0.06785 0.04007,-0.09372c0.04361,-0.05487 0.09183,-0.10651 0.1419,-0.15569c0.12842,-0.12622 0.2835,-0.18802 0.45953,-0.18692c0.1882,0.03162 0.29074,0.158 0.37021,0.30876c0.05688,0.10787 0.05431,0.22951 0.03297,0.34147c-0.01438,0.07553 -0.08197,0.13817 -0.15073,0.18563c-0.02309,0.01595 -0.04846,0.02976 -0.06791,0.04936c-0.1414,0.14263 -0.31087,0.14306 -0.48995,0.09983c-0.12212,-0.02948 -0.19861,-0.1113 -0.25663,-0.21693z" fill="none"/><path d="M238.84884,112.48767c0.04322,0.02527 0.08676,0.05 0.12679,0.08761c-0.01462,0.00067 -0.02995,0.00455 -0.04371,0.00151c-0.16217,-0.03568 -0.31816,-0.08826 -0.46059,-0.1753c-0.0897,-0.05481 -0.18576,-0.10244 -0.26596,-0.16893c-0.24312,-0.20151 -0.4386,-0.4396 -0.48123,-0.76506c-0.02039,-0.15549 -0.02513,-0.31529 -0.01483,-0.47166c0.0062,-0.09346 0.05525,-0.18406 0.089,-0.28809c0.07187,0.15404 0.12843,0.29951 0.2687,0.39122c0.13815,0.09034 0.28764,0.11171 0.4492,0.096c-0.02717,0.08475 -0.05888,0.16093 -0.07529,0.24021c-0.02311,0.11142 -0.03174,0.22413 -0.00552,0.33864c0.03219,0.14066 0.06941,0.27911 0.1319,0.40944c0.06229,0.12999 0.15697,0.23132 0.28154,0.30441z" fill="none"/><path d="M240.2832,110.08836c0.11277,-0.02413 0.21193,0.01227 0.29237,0.09188c0.07714,0.07636 0.15272,0.15487 0.22261,0.23772c0.06217,0.07368 0.08375,0.16379 0.07478,0.2965c-0.01276,0.03693 -0.02564,0.11353 -0.06343,0.17483c-0.0681,0.11052 -0.18522,0.13561 -0.30702,0.13682c-0.0141,0.00011 -0.03273,-0.01363 -0.04182,-0.02626c-0.08899,-0.12364 -0.19921,-0.21835 -0.34413,-0.27271c-0.02986,-0.01122 -0.05396,-0.04339 -0.07547,-0.07008c-0.06841,-0.08478 -0.07096,-0.18232 -0.0545,-0.28504c0.02736,-0.17085 0.14114,-0.25035 0.2966,-0.28366z" fill="none"/><path d="M240.07776,111.12852c-0.19141,-0.06191 -0.28797,-0.21766 -0.3902,-0.38563c0.08572,-0.00125 0.15807,0.0075 0.2303,0.03132c0.21082,0.0696 0.41139,0.15149 0.51407,0.38026c-0.12258,0.01986 -0.23876,0.01134 -0.35417,-0.02595z" fill="none"/><path d="M239.48721,109.19548c-0.03564,0.00632 -0.07871,0.00344 -0.11119,-0.01139c-0.10597,-0.04835 -0.15869,-0.14587 -0.131,-0.27709c0.00754,-0.03572 0.01336,-0.07357 0.03002,-0.10517c0.02915,-0.05545 0.07212,-0.09976 0.13751,-0.11359c0.08214,-0.01735 0.1599,-0.04348 0.24965,-0.01679c0.11791,0.03503 0.20493,0.19641 0.18929,0.30187c-0.01649,0.13614 -0.10953,0.19306 -0.22325,0.21383c-0.00338,0.00063 -0.00861,0.00207 -0.01024,0.00041c-0.04756,-0.04785 -0.08684,0.00017 -0.1308,0.00792z" fill="none"/><path d="M239.95779,112.48437c-0.07138,0.02807 -0.15316,0.05871 -0.22771,0.07498c-0.03926,0.00861 -0.08306,0.00795 -0.12335,0.01553c-0.08006,0.01506 -0.14474,-0.00179 -0.22409,-0.00875c-0.08153,-0.00721 -0.1626,-0.02136 -0.24137,-0.0438c-0.15699,-0.04476 -0.30569,-0.12367 -0.41902,-0.24262c-0.09198,-0.09663 -0.14806,-0.21978 -0.17678,-0.3524c-0.01143,-0.05286 -0.02645,-0.10535 -0.03296,-0.15884c-0.02006,-0.16524 0.00763,-0.33208 0.08882,-0.47809c0.02866,-0.05161 0.05189,-0.09459 0.1159,-0.09283c0.08403,0.00239 0.16059,0.00296 0.24476,-0.00779c0.0889,-0.01139 0.17591,-0.0348 0.26078,-0.06398c0.00428,0.0237 0.03207,0.04269 0.04537,0.06141c0.02726,0.0385 0.0532,0.07762 0.08758,0.11041c0.01911,0.01818 0.07074,0.03851 0.08691,0.00466c0.01172,-0.02457 -0.00509,-0.06276 -0.01519,-0.0863c-0.01414,-0.03303 -0.04585,-0.06239 -0.06929,-0.08898c-0.00962,-0.0109 -0.0262,-0.0245 -0.04469,-0.03472c0.00461,-0.00182 0.00927,-0.00355 0.01383,-0.00537c0.02055,-0.00822 0.04193,-0.01829 0.05811,-0.03285c0.05831,-0.05235 0.11691,-0.10477 0.17045,-0.16182c0.02232,-0.02388 0.03214,-0.05948 0.05272,-0.09958c0.02844,0.03683 0.05864,0.07185 0.08436,0.10983c0.03898,0.05769 0.08224,0.11095 0.13037,0.1582c-0.04202,0.01617 -0.07874,0.05876 -0.10672,0.08914c-0.02547,0.02757 -0.05085,0.05528 -0.07607,0.08311c-0.0251,0.02769 -0.03833,0.06013 -0.00312,0.08794c0.03439,0.02717 0.0627,0.00632 0.08763,-0.02055c0.03502,-0.03783 0.06701,-0.07771 0.1067,-0.1109c0.0225,-0.01876 0.05233,-0.03928 0.06051,-0.06867c0.05718,0.04443 0.12029,0.08098 0.1912,0.10589c0.11286,0.03958 0.23296,0.08178 0.35927,0.04027c0.011,-0.00362 0.03748,0.0129 0.04388,0.02622c0.06807,0.14147 0.05251,0.29089 0.03453,0.43911c-0.01617,0.13312 -0.05739,0.26029 -0.13056,0.3725c-0.04136,0.06351 -0.0989,0.11672 -0.1511,0.17282c-0.08061,0.08672 -0.17159,0.1635 -0.28167,0.20683z" fill="none"/><path d="M241.10138,111.33778c-0.0043,0.04477 -0.0054,0.09082 -0.01233,0.13521c-0.02756,0.17663 -0.11553,0.34041 -0.2106,0.48768c-0.02811,0.04356 -0.06015,0.08925 -0.09249,0.12995c-0.06149,0.07733 -0.14494,0.12405 -0.21697,0.19026c-0.05384,0.04953 -0.12893,0.09809 -0.19465,0.12983c-0.08076,0.03896 -0.16467,0.07145 -0.24712,0.10684c-0.00237,-0.00429 -0.00464,-0.00857 -0.00696,-0.01286c0.03476,-0.02634 0.07313,-0.04912 0.10356,-0.07974c0.11504,-0.11557 0.24609,-0.21173 0.31105,-0.36555c0.06511,-0.15437 0.07932,-0.32427 0.08788,-0.48978c0.0072,-0.13998 -0.02667,-0.27111 -0.07725,-0.39904c-0.01569,-0.03959 -0.00077,-0.0523 0.03527,-0.05381c0.12024,-0.00505 0.23304,-0.06059 0.30471,-0.15804c0.037,-0.05024 0.06041,-0.10786 0.0743,-0.16836c0.01099,-0.04776 0.01934,-0.05612 0.04375,-0.00698c0.02002,0.04036 0.03701,0.08217 0.05018,0.12523c0.04527,0.14809 0.06252,0.27412 0.04766,0.42918z" fill="none"/><path d="M241.16027,111.58765c-0.01353,0.05815 -0.02873,0.11498 -0.05438,0.16846c-0.02876,0.0598 -0.05261,0.12173 -0.08491,0.17984c-0.08932,0.16066 -0.24638,0.30761 -0.38529,0.42519c-0.05207,0.04408 -0.10734,0.08477 -0.16712,0.11794c-0.01623,0.00899 -0.03221,0.01843 -0.04891,0.02654c-0.01631,0.00791 -0.03302,0.01091 -0.0499,0.01732c-0.05553,0.02115 -0.11129,0.04163 -0.16653,0.06314c-0.03038,0.01181 -0.05866,0.02765 -0.08823,0.04127c-0.05425,0.02497 -0.11193,0.04658 -0.16824,0.06546c-0.04095,0.01374 -0.0828,0.02497 -0.12514,0.03348c-0.04082,0.00823 -0.07916,0.01949 -0.12079,0.02133c-0.02138,0.00089 -0.04274,0.00263 -0.0642,0.00342c-0.0292,0.00101 -0.05875,0.00466 -0.08783,0.00227c-0.02662,-0.00216 -0.05248,-0.00239 -0.07924,-0.00251c-0.05539,-0.00032 -0.11083,-0.00307 -0.16567,-0.01087c-0.09253,-0.01323 -0.18449,-0.03315 -0.27558,-0.05397c-0.03356,-0.00767 -0.06709,-0.01562 -0.10056,-0.02371c-0.03727,-0.009 -0.07353,-0.01935 -0.11014,-0.02838c-0.03794,-0.00938 -0.07332,-0.02569 -0.11087,-0.03626c-0.04143,-0.01162 -0.07996,-0.02981 -0.12079,-0.04293c-0.05842,-0.01875 -0.11654,-0.04483 -0.17165,-0.07161c-0.07396,-0.03601 -0.1435,-0.08101 -0.20545,-0.13519c-0.06572,-0.05748 -0.14348,-0.10211 -0.20467,-0.16357c-0.06775,-0.06801 -0.12831,-0.14495 -0.18177,-0.22484c-0.15539,-0.2322 -0.2103,-0.48934 -0.21194,-0.7669c-0.0005,-0.08111 0.00629,-0.16777 0.01331,-0.24871c0.00849,-0.09854 0.04804,-0.19521 0.08876,-0.28385c0.04804,-0.10459 0.11403,-0.19878 0.17177,-0.29799c0.03824,-0.06576 0.10315,-0.11764 0.16156,-0.16951c0.06528,-0.05794 0.13258,-0.11592 0.20687,-0.16081c0.1012,-0.06123 0.20942,-0.11078 0.3154,-0.1638c0.02919,-0.01459 0.0611,-0.02359 0.09155,-0.03568c0.01783,-0.00711 0.03459,-0.01835 0.053,-0.02256c0.11949,-0.02745 0.23865,-0.05698 0.35925,-0.07871c0.086,-0.01554 0.17396,-0.02071 0.26119,-0.02879c0.02209,-0.00204 0.04545,-0.00003 0.0672,0.00477c0.04523,0.01001 0.06114,-0.00875 0.06013,-0.05181c-0.00197,-0.0819 -0.00165,-0.16388 -0.00381,-0.24579c-0.00254,-0.09717 -0.00237,-0.10356 -0.09459,-0.12833c-0.12593,-0.03381 -0.18493,-0.1283 -0.2117,-0.23878c-0.02751,-0.11317 -0.01098,-0.22633 0.04991,-0.33381c0.04223,-0.07447 0.10872,-0.09976 0.17902,-0.116c0.08422,-0.0195 0.17223,-0.03453 0.2581,-0.03235c0.15904,0.00413 0.31211,0.21421 0.313,0.34352c0.00081,0.11545 -0.01106,0.22884 -0.1056,0.29902c-0.06435,0.04777 -0.1523,0.06721 -0.23251,0.08895c-0.03802,0.01031 -0.05737,0.0141 -0.05597,0.06001c0.00349,0.11017 0.00163,0.22064 -0.00116,0.33089c-0.00089,0.03511 0.01679,0.04694 0.04507,0.05141c0.03479,0.00549 0.07039,0.00666 0.1048,0.0137c0.12717,0.02596 0.25626,0.04574 0.38022,0.08269c0.19088,0.05695 0.37514,0.141 0.53742,0.25711c0.23671,0.16933 0.40016,0.41378 0.50008,0.68367c0.02092,0.05654 0.0359,0.11554 0.04904,0.17432c0.01106,0.04923 0.02237,0.0988 0.03375,0.14763c0.0108,0.04649 0.00195,0.09089 0.0017,0.13893c-0.00058,0.12552 -0.01877,0.23436 -0.04697,0.35575zM240.28315,110.08836c-0.15546,0.03331 -0.26924,0.11282 -0.2966,0.28366c-0.01641,0.10273 -0.01391,0.20026 0.0545,0.28504c0.02156,0.02669 0.04561,0.05886 0.07551,0.07008c0.14487,0.05441 0.25514,0.14907 0.34408,0.27271c0.00909,0.01268 0.02777,0.02638 0.04182,0.02626c0.12185,-0.00121 0.23896,-0.02625 0.30702,-0.13682c0.03779,-0.0613 0.05068,-0.13791 0.06348,-0.17483c0.00896,-0.13271 -0.01261,-0.22282 -0.07478,-0.2965c-0.06994,-0.08286 -0.14552,-0.16137 -0.22261,-0.23773c-0.08048,-0.07966 -0.17964,-0.11606 -0.29241,-0.09188zM240.07781,111.12848c0.11536,0.03733 0.23154,0.0458 0.35412,0.02595c-0.10268,-0.22876 -0.30325,-0.31061 -0.51407,-0.38021c-0.07227,-0.02387 -0.14458,-0.03262 -0.2303,-0.03137c0.10223,0.16801 0.19879,0.32376 0.39024,0.38563zM239.61805,109.18756c0.00163,0.00165 0.00681,0.00021 0.01024,-0.00041c0.11372,-0.02077 0.20672,-0.0777 0.22325,-0.21384c0.01559,-0.10547 -0.07142,-0.26684 -0.18929,-0.30187c-0.08975,-0.02669 -0.16751,-0.00056 -0.24965,0.0168c-0.06539,0.01384 -0.1084,0.05814 -0.13756,0.11359c-0.01666,0.03156 -0.02248,0.06945 -0.02998,0.10517c-0.02769,0.13122 0.02498,0.22878 0.131,0.27709c0.03248,0.01483 0.07555,0.01771 0.11119,0.01139c0.04391,-0.00776 0.08319,-0.05578 0.1308,-0.00792zM238.58811,109.97302c0.00223,0.00629 0.00441,0.01267 0.00663,0.019c0.3042,0.14497 0.46222,0.38012 0.43574,0.72067c0.30157,-0.0907 0.59703,-0.10235 0.91763,-0.04775c-0.09896,-0.13734 -0.07415,-0.27688 -0.03641,-0.40698c0.04104,-0.14155 0.14823,-0.23332 0.2993,-0.26984c-0.04257,-0.02268 -0.08024,-0.04355 -0.12059,-0.05222c-0.15036,-0.03231 -0.30162,-0.06048 -0.45253,-0.09041c-0.0388,-0.00768 -0.0768,-0.0225 -0.11565,0.00398c-0.00769,0.00529 -0.03294,-0.00055 -0.03818,-0.00875c-0.02343,-0.03693 -0.05951,-0.03496 -0.09387,-0.03381c-0.08752,0.003 -0.17556,0.00399 -0.26224,0.0147c-0.09525,0.01179 -0.19114,0.02695 -0.28325,0.05288c-0.08782,0.02465 -0.17124,0.065 -0.2566,0.09853zM239.50506,110.76745c-0.00298,-0.00837 -0.006,-0.01674 -0.00906,-0.02517c-0.09398,0.01022 -0.19105,0.00917 -0.281,0.03394c-0.08913,0.02457 -0.17829,0.06477 -0.25416,0.11729c-0.07633,0.05285 -0.13624,0.12925 -0.21379,0.20562c0.08757,0.02143 0.1555,0.02473 0.22169,0.00282c0.10239,-0.03389 0.2029,-0.07337 0.3051,-0.10779c0.11582,-0.03897 0.16792,-0.13785 0.23122,-0.22672zM237.88677,110.53354c-0.01549,0.11966 0.02252,0.22809 0.07945,0.3318c0.05797,0.10563 0.13451,0.18746 0.25663,0.21693c0.17908,0.04323 0.34855,0.0428 0.48995,-0.09983c0.01945,-0.0196 0.04482,-0.03342 0.06791,-0.04936c0.06876,-0.04741 0.13635,-0.1101 0.15073,-0.18563c0.02133,-0.11196 0.0239,-0.23356 -0.03298,-0.34147c-0.07947,-0.15076 -0.18201,-0.27715 -0.37021,-0.30876c-0.17602,-0.00115 -0.3311,0.0607 -0.45953,0.18692c-0.05006,0.04918 -0.09829,0.10082 -0.1419,0.15569c-0.02049,0.02587 -0.03584,0.06101 -0.04006,0.09372zM238.97564,112.57519c-0.04003,-0.03757 -0.08358,-0.0623 -0.12679,-0.08761c-0.12457,-0.07304 -0.21926,-0.17437 -0.28155,-0.30431c-0.06249,-0.13034 -0.0997,-0.26883 -0.1319,-0.40945c-0.02622,-0.11451 -0.01759,-0.22721 0.00552,-0.33868c0.01641,-0.07928 0.04813,-0.15546 0.07529,-0.24021c-0.16161,0.01571 -0.31106,-0.00565 -0.4492,-0.096c-0.14027,-0.09171 -0.19683,-0.23713 -0.2687,-0.39122c-0.03376,0.10408 -0.08281,0.19468 -0.08901,0.28809c-0.0103,0.15641 -0.00556,0.31621 0.01483,0.4717c0.04264,0.32546 0.23812,0.5635 0.48124,0.76501c0.0802,0.06648 0.17626,0.11411 0.26595,0.16893c0.14243,0.08704 0.29842,0.13962 0.46059,0.1753c0.01376,0.00304 0.0291,-0.00084 0.04372,-0.00155zM240.23947,112.2775c0.05215,-0.0561 0.10974,-0.10931 0.1511,-0.17277c0.07322,-0.11229 0.11439,-0.23942 0.13056,-0.3725c0.01798,-0.14826 0.03354,-0.29769 -0.03453,-0.43911c-0.0064,-0.01332 -0.03287,-0.02989 -0.04387,-0.02626c-0.1263,0.04156 -0.24642,-0.00065 -0.35927,-0.04027c-0.08547,-0.02999 -0.17244,-0.07931 -0.23443,-0.14577c-0.01606,-0.01725 -0.03492,-0.02895 -0.05108,-0.04616c-0.03863,-0.04104 -0.07348,-0.08553 -0.105,-0.13218c-0.02571,-0.03803 -0.05591,-0.07305 -0.08436,-0.10983c-0.02058,0.04005 -0.0304,0.07565 -0.05272,0.09953c-0.05355,0.0571 -0.11214,0.10951 -0.17045,0.16186c-0.02949,0.02649 -0.07046,0.03481 -0.10665,0.04824c-0.04953,0.01843 -0.0971,0.03802 -0.14822,0.05237c-0.0553,0.01551 -0.11156,0.02775 -0.16858,0.03505c-0.08411,0.0108 -0.16073,0.01018 -0.24471,0.00784c-0.064,-0.00181 -0.08723,0.04118 -0.11594,0.09278c-0.08115,0.14606 -0.10889,0.3129 -0.08878,0.47809c0.00646,0.05348 0.02148,0.10597 0.03291,0.15884c0.02867,0.13266 0.08485,0.25577 0.17683,0.3524c0.11329,0.11895 0.26199,0.19786 0.41902,0.24262c0.07872,0.02244 0.15979,0.03663 0.24132,0.0438c0.07934,0.00701 0.14403,0.02381 0.22408,0.0088c0.04029,-0.00758 0.0841,-0.00697 0.1234,-0.01552c0.07451,-0.01627 0.15628,-0.0469 0.22767,-0.07503c0.11013,-0.04328 0.20111,-0.12006 0.28172,-0.20682zM241.10137,111.33787c0.01481,-0.1551 -0.00239,-0.28114 -0.04766,-0.42922c-0.01317,-0.04305 -0.03016,-0.08487 -0.05018,-0.12518c-0.0244,-0.04919 -0.03276,-0.04083 -0.04375,0.00693c-0.01389,0.06051 -0.03734,0.11812 -0.0743,0.16836c-0.07167,0.09746 -0.18448,0.15299 -0.30471,0.15804c-0.03604,0.00151 -0.05097,0.01423 -0.03528,0.05381c0.05059,0.12793 0.0845,0.25906 0.07725,0.39904c-0.00857,0.16555 -0.02277,0.33541 -0.08789,0.48983c-0.06497,0.15382 -0.196,0.24994 -0.31105,0.36555c-0.03047,0.03062 -0.06884,0.05335 -0.10355,0.07969c0.00232,0.00429 0.00459,0.00857 0.00696,0.01286c0.08245,-0.03539 0.16635,-0.06788 0.24712,-0.10684c0.06573,-0.03173 0.14082,-0.0803 0.19465,-0.12983c0.07203,-0.06621 0.15547,-0.11293 0.21696,-0.19026c0.03229,-0.0407 0.06438,-0.08638 0.09249,-0.12995c0.09507,-0.14726 0.18304,-0.31104 0.2106,-0.48768c0.00689,-0.04439 0.00804,-0.09048 0.01233,-0.13516z" fill="#30419a"/></g></g></g></g></svg>