<svg version="1.1" xmlns="http://www.w3.org/2000/svg" xmlns:xlink="http://www.w3.org/1999/xlink" width="114.65528" height="178.45736" viewBox="0,0,114.65528,178.45736"><defs><linearGradient x1="249.27333" y1="29.06428" x2="249.27333" y2="247.96086" gradientUnits="userSpaceOnUse" id="color-1"><stop offset="0" stop-color="#000000"/><stop offset="1" stop-color="#000000" stop-opacity="0"/></linearGradient></defs><g transform="translate(-192.32004,-29.80335)"><g data-paper-data="{&quot;isPaintingLayer&quot;:true}" stroke-linecap="butt" stroke-linejoin="miter" stroke-miterlimit="10" stroke-dasharray="" stroke-dashoffset="0" style="mix-blend-mode: normal"><path d="M292.12482,177.64427c0.07429,2.30273 -6.68273,8.6545 -41.88034,8.6545c-35.19764,0 -45.02477,-5.42196 -45.03655,-9.12882c-0.01016,-3.20032 9.11056,-7.4687 44.30818,-7.4687c35.19762,0 42.54073,5.83664 42.60871,7.94301z" fill="url(#color-1)" fill-rule="nonzero" stroke="none" stroke-width="0"/><text transform="translate(223.04127,47.26349) scale(0.45351,0.45351)" font-size="40" xml:space="preserve" fill="#ffffff" fill-rule="nonzero" stroke="#ffffff" stroke-width="2" stroke-linecap="butt" stroke-linejoin="miter" stroke-miterlimit="10" stroke-dasharray="" stroke-dashoffset="0" font-family="Handwriting" font-weight="normal" text-anchor="start" style="mix-blend-mode: normal"></text><text transform="translate(225.62796,202.93019) scale(0.31356,0.31356)" font-size="40" xml:space="preserve" fill="#ffffff" fill-rule="nonzero" stroke="#ffffff" stroke-width="1" stroke-linecap="butt" stroke-linejoin="miter" stroke-miterlimit="10" stroke-dasharray="" stroke-dashoffset="0" font-family="Handwriting" font-weight="normal" text-anchor="start" style="mix-blend-mode: normal"></text><g stroke="none" stroke-width="1"><path d="M198.83333,129.07068c0,-27.56122 22.34278,-49.904 49.904,-49.904c27.56122,0 49.904,22.34278 49.904,49.904c0,27.56122 -22.34278,49.904 -49.904,49.904c-27.56122,0 -49.904,-22.34278 -49.904,-49.904z" fill="#0077b8" fill-rule="evenodd"/><path d="M199.54957,120.6267c-0.0818,0.4781 -0.15634,0.95983 -0.2236,1.44157c0.06726,-0.49082 0.14179,-0.97256 0.2236,-1.44157z" fill="#74b140" fill-rule="evenodd"/><path d="M199.94223,120.07043c-0.14934,0.16861 -0.28206,0.35124 -0.39629,0.54536c0.06544,-0.38054 0.13452,-0.75865 0.20724,-1.13435v-0.01091c0.07453,-0.37812 0.1527,-0.7526 0.2345,-1.12708c0.1188,0.04846 0.22923,0.11533 0.32722,0.19815c0.20178,0.1727 0.42356,0.48173 0.36357,0.76532c-0.0709,0.33812 -0.509,0.51809 -0.73623,0.7635z" fill="#74b140" fill-rule="evenodd"/><path d="M205.55579,105.06033c-0.25223,0.23551 -0.54718,0.42063 -0.86894,0.54536c0.183,-0.34539 0.37084,-0.68715 0.56354,-1.02528c1.34413,-2.36842 2.8799,-4.62283 4.59192,-6.74064c0.27632,-0.34297 0.55687,-0.68291 0.84167,-1.01982c0.35122,0.09778 0.6644,0.30002 0.89802,0.5799c0.3563,0.43447 0.29813,0.66534 0.06908,1.02891c0.21114,-0.02615 0.41818,-0.07867 0.61626,-0.15634c0.23847,-0.06157 0.48867,-0.06157 0.72715,0c0.47264,0.1327 0.84712,0.50355 1.13435,0.8853c0.46719,0.61989 0.76532,1.36158 1.10526,2.056l1.07981,2.20507c0.30904,0.62898 0.89621,1.99056 -0.01273,2.44684c-0.3377,0.14659 -0.72975,0.0842 -1.00528,-0.15997c-0.19451,-0.14725 -0.47446,-0.57626 -0.7526,-0.70351c0.09296,0.78089 0.31021,1.54188 0.64352,2.25415c0.054,0.10031 0.04404,0.223 -0.02545,0.31328c-0.06948,0.09028 -0.18552,0.13134 -0.29632,0.10483c-0.25519,-0.05575 -0.51871,-0.06192 -0.77623,-0.01818c0.13089,0.60171 0.11816,1.2216 -0.4272,1.62699c-0.07662,0.04355 -0.169,0.0495 -0.25058,0.01616c-0.08158,-0.03334 -0.14334,-0.10229 -0.16753,-0.18704c-0.57464,-1.72059 -1.87009,-3.10564 -3.54847,-3.79388c-0.11573,-0.04069 -0.19318,-0.15 -0.19318,-0.27268c0,-0.12268 0.07744,-0.23199 0.19318,-0.27268c0.64716,-0.17088 1.34704,-0.15634 1.97602,-0.39084c0.33007,-0.10315 0.61449,-0.31695 0.80531,-0.60535c0.15815,-0.29631 -0.00364,-0.59444 -0.09089,-0.89439c-0.3054,-1.04164 -0.75441,-2.48138 -2.07964,-2.51047c-1.28523,-0.03454 -1.01255,1.53973 -1.34522,2.36322c-0.2854,0.67988 -0.87985,1.19252 -1.63608,0.9362c-0.2745,-0.09271 -0.57626,-0.33085 -0.85621,-0.12543c-0.14933,0.14829 -0.26416,0.32767 -0.3363,0.52536c-0.16543,0.34903 -0.30177,0.70897 -0.57626,0.98892z" fill="#74b140" fill-rule="evenodd"/><path d="M223.69989,151.79216c0.43447,1.51246 -1.17979,2.30142 -1.6688,3.51211c-0.59808,1.47429 -0.01273,3.15763 -0.67806,4.63374c-0.26603,0.59736 -0.74871,1.07159 -1.35067,1.32704c-0.73623,0.32903 -1.48338,0.49082 -2.07782,1.07436c-1.08708,1.06709 -1.53246,2.71771 -2.2487,4.10655c-0.57626,-0.50355 -1.12162,-1.02346 -1.66698,-1.55246c-0.90166,-0.87439 -1.77424,-1.77605 -2.60682,-2.71589c-1.33949,-1.50835 -2.58641,-3.09643 -3.73389,-4.75553c-2.9914,-4.32192 -5.27765,-9.09137 -6.77336,-14.13026l0.02,0.01091c1.10163,-0.89802 1.78514,-2.73589 3.48666,-2.26506c0.08441,0.02525 0.15283,0.08741 0.18604,0.16902c0.03321,0.08161 0.02764,0.17388 -0.01516,0.2509c-0.04545,0.09816 -0.08908,0.19815 -0.13452,0.29813l2.90858,0.37266c0.8035,0.1018 1.86695,0.05272 2.43957,0.7126c0.24541,0.28359 0.37084,0.64898 0.60898,0.9362c0.30035,0.32987 0.68214,0.57498 1.10708,0.71078c0.69988,0.25995 1.4652,0.34721 2.15417,0.64898c0.58031,0.22942 1.08211,0.62139 1.4452,1.12889c0.15956,0.23868 0.25875,0.51255 0.28904,0.79804c0.04181,0.42538 -0.10725,0.66534 0.31813,0.95438c0.42538,0.28904 0.95438,0.48901 1.4143,0.72715c0.38357,0.19997 0.76532,0.41447 1.15616,0.59626c0.80531,0.38539 1.60154,0.24359 2.42503,0.48173c0.31095,0.09557 0.59206,0.26962 0.81622,0.50537c0.10267,0.11932 0.21256,0.23224 0.32903,0.33812c0.22723,0.17815 0.49991,0.17451 0.77259,0.22542c0.53445,0.09998 0.93438,0.36539 1.07799,0.89984z" fill="#74b140" fill-rule="evenodd"/><path d="M199.3008,130.29319c-0.1394,-0.07976 -0.30955,-0.0842 -0.45292,-0.01182c-0.01454,-0.40357 -0.01454,-0.80531 -0.01454,-1.2107c0,-0.3769 0.00727,-0.75441 0.02181,-1.13253c0,-0.11998 0,-0.24178 0,-0.36357c0.00909,-0.26177 0.01818,-0.52536 0.0309,-0.78714c0.00727,-0.16361 0.02363,-0.32722 0.02363,-0.48901c0.01454,-0.2854 0.03272,-0.55445 0.05272,-0.83076c0.01454,-0.22542 0.03454,-0.44901 0.05272,-0.67261l0.03999,-0.28722c0.07393,-0.81925 0.16785,-1.63366 0.28177,-2.44321c0.12361,0.14543 0.31631,0.19633 0.59444,0.0309c0.27813,-0.16543 0.39811,-0.48355 0.49264,-0.77441c0.18179,-0.55627 0.30177,-1.70516 1.00891,-1.88694c0.58172,-0.14725 0.85258,0.53809 0.88166,0.98892c0.00307,0.34206 -0.03848,0.68306 -0.12361,1.01437c0.79259,-0.64898 2.02146,-1.4652 0.7126,-2.20689c-0.41116,-0.21337 -0.73326,-0.56574 -0.90893,-0.99437c-0.23996,-0.51991 -0.53627,-0.81804 -1.11799,-0.90893c-0.2082,-0.03064 -0.41858,-0.04402 -0.62898,-0.03999c0.19633,-0.81077 0.41447,-1.61608 0.64898,-2.41231c0.02,-0.06544 0.03999,-0.13089 0.05817,-0.19451c0.0709,-0.23632 0.14361,-0.47264 0.21814,-0.70715c0.02727,-0.0818 0.05635,-0.17633 0.08544,-0.26359c0.11271,-0.34903 0.22905,-0.69806 0.34903,-1.04345l0.18179,-0.51082l0.1727,-0.47264c0.07817,-0.20542 0.15634,-0.41266 0.23632,-0.61807c0.04726,-0.1218 0.09271,-0.24359 0.13998,-0.36357c0.14361,0.10725 0.28359,0.21269 0.41447,0.31449c1.36703,1.08526 2.48866,2.80133 2.12508,4.58829c0.4072,0 0.73805,-0.33812 0.86167,-0.74169c0.15634,-0.51809 0.00182,-1.08526 -0.11816,-1.59608c-0.02296,-0.08597 -0.00504,-0.17772 0.04858,-0.24873c0.05361,-0.07101 0.13695,-0.11338 0.22592,-0.11484c0.66369,0.09815 1.31197,-0.25589 1.58813,-0.86733c0.27616,-0.61144 0.11319,-1.33189 -0.39924,-1.76494c-0.06212,-0.0626 -0.0918,-0.1504 -0.08043,-0.23784c0.01138,-0.08745 0.06253,-0.16473 0.1386,-0.20935c1.03076,-0.42224 1.75636,-1.36427 1.90149,-2.46866c0.003,-0.10087 0.05807,-0.19297 0.14551,-0.24336c0.08743,-0.05039 0.19473,-0.05185 0.28351,-0.00387c0.92711,0.39629 1.99601,0.91257 2.42139,1.89421c0.24178,0.55263 0.02909,1.37249 0.65807,1.66335c0.74532,0.34358 1.49792,-0.23996 2.056,-0.67988c0.08334,-0.07644 0.20342,-0.09764 0.3079,-0.05437c0.10448,0.04327 0.1744,0.14317 0.17929,0.25615c0.23973,2.19832 0.85459,4.33927 1.81786,6.3298c0.06268,0.11218 0.04323,0.25234 -0.04763,0.34321c-0.09087,0.09087 -0.23103,0.11032 -0.34321,0.04763c-0.51809,-0.27632 -1.18888,0.41811 -1.63608,0.62171c-0.51446,0.2345 -1.01619,0.19633 -1.54882,0.03999c-0.68352,-0.19997 -1.28523,-0.40902 -1.99965,-0.22723c-0.49819,0.12792 -0.94731,0.40056 -1.29068,0.7835l1.7397,0.03999c0.08903,0.00162 0.1724,0.04393 0.22627,0.11482c0.05388,0.07089 0.07231,0.16255 0.05004,0.24876c-0.17016,0.86384 0.13087,1.7531 0.79077,2.33596c0.06932,0.0729 0.09576,0.1766 0.06979,0.27378c-0.02597,0.09719 -0.1006,0.17388 -0.19704,0.2025c-0.47446,0.14906 -0.95074,0.33085 -1.43429,0.44719c-0.24685,0.08741 -0.52049,0.05304 -0.73805,-0.09271c-0.24359,-0.1836 -0.38721,-0.50173 -0.52173,-0.78532c-0.05055,0.08935 -0.11158,0.17234 -0.18179,0.24723c-0.30177,0.31813 -0.7126,0.36539 -1.11071,0.49991c-0.56172,0.18906 -1.20888,0.71987 -0.89621,1.38158c0.04886,0.08891 0.04786,0.19685 -0.00263,0.28484c-0.05049,0.08799 -0.14318,0.14332 -0.2446,0.14599c-1.11034,0.10724 -2.12814,0.66508 -2.81587,1.54337c-0.14906,0.1836 -0.40902,0.05454 -0.47628,-0.12725c-0.00098,-0.00602 -0.00098,-0.01216 0,-0.01818c0.01454,0.36903 0.14179,0.7526 0.11089,1.11617c-0.03813,0.35995 -0.186,0.69947 -0.42356,0.97256c-0.58535,0.71442 -1.49065,0.94892 -2.23415,1.44157c-1.75787,1.16162 -0.11453,3.46848 -1.16162,5.0064c-0.0455,0.07554 -0.123,0.12618 -0.21046,0.13751c-0.08746,0.01133 -0.1753,-0.01789 -0.23855,-0.07934c-0.40184,-0.47448 -0.6464,-1.06205 -0.69988,-1.68152c-0.02909,-0.3763 0.11998,-0.73987 0.09271,-1.10344c-0.01024,-0.16029 -0.10028,-0.30471 -0.23969,-0.38448z" fill="#74b140" fill-rule="evenodd"/><path d="M201.35289,136.34395c-0.49082,-0.13452 -0.98165,-0.17633 -1.37612,-0.529c-0.26177,-0.23269 -0.42174,-0.51809 -0.76896,-0.6308c-0.04545,-0.37448 -0.08726,-0.74896 -0.12543,-1.12708c0.19633,0.06544 0.38539,0.15088 0.54536,0.21996c0.34901,0.15133 0.68364,0.33386 0.99983,0.54536c0.27995,0.18906 0.53627,0.46174 0.83622,0.61444c0.39993,0.20178 0.87439,0.11089 1.30886,0.10725c0.43447,-0.00364 0.86712,0.01454 1.30159,0.04181c0.22542,0.01636 0.40538,0.31631 0.20178,0.48719c-0.41447,0.34903 -0.89257,0.7326 -1.45429,0.78168c-0.58172,0.04908 -0.93984,-0.35994 -1.46883,-0.51082z" fill="#74b140" fill-rule="evenodd"/><path d="M205.41764,136.8475c0.53445,0.01454 1.2216,0.29995 0.87985,0.95074c-0.05057,0.0884 -0.14541,0.1421 -0.24723,0.13998c-0.59262,-0.03818 -1.0689,0.13452 -1.63608,0.22723c-0.27097,0.05679 -0.5534,0.00734 -0.78895,-0.13816c-0.08388,-0.01205 -0.15934,-0.05743 -0.2093,-0.12587c-0.04996,-0.06844 -0.07019,-0.15415 -0.0561,-0.2377c0.0068,-0.11754 0.07622,-0.22237 0.18179,-0.2745c0.17088,-0.21451 0.3563,-0.47264 0.61262,-0.54536c0.37084,-0.10725 0.88348,-0.00727 1.26342,0.00364z" fill="#74b140" fill-rule="evenodd"/><path d="M211.24389,96.14553c0.35388,-0.41084 0.71745,-0.8144 1.09072,-1.2107c0.03966,0.05721 0.07375,0.11808 0.1018,0.18179c0.27268,0.60535 -0.15997,1.07072 -0.77259,1.07072c-0.14083,-0.00338 -0.2812,-0.01736 -0.41993,-0.04181z" fill="#74b140" fill-rule="evenodd"/><path d="M213.59853,94.53906c-0.10744,0.04401 -0.23078,0.01946 -0.31318,-0.06233c-0.09877,-0.0784 -0.20397,-0.14832 -0.31449,-0.20905c0.27389,-0.27995 0.55081,-0.55808 0.83076,-0.8344c0,0.04363 0,0.08726 0,0.13452c-0.00727,0.23632 -0.02363,0.47083 -0.02363,0.70715c-0.00135,0.11609 -0.07203,0.22011 -0.17946,0.26411z" fill="#74b140" fill-rule="evenodd"/><path d="M214.24337,93.00426c0.34176,-0.3254 0.68897,-0.64716 1.038,-0.96529c0.02181,-0.01818 0.04363,-0.03636 0.06363,-0.05635c0.32176,-0.28904 0.64716,-0.57263 0.97619,-0.8544l0.14543,-0.12361c0.31631,-0.26662 0.63625,-0.53263 0.95983,-0.79804l0.11089,-0.08908c0.3563,-0.28601 0.71624,-0.56717 1.07981,-0.84349c0.66716,0.15088 1.41975,0.12907 1.91421,0.70533c0.06923,0.07301 0.09581,0.17662 0.07028,0.27394c-0.02553,0.09732 -0.09956,0.17453 -0.19571,0.20416l-1.45429,0.40538c-0.38175,0.10544 -0.83622,0.16724 -1.17798,0.3763c-0.30904,0.18724 -0.41447,0.53809 -0.76532,0.67261c-0.29449,0.11453 -0.59262,0.05635 -0.89621,0.05635c-0.62716,0.01091 -0.40357,0.31631 -0.62716,0.70897c-0.11649,0.19833 -0.31748,0.33232 -0.54536,0.36357c-0.2345,0.04908 -0.47264,-0.03636 -0.69624,-0.03636z" fill="#74b140" fill-rule="evenodd"/><path d="M230.50234,105.30029c-0.34717,0.06471 -0.6809,0.18763 -0.9871,0.36357c-0.27086,0.1727 -0.44901,0.42902 -0.67988,0.64534c-0.43811,0.4072 -0.87621,0.43447 -1.45429,0.4072c-1.43066,-0.06726 -2.07236,1.35067 -2.52138,2.49047c-0.38721,0.98165 -0.81077,1.96511 -1.74151,2.54501c-0.08878,0.05 -0.19732,0.04955 -0.28569,-0.00115c-0.08837,-0.05071 -0.14352,-0.1442 -0.14514,-0.24608c-0.04222,-0.52367 -0.37123,-0.98078 -0.8544,-1.18707c-0.24723,-0.10362 -0.54536,-0.1327 -0.72715,-0.34358c-0.22542,-0.24905 -0.14725,-0.51264 -0.12907,-0.81259c0.02909,-0.52718 -0.1727,-0.9362 -0.39811,-1.40339c-0.31631,-0.65443 -0.50537,-1.28341 -0.41447,-2.01056c0.08726,-0.70715 0.37448,-1.36703 0.65625,-2.01419c0.32358,-0.76532 0.71078,-1.57063 0.72715,-2.42321c0.01636,-0.99983 -0.54899,-1.77969 -1.07436,-2.57228c-0.45447,-0.68897 -0.29813,-1.59972 -0.8653,-2.21052c-0.52246,-0.56844 -1.34406,-0.75061 -2.05782,-0.45628c-0.07662,0.04355 -0.169,0.0495 -0.25058,0.01616c-0.08158,-0.03334 -0.14334,-0.10229 -0.16753,-0.18704c-0.07387,-0.31327 -0.01251,-0.64317 0.16906,-0.90893l-0.67261,-0.21996c-0.09614,-0.02906 -0.17031,-0.10594 -0.19589,-0.20307c-0.02558,-0.09712 0.0011,-0.20057 0.07046,-0.27321c0.11465,-0.14359 0.25298,-0.26654 0.40902,-0.36357c-0.30588,-0.27412 -0.48318,-0.66367 -0.48901,-1.07436c0.00099,-0.15721 0.12819,-0.28441 0.2854,-0.2854l1.78878,-0.00909l-0.23632,-0.88712c-0.02373,-0.08603 -0.00611,-0.1782 0.04766,-0.24942c0.05377,-0.07122 0.1376,-0.11341 0.22684,-0.11415c0.99801,0.11089 1.73788,-0.20905 2.63408,-0.57263c0.62898,-0.25995 1.34704,-0.24723 2.01783,-0.23269c0.59834,-0.00995 1.19272,0.09879 1.74879,0.31994c0.2855,0.12755 0.5445,0.30761 0.7635,0.53082l0.16361,0.18179c0.14725,0.11634 0.19633,0.11634 0.14725,0c0.02909,-0.06544 -0.04908,-0.2745 -0.03999,-0.36357c0.04363,-0.47992 0.50173,-0.7635 0.93802,-0.81622c0.43629,-0.05272 0.8544,0.08908 1.29068,-0.02181c0.38175,-0.09998 0.73442,-0.31085 1.1089,-0.44356c0.56536,-0.19997 1.26887,-0.26359 1.7197,0.20724c0.19929,0.20285 0.31149,0.4755 0.31267,0.75987c0.91075,-0.18179 2.43957,-0.45265 2.55773,0.54536c0.02585,0.21089 -0.04652,0.42197 -0.19633,0.57263c0.18479,-0.00554 0.36919,0.02027 0.54536,0.07635c0.09616,0.02962 0.17018,0.10684 0.19571,0.20416c0.02553,0.09732 -0.00105,0.20093 -0.07028,0.27394c-0.53082,0.54718 0.28722,0.22723 0.5599,0.14361c0.28785,-0.08712 0.58856,-0.12401 0.88894,-0.10907c0.59972,0.03004 1.17364,0.25323 1.63608,0.63625c0.07392,0.07206 0.10251,0.17877 0.07453,0.27813c-0.21633,0.87621 -1.2616,0.58353 -1.72152,1.17434c-0.27268,0.34903 -0.22723,0.87985 -0.29268,1.29614c-0.07065,0.38681 -0.22379,0.75386 -0.44901,1.07618c-0.57263,0.94892 0.24905,2.25779 -0.27813,3.24852c-0.22598,0.44799 -0.76737,0.6349 -1.2216,0.42174l-0.21814,0.30358c0.71412,0.64947 0.78641,1.74753 0.16361,2.48502c-0.0536,0.06561 -0.13821,0.09751 -0.22178,0.08362c0.08074,0.08683 0.0941,0.21668 0.03272,0.31813c-0.58353,1.05254 -1.78151,1.16525 -2.82314,1.41066z" fill="#74b140" fill-rule="evenodd"/><path d="M233.89266,109.81041c-0.52354,-0.04181 -1.27069,-0.15997 -1.59608,-0.62353c-0.36357,-0.51991 -0.0309,-1.39248 -0.56717,-1.80514c-0.15652,-0.21711 -0.15652,-0.51003 0,-0.72715c0.29631,-0.509 0.67443,-0.35448 0.97801,-0.27632c0.26614,0.07008 0.50418,0.22053 0.6817,0.43083c0.31085,0.35994 0.50355,0.54899 1.00891,0.41447c0.6817,-0.18179 1.2416,-0.79077 1.99965,-0.65807c0.56354,0.10362 0.49446,0.55627 0.40175,1.01255c-0.12543,0.62353 -0.27632,1.39067 -0.83985,1.76515c-0.62145,0.37233 -1.34574,0.53605 -2.06691,0.46719z" fill="#74b140" fill-rule="evenodd"/><path d="M246.74735,97.08432c-0.09462,-0.02577 -0.16954,-0.09803 -0.19872,-0.19165c-0.13816,-0.6617 -0.92711,-0.94711 -0.79259,-1.72333c0.11453,-0.67806 0.72715,-0.9671 1.35067,-0.85985c0.08223,0.0125 0.15154,0.06795 0.18179,0.14543c0.29086,-0.11816 0.57263,-0.4581 0.75441,-0.60171c0.21338,-0.17534 0.46106,-0.30413 0.72715,-0.37812c0.55445,-0.14725 1.15071,-0.05272 1.69607,0.08362c0.39084,0.09816 0.91802,0.21269 1.01255,0.67806c0.07271,0.38175 -0.2545,0.76714 -0.58535,0.8653c-0.33085,0.09816 -0.6617,-0.01636 -0.97619,-0.1018c-0.21269,-0.05272 -0.30904,-0.11998 -0.52536,0c-0.27632,0.15997 -0.16906,0.23996 -0.16906,0.52354c0.00909,0.56172 -0.08908,1.16343 -0.57626,1.5161c-0.29086,0.20905 -0.75805,0.29449 -1.02709,0c-0.12236,-0.13322 -0.17071,-0.31844 -0.12907,-0.49446l-0.01454,0.01636c-0.1327,0.16179 -0.31267,0.31085 -0.45992,0.4581c-0.07263,0.06589 -0.17385,0.09017 -0.26847,0.0644z" fill="#74b140" fill-rule="evenodd"/><path d="M269.49189,141.46851c-0.7017,3.22307 -3.61028,5.13547 -5.24636,7.83318c-0.45189,0.71428 -0.7669,1.50641 -0.92893,2.33596c-0.17088,0.98165 0.07271,1.90149 0.22178,2.86495c0.1836,1.19979 0.05635,2.68862 -1.17434,3.28852c-0.31085,0.1527 -0.66897,0.2036 -0.92893,0.48355c-0.25995,0.27995 -0.29813,0.69442 -0.32903,1.058c-0.0509,0.60171 -0.06181,1.17979 -0.27813,1.75424c-0.47264,1.2616 -1.39248,2.35413 -2.21234,3.40486c-0.73805,0.94711 -1.30341,2.21234 -2.33232,2.88131c-0.65988,0.43265 -1.55609,0.48173 -2.32141,0.54536c-0.67988,0.05454 -1.63062,0.19633 -2.27778,-0.09089c-0.43083,-0.19088 -0.65988,-0.82349 -0.84167,-1.21797c-0.27233,-0.59378 -0.49311,-1.20988 -0.65988,-1.8415c-0.40538,-1.47429 -0.7835,-2.93221 -1.22524,-4.41014c-0.44174,-1.47792 -0.7526,-3.01038 -0.529,-4.55375c0.12543,-0.86894 0.36721,-1.7197 0.28177,-2.605c-0.07438,-0.74438 -0.32353,-1.46068 -0.72715,-2.09054c-0.36175,-0.56354 -0.98346,-0.97074 -1.25614,-1.58336c-0.27268,-0.61262 -0.03818,-1.21252 0.18179,-1.79787c0.13998,-0.35812 0.31449,-0.79622 0.18179,-1.18161c-0.14543,-0.42356 -0.5999,-0.41447 -0.95438,-0.54536c-0.46537,-0.17088 -0.82349,-0.50355 -1.20706,-0.80531c-0.29268,-0.23087 -0.64898,-0.52354 -1.05254,-0.42902c-0.27632,0.06544 -0.49446,0.29995 -0.72715,0.46174c-0.509,0.35448 -1.06527,0.38175 -1.66516,0.34176c-0.46537,-0.03272 -0.91439,-0.07817 -1.3634,0.08362c-0.29813,0.10725 -0.57263,0.2745 -0.85985,0.4072c-0.47446,0.21633 -0.97801,0.36175 -1.49792,0.21633c-0.59444,-0.16543 -1.05073,-0.62171 -1.46702,-1.05073c-0.54536,-0.56172 -1.12344,-1.11253 -1.62335,-1.71243c-0.45628,-0.54536 -0.43992,-1.0889 -0.62171,-1.73788c-0.1727,-0.59081 -0.72715,-0.79441 -1.09072,-1.24524c-0.29953,-0.35049 -0.32055,-0.86036 -0.0509,-1.23433c0.1836,-0.28904 0.43992,-0.50718 0.45447,-0.87076c0.00752,-0.38853 -0.21487,-0.74493 -0.56717,-0.90893c-0.08717,-0.05202 -0.14091,-0.14572 -0.14179,-0.24723c-0.054,-1.02392 0.31773,-2.02461 1.02709,-2.76497c0.20178,-0.20542 0.45265,-0.35448 0.6508,-0.55808c0.2745,-0.28177 0.21814,-0.54718 0.2745,-0.8853c0.05533,-0.34178 0.31682,-0.61342 0.65625,-0.6817c0.41629,-0.11634 0.82895,-0.04908 1.11617,-0.43629c0.21633,-0.29449 0.2854,-0.69442 0.36357,-1.04527c0.15634,-0.72715 0.31994,-1.4452 0.88348,-1.97965c1.39976,-1.32522 3.46303,-0.77986 5.17546,-0.89984c0.65094,-0.05434 1.28263,-0.24775 1.8524,-0.56717c0.35267,-0.18179 0.73442,-0.38902 1.14344,-0.38902c0.87076,-0.01818 1.09981,0.73078 1.4452,1.3634c0.29449,0.54172 0.76896,0.61807 1.31432,0.79986c0.37173,0.1226 0.71752,0.31306 1.01982,0.56172c0.40902,0.32903 0.81804,0.83622 1.35249,0.95256c0.27086,0.05817 0.76532,-0.02909 0.93075,-0.29631c-0.19815,-0.49809 0.21451,-1.018 0.74896,-1.07436c0.48537,-0.05454 1.00528,0.17633 1.45429,0.30904l1.61972,0.47628c0.82349,0.24359 1.76696,0.42356 2.37231,1.02709c0.60535,0.60353 1.11071,1.34704 1.62517,2.02874c0.5694,0.74064 1.0904,1.51728 1.55973,2.32505c0.44356,0.78532 0.7526,1.62699 1.1707,2.42139c0.43811,0.83258 1.16162,1.33977 1.72152,2.06691c0.43629,0.56536 0.70351,1.52337 1.45429,1.74697c0.66716,0.19633 1.40703,-0.27632 1.99965,-0.51082c0.56172,-0.22178 1.14525,-0.36357 1.72697,-0.12907c0.13384,0.05424 0.2091,0.19706 0.17815,0.33812z" fill="#74b140" fill-rule="evenodd"/><path d="M268.91199,156.6404c-0.13775,0.58887 -0.35742,1.15551 -0.65261,1.68334c-0.3363,0.65807 -0.75441,1.20888 -0.92166,1.94693c-0.12543,0.55263 -0.20724,1.12889 -0.51991,1.61608c-0.38539,0.59808 -1.55791,1.2216 -1.92148,0.2345c-0.31267,-0.85985 -0.16361,-1.95602 0.47992,-2.605c-0.2273,-0.83192 -0.05609,-1.72221 0.46356,-2.41049c0.35812,-0.46356 0.8544,-0.64171 1.29614,-1.03618c0.44174,-0.39448 0.70897,-0.93984 0.97074,-1.45429c0.06654,-0.10946 0.19752,-0.16163 0.32109,-0.12789c0.12357,0.03374 0.20987,0.14523 0.21154,0.27332c-0.03454,0.65261 0.39448,1.19615 0.27268,1.87967z" fill="#74b140" fill-rule="evenodd"/><path d="M237.58292,115.15129c0.04696,-0.12523 0.18232,-0.19331 0.31085,-0.15634c0.1285,-0.0285 0.26233,-0.02159 0.38721,0.02c0.08733,0.02615 0.15564,0.09446 0.18179,0.18179c0.22079,0.09319 0.41821,0.23412 0.57808,0.41266c0.31085,0.36175 0.31994,0.87076 0.38902,1.32159c0.05454,0.35085 0.12725,0.68715 -0.26541,0.84167c-0.56341,0.2017 -1.1475,0.3401 -1.74151,0.41266c-0.35085,0.04726 -0.71624,-0.00909 -0.85258,-0.40175c-0.13634,-0.39266 0.11998,-0.68897 0.37266,-0.93802c0.14219,-0.12189 0.24842,-0.28029 0.30722,-0.4581c0.00655,-0.17521 0.0023,-0.35067 -0.01273,-0.52536c0.00824,-0.19524 0.07124,-0.38422 0.18179,-0.54536c0.04656,-0.0625 0.10163,-0.11818 0.16361,-0.16543z" fill="#74b140" fill-rule="evenodd"/><path d="M239.91342,114.64956c-0.21585,-0.49947 -0.2668,-1.05477 -0.14543,-1.58518c0.06726,-0.30904 0.2236,-0.52718 0.55627,-0.54536c0.64534,-0.03636 0.77623,0.15815 1.02528,0.78532c0.26359,0.66534 0.84167,1.12708 1.10344,1.80332c0.13452,0.32658 0.18875,0.68067 0.15815,1.03255c-0.01818,0.17815 -0.07999,0.33085 -0.11453,0.51264c-0.06363,0.32176 0.01454,0.58899 0.04726,0.90893c0.06544,0.61807 -0.26177,0.75623 -0.78168,0.95256c-0.44356,0.16361 -1.43066,0.49628 -1.78332,-0.01818c-0.31631,-0.47628 0.14543,-1.38885 0.36357,-1.81786c0.25814,-0.48719 0.4272,-0.82531 0.07635,-1.30341c-0.19556,-0.22172 -0.36511,-0.46508 -0.50537,-0.72533z" fill="#74b140" fill-rule="evenodd"/><path d="M285.77086,142.93916c0.11147,0.28917 0.15077,0.60115 0.11453,0.90893c0.01622,0.31469 -0.00514,0.6302 -0.06363,0.93984c-0.12725,0.50537 -0.7017,0.7526 -1.09072,0.32358c-0.2036,-0.2236 -0.22542,-0.52354 -0.22542,-0.81077c-0.01273,-0.42902 0,-0.85985 0,-1.29068c0.00077,-0.04636 0.01262,-0.09185 0.03454,-0.1327c0.00526,-0.06256 0.03153,-0.12151 0.07453,-0.16724c0.34539,-0.38539 0.94165,-0.20724 1.15616,0.22905z" fill="#74b140" fill-rule="evenodd"/><path d="M295.42008,146.74577c-0.10725,0.27995 -0.20542,0.54354 -0.3254,0.83804c-0.11998,0.29449 -0.23996,0.58899 -0.36357,0.87985c-0.21451,-0.32722 -0.4272,-0.65443 -0.64352,-0.98165l-0.85076,-1.28887c-0.25995,-0.39266 -0.509,-0.8344 -0.97256,-1.0071c-0.29995,-0.00364 -0.40538,-0.47992 -0.07453,-0.55808h0.02181c0.02457,-0.00867 0.05031,-0.01357 0.07635,-0.01454c0.72169,-0.1218 1.25614,0.3054 1.73061,0.82531c0.44039,0.46356 0.90844,0.90005 1.40157,1.30704z" fill="#74b140" fill-rule="evenodd"/><path d="M261.66598,98.95776c0.70715,-0.83985 1.45429,-1.65062 2.18144,-2.47593l1.09072,-1.23615c0.28722,-0.32903 0.55808,-0.70715 0.92166,-0.96347c0.48537,-0.33994 1.18707,-0.3763 1.45429,0.2345c0.26723,0.6108 -0.11998,1.19615 -0.6108,1.53973c-0.8544,0.59808 -3.17217,2.65772 -2.20143,3.7648c0.35085,0.39993 0,1.52337 -0.20905,1.5979c-0.15634,0.33267 -1.0071,0.25087 -0.97983,0.18179c-0.5799,-0.13998 -0.64716,-0.15452 -1.09072,-0.58172c-0.56172,-0.53991 -1.12162,-1.36703 -0.55627,-2.06146z" fill="#74b140" fill-rule="evenodd"/><path d="M298.63588,129.07068c-0.00121,0.3769 -0.00606,0.75381 -0.01454,1.13071c0,0.0818 0,0.16361 0,0.24359c-0.00909,0.32358 -0.02181,0.64352 -0.03636,0.96529c-0.00727,0.15452 -0.02363,0.30904 -0.02363,0.46174c-0.01091,0.21451 -0.02545,0.42902 -0.03999,0.64171c-0.02,0.2854 -0.03999,0.55445 -0.06363,0.83076c-0.01273,0.04545 -0.01273,0.08908 -0.01273,0.13452c-0.03878,0.44598 -0.08362,0.88954 -0.13452,1.33068c-0.03757,0.33934 -0.07938,0.67746 -0.12543,1.01437c-0.06302,0.45568 -0.13149,0.91015 -0.20542,1.3634c-0.01091,0.07453 -0.02363,0.14906 -0.03636,0.2236c-0.05817,0.33691 -0.11877,0.67261 -0.18179,1.0071c-0.02727,0.14179 -0.05272,0.28359 -0.0818,0.42356c-0.03454,0.17633 -0.0709,0.34721 -0.10725,0.529c-0.05817,0.27995 -0.11998,0.5599 -0.18179,0.83804c-0.02909,0.12725 -0.05999,0.2545 -0.09089,0.38175c-0.06181,0.24723 -0.11998,0.48719 -0.18179,0.72715l-0.07635,0.30904c-0.17936,0.692 -0.37388,1.37855 -0.58353,2.05964c-0.11149,0.36357 -0.22784,0.72715 -0.34903,1.09072v0.01454c-0.1224,0.36357 -0.24723,0.72715 -0.37448,1.09072c-0.55413,-0.69561 -1.00928,-1.4646 -1.35249,-2.28505c-0.33779,-0.83507 -0.56749,-1.70988 -0.68352,-2.60318c-0.13089,-0.90166 -0.23269,-1.81059 -0.65261,-2.62136c-0.34903,0.28177 -0.8035,0.44174 -1.14889,0.03454c-0.25087,-0.29449 -0.34176,-0.73442 -0.509,-1.07981c-0.20502,-0.41963 -0.4395,-0.82421 -0.7017,-1.2107c-0.29631,-0.43629 -0.60535,-1.02891 -1.19252,-0.9562c-0.33994,0.04181 -0.56717,0.16724 -0.92166,0.0509c-0.23471,-0.07865 -0.44301,-0.22087 -0.60171,-0.41084c-0.1815,0.66203 -0.5237,1.26899 -0.99619,1.76696c-0.39811,0.39266 -0.8853,0.63443 -1.18707,1.1198c-0.24039,0.42235 -0.40178,0.88499 -0.47628,1.36522c-0.30722,1.60881 -0.20905,3.7448 -1.9433,4.57556c-0.13657,0.0758 -0.3086,0.03099 -0.39084,-0.1018c-0.72715,-1.37249 -1.45429,-2.75225 -1.95602,-4.22472c-0.39448,-1.14707 -0.43629,-2.49956 -0.90893,-3.63573c-0.0309,0.16361 -0.06181,0.32903 -0.09089,0.49264c-0.02527,0.0981 -0.10187,0.1747 -0.19997,0.19997c-0.62535,0.08544 -1.018,-0.27086 -1.35249,-0.76532c-0.46537,-0.68897 -0.86712,-1.42521 -1.28705,-2.15235l-0.04545,0.00909c-0.93984,0.09998 -1.87967,0.20905 -2.82132,0.30177c-0.5999,0.05635 -1.1907,0.07453 -1.69061,-0.30722c-0.29995,-0.22178 -0.509,-0.55445 -0.84531,-0.71624c-0.10729,-0.05021 -0.22019,-0.08744 -0.3363,-0.11089c0.6617,0.9053 0.85985,2.42867 2.03419,2.66317c0.1515,0.04244 0.24065,0.19887 0.19997,0.35085c-1.35249,3.36123 -5.03912,4.34833 -8.24583,5.04821c-0.08621,0.02227 -0.17787,0.00384 -0.24876,-0.05004c-0.07089,-0.05388 -0.11319,-0.13725 -0.11482,-0.22627c-0.1327,-1.42702 -1.6688,-2.26869 -2.26324,-3.49575c-0.35994,-0.73987 -0.55445,-1.53428 -0.95983,-2.26142c-0.33449,-0.59626 -1.16707,-2.04146 -2.00874,-1.89058c-0.15143,0.03665 -0.30521,-0.051 -0.35085,-0.19997c-0.20724,-0.79259 -1.26705,-1.2616 -0.94892,-2.20325c0.15997,-0.47992 0.63625,-0.82167 0.90893,-1.23615c0.29997,-0.46513 0.49306,-0.991 0.56536,-1.53973c-1.07981,-0.02909 -2.15962,-0.05454 -3.23943,-0.08544c-0.75987,-0.01454 -1.37976,-0.13089 -1.6688,-0.90893c-0.1218,-0.32903 -0.12907,-0.69442 -0.2545,-1.02164c-0.09998,-0.26359 -0.48173,-0.88348 -0.80531,-0.33812c-0.1018,0.15634 -0.01818,0.53082 0,0.7017c0.05454,0.50718 0.0509,1.20161 -0.47446,1.49065c-0.61626,0.33994 -1.058,-0.32358 -1.24705,-0.80895c-0.18906,-0.48537 -0.25087,-1.02164 -0.47628,-1.49247c-0.23996,-0.49991 -0.67988,-0.79622 -1.11435,-1.11071l-1.42702,-1.03255c-0.08726,-0.06363 -0.57081,-0.50355 -0.66352,-0.47264c-0.35448,0.11634 0.03818,0.43447 0.14361,0.55808c0.69312,0.79127 1.54633,1.42637 2.5032,1.86331c0.09621,0.05975 0.14865,0.17017 0.13417,0.2825c-0.01448,0.11232 -0.09322,0.20584 -0.20143,0.23923c-0.45447,0.08544 -0.55808,0.67443 -0.72715,1.038c-0.13933,0.32666 -0.38116,0.59912 -0.68897,0.77623c-0.65209,0.34919 -1.45693,0.22137 -1.96875,-0.31267c-0.07807,-0.08281 -0.10028,-0.20373 -0.05673,-0.30888c0.04355,-0.10515 0.14475,-0.17495 0.25851,-0.17831c0.19056,-0.00476 0.38007,-0.02974 0.56536,-0.07453c0.17868,-0.03309 0.33727,-0.1349 0.44174,-0.28359l-0.1527,-0.46901c-0.15997,-0.13816 -0.55627,-0.11634 -0.7635,-0.24905c-0.40902,-0.26541 -0.61626,-0.73078 -0.79804,-1.16162c-0.09879,-0.29546 -0.25098,-0.57027 -0.44901,-0.81077c-0.1209,-0.14372 -0.27771,-0.25285 -0.45447,-0.31631c-0.3254,-0.08726 -0.41447,0.14179 -0.59626,0.34903c-0.24905,0.27995 -0.529,0.54536 -0.93802,0.36357c-0.37266,-0.16724 -0.53263,-0.62716 -0.56717,-1.00528c-0.01454,-0.15452 0.04726,-0.89257 -0.09816,-0.97074c-0.10544,-0.05454 -0.15088,0.529 -0.15088,0.58899c0,0.34176 0.02,0.74351 -0.18179,1.03982c-0.07902,0.12101 -0.19321,0.21491 -0.32722,0.26904c-0.06722,0.024 -0.13773,0.03748 -0.20905,0.03999l0.18179,0.09998c0.08563,0.05257 0.13781,0.14584 0.13781,0.24632c0,0.10048 -0.05218,0.19375 -0.13781,0.24632c-0.44467,0.31381 -0.84994,0.68002 -1.20706,1.09072c-0.34176,0.42538 -0.39266,0.87257 -0.58717,1.35431c-0.29995,0.71806 -1.43066,0.94347 -2.11781,0.95256c-0.83985,0.01818 -1.49428,-0.509 -1.8015,-1.2725c-0.34539,-0.85803 -0.15088,-1.78332 0.08908,-2.64681h-0.16179c-0.36357,-0.01454 -0.36357,-0.58535 0,-0.57081c0.60778,0.03091 1.21713,-0.00261 1.81786,-0.09998c0.48537,-0.0818 1.12344,-0.17451 1.49792,-0.51627c0.58353,-0.52718 0.03272,-1.01255 -0.36357,-1.40157l-1.2107,-1.19252c-0.07807,-0.08281 -0.10028,-0.20373 -0.05673,-0.30888c0.04355,-0.10515 0.14475,-0.17495 0.25851,-0.17831c0.76896,0 1.56336,-0.01454 2.30142,-0.25632c0.87985,-0.28722 1.29432,-0.88166 1.6688,-1.69061c0.56354,-1.22342 1.73788,-2.00874 3.06492,-1.63608c0.07795,-0.02983 0.16587,-0.01598 0.23087,0.03636c0.34176,0.24905 0.65625,0.42902 1.03982,0.15634c0.1327,-0.09635 0.22905,-0.23996 0.37266,-0.33267c0.33141,-0.1903 0.70074,-0.30513 1.08163,-0.3363c0.43992,-0.05817 0.90711,-0.05454 1.32886,-0.2036c0.7126,-0.25087 0.84349,-0.83076 0.72715,-1.50519c-0.15088,-0.88348 0.39448,-1.45611 1.2416,-1.61063c0.53809,-0.09998 1.08163,-0.05454 1.60517,-0.23632c0.41622,-0.15221 0.79013,-0.40148 1.09072,-0.72715c-0.92369,-0.2126 -1.89253,-0.09824 -2.74134,0.32358c-0.2854,0.14361 -0.54718,0.33267 -0.87621,0.19815c-0.27716,-0.14208 -0.49349,-0.37972 -0.60898,-0.66897c-0.27268,-0.57808 -0.19633,-1.26342 0.03272,-1.8415c0.12484,-0.31626 0.29508,-0.61266 0.50537,-0.87985c0.23632,-0.3054 0.60353,-0.64898 0.67625,-1.01255c0.07271,-0.36357 -0.21814,-0.75078 -0.60717,-0.54536c-0.20266,0.13269 -0.36144,0.32247 -0.45628,0.54536c-0.15541,0.34526 -0.33776,0.67774 -0.54536,0.99437c-0.25995,0.35267 -0.59262,0.65625 -0.81622,1.03436c-0.30722,0.51809 -0.26177,0.9362 0.02363,1.44338c0.39266,0.69988 0.05817,1.20161 -0.05999,1.93966c-0.11634,0.66716 -0.25632,1.31795 -0.90893,1.6488c-0.49809,0.25268 -1.07072,0.13452 -1.32159,-0.38721c-0.16179,-0.33994 -0.1527,-0.74169 -0.24723,-1.10526c-0.0821,-0.31719 -0.20427,-0.62262 -0.36357,-0.90893c-0.49809,0.62716 -0.84894,1.55064 -1.7706,1.51973c-0.99983,-0.03272 -1.5979,-1.2725 -1.7906,-2.11054c-0.23087,-1.00164 0.25268,-1.68152 1.11071,-2.13963c1.0889,-0.58172 1.83059,-1.32886 2.59591,-2.29051c0.84653,-1.03693 1.63546,-2.11959 2.36322,-3.24307c0.52354,-0.82531 1.15798,-1.55246 2.23052,-1.45429c1.15253,0.10362 2.21234,0.88712 3.30306,1.22706c0.93984,0.29086 2.07418,0.3763 2.8795,0.99255c0.29268,0.23087 0.64716,0.56536 0.51082,0.95801c-0.12743,0.31075 -0.38034,0.5531 -0.69624,0.66716c-0.88712,0.36539 -1.67425,-0.12907 -2.5232,-0.31085c0.3372,0.79846 1.06737,1.36247 1.92512,1.48701c0.26009,0.0407 0.52562,0.0302 0.78168,-0.0309c0.42174,-0.10725 0.55627,-0.4581 0.72715,-0.82167l0.82713,-1.73788c0.13998,-0.29086 0.63625,-0.07999 0.52173,0.21996c-0.01089,0.02188 -0.0206,0.04434 -0.02909,0.06726v0.01273c-0.08726,0.24905 0.1018,0.36721 0.57081,0.35267c0.03454,-0.05635 0.0709,-0.11271 0.10725,-0.16906c0.06502,-0.1308 0.11269,-0.26952 0.14179,-0.41266c0.06206,-0.21134 0.15518,-0.41229 0.27632,-0.59626c0.2583,-0.33262 0.60939,-0.58123 1.00891,-0.71442c1.19615,-0.46174 2.57773,-0.60898 3.85024,-0.80713c0.01091,-0.54718 0.48173,-0.89439 1.05073,-0.87439c0.42317,0.04831 0.83999,0.14154 1.24342,0.27813l1.15253,0.27995c-0.37812,-0.72896 -0.76168,-1.45793 -1.09072,-2.20325c-0.23087,-0.52354 -0.32176,-1.21979 0.23269,-1.58336c0.6108,-0.40357 1.18888,0.17633 1.45429,0.68715c0.21633,0.41629 0.39993,0.76168 0.8035,1.03073c0.21099,0.13644 0.43436,0.25269 0.66716,0.34721c-0.05454,-0.60353 0.0709,-1.25978 0.64352,-1.42702c-0.06377,-0.23678 -0.08773,-0.48251 -0.0709,-0.72715c0.00197,-0.10132 0.05687,-0.19421 0.14467,-0.24481c0.0878,-0.0506 0.19569,-0.05152 0.28435,-0.00242c0.61444,0.35994 1.27978,0.73442 1.99056,0.71078c-0.54354,-0.54172 -1.31977,-0.98346 -1.22706,-1.84877c0.08908,-0.76532 0.77623,-1.10526 1.45429,-1.2725c-0.26359,-0.529 -0.06181,-1.20524 0.35267,-1.65244c0.69261,-0.74896 1.76151,-1.18888 2.68317,-1.57245c0.28359,-0.11634 0.57081,-0.22905 0.85621,-0.33994c0.37084,-0.14179 0.67079,-0.29086 0.68352,-0.70533c0.00909,-0.32722 -0.06363,-0.69261 0.11816,-0.98892c0.10957,-0.22324 0.34259,-0.35875 0.59081,-0.34358c0.29328,0.24238 0.58475,0.48477 0.87439,0.72715c0.2848,0.24238 0.56717,0.48477 0.84712,0.72715l0.02,0.01636c0.27753,0.24602 0.55263,0.49506 0.82531,0.74714l0.02,0.01818c0.27389,0.2545 0.54475,0.51142 0.81259,0.77077c0.11816,0.12361 0.24178,0.24178 0.36357,0.36357c2.57878,2.54893 4.87305,5.37045 6.84244,8.41489c0.21814,0.3357 0.43144,0.67382 0.63989,1.01437c-0.00035,0.00424 -0.00035,0.00849 0,0.01273c0.20602,0.33812 0.40841,0.67806 0.60717,1.01982l0.01636,0.02545c0.19451,0.3363 0.39266,0.67806 0.57444,1.01982l0.02363,0.03999c0.18179,0.33812 0.36357,0.67806 0.54536,1.01982l0.0309,0.05635c0.1727,0.3363 0.34176,0.67625 0.509,1.01619l0.03636,0.07453c0.16239,0.33691 0.32116,0.67443 0.47628,1.01255c0.01454,0.03272 0.0309,0.06363 0.04545,0.09453c0.15088,0.33267 0.29813,0.66897 0.44356,1.00528l0.0509,0.11634c0.13998,0.32903 0.2745,0.65988 0.40902,0.99255l0.05635,0.14179c0.13089,0.3254 0.2545,0.65443 0.37812,0.98346c0.02,0.05454 0.04181,0.10907 0.06181,0.16543c0.11998,0.32176 0.23269,0.64534 0.34539,0.97074l0.06726,0.19088c0.10665,0.31873 0.21087,0.63807 0.31267,0.95801c0.02363,0.07271 0.04908,0.14361 0.0709,0.21633c0.1018,0.31267 0.19088,0.62898 0.28359,0.94347c0.02363,0.0818 0.04908,0.16179 0.0709,0.24178c0.08908,0.30722 0.17088,0.61626 0.25268,0.92711c0.02545,0.09089 0.0509,0.17997 0.07453,0.27268c0.07817,0.30177 0.15088,0.60535 0.2236,0.90893c0.02363,0.09998 0.04908,0.19997 0.07271,0.29995c0.06908,0.29813 0.1327,0.59626 0.19633,0.89621c0.02363,0.10907 0.04908,0.21633 0.0709,0.32358c0.05999,0.29268 0.11453,0.58535 0.17088,0.87985c0.02181,0.11634 0.04545,0.2345 0.06726,0.35267c0.0509,0.2854 0.09816,0.57444 0.14361,0.86349c0.02,0.12543 0.04363,0.25087 0.06363,0.3763c0.04181,0.28359 0.07999,0.56899 0.11998,0.8544c0.01818,0.1327 0.03818,0.26359 0.05454,0.39629c0.03636,0.28359 0.06726,0.56717 0.09816,0.85076c0.01636,0.13634 0.03272,0.27268 0.04726,0.40902c0.02909,0.28359 0.05272,0.56899 0.07635,0.85258c0.01091,0.13998 0.02545,0.27813 0.03636,0.41811c0.02363,0.29449 0.03999,0.59262 0.05817,0.89075c0.00727,0.12907 0.02363,0.25632 0.02363,0.38539c0.01636,0.32176 0.03636,0.64352 0.03636,0.96529c0.00364,0.10725 0.01273,0.21451 0.01273,0.31994c0,0.43629 0.0006,0.86773 0.00182,1.29432zM262.80396,123.04264c-0.1953,-0.23477 -0.45501,-0.40728 -0.74714,-0.49628c-0.19997,-0.07453 -0.41084,-0.11816 -0.61262,-0.19269c-0.15829,-0.04883 -0.30533,-0.12854 -0.43265,-0.2345c-0.05235,-0.04591 -0.08237,-0.11216 -0.08237,-0.18179c0,-0.06963 0.03002,-0.13588 0.08237,-0.18179c0.09635,-0.39811 0.57808,-1.05981 -0.14906,-1.17434c-0.39448,-0.05635 -0.87985,0.11089 -1.2725,0.18179c-0.41569,0.07514 -0.83076,0.15452 -1.24524,0.23814c-0.07003,-0.06659 -0.16857,-0.09405 -0.26294,-0.07328c-0.09438,0.02077 -0.17228,0.08706 -0.20788,0.1769c-0.33267,0.89802 -0.78532,1.92694 -0.87803,2.88859c-0.05999,0.6308 0.46174,0.97801 1.04891,0.73805c0.42538,-0.1727 0.74714,-0.48537 1.20343,-0.61807c0.52173,-0.14906 0.97438,-0.16361 1.41066,0.18179c0.47992,0.37993 1.3234,0.33812 1.86876,0.09089c0.54172,-0.24905 0.6308,-0.88348 0.27632,-1.3434zM266.6542,124.82415c0.06544,0.65443 0.63625,1.16889 1.17252,1.48883c0.46356,0.27632 1.11253,0.39448 1.51064,-0.10544c0.39811,-0.49991 0.0509,-0.93984 -0.26723,-1.33431c-0.12543,-0.15452 -0.19451,-0.0309 -0.08908,-0.25814c0.03454,-0.05817 0.13998,-0.11998 0.18179,-0.1727c0.08352,-0.10084 0.1454,-0.21779 0.18179,-0.34358c0.07257,-0.24333 0.00231,-0.50681 -0.18179,-0.6817c-0.31085,-0.2745 -0.7126,-0.28904 -0.97619,-0.66352c-0.25376,-0.40168 -0.36872,-0.87554 -0.32722,-1.34886c0.2844,-0.23003 0.37125,-0.62652 0.20905,-0.95438c-0.23087,-0.49991 -0.87076,-0.63807 -1.36703,-0.49991c-1.39248,0.38902 -1.43793,1.97238 -0.68715,2.96312c0.19451,0.2545 0.9162,0.77259 0.84712,1.13616c-0.05454,0.28177 -0.2345,0.44901 -0.20724,0.77441zM271.02071,131.69931h-0.0509c-0.64835,0.03516 -1.29617,-0.07799 -1.89421,-0.33085c-0.66897,-0.31085 -1.03618,-0.80168 -1.52155,-1.32159c-0.12361,-0.1327 -0.39811,-0.4272 -0.61444,-0.3054c-0.25087,0.13998 0.02181,0.55627 0.10362,0.71078c0.17786,0.34493 0.3859,0.67342 0.62171,0.98165c0.45265,0.5599 1.06527,1.05981 1.81786,1.09072c0.6308,0.02545 1.28705,-0.24541 1.53791,-0.82531z" fill="#74b140" fill-rule="nonzero"/></g><text transform="translate(192.43815,64.47374) scale(0.23622,0.23622)" font-size="40" xml:space="preserve" fill="#ffffff" fill-rule="nonzero" stroke="#ffffff" stroke-width="1" stroke-linecap="butt" stroke-linejoin="miter" stroke-miterlimit="10" stroke-dasharray="" stroke-dashoffset="0" font-family="Handwriting" font-weight="normal" text-anchor="start" style="mix-blend-mode: normal"></text></g></g></svg>