<svg version="1.1" xmlns="http://www.w3.org/2000/svg" xmlns:xlink="http://www.w3.org/1999/xlink" width="141.88333" height="165.41711" viewBox="0,0,141.88333,165.41711"><defs><linearGradient x1="240.76946" y1="58.29922" x2="240.76946" y2="237.16742" gradientUnits="userSpaceOnUse" id="color-1"><stop offset="0" stop-color="#000000"/><stop offset="1" stop-color="#000000" stop-opacity="0"/></linearGradient></defs><g transform="translate(-173.98665,-41.15869)"><g data-paper-data="{&quot;isPaintingLayer&quot;:true}" fill-rule="nonzero" stroke-linecap="butt" stroke-linejoin="miter" stroke-miterlimit="10" stroke-dasharray="" stroke-dashoffset="0" style="mix-blend-mode: normal"><path d="M295.12005,179.7093c0.09422,1.88165 -8.47599,7.07192 -53.11886,7.07192c-44.64286,0 -57.10709,-4.43047 -57.12201,-7.45949c-0.0129,-2.6151 11.55535,-6.10294 56.19819,-6.10294c44.64286,0 53.95646,4.76932 54.04268,6.49051z" fill="url(#color-1)" stroke="none" stroke-width="0"/><text transform="translate(227.62804,201.72801) scale(0.28942,0.28942)" font-size="40" xml:space="preserve" fill="#000000" fill-rule="nonzero" stroke="#000000" stroke-width="0.5" stroke-linecap="butt" stroke-linejoin="miter" stroke-miterlimit="10" stroke-dasharray="" stroke-dashoffset="0" font-family="Handwriting" font-weight="normal" text-anchor="start" style="mix-blend-mode: normal"></text><text transform="translate(174.10477,70.30703) scale(0.23622,0.23622)" font-size="40" xml:space="preserve" fill="#000000" fill-rule="nonzero" stroke="#000000" stroke-width="1" stroke-linecap="butt" stroke-linejoin="miter" stroke-miterlimit="10" stroke-dasharray="" stroke-dashoffset="0" font-family="Handwriting" font-weight="normal" text-anchor="start" style="mix-blend-mode: normal"></text><g stroke="none"><path d="M188.00001,178.0054c0,0 5.05518,-17.71172 9.191,-24.67821c2.4644,-4.15111 4.19195,2.87613 5.46063,-0.56216c4.45199,-12.06547 -0.01527,-30.66254 -0.01527,-30.66254l31.06352,-13.08536l21.91582,-27.08715l9.83427,6.79102l17.41107,35.14912c0,0 -0.77364,4.32842 0.21271,11.00524c0.4562,3.08812 3.58847,-5.82064 4.63163,0.03399c2.43117,13.64461 3.38554,44.6708 3.38554,44.6708l-24.07962,2.68373l-19.0913,-3.4768l-32.66117,2.24307z" fill="#a38b9d" stroke-width="NaN"/><path d="M214.56819,155.76233l10.81818,-27.95146l10.5,-19.29045l3.18182,26.37673l8.86873,44.00752l-33.3309,2.16283l13.14741,-19.43735z" fill="#8d7793" stroke-width="0"/><path d="M224.75001,128.99191c-6.85335,0 -22.59091,-2.94362 -22.59091,-6.29892c0,-2.17425 24.64665,-14.17257 31.5,-14.17257c6.85335,0 -2.05574,20.47149 -8.90909,20.47149z" fill="#f2f7ff" stroke-width="0"/><path d="M249.22353,132.3327c2.17147,-7.2461 -4.29054,-9.55936 -3.44358,-14.05338c2.20225,-11.68528 9.19733,-28.65567 9.19733,-28.65567l27.04546,34.25039l2.22727,10.23575l-28.56344,3.47113c0,0 -4.8857,6.74825 -8.30004,13.80714c-2.44657,5.0581 -3.51841,11.23342 -4.35864,10.77219c-0.43349,-0.23796 -4.69466,-6.71371 -3.80623,-11.07424c0.70107,-3.4409 2.48021,-0.67033 5.6219,-5.31952c2.74995,-4.06947 4.05209,-12.33964 4.37997,-13.43378z" fill="#8d7793" stroke-width="0"/><path d="M267.38637,182.13906l-17.18182,-42.12404l36.59091,-5.51156c0,0 2.85295,14.04372 3.48717,21.69455c0.63849,7.70244 0.96738,23.97263 0.96738,23.97263z" fill="#8d7793" stroke-width="0"/><path d="M282.65909,125.05509c-1.96309,0 -25.89918,-12.07603 -26.65757,-16.60215c-0.31123,-1.85747 -1.03703,-11.9781 -1.31205,-18.79183c-0.07787,-1.92928 -7.71463,4.56722 -7.6477,3.09125c0.11876,-2.6191 7.76769,-11.00234 8.25369,-11.00234c1.09628,0 8.947,4.87129 10.59959,6.97543c1.79575,2.28641 19.35804,36.32967 16.76404,36.32967z" fill="#f2f7ff" stroke-width="0"/><path d="M287.75001,133.91295c0,3.58751 -17.32378,13.58205 -23.38636,13.58205c-6.06258,0 -14.47727,-12.35663 -14.47727,-15.94414c0,-3.58751 8.73287,-0.19684 14.79545,-0.19684c3.04855,0 8.86407,-0.26007 13.89302,-0.06253c4.97203,0.19531 9.17516,0.83793 9.17516,2.62147z" fill="#f2f7ff" stroke-width="0"/><path d="M239.38637,134.10979c0.87236,3.76187 -6.1963,30.31356 -19.72727,30.31356c-13.53097,0 -22.59091,-7.50315 -22.59091,-11.4168c0,-3.91365 6.51448,0 20.04545,0c13.53097,0 21,-24.38514 22.27273,-18.89676z" fill="#f2f7ff" stroke-width="0"/><path d="M235.52136,109.26623c1.87036,1.08227 -1.0151,12.97697 -3.9766,15.60902c-2.96149,2.63205 -7.13423,5.44579 -8.33884,3.37087c-0.54842,-0.94465 3.10429,-4.95152 5.80027,-9.18524c3.22577,-5.06569 5.85897,-10.17433 6.51516,-9.79464z" fill="#cddfff" stroke-width="0"/><path d="M283.21591,124.95667c-4.71145,0.69302 -26.04327,-13.15558 -27.52272,-16.33783c-0.00905,-0.01949 2.37486,-14.76411 6.83159,-12.35926c8.43642,4.5523 21.5605,27.84235 20.69114,28.69709z" fill="#cddfff" stroke-width="0"/><path d="M287.30368,134.03884c0.32492,1.36509 -3.88899,5.92322 -9.51552,9.02369c-5.08081,2.79975 -11.46034,4.19289 -14.07425,4.85631c-5.50856,1.39809 -13.55836,-14.28979 -13.85851,-16.10021c-0.30015,-1.81042 10.87541,12.39448 19.13522,11.11885c8.24963,-1.27406 17.89109,-10.67147 18.31306,-8.89864z" fill="#cddfff" stroke-width="0"/><path d="M234.85228,150.25077c0,1.68505 -3.48497,14.07415 -18.45455,14.66468c-9.39662,0.37068 -19.40909,-9.23964 -19.40909,-10.92469c0,-1.68505 9.53552,6.01446 18.93182,6.39734c14.49231,0.59052 18.93182,-11.82237 18.93182,-10.13733z" fill="#cddfff" stroke-width="0"/></g><g stroke-width="0.15"><g stroke="none"><path d="M213.19443,152.41495c-0.56291,0.65667 -1.09909,3.20212 -1.09909,3.20212c0.23176,0.17372 0.23781,0.79217 0.05972,1.00327c-0.17811,0.21109 -0.57858,0.15325 -0.57858,0.15325c0.15723,0.62557 -1.90569,0.47063 -2.34938,0.40214c-0.44369,-0.06807 -0.4698,-0.28542 -0.4698,-0.28542c-0.46977,-0.01441 -0.46978,-0.11673 -0.46978,-0.11673c-0.20879,-0.75773 0.39233,-1.49582 0.39233,-1.49582c-2.33602,-8.44333 -0.20962,-8.59095 -0.20962,-8.59095c1.64551,-0.72014 5.28695,5.07127 4.72423,5.72813z" fill="#cce2ea"/><path d="M213.23411,152.44919c-0.51468,0.6007 -1.01789,2.85822 -1.08115,3.14823c0.11965,0.11087 0.15848,0.30547 0.17121,0.41635c0.02444,0.21318 -0.00605,0.49422 -0.12904,0.64016c-0.12484,0.14804 -0.33825,0.17936 -0.49527,0.17936c-0.02318,0 -0.04426,-0.00083 -0.06243,-0.00208c0.00187,0.06493 -0.01796,0.12403 -0.05909,0.17665c-0.14929,0.19126 -0.58463,0.28834 -1.29433,0.28834c-0.45394,0 -0.88553,-0.04113 -1.06465,-0.06849c-0.35977,-0.05554 -0.46834,-0.20964 -0.5005,-0.28627c-0.41905,-0.01795 -0.48315,-0.11212 -0.48315,-0.16767c-0.19439,-0.69862 0.28731,-1.3768 0.38711,-1.5073c-1.58831,-5.75173 -1.08762,-7.65429 -0.64747,-8.27651c0.23614,-0.33365 0.48127,-0.35453 0.4915,-0.35517c0.08309,-0.03966 0.19355,-0.06201 0.31068,-0.06201c1.38078,0 3.46707,2.96514 4.1985,4.5547c0.22153,0.4817 0.446,1.10162 0.25808,1.32169zM212.88146,151.17135c-0.82308,-1.78896 -2.87972,-4.49393 -4.1037,-4.49393c-0.10274,0 -0.19897,0.01921 -0.28626,0.05741c-0.01879,0.00439 -0.22968,0.0261 -0.4368,0.32448c-0.42429,0.61031 -0.89971,2.48008 0.6577,8.13848c0.56083,-0.50111 1.16384,-0.54183 1.55909,-0.47627c0.43722,0.07308 0.61783,0.27854 0.61783,0.27854c-0.9638,-0.6101 -1.9913,0.12069 -2.15164,0.29003c-0.26162,0.27687 -0.51385,0.82913 -0.39943,1.47014c-0.00041,0 0.04928,0.06034 0.37584,0.07579c-0.00021,-0.00334 -0.03424,-0.49714 0.15659,-0.78299c0,0 -0.18981,0.74958 0.03989,0.95587c0.06263,0.04488 0.16161,0.09062 0.32488,0.11589c0.16934,0.02609 0.60383,0.06722 1.04859,0.06722c0.65708,0 1.0872,-0.08812 1.21207,-0.24804c0.02442,-0.04051 0.04028,-0.09626 0.05052,-0.15911l0.00773,-0.0641c0.02421,-0.25974 -0.03028,-0.5986 -0.03028,-0.5986c0.11483,0.30776 0.13217,0.49986 0.128,0.60551c0.01441,0.00083 0.03027,0.00125 0.04781,0.00125c0.11046,0 0.31111,-0.01879 0.41529,-0.1424c0.08665,-0.10252 0.13071,-0.33868 0.10545,-0.56125c-0.02005,-0.17331 -0.07684,-0.30673 -0.15659,-0.36665l-0.02652,-0.02005l0.00668,-0.03257c0.02193,-0.10439 0.5458,-2.56589 1.1106,-3.2253c0.11525,-0.13445 0.01294,-0.58671 -0.27332,-1.20935z" fill="#000000"/></g><g stroke="none"><path d="M220.34741,146.68682c0,0 2.12639,0.14761 -0.20964,8.59095c0,0 0.60113,0.7381 0.39234,1.49582c0,0 0,0.10231 -0.4698,0.11673c0,0 -0.0261,0.21736 -0.4698,0.28542c-0.44369,0.06849 -2.50639,0.22341 -2.34938,-0.40214c0,0 -0.40047,0.05785 -0.57836,-0.15325c-0.17831,-0.21131 -0.17206,-0.82955 0.0595,-1.00327c0,0 -0.53619,-2.54545 -1.09911,-3.20212c-0.5627,-0.65686 3.07871,-6.44828 4.72425,-5.72813z" fill="#cce2ea"/><path d="M215.84179,151.12709c0.7312,-1.58958 2.8175,-4.5547 4.19827,-4.5547c0.11692,0 0.2276,0.02235 0.3107,0.06201c0.01022,0.00062 0.25536,0.02129 0.4915,0.35517c0.44036,0.62243 0.94063,2.52478 -0.64727,8.27649c0.09959,0.13051 0.58171,0.80867 0.38711,1.50731c0,0.05554 -0.06389,0.14972 -0.48317,0.16767c-0.03215,0.07662 -0.14052,0.23073 -0.50027,0.28626c-0.17957,0.02736 -0.61094,0.06849 -1.06486,0.06849c-0.70949,0 -1.14504,-0.09708 -1.29433,-0.28834c-0.04113,-0.05262 -0.06076,-0.11171 -0.05909,-0.17664c-0.01795,0.00125 -0.03927,0.00208 -0.06243,0.00208c-0.15703,0 -0.3702,-0.03131 -0.49507,-0.17935c-0.12319,-0.14594 -0.15367,-0.42699 -0.12925,-0.64017c0.01252,-0.11087 0.05178,-0.30547 0.17121,-0.41635c-0.06326,-0.29003 -0.56646,-2.54753 -1.08113,-3.14825c-0.18792,-0.21964 0.03632,-0.83956 0.25808,-1.32168zM215.66326,152.38049c0.56479,0.65938 1.08887,3.1209 1.1108,3.2253l0.00647,0.03258l-0.02652,0.02005c-0.07955,0.05992 -0.13657,0.19335 -0.15659,0.36665c-0.02527,0.22277 0.01879,0.45893 0.10564,0.56124c0.10399,0.12361 0.30465,0.14242 0.41511,0.14242c0.01754,0 0.03361,-0.00041 0.04781,-0.00126c-0.00419,-0.10543 0.01335,-0.29753 0.12799,-0.6055c0,0 -0.05428,0.33888 -0.03027,0.59861l0.00773,0.0641c0.01022,0.06284 0.0261,0.1188 0.05053,0.15911c0.12484,0.15993 0.5552,0.24804 1.21206,0.24804c0.44474,0 0.87924,-0.04113 1.04879,-0.06723c0.16327,-0.02526 0.26225,-0.07099 0.32467,-0.11588c0.22947,-0.20629 0.03989,-0.95587 0.03989,-0.95587c0.19085,0.28584 0.15701,0.77965 0.15658,0.78299c0.32677,-0.01545 0.37646,-0.07579 0.37605,-0.07579c0.11421,-0.641 -0.13781,-1.19328 -0.39964,-1.47014c-0.16037,-0.16934 -1.18806,-0.90014 -2.15166,-0.29003c0,0 0.18062,-0.20546 0.61783,-0.27854c0.39526,-0.06577 0.99826,-0.02484 1.55911,0.47627c1.5574,-5.6584 1.08176,-7.52818 0.6577,-8.13848c-0.20712,-0.29838 -0.418,-0.32008 -0.4368,-0.32448c-0.08728,-0.03801 -0.18354,-0.05741 -0.28627,-0.05741c-1.22376,0 -3.2804,2.70497 -4.10369,4.49393c-0.28669,0.62284 -0.38878,1.07509 -0.27332,1.20935z" fill="#000000"/></g><g stroke="none"><path d="M214.20585,134.9802c-0.10439,-0.73079 -0.27852,-0.97444 -0.27852,-0.97444c0.52198,0.31319 1.04398,0.87006 1.04398,0.87006v-0.45246l0.66104,0.80909c2.60997,0.87862 4.48581,4.69647 5.3072,8.57612c0.79446,3.75376 -1.86205,6.66501 -1.86205,6.66501v-0.75523c-0.45226,1.30623 -2.09215,2.31723 -2.09215,2.31723l0.27729,-0.74415c-3.34618,3.74854 -5.90749,-0.32259 -5.90749,-0.32259v0.64519c-1.49374,-1.18305 -1.57015,-2.34417 -1.57015,-2.34417l-0.0261,1.02124c-1.14065,-1.84514 -2.7914,-4.28828 -0.84292,-9.4226c1.92323,-5.06667 4.68937,-5.63605 4.68937,-5.63605z" fill="#cce2ea"/><path d="M215.22165,141.541c-0.20879,0.13928 -0.261,0.38273 -0.261,0.38273c0,0 0,-0.00022 0.86985,0.22612c0.86985,0.22634 3.14929,1.63594 3.49714,3.32363c0.34784,1.6877 -1.06152,3.86274 -2.59243,5.11553c-1.53131,1.25278 -1.93136,1.40938 -2.76049,1.23525c-0.82913,-0.17372 -4.49519,-2.24456 -4.45238,-5.70705c0.04279,-3.46247 4.1327,-4.14107 4.1327,-4.14107c-0.00041,-0.10439 -0.29545,-0.33721 -0.29545,-0.33721c0.27833,0.01086 0.61513,0.237 0.61513,0.237c0.00627,-0.23948 -0.19754,-0.47417 -0.19754,-0.47417c0.36541,0.08706 0.63766,0.51761 0.67693,0.4698c0.3111,-0.38294 0.76754,-0.33054 0.76754,-0.33054z" fill="#ffffff"/><path d="M219.1226,150.49254l-0.09103,0.09959v-0.62264c-0.55143,1.18347 -1.94933,2.0556 -2.01259,2.09446l-0.12925,0.07997l0.23782,-0.63871c-0.89365,0.93499 -1.81237,1.40854 -2.73358,1.40854c-1.54509,0 -2.65714,-1.35114 -2.98036,-1.79442v0.58652l-0.08478,-0.06682c-0.9684,-0.76753 -1.34778,-1.52025 -1.49582,-1.96812l-0.02005,0.78006l-0.18102,-0.29231c-1.12521,-1.81444 -2.66592,-4.29871 -0.75835,-9.32508c1.91133,-5.03515 4.69981,-5.663 4.72759,-5.66863l0.55352,-0.23366c-0.10128,-0.67358 -0.18437,-0.80386 -0.23301,-0.89615c0,0 -0.06892,-0.10545 -0.12841,-0.14991c0,0 0.10898,0.02902 0.16724,0.05951c0.41258,0.21632 0.79259,0.61345 0.96506,0.78633v-0.47042l0.74415,0.91078c2.78493,0.94961 4.57767,5.06814 5.32725,8.61037c0.79072,3.73664 -1.84786,6.6815 -1.87438,6.71073zM219.13869,149.34876l-0.00251,0.35392v0.61302c0.45726,-0.55707 2.45419,-3.22571 1.7589,-6.51196c-0.74498,-3.5201 -2.52143,-7.61149 -5.27295,-8.53792l-0.02359,-0.01648l-0.56855,-0.69572v0.43784l-0.09021,-0.09626c-0.00439,-0.00501 -0.42198,-0.44787 -0.8759,-0.7596c0.06118,0.15137 0.14156,0.41113 0.20023,0.82099l0.00564,0.03989l-0.63766,0.26788c-0.03674,0.00877 -2.77198,0.63057 -4.66056,5.6066c-1.88773,4.97355 -0.36707,7.43276 0.74625,9.22799l0.02171,-0.84625l0.03593,-0.38628c0,0 0.01105,0.12319 0.04488,0.31528c0.00981,0.05595 0.02213,0.11841 0.03592,0.18437c0.10064,0.38336 0.44098,1.2912 1.45343,2.12305v-0.717l0.09626,0.15284c0.0119,0.01859 1.20748,1.8844 2.98851,1.8844c0.95233,0 1.90654,-0.52827 2.83589,-1.5689l0.19731,-0.37104c0,0 -0.05702,0.27729 -0.1092,0.42365l-0.22154,0.59467c0.39671,-0.27124 1.57162,-1.14526 1.93784,-2.20259z" fill="#000000"/></g><path d="M217.29292,138.74856c0,0 0.24826,-0.98218 0.4485,0.0405z" fill="#ffffff" stroke="#000000"/><path d="M211.42343,138.93271c0.20003,-1.02268 0.44829,-0.04051 0.44829,-0.04051z" fill="#ffffff" stroke="#000000"/><path d="M218.92654,139.38601c0.00041,-0.00208 0.00041,-0.00585 -0.00085,-0.01357c-0.01837,-0.14261 -0.06974,-0.25932 -0.13176,-0.35685c-0.27748,-0.06284 -2.60473,-0.52553 -8.60409,0.12425c-0.06055,0.09666 -0.11024,0.21192 -0.12841,0.35223c-0.00104,0.00773 -0.00104,0.01149 -0.00084,0.01358c-0.00794,-0.02819 -0.16453,-0.60217 0.5153,-0.7239c0,0 -0.14533,0.07141 -0.28271,0.22215c0.89679,-0.1069 5.57424,-0.62304 8.38819,-0.13322c-0.13341,-0.14135 -0.26998,-0.20838 -0.26998,-0.20838c0.67986,0.12174 0.52324,0.69592 0.51511,0.72369z" fill="#000000" stroke="none"/><g stroke="none"><path d="M212.21459,136.55955c0.1502,-0.01701 0.29671,0.0597 0.4123,0.19705c0.11538,0.1376 0.19961,0.33587 0.22525,0.56242c0.02565,0.22655 -0.01211,0.43864 -0.09382,0.59853c-0.08192,0.15973 -0.2076,0.26724 -0.3578,0.28425c-0.15021,0.01701 -0.29673,-0.0597 -0.4123,-0.19706c-0.11538,-0.1376 -0.19961,-0.33586 -0.22528,-0.56241c-0.02565,-0.22656 0.01211,-0.43864 0.09382,-0.59853c0.08194,-0.15973 0.20762,-0.26724 0.35781,-0.28425z" fill="#ffffff"/><g><path d="M212.29734,137.16316c0.11389,-0.01291 0.2238,0.03348 0.30911,0.11879c0.08554,0.08548 0.1465,0.20991 0.1627,0.35286c0.0162,0.14295 -0.01536,0.27785 -0.07961,0.38031c-0.06406,0.10222 -0.1608,0.17202 -0.27468,0.18494c-0.11391,0.01291 -0.2238,-0.03348 -0.30911,-0.11879c-0.08554,-0.08548 -0.1465,-0.20991 -0.16271,-0.35285c-0.01619,-0.14295 0.01537,-0.27785 0.07963,-0.38032c0.06406,-0.10222 0.16078,-0.17203 0.27468,-0.18494z" fill="#3579bc"/><path d="M212.33585,137.48238c0.07571,-0.00858 0.14871,0.02369 0.20582,0.08256c0.05691,0.05889 0.0977,0.14441 0.10886,0.24274c0.01116,0.09834 -0.00945,0.19083 -0.05172,0.26098c-0.04247,0.07015 -0.10638,0.11797 -0.18211,0.12656c-0.07571,0.00859 -0.14871,-0.02368 -0.20582,-0.08256c-0.05691,-0.05889 -0.0977,-0.14441 -0.10885,-0.24275c-0.01114,-0.09834 0.00945,-0.19081 0.05172,-0.26095c0.04247,-0.07018 0.10639,-0.11798 0.18211,-0.12657z" fill="#000000"/><path d="M212.14419,137.44476c0.04087,-0.00464 0.07982,0.00901 0.10985,0.03482c0.03001,0.02559 0.05112,0.06354 0.05609,0.10731c0.00497,0.04378 -0.00711,0.08548 -0.03063,0.11715c-0.02349,0.03188 -0.05839,0.05391 -0.09927,0.05854c-0.04087,0.00464 -0.07982,-0.00901 -0.10985,-0.03482c-0.03001,-0.02559 -0.05112,-0.06354 -0.05609,-0.10731c-0.00495,-0.04378 0.00712,-0.0855 0.03063,-0.11715c0.02349,-0.03188 0.0584,-0.05391 0.09927,-0.05854z" fill="#ffffff"/></g><path d="M212.4173,138.26227l-0.01315,0.00188c-0.16349,0.01837 -0.32614,-0.05785 -0.45831,-0.21527c-0.12674,-0.15117 -0.21131,-0.36081 -0.23741,-0.59027c-0.05428,-0.47898 0.15848,-0.89156 0.4842,-0.93916c0.17685,-0.02025 0.3395,0.05616 0.47167,0.21338c0.12674,0.15138 0.21131,0.36101 0.23741,0.59049c0.05407,0.4792 -0.15868,0.89156 -0.48441,0.93895zM212.21769,136.62175c-0.27518,0.04009 -0.45267,0.40967 -0.40528,0.82518c0.02359,0.20921 0.09959,0.39942 0.21319,0.53494c0.10878,0.12966 0.23907,0.19314 0.36665,0.17852l0.01753,0.05032l-0.00751,-0.05178c0.26538,-0.03863 0.44264,-0.40841 0.39545,-0.8237c-0.02359,-0.20942 -0.09958,-0.39943 -0.21317,-0.53494c-0.1092,-0.12966 -0.23927,-0.19314 -0.36686,-0.17853z" fill="#000000"/></g><g stroke="none"><path d="M217.14336,136.47156c0.14964,0.02149 0.27206,0.13271 0.34919,0.29483c0.07691,0.16229 0.10834,0.37543 0.07593,0.60113c-0.03239,0.22571 -0.1225,0.42141 -0.24196,0.5555c-0.11963,0.13386 -0.2684,0.20618 -0.41803,0.18468c-0.14964,-0.02147 -0.27206,-0.1327 -0.3492,-0.29482c-0.07689,-0.16229 -0.10832,-0.37543 -0.07593,-0.60113c0.03242,-0.2257 0.12251,-0.4214 0.24197,-0.5555c0.11963,-0.13387 0.26839,-0.20617 0.41804,-0.1847z" fill="#ffffff"/><g><path d="M217.07624,137.08147c0.11348,0.01628 0.20809,0.08891 0.2691,0.19302c0.06118,0.10434 0.08875,0.24012 0.06831,0.38254c-0.02043,0.14242 -0.08504,0.26497 -0.17308,0.3479c-0.0878,0.08275 -0.19905,0.12586 -0.31251,0.10959c-0.11348,-0.01628 -0.20811,-0.08891 -0.26912,-0.19301c-0.06118,-0.10434 -0.08874,-0.24014 -0.06831,-0.38255c0.02043,-0.14242 0.08506,-0.26497 0.17309,-0.3479c0.08781,-0.08275 0.19905,-0.12586 0.31251,-0.10959z" fill="#3579bc"/><path d="M217.02137,137.40625c0.07544,0.01082 0.13796,0.06026 0.17836,0.13165c0.04018,0.07136 0.05808,0.16442 0.04405,0.26237c-0.01403,0.09797 -0.05731,0.18227 -0.11593,0.23946c-0.05881,0.05718 -0.13271,0.08708 -0.20815,0.07628c-0.07544,-0.0108 -0.13796,-0.06026 -0.17836,-0.13165c-0.04018,-0.07135 -0.05808,-0.1644 -0.04405,-0.26236c0.01403,-0.09798 0.05732,-0.18227 0.11594,-0.23947c0.05881,-0.05718 0.1327,-0.08708 0.20815,-0.07628z" fill="#000000"/><path d="M216.85779,137.30041c0.04051,0.0058 0.07476,0.02886 0.09733,0.06119c0.02255,0.03255 0.03343,0.07441 0.02717,0.11801c-0.00625,0.04361 -0.02845,0.08072 -0.05921,0.10562c-0.03075,0.02471 -0.07011,0.03721 -0.11061,0.0314c-0.04051,-0.0058 -0.07475,-0.02885 -0.09733,-0.06119c-0.02254,-0.03255 -0.03341,-0.0744 -0.02717,-0.11801c0.00627,-0.04361 0.02845,-0.08072 0.05923,-0.10562c0.03075,-0.02471 0.07008,-0.0372 0.1106,-0.0314z" fill="#ffffff"/></g><path d="M216.93149,138.15496l-0.01335,-0.00147c-0.16308,-0.02339 -0.30131,-0.13843 -0.38941,-0.32405c-0.08436,-0.17831 -0.11294,-0.40257 -0.08039,-0.63099c0.06849,-0.47731 0.37832,-0.82244 0.70553,-0.78633c0.17664,0.02507 0.31486,0.14011 0.40298,0.32573c0.08435,0.17831 0.11294,0.40257 0.08039,0.63118c-0.06868,0.47711 -0.37855,0.82225 -0.70573,0.78593zM217.1526,136.51715c-0.27644,-0.0305 -0.54162,0.28209 -0.6007,0.69591c-0.02985,0.20838 -0.00438,0.41154 0.07141,0.57149c0.07267,0.15305 0.18228,0.24721 0.30944,0.26538l0.00438,0.05304l0.00564,-0.05199c0.26621,0.02965 0.5314,-0.28334 0.59049,-0.69717c0.02985,-0.20859 0.00437,-0.41154 -0.07142,-0.57146c-0.07224,-0.15284 -0.18205,-0.24701 -0.30923,-0.26517v0z" fill="#000000"/></g><path d="M212.69688,136.41986c-0.69906,-0.33198 -1.08364,0.42344 -1.08364,0.42344c0.36873,-1.41941 1.08385,-0.42344 1.08364,-0.42344z" fill="#000000" stroke="none"/><path d="M217.59798,136.67186c0,0 -0.38001,-0.66021 -1.07135,-0.36998c0,-0.00023 0.70679,-0.87069 1.07135,0.36998z" fill="#000000" stroke="none"/><g><g stroke="none"><path d="M212.14628,143.1548l2.64964,-1.03209l3.18729,0.63141l-0.00856,3.95085l-2.84068,1.48998l-2.47675,-1.02039l-0.51094,-4.01976" fill="#1f519b"/><path d="M212.14628,143.1548l2.64964,-1.03209l3.20858,0.62993l-3.10877,1.08115l-2.74944,-0.67901" fill="#3579bc"/><path d="M214.89572,143.83381l3.10877,-1.08115l-0.02985,3.95232l-2.84068,1.48998l-0.23824,-4.36114" fill="#2964aa"/><path d="M215.13688,148.25216l-2.52749,-1.04086l-0.51969,-4.09033l2.70141,-1.05253l3.24451,0.64288l-0.00856,4.02519zM212.70523,147.13801l2.42642,0.99951l2.7914,-1.46408l0.00815,-3.87631l-3.13071,-0.62013l-2.59701,1.01162l0.50174,3.94939z" fill="#000000"/></g><path d="M214.06054,142.37118l3.00187,0.70909l0.09792,4.14503c0,0 -1.01141,0.49652 -0.9991,0.48964c0.0119,-0.00648 -0.15534,-4.26718 -0.15534,-4.26718l-2.84193,-0.70741z" fill="#cecece" stroke="#000000"/><path d="M215.82924,142.31335l1.00807,0.20546l-2.91856,1.07363l0.30735,4.28493l-0.84959,-0.35036l-0.35328,-4.15568l2.80601,-1.05798" fill="#cecece" stroke="#000000"/><g><g stroke="none"><path d="M215.64217,142.81759c0.32385,-0.14135 1.67768,-0.69697 2.92024,-0.69697c0.32593,0 0.62116,0.03821 0.88132,0.11358c-0.07057,0.02192 -0.15492,0.05469 -0.24053,0.10231l-0.06598,0.03654l0.05742,0.04886c0.00292,0.00272 0.26871,0.23178 0.36831,0.4554c-0.20232,-0.09209 -0.68066,-0.25808 -1.50438,-0.25808c-0.67441,0 -1.43714,0.11232 -2.26649,0.33344z" fill="#cecece"/><path d="M218.56282,142.17283c-1.15486,0 -2.40661,0.48379 -2.82503,0.66064l0.06807,0.06159c0.82329,-0.21778 1.58101,-0.32803 2.25271,-0.32803c0.67901,0 1.12876,0.11275 1.38412,0.20567c-0.09187,-0.13322 -0.21987,-0.25787 -0.28188,-0.3109l-0.11463,-0.09771l0.13134,-0.07308c0.03174,-0.01754 0.06284,-0.03298 0.09333,-0.04677c-0.21506,-0.0476 -0.45184,-0.07141 -0.70803,-0.07141v0M218.56241,142.06844c0.37604,0 0.74332,0.04968 1.07258,0.17476c0,0 -0.20023,0.02441 -0.40653,0.13905c0,0 0.3798,0.32428 0.41969,0.59822c0,0 -0.47627,-0.30901 -1.58958,-0.30901c-0.57983,0 -1.33233,0.08392 -2.28048,0.33908l-0.23051,-0.20797c0,0 1.56993,-0.73413 3.01482,-0.73413z" fill="#000000"/></g><g stroke="none"><path d="M212.78854,143.43042c-0.4915,0 -0.90263,-0.10502 -1.22521,-0.31278c0.05511,-0.01105 0.11921,-0.03048 0.18541,-0.06409l0.05178,-0.02631l-0.03172,-0.04865c-0.00188,-0.00292 -0.16349,-0.25307 -0.22364,-0.48566c0.22676,0.18771 0.807,0.55143 1.90507,0.55143c0.25055,0 0.51677,-0.01941 0.79133,-0.05803l0.09794,0.15804c-0.19565,0.07037 -0.85335,0.28607 -1.55095,0.28607z" fill="#cecece"/><path d="M211.64831,142.63406c0.0549,0.13426 0.12694,0.2587 0.16431,0.31591l0.06369,0.09751l-0.10376,0.05262c-0.02652,0.01338 -0.05283,0.02485 -0.07831,0.03446c0.29753,0.16181 0.66418,0.24368 1.09451,0.24368c0.6291,0 1.22627,-0.1779 1.47224,-0.26162l-0.04615,-0.07391c-0.26497,0.03592 -0.52198,0.05387 -0.76482,0.05387c-0.93729,0 -1.50605,-0.26349 -1.8017,-0.46247M211.47103,142.35073c0,0 0.53787,0.64143 1.97898,0.64121c0.24576,0 0.51781,-0.01859 0.81786,-0.06223l0.14928,0.24137c0,0 -0.77903,0.31153 -1.62841,0.31153c-0.47584,0 -0.97341,-0.09771 -1.36886,-0.40234c0,0 0.00355,0.00021 0.01022,0.00021c0.03571,0 0.16078,-0.00522 0.29504,-0.0735c0,0 -0.24784,-0.37959 -0.25411,-0.65624z" fill="#000000"/></g><path d="M214.74726,142.55764c0,0 0.70177,-0.63413 0.95379,-0.96547c0.25201,-0.33116 0.87403,-0.66022 0.98406,-0.29483c0.11005,0.36518 0.1044,0.33532 0.34452,0.50194c0.24053,0.16662 0.4295,0.631 -0.26914,0.93416c-0.69863,0.30297 -1.36782,0.39921 -1.78208,0.36873c-0.41384,-0.03048 -0.35538,-0.43117 -0.23115,-0.54453z" fill="#cecece" stroke="#000000"/><path d="M214.36538,143.00238c-0.29838,0.00312 -1.10872,-0.05011 -1.45282,-0.17497c-0.34431,-0.12466 -0.57897,-0.23929 -0.40882,-0.42971c0.17017,-0.19041 0.42616,-0.26892 0.5955,-0.53347c0.16955,-0.26434 0.41759,0.04552 0.62137,0.15367c0.20337,0.10795 0.61115,0.49318 0.61115,0.49318c0.16244,0.10961 0.33241,0.48837 0.03362,0.4913z" fill="#cecece" stroke="#000000"/><path d="M214.24928,142.6658c-0.02129,-0.18165 0.21068,-0.22362 0.484,-0.19001c0.27247,0.03383 0.03716,0.16307 0.15533,0.36435c0.11819,0.20106 0.1117,0.299 0.0403,0.32488c-0.38586,0.13907 -0.46623,0.06578 -0.60239,0.00147c-0.19897,-0.09417 -0.05678,-0.31883 -0.07724,-0.50069z" fill="#cecece" stroke="#000000"/></g></g><g><g stroke="none"><path d="M212.43067,134.97413c0.03382,-0.65394 0.59193,-1.1227 0.50674,-2.01739c-0.08623,-0.89469 0.03007,-1.73322 0.26726,-1.92448c0.23614,-0.19148 0.35955,0.24409 0.4295,0.36791c0.09208,0.16327 0.80032,1.06444 2.16167,2.05226c1.36218,0.9878 1.06486,2.2216 1.06486,2.2216c-2.22097,-1.35947 -4.43003,-0.69989 -4.43003,-0.69989z" fill="#3579bc"/><g fill="#1f519b"><path d="M216.85194,135.00023c0,0 -1.86246,-1.38223 -4.27574,-0.59444l0.17414,-0.3821c0,0 1.86727,-0.66941 3.97571,0.55289z"/><path d="M216.13639,133.70611c0,0 -1.83596,-0.79468 -3.16036,-0.17957l-0.02735,-0.33429c0,0 1.42567,-0.5652 2.69995,0.06452z"/><path d="M214.38981,132.36647c0,0 -0.99659,-0.13049 -1.39726,0.40528l-0.08268,-0.31132c0,0 0.27498,-0.5412 1.25444,-0.39337l0.25536,0.32886"/><path d="M213.63418,131.40016c0,0 -0.49777,0.01775 -0.66649,0.30024l0.10042,-0.37876l0.50904,-0.19878z"/></g><path d="M216.9058,135.78384l-0.08206,-0.05011c-0.67858,-0.4155 -1.42524,-0.68213 -2.21888,-0.79238c-1.22564,-0.17017 -2.14519,0.0973 -2.15437,0.10002l-0.095,0.02818l0.00482,-0.09876c0.01483,-0.28876 0.12485,-0.53661 0.24074,-0.79906c0.15429,-0.34828 0.3136,-0.70887 0.26578,-1.20789c-0.07768,-0.80658 -0.00167,-1.74763 0.29315,-1.98565c0.0616,-0.04969 0.12423,-0.07015 0.18583,-0.0616c0.1568,0.02172 0.24512,0.22028 0.30881,0.36497c0.01503,0.03425 0.02818,0.0641 0.03988,0.08457c0.07015,0.12508 0.76525,1.03105 2.14185,2.03013c1.38369,1.00369 1.0941,2.28173 1.09179,2.29448l-0.02235,0.09311zM213.3266,131.0548c-0.02213,-0.00312 -0.04781,0.00773 -0.07808,0.03195c-0.18813,0.1516 -0.33408,0.90702 -0.24201,1.8633c0.05137,0.53557 -0.12297,0.92999 -0.27728,1.27783c-0.09689,0.21945 -0.18917,0.42804 -0.22028,0.65312c0.27332,-0.06577 1.07949,-0.22236 2.11555,-0.07829c0.77818,0.10816 1.51251,0.3633 2.1838,0.75857c0.03758,-0.30275 0.05095,-1.25133 -1.05379,-2.05226c-1.4146,-1.02685 -2.10447,-1.93763 -2.18151,-2.07482c-0.01335,-0.02339 -0.0284,-0.05721 -0.04551,-0.09625c-0.04239,-0.09501 -0.12026,-0.27187 -0.20087,-0.28314z" fill="#000000"/></g><path d="M213.19838,131.197c-0.13754,-0.01915 -0.25463,-0.08961 -0.33311,-0.1878c-0.07823,-0.09838 -0.11762,-0.22444 -0.09944,-0.35514c0.01819,-0.1307 0.09049,-0.24124 0.19259,-0.31451c0.10229,-0.07305 0.23418,-0.10889 0.37171,-0.08975c0.13754,0.01912 0.25465,0.0896 0.33311,0.1878c0.07823,0.09837 0.11761,0.22444 0.09943,0.35514c-0.01817,0.1307 -0.09049,0.24123 -0.19259,0.31452c-0.10229,0.07304 -0.23418,0.10888 -0.37171,0.08975z" fill="#ffffff" stroke="#000000"/><g stroke="none"><path d="M216.71935,135.88804c-2.68262,-0.91078 -4.42608,0.147 -4.42608,0.147c0,0 -0.2134,0.09395 -0.28501,0.09646c-0.31695,0.01064 0.01879,-0.58756 0.01879,-0.58756c-0.26225,-0.31091 0.31174,-0.69091 0.60677,-0.83936c0.29564,-0.14865 0.67609,-0.30046 1.84493,-0.35307c1.16989,-0.05262 2.25667,0.41195 2.45858,0.58463c0.2017,0.17309 0.01295,0.38857 0.01295,0.38857c0.59944,0.87319 -0.23115,0.56314 -0.23094,0.56335z" fill="#ffffff"/><path d="M211.94959,135.54666c-0.04928,-0.07267 -0.06515,-0.15263 -0.04781,-0.23824c0.06618,-0.3207 0.59361,-0.60072 0.69821,-0.65354c0.30338,-0.15262 0.69738,-0.30609 1.86748,-0.35871l0.04845,-0.00187c1.16488,-0.03883 2.23767,0.41946 2.44897,0.59987c0.06849,0.05888 0.10608,0.12863 0.11129,0.20733c0.0069,0.09334 -0.03465,0.17518 -0.06452,0.22113c0.16475,0.20295 0.22113,0.3846 0.16767,0.54057c-0.09082,0.26371 -0.52763,0.06389 -0.52763,0.06389c-0.7715,-0.25723 -1.53779,-0.37498 -2.27922,-0.35036c-1.14441,0.03801 -1.88336,0.40903 -2.03222,0.49025c0,0 -0.23803,0.11609 -0.32948,0.11609c-0.10356,0.00021 -0.14928,-0.06723 -0.17288,-0.15868c-0.04802,-0.18145 0.06326,-0.39525 0.1117,-0.47772zM211.94522,135.99577c0.05218,0.14158 0.31026,-0.00855 0.31026,-0.00855c0.03195,-0.01963 0.80241,-0.47814 2.11345,-0.52179c0.76753,-0.02547 1.562,0.09877 2.35961,0.36957l0.03989,0.01376c0,0 0.25702,0.1207 0.30589,-0.02254c0.04279,-0.12423 -0.01629,-0.28105 -0.17498,-0.46541l-0.03131,-0.03655c0,0 -0.08604,-0.10211 -0.26226,-0.17957c0,0 0.14575,-0.00375 0.31695,0.10941c0.02088,-0.03298 0.04761,-0.08601 0.04323,-0.14511c-0.00375,-0.04845 -0.02735,-0.09125 -0.07391,-0.13049c-0.17643,-0.1516 -1.22668,-0.61157 -2.37215,-0.57358l-0.04739,0.00188c-1.14775,0.05199 -1.52945,0.19982 -1.8226,0.34723c-0.28897,0.14533 -0.59904,0.38023 -0.63891,0.57649c-0.01086,0.05117 0.00272,0.09771 0.02965,0.14261c0.15346,-0.10733 0.28793,-0.11318 0.28793,-0.11318c-0.17079,0.08874 -0.24973,0.19648 -0.24973,0.19648l-0.00292,-0.00021l-0.01252,0.01899c-0.04574,0.06765 -0.17101,0.27874 -0.11818,0.42052z" fill="#000000"/></g></g><g stroke="none"><path d="M210.97054,147.51846c-1.0421,0.17831 -1.86831,0.08518 -2.45545,-0.27644l-0.10982,-0.06765l0.03195,0.12506c0.00248,0.00982 0.04802,0.18606 0.13779,0.33491c-0.25744,-0.09417 -0.75228,-0.32822 -0.93102,-0.7834l-0.10064,0.01837c0,0.01358 -0.00335,0.27081 0.05095,0.48587c-0.28021,-0.21318 -0.89177,-0.71701 -0.96486,-1.10181l-0.00877,-0.04719c-0.09959,-0.51825 -0.23594,-1.22836 0.73476,-3.07579c0.47376,-0.90201 1.45845,-2.7768 1.68353,-2.82314c0.00021,0.00292 0.0069,0.01586 0.01045,0.04885c0.05658,0.49444 -0.01231,1.86832 -0.34285,3.37417l-0.00918,0.04217l0.03925,0.01712c0.04426,0.0192 1.10767,0.46353 3.19106,0.1069c0.00021,0 0.00041,0 0.00041,0c0.10042,-0.01733 0.20316,-0.03632 0.3084,-0.05741l0.10981,0.475l0.02776,0.0094c0.02716,0.00897 0.67275,0.223 1.35447,0.18605c0.35913,-0.01963 0.55686,0.13801 0.58922,0.29251c0.03091,0.1495 -0.0877,0.29377 -0.30923,0.37584c-0.17331,0.06431 -0.33365,0.10899 -0.47627,0.13362c-0.2324,0.03968 -0.33867,0.01086 -0.33991,0.01045l-0.04531,0.09228c0.01588,0.01169 0.39609,0.28563 0.7308,0.36331c0.23405,0.05428 0.41863,0.1568 0.48273,0.26747c0.02359,0.04008 0.02902,0.07849 0.01712,0.11735c-0.04531,0.15012 -0.12445,0.30901 -0.36582,0.35036c-0.10858,0.01858 -0.24241,0.01191 -0.39775,-0.02025l-0.11755,-0.02442l0.06243,0.1025c0,0 0.01087,0.02194 -0.00187,0.05492c-0.0142,0.03738 -0.06785,0.11068 -0.26518,0.18417c-0.03048,0.01128 -0.07495,0.02924 -0.13238,0.05221c-0.36873,0.14741 -1.23252,0.49275 -2.18902,0.65667z" fill="#cce2ea"/><path d="M213.54062,145.36241c-0.25161,0.04301 -0.36309,0.00918 -0.36309,0.00918c0,0 0.38355,0.27854 0.71178,0.35474c0.32822,0.07622 0.59736,0.25536 0.53828,0.45081c-0.04281,0.14156 -0.12508,0.33866 -0.40737,0.38668c-0.10711,0.01837 -0.24325,0.01524 -0.41718,-0.02067c0,0 0.10231,0.16787 -0.29314,0.31508c-0.223,0.08291 -1.21876,0.52095 -2.33102,0.71137c-0.86191,0.14721 -1.79398,0.14637 -2.49158,-0.28333c0,0 0.0808,0.31717 0.23573,0.44975c0,0 -0.85963,-0.20714 -1.12312,-0.85606h-0.00459c-0.00041,0.05135 0.00105,0.42864 0.10775,0.61992c0,0 -1.02562,-0.71158 -1.12521,-1.23734c-0.09959,-0.52575 -0.27791,-1.23671 0.7308,-3.1568c0.85566,-1.62904 1.51106,-2.81438 1.72278,-2.85049c0.0378,-0.00647 0.0616,0.0238 0.06952,0.09458c0.05345,0.4675 -0.00145,1.8324 -0.34389,3.39149c0,0 1.06946,0.46124 3.16182,0.10337c0.11628,-0.01984 0.23488,-0.04219 0.35684,-0.06723l0.11504,0.49609c0,0 0.65541,0.22028 1.33485,0.18354c0.67943,-0.03674 0.89888,0.54788 0.30108,0.76941c-0.19897,0.07393 -0.35975,0.11463 -0.48607,0.13594zM213.20822,145.27221c0.00021,-0.00021 0.09959,0.02464 0.31548,-0.01231c0.13948,-0.0238 0.29671,-0.06785 0.46708,-0.13092c0.19545,-0.07265 0.30151,-0.19376 0.27582,-0.31631c-0.02862,-0.1376 -0.22152,-0.26788 -0.53514,-0.25099c-0.69132,0.03738 -1.34632,-0.17957 -1.37388,-0.18875l-0.05533,-0.01858l-0.36331,-0.11087l0.34013,0.01023l-0.08206,-0.35371c-0.08853,0.01733 -0.17517,0.03322 -0.26037,0.04783c-2.09862,0.35913 -3.1756,-0.09104 -3.22027,-0.11046l-0.02172,-0.00918c-0.19209,-0.05742 -0.49339,-0.30547 -0.49339,-0.30547c0.15263,0.06118 0.34389,0.13593 0.4579,0.18039c0.31905,-1.46094 0.39128,-2.79224 0.34221,-3.30754c-0.30171,0.28794 -1.2012,2.00048 -1.5998,2.75925c-0.96173,1.83116 -0.82766,2.53083 -0.72953,3.04154l0.00898,0.04739c0.05785,0.30589 0.50655,0.72286 0.83519,0.98532c-0.02652,-0.17225 -0.02505,-0.33282 -0.02463,-0.36079c0,0 0.00272,-0.39778 0.03319,-0.54873c0,0 0.06598,0.3203 0.16851,0.51239c0.07099,0.13322 0.11107,0.19898 0.12945,0.22739c0.17685,0.23614 0.44077,0.38794 0.64225,0.47521c-0.04802,-0.10794 -0.07349,-0.20337 -0.0781,-0.22214l-0.06367,-0.24973l0.21943,0.1351c0.57627,0.35474 1.38996,0.44535 2.41934,0.26913c0.95108,-0.16264 1.8111,-0.50633 2.17859,-0.65353c0.05785,-0.02297 0.10274,-0.04092 0.13341,-0.05242c0.28751,-0.0973 0.23031,-0.20963 0.23657,-0.22779l-0.00251,-0.00272c-0.40173,-0.05972 -0.82872,-0.28522 -0.82872,-0.28522l0.7051,0.15534l0.00417,0.00668l0.00585,0.00375l-0.01002,-0.01042l0.24033,0.04092c0.14886,0.03069 0.27644,0.03737 0.37854,0.02004c0.21277,-0.03654 0.28209,-0.17267 0.3249,-0.31423c0.00438,-0.01546 0.00856,-0.0403 -0.01231,-0.07621c-0.05595,-0.09709 -0.2328,-0.19231 -0.44954,-0.24263c-0.34515,-0.08018 -0.73351,-0.36018 -0.74979,-0.37208l-0.11108,-0.08582l-0.64183,-0.15388c0,0 0.76043,0.05407 0.84459,0.05554z" fill="#000000"/></g><g stroke="none"><path d="M225.66171,146.62479c-0.16955,0.42365 -0.75668,0.56813 -1.05694,0.67254c-0.30024,0.10439 -0.45684,0.27394 -0.45684,0.27394c-0.1827,-0.20879 -0.20879,-0.43054 -0.20879,-0.43054l-0.20879,0.31321c-0.43074,-0.54809 -0.35245,-0.82913 -0.35245,-0.82913c-0.15659,0.05826 -0.33928,0.39859 -0.33928,0.39859c-2.02262,-1.42232 -2.83171,-3.54078 -2.83171,-3.54078c-0.88739,-0.00438 -1.24255,-0.62806 -1.24255,-0.62806c-0.3942,-0.2017 -0.17977,-0.50404 -0.17977,-0.50404c-0.08643,-0.09248 -0.12757,-0.17621 -0.13782,-0.25286c-0.4487,0.09438 -0.36704,-0.26809 -0.36704,-0.26809c0.22988,-0.55352 1.0757,-0.5961 1.49374,-0.58192c0.23113,-0.09562 0.41424,-0.15199 0.41424,-0.15199c0,0 -0.65938,-1.32628 -0.75083,-1.74555c-0.06785,-0.31027 1.05694,-0.27394 3.7713,2.17942c2.71436,2.45338 2.62312,4.67162 2.45357,5.09528z" fill="#cce2ea"/><path d="M225.70993,146.64379c-0.15952,0.39778 -0.65081,0.55874 -0.97592,0.66503c-0.04071,0.01357 -0.07871,0.02567 -0.11254,0.03757c-0.28312,0.09835 -0.43431,0.25849 -0.43555,0.26017l-0.03945,0.04238l-0.03842,-0.04322c-0.10691,-0.12236 -0.16266,-0.24827 -0.19211,-0.3372l-0.1827,0.27394l-0.04448,-0.05658c-0.29128,-0.37082 -0.35724,-0.62765 -0.36748,-0.76336c-0.09668,0.08728 -0.19898,0.25411 -0.23699,0.3253l-0.02818,0.05198l-0.04802,-0.03382c-1.8748,-1.31834 -2.72335,-3.25556 -2.83714,-3.5318c-0.81974,-0.01837 -1.18513,-0.54539 -1.24422,-0.64017c-0.13467,-0.07182 -0.21653,-0.16412 -0.24387,-0.27435c-0.02736,-0.11171 0.01064,-0.21109 0.03674,-0.26244c-0.06263,-0.07391 -0.10022,-0.14679 -0.11735,-0.21819c-0.06473,0.0119 -0.16264,0.02004 -0.2401,-0.01629c-0.12611,-0.05929 -0.24514,-0.19439 -0.07831,-0.44077c0.32447,-0.4792 1.39832,-0.51406 1.55365,-0.51657c0.11776,-0.04634 0.21736,-0.08121 0.27644,-0.10064c-0.12674,-0.25744 -0.64622,-1.32628 -0.72827,-1.70337c-0.01065,-0.04739 -0.00125,-0.09061 0.02652,-0.12508c0.03966,-0.04906 0.11065,-0.07391 0.21087,-0.07391c0.50655,0 1.72426,0.61511 3.62012,2.3283c2.73441,2.47174 2.63731,4.72759 2.46673,5.15311zM219.21072,141.46459c0.04719,-0.02463 0.09292,-0.04844 0.1353,-0.07182c0.07622,-0.04218 0.15493,-0.08122 0.23156,-0.11672c-0.72578,0.08018 -0.92121,0.2184 -1.01455,0.28333c-0.06515,0.04531 -0.24868,0.13574 -0.23156,0.36624c0.0119,0.15765 0.16474,0.14803 0.26141,0.12654c0.00041,-0.01545 -0.00125,-0.03091 0.00167,-0.04594c0.04113,-0.24137 0.34661,-0.4011 0.61616,-0.54162zM223.17263,141.56815c-1.87917,-1.69855 -3.08706,-2.30135 -3.54997,-2.30135c-0.06367,0 -0.11212,0.01315 -0.12966,0.03487c-0.00438,0.00605 -0.01002,0.01628 -0.00564,0.03737c0.0806,0.37104 0.62431,1.48561 0.72787,1.69607c0.16932,-0.04448 0.4869,-0.05929 0.68965,-0.00272c0.27937,0.07788 2.74651,1.12353 3.94711,2.91125c0,0 -0.90702,-0.96547 -1.97711,-1.69647c-0.55143,-0.37646 -1.6211,-1.00305 -1.89879,-1.08219c-0.16266,-0.04657 -0.3748,-0.12674 -0.74541,-0.02798c0,0 -0.00647,0.00186 -0.01586,0.00479l-0.01233,0.00377c-0.00438,0.00125 -0.43701,0.13445 -0.80616,0.33804c-0.04322,0.0238 -0.08957,0.04802 -0.13738,0.07307c-0.23575,0.12319 -0.5293,0.27644 -0.56187,0.46687c-0.01358,0.0781 0.01858,0.16119 0.09248,0.25202c0.63829,-0.64163 1.05589,-0.6243 1.05589,-0.6243c-0.51886,0.21234 -0.99471,0.69466 -0.99471,0.69466l-0.02444,0.03487c-0.00041,0.00104 -0.06973,0.10231 -0.04155,0.21506c0.02046,0.08268 0.0783,0.18248 0.20275,0.21234c0.22467,0.05387 0.48358,0.08728 1.23191,-0.10858c0,0 0.10441,0.42574 0.7047,0.69363c0,0 -0.46124,-0.05408 -0.75271,-0.53264c0,0 -0.66563,0.17831 -1.09138,0.06535c0.13988,0.16955 0.49483,0.50133 1.12646,0.50447l0.03592,0.00021l0.01273,0.03341c0.00815,0.02088 0.81493,2.08734 2.76615,3.48357c0.06076,-0.10314 0.20191,-0.3207 0.33804,-0.37146l0.09585,-0.03571l-0.02737,0.09856c-0.00041,0.00187 -0.05616,0.24931 0.29942,0.72535l0.24638,-0.36957l0.01712,0.13989c0,0.00209 0.02359,0.18082 0.1614,0.36059c0.06765,-0.05951 0.21359,-0.16996 0.43513,-0.24701c0.03465,-0.01212 0.07307,-0.02463 0.1142,-0.03821c0.30673,-0.10022 0.77026,-0.25202 0.9114,-0.60447c0.16515,-0.41258 0.25057,-2.60578 -2.44021,-5.03743z" fill="#000000"/></g></g><text transform="translate(185.71925,52.67117) scale(0.30296,0.30296)" font-size="40" xml:space="preserve" fill="#000000" fill-rule="nonzero" stroke="#000000" stroke-width="1" stroke-linecap="butt" stroke-linejoin="miter" stroke-miterlimit="10" stroke-dasharray="" stroke-dashoffset="0" font-family="Handwriting" font-weight="normal" text-anchor="start" style="mix-blend-mode: normal"></text></g></g></svg>