<svg version="1.1" xmlns="http://www.w3.org/2000/svg" xmlns:xlink="http://www.w3.org/1999/xlink" width="111.99031" height="171.69534" viewBox="0,0,111.99031,171.69534"><defs><linearGradient x1="240.77312" y1="27.50075" x2="240.77312" y2="251.63471" gradientUnits="userSpaceOnUse" id="color-1"><stop offset="0" stop-color="#000000"/><stop offset="1" stop-color="#000000" stop-opacity="0"/></linearGradient></defs><g transform="translate(-183.39206,-45.44701)"><g data-paper-data="{&quot;isPaintingLayer&quot;:true}" fill-rule="nonzero" stroke-linecap="butt" stroke-linejoin="miter" stroke-miterlimit="10" stroke-dasharray="" stroke-dashoffset="0" style="mix-blend-mode: normal"><path d="M295.3816,179.63574c0.09468,2.35783 -8.51622,8.86158 -53.3709,8.86158c-44.85468,0 -57.37805,-5.5517 -57.39306,-9.34723c-0.01296,-3.27688 11.61018,-7.6474 56.46486,-7.6474c44.85468,0 54.21248,5.97629 54.2991,8.13305z" fill="url(#color-1)" stroke="none" stroke-width="0"/><text transform="translate(210.89352,209.31979) scale(0.46015,0.46015)" font-size="40" xml:space="preserve" fill="#000000" fill-rule="nonzero" stroke="#000000" stroke-width="1" stroke-linecap="butt" stroke-linejoin="miter" stroke-miterlimit="10" stroke-dasharray="" stroke-dashoffset="0" font-family="Handwriting" font-weight="normal" text-anchor="start" style="mix-blend-mode: normal"></text><text transform="translate(183.6667,64.39723) scale(0.49869,0.49869)" font-size="40" xml:space="preserve" fill="#000000" fill-rule="nonzero" stroke="#000000" stroke-width="1" stroke-linecap="butt" stroke-linejoin="miter" stroke-miterlimit="10" stroke-dasharray="" stroke-dashoffset="0" font-family="Handwriting" font-weight="normal" text-anchor="start" style="mix-blend-mode: normal"></text><g stroke="none" stroke-width="0"><path d="M184.93389,162.99362c-0.51485,-16.48074 -1.30043,-42.15776 -1.53863,-52.84703c-0.20663,-9.27232 9.61206,-21.79818 17.79751,-22.22091c13.18871,-0.68109 52.98888,-3.52125 74.33103,-4.76787c8.19266,-0.47854 16.34621,9.3126 16.55911,17.55176c0.28662,11.09241 0.48578,41.46581 1.28291,60.89504c0.42472,10.35237 -8.70177,17.15026 -14.84857,17.06409c-12.76412,-0.17893 -59.86297,-0.55958 -81.77078,-0.73224c-6.93359,-0.05464 -11.54042,-6.23074 -11.81258,-14.94284z" fill="#e6f4fa"/><path d="M194.3639,161.02899c-0.33372,-10.68292 -0.84295,-27.32689 -0.99735,-34.25572c-0.13394,-6.01037 6.23058,-14.1297 11.53644,-14.40371c8.54899,-0.44149 34.34768,-2.28249 48.1818,-3.09055c5.31053,-0.31019 10.5957,6.03648 10.73371,11.37714c0.18579,7.19017 0.31488,26.87837 0.83158,39.4725c0.27531,6.71047 -5.64052,11.1169 -9.62492,11.06104c-8.27377,-0.11599 -38.80352,-0.36273 -53.00428,-0.47465c-4.49439,-0.03542 -7.48056,-4.0388 -7.65698,-9.68605z" fill="#fafdff"/></g></g></g></svg>