<svg version="1.1" xmlns="http://www.w3.org/2000/svg" xmlns:xlink="http://www.w3.org/1999/xlink" width="110.24164" height="174.4261" viewBox="0,0,110.24164,174.4261"><defs><linearGradient x1="240.76948" y1="58.29922" x2="240.76948" y2="237.16742" gradientUnits="userSpaceOnUse" id="color-1"><stop offset="0" stop-color="#000000"/><stop offset="1" stop-color="#000000" stop-opacity="0"/></linearGradient><linearGradient x1="238.64522" y1="80.00001" x2="238.64522" y2="180.50001" gradientUnits="userSpaceOnUse" id="color-2"><stop offset="0" stop-color="#ad5032"/><stop offset="1" stop-color="#651d1d"/></linearGradient></defs><g transform="translate(-184.87917,-33.1497)"><g data-paper-data="{&quot;isPaintingLayer&quot;:true}" fill-rule="nonzero" stroke-linecap="butt" stroke-linejoin="miter" stroke-miterlimit="10" stroke-dasharray="" stroke-dashoffset="0" style="mix-blend-mode: normal"><path d="M295.12005,179.7093c0.09422,1.88165 -8.47599,7.07192 -53.11886,7.07192c-44.64286,0 -57.10709,-4.43047 -57.12201,-7.45949c-0.0129,-2.6151 11.55535,-6.10294 56.19819,-6.10294c44.64286,0 53.95646,4.76932 54.04268,6.49051z" fill="url(#color-1)" stroke="none" stroke-width="0"/><text transform="translate(222.62806,202.72801) scale(0.28942,0.28942)" font-size="40" xml:space="preserve" fill="#000000" fill-rule="nonzero" stroke="#000000" stroke-width="0.5" stroke-linecap="butt" stroke-linejoin="miter" stroke-miterlimit="10" stroke-dasharray="" stroke-dashoffset="0" font-family="Handwriting" font-weight="normal" text-anchor="start" style="mix-blend-mode: normal"></text><text transform="translate(193.30191,66.00206) scale(0.23622,0.23622)" font-size="40" xml:space="preserve" fill="#000000" fill-rule="nonzero" stroke="#000000" stroke-width="1" stroke-linecap="butt" stroke-linejoin="miter" stroke-miterlimit="10" stroke-dasharray="" stroke-dashoffset="0" font-family="Handwriting" font-weight="normal" text-anchor="start" style="mix-blend-mode: normal"></text><text transform="translate(189.9934,42.16938) scale(0.23736,0.23736)" font-size="40" xml:space="preserve" fill="#000000" fill-rule="nonzero" stroke="#000000" stroke-width="1" stroke-linecap="butt" stroke-linejoin="miter" stroke-miterlimit="10" stroke-dasharray="" stroke-dashoffset="0" font-family="Handwriting" font-weight="normal" text-anchor="start" style="mix-blend-mode: normal"></text><path d="M213.41299,180.50001v-100.5h20.10765l4.9032,34.44178l-4.68841,31.73082l6.31843,32.88266l1.97031,0.32569l-6.61001,-33.51391l4.89692,-31.49683l-4.15377,-33.70356l27.72013,-0.66667v100.5z" fill="url(#color-2)" stroke="none" stroke-width="0"/><path d="M229.13333,80.36668v-8h4.33333v8z" fill="#b8af82" stroke="none" stroke-width="0"/></g></g></svg>