<svg version="1.1" xmlns="http://www.w3.org/2000/svg" xmlns:xlink="http://www.w3.org/1999/xlink" width="129.28777" height="171.13828" viewBox="0,0,129.28777,171.13828"><defs><linearGradient x1="260.88471" y1="89.48111" x2="260.88471" y2="221.29546" gradientUnits="userSpaceOnUse" id="color-1"><stop offset="0" stop-color="#000000"/><stop offset="1" stop-color="#000000" stop-opacity="0"/></linearGradient><linearGradient x1="269.27843" y1="98.59742" x2="269.27843" y2="144.42865" gradientUnits="userSpaceOnUse" id="color-2"><stop offset="0" stop-color="#f0c579"/><stop offset="1" stop-color="#fbf8ea"/></linearGradient></defs><g transform="translate(-192.65815,-45.05853)"><g data-paper-data="{&quot;isPaintingLayer&quot;:true}" stroke-linecap="butt" stroke-linejoin="miter" stroke-miterlimit="10" stroke-dasharray="" stroke-dashoffset="0" style="mix-blend-mode: normal"><path d="M291.00001,178.95247c0.05221,1.38665 -4.6965,5.21154 -29.43281,5.21154c-24.73631,0 -31.64266,-3.26498 -31.65094,-5.49716c-0.00715,-1.92715 6.40275,-4.49747 31.13906,-4.49747c24.73631,0 29.89692,3.51469 29.94469,4.78309z" fill="url(#color-1)" fill-rule="nonzero" stroke="none" stroke-width="0"/><text transform="translate(192.88822,62.54423) scale(0.46015,0.46015)" font-size="40" xml:space="preserve" fill="#000000" fill-rule="nonzero" stroke="#000000" stroke-width="1" stroke-linecap="butt" stroke-linejoin="miter" stroke-miterlimit="10" stroke-dasharray="" stroke-dashoffset="0" font-family="Handwriting" font-weight="normal" text-anchor="start" style="mix-blend-mode: normal"></text><text transform="translate(241.79465,208.37426) scale(0.46015,0.46015)" font-size="40" xml:space="preserve" fill="#000000" fill-rule="nonzero" stroke="#000000" stroke-width="1" stroke-linecap="butt" stroke-linejoin="miter" stroke-miterlimit="10" stroke-dasharray="" stroke-dashoffset="0" font-family="Handwriting" font-weight="normal" text-anchor="start" style="mix-blend-mode: normal"></text><g><path d="M263.12228,178.28967c2.87133,-7.05529 7.29576,-4.95334 7.29576,-4.95334c4.61483,1.67314 7.57517,4.95334 7.57517,4.95334h-14.87093" fill="#e3a066" fill-rule="nonzero" stroke="none" stroke-width="1"/><path d="M270.14989,173.23648c4.61482,1.67271 7.84332,5.05319 7.84332,5.05319h-15.15034" fill="none" fill-rule="evenodd" stroke="#8d6a4a" stroke-width="0.5"/><path d="M258.35139,178.28967c3.30733,-3.37019 8.71426,-3.9984 8.71426,-3.9984c4.61482,1.67324 6.15667,3.9984 6.15667,3.9984h-14.87094" fill="#e3a066" fill-rule="nonzero" stroke="none" stroke-width="1"/><path d="M267.06566,174.29127c4.61482,1.67324 6.15667,3.9984 6.15667,3.9984h-15.15035" fill="none" fill-rule="evenodd" stroke="#8d6a4a" stroke-width="0.5"/><path d="M268.32863,83.92505c3.68703,4.07767 -0.60333,9.03208 -0.60333,9.03208c0,0 -1.507,2.99918 0.41348,3.86079c0.02628,14.34933 -0.67037,44.12436 -0.67037,44.62472c0,0.71885 1.60889,30.0171 1.76495,30.57903c0.25903,0.93123 1.18467,1.77514 1.18467,1.77514c-1.45229,-0.18009 -2.61444,-1.59558 -2.61444,-1.59558c0.35771,1.25804 1.63142,2.08952 1.63142,2.08952c-1.09511,-0.13215 -2.19023,-0.04859 -2.68202,-0.04527c-0.44673,0.00161 -6.16686,1.43749 -8.4016,4.04421h-13.49695c-0.26815,0 -11.61938,-11.95252 -11.97709,-26.06246c-0.35771,-14.10994 3.49987,-27.70331 6.43555,-34.00736c3.40816,-7.32054 9.10576,-21.21048 9.50798,-22.86217c0.40222,-1.65104 0.01502,-8.3661 2.59621,-11.70283c1.79337,-2.31862 5.30289,-3.43701 7.6272,-3.43701c2.32377,0 7.23677,1.44242 9.28435,3.70719" fill="#3e5766" fill-rule="nonzero" stroke="none" stroke-width="1"/><path d="M268.76228,97.59737c0,0 2.24761,3.04937 3.95732,6.68374c3.75407,8.31269 6.1674,20.64802 4.83095,35.41041c-1.23241,13.61601 -2.3951,22.35419 -6.37387,29.28431c-0.54541,0.9501 1.56544,2.16932 1.56544,2.16932c-0.894,0 -2.08029,0.10951 -2.08029,0.10951c0.08902,1.12365 1.94622,1.46291 1.94622,1.46291c-2.56993,1.25847 -3.32986,-0.52632 -3.32986,-0.52632c0.42475,1.04503 1.02379,1.58636 1.02379,1.58636c-0.71542,0.04484 -2.4986,-1.57606 -2.4986,-1.57606c0,1.21321 1.63142,2.08941 1.63142,2.08941c-10.62562,0.06907 -15.64213,-12.89662 -14.83769,-16.58119c0.80444,-3.68445 8.22356,-39.36398 8.70086,-47.2723c0.47677,-7.90886 5.46431,-12.84009 5.46431,-12.84009" fill="#fbf8ea" fill-rule="nonzero" stroke="none" stroke-width="1"/><path d="M263.47966,108.19682c0.35781,-9.98217 4.6588,-11.37879 4.6588,-11.37879l1.78158,2.40604c-3.38338,0.43837 -6.44456,9.09407 -6.44038,8.97276" fill="#f0c579" fill-rule="nonzero" stroke="none" stroke-width="1"/><path d="M269.08896,98.59742c0,0 2.24761,3.04938 3.95732,6.68375c3.75407,8.31269 6.1674,20.64802 4.83095,35.41041c-0.54402,6.01039 -14.42418,4.43541 -16.62507,-2.32619c-2.78511,-8.55641 1.44845,-22.29132 1.71507,-26.70875c0.47677,-7.90886 6.12174,-13.05922 6.12174,-13.05922" fill="url(#color-2)" fill-rule="nonzero" stroke="none" stroke-width="1"/><path d="M267.24499,94.26011c0,0 -0.48266,1.05747 0.13407,1.70778c0.76744,0.80884 12.46083,12.82057 10.27928,42.32926c-1.78812,24.17513 -5.798,29.08363 -6.24956,30.07803c-0.30076,0.66157 -0.82257,1.69094 1.33323,2.76943c0,0 -1.33044,0.16603 -2.08029,0.11004c0,0 0.50529,1.01317 1.94621,1.46291c0,0 -0.71478,0.97327 -3.12811,0.25453" fill="none" fill-rule="evenodd" stroke="#d1c1b5" stroke-width="0.5"/><path d="M269.23358,172.02166c0.20111,0.94528 1.18414,1.77514 1.18414,1.77514c-1.45229,-0.18009 -2.61444,-1.59558 -2.61444,-1.59558c0.35771,1.25804 1.63141,2.08952 1.63141,2.08952c-1.09511,-0.13215 -2.19023,-0.04859 -2.68148,-0.04527c-0.44673,0.00161 -6.1674,1.43749 -8.40203,4.04421h-13.49652c-0.26815,0 -11.61992,-11.95252 -11.97763,-26.06246c-0.35707,-14.10994 3.50051,-27.70331 6.43555,-34.00736c3.4088,-7.32054 9.10576,-21.21048 9.50798,-22.86217c0.40222,-1.65104 0.01555,-8.3661 2.5962,-11.70283c1.79402,-2.31862 5.30343,-3.43701 7.6272,-3.43701c2.32387,0 7.31829,1.37077 9.28499,3.70719" fill="none" fill-rule="evenodd" stroke="#2e374a" stroke-width="0.5"/><g><path d="M264.44049,92.48529c-0.10512,0.01512 4.54296,-2.60286 4.89369,-4.71822c0.26815,-1.61768 -1.47481,-3.40419 -1.00555,-3.84202c0.31266,-0.29228 1.01145,1.26287 2.38008,1.95469c1.46463,0.74094 3.51917,1.81987 6.90427,2.2917c3.38563,0.47183 6.30201,1.38203 7.54192,2.69617c1.24045,1.31457 1.87703,2.76353 1.87703,2.76353c0,0 -1.5751,-2.46052 -10.9608,-1.51632c-7.2062,0.37047 -7.75376,1.46023 -8.82635,2.14561c-1.07259,0.68474 0.21238,-2.21297 -2.80428,-1.77514" fill="#e3a066" fill-rule="nonzero" stroke="none" stroke-width="1"/><path d="M266.85382,92.24932c0,0 0.29979,-0.10457 0.83234,-0.24369c0.26761,-0.06628 0.5926,-0.14662 0.96533,-0.2394c0.18716,-0.04366 0.38667,-0.0901 0.59636,-0.13912c0.21077,-0.0458 0.43708,-0.05877 0.66984,-0.09653c1.86899,-0.25453 4.37402,-0.52193 6.89354,-0.56354c1.25976,-0.02209 2.52166,0.0103 3.70151,0.11648c0.59046,0.05288 1.15893,0.13 1.6963,0.2157c0.53683,0.09546 1.04149,0.20604 1.5027,0.33003c0.22686,0.07551 0.45371,0.11863 0.65589,0.20379c0.19843,0.09171 0.3872,0.17901 0.56418,0.26042c0.34484,0.18663 0.64141,0.34784 0.86773,0.51399c0.23651,0.14716 0.39471,0.3014 0.50787,0.39633c0.11155,0.09707 0.17162,0.14823 0.17162,0.14823c0,0 -0.06811,-0.0399 -0.19575,-0.11487c-0.1271,-0.07497 -0.30837,-0.18921 -0.55882,-0.29872c-0.24079,-0.12614 -0.55345,-0.2378 -0.90688,-0.36393c-0.36253,-0.10737 -0.77065,-0.21409 -1.21202,-0.35535c-0.44727,-0.12023 -0.93851,-0.22814 -1.46355,-0.32092c-0.52664,-0.08409 -1.08439,-0.1596 -1.6652,-0.21184c-1.16215,-0.10469 -2.41011,-0.13643 -3.65807,-0.11487c-2.49753,0.04098 -4.98916,0.30676 -6.84635,0.56021c-0.46175,0.08195 -0.89132,0.11487 -1.27317,0.13912c-0.38077,0.03347 -0.71274,0.06317 -0.98624,0.08741c-0.27351,0.02639 -0.48857,0.04741 -0.63551,0.06199c-0.14426,0.01405 -0.22364,0.02907 -0.22364,0.02907" fill="#8d6a4a" fill-rule="nonzero" stroke="none" stroke-width="1"/><path d="M264.44049,92.48529c-0.10512,0.01512 4.54296,-2.60286 4.89369,-4.71822c0.26815,-1.61768 -1.47481,-3.40419 -1.00555,-3.84202c0.31266,-0.29228 1.01145,1.26287 2.38008,1.95469c1.46463,0.74094 3.51917,1.81987 6.90427,2.2917c3.38563,0.47183 6.30201,1.38203 7.54192,2.69617c1.24045,1.31457 1.87703,2.76353 1.87703,2.76353c0,0 -1.5751,-2.46052 -10.9608,-1.51632c-7.2062,0.37047 -7.75376,1.46023 -8.82635,2.14561c-1.07259,0.68474 0.21238,-2.21297 -2.80428,-1.77514z" fill="none" fill-rule="evenodd" stroke="#8d6a4a" stroke-width="0.5"/></g><g><path d="M260.75346,86.33945c0.08366,-0.70748 1.10638,-1.34803 2.68148,-1.28068c2.09477,0.16829 2.42084,1.22994 2.41333,1.65114c-0.00912,0.51013 -0.14855,1.24721 -2.54526,1.24721c-2.04704,0 -2.62463,-0.98196 -2.54955,-1.61768" fill="#e2e3e4" fill-rule="nonzero" stroke="none" stroke-width="1"/><path d="M263.71982,87.93557c0,0 -0.82096,-0.5053 -0.65375,-1.46613c0.16743,-0.95771 1.15089,-1.16912 1.52158,-1.13512c0.37047,0.03347 0.66822,0.35105 0.66822,0.35105c0,0 0.79372,0.59851 0.59261,1.25579c-0.20111,0.65739 -1.1954,0.95021 -1.1954,0.95021c0,0 -0.80079,0.11155 -0.93326,0.04419" fill="#2e374a" fill-rule="nonzero" stroke="none" stroke-width="1"/><path d="M260.75346,86.38525c0.08366,-0.70748 1.10638,-1.34803 2.68148,-1.28068c2.09477,0.16829 2.42084,1.23005 2.41333,1.65114c-0.00912,0.51013 -0.14855,1.24721 -2.54526,1.24721c-2.04704,0 -2.62463,-0.98196 -2.54955,-1.61768z" fill="none" fill-rule="evenodd" stroke="#2e374a" stroke-width="0.5"/></g><g><path d="M260.74724,115.46973c1.50227,6.20118 1.44746,18.87299 -0.87631,29.92712c-2.32366,11.05413 -12.96066,22.64743 -13.7651,22.10824c-0.80444,-0.53919 -0.53629,-1.70713 -0.35771,-5.21215c0.17912,-3.50502 -1.25118,-7.7293 -2.32366,-9.70609c-1.07259,-1.97679 -0.62596,-6.47072 -0.62596,-6.47072c0,0 4.00677,-23.71081 4.83417,-26.82057c1.06509,-4.00538 4.00344,-5.4435 4.00344,-5.4435" fill="#3e5766" fill-rule="nonzero" stroke="none" stroke-width="1"/><path d="M260.74724,115.46973c1.50227,6.20118 1.44746,18.87299 -0.87631,29.92712c-2.32366,11.05413 -12.96066,22.64743 -13.7651,22.10824c-0.80444,-0.53919 -0.53629,-1.70713 -0.35771,-5.21215c0.17912,-3.50502 -1.25118,-7.7293 -2.32366,-9.70609c-1.07259,-1.97679 -0.62596,-6.47072 -0.62596,-6.47072c0,0 4.00677,-23.71081 4.83417,-26.82057c1.06509,-4.00538 4.00344,-5.4435 4.00344,-5.4435" fill="none" fill-rule="evenodd" stroke="#2e374a" stroke-width="0.5"/></g></g></g></g></svg>