<svg version="1.1" xmlns="http://www.w3.org/2000/svg" xmlns:xlink="http://www.w3.org/1999/xlink" width="103" height="169.06381" viewBox="0,0,103,169.06381"><defs><linearGradient x1="240.61953" y1="58.29927" x2="240.61953" y2="237.16749" gradientUnits="userSpaceOnUse" id="color-1"><stop offset="0" stop-color="#000000"/><stop offset="1" stop-color="#000000" stop-opacity="0"/></linearGradient></defs><g transform="translate(-188.00005,-38.61113)"><g data-paper-data="{&quot;isPaintingLayer&quot;:true}" fill-rule="nonzero" stroke-linecap="butt" stroke-linejoin="miter" stroke-miterlimit="10" stroke-dasharray="" stroke-dashoffset="0" style="mix-blend-mode: normal"><path d="M284.37023,179.70936c0.07585,1.88165 -6.82295,7.07192 -42.75929,7.07192c-35.93634,0 -45.96971,-4.43047 -45.98172,-7.45949c-0.01038,-2.6151 9.30175,-6.10294 45.23807,-6.10294c35.93634,0 43.43354,4.76932 43.50294,6.49051z" fill="url(#color-1)" stroke="none" stroke-width="0"/><text transform="translate(222.67498,202.82716) scale(0.28942,0.28942)" font-size="40" xml:space="preserve" fill="#ffffff" fill-rule="nonzero" stroke="#ffffff" stroke-width="0.5" stroke-linecap="butt" stroke-linejoin="miter" stroke-miterlimit="10" stroke-dasharray="" stroke-dashoffset="0" font-family="Handwriting" font-weight="normal" text-anchor="start" style="mix-blend-mode: normal"></text><text transform="translate(219.75237,50.12361) scale(0.30296,0.30296)" font-size="40" xml:space="preserve" fill="#ffffff" fill-rule="nonzero" stroke="#ffffff" stroke-width="1" stroke-linecap="butt" stroke-linejoin="miter" stroke-miterlimit="10" stroke-dasharray="" stroke-dashoffset="0" font-family="Handwriting" font-weight="normal" text-anchor="start" style="mix-blend-mode: normal"></text><text transform="translate(199.2715,67.97376) scale(0.23622,0.23622)" font-size="40" xml:space="preserve" fill="#ffffff" fill-rule="nonzero" stroke="#ffffff" stroke-width="1" stroke-linecap="butt" stroke-linejoin="miter" stroke-miterlimit="10" stroke-dasharray="" stroke-dashoffset="0" font-family="Handwriting" font-weight="normal" text-anchor="start" style="mix-blend-mode: normal"></text><g><path d="M289.75005,129.25004c0,27.3381 -22.49769,49.5 -50.25,49.5c-27.75231,0 -50.25,-22.1619 -50.25,-49.5c0,-27.33809 22.49769,-49.5 50.25,-49.5c27.75231,0 50.25,22.16191 50.25,49.5z" fill="#c0c0c0" stroke="#000000" stroke-width="2.5"/><path d="M245.96674,109.58214c0,11.26643 -11.26812,21.67967 -22.79964,21.67967c-11.53152,0 -26.65663,-15.80082 -24.92501,-26.93338c0.35932,-2.31007 4.62361,-9.86767 14.10425,-15.50498c6.64954,-3.9539 16.18563,-7.25894 26.2668,-7.98006c11.50213,-0.82277 7.35361,17.47232 7.35361,28.73875z" fill="#bda28e" stroke="none" stroke-width="0"/><path d="M275.30242,103.51236c0,8.12828 -5.89337,18.20615 -14.96411,18.20615c-9.07074,0 -17.3973,-9.6418 -17.3973,-17.77007c0,-8.12828 -11.28969,-22.59282 -2.22196,-22.35934c18.40566,0.47392 30.58597,7.89171 34.4449,15.26417c1.11902,2.13788 0.13846,4.83189 0.13846,6.65909z" fill="#bda28e" stroke="none" stroke-width="0"/><path d="M258.53112,130.52468c0,4.57844 -1.43135,10.65858 -6.11881,10.65858c-4.68745,0 -10.85597,-6.08014 -10.85597,-10.65858c0,-4.57844 3.79994,-8.29001 8.48739,-8.29001c4.68746,0 8.48738,3.71157 8.48738,8.29001z" fill="#bda28e" stroke="none" stroke-width="0"/><path d="M220.75654,111.26024c-7.31063,-1.58232 -4.95556,-9.30388 -3.32379,-16.84296c1.63177,-7.53908 8.88101,-12.368 16.19165,-10.78568c7.31063,1.58232 15.58231,6.53131 13.95055,14.07039c-1.63177,7.53909 -19.50778,15.14057 -26.8184,13.55825z" fill="#b77554" stroke="none" stroke-width="0"/><path d="M203.40079,125.28026c0,3.19311 -2.45562,7.11075 -5.64873,7.11075c-3.19311,0 -5.3829,-3.91764 -5.3829,-7.11075c0,-3.19311 1.12649,-5.91455 4.31961,-5.91455c3.19311,0 6.71202,2.72145 6.71202,5.91455zM197.95145,130.79607c2.20215,0 3.72151,-2.31683 3.72151,-4.51897c0,-2.20215 -2.05101,-4.65189 -4.25315,-4.65189c-2.20215,0 -3.72151,2.44975 -3.72151,4.6519c0,2.20215 2.05101,4.51897 4.25315,4.51897z" fill="#e8dad0" stroke="none" stroke-width="0"/><path d="M270.63487,100.58308c0,2.2347 -2.39256,1.3829 -4.71211,1.3829c-2.31955,0 -4.19993,-0.37745 -4.19993,-2.61215c0,-2.23469 1.88038,-4.04627 4.19993,-4.04627c2.31955,0 4.71211,3.04082 4.71211,5.27552zM265.92274,101.14648c1.69724,0 3.07312,-0.35151 3.07312,-2.04875c0,-1.69724 -1.37588,-2.66337 -3.07312,-2.66337c-1.69724,0 -3.07311,0.55638 -3.07311,2.25362c0,1.69724 1.37588,2.45849 3.07311,2.45849z" fill="#e8dad0" stroke="none" stroke-width="0"/><path d="M227.20334,164.85672c0,2.73917 -2.13403,5.73987 -4.90398,5.73987c-2.76994,0 -5.01542,-2.22053 -5.01542,-4.95969c0,-2.73917 2.24547,-4.95969 5.01542,-4.95969c2.76994,0 4.90398,1.44035 4.90398,4.17952zM222.29935,169.59353c1.84663,0 3.34361,-2.50007 3.34361,-4.34671c0,-1.84663 -1.60844,-3.23216 -3.45506,-3.23216c-1.84663,0 -3.56653,1.71989 -3.56653,3.56653c0,1.84663 1.83135,4.01234 3.67798,4.01234z" fill="#e8dad0" stroke="none" stroke-width="0"/><path d="M220.04085,123.02393c-2.70336,0.94003 -7.19295,0.53418 -8.187,-2.32455c-0.99406,-2.85873 1.50689,-4.1818 4.21025,-5.12183c2.70336,-0.94003 4.58543,-1.14105 5.57949,1.71768c0.99406,2.85873 1.10063,4.78867 -1.60273,5.7287zM213.24328,120.34239c0.7921,1.80798 3.43865,2.8405 5.30303,2.19221c1.86438,-0.6483 2.85022,-2.68523 2.20192,-4.54962c-0.64829,-1.86438 -2.48959,-2.28759 -4.35397,-1.6393c-0.34556,0.12016 -4.37371,1.20583 -3.15098,3.99671z" fill="#e8dad0" stroke="none" stroke-width="0"/><path d="M269.75082,156.2214c0,3.8102 -2.74935,6.89897 -6.14085,6.89897c-3.39149,0 -8.41523,-2.93714 -8.41523,-6.74734c0,-3.8102 5.02374,-7.0506 8.41523,-7.0506c3.39149,0 6.14085,3.08877 6.14085,6.89897zM265.37122,159.01357c1.09486,-0.83066 1.80197,-2.14581 1.80197,-3.62611c0,-2.20835 -1.57369,-4.04915 -3.66081,-4.46215c-0.28718,-0.05683 -0.5841,-0.08662 -0.88796,-0.08662c-2.31838,-0.50778 -4.85202,2.5701 -4.85202,4.54878c0,2.34884 1.77978,3.98812 3.80649,4.42804c0.3357,0.07896 0.68574,0.12073 1.04554,0.12073c0.08532,0 0.17009,-0.00235 0.25424,-0.00699c0.70238,-0.02973 1.39593,-0.21048 2.02014,-0.56161c0.17623,-0.09913 0.33238,-0.2185 0.47242,-0.35407z" fill="#e8dad0" stroke="none" stroke-width="0"/><path d="M234.40231,142.32626c0,3.34963 -3.34223,4.39715 -7.27804,4.39715c-3.93581,0 -6.97478,-1.04753 -6.97478,-4.39715c0,-3.34963 3.03897,-7.73291 6.97478,-7.73291c3.93581,0 7.27804,4.38329 7.27804,7.73291zM226.36614,145.35877c2.51222,0 5.61016,-0.06542 5.61016,-2.57764c0,-2.51222 -2.64306,-6.51991 -5.15528,-6.51991c-2.51222,0 -4.85203,2.49143 -4.85203,5.00365c0,2.51222 1.88493,4.0939 4.39715,4.0939z" fill="#e8dad0" stroke="none" stroke-width="0"/><path d="M285.53103,123.94706c0,3.62145 -2.8214,7.58868 -6.48354,7.58868c-3.66214,0 -6.63088,-2.93576 -6.63088,-6.55721c0,-3.62145 2.96874,-6.55721 6.63088,-6.55721c3.66214,0 6.48354,1.90429 6.48354,5.52574zM279.04751,130.20956c2.44143,0 4.42059,-3.30534 4.42059,-5.74677c0,-2.44143 -2.12651,-4.27324 -4.56794,-4.27324c-2.44143,0 -4.7153,2.27387 -4.7153,4.7153c0,2.44143 2.42123,5.30471 4.86265,5.30471z" fill="#e8dad0" stroke="none" stroke-width="0"/><path d="M227.98645,95.80765c0,2.29084 -1.65301,4.14792 -3.69211,4.14792c-2.03909,0 -5.05956,-1.76592 -5.05956,-4.05676c0,-2.29084 3.02046,-4.23909 5.05956,-4.23909c2.03909,0 3.69211,1.85709 3.69211,4.14792zM225.35326,97.4864c0.65827,-0.49942 1.08341,-1.29014 1.08341,-2.18016c0,-1.32774 -0.94616,-2.4345 -2.20102,-2.68282c-0.17266,-0.03417 -0.35118,-0.05208 -0.53388,-0.05208c-1.3939,-0.3053 -2.91722,1.54524 -2.91722,2.7349c0,1.41221 1.07007,2.39781 2.28861,2.66231c0.20184,0.04747 0.41229,0.07259 0.62862,0.07259c0.0513,0 0.10226,-0.00141 0.15286,-0.0042c0.4223,-0.01787 0.83929,-0.12655 1.21459,-0.33766c0.10596,-0.0596 0.19984,-0.13137 0.28404,-0.21288z" fill="#cfb7a5" stroke="none" stroke-width="0"/></g></g></g></svg>