<svg version="1.1" xmlns="http://www.w3.org/2000/svg" xmlns:xlink="http://www.w3.org/1999/xlink" width="111.66751" height="162.8852" viewBox="0,0,111.66751,162.8852"><defs><linearGradient x1="299.27941" y1="4.06733" x2="299.27941" y2="261.17258" gradientUnits="userSpaceOnUse" id="color-1"><stop offset="0" stop-color="#000000"/><stop offset="1" stop-color="#000000" stop-opacity="0"/></linearGradient></defs><g transform="translate(-242.66625,-56.8116)"><g data-paper-data="{&quot;isPaintingLayer&quot;:true}" stroke-linecap="butt" stroke-linejoin="miter" stroke-miterlimit="10" stroke-dasharray="" stroke-dashoffset="0" style="mix-blend-mode: normal"><path d="M354.33298,178.58215c0.09545,2.70468 -8.58563,10.16516 -53.80589,10.16516c-45.22026,0 -57.8457,-6.36838 -57.86083,-10.72226c-0.01307,-3.75893 11.70481,-8.77237 56.92507,-8.77237c45.22026,0 54.65432,6.85543 54.74165,9.32947z" fill="url(#color-1)" fill-rule="nonzero" stroke="none" stroke-width="0"/><text transform="translate(281.9613,211.87425) scale(0.46015,0.46015)" font-size="40" xml:space="preserve" fill="#000000" fill-rule="nonzero" stroke="#000000" stroke-width="1" stroke-linecap="butt" stroke-linejoin="miter" stroke-miterlimit="10" stroke-dasharray="" stroke-dashoffset="0" font-family="Handwriting" font-weight="normal" text-anchor="start" style="mix-blend-mode: normal"></text><text transform="translate(259.9613,75.76182) scale(0.49869,0.49869)" font-size="40" xml:space="preserve" fill="#000000" fill-rule="nonzero" stroke="#000000" stroke-width="1" stroke-linecap="butt" stroke-linejoin="miter" stroke-miterlimit="10" stroke-dasharray="" stroke-dashoffset="0" font-family="Handwriting" font-weight="normal" text-anchor="start" style="mix-blend-mode: normal"></text><g stroke="none" stroke-width="1"><g fill-rule="nonzero"><path d="M276.14434,117.26844c-1.45983,-0.29197 -0.87589,-0.19464 -1.16786,-1.45982c-0.29197,-1.65447 -1.75179,-2.91965 -2.14107,-4.67145c-0.29197,-1.45982 -0.09733,-4.08751 0.68124,-5.3527c1.26519,-2.14107 2.33573,-3.79555 4.76877,-4.76876c1.84911,-0.68125 3.6009,-0.48661 5.45001,-0.77858c2.23841,-0.29197 3.99019,0.97322 6.03395,1.65447c2.43304,0.77858 5.15806,1.75179 7.68842,1.84911c0.68125,0 1.55715,0 2.23841,-0.29197c0.58393,-0.29197 0.97321,-0.8759 1.55714,-1.07054c1.84911,-0.58393 4.28216,0.38929 5.93663,-1.07053c1.65446,-1.45982 0.77857,-3.99019 2.91965,-4.96341c0.77858,-0.29197 1.45983,-0.38928 2.14108,-0.8759c0.8759,-0.58393 1.55715,-0.38929 2.62768,-0.77858c2.53037,-0.8759 3.99019,-0.09732 6.03395,1.26519c0.58393,0.38929 1.16785,0.97322 1.75179,1.16786c0.38929,0.19464 0.8759,0.19464 1.16786,0.29197c1.26518,0.58393 1.26519,0.58393 2.04376,3.6009c0.48661,1.94644 -0.09732,7.78574 -0.09732,7.78574z" fill="#120201"/><path d="M278.38275,119.11756c-1.45983,-0.29197 -0.87589,-0.19464 -1.16786,-1.45982c-0.29197,-1.65447 -1.45983,-1.55715 -1.7518,-3.30894c-0.29197,-1.45982 -1.65446,-3.89287 -0.87589,-5.25537c1.26519,-2.14107 1.94644,-5.15806 4.4768,-6.13128c1.84911,-0.68125 3.6009,-0.48661 5.45001,-0.77858c2.23841,-0.29197 3.99019,0.97321 6.03395,1.65446c2.43304,0.77858 5.15806,1.7518 7.68842,1.84912c0.68125,0 1.55714,0 2.2384,-0.29197c0.58393,-0.29197 0.97322,-0.8759 1.55715,-1.07054c1.84911,-0.58393 4.28216,0.38929 5.93662,-1.07053c1.65446,-1.45982 0.77858,-3.99019 2.91966,-4.96341c0.77858,-0.29197 1.45983,-0.38928 2.14108,-0.8759c0.8759,-0.58393 1.55714,-0.38929 2.62768,-0.77858c2.53037,-0.8759 3.99019,-0.09732 6.03395,1.26519c0.58393,0.38929 1.16785,0.97322 1.75179,1.16786c0.38929,0.19464 0.8759,0.19464 1.16786,0.29197c1.26518,0.58393 1.26519,0.58393 2.04376,3.6009c0.48661,1.94644 -0.09732,7.78574 -0.09732,7.78574z" fill="#e85f1a"/><path d="M307.28731,101.50233c0,-0.09732 1.94643,2.14107 2.82233,3.99019c0.19464,0.29197 0.8759,1.84912 0.97322,2.14108c0.48661,1.16786 0.97321,2.33573 1.45982,3.69823l-16.73933,2.82233c-0.29197,-0.97322 -0.58393,-1.94644 -0.8759,-2.91965c-0.19464,-0.68125 -0.38928,-1.26519 -0.68125,-1.94644c0,-0.09732 -0.09732,-0.09731 -0.09732,-0.19463v-0.09732v0c-0.09732,-0.29197 -0.29197,-0.58393 -0.38929,-0.8759c-0.68125,-1.55715 -1.45983,-3.69823 -2.43304,-5.54733c2.04376,0.58393 4.18484,1.26518 6.22859,1.3625c0.68125,0 1.55714,0 2.2384,-0.29197c0.58393,-0.29197 0.97322,-0.8759 1.55715,-1.07053c1.94644,-0.58393 4.37948,0.38929 5.93663,-1.07054c0,-0.09732 0,-0.09732 0,0z" fill="#fcc3ac"/><path d="M295.80335,106.95234l1.65446,6.81252l-21.5081,3.6009c-0.09732,-0.09732 -0.19464,-0.09732 -0.29197,-0.09732c-0.09732,0 -0.09732,0 -0.09732,0c-0.19464,0 -0.29196,-0.09732 -0.38928,-0.09732v0c0,-0.09732 -0.09732,-0.09732 -0.09732,-0.09732v0c-0.09732,0 -0.09732,-0.09732 -0.09732,-0.09732v0v-0.09732v0v-0.09732c0,-0.09732 0,-0.09732 0,-0.19464v0c1.16786,-0.8759 2.33573,-1.55715 3.50358,-2.33573c-0.8759,-1.45982 -1.94644,-2.72502 -3.21162,-3.89287c-0.77858,-0.77858 -1.55714,-1.75179 -2.43304,-2.53036c0.09732,-0.38929 0.19464,-0.77857 0.29197,-1.07053c1.07053,0.8759 1.94644,1.94643 2.91965,2.82233c1.26519,1.16786 2.43304,2.53037 3.30894,4.08751c0.58393,-0.38929 1.16786,-0.77858 1.75179,-1.07054c-1.36251,-3.50358 -3.21162,-6.81252 -5.45001,-9.82949c0.19464,-0.29197 0.38929,-0.48661 0.68125,-0.68125c2.33572,3.11429 4.18484,6.42323 5.64466,10.02415c0.19464,-0.09732 0.38929,-0.19464 0.58393,-0.29197c0.58393,-0.38929 1.26519,-0.68125 1.84912,-0.97322c-0.97321,-3.6009 -2.14108,-7.20181 -4.08751,-10.31611c0.38929,-0.09732 0.68125,-0.09732 1.07053,-0.09732c1.84911,3.11429 2.91966,6.52056 3.89287,10.02415c1.36251,-0.58393 2.62768,-1.16786 3.99019,-1.65447c-0.77858,-3.01697 -2.04376,-5.8393 -3.79555,-8.46699c0.48661,0.09732 0.97321,0.19464 1.45982,0.38929c1.45983,2.43305 2.53036,4.9634 3.30894,7.68842c0.29197,-0.09732 5.45002,-1.45982 5.54734,-1.45982z" fill="#f47621"/><path d="M307.96857,112.01307l-3.30894,0.38929l-2.14108,0.38929l-3.6009,0.58392l-1.26519,0.19464l-1.65447,-6.81252c0,0 -0.8759,-2.33573 -1.36251,-3.50358c0.38929,0.09732 0.68125,0.09732 0.97322,0.19464c0.48661,1.07053 0.8759,2.04376 1.26519,3.11429c1.26519,-0.29197 2.53036,-0.48661 3.79555,-0.68125c-0.29197,-0.77858 -0.58393,-1.65446 -0.8759,-2.43304v0c0.19464,-0.09732 0.38928,-0.19464 0.58393,-0.38929c0.29197,0.97322 0.68125,1.84911 0.97322,2.82233c0.09732,0 0.09732,0 0.19464,0c1.36251,-0.19464 2.62768,-0.29197 3.89287,-0.38929c-0.29197,-1.07053 -0.68125,-2.14107 -1.07054,-3.21162c0.19464,0 0.48661,0 0.77858,0c0.38929,1.07053 0.77857,2.14107 1.07053,3.21162z" fill="#ffffff"/><path d="M326.07041,108.41217v0c0,0.09732 0,0.19464 0,0.29197v0c0,0.09732 -18.00453,3.30894 -18.00453,3.30894l-1.75179,-6.61788c0.29197,0 5.15805,0 5.45001,0c-0.68125,-2.62768 -1.75179,-5.06073 -2.91965,-7.49377c0.19464,-0.38929 0.38929,-0.68124 0.68125,-0.97321c1.45983,2.72502 2.53036,5.54734 3.30894,8.46699c0.77858,0 1.55714,0.09732 2.33572,0.19464c-0.09732,-3.6009 -0.68125,-7.10449 -2.04376,-10.41342c0.29197,-0.09732 0.68125,-0.09732 0.97322,-0.19464c1.36251,3.40626 1.94644,7.10449 2.04376,10.80271c0.8759,0.09732 1.84911,0.29197 2.72502,0.48661c0.19464,-3.99019 -0.19464,-8.07771 -1.55715,-11.87325c0.38929,0 0.68125,0.09732 1.07054,0.19464c1.26518,3.89287 1.55714,7.88306 1.45982,11.97058c0.8759,0.19464 1.75179,0.38929 2.62768,0.68125c0.19464,-3.6009 0,-7.29913 -0.8759,-10.80271c0.38929,0.29197 0.77858,0.58393 1.16786,0.77858c0.77858,3.30894 0.87589,6.81252 0.68124,10.3161c0.8759,0.29197 1.7518,0.58393 2.62769,0.8759z" fill="#f47621"/></g><g fill-rule="nonzero"><path d="M306.41142,137.99798c-0.58393,0.97321 -6.32591,4.18484 -8.17503,5.06073c-0.97321,0.38929 -1.94644,0.77858 -3.01698,1.16786c-0.68125,0.29197 -1.16786,0.58393 -1.55714,0.77858c-2.04376,0.97321 -4.4768,1.7518 -6.71521,2.33573c-1.45983,0.38929 -1.94644,-0.48661 -3.79555,-1.07054c-1.84911,-0.58393 -3.30894,0.68125 -5.25537,0.29197c-0.68125,-0.19464 -1.45983,-0.38928 -1.84911,-1.07053c-0.19464,-0.29197 -0.38929,-0.97322 -0.58393,-1.16786c-0.58393,-0.48661 -0.97321,0.09732 -1.65446,-0.19464c-0.58393,-0.19464 -1.07053,-0.87589 -1.26519,-1.45982c-0.19464,-0.97321 -0.29197,-1.45983 -0.29197,-2.23841c-0.09732,-1.07053 -0.77858,-1.94644 -0.29197,-3.11429c0.48661,-1.26519 2.23841,-1.84911 3.30894,-2.2384c0.38929,-0.19464 0.8759,-0.38929 1.36251,-0.48661c0.8759,-0.77858 2.33572,-1.26518 3.11429,-1.55714c1.55714,-0.68125 3.40627,-0.97321 4.96341,-1.65446z" fill="#000600"/><path d="M306.31409,137.80333c-0.58393,0.97321 -6.32591,4.18483 -8.17503,5.06073c-2.04376,0.97321 -4.4768,1.75179 -6.71521,2.33572c-1.45983,0.38929 -3.21162,0.68124 -3.79555,-1.07054c-1.84911,-0.09732 -3.69823,0.68125 -5.64466,0.29197c-0.68125,-0.19464 -1.45983,-0.38928 -1.84911,-1.07053c-0.19464,-0.29197 0,-0.97322 -0.19464,-1.16786c-0.48661,-0.58393 -1.75179,0.09732 -2.43304,-0.19464c-0.58393,-0.19464 -1.07053,-0.8759 -1.26519,-1.45983c-0.19464,-0.8759 0.48661,-1.45982 0.48661,-2.2384c-0.09732,-1.07053 -1.16786,-1.84911 -0.68125,-3.01697c0.48661,-1.16786 2.62768,-1.84912 3.69823,-2.23841c1.55714,-0.68125 3.40627,-0.97321 4.96341,-1.65446z" fill="#e85f1a"/><path d="M284.61134,131.67207l21.5081,6.42323c-0.29197,0.58393 -3.21162,2.33573 -5.35269,3.60091c-2.04376,-0.48661 -6.2286,-1.84912 -6.2286,-1.84912c-2.62768,2.91965 -5.64466,5.45002 -8.95359,7.59111c-0.29197,-0.09732 -0.68125,-0.29197 -1.07054,-0.48661c3.30894,-2.04376 6.22859,-4.57411 8.9536,-7.39645c-1.16786,-0.29197 -2.33572,-0.58393 -3.50358,-0.8759c-1.84911,1.55714 -3.69823,3.11429 -5.64466,4.4768c-1.55714,1.16786 -3.21163,2.33573 -4.96341,3.40626c-0.58393,0.09732 -1.07053,0.09732 -1.65446,0c-0.09732,-0.09732 -0.19464,-0.09732 -0.29197,-0.09732c2.23841,-1.26519 4.37948,-2.82234 6.32591,-4.18484c1.75179,-1.26519 3.40627,-2.62768 4.96341,-3.99019c-0.77858,-0.19464 -1.65446,-0.48661 -2.53036,-0.68125c-4.18484,2.53036 -8.66163,4.4768 -13.33307,5.83931c-0.19464,-0.19464 -0.29197,-0.48661 -0.38929,-0.77858c0,-0.09732 0,-0.09732 0,-0.09732c4.37948,-1.26519 8.56432,-3.01697 12.45719,-5.25538c-1.16786,-0.38929 -2.43305,-0.68125 -3.60091,-1.07054c-3.01697,1.07053 -6.32591,1.55715 -9.53753,1.94644c0,-0.29197 0.09732,-0.58393 0.19464,-0.8759c0,-0.09732 0.09732,-0.09732 0.09732,-0.19464c2.53036,-0.38929 5.06073,-0.77858 7.49377,-1.45983c-1.07053,-0.29197 -2.23841,-0.58393 -3.30894,-0.97322c0.09732,0 0.19464,-0.09732 0.29197,-0.09732c0.8759,-0.77858 3.11429,-1.55714 3.11429,-1.55714c0,0 3.50358,-1.07053 4.96341,-1.36251z" fill="#f47621"/></g><g><path d="M333.46686,138.87388c-0.68125,0.8759 -1.16786,1.94644 -1.84911,2.91965c-1.16786,1.55714 -2.43305,3.11429 -3.69823,4.57412c-1.07054,1.26519 -2.14107,2.53036 -3.30894,3.79555c-1.7518,2.14108 -3.6009,4.4768 -5.93663,6.13128c-2.43304,1.75179 -1.07054,-0.77858 -1.45983,-1.65447c-1.07053,0.38929 -1.55715,1.36251 -2.82234,0.48661c-0.77858,-0.48661 -1.07053,-1.3625 -1.07053,-2.2384c0,-0.8759 0.29197,-1.16786 0.09732,-1.84911c-0.19464,-0.8759 -0.58393,-0.97322 0,-1.94644c0.29197,-0.48661 0.38928,-1.55714 0.29196,-1.84911c-0.29197,-1.07053 0.48661,-2.14108 1.26519,-2.91966c1.16786,-1.26519 0,-2.14107 1.84911,-2.82233c0.19464,-0.09732 0.48661,-0.09732 0.68125,-0.19464c0.48661,-0.97321 0.48661,-1.94644 1.36251,-2.62768c0.29197,-0.19464 0.48661,-0.29197 0.68125,-0.38929c1.07054,-0.38929 2.33573,-0.48661 3.40627,-0.77858z" fill="#000600" fill-rule="nonzero"/><path d="M333.95347,138.87388c-0.68125,0.8759 -1.16786,1.94644 -1.84911,2.91965c-1.16786,1.55714 -2.43305,3.11429 -3.69823,4.57412c-2.04376,2.33572 -3.99019,4.96341 -6.52055,6.71521c-2.43305,1.75179 -3.01698,-0.29197 -4.28216,-1.16786c-0.77858,-0.48661 -1.07053,-1.3625 -1.07053,-2.2384c0,-0.8759 0.29197,-1.16786 0.09732,-1.84911c-0.19464,-0.8759 -0.58393,-0.97322 0,-1.94644c0.19464,-0.48661 0.38929,-0.29197 0.48661,-0.8759c0.09732,-0.38929 -0.09732,-0.68125 -0.19464,-0.97322c-0.29197,-1.07053 -0.29197,-1.26519 0.48661,-2.04376c1.16786,-1.26519 0.77858,-3.01697 2.62769,-3.69823c1.07054,-0.38929 2.33572,-0.48661 3.40626,-0.77858z" fill="#e85f1a" fill-rule="nonzero"/><path d="M327.72488,138.67923c0,0.19464 -0.09732,0.38929 -0.09732,0.58393c0.09732,0.09732 0.09732,0.29197 -0.09732,0.48661v0c-1.45982,6.13127 -4.67144,11.87324 -8.9536,16.64201c-1.16786,0.77858 -1.3625,0.58393 -1.3625,0c3.79555,-4.08751 6.81252,-8.9536 8.56432,-14.20897c-3.01697,4.86608 -7.00716,9.4402 -11.48397,12.94379c-0.29197,-0.19464 -0.48661,-0.4866 -0.68125,-0.77857c3.99019,-3.11429 7.49377,-7.00716 10.31611,-11.28932c-1.26518,1.07053 -2.62769,2.14108 -3.99019,3.21162c-2.04376,1.45983 -4.28216,3.30894 -6.81252,4.18484c-0.09732,-0.38929 -0.19464,-0.58393 0,-1.07054c2.72502,-1.07053 5.25538,-3.21162 7.39645,-4.86608c1.84911,-1.45983 3.69823,-3.01698 5.35269,-4.67145c0.29197,-0.58393 0.48661,-1.07053 0.77858,-1.55714c0.09732,-0.09732 0.09732,-0.19464 0.09732,-0.29197l1.07054,0.09732c-0.09732,0.19464 -0.19464,0.38929 -0.09732,0.58393z" fill="#f47621" fill-rule="nonzero"/><path d="M330.5472,142.08549c-0.68125,0.8759 -1.16786,1.94644 -1.84911,2.91965c-1.16786,1.55714 -2.43305,3.11429 -3.69823,4.57412c-2.04376,2.33572 -3.99019,4.96341 -6.52055,6.71521c-2.43304,1.75179 -1.07054,-0.77858 -1.45983,-1.65447c-1.07053,0.38929 -1.55715,1.36251 -2.82233,0.48661c-0.77858,-0.48661 -1.07054,-1.3625 -1.07054,-2.2384c0,-0.8759 0.29197,-1.16786 0.09732,-1.84911c-0.19464,-0.8759 -0.58393,-0.97322 0,-1.94644c0.29197,-0.48661 0.38929,-1.55714 0.29197,-1.84911c-0.29197,-1.07053 0.48661,-2.14108 1.26519,-2.91966c1.16786,-1.26519 0,-2.14107 1.84911,-2.82233c1.07054,-0.38929 2.33572,-0.48661 3.40626,-0.77858z" fill="none" fill-rule="evenodd"/></g><g fill-rule="nonzero"><path d="M270.88899,120.38275c3.40626,-3.21162 8.17502,-6.22859 12.35985,-8.56432c6.22859,-3.50358 11.97058,-5.06073 18.97774,-5.93663c13.52773,-1.75179 25.69295,1.26519 36.98227,9.14824c5.64467,3.89287 11.77593,6.90985 14.69558,13.23576c0.97321,1.16785 -3.99019,3.40626 -7.00716,3.6009c2.82233,2.82234 7.78574,-1.16786 7.10449,0.09732c-0.97321,2.14108 -4.18484,4.76877 -5.15805,5.25538c-8.46699,4.67145 -19.95096,9.24556 -29.68313,7.68842c-13.33307,-2.14108 -26.95812,-5.06073 -39.99923,-8.85628c-1.84911,-0.48661 -6.22859,-1.84911 -6.22859,-1.84911c-2.33572,-1.26519 -1.55715,-2.72501 -3.21163,-4.4768z" fill="#f47621"/><path d="M339.01421,141.79353c-1.45982,0.58393 -2.91966,1.07054 -4.37948,1.55715c-7.88306,-3.6009 -13.52773,-15.57148 -13.04112,-23.94115c0.19464,-4.08751 2.43305,-7.49377 4.86609,-10.70539c0.09732,-0.09732 0.19464,-0.19464 0.29197,-0.29197c2.91965,1.07053 5.8393,2.53036 8.66164,4.18484c-3.99019,5.06073 -7.39645,11.67861 -5.64467,18.00452c1.07054,3.79555 3.99019,6.81252 6.7152,9.4402c0.68125,0.58393 1.75179,1.26519 2.53036,1.75179z" fill="#ffffff"/><path d="M310.01232,105.49251c0.19464,0.29197 11.38665,26.17955 1.45983,36.78762c-0.48661,0.48661 -1.07054,0.8759 -1.55715,1.16786c-3.50358,-0.68125 -7.00716,-1.36251 -10.51075,-2.14108c0.48661,-5.25538 -0.58393,-11.38664 -0.97322,-15.27951c-0.58393,-6.32591 -2.33572,-12.65183 -4.86608,-18.49113c0,0 3.1143,-1.07054 7.98038,-1.65447c2.91965,-0.38929 5.74198,-0.58393 8.46698,-0.38929z" fill="#ffffff"/><g><path d="M335.51062,125.93008c-0.09732,-2.14107 1.45982,-4.4768 5.25538,-3.99019c2.43305,0.29197 3.79555,1.55715 3.89287,3.01697c0.19464,1.84911 -1.84911,4.08751 -4.28216,4.28216c-2.53036,0.19464 -4.86608,-1.75179 -4.86608,-3.30894z" fill="#ffffff"/><path d="M338.91688,126.0274c0.68125,-0.38929 0.48661,-1.75179 -0.48661,-2.14107c0.19464,-0.19464 0.48661,-0.19464 0.77858,-0.29197c2.91965,-0.77858 3.79555,2.2384 1.94644,3.50358c-1.36251,0.8759 -2.82233,0.09733 -2.91965,-0.77857c0.19464,0 0.48661,-0.09732 0.68125,-0.29197z" fill="#000600"/><path d="M333.75883,120.09078c2.04376,-2.2384 5.45002,-2.53037 8.27235,-1.7518c0.77858,0.19464 0.48661,1.45982 -0.38929,1.26519c-2.33572,-0.68125 -5.15806,-0.48661 -6.90984,1.45982c-0.48661,0.68125 -1.45983,-0.29196 -0.97322,-0.97321z" fill="#e85f1a"/></g></g><g fill-rule="nonzero"><path d="M323.15076,136.73279c0,0.09732 -7.00716,3.11429 -8.66163,3.21162c-3.11429,0.19464 -4.86608,-0.77857 -6.81252,-2.91965c-0.38929,-0.38929 -1.16786,-0.58393 -1.55715,-1.07053c-0.48661,-0.68125 -0.97321,-1.36251 -1.07053,-2.14108c-0.09732,-1.26519 -0.48661,-2.23841 -1.07053,-3.30894c-0.68125,-1.26519 -0.68125,-2.72501 -0.77858,-4.18483c-0.09732,-1.45982 0.77857,-2.14108 1.65446,-3.30895c0.58393,-0.68125 1.16786,-1.75179 2.04376,-2.04375c0.48661,-0.19464 1.16786,0 1.75179,-0.09732c0.58393,-0.09732 1.07054,-0.58393 1.7518,-0.48661c1.07053,0.19464 2.04375,1.75179 2.72501,2.43304c1.55714,1.55715 3.11429,3.1143 4.57411,4.67145c1.45982,1.55714 3.50358,3.21162 5.45002,3.99019z" fill="#f47621"/><path d="M323.73469,137.2194v0v0c-1.07054,0.77858 -2.72502,1.26519 -3.99019,1.75179c-1.84911,0.68125 -3.69823,1.55714 -5.64466,1.65446c-2.91965,0.09732 -4.57412,-1.26519 -6.7152,-2.91965c-2.43304,-1.84911 -2.53036,-3.21163 -3.6009,-6.13128c-1.07053,-2.82234 -2.04376,-5.45001 -0.19464,-8.07771c1.65446,-2.33573 2.91965,-3.21162 5.74199,-3.50358c2.53036,-0.19464 3.40626,1.55715 5.06073,3.30894c2.82234,2.82234 5.45002,6.03395 9.14825,7.78574c0.19464,0.09732 0.29197,0.38929 0.29197,0.58393c0,1.65446 0,3.30894 0,4.9634c0.09732,0.19464 0.09732,0.38929 -0.09732,0.58393zM312.93198,133.22921c2.82234,1.07053 5.83931,1.75179 8.9536,2.04376c0.19464,-0.09732 0.29197,-0.09732 0.48661,-0.19464c-6.7152,-1.55714 -13.23575,-5.25538 -17.80988,-10.21879c-0.48661,0.97322 -0.48661,2.04376 -0.38929,3.01697c2.53036,2.43304 5.93663,4.18484 8.75896,5.3527zM309.72036,121.35596c1.26519,1.84911 2.82233,3.60091 4.28216,4.96341c1.45983,1.3625 3.01698,2.33572 4.67145,3.01697v0c-2.23841,-1.94644 -4.4768,-4.28216 -6.42323,-6.52056c-0.77858,-0.77858 -1.65446,-1.26519 -2.53036,-1.45982zM305.34088,123.49704c0,0.09732 -0.09732,0.09732 -0.09732,0.19464c4.4768,4.86609 10.80271,8.66164 17.42059,10.12147c0,-0.38929 0,-0.77858 -0.09732,-1.07054c-3.30894,-0.97321 -6.52055,-2.62768 -9.14825,-5.06072c-1.75179,-1.65447 -3.69824,-3.89287 -5.25538,-6.13128c-1.07053,0.29197 -2.04375,0.8759 -2.82233,1.94644zM307.38464,136.05154c0.19464,0.19464 0.48661,0.29197 0.68125,0.48661c0.29197,0.19464 0.48661,0.38929 0.68125,0.58393c2.43304,0.09732 4.76876,0 6.90984,-0.29197c1.07053,-0.09732 2.04376,-0.38929 3.11429,-0.68125c-2.72502,-0.48661 -5.45001,-1.26519 -7.88306,-2.43304c-2.04376,-0.8759 -4.28216,-2.14108 -6.22859,-3.69823c0.29197,0.8759 0.68125,1.84911 0.97322,2.82233c0.58393,1.75179 0.48661,2.04376 1.75179,3.21162zM322.17754,136.63547h-0.09732c-1.84911,0.68125 -3.79555,1.26519 -5.64467,1.55715c-1.94644,0.29197 -3.99019,0.29197 -6.03394,0.19464c0.68125,0.38929 1.45983,0.77858 2.43304,0.8759c1.94644,0.29197 3.69823,-0.48661 5.54734,-1.16786c1.07054,-0.38929 2.62768,-0.77858 3.79555,-1.45983z" fill="#e85f1a"/></g><g fill-rule="nonzero"><path d="M273.03006,134.20243l-3.99019,-0.38928v0.09732c-3.30894,1.36251 -6.61789,1.84911 -9.63486,1.75179c-1.36251,0 -2.04376,0.48661 -3.01698,0c-0.09732,0 -0.29196,0.09732 -0.48661,0.09732c-1.07053,0.19464 -1.45983,0 -2.43304,-0.38929c-1.07053,-0.48661 -2.91965,-0.19464 -3.69823,-1.26519c-1.07053,-1.36251 -0.8759,-0.58393 -2.14108,-2.33572c-0.77858,-1.07053 -1.45983,-3.50358 -1.36251,-3.89287c0.19464,-1.45982 0.09732,-1.36251 -0.77858,-2.82233c-0.48661,-0.77858 -0.09732,-1.26519 -0.38929,-2.2384c-0.29197,-0.97322 0.8759,-2.14107 0.8759,-3.40626c0,-1.26519 0,-2.62768 0.48661,-3.40626c0.68125,-0.97322 2.2384,-1.36251 2.82233,-2.53037c1.07053,-2.04376 2.43304,-2.53036 4.57412,-1.94644c0.8759,0.19464 2.04375,0.19464 2.82233,-0.09732c0.97321,-0.38929 1.75179,-0.09732 2.62768,0.48661c0.29197,0.19464 0.58393,0.29197 0.77858,0.48661c3.79555,0 11.28932,3.89287 12.5545,3.69823c0,0 2.62768,0.8759 3.99019,-0.19464c2.62768,16.25272 -3.6009,18.39381 -3.6009,18.29649z" fill="#e85f1a"/><path d="M277.89615,125.34615c0,7.49377 -4.67145,8.85628 -4.67145,8.85628c-0.09732,0.09732 -0.19464,0.09732 -0.19464,0.09732l-3.99019,-0.38928v0.09732c-1.75179,0.77858 -3.50358,1.16785 -5.25538,1.45982c5.54733,-6.22859 7.39645,-14.20897 0.38928,-22.18936c3.69823,1.26519 7.5911,3.01697 8.46699,2.82233c0,0 1.94644,0.58393 2.72502,0.29197c0,0 0.68124,-0.58393 0.77857,-0.58393c0,0 1.7518,2.04376 1.7518,9.53754z" fill="#120201"/><path d="M271.66755,134.00779l-2.43304,-0.29197v0.09732c-1.84911,0.77858 -3.69823,1.16786 -5.45001,1.45983c0.77858,-0.97321 1.36251,-1.94644 1.94644,-3.01698c-3.79555,1.36251 -7.78574,2.43304 -11.67861,3.21162c-0.09732,-0.09732 -0.19464,-0.09732 -0.38929,-0.19464c-0.58393,-0.19464 -1.45983,-0.19464 -2.23841,-0.38929c2.43304,-0.48661 4.86609,-1.16786 7.20181,-1.75179c2.62768,-0.68125 5.25538,-1.45983 7.78574,-2.33573c0.29197,-0.77858 0.58393,-1.55714 0.77858,-2.43304c-2.91965,0.68125 -5.74199,1.16786 -8.66164,1.55715c-3.69823,0.48661 -7.39645,0.97321 -11.192,0.97321c-0.09732,-0.29197 -0.29197,-0.68124 -0.38929,-0.97321c4.08751,0 8.27235,-0.48661 12.26254,-1.07054c2.72502,-0.38929 5.45001,-0.87589 8.17503,-1.45982c0.09732,-0.68125 0.19464,-1.36251 0.19464,-2.04376c-6.90984,1.07053 -14.01433,1.7518 -21.02149,1.7518c0,-0.38929 -0.09732,-0.58393 -0.29197,-0.97322c7.10449,0 14.3063,-0.68125 21.31347,-1.75179c0,-0.48661 -0.09732,-0.97322 -0.09732,-1.45983c-7.39645,0.68125 -14.7929,0.19464 -22.18936,-0.48661c0,-0.29197 0.19464,-0.68125 0.29197,-0.97322c7.29913,0.68125 14.59826,1.07054 21.80008,0.38929c-0.09732,-0.38929 -0.09732,-0.68125 -0.19464,-1.07054c-3.69823,0 -7.49377,-0.29196 -11.192,-0.97321c-3.21162,-0.48661 -6.2286,-1.45983 -9.24557,-2.43305c-0.19464,0 -0.29196,-0.09732 -0.48661,-0.09732c0,-0.29197 0.09732,-0.58392 0.19464,-0.87589c1.07053,0.29197 2.14108,0.58392 3.11429,0.87589c2.43304,0.77858 5.06073,1.36251 7.68842,1.7518c3.21162,0.48661 6.42323,0.77858 9.63486,0.77858c-0.09732,-0.29197 -0.09732,-0.48661 -0.19464,-0.68125c-2.82234,-0.77858 -5.54733,-1.84911 -8.27235,-3.11429c-2.53036,-1.16786 -5.64466,-2.23841 -7.98037,-4.08751c0.29197,-0.29197 0.58392,-0.48661 0.87589,-0.58393c2.33572,1.65447 5.35269,2.72502 7.5911,3.79555c2.43304,1.07053 4.86609,2.04375 7.39645,2.82233c-0.58393,-1.55715 -1.26519,-3.11429 -2.14108,-4.76877c3.6009,1.07053 8.46699,2.82234 8.46699,2.82234c0,0 1.26519,0.38929 2.43304,0.38929c1.55714,4.9634 2.14108,10.80271 0.29197,14.50094c-0.8759,1.65446 -2.23841,2.62769 -3.69824,3.1143z" fill="#ffffff"/><path d="M256.38804,135.66226c-0.09732,0 -0.29196,0.09732 -0.48661,0.09732c-1.07053,0.19464 -1.45983,0 -2.43304,-0.38929c-1.07053,-0.48661 -2.91965,-0.19464 -3.69823,-1.26519c-1.07053,-1.36251 -0.8759,-0.58393 -2.14108,-2.33572c-0.77858,-1.07053 -1.45983,-3.50358 -1.36251,-3.89287c0.19464,-1.45982 0.09732,-1.36251 -0.77858,-2.82233c-0.48661,-0.77858 -0.09732,-1.26519 -0.38929,-2.2384c-0.29197,-0.97322 0.8759,-2.14107 0.8759,-3.40626c0,-1.26519 0,-2.62768 0.58393,-3.40626c0.68125,-0.97322 2.2384,-1.36251 2.82233,-2.53037c1.07053,-2.04376 2.43304,-2.53036 4.57412,-1.94644c0.8759,0.19464 2.04375,0.19464 2.82233,-0.09732c0.97321,-0.38929 1.75179,-0.09732 2.62768,0.48661c0.29197,0.19464 0.58392,0.29197 0.77857,0.48661v0c-0.77858,0 -1.36251,0.09732 -1.75179,0.48661c0.29197,1.55715 -3.69823,0.38928 -4.76876,1.16786c-0.38929,0.29197 0,0.8759 -0.29197,1.07053c0,0 -0.8759,0.29197 -1.26519,0.58393c-0.68125,0.48661 -1.26519,0.68125 -1.75179,1.26519c-0.48661,0.68125 -0.8759,1.55715 -1.36251,2.33573c-0.38929,0.58393 0.19464,3.21162 -0.19464,4.08751c-0.97321,2.43305 -0.09732,2.04376 0.77858,3.50358c0.8759,1.55715 0.48661,3.01697 2.23841,3.99019c0.58393,0.29197 1.07053,0.38929 1.65446,0.8759c0.68125,0.48661 0.29197,1.16786 0.58393,1.75179c0.38929,0.77858 0.97322,0.97322 1.65447,1.55715c0.29197,0.19464 0.4866,0.38929 0.68124,0.58393z" fill="#120201"/></g></g></g></g></svg>