<svg version="1.1" xmlns="http://www.w3.org/2000/svg" xmlns:xlink="http://www.w3.org/1999/xlink" width="120.80763" height="196.48351" viewBox="0,0,120.80763,196.48351"><defs><linearGradient x1="240.25648" y1="112.13949" x2="240.25648" y2="211.87665" gradientUnits="userSpaceOnUse" id="color-1"><stop offset="0" stop-color="#000000"/><stop offset="1" stop-color="#000000" stop-opacity="0"/></linearGradient><radialGradient cx="239.25283" cy="68.05471" r="16.33618" gradientUnits="userSpaceOnUse" id="color-2"><stop offset="0" stop-color="#ff0094"/><stop offset="1" stop-color="#ff0094" stop-opacity="0"/></radialGradient></defs><g transform="translate(-178.28734,-15.56347)"><g data-paper-data="{&quot;isPaintingLayer&quot;:true}" stroke-linejoin="miter" stroke-miterlimit="10" stroke-dasharray="" stroke-dashoffset="0" style="mix-blend-mode: normal"><text transform="translate(221.57985,206.06723) scale(0.357,0.357)" font-size="40" xml:space="preserve" fill="#ffffff" fill-rule="nonzero" stroke="#ffffff" stroke-width="0.5" stroke-linecap="butt" stroke-linejoin="miter" stroke-miterlimit="10" stroke-dasharray="" stroke-dashoffset="0" font-family="Handwriting" font-weight="normal" text-anchor="start" style="mix-blend-mode: normal"></text><text transform="translate(198.11052,43.56115) scale(0.29131,0.29131)" font-size="40" xml:space="preserve" fill="#ffffff" fill-rule="nonzero" stroke="#ffffff" stroke-width="1" stroke-linecap="butt" stroke-linejoin="miter" stroke-miterlimit="10" stroke-dasharray="" stroke-dashoffset="0" font-family="Handwriting" font-weight="normal" text-anchor="start" style="mix-blend-mode: normal"></text><path d="M258.37056,179.83791c0.0314,1.04921 -2.8249,3.94331 -17.7036,3.94331c-14.87869,0 -19.03281,-2.47044 -19.03778,-4.15942c-0.0043,-1.45818 3.8512,-3.40301 18.72989,-3.40301c14.87869,0 17.98275,2.65938 18.01149,3.61912z" fill="url(#color-1)" fill-rule="nonzero" stroke="none" stroke-width="0" stroke-linecap="butt"/><path d="M276.75005,180.50001v-106.41294" fill="none" fill-rule="nonzero" stroke="#ff0000" stroke-width="1.5" stroke-linecap="round"/><path d="M274.08336,76.9631c0,0 1.80898,-3.57451 2.83552,-3.5417c0.9703,0.031 2.33115,4.1169 2.33115,4.1169" fill="none" fill-rule="nonzero" stroke="#ff0000" stroke-width="1.5" stroke-linecap="round"/><g stroke="none" stroke-width="1" stroke-linecap="butt"><path d="M232.3119,169.50359c7.27802,-5.5208 14.79628,-1.55553 20.4539,9.06252c-4.18669,-0.28518 -22.59969,0.03556 -27.8708,0.63675c2.32092,-4.89671 4.3324,-7.35951 7.4169,-9.69927z" fill="#0077b8" fill-rule="nonzero"/><path d="M236.13977,167.46832c-0.22223,0.0694 -0.4451,0.14811 -0.66701,0.23488c0.22592,-0.08982 0.44879,-0.16853 0.66701,-0.23488z" fill="#74b140" fill-rule="evenodd"/><path d="M236.43801,167.71815c-0.09445,-0.10942 -0.19287,-0.19566 -0.29391,-0.25752c0.17693,-0.05487 0.35327,-0.10489 0.52903,-0.15005l0.00483,-0.00366c0.17707,-0.04396 0.35302,-0.08265 0.52946,-0.11731c-0.00558,0.14827 -0.02041,0.29339 -0.04395,0.43005c-0.04942,0.28214 -0.15644,0.6322 -0.28979,0.66063c-0.15891,0.03458 -0.29689,-0.39192 -0.43567,-0.56215z" fill="#74b140" fill-rule="evenodd"/><path d="M243.82132,168.9235c-0.13774,-0.20132 -0.2589,-0.46702 -0.35695,-0.78276c0.17707,0.08756 0.35319,0.18171 0.52834,0.28248c1.22613,0.69956 2.42743,1.65031 3.59185,2.84273c0.18845,0.19206 0.37612,0.38985 0.56302,0.59337c0.00363,0.42307 -0.04401,0.83892 -0.13656,1.19237c-0.14452,0.54161 -0.25433,0.55439 -0.44558,0.42175c0.03972,0.22587 0.09054,0.43832 0.15129,0.6324c0.05902,0.24436 0.09239,0.5224 0.09698,0.80805c0.00438,0.56973 -0.1096,1.11021 -0.24003,1.55739c-0.18899,0.64906 -0.43887,1.48236 -0.67644,2.02344c-1.18167,-0.05105 -2.35938,-0.07627 -3.51099,-0.05411c0.49376,-1.19033 0.80644,-3.09548 0.87299,-4.83075c0.00255,-0.14226 0.04054,-0.26496 0.09476,-0.30608c0.05422,-0.04112 0.11287,0.00827 0.14629,0.12324c0.16184,0.66187 0.24875,1.44448 0.43629,2.06481c0.08962,0.33221 0.22205,0.57658 0.37497,0.69194c0.15207,0.07639 0.26226,-0.20335 0.38321,-0.40088c0.41969,-0.68863 0.9962,-1.67034 0.83231,-3.15276c-0.15614,-1.4398 -0.81562,-0.60893 -1.22398,-0.7025c-0.33858,-0.0892 -0.64446,-0.57789 -0.63201,-1.50421c0.00437,-0.33613 0.06939,-0.75131 -0.05875,-0.99354c-0.08546,-0.11622 -0.18006,-0.18368 -0.27707,-0.19756c-0.17633,-0.0668 -0.35361,-0.09763 -0.51397,-0.3088z" fill="#74b140" fill-rule="evenodd"/><path d="M226.8882,175.50761l-0.00215,0.02588c0.54386,0.92309 1.44737,1.06643 1.46618,3.11512c0.00009,0.10227 -0.01826,0.19915 -0.0499,0.26341c-0.03164,0.06426 -0.07317,0.08901 -0.11292,0.06728c-0.04945,-0.01758 -0.09946,-0.03255 -0.14971,-0.04953l0.01094,0.16461c-1.09938,0.14606 -2.19893,0.28403 -3.29874,0.40949c0.67972,-1.43293 1.39293,-2.76756 2.1363,-3.99626z" fill="#74b140" fill-rule="evenodd"/><path d="M231.83388,170.43297c0.01666,-0.18166 -0.00406,-0.37223 -0.05517,-0.50728c0.17644,-0.15147 0.35402,-0.28618 0.5332,-0.4221c0.16659,-0.12637 0.33443,-0.24486 0.5035,-0.35548c0.05303,-0.04023 0.10687,-0.08106 0.1607,-0.1219c0.11692,-0.07767 0.23464,-0.15594 0.35205,-0.22957c0.07329,-0.04677 0.14779,-0.08345 0.2193,-0.1377c0.12809,-0.07954 0.24943,-0.14954 0.37424,-0.21997c0.10158,-0.05942 0.20307,-0.11216 0.30433,-0.16693l0.13228,-0.05186c0.37198,-0.19253 0.74448,-0.36123 1.11752,-0.50608c-0.04779,0.18613 -0.04459,0.41733 0.06562,0.67094c0.11021,0.25362 0.26683,0.28027 0.408,0.28779c0.27012,0.0155 0.79394,-0.23638 0.96861,0.48849c0.14267,0.59706 -0.12414,1.12786 -0.31953,1.31134c-0.15078,0.1181 -0.30705,0.18626 -0.46485,0.20274c0.39256,0.66317 0.91722,1.75509 1.07051,0.05193c0.03949,-0.52846 0.15227,-1.00453 0.31831,-1.34346c0.1978,-0.44097 0.29006,-0.87022 0.25266,-1.54713c-0.01422,-0.24165 -0.03637,-0.4799 -0.0662,-0.71237c0.38455,-0.05367 0.76961,-0.08128 1.15282,-0.08765c0.03159,0.00027 0.06319,0.00056 0.09374,-0.00057c0.11391,-0.00045 0.22807,0.00111 0.34166,0.00531c0.0398,0.00287 0.08546,0.0035 0.12791,0.00657c0.16931,0.00822 0.3391,0.02049 0.50777,0.038l0.25003,0.03073l0.23194,0.03345c0.10123,0.01799 0.20325,0.03537 0.30472,0.05538c0.06014,0.01169 0.12004,0.02135 0.17937,0.03364c-0.02825,0.19555 -0.05619,0.38646 -0.08373,0.56603c-0.29739,1.883 -0.90633,3.70479 -1.74466,3.89993c0.0543,0.45251 0.24788,0.7068 0.44275,0.70885c0.24986,0.00002 0.47995,-0.36187 0.68974,-0.66647c0.03494,-0.05434 0.07788,-0.06517 0.11642,-0.02941c0.03854,0.03578 0.06837,0.11417 0.08089,0.21254c0.04513,0.77043 0.28808,1.37213 0.59517,1.47401c0.30709,0.10188 0.60381,-0.32079 0.72688,-1.03543c0.01938,-0.09001 0.05423,-0.15245 0.0944,-0.16912c0.04017,-0.01668 0.08115,0.01426 0.11101,0.08382c0.32409,1.00386 0.83726,1.49434 1.34478,1.28533c0.04498,-0.03049 0.09304,-0.00018 0.12697,0.08009c0.03393,0.08026 0.04889,0.19902 0.03952,0.31376c-0.05152,1.16313 -0.27508,3.66049 -0.65225,4.46234c-0.16849,0.36075 -5.15219,0.26945 -5.67167,0.34313c-0.07758,-0.22133 -0.134,-0.48985 -0.20515,-0.74102c-0.15848,-0.56083 -0.47942,-1.102 -0.7302,-0.53268c-0.03278,0.08409 -0.08063,0.11919 -0.12625,0.09258c-0.04562,-0.02661 -0.08244,-0.11106 -0.09715,-0.22286c-0.19548,-1.19792 -0.5778,-2.14192 -1.05773,-2.61168c-0.10058,-0.10361 -0.07886,-0.43322 -0.00824,-0.57006c-0.15786,0.14194 -0.30782,0.40359 -0.46956,0.48952c-0.16419,0.07832 -0.33397,0.02784 -0.48637,-0.1446c-0.39384,-0.41093 -0.61824,-1.33832 -0.93515,-1.99937c-0.74789,-1.56397 -1.54839,1.03568 -2.36781,0.38775c-0.03946,-0.02523 -0.07218,-0.09439 -0.08885,-0.18777c-0.01667,-0.09339 -0.01548,-0.20081 0.00325,-0.2917c0.15613,-0.60564 0.38324,-1.0744 0.64991,-1.34154c0.16245,-0.15849 0.34303,-0.11476 0.5001,-0.26695c0.06948,-0.06512 0.12131,-0.21361 0.13797,-0.39527zM234.89037,174.1829c0.003,-0.0027 0.00601,-0.00536 0.00901,-0.00795c-0.00279,0.00093 -0.00551,0.00299 -0.00804,0.00609c-0.00032,0.00062 -0.00065,0.00123 -0.00097,0.00186z" fill="#74b140" fill-rule="nonzero"/><path d="M229.43304,174.74216c-0.00599,-0.59053 -0.05298,-1.14998 0.05029,-1.7066c0.06794,-0.36891 0.17276,-0.64238 0.17628,-1.06602c0.15946,-0.17606 0.31941,-0.34809 0.48145,-0.51729c-0.00275,0.24012 -0.0153,0.47886 -0.0245,0.67979c-0.02034,0.43857 -0.05639,0.87165 -0.10772,1.29393c-0.04623,0.37448 -0.13258,0.75075 -0.16007,1.13527c-0.03585,0.51208 0.0676,1.00885 0.12715,1.49044c0.05955,0.48159 0.10921,0.96848 0.15511,1.46042c0.02283,0.25598 -0.08574,0.55654 -0.18843,0.38759c-0.20955,-0.34356 -0.44285,-0.74625 -0.53946,-1.35401c-0.09928,-0.62998 0.03376,-1.16509 0.0299,-1.80353z" fill="#74b140" fill-rule="evenodd"/><path d="M229.3121,178.37293c0.01373,0.12683 0.02301,0.26534 0.02593,0.40337c-0.16801,0.02373 -0.33602,0.04735 -0.50403,0.07084c-0.06904,-0.39203 -0.15903,-0.7402 -0.23828,-1.14741c-0.06124,-0.28208 -0.07705,-0.61252 -0.04415,-0.92305c-0.00586,-0.09724 0.00413,-0.19632 0.02772,-0.2748c0.02359,-0.07847 0.05878,-0.12968 0.09759,-0.14204c0.05286,-0.03185 0.10846,0.01014 0.14558,0.10996c0.11761,0.11798 0.25643,0.23748 0.32275,0.49793c0.09687,0.37615 0.12104,0.97933 0.16689,1.4052z" fill="#74b140" fill-rule="evenodd"/><path d="M248.52037,172.25537c0.22879,0.25549 0.45565,0.52419 0.6806,0.80612c-0.02,0.06325 -0.04236,0.12156 -0.06678,0.17409c-0.23121,0.50599 -0.49461,0.18123 -0.57631,-0.49954c-0.01729,-0.15763 -0.02983,-0.31831 -0.03752,-0.48067z" fill="#74b140" fill-rule="evenodd"/><path d="M249.54447,174.33334c-0.03377,-0.10464 -0.03938,-0.24994 -0.01422,-0.36891c0.02148,-0.13604 0.03836,-0.27641 0.05046,-0.41958c0.16026,0.2105 0.32013,0.42497 0.47961,0.64343c-0.01929,0.01463 -0.03856,0.02926 -0.05946,0.04511c-0.10543,0.07115 -0.21127,0.13161 -0.31572,0.21085c-0.0515,0.03742 -0.1069,-0.00625 -0.14068,-0.11088z" fill="#74b140" fill-rule="evenodd"/><path d="M250.30887,174.53531c0.18941,0.27068 0.37793,0.54863 0.5651,0.82984c0.01094,0.01815 0.02189,0.03628 0.03339,0.0518c0.17067,0.26065 0.33942,0.52716 0.50785,0.79833l0.07403,0.12016c0.16004,0.2621 0.32028,0.52845 0.48075,0.79904l0.05416,0.09336c0.17394,0.30004 0.34623,0.60575 0.51684,0.91712c0.00379,0.13477 0.01013,0.27059 0.01709,0.4069c-0.26666,-0.01838 -0.53507,-0.03723 -0.80494,-0.05632c-0.05583,-0.23265 -0.11687,-0.45759 -0.19326,-0.62904c-0.12398,-0.28064 -0.29312,-0.28016 -0.39936,-0.62494c-0.0899,-0.28886 -0.10395,-0.63967 -0.14444,-0.97702c-0.08846,-0.69329 -0.19363,-0.34241 -0.39701,-0.45922c-0.1032,-0.06295 -0.18923,-0.24138 -0.23344,-0.48413c-0.05297,-0.24413 -0.04696,-0.53743 -0.07678,-0.7859z" fill="#74b140" fill-rule="evenodd"/><path d="M249.84593,177.77815c0.00002,-0.11658 0.02411,-0.22479 0.06363,-0.28578c0.03952,-0.06099 0.0888,-0.06602 0.13016,-0.01331c0.07876,0.07926 0.15156,0.19175 0.21526,0.33262c0.08037,-0.43182 0.2289,-0.75946 0.40966,-0.90364c0.06962,-0.05161 0.14281,0.04709 0.16421,0.22146l0.16035,1.31196c-0.3808,-0.02689 -0.76394,-0.0537 -1.14862,-0.07966z" fill="#74b140" fill-rule="evenodd"/></g><text transform="translate(178.44025,27.18501) scale(0.30583,0.30583)" font-size="40" xml:space="preserve" fill="#ffffff" fill-rule="nonzero" stroke="#ffffff" stroke-width="1" stroke-linecap="butt" stroke-linejoin="miter" stroke-miterlimit="10" stroke-dasharray="" stroke-dashoffset="0" font-family="Handwriting" font-weight="normal" text-anchor="start" style="mix-blend-mode: normal"></text><g stroke="none" stroke-linecap="butt"><path d="M255.589,68.05471c0,8.85768 -7.31395,16.03825 -16.33618,16.03825c-9.02222,0 -16.33618,-7.18057 -16.33618,-16.03825c0,-8.85768 7.31395,-16.03825 16.33618,-16.03825c9.02222,0 16.33618,7.18057 16.33618,16.03825z" fill="url(#color-2)" fill-rule="nonzero" stroke-width="0"/><path d="M251.14067,69.39693c-0.14036,0.21055 -0.37431,0.37431 -0.53806,0.58486c-0.37431,0.49128 -0.37431,0.93578 -0.16376,1.49724c0.46789,1.2165 0.16376,2.62015 -0.8188,3.48574c-0.46789,0.42109 -1.09953,0.67843 -1.70778,0.74862c-0.84219,0.09357 -0.79541,0.09357 -1.49723,0.77201c-0.58486,0.60825 -0.70182,1.6376 -1.31008,2.22246c-0.37431,0.37431 -0.98255,1.00595 -2.45639,0.74862c-0.79541,-0.16376 -1.38027,-0.3977 -2.15227,-0.56146c-1.14632,-0.23394 -1.00595,-0.11697 -1.82476,0.56146c-1.09953,0.88898 -2.71374,1.42705 -3.86005,0.4211c-0.60825,-0.53806 -0.91238,-1.19311 -1.38027,-1.82475c-0.70182,-0.95916 -1.49723,-0.88898 -2.57337,-0.95916c-1.2165,-0.07018 -2.0353,-1.14632 -2.0353,-2.40961c-0.0234,-0.8188 0.09357,-1.70778 -0.37431,-2.45639c-0.35092,-0.56146 -0.70182,-0.98255 -1.09953,-1.49723c-1.02934,-1.28668 -0.60825,-2.54997 0.0234,-3.88345c0.46788,-0.98255 -0.67843,-1.47384 -0.42109,-2.433c0.16376,-0.60825 1.94173,-1.45044 2.05869,-3.04125c0.04679,-0.60825 -0.14037,-2.54997 1.19311,-2.40961c0.3977,0.04679 0.93578,0.07018 1.28668,-0.16376c0.44449,-0.30413 0.44449,-0.44449 0.53806,-0.93577c0.28073,-1.49724 1.2165,-2.26924 2.76052,-1.80136c0.58486,0.18716 1.02935,0.46789 1.6376,0.3977c0.63165,-0.07018 0.93577,-0.53806 1.45044,-0.84219c0.56146,-0.35092 1.38026,-0.65504 2.05869,-0.49128c0.65504,0.16376 0.74862,0.67843 1.12292,1.16971c0.77201,1.00595 1.70778,0.14037 2.64355,0.0234c1.14632,-0.14037 2.10549,0.51467 2.33942,1.49724c0.09357,0.37431 0.21055,0.63165 0.46789,0.91238c0.35092,0.37431 0.51467,0.3977 0.98255,0.42109c0.56146,0.0234 1.33347,0.28073 1.73117,0.67843c1.12292,1.16971 0.09357,2.71374 0.23394,4.11739c0.09357,1.05274 0.95916,1.33347 1.54402,2.05869c0.37431,0.44449 0.58486,1.02935 0.60825,1.6142c0.0234,0.63165 -0.14036,1.26329 -0.46789,1.77796z" fill="#ff760d" fill-rule="evenodd" stroke-width="1"/><path d="M250.01775,70.14555c0.18716,0.8188 0.25734,1.70778 -0.25733,2.433c-0.30413,0.42109 -0.72522,0.3977 -1.02935,0.72522c-0.77201,0.84219 -0.21055,2.05869 -0.91238,3.13483c-0.3977,0.60825 -1.66099,0.70183 -2.40961,0.74862c-0.07018,0 -0.44449,0.07018 -0.49128,0.37431c-0.32752,1.16971 -1.68439,1.35687 -2.83071,1.45044c-0.86559,0.07018 -1.54402,0.58485 -2.433,0.44449c-0.3977,-0.07018 -0.79541,-0.28073 -1.19311,-0.32752c-0.60825,-0.07018 -0.8188,0.21055 -1.33347,0.28073c-0.77201,0.07018 -1.2165,-0.51467 -1.87154,-0.77201c-0.67843,-0.25734 -1.42705,-0.16376 -2.08209,-0.51467c-0.70182,-0.37431 -1.07614,-1.09953 -1.73117,-1.52063c-0.51467,-0.32752 -0.8188,-0.72522 -1.07614,-1.28668c-0.23394,-0.46788 -0.28073,-0.8188 -0.74862,-1.12292c-0.23394,-0.16376 -0.42109,-0.21055 -0.63165,-0.42109c-0.51467,-0.51467 -1.14632,-0.74862 -1.2399,-2.10548c-0.0234,-0.3977 -0.16376,-0.67843 -0.16376,-1.07614c0,-0.42109 -0.04679,-0.70182 -0.16376,-1.14632c-0.23394,-0.77201 0.11697,-1.52063 0.28073,-2.31603c0.18716,-1.00595 -0.04679,-1.80136 0,-2.83071c0.0234,-0.72522 0.25734,-1.26329 0.77201,-1.77796c0.32752,-0.30413 0.74862,-0.49128 1.00595,-0.88898c0.28073,-0.44449 0.35092,-0.98256 0.56146,-1.45044c0.25734,-0.58486 0.60825,-1.05274 1.2165,-1.33347c0.04679,-0.0234 1.94172,-0.67843 3.39217,-2.10549c0.93577,-0.93578 2.10548,-0.11697 3.32198,-0.07018c1.35687,0.04679 2.47979,-0.56146 3.81326,-0.04679c0.60825,0.23394 1.16971,0.63165 1.77796,0.8188c0.58486,0.18716 0.93578,-0.0234 1.54402,0.11697c1.14632,0.28073 1.66099,2.33942 2.50318,3.34538c0.84219,0.98255 1.96512,1.09953 2.26924,2.45639c0.16376,0.65504 -0.07018,1.28668 0.21055,1.89493c0.23394,0.49128 0.63165,0.86559 0.79541,1.38026c0.35092,1.14631 -1.07614,2.71374 -0.86559,3.50913z" fill="#ff5d1c" fill-rule="evenodd" stroke-width="1"/><path d="M238.97566,57.18514c1.19311,0 2.54998,0.77201 3.62611,1.16971c1.14632,0.3977 2.12888,0.30413 3.06464,1.05274c0.86559,0.70183 0.77201,1.6142 1.38026,2.57337c0.42109,0.65504 1.56741,1.16971 1.96512,2.0119c0.56146,1.16971 0.32753,2.69034 0.32753,3.86005c0,0.79541 0.32752,2.31603 0.16376,3.06464c-0.3977,1.73117 -2.17567,2.26924 -3.29859,3.55592c-0.91238,1.02935 -1.49723,2.12888 -2.73713,2.71374c-1.35687,0.65504 -2.50318,1.5908 -4.11739,1.5908c-0.86559,0 -2.08209,-1.16971 -2.87749,-1.38027c-1.07614,-0.25734 -3.18162,0.25734 -3.69629,-0.70182c-1.73117,-3.2752 -2.29264,-2.83071 -3.11144,-4.04721c-1.09953,-1.6376 -0.72522,-2.78392 -0.72522,-4.91279c0,-1.09953 -0.60825,-2.15227 -0.28073,-3.13483c0.3977,-1.2399 1.49723,-2.26924 2.29264,-3.2518c1.12292,-1.40365 3.20501,-1.98851 4.8894,-2.66695c1.12292,-0.44449 1.80136,-1.49723 3.13483,-1.49723z" fill="#ff4721" fill-rule="evenodd" stroke-width="1"/><path d="M231.00083,67.61897c0,-4.52067 3.66472,-8.18539 8.18539,-8.18539c4.52067,0 8.18539,3.66472 8.18539,8.18539c0,4.52067 -3.66472,8.18539 -8.18539,8.18539c-4.52067,0 -8.18539,-3.66472 -8.18539,-8.18539z" fill="#ff3838" fill-rule="evenodd" stroke-width="1"/></g></g></g></svg>