<svg version="1.1" xmlns="http://www.w3.org/2000/svg" xmlns:xlink="http://www.w3.org/1999/xlink" width="122" height="164.74161" viewBox="0,0,122,164.74161"><defs><linearGradient x1="240.61953" y1="58.29929" x2="240.61953" y2="237.16752" gradientUnits="userSpaceOnUse" id="color-1"><stop offset="0" stop-color="#000000"/><stop offset="1" stop-color="#000000" stop-opacity="0"/></linearGradient><radialGradient cx="241.08794" cy="126.31827" r="61" gradientUnits="userSpaceOnUse" id="color-2"><stop offset="0" stop-color="#000482"/><stop offset="1" stop-color="#000482" stop-opacity="0"/></radialGradient><radialGradient cx="246.75461" cy="113.81828" r="12.5" gradientUnits="userSpaceOnUse" id="color-3"><stop offset="0" stop-color="#ffffff"/><stop offset="1" stop-color="#ffffff" stop-opacity="0"/></radialGradient><radialGradient cx="226.08795" cy="137.31828" r="8.66667" gradientUnits="userSpaceOnUse" id="color-4"><stop offset="0" stop-color="#ffffff"/><stop offset="1" stop-color="#ffffff" stop-opacity="0"/></radialGradient><radialGradient cx="271.92127" cy="147.1516" r="9.16667" gradientUnits="userSpaceOnUse" id="color-5"><stop offset="0" stop-color="#ffffff"/><stop offset="1" stop-color="#ffffff" stop-opacity="0"/></radialGradient><radialGradient cx="278.42127" cy="113.81828" r="5.66667" gradientUnits="userSpaceOnUse" id="color-6"><stop offset="0" stop-color="#ffffff"/><stop offset="1" stop-color="#ffffff" stop-opacity="0"/></radialGradient><radialGradient cx="252.92128" cy="92.31828" r="5.83334" gradientUnits="userSpaceOnUse" id="color-7"><stop offset="0" stop-color="#ffffff"/><stop offset="1" stop-color="#ffffff" stop-opacity="0"/></radialGradient><radialGradient cx="216.58795" cy="95.98494" r="8.5" gradientUnits="userSpaceOnUse" id="color-8"><stop offset="0" stop-color="#ffffff"/><stop offset="1" stop-color="#ffffff" stop-opacity="0"/></radialGradient><radialGradient cx="207.92128" cy="120.81828" r="7.83333" gradientUnits="userSpaceOnUse" id="color-9"><stop offset="0" stop-color="#ffffff"/><stop offset="1" stop-color="#ffffff" stop-opacity="0"/></radialGradient><radialGradient cx="209.42128" cy="159.81828" r="7.66667" gradientUnits="userSpaceOnUse" id="color-10"><stop offset="0" stop-color="#ffffff"/><stop offset="1" stop-color="#ffffff" stop-opacity="0"/></radialGradient><radialGradient cx="250.42128" cy="165.48494" r="5.33334" gradientUnits="userSpaceOnUse" id="color-11"><stop offset="0" stop-color="#ffffff"/><stop offset="1" stop-color="#ffffff" stop-opacity="0"/></radialGradient><radialGradient cx="246.75461" cy="114.48494" r="12.33333" gradientUnits="userSpaceOnUse" id="color-12"><stop offset="0" stop-color="#ffffff"/><stop offset="1" stop-color="#ffffff" stop-opacity="0"/></radialGradient></defs><g transform="translate(-180.08794,-47.5948)"><g data-paper-data="{&quot;isPaintingLayer&quot;:true}" fill-rule="nonzero" stroke-linecap="butt" stroke-linejoin="miter" stroke-miterlimit="10" stroke-dasharray="" stroke-dashoffset="0" style="mix-blend-mode: normal"><path d="M284.37023,179.7094c0.07585,1.88165 -6.82295,7.07192 -42.75929,7.07192c-35.93634,0 -45.96971,-4.43047 -45.98172,-7.45949c-0.01038,-2.6151 9.30175,-6.10294 45.23807,-6.10294c35.93634,0 43.43354,4.76932 43.50294,6.49051z" fill="url(#color-1)" stroke="none" stroke-width="0"/><text transform="translate(217.7178,206.35667) scale(0.357,0.357)" font-size="40" xml:space="preserve" fill="#ffffff" fill-rule="nonzero" stroke="#ffffff" stroke-width="0.5" stroke-linecap="butt" stroke-linejoin="miter" stroke-miterlimit="10" stroke-dasharray="" stroke-dashoffset="0" font-family="Handwriting" font-weight="normal" text-anchor="start" style="mix-blend-mode: normal"></text><text transform="translate(198.75542,60.70367) scale(0.34497,0.34497)" font-size="40" xml:space="preserve" fill="#ffffff" fill-rule="nonzero" stroke="#ffffff" stroke-width="1" stroke-linecap="butt" stroke-linejoin="miter" stroke-miterlimit="10" stroke-dasharray="" stroke-dashoffset="0" font-family="Handwriting" font-weight="normal" text-anchor="start" style="mix-blend-mode: normal"></text><path d="M302.08794,126.31827c0,33.59732 -27.31063,60.83333 -61,60.83333c-33.68937,0 -61,-27.23601 -61,-60.83333c0,-33.59732 27.31063,-60.83333 61,-60.83333c33.68937,0 61,27.23601 61,60.83333z" fill="url(#color-2)" stroke="none" stroke-width="0"/><path d="M258.33885,109.12196c0.72623,1.79139 -3.87147,5.34619 -10.26927,7.9399c-6.3978,2.59371 -12.17298,3.24411 -12.89921,1.45273c-0.72624,-1.79139 3.87147,-5.34619 10.26927,-7.9399c6.3978,-2.5937 12.17298,-3.24411 12.89921,-1.45273z" fill="url(#color-3)" stroke="none" stroke-width="0"/><path d="M233.56985,141.69231c-0.88267,1.50982 -4.94797,0.77545 -9.08011,-1.64026c-4.13214,-2.41572 -6.76637,-5.59799 -5.8837,-7.10781c0.88267,-1.50982 4.94797,-0.77545 9.08011,1.64026c4.13214,2.41572 6.76637,5.59799 5.8837,7.10781z" fill="url(#color-4)" stroke="none" stroke-width="0"/><path d="M279.95739,151.56167c-0.97424,1.77529 -5.36192,1.23999 -9.80014,-1.19562c-4.43822,-2.43561 -7.24633,-5.84921 -6.27209,-7.6245c0.97424,-1.77529 5.36191,-1.23999 9.80014,1.19562c4.43822,2.43561 7.24633,5.84922 6.27209,7.62451z" fill="url(#color-5)" stroke="none" stroke-width="0"/><path d="M282.3489,109.73355c1.32702,1.27598 0.64432,4.13916 -1.52484,6.39509c-2.16916,2.25593 -5.00338,3.05034 -6.3304,1.77436c-1.32702,-1.27598 -0.64432,-4.13916 1.52484,-6.39509c2.16916,-2.25593 5.00338,-3.05034 6.3304,-1.77436z" fill="url(#color-6)" stroke="none" stroke-width="0"/><path d="M257.35166,94.9765c-1.65753,2.76255 -4.98477,3.81191 -7.4316,2.34381c-2.44683,-1.4681 -3.08669,-4.89772 -1.42916,-7.66027c1.65753,-2.76255 4.98478,-3.81191 7.43161,-2.34381c2.44683,1.4681 3.08668,4.89772 1.42915,7.66027z" fill="url(#color-7)" stroke="none" stroke-width="0"/><path d="M220.04329,96.54226c-0.7475,4.63452 -2.90049,8.14203 -4.80882,7.83424c-1.90833,-0.30779 -2.84937,-4.31434 -2.10187,-8.94886c0.7475,-4.63452 2.90049,-8.14203 4.80882,-7.83424c1.90833,0.30779 2.84938,4.31434 2.10187,8.94886z" fill="url(#color-8)" stroke="none" stroke-width="0"/><path d="M215.1065,123.93817c-0.21997,0.50659 -3.61522,-0.47956 -7.58351,-2.20264c-3.96829,-1.72307 -7.00689,-3.53057 -6.78693,-4.03716c0.21997,-0.50659 3.61521,0.47956 7.5835,2.20264c3.96829,1.72307 7.0069,3.53057 6.78694,4.03716z" fill="url(#color-9)" stroke="none" stroke-width="0"/><path d="M212.07961,157.29286c2.91629,3.06978 4.09024,6.68899 2.62208,8.08374c-1.46815,1.39475 -5.02246,0.03687 -7.93875,-3.03291c-2.91629,-3.06978 -4.09024,-6.689 -2.62208,-8.08375c1.46815,-1.39475 5.02246,-0.03687 7.93875,3.03292z" fill="url(#color-10)" stroke="none" stroke-width="0"/><path d="M254.90286,162.5936c0.69862,1.08286 -0.74151,3.25519 -3.21662,4.85204c-2.47511,1.59685 -5.04792,2.01352 -5.74654,0.93066c-0.69862,-1.08286 0.74151,-3.25519 3.21662,-4.85204c2.47511,-1.59685 5.04792,-2.01352 5.74654,-0.93066z" fill="url(#color-11)" stroke="none" stroke-width="0"/><path d="M259.08794,114.48494c0,6.07513 -5.52182,11 -12.33333,11c-6.81151,0 -12.33333,-4.92487 -12.33333,-11c0,-6.07513 5.52182,-11 12.33333,-11c6.81151,0 12.33333,4.92487 12.33333,11z" fill="url(#color-12)" stroke="none" stroke-width="0"/></g></g></svg>