<svg version="1.1" xmlns="http://www.w3.org/2000/svg" xmlns:xlink="http://www.w3.org/1999/xlink" width="135.47519" height="168.61829" viewBox="0,0,135.47519,168.61829"><defs><linearGradient x1="236.34021" y1="113.65742" x2="236.34021" y2="211.8985" gradientUnits="userSpaceOnUse" id="color-1"><stop offset="0" stop-color="#000000"/><stop offset="1" stop-color="#000000" stop-opacity="0"/></linearGradient></defs><g transform="translate(-175.0375,-37.95749)"><g data-paper-data="{&quot;isPaintingLayer&quot;:true}" fill-rule="nonzero" stroke-linecap="butt" stroke-linejoin="miter" stroke-miterlimit="10" stroke-dasharray="" stroke-dashoffset="0" style="mix-blend-mode: normal"><path d="M260.36979,180.34035c0.04166,1.03347 -3.74742,3.88416 -23.485,3.88416c-19.73758,0 -25.24828,-2.43338 -25.25488,-4.09703c-0.0057,-1.43631 5.10887,-3.35196 24.84644,-3.35196c19.73758,0 23.85532,2.61949 23.89344,3.56483z" fill="url(#color-1)" stroke="none" stroke-width="0"/><text transform="translate(225.12802,201.72799) scale(0.28942,0.28942)" font-size="40" xml:space="preserve" fill="#000000" fill-rule="nonzero" stroke="#000000" stroke-width="0.5" stroke-linecap="butt" stroke-linejoin="miter" stroke-miterlimit="10" stroke-dasharray="" stroke-dashoffset="0" font-family="Handwriting" font-weight="normal" text-anchor="start" style="mix-blend-mode: normal"></text><text transform="translate(175.18899,49.46997) scale(0.30296,0.30296)" font-size="40" xml:space="preserve" fill="#000000" fill-rule="nonzero" stroke="#000000" stroke-width="1" stroke-linecap="butt" stroke-linejoin="miter" stroke-miterlimit="10" stroke-dasharray="" stroke-dashoffset="0" font-family="Handwriting" font-weight="normal" text-anchor="start" style="mix-blend-mode: normal"></text><text transform="translate(209.70238,69.49147) scale(0.28998,0.28998)" font-size="40" xml:space="preserve" fill="#000000" fill-rule="nonzero" stroke="#000000" stroke-width="1" stroke-linecap="butt" stroke-linejoin="miter" stroke-miterlimit="10" stroke-dasharray="" stroke-dashoffset="0" font-family="Handwriting" font-weight="normal" text-anchor="start" style="mix-blend-mode: normal"></text><g stroke="none" stroke-width="0.81451"><path d="M236.13795,91.8475l2.64426,-1.23325l0.33356,11.02343l3.77538,-3.4743l1.85217,1.12486l-5.56542,6.02254c0,0 0.14682,8.50908 0.23328,13.14453c0.00911,0.48855 7.17287,-4.3817 7.17287,-4.3817l0.5815,2.42787c0,0 -7.67069,5.46111 -7.66055,6.0051c0.26736,14.33534 1.06418,57.05884 1.06418,57.05884l-6.84791,-0.18422c0,0 1.65555,-43.64459 1.09702,-49.80385c0,0 -3.9296,-1.84498 -9.1844,-6.82372l1.08049,-3.46823c0,0 5.40966,4.72941 8.80014,6.19949c-0.0194,0.03066 0.31447,-6.72698 0.18618,-13.59701c-0.00901,-0.48239 -7.84279,-6.30262 -7.84279,-6.30262l1.18237,-2.07506c0,0 6.7207,5.46492 6.7351,5.00975c0.06002,-1.89808 0.3626,-16.67246 0.3626,-16.67246z" fill="#854a42"/><path d="M229.22635,124.06113c1.79358,1.53984 4.59466,3.51466 4.64285,3.5452c0.08756,0.02162 0.11413,0.13972 0.04426,0.19676c-0.03047,0.04823 -0.06986,0.05709 -0.10919,0.06593c-0.03938,0.00886 -0.07871,0.01771 -0.12695,-0.01282c-0.04818,-0.03048 -2.75284,-1.94429 -4.58576,-3.47534z" fill="#702d15"/><path d="M235.85022,127.88085c-0.03938,0.00886 -4.06541,-1.89716 -8.18873,-5.89002l0.09545,-0.31093c4.13218,4.03223 8.15821,5.93826 8.20644,5.96873c0.08757,0.02168 0.10528,0.10038 0.08361,0.18795c-0.03933,0.00885 -0.06987,0.05704 -0.10919,0.06589c-0.03938,0.00886 -0.07871,0.0177 -0.08756,-0.02163z" fill="#702d15"/><path d="M235.82662,146.55782l-0.03938,0.00886c-0.08757,-0.02168 -0.14461,-0.09154 -0.12298,-0.17909c0.36034,-4.4639 0.11979,-16.194 0.13262,-16.32091c-0.01771,-0.07871 0.05215,-0.1358 0.13086,-0.15351c0.07871,-0.01771 0.13575,0.05216 0.15346,0.13088c-0.01277,0.12694 0.22776,11.85699 -0.12371,16.36028c-0.02168,0.08757 -0.05215,0.1358 -0.13086,0.1535z" fill="#702d15"/><path d="M237.84519,141.01143l-0.03933,0.00885c-0.08757,-0.02168 -0.14466,-0.09152 -0.12299,-0.17909c0.51383,-5.98701 0.67552,-12.80444 0.65781,-12.88316c-0.01771,-0.07871 0.05216,-0.13575 0.17025,-0.16232c0.07871,-0.01771 0.1446,0.09149 0.1623,0.17021c0.01771,0.07871 -0.13512,6.93553 -0.64895,12.92253c-0.06987,0.05704 -0.10038,0.10528 -0.17909,0.12299z" fill="#702d15"/><path d="M237.25585,128.72238v0c-0.12695,-0.01282 -0.18399,-0.08268 -0.20169,-0.16139c0.38307,-7.48743 -0.38408,-14.75754 -0.35354,-14.80573c-0.01771,-0.07871 0.05214,-0.1358 0.13086,-0.1535c0.07871,-0.01771 0.17513,0.0433 0.15351,0.13086c0.01771,0.07871 0.74542,7.35769 0.36235,14.84512c0.01771,0.07871 -0.01277,0.12694 -0.09148,0.14465z" fill="#702d15"/><path d="M236.60652,110.47552c-0.004,-0.09736 0.21512,-6.88942 0.1988,-13.35025l0.37995,-0.45205c0.02431,6.65543 -0.23229,13.7473 -0.22829,13.84453c0.00799,0.19459 -0.08699,0.30765 -0.18597,0.32337v0c-0.09898,0.01572 -0.20596,-0.16316 -0.16449,-0.36561z" fill="#702d15"/><path d="M238.81068,122.48085c-0.1269,-0.01283 -0.184,-0.08267 -0.15346,-0.13086c0.02162,-0.08756 -0.27024,-8.00208 -0.86815,-14.15247l0.27943,-0.22825c0.60677,6.18977 0.85533,14.27937 0.87303,14.35809c-0.02162,0.08756 -0.05215,0.1358 -0.13086,0.1535c0,0 -0.03933,0.00885 0,0z" fill="#702d15"/><path d="M238.20406,168.50995l-0.03938,0.01303c-0.08757,-0.03187 -0.14461,-0.13458 -0.12298,-0.26331c0.36034,-6.56277 0.11979,-23.80819 0.13262,-23.99476c-0.01771,-0.11572 0.05215,-0.19965 0.13086,-0.22568c0.07871,-0.02603 0.13575,0.07668 0.15346,0.1924c-0.01277,0.18662 0.22776,17.43197 -0.12371,24.05265c-0.02168,0.12875 -0.05215,0.19964 -0.13086,0.22568z" fill="#702d15"/><path d="M236.16703,156.3581c-0.0046,-0.057 0.24759,-4.03343 0.22882,-7.81595l0.43729,-0.26465c0.02798,3.89644 -0.26735,8.04839 -0.26275,8.10532c0.0092,0.11393 -0.10012,0.18012 -0.21405,0.18932v0c-0.11393,0.0092 -0.23705,-0.09552 -0.18932,-0.21405z" fill="#702d15"/><path d="M235.62789,176.94953l-0.03537,0.01193c-0.07875,-0.02924 -0.13009,-0.12346 -0.1106,-0.24158c0.46208,-8.07601 0.60748,-17.2722 0.59155,-17.37838c-0.01592,-0.10618 0.04691,-0.18311 0.15311,-0.21895c0.07078,-0.02388 0.13003,0.12341 0.14596,0.22959c0.01592,0.10618 -0.12151,9.35549 -0.58359,17.43149c-0.06283,0.07694 -0.09028,0.14201 -0.16106,0.1659z" fill="#702d15"/><g><path d="M223.5356,113.07777c6.09438,0 8.20739,1.96301 8.62998,2.80056c0.42261,0.83754 1.64594,7.02319 0.2669,9.4835c-1.379,2.46902 -6.36126,2.99249 -8.71895,2.95759c-6.87284,-0.11341 -8.34085,-1.75361 -8.89688,-2.79183c-0.55606,-1.03821 -2.37994,-6.97958 0,-9.9459c0.75623,-0.94224 3.31408,-2.49519 8.71895,-2.50392z" fill="#00a3a6"/><path d="M232.87735,124.13167c-0.11122,0.47113 -0.24468,0.8899 -0.44487,1.23888c-1.379,2.46903 -6.36126,2.9925 -8.71895,2.9576c-6.87284,-0.11342 -8.34085,-1.75363 -8.89688,-2.79183c-0.02226,-0.0349 -0.04448,-0.0698 -0.06674,-0.11342c0.82297,-1.30867 3.60324,-2.20729 8.02945,-1.19525c1.97956,-1.11674 7.65133,-1.31739 10.09798,-0.09597z" fill="#008994"/><path d="M216.78223,115.35353c0.12324,0 0.23487,0.05001 0.3157,0.13082c0.08081,0.08083 0.13082,0.19246 0.13082,0.3157c0,0.12324 -0.05001,0.23488 -0.13082,0.3157c-0.08083,0.08083 -0.19246,0.13082 -0.3157,0.13082c-0.12324,0 -0.23488,-0.05 -0.3157,-0.13082c-0.08081,-0.08083 -0.13082,-0.19246 -0.13082,-0.3157c0,-0.12324 0.05001,-0.23487 0.13082,-0.3157c0.08083,-0.08081 0.19247,-0.13082 0.3157,-0.13082z" fill="#00d9f9"/><path d="M218.13669,115.60655c0.10672,0 0.20346,0.04333 0.27358,0.11343c0.0701,0.0701 0.1134,0.16686 0.1134,0.27358c0,0.10672 -0.04331,0.20346 -0.1134,0.27356c-0.07012,0.07012 -0.16686,0.11342 -0.27358,0.11342c-0.10672,0 -0.20346,-0.04331 -0.27358,-0.11342c-0.0701,-0.0701 -0.1134,-0.16684 -0.1134,-0.27356c0,-0.10672 0.04331,-0.20348 0.1134,-0.27358c0.07012,-0.0701 0.16686,-0.11343 0.27358,-0.11343z" fill="#00d9f9"/><path d="M217.27341,116.44007c0.11491,0 0.21909,0.04673 0.29456,0.1222c0.07545,0.07545 0.1222,0.17965 0.1222,0.29456c0,0.11491 -0.04675,0.21911 -0.1222,0.29456c-0.07547,0.07547 -0.17965,0.1222 -0.29456,0.1222c-0.11491,0 -0.21911,-0.04673 -0.29456,-0.1222c-0.07547,-0.07545 -0.1222,-0.17965 -0.1222,-0.29456c0,-0.11491 0.04673,-0.21911 0.1222,-0.29456c0.07545,-0.07547 0.17965,-0.1222 0.29456,-0.1222z" fill="#00d9f9"/><path d="M223.89689,117.58616c0.1027,0 0.19573,0.04166 0.263,0.10909c0.06743,0.06728 0.10912,0.1603 0.10912,0.263c0,0.10272 -0.04169,0.19573 -0.10912,0.26301c-0.06727,0.06743 -0.1603,0.1091 -0.263,0.1091c-0.1027,0 -0.19573,-0.04167 -0.263,-0.1091c-0.06743,-0.06728 -0.10912,-0.1603 -0.10912,-0.26301c0,-0.1027 0.04168,-0.19572 0.10912,-0.263c0.06727,-0.06743 0.1603,-0.10909 0.263,-0.10909z" fill="#00d9f9"/><path d="M225.2067,118.03268c0.10672,0 0.20346,0.04331 0.27356,0.11342c0.0701,0.0701 0.11343,0.16684 0.11343,0.27356c0,0.10672 -0.04333,0.20346 -0.11343,0.27358c-0.0701,0.0701 -0.16684,0.11341 -0.27356,0.11341c-0.10672,0 -0.20348,-0.04331 -0.27358,-0.11341c-0.0701,-0.07012 -0.11342,-0.16686 -0.11342,-0.27358c0,-0.10672 0.04332,-0.20346 0.11342,-0.27356c0.0701,-0.07012 0.16686,-0.11342 0.27358,-0.11342z" fill="#00d9f9"/><path d="M224.269,118.88108c0.11907,0 0.22698,0.04837 0.30512,0.12651c0.07814,0.07814 0.12651,0.18605 0.12651,0.30514c0,0.11907 -0.04837,0.22698 -0.12651,0.30512c-0.07814,0.07814 -0.18605,0.12651 -0.30512,0.12651c-0.11907,0 -0.227,-0.04837 -0.30514,-0.12651c-0.07814,-0.07814 -0.12651,-0.18605 -0.12651,-0.30512c0,-0.11909 0.04837,-0.227 0.12651,-0.30514c0.07814,-0.07814 0.18607,-0.12651 0.30514,-0.12651z" fill="#00d9f9"/><path d="M220.13118,122.36399c0.10672,0 0.20346,0.04332 0.27358,0.11342c0.0701,0.0701 0.1134,0.16684 0.1134,0.27356c0,0.10672 -0.04331,0.20348 -0.1134,0.27358c-0.07012,0.0701 -0.16686,0.11342 -0.27358,0.11342c-0.10672,0 -0.20346,-0.04332 -0.27358,-0.11342c-0.0701,-0.0701 -0.11341,-0.16686 -0.11341,-0.27358c0,-0.10672 0.04331,-0.20346 0.11341,-0.27356c0.07012,-0.0701 0.16686,-0.11342 0.27358,-0.11342z" fill="#00d9f9"/><path d="M216.78223,124.13522c0.13545,0 0.25825,0.05506 0.34724,0.14393c0.08887,0.08901 0.14394,0.2118 0.14394,0.34724c0,0.13545 -0.05508,0.25825 -0.14394,0.34726c-0.08899,0.08885 -0.21179,0.14393 -0.34724,0.14393c-0.13545,0 -0.25825,-0.05508 -0.34724,-0.14393c-0.08887,-0.08901 -0.14394,-0.21181 -0.14394,-0.34726c0,-0.13545 0.05508,-0.25823 0.14394,-0.34724c0.08899,-0.08887 0.2118,-0.14393 0.34724,-0.14393z" fill="#00d9f9"/><path d="M217.83901,125.02827c0.11491,0 0.21909,0.04673 0.29456,0.1222c0.07547,0.07547 0.1222,0.17965 0.1222,0.29456c0,0.11491 -0.04672,0.21911 -0.1222,0.29456c-0.07547,0.07547 -0.17965,0.1222 -0.29456,0.1222c-0.11491,0 -0.21911,-0.04673 -0.29456,-0.1222c-0.07547,-0.07545 -0.1222,-0.17965 -0.1222,-0.29456c0,-0.11491 0.04673,-0.21909 0.1222,-0.29456c0.07545,-0.07547 0.17965,-0.1222 0.29456,-0.1222z" fill="#00d9f9"/><path d="M229.54398,116.11321c0.13545,0 0.25825,0.05508 0.34724,0.14393c0.08887,0.08901 0.14394,0.21181 0.14394,0.34726c0,0.13545 -0.05508,0.25823 -0.14394,0.34724c-0.08899,0.08887 -0.21179,0.14393 -0.34724,0.14393c-0.13545,0 -0.25825,-0.05506 -0.34724,-0.14393c-0.08887,-0.08901 -0.14394,-0.2118 -0.14394,-0.34724c0,-0.13545 0.05508,-0.25825 0.14394,-0.34726c0.08899,-0.08885 0.21179,-0.14393 0.34724,-0.14393z" fill="#00d9f9"/><path d="M228.77,117.2444c0.12726,0 0.24261,0.05166 0.32612,0.1353c0.08364,0.08351 0.13528,0.19886 0.13528,0.32612c0,0.12726 -0.05164,0.24262 -0.13528,0.32612c-0.08351,0.08364 -0.19885,0.1353 -0.32612,0.1353c-0.12726,0 -0.24262,-0.05166 -0.32611,-0.1353c-0.08366,-0.0835 -0.1353,-0.19886 -0.1353,-0.32612c0,-0.12726 0.05165,-0.24261 0.1353,-0.32612c0.0835,-0.08364 0.19885,-0.1353 0.32611,-0.1353z" fill="#00d9f9"/><path d="M229.79701,118.03327c0.1478,0 0.28175,0.05999 0.3788,0.15703c0.09703,0.09705 0.15703,0.231 0.15703,0.37882c0,0.1478 -0.05999,0.28175 -0.15703,0.3788c-0.09705,0.09703 -0.231,0.15703 -0.3788,0.15703c-0.1478,0 -0.28177,-0.05999 -0.37882,-0.15703c-0.09703,-0.09705 -0.15703,-0.231 -0.15703,-0.3788c0,-0.14782 0.05999,-0.28177 0.15703,-0.37882c0.09705,-0.09703 0.23102,-0.15703 0.37882,-0.15703z" fill="#00d9f9"/><path d="M219.87814,119.13411v0c-0.08931,0 -0.14884,-0.07441 -0.14884,-0.14884c0.1042,-2.38148 0.78887,-4.8969 0.80376,-4.92667c0.01487,-0.07443 0.10419,-0.11907 0.17861,-0.1042c0.07441,0.01489 0.11907,0.1042 0.10418,0.17861c0,0.02976 -0.68467,2.51544 -0.78887,4.85226c0,0.08931 -0.07441,0.14884 -0.14884,0.14884z" fill="#854a42"/><path d="M220.23536,116.20193c-0.02976,0 -0.04464,-0.0149 -0.05954,-0.02977c-0.01487,-0.02976 -0.01488,-0.07443 0.02976,-0.1042c1.68193,-1.08655 2.27729,-1.92006 2.27729,-1.92006c0.02976,-0.02976 0.07441,-0.04466 0.10418,-0.01489c0.02976,0.02976 0.04466,0.07443 0.01489,0.1042c-0.02976,0.02976 -0.61026,0.86328 -2.32194,1.96472c-0.01489,0 -0.02976,0 -0.04466,0z" fill="#854a42"/><path d="M217.24364,122.76587c-0.04466,0 -0.08931,-0.02977 -0.11907,-0.05954c-0.77399,-1.17585 -1.5182,-3.33405 -1.54796,-3.42336c-0.02976,-0.07443 0.01489,-0.16374 0.08931,-0.1935c0.07443,-0.02976 0.16373,0.01488 0.1935,0.08931c0.01487,0.01487 0.75908,2.20287 1.50331,3.34895c0.04464,0.07441 0.02976,0.16372 -0.04466,0.20838c-0.01487,0.01487 -0.04464,0.02976 -0.07441,0.02976z" fill="#854a42"/><path d="M222.00659,126.78461c-0.05954,0 -0.11907,-0.04466 -0.14884,-0.1042c-0.72933,-2.51543 -0.8484,-5.71553 -0.8484,-5.7453c0,-0.08931 0.05954,-0.14884 0.14884,-0.14884c0.08931,0 0.14884,0.05954 0.14884,0.14884c0,0.02976 0.11907,3.20011 0.83351,5.67089c0.02976,0.07441 -0.02976,0.16372 -0.10418,0.17861c0,0 -0.0149,0 -0.02977,0z" fill="#854a42"/><path d="M221.56398,124.1563c-0.01487,0 -0.02977,0 -0.04464,-0.01488c-0.02976,-0.02976 -0.02976,-0.07443 0,-0.1042c1.04189,-1.14609 2.12843,-3.2001 2.12843,-3.21498c0.01489,-0.02976 0.05954,-0.04466 0.1042,-0.02977c0.02976,0.01487 0.04464,0.05954 0.02976,0.10418c-0.01489,0.01489 -1.10144,2.08379 -2.15822,3.24477c-0.01487,0.01487 -0.02976,0.01488 -0.05954,0.01488z" fill="#854a42"/><path d="M226.08794,126.86091v0c-0.04466,0 -0.07443,-0.02977 -0.07443,-0.07443c0.04466,-0.93771 -0.13395,-3.51267 -0.13395,-3.52756c0,-0.04464 0.02977,-0.07441 0.07441,-0.07441c0.04466,0 0.07443,0.02976 0.07443,0.07441c0,0.02976 0.17861,2.60474 0.13395,3.54245c0,0.01487 -0.02977,0.05954 -0.07441,0.05954z" fill="#854a42"/><path d="M228.92193,125.46179c-0.04464,0 -0.07441,-0.01488 -0.10418,-0.04465c-0.05954,-0.05954 -0.05954,-0.14884 0,-0.20837c0.01487,-0.01489 1.26516,-1.28006 1.83075,-2.45591c0.02976,-0.07441 0.11907,-0.10418 0.1935,-0.07441c0.07441,0.02976 0.10419,0.11907 0.07441,0.19348c-0.58049,1.22051 -1.83075,2.48567 -1.89029,2.54521c-0.02976,0.02976 -0.07443,0.04465 -0.1042,0.04465z" fill="#854a42"/></g><g><path d="M251.66963,109.72139c6.88329,0 9.26983,1.76502 9.74711,2.51809c0.47732,0.75307 1.859,6.31482 0.30145,8.52698c-1.55752,2.21999 -7.18471,2.69066 -9.8476,2.65928c-7.76252,-0.10197 -9.42056,-1.57673 -10.04858,-2.51024c-0.62805,-0.93349 -2.68802,-6.27561 0,-8.94274c0.85412,-0.8472 3.74309,-2.24352 9.84761,-2.25136z" fill="#00a3a6"/><path d="M262.22065,119.66038c-0.12562,0.42361 -0.27635,0.80014 -0.50245,1.11392c-1.55752,2.22 -7.18471,2.69067 -9.8476,2.65929c-7.76252,-0.10199 -9.42056,-1.57675 -10.04858,-2.51024c-0.02514,-0.03138 -0.05024,-0.06276 -0.07538,-0.10199c0.92951,-1.17668 4.06967,-1.98466 9.06885,-1.07469c2.23581,-1.0041 8.64178,-1.18451 11.40515,-0.08629z" fill="#008994"/><path d="M244.04204,111.76761c0.13919,0 0.26528,0.04497 0.35657,0.11763c0.09127,0.07268 0.14776,0.17305 0.14776,0.28386c0,0.11081 -0.05649,0.21118 -0.14776,0.28385c-0.09129,0.07268 -0.21738,0.11763 -0.35657,0.11763c-0.13919,0 -0.26528,-0.04495 -0.35656,-0.11763c-0.09127,-0.07268 -0.14776,-0.17305 -0.14776,-0.28385c0,-0.11081 0.0565,-0.21119 0.14776,-0.28386c0.09129,-0.07266 0.21737,-0.11763 0.35656,-0.11763z" fill="#00d9f9"/><path d="M245.57184,111.99511c0.12053,0 0.2298,0.03896 0.30899,0.10199c0.07917,0.06303 0.12808,0.15003 0.12808,0.24599c0,0.09595 -0.04892,0.18294 -0.12808,0.24597c-0.07919,0.06304 -0.18846,0.10198 -0.30899,0.10198c-0.12053,0 -0.2298,-0.03894 -0.309,-0.10198c-0.07917,-0.06303 -0.12808,-0.15002 -0.12808,-0.24597c0,-0.09595 0.04892,-0.18295 0.12808,-0.24599c0.07919,-0.06303 0.18846,-0.10199 0.309,-0.10199z" fill="#00d9f9"/><path d="M244.59681,112.74457c0.12978,0 0.24744,0.04202 0.33268,0.10987c0.08522,0.06784 0.13802,0.16153 0.13802,0.26485c0,0.10332 -0.0528,0.19701 -0.13802,0.26485c-0.08524,0.06786 -0.20291,0.10987 -0.33268,0.10987c-0.12978,0 -0.24747,-0.04201 -0.33269,-0.10987c-0.08524,-0.06784 -0.13802,-0.16153 -0.13802,-0.26485c0,-0.10332 0.05277,-0.197 0.13802,-0.26485c0.08522,-0.06786 0.20291,-0.10987 0.33269,-0.10987z" fill="#00d9f9"/><path d="M252.07768,113.77506c0.11599,0 0.22107,0.03746 0.29704,0.09809c0.07616,0.0605 0.12324,0.14414 0.12324,0.23647c0,0.09235 -0.04708,0.17599 -0.12324,0.23649c-0.07597,0.06063 -0.18105,0.09809 -0.29704,0.09809c-0.11599,0 -0.22107,-0.03746 -0.29704,-0.09809c-0.07616,-0.0605 -0.12324,-0.14413 -0.12324,-0.23649c0,-0.09234 0.04708,-0.17598 0.12324,-0.23647c0.07597,-0.06063 0.18105,-0.09809 0.29704,-0.09809z" fill="#00d9f9"/><path d="M253.55705,114.17655c0.12053,0 0.2298,0.03894 0.30897,0.10199c0.07918,0.06303 0.12811,0.15001 0.12811,0.24597c0,0.09595 -0.04893,0.18294 -0.12811,0.24599c-0.07918,0.06303 -0.18844,0.10197 -0.30897,0.10197c-0.12053,0 -0.22982,-0.03894 -0.30899,-0.10197c-0.07918,-0.06304 -0.12811,-0.15003 -0.12811,-0.24599c0,-0.09595 0.04893,-0.18294 0.12811,-0.24597c0.07918,-0.06304 0.18846,-0.10199 0.30899,-0.10199z" fill="#00d9f9"/><path d="M252.49795,114.93938c0.13449,0 0.25636,0.04349 0.34462,0.11375c0.08826,0.07026 0.14288,0.16728 0.14288,0.27436c0,0.10706 -0.05463,0.20409 -0.14288,0.27435c-0.08826,0.07026 -0.21013,0.11375 -0.34462,0.11375c-0.13449,0 -0.25638,-0.04349 -0.34464,-0.11375c-0.08826,-0.07026 -0.14288,-0.16728 -0.14288,-0.27435c0,-0.10708 0.05463,-0.20411 0.14288,-0.27436c0.08826,-0.07026 0.21015,-0.11375 0.34464,-0.11375z" fill="#00d9f9"/><path d="M247.82451,118.07099c0.12053,0 0.2298,0.03896 0.30899,0.10199c0.07918,0.06303 0.12809,0.15001 0.12809,0.24597c0,0.09595 -0.04892,0.18295 -0.12809,0.24598c-0.07919,0.06303 -0.18845,0.10199 -0.30899,0.10199c-0.12053,0 -0.2298,-0.03896 -0.309,-0.10199c-0.07918,-0.06303 -0.12809,-0.15003 -0.12809,-0.24598c0,-0.09595 0.04891,-0.18294 0.12809,-0.24597c0.07919,-0.06303 0.18846,-0.10199 0.309,-0.10199z" fill="#00d9f9"/><path d="M244.04204,119.66357c0.15298,0 0.29168,0.04951 0.39219,0.12941c0.10037,0.08003 0.16257,0.19043 0.16257,0.31222c0,0.12178 -0.06221,0.2322 -0.16257,0.31223c-0.10051,0.07989 -0.23921,0.12941 -0.39219,0.12941c-0.15298,0 -0.29167,-0.04952 -0.39219,-0.12941c-0.10037,-0.08003 -0.16257,-0.19045 -0.16257,-0.31223c0,-0.12178 0.06221,-0.23219 0.16257,-0.31222c0.10051,-0.0799 0.23921,-0.12941 0.39219,-0.12941z" fill="#00d9f9"/><path d="M245.23561,120.46655c0.12978,0 0.24745,0.04201 0.33269,0.10987c0.08524,0.06786 0.13802,0.16153 0.13802,0.26485c0,0.10332 -0.05277,0.19701 -0.13802,0.26485c-0.08524,0.06786 -0.20291,0.10987 -0.33269,0.10987c-0.12978,0 -0.24746,-0.04201 -0.33268,-0.10987c-0.08524,-0.06784 -0.13802,-0.16153 -0.13802,-0.26485c0,-0.10332 0.05278,-0.19699 0.13802,-0.26485c0.08522,-0.06786 0.2029,-0.10987 0.33268,-0.10987z" fill="#00d9f9"/><path d="M258.45578,112.45068c0.15298,0 0.29168,0.04952 0.39219,0.12941c0.10037,0.08004 0.16257,0.19045 0.16257,0.31223c0,0.12178 -0.06221,0.23219 -0.16257,0.31222c-0.10051,0.0799 -0.23921,0.12941 -0.39219,0.12941c-0.15298,0 -0.29167,-0.04951 -0.39219,-0.12941c-0.10037,-0.08003 -0.16257,-0.19044 -0.16257,-0.31222c0,-0.12178 0.06221,-0.2322 0.16257,-0.31223c0.10051,-0.07989 0.23921,-0.12941 0.39219,-0.12941z" fill="#00d9f9"/><path d="M257.58161,113.46777c0.14373,0 0.27401,0.04645 0.36833,0.12166c0.09447,0.07509 0.1528,0.1788 0.1528,0.29323c0,0.11442 -0.05833,0.21815 -0.1528,0.29322c-0.09432,0.07521 -0.22459,0.12166 -0.36833,0.12166c-0.14373,0 -0.27403,-0.04645 -0.36833,-0.12166c-0.09449,-0.07507 -0.15282,-0.1788 -0.15282,-0.29322c0,-0.11442 0.05833,-0.21813 0.15282,-0.29323c0.0943,-0.07521 0.2246,-0.12166 0.36833,-0.12166z" fill="#00d9f9"/><path d="M258.74157,114.17708c0.16693,0 0.31822,0.05394 0.42784,0.14119c0.10959,0.08726 0.17736,0.2077 0.17736,0.34061c0,0.13289 -0.06776,0.25333 -0.17736,0.34059c-0.10962,0.08725 -0.2609,0.14119 -0.42784,0.14119c-0.16693,0 -0.31824,-0.05394 -0.42786,-0.14119c-0.10959,-0.08726 -0.17735,-0.2077 -0.17735,-0.34059c0,-0.13291 0.06776,-0.25334 0.17735,-0.34061c0.10962,-0.08725 0.26092,-0.14119 0.42786,-0.14119z" fill="#00d9f9"/><path d="M247.53871,115.16688v0c-0.10086,0 -0.16811,-0.0669 -0.16811,-0.13383c0.11768,-2.14127 0.89098,-4.40299 0.9078,-4.42975c0.0168,-0.06692 0.11767,-0.10707 0.20173,-0.09369c0.08404,0.01339 0.13448,0.09369 0.11766,0.16059c0,0.02677 -0.7733,2.26173 -0.89098,4.36285c0,0.0803 -0.08404,0.13383 -0.16811,0.13383z" fill="#854a42"/><path d="M247.94217,112.53045c-0.03362,0 -0.05042,-0.01339 -0.06725,-0.02677c-0.0168,-0.02677 -0.0168,-0.06693 0.03362,-0.09369c1.89966,-0.97696 2.57209,-1.7264 2.57209,-1.7264c0.03362,-0.02677 0.08404,-0.04016 0.11767,-0.01339c0.03362,0.02677 0.05044,0.06693 0.01682,0.09369c-0.03362,0.02677 -0.68925,0.7762 -2.62251,1.76655c-0.01682,0 -0.03362,0 -0.05044,0z" fill="#854a42"/><path d="M244.56318,118.43233c-0.05044,0 -0.10087,-0.02677 -0.13449,-0.05353c-0.87418,-1.05725 -1.71473,-2.99778 -1.74834,-3.07808c-0.03362,-0.06692 0.01682,-0.14722 0.10086,-0.17398c0.08406,-0.02677 0.18493,0.01337 0.21855,0.0803c0.0168,0.01337 0.85734,1.98068 1.6979,3.01117c0.05042,0.0669 0.03362,0.1472 -0.05045,0.18736c-0.0168,0.01337 -0.05042,0.02677 -0.08404,0.02677z" fill="#854a42"/><path d="M249.94269,122.04574c-0.06725,0 -0.13449,-0.04015 -0.16811,-0.09368c-0.82374,-2.26172 -0.95823,-5.13906 -0.95823,-5.16582c0,-0.0803 0.06725,-0.13383 0.16811,-0.13383c0.10086,0 0.16811,0.05353 0.16811,0.13383c0,0.02677 0.13449,2.87734 0.94141,5.09891c0.03362,0.0669 -0.03362,0.1472 -0.11767,0.1606c0,0 -0.01682,0 -0.03362,0z" fill="#854a42"/><path d="M249.44278,119.68252c-0.0168,0 -0.03362,0 -0.05042,-0.01337c-0.03362,-0.02677 -0.03362,-0.06692 0,-0.09368c1.17676,-1.03049 2.40396,-2.87734 2.40396,-2.89071c0.01682,-0.02677 0.06725,-0.04016 0.11768,-0.02677c0.03362,0.01337 0.05042,0.05353 0.03362,0.09367c-0.01682,0.01339 -1.24402,1.87362 -2.4376,2.9175c-0.0168,0.01337 -0.03362,0.01337 -0.06725,0.01337z" fill="#854a42"/><path d="M254.55237,122.11434v0c-0.05044,0 -0.08406,-0.02677 -0.08406,-0.06692c0.05044,-0.84313 -0.15129,-3.15837 -0.15129,-3.17177c0,-0.04014 0.03362,-0.0669 0.08404,-0.0669c0.05044,0 0.08406,0.02677 0.08406,0.0669c0,0.02677 0.20173,2.34203 0.15129,3.18516c0,0.01337 -0.03362,0.05353 -0.08404,0.05353z" fill="#854a42"/><path d="M257.7532,120.85633c-0.05042,0 -0.08405,-0.01338 -0.11767,-0.04014c-0.06725,-0.05353 -0.06725,-0.13383 0,-0.18736c0.0168,-0.01339 1.42893,-1.15095 2.06774,-2.2082c0.03362,-0.0669 0.13449,-0.09367 0.21855,-0.06691c0.08404,0.02677 0.11767,0.10707 0.08405,0.17397c-0.65563,1.09741 -2.06775,2.23496 -2.13499,2.28849c-0.03362,0.02677 -0.08406,0.04014 -0.11768,0.04014z" fill="#854a42"/></g><g><path d="M223.71337,97.55454c7.32157,0 9.86007,1.72902 10.36775,2.46673c0.50771,0.7377 1.97737,6.18603 0.32065,8.35306c-1.65669,2.17472 -7.64219,2.63578 -10.47463,2.60504c-8.25678,-0.09989 -10.02039,-1.54458 -10.68839,-2.45904c-0.66804,-0.91445 -2.85918,-6.14761 0,-8.76034c0.9085,-0.82992 3.98142,-2.19776 10.47463,-2.20545z" fill="#00a3a6"/><path d="M234.93622,107.29081c-0.13362,0.41497 -0.29395,0.78383 -0.53445,1.0912c-1.65669,2.17472 -7.64219,2.63579 -10.47463,2.60505c-8.25678,-0.0999 -10.02039,-1.54459 -10.68839,-2.45904c-0.02674,-0.03074 -0.05344,-0.06148 -0.08018,-0.0999c0.98869,-1.15268 4.3288,-1.94418 9.6463,-1.05278c2.37817,-0.98362 9.19203,-1.16036 12.13136,-0.08453z" fill="#008994"/><path d="M215.60011,99.55902c0.14805,0 0.28217,0.04405 0.37927,0.11523c0.09708,0.07119 0.15716,0.16952 0.15716,0.27807c0,0.10855 -0.06009,0.20687 -0.15716,0.27806c-0.0971,0.07119 -0.23122,0.11523 -0.37927,0.11523c-0.14805,0 -0.28217,-0.04404 -0.37927,-0.11523c-0.09708,-0.07119 -0.15716,-0.16952 -0.15716,-0.27806c0,-0.10855 0.06009,-0.20688 0.15716,-0.27807c0.0971,-0.07117 0.23122,-0.11523 0.37927,-0.11523z" fill="#00d9f9"/><path d="M217.22732,99.78188c0.12821,0 0.24443,0.03816 0.32867,0.09991c0.08421,0.06175 0.13624,0.14697 0.13624,0.24097c0,0.094 -0.05203,0.17921 -0.13624,0.24095c-0.08423,0.06176 -0.20046,0.0999 -0.32867,0.0999c-0.12821,0 -0.24443,-0.03814 -0.32867,-0.0999c-0.08421,-0.06175 -0.13624,-0.14695 -0.13624,-0.24095c0,-0.094 0.05203,-0.17923 0.13624,-0.24097c0.08423,-0.06175 0.20046,-0.09991 0.32867,-0.09991z" fill="#00d9f9"/><path d="M216.1902,100.51605c0.13805,0 0.26321,0.04116 0.35387,0.10763c0.09065,0.06646 0.1468,0.15824 0.1468,0.25944c0,0.10121 -0.05615,0.19299 -0.1468,0.25945c-0.09067,0.06647 -0.21583,0.10763 -0.35387,0.10763c-0.13805,0 -0.26322,-0.04116 -0.35387,-0.10763c-0.09067,-0.06646 -0.14681,-0.15824 -0.14681,-0.25945c0,-0.10121 0.05614,-0.19299 0.14681,-0.25944c0.09065,-0.06647 0.21582,-0.10763 0.35387,-0.10763z" fill="#00d9f9"/><path d="M224.14741,101.52552c0.12338,0 0.23515,0.0367 0.31596,0.09609c0.081,0.05926 0.13108,0.1412 0.13108,0.23165c0,0.09047 -0.05008,0.1724 -0.13108,0.23166c-0.08081,0.05939 -0.19258,0.09609 -0.31596,0.09609c-0.12338,0 -0.23515,-0.0367 -0.31595,-0.09609c-0.081,-0.05926 -0.13109,-0.14119 -0.13109,-0.23166c0,-0.09045 0.05008,-0.17239 0.13109,-0.23165c0.08081,-0.05939 0.19257,-0.09609 0.31595,-0.09609z" fill="#00d9f9"/><path d="M225.72098,101.91882c0.1282,0 0.24443,0.03814 0.32864,0.0999c0.08422,0.06175 0.13627,0.14695 0.13627,0.24095c0,0.094 -0.05205,0.17921 -0.13627,0.24097c-0.08422,0.06175 -0.20043,0.09989 -0.32864,0.09989c-0.1282,0 -0.24445,-0.03815 -0.32867,-0.09989c-0.08422,-0.06176 -0.13626,-0.14697 -0.13626,-0.24097c0,-0.094 0.05204,-0.17921 0.13626,-0.24095c0.08422,-0.06176 0.20046,-0.0999 0.32867,-0.0999z" fill="#00d9f9"/><path d="M224.59445,102.66609c0.14305,0 0.27269,0.0426 0.36656,0.11143c0.09387,0.06883 0.15198,0.16387 0.15198,0.26877c0,0.10488 -0.05811,0.19992 -0.15198,0.26875c-0.09387,0.06883 -0.22351,0.11143 -0.36656,0.11143c-0.14305,0 -0.27271,-0.0426 -0.36658,-0.11143c-0.09387,-0.06883 -0.15198,-0.16387 -0.15198,-0.26875c0,-0.1049 0.05811,-0.19994 0.15198,-0.26877c0.09387,-0.06883 0.22353,-0.11143 0.36658,-0.11143z" fill="#00d9f9"/><path d="M219.62343,105.73383c0.1282,0 0.24443,0.03816 0.32867,0.09991c0.08422,0.06175 0.13624,0.14695 0.13624,0.24095c0,0.094 -0.05203,0.17922 -0.13624,0.24097c-0.08423,0.06175 -0.20046,0.0999 -0.32867,0.0999c-0.1282,0 -0.24443,-0.03816 -0.32867,-0.0999c-0.08422,-0.06175 -0.13625,-0.14697 -0.13625,-0.24097c0,-0.094 0.05203,-0.17921 0.13625,-0.24095c0.08423,-0.06175 0.20046,-0.09991 0.32867,-0.09991z" fill="#00d9f9"/><path d="M215.60011,107.29394c0.16272,0 0.31025,0.0485 0.41716,0.12677c0.10676,0.0784 0.17293,0.18655 0.17293,0.30585c0,0.1193 -0.06617,0.22747 -0.17293,0.30586c-0.10691,0.07826 -0.25444,0.12677 -0.41716,0.12677c-0.16272,0 -0.31025,-0.04851 -0.41716,-0.12677c-0.10676,-0.0784 -0.17293,-0.18657 -0.17293,-0.30586c0,-0.1193 0.06617,-0.22745 0.17293,-0.30585c0.10691,-0.07828 0.25444,-0.12677 0.41716,-0.12677z" fill="#00d9f9"/><path d="M216.86969,108.08053c0.13805,0 0.26321,0.04116 0.35387,0.10763c0.09067,0.06647 0.1468,0.15824 0.1468,0.25944c0,0.10121 -0.05614,0.19299 -0.1468,0.25945c-0.09067,0.06647 -0.21583,0.10763 -0.35387,0.10763c-0.13805,0 -0.26322,-0.04115 -0.35387,-0.10763c-0.09067,-0.06646 -0.14681,-0.15824 -0.14681,-0.25945c0,-0.10121 0.05614,-0.19297 0.14681,-0.25944c0.09065,-0.06647 0.21582,-0.10763 0.35387,-0.10763z" fill="#00d9f9"/><path d="M230.93162,100.22815c0.16272,0 0.31025,0.04851 0.41716,0.12677c0.10676,0.0784 0.17293,0.18657 0.17293,0.30587c0,0.1193 -0.06617,0.22745 -0.17293,0.30585c-0.10691,0.07828 -0.25444,0.12677 -0.41716,0.12677c-0.16272,0 -0.31025,-0.0485 -0.41716,-0.12677c-0.10676,-0.0784 -0.17293,-0.18655 -0.17293,-0.30585c0,-0.1193 0.06617,-0.22747 0.17293,-0.30587c0.10691,-0.07826 0.25444,-0.12677 0.41716,-0.12677z" fill="#00d9f9"/><path d="M230.0018,101.2245c0.15289,0 0.29146,0.0455 0.39178,0.11917c0.10048,0.07356 0.16252,0.17515 0.16252,0.28724c0,0.11209 -0.06204,0.2137 -0.16252,0.28724c-0.10033,0.07367 -0.2389,0.11917 -0.39178,0.11917c-0.15289,0 -0.29148,-0.0455 -0.39179,-0.11917c-0.10051,-0.07354 -0.16255,-0.17515 -0.16255,-0.28724c0,-0.11209 0.06204,-0.21368 0.16255,-0.28724c0.10031,-0.07367 0.2389,-0.11917 0.39179,-0.11917z" fill="#00d9f9"/><path d="M231.23562,101.91934c0.17756,0 0.33848,0.05284 0.45507,0.13831c0.11657,0.08548 0.18865,0.20347 0.18865,0.33366c0,0.13018 -0.07207,0.24817 -0.18865,0.33365c-0.1166,0.08546 -0.27752,0.13831 -0.45507,0.13831c-0.17756,0 -0.3385,-0.05284 -0.4551,-0.13831c-0.11657,-0.08548 -0.18865,-0.20346 -0.18865,-0.33365c0,-0.1302 0.07207,-0.24818 0.18865,-0.33366c0.1166,-0.08546 0.27754,-0.13831 0.4551,-0.13831z" fill="#00d9f9"/><path d="M219.31943,102.88895v0c-0.10729,0 -0.17881,-0.06554 -0.17881,-0.1311c0.12518,-2.0976 0.94772,-4.31319 0.96561,-4.33941c0.01787,-0.06555 0.12516,-0.10488 0.21458,-0.09178c0.08939,0.01312 0.14305,0.09178 0.12516,0.15732c0,0.02622 -0.82254,2.2156 -0.94772,4.27386c0,0.07866 -0.0894,0.1311 -0.17881,0.1311z" fill="#854a42"/><path d="M219.74858,100.30629c-0.03577,0 -0.05363,-0.01312 -0.07152,-0.02622c-0.01787,-0.02622 -0.01787,-0.06556 0.03577,-0.09178c2.02061,-0.95703 2.73586,-1.69119 2.73586,-1.69119c0.03577,-0.02622 0.08939,-0.03934 0.12516,-0.01312c0.03577,0.02622 0.05365,0.06556 0.01789,0.09178c-0.03577,0.02622 -0.73314,0.76038 -2.7895,1.73053c-0.01789,0 -0.03576,0 -0.05365,0z" fill="#854a42"/><path d="M216.15444,106.08781c-0.05365,0 -0.10728,-0.02622 -0.14305,-0.05244c-0.92985,-1.03569 -1.82391,-2.93663 -1.85967,-3.0153c-0.03577,-0.06556 0.01789,-0.14422 0.10729,-0.17044c0.08941,-0.02622 0.1967,0.0131 0.23246,0.07866c0.01787,0.0131 0.91194,1.94029 1.80602,2.94976c0.05363,0.06554 0.03577,0.1442 -0.05366,0.18354c-0.01787,0.0131 -0.05363,0.02622 -0.0894,0.02622z" fill="#854a42"/><path d="M221.87648,109.62752c-0.07152,0 -0.14305,-0.03933 -0.17881,-0.09178c-0.87619,-2.21558 -1.01925,-5.03424 -1.01925,-5.06046c0,-0.07866 0.07152,-0.1311 0.17881,-0.1311c0.10729,0 0.17882,0.05244 0.17882,0.1311c0,0.02622 0.14305,2.81866 1.00135,4.99492c0.03577,0.06554 -0.03577,0.1442 -0.12516,0.15732c0,0 -0.01789,0 -0.03577,0z" fill="#854a42"/><path d="M221.34474,107.3125c-0.01787,0 -0.03577,0 -0.05363,-0.0131c-0.03577,-0.02622 -0.03577,-0.06556 0,-0.09178c1.25169,-1.00947 2.55703,-2.81866 2.55703,-2.83176c0.01789,-0.02622 0.07153,-0.03934 0.12518,-0.02622c0.03577,0.0131 0.05363,0.05244 0.03577,0.09176c-0.01789,0.01312 -1.32323,1.8354 -2.59281,2.858c-0.01787,0.0131 -0.03577,0.0131 -0.07153,0.0131z" fill="#854a42"/><path d="M226.77967,109.69472v0c-0.05365,0 -0.08942,-0.02622 -0.08942,-0.06556c0.05365,-0.82593 -0.16092,-3.09395 -0.16092,-3.10708c0,-0.03932 0.03577,-0.06554 0.0894,-0.06554c0.05365,0 0.08942,0.02622 0.08942,0.06554c0,0.02622 0.21457,2.29426 0.16092,3.12019c0,0.0131 -0.03576,0.05244 -0.08939,0.05244z" fill="#854a42"/><path d="M230.18433,108.46237c-0.05363,0 -0.08939,-0.0131 -0.12516,-0.03932c-0.07152,-0.05244 -0.07152,-0.1311 0,-0.18354c0.01787,-0.01312 1.51991,-1.12747 2.1994,-2.16316c0.03577,-0.06554 0.14305,-0.09176 0.23246,-0.06555c0.08939,0.02622 0.12516,0.10488 0.0894,0.17042c-0.69738,1.07503 -2.1994,2.18938 -2.27093,2.24182c-0.03577,0.02622 -0.08942,0.03932 -0.12518,0.03932z" fill="#854a42"/></g><g><path d="M250.6663,93.35907c6.09438,0 8.20739,1.96301 8.62998,2.80056c0.42261,0.83754 1.64594,7.02319 0.26691,9.4835c-1.379,2.46902 -6.36126,2.99249 -8.71895,2.95759c-6.87284,-0.11341 -8.34085,-1.75361 -8.89689,-2.79183c-0.55606,-1.03821 -2.37994,-6.97958 0,-9.9459c0.75623,-0.94224 3.31408,-2.49519 8.71895,-2.50392z" fill="#00a3a6"/><path d="M260.00805,104.41296c-0.11122,0.47113 -0.24467,0.8899 -0.44487,1.23888c-1.379,2.46903 -6.36126,2.9925 -8.71895,2.9576c-6.87284,-0.11342 -8.34085,-1.75362 -8.89689,-2.79183c-0.02226,-0.0349 -0.04448,-0.0698 -0.06674,-0.11342c0.82297,-1.30867 3.60324,-2.20729 8.02945,-1.19525c1.97956,-1.11674 7.65133,-1.31739 10.09798,-0.09597z" fill="#008994"/><path d="M243.91293,95.63482c0.12324,0 0.23487,0.05001 0.3157,0.13082c0.08081,0.08083 0.13082,0.19246 0.13082,0.3157c0,0.12324 -0.05001,0.23488 -0.13082,0.3157c-0.08083,0.08083 -0.19246,0.13082 -0.3157,0.13082c-0.12324,0 -0.23488,-0.05 -0.3157,-0.13082c-0.08081,-0.08083 -0.13082,-0.19246 -0.13082,-0.3157c0,-0.12324 0.05001,-0.23488 0.13082,-0.3157c0.08083,-0.08081 0.19246,-0.13082 0.3157,-0.13082z" fill="#00d9f9"/><path d="M245.26739,95.88784c0.10672,0 0.20346,0.04333 0.27358,0.11343c0.0701,0.0701 0.11341,0.16686 0.11341,0.27357c0,0.10672 -0.04331,0.20346 -0.11341,0.27356c-0.07012,0.07012 -0.16686,0.11342 -0.27358,0.11342c-0.10672,0 -0.20346,-0.04331 -0.27358,-0.11342c-0.0701,-0.0701 -0.1134,-0.16685 -0.1134,-0.27356c0,-0.10672 0.04331,-0.20348 0.1134,-0.27357c0.07012,-0.0701 0.16686,-0.11343 0.27358,-0.11343z" fill="#00d9f9"/><path d="M244.40411,96.72137c0.11491,0 0.21909,0.04673 0.29456,0.1222c0.07545,0.07545 0.1222,0.17965 0.1222,0.29456c0,0.11491 -0.04675,0.21911 -0.1222,0.29456c-0.07547,0.07547 -0.17965,0.1222 -0.29456,0.1222c-0.11491,0 -0.21911,-0.04673 -0.29456,-0.1222c-0.07547,-0.07545 -0.1222,-0.17965 -0.1222,-0.29456c0,-0.11491 0.04673,-0.21911 0.1222,-0.29456c0.07545,-0.07547 0.17965,-0.1222 0.29456,-0.1222z" fill="#00d9f9"/><path d="M251.02759,97.86745c0.1027,0 0.19573,0.04167 0.263,0.1091c0.06743,0.06728 0.10912,0.1603 0.10912,0.263c0,0.10272 -0.04169,0.19573 -0.10912,0.26301c-0.06727,0.06743 -0.1603,0.10909 -0.263,0.10909c-0.1027,0 -0.19573,-0.04166 -0.263,-0.10909c-0.06743,-0.06728 -0.10912,-0.1603 -0.10912,-0.26301c0,-0.1027 0.04169,-0.19572 0.10912,-0.263c0.06727,-0.06743 0.1603,-0.1091 0.263,-0.1091z" fill="#00d9f9"/><path d="M252.33741,98.31398c0.10672,0 0.20346,0.04331 0.27356,0.11342c0.0701,0.0701 0.11342,0.16684 0.11342,0.27356c0,0.10672 -0.04332,0.20346 -0.11342,0.27358c-0.0701,0.0701 -0.16684,0.11341 -0.27356,0.11341c-0.10672,0 -0.20348,-0.04331 -0.27358,-0.11341c-0.0701,-0.07012 -0.11342,-0.16686 -0.11342,-0.27358c0,-0.10672 0.04332,-0.20346 0.11342,-0.27356c0.0701,-0.07012 0.16686,-0.11342 0.27358,-0.11342z" fill="#00d9f9"/><path d="M251.3997,99.16238c0.11907,0 0.22698,0.04837 0.30512,0.12651c0.07814,0.07814 0.12651,0.18605 0.12651,0.30514c0,0.11907 -0.04837,0.22698 -0.12651,0.30512c-0.07814,0.07814 -0.18605,0.12651 -0.30512,0.12651c-0.11907,0 -0.227,-0.04837 -0.30514,-0.12651c-0.07814,-0.07814 -0.12651,-0.18605 -0.12651,-0.30512c0,-0.11909 0.04837,-0.227 0.12651,-0.30514c0.07814,-0.07814 0.18607,-0.12651 0.30514,-0.12651z" fill="#00d9f9"/><path d="M247.26188,102.64528c0.10672,0 0.20346,0.04332 0.27358,0.11342c0.0701,0.0701 0.1134,0.16684 0.1134,0.27356c0,0.10672 -0.04331,0.20348 -0.1134,0.27358c-0.07012,0.0701 -0.16686,0.11342 -0.27358,0.11342c-0.10672,0 -0.20346,-0.04332 -0.27358,-0.11342c-0.0701,-0.0701 -0.11341,-0.16686 -0.11341,-0.27358c0,-0.10672 0.04331,-0.20346 0.11341,-0.27356c0.07012,-0.0701 0.16686,-0.11342 0.27358,-0.11342z" fill="#00d9f9"/><path d="M243.91293,104.41652c0.13545,0 0.25825,0.05506 0.34724,0.14393c0.08887,0.08901 0.14394,0.21179 0.14394,0.34724c0,0.13545 -0.05508,0.25825 -0.14394,0.34726c-0.08899,0.08885 -0.21179,0.14393 -0.34724,0.14393c-0.13545,0 -0.25825,-0.05508 -0.34724,-0.14393c-0.08887,-0.08901 -0.14394,-0.21181 -0.14394,-0.34726c0,-0.13545 0.05508,-0.25823 0.14394,-0.34724c0.08899,-0.08887 0.21179,-0.14393 0.34724,-0.14393z" fill="#00d9f9"/><path d="M244.96971,105.30956c0.11491,0 0.21909,0.04673 0.29456,0.1222c0.07547,0.07547 0.1222,0.17965 0.1222,0.29456c0,0.11491 -0.04673,0.21911 -0.1222,0.29456c-0.07547,0.07547 -0.17965,0.1222 -0.29456,0.1222c-0.11491,0 -0.21911,-0.04673 -0.29456,-0.1222c-0.07547,-0.07545 -0.1222,-0.17965 -0.1222,-0.29456c0,-0.11491 0.04673,-0.21909 0.1222,-0.29456c0.07545,-0.07547 0.17965,-0.1222 0.29456,-0.1222z" fill="#00d9f9"/><path d="M256.67467,96.39451c0.13545,0 0.25825,0.05508 0.34724,0.14393c0.08887,0.08901 0.14394,0.21181 0.14394,0.34726c0,0.13545 -0.05508,0.25823 -0.14394,0.34724c-0.08899,0.08887 -0.2118,0.14393 -0.34724,0.14393c-0.13545,0 -0.25825,-0.05506 -0.34724,-0.14393c-0.08887,-0.08901 -0.14394,-0.21179 -0.14394,-0.34724c0,-0.13545 0.05508,-0.25825 0.14394,-0.34726c0.08899,-0.08885 0.21179,-0.14393 0.34724,-0.14393z" fill="#00d9f9"/><path d="M255.90071,97.5257c0.12726,0 0.2426,0.05166 0.32611,0.1353c0.08364,0.08351 0.13529,0.19886 0.13529,0.32612c0,0.12726 -0.05165,0.24262 -0.13529,0.32612c-0.08351,0.08364 -0.19885,0.1353 -0.32611,0.1353c-0.12726,0 -0.24263,-0.05166 -0.32612,-0.1353c-0.08366,-0.0835 -0.1353,-0.19886 -0.1353,-0.32612c0,-0.12726 0.05165,-0.24261 0.1353,-0.32612c0.0835,-0.08364 0.19886,-0.1353 0.32612,-0.1353z" fill="#00d9f9"/><path d="M256.92772,98.31457c0.1478,0 0.28175,0.05999 0.3788,0.15703c0.09703,0.09705 0.15703,0.231 0.15703,0.37882c0,0.1478 -0.05999,0.28175 -0.15703,0.3788c-0.09705,0.09703 -0.231,0.15703 -0.3788,0.15703c-0.1478,0 -0.28177,-0.05999 -0.37882,-0.15703c-0.09703,-0.09705 -0.15703,-0.231 -0.15703,-0.3788c0,-0.14782 0.05999,-0.28176 0.15703,-0.37882c0.09705,-0.09703 0.23102,-0.15703 0.37882,-0.15703z" fill="#00d9f9"/><path d="M247.00884,99.4154v0c-0.08931,0 -0.14884,-0.07441 -0.14884,-0.14884c0.1042,-2.38148 0.78887,-4.8969 0.80376,-4.92667c0.01487,-0.07443 0.10418,-0.11907 0.17861,-0.1042c0.07441,0.01489 0.11907,0.10419 0.10418,0.17861c0,0.02976 -0.68467,2.51545 -0.78887,4.85226c0,0.08931 -0.07441,0.14884 -0.14884,0.14884z" fill="#854a42"/><path d="M247.36606,96.48322c-0.02976,0 -0.04464,-0.01489 -0.05954,-0.02976c-0.01487,-0.02976 -0.01488,-0.07443 0.02976,-0.1042c1.68193,-1.08655 2.27729,-1.92006 2.27729,-1.92006c0.02976,-0.02976 0.07441,-0.04467 0.10418,-0.0149c0.02976,0.02976 0.04466,0.07443 0.01489,0.1042c-0.02976,0.02976 -0.61026,0.86328 -2.32194,1.96472c-0.01489,0 -0.02977,0 -0.04466,0z" fill="#854a42"/><path d="M244.37434,103.04716c-0.04466,0 -0.08931,-0.02976 -0.11907,-0.05954c-0.77399,-1.17585 -1.5182,-3.33406 -1.54796,-3.42336c-0.02976,-0.07443 0.01489,-0.16373 0.08931,-0.1935c0.07443,-0.02976 0.16373,0.01487 0.1935,0.0893c0.01487,0.01487 0.75908,2.20287 1.50331,3.34895c0.04464,0.07441 0.02976,0.16372 -0.04466,0.20838c-0.01487,0.01487 -0.04464,0.02977 -0.07441,0.02977z" fill="#854a42"/><path d="M249.13729,107.06591c-0.05954,0 -0.11907,-0.04466 -0.14884,-0.1042c-0.72933,-2.51543 -0.8484,-5.71553 -0.8484,-5.7453c0,-0.08931 0.05954,-0.14884 0.14884,-0.14884c0.08931,0 0.14884,0.05954 0.14884,0.14884c0,0.02976 0.11907,3.2001 0.83351,5.67089c0.02976,0.07441 -0.02976,0.16372 -0.10418,0.17861c0,0 -0.01489,0 -0.02976,0z" fill="#854a42"/><path d="M248.69468,104.43759c-0.01487,0 -0.02977,0 -0.04464,-0.01487c-0.02976,-0.02976 -0.02976,-0.07443 0,-0.1042c1.04189,-1.14609 2.12843,-3.20011 2.12843,-3.21499c0.01489,-0.02976 0.05954,-0.04466 0.1042,-0.02976c0.02976,0.01487 0.04464,0.05954 0.02977,0.10418c-0.01489,0.01489 -1.10144,2.08379 -2.15822,3.24477c-0.01487,0.01487 -0.02976,0.01487 -0.05954,0.01487z" fill="#854a42"/><path d="M253.21864,107.1422v0c-0.04466,0 -0.07443,-0.02977 -0.07443,-0.07443c0.04466,-0.93771 -0.13395,-3.51266 -0.13395,-3.52756c0,-0.04464 0.02977,-0.07441 0.07441,-0.07441c0.04466,0 0.07443,0.02977 0.07443,0.07441c0,0.02976 0.17861,2.60474 0.13395,3.54245c0,0.01487 -0.02977,0.05954 -0.07441,0.05954z" fill="#854a42"/><path d="M256.05264,105.74308c-0.04464,0 -0.07441,-0.01488 -0.10419,-0.04465c-0.05954,-0.05954 -0.05954,-0.14884 0,-0.20838c0.01487,-0.01489 1.26516,-1.28005 1.83075,-2.45591c0.02976,-0.07441 0.11907,-0.10418 0.1935,-0.07441c0.07441,0.02976 0.10419,0.11907 0.07441,0.19348c-0.58049,1.22051 -1.83075,2.48567 -1.89029,2.54521c-0.02976,0.02976 -0.07443,0.04465 -0.1042,0.04465z" fill="#854a42"/></g><g><path d="M232.43362,80.35311c6.66415,0 8.9747,1.96301 9.4368,2.80056c0.46212,0.83754 1.79982,7.02319 0.29186,9.4835c-1.50793,2.46902 -6.95598,2.99249 -9.53408,2.95759c-7.51539,-0.11341 -9.12063,-1.75361 -9.72866,-2.79183c-0.60805,-1.03821 -2.60244,-6.97958 0,-9.9459c0.82693,-0.94224 3.62392,-2.49519 9.53409,-2.50392z" fill="#00a3a6"/><path d="M242.64874,91.40701c-0.12162,0.47113 -0.26755,0.8899 -0.48646,1.23888c-1.50793,2.46903 -6.95598,2.9925 -9.53408,2.9576c-7.51539,-0.11342 -9.12064,-1.75362 -9.72866,-2.79183c-0.02434,-0.0349 -0.04864,-0.0698 -0.07298,-0.11342c0.89991,-1.30867 3.94011,-2.20729 8.78014,-1.19525c2.16463,-1.11674 8.36665,-1.31739 11.04205,-0.09597z" fill="#008994"/><path d="M225.04887,82.62886c0.13476,0 0.25684,0.05002 0.34522,0.13083c0.08836,0.08083 0.14305,0.19246 0.14305,0.3157c0,0.12324 -0.05469,0.23488 -0.14305,0.3157c-0.08838,0.08083 -0.21045,0.13082 -0.34522,0.13082c-0.13476,0 -0.25683,-0.05 -0.34521,-0.13082c-0.08836,-0.08083 -0.14305,-0.19246 -0.14305,-0.3157c0,-0.12324 0.05469,-0.23487 0.14305,-0.3157c0.08838,-0.08081 0.21045,-0.13083 0.34521,-0.13083z" fill="#00d9f9"/><path d="M226.52996,82.88187c0.1167,0 0.22248,0.04333 0.29915,0.11343c0.07665,0.0701 0.12401,0.16686 0.12401,0.27358c0,0.10672 -0.04736,0.20346 -0.12401,0.27356c-0.07667,0.07012 -0.18246,0.11342 -0.29915,0.11342c-0.1167,0 -0.22248,-0.04331 -0.29916,-0.11342c-0.07665,-0.0701 -0.12401,-0.16684 -0.12401,-0.27356c0,-0.10672 0.04736,-0.20348 0.12401,-0.27358c0.07667,-0.0701 0.18246,-0.11343 0.29916,-0.11343z" fill="#00d9f9"/><path d="M225.58597,83.71541c0.12565,0 0.23957,0.04673 0.3221,0.1222c0.08251,0.07545 0.13362,0.17965 0.13362,0.29456c0,0.11491 -0.05112,0.21911 -0.13362,0.29456c-0.08253,0.07547 -0.19645,0.1222 -0.3221,0.1222c-0.12565,0 -0.23959,-0.04673 -0.32209,-0.1222c-0.08253,-0.07545 -0.13362,-0.17965 -0.13362,-0.29456c0,-0.11491 0.0511,-0.21911 0.13362,-0.29456c0.08251,-0.07547 0.19644,-0.1222 0.32209,-0.1222z" fill="#00d9f9"/><path d="M232.82868,84.8615c0.1123,0 0.21403,0.04166 0.28758,0.10909c0.07373,0.06728 0.11931,0.1603 0.11931,0.263c0,0.10272 -0.04558,0.19573 -0.11931,0.26301c-0.07356,0.06743 -0.17528,0.1091 -0.28758,0.1091c-0.1123,0 -0.21403,-0.04167 -0.28758,-0.1091c-0.07373,-0.06728 -0.11931,-0.1603 -0.11931,-0.26301c0,-0.1027 0.04558,-0.19572 0.11931,-0.263c0.07356,-0.06743 0.17529,-0.10909 0.28758,-0.10909z" fill="#00d9f9"/><path d="M234.26096,85.30802c0.1167,0 0.22248,0.04331 0.29913,0.11342c0.07665,0.0701 0.12403,0.16684 0.12403,0.27356c0,0.10672 -0.04738,0.20346 -0.12403,0.27358c-0.07665,0.0701 -0.18244,0.11341 -0.29913,0.11341c-0.1167,0 -0.2225,-0.04331 -0.29915,-0.11341c-0.07665,-0.07012 -0.12403,-0.16686 -0.12403,-0.27358c0,-0.10672 0.04738,-0.20346 0.12403,-0.27356c0.07665,-0.07012 0.18246,-0.11342 0.29915,-0.11342z" fill="#00d9f9"/><path d="M233.23558,86.15642c0.13021,0 0.2482,0.04837 0.33365,0.12651c0.08545,0.07814 0.13834,0.18605 0.13834,0.30514c0,0.11907 -0.05289,0.22698 -0.13834,0.30512c-0.08545,0.07814 -0.20344,0.12651 -0.33365,0.12651c-0.13021,0 -0.24822,-0.04837 -0.33367,-0.12651c-0.08545,-0.07814 -0.13834,-0.18605 -0.13834,-0.30512c0,-0.11909 0.05289,-0.227 0.13834,-0.30514c0.08545,-0.07814 0.20346,-0.12651 0.33367,-0.12651z" fill="#00d9f9"/><path d="M228.71092,89.63933c0.1167,0 0.22248,0.04332 0.29915,0.11342c0.07665,0.0701 0.12401,0.16684 0.12401,0.27356c0,0.10672 -0.04735,0.20348 -0.12401,0.27358c-0.07667,0.0701 -0.18246,0.11342 -0.29915,0.11342c-0.1167,0 -0.22249,-0.04332 -0.29916,-0.11342c-0.07665,-0.0701 -0.12401,-0.16686 -0.12401,-0.27358c0,-0.10672 0.04735,-0.20346 0.12401,-0.27356c0.07667,-0.0701 0.18247,-0.11342 0.29916,-0.11342z" fill="#00d9f9"/><path d="M225.04887,91.41056c0.14811,0 0.28239,0.05506 0.3797,0.14393c0.09717,0.08901 0.1574,0.21179 0.1574,0.34724c0,0.13545 -0.06023,0.25825 -0.1574,0.34726c-0.09731,0.08885 -0.2316,0.14393 -0.3797,0.14393c-0.14811,0 -0.28239,-0.05508 -0.3797,-0.14393c-0.09717,-0.08901 -0.1574,-0.21181 -0.1574,-0.34726c0,-0.13545 0.06023,-0.25823 0.1574,-0.34724c0.09731,-0.08887 0.23159,-0.14393 0.3797,-0.14393z" fill="#00d9f9"/><path d="M226.20445,92.30361c0.12565,0 0.23957,0.04673 0.32209,0.1222c0.08253,0.07547 0.13362,0.17965 0.13362,0.29456c0,0.11491 -0.0511,0.21911 -0.13362,0.29456c-0.08253,0.07547 -0.19644,0.1222 -0.32209,0.1222c-0.12565,0 -0.23959,-0.04673 -0.32209,-0.1222c-0.08253,-0.07545 -0.13363,-0.17965 -0.13363,-0.29456c0,-0.11491 0.0511,-0.21909 0.13363,-0.29456c0.08251,-0.07547 0.19645,-0.1222 0.32209,-0.1222z" fill="#00d9f9"/><path d="M239.00373,83.38855c0.14811,0 0.28239,0.05508 0.3797,0.14393c0.09717,0.08901 0.1574,0.21181 0.1574,0.34726c0,0.13545 -0.06023,0.25823 -0.1574,0.34724c-0.09731,0.08887 -0.23159,0.14393 -0.3797,0.14393c-0.14811,0 -0.28239,-0.05506 -0.37971,-0.14393c-0.09717,-0.08901 -0.1574,-0.2118 -0.1574,-0.34724c0,-0.13545 0.06023,-0.25825 0.1574,-0.34726c0.09731,-0.08885 0.2316,-0.14393 0.37971,-0.14393z" fill="#00d9f9"/><path d="M238.15739,84.51974c0.13916,0 0.26529,0.05166 0.3566,0.1353c0.09146,0.08351 0.14793,0.19886 0.14793,0.32612c0,0.12726 -0.05647,0.24262 -0.14793,0.32612c-0.09132,0.08364 -0.21744,0.1353 -0.3566,0.1353c-0.13916,0 -0.26531,-0.05166 -0.35661,-0.1353c-0.09148,-0.0835 -0.14795,-0.19886 -0.14795,-0.32612c0,-0.12726 0.05647,-0.24261 0.14795,-0.32612c0.0913,-0.08364 0.21745,-0.1353 0.35661,-0.1353z" fill="#00d9f9"/><path d="M239.28042,85.30861c0.16162,0 0.30809,0.05999 0.41421,0.15703c0.10611,0.09705 0.17171,0.231 0.17171,0.37882c0,0.1478 -0.0656,0.28175 -0.17171,0.3788c-0.10612,0.09703 -0.2526,0.15703 -0.41421,0.15703c-0.16162,0 -0.30811,-0.05999 -0.41424,-0.15703c-0.10611,-0.09705 -0.17171,-0.231 -0.17171,-0.3788c0,-0.14782 0.0656,-0.28177 0.17171,-0.37882c0.10612,-0.09703 0.25262,-0.15703 0.41424,-0.15703z" fill="#00d9f9"/><path d="M228.43422,86.40945v0c-0.09765,0 -0.16275,-0.07441 -0.16275,-0.14884c0.11394,-2.38148 0.86262,-4.8969 0.8789,-4.92667c0.01626,-0.07443 0.11392,-0.11907 0.19531,-0.1042c0.08137,0.01489 0.1302,0.10419 0.11392,0.17861c0,0.02976 -0.74868,2.51545 -0.86262,4.85226c0,0.08931 -0.08136,0.14884 -0.16275,0.14884z" fill="#854a42"/><path d="M228.82483,83.47727c-0.03255,0 -0.04882,-0.01489 -0.0651,-0.02976c-0.01626,-0.02976 -0.01626,-0.07443 0.03256,-0.1042c1.83918,-1.08655 2.4902,-1.92006 2.4902,-1.92006c0.03255,-0.02976 0.08137,-0.04466 0.11392,-0.01489c0.03255,0.02976 0.04883,0.07443 0.01629,0.10419c-0.03255,0.02976 -0.66731,0.86328 -2.53901,1.96472c-0.01629,0 -0.03256,0 -0.04884,0z" fill="#854a42"/><path d="M225.55342,90.0412c-0.04883,0 -0.09766,-0.02976 -0.13021,-0.05954c-0.84635,-1.17585 -1.66013,-3.33406 -1.69268,-3.42336c-0.03255,-0.07443 0.01629,-0.16373 0.09765,-0.1935c0.08139,-0.02976 0.17904,0.01487 0.21159,0.0893c0.01626,0.01487 0.83005,2.20287 1.64385,3.34895c0.04882,0.07441 0.03256,0.16371 -0.04883,0.20837c-0.01626,0.01487 -0.04882,0.02977 -0.08137,0.02977z" fill="#854a42"/><path d="M230.76166,94.05995c-0.0651,0 -0.13021,-0.04466 -0.16276,-0.1042c-0.79752,-2.51543 -0.92772,-5.71553 -0.92772,-5.7453c0,-0.08931 0.0651,-0.14884 0.16275,-0.14884c0.09765,0 0.16276,0.05954 0.16276,0.14884c0,0.02976 0.13021,3.20011 0.91144,5.67089c0.03255,0.07441 -0.03255,0.16372 -0.11392,0.17861c0,0 -0.01629,0 -0.03256,0z" fill="#854a42"/><path d="M230.27767,91.43163c-0.01626,0 -0.03256,0 -0.04882,-0.01487c-0.03255,-0.02976 -0.03255,-0.07443 0,-0.1042c1.13929,-1.14609 2.32742,-3.20011 2.32742,-3.21499c0.01629,-0.02976 0.06511,-0.04466 0.11394,-0.02976c0.03255,0.01487 0.04882,0.05954 0.03255,0.10418c-0.01629,0.01489 -1.20442,2.08379 -2.35999,3.24477c-0.01626,0.01487 -0.03255,0.01487 -0.0651,0.01487z" fill="#854a42"/><path d="M235.22458,94.13625v0c-0.04883,0 -0.08139,-0.02977 -0.08139,-0.07443c0.04883,-0.93771 -0.14646,-3.51266 -0.14646,-3.52756c0,-0.04464 0.03256,-0.07441 0.08137,-0.07441c0.04883,0 0.08139,0.02977 0.08139,0.07441c0,0.02976 0.19531,2.60474 0.14646,3.54245c0,0.01487 -0.03255,0.05954 -0.08137,0.05954z" fill="#854a42"/><path d="M238.32352,92.73712c-0.04882,0 -0.08137,-0.01488 -0.11392,-0.04465c-0.0651,-0.05954 -0.0651,-0.14884 0,-0.20838c0.01626,-0.01489 1.38344,-1.28005 2.00191,-2.45591c0.03255,-0.07441 0.1302,-0.10418 0.21159,-0.07441c0.08137,0.02976 0.11392,0.11907 0.08137,0.19348c-0.63476,1.22051 -2.00191,2.48567 -2.06701,2.54521c-0.03255,0.02976 -0.08139,0.04465 -0.11394,0.04465z" fill="#854a42"/></g></g></g></g></svg>