<svg version="1.1" xmlns="http://www.w3.org/2000/svg" xmlns:xlink="http://www.w3.org/1999/xlink" width="210.57539" height="247.13564" viewBox="0,0,210.57539,247.13564"><defs><linearGradient x1="244.26947" y1="56.79924" x2="244.26947" y2="235.66744" gradientUnits="userSpaceOnUse" id="color-1"><stop offset="0" stop-color="#b3d2ff"/><stop offset="1" stop-color="#b3d2ff" stop-opacity="0"/></linearGradient><linearGradient x1="163.8238" y1="226.8096" x2="218.62775" y2="152.30155" gradientUnits="userSpaceOnUse" id="color-2"><stop offset="0" stop-color="#ccdfff" stop-opacity="0"/><stop offset="1" stop-color="#ccdfff"/></linearGradient><linearGradient x1="316.44336" y1="21.84908" x2="261.63941" y2="96.35713" gradientUnits="userSpaceOnUse" id="color-3"><stop offset="0" stop-color="#ccdfff" stop-opacity="0"/><stop offset="1" stop-color="#ccdfff"/></linearGradient><linearGradient x1="312.32431" y1="30.55729" x2="272.07008" y2="85.28444" gradientUnits="userSpaceOnUse" id="color-4"><stop offset="0" stop-color="#ffffff" stop-opacity="0"/><stop offset="1" stop-color="#ffffff"/></linearGradient><linearGradient x1="172.34026" y1="216.37035" x2="212.59449" y2="161.6432" gradientUnits="userSpaceOnUse" id="color-5"><stop offset="0" stop-color="#ffffff" stop-opacity="0"/><stop offset="1" stop-color="#ffffff"/></linearGradient></defs><g transform="translate(-137.44928,-2.44945)"><g data-paper-data="{&quot;isPaintingLayer&quot;:true}" stroke-linecap="butt" stroke-linejoin="miter" stroke-miterlimit="10" stroke-dasharray="" stroke-dashoffset="0" style="mix-blend-mode: normal"><path d="M298.62005,178.20932c0.09422,1.88165 -8.47599,7.07192 -53.11886,7.07192c-44.64286,0 -57.10709,-4.43047 -57.12201,-7.45949c-0.0129,-2.6151 11.55535,-6.10294 56.19819,-6.10294c44.64286,0 53.95646,4.76932 54.04268,6.49051z" fill="url(#color-1)" fill-rule="nonzero" stroke="none" stroke-width="0"/><text transform="translate(231.12805,200.22803) scale(0.28942,0.28942)" font-size="40" xml:space="preserve" fill="#000000" fill-rule="nonzero" stroke="#000000" stroke-width="0.5" stroke-linecap="butt" stroke-linejoin="miter" stroke-miterlimit="10" stroke-dasharray="" stroke-dashoffset="0" font-family="Handwriting" font-weight="normal" text-anchor="start" style="mix-blend-mode: normal"></text><text transform="translate(211.10478,58.80705) scale(0.23622,0.23622)" font-size="40" xml:space="preserve" fill="#000000" fill-rule="nonzero" stroke="#000000" stroke-width="1" stroke-linecap="butt" stroke-linejoin="miter" stroke-miterlimit="10" stroke-dasharray="" stroke-dashoffset="0" font-family="Handwriting" font-weight="normal" text-anchor="start" style="mix-blend-mode: normal"></text><text transform="translate(203.16561,42.28278) scale(0.30296,0.30296)" font-size="40" xml:space="preserve" fill="#000000" fill-rule="nonzero" stroke="#000000" stroke-width="1" stroke-linecap="butt" stroke-linejoin="miter" stroke-miterlimit="10" stroke-dasharray="" stroke-dashoffset="0" font-family="Handwriting" font-weight="normal" text-anchor="start" style="mix-blend-mode: normal"></text><g stroke="none"><path d="M279.79309,159.48473c-1.0166,0.36949 -2.23692,0.34085 -3.33408,0.65109c-2.53318,0.74363 -3.65897,2.27419 -4.35602,4.74079c-1.47,5.37393 -6.07235,9.43698 -11.64801,9.92894c-2.67765,0.26496 -5.50442,-0.44874 -7.77662,-1.74763c-3.13701,-1.81085 -2.9759,-1.69235 -7.11087,-1.1338c-3.55444,0.61314 -6.56431,3.86132 -10.14006,4.33465c-2.23692,0.34085 -5.93117,0.9753 -10.35439,-3.6437c-2.32412,-2.57846 -3.74549,-4.86532 -5.98905,-7.38453c-3.3547,-3.70891 -3.16763,-2.95062 -7.70538,-2.68833c-6.03769,0.27626 -12.95882,-1.95936 -14.35819,-8.3266c-0.73164,-3.39333 -0.11981,-6.41916 -0.13111,-9.7792c0.01267,-5.08034 -2.90397,-6.85324 -6.43177,-9.82051c-4.01113,-3.32278 -4.10497,-9.10215 -0.90536,-13.45215c1.99327,-2.87869 4.64763,-5.64354 4.93258,-9.40636c0.21372,-2.82211 0.07192,-5.16089 0.00603,-7.9404c-0.28558,-7.03764 4.36404,-10.3211 9.91641,-13.31296c4.0997,-2.19829 1.39677,-6.79331 4.71222,-9.44431c2.10444,-1.67968 10.35974,-0.07651 14.79166,-5.25803c1.70167,-1.97594 5.97515,-9.13606 10.2113,-5.27536c1.25094,1.1684 3.04446,2.61175 4.84532,2.69498c2.30083,0.07857 2.65634,-0.40476 4.22286,-1.85942c4.7588,-4.44453 9.93634,-4.73277 14.06796,0.78898c1.53987,2.12575 2.3594,4.2182 4.6316,5.51709c2.35275,1.35814 4.58502,0.51731 7.12752,0.77363c2.82211,0.21372 6.41183,1.24032 8.33318,3.52252c1.84079,2.22295 0.85946,4.23218 0.90406,6.87188c0.11049,5.41921 5.52504,4.80874 9.04352,6.77604c4.30273,2.42002 5.94645,7.10491 4.26341,11.08076c-0.62581,1.5259 -0.87481,2.70827 -0.69972,4.32671c0.2603,2.17767 0.76493,2.67299 2.31679,3.93859c1.87408,1.50261 3.88064,4.34404 4.24279,6.72077c0.90406,6.87188 -6.55102,9.58145 -9.62282,14.77029c-2.34412,3.86201 -0.0746,7.021 0.10248,10.99952c0.1631,2.47859 -0.59321,5.02574 -1.99395,7.09888c-1.51925,2.23425 -3.68295,3.99448 -6.11427,4.93717z" fill="#b3d2ff" fill-rule="evenodd" stroke-width="1"/><path d="M224.75546,159.85703l-27.89537,89.72806l-59.41081,-42.17513l73.12988,-57.98024z" data-paper-data="{&quot;index&quot;:null}" fill="url(#color-2)" fill-rule="nonzero" stroke-width="0"/><path d="M256.50075,89.52913l33.56808,-87.07968l57.95584,44.15322l-77.34762,53.35376z" fill="url(#color-3)" fill-rule="nonzero" stroke-width="0"/><path d="M274.03036,159.21841c-1.42938,3.29346 -3.43929,6.53232 -7.04833,7.726c-2.11376,0.67972 -3.50451,-0.46737 -5.38126,-0.10987c-4.79141,0.94468 -5.93919,6.55561 -11.08145,8.4836c-2.91,1.08716 -7.497,-1.79024 -10.19328,-3.52519c-0.24167,-0.17776 -1.70831,-0.88412 -2.6397,0.04459c-4.09038,3.19824 -9.23662,0.40607 -13.42085,-2.17507c-3.15831,-1.95066 -6.79797,-1.89675 -9.50356,-4.63167c-1.19169,-1.24895 -2.02786,-2.98124 -3.2788,-4.14963c-1.91669,-1.78222 -3.35271,-1.34882 -5.30269,-2.4107c-2.83609,-1.71365 -2.88534,-4.85333 -4.48912,-7.3985c-1.68434,-2.60442 -4.49912,-4.17827 -5.86589,-7.04566c-1.46863,-3.06645 -0.9207,-6.51171 -2.10972,-9.62076c-0.94269,-2.43132 -0.98263,-4.57104 -0.44669,-7.15615c0.37949,-2.20363 1.10716,-3.53047 0.26633,-5.76273c-0.39079,-1.15641 -0.91673,-1.79154 -1.10846,-3.04981c-0.46867,-3.07577 -2.05115,-5.48113 1.06325,-10.39036c0.92673,-1.4287 1.15442,-2.75087 2.16171,-4.12032c1.06654,-1.45 1.61645,-2.53517 2.33947,-4.36198c1.14976,-3.25085 4.25416,-4.93985 6.83263,-7.26397c3.19228,-2.98987 4.4013,-6.32128 7.16951,-9.74721c1.91737,-2.43797 4.08572,-3.69822 7.16149,-4.1669c1.89805,-0.21769 3.82207,0.2044 5.71547,-0.51327c2.09246,-0.81953 3.69692,-2.49455 5.60696,-3.57239c2.36741,-1.36211 4.76079,-2.08444 7.56626,-1.51055c0.22036,0.03795 8.40442,2.58182 17.01324,1.34156c5.5923,-0.85214 7.54625,4.92991 11.61664,8.17213c4.55371,3.59773 9.96093,4.34739 13.24905,9.49698c1.50192,2.34611 2.42797,5.1376 4.04839,7.3226c1.53987,2.12575 3.28147,2.28953 5.0204,4.31342c3.23619,3.87002 -0.20577,12.26245 0.14639,17.85941c0.41141,5.51641 3.98181,8.76329 1.59241,14.20578c-1.09517,2.67032 -3.50053,4.2528 -4.07442,7.05826c-0.43874,2.28419 -0.01733,4.58036 -0.75699,6.76735c-1.69502,4.836 -10.5788,6.61884 -11.86837,9.891z" fill="#ccdfff" fill-rule="evenodd" stroke-width="1"/><path d="M268.83384,86.62367c4.10833,3.02186 6.82523,9.11681 9.5235,13.21185c2.93993,4.2728 6.56027,6.43916 7.88642,11.38702c1.20299,4.60899 -1.43006,7.51365 -1.76496,12.35698c-0.20906,3.32209 2.43461,7.99767 1.67098,11.90495c-1.02927,5.44983 -5.68622,10.09341 -8.64882,14.12119c-2.01457,2.73889 -4.73818,8.80452 -7.19814,10.96753c-5.7541,4.95382 -13.23912,2.30344 -20.36465,3.88989c-5.74876,1.23361 -10.54749,3.53841 -16.29824,2.41194c-6.33128,-1.18107 -12.64858,-0.8622 -18.20691,-4.9506c-2.98055,-2.19233 -4.20683,-9.30121 -6.41245,-12.04078c-3.05378,-3.61171 -11.60732,-7.17218 -10.9502,-11.7785c2.33419,-15.66243 -0.72493,-15.55392 -0.46326,-21.81663c0.36154,-8.42373 4.55378,-11.42292 9.94572,-18.75347c2.78485,-3.78611 3.35675,-8.95166 6.97312,-11.50546c4.50981,-3.26216 10.90301,-4.02175 16.13048,-5.39051c7.42179,-1.98923 16.07253,1.27032 23.59084,3.20037c4.99245,1.31355 9.99491,-0.59314 14.58657,2.78423z" fill="#e6f0ff" fill-rule="evenodd" stroke-width="1"/><path d="M209.67323,99.71538c13.05689,-17.75134 38.0319,-21.55694 55.78323,-8.50005c17.75134,13.05689 21.55694,38.0319 8.50005,55.78323c-13.05689,17.75134 -38.0319,21.55694 -55.78323,8.50005c-17.75134,-13.05689 -21.55694,-38.0319 -8.50005,-55.78323z" fill="#ffffff" fill-rule="evenodd" stroke-width="1"/><path d="M260.74232,90.66966l36.33898,-70.81622l30.24352,21.7374l-57.76828,55.05403z" fill="url(#color-4)" fill-rule="nonzero" stroke-width="0"/><path d="M222.69071,155.86018l-35.34993,71.54371l-29.75853,-22.39676l56.77924,-55.78151z" data-paper-data="{&quot;index&quot;:null}" fill="url(#color-5)" fill-rule="nonzero" stroke-width="0"/></g></g></g></svg>