<svg version="1.1" xmlns="http://www.w3.org/2000/svg" xmlns:xlink="http://www.w3.org/1999/xlink" width="208" height="200.5" viewBox="0,0,208,200.5"><defs><radialGradient cx="240" cy="132" r="104" gradientUnits="userSpaceOnUse" id="color-1"><stop offset="0" stop-color="#4bb376"/><stop offset="1" stop-color="#4bb376" stop-opacity="0"/></radialGradient><linearGradient x1="240.61953" y1="58.29926" x2="240.61953" y2="237.16749" gradientUnits="userSpaceOnUse" id="color-2"><stop offset="0" stop-color="#000000"/><stop offset="1" stop-color="#000000" stop-opacity="0"/></linearGradient><linearGradient x1="256.26532" y1="76.7374" x2="248.10005" y2="114.85646" gradientUnits="userSpaceOnUse" id="color-3"><stop offset="0" stop-color="#ffaa34"/><stop offset="1" stop-color="#ffaa34" stop-opacity="0"/></linearGradient><linearGradient x1="190.40894" y1="93.7231" x2="217.97893" y2="121.28448" gradientUnits="userSpaceOnUse" id="color-4"><stop offset="0" stop-color="#ffaa34"/><stop offset="1" stop-color="#ffaa34" stop-opacity="0"/></linearGradient><linearGradient x1="296.85203" y1="169.44977" x2="264.78169" y2="139.12576" gradientUnits="userSpaceOnUse" id="color-5"><stop offset="0" stop-color="#ffaa34"/><stop offset="1" stop-color="#ffaa34" stop-opacity="0"/></linearGradient><linearGradient x1="204.33485" y1="184.56291" x2="225.97814" y2="140.81542" gradientUnits="userSpaceOnUse" id="color-6"><stop offset="0" stop-color="#ffaa34"/><stop offset="1" stop-color="#ffaa34" stop-opacity="0"/></linearGradient><linearGradient x1="301.13939" y1="114.44625" x2="276.40371" y2="124.64722" gradientUnits="userSpaceOnUse" id="color-7"><stop offset="0" stop-color="#ffaa34"/><stop offset="1" stop-color="#ffaa34" stop-opacity="0"/></linearGradient><radialGradient cx="240.90361" cy="131.37467" r="51.05371" gradientUnits="userSpaceOnUse" id="color-8"><stop offset="0" stop-color="#0f3314"/><stop offset="1" stop-color="#0f3314" stop-opacity="0"/></radialGradient><linearGradient x1="189.895" y1="88.96142" x2="245.74959" y2="140.35703" gradientUnits="userSpaceOnUse" id="color-9"><stop offset="0" stop-color="#ffaa34"/><stop offset="1" stop-color="#ffaa34" stop-opacity="0"/></linearGradient><linearGradient x1="308.74357" y1="147.387" x2="241.18985" y2="141.21775" gradientUnits="userSpaceOnUse" id="color-10"><stop offset="0" stop-color="#ffaa34"/><stop offset="1" stop-color="#ffaa34" stop-opacity="0"/></linearGradient><linearGradient x1="209.11515" y1="183.22983" x2="227.43827" y2="133.01489" gradientUnits="userSpaceOnUse" id="color-11"><stop offset="0" stop-color="#ffaa34"/><stop offset="1" stop-color="#ffaa34" stop-opacity="0"/></linearGradient><radialGradient cx="245.41941" cy="151.07592" r="32.41903" gradientUnits="userSpaceOnUse" id="color-12"><stop offset="0" stop-color="#ffaa34" stop-opacity="0"/><stop offset="1" stop-color="#ffaa34"/></radialGradient><radialGradient cx="244.94612" cy="116.71051" r="44.69273" gradientUnits="userSpaceOnUse" id="color-13"><stop offset="0" stop-color="#ffaa34" stop-opacity="0"/><stop offset="1" stop-color="#ffaa34"/></radialGradient><radialGradient cx="242.89281" cy="134.69129" r="51.60926" gradientUnits="userSpaceOnUse" id="color-14"><stop offset="0" stop-color="#4cfffe"/><stop offset="1" stop-color="#4cfffe" stop-opacity="0"/></radialGradient><linearGradient x1="233.56062" y1="143.99674" x2="238.98678" y2="136.61968" gradientUnits="userSpaceOnUse" id="color-15"><stop offset="0" stop-color="#ccdfff" stop-opacity="0"/><stop offset="1" stop-color="#ccdfff"/></linearGradient><linearGradient x1="248.67153" y1="123.70354" x2="243.24538" y2="131.08061" gradientUnits="userSpaceOnUse" id="color-16"><stop offset="0" stop-color="#ccdfff" stop-opacity="0"/><stop offset="1" stop-color="#ccdfff"/></linearGradient><linearGradient x1="248.2637" y1="124.56574" x2="244.27812" y2="129.9843" gradientUnits="userSpaceOnUse" id="color-17"><stop offset="0" stop-color="#ffffff" stop-opacity="0"/><stop offset="1" stop-color="#ffffff"/></linearGradient><linearGradient x1="234.40384" y1="142.96315" x2="238.38942" y2="137.5446" gradientUnits="userSpaceOnUse" id="color-18"><stop offset="0" stop-color="#ffffff" stop-opacity="0"/><stop offset="1" stop-color="#ffffff"/></linearGradient></defs><g transform="translate(-136,-31.75)"><g data-paper-data="{&quot;isPaintingLayer&quot;:true}" stroke-linecap="butt" stroke-linejoin="miter" stroke-miterlimit="10" stroke-dasharray="" stroke-dashoffset="0" style="mix-blend-mode: normal"><path d="M344,132c0,55.36655 -46.56239,100.25 -104,100.25c-57.43761,0 -104,-44.88345 -104,-100.25c0,-55.36655 46.56239,-100.25 104,-100.25c57.43761,0 104,44.88345 104,100.25z" fill="url(#color-1)" fill-rule="nonzero" stroke="none" stroke-width="0"/><path d="M284.37023,179.70937c0.07585,1.88165 -6.82295,7.07192 -42.75929,7.07192c-35.93634,0 -45.96971,-4.43047 -45.98172,-7.45949c-0.01038,-2.6151 9.30175,-6.10294 45.23807,-6.10294c35.93634,0 43.43354,4.76932 43.50294,6.49051z" fill="url(#color-2)" fill-rule="nonzero" stroke="none" stroke-width="0"/><text transform="translate(223.07985,207.06723) scale(0.357,0.357)" font-size="40" xml:space="preserve" fill="#ffffff" fill-rule="nonzero" stroke="#ffffff" stroke-width="0.5" stroke-linecap="butt" stroke-linejoin="miter" stroke-miterlimit="10" stroke-dasharray="" stroke-dashoffset="0" font-family="Handwriting" font-weight="normal" text-anchor="start" style="mix-blend-mode: normal"></text><text transform="translate(200.61052,68.49286) scale(0.34497,0.34497)" font-size="40" xml:space="preserve" fill="#ffffff" fill-rule="nonzero" stroke="#ffffff" stroke-width="1" stroke-linecap="butt" stroke-linejoin="miter" stroke-miterlimit="10" stroke-dasharray="" stroke-dashoffset="0" font-family="Handwriting" font-weight="normal" text-anchor="start" style="mix-blend-mode: normal"></text><path d="M280.85376,110.61438c-2.04789,3.64777 -8.70751,9.10475 -31.01923,4.60222c-22.28839,-4.49783 -30.31208,-11.01683 -30.41201,-15.43814c0.11385,-2.8941 11.14903,-19.82433 35.59906,-13.74012c23.13599,5.75722 27.23931,22.06962 25.83218,24.57604z" fill="url(#color-3)" fill-rule="nonzero" stroke="none" stroke-width="0"/><path d="M232.20856,91.4798c1.95033,3.70085 2.91468,12.2565 -12.98511,28.544c-15.88316,16.27046 -25.71494,19.46624 -29.48142,17.14855c-2.36809,-1.66762 -10.58877,-20.12916 7.8005,-37.35286c17.40096,-16.29804 33.32593,-10.88258 34.66603,-8.33969z" fill="url(#color-4)" fill-rule="nonzero" stroke="none" stroke-width="0"/><path d="M249.61621,173.30525c-2.32386,-4.12698 -3.68474,-13.77942 13.79672,-32.71353c17.46317,-18.9143 28.48958,-22.84079 32.82527,-20.3364c2.7326,1.81274 12.61782,22.44752 -7.6516,42.51959c-19.18007,18.99332 -37.37364,13.36602 -38.97038,10.53033z" fill="url(#color-5)" fill-rule="nonzero" stroke="none" stroke-width="0"/><path d="M184.92271,135.88117c3.60817,-3.79651 13.37004,-8.36906 39.06135,3.96328c25.66445,12.31944 33.39522,22.70074 32.15551,28.09717c-1.02904,3.47722 -19.6328,20.62667 -47.43227,5.71661c-26.30543,-14.10874 -26.2638,-35.16844 -23.78459,-37.77706z" fill="url(#color-6)" fill-rule="nonzero" stroke="none" stroke-width="0"/><path d="M291.53677,141.5245c-2.85944,0.25979 -8.53512,-1.38559 -14.66244,-15.7562c-6.12092,-14.35559 -5.55293,-21.42839 -3.09096,-23.20379c1.68126,-1.06074 15.54762,-1.40084 21.61161,14.79417c5.73809,15.32463 -1.89345,23.98732 -3.85821,24.16583z" fill="url(#color-7)" fill-rule="nonzero" stroke="none" stroke-width="0"/><path d="M291.95731,131.37467c0,25.85463 -22.85752,46.81395 -51.05371,46.81395c-28.19618,0 -51.05371,-20.95932 -51.05371,-46.81395c0,-25.85463 22.85752,-46.81396 51.05371,-46.81396c28.19618,0 51.05371,20.95933 51.05371,46.81396z" fill="url(#color-8)" fill-rule="nonzero" stroke="none" stroke-width="0"/><path d="M221.25826,112.70447c15.42382,14.1925 26.86157,27.30082 23.764,30.66713c-3.09757,3.36631 -16.14339,-9.32889 -31.56721,-23.52139c-15.42382,-14.1925 -27.23072,-12.86714 -14.2781,-22.3847c11.71552,-8.60854 6.65748,1.04646 22.0813,15.23897z" fill="url(#color-9)" fill-rule="nonzero" stroke="none" stroke-width="0"/><path d="M273.58842,147.55533c-18.65445,-1.70359 -33.8904,-4.80121 -33.51859,-8.87261c0.37181,-4.0714 16.52519,-2.13999 35.17963,-0.4364c18.65445,1.70359 26.31743,-5.64652 22.28801,8.14166c-3.64457,12.47127 -5.29461,2.87094 -23.94905,1.16735z" fill="url(#color-10)" fill-rule="nonzero" stroke="none" stroke-width="0"/><path d="M216.07673,156.41641c5.05979,-13.86647 10.49207,-24.84777 13.51848,-23.74345c3.02641,1.10432 -1.70253,13.01966 -6.76232,26.88613c-5.05979,13.86647 -1.00625,21.18607 -10.69679,15.33596c-8.76499,-5.29137 -1.11917,-4.61217 3.94062,-18.47863z" fill="url(#color-11)" fill-rule="nonzero" stroke="none" stroke-width="0"/><path d="M260.91642,154.99471c-0.73174,3.95941 -1.09388,17.81266 -18.70329,17.81266c-17.60941,0 -20.57414,-13.82879 -20.12831,-24.93772c0.26122,-6.50895 1.84853,-15.11133 19.4158,-13.89387c5.14055,0.35626 20.99996,12.44719 19.4158,21.01894z" fill="url(#color-12)" fill-rule="nonzero" stroke="none" stroke-width="0"/><path d="M223.58202,111.3081c1.00878,-5.45843 1.50802,-24.55645 25.78427,-24.55645c24.27625,0 28.36341,19.0643 27.74879,34.37903c-0.36012,8.97321 -2.54836,20.83241 -26.76653,19.15403c-7.08674,-0.49113 -28.95044,-17.15964 -26.76652,-28.9766z" data-paper-data="{&quot;index&quot;:null}" fill="url(#color-13)" fill-rule="nonzero" stroke="none" stroke-width="0"/><path d="M294.50207,134.69129c0,26.13597 -23.10625,47.32337 -51.60926,47.32337c-28.50301,0 -51.60926,-21.1874 -51.60926,-47.32337c0,-26.13597 23.10625,-47.32336 51.60926,-47.32336c28.50301,0 51.60926,21.18738 51.60926,47.32336z" fill="url(#color-14)" fill-rule="nonzero" stroke="none" stroke-width="0"/><g stroke="none"><path d="M245.04278,137.33089c-0.10065,0.03658 -0.22148,0.03375 -0.33011,0.06446c-0.25081,0.07363 -0.36228,0.22517 -0.43129,0.46939c-0.14555,0.53207 -0.60123,0.93436 -1.15327,0.98307c-0.26511,0.02623 -0.54499,-0.04443 -0.76997,-0.17303c-0.3106,-0.17929 -0.29464,-0.16756 -0.70405,-0.11226c-0.35193,0.06071 -0.64993,0.38231 -1.00397,0.42917c-0.22148,0.03375 -0.58725,0.09656 -1.02519,-0.36076c-0.23011,-0.25529 -0.37084,-0.48172 -0.59298,-0.73114c-0.33215,-0.36722 -0.31363,-0.29214 -0.76291,-0.26617c-0.59779,0.02735 -1.28306,-0.194 -1.42161,-0.82442c-0.07244,-0.33597 -0.01186,-0.63556 -0.01298,-0.96824c0.00125,-0.50301 -0.28752,-0.67854 -0.63681,-0.97233c-0.39714,-0.32899 -0.40643,-0.90121 -0.08964,-1.3319c0.19735,-0.28502 0.46016,-0.55877 0.48838,-0.93133c0.02116,-0.27942 0.00712,-0.51098 0.0006,-0.78618c-0.02828,-0.6968 0.43208,-1.0219 0.98183,-1.31812c0.40591,-0.21765 0.13829,-0.67261 0.46656,-0.93508c0.20836,-0.16631 1.02572,-0.00758 1.46453,-0.5206c0.16848,-0.19564 0.5916,-0.90456 1.01102,-0.52231c0.12386,0.11568 0.30143,0.25859 0.47974,0.26683c0.22781,0.00778 0.26301,-0.04008 0.41811,-0.1841c0.47117,-0.44005 0.9838,-0.46859 1.39287,0.07812c0.15246,0.21047 0.2336,0.41765 0.45858,0.54625c0.23295,0.13447 0.45396,0.05122 0.7057,0.0766c0.27942,0.02116 0.63484,0.1228 0.82507,0.34877c0.18226,0.22009 0.0851,0.41903 0.08951,0.68039c0.01094,0.53656 0.54704,0.47611 0.8954,0.6709c0.42601,0.23961 0.58876,0.70346 0.42212,1.09711c-0.06196,0.15108 -0.08662,0.26815 -0.06928,0.42839c0.02577,0.21561 0.07574,0.26465 0.22939,0.38996c0.18555,0.14877 0.38422,0.4301 0.42008,0.66543c0.08951,0.68039 -0.64862,0.94866 -0.95276,1.46241c-0.23209,0.38238 -0.00739,0.69515 0.01015,1.08907c0.01615,0.24541 -0.05873,0.4976 -0.19742,0.70286c-0.15042,0.22121 -0.36465,0.39549 -0.60538,0.48883z" fill="#b3d2ff" fill-rule="evenodd" stroke-width="1"/><path d="M239.59349,137.36775l-2.76193,8.884l-5.88228,-4.17577l7.24061,-5.74064z" data-paper-data="{&quot;index&quot;:null}" fill="url(#color-15)" fill-rule="nonzero" stroke-width="0"/><path d="M242.7366,130.40456l3.32359,-8.62179l5.73822,4.37162l-7.65821,5.28257z" fill="url(#color-16)" fill-rule="nonzero" stroke-width="0"/><path d="M244.47221,137.30452c-0.14152,0.32609 -0.34053,0.64677 -0.69786,0.76495c-0.20928,0.0673 -0.34698,-0.04627 -0.5328,-0.01088c-0.4744,0.09353 -0.58804,0.64907 -1.09718,0.83996c-0.28812,0.10764 -0.74228,-0.17725 -1.00924,-0.34903c-0.02393,-0.0176 -0.16914,-0.08754 -0.26136,0.00441c-0.40499,0.31666 -0.91452,0.04021 -1.3288,-0.21535c-0.31271,-0.19314 -0.67307,-0.1878 -0.94095,-0.45858c-0.11799,-0.12366 -0.20078,-0.29517 -0.32463,-0.41086c-0.18977,-0.17646 -0.33195,-0.13355 -0.52502,-0.23868c-0.2808,-0.16967 -0.28568,-0.48053 -0.44447,-0.73253c-0.16677,-0.25786 -0.44546,-0.41369 -0.58078,-0.69759c-0.14541,-0.30361 -0.09116,-0.64473 -0.20888,-0.95255c-0.09334,-0.24073 -0.09729,-0.45258 -0.04423,-0.70853c0.03757,-0.21818 0.10962,-0.34955 0.02637,-0.57057c-0.03869,-0.1145 -0.09077,-0.17738 -0.10975,-0.30196c-0.0464,-0.30453 -0.20308,-0.54269 0.10527,-1.02875c0.09176,-0.14146 0.1143,-0.27236 0.21403,-0.40795c0.1056,-0.14356 0.16005,-0.25101 0.23163,-0.43188c0.11384,-0.32187 0.42121,-0.4891 0.6765,-0.71921c0.31607,-0.29603 0.43577,-0.62587 0.70986,-0.96507c0.18984,-0.24138 0.40453,-0.36616 0.70906,-0.41257c0.18793,-0.02155 0.37842,0.02024 0.56589,-0.05082c0.20718,-0.08114 0.36603,-0.24699 0.55515,-0.3537c0.2344,-0.13486 0.47137,-0.20638 0.74914,-0.14956c0.02182,0.00376 0.83212,0.25563 1.68449,0.13283c0.5537,-0.08437 0.74716,0.48811 1.15017,0.80913c0.45086,0.35621 0.98623,0.43044 1.31179,0.9403c0.14871,0.23229 0.24039,0.50868 0.40083,0.72501c0.15246,0.21047 0.3249,0.22669 0.49707,0.42707c0.32042,0.38317 -0.02037,1.21411 0.01449,1.76827c0.04073,0.54618 0.39424,0.86766 0.15766,1.40652c-0.10843,0.26439 -0.34659,0.42107 -0.40341,0.69884c-0.04344,0.22616 -0.00172,0.4535 -0.07495,0.67004c-0.16782,0.47881 -1.04741,0.65533 -1.17509,0.97931z" fill="#ccdfff" fill-rule="evenodd" stroke-width="1"/><path d="M243.9577,130.11689c0.40677,0.2992 0.67577,0.90266 0.94292,1.30811c0.29108,0.42305 0.64953,0.63754 0.78084,1.12743c0.11911,0.45634 -0.14159,0.74393 -0.17475,1.22347c-0.0207,0.32892 0.24105,0.79185 0.16544,1.17871c-0.10191,0.53959 -0.56299,0.99935 -0.85632,1.39814c-0.19946,0.27118 -0.46913,0.87174 -0.71269,1.0859c-0.56972,0.49048 -1.31081,0.22806 -2.01631,0.38514c-0.56919,0.12214 -1.04431,0.35034 -1.61369,0.23881c-0.62686,-0.11694 -1.25234,-0.08537 -1.80267,-0.49016c-0.29511,-0.21706 -0.41652,-0.92092 -0.6349,-1.19216c-0.30236,-0.3576 -1.14924,-0.71012 -1.08418,-1.16619c0.23111,-1.55074 -0.07178,-1.54 -0.04587,-2.16007c0.0358,-0.83404 0.45087,-1.13099 0.98473,-1.85679c0.27573,-0.37486 0.33235,-0.88631 0.69041,-1.13916c0.44652,-0.32299 1.07951,-0.39819 1.59708,-0.53372c0.73483,-0.19695 1.59135,0.12577 2.33574,0.31687c0.4943,0.13005 0.9896,-0.05873 1.44422,0.27567z" fill="#e6f0ff" fill-rule="evenodd" stroke-width="1"/><path d="M238.10019,131.41311c1.29277,-1.75757 3.76555,-2.13436 5.52311,-0.84159c1.75757,1.29277 2.13436,3.76555 0.84159,5.52311c-1.29277,1.75757 -3.76555,2.13436 -5.52311,0.84159c-1.75757,-1.29277 -2.13436,-3.76555 -0.84159,-5.52311z" fill="#ffffff" fill-rule="evenodd" stroke-width="1"/><path d="M243.15656,130.51749l3.59793,-7.01154l2.99442,2.15223l-5.71965,5.45092z" fill="url(#color-17)" fill-rule="nonzero" stroke-width="0"/><path d="M239.38905,136.97202l-3.50001,7.08356l-2.9464,-2.21751l5.62173,-5.52294z" data-paper-data="{&quot;index&quot;:null}" fill="url(#color-18)" fill-rule="nonzero" stroke-width="0"/></g><text transform="translate(253.77151,132.40238) scale(0.14165,0.14165)" font-size="40" xml:space="preserve" fill="#ffffff" fill-rule="nonzero" stroke="#ffffff" stroke-width="1" stroke-linecap="butt" stroke-linejoin="miter" stroke-miterlimit="10" stroke-dasharray="" stroke-dashoffset="0" font-family="Handwriting" font-weight="normal" text-anchor="start" style="mix-blend-mode: normal"></text></g></g></svg>