<svg version="1.1" xmlns="http://www.w3.org/2000/svg" xmlns:xlink="http://www.w3.org/1999/xlink" width="131.62608" height="119.7745" viewBox="0,0,131.62608,119.7745"><defs><linearGradient x1="270.40496" y1="51.8514" x2="270.40496" y2="240.81598" gradientUnits="userSpaceOnUse" id="color-1"><stop offset="0" stop-color="#000000"/><stop offset="1" stop-color="#000000" stop-opacity="0"/></linearGradient><radialGradient cx="267.70232" cy="127.71522" r="36.75" gradientUnits="userSpaceOnUse" id="color-2"><stop offset="0" stop-color="#cbcbcb"/><stop offset="1" stop-color="#696969"/></radialGradient><radialGradient cx="267.70232" cy="127.71522" r="36.75" gradientUnits="userSpaceOnUse" id="color-3"><stop offset="0" stop-color="#3f3f3f"/><stop offset="1" stop-color="#919191"/></radialGradient><radialGradient cx="220.99176" cy="105.65741" r="5.21447" gradientUnits="userSpaceOnUse" id="color-4"><stop offset="0" stop-color="#ded9cc"/><stop offset="1" stop-color="#ded9cc" stop-opacity="0"/></radialGradient><radialGradient cx="207.60771" cy="110.44275" r="3.85753" gradientUnits="userSpaceOnUse" id="color-5"><stop offset="0" stop-color="#dedede"/><stop offset="1" stop-color="#dedede" stop-opacity="0"/></radialGradient><radialGradient cx="231.32592" cy="93.17479" r="3.85753" gradientUnits="userSpaceOnUse" id="color-6"><stop offset="0" stop-color="#dedede"/><stop offset="1" stop-color="#dedede" stop-opacity="0"/></radialGradient><radialGradient cx="209.5527" cy="94.87175" r="2.13517" gradientUnits="userSpaceOnUse" id="color-7"><stop offset="0" stop-color="#ffffff"/><stop offset="1" stop-color="#ffffff" stop-opacity="0"/></radialGradient><radialGradient cx="217.53285" cy="115.57583" r="2.13517" gradientUnits="userSpaceOnUse" id="color-8"><stop offset="0" stop-color="#ffffff"/><stop offset="1" stop-color="#ffffff" stop-opacity="0"/></radialGradient><radialGradient cx="322.80924" cy="145.09336" r="8.265" gradientUnits="userSpaceOnUse" id="color-9"><stop offset="0" stop-color="#ffffff"/><stop offset="1" stop-color="#ffffff" stop-opacity="0"/></radialGradient><radialGradient cx="305.80851" cy="156.98421" r="5.21447" gradientUnits="userSpaceOnUse" id="color-10"><stop offset="0" stop-color="#ffffff"/><stop offset="1" stop-color="#ffffff" stop-opacity="0"/></radialGradient><radialGradient cx="328.61205" cy="164.82841" r="3.85753" gradientUnits="userSpaceOnUse" id="color-11"><stop offset="0" stop-color="#dedcd7"/><stop offset="1" stop-color="#dedcd7" stop-opacity="0"/></radialGradient><radialGradient cx="311.70151" cy="151.33414" r="3.85753" gradientUnits="userSpaceOnUse" id="color-12"><stop offset="0" stop-color="#dedede"/><stop offset="1" stop-color="#dedede" stop-opacity="0"/></radialGradient><radialGradient cx="333.48575" cy="126.64041" r="2.13517" gradientUnits="userSpaceOnUse" id="color-13"><stop offset="0" stop-color="#ffffff"/><stop offset="1" stop-color="#ffffff" stop-opacity="0"/></radialGradient><radialGradient cx="294.79649" cy="160.46148" r="2.13517" gradientUnits="userSpaceOnUse" id="color-14"><stop offset="0" stop-color="#ffffff"/><stop offset="1" stop-color="#ffffff" stop-opacity="0"/></radialGradient></defs><g transform="translate(-203.99398,-67.81109)"><g data-paper-data="{&quot;isPaintingLayer&quot;:true}" fill-rule="nonzero" stroke-linecap="butt" stroke-linejoin="miter" stroke-miterlimit="10" stroke-dasharray="" stroke-dashoffset="0" style="mix-blend-mode: normal"><path d="M320.03538,180.11451c0.08605,1.98786 -7.73989,7.47108 -48.50565,7.47108c-40.76576,0 -52.14751,-4.68056 -52.16115,-7.88054c-0.01178,-2.7627 10.55181,-6.44742 51.31757,-6.44742c40.76576,0 49.27051,5.03854 49.34923,6.85688z" fill="url(#color-1)" stroke="none" stroke-width="0"/><text transform="translate(222.21524,78.54495) scale(0.28247,0.28247)" font-size="40" xml:space="preserve" fill="#ffffff" fill-rule="nonzero" stroke="#ffffff" stroke-width="1" stroke-linecap="butt" stroke-linejoin="miter" stroke-miterlimit="10" stroke-dasharray="" stroke-dashoffset="0" font-family="Handwriting" font-weight="normal" text-anchor="start" style="mix-blend-mode: normal"><tspan x="0" dy="0">Hyper jump to Start</tspan></text><path d="M230.95232,149.25882v-43.08721h73.5v43.08721z" fill="url(#color-2)" stroke="url(#color-3)" stroke-width="5"/><g stroke="none" stroke-width="0"><path d="M224.62608,105.76275c-0.0395,0.27837 -1.22722,0.7017 -2.18723,1.62491c-0.94135,0.90527 -0.65843,3.32706 -1.4471,3.46541c-0.75338,0.13216 -0.77058,-2.53824 -1.70682,-3.41207c-0.99299,-0.92679 -2.47794,-0.96594 -2.55957,-1.7836c-0.034,-0.34053 1.82376,-0.3034 2.41827,-1.13022c0.94322,-1.31181 0.81659,-4.08982 1.74277,-4.17078c0.79786,-0.06974 0.6159,3.39503 1.57076,4.43743c0.82475,0.90036 2.2357,0.49834 2.16892,0.96892z" fill="url(#color-4)"/><path d="M210.29629,110.52068c-0.02922,0.20593 -0.90787,0.5191 -1.61806,1.20207c-0.69639,0.66969 -0.48709,2.46127 -1.07052,2.56362c-0.55733,0.09777 -0.57005,-1.87773 -1.26266,-2.52416c-0.73458,-0.68561 -1.83311,-0.71457 -1.8935,-1.31946c-0.02515,-0.25191 1.34917,-0.22444 1.78897,-0.83611c0.69777,-0.97044 0.6041,-3.02554 1.28926,-3.08543c0.59023,-0.05159 0.45563,2.51155 1.16201,3.28269c0.61013,0.66607 1.65391,0.36866 1.60451,0.71678z" fill="url(#color-5)"/><path d="M234.0145,93.25272c-0.02922,0.20593 -0.90787,0.5191 -1.61806,1.20207c-0.69639,0.66969 -0.48709,2.46127 -1.07052,2.56362c-0.55733,0.09777 -0.57005,-1.87773 -1.26266,-2.52416c-0.73458,-0.68561 -1.83311,-0.71457 -1.8935,-1.31946c-0.02515,-0.25192 1.34917,-0.22444 1.78897,-0.83611c0.69777,-0.97044 0.60409,-3.02554 1.28926,-3.08543c0.59023,-0.05159 0.45563,2.51155 1.16201,3.28269c0.61013,0.66607 1.65391,0.36866 1.60451,0.71678z" fill="url(#color-6)"/><path d="M209.48794,92.82301c0.62457,-0.01974 0.54288,1.02019 0.94613,1.41838c0.35772,0.35324 1.23592,0.03099 1.25274,0.56289c0.01616,0.51109 -0.88764,0.29493 -1.1987,0.66399c-0.37758,0.44801 -0.22439,1.43177 -0.87065,1.4522c-0.48353,0.01529 -0.32763,-0.90906 -0.69371,-1.15795c-0.52626,-0.35781 -1.48406,-0.15602 -1.50516,-0.82332c-0.01604,-0.50753 0.96223,-0.51727 1.26931,-0.88522c0.37752,-0.45235 0.15008,-1.21044 0.80003,-1.23098z" fill="url(#color-7)"/><path d="M217.46809,113.52709c0.62457,-0.01974 0.54288,1.0202 0.94613,1.41839c0.35772,0.35324 1.23592,0.03099 1.25274,0.56289c0.01616,0.51109 -0.88764,0.29493 -1.1987,0.664c-0.37758,0.44801 -0.22439,1.43177 -0.87065,1.4522c-0.48353,0.01529 -0.32763,-0.90906 -0.69371,-1.15795c-0.52626,-0.35781 -1.48406,-0.15602 -1.50516,-0.82332c-0.01604,-0.50753 0.96223,-0.51727 1.26931,-0.88522c0.37752,-0.45235 0.15008,-1.21044 0.80003,-1.23098z" fill="url(#color-8)"/></g><g stroke="none" stroke-width="0"><path d="M328.23198,144.9258c-0.04548,0.32049 -1.41289,0.80785 -2.51814,1.87075c-1.08377,1.04223 -1.09967,4.34284 -2.00765,4.50212c-0.86736,0.15215 -0.54553,-3.43469 -1.62341,-4.44071c-1.14322,-1.067 -2.85282,-1.11207 -2.94679,-2.05343c-0.03914,-0.39204 2.09967,-0.34929 2.78412,-1.30121c1.08592,-1.51026 0.94014,-5.90426 2.00644,-5.99746c0.91857,-0.08029 0.70908,5.10434 1.80839,6.30445c0.94952,1.03658 2.57393,0.57374 2.49705,1.11551z" fill="url(#color-9)"/><path d="M309.44284,157.08955c-0.0395,0.27837 -1.22722,0.7017 -2.18723,1.62491c-0.94135,0.90527 -0.65843,3.32706 -1.4471,3.46541c-0.75338,0.13216 -0.77058,-2.53824 -1.70682,-3.41207c-0.99299,-0.92678 -2.47794,-0.96594 -2.55957,-1.7836c-0.034,-0.34053 1.82376,-0.3034 2.41827,-1.13023c0.94322,-1.31181 0.81659,-4.08982 1.74278,-4.17078c0.79786,-0.06974 0.6159,3.39503 1.57075,4.43743c0.82475,0.90036 2.2357,0.49834 2.16892,0.96892z" fill="url(#color-10)"/><path d="M331.30064,164.90634c-0.02922,0.20593 -0.90787,0.5191 -1.61806,1.20207c-0.69638,0.66969 -0.48709,2.46127 -1.07052,2.56362c-0.55733,0.09777 -0.57005,-1.87773 -1.26266,-2.52416c-0.73459,-0.68561 -1.83311,-0.71457 -1.8935,-1.31946c-0.02515,-0.25191 1.34917,-0.22444 1.78897,-0.83611c0.69777,-0.97044 0.60409,-3.02554 1.28926,-3.08543c0.59023,-0.05159 0.45563,2.51155 1.16201,3.28269c0.61013,0.66607 1.65391,0.36866 1.60451,0.71678z" fill="url(#color-11)"/><path d="M314.39009,151.41207c-0.02922,0.20593 -0.90787,0.51909 -1.61806,1.20207c-0.69639,0.66969 -0.48709,2.46127 -1.07052,2.56362c-0.55733,0.09777 -0.57005,-1.87773 -1.26266,-2.52416c-0.73458,-0.68561 -1.83311,-0.71457 -1.8935,-1.31946c-0.02515,-0.25191 1.34917,-0.22444 1.78897,-0.83611c0.69777,-0.97044 0.60409,-3.02554 1.28926,-3.08543c0.59023,-0.05159 0.45563,2.51155 1.16201,3.28269c0.61013,0.66607 1.65391,0.36866 1.6045,0.71678z" fill="url(#color-12)"/><path d="M333.42098,124.59167c0.62457,-0.01974 0.54288,1.02019 0.94613,1.41838c0.35772,0.35324 1.23592,0.03099 1.25274,0.56289c0.01616,0.51109 -0.88764,0.29493 -1.1987,0.66399c-0.37758,0.44801 -0.2244,1.43177 -0.87065,1.4522c-0.48353,0.01529 -0.32763,-0.90906 -0.69371,-1.15795c-0.52626,-0.35781 -1.48406,-0.15602 -1.50516,-0.82332c-0.01604,-0.50753 0.96223,-0.51727 1.26931,-0.88522c0.37751,-0.45235 0.15008,-1.21044 0.80003,-1.23098z" fill="url(#color-13)"/><path d="M294.73173,158.41275c0.62457,-0.01974 0.54288,1.0202 0.94613,1.41839c0.35772,0.35324 1.23592,0.03099 1.25274,0.56289c0.01616,0.51109 -0.88764,0.29493 -1.1987,0.664c-0.37758,0.44801 -0.22439,1.43177 -0.87065,1.4522c-0.48353,0.01529 -0.32763,-0.90906 -0.69371,-1.15795c-0.52626,-0.35781 -1.48406,-0.15602 -1.50516,-0.82332c-0.01604,-0.50753 0.96223,-0.51727 1.26931,-0.88522c0.37752,-0.45235 0.15008,-1.21044 0.80003,-1.23098z" fill="url(#color-14)"/></g><text transform="translate(241.70232,134.55199) scale(0.4461,0.54535)" font-size="40" xml:space="preserve" fill="#505050" fill-rule="nonzero" stroke="#505050" stroke-width="2" stroke-linecap="butt" stroke-linejoin="miter" stroke-miterlimit="10" stroke-dasharray="" stroke-dashoffset="0" font-family="Handwriting" font-weight="normal" text-anchor="start" style="mix-blend-mode: normal"><tspan x="0" dy="0">CLICK</tspan></text><g stroke="#cdcdcd"><path d="M218.28566,154.25495c0,2.48528 -2.01472,4.5 -4.5,4.5c-2.48528,0 -4.5,-2.01472 -4.5,-4.5c0,-2.48528 2.01472,-4.5 4.5,-4.5c2.48528,0 4.5,2.01472 4.5,4.5z" fill="#cdcdcd" stroke-width="1"/><path d="M214.67616,163.46328c-5.48539,0 -9.93218,-4.30926 -9.93218,-9.625c0,-5.31574 4.44679,-9.625 9.93218,-9.625c5.48539,0 9.93218,4.30926 9.93218,9.625c0,5.31574 -4.44679,9.625 -9.93218,9.625z" data-paper-data="{&quot;index&quot;:null}" fill="none" stroke-width="1.5"/><path d="M221.07732,145.75495c0,1.58782 -1.28718,2.875 -2.875,2.875c-1.58782,0 -2.875,-1.28718 -2.875,-2.875c0,-1.58782 1.28718,-2.875 2.875,-2.875c1.58782,0 2.875,1.28718 2.875,2.875z" fill="#cdcdcd" stroke-width="1"/><path d="M210.49398,161.99661c0,1.49117 -1.34314,2.7 -3,2.7c-1.65686,0 -3,-1.20883 -3,-2.7c0,-1.49117 1.34314,-2.7 3,-2.7c1.65686,0 3,1.20883 3,2.7z" fill="#cdcdcd" stroke-width="1"/></g><g><path d="M334.70232,103.05846c0,7.97376 -6.64111,14.43778 -14.83333,14.43778c-8.19222,0 -14.83333,-6.46401 -14.83333,-14.43778c0,-7.97376 6.64111,-14.43778 14.83333,-14.43778c8.19222,0 14.83333,6.46401 14.83333,14.43778z" fill="none" stroke="#cdcdcd" stroke-width="1.5"/><path d="M329.36899,103.45402c0,4.69442 -4.02944,8.5 -9,8.5c-4.97056,0 -9,-3.80558 -9,-8.5c0,-4.69442 4.02944,-8.5 9,-8.5c4.97056,0 9,3.80558 9,8.5z" fill="none" stroke="#cdcdcd" stroke-width="1.5"/><path d="M325.45232,103.16235c0,2.64636 -2.1453,4.79167 -4.79167,4.79167c-2.64636,0 -4.79167,-2.1453 -4.79167,-4.79167c0,-2.64636 2.1453,-4.79167 4.79167,-4.79167c2.64636,0 4.79167,2.1453 4.79167,4.79167z" fill="#cdcdcd" stroke="none" stroke-width="0"/><path d="M314.45232,100.45402c0,1.65685 -1.19391,3 -2.66667,3c-1.47276,0 -2.66667,-1.34315 -2.66667,-3c0,-1.65685 1.19391,-3 2.66667,-3c1.47276,0 2.66667,1.34315 2.66667,3z" fill="#cdcdcd" stroke="none" stroke-width="0"/><path d="M326.36899,111.20402c0,1.28866 -1.11929,2.33333 -2.5,2.33333c-1.38071,0 -2.5,-1.04467 -2.5,-2.33333c0,-1.28866 1.11929,-2.33333 2.5,-2.33333c1.38071,0 2.5,1.04467 2.5,2.33333z" fill="#cdcdcd" stroke="none" stroke-width="0"/><path d="M331.36899,91.12068c0,1.7489 -1.49238,3.16667 -3.33333,3.16667c-1.84095,0 -3.33333,-1.41776 -3.33333,-3.16667c0,-1.7489 1.49238,-3.16667 3.33333,-3.16667c1.84095,0 3.33333,1.41776 3.33333,3.16667z" fill="#cdcdcd" stroke="none" stroke-width="0"/></g></g></g></svg>