<svg version="1.1" xmlns="http://www.w3.org/2000/svg" xmlns:xlink="http://www.w3.org/1999/xlink" width="118.69862" height="192.3872" viewBox="0,0,118.69862,192.3872"><defs><linearGradient x1="340.03283" y1="68.79054" x2="340.03283" y2="232.97418" gradientUnits="userSpaceOnUse" id="color-1"><stop offset="0" stop-color="#000000"/><stop offset="1" stop-color="#000000" stop-opacity="0"/></linearGradient></defs><g transform="translate(-287.0168,-26.643)"><g data-paper-data="{&quot;isPaintingLayer&quot;:true}" stroke-linecap="butt" stroke-linejoin="miter" stroke-miterlimit="10" stroke-dasharray="" stroke-dashoffset="0" style="mix-blend-mode: normal"><path d="M377.66936,180.23317c0.06525,1.72716 -5.86943,6.49133 -36.78356,6.49133c-30.91414,0 -39.54531,-4.06675 -39.55566,-6.84709c-0.00893,-2.4004 8.00181,-5.6019 38.91593,-5.6019c30.91414,0 37.36358,4.37778 37.42328,5.95766z" fill="url(#color-1)" fill-rule="nonzero" stroke="none" stroke-width="0"/><text transform="translate(312.80596,44.1287) scale(0.46015,0.46015)" font-size="40" xml:space="preserve" fill="#000000" fill-rule="nonzero" stroke="#000000" stroke-width="1" stroke-linecap="butt" stroke-linejoin="miter" stroke-miterlimit="10" stroke-dasharray="" stroke-dashoffset="0" font-family="Handwriting" font-weight="normal" text-anchor="start" style="mix-blend-mode: normal"></text><text transform="translate(319.62798,211.20765) scale(0.46015,0.46015)" font-size="40" xml:space="preserve" fill="#000000" fill-rule="nonzero" stroke="#000000" stroke-width="1" stroke-linecap="butt" stroke-linejoin="miter" stroke-miterlimit="10" stroke-dasharray="" stroke-dashoffset="0" font-family="Handwriting" font-weight="normal" text-anchor="start" style="mix-blend-mode: normal"></text><g fill-rule="evenodd"><g><path d="M334.2156,179.46883c0,0 -0.19818,-0.64512 -0.038,-0.43281c0.16022,0.21231 2.24883,0.3349 2.24883,0.3349l1.55138,0.24393l1.02605,1.55885h-4.52225l-0.26601,-1.70487" fill="#624b59" stroke="none" stroke-width="1"/><path d="M348.96038,126.08182c0,0 -6.11833,17.18538 -7.56242,23.30671c-1.44405,6.12133 -0.87403,8.17356 -0.87403,9.08696c0,1.10257 -1.03547,2.54313 -1.48209,3.80207c-0.75245,2.12152 -0.85487,2.52852 -1.42493,7.01464c-0.90626,7.13208 -0.01368,7.66439 -0.39916,8.34572c-0.57002,1.00738 -0.17269,1.25557 -0.22802,1.67292c0,0 -2.39411,0.34217 -2.81215,-0.27466c-0.418,-0.61715 -0.73085,-0.55939 -0.57002,-0.94202c0.45603,-0.79844 1.82409,-6.6536 2.39411,-10.45567c0.57006,-3.80207 0.30555,-7.49012 0.30555,-9.5432c0,-2.05312 0.91052,-3.49794 2.0886,-10.56978c0.89441,-5.36945 1.55808,-17.86976 1.55808,-17.86976" fill="#debb9b" stroke="none" stroke-width="1"/><path d="M333.72161,177.83959c0,0 0.45721,-1.53693 0.60923,-2.06924c0.15198,-0.53227 0.52504,-2.18968 1.17654,-2.35271c0.65121,-0.16303 1.7399,-0.30234 1.7399,-0.30234c0,0 -0.21953,2.12733 -0.6877,2.4315c-0.46817,0.30417 -0.44385,0.98854 -0.89989,1.67292c-0.45603,0.68437 -1.87548,0.54384 -1.93808,0.61987" fill="#af7444" stroke="none" stroke-width="1"/><path d="M337.29125,172.44928c0,0 -1.50486,-0.19071 -2.01168,0.06264c-0.50678,0.25339 -0.0231,-0.67828 0.20492,-1.71761c0.22802,-1.03933 0.42957,-2.06558 1.07501,-2.29372c0.64573,-0.2281 1.12941,0.22846 1.12941,0.22846c0,0 -0.3487,3.28921 -0.39766,3.72024" fill="#af7444" stroke="none" stroke-width="1"/><path d="M337.61055,167.05568c0,0 -0.51043,0.17764 -0.71108,-0.25335c-0.20094,-0.43103 -0.15385,-1.39432 0,-2.71225c0.15381,-1.31796 0.30584,-1.90073 0.71108,-2.48382c0.40525,-0.58309 0.60802,-0.96362 0.81082,-0.70995c0.20248,0.25367 0.17723,0.63359 0.27847,0.83648c0.10153,0.20289 -0.70926,2.07837 -0.78529,2.81353c-0.07599,0.73516 -0.30401,2.50936 -0.30401,2.50936" fill="#af7444" stroke="none" stroke-width="1"/><path d="M339.7449,160.36405c0,0 -2.83983,0.08849 -3.13532,-0.82398c-0.2952,-0.91251 -0.42563,-1.78273 -0.22286,-2.49235c0.20281,-0.70962 0.38763,-0.63814 0.89445,-0.91673c0.50678,-0.27864 2.48257,-1.08983 2.63459,-1.1659c0.15198,-0.07603 0.10153,-0.10157 0.12678,0.86173c0.02521,0.9633 0.6819,2.28609 0.45388,2.97046c-0.22802,0.68437 -0.32073,1.33863 -0.75152,1.56677" fill="#af7444" stroke="none" stroke-width="1"/><path d="M336.80615,155.10737c0.1517,-0.75217 0.02919,-0.86595 0.39246,-1.59258c0.20281,-0.40545 0.34294,-2.34146 0.56641,-2.56079c0.22343,-0.21961 0.80806,-0.17123 1.18806,-0.24726c0.38033,-0.07607 0.20281,0.07603 0.48157,0.53227c0.27847,0.45624 0.60806,1.57164 0.83603,2.07837c0.22802,0.50673 -0.17723,0.35495 -0.58277,0.83644c-0.40525,0.48153 -2.88177,0.95355 -2.88177,0.95355" fill="#af7444" stroke="none" stroke-width="1"/><path d="M340.69496,152.37316c-0.05078,-0.07603 -1.79251,-2.93401 -1.61495,-3.4155c0.17723,-0.48149 0.63327,-0.55752 1.19054,-0.40545c0.55723,0.15211 1.25435,0.31663 1.25435,0.31663c0,0 -0.39157,1.24254 -0.41682,1.81922c-0.02521,0.57639 -0.41312,1.6851 -0.41312,1.6851" fill="#af7444" stroke="none" stroke-width="1"/><path d="M338.70741,146.75264c0,0 0.39798,-1.29272 0.57522,-2.1292c0.17723,-0.83644 -0.20277,-1.24189 1.02971,-0.70958c1.23247,0.53227 1.80643,2.78036 1.80643,2.78036l-0.32256,1.14548c0,0 -0.41073,0.05354 -1.24676,0.15515c-0.83603,0.10157 -1.84203,-1.24222 -1.84203,-1.24222" fill="#af7444" stroke="none" stroke-width="1"/><path d="M341.26246,143.88861c-0.00337,-0.00183 -1.67576,-0.91251 -1.77729,-1.26747c-0.10124,-0.35495 -0.17723,-0.65912 0,-1.36875c0.17723,-0.70962 0.64816,-2.73717 0.67885,-3.37109c0.0304,-0.63388 0.1064,-0.38049 0.63842,-0.78594c0.53207,-0.40545 1.67239,-1.09015 1.79888,-1.36875c0.12678,-0.27864 0.05078,-0.58309 0.30401,0.3802c0.25327,0.9633 1.14008,0.88726 0.70926,1.64767c-0.43046,0.76041 -1.41884,3.16848 -1.44405,3.95414c-0.02525,0.78566 -0.38093,2.48139 -0.90809,2.17998" fill="#af7444" stroke="none" stroke-width="1"/><path d="M346.72508,132.49128c0,0 -1.0224,2.86253 -1.42769,4.20602c-0.40525,1.3435 -0.94791,0.90521 -1.20114,0.85438c-0.25355,-0.05078 0.10124,-0.68437 0.05074,-1.16586c-0.05074,-0.48149 -0.60802,-0.83644 -1.19082,-1.36875c-0.58277,-0.53227 -0.02521,-1.06458 0.53202,-1.31825c0.55727,-0.25367 3.16085,-1.1823 3.23688,-1.20755" fill="#af7444" stroke="none" stroke-width="1"/><path d="M339.43956,137.52607c0,0 0.22708,-2.59424 0.22708,-3.17733c0,-0.58309 0.37606,-1.63854 0.64573,-1.53693c0.26967,0.10157 0.00881,0.12653 0.33839,1.039c0.32922,0.91251 1.24128,0.55784 1.36806,1.14065c0.12678,0.58277 -0.38004,0.68433 -0.75639,0.91247c-0.37639,0.22814 -1.72163,1.54606 -1.82287,1.62214" fill="#af7444" stroke="none" stroke-width="1"/><path d="M340.77734,132.02583c-0.00792,-0.33064 0.17723,-0.78566 1.49483,-0.88694c1.31732,-0.10128 0.68405,0.4307 1.45866,0.70962c0.77494,0.27892 0.89749,-0.7352 1.80952,-1.03937c0.91174,-0.30413 0.60773,0.12686 0.68372,0.50706c0.07603,0.3802 -0.05046,0.60834 -0.32926,0.70962c-0.27847,0.10128 -0.63327,0.30417 -1.42826,0.55784c-0.79499,0.25367 -0.72505,0.20256 -1.53587,0.70962c-0.8105,0.50702 -1.16529,0.3802 -1.66813,0.30417c-0.50316,-0.07607 -0.48278,-1.47003 -0.48522,-1.57164" fill="#af7444" stroke="none" stroke-width="1"/><path d="M348.96038,126.08182c0,0 -6.11833,17.18538 -7.56242,23.30671c-1.44405,6.12133 -0.87403,8.17356 -0.87403,9.08696c0,1.10257 -1.03547,2.54313 -1.48209,3.80207c-0.75245,2.12152 -0.85487,2.52852 -1.42493,7.01464c-0.90626,7.13208 -0.01368,7.66439 -0.39916,8.34572c-0.57002,1.00738 -0.17269,1.25557 -0.22802,1.67292c0,0 -2.39411,0.34217 -2.81215,-0.27466c-0.418,-0.61715 -0.73085,-0.55939 -0.57002,-0.94202c0.45603,-0.79844 1.82409,-6.6536 2.39411,-10.45567c0.57006,-3.80207 0.30555,-7.49012 0.30555,-9.5432c0,-2.05312 0.91052,-3.49794 2.0886,-10.56978c0.89441,-5.36945 1.55808,-17.86976 1.55808,-17.86976" fill="none" stroke="#533d37" stroke-width="0.5625"/></g><g><path d="M328.08498,179.46883c0.41804,-0.30417 2.10744,-0.46261 2.28621,-0.42827c0.84517,0.36896 1.71648,0.76438 1.71648,0.76438l0.57002,1.36875h-3.91419c0,-0.68437 -0.65852,-1.70487 -0.65852,-1.70487" fill="#624b59" stroke="none" stroke-width="1"/><path d="M327.37527,139.31302c0,0 0.45603,4.33438 0,7.56615c-0.45603,3.23173 -2.31812,8.74476 -2.31812,8.74476c0,0 -0.60802,1.97709 -0.22802,3.61197c0.38004,1.63488 5.24426,18.70619 5.24426,18.70619c0,0 0.26601,0.76041 0.57006,0.95051c0.30401,0.1901 -2.06307,0.30417 -2.96965,0.72241c0,0 -0.91751,-7.71822 -3.45268,-14.52392c0,0 -1.3681,-3.4979 -2.50814,-4.86665c-1.14004,-1.36875 -0.98806,-1.02658 -1.10205,-1.74895c-0.11403,-0.72241 3.11616,-7.49008 -1.7101,-20.45515" fill="#debb9b" stroke="none" stroke-width="1"/><path d="M326.8106,174.46615c-0.07603,-0.35463 -0.53357,-2.44059 -0.53357,-2.44059c0,0 0.08484,-0.58492 0.3636,-0.96512c0.27847,-0.3802 1.20024,-0.98428 1.20024,-0.98428l0.56913,2.01021c0,0 -0.24929,0.8243 -0.325,1.35657c-0.07571,0.53231 -1.25529,1.11264 -1.27441,1.02321" fill="#af7444" stroke="none" stroke-width="1"/><path d="M325.32775,168.43628c-0.05078,-0.53227 -1.06194,-3.22446 -1.06194,-3.22446c0,0 0.12012,-0.53897 0.65214,-0.51372c0.53202,0.02525 0.98806,0.40545 1.35527,0.98854c0.36725,0.58309 0.79808,1.66379 0.79808,1.66379c0,0 -0.43082,0.82032 -0.66217,0.94685c-0.23167,0.12653 -1.07379,0.219 -1.08138,0.13899" fill="#af7444" stroke="none" stroke-width="1"/><path d="M322.46916,161.35641c0,0 0.47276,-1.09409 1.13123,-1.42379c0.6588,-0.3297 1.38783,-0.07575 1.38783,-0.07575c0,0 0.38548,1.69817 0.33502,1.7742c-0.05074,0.07603 -0.86128,0.63359 -0.91235,0.91251c-0.05074,0.27892 -0.94702,0.61321 -1.02301,0.61321z" fill="#af7444" stroke="none" stroke-width="1"/><path d="M321.40361,159.85699c-0.26906,-0.13201 -0.81809,-1.07736 -0.79256,-1.38149c0.02521,-0.30417 0.53901,-2.52917 0.53901,-2.52917c0,0 0.4238,-0.27161 1.03182,-0.93074c0.60806,-0.65912 1.03852,-0.88726 1.72378,-0.98854c0.68555,-0.10128 1.38511,1.11508 1.15161,1.59689c-0.23378,0.48181 -0.34383,2.05401 -0.34383,2.05401c0,0 -0.70747,-0.12775 -1.13826,-0.07693c-0.43078,0.05078 -1.29207,1.54606 -1.44405,1.90102c-0.15202,0.35495 -0.72753,0.35495 -0.72753,0.35495" fill="#af7444" stroke="none" stroke-width="1"/><path d="M325.72842,153.52002c0,0 -1.90008,-0.15178 -2.15335,-0.58281c-0.25323,-0.43099 0.02525,-1.47031 0,-2.48411c-0.02521,-1.01379 -0.20277,-2.02787 0.22802,-2.02787c0.43078,0 1.34557,0.22814 1.34557,0.22814c0,0 0.70654,0.25335 0.70654,-0.22814c0,-0.48149 0.38004,-2.53493 0.88682,-3.34584c0.50649,-0.81091 0.80806,-0.22599 0.80806,-0.22599c0,0 -0.68157,6.28375 -1.82166,8.66661" fill="#af7444" stroke="none" stroke-width="1"/><path d="M321.40361,153.77337c0.37424,-0.92709 0,-5.90565 0,-5.90565c0,0 0.5755,-0.15211 1.25955,-0.30417c0.68401,-0.15211 -0.05078,1.26743 -0.20281,2.61064c-0.15198,1.34321 0.20281,2.05312 0.20281,2.53493c0,0.48177 -1.25955,1.06425 -1.25955,1.06425" fill="#af7444" stroke="none" stroke-width="1"/><path d="M320.72982,144.14172c0,0 0.21036,-0.45624 0.20886,-1.19139c-0.00154,-0.7352 0.07753,-0.91251 0.48278,-0.70962c0.40525,0.20289 0.43078,0.07603 0.43078,0.07603c0,0 2.1281,-1.47003 2.63491,-1.49556c0.50645,-0.02557 0.65848,0.02553 0.92177,0.91247c0.26325,0.88694 0.42076,0.3297 0.64877,0.63388c0.22802,0.30417 -0.0505,0.63359 -0.38004,1.44478c-0.32926,0.81123 -0.73451,3.06692 -0.82783,3.47237c-0.09333,0.40545 -0.59068,0.02557 -1.19874,-0.10128c-0.60802,-0.12682 -2.44579,-0.48364 -2.44579,-0.48364z" fill="#af7444" stroke="none" stroke-width="1"/><path d="M319.54688,138.02035l1.39176,0.59555c0,0 -0.42896,0.2281 -0.35296,0.91247c0.07599,0.68437 0.95948,0.98854 0.35296,1.59689l-0.60651,0.60834c0,0 -1.1905,-3.19345 -0.78525,-3.71325" fill="#af7444" stroke="none" stroke-width="1"/><path d="M322.18164,141.45468c-0.04928,-0.05781 -0.91207,-0.79844 -0.76004,-1.57773c0.15198,-0.77957 0.56547,-0.88056 0.8655,-1.51444c0.29979,-0.63388 0.44024,-1.16586 1.1808,-1.44478c0.7406,-0.27892 2.26068,1.85023 2.26068,1.85023c0,0 0.22802,0.58309 0,0.9633c-0.22802,0.3802 -1.48907,0.30417 -2.18862,0.83644c-0.69952,0.53231 -1.17199,1.10688 -1.35832,0.88698" fill="#af7444" stroke="none" stroke-width="1"/><path d="M326.89386,140.08593c0.83542,-0.34919 0.45603,2.38283 0.45603,2.38283c0,0 -0.22802,0.55752 -0.45603,1.41925c-0.22802,0.86169 -0.60806,0 -0.60806,0c0,0 0.20281,-1.47003 0.22802,-1.92631c0.02525,-0.45624 -0.53202,-0.50702 -0.58277,-1.14548c-0.0505,-0.63814 0.96281,-0.73029 0.96281,-0.73029" fill="#af7444" stroke="none" stroke-width="1"/><path d="M327.37527,139.31302c0,0 0.45603,4.33438 0,7.56615c-0.45603,3.23173 -2.31812,8.74476 -2.31812,8.74476c0,0 -0.60802,1.97709 -0.22802,3.61197c0.38004,1.63488 5.24426,18.70619 5.24426,18.70619c0,0 0.26601,0.76041 0.57006,0.95051c0.30401,0.1901 -2.06307,0.30417 -2.96965,0.72241c0,0 -0.91751,-7.71822 -3.45268,-14.52392c0,0 -1.3681,-3.4979 -2.50814,-4.86665c-1.14004,-1.36875 -0.98806,-1.02658 -1.10205,-1.74895c-0.11403,-0.72241 3.11616,-7.49008 -1.7101,-20.45515" fill="none" stroke="#533d37" stroke-width="0.5625"/></g><g><path d="M317.42117,132.74792c0.83364,9.89815 -4.25863,13.09188 -4.25863,13.09188c4.50946,-2.50936 3.52717,-15.9687 3.52717,-15.9687" fill="#af7444" stroke="none" stroke-width="1"/><path d="M317.42117,132.74792c0.83364,9.89815 -4.25863,13.09188 -4.25863,13.09188c4.50946,-2.50936 3.52717,-15.9687 3.52717,-15.9687" fill="none" stroke="#533d37" stroke-width="0.5625"/></g><g fill="none" stroke="#533d37" stroke-width="0.5625"><path d="M313.29927,145.77331c-1.67211,0.43099 -1.77335,-1.36875 -1.77335,-1.36875"/><path d="M313.16271,145.83984c-0.81204,0.68312 -2.17888,-0.40549 -2.25491,-0.4307"/><path d="M313.03594,145.83984c-0.48128,1.16586 -2.0269,0.53227 -2.12814,0.53227"/><path d="M313.21418,145.83984c-0.27876,1.40674 -1.21603,1.07732 -1.29207,1.12782"/></g><g><g><g><path d="M367.63764,87.90326c-1.34281,1.08922 -2.47347,0.79479 -2.47347,0.79479c-0.78525,1.5716 -3.69255,8.62736 -6.70747,14.4573c-3.01463,5.82995 -7.3344,11.17808 -7.3344,11.17808c-2.05211,2.50936 -1.60699,4.00342 -1.60699,4.00342c0.17082,0.96967 0.48611,2.95435 0.79012,5.19757c0.39827,2.93888 -3.83029,5.3144 -5.95993,7.09741c-1.9682,1.64799 -10.62779,9.04223 -17.35413,9.55566c-4.87911,0.37233 -10.03248,-4.23943 -10.27966,-9.25819c-0.24718,-5.01872 1.28537,-7.47335 3.76217,-11.02602c2.14726,-3.07966 5.56746,-3.726 8.39845,-5.96922c1.8083,-1.43264 3.45816,-3.28864 3.95219,-3.78291c0.49403,-0.49427 2.83131,-3.23177 3.4962,-3.9353c0.66517,-0.70325 2.49231,-0.87176 3.10337,-1.03113c1.438,-0.37566 3.29371,-1.20722 3.29371,-1.20722c9.08217,-3.61197 14.84266,-13.97399 16.66919,-16.68108c1.69184,-2.48622 4.71312,-8.13215 7.36687,-8.71496c3.30618,-0.92526 4.28145,0.87448 4.28145,0.87448c2.95171,6.53957 5.56109,7.94635 5.89031,9.53013c0.29309,1.40829 0.32958,1.4956 0.15202,1.59689c-0.65852,0.30417 -1.82409,0.27892 -2.66012,0c-0.83607,-0.27892 -1.16529,-1.47003 -1.16529,-1.47003c-2.69816,0.16485 -4.52225,-0.51952 -5.67175,-1.24526c-1.14978,-0.72546 -1.62465,-1.49223 -1.62465,-1.49223" fill="#fadab9" stroke="none" stroke-width="1"/><path d="M322.18711,139.05131c0,0 -0.8923,-1.49983 -0.81626,-1.49983c0.07599,0 1.26682,-1.11508 1.16558,-2.40779c-0.10153,-1.29267 0.58281,-1.34378 1.0893,-2.07866c0.50678,-0.73487 1.41852,-2.66146 1.39331,-0.22814c-0.02525,2.43333 0.00061,6.18494 0.00061,6.18494z" fill="#af7444" stroke="none" stroke-width="1"/><path d="M327.40064,135.85344c0,0 -0.68401,-3.75157 -0.60802,-3.77682c0.07599,-0.02525 2.96413,0.40578 2.96413,0.40578l-0.53202,3.37105z" fill="#af7444" stroke="none" stroke-width="1"/><path d="M327.85668,137.09537c0,0 1.82409,-0.20256 2.00132,-1.24193c0.17756,-1.03933 0.22802,-2.50903 0.73483,-2.30647c0.50678,0.20256 1.74806,0.68437 1.74806,0.68437c0,0 1.3681,-0.6847 1.77335,-1.09015c0.40553,-0.40545 0.38,1.39432 0.45603,2.53493c0.07599,1.14061 -2.58413,2.61096 -4.50946,3.34584c-0.91207,0.30417 -2.62611,-1.84934 -2.20413,-1.92659" fill="#af7444" stroke="none" stroke-width="1"/><path d="M325.55118,139.80762c-0.09913,-0.02099 0,-6.05808 0,-6.05808h0.76004c0,0 0.81233,4.60782 1.96061,5.3019c1.14796,0.69383 -1.88462,0.9335 -2.72065,0.75618" fill="#af7444" stroke="none" stroke-width="1"/><path d="M321.67498,134.07924c-0.06507,0.04656 0,-2.86431 0,-2.86431c0,0 0.22802,-0.86201 -0.17723,-1.11536c-0.40557,-0.25339 -1.26686,-0.27864 -0.96285,-0.96301c0.30405,-0.68437 0.25355,-0.86201 1.03884,-1.31825c0.78529,-0.45624 2.76137,-2.1544 2.76137,-2.1544c0,0 0.30401,-0.12686 0.83603,1.36875c0.53202,1.49556 1.28021,1.52114 0.33596,2.56014c-0.94397,1.03904 -3.12285,3.97971 -3.83211,4.48645" fill="#af7444" stroke="none" stroke-width="1"/><path d="M320.97892,134.85126c-0.20281,0.07603 -2.22662,1.10322 -2.54979,0.77957c-2.03692,-2.22922 -1.6797,-6.58548 -1.6797,-6.58548c0,0 0.63205,-0.60712 1.56932,-1.64613c0.93727,-1.03904 1.03884,-0.91251 1.03884,-0.91251v3.64997c0,0 0.45603,0.30417 1.15222,0.55756c0.69651,0.25335 0.4691,0.70962 0.4691,0.70962c0,0 0.20277,3.37137 0,3.4474" fill="#af7444" stroke="none" stroke-width="1"/><path d="M320.00288,128.12248c-0.02521,-0.07603 0,-3.62443 0,-3.62443c0,0 -0.22798,-0.58281 0.32926,-1.36875c0.55756,-0.78598 2.22967,-3.34584 2.22967,-3.34584c0,0 0.38365,-0.73 0.10124,3.37109c-0.28245,4.10105 -0.10124,2.7375 -0.10124,2.7375c0,0 -0.2788,0.65912 -1.59607,1.64767c-1.3176,0.9885 -0.96285,0.58277 -0.96285,0.58277" fill="#af7444" stroke="none" stroke-width="1"/><path d="M323.52445,124.29516v-5.06954c0,0 -0.22404,-0.3802 2.43397,-1.69817c2.6583,-1.31792 3.97561,-1.92655 3.97561,-1.41953v5.06954c0,0 0.02553,0.27892 -1.11455,0.83644c-1.14004,0.55756 -4.535,2.45857 -4.535,2.45857c0,0 -0.76004,0.60834 -0.76004,-0.17731" fill="#af7444" stroke="none" stroke-width="1"/><path d="M326.10857,127.64099c-0.11553,-0.10189 -0.8573,-1.36907 -0.15016,-2.25601c0.70743,-0.88694 1.83257,-2.05312 1.83257,-2.05312c0,0 0.36969,-0.70991 1.12973,0.83644c0.76004,1.54639 1.79888,3.47269 1.79888,3.47269c0,0 0.65848,0.68437 0,1.44478c-0.6588,0.76041 -1.29207,2.00201 -1.29207,2.00201c0,0 -0.07632,0.60863 -1.3176,0.38053c-1.24132,-0.22814 -2.15152,-0.50678 -2.15152,-0.50678c0,0 -0.35268,0 0,-0.50702c0.35296,-0.50706 0.82812,-1.59689 0.82812,-1.59689c0,0 -0.04469,-0.65912 -0.67796,-1.21664" fill="#af7444" stroke="none" stroke-width="1"/><path d="M329.45275,122.34332l0.88682,-0.60834l0.25327,-2.25569c0,0 -0.0386,-0.43099 0.58886,-0.50702c0.62718,-0.07607 1.76726,-0.27892 1.76726,-0.27892c0,0 0.53202,-0.07575 0.78525,0.78594c0.25355,0.86173 0.8379,2.63593 0.8379,2.63593c0,0 0.55541,0.45652 -0.38187,1.16614c-0.93727,0.70962 -1.59607,1.19111 -1.59607,1.19111c0,0 -0.51895,0.53231 -0.50012,0.83648c0.01888,0.30417 -0.1584,0.43099 -0.51315,0.58309c-0.35479,0.15207 -0.78529,0.55752 -1.01331,0c-0.22802,-0.55756 -1.29207,-3.01642 -1.29207,-3.01642c0,0 -0.14654,-0.31026 0.17723,-0.53231" fill="#af7444" stroke="none" stroke-width="1"/><path d="M331.01217,117.67955c0.00641,-0.12016 -0.11521,-1.74956 -0.11521,-1.74956c0,0 -0.00032,-0.45595 0.40525,-0.50645c0.40525,-0.0505 0.86128,-0.07603 0.91203,-0.3802c0.05078,-0.30417 0.48128,-2.88956 0.48128,-2.88956c0,0 -0.02525,-0.27892 0.55756,-0.3802c0.58248,-0.10128 1.7481,-0.40545 1.7481,-0.40545c0,0 0.6588,-0.17736 0.53202,0.6083c-0.12678,0.7857 0.01612,4.18232 0.01612,4.18232c0,0 0.11066,0.53198 -1.08017,1.08983c-1.19082,0.5578 -3.51901,1.5716 -3.45698,0.43099" fill="#af7444" stroke="none" stroke-width="1"/><path d="M327.68639,114.77481c1.55597,-0.89729 4.30243,-3.74455 4.30243,-3.74455c0,0 -0.07871,1.7319 -0.10396,2.51788c-0.02525,0.78594 -0.38004,0.96297 -0.38004,0.96297c0,0 -2.02686,0.73516 -2.76137,1.09015c-0.73479,0.35495 -1.06981,-0.81915 -1.05707,-0.82645" fill="#af7444" stroke="none" stroke-width="1"/><path d="M326.53936,115.45415c-0.12678,-0.10404 0.07997,1.36359 -0.58094,1.66772c-0.66063,0.30417 -3.19158,1.74899 -3.19158,1.74899c0,0 -0.83453,-0.02436 -1.11301,-0.3267c-0.27876,-0.30234 4.04949,-2.99754 4.88553,-3.09001" fill="#af7444" stroke="none" stroke-width="1"/><path d="M320.62489,119.89517c0,0 0.67431,0.64845 0.44414,0.92737c-0.23013,0.27892 -2.10468,2.8896 -2.35823,4.15703c-0.25327,1.26747 -0.40525,1.66139 -0.78529,1.5023c-0.38,-0.15876 -0.78253,-0.30478 -0.78253,-0.30478c0,0 0.73329,-3.21565 3.48191,-6.28192" fill="#af7444" stroke="none" stroke-width="1"/><path d="M331.01217,131.7977c0,0 -0.72355,-0.68437 -0.54599,-1.06458c0.17723,-0.3802 1.19082,-1.90102 1.19082,-1.90102c0,0 0.30401,-0.41763 0.15198,-0.62722c-0.15198,-0.20926 -0.55756,-0.65028 -0.25355,-0.86075c0.30405,-0.2102 0.9376,-0.82885 0.9376,-0.82885c0,0 0.40525,-0.14175 0.45603,-0.44592c0.05046,-0.30417 -0.25355,-0.81091 0.63327,-1.24189c0.88682,-0.43103 1.29207,-0.65917 1.29207,-0.65917c0,0 0.15198,0.12686 0.50678,0.81123c0.35451,0.68437 0.48128,0.93776 0.30401,1.08983c-0.17752,0.15207 -0.32954,1.31825 -0.02553,2.48411c0.30401,1.16586 0.22802,0.93776 0.22802,0.93776c0,0 0.05078,0.4307 -0.65848,1.01379c-0.70958,0.58305 -2.38169,2.43333 -2.38169,2.43333c0,0 -0.47576,0.66944 -0.85852,0.14476c-0.38276,-0.52496 -0.97681,-1.28541 -0.97681,-1.28541" fill="#af7444" stroke="none" stroke-width="1"/><path d="M335.55192,137.01309l-0.55086,-4.80978c0,0 -0.30401,-0.81151 0.40525,-1.11536c0.70926,-0.30389 2.71091,-0.91219 2.71091,-0.91219c0,0 0.83603,-0.27892 0.60802,1.19139c-0.22802,1.47003 -0.98806,1.59656 -1.06405,2.38254c-0.07599,0.78566 -0.12345,2.03242 -0.12345,2.03242" fill="#af7444" stroke="none" stroke-width="1"/><path d="M334.73549,118.87099c-0.0453,-0.06268 -0.41771,-0.58309 0,-0.88726c0.41771,-0.30417 1.203,-0.70995 1.27899,-1.09015c0.07599,-0.3802 -0.10124,-1.69813 0.27876,-1.69813c0.38004,0 2.88818,5.37367 3.4962,6.15933c0.60802,0.78566 0.8105,0.93805 0.50649,1.26747c-0.30401,0.32942 -2.45736,3.03895 -2.45736,3.03895c0,0 -0.17756,0.07327 -0.43078,0c-0.25327,-0.07331 -1.50762,-1.23251 -1.85571,-1.69208c-0.34842,-0.45993 -0.37363,-0.5101 -0.19639,-0.76378c0.17756,-0.25367 1.44498,-1.47003 -0.62019,-4.33434" fill="#af7444" stroke="none" stroke-width="1"/><path d="M337.48747,113.64934c0,0 -0.32556,-0.48177 0,-0.65912c0.3256,-0.17731 1.66845,-1.52081 1.66845,-1.52081c0,0 -0.07599,-2.76303 0.2788,-2.8896c0.35447,-0.12653 1.74806,1.29272 1.74806,1.29272c0,0 1.82381,0.10161 1.92533,0.10161c0.10124,0 0.20281,0.12682 0.25327,0.60834c0.05078,0.48149 0.45603,2.76668 0.45603,2.76668c0,0 0.32954,0.45197 -0.73451,0.93378c-1.06405,0.48181 -3.80021,2.12915 -3.80021,2.12915c0,0 -0.38033,0.30417 -0.73479,-0.22814c-0.35479,-0.53227 -1.06044,-2.53461 -1.06044,-2.53461" fill="#af7444" stroke="none" stroke-width="1"/><path d="M335.6353,106.98109c1.36867,-0.28075 2.88721,0.50889 3.12923,0.99037c0.24198,0.48149 -0.06475,0.70991 -0.11525,1.97709c-0.05074,1.26714 -0.12678,1.21664 -0.12678,1.21664c0,0 -0.35475,0.30417 -1.39331,1.21668c-1.0388,0.91247 -0.93756,0 -0.93756,0c0,0 -0.20248,-1.34321 -0.50649,-2.05312c-0.30401,-0.70995 -3.11616,0.3297 -3.27123,0.25489" fill="#af7444" stroke="none" stroke-width="1"/><path d="M339.25725,117.37538c0.09211,-0.05537 2.35612,-1.3435 2.35612,-1.3435c0,0 0.40525,-0.3802 0.63327,0c0.22802,0.3802 0.45603,1.3435 1.3681,1.52081c0.91203,0.17736 1.39359,0.17675 1.57082,0.64605c0.17723,0.46935 0.20277,2.649 0.20277,2.649c0,0 0.10124,0.4307 -0.48153,0.76041c-0.58252,0.3297 -1.04128,0.82641 -1.04128,0.82641c0,0 -0.50406,0.18767 -0.96009,-0.42068c-0.45599,-0.6083 -0.40525,-0.93772 -1.59607,-1.06458c-1.19082,-0.12682 -0.6588,0 -0.98806,-0.27892c-0.32922,-0.27892 -1.11479,-2.43361 -1.21603,-2.71225c-0.10124,-0.2786 -0.31436,-0.30263 0.15198,-0.58277" fill="#af7444" stroke="none" stroke-width="1"/><path d="M343.13345,115.44879c0.07177,-0.39421 0.48128,-0.68405 0.88682,-0.96297c0.40525,-0.27892 0.8105,-0.40545 0.68405,-0.98854c-0.12678,-0.58309 -0.53202,-0.9128 -0.20277,-1.09015c0.32922,-0.17731 2.28008,0.73487 2.66012,1.06458c0.38,0.32974 0.25323,0.45141 0.38,1.30307c0.12649,0.85166 0.55727,0.79235 0.76004,1.088c0.20248,0.29597 0.07603,0.06783 -0.22802,0.52407c-0.30401,0.45628 -0.38033,1.21668 -0.86157,1.24193c-0.48124,0.02525 -0.97438,-0.30389 -1.81711,-0.17736c-0.84273,0.12653 -0.6655,0.12653 -1.22273,-0.43099c-0.55756,-0.55756 -1.19082,-0.73516 -1.03884,-1.57164" fill="#af7444" stroke="none" stroke-width="1"/><path d="M342.9224,103.89599c1.09202,1.16614 1.90861,1.18591 2.08584,1.74376c0.17723,0.55784 -0.15202,0.53231 -0.38004,1.41925c-0.22802,0.88694 -0.07599,0.70991 -0.63327,0.86201c-0.55723,0.15207 -1.29207,0.68437 -1.81374,1.03904c-0.52139,0.35463 -0.69436,-0.10132 -0.87192,-0.38812c-0.17723,-0.28716 -0.83603,-1.94364 -1.49455,-2.2621c-0.6588,-0.31846 -1.0388,-0.11253 -2.00165,-0.01124c-0.96248,0.10128 -0.3256,-0.50673 -0.3256,-0.50673" fill="#af7444" stroke="none" stroke-width="1"/><path d="M348.14624,100.82919c0,0 0.5101,2.32656 0.73812,3.28986c0.22802,0.9633 0.25327,0.86169 -0.25323,0.83644c-0.50682,-0.02525 -1.3176,0.2026 -2.07764,0.4307c-0.75976,0.22814 -0.79804,-0.40545 -0.79804,-0.40545l-0.92453,-2.04642" fill="#af7444" stroke="none" stroke-width="1"/><path d="M344.32415,110.10066c-0.04745,-0.08943 -0.83607,-1.08069 0,-1.52873c0.83603,-0.44836 1.52004,-0.98063 1.79884,-1.51294c0.27847,-0.53227 0.25327,-0.55752 0.65852,0.27892c0.40553,0.83644 1.11479,2.00262 1.14004,2.40808c0.02553,0.40545 -0.05046,0.78566 -0.73451,1.08983c-0.68401,0.30417 -2.10285,0.98887 -2.53367,0.88726c-0.43046,-0.10161 -0.53202,0.0505 -0.48124,-0.58309c0.05078,-0.63359 0.39644,-0.57668 0.15202,-1.03933" fill="#af7444" stroke="none" stroke-width="1"/><path d="M350.40443,105.43568c0.58431,0.08062 0.2788,0.02647 0.70926,0.86295c0.43082,0.83644 2.28012,1.97705 2.53367,2.61096c0.25327,0.63388 -0.48157,0.6588 -1.39359,0.94531c-0.91207,0.28684 -1.59607,1.0062 -2.68537,1.71611c-1.0893,0.70995 -0.83603,-0.70991 -0.81082,-1.49556c0.02553,-0.78566 -0.22802,-1.97709 -0.83177,-2.94038c-0.60408,-0.9633 -0.78951,-1.11508 0,-1.57131c0.78923,-0.45624 2.47863,-0.12807 2.47863,-0.12807" fill="#af7444" stroke="none" stroke-width="1"/><path d="M350.47037,115.22236c-0.9525,-0.02704 -1.78853,-0.55934 -1.78853,-0.55934c0,0 -0.07599,-0.93772 -0.10153,-1.31399c-0.02525,-0.37627 0.20277,-0.40943 1.46958,-0.81395c1.26653,-0.40456 3.54272,-1.5047 3.54272,-1.5047" fill="#af7444" stroke="none" stroke-width="1"/><path d="M354.96988,109.0224c0.02521,-0.07603 -0.00516,-0.94929 -0.66396,-1.38028c-0.65852,-0.43103 -2.00136,-0.65884 -1.69736,-1.29272c0.30405,-0.63388 2.05211,-2.78799 2.76141,-3.72604c0.70954,-0.93805 0.68401,-1.24222 1.06405,-0.88722c0.38,0.35495 1.25768,1.96369 1.22427,2.90811" fill="#af7444" stroke="none" stroke-width="1"/><path d="M350.40443,104.57488c0,0 -0.76004,0.53259 -0.86128,-0.35467c-0.10153,-0.88726 -0.70926,-2.51878 -0.22802,-2.6283c0.48128,-0.1092 1.72257,-0.4894 2.1786,-0.92039c0.45603,-0.43103 1.34285,-1.79977 1.59607,0c0.25355,1.79973 0.37213,1.94027 0.50284,2.26267c0.13075,0.32272 0.05472,1.0576 -1.28809,1.26048c-1.34285,0.20285 -1.32308,0.24393 -1.90012,0.3802" fill="#af7444" stroke="none" stroke-width="1"/><path d="M354.1794,101.59204c0,0 -0.52594,-1.85843 -0.54173,-2.11182c-0.01551,-0.25335 -0.04104,-0.15207 0.06049,-0.53227c0.10124,-0.38024 0.88649,-0.73487 1.01327,-1.85027c0.12678,-1.11536 0.04076,-1.31792 0.40042,-1.52081c0.35962,-0.20289 1.85417,-1.06458 2.36099,-1.29272c0.50678,-0.2281 0.93756,-0.37988 1.49483,2.48415c0.55723,2.86403 0.27876,2.28094 0,2.78795c-0.2788,0.50706 -0.73483,1.95216 -1.14008,1.77453c-0.40525,-0.17764 -1.0388,-0.98887 -1.72285,-0.70995c-0.68401,0.27892 -1.36806,1.51294 -1.64653,1.24222z" fill="#af7444" stroke="none" stroke-width="1"/><path d="M352.46767,96.80556c0,0 0.72355,1.38214 0.47032,1.63549c-0.25355,0.25339 -2.71091,1.57135 -3.21768,1.87548c-0.50649,0.30417 -0.72083,0.17277 -0.58829,-0.28103" fill="#af7444" stroke="none" stroke-width="1"/><path d="M361.37406,97.14598c0,0 -1.01298,-0.09913 -1.11451,-0.88483c-0.10124,-0.78566 -0.91203,-2.83878 0,-3.1177c0.91207,-0.27892 2.92463,-1.1251 3.63422,-1.62027" fill="#af7444" stroke="none" stroke-width="1"/><path d="M357.8277,89.7243c-0.11979,0.511 0.15198,1.3152 -0.16875,2.45581c-0.32041,1.14061 -2.61787,1.69845 -2.74951,1.69845" fill="#af7444" stroke="none" stroke-width="1"/><path d="M358.58761,93.2447c-0.2298,-0.06568 -0.02521,-0.48149 0,-1.16586c0.02525,-0.68437 -0.05074,-1.97709 0.45603,-2.50936c0.50682,-0.53231 2.02686,-1.87581 2.71091,-2.33204c0.68405,-0.45628 0.65852,-0.55723 0.98806,-0.4307c0.32926,0.12653 0.68372,1.49528 0.88649,2.07837c0.20281,0.58309 0.43082,0.563 0.17756,0.8392c-0.25355,0.27616 -3.06172,1.92383 -3.9759,2.63345c-0.91389,0.70962 -0.88836,0.98822 -1.24315,0.88694" fill="#af7444" stroke="none" stroke-width="1"/><path d="M361.86217,83.45501c0.03617,-0.05383 0.37363,-0.22233 0.80413,0.10705c0.43078,0.32942 -0.22802,0.83648 -0.4305,1.67292c-0.20277,0.83648 -0.43078,0.88726 -1.26682,1.36875c-0.83603,0.48149 -1.82409,1.1838 -1.90041,1.1838" fill="#af7444" stroke="none" stroke-width="1"/><path d="M363.14786,85.20985c0.0371,-0.06661 0.70926,-0.86169 0.58281,-1.97705c-0.12678,-1.1154 -0.40829,-1.62242 0.16323,-2.15473c0.57128,-0.53231 0.48981,-0.76012 0.82207,0.17764c0.33198,0.93772 0.73723,2.30647 0.73723,2.30647c0,0 0.32958,0.58309 -0.43046,0.9633c-0.76004,0.3802 -2.34215,1.52451 -1.87487,0.68437" fill="#af7444" stroke="none" stroke-width="1"/><path d="M364.86122,89.34877c-0.07327,-0.0505 -1.05768,-1.12206 -0.9674,-2.59241c0.09,-1.47035 -0.06203,-1.19748 0.24202,-1.24526c0.30401,-0.04774 0.95278,0.30722 1.38844,0.58581c0.43565,0.27864 -0.07116,0.525 0.46086,1.14978c0.53202,0.62474 0.99565,1.09831 0.99565,1.09831c0,0 -1.45651,0.31696 -1.81252,0.35284c-0.15535,0.01583 -0.30705,0.65092 -0.30705,0.65092" fill="#af7444" stroke="none" stroke-width="1"/><path d="M367.15067,83.0632c0.58281,0.54018 0.96281,2.01996 1.21607,2.70433c0.25323,0.68437 0.2788,2.01996 0.2788,2.01996c0,0 -0.84366,0.21198 -1.49487,-0.52439c-0.65121,-0.73637 -0.91203,-2.78828 -0.93727,-3.42674c-0.02553,-0.63842 0.60197,-1.08402 0.93727,-0.77315" fill="#af7444" stroke="none" stroke-width="1"/><path d="M369.68419,85.5758c0,0 -1.11479,-0.44195 -1.0388,-1.10107c0.07599,-0.65912 0.48157,-0.05082 1.3176,0c0.83603,0.05078 0.96252,0.17764 0.65848,0.58309c-0.30401,0.40545 -0.5451,0.71904 -0.93727,0.51798" fill="#af7444" stroke="none" stroke-width="1"/><path d="M369.55742,87.51636c-0.57185,-0.69079 -0.96248,-1.4445 -0.25323,-1.24193c0.70926,0.2026 1.00994,-0.15146 1.4678,0.48181c0.45753,0.63327 1.06892,0.86169 -0.28822,0.88694c-1.35714,0.02525 -0.63176,0.22903 -0.92635,-0.12682" fill="#af7444" stroke="none" stroke-width="1"/><path d="M371.3135,88.75825c0,0 -0.36271,-0.76041 0.24535,-0.83644c0.60802,-0.07603 0.91203,-0.3802 1.06405,0.12682c0.15202,0.50706 0.40586,0.53381 0.10153,0.81123c-0.30429,0.27738 -1.41093,-0.10161 -1.41093,-0.10161" fill="#af7444" stroke="none" stroke-width="1"/><path d="M373.66163,86.75623c-0.22802,-0.17703 -0.58281,-0.65945 -1.14341,-1.52114c-0.56089,-0.86169 -0.57944,-0.91247 -1.23491,-1.06519c-0.65543,-0.15267 -0.86461,-0.22753 0.17423,-0.22753c1.0388,0 1.62128,0.68437 2.20409,1.44632c0.58281,0.76195 0.70926,1.18989 0.60806,1.36753c-0.10124,0.17764 -0.60806,0 -0.60806,0" fill="#af7444" stroke="none" stroke-width="1"/><path d="M372.51813,87.42782c-0.61139,-0.01246 -1.3392,-1.25496 -1.54196,-1.78938c-0.20248,-0.53442 0.12678,-0.1752 0.30705,-0.63148c0.1806,-0.45624 0.17419,-0.3802 0.63022,0.22814c0.45603,0.60834 0.91207,1.52085 1.06405,1.87581c0.15202,0.35495 -0.11066,0.32394 -0.45936,0.31692" fill="#af7444" stroke="none" stroke-width="1"/><path d="M371.3135,81.83848c0,0 -1.30542,-0.01307 -1.60671,-1.22306c-0.30129,-1.21027 0.25627,-0.70321 0.20549,-1.00738c-0.05074,-0.30417 0.24048,-0.40545 0.41166,0.22814c0.17086,0.63355 0.58248,1.29239 0.95948,1.47003c0.37696,0.1776 0.418,0.40545 0.03008,0.53227" fill="#af7444" stroke="none" stroke-width="1"/><path d="M368.13874,81.83848c-0.22802,0.32942 -0.50678,0.02557 -0.40525,-0.48149c0.10124,-0.50706 0.25327,-0.78566 0.98806,-1.03933c0.73451,-0.25367 0.70926,0.63388 0.58248,0.9633c-0.12645,0.32942 -0.809,0.04287 -1.16529,0.55752" fill="#af7444" stroke="none" stroke-width="1"/><path d="M366.66927,80.27281c0.83149,-0.4523 0.48128,0.65304 0.31132,1.33741c-0.16993,0.68437 -0.3621,0.43099 -0.76796,0.63388c-0.40614,0.20289 -0.63266,-0.78598 -0.6886,-1.11995c-0.05561,-0.33429 1.14524,-0.85134 1.14524,-0.85134" fill="#af7444" stroke="none" stroke-width="1"/><path d="M367.20068,79.68407c-0.33957,0.15726 -0.34627,-0.14874 0.51136,-0.31509c0.85734,-0.16639 1.89586,-0.101 0.93334,0.15755c-0.96281,0.25883 -1.11605,0.00548 -1.4447,0.15755" fill="#af7444" stroke="none" stroke-width="1"/><path d="M371.83754,82.98266c-0.53081,-0.19221 -0.70593,-0.73881 -0.25172,-0.53592c0.45449,0.20285 1.57359,1.01436 0.25172,0.53592" fill="#af7444" stroke="none" stroke-width="1"/><path d="M373.25638,88.68222c-0.18117,-0.09065 -0.02521,-0.49094 0.12678,-0.86656c0.15202,-0.37533 0.75976,-1.08496 0.4305,-0.22327c-0.32926,0.86169 -0.30401,1.21636 -0.55727,1.08983" fill="#af7444" stroke="none" stroke-width="1"/><path d="M349.74222,116.63247c-0.17723,0.82402 -0.23467,1.56616 -0.23467,1.56616c0,0 0.82081,4.57559 0.80197,5.33567c-0.01916,0.75951 -2.08373,-2.10358 -2.23571,-2.30647c-0.15202,-0.20289 -0.40557,0.05078 -0.96285,0.30417c-0.55723,0.25335 -0.70926,-0.17736 -0.70926,-0.17736c0,0 0,-0.70962 -0.10153,-1.45935c-0.10124,-0.7501 0.63936,-1.02443 0.63936,-1.02443l2.80269,-2.23839" fill="#af7444" stroke="none" stroke-width="1"/><path d="M350.12581,124.69704c0,0 -0.07965,0.51315 -0.40919,1.15129c-0.32926,0.63842 -1.61767,1.83079 -1.61767,1.83079v-1.76174c0,-0.55756 0.30129,-0.7352 0.30129,-0.7352l1.72557,-0.48514" fill="#af7444" stroke="none" stroke-width="1"/><path d="M347.54166,124.39644c-0.30401,0.65912 -0.15198,2.81353 -0.14074,3.28255c0.01124,0.46902 -0.46728,0.77291 -1.46719,0.6208c-0.99991,-0.15207 -2.29348,0 -2.82307,0.17764c-0.52963,0.17764 -0.58524,0.10128 -0.58524,-1.1333c0,-1.2343 0.10153,-2.06043 0.22802,-2.3141c0.12678,-0.25367 0.32954,-0.32942 1.11207,-0.63359c0.78285,-0.30417 0.33198,-0.68437 0.40801,-1.06486c0.07599,-0.38053 0.32954,-0.12653 1.48205,-0.68409c1.15254,-0.55752 1.10209,-0.45624 1.78609,0c0.68405,0.45624 0.88682,0.83648 0.85856,1.21668c-0.02829,0.3802 -0.30129,0.30413 -0.30129,0.30413l-0.55727,0.22814" fill="#af7444" stroke="none" stroke-width="1"/><path d="M340.43562,123.7881c0.48705,-0.62048 0.24048,-1.97737 0.7725,-1.7237c0.53202,0.25367 1.06405,-0.07603 1.31732,0.50706c0.25355,0.58309 0.18239,0.70962 0.58524,0.93772c0.40281,0.22814 0.96037,0.26037 0.35236,0.45993c-0.60806,0.19919 -1.44442,0.83311 -2.0269,0.47812c-0.58281,-0.35495 -1.41823,-0.12682 -1.00052,-0.65912" fill="#af7444" stroke="none" stroke-width="1"/><path d="M337.15452,128.549c0,0 1.39331,-3.39236 1.92533,-3.59492c0.53202,-0.20256 1.52008,-0.17703 1.79888,-0.12653c0.27876,0.0505 0.68401,-0.20865 0.50678,0.58005c-0.17752,0.7887 -0.00028,3.39966 0.27847,3.83037c0.2788,0.43066 0.35479,0.64208 -0.27847,0.91645c-0.63355,0.27466 -1.46958,0.70504 -1.6976,0.93346c-0.22802,0.22842 -0.32926,-1.69817 -1.34256,-1.41925c-1.01355,0.27892 -2.10285,-0.36376 -1.19082,-1.11962" fill="#af7444" stroke="none" stroke-width="1"/><path d="M341.22191,133.15934c0,-0.10128 -0.90078,-1.5388 -0.24198,-1.79247c0.6588,-0.25367 1.39359,-0.3297 1.6976,-0.58305c0.30405,-0.25339 0.00487,-0.33096 0.43293,-0.91345c0.42835,-0.58216 -0.41284,-0.83551 0.75517,-0.68344c1.16805,0.15207 1.92046,0.28623 1.98403,0.28623c0.06353,0 -4.62775,3.68618 -4.62775,3.68618" fill="#af7444" stroke="none" stroke-width="1"/><path d="M338.34522,134.81411c0,0 0.17723,-1.87577 0.86128,-2.43333c0.68401,-0.55752 0.88982,-0.17764 1.11633,0.32942c0.22647,0.50706 0.41617,0.74945 0.41617,0.74945l-2.39379,1.78366z" fill="#af7444" stroke="none" stroke-width="1"/><path d="M318.8973,136.25861c0,0 0.77612,-0.3951 1.71372,-0.56482c0.93727,-0.17005 1.45136,-0.42344 0.75091,0.79325c-0.70045,1.21668 -0.70256,1.54882 -0.70256,1.54882c0,0 -1.52922,-1.15798 -1.76206,-1.77725" fill="#af7444" stroke="none" stroke-width="1"/><path d="M370.32387,78.77574c-5.12389,-1.57557 -6.8124,1.86274 -12.41116,10.81736c-5.59905,8.95495 -12.89906,13.63515 -13.08178,13.34129c-0.18271,-0.29382 -0.12678,-0.48847 -1.41884,-0.69164c5.05671,-1.76174 7.97282,-6.10188 14.41549,-14.34145c0.79654,-1.01895 2.57471,-4.00281 5.11598,-7.86813c2.71245,-4.12573 7.38031,-1.25744 7.38031,-1.25744" fill="#af7444" stroke="none" stroke-width="1"/><path d="M367.64166,87.90326c-1.34281,1.08922 -2.47347,0.79479 -2.47347,0.79479c-0.78525,1.5716 -3.69255,8.62736 -6.70747,14.4573c-3.01463,5.82995 -7.3344,11.17808 -7.3344,11.17808c-2.05211,2.50936 -1.60703,4.00342 -1.60703,4.00342c0.17086,0.96967 0.48615,2.95435 0.79016,5.19757c0.39827,2.93888 -3.83029,5.3144 -5.95993,7.09741c-1.9682,1.64799 -10.62779,9.04223 -17.35413,9.55566c-4.87915,0.37233 -10.03252,-4.23943 -10.27966,-9.25819c-0.24718,-5.01872 1.28537,-7.47335 3.76217,-11.02602c2.14726,-3.07966 5.56746,-3.726 8.39845,-5.96922c1.80826,-1.43264 3.45816,-3.28864 3.95219,-3.78291c0.49403,-0.49427 2.83131,-3.23177 3.4962,-3.9353c0.66517,-0.70325 2.49231,-0.87176 3.10337,-1.03113c1.438,-0.37566 3.29371,-1.20722 3.29371,-1.20722c9.08217,-3.61197 14.84266,-13.97399 16.66919,-16.68108c1.69184,-2.48622 4.71312,-8.13215 7.36687,-8.71496c3.30618,-0.92526 4.28145,0.87448 4.28145,0.87448c2.95171,6.53957 5.56105,7.94635 5.89031,9.53013c0.29309,1.40829 0.32954,1.4956 0.15202,1.59689c-0.65852,0.30417 -1.82409,0.27892 -2.66016,0c-0.83603,-0.27892 -1.16529,-1.47003 -1.16529,-1.47003c-2.69812,0.16485 -4.52221,-0.51952 -5.67171,-1.24526c-1.14978,-0.72546 -1.62465,-1.49223 -1.62465,-1.49223" fill="none" stroke="#533d37" stroke-width="0.5625"/><path d="M344.93591,102.93428c-0.30007,-0.48697 -1.52374,-0.69136 -1.52374,-0.69136c4.33223,-1.06458 10.32013,-8.67847 12.80667,-12.05256c2.45249,-3.32879 5.76536,-8.76181 5.76536,-8.76181c3.58311,-6.18035 8.49965,-2.54707 8.49965,-2.54707" fill="none" stroke="#533d37" stroke-width="0.5625"/></g><g><path d="M369.68435,78.90101c0.27847,-0.53231 1.17199,-2.56534 1.4693,-2.49661c0.21921,0.05078 0.08878,3.18099 0.11403,3.53866" fill="#fadab9" stroke="none" stroke-width="1"/><path d="M369.68435,78.91084c0.27847,-0.53231 1.17199,-2.56534 1.4693,-2.49661c0.21921,0.05082 0.08878,3.18099 0.11403,3.53866" fill="none" stroke="#533d37" stroke-width="0.5625"/><path d="M368.6488,78.17304c0.02521,-0.03804 0.07904,-1.48554 -0.56702,-2.77249l0.54449,0.34221l0.13956,-0.63388l0.38,0.39299l0.4305,-0.53231c0,0 -0.29122,2.42054 0.74758,4.11903" fill="#fadab9" stroke="none" stroke-width="1"/><path d="M368.64239,78.17304c0.02525,-0.03804 0.07908,-1.48554 -0.56698,-2.77249l0.54449,0.34221l0.13956,-0.63388l0.38,0.39299l0.4305,-0.53231c0,0 -0.29126,2.42054 0.74758,4.11903" fill="none" stroke="#533d37" stroke-width="0.5625"/></g><path d="M367.17593,79.1518c0.83603,-1.83777 -1.19054,-3.77682 -1.19054,-3.77682l0.83603,0.22233l0.22802,-0.39969l0.50649,0.25339l0.43082,-0.48149c-0.57006,2.20519 1.21603,3.89085 1.21603,3.89085" fill="#fadab9" stroke="none" stroke-width="1"/><path d="M367.17593,79.1518c0.83603,-1.83777 -1.19054,-3.77682 -1.19054,-3.77682l0.83603,0.22233l0.22802,-0.39969l0.50649,0.25339l0.43082,-0.48149c-0.57006,2.20519 1.21603,3.89085 1.21603,3.89085" fill="none" stroke="#533d37" stroke-width="0.5625"/></g><path d="M364.97195,80.74865c0,0 -0.40525,-4.96822 0,-5.14557c0.40525,-0.17731 1.92533,3.82765 1.92533,3.82765" fill="#fadab9" stroke="none" stroke-width="1"/><path d="M364.89597,80.74865c0,0 -0.40525,-4.96822 0,-5.14557c0.40525,-0.17731 1.92533,3.82765 1.92533,3.82765" fill="none" stroke="#533d37" stroke-width="0.5625"/><path d="M365.68122,80.60369c0,0 -0.3429,-1.89769 -0.38,-3.25121c-0.02586,-0.94994 1.00628,1.26105 1.06011,2.15014c0.05411,0.88909 0.10518,0.95599 -0.68011,1.10107" fill="#a67c9f" stroke="none" stroke-width="1"/><path d="M370.97625,83.13148c0,0 -1.35925,1.82137 -2.83736,-0.46902c0,0 0.89258,-0.68681 1.5845,-0.57639c0.87923,0.14025 1.1659,0.89668 1.25285,1.04542" fill="#a67c9f" stroke="none" stroke-width="1"/><path d="M375.89113,89.92443c0,0 -0.64419,-0.35495 -0.9102,-1.61572c0,0 0.46058,0.13899 0.67885,0.57607c0.39794,0.79694 0.14439,0.89092 0.23135,1.03965" fill="#a67c9f" stroke="none" stroke-width="1"/><path d="M370.08306,83.83635c0,0 -0.9622,-0.153 -0.88044,-1.05971c0.06357,-0.70293 0.88044,-0.64634 0.88044,-0.64634l0.89319,1.00129z" fill="#1b110f" stroke="none" stroke-width="1"/><path d="M368.13874,82.66245c0,0 1.7101,-1.59656 2.8374,0.46902c0,0 -1.21607,1.86302 -2.8374,-0.46902z" fill="none" stroke="#533d37" stroke-width="0.5"/><path d="M375.89113,89.92443c0,0 -0.86128,-0.54506 -0.91203,-1.64767c0,0 1.05126,0.48181 0.91203,1.64767z" fill="none" stroke="#533d37" stroke-width="0.5"/></g><g><path d="M352.83657,179.03602h2.39412l1.72286,0.67768l1.01328,1.46h-5.16826v-1.70485z" fill="#624b59" stroke="none" stroke-width="1"/><path d="M335.97202,127.60267c0.52654,-0.47268 7.28268,-4.7946 6.75614,0.83644c-0.20281,2.16719 4.98644,-2.9276 4.98644,-2.9276c0.19002,3.57393 -0.98806,8.59269 -1.40605,10.1135c-0.41804,1.52085 -0.45603,3.15574 -0.22802,4.67655c0.22802,1.52085 2.0901,9.163 3.34417,12.39476c1.25407,3.23177 2.45736,3.89727 2.5081,5.43696c0.02919,0.88085 -0.15231,2.39561 -0.22798,3.15574c-0.10916,1.09774 0.38,3.04167 0.95002,6.27339c0.57976,3.28775 1.5882,5.57355 2.71578,8.59269c0.89441,2.39533 -0.16964,2.88108 -0.16964,2.88108c-0.57002,0.10522 -1.82409,0.23662 -2.39411,0c-0.57002,-0.23695 -0.342,-0.94202 -1.21607,-1.24619c0.22802,-4.22027 -1.7481,-12.62286 -1.7481,-12.62286c-0.64601,-3.07966 -2.31812,-5.55102 -2.58413,-6.34947c-0.26601,-0.79844 0.11403,-1.74895 0,-2.69946c-0.11399,-0.95051 -2.12777,-5.52151 -2.12777,-5.52151c-2.31844,-6.22691 -5.96663,-10.59929 -7.37268,-11.85397c-1.40609,-1.25468 -1.14008,-2.24322 -1.14008,-2.24322c0,0 -0.07599,-1.52081 0.15202,-5.09475c0.22802,-3.57398 -0.79804,-3.80207 -0.79804,-3.80207" fill="#fadab9" stroke="none" stroke-width="1"/><path d="M355.27077,179.03606c-0.10396,0.0067 -0.70926,-0.25335 -0.68405,-0.6083c0.02525,-0.35499 0.43078,-1.09015 0.20281,-1.64767c-0.22802,-0.55756 -0.60956,-1.46975 -0.20342,-1.64739c0.40586,-0.17764 1.08991,1.57135 1.10269,2.25569c0.01275,0.68437 -0.03804,1.62242 -0.41804,1.64767" fill="#af7444" stroke="none" stroke-width="1"/><path d="M352.40576,178.791c0.01855,-0.44682 -0.73479,-1.16614 -0.73479,-1.16614l-0.10124,-2.49629c0,0 0.48128,-0.4946 0.95006,-0.62141c0.46878,-0.12686 0.44325,0.35495 0.53142,0.78594c0.08785,0.43103 0.3934,1.57135 0.62141,2.17965c0.22802,0.60834 -1.26686,1.31825 -1.26686,1.31825" fill="#af7444" stroke="none" stroke-width="1"/><path d="M354.40725,173.74468c0,0 -2.27919,0.11253 -2.48196,-0.09036c-0.20281,-0.20289 -0.70926,-3.62472 -0.70926,-3.62472c0,0 -0.10157,-0.93805 0.22798,-0.9633c0.32926,-0.02525 1.79523,0.91584 1.79584,0.96662c0.00974,0.6558 0.37639,0.61626 1.1674,3.71175" fill="#af7444" stroke="none" stroke-width="1"/><path d="M352.79855,168.37332c0,0 -1.50669,0.0341 -1.7347,-0.7011c-0.22802,-0.73516 0,-4.05542 0,-4.56248c0,-0.50706 0.38004,-0.64512 0.60806,-0.82247c0.22798,-0.17731 0.36056,1.81739 0.68977,3.51556c0.32926,1.69817 0.43687,2.57049 0.43687,2.57049" fill="#af7444" stroke="none" stroke-width="1"/><path d="M350.58257,166.83586c-0.12678,-0.45624 -0.86128,-3.09245 -0.58281,-3.04167c0.2788,0.05082 0.48157,-0.2281 0.58281,0.25339c0.10124,0.48149 0.02708,2.88591 0,2.78828" fill="#af7444" stroke="none" stroke-width="1"/><path d="M349.4992,163.75917c0,0 -0.40525,-0.82731 -0.73447,-1.91713c-0.32958,-1.08983 -1.33039,-2.19731 -1.1784,-2.37463c0.15202,-0.17736 0.41195,-0.97093 0.69075,-1.2751c0.27847,-0.30413 0.53202,0.02557 0.91203,0.17764c0.38004,0.15211 0.81082,-0.30417 1.09661,-0.45624c0.28607,-0.15207 0.5755,0.20256 0.67674,0.70962c0.10153,0.50706 0.35479,2.12915 0.40553,2.61064c0.05078,0.48149 -0.40553,0.63388 -0.40553,0.63388c0,0 -1.41247,1.73925 -1.46325,1.89131" fill="#af7444" stroke="none" stroke-width="1"/><path d="M351.67202,157.87811c0,0 -1.39209,-0.24332 -1.73474,-0.77559c-0.34261,-0.53231 -0.11492,-0.38329 0.49342,-0.71937c0.60806,-0.3364 0.64118,0.29382 0.94125,0.74734c0.30007,0.45352 0.30007,0.74762 0.30007,0.74762" fill="#af7444" stroke="none" stroke-width="1"/><path d="M350.83243,155.50897c0,0 -1.54196,1.08678 -2.58048,1.11203c-1.03884,0.02525 -1.55507,-2.32746 -1.55507,-2.32746l2.37986,-2.64535c0,0 1.27412,3.48211 1.75569,3.86077" fill="#af7444" stroke="none" stroke-width="1"/><path d="M345.94633,151.85571c-0.03982,-0.14874 -0.07599,-2.96592 0.2788,-3.4474c0.35447,-0.48153 1.26653,-0.88698 1.26653,-0.88698c0,0 0.48124,1.79945 0.81078,2.63593c0.32926,0.83644 -0.32926,1.95152 -0.88682,2.28122c-0.55723,0.32974 -1.19082,0.45656 -1.4693,-0.58277" fill="#af7444" stroke="none" stroke-width="1"/><path d="M347.68163,146.93292c0,0 -1.8113,0.66432 -2.34333,0.03073c-0.53202,-0.63355 -0.05046,-0.96297 0.10153,-1.16586c0.15202,-0.20289 1.60155,-1.06214 1.65201,-1.13817c0.05078,-0.07607 0.58979,2.12124 0.58979,2.2733" fill="#af7444" stroke="none" stroke-width="1"/><path d="M345.36814,151.07334c0.09121,-0.59223 -2.19102,-4.87489 -2.19102,-4.87489c0,0 0.13437,-0.42612 0.43837,-0.96634c0.30401,-0.54018 0.55756,0.28655 0.76004,1.17378c0.20277,0.88726 0.86157,1.19143 1.14004,1.69817c0.2788,0.50673 -0.14744,2.96929 -0.14744,2.96929" fill="#af7444" stroke="none" stroke-width="1"/><path d="M346.88421,144.16693c0,0 -1.1221,0.46078 -1.27079,0.69075c-0.14833,0.23025 -0.37635,0.66095 -0.68036,0.55967c-0.30401,-0.10128 -1.72285,-1.01347 -1.79888,-1.64739c-0.07599,-0.63388 0.45632,-2.38283 0.73483,-3.39662c0.27876,-1.01375 0.22798,-1.47003 0.83603,-1.74895c0.60802,-0.27892 0.91203,0.12686 1.0893,0.38024c0.17752,0.25335 0.85487,4.4916 1.08987,5.1623" fill="#af7444" stroke="none" stroke-width="1"/><path d="M345.92184,138.13438c0,0 -1.18595,-0.6506 -1.41669,-1.0308c-0.23078,-0.3802 -0.7123,-1.17893 -0.7628,-1.56522c-0.05074,-0.38662 -0.20277,-0.59101 0,-0.93228c0.20248,-0.34127 2.4069,-1.05118 2.76141,-1.27932c0.35475,-0.22814 0.50678,-0.10161 0.20277,0.76041c-0.30401,0.86201 -0.62052,2.75666 -0.62052,2.75666z" fill="#af7444" stroke="none" stroke-width="1"/><path d="M341.69325,143.6578c-0.25327,-0.58277 -2.0299,-3.05624 -2.0299,-3.05624c0,0 0.45599,-2.28126 0.63323,-2.81353c0.17727,-0.53231 0.63359,-0.48153 1.06409,-0.50706c0.43078,-0.02553 1.21603,-1.29272 1.4641,-1.31796c0.24811,-0.02525 0.30949,0.07603 0.43598,0.43103c0.12678,0.35495 0.55756,1.21664 0.70958,1.62209c0.15198,0.40545 -0.91207,1.394 -1.3681,2.56018c-0.45599,1.16614 -0.22798,2.12915 -0.32954,2.61064c-0.10124,0.48149 -0.57944,0.47085 -0.57944,0.47085" fill="#af7444" stroke="none" stroke-width="1"/><path d="M338.4638,139.41077c0,0 -0.75545,-0.6996 -1.4395,-1.53604c-0.68405,-0.83648 0.71352,-3.17916 0.15625,-2.49478c-0.55723,0.68437 1.41884,-1.90102 1.79888,-1.95184c0.38,-0.05078 0.30401,0.25367 0.86128,1.17804c0.55756,0.92437 0.86128,1.10322 0.83603,1.35324c-0.02525,0.25034 -0.15202,0.68803 -0.43078,1.01745c-0.2788,0.32942 -1.73137,2.3579 -1.78216,2.43393" fill="#af7444" stroke="none" stroke-width="1"/><path d="M340.67832,132.41436c0.02099,-0.15271 0.12523,-0.35467 0.35325,-0.50678c0.22802,-0.15207 0.8105,-0.2281 1.59611,-0.65912c0.78525,-0.43099 0.50645,-1.31792 0.76,-1.49556c0.25327,-0.17764 0.73451,-0.17731 0.73451,-0.17731c0,0 2.0269,0.27892 2.4069,0.32938c0.38004,0.0505 0.35479,0.27892 0.34022,0.43103c-0.01429,0.15207 0.03982,0.50702 0,0.91247c-0.03986,0.40545 -1.30303,0.81123 -2.21509,1.55885c-0.91203,0.74766 -2.96413,1.68571 -3.64818,1.79884c-0.68401,0.11318 -0.32772,-2.19179 -0.32772,-2.19179" fill="#af7444" stroke="none" stroke-width="1"/><path d="M337.24906,133.42267c-0.17695,-0.06572 -0.04319,-1.28695 0.03284,-1.94608c0.07599,-0.65912 -0.20281,-1.79973 0.15198,-2.35729c0.35479,-0.55752 0.86433,-1.79458 1.06709,-2.04793c0.20277,-0.25339 1.15648,-1.33165 1.15648,-1.33165c0,0 1.54955,0.39875 1.82803,0.50004c0.2788,0.10128 0.60928,-0.14508 0.66002,1.55309c0.0505,1.69817 -0.15137,2.1121 -0.32134,2.51788c-0.16993,0.40574 -0.48883,0.4307 -1.23856,1.03904c-0.74997,0.6083 -3.3037,2.23072 -3.3037,2.23072" fill="#af7444" stroke="none" stroke-width="1"/><path d="M347.74431,125.51151c0.19002,3.57393 -0.98806,8.59269 -1.40609,10.1135c-0.418,1.52085 -0.45599,3.15574 -0.22798,4.67655c0.22798,1.52085 2.0901,9.163 3.34413,12.39476c1.25407,3.23177 2.4574,3.89727 2.50814,5.43696c0.02919,0.88085 -0.15231,2.39561 -0.22802,3.15574c-0.10912,1.09774 0.38004,3.04167 0.95006,6.27339c0.57976,3.28775 1.58816,5.57355 2.71578,8.59269c0.89441,2.39533 -0.16964,2.88108 -0.16964,2.88108c-0.57002,0.10522 -1.82409,0.23662 -2.39411,0c-0.57006,-0.23695 -0.34204,-0.94202 -1.21607,-1.24619c0.22802,-4.22027 -1.7481,-12.62286 -1.7481,-12.62286c-0.64601,-3.07966 -2.31812,-5.55102 -2.58413,-6.34947c-0.26601,-0.79844 0.11403,-1.74895 0,-2.69946c-0.11399,-0.95051 -2.12781,-5.52151 -2.12781,-5.52151c-2.3184,-6.22691 -5.96658,-10.59929 -7.37268,-11.85397c-1.40605,-1.25468 -1.14004,-2.24322 -1.14004,-2.24322c0,0 -0.07599,-1.52081 0.15198,-5.09475c0.22802,-3.57398 -0.79804,-3.80207 -0.79804,-3.80207" fill="none" stroke="#533d37" stroke-width="0.5625"/></g><g><path d="M316.92472,132.31722c0,0 2.68204,5.05797 5.70033,1.97709c3.76217,-3.84011 5.28225,-1.97709 5.28225,-1.97709c0,0 1.52008,5.55102 -4.82626,14.29578c-6.3463,8.7448 -6.3463,9.6953 -7.29636,12.77497c-0.95006,3.0797 -4.48421,15.09422 -4.48421,15.09422c0,0 -1.10209,4.10624 -0.76004,4.82865c0,0 -1.82409,0.49427 -3.30618,-0.26617c0,0 2.50814,-3.99217 4.14221,-10.98798c1.63407,-6.9958 1.52008,-13.83954 1.52008,-13.83954c0,0 5.05424,-5.09475 5.9663,-10.1515c0.91207,-5.05679 -1.90008,-7.52811 -1.93812,-11.74843" fill="#fadab9" stroke="none" stroke-width="1"/><path d="M309.80386,173.39621l1.81315,-0.4599l-0.63326,2.82266l-2.24607,0.31268z" fill="#af7444" stroke="none" stroke-width="1"/><path d="M310.1534,172.38867c0.038,-0.07603 0.84151,-2.80711 0.84151,-2.80711c0,0 1.4076,-0.57428 1.73044,-0.49825c0.32317,0.07603 -0.7138,2.98479 -0.7138,2.98479z" fill="#af7444" stroke="none" stroke-width="1"/><path d="M313.25234,167.86659c0,0 -1.45773,-0.1901 -1.82072,-0.04867l0.43866,-2.1404l2.39598,-1.23158z" fill="#af7444" stroke="none" stroke-width="1"/><path d="M312.08186,164.44472c0.33198,-0.72237 0.75123,-8.79554 0.86522,-8.83358c0.11403,-0.038 0.84245,0.71632 0.84245,0.71632c0,0 -0.19002,3.28864 -0.24685,3.88907c-0.05716,0.6001 0.51286,0.12194 1.02605,0.00792c0.51286,-0.11407 0.22798,1.04542 0.22798,1.04542c0,0 -0.43716,1.76811 -0.81716,1.93934c-0.38004,0.17094 -1.91774,1.27904 -1.89769,1.23552" fill="#af7444" stroke="none" stroke-width="1"/><path d="M315.69589,159.67728c-0.05683,0 -1.56445,-0.09913 -1.58329,-0.6506c-0.01916,-0.55114 0.11399,-2.88956 0.11399,-2.94643c0,-0.0572 -0.05716,-0.70353 0.342,-0.83648c0.39888,-0.13323 3.56914,-1.39854 3.56914,-1.39854c0,0 -1.17682,2.03181 -1.40484,2.69702c-0.22802,0.66554 -1.03701,3.13503 -1.03701,3.13503" fill="#af7444" stroke="none" stroke-width="1"/><path d="M312.89654,154.21714c1.00722,-0.51311 3.63146,-4.64428 3.63146,-4.64428c0,0 1.99284,-0.56454 2.48687,-0.75464c0.49399,-0.1901 0.38,0.36133 0.38,0.36133c0,0 -0.72205,2.2049 -0.89291,2.71834c-0.17114,0.51343 -0.77916,0.6275 -2.22325,1.36875c-1.44409,0.74157 -3.38217,0.95051 -3.38217,0.95051" fill="#af7444" stroke="none" stroke-width="1"/><path d="M317.14457,148.53723c0,0 0.89441,-1.80887 1.69914,-2.24749c0.60497,-0.32942 1.65323,-2.28126 1.65323,-2.28126c0,0 0.07599,-0.83644 0.24685,-1.46362c0.17118,-0.6275 0.47519,-0.34221 0.68616,-0.26617c0.21101,0.07607 0.35905,0.09491 0.87192,-0.20926c0.51319,-0.30417 1.65323,-1.15949 2.16614,-1.12145c0.51315,0.03804 1.11694,1.50868 1.06555,1.77481c-0.24685,0.60834 -2.6063,4.10198 -2.6063,4.10198c0,0 -1.32828,-0.43984 -1.76543,-0.47783c-0.43687,-0.03804 -0.47487,0.5703 -0.64605,0.89331c-0.17086,0.32333 -0.30401,0.30417 -0.89286,0.36137c-0.58918,0.05687 -2.36436,0.8407 -2.47834,0.93561" fill="#af7444" stroke="none" stroke-width="1"/><path d="M319.01068,142.93068c0,0 0.13104,-1.55857 -0.15353,-2.81324c-0.26175,-1.1549 -0.98229,-3.33033 -0.98229,-3.33033c0,0 3.21102,-0.91491 3.34417,-0.6299c0.13286,0.28529 -0.22802,0.55143 -0.22802,0.55143c0,0 -1.31119,1.63492 -1.40605,1.99597c-0.09515,0.36133 0.41804,0.72237 0.41804,0.72237c0,0 0.55086,0.64638 0.62685,1.51992c0.07603,0.87326 -2.19346,2.29372 -1.61917,1.98379" fill="#af7444" stroke="none" stroke-width="1"/><path d="M321.82697,141.21408c0,0 -0.70317,-1.78699 -0.83603,-2.41416c-0.13315,-0.6275 0,-1.00771 0.41804,-1.31188c0.418,-0.30417 1.02605,-0.4374 1.14004,-1.06458c0.11403,-0.62718 0.28517,-1.38762 0.81691,-1.55885c0.53202,-0.17094 1.69123,-0.89335 1.91924,-0.72241c0.22802,0.17127 0.28517,3.06054 0.22802,4.06825c-0.05687,1.00771 -0.62689,1.69208 -1.95728,2.31926c-1.33006,0.6275 -1.27291,1.10261 -1.72894,0.68437" fill="#af7444" stroke="none" stroke-width="1"/><path d="M326.16293,141.46832c0,0 -0.2022,-0.55874 -0.21466,-0.6275c-0.07295,-0.4033 -0.28119,-1.89919 0.287,-3.40969c0.66489,-1.76811 1.48209,-3.1177 1.46293,-1.93905c-0.01884,1.17865 -0.02038,1.84447 -0.19306,2.37097c-0.65787,2.00234 -1.34374,3.55965 -1.5444,3.04654" fill="#af7444" stroke="none" stroke-width="1"/><path d="M308.03228,179.46883c0.35175,0.23727 1.63407,-0.46232 2.28012,0c0.64601,0.46232 1.59607,0.8526 1.59607,0.8526l0.49403,0.85227h-4.78826l0.41804,-1.70487" fill="#624b59" stroke="none" stroke-width="1"/><path d="M327.90729,132.31722c0,0 1.52008,5.55102 -4.82626,14.29578c-6.3463,8.7448 -6.3463,9.6953 -7.29636,12.77497c-0.95006,3.0797 -4.48421,15.09422 -4.48421,15.09422c0,0 -1.10209,4.10624 -0.76004,4.82865c0,0 -1.82409,0.49427 -3.30618,-0.26617c0,0 2.50814,-3.99217 4.14221,-10.98798c1.63407,-6.9958 1.52008,-13.83954 1.52008,-13.83954c0,0 5.05424,-5.09475 5.9663,-10.1515c0.91207,-5.05679 -1.90008,-7.52811 -1.93812,-11.74843" fill="none" stroke="#533d37" stroke-width="0.5625"/></g></g><text transform="translate(287.20233,64.66727) scale(0.37106,0.37106)" font-size="40" xml:space="preserve" fill="#000000" fill-rule="nonzero" stroke="#000000" stroke-width="1" stroke-linecap="butt" stroke-linejoin="miter" stroke-miterlimit="10" stroke-dasharray="" stroke-dashoffset="0" font-family="Handwriting" font-weight="normal" text-anchor="start" style="mix-blend-mode: normal"></text></g></g></svg>