<svg version="1.1" xmlns="http://www.w3.org/2000/svg" xmlns:xlink="http://www.w3.org/1999/xlink" width="110.99061" height="102.78495" viewBox="0,0,110.99061,102.78495"><defs><linearGradient x1="240.53282" y1="68.29053" x2="240.53282" y2="232.47417" gradientUnits="userSpaceOnUse" id="color-1"><stop offset="0" stop-color="#000000"/><stop offset="1" stop-color="#000000" stop-opacity="0"/></linearGradient></defs><g transform="translate(-178.1693,-103.29081)"><g data-paper-data="{&quot;isPaintingLayer&quot;:true}" fill-rule="nonzero" stroke-linecap="butt" stroke-linejoin="miter" stroke-miterlimit="10" stroke-dasharray="" stroke-dashoffset="0" style="mix-blend-mode: normal"><path d="M278.16935,179.73317c0.06525,1.72716 -5.86943,6.49133 -36.78356,6.49133c-30.91414,0 -39.54531,-4.06675 -39.55566,-6.84709c-0.00893,-2.4004 8.00181,-5.6019 38.91593,-5.6019c30.91414,0 37.36358,4.37778 37.42328,5.95766z" fill="url(#color-1)" stroke="none" stroke-width="0"/><text transform="translate(229.12799,201.22798) scale(0.28942,0.28942)" font-size="40" xml:space="preserve" fill="#000000" fill-rule="nonzero" stroke="#000000" stroke-width="0.5" stroke-linecap="butt" stroke-linejoin="miter" stroke-miterlimit="10" stroke-dasharray="" stroke-dashoffset="0" font-family="Handwriting" font-weight="normal" text-anchor="start" style="mix-blend-mode: normal"></text><text transform="translate(204.35563,114.80329) scale(0.30296,0.30296)" font-size="40" xml:space="preserve" fill="#000000" fill-rule="nonzero" stroke="#000000" stroke-width="1" stroke-linecap="butt" stroke-linejoin="miter" stroke-miterlimit="10" stroke-dasharray="" stroke-dashoffset="0" font-family="Handwriting" font-weight="normal" text-anchor="start" style="mix-blend-mode: normal"></text><text transform="translate(200.70235,128.99146) scale(0.28998,0.28998)" font-size="40" xml:space="preserve" fill="#000000" fill-rule="nonzero" stroke="#000000" stroke-width="1" stroke-linecap="butt" stroke-linejoin="miter" stroke-miterlimit="10" stroke-dasharray="" stroke-dashoffset="0" font-family="Handwriting" font-weight="normal" text-anchor="start" style="mix-blend-mode: normal"></text><g><path d="M289.15251,157.37194c-2.82743,5.20163 -16.47147,10.9685 -28.56684,11.45599c-6.62889,0.26717 -20.59858,1.00023 -31.04762,-1.48529c-5.59305,-1.33042 -6.26494,-2.47038 -11.5502,-3.52667c-10.69467,-2.1374 -21.16571,-3.55258 -21.16571,-3.81158c0,-0.61924 39.09094,4.53365 54.59874,4.53365c12.91919,0 30.93411,-6.74472 36.49268,-8.28165c1.11376,-0.30796 1.28832,1.02475 1.23895,1.11557z" fill="#648f9e" stroke="none" stroke-width="0"/><g stroke="none"><g stroke-width="1"><path d="M253.64335,169.81035c-1.19865,1.53708 -3.47753,2.76033 -6.85334,3.61685c-0.34366,0.07137 -0.62034,-0.11016 -0.477,-0.37892c1.13089,-2.22641 4.96944,-9.63554 3.5643,-11.41496c2.66202,-1.44586 2.8906,-1.5994 3.44163,0.72328c0.45662,1.92473 1.72943,5.65201 0.32441,7.45374z" fill="#648f9e"/><path d="M250.24061,163.19096c-0.05904,0.29108 -0.07198,0.61241 -0.16128,0.94961c-0.05112,0.32927 -0.13248,0.70464 -0.25997,1.04977c-0.12748,0.34512 -0.24704,0.72843 -0.37452,1.07356c-0.12748,0.34512 -0.24704,0.72843 -0.41271,1.08149c-0.11956,0.38331 -0.28522,0.73636 -0.45089,1.08942c-0.11956,0.38331 -0.29315,0.69818 -0.45882,1.05123c-0.30108,0.65999 -0.61009,1.2818 -0.89678,1.81931c-0.28669,0.53751 -0.52079,0.94461 -0.69439,1.25948c-0.14335,0.26875 -0.26436,0.45321 -0.26436,0.45321c0,0 0.03672,-0.20678 0.17213,-0.51372c0.12748,-0.34512 0.31548,-0.78248 0.51787,-1.34231c0.24057,-0.56776 0.47322,-1.17371 0.76637,-1.87189c0.25497,-0.69025 0.5863,-1.39636 0.87153,-2.13272c0.16567,-0.35305 0.28522,-0.73636 0.45089,-1.08942c0.16567,-0.35305 0.29315,-0.69818 0.42064,-1.0433c0.12748,-0.34512 0.2629,-0.65206 0.3522,-0.98926c0.12748,-0.34512 0.18653,-0.6362 0.24557,-0.92729c0.08783,-0.53605 0.21032,-0.52165 0.17653,0.08283z" fill="#4e6f7d"/></g><path d="M254.61606,169.12798c-0.86477,2.60646 -7.8619,4.56479 -8.24521,4.43763c-0.3833,-0.12717 6.5688,-1.9135 7.43356,-4.51997c0.86477,-2.60646 -0.89399,-6.92874 -0.51069,-6.80156c0.3833,0.12717 2.18709,4.27744 1.32232,6.88391z" fill="#4e6f7d" stroke-width="0"/></g><path d="M288.21411,156.56949c-0.54272,1.55005 -32.64253,2.2522 -50.25034,2.2522c-17.60781,0 -42.48193,-0.72672 -40.94906,-1.31622c0.6417,-0.24678 9.14985,-2.85157 9.61248,-3.08201c0.45962,-0.22894 -0.28955,-2.24011 0.21478,-2.34959c2.45732,-0.53344 5.69249,0.30865 8.66436,-0.34206c7.29385,-1.59704 15.79878,-3.33677 23.43241,-3.92737c15.42773,-1.1936 31.18409,1.53882 40.68354,3.98003c5.70143,1.46518 9.23635,2.94419 8.59182,4.78502z" fill="#4e6f7d" stroke="none" stroke-width="0"/><g data-paper-data="{&quot;index&quot;:null}" stroke="none" stroke-width="1"><path d="M200.4271,160.66622c-2.03137,-0.4233 -4.46262,-0.4771 -7.28903,0.86439c-2.69054,1.30086 -7.66174,3.43644 -14.47883,3.27989c-0.3992,-0.01424 -0.62341,-0.29078 -0.40388,-0.45187c0.6586,-0.48327 2.80414,-1.3921 4.15671,-2.00653c3.46816,-1.55249 3.95234,-3.01435 4.53328,-4.29518c0.72598,-1.57235 -0.83916,-5.32276 -2.15297,-7.18227c-0.15664,-0.23948 0.22104,-0.39059 0.61949,-0.2616c2.76613,0.9671 5.56763,2.28628 7.83798,4.18424c2.89993,2.39686 4.59592,3.41674 6.97352,3.8892" fill="#6da3b2"/><path d="M198.11863,160.27029c0,0 -0.33164,0.02282 -0.94962,0.05492c-0.29402,0.03066 -0.63333,0.07486 -0.98799,0.16183c-0.18117,0.05417 -0.36233,0.10835 -0.55117,0.18391c-0.18884,0.07556 -0.40762,0.1219 -0.60414,0.21884c-0.18884,0.07556 -0.42297,0.16466 -0.58186,0.26944c-0.19651,0.09694 -0.4007,0.21526 -0.60489,0.33359c-0.40837,0.23665 -0.85437,0.46545 -1.37559,0.67858c-0.48361,0.22097 -1.01251,0.45548 -1.57135,0.66078c-0.55884,0.2053 -1.11769,0.41058 -1.67653,0.61587c-0.58879,0.17607 -1.18525,0.37352 -1.80398,0.52037c-0.58111,0.15469 -1.19985,0.30154 -1.81091,0.42701c-1.21445,0.22955 -2.3982,0.37357 -3.4384,0.45557c-1.0402,0.08201 -1.92919,0.08061 -2.53182,0.06994c-0.32397,0.00144 -0.55734,-0.02421 -0.71549,-0.03419c-0.15815,-0.00998 -0.24105,-0.00427 -0.24105,-0.00427c0,0 0.08291,-0.00571 0.24105,0.00427c0.15815,0.00998 0.40687,-0.00714 0.69322,-0.01642c0.61031,-0.01071 1.44708,-0.08915 2.45734,-0.20037c0.50513,-0.05562 1.05555,-0.12477 1.61365,-0.21531c0.55809,-0.09054 1.12386,-0.20246 1.6973,-0.33577c0.57344,-0.1333 1.1845,-0.25877 1.77329,-0.43484c0.58111,-0.15469 1.1699,-0.33076 1.76636,-0.52821c1.14763,-0.38136 2.2277,-0.79979 3.22486,-1.2125c0.48361,-0.22097 0.95954,-0.42055 1.39786,-0.62798c0.20418,-0.11832 0.43831,-0.20743 0.63483,-0.30437c0.19651,-0.09694 0.43064,-0.18604 0.6571,-0.25376c0.45292,-0.13544 0.86053,-0.25734 1.25281,-0.33646c0.39228,-0.07913 0.76921,-0.11549 1.09317,-0.11693c0.32396,-0.00144 0.56502,0.00283 0.72316,0.0128c0.13588,-0.04063 0.21878,-0.04633 0.21878,-0.04633z" fill="#4e6f7d"/><path d="M179.29089,163.839c0,0 0.05296,-0.03492 0.19651,-0.09694c0.10593,-0.06985 0.30244,-0.1668 0.55192,-0.29866c0.49128,-0.24235 1.17908,-0.58165 2.04803,-0.97512c0.43831,-0.20742 0.87663,-0.41485 1.3303,-0.66504c0.45366,-0.25019 0.915,-0.52177 1.30877,-0.8304c0.39377,-0.30863 0.76528,-0.66788 1.06155,-1.04279c0.29627,-0.37491 0.52497,-0.78689 0.71606,-1.20671c0.19109,-0.41981 0.30694,-0.85531 0.34756,-1.30648c0.04062,-0.45117 0.03594,-0.8888 -0.01403,-1.31288c-0.09994,-0.84816 -0.36569,-1.68492 -0.64753,-2.36416c-0.27418,-0.70062 -0.55677,-1.26511 -0.73494,-1.66994c-0.21579,-0.41267 -0.33481,-0.64431 -0.33481,-0.64431c0,0 0.02227,0.0506 0.10443,0.15965c0.08216,0.10905 0.18659,0.2687 0.32097,0.45757c0.26108,0.39913 0.61891,0.97929 0.93838,1.66637c0.31947,0.68708 0.66813,1.51812 0.79801,2.39551c0.08758,0.43192 0.1222,0.89877 0.0363,1.36349c-0.04062,0.45117 -0.16414,0.90804 -0.32528,1.35708c-0.19876,0.4412 -0.43514,0.87455 -0.7767,1.26301c-0.30394,0.3963 -0.71306,0.7477 -1.15213,1.06988c-0.43906,0.32218 -0.9004,0.59375 -1.4293,0.82826c-0.49128,0.24235 -0.96722,0.44194 -1.43548,0.62014c-0.89891,0.36425 -1.65426,0.66648 -2.17549,0.87961c-0.43831,0.20742 -0.73308,0.35284 -0.73308,0.35284z" fill="#4e6f7d"/><path d="M198.30561,158.17195c0,0 -0.07524,-0.01567 -0.18042,-0.06057c-0.10518,-0.0449 -0.2856,-0.10548 -0.45834,-0.18744c-0.3831,-0.17176 -0.93128,-0.44685 -1.53166,-0.80178c-0.60039,-0.35493 -1.2077,-0.80322 -1.88257,-1.28858c-0.67487,-0.48536 -1.34208,-0.9921 -2.0469,-1.50667c-0.35241,-0.25729 -0.71249,-0.49319 -1.0649,-0.75048c-0.36008,-0.23591 -0.72017,-0.47181 -1.08792,-0.68633c-0.36775,-0.21452 -0.73552,-0.42905 -1.07333,-0.61435c-0.33781,-0.1853 -0.67562,-0.3706 -0.98349,-0.52668c-0.30787,-0.15608 -0.62341,-0.29078 -0.86371,-0.4098c-0.27792,-0.12686 -0.48828,-0.21666 -0.69864,-0.30645c-0.39078,-0.15037 -0.63108,-0.26939 -0.63108,-0.26939c0,0 0.25565,0.07625 0.6541,0.20524c0.21803,0.06841 0.46602,0.16605 0.75161,0.27153c0.28559,0.10548 0.60881,0.21879 0.9543,0.38271c0.35316,0.14254 0.69865,0.30646 1.07407,0.4996c0.17274,0.08196 0.37543,0.19314 0.54817,0.2751c0.20269,0.11118 0.36775,0.21452 0.57811,0.30432c0.36775,0.21452 0.77313,0.43688 1.12554,0.69417c0.36008,0.23591 0.75011,0.50103 1.11019,0.73693c0.70482,0.51458 1.36434,1.0427 2.0016,1.52022c0.62958,0.4989 1.2369,0.94719 1.7467,1.32921c0.5098,0.38202 1.00501,0.69204 1.3505,0.85596c0.3977,0.24374 0.60806,0.33354 0.60806,0.33354z" fill="#4e6f7d"/></g><g stroke="none" stroke-width="1"><path d="M205.38965,156.54411c1.32597,-0.46799 1.98895,-1.87196 1.98895,-2.72994c0,-0.85798 -0.77998,-1.44297 0.078,-1.52096c1.40397,-0.156 7.33183,0.27299 9.04779,0.195" fill="#6da3b2"/><path d="M206.75462,155.37414c0.117,-0.27299 0.31199,-0.58499 0.38999,-0.93598c0.039,-0.156 0.078,-0.35099 0.078,-0.50699c0,-0.156 0,-0.31199 0,-0.46799c0,-0.156 0,-0.27299 -0.039,-0.35099c0,-0.078 0,-0.117 0,-0.117c0,0 0,0.039 0.039,0.117c0.039,0.078 0.078,0.156 0.117,0.31199c0.039,0.156 0.078,0.31199 0.078,0.50699c0,0.078 0,0.195 0,0.27299c0,0.078 0,0.195 -0.039,0.27299c-0.117,0.38999 -0.31199,0.70198 -0.50699,0.93598c-0.156,0.23399 -0.31199,0.35099 -0.31199,0.35099c0,0 0.117,-0.156 0.195,-0.38999z" fill="#4e6f7d"/></g><path d="M199.57878,160.79501c-4.01691,-0.74098 -4.4069,-2.14495 -1.94996,-3.39292c8.34581,-2.26195 27.37737,-8.96979 48.59288,-9.28179c5.07907,-0.07483 8.84459,0.0067 13.41212,0.54901c9.7069,1.15252 19.99395,3.04452 24.57008,4.74482c2.24839,0.83541 3.61037,2.07638 3.59084,2.42799c-0.05101,0.21936 1.80434,0.72888 0.75619,2.00446c-3.02076,2.49561 -8.18741,6.18316 -15.49911,8.04498c-5.30296,1.35033 -11.80863,1.5798 -16.39495,2.26486c-2.2521,0.33639 -13.77724,0.8129 -23.86169,-0.95619c-5.80292,-1.01799 -8.84718,-2.97014 -14.51508,-4.06875c-9.64817,-1.87011 -17.1023,-2.04151 -18.70134,-2.33648z" fill="#6da3b2" stroke="none" stroke-width="1"/><path d="M262.72875,157.50585c0.01891,-0.39745 0.5836,-0.69211 1.26126,-0.65813c0.67766,0.03398 1.21167,0.38372 1.19276,0.78117c-0.01891,0.39745 -0.5836,0.69211 -1.26126,0.65813c-0.67766,-0.03398 -1.21167,-0.38372 -1.19276,-0.78117z" fill="#212f33" stroke="none" stroke-width="1"/><path d="M288.02716,155.94549c0,0.36615 -6.29647,2.76894 -11.46574,2.76894c-1.97803,0 -4.93366,-0.1613 -7.34759,0.00424c-1.85457,0.12718 -3.82895,0.93206 -5.56356,0.84046c-1.90796,-0.10075 -3.49076,-1.11072 -3.49076,-1.22912c0,-0.1233 1.74994,0.72785 3.82003,0.70207c1.64631,-0.02051 3.43368,-0.90279 5.14532,-1.06599c2.5277,-0.24102 5.47025,0.12436 7.51456,0.12436c5.16927,0 11.38774,-2.51111 11.38774,-2.14495z" fill="#4e6f7d" stroke="none" stroke-width="0"/><path d="M286.97423,158.94256c-5.72613,4.43433 -14.22908,8.21815 -24.17944,8.93729c-4.12936,0.29844 -9.86927,0.75165 -15.61205,0.77655c-3.95899,0.01717 -9.10984,-0.45978 -13.4174,-1.24461c-5.50499,-1.003 -9.75617,-2.38536 -9.70967,-2.55437c0.09469,-0.34414 5.4017,0.8859 11.87096,1.10872c7.53292,0.25945 15.49986,-0.08172 19.32833,-1.8562c1.36136,-0.63098 5.39354,-3.56231 6.77765,-3.49982c3.81755,0.17236 6.22703,-0.42437 9.30073,-0.67613c2.77246,-0.22709 5.61293,0.39167 8.09227,0.30802c2.98735,-0.10079 7.86035,-1.54087 7.54862,-1.29945z" fill="#aedeeb" stroke="none" stroke-width="0"/><g stroke="none"><g stroke-width="1"><path d="M242.22106,172.6089c-1.48614,1.26125 -3.96615,1.99557 -7.4456,2.1478c-0.35099,0 -0.58499,-0.23399 -0.38999,-0.46799c1.55996,-1.94996 6.82484,-8.42381 5.81087,-10.45176c2.9004,-0.87439 3.15542,-0.97824 3.22267,1.40796c0.05573,1.97737 0.54407,5.88558 -1.19794,7.36399z" fill="#6da3b2"/><path d="M240.23534,165.43591c-0.117,0.27299 -0.195,0.58499 -0.35099,0.89698c-0.117,0.31199 -0.27299,0.66298 -0.46799,0.97498c-0.195,0.31199 -0.38999,0.66298 -0.58499,0.97498c-0.195,0.31199 -0.38999,0.66298 -0.62399,0.97498c-0.195,0.35099 -0.42899,0.66298 -0.66298,0.97498c-0.195,0.35099 -0.42899,0.62399 -0.66298,0.93598c-0.42899,0.58499 -0.85798,1.13097 -1.24797,1.59896c-0.38999,0.46799 -0.70198,0.81898 -0.93598,1.09197c-0.195,0.23399 -0.35099,0.38999 -0.35099,0.38999c0,0 0.078,-0.195 0.27299,-0.46799c0.195,-0.31199 0.46799,-0.70198 0.77998,-1.20897c0.35099,-0.50699 0.70198,-1.05298 1.13097,-1.67696c0.38999,-0.62399 0.85798,-1.24797 1.28697,-1.91096c0.23399,-0.31199 0.42899,-0.66298 0.66298,-0.97498c0.23399,-0.31199 0.42899,-0.62399 0.62399,-0.93598c0.195,-0.31199 0.38999,-0.58499 0.54599,-0.89698c0.195,-0.31199 0.31199,-0.58499 0.42899,-0.85798c0.195,-0.50699 0.31199,-0.46799 0.156,0.117z" fill="#4e6f7d"/></g><path d="M243.31221,172.13856c-1.37668,2.37618 -8.62583,2.87086 -8.97527,2.66841c-0.34944,-0.20245 6.82065,-0.53789 8.19733,-2.91407c1.37668,-2.37618 0.53352,-6.96577 0.88296,-6.76332c0.34944,0.20245 1.27166,4.63279 -0.10502,7.00897z" fill="#4e6f7d" stroke-width="0"/></g><path d="M280.9627,161.55237c0,0.45589 -4.49724,1.25992 -9.49981,1.25992c-5.00257,0 -11.26721,-0.19579 -11.26721,-0.65168c0,-0.45589 6.37511,0.21723 11.37768,0.21723c5.00257,0 9.38935,-1.28136 9.38935,-0.82547z" fill="#6da3b2" stroke="none" stroke-width="0"/><path d="M274.99765,164.39919c-0.02049,0.38984 -3.78159,0.5741 -7.94219,0.33914c-4.1606,-0.23496 -9.36205,-0.69662 -9.34156,-1.08646c0.02049,-0.38984 5.29236,0.48518 9.45296,0.72014c4.1606,0.23496 7.85128,-0.36266 7.83079,0.02718z" fill="#6da3b2" stroke="none" stroke-width="0"/><path d="M268.56578,166.24909c-0.00972,0.38992 -3.01042,0.60354 -6.33734,0.40113c-3.32692,-0.20241 -7.48899,-0.62334 -7.47927,-1.01327c0.00972,-0.38992 4.23508,0.44374 7.562,0.64615c3.32692,0.20241 6.26434,-0.42394 6.25462,-0.03401z" fill="#6da3b2" stroke="none" stroke-width="0"/><path d="M272.7457,158.05497c0.33188,0.59042 0.7589,1.06391 0.70569,1.17722c-0.06095,0.12981 -0.7392,-0.40779 -1.07108,-0.99821c-0.33188,-0.59042 -0.49392,-1.14301 -0.42174,-1.26649c0.03345,-0.05722 0.45526,0.49706 0.78713,1.08748z" fill="#4e6f7d" stroke="none" stroke-width="0"/><path d="M267.32539,149.76975c0.02894,-0.28989 0.82281,-0.88582 2.613,-0.64048c2.9693,0.40693 6.7644,1.91325 7.08435,2.33024" fill="#6da3b2" stroke="#4e6f7d" stroke-width="0.5"/><path d="M271.02664,149.5884c-0.02986,0.24434 -0.74564,0.5395 -1.55501,0.44058c-0.80937,-0.09891 -1.44129,-0.41263 -1.41142,-0.65696c0.02986,-0.24434 0.71019,-0.32677 1.51956,-0.22786c0.80937,0.09891 1.47674,0.19991 1.44688,0.44424z" fill="#4e6f7d" stroke="none" stroke-width="0"/></g></g></g></svg>