<svg version="1.1" xmlns="http://www.w3.org/2000/svg" xmlns:xlink="http://www.w3.org/1999/xlink" width="95" height="171.27751" viewBox="0,0,95,171.27751"><defs><linearGradient x1="240.61951" y1="58.29925" x2="240.61951" y2="237.16747" gradientUnits="userSpaceOnUse" id="color-1"><stop offset="0" stop-color="#000000"/><stop offset="1" stop-color="#000000" stop-opacity="0"/></linearGradient><radialGradient cx="238.75002" cy="133.23937" r="47.5" gradientUnits="userSpaceOnUse" id="color-2"><stop offset="0" stop-color="#fff8e0" stop-opacity="0"/><stop offset="1" stop-color="#fff8e0"/></radialGradient></defs><g transform="translate(-191.25001,-41.22262)"><g data-paper-data="{&quot;isPaintingLayer&quot;:true}" fill-rule="nonzero" stroke-linecap="butt" stroke-linejoin="miter" stroke-miterlimit="10" stroke-dasharray="" stroke-dashoffset="0" style="mix-blend-mode: normal"><path d="M284.37023,179.70935c0.07585,1.88165 -6.82295,7.07192 -42.75929,7.07192c-35.93634,0 -45.96971,-4.43047 -45.98172,-7.45949c-0.01038,-2.6151 9.30175,-6.10294 45.23807,-6.10294c35.93634,0 43.43354,4.76932 43.50294,6.49051z" fill="url(#color-1)" stroke="none" stroke-width="0"/><text transform="translate(210.90923,206.52038) scale(0.357,0.357)" font-size="40" xml:space="preserve" fill="#ffffff" fill-rule="nonzero" stroke="#ffffff" stroke-width="0.5" stroke-linecap="butt" stroke-linejoin="miter" stroke-miterlimit="10" stroke-dasharray="" stroke-dashoffset="0" font-family="Handwriting" font-weight="normal" text-anchor="start" style="mix-blend-mode: normal"></text><text transform="translate(213.91902,56.53753) scale(0.39779,0.39779)" font-size="40" xml:space="preserve" fill="#ffffff" fill-rule="nonzero" stroke="#ffffff" stroke-width="2" stroke-linecap="butt" stroke-linejoin="miter" stroke-miterlimit="10" stroke-dasharray="" stroke-dashoffset="0" font-family="Handwriting" font-weight="normal" text-anchor="start" style="mix-blend-mode: normal"></text><text transform="translate(203.43817,73.47374) scale(0.23622,0.23622)" font-size="40" xml:space="preserve" fill="#ffffff" fill-rule="nonzero" stroke="#ffffff" stroke-width="1" stroke-linecap="butt" stroke-linejoin="miter" stroke-miterlimit="10" stroke-dasharray="" stroke-dashoffset="0" font-family="Handwriting" font-weight="normal" text-anchor="start" style="mix-blend-mode: normal"></text><g stroke="none" stroke-width="0"><path d="M248.75002,161.24999c0.97415,0.84361 -7.05887,1.66666 -17,1.66666c-9.94112,0 -17.66666,-3.04466 -17.66666,-4.33333c0,-1.28867 7.3922,3.33333 17.33333,3.33333c9.94113,0 17,-0.95533 17.33334,-0.66666z" fill="#ffffff"/><path d="M284.63212,134.35034c0,24.84838 -20.44879,44.99195 -45.67365,44.99195c-25.22486,0 -45.67365,-20.14358 -45.67365,-44.99195c0,-24.84836 20.44879,-44.99195 45.67365,-44.99195c25.22486,0 45.67365,20.14359 45.67365,44.99196z" fill="#ffee97"/><path d="M282.83335,145.33332c-0.67799,1.03269 -22.91102,4.72725 -42.32873,5.31795c-19.18682,0.58367 -44.2285,-2.92619 -44.75906,-3.61338c-2.62975,-3.40615 -3.12587,-19.84999 -0.24554,-26.70456c-0.25107,-1.02784 21.71225,-3.19561 43.99942,-3.53814c22.91956,-0.35225 41.84828,1.14903 41.64554,2.16184c5.94144,7.95639 3.00398,24.3724 1.68837,26.3763z" fill="#fff1c0"/><path d="M279.16669,156.66667c-0.67799,1.03269 -19.91102,5.06058 -39.32873,5.65127c-19.18682,0.58367 -38.56183,-2.25952 -39.09239,-2.94671c-2.62975,-3.40615 -6.12588,-12.84999 -6.57888,-14.70456c-0.25107,-1.02784 21.71225,1.13773 43.99942,0.79519c22.91956,-0.35226 46.18161,-3.18429 45.97888,-2.17149c-0.72523,3.62305 -3.66268,11.3724 -4.9783,13.3763z" fill="#ffd782"/><path d="M272.16669,103.99999c3.66667,3.65957 -22.35735,-1.5 -32.66667,-1.5c-10.30931,0 -36.25797,3.67972 -33,0.83333c6,-6.9929 16.04798,-13.1309 32,-13.83333c14.66255,-0.64565 30.6046,8.44386 33.66667,14.5z" fill="#eeffca"/><path d="M252.70002,91.4399c1.09233,0.64424 -6.1279,4.69365 -6.49811,4.83516c-0.52764,0.20169 -13.80167,0.95307 -14.23522,0.77142c-1.43388,-0.6008 -9.12872,-4.64656 -6.93333,-5.40658c4.4,-1.52322 7.97867,-2.20657 13.13333,-2.20657c5.15466,0 10.93334,-0.11666 14.53333,2.00657z" fill="#cae2c9"/><path d="M286.25001,133.23937c0,25.67537 -21.26648,46.48936 -47.5,46.48936c-26.23352,0 -47.5,-20.81399 -47.5,-46.48936c0,-25.67537 21.26648,-46.48936 47.5,-46.48936c26.23352,0 47.5,20.81399 47.5,46.48936z" fill="url(#color-2)"/></g></g></g></svg>