<svg version="1.1" xmlns="http://www.w3.org/2000/svg" xmlns:xlink="http://www.w3.org/1999/xlink" width="107.83546" height="166.72641" viewBox="0,0,107.83546,166.72641"><defs><linearGradient x1="240.61952" y1="58.29926" x2="240.61952" y2="237.16749" gradientUnits="userSpaceOnUse" id="color-1"><stop offset="0" stop-color="#000000"/><stop offset="1" stop-color="#000000" stop-opacity="0"/></linearGradient></defs><g transform="translate(-185.75001,-45.77373)"><g data-paper-data="{&quot;isPaintingLayer&quot;:true}" stroke-linecap="butt" stroke-linejoin="miter" stroke-miterlimit="10" stroke-dasharray="" stroke-dashoffset="0" style="mix-blend-mode: normal"><path d="M284.37023,179.70937c0.07585,1.88165 -6.82295,7.07192 -42.75929,7.07192c-35.93634,0 -45.96971,-4.43047 -45.98172,-7.45949c-0.01038,-2.6151 9.30175,-6.10294 45.23807,-6.10294c35.93634,0 43.43354,4.76932 43.50294,6.49051z" fill="url(#color-1)" fill-rule="nonzero" stroke="none" stroke-width="0"/><text transform="translate(223.40924,206.52039) scale(0.357,0.357)" font-size="40" xml:space="preserve" fill="#ffffff" fill-rule="nonzero" stroke="#ffffff" stroke-width="0.5" stroke-linecap="butt" stroke-linejoin="miter" stroke-miterlimit="10" stroke-dasharray="" stroke-dashoffset="0" font-family="Handwriting" font-weight="normal" text-anchor="start" style="mix-blend-mode: normal"></text><text transform="translate(193.66359,62.01931) scale(0.42752,0.42752)" font-size="40" xml:space="preserve" fill="#ffffff" fill-rule="nonzero" stroke="#ffffff" stroke-width="1" stroke-linecap="butt" stroke-linejoin="miter" stroke-miterlimit="10" stroke-dasharray="" stroke-dashoffset="0" font-family="Handwriting" font-weight="normal" text-anchor="start" style="mix-blend-mode: normal"></text><g fill-rule="evenodd" stroke="none" stroke-width="1"><path d="M255.18169,131.15655c-0.17371,0.26057 -0.46322,0.46322 -0.66588,0.72379c-0.46322,0.60798 -0.46322,1.15806 -0.20266,1.85289c0.57903,1.50547 0.20266,3.24257 -1.0133,4.31377c-0.57903,0.52113 -1.36072,0.83959 -2.11346,0.92645c-1.04225,0.1158 -0.98435,0.1158 -1.85289,0.95539c-0.72379,0.75274 -0.86855,2.0266 -1.62128,2.75039c-0.46322,0.46322 -1.21596,1.24491 -3.03991,0.92645c-0.98435,-0.20266 -1.70813,-0.49218 -2.66353,-0.69484c-1.41862,-0.28951 -1.24491,-0.14475 -2.25821,0.69484c-1.36072,1.10016 -3.35837,1.76603 -4.77699,0.52112c-0.75274,-0.66589 -1.12911,-1.47652 -1.70813,-2.25821c-0.86854,-1.18701 -1.85289,-1.10016 -3.18466,-1.18701c-1.50547,-0.08686 -2.51878,-1.41862 -2.51878,-2.982c-0.02895,-1.0133 0.1158,-2.11345 -0.46322,-3.0399c-0.43427,-0.69483 -0.86855,-1.21597 -1.36072,-1.8529c-1.27387,-1.59233 -0.75274,-3.15571 0.02895,-4.80594c0.57903,-1.21596 -0.8396,-1.82394 -0.52113,-3.01095c0.20266,-0.75274 2.40297,-1.79499 2.54773,-3.76369c0.05791,-0.75274 -0.1737,-3.1557 1.47653,-2.98199c0.49218,0.05791 1.15806,0.08685 1.59233,-0.20266c0.55007,-0.37637 0.55008,-0.55008 0.66589,-1.15806c0.34742,-1.85289 1.50547,-2.8083 3.41627,-2.22927c0.72379,0.23161 1.27387,0.57903 2.0266,0.49218c0.78169,-0.08685 1.15806,-0.66589 1.79499,-1.04225c0.69483,-0.43427 1.70814,-0.81064 2.54773,-0.60798c0.81064,0.20266 0.92644,0.8396 1.38967,1.44758c0.9554,1.24491 2.11346,0.1737 3.27151,0.02895c1.41862,-0.17371 2.60564,0.63693 2.89515,1.85289c0.1158,0.46322 0.26056,0.78169 0.57903,1.12911c0.43427,0.46322 0.63693,0.49218 1.21596,0.52113c0.69483,0.02895 1.65023,0.34741 2.14241,0.83959c1.38967,1.44757 0.1158,3.35836 0.28951,5.09545c0.1158,1.30281 1.187,1.65023 1.91079,2.54773c0.46322,0.55008 0.72378,1.27386 0.75274,1.99765c0.02895,0.78169 -0.1737,1.56338 -0.57903,2.20031z" fill="#df6530"/><path d="M253.79202,132.08299c0.23161,1.0133 0.31846,2.11346 -0.31847,3.01095c-0.37637,0.52113 -0.89749,0.49218 -1.27387,0.89749c-0.9554,1.04225 -0.26056,2.54773 -1.12911,3.8795c-0.49218,0.75274 -2.05554,0.86854 -2.98199,0.92645c-0.08685,0 -0.55007,0.08685 -0.60798,0.46322c-0.40532,1.44757 -2.08451,1.67919 -3.50313,1.795c-1.0712,0.08686 -1.9108,0.72379 -3.01095,0.55008c-0.49218,-0.08686 -0.98434,-0.34742 -1.47652,-0.40532c-0.75274,-0.08686 -1.01331,0.26056 -1.65024,0.34742c-0.9554,0.08686 -1.50548,-0.63693 -2.31612,-0.9554c-0.83959,-0.31847 -1.76604,-0.20266 -2.57668,-0.63693c-0.86854,-0.46322 -1.33176,-1.36072 -2.1424,-1.88185c-0.63693,-0.40533 -1.0133,-0.8975 -1.33177,-1.59233c-0.28951,-0.57903 -0.34742,-1.01329 -0.92645,-1.38967c-0.28951,-0.20266 -0.52112,-0.26056 -0.78169,-0.52112c-0.63693,-0.63693 -1.41861,-0.92645 -1.53442,-2.60563c-0.02895,-0.49218 -0.20266,-0.8396 -0.20266,-1.33176c0,-0.52113 -0.05791,-0.86855 -0.20266,-1.41862c-0.28951,-0.9554 0.14476,-1.88184 0.34742,-2.86619c0.23161,-1.24491 -0.05791,-2.22927 0,-3.50313c0.02895,-0.8975 0.31847,-1.56337 0.9554,-2.20031c0.40533,-0.37637 0.92645,-0.60798 1.24491,-1.10016c0.34742,-0.55008 0.43427,-1.21596 0.69483,-1.79499c0.31847,-0.72379 0.75274,-1.30282 1.50548,-1.65023c0.05791,-0.02895 2.40296,-0.8396 4.19796,-2.60563c1.15805,-1.15806 2.60563,-0.14476 4.11111,-0.08685c1.67918,0.05791 3.06886,-0.69483 4.71909,-0.0579c0.75274,0.28951 1.44757,0.78169 2.20031,1.0133c0.72379,0.23161 1.15806,-0.02895 1.9108,0.14476c1.41862,0.34741 2.05555,2.89514 3.0978,4.14006c1.04225,1.21596 2.43192,1.36071 2.80829,3.0399c0.20266,0.81064 -0.08686,1.59232 0.26056,2.34506c0.28951,0.60798 0.78169,1.07121 0.98435,1.70814c0.43427,1.41863 -1.33177,3.35837 -1.0712,4.34272z" fill="#ea9b1f"/><path d="M240.12693,116.04389c1.47653,0 3.1557,0.9554 4.48747,1.44758c1.41862,0.49218 2.63458,0.37636 3.79264,1.30281c1.0712,0.86854 0.95541,1.99765 1.70814,3.18466c0.52113,0.81064 1.93974,1.44758 2.43192,2.48982c0.69483,1.44757 0.40532,3.32941 0.40532,4.77698c0,0.98435 0.40532,2.8662 0.20266,3.79264c-0.49218,2.14241 -2.69249,2.80829 -4.08215,4.40062c-1.12911,1.27387 -1.85289,2.63458 -3.38732,3.35837c-1.67918,0.81064 -3.0978,1.9687 -5.09545,1.9687c-1.0712,0 -2.57668,-1.44757 -3.56103,-1.70814c-1.33177,-0.31847 -3.93739,0.31847 -4.57432,-0.86854c-2.14241,-4.0532 -2.83725,-3.50312 -3.85055,-5.0086c-1.36072,-2.0266 -0.89749,-3.44522 -0.89749,-6.0798c0,-1.36072 -0.75274,-2.66354 -0.34742,-3.8795c0.49218,-1.53443 1.85289,-2.80828 2.83724,-4.02424c1.38967,-1.73709 3.96635,-2.46088 6.05086,-3.30047c1.38967,-0.55008 2.22926,-1.85289 3.87949,-1.85289z" fill="#f3bb1b"/><path d="M228.57531,129.24575c0,-6.37979 5.17184,-11.55163 11.55163,-11.55163c6.37979,0 11.55163,5.17184 11.55163,11.55163c0,6.37979 -5.17184,11.55163 -11.55163,11.55163c-6.37979,0 -11.55163,-5.17183 -11.55163,-11.55163z" fill="#f9d20d"/></g><path d="M292.33547,129.50001c0,27.61424 -23.58015,50 -52.66773,50c-29.08759,0 -52.66773,-22.38576 -52.66773,-50c0,-27.61424 23.58014,-50 52.66773,-50c29.08759,0 52.66773,22.38576 52.66773,50z" fill="none" fill-rule="nonzero" stroke="#ffffff" stroke-width="2.5"/><g stroke="none" stroke-width="1"><path d="M186.83333,99.82069c0,-5.05561 4.09839,-9.154 9.154,-9.154c5.05561,0 9.154,4.09839 9.154,9.154c0,5.05561 -4.09839,9.154 -9.154,9.154c-5.05561,0 -9.154,-4.09839 -9.154,-9.154z" fill="#0077b8" fill-rule="evenodd"/><path d="M186.96471,98.27178c-0.015,0.0877 -0.02868,0.17606 -0.04102,0.26443c0.01234,-0.09004 0.02601,-0.1784 0.04102,-0.26443z" fill="#74b140" fill-rule="evenodd"/><path d="M187.03674,98.16974c-0.02739,0.03093 -0.05174,0.06443 -0.07269,0.10004c0.012,-0.0698 0.02468,-0.13916 0.03801,-0.20807v-0.002c0.01367,-0.06936 0.02801,-0.13805 0.04301,-0.20674c0.02179,0.00889 0.04205,0.02115 0.06002,0.03634c0.03701,0.03168 0.0777,0.08836 0.06669,0.14039c-0.01301,0.06203 -0.09337,0.09504 -0.13505,0.14005z" fill="#74b140" fill-rule="evenodd"/><path d="M188.06645,95.41641c-0.04627,0.0432 -0.10037,0.07716 -0.15939,0.10004c0.03357,-0.06336 0.06802,-0.12605 0.10337,-0.18807c0.24656,-0.43444 0.52827,-0.84798 0.84231,-1.23645c0.05068,-0.06291 0.10215,-0.12526 0.15439,-0.18707c0.06442,0.01794 0.12187,0.05503 0.16473,0.10637c0.06536,0.07969 0.05469,0.12204 0.01267,0.18873c0.03873,-0.00479 0.07671,-0.01443 0.11305,-0.02868c0.04374,-0.01129 0.08964,-0.01129 0.13338,0c0.08669,0.02434 0.15539,0.09236 0.20807,0.16239c0.0857,0.11371 0.14039,0.24975 0.20274,0.37714l0.19807,0.40448c0.05669,0.11537 0.16439,0.36513 -0.00234,0.44883c-0.06195,0.02689 -0.13386,0.01545 -0.1844,-0.02934c-0.03568,-0.02701 -0.08703,-0.10571 -0.13805,-0.12904c0.01706,0.14324 0.05691,0.28283 0.11805,0.41349c0.00991,0.0184 0.00808,0.04091 -0.00467,0.05746c-0.01274,0.01656 -0.03403,0.02409 -0.05435,0.01923c-0.04681,-0.01022 -0.09515,-0.01136 -0.14239,-0.00333c0.02401,0.11037 0.02168,0.22408 -0.07836,0.29845c-0.01406,0.00799 -0.031,0.00908 -0.04597,0.00296c-0.01497,-0.00612 -0.02629,-0.01877 -0.03073,-0.03431c-0.10541,-0.31561 -0.34304,-0.56967 -0.6509,-0.69592c-0.02123,-0.00747 -0.03543,-0.02751 -0.03543,-0.05001c0,-0.0225 0.0142,-0.04256 0.03543,-0.05001c0.11871,-0.03134 0.24709,-0.02868 0.36247,-0.07169c0.06055,-0.01892 0.11272,-0.05814 0.14772,-0.11104c0.02901,-0.05435 -0.00067,-0.10904 -0.01667,-0.16406c-0.05602,-0.19107 -0.13838,-0.45517 -0.38147,-0.4605c-0.23575,-0.00633 -0.18573,0.28244 -0.24676,0.43349c-0.05235,0.12471 -0.16139,0.21875 -0.30011,0.17173c-0.05035,-0.017 -0.10571,-0.06069 -0.15705,-0.02301c-0.02739,0.0272 -0.04846,0.0601 -0.06169,0.09637c-0.03035,0.06402 -0.05535,0.13005 -0.10571,0.1814z" fill="#74b140" fill-rule="evenodd"/><path d="M191.39466,103.98853c0.07969,0.27743 -0.21641,0.42215 -0.30611,0.64423c-0.1097,0.27044 -0.00234,0.57921 -0.12438,0.84998c-0.04879,0.10957 -0.13734,0.19656 -0.24775,0.24342c-0.13505,0.06035 -0.2721,0.09004 -0.38114,0.19708c-0.1994,0.19574 -0.2811,0.49851 -0.41248,0.75328c-0.10571,-0.09236 -0.20574,-0.18774 -0.30577,-0.28477c-0.1654,-0.16039 -0.32545,-0.32579 -0.47817,-0.49819c-0.24571,-0.27668 -0.47443,-0.56799 -0.68492,-0.87232c-0.54872,-0.79278 -0.96809,-1.66765 -1.24245,-2.59195l0.00367,0.002c0.20208,-0.16473 0.32745,-0.50185 0.63957,-0.41549c0.01548,0.00463 0.02804,0.01603 0.03413,0.031c0.00609,0.01497 0.00507,0.03189 -0.00278,0.04602c-0.00833,0.01801 -0.01634,0.03634 -0.02468,0.05469l0.53353,0.06836c0.14739,0.01867 0.34245,0.00967 0.44749,0.13071c0.04501,0.05202 0.06802,0.11904 0.11171,0.17173c0.05509,0.06051 0.12513,0.10547 0.20307,0.13038c0.12838,0.04769 0.26877,0.06369 0.39514,0.11904c0.10645,0.04208 0.19849,0.11398 0.2651,0.20708c0.02926,0.04379 0.04746,0.09401 0.05302,0.14638c0.00767,0.07802 -0.01968,0.12204 0.05836,0.17506c0.07802,0.05302 0.17506,0.0897 0.25943,0.13338c0.07036,0.03668 0.14039,0.07603 0.21208,0.10938c0.14772,0.0707 0.29377,0.04468 0.44483,0.08836c0.05703,0.01753 0.1086,0.04946 0.14972,0.0927c0.01883,0.02188 0.03899,0.0426 0.06035,0.06203c0.04168,0.03268 0.0917,0.03201 0.14172,0.04135c0.09804,0.01834 0.17139,0.06703 0.19774,0.16506z" fill="#74b140" fill-rule="evenodd"/><path d="M186.91908,100.04493c-0.02557,-0.01463 -0.05679,-0.01545 -0.08308,-0.00217c-0.00266,-0.07403 -0.00266,-0.14772 -0.00266,-0.22208c0,-0.06913 0.00133,-0.13838 0.004,-0.20774c0,-0.022 0,-0.04435 0,-0.06669c0.00167,-0.04802 0.00333,-0.09637 0.00567,-0.14439c0.00133,-0.03001 0.00433,-0.06002 0.00433,-0.0897c0.00266,-0.05235 0.00601,-0.1017 0.00967,-0.15239c0.00266,-0.04135 0.00633,-0.08236 0.00967,-0.12338l0.00734,-0.05269c0.01356,-0.15028 0.03079,-0.29967 0.05169,-0.44816c0.02267,0.02668 0.05802,0.03601 0.10904,0.00567c0.05102,-0.03035 0.07302,-0.0887 0.09036,-0.14205c0.03335,-0.10204 0.05535,-0.31278 0.18506,-0.34612c0.10671,-0.02701 0.15639,0.09871 0.16173,0.1814c0.00057,0.06275 -0.00706,0.1253 -0.02267,0.18607c0.14539,-0.11904 0.3708,-0.26877 0.13071,-0.40482c-0.07542,-0.03914 -0.1345,-0.10378 -0.16673,-0.1824c-0.04402,-0.09537 -0.09837,-0.15005 -0.20508,-0.16673c-0.03819,-0.00562 -0.07678,-0.00808 -0.11537,-0.00734c0.03601,-0.14872 0.07603,-0.29644 0.11904,-0.44249c0.00367,-0.012 0.00734,-0.02401 0.01067,-0.03568c0.01301,-0.04335 0.02634,-0.08669 0.04001,-0.12971c0.005,-0.015 0.01034,-0.03234 0.01567,-0.04835c0.02067,-0.06402 0.04202,-0.12805 0.06402,-0.19141l0.03335,-0.0937l0.03168,-0.08669c0.01434,-0.03768 0.02868,-0.0757 0.04335,-0.11337c0.00867,-0.02234 0.017,-0.04468 0.02567,-0.06669c0.02634,0.01968 0.05202,0.03902 0.07603,0.05769c0.25076,0.19907 0.4565,0.51386 0.38981,0.84164c0.07469,0 0.13539,-0.06203 0.15806,-0.13605c0.02868,-0.09504 0.00034,-0.19907 -0.02168,-0.29278c-0.00421,-0.01577 -0.00093,-0.0326 0.00891,-0.04562c0.00984,-0.01303 0.02512,-0.0208 0.04144,-0.02107c0.12174,0.018 0.24066,-0.04694 0.29131,-0.1591c0.05066,-0.11216 0.02076,-0.24432 -0.07323,-0.32375c-0.01139,-0.01148 -0.01684,-0.02759 -0.01475,-0.04363c0.00209,-0.01604 0.01147,-0.03022 0.02542,-0.0384c0.18908,-0.07745 0.32218,-0.25025 0.3488,-0.45283c0.00055,-0.0185 0.01065,-0.0354 0.02669,-0.04464c0.01604,-0.00925 0.03572,-0.00951 0.05201,-0.00071c0.17006,0.07269 0.36613,0.16739 0.44416,0.34746c0.04435,0.10137 0.00534,0.25176 0.12071,0.30511c0.13672,0.06302 0.27477,-0.04402 0.37714,-0.12471c0.01529,-0.01402 0.03732,-0.01791 0.05648,-0.00998c0.01917,0.00794 0.03199,0.02627 0.03289,0.04699c0.04397,0.40324 0.15676,0.79596 0.33345,1.16109c0.0115,0.02058 0.00793,0.04629 -0.00874,0.06295c-0.01667,0.01667 -0.04238,0.02023 -0.06295,0.00874c-0.09504,-0.05068 -0.21808,0.07669 -0.30011,0.11404c-0.09437,0.04301 -0.18641,0.03601 -0.28411,0.00734c-0.12538,-0.03668 -0.23575,-0.07503 -0.3668,-0.04168c-0.09139,0.02346 -0.17377,0.07348 -0.23675,0.14372l0.31912,0.00734c0.01633,0.0003 0.03163,0.00806 0.04151,0.02106c0.00988,0.013 0.01327,0.02981 0.00918,0.04563c-0.03122,0.15846 0.02401,0.32158 0.14505,0.42849c0.01272,0.01337 0.01756,0.03239 0.0128,0.05022c-0.00476,0.01783 -0.01846,0.03189 -0.03615,0.03714c-0.08703,0.02734 -0.17439,0.06069 -0.2631,0.08203c-0.04528,0.01603 -0.09548,0.00973 -0.13539,-0.017c-0.04468,-0.03368 -0.07103,-0.09203 -0.0957,-0.14405c-0.00927,0.01639 -0.02047,0.03161 -0.03335,0.04535c-0.05535,0.05836 -0.13071,0.06703 -0.20374,0.0917c-0.10304,0.03468 -0.22174,0.13204 -0.16439,0.25342c0.00896,0.01631 0.00878,0.03611 -0.00048,0.05225c-0.00926,0.01614 -0.02627,0.02629 -0.04487,0.02678c-0.20368,0.01967 -0.39037,0.122 -0.51652,0.2831c-0.02734,0.03368 -0.07503,0.01 -0.08736,-0.02334c-0.00018,-0.00111 -0.00018,-0.00223 0,-0.00333c0.00266,0.06769 0.02601,0.13805 0.02034,0.20474c-0.00699,0.06603 -0.03412,0.12831 -0.0777,0.1784c-0.10738,0.13105 -0.27343,0.17406 -0.40982,0.26443c-0.32245,0.21307 -0.02101,0.63623 -0.21307,0.91834c-0.00834,0.01386 -0.02256,0.02315 -0.0386,0.02523c-0.01604,0.00208 -0.03215,-0.00328 -0.04376,-0.01455c-0.07371,-0.08704 -0.11857,-0.19482 -0.12838,-0.30845c-0.00534,-0.06903 0.022,-0.13571 0.017,-0.2024c-0.00188,-0.0294 -0.0184,-0.05589 -0.04397,-0.07052z" fill="#74b140" fill-rule="evenodd"/><path d="M187.2955,101.15483c-0.09004,-0.02468 -0.18006,-0.03234 -0.25243,-0.09704c-0.04802,-0.04269 -0.07736,-0.09504 -0.14106,-0.11571c-0.00833,-0.06869 -0.01601,-0.13739 -0.02301,-0.20674c0.03601,0.012 0.0707,0.02768 0.10004,0.04035c0.06402,0.02776 0.1254,0.06124 0.1834,0.10004c0.05135,0.03468 0.09837,0.0847 0.15339,0.11271c0.07336,0.03701 0.16039,0.02034 0.24009,0.01968c0.07969,-0.00067 0.15906,0.00266 0.23876,0.00767c0.04135,0.003 0.07436,0.05802 0.03701,0.08937c-0.07603,0.06402 -0.16372,0.13438 -0.26677,0.14338c-0.10671,0.009 -0.1724,-0.06602 -0.26943,-0.0937z" fill="#74b140" fill-rule="evenodd"/><path d="M188.0411,101.2472c0.09804,0.00266 0.22408,0.05502 0.16139,0.17439c-0.00928,0.01621 -0.02667,0.02607 -0.04535,0.02567c-0.10871,-0.007 -0.19607,0.02468 -0.30011,0.04168c-0.04971,0.01041 -0.10152,0.00135 -0.14472,-0.02535c-0.01539,-0.00221 -0.02923,-0.01053 -0.03839,-0.02309c-0.00917,-0.01255 -0.01287,-0.02828 -0.01029,-0.0436c0.00125,-0.02156 0.01398,-0.04079 0.03335,-0.05035c0.03134,-0.03935 0.06536,-0.08669 0.11238,-0.10004c0.06802,-0.01968 0.16206,-0.00133 0.23175,0.00067z" fill="#74b140" fill-rule="evenodd"/><path d="M189.10983,93.78115c0.06491,-0.07536 0.1316,-0.14939 0.20008,-0.22208c0.00728,0.01049 0.01352,0.02166 0.01867,0.03335c0.05001,0.11104 -0.02934,0.19641 -0.14172,0.19641c-0.02584,-0.00062 -0.05158,-0.00319 -0.07703,-0.00767z" fill="#74b140" fill-rule="evenodd"/><path d="M189.54174,93.48647c-0.01971,0.00808 -0.04233,0.00357 -0.05745,-0.01144c-0.01812,-0.01438 -0.03742,-0.0272 -0.05769,-0.03835c0.05024,-0.05135 0.10103,-0.10237 0.15239,-0.15306c0,0.008 0,0.01601 0,0.02468c-0.00133,0.04335 -0.00433,0.08637 -0.00433,0.12971c-0.00025,0.02129 -0.01321,0.04037 -0.03292,0.04844z" fill="#74b140" fill-rule="evenodd"/><path d="M189.66003,93.20494c0.06269,-0.05969 0.12638,-0.11871 0.1904,-0.17707c0.004,-0.00333 0.008,-0.00667 0.01167,-0.01034c0.05902,-0.05302 0.11871,-0.10504 0.17907,-0.15673l0.02668,-0.02267c0.05802,-0.04891 0.11671,-0.0977 0.17606,-0.14638l0.02034,-0.01634c0.06536,-0.05246 0.13138,-0.10404 0.19807,-0.15473c0.12238,0.02768 0.26043,0.02368 0.35112,0.12938c0.0127,0.0134 0.01757,0.0324 0.01289,0.05025c-0.00468,0.01785 -0.01827,0.03201 -0.0359,0.03745l-0.26677,0.07436c-0.07003,0.01934 -0.15339,0.03067 -0.21608,0.06903c-0.05669,0.03434 -0.07603,0.09871 -0.14039,0.12338c-0.05402,0.02101 -0.10871,0.01034 -0.16439,0.01034c-0.11504,0.002 -0.07403,0.05802 -0.11504,0.13005c-0.02137,0.03638 -0.05824,0.06096 -0.10004,0.06669c-0.04301,0.009 -0.08669,-0.00667 -0.12771,-0.00667z" fill="#74b140" fill-rule="evenodd"/><path d="M192.64244,95.46043c-0.06368,0.01187 -0.1249,0.03442 -0.18107,0.06669c-0.04969,0.03168 -0.08236,0.07869 -0.12471,0.11837c-0.08036,0.07469 -0.16072,0.07969 -0.26677,0.07469c-0.26243,-0.01234 -0.38014,0.24775 -0.4625,0.45683c-0.07103,0.18006 -0.14872,0.36046 -0.31944,0.46683c-0.01628,0.00917 -0.0362,0.00909 -0.0524,-0.00021c-0.01621,-0.00931 -0.02633,-0.02646 -0.02663,-0.04514c-0.00774,-0.09606 -0.06809,-0.17991 -0.15673,-0.21775c-0.04535,-0.01901 -0.10004,-0.02434 -0.13338,-0.06302c-0.04135,-0.04568 -0.02701,-0.09403 -0.02368,-0.14906c0.00534,-0.0967 -0.03168,-0.17173 -0.07302,-0.25743c-0.05802,-0.12004 -0.0927,-0.23542 -0.07603,-0.3688c0.01601,-0.12971 0.06869,-0.25076 0.12038,-0.36947c0.05935,-0.14039 0.13038,-0.2881 0.13338,-0.44449c0.003,-0.1834 -0.1007,-0.32646 -0.19708,-0.47184c-0.08336,-0.12638 -0.05469,-0.29344 -0.15872,-0.40548c-0.09584,-0.10427 -0.24654,-0.13769 -0.37747,-0.0837c-0.01406,0.00799 -0.031,0.00908 -0.04597,0.00296c-0.01497,-0.00612 -0.02629,-0.01877 -0.03073,-0.03431c-0.01355,-0.05746 -0.00229,-0.11798 0.03101,-0.16673l-0.12338,-0.04035c-0.01763,-0.00533 -0.03124,-0.01944 -0.03593,-0.03725c-0.00469,-0.01781 0.0002,-0.03679 0.01292,-0.05012c0.02103,-0.02634 0.04641,-0.04889 0.07503,-0.06669c-0.05611,-0.05028 -0.08863,-0.12174 -0.0897,-0.19708c0.00018,-0.02884 0.02352,-0.05217 0.05235,-0.05235l0.32812,-0.00167l-0.04335,-0.16273c-0.00436,-0.01578 -0.00112,-0.03268 0.00874,-0.04575c0.00986,-0.01306 0.02524,-0.0208 0.04161,-0.02094c0.18307,0.02034 0.31878,-0.03835 0.48318,-0.10504c0.11537,-0.04769 0.24709,-0.04535 0.37014,-0.04269c0.10976,-0.00182 0.21878,0.01812 0.32079,0.05868c0.05237,0.0234 0.09988,0.05642 0.14005,0.09737l0.03001,0.03335c0.02701,0.02134 0.03601,0.02134 0.02701,0c0.00534,-0.012 -0.009,-0.05035 -0.00734,-0.06669c0.008,-0.08803 0.09203,-0.14005 0.17206,-0.14972c0.08003,-0.00967 0.15673,0.01634 0.23675,-0.004c0.07003,-0.01834 0.13472,-0.05702 0.20341,-0.08137c0.10371,-0.03668 0.23275,-0.04835 0.31545,0.03801c0.03656,0.03721 0.05714,0.08722 0.05735,0.13938c0.16706,-0.03335 0.44749,-0.08303 0.46917,0.10004c0.00474,0.03868 -0.00853,0.07741 -0.03601,0.10504c0.0339,-0.00101 0.06772,0.00372 0.10004,0.01401c0.01764,0.00543 0.03122,0.0196 0.0359,0.03745c0.00468,0.01785 -0.00019,0.03686 -0.01289,0.05025c-0.09737,0.10037 0.05269,0.04168 0.1027,0.02634c0.0528,-0.01598 0.10796,-0.02274 0.16306,-0.02001c0.11,0.00551 0.21528,0.04645 0.30011,0.11671c0.01356,0.01321 0.0188,0.0328 0.01367,0.05102c-0.03968,0.16072 -0.23142,0.10704 -0.31578,0.21541c-0.05001,0.06402 -0.04168,0.16139 -0.05368,0.23775c-0.01296,0.07095 -0.04105,0.13828 -0.08236,0.1974c-0.10504,0.17406 0.04568,0.41416 -0.05102,0.59589c-0.04145,0.08217 -0.14076,0.11646 -0.22408,0.07736l-0.04001,0.05569c0.13099,0.11914 0.14425,0.32055 0.03001,0.45584c-0.00983,0.01204 -0.02536,0.01789 -0.04068,0.01534c0.01481,0.01593 0.01726,0.03975 0.00601,0.05836c-0.10704,0.19307 -0.32678,0.21375 -0.51785,0.25876z" fill="#74b140" fill-rule="evenodd"/><path d="M193.26434,96.28773c-0.09603,-0.00767 -0.23309,-0.02934 -0.29278,-0.11438c-0.06669,-0.09537 -0.00567,-0.25543 -0.10404,-0.33112c-0.02871,-0.03982 -0.02871,-0.09356 0,-0.13338c0.05435,-0.09337 0.12371,-0.06502 0.1794,-0.05068c0.04882,0.01285 0.09249,0.04045 0.12505,0.07903c0.05702,0.06602 0.09236,0.1007 0.18506,0.07603c0.12505,-0.03335 0.22775,-0.14505 0.3668,-0.12071c0.10337,0.01901 0.0907,0.10204 0.07369,0.18573c-0.02301,0.11438 -0.05068,0.25509 -0.15406,0.32378c-0.11399,0.0683 -0.24685,0.09833 -0.37913,0.0857z" fill="#74b140" fill-rule="evenodd"/><path d="M195.6223,93.95335c-0.01736,-0.00473 -0.0311,-0.01798 -0.03645,-0.03516c-0.02535,-0.12138 -0.17006,-0.17373 -0.14539,-0.31611c0.02101,-0.12438 0.13338,-0.1774 0.24775,-0.15772c0.01509,0.00229 0.0278,0.01247 0.03335,0.02668c0.05336,-0.02168 0.10504,-0.08403 0.13838,-0.11037c0.03914,-0.03216 0.08457,-0.05579 0.13338,-0.06936c0.1017,-0.02701 0.21107,-0.00967 0.31111,0.01534c0.07169,0.01801 0.1684,0.03902 0.18573,0.12438c0.01333,0.07003 -0.04668,0.14072 -0.10738,0.15872c-0.06069,0.01801 -0.12138,-0.003 -0.17907,-0.01867c-0.03902,-0.00967 -0.05669,-0.022 -0.09637,0c-0.05068,0.02934 -0.03101,0.04402 -0.03101,0.09603c0.00167,0.10304 -0.01634,0.21341 -0.10571,0.2781c-0.05336,0.03835 -0.13905,0.05402 -0.1884,0c-0.02244,-0.02444 -0.03131,-0.05841 -0.02368,-0.0907l-0.00266,0.003c-0.02434,0.02968 -0.05735,0.05702 -0.08437,0.08403c-0.01333,0.01209 -0.03189,0.01654 -0.04925,0.01181z" fill="#74b140" fill-rule="evenodd"/><path d="M199.79439,102.09484c-0.12872,0.59121 -0.66224,0.94201 -0.96235,1.43685c-0.08289,0.13102 -0.14068,0.27632 -0.1704,0.42849c-0.03134,0.18006 0.01333,0.3488 0.04068,0.52553c0.03368,0.22008 0.01034,0.49318 -0.21541,0.60322c-0.05702,0.02801 -0.12271,0.03735 -0.1704,0.0887c-0.04769,0.05135 -0.05469,0.12738 -0.06035,0.19407c-0.00934,0.11037 -0.01134,0.21641 -0.05102,0.32178c-0.08669,0.23142 -0.25543,0.43182 -0.40581,0.62456c-0.13539,0.17373 -0.23908,0.40581 -0.42783,0.52852c-0.12105,0.07937 -0.28544,0.08836 -0.42582,0.10004c-0.12471,0.01 -0.29911,0.03601 -0.41782,-0.01667c-0.07903,-0.03501 -0.12105,-0.15106 -0.15439,-0.22341c-0.04995,-0.10892 -0.09045,-0.22193 -0.12105,-0.33779c-0.07436,-0.27044 -0.14372,-0.53786 -0.22475,-0.80896c-0.08103,-0.2711 -0.13805,-0.5522 -0.09704,-0.8353c0.02301,-0.15939 0.06736,-0.31545 0.05169,-0.47784c-0.01364,-0.13655 -0.05935,-0.26794 -0.13338,-0.38347c-0.06636,-0.10337 -0.1804,-0.17806 -0.23041,-0.29044c-0.05001,-0.11238 -0.007,-0.22241 0.03335,-0.32979c0.02567,-0.0657 0.05769,-0.14605 0.03335,-0.21674c-0.02668,-0.0777 -0.11004,-0.07603 -0.17506,-0.10004c-0.08536,-0.03134 -0.15106,-0.09236 -0.22142,-0.14772c-0.05368,-0.04235 -0.11904,-0.09603 -0.19307,-0.07869c-0.05068,0.012 -0.0907,0.05502 -0.13338,0.0847c-0.09337,0.06502 -0.1954,0.07003 -0.30544,0.06269c-0.08536,-0.00601 -0.16773,-0.01434 -0.25009,0.01534c-0.05469,0.01968 -0.10504,0.05035 -0.15772,0.07469c-0.08703,0.03968 -0.1794,0.06636 -0.27477,0.03968c-0.10904,-0.03035 -0.19274,-0.11404 -0.2691,-0.19274c-0.10004,-0.10304 -0.20607,-0.20407 -0.29778,-0.31412c-0.0837,-0.10004 -0.0807,-0.19974 -0.11404,-0.31878c-0.03168,-0.10837 -0.13338,-0.14572 -0.20008,-0.22842c-0.05495,-0.06429 -0.0588,-0.15782 -0.00934,-0.22642c0.03368,-0.05302 0.0807,-0.09304 0.08336,-0.15973c0.00138,-0.07127 -0.03941,-0.13665 -0.10404,-0.16673c-0.01599,-0.00955 -0.02584,-0.02673 -0.02601,-0.04535c-0.00991,-0.18782 0.05828,-0.37138 0.1884,-0.50718c0.03701,-0.03768 0.08303,-0.06502 0.11938,-0.10237c0.05035,-0.05169 0.04001,-0.10037 0.05035,-0.16239c0.01015,-0.0627 0.05812,-0.11252 0.12038,-0.12505c0.07636,-0.02134 0.15205,-0.009 0.20474,-0.08003c0.03968,-0.05402 0.05235,-0.12738 0.06669,-0.19173c0.02868,-0.13338 0.05868,-0.2651 0.16206,-0.36314c0.25676,-0.24309 0.63523,-0.14305 0.94935,-0.16506c0.1194,-0.00997 0.23528,-0.04544 0.33979,-0.10404c0.06469,-0.03335 0.13472,-0.07136 0.20974,-0.07136c0.15973,-0.00333 0.20174,0.13405 0.2651,0.25009c0.05402,0.09937 0.14106,0.11337 0.24109,0.14672c0.06819,0.02249 0.13161,0.05743 0.18707,0.10304c0.07503,0.06035 0.15005,0.15339 0.24809,0.17473c0.04969,0.01067 0.14039,-0.00534 0.17073,-0.05435c-0.03634,-0.09137 0.03935,-0.18673 0.13739,-0.19708c0.08903,-0.01 0.1844,0.03234 0.26677,0.05669l0.29711,0.08736c0.15106,0.04468 0.32412,0.0777 0.43515,0.1884c0.11104,0.11071 0.20374,0.24709 0.29811,0.37214c0.10445,0.13586 0.20001,0.27831 0.28611,0.42648c0.08137,0.14405 0.13805,0.29845 0.21474,0.44416c0.08036,0.15272 0.21307,0.24576 0.31578,0.37913c0.08003,0.10371 0.12904,0.27943 0.26677,0.32045c0.12238,0.03601 0.2581,-0.05068 0.3668,-0.0937c0.10304,-0.04068 0.21008,-0.06669 0.31678,-0.02368c0.02455,0.00995 0.03836,0.03615 0.03268,0.06203z" fill="#74b140" fill-rule="evenodd"/><path d="M199.68802,104.87785c-0.02527,0.10802 -0.06557,0.21196 -0.11971,0.30878c-0.06169,0.12071 -0.13838,0.22174 -0.16907,0.35713c-0.02301,0.10137 -0.03801,0.20708 -0.09537,0.29644c-0.0707,0.1097 -0.28577,0.22408 -0.35246,0.04301c-0.05735,-0.15772 -0.03001,-0.3588 0.08803,-0.47784c-0.0417,-0.1526 -0.01028,-0.3159 0.08504,-0.44217c0.0657,-0.08504 0.15673,-0.11771 0.23775,-0.19007c0.08103,-0.07236 0.13005,-0.1724 0.17806,-0.26677c0.01221,-0.02008 0.03623,-0.02965 0.0589,-0.02346c0.02267,0.00619 0.0385,0.02664 0.0388,0.05013c-0.00633,0.11971 0.07236,0.21942 0.05001,0.34479z" fill="#74b140" fill-rule="evenodd"/><path d="M193.94126,97.26742c0.00862,-0.02298 0.03344,-0.03546 0.05702,-0.02868c0.02357,-0.00522 0.04812,-0.00396 0.07103,0.00367c0.01602,0.00479 0.02855,0.01733 0.03335,0.03335c0.0405,0.0171 0.07671,0.04294 0.10603,0.0757c0.05702,0.06636 0.05868,0.15973 0.07136,0.24243c0.01,0.06435 0.02334,0.12605 -0.04868,0.15439c-0.10335,0.037 -0.21049,0.06239 -0.31944,0.0757c-0.06435,0.00867 -0.13138,-0.00167 -0.15639,-0.07369c-0.02501,-0.07203 0.022,-0.12638 0.06836,-0.17206c0.02609,-0.02236 0.04557,-0.05141 0.05636,-0.08403c0.0012,-0.03214 0.00042,-0.06432 -0.00234,-0.09637c0.00151,-0.03581 0.01307,-0.07048 0.03335,-0.10004c0.00854,-0.01146 0.01864,-0.02168 0.03001,-0.03035z" fill="#74b140" fill-rule="evenodd"/><path d="M194.36874,97.17538c-0.03959,-0.09162 -0.04894,-0.19348 -0.02668,-0.29077c0.01234,-0.05669 0.04102,-0.0967 0.10204,-0.10004c0.11837,-0.00667 0.14239,0.02901 0.18807,0.14405c0.04835,0.12204 0.15439,0.20674 0.2024,0.33079c0.02468,0.0599 0.03463,0.12486 0.02901,0.1894c-0.00333,0.03268 -0.01468,0.06069 -0.02101,0.09403c-0.01167,0.05902 0.00266,0.10804 0.00867,0.16673c0.012,0.11337 -0.04802,0.13872 -0.14338,0.17473c-0.08137,0.03001 -0.26243,0.09103 -0.32712,-0.00333c-0.05802,-0.08736 0.02668,-0.25476 0.06669,-0.33345c0.04735,-0.08937 0.07836,-0.15139 0.01401,-0.23908c-0.03587,-0.04067 -0.06698,-0.08531 -0.0927,-0.13305z" fill="#74b140" fill-rule="evenodd"/><path d="M202.78047,102.36461c0.02045,0.05304 0.02766,0.11027 0.02101,0.16673c0.00297,0.05772 -0.00095,0.1156 -0.01167,0.1724c-0.02334,0.0927 -0.12872,0.13805 -0.20008,0.05935c-0.03735,-0.04102 -0.04135,-0.09603 -0.04135,-0.14872c-0.00234,-0.07869 0,-0.15772 0,-0.23675c0.00014,-0.00851 0.00231,-0.01685 0.00633,-0.02434c0.00096,-0.01148 0.00578,-0.02229 0.01367,-0.03067c0.06336,-0.0707 0.17273,-0.03801 0.21208,0.04202z" fill="#74b140" fill-rule="evenodd"/><path d="M204.55045,103.06286c-0.01968,0.05135 -0.03768,0.0997 -0.05969,0.15372c-0.022,0.05402 -0.04402,0.10804 -0.06669,0.16139c-0.03935,-0.06002 -0.07836,-0.12004 -0.11805,-0.18006l-0.15606,-0.23642c-0.04769,-0.07203 -0.09337,-0.15306 -0.1784,-0.18474c-0.05502,-0.00067 -0.07436,-0.08803 -0.01367,-0.10237h0.004c0.00451,-0.00159 0.00923,-0.00249 0.01401,-0.00266c0.13238,-0.02234 0.23041,0.05602 0.31745,0.15139c0.08078,0.08504 0.16663,0.1651 0.25709,0.23975z" fill="#74b140" fill-rule="evenodd"/><path d="M198.35886,94.297c0.12971,-0.15406 0.26677,-0.30278 0.40015,-0.45417l0.20008,-0.22675c0.05269,-0.06035 0.10237,-0.12971 0.16907,-0.17673c0.08903,-0.06235 0.21775,-0.06903 0.26677,0.04301c0.04902,0.11204 -0.022,0.21942 -0.11204,0.28244c-0.15673,0.1097 -0.58188,0.48751 -0.40381,0.69059c0.06435,0.07336 0,0.27943 -0.03835,0.29311c-0.02868,0.06102 -0.18474,0.04602 -0.17973,0.03335c-0.10637,-0.02567 -0.11871,-0.02835 -0.20008,-0.10671c-0.10304,-0.09904 -0.20574,-0.25076 -0.10204,-0.37814z" fill="#74b140" fill-rule="evenodd"/><path d="M205.14033,99.82069c-0.00022,0.06913 -0.00111,0.13827 -0.00266,0.20741c0,0.015 0,0.03001 0,0.04468c-0.00167,0.05935 -0.004,0.11805 -0.00667,0.17707c-0.00133,0.02835 -0.00433,0.05669 -0.00433,0.0847c-0.002,0.03935 -0.00467,0.07869 -0.00734,0.11771c-0.00367,0.05235 -0.00734,0.1017 -0.01167,0.15239c-0.00234,0.00833 -0.00234,0.01634 -0.00234,0.02468c-0.00711,0.08181 -0.01534,0.16317 -0.02468,0.24409c-0.00689,0.06225 -0.01456,0.12427 -0.02301,0.18607c-0.01156,0.08358 -0.02412,0.16695 -0.03768,0.25009c-0.002,0.01367 -0.00433,0.02734 -0.00667,0.04102c-0.01067,0.0618 -0.02179,0.12338 -0.03335,0.18474c-0.005,0.02601 -0.00967,0.05202 -0.015,0.0777c-0.00633,0.03234 -0.01301,0.06369 -0.01968,0.09704c-0.01067,0.05135 -0.022,0.1027 -0.03335,0.15372c-0.00534,0.02334 -0.01101,0.04668 -0.01667,0.07003c-0.01134,0.04535 -0.022,0.08937 -0.03335,0.13338l-0.01401,0.05669c-0.0329,0.12694 -0.06858,0.25287 -0.10704,0.3778c-0.02045,0.06669 -0.04179,0.13338 -0.06402,0.20008v0.00266c-0.02245,0.06669 -0.04535,0.13338 -0.06869,0.20008c-0.10164,-0.1276 -0.18513,-0.26866 -0.24809,-0.41916c-0.06196,-0.15318 -0.10409,-0.31365 -0.12538,-0.4775c-0.02401,-0.1654 -0.04269,-0.33212 -0.11971,-0.48084c-0.06402,0.05169 -0.14739,0.08103 -0.21075,0.00633c-0.04602,-0.05402 -0.06269,-0.13472 -0.09337,-0.19807c-0.03761,-0.07698 -0.08062,-0.15119 -0.12872,-0.22208c-0.05435,-0.08003 -0.11104,-0.18873 -0.21875,-0.1754c-0.06235,0.00767 -0.10404,0.03067 -0.16907,0.00934c-0.04305,-0.01443 -0.08126,-0.04051 -0.11037,-0.07536c-0.03329,0.12144 -0.09606,0.23278 -0.18274,0.32412c-0.07302,0.07203 -0.16239,0.11637 -0.21775,0.20541c-0.04409,0.07747 -0.0737,0.16234 -0.08736,0.25042c-0.05636,0.2951 -0.03835,0.68692 -0.35646,0.83931c-0.02505,0.0139 -0.0566,0.00569 -0.07169,-0.01867c-0.13338,-0.25176 -0.26677,-0.50485 -0.3588,-0.77495c-0.07236,-0.21041 -0.08003,-0.4585 -0.16673,-0.66691c-0.00567,0.03001 -0.01134,0.06035 -0.01667,0.09036c-0.00463,0.01799 -0.01869,0.03205 -0.03668,0.03668c-0.11471,0.01567 -0.18673,-0.04969 -0.24809,-0.14039c-0.08536,-0.12638 -0.15906,-0.26143 -0.23608,-0.39481l-0.00833,0.00167c-0.1724,0.01834 -0.34479,0.03835 -0.51752,0.05535c-0.11004,0.01034 -0.21841,0.01367 -0.31011,-0.05636c-0.05502,-0.04068 -0.09337,-0.1017 -0.15506,-0.13138c-0.01968,-0.00921 -0.04039,-0.01604 -0.06169,-0.02034c0.12138,0.16606 0.15772,0.4455 0.37314,0.48851c0.02779,0.00778 0.04415,0.03648 0.03668,0.06435c-0.24809,0.61656 -0.92434,0.79762 -1.51255,0.926c-0.01581,0.00408 -0.03262,0.0007 -0.04563,-0.00918c-0.013,-0.00988 -0.02076,-0.02517 -0.02106,-0.04151c-0.02434,-0.26176 -0.30611,-0.41615 -0.41515,-0.64124c-0.06602,-0.13571 -0.1017,-0.28143 -0.17606,-0.41482c-0.06136,-0.10938 -0.21408,-0.37447 -0.36847,-0.34679c-0.02778,0.00672 -0.05599,-0.00936 -0.06435,-0.03668c-0.03801,-0.14539 -0.23242,-0.23142 -0.17406,-0.40415c0.02934,-0.08803 0.11671,-0.15072 0.16673,-0.22675c0.05502,-0.08532 0.09044,-0.18178 0.10371,-0.28244c-0.19807,-0.00534 -0.39615,-0.01 -0.59422,-0.01567c-0.13938,-0.00266 -0.25309,-0.02401 -0.30611,-0.16673c-0.02234,-0.06035 -0.02368,-0.12738 -0.04668,-0.1874c-0.01834,-0.04835 -0.08836,-0.16206 -0.14772,-0.06203c-0.01867,0.02868 -0.00333,0.09737 0,0.12872c0.01,0.09304 0.00934,0.22041 -0.08703,0.27343c-0.11305,0.06235 -0.19407,-0.05935 -0.22875,-0.14839c-0.03468,-0.08903 -0.04602,-0.1874 -0.08736,-0.27377c-0.04402,-0.0917 -0.12471,-0.14605 -0.20441,-0.20374l-0.26176,-0.1894c-0.01601,-0.01167 -0.1047,-0.09236 -0.12171,-0.08669c-0.06502,0.02134 0.007,0.07969 0.02634,0.10237c0.12714,0.14515 0.28365,0.26165 0.45917,0.34179c0.01765,0.01096 0.02727,0.03122 0.02461,0.05182c-0.00265,0.0206 -0.0171,0.03775 -0.03695,0.04388c-0.08336,0.01567 -0.10237,0.12371 -0.13338,0.1904c-0.02556,0.05992 -0.06991,0.1099 -0.12638,0.14239c-0.11961,0.06405 -0.26725,0.04061 -0.36113,-0.05735c-0.01432,-0.01519 -0.0184,-0.03737 -0.01041,-0.05666c0.00799,-0.01929 0.02655,-0.03209 0.04742,-0.03271c0.03495,-0.00088 0.06972,-0.00546 0.10371,-0.01367c0.03278,-0.00607 0.06186,-0.02475 0.08103,-0.05202l-0.02801,-0.08603c-0.02934,-0.02535 -0.10204,-0.02134 -0.14005,-0.04568c-0.07503,-0.04868 -0.11305,-0.13405 -0.14638,-0.21307c-0.01812,-0.0542 -0.04604,-0.10461 -0.08236,-0.14872c-0.02218,-0.02636 -0.05094,-0.04638 -0.08336,-0.05802c-0.05969,-0.01601 -0.07603,0.02601 -0.10938,0.06402c-0.04568,0.05135 -0.09704,0.10004 -0.17206,0.06669c-0.06836,-0.03067 -0.0977,-0.11504 -0.10404,-0.1844c-0.00266,-0.02835 0.00867,-0.16372 -0.01801,-0.17806c-0.01934,-0.01 -0.02768,0.09704 -0.02768,0.10804c0,0.06269 0.00367,0.13638 -0.03335,0.19074c-0.01449,0.02219 -0.03544,0.03942 -0.06002,0.04935c-0.01233,0.0044 -0.02526,0.00687 -0.03835,0.00734l0.03335,0.01834c0.01571,0.00964 0.02528,0.02676 0.02528,0.04519c0,0.01843 -0.00957,0.03554 -0.02528,0.04519c-0.08156,0.05757 -0.1559,0.12474 -0.22142,0.20008c-0.06269,0.07802 -0.07203,0.16005 -0.1077,0.24842c-0.05502,0.13172 -0.26243,0.17306 -0.38847,0.17473c-0.15406,0.00333 -0.2741,-0.09337 -0.33045,-0.23342c-0.06336,-0.15739 -0.02768,-0.32712 0.01634,-0.48551h-0.02968c-0.06669,-0.00266 -0.06669,-0.10738 0,-0.1047c0.11148,0.00567 0.22326,-0.00048 0.33345,-0.01834c0.08903,-0.015 0.20607,-0.03201 0.27477,-0.0947c0.10704,-0.0967 0.00601,-0.18573 -0.06669,-0.25709l-0.22208,-0.21875c-0.01432,-0.01519 -0.0184,-0.03737 -0.01041,-0.05666c0.00799,-0.01929 0.02655,-0.03209 0.04742,-0.03271c0.14106,0 0.28677,-0.00266 0.42215,-0.04702c0.16139,-0.05269 0.23742,-0.16173 0.30611,-0.31011c0.10337,-0.22442 0.31878,-0.36847 0.56221,-0.30011c0.0143,-0.00547 0.03042,-0.00293 0.04235,0.00667c0.06269,0.04568 0.12038,0.07869 0.19074,0.02868c0.02434,-0.01767 0.04202,-0.04402 0.06836,-0.06102c0.06079,-0.03491 0.12854,-0.05597 0.19841,-0.06169c0.0807,-0.01067 0.16639,-0.01 0.24376,-0.03735c0.13071,-0.04602 0.15473,-0.15239 0.13338,-0.2761c-0.02768,-0.16206 0.07236,-0.26709 0.22775,-0.29544c0.09871,-0.01834 0.19841,-0.01 0.29444,-0.04335c0.07635,-0.02792 0.14493,-0.07364 0.20008,-0.13338c-0.16944,-0.039 -0.34715,-0.01802 -0.50285,0.05935c-0.05235,0.02634 -0.10037,0.06102 -0.16072,0.03634c-0.05084,-0.02606 -0.09053,-0.06966 -0.11171,-0.12271c-0.05001,-0.10603 -0.03601,-0.23175 0.00601,-0.33779c0.0229,-0.05801 0.05413,-0.11238 0.0927,-0.16139c0.04335,-0.05602 0.11071,-0.11904 0.12404,-0.18573c0.01333,-0.06669 -0.04001,-0.13771 -0.11137,-0.10004c-0.03718,0.02434 -0.0663,0.05915 -0.0837,0.10004c-0.02851,0.06333 -0.06196,0.12432 -0.10004,0.1824c-0.04769,0.06469 -0.10871,0.12038 -0.14972,0.18974c-0.05636,0.09504 -0.04802,0.17173 0.00433,0.26476c0.07203,0.12838 0.01067,0.22041 -0.01101,0.3558c-0.02134,0.12238 -0.04702,0.24176 -0.16673,0.30244c-0.09137,0.04635 -0.19641,0.02468 -0.24243,-0.07103c-0.02968,-0.06235 -0.02801,-0.13605 -0.04535,-0.20274c-0.01506,-0.05819 -0.03747,-0.11421 -0.06669,-0.16673c-0.09137,0.11504 -0.15572,0.28444 -0.32479,0.27877c-0.1834,-0.00601 -0.29311,-0.23342 -0.32846,-0.38714c-0.04235,-0.18373 0.04635,-0.30845 0.20374,-0.39248c0.19974,-0.10671 0.33579,-0.24376 0.47617,-0.42015c0.15528,-0.1902 0.29999,-0.3888 0.43349,-0.59488c0.09603,-0.15139 0.21241,-0.28477 0.40915,-0.26677c0.21141,0.01901 0.40581,0.16273 0.60589,0.22508c0.1724,0.05336 0.38047,0.06903 0.52819,0.18207c0.05368,0.04235 0.11871,0.10371 0.0937,0.17573c-0.02338,0.057 -0.06977,0.10146 -0.12771,0.12238c-0.16273,0.06703 -0.30712,-0.02368 -0.46284,-0.05702c0.06185,0.14646 0.19579,0.24992 0.35313,0.27276c0.04771,0.00747 0.09641,0.00554 0.14338,-0.00567c0.07736,-0.01968 0.10204,-0.08403 0.13338,-0.15072l0.15172,-0.31878c0.02567,-0.05336 0.11671,-0.01468 0.0957,0.04035c-0.00199,0.00401 -0.00378,0.00814 -0.00534,0.01234v0.00234c-0.01601,0.04568 0.01867,0.06736 0.1047,0.06469c0.00633,-0.01034 0.01301,-0.02067 0.01968,-0.03101c0.01193,-0.02399 0.02067,-0.04944 0.02601,-0.0757c0.01138,-0.03877 0.02847,-0.07563 0.05068,-0.10938c0.04738,-0.06101 0.11178,-0.10662 0.18506,-0.13105c0.21942,-0.0847 0.47284,-0.11171 0.70626,-0.14805c0.002,-0.10037 0.08836,-0.16406 0.19274,-0.16039c0.07762,0.00886 0.15408,0.02597 0.22809,0.05102l0.21141,0.05135c-0.06936,-0.13372 -0.13972,-0.26743 -0.20008,-0.40415c-0.04235,-0.09603 -0.05902,-0.22375 0.04269,-0.29044c0.11204,-0.07403 0.21808,0.03234 0.26677,0.12605c0.03968,0.07636 0.07336,0.13972 0.14739,0.18907c0.0387,0.02503 0.07967,0.04635 0.12238,0.06369c-0.01,-0.11071 0.01301,-0.23108 0.11805,-0.26176c-0.01169,-0.04343 -0.01609,-0.08851 -0.01301,-0.13338c0.00036,-0.01858 0.01043,-0.03562 0.02654,-0.0449c0.0161,-0.00928 0.0359,-0.00945 0.05216,-0.00045c0.11271,0.06602 0.23475,0.13472 0.36513,0.13038c-0.0997,-0.09937 -0.24209,-0.1804 -0.22508,-0.33912c0.01634,-0.14039 0.14239,-0.20274 0.26677,-0.23342c-0.04835,-0.09704 -0.01134,-0.22108 0.06469,-0.30311c0.12705,-0.13739 0.32311,-0.21808 0.49218,-0.28844c0.05202,-0.02134 0.1047,-0.04202 0.15705,-0.06235c0.06802,-0.02601 0.12305,-0.05336 0.12538,-0.12938c0.00167,-0.06002 -0.01167,-0.12705 0.02168,-0.1814c0.0201,-0.04095 0.06284,-0.06581 0.10837,-0.06302c0.0538,0.04446 0.10726,0.08892 0.16039,0.13338c0.05224,0.04446 0.10404,0.08892 0.15539,0.13338l0.00367,0.003c0.05091,0.04513 0.10137,0.09081 0.15139,0.13705l0.00367,0.00333c0.05024,0.04668 0.09993,0.09381 0.14906,0.14138c0.02168,0.02267 0.04435,0.04435 0.06669,0.06669c0.47303,0.46756 0.89388,0.98512 1.25512,1.54356c0.04001,0.06158 0.07914,0.1236 0.11738,0.18607c-0.00006,0.00078 -0.00006,0.00156 0,0.00234c0.03779,0.06203 0.07491,0.12438 0.11137,0.18707l0.003,0.00467c0.03568,0.06169 0.07203,0.12438 0.10537,0.18707l0.00433,0.00734c0.03335,0.06203 0.06669,0.12438 0.10004,0.18707l0.00567,0.01034c0.03168,0.06169 0.06269,0.12404 0.09337,0.18641l0.00667,0.01367c0.02979,0.0618 0.05891,0.12371 0.08736,0.18573c0.00266,0.00601 0.00567,0.01167 0.00833,0.01734c0.02768,0.06102 0.05469,0.12271 0.08137,0.1844l0.00934,0.02134c0.02567,0.06035 0.05035,0.12105 0.07503,0.18207l0.01034,0.02601c0.02401,0.05969 0.04668,0.12004 0.06936,0.1804c0.00367,0.01 0.00767,0.02001 0.01134,0.03035c0.022,0.05902 0.04269,0.11837 0.06336,0.17806l0.01234,0.03501c0.01956,0.05847 0.03868,0.11704 0.05735,0.17573c0.00433,0.01333 0.009,0.02634 0.01301,0.03968c0.01867,0.05735 0.03501,0.11537 0.05202,0.17306c0.00433,0.015 0.009,0.02968 0.01301,0.04435c0.01634,0.05636 0.03134,0.11305 0.04635,0.17006c0.00467,0.01667 0.00934,0.03301 0.01367,0.05001c0.01434,0.05535 0.02768,0.11104 0.04102,0.16673c0.00433,0.01834 0.009,0.03668 0.01333,0.05502c0.01267,0.05469 0.02434,0.10938 0.03601,0.16439c0.00433,0.02001 0.009,0.03968 0.01301,0.05935c0.01101,0.05368 0.02101,0.10738 0.03134,0.16139c0.004,0.02134 0.00833,0.04301 0.01234,0.06469c0.00934,0.05235 0.01801,0.10537 0.02634,0.15839c0.00367,0.02301 0.008,0.04602 0.01167,0.06903c0.00767,0.05202 0.01468,0.10437 0.022,0.15673c0.00333,0.02434 0.007,0.04835 0.01,0.07269c0.00667,0.05202 0.01234,0.10404 0.01801,0.15606c0.003,0.02501 0.00601,0.05001 0.00867,0.07503c0.00534,0.05202 0.00967,0.10437 0.01401,0.15639c0.002,0.02567 0.00467,0.05102 0.00667,0.07669c0.00433,0.05402 0.00734,0.10871 0.01067,0.1634c0.00133,0.02368 0.00433,0.04702 0.00433,0.0707c0.003,0.05902 0.00667,0.11805 0.00667,0.17707c0.00067,0.01968 0.00234,0.03935 0.00234,0.05868c0,0.08003 0.00011,0.15917 0.00034,0.23742zM198.5676,98.71494c-0.03582,-0.04306 -0.08346,-0.07471 -0.13705,-0.09103c-0.03668,-0.01367 -0.07536,-0.02168 -0.11238,-0.03535c-0.02903,-0.00895 -0.056,-0.02358 -0.07937,-0.04301c-0.00961,-0.00842 -0.01511,-0.02058 -0.01511,-0.03335c0,-0.01278 0.00551,-0.02493 0.01511,-0.03335c0.01767,-0.07302 0.10603,-0.1944 -0.02734,-0.21541c-0.07236,-0.01034 -0.16139,0.02034 -0.23342,0.03335c-0.07625,0.01378 -0.15239,0.02835 -0.22842,0.04368c-0.01285,-0.01222 -0.03092,-0.01725 -0.04824,-0.01344c-0.01731,0.00381 -0.0316,0.01597 -0.03813,0.03245c-0.06102,0.16473 -0.14405,0.35346 -0.16106,0.52986c-0.01101,0.11571 0.0847,0.1794 0.1924,0.13539c0.07802,-0.03168 0.13705,-0.08903 0.22075,-0.11337c0.0957,-0.02734 0.17873,-0.03001 0.25876,0.03335c0.08803,0.06969 0.24275,0.06203 0.34279,0.01667c0.09937,-0.04568 0.11571,-0.16206 0.05068,-0.24642zM199.27386,99.04173c0.012,0.12004 0.11671,0.21442 0.21508,0.2731c0.08504,0.05068 0.20407,0.07236 0.2771,-0.01934c0.07302,-0.0917 0.00934,-0.1724 -0.04902,-0.24475c-0.02301,-0.02835 -0.03568,-0.00567 -0.01634,-0.04735c0.00633,-0.01067 0.02567,-0.022 0.03335,-0.03168c0.01532,-0.0185 0.02667,-0.03995 0.03335,-0.06302c0.01331,-0.04464 0.00042,-0.09297 -0.03335,-0.12505c-0.05702,-0.05035 -0.13071,-0.05302 -0.17907,-0.12171c-0.04655,-0.07368 -0.06764,-0.1606 -0.06002,-0.24743c0.05217,-0.0422 0.0681,-0.11493 0.03835,-0.17506c-0.04235,-0.0917 -0.15973,-0.11704 -0.25076,-0.0917c-0.25543,0.07136 -0.26376,0.3618 -0.12605,0.54353c0.03568,0.04668 0.16806,0.14172 0.15539,0.20841c-0.01,0.05169 -0.04301,0.08236 -0.03801,0.14205zM200.07482,100.30286h-0.00934c-0.11893,0.00645 -0.23776,-0.01431 -0.34746,-0.06069c-0.12271,-0.05702 -0.19007,-0.14705 -0.27911,-0.24243c-0.02267,-0.02434 -0.07302,-0.07836 -0.11271,-0.05602c-0.04602,0.02567 0.004,0.10204 0.01901,0.13038c0.03262,0.06327 0.07079,0.12353 0.11404,0.18006c0.08303,0.1027 0.1954,0.1944 0.33345,0.20008c0.11571,0.00467 0.23608,-0.04501 0.2821,-0.15139z" fill="#74b140" fill-rule="nonzero"/></g></g></g></svg>