<svg version="1.1" xmlns="http://www.w3.org/2000/svg" xmlns:xlink="http://www.w3.org/1999/xlink" width="98.59591" height="160.55006" viewBox="0,0,98.59591,160.55006"><defs><linearGradient x1="240.29956" y1="87.89564" x2="240.29956" y2="223.265" gradientUnits="userSpaceOnUse" id="color-1"><stop offset="0" stop-color="#000000"/><stop offset="1" stop-color="#000000" stop-opacity="0"/></linearGradient><radialGradient cx="240" cy="129.91669" r="49.06667" gradientUnits="userSpaceOnUse" id="color-2"><stop offset="0" stop-color="#80b3ff"/><stop offset="1" stop-color="#0063ff"/></radialGradient></defs><g transform="translate(-191.29469,-52.9801)"><g data-paper-data="{&quot;isPaintingLayer&quot;:true}" fill-rule="nonzero" stroke-linejoin="miter" stroke-miterlimit="10" stroke-dasharray="" stroke-dashoffset="0" style="mix-blend-mode: normal"><path d="M261.45846,179.78003c0.03668,1.42405 -3.29975,5.35209 -20.67938,5.35209c-17.37964,0 -22.23201,-3.35303 -22.23783,-5.64542c-0.00502,-1.97913 4.49855,-4.61877 21.87818,-4.61877c17.37963,0 21.00546,3.60948 21.03903,4.91209z" fill="url(#color-1)" stroke="none" stroke-width="0" stroke-linecap="butt"/><path d="M230.5641,178.98336v-98.13333h18.8718v98.13333z" fill="url(#color-2)" stroke="#000000" stroke-width="2" stroke-linecap="butt"/><g fill="none" stroke="#000000" stroke-width="2" stroke-linecap="round"><path d="M248.48315,86.29764h-7.71429"/><path d="M248.34029,94.4405h-4"/><path d="M248.62601,110.4405h-4.14286"/><path d="M248.34029,118.29764h-7.57143"/><path d="M244.48315,126.15479h4.14286"/><path d="M248.76886,134.29764h-7.85714"/><path d="M248.34029,142.15479h-3.85714"/><path d="M240.48315,102.15478h8"/><path d="M248.62601,150.29764h-7.71429"/><path d="M248.62601,158.01193h-4.14286"/><path d="M248.62601,166.15479h-8.14286"/><path d="M248.48315,174.29764h-4"/></g><text transform="translate(191.7482,70.44023) scale(0.45351,0.45351)" font-size="40" xml:space="preserve" fill="#ffffff" fill-rule="nonzero" stroke="#ffffff" stroke-width="2" stroke-linecap="butt" stroke-linejoin="miter" stroke-miterlimit="10" stroke-dasharray="" stroke-dashoffset="0" font-family="Handwriting" font-weight="normal" text-anchor="start" style="mix-blend-mode: normal"></text><text transform="translate(225.4613,205.7076) scale(0.46015,0.46015)" font-size="40" xml:space="preserve" fill="#ffffff" fill-rule="nonzero" stroke="#ffffff" stroke-width="1" stroke-linecap="butt" stroke-linejoin="miter" stroke-miterlimit="10" stroke-dasharray="" stroke-dashoffset="0" font-family="Handwriting" font-weight="normal" text-anchor="start" style="mix-blend-mode: normal"></text></g></g></svg>