<svg version="1.1" xmlns="http://www.w3.org/2000/svg" xmlns:xlink="http://www.w3.org/1999/xlink" width="108.06459" height="155.20499" viewBox="0,0,108.06459,155.20499"><defs><linearGradient x1="246.53637" y1="51.09376" x2="246.53637" y2="240.05834" gradientUnits="userSpaceOnUse" id="color-1"><stop offset="0" stop-color="#000000"/><stop offset="1" stop-color="#000000" stop-opacity="0"/></linearGradient><radialGradient cx="277.54919" cy="130.29119" r="49.06667" gradientUnits="userSpaceOnUse" id="color-2"><stop offset="0" stop-color="#95ff80"/><stop offset="1" stop-color="#2cff00"/></radialGradient></defs><g transform="translate(-188.1029,-56.65849)"><g data-paper-data="{&quot;isPaintingLayer&quot;:true}" fill-rule="nonzero" stroke-miterlimit="10" stroke-dasharray="" stroke-dashoffset="0" style="mix-blend-mode: normal"><path d="M296.16679,179.35687c0.08605,1.98786 -7.73989,7.47108 -48.50565,7.47108c-40.76576,0 -52.14751,-4.68056 -52.16115,-7.88054c-0.01178,-2.7627 10.55181,-6.44742 51.31757,-6.44742c40.76576,0 49.27051,5.03854 49.34923,6.85688z" fill="url(#color-1)" stroke="none" stroke-width="0" stroke-linecap="butt" stroke-linejoin="miter"/><path d="M268.11329,179.35787v-98.13333h18.8718v98.13333z" fill="url(#color-2)" stroke="#000000" stroke-width="2" stroke-linecap="butt" stroke-linejoin="miter"/><g fill="none" stroke="#000000" stroke-width="2" stroke-linecap="round" stroke-linejoin="miter"><path d="M286.03234,86.67215h-7.71429"/><path d="M281.88948,94.81501h4"/><path d="M286.1752,110.81501h-4.14286"/><path d="M278.31805,118.67215h7.57143"/><path d="M286.1752,126.5293h-4.14286"/><path d="M278.46091,134.67215h7.85714"/><path d="M282.03234,142.52929h3.85714"/><path d="M278.03234,102.52929h8"/><path d="M286.1752,150.67215h-7.71429"/><path d="M286.1752,158.38644h-4.14286"/><path d="M286.1752,166.52929h-8.14286"/><path d="M282.03234,174.67215h4"/></g><text transform="translate(192.62796,74.37426) scale(0.46015,0.46015)" font-size="40" xml:space="preserve" fill="#000000" fill-rule="nonzero" stroke="#000000" stroke-width="2" stroke-linecap="butt" stroke-linejoin="miter" stroke-miterlimit="10" stroke-dasharray="" stroke-dashoffset="0" font-family="Handwriting" font-weight="normal" text-anchor="start" style="mix-blend-mode: normal"></text><g data-paper-data="{&quot;index&quot;:null}"><path d="M242.46248,168.96256c-1.72152,1.26565 -4.1129,-1.23908 -4.77265,-2.14439c-0.95622,-1.31521 -1.27138,-1.6318 -1.47597,-3.28077c-0.20244,-1.64548 -1.0115,-7.69587 -0.68345,-9.88623c0.51617,-3.43223 2.87875,-9.14455 4.59168,-1.1515c0,0 0.53988,4.52781 0.97061,7.553l0.06889,0.33528v0c0,0 4.50912,6.23064 1.30089,8.57461zM240.18525,159.1309l0.97563,1.25706" fill="#f05a28" stroke="#000000" stroke-width="0.9025" stroke-linecap="round" stroke-linejoin="miter"/><g stroke-width="0.9025"><path d="M238.48314,153.22623c-0.31015,2.06102 -1.13647,7.42947 -1.00363,8.48981l-0.19314,-0.43289c0.3963,1.11992 0.79689,2.71226 0.66985,4.36912c-0.24699,3.21547 -2.01226,4.93842 -3.88818,5.85805l-0.02084,0.10484l-1.60952,6.41948c0.03094,-0.00072 0.30442,0.01575 2.2291,0.20101c2.43942,0.23402 1.30367,1.70355 1.30367,1.70355l-4.54714,-0.08042l-0.23259,-0.00286l-9.18838,-0.16442c-0.11272,-0.37402 -0.02299,-1.53053 0.55928,-4.45598c0.22464,-1.14935 0.43289,-2.13786 0.61449,-2.94621l0.00143,-0.00581c-3.10418,-2.41285 -2.73159,-6.14664 -1.7854,-8.7885c0.60303,-1.68994 4.04537,-14.44626 4.04537,-14.44626c0,0 1.49609,-4.89889 7.68791,-3.19391c0,0 7.12736,1.18594 5.35842,7.36854c0,0.00286 -0.00072,0.00286 -0.00072,0.00286v0v0zM229.41606,172.35247c0,0 1.82493,0.29432 4.65126,-0.84M237.47951,161.71819c-0.16227,-0.74152 -1.12278,-2.04885 -1.12278,-2.04885M223.73318,170.01924c0,0 -0.20745,0.64686 -0.55563,2.26641" fill="#f05a28" stroke="#000000" stroke-linecap="round" stroke-linejoin="round"/><path d="M231.62433,179.77621c-0.00573,0 -0.01145,0 -0.01503,0c-0.19886,-0.00931 -0.35255,-0.17659 -0.34388,-0.37402c0.00788,-0.17802 -0.03953,-0.31444 -0.14795,-0.43074c-0.45651,-0.48388 -1.83997,-0.50535 -2.66692,-0.51832c-0.24842,-0.00358 -0.46956,-0.00788 -0.64328,-0.01861c-0.10842,-0.00795 -0.20817,-0.06467 -0.2699,-0.15368c-0.06173,-0.08973 -0.08042,-0.20244 -0.04956,-0.30728c0.29647,-1.00068 0.58363,-2.01298 0.87078,-3.02519l0.36328,-1.2771c0.05457,-0.19099 0.25128,-0.30442 0.44363,-0.24627c0.19099,0.05385 0.30084,0.25343 0.24699,0.4437l-0.36328,1.27496c-0.24476,0.86434 -0.49032,1.73011 -0.74152,2.5873c0.04948,0.00072 0.10118,0.00143 0.1536,0.00286c1.06106,0.01511 2.51411,0.03802 3.17888,0.74303c0.24333,0.25701 0.35891,0.57933 0.34388,0.95192c-0.01082,0.19672 -0.16943,0.34745 -0.3597,0.34745v0v0v0z" fill="#000000" stroke="none" stroke-linecap="butt" stroke-linejoin="miter"/></g><path d="M226.75702,155.6398l-2.35542,3.87737l0.01074,-0.06825c0.07541,2.72443 -0.10842,7.45612 -2.27715,8.23073c-1.16805,0.41491 -3.91404,1.08333 -3.66418,-6.41153c0.2003,-6.03679 5.5903,-11.3715 7.67789,-13.21577c0,0 1.85794,1.03377 1.93121,3.02949c0.07318,1.9958 -1.32451,4.55509 -1.32308,4.55796v0v0zM224.41305,159.44891c0,-1.15508 -0.32017,-1.87298 -0.32017,-1.87298" fill="#f05a28" stroke="#000000" stroke-width="0.9025" stroke-linecap="round" stroke-linejoin="miter"/><g stroke-linejoin="miter"><path d="M202.25796,103.926c0,0 0.6677,-2.7366 6.34916,-8.55305c5.67851,-5.8135 11.82587,-7.81574 15.90281,-9.48699c4.07694,-1.67133 6.81434,-10.02186 6.81434,-10.02186c0,0 3.75383,4.66916 7.61187,8.91482c3.93694,4.32966 13.10448,8.12446 22.92819,18.01204c1.17234,1.18388 2.16881,2.42296 3.00658,3.69433l0.16943,0.14859c2.19458,1.90313 9.97588,9.49566 8.97798,20.54986c-0.76236,8.42164 -4.5916,11.08291 -6.44812,11.79795l-0.01511,0.06173c0.9563,-1.89453 1.52552,-3.90465 1.79478,-5.94563c0.88733,-6.74967 -2.74957,-11.13533 -5.08129,-17.00555c-3.02305,-7.61266 -11.29252,-11.89563 -21.99997,-11.68237c-20.37828,0.40274 -24.86656,11.85968 -24.86656,11.85968l-0.01511,0.14859c3.78048,7.021 5.29025,22.59442 -2.45088,27.25499c-8.33836,5.01312 -20.68477,3.26359 -25.49329,-16.10677c-4.40141,-17.72775 8.77776,-23.31303 12.65441,-23.26705l0.16076,-0.37331v0v0zM264.8702,106.48531c0,0 5.34689,8.4949 3.60667,18.99268M202.09649,104.2986c3.74882,0.10118 6.2615,2.78473 6.2615,2.78473M217.38624,116.41672c-0.63103,-0.98422 -1.07108,-1.79478 -1.07108,-1.79478" fill="#f05a28" stroke="#000000" stroke-width="0.9025" stroke-linecap="round"/><path d="M268.72601,136.16102c0,0 1.68708,-3.06107 2.82569,-8.67149c1.1371,-5.61392 -0.37983,-13.24735 -0.37983,-13.24735c1.88451,3.41791 3.31172,7.80429 2.85083,12.94157c-0.73874,8.20559 -4.54722,11.00392 -6.44963,11.79795l1.15293,-2.82068v0v0z" fill="#404041" stroke="#000000" stroke-width="0.9025" stroke-linecap="butt"/><g stroke="#231f20" stroke-width="0.9025"><path d="M189.8814,129.29218v0v0c-0.86076,-3.32389 -1.60952,-8.50707 -0.91891,-12.53732c0.70931,-4.1588 3.15517,-6.8538 5.84731,-7.50711c5.0404,-1.22834 11.13319,6.0375 13.61349,16.2245c2.33458,9.60265 0.63247,18.37175 -3.79122,20.37971c0,0 -1.44868,0.18447 -4.37198,-1.42076c-2.92115,-1.603 -5.44672,-4.35615 -6.47691,-6.13654c-1.03306,-1.77824 -3.03959,-5.67215 -3.90179,-9.00248z" fill="#404041" stroke-linecap="butt"/><path d="M193.01215,120.82099c1.93908,-0.83061 5.22996,2.50982 7.35128,7.46399c2.11925,4.95067 2.26784,9.64211 0.33099,10.472c-1.94051,0.82918 -5.22988,-2.51268 -7.34984,-7.46542c-2.12283,-4.9521 -2.26999,-9.63996 -0.33242,-10.47057v0v0zM201.54006,137.94722c-7.98446,-5.06052 -7.89537,-17.25111 -7.89537,-17.25111" fill="#929497" stroke-linecap="round"/></g><path d="M214.27132,144.13116v0v0l-0.04311,-0.05528c0.2384,-0.12918 0.47385,-0.26417 0.70644,-0.40345c7.75115,-4.6663 6.22563,-20.27559 2.43656,-27.28012l0.03086,-0.12345c0,0 4.48827,-11.45837 24.87085,-11.86039c10.70746,-0.21326 18.9755,4.06971 21.99926,11.68237c2.331,5.87093 5.96933,10.25659 5.08057,17.00555c-0.9275,7.02387 -5.41442,13.73337 -16.9754,16.46854c-11.56106,2.74456 -11.09588,1.27432 -14.9711,2.93913c-3.87442,1.67411 -4.07472,2.40848 -4.07472,2.40848c0,0 1.24123,-2.42932 -3.72448,-3.67055c-7.49772,-1.86797 -14.40179,-6.47262 -15.33573,-7.11081z" fill="#e6e7e8" stroke="#000000" stroke-width="0.9025" stroke-linecap="round"/><path d="M245.28237,142.59339c-9.12808,0.61528 -10.14754,-11.25521 -10.14754,-11.25521c0,0 5.21699,-0.16577 11.9494,-0.58363c6.73106,-0.41491 8.34488,0 8.34488,0c0,0 -1.02081,11.22291 -10.14674,11.83883v0v0z" fill="#ffffff" stroke="#000000" stroke-width="0.98409" stroke-linecap="round"/><path d="M259.12129,123.95175c-0.11343,0 -0.22758,-0.01575 -0.34388,-0.04805c-0.64543,-0.18884 -1.01802,-0.86728 -0.82632,-1.51335c0.08686,-0.30156 0.10556,-0.61306 0.056,-0.92464c-0.18455,-1.17091 -1.31807,-1.96923 -2.49972,-1.78325c-1.19461,0.18805 -2.01513,1.29508 -1.83138,2.46814c0.10484,0.66548 -0.35032,1.28999 -1.01651,1.39411c-0.67057,0.10484 -1.29007,-0.34889 -1.39419,-1.01651c-0.39486,-2.49972 1.33676,-4.85951 3.86233,-5.25931c2.52119,-0.39057 4.89459,1.31513 5.29375,3.81341c0.10556,0.67128 0.06316,1.34106 -0.12855,1.9915c-0.15647,0.53192 -0.64249,0.87794 -1.17155,0.87794v0v0v0z" fill="#000000" stroke="none" stroke-width="0.9025" stroke-linecap="butt"/><path d="M235.85416,123.95175c-0.11272,0 -0.22758,-0.01575 -0.34388,-0.04805c-0.64607,-0.18884 -1.01794,-0.86728 -0.82695,-1.51335c0.08686,-0.30156 0.10548,-0.61306 0.05743,-0.92464c-0.18526,-1.17091 -1.31521,-1.96923 -2.50043,-1.78325c-1.19461,0.18805 -2.01521,1.29508 -1.83138,2.46814c0.10405,0.66548 -0.35032,1.28999 -1.01659,1.39411c-0.67049,0.10484 -1.29007,-0.34889 -1.39483,-1.01651c-0.39415,-2.49972 1.3374,-4.85951 3.86225,-5.25931c2.51698,-0.39057 4.89682,1.31513 5.29383,3.81341c0.10548,0.67128 0.06388,1.34106 -0.12783,1.9915c-0.15647,0.53192 -0.64249,0.87794 -1.17163,0.87794v0v0v0z" fill="#000000" stroke="none" stroke-width="0.9025" stroke-linecap="butt"/></g></g><text transform="translate(228.62797,204.04092) scale(0.46015,0.46015)" font-size="40" xml:space="preserve" fill="#000000" fill-rule="nonzero" stroke="#000000" stroke-width="1" stroke-linecap="butt" stroke-linejoin="miter" stroke-miterlimit="10" stroke-dasharray="" stroke-dashoffset="0" font-family="Handwriting" font-weight="normal" text-anchor="start" style="mix-blend-mode: normal"></text></g></g></svg>