<svg version="1.1" xmlns="http://www.w3.org/2000/svg" xmlns:xlink="http://www.w3.org/1999/xlink" width="103.03836" height="160.74161" viewBox="0,0,103.03836,160.74161"><defs><linearGradient x1="240.61954" y1="58.29931" x2="240.61954" y2="237.16754" gradientUnits="userSpaceOnUse" id="color-1"><stop offset="0" stop-color="#000000"/><stop offset="1" stop-color="#000000" stop-opacity="0"/></linearGradient><radialGradient cx="208.48251" cy="92.2141" r="19.88974" gradientUnits="userSpaceOnUse" id="color-2"><stop offset="0" stop-color="#7d7d7d"/><stop offset="1" stop-color="#7d7d7d" stop-opacity="0"/></radialGradient><radialGradient cx="226.23011" cy="117.77074" r="29.83462" gradientUnits="userSpaceOnUse" id="color-3"><stop offset="0" stop-color="#7d7d7d"/><stop offset="1" stop-color="#7d7d7d" stop-opacity="0"/></radialGradient><radialGradient cx="267.24127" cy="142.58475" r="27.21028" gradientUnits="userSpaceOnUse" id="color-4"><stop offset="0" stop-color="#828282"/><stop offset="1" stop-color="#828282" stop-opacity="0"/></radialGradient><radialGradient cx="245.11838" cy="129.38612" r="13.6742" gradientUnits="userSpaceOnUse" id="color-5"><stop offset="0" stop-color="#808080"/><stop offset="1" stop-color="#808080" stop-opacity="0"/></radialGradient><radialGradient cx="218.26462" cy="113.82133" r="2.06764" gradientUnits="userSpaceOnUse" id="color-6"><stop offset="0" stop-color="#ffffff"/><stop offset="1" stop-color="#ffffff" stop-opacity="0"/></radialGradient><radialGradient cx="216.57984" cy="101.38511" r="1.40975" gradientUnits="userSpaceOnUse" id="color-7"><stop offset="0" stop-color="#ffffff"/><stop offset="1" stop-color="#ffffff" stop-opacity="0"/></radialGradient><radialGradient cx="207.9155" cy="108.04134" r="2.53757" gradientUnits="userSpaceOnUse" id="color-8"><stop offset="0" stop-color="#ffffff"/><stop offset="1" stop-color="#ffffff" stop-opacity="0"/></radialGradient><radialGradient cx="228.11139" cy="108.30496" r="1.40976" gradientUnits="userSpaceOnUse" id="color-9"><stop offset="0" stop-color="#ffffff"/><stop offset="1" stop-color="#ffffff" stop-opacity="0"/></radialGradient><radialGradient cx="212.18342" cy="124.80811" r="1.50374" gradientUnits="userSpaceOnUse" id="color-10"><stop offset="0" stop-color="#ffffff"/><stop offset="1" stop-color="#ffffff" stop-opacity="0"/></radialGradient><radialGradient cx="233.17714" cy="129.95454" r="2.16163" gradientUnits="userSpaceOnUse" id="color-11"><stop offset="0" stop-color="#ffffff"/><stop offset="1" stop-color="#ffffff" stop-opacity="0"/></radialGradient><radialGradient cx="210.2852" cy="114.86956" r="2.34959" gradientUnits="userSpaceOnUse" id="color-12"><stop offset="0" stop-color="#ffffff"/><stop offset="1" stop-color="#ffffff" stop-opacity="0"/></radialGradient><radialGradient cx="205.67713" cy="120.11805" r="2.06765" gradientUnits="userSpaceOnUse" id="color-13"><stop offset="0" stop-color="#efddc0"/><stop offset="1" stop-color="#efddc0" stop-opacity="0"/></radialGradient><radialGradient cx="200.55826" cy="100.37274" r="1.12781" gradientUnits="userSpaceOnUse" id="color-14"><stop offset="0" stop-color="#efddc0"/><stop offset="1" stop-color="#efddc0" stop-opacity="0"/></radialGradient><radialGradient cx="219.80725" cy="130.02282" r="2.81951" gradientUnits="userSpaceOnUse" id="color-15"><stop offset="0" stop-color="#efddc0"/><stop offset="1" stop-color="#efddc0" stop-opacity="0"/></radialGradient><radialGradient cx="227.62057" cy="128.12384" r="2.16163" gradientUnits="userSpaceOnUse" id="color-16"><stop offset="0" stop-color="#efddc0"/><stop offset="1" stop-color="#efddc0" stop-opacity="0"/></radialGradient><radialGradient cx="262.22921" cy="151.32119" r="2.06764" gradientUnits="userSpaceOnUse" id="color-17"><stop offset="0" stop-color="#efddc0"/><stop offset="1" stop-color="#efddc0" stop-opacity="0"/></radialGradient><radialGradient cx="261.39806" cy="133.40997" r="2.06764" gradientUnits="userSpaceOnUse" id="color-18"><stop offset="0" stop-color="#ffffff"/><stop offset="1" stop-color="#ffffff" stop-opacity="0"/></radialGradient><radialGradient cx="275.25572" cy="161.32774" r="1.40975" gradientUnits="userSpaceOnUse" id="color-19"><stop offset="0" stop-color="#ffffff"/><stop offset="1" stop-color="#ffffff" stop-opacity="0"/></radialGradient><radialGradient cx="255.17594" cy="124.48434" r="2.53756" gradientUnits="userSpaceOnUse" id="color-20"><stop offset="0" stop-color="#ffffff"/><stop offset="1" stop-color="#ffffff" stop-opacity="0"/></radialGradient><radialGradient cx="245.59619" cy="117.84711" r="1.40975" gradientUnits="userSpaceOnUse" id="color-21"><stop offset="0" stop-color="#ffffff"/><stop offset="1" stop-color="#ffffff" stop-opacity="0"/></radialGradient><radialGradient cx="248.92142" cy="114.96494" r="1.50374" gradientUnits="userSpaceOnUse" id="color-22"><stop offset="0" stop-color="#ffffff"/><stop offset="1" stop-color="#ffffff" stop-opacity="0"/></radialGradient><radialGradient cx="284.21109" cy="144.66107" r="2.16163" gradientUnits="userSpaceOnUse" id="color-23"><stop offset="0" stop-color="#ffffff"/><stop offset="1" stop-color="#ffffff" stop-opacity="0"/></radialGradient><radialGradient cx="245.22608" cy="129.97" r="2.34959" gradientUnits="userSpaceOnUse" id="color-24"><stop offset="0" stop-color="#ffffff"/><stop offset="1" stop-color="#ffffff" stop-opacity="0"/></radialGradient><radialGradient cx="251.23706" cy="131.27881" r="2.06765" gradientUnits="userSpaceOnUse" id="color-25"><stop offset="0" stop-color="#efddc0"/><stop offset="1" stop-color="#efddc0" stop-opacity="0"/></radialGradient><radialGradient cx="258.32227" cy="124.29414" r="1.12781" gradientUnits="userSpaceOnUse" id="color-26"><stop offset="0" stop-color="#efddc0"/><stop offset="1" stop-color="#efddc0" stop-opacity="0"/></radialGradient><radialGradient cx="218.18254" cy="93.67808" r="2.81951" gradientUnits="userSpaceOnUse" id="color-27"><stop offset="0" stop-color="#efddc0"/><stop offset="1" stop-color="#efddc0" stop-opacity="0"/></radialGradient><radialGradient cx="274.9362" cy="144.71292" r="2.16163" gradientUnits="userSpaceOnUse" id="color-28"><stop offset="0" stop-color="#efddc0"/><stop offset="1" stop-color="#efddc0" stop-opacity="0"/></radialGradient><radialGradient cx="282.45403" cy="156.39158" r="2.06764" gradientUnits="userSpaceOnUse" id="color-29"><stop offset="0" stop-color="#efddc0"/><stop offset="1" stop-color="#efddc0" stop-opacity="0"/></radialGradient><radialGradient cx="238.30705" cy="100.74427" r="2.06765" gradientUnits="userSpaceOnUse" id="color-30"><stop offset="0" stop-color="#ffffff"/><stop offset="1" stop-color="#ffffff" stop-opacity="0"/></radialGradient><radialGradient cx="202.15565" cy="89.78572" r="1.40975" gradientUnits="userSpaceOnUse" id="color-31"><stop offset="0" stop-color="#ffffff"/><stop offset="1" stop-color="#ffffff" stop-opacity="0"/></radialGradient><radialGradient cx="262.29775" cy="140.91188" r="2.53756" gradientUnits="userSpaceOnUse" id="color-32"><stop offset="0" stop-color="#ffffff"/><stop offset="1" stop-color="#ffffff" stop-opacity="0"/></radialGradient><radialGradient cx="240.66303" cy="137.97902" r="1.40975" gradientUnits="userSpaceOnUse" id="color-33"><stop offset="0" stop-color="#ffffff"/><stop offset="1" stop-color="#ffffff" stop-opacity="0"/></radialGradient><radialGradient cx="245.23684" cy="134.47173" r="1.50374" gradientUnits="userSpaceOnUse" id="color-34"><stop offset="0" stop-color="#ffffff"/><stop offset="1" stop-color="#ffffff" stop-opacity="0"/></radialGradient><radialGradient cx="207.92526" cy="97.18216" r="2.16163" gradientUnits="userSpaceOnUse" id="color-35"><stop offset="0" stop-color="#ffffff"/><stop offset="1" stop-color="#ffffff" stop-opacity="0"/></radialGradient><radialGradient cx="243.41392" cy="111.74507" r="2.34959" gradientUnits="userSpaceOnUse" id="color-36"><stop offset="0" stop-color="#ffffff"/><stop offset="1" stop-color="#ffffff" stop-opacity="0"/></radialGradient><radialGradient cx="245.1319" cy="128.74894" r="2.06765" gradientUnits="userSpaceOnUse" id="color-37"><stop offset="0" stop-color="#efddc0"/><stop offset="1" stop-color="#efddc0" stop-opacity="0"/></radialGradient><radialGradient cx="212.90848" cy="133.42113" r="1.12781" gradientUnits="userSpaceOnUse" id="color-38"><stop offset="0" stop-color="#efddc0"/><stop offset="1" stop-color="#efddc0" stop-opacity="0"/></radialGradient><radialGradient cx="249.25378" cy="138.89419" r="2.81951" gradientUnits="userSpaceOnUse" id="color-39"><stop offset="0" stop-color="#efddc0"/><stop offset="1" stop-color="#efddc0" stop-opacity="0"/></radialGradient><radialGradient cx="208.36007" cy="93.3601" r="2.16163" gradientUnits="userSpaceOnUse" id="color-40"><stop offset="0" stop-color="#efddc0"/><stop offset="1" stop-color="#efddc0" stop-opacity="0"/></radialGradient><radialGradient cx="227.35766" cy="142.27922" r="2.06764" gradientUnits="userSpaceOnUse" id="color-41"><stop offset="0" stop-color="#efddc0"/><stop offset="1" stop-color="#efddc0" stop-opacity="0"/></radialGradient></defs><g transform="translate(-188.70557,-51.59483)"><g data-paper-data="{&quot;isPaintingLayer&quot;:true}" fill-rule="nonzero" stroke-linecap="butt" stroke-linejoin="miter" stroke-miterlimit="10" stroke-dasharray="" stroke-dashoffset="0" style="mix-blend-mode: normal"><path d="M284.37023,179.70942c0.07585,1.88165 -6.82295,7.07192 -42.75929,7.07192c-35.93634,0 -45.96971,-4.43047 -45.98172,-7.45949c-0.01038,-2.6151 9.30175,-6.10294 45.23807,-6.10294c35.93634,0 43.43354,4.76932 43.50294,6.49051z" fill="url(#color-1)" stroke="none" stroke-width="0"/><text transform="translate(230.71781,206.35669) scale(0.357,0.357)" font-size="40" xml:space="preserve" fill="#ffffff" fill-rule="nonzero" stroke="#ffffff" stroke-width="0.5" stroke-linecap="butt" stroke-linejoin="miter" stroke-miterlimit="10" stroke-dasharray="" stroke-dashoffset="0" font-family="Handwriting" font-weight="normal" text-anchor="start" style="mix-blend-mode: normal"></text><text transform="translate(197.75543,64.70369) scale(0.34497,0.34497)" font-size="40" xml:space="preserve" fill="#ffffff" fill-rule="nonzero" stroke="#ffffff" stroke-width="1" stroke-linecap="butt" stroke-linejoin="miter" stroke-miterlimit="10" stroke-dasharray="" stroke-dashoffset="0" font-family="Handwriting" font-weight="normal" text-anchor="start" style="mix-blend-mode: normal"></text><g stroke="none" stroke-width="0"><path d="M201.79427,74.51261c10.27578,-3.88255 21.60038,0.89526 25.29419,10.67153c3.69381,9.77626 -1.64193,20.84892 -11.91772,24.73146c-10.27578,3.88255 -21.60038,-0.89526 -25.29419,-10.67152c-3.69381,-9.77626 1.64193,-20.84892 11.91771,-24.73147z" fill="url(#color-2)"/><path d="M215.68516,89.86182c14.89989,-5.62969 31.69977,2.30179 37.52359,17.71547c5.82382,15.41367 -1.53379,32.47269 -16.43367,38.10238c-14.89989,5.62969 -31.69977,-2.30179 -37.52359,-17.71547c-5.82382,-15.41367 1.53379,-32.47269 16.43367,-38.10238z" fill="url(#color-3)"/><path d="M257.62388,117.13078c12.44268,-4.70128 26.83533,2.88371 32.14687,16.94156c5.31154,14.05785 -0.46941,29.26511 -12.91209,33.96638c-12.44268,4.70128 -26.83532,-2.88372 -32.14686,-16.94156c-5.31154,-14.05785 0.46939,-29.26511 12.91208,-33.96639z" fill="url(#color-4)"/><path d="M240.28528,116.59453c6.77916,-2.5614 14.43862,1.08916 17.10787,8.15376c2.66925,7.0646 -0.6625,14.86802 -7.44166,17.42942c-6.77916,2.5614 -14.43862,-1.08916 -17.10787,-8.15376c-2.66925,-7.0646 0.6625,-14.86802 7.44166,-17.42942z" fill="url(#color-5)"/><path d="M217.47336,114.12029c-0.40361,-1.06822 -0.37654,-2.06803 0.06046,-2.23315c0.437,-0.16511 1.11845,0.567 1.52206,1.63522c0.40361,1.06822 0.37654,2.06803 -0.06046,2.23315c-0.437,0.16511 -1.11845,-0.567 -1.52206,-1.63522z" fill="url(#color-6)"/><path d="M216.01646,101.04538c0.40206,-0.66675 0.98022,-1.05514 1.29137,-0.86751c0.31115,0.18763 0.23745,0.88023 -0.16461,1.54697c-0.40206,0.66675 -0.98022,1.05514 -1.29138,0.86752c-0.31115,-0.18763 -0.23745,-0.88023 0.16461,-1.54697z" fill="url(#color-7)"/><path d="M207.25802,108.01843c0.0488,-1.40061 0.38273,-2.52576 0.74585,-2.51312c0.36312,0.01265 0.61793,1.15832 0.56913,2.55893c-0.0488,1.4006 -0.38273,2.52576 -0.74585,2.51312c-0.36312,-0.01265 -0.61792,-1.15833 -0.56913,-2.55893z" fill="url(#color-8)"/><path d="M227.21609,109.39393c-0.44105,-0.36261 -0.39774,-1.1441 0.09672,-1.74552c0.49446,-0.60142 1.25284,-0.79502 1.69388,-0.43241c0.44105,0.36261 0.39774,1.1441 -0.09673,1.74552c-0.49446,0.60142 -1.25283,0.79501 -1.69388,0.43241z" fill="url(#color-9)"/><path d="M211.52179,125.60249c-0.63814,-0.5315 -0.85925,-1.31802 -0.49384,-1.75675c0.36541,-0.43872 1.17894,-0.36352 1.81709,0.16798c0.63814,0.5315 0.85925,1.31802 0.49385,1.75674c-0.36541,0.43872 -1.17894,0.36352 -1.81709,-0.16798z" fill="url(#color-10)"/><path d="M233.44191,128.9552c1.15402,0.30575 1.97099,1.00104 1.82476,1.55295c-0.14623,0.55192 -1.20028,0.75148 -2.3543,0.44573c-1.15402,-0.30575 -1.97099,-1.00104 -1.82476,-1.55295c0.14623,-0.55192 1.20028,-0.75148 2.3543,-0.44573z" fill="url(#color-11)"/><path d="M209.6566,115.56824c-0.96467,-0.86792 -1.46526,-1.88432 -1.11809,-2.27019c0.34717,-0.38587 1.41063,0.00491 2.3753,0.87283c0.96467,0.86793 1.46526,1.88432 1.11809,2.27019c-0.34717,0.38587 -1.41063,-0.0049 -2.3753,-0.87282z" fill="url(#color-12)"/><path d="M203.63405,119.80029c0.09572,-0.61547 1.08804,-0.97214 2.21641,-0.79665c1.12836,0.1755 1.96548,0.8167 1.86975,1.43218c-0.09572,0.61547 -1.08804,0.97214 -2.2164,0.79664c-1.12836,-0.1755 -1.96548,-0.8167 -1.86976,-1.43217z" fill="url(#color-13)"/><path d="M199.94283,100.60527c-0.22015,-0.58266 -0.12308,-1.15912 0.2168,-1.28754c0.33988,-0.12842 0.79389,0.23982 1.01404,0.82248c0.22015,0.58267 0.12308,1.15912 -0.2168,1.28754c-0.33988,0.12842 -0.79389,-0.23982 -1.01404,-0.82248z" fill="url(#color-14)"/><path d="M219.25653,129.90162c0.33473,-1.52078 0.85264,-2.69933 1.15679,-2.63238c0.30416,0.06695 0.27937,1.35404 -0.05536,2.87482c-0.33473,1.52078 -0.85264,2.69933 -1.15679,2.63238c-0.30416,-0.06695 -0.27937,-1.35404 0.05536,-2.87482z" fill="url(#color-15)"/><path d="M226.09587,129.65613c-0.18397,-0.18306 0.34953,-1.01749 1.19159,-1.86375c0.84207,-0.84626 1.67384,-1.38389 1.85781,-1.20083c0.18397,0.18306 -0.34953,1.01749 -1.19159,1.86375c-0.84207,0.84626 -1.67384,1.38389 -1.85781,1.20083z" fill="url(#color-16)"/><path d="M261.41595,151.08864c0.31395,-1.09793 0.93257,-1.88385 1.38172,-1.75541c0.44915,0.12843 0.55875,1.12259 0.2448,2.22051c-0.31395,1.09793 -0.93257,1.88385 -1.38172,1.75541c-0.44915,-0.12843 -0.55876,-1.12258 -0.24481,-2.22051z" fill="url(#color-17)"/><path d="M260.66726,131.47578c0.437,-0.16511 1.11845,0.567 1.52206,1.63522c0.40361,1.06822 0.37655,2.06804 -0.06045,2.23315c-0.437,0.16511 -1.11845,-0.567 -1.52206,-1.63523c-0.40361,-1.06822 -0.37654,-2.06803 0.06046,-2.23315z" fill="url(#color-18)"/><path d="M273.91131,160.90353c0.10934,-0.3465 0.79988,-0.43747 1.54238,-0.20317c0.7425,0.23429 1.25579,0.70512 1.14645,1.05162c-0.10934,0.3465 -0.79989,0.43746 -1.54239,0.20317c-0.7425,-0.23429 -1.25578,-0.70511 -1.14644,-1.05161z" fill="url(#color-19)"/><path d="M253.43266,122.64038c0.26403,-0.2496 1.25856,0.37361 2.22135,1.39201c0.96278,1.0184 1.52923,2.04632 1.26521,2.29593c-0.26403,0.2496 -1.25856,-0.37361 -2.22134,-1.39201c-0.96278,-1.0184 -1.52924,-2.04632 -1.26521,-2.29593z" fill="url(#color-20)"/><path d="M245.76108,116.82653c0.76863,0.12418 1.31788,0.68179 1.22682,1.24544c-0.09107,0.56366 -0.78798,0.91992 -1.5566,0.79573c-0.76863,-0.12418 -1.31788,-0.68179 -1.22681,-1.24545c0.09107,-0.56366 0.78797,-0.91991 1.5566,-0.79573z" fill="url(#color-21)"/><path d="M249.15181,113.47896c0.56422,0.08747 0.91846,0.82369 0.79122,1.64438c-0.12724,0.82069 -0.68778,1.41506 -1.252,1.32759c-0.56422,-0.08747 -0.91846,-0.82369 -0.79122,-1.64438c0.12724,-0.82069 0.68779,-1.41507 1.25201,-1.32759z" fill="url(#color-22)"/><path d="M283.00971,146.4581c-0.47465,-0.31732 -0.32158,-1.37913 0.34192,-2.37161c0.6635,-0.99248 1.58616,-1.53978 2.06083,-1.22246c0.47465,0.31732 0.32158,1.37913 -0.34192,2.37161c-0.6635,0.99248 -1.58616,1.53978 -2.06083,1.22246z" fill="url(#color-23)"/><path d="M245.49717,127.6361c0.51559,0.05989 0.81219,1.15336 0.66246,2.44234c-0.14972,1.28899 -0.68907,2.28535 -1.20466,2.22546c-0.51559,-0.05989 -0.81218,-1.15336 -0.66246,-2.44234c0.14972,-1.28899 0.68907,-2.28535 1.20466,-2.22546z" fill="url(#color-24)"/><path d="M250.37012,130.55746c0.73039,-0.8778 1.71063,-1.26643 2.18944,-0.86803c0.4788,0.3984 0.27485,1.43295 -0.45555,2.31076c-0.73039,0.8778 -1.71063,1.26643 -2.18944,0.86803c-0.4788,-0.3984 -0.27485,-1.43295 0.45555,-2.31076z" fill="url(#color-25)"/><path d="M257.92365,123.23913c0.33988,-0.12842 0.7939,0.23981 1.01405,0.82248c0.22015,0.58267 0.12308,1.15912 -0.21681,1.28754c-0.33988,0.12842 -0.79389,-0.23982 -1.01404,-0.82248c-0.22015,-0.58267 -0.12309,-1.15912 0.2168,-1.28754z" fill="url(#color-26)"/><path d="M215.90702,92.01324c0.18389,-0.25135 1.35175,0.29027 2.60849,1.20974c1.25674,0.91947 2.12644,1.86859 1.94255,2.11994c-0.18389,0.25135 -1.35175,-0.29027 -2.60849,-1.20974c-1.25674,-0.91947 -2.12644,-1.86859 -1.94255,-2.11994z" fill="url(#color-27)"/><path d="M274.9669,144.244c1.19128,0.07799 2.14327,0.35115 2.12631,0.61013c-0.01696,0.25897 -0.99643,0.40569 -2.18771,0.3277c-1.19128,-0.07799 -2.14327,-0.35115 -2.12631,-0.61013c0.01696,-0.25897 0.99643,-0.40569 2.18771,-0.3277z" fill="url(#color-28)"/><path d="M280.71302,155.27621c0.252,-0.39335 1.23576,-0.21286 2.19729,0.40314c0.96153,0.616 1.53672,1.43424 1.28472,1.8276c-0.252,0.39335 -1.23576,0.21286 -2.19729,-0.40314c-0.96153,-0.616 -1.53672,-1.43424 -1.28471,-1.8276z" fill="url(#color-29)"/><path d="M240.1248,101.72963c-0.22263,0.41069 -1.21693,0.30247 -2.22085,-0.24173c-1.00392,-0.5442 -1.63728,-1.31829 -1.41466,-1.72898c0.22263,-0.41069 1.21694,-0.30246 2.22085,0.24174c1.00392,0.5442 1.63728,1.31829 1.41466,1.72898z" fill="url(#color-30)"/><path d="M203.45016,89.22747c0.14388,0.33364 -0.31905,0.85405 -1.03399,1.16236c-0.71495,0.30831 -1.41116,0.28779 -1.55504,-0.04585c-0.14388,-0.33364 0.31905,-0.85405 1.03399,-1.16236c0.71495,-0.30831 1.41115,-0.28779 1.55503,0.04585z" fill="url(#color-31)"/><path d="M264.82247,141.16686c-0.03651,0.3615 -1.19647,0.54039 -2.59083,0.39957c-1.39436,-0.14083 -2.49512,-0.54804 -2.45861,-0.90954c0.03651,-0.3615 1.19647,-0.54039 2.59083,-0.39957c1.39436,0.14083 2.49512,0.54804 2.45861,0.90954z" fill="url(#color-32)"/><path d="M241.20571,138.85895c-0.6627,0.4087 -1.44288,0.34605 -1.74259,-0.13993c-0.29971,-0.48598 -0.00546,-1.21125 0.65724,-1.61995c0.6627,-0.4087 1.44288,-0.34605 1.74259,0.13993c0.29971,0.48598 0.00546,1.21125 -0.65724,1.61995z" fill="url(#color-33)"/><path d="M246.03431,135.7466c-0.48406,0.3028 -1.23351,-0.02252 -1.67394,-0.7266c-0.44043,-0.70409 -0.40507,-1.52032 0.07899,-1.82313c0.48406,-0.3028 1.23351,0.02251 1.67395,0.7266c0.44043,0.70409 0.40506,1.52033 -0.079,1.82313z" fill="url(#color-34)"/><path d="M207.65895,95.037c0.56661,-0.07034 1.14518,0.83306 1.29225,2.01779c0.14708,1.18474 -0.19302,2.20218 -0.75964,2.27253c-0.56661,0.07034 -1.14518,-0.83306 -1.29225,-2.01779c-0.14708,-1.18474 0.19302,-2.20218 0.75964,-2.27253z" fill="url(#color-35)"/><path d="M244.73511,113.68802c-0.42922,0.29187 -1.3687,-0.34142 -2.09837,-1.41448c-0.72967,-1.07307 -0.97323,-2.17956 -0.544,-2.47143c0.42922,-0.29187 1.36869,0.34142 2.09836,1.41449c0.72967,1.07307 0.97323,2.17956 0.544,2.47143z" fill="url(#color-36)"/><path d="M246.2595,128.72772c0.02148,1.14173 -0.46595,2.07677 -1.08871,2.08849c-0.62276,0.01172 -1.14503,-0.90434 -1.1665,-2.04606c-0.02148,-1.14173 0.46596,-2.07677 1.08871,-2.08849c0.62276,-0.01172 1.14502,0.90433 1.1665,2.04606z" fill="url(#color-37)"/><path d="M213.89998,133.9586c-0.17315,0.31943 -0.75743,0.33774 -1.30503,0.04091c-0.54759,-0.29684 -0.85113,-0.79642 -0.67798,-1.11584c0.17315,-0.31943 0.75743,-0.33774 1.30503,-0.04091c0.54759,0.29684 0.85113,0.79642 0.67798,1.11584z" fill="url(#color-38)"/><path d="M252.06401,138.6656c0.02525,0.31041 -1.21246,0.66439 -2.76451,0.79064c-1.55205,0.12625 -2.8307,-0.02304 -2.85595,-0.33345c-0.02525,-0.31041 1.21246,-0.66439 2.76451,-0.79064c1.55205,-0.12625 2.8307,0.02304 2.85595,0.33345z" fill="url(#color-39)"/><path d="M208.6435,93.73492c-0.95224,0.72005 -1.85109,1.13595 -2.00762,0.92894c-0.15653,-0.20701 0.48853,-0.95854 1.44077,-1.67859c0.95224,-0.72005 1.85109,-1.13595 2.00762,-0.92894c0.15653,0.20701 -0.48853,0.95854 -1.44077,1.67859z" fill="url(#color-40)"/><path d="M229.40419,141.98449c0.06659,0.46238 -0.79569,0.96917 -1.92596,1.13195c-1.13027,0.16277 -2.10051,-0.0801 -2.1671,-0.54248c-0.06659,-0.46238 0.79569,-0.96917 1.92596,-1.13195c1.13027,-0.16277 2.10051,0.08011 2.1671,0.54248z" fill="url(#color-41)"/></g></g></g></svg>