<svg version="1.1" xmlns="http://www.w3.org/2000/svg" xmlns:xlink="http://www.w3.org/1999/xlink" width="118.4756" height="168.80824" viewBox="0,0,118.4756,168.80824"><defs><linearGradient x1="239.61889" y1="61.39429" x2="239.61889" y2="232.77418" gradientUnits="userSpaceOnUse" id="color-1"><stop offset="0" stop-color="#000000"/><stop offset="1" stop-color="#000000" stop-opacity="0"/></linearGradient></defs><g transform="translate(-177.4997,-45.38856)"><g data-paper-data="{&quot;isPaintingLayer&quot;:true}" stroke-linecap="butt" stroke-linejoin="miter" stroke-miterlimit="10" stroke-dasharray="" stroke-dashoffset="0" style="mix-blend-mode: normal"><path d="M283.33315,177.72148c0.07579,1.80287 -6.81726,6.77584 -42.72357,6.77584c-35.90631,0 -45.9313,-4.245 -45.94332,-7.14719c-0.01038,-2.50561 9.29399,-5.84744 45.20029,-5.84744c35.90631,0 43.39725,4.56966 43.46659,6.21879z" fill="url(#color-1)" fill-rule="nonzero" stroke="none" stroke-width="0"/><text transform="translate(203.53567,62.87426) scale(0.46015,0.46015)" font-size="40" xml:space="preserve" fill="#000000" fill-rule="nonzero" stroke="#000000" stroke-width="1" stroke-linecap="butt" stroke-linejoin="miter" stroke-miterlimit="10" stroke-dasharray="" stroke-dashoffset="0" font-family="Handwriting" font-weight="normal" text-anchor="start" style="mix-blend-mode: normal"></text><text transform="translate(219.46131,206.37425) scale(0.46015,0.46015)" font-size="40" xml:space="preserve" fill="#000000" fill-rule="nonzero" stroke="#000000" stroke-width="1" stroke-linecap="butt" stroke-linejoin="miter" stroke-miterlimit="10" stroke-dasharray="" stroke-dashoffset="0" font-family="Handwriting" font-weight="normal" text-anchor="start" style="mix-blend-mode: normal"></text><g><path d="M259.3477,178.3356l-28.9056,-30.7348" fill="none" fill-rule="evenodd" stroke="#ffdb5d" stroke-width="1.575"/><path d="M246.6015,178.3356c3.2308,0 3.2308,-3.1523 6.4616,-3.1523c3.2308,0 3.2308,3.1523 6.4622,3.1523c3.2282,0 3.2282,-3.1523 6.4569,-3.1523c3.2298,0 3.2298,3.1523 6.4596,3.1523" fill="none" fill-rule="evenodd" stroke="#ffdb5d" stroke-width="1.575"/><path d="M245.1677,149.4396v11.841c0,1.6408 -1.9707,2.4625 -3.1233,1.3025l-12.2765,-12.3554z" fill="#fff4e3" fill-rule="nonzero" stroke="none" stroke-width="1"/></g><g><path d="M223.5018,159.1592v19.1764" fill="none" fill-rule="evenodd" stroke="#ffdb5d" stroke-width="1.575"/><path d="M210.7557,178.3356c3.2309,0 3.2309,-3.1523 6.4617,-3.1523c3.2308,0 3.2308,3.1523 6.4616,3.1523c3.2288,0 3.2288,-3.1523 6.4575,-3.1523c3.2298,0 3.2298,3.1523 6.4596,3.1523" fill="none" fill-rule="evenodd" stroke="#ffdb5d" stroke-width="1.575"/><path d="M237.1415,150.2277l-12.2765,12.3554c-1.1526,1.16 -3.1233,0.3383 -3.1233,-1.3025v-11.841z" fill="#fff4e3" fill-rule="nonzero" stroke="none" stroke-width="1"/></g><g fill-rule="nonzero" stroke="none" stroke-width="1"><path d="M281.2528,105.9208c0,26.8879 -21.6579,48.6849 -48.3747,48.6849c-26.7162,0 -48.3741,-21.797 -48.3741,-48.6849z" fill="#fff4e3"/><path d="M177.4997,98.8717h8.744l-8.5696,-8.6252h10.8754l-10.7689,-10.838c1.7775,-0.2958 3.6004,-0.4576 5.4614,-0.4576c18.356,0 33.2359,14.9759 33.2359,33.4494c0,1.6912 -0.1274,3.3514 -0.368,4.9753l-18.7512,1.4827z" fill="#fff4e3"/><path d="M282.9493,97.4926l-2.5448,17.5346l-28.4505,-8.8658c0,0 9.1355,-21.5406 27.1454,-21.5406z" fill="#fff4e3"/><path d="M263.8518,105.9208c0,17.2162 -13.8671,31.1724 -30.9734,31.1724c-12.3684,0 -23.0438,-7.2965 -28.0083,-17.8456h18.6985l-20.4896,-13.3268z" fill="#f3e4ce"/></g><g fill-rule="nonzero" stroke="none" stroke-width="1"><path d="M292.9657,101.121c0,3.6541 -2.9432,6.6167 -6.5744,6.6167c-3.6307,0 -6.5739,-2.9626 -6.5739,-6.6167c0,-3.654 2.9432,-6.6166 6.5739,-6.6166c3.6312,0 6.5744,2.9626 6.5744,6.6166" fill="#ce2235"/><path d="M291.4002,81.9169c-0.164,0.7376 0.1962,1.5057 0.8723,1.8352c1.505,0.7339 2.4921,2.3726 2.2577,4.2161c-0.2281,1.7926 -1.6621,3.2558 -3.4406,3.5064c-1.8919,0.2674 -3.5738,-0.7802 -4.2864,-2.3642c-3.0398,-0.2868 -9.4518,-3.7507 -9.8,-3.7507h-3.8499l-0.1092,0.0016c-2.1512,-0.1571 -3.8389,-1.9954 -3.7627,-4.2183c0.0741,-2.1577 1.9007,-3.9367 4.0467,-3.9435c0.5951,-0.0016 1.1595,0.1266 1.669,0.3567c0.451,0.2049 0.9641,0.0316 1.199,-0.4071c0.6855,-1.2793 2.0266,-2.1494 3.5723,-2.1494c2.2431,0 4.0619,1.8299 4.0619,4.088c0,0.0221 -0.0032,0.0436 -0.0032,0.0657c0.758,-1.4768 2.3805,-2.4315 4.1966,-2.1746c1.7952,0.2538 3.2371,1.749 3.4459,3.5611c0.0548,0.4775 0.0277,0.9404 -0.0694,1.377" fill="#ce2235"/><path d="M282.8387,76.8581c0,0 -0.4051,-1.0508 0.2579,-0.1109c0.6635,0.9394 1.4351,1.2504 2.3747,0.7003c0.9396,-0.55 -0.2803,2.5818 -0.2803,2.5818l-1.6888,0.1297l-1.0503,-0.6924z" fill="#ce2235"/><path d="M279.6786,95.6866c1.6355,-2.8244 4.6659,-4.7284 8.1483,-4.7284c3.4825,0 6.5128,1.904 8.1484,4.7284z" fill="#ffdb5d"/><path d="M288.5611,91.7678c0,4.9753 -4.0076,9.0082 -8.9506,9.0082c-4.9436,0 -8.9507,-4.0329 -8.9507,-9.0082c0,-4.9748 4.0071,-9.0082 8.9507,-9.0082c4.943,0 8.9506,4.0334 8.9506,9.0082" fill="#e8441d"/><path d="M283.677,91.7678c0,2.2607 -1.8208,4.0932 -4.0665,4.0932c-2.2463,0 -4.0671,-1.8325 -4.0671,-4.0932c0,-2.2602 1.8208,-4.0927 4.0671,-4.0927c2.2457,0 4.0665,1.8325 4.0665,4.0927" fill="#fff4e3"/><path d="M282.2642,91.7678c0,1.4758 -1.1882,2.671 -2.6535,2.671c-1.4664,0 -2.654,-1.1952 -2.654,-2.671c0,-1.4753 1.1876,-2.671 2.654,-2.671c1.4653,0 2.6535,1.1957 2.6535,2.671" fill="#17242d"/></g></g></g></svg>