<svg version="1.1" xmlns="http://www.w3.org/2000/svg" xmlns:xlink="http://www.w3.org/1999/xlink" width="102.06645" height="177.00691" viewBox="0,0,102.06645,177.00691"><defs><linearGradient x1="242.62033" y1="-6.60764" x2="242.62033" y2="270.2804" gradientUnits="userSpaceOnUse" id="color-1"><stop offset="0" stop-color="#000000"/><stop offset="1" stop-color="#000000" stop-opacity="0"/></linearGradient><radialGradient cx="239.64561" cy="133.55148" r="51.03322" gradientUnits="userSpaceOnUse" id="color-2"><stop offset="0" stop-color="#b36324"/><stop offset="1" stop-color="#b36324" stop-opacity="0"/></radialGradient><radialGradient cx="223.65719" cy="142.02457" r="2.15913" gradientUnits="userSpaceOnUse" id="color-3"><stop offset="0" stop-color="#dbcd6e"/><stop offset="1" stop-color="#b3a236"/></radialGradient><radialGradient cx="235.79664" cy="136.11108" r="3.77449" gradientUnits="userSpaceOnUse" id="color-4"><stop offset="0" stop-color="#7f7f7f"/><stop offset="1" stop-color="#333333"/></radialGradient><radialGradient cx="231.66031" cy="135.77003" r="3.77449" gradientUnits="userSpaceOnUse" id="color-5"><stop offset="0" stop-color="#dc6e6e"/><stop offset="1" stop-color="#b23535"/></radialGradient><radialGradient cx="230.49058" cy="130.80501" r="3.77449" gradientUnits="userSpaceOnUse" id="color-6"><stop offset="0" stop-color="#7f7f7f"/><stop offset="1" stop-color="#333333"/></radialGradient><radialGradient cx="239.68862" cy="133.69374" r="3.77449" gradientUnits="userSpaceOnUse" id="color-7"><stop offset="0" stop-color="#dc6e6e"/><stop offset="1" stop-color="#b23535"/></radialGradient><radialGradient cx="233.25896" cy="133.75795" r="3.77449" gradientUnits="userSpaceOnUse" id="color-8"><stop offset="0" stop-color="#7f7f7f"/><stop offset="1" stop-color="#333333"/></radialGradient><radialGradient cx="238.24205" cy="129.14399" r="3.77449" gradientUnits="userSpaceOnUse" id="color-9"><stop offset="0" stop-color="#7f7f7f"/><stop offset="1" stop-color="#333333"/></radialGradient><radialGradient cx="233.87501" cy="127.32647" r="3.77449" gradientUnits="userSpaceOnUse" id="color-10"><stop offset="0" stop-color="#dc6e6e"/><stop offset="1" stop-color="#b23535"/></radialGradient><radialGradient cx="251.55719" cy="123.67457" r="2.15913" gradientUnits="userSpaceOnUse" id="color-11"><stop offset="0" stop-color="#dbcd6e"/><stop offset="1" stop-color="#b3a236"/></radialGradient><radialGradient cx="243.90719" cy="155.27457" r="2.15913" gradientUnits="userSpaceOnUse" id="color-12"><stop offset="0" stop-color="#dbcd6e"/><stop offset="1" stop-color="#b3a236"/></radialGradient><radialGradient cx="262.05718" cy="139.82457" r="2.15913" gradientUnits="userSpaceOnUse" id="color-13"><stop offset="0" stop-color="#dbcd6e"/><stop offset="1" stop-color="#b3a236"/></radialGradient><radialGradient cx="262.25717" cy="130.02457" r="2.15913" gradientUnits="userSpaceOnUse" id="color-14"><stop offset="0" stop-color="#dbcd6e"/><stop offset="1" stop-color="#b3a236"/></radialGradient><radialGradient cx="232.25719" cy="154.82457" r="2.15913" gradientUnits="userSpaceOnUse" id="color-15"><stop offset="0" stop-color="#dbcd6e"/><stop offset="1" stop-color="#b3a236"/></radialGradient><radialGradient cx="245.85719" cy="111.02457" r="2.15913" gradientUnits="userSpaceOnUse" id="color-16"><stop offset="0" stop-color="#dbcd6e"/><stop offset="1" stop-color="#b3a236"/></radialGradient><radialGradient cx="231.85719" cy="112.42457" r="2.15913" gradientUnits="userSpaceOnUse" id="color-17"><stop offset="0" stop-color="#dbcd6e"/><stop offset="1" stop-color="#b3a236"/></radialGradient><radialGradient cx="214.45718" cy="126.62457" r="2.15913" gradientUnits="userSpaceOnUse" id="color-18"><stop offset="0" stop-color="#dbcd6e"/><stop offset="1" stop-color="#b3a236"/></radialGradient><radialGradient cx="213.85719" cy="136.22456" r="2.15913" gradientUnits="userSpaceOnUse" id="color-19"><stop offset="0" stop-color="#dbcd6e"/><stop offset="1" stop-color="#b3a236"/></radialGradient><radialGradient cx="219.25719" cy="104.82457" r="2.15913" gradientUnits="userSpaceOnUse" id="color-20"><stop offset="0" stop-color="#dbcd6e"/><stop offset="1" stop-color="#b3a236"/></radialGradient><radialGradient cx="209.65719" cy="113.22456" r="2.15913" gradientUnits="userSpaceOnUse" id="color-21"><stop offset="0" stop-color="#dbcd6e"/><stop offset="1" stop-color="#b3a236"/></radialGradient><radialGradient cx="255.05718" cy="107.02457" r="2.15913" gradientUnits="userSpaceOnUse" id="color-22"><stop offset="0" stop-color="#dbcd6e"/><stop offset="1" stop-color="#b3a236"/></radialGradient><radialGradient cx="266.05719" cy="117.02457" r="2.15913" gradientUnits="userSpaceOnUse" id="color-23"><stop offset="0" stop-color="#dbcd6e"/><stop offset="1" stop-color="#b3a236"/></radialGradient><radialGradient cx="264.25717" cy="150.62457" r="2.15913" gradientUnits="userSpaceOnUse" id="color-24"><stop offset="0" stop-color="#dbcd6e"/><stop offset="1" stop-color="#b3a236"/></radialGradient><radialGradient cx="257.25717" cy="158.62456" r="2.15913" gradientUnits="userSpaceOnUse" id="color-25"><stop offset="0" stop-color="#dbcd6e"/><stop offset="1" stop-color="#b3a236"/></radialGradient><radialGradient cx="218.25718" cy="159.02457" r="2.15913" gradientUnits="userSpaceOnUse" id="color-26"><stop offset="0" stop-color="#dbcd6e"/><stop offset="1" stop-color="#b3a236"/></radialGradient><radialGradient cx="212.05719" cy="150.22457" r="2.15913" gradientUnits="userSpaceOnUse" id="color-27"><stop offset="0" stop-color="#dbcd6e"/><stop offset="1" stop-color="#b3a236"/></radialGradient><radialGradient cx="203.45718" cy="128.02457" r="2.15913" gradientUnits="userSpaceOnUse" id="color-28"><stop offset="0" stop-color="#dbcd6e"/><stop offset="1" stop-color="#b3a236"/></radialGradient><radialGradient cx="203.05718" cy="137.42456" r="2.15913" gradientUnits="userSpaceOnUse" id="color-29"><stop offset="0" stop-color="#dbcd6e"/><stop offset="1" stop-color="#b3a236"/></radialGradient><radialGradient cx="273.05719" cy="128.42456" r="2.15913" gradientUnits="userSpaceOnUse" id="color-30"><stop offset="0" stop-color="#dbcd6e"/><stop offset="1" stop-color="#b3a236"/></radialGradient><radialGradient cx="273.05719" cy="139.02457" r="2.15913" gradientUnits="userSpaceOnUse" id="color-31"><stop offset="0" stop-color="#dbcd6e"/><stop offset="1" stop-color="#b3a236"/></radialGradient><radialGradient cx="237.65719" cy="98.62456" r="2.15913" gradientUnits="userSpaceOnUse" id="color-32"><stop offset="0" stop-color="#dbcd6e"/><stop offset="1" stop-color="#b3a236"/></radialGradient><radialGradient cx="237.85718" cy="166.02457" r="2.15913" gradientUnits="userSpaceOnUse" id="color-33"><stop offset="0" stop-color="#dbcd6e"/><stop offset="1" stop-color="#b3a236"/></radialGradient><radialGradient cx="269.85718" cy="167.42457" r="2.15913" gradientUnits="userSpaceOnUse" id="color-34"><stop offset="0" stop-color="#dbcd6e"/><stop offset="1" stop-color="#b3a236"/></radialGradient><radialGradient cx="207.85718" cy="96.62456" r="2.15913" gradientUnits="userSpaceOnUse" id="color-35"><stop offset="0" stop-color="#dbcd6e"/><stop offset="1" stop-color="#b3a236"/></radialGradient><radialGradient cx="238.62997" cy="130.94441" r="3.7745" gradientUnits="userSpaceOnUse" id="color-36"><stop offset="0" stop-color="#7f7f7f"/><stop offset="1" stop-color="#333333"/></radialGradient><radialGradient cx="234.49364" cy="130.60336" r="3.77448" gradientUnits="userSpaceOnUse" id="color-37"><stop offset="0" stop-color="#dc6e6e"/><stop offset="1" stop-color="#b23535"/></radialGradient><radialGradient cx="233.32392" cy="125.63835" r="3.77448" gradientUnits="userSpaceOnUse" id="color-38"><stop offset="0" stop-color="#7f7f7f"/><stop offset="1" stop-color="#333333"/></radialGradient><radialGradient cx="242.52195" cy="128.52708" r="3.77448" gradientUnits="userSpaceOnUse" id="color-39"><stop offset="0" stop-color="#dc6e6e"/><stop offset="1" stop-color="#b23535"/></radialGradient><radialGradient cx="236.09229" cy="128.59129" r="3.77449" gradientUnits="userSpaceOnUse" id="color-40"><stop offset="0" stop-color="#7f7f7f"/><stop offset="1" stop-color="#333333"/></radialGradient><radialGradient cx="241.07538" cy="123.97732" r="3.77448" gradientUnits="userSpaceOnUse" id="color-41"><stop offset="0" stop-color="#7f7f7f"/><stop offset="1" stop-color="#333333"/></radialGradient><radialGradient cx="236.70835" cy="122.1598" r="3.77448" gradientUnits="userSpaceOnUse" id="color-42"><stop offset="0" stop-color="#dc6e6e"/><stop offset="1" stop-color="#b23535"/></radialGradient><radialGradient cx="241.46331" cy="137.77775" r="3.7745" gradientUnits="userSpaceOnUse" id="color-43"><stop offset="0" stop-color="#7f7f7f"/><stop offset="1" stop-color="#333333"/></radialGradient><radialGradient cx="237.32698" cy="137.4367" r="3.77448" gradientUnits="userSpaceOnUse" id="color-44"><stop offset="0" stop-color="#dc6e6e"/><stop offset="1" stop-color="#b23535"/></radialGradient><radialGradient cx="236.15725" cy="132.47168" r="3.77448" gradientUnits="userSpaceOnUse" id="color-45"><stop offset="0" stop-color="#7f7f7f"/><stop offset="1" stop-color="#333333"/></radialGradient><radialGradient cx="245.35528" cy="135.36041" r="3.77448" gradientUnits="userSpaceOnUse" id="color-46"><stop offset="0" stop-color="#dc6e6e"/><stop offset="1" stop-color="#b23535"/></radialGradient><radialGradient cx="238.92563" cy="135.42462" r="3.77449" gradientUnits="userSpaceOnUse" id="color-47"><stop offset="0" stop-color="#7f7f7f"/><stop offset="1" stop-color="#333333"/></radialGradient><radialGradient cx="243.90872" cy="130.81066" r="3.77448" gradientUnits="userSpaceOnUse" id="color-48"><stop offset="0" stop-color="#7f7f7f"/><stop offset="1" stop-color="#333333"/></radialGradient><radialGradient cx="239.54168" cy="128.99313" r="3.77448" gradientUnits="userSpaceOnUse" id="color-49"><stop offset="0" stop-color="#dc6e6e"/><stop offset="1" stop-color="#b23535"/></radialGradient></defs><g transform="translate(-188.61236,-44.4391)"><g data-paper-data="{&quot;isPaintingLayer&quot;:true}" fill-rule="nonzero" stroke-linecap="butt" stroke-linejoin="miter" stroke-miterlimit="10" stroke-dasharray="" stroke-dashoffset="0" style="mix-blend-mode: normal"><path d="M290.52518,181.33513c0.08306,2.91279 -7.47079,10.94732 -46.81921,10.94732c-39.34842,0 -50.33445,-6.8584 -50.34761,-11.54727c-0.01137,-4.04815 10.18494,-9.44736 49.53336,-9.44736c39.34842,0 47.55747,7.38292 47.63346,10.04731z" fill="url(#color-1)" stroke="none" stroke-width="0"/><text transform="translate(218.21066,213.62346) scale(0.46015,0.46015)" font-size="40" xml:space="preserve" fill="#000000" fill-rule="nonzero" stroke="#000000" stroke-width="1" stroke-linecap="butt" stroke-linejoin="miter" stroke-miterlimit="10" stroke-dasharray="" stroke-dashoffset="0" font-family="Handwriting" font-weight="normal" text-anchor="start" style="mix-blend-mode: normal"></text><text transform="translate(223.19566,63.38932) scale(0.49869,0.49869)" font-size="40" xml:space="preserve" fill="#000000" fill-rule="nonzero" stroke="#000000" stroke-width="1" stroke-linecap="butt" stroke-linejoin="miter" stroke-miterlimit="10" stroke-dasharray="" stroke-dashoffset="0" font-family="Handwriting" font-weight="normal" text-anchor="start" style="mix-blend-mode: normal"></text><path d="M290.67881,133.55148c0,27.31765 -22.84835,49.46298 -51.03322,49.46298c-28.18488,0 -51.03323,-22.14533 -51.03323,-49.46297c0,-27.31764 22.84836,-49.46297 51.03323,-49.46297c28.18488,0 51.03322,22.14533 51.03322,49.46297z" fill="url(#color-2)" stroke="none" stroke-width="0"/><g stroke="none" stroke-width="0"><path d="M226.59169,142.72861c0,1.19245 -0.95408,2.15913 -2.131,2.15913c-1.17692,0 -2.131,-0.96668 -2.131,-2.15913c0,-1.19245 0.95408,-2.15913 2.131,-2.15913c1.17692,0 2.131,0.96668 2.131,2.15913z" fill="url(#color-3)"/><path d="M223.22461,143.14488l-0.01665,-0.66176l2.4419,0.03043l-0.005,0.66318z" fill="#524011"/></g><g stroke="none" stroke-width="0"><path d="M240.92658,137.34185c0,2.08459 -1.66787,3.77449 -3.7253,3.77449c-2.05743,0 -3.7253,-1.6899 -3.7253,-3.77449c0,-2.08459 1.66788,-3.77449 3.7253,-3.77449c2.05743,0 3.7253,1.68989 3.7253,3.77449z" fill="url(#color-4)"/><g><path d="M236.79025,137.0008c0,2.08459 -1.66788,3.77449 -3.7253,3.77449c-2.05743,0 -3.7253,-1.6899 -3.7253,-3.77449c0,-2.08459 1.66788,-3.77449 3.7253,-3.77449c2.05743,0 3.7253,1.6899 3.7253,3.77449z" fill="url(#color-5)"/><path d="M232.36309,139.39201v-1.58028l-1.459,-0.08322l-0.0291,-1.15687l1.48811,-0.04961v-1.92751h1.3084v2.02672l1.47231,0.00359l-0.00874,1.15934c0,0 -1.49353,0.04345 -1.49199,0.12665c0.00878,0.47282 0.02842,1.48118 0.02842,1.48118z" fill="#511111"/></g><path d="M235.62052,132.03578c0,2.08459 -1.66787,3.77449 -3.7253,3.77449c-2.05743,0 -3.72531,-1.6899 -3.72531,-3.77449c0,-2.08459 1.66788,-3.77449 3.72531,-3.77449c2.05743,0 3.7253,1.68989 3.7253,3.77449z" fill="url(#color-6)"/><g><path d="M244.81856,134.92452c0,2.08459 -1.66788,3.77449 -3.7253,3.77449c-2.05743,0 -3.7253,-1.6899 -3.7253,-3.77449c0,-2.08459 1.66788,-3.77449 3.7253,-3.77449c2.05743,0 3.7253,1.6899 3.7253,3.77449z" fill="url(#color-7)"/><path d="M240.3914,137.31573v-1.58028l-1.459,-0.08322l-0.0291,-1.15687l1.48811,-0.04961v-1.92751h1.3084v2.02672l1.47231,0.00359l-0.00874,1.15934c0,0 -1.49353,0.04345 -1.49199,0.12665c0.00878,0.47282 0.02842,1.48118 0.02842,1.48118z" fill="#511111"/></g><path d="M238.3889,134.98873c0,2.08459 -1.66787,3.77449 -3.7253,3.77449c-2.05743,0 -3.7253,-1.6899 -3.7253,-3.77449c0,-2.08459 1.66788,-3.77449 3.7253,-3.77449c2.05743,0 3.7253,1.68989 3.7253,3.77449z" fill="url(#color-8)"/><path d="M243.37199,130.37475c0,2.08459 -1.66787,3.77449 -3.7253,3.77449c-2.05743,0 -3.72531,-1.6899 -3.72531,-3.77449c0,-2.08459 1.66788,-3.77449 3.72531,-3.77449c2.05743,0 3.7253,1.68989 3.7253,3.77449z" fill="url(#color-9)"/><g data-paper-data="{&quot;index&quot;:null}"><path d="M239.00496,128.55724c0,2.08459 -1.66787,3.77449 -3.7253,3.77449c-2.05743,0 -3.7253,-1.68989 -3.7253,-3.77449c0,-2.08459 1.66788,-3.77449 3.7253,-3.77449c2.05743,0 3.7253,1.6899 3.7253,3.77449z" fill="url(#color-10)"/><path d="M234.5778,130.94845v-1.58028l-1.459,-0.08322l-0.0291,-1.15687l1.48811,-0.04961v-1.92751h1.3084v2.02672l1.47231,0.00359l-0.00874,1.15934c0,0 -1.49353,0.04344 -1.49199,0.12664c0.00877,0.47282 0.02842,1.48118 0.02842,1.48118z" fill="#511111"/></g></g><g stroke="none" stroke-width="0"><path d="M254.49169,124.37861c0,1.19245 -0.95408,2.15913 -2.131,2.15913c-1.17692,0 -2.131,-0.96668 -2.131,-2.15913c0,-1.19245 0.95408,-2.15913 2.131,-2.15913c1.17692,0 2.131,0.96667 2.131,2.15913z" fill="url(#color-11)"/><path d="M251.12461,124.79489l-0.01665,-0.66176l2.4419,0.03043l-0.005,0.66318z" fill="#524011"/></g><g stroke="none" stroke-width="0"><path d="M246.84169,155.97861c0,1.19245 -0.95408,2.15913 -2.131,2.15913c-1.17692,0 -2.131,-0.96668 -2.131,-2.15913c0,-1.19245 0.95408,-2.15913 2.131,-2.15913c1.17692,0 2.131,0.96668 2.131,2.15913z" fill="url(#color-12)"/><path d="M243.47461,156.39489l-0.01665,-0.66177l2.4419,0.03043l-0.005,0.66318z" fill="#524011"/></g><g stroke="none" stroke-width="0"><path d="M264.99168,140.52861c0,1.19245 -0.95408,2.15913 -2.131,2.15913c-1.17692,0 -2.131,-0.96668 -2.131,-2.15913c0,-1.19245 0.95408,-2.15913 2.131,-2.15913c1.17692,0 2.131,0.96668 2.131,2.15913z" fill="url(#color-13)"/><path d="M261.6246,140.94489l-0.01665,-0.66176l2.4419,0.03043l-0.005,0.66318z" fill="#524011"/></g><g stroke="none" stroke-width="0"><path d="M265.19169,130.72861c0,1.19245 -0.95408,2.15913 -2.131,2.15913c-1.17692,0 -2.131,-0.96668 -2.131,-2.15913c0,-1.19245 0.95408,-2.15913 2.131,-2.15913c1.17692,0 2.131,0.96667 2.131,2.15913z" fill="url(#color-14)"/><path d="M261.82461,131.14489l-0.01665,-0.66177l2.4419,0.03044l-0.005,0.66318z" fill="#524011"/></g><g stroke="none" stroke-width="0"><path d="M235.19169,155.52861c0,1.19245 -0.95408,2.15913 -2.131,2.15913c-1.17692,0 -2.131,-0.96668 -2.131,-2.15913c0,-1.19245 0.95408,-2.15913 2.131,-2.15913c1.17692,0 2.131,0.96667 2.131,2.15913z" fill="url(#color-15)"/><path d="M231.82461,155.94489l-0.01665,-0.66177l2.4419,0.03044l-0.005,0.66318z" fill="#524011"/></g><g stroke="none" stroke-width="0"><path d="M248.79169,111.72861c0,1.19245 -0.95408,2.15913 -2.131,2.15913c-1.17692,0 -2.131,-0.96667 -2.131,-2.15913c0,-1.19245 0.95408,-2.15913 2.131,-2.15913c1.17692,0 2.131,0.96668 2.131,2.15913z" fill="url(#color-16)"/><path d="M245.42461,112.14489l-0.01665,-0.66177l2.4419,0.03043l-0.005,0.66318z" fill="#524011"/></g><g stroke="none" stroke-width="0"><path d="M234.79169,113.12861c0,1.19245 -0.95408,2.15913 -2.131,2.15913c-1.17692,0 -2.131,-0.96667 -2.131,-2.15913c0,-1.19245 0.95408,-2.15913 2.131,-2.15913c1.17692,0 2.131,0.96668 2.131,2.15913z" fill="url(#color-17)"/><path d="M231.42461,113.54489l-0.01665,-0.66177l2.4419,0.03043l-0.005,0.66318z" fill="#524011"/></g><g stroke="none" stroke-width="0"><path d="M217.39169,127.32861c0,1.19246 -0.95408,2.15913 -2.131,2.15913c-1.17692,0 -2.131,-0.96668 -2.131,-2.15913c0,-1.19245 0.95408,-2.15913 2.131,-2.15913c1.17692,0 2.131,0.96668 2.131,2.15913z" fill="url(#color-18)"/><path d="M214.02461,127.74489l-0.01665,-0.66177l2.4419,0.03043l-0.00499,0.66318z" fill="#524011"/></g><g stroke="none" stroke-width="0"><path d="M216.79169,136.92861c0,1.19245 -0.95408,2.15913 -2.131,2.15913c-1.17692,0 -2.131,-0.96668 -2.131,-2.15913c0,-1.19245 0.95408,-2.15913 2.131,-2.15913c1.17692,0 2.131,0.96668 2.131,2.15913z" fill="url(#color-19)"/><path d="M213.42461,137.34488l-0.01665,-0.66176l2.4419,0.03043l-0.005,0.66318z" fill="#524011"/></g><g stroke="none" stroke-width="0"><path d="M222.19169,105.52861c0,1.19245 -0.95408,2.15913 -2.131,2.15913c-1.17692,0 -2.131,-0.96668 -2.131,-2.15913c0,-1.19245 0.95408,-2.15913 2.131,-2.15913c1.17692,0 2.131,0.96668 2.131,2.15913z" fill="url(#color-20)"/><path d="M218.82461,105.94489l-0.01665,-0.66177l2.4419,0.03043l-0.00499,0.66318z" fill="#524011"/></g><g stroke="none" stroke-width="0"><path d="M212.59169,113.92861c0,1.19245 -0.95408,2.15913 -2.131,2.15913c-1.17692,0 -2.131,-0.96667 -2.131,-2.15913c0,-1.19245 0.95408,-2.15913 2.131,-2.15913c1.17692,0 2.131,0.96668 2.131,2.15913z" fill="url(#color-21)"/><path d="M209.22461,114.34489l-0.01665,-0.66177l2.4419,0.03043l-0.005,0.66318z" fill="#524011"/></g><g stroke="none" stroke-width="0"><path d="M257.99168,107.72861c0,1.19245 -0.95408,2.15913 -2.131,2.15913c-1.17692,0 -2.131,-0.96668 -2.131,-2.15913c0,-1.19245 0.95408,-2.15913 2.131,-2.15913c1.17692,0 2.131,0.96668 2.131,2.15913z" fill="url(#color-22)"/><path d="M254.6246,108.14489l-0.01665,-0.66177l2.4419,0.03043l-0.005,0.66318z" fill="#524011"/></g><g stroke="none" stroke-width="0"><path d="M268.99168,117.72861c0,1.19245 -0.95408,2.15913 -2.131,2.15913c-1.17692,0 -2.131,-0.96668 -2.131,-2.15913c0,-1.19245 0.95408,-2.15913 2.131,-2.15913c1.17692,0 2.131,0.96667 2.131,2.15913z" fill="url(#color-23)"/><path d="M265.6246,118.14488l-0.01665,-0.66176l2.4419,0.03043l-0.005,0.66318z" fill="#524011"/></g><g stroke="none" stroke-width="0"><path d="M267.19168,151.32861c0,1.19245 -0.95408,2.15913 -2.131,2.15913c-1.17692,0 -2.131,-0.96668 -2.131,-2.15913c0,-1.19245 0.95408,-2.15913 2.131,-2.15913c1.17692,0 2.131,0.96668 2.131,2.15913z" fill="url(#color-24)"/><path d="M263.8246,151.74489l-0.01665,-0.66176l2.4419,0.03043l-0.005,0.66318z" fill="#524011"/></g><g stroke="none" stroke-width="0"><path d="M260.19168,159.32861c0,1.19245 -0.95408,2.15913 -2.131,2.15913c-1.17692,0 -2.131,-0.96668 -2.131,-2.15913c0,-1.19245 0.95408,-2.15913 2.131,-2.15913c1.17692,0 2.131,0.96668 2.131,2.15913z" fill="url(#color-25)"/><path d="M256.82461,159.74489l-0.01665,-0.66177l2.4419,0.03043l-0.005,0.66318z" fill="#524011"/></g><g stroke="none" stroke-width="0"><path d="M221.19168,159.72861c0,1.19245 -0.95408,2.15913 -2.131,2.15913c-1.17692,0 -2.131,-0.96668 -2.131,-2.15913c0,-1.19245 0.95408,-2.15913 2.131,-2.15913c1.17692,0 2.131,0.96668 2.131,2.15913z" fill="url(#color-26)"/><path d="M217.8246,160.14489l-0.01665,-0.66177l2.4419,0.03044l-0.005,0.66318z" fill="#524011"/></g><g stroke="none" stroke-width="0"><path d="M214.99168,150.92861c0,1.19245 -0.95408,2.15913 -2.131,2.15913c-1.17692,0 -2.131,-0.96668 -2.131,-2.15913c0,-1.19245 0.95408,-2.15913 2.131,-2.15913c1.17692,0 2.131,0.96668 2.131,2.15913z" fill="url(#color-27)"/><path d="M211.6246,151.34489l-0.01665,-0.66177l2.4419,0.03044l-0.005,0.66318z" fill="#524011"/></g><g stroke="none" stroke-width="0"><path d="M206.39169,128.72861c0,1.19245 -0.95408,2.15913 -2.131,2.15913c-1.17692,0 -2.131,-0.96668 -2.131,-2.15913c0,-1.19245 0.95408,-2.15913 2.131,-2.15913c1.17692,0 2.131,0.96668 2.131,2.15913z" fill="url(#color-28)"/><path d="M203.0246,129.14488l-0.01665,-0.66177l2.4419,0.03044l-0.005,0.66318z" fill="#524011"/></g><g stroke="none" stroke-width="0"><path d="M205.99168,138.12861c0,1.19245 -0.95408,2.15913 -2.131,2.15913c-1.17692,0 -2.131,-0.96668 -2.131,-2.15913c0,-1.19245 0.95408,-2.15913 2.131,-2.15913c1.17692,0 2.131,0.96668 2.131,2.15913z" fill="url(#color-29)"/><path d="M202.6246,138.54489l-0.01665,-0.66177l2.4419,0.03043l-0.005,0.66318z" fill="#524011"/></g><g stroke="none" stroke-width="0"><path d="M275.99168,129.12861c0,1.19245 -0.95408,2.15913 -2.131,2.15913c-1.17692,0 -2.131,-0.96668 -2.131,-2.15913c0,-1.19245 0.95408,-2.15913 2.131,-2.15913c1.17692,0 2.131,0.96668 2.131,2.15913z" fill="url(#color-30)"/><path d="M272.6246,129.54489l-0.01665,-0.66177l2.4419,0.03043l-0.005,0.66318z" fill="#524011"/></g><g stroke="none" stroke-width="0"><path d="M275.99168,139.72861c0,1.19245 -0.95408,2.15913 -2.131,2.15913c-1.17692,0 -2.131,-0.96668 -2.131,-2.15913c0,-1.19245 0.95408,-2.15913 2.131,-2.15913c1.17692,0 2.131,0.96668 2.131,2.15913z" fill="url(#color-31)"/><path d="M272.6246,140.14489l-0.01665,-0.66177l2.4419,0.03043l-0.005,0.66318z" fill="#524011"/></g><g stroke="none" stroke-width="0"><path d="M240.59169,99.32861c0,1.19245 -0.95408,2.15913 -2.131,2.15913c-1.17692,0 -2.131,-0.96668 -2.131,-2.15913c0,-1.19245 0.95408,-2.15913 2.131,-2.15913c1.17692,0 2.131,0.96668 2.131,2.15913z" fill="url(#color-32)"/><path d="M237.22461,99.74489l-0.01665,-0.66177l2.4419,0.03043l-0.005,0.66318z" fill="#524011"/></g><g stroke="none" stroke-width="0"><path d="M240.79169,166.72861c0,1.19245 -0.95408,2.15913 -2.131,2.15913c-1.17692,0 -2.131,-0.96668 -2.131,-2.15913c0,-1.19245 0.95408,-2.15913 2.131,-2.15913c1.17692,0 2.131,0.96668 2.131,2.15913z" fill="url(#color-33)"/><path d="M237.4246,167.14489l-0.01665,-0.66177l2.4419,0.03043l-0.005,0.66318z" fill="#524011"/></g><g stroke="none" stroke-width="0"><path d="M272.79169,168.12861c0,1.19245 -0.95408,2.15913 -2.131,2.15913c-1.17692,0 -2.131,-0.96668 -2.131,-2.15913c0,-1.19245 0.95408,-2.15913 2.131,-2.15913c1.17692,0 2.131,0.96668 2.131,2.15913z" fill="url(#color-34)"/><path d="M269.42458,168.54489l-0.01665,-0.66177l2.4419,0.03043l-0.005,0.66318z" fill="#524011"/></g><g stroke="none" stroke-width="0"><path d="M210.79168,97.32861c0,1.19245 -0.95408,2.15913 -2.131,2.15913c-1.17692,0 -2.131,-0.96668 -2.131,-2.15913c0,-1.19245 0.95408,-2.15913 2.131,-2.15913c1.17692,0 2.131,0.96668 2.131,2.15913z" fill="url(#color-35)"/><path d="M207.4246,97.74488l-0.01665,-0.66177l2.4419,0.03043l-0.005,0.66318z" fill="#524011"/></g><g stroke="none" stroke-width="0"><path d="M243.75991,132.17518c0,2.08459 -1.66787,3.77448 -3.7253,3.77448c-2.05743,0 -3.7253,-1.6899 -3.7253,-3.77448c0,-2.0846 1.66788,-3.77449 3.7253,-3.77449c2.05743,0 3.7253,1.68989 3.7253,3.77449z" fill="url(#color-36)"/><g><path d="M239.62358,131.83413c0,2.08459 -1.66788,3.77449 -3.7253,3.77449c-2.05742,0 -3.72531,-1.68991 -3.72531,-3.77449c0,-2.0846 1.66788,-3.77449 3.72531,-3.77449c2.05742,0 3.7253,1.6899 3.7253,3.77449z" fill="url(#color-37)"/><path d="M235.19642,134.22534v-1.58029l-1.459,-0.08322l-0.02909,-1.15687l1.4881,-0.0496v-1.92751h1.3084v2.02672l1.47231,0.0036l-0.00874,1.15934c0,0 -1.49353,0.04345 -1.49198,0.12666c0.00878,0.47281 0.02842,1.48118 0.02842,1.48118z" fill="#511111"/></g><path d="M238.45385,126.86911c0,2.0846 -1.66787,3.77449 -3.7253,3.77449c-2.05743,0 -3.72531,-1.6899 -3.72531,-3.77449c0,-2.0846 1.66788,-3.77449 3.72531,-3.77449c2.05743,0 3.7253,1.68989 3.7253,3.77449z" fill="url(#color-38)"/><g><path d="M247.65189,129.75785c0,2.08459 -1.66788,3.77449 -3.7253,3.77449c-2.05742,0 -3.7253,-1.6899 -3.7253,-3.77449c0,-2.0846 1.66788,-3.77449 3.7253,-3.77449c2.05742,0 3.7253,1.6899 3.7253,3.77449z" fill="url(#color-39)"/><path d="M243.22473,132.14906v-1.58028l-1.459,-0.08322l-0.0291,-1.15686l1.4881,-0.0496v-1.92751h1.3084v2.02671l1.47231,0.0036l-0.00874,1.15934c0,0 -1.49353,0.04345 -1.49198,0.12665c0.00878,0.47281 0.02842,1.48118 0.02842,1.48118z" fill="#511111"/></g><path d="M241.22223,129.82206c0,2.0846 -1.66787,3.77449 -3.7253,3.77449c-2.05743,0 -3.7253,-1.68991 -3.7253,-3.77449c0,-2.08459 1.66788,-3.77448 3.7253,-3.77448c2.05743,0 3.7253,1.68989 3.7253,3.77448z" fill="url(#color-40)"/><path d="M246.20533,125.20809c0,2.0846 -1.66787,3.77449 -3.7253,3.77449c-2.05743,0 -3.72531,-1.68989 -3.72531,-3.77449c0,-2.0846 1.66788,-3.77449 3.72531,-3.77449c2.05743,0 3.7253,1.6899 3.7253,3.77449z" fill="url(#color-41)"/><g data-paper-data="{&quot;index&quot;:null}"><path d="M241.83829,123.39057c0,2.0846 -1.66787,3.77449 -3.7253,3.77449c-2.05743,0 -3.7253,-1.6899 -3.7253,-3.77449c0,-2.0846 1.66788,-3.77449 3.7253,-3.77449c2.05743,0 3.7253,1.68989 3.7253,3.77449z" fill="url(#color-42)"/><path d="M237.41113,125.78179v-1.58029l-1.459,-0.08322l-0.0291,-1.15687l1.48811,-0.0496v-1.92751h1.3084v2.02672l1.47231,0.00359l-0.00874,1.15934c0,0 -1.49353,0.04344 -1.49198,0.12665c0.00877,0.47281 0.02842,1.48118 0.02842,1.48118z" fill="#511111"/></g></g><g stroke="none" stroke-width="0"><path d="M246.59325,139.00852c0,2.0846 -1.66787,3.77448 -3.7253,3.77448c-2.05743,0 -3.7253,-1.6899 -3.7253,-3.77448c0,-2.0846 1.66788,-3.77448 3.7253,-3.77448c2.05743,0 3.7253,1.68989 3.7253,3.77448z" fill="url(#color-43)"/><g><path d="M242.45692,138.66747c0,2.0846 -1.66788,3.77449 -3.7253,3.77449c-2.05742,0 -3.72531,-1.68991 -3.72531,-3.77449c0,-2.0846 1.66788,-3.77448 3.72531,-3.77448c2.05742,0 3.7253,1.6899 3.7253,3.77448z" fill="url(#color-44)"/><path d="M238.02976,141.05868v-1.58029l-1.459,-0.08322l-0.02909,-1.15687l1.4881,-0.04961v-1.92751h1.3084v2.02672l1.47231,0.0036l-0.00874,1.15934c0,0 -1.49353,0.04345 -1.49198,0.12665c0.00878,0.47281 0.02842,1.48118 0.02842,1.48118z" fill="#511111"/></g><path d="M241.28719,133.70245c0,2.0846 -1.66787,3.7745 -3.7253,3.7745c-2.05743,0 -3.72531,-1.6899 -3.72531,-3.7745c0,-2.0846 1.66788,-3.77449 3.72531,-3.77449c2.05743,0 3.7253,1.68989 3.7253,3.77449z" fill="url(#color-45)"/><g><path d="M250.48522,136.59118c0,2.0846 -1.66788,3.77449 -3.7253,3.77449c-2.05742,0 -3.7253,-1.6899 -3.7253,-3.77449c0,-2.0846 1.66788,-3.77449 3.7253,-3.77449c2.05742,0 3.7253,1.6899 3.7253,3.77449z" fill="url(#color-46)"/><path d="M246.05806,138.98239v-1.58028l-1.459,-0.08322l-0.0291,-1.15687l1.4881,-0.0496v-1.9275h1.3084v2.02671l1.47231,0.00359l-0.00874,1.15935c0,0 -1.49353,0.04345 -1.49198,0.12665c0.00878,0.47281 0.02842,1.48118 0.02842,1.48118z" fill="#511111"/></g><path d="M244.05557,136.65539c0,2.0846 -1.66787,3.77449 -3.7253,3.77449c-2.05743,0 -3.7253,-1.68991 -3.7253,-3.77449c0,-2.0846 1.66788,-3.77448 3.7253,-3.77448c2.05743,0 3.7253,1.68989 3.7253,3.77448z" fill="url(#color-47)"/><path d="M249.03866,132.04142c0,2.0846 -1.66787,3.77449 -3.7253,3.77449c-2.05743,0 -3.72531,-1.6899 -3.72531,-3.77449c0,-2.0846 1.66788,-3.77449 3.72531,-3.77449c2.05743,0 3.7253,1.6899 3.7253,3.77449z" fill="url(#color-48)"/><g data-paper-data="{&quot;index&quot;:null}"><path d="M244.67162,130.2239c0,2.0846 -1.66787,3.77449 -3.7253,3.77449c-2.05743,0 -3.7253,-1.6899 -3.7253,-3.77449c0,-2.0846 1.66788,-3.77449 3.7253,-3.77449c2.05743,0 3.7253,1.68989 3.7253,3.77449z" fill="url(#color-49)"/><path d="M240.24446,132.61512v-1.58029l-1.459,-0.08322l-0.0291,-1.15687l1.48811,-0.0496v-1.92751h1.3084v2.02672l1.47231,0.00359l-0.00874,1.15934c0,0 -1.49353,0.04344 -1.49198,0.12665c0.00877,0.47281 0.02842,1.48118 0.02842,1.48118z" fill="#511111"/></g></g></g></g></svg>