<svg version="1.1" xmlns="http://www.w3.org/2000/svg" xmlns:xlink="http://www.w3.org/1999/xlink" width="141.9741" height="175.37964" viewBox="0,0,141.9741,175.37964"><defs><linearGradient x1="240.57776" y1="-158.88227" x2="240.57776" y2="332.07542" gradientUnits="userSpaceOnUse" id="color-1"><stop offset="0" stop-color="#000000"/><stop offset="1" stop-color="#000000" stop-opacity="0"/></linearGradient></defs><g transform="translate(-172.35045,-43.96178)"><g data-paper-data="{&quot;isPaintingLayer&quot;:true}" fill-rule="nonzero" stroke-linecap="butt" stroke-linejoin="miter" stroke-miterlimit="10" stroke-dasharray="" stroke-dashoffset="0" style="mix-blend-mode: normal"><path d="M296.92093,174.36414c0.09769,5.16475 -8.78675,19.41098 -55.06627,19.41098c-46.27952,0 -59.20071,-12.16081 -59.21619,-20.47478c-0.01337,-7.17789 11.97899,-16.75137 58.25851,-16.75137c46.27952,0 55.93458,13.09086 56.02395,17.81516z" fill="url(#color-1)" stroke="none" stroke-width="0"/><text transform="translate(215.29168,211.51887) scale(0.46015,0.46015)" font-size="40" xml:space="preserve" fill="#000000" fill-rule="nonzero" stroke="#000000" stroke-width="1" stroke-linecap="butt" stroke-linejoin="miter" stroke-miterlimit="10" stroke-dasharray="" stroke-dashoffset="0" font-family="Handwriting" font-weight="normal" text-anchor="start" style="mix-blend-mode: normal"></text><text transform="translate(172.57681,61.16476) scale(0.45271,0.45271)" font-size="40" xml:space="preserve" fill="#000000" fill-rule="nonzero" stroke="#000000" stroke-width="1" stroke-linecap="butt" stroke-linejoin="miter" stroke-miterlimit="10" stroke-dasharray="" stroke-dashoffset="0" font-family="Handwriting" font-weight="normal" text-anchor="start" style="mix-blend-mode: normal"></text><g stroke="none" stroke-width="0"><path d="M182.1016,173.89685l-0.21624,-53.53644l4.14336,-3.44468l-0.41533,-10.62686l-4.13162,-3.77873l0.28649,-11.90323l90.83333,13.38588v82.54626z" fill="#fff0cd"/><path d="M271.93493,187.03484l0.66667,-83.28992l24.83333,-11.89856l-0.58149,41.89068l-2.5728,3.70858l0.67576,8.20722l2.14519,2.46377l0.33333,24.54077z" fill="#e6d5ad"/><path d="M221.51525,141.6544l17.97475,-3.41624l35.69794,4.44215l-0.64142,8.37399z" fill="#e6d5ad"/><path d="M198.84859,113.39532l-9.69191,-9.8613l54.69793,14.35762l-7.97475,1.92893z" fill="#e6d5ad"/><path d="M199.51526,163.9642l17.97476,-3.41624l31.03127,9.39989l7.35858,6.3909z" fill="#e6d5ad"/><path d="M181.68493,90.60693l27.66667,-11.40279l88.66667,13.38588l-25,12.89011z" fill="#fff8e7"/><path d="M270.01827,126.30261v-8.42815l20.33333,-8.42815l3.66667,4.46196z" fill="#fff0cd"/><path d="M278.3516,166.95602l7.66667,-8.42813l11.33333,-7.4366l0.33333,6.94083z" fill="#fff0cd"/></g></g></g></svg>