<svg version="1.1" xmlns="http://www.w3.org/2000/svg" xmlns:xlink="http://www.w3.org/1999/xlink" width="114.45597" height="174.27752" viewBox="0,0,114.45597,174.27752"><defs><linearGradient x1="240.61949" y1="58.29924" x2="240.61949" y2="237.16746" gradientUnits="userSpaceOnUse" id="color-1"><stop offset="0" stop-color="#000000"/><stop offset="1" stop-color="#000000" stop-opacity="0"/></linearGradient><radialGradient cx="239.2244" cy="131.79011" r="76.08969" gradientUnits="userSpaceOnUse" id="color-2"><stop offset="0" stop-color="#fff5d9" stop-opacity="0"/><stop offset="1" stop-color="#fff5d9"/></radialGradient></defs><g transform="translate(-185.82004,-36.72261)"><g data-paper-data="{&quot;isPaintingLayer&quot;:true}" fill-rule="nonzero" stroke-linecap="butt" stroke-linejoin="miter" stroke-miterlimit="10" stroke-dasharray="" stroke-dashoffset="0" style="mix-blend-mode: normal"><path d="M284.37023,179.70932c0.07585,1.88165 -6.82295,7.07192 -42.75929,7.07192c-35.93634,0 -45.96971,-4.43047 -45.98172,-7.45949c-0.01038,-2.6151 9.30175,-6.10294 45.23807,-6.10294c35.93634,0 43.43354,4.76932 43.50294,6.49051z" fill="url(#color-1)" stroke="none" stroke-width="0"/><text transform="translate(219.40921,205.02038) scale(0.357,0.357)" font-size="40" xml:space="preserve" fill="#ffffff" fill-rule="nonzero" stroke="#ffffff" stroke-width="0.5" stroke-linecap="butt" stroke-linejoin="miter" stroke-miterlimit="10" stroke-dasharray="" stroke-dashoffset="0" font-family="Handwriting" font-weight="normal" text-anchor="start" style="mix-blend-mode: normal"></text><text transform="translate(221.919,52.03752) scale(0.39779,0.39779)" font-size="40" xml:space="preserve" fill="#ffffff" fill-rule="nonzero" stroke="#ffffff" stroke-width="2" stroke-linecap="butt" stroke-linejoin="miter" stroke-miterlimit="10" stroke-dasharray="" stroke-dashoffset="0" font-family="Handwriting" font-weight="normal" text-anchor="start" style="mix-blend-mode: normal"></text><text transform="translate(185.93815,70.47373) scale(0.23622,0.23622)" font-size="40" xml:space="preserve" fill="#ffffff" fill-rule="nonzero" stroke="#ffffff" stroke-width="1" stroke-linecap="butt" stroke-linejoin="miter" stroke-miterlimit="10" stroke-dasharray="" stroke-dashoffset="0" font-family="Handwriting" font-weight="normal" text-anchor="start" style="mix-blend-mode: normal"></text><g stroke="none" stroke-width="0"><path d="M286.62016,129.3451c0,25.92719 -21.33659,46.94531 -47.65661,46.94531c-26.32002,0 -47.65661,-21.01813 -47.65661,-46.94531c0,-25.92717 21.33659,-46.94531 47.65661,-46.94531c26.32002,0 47.65661,21.01814 47.65661,46.94532z" fill="#ffe9ae"/><path d="M279.70011,104.2854c4.58411,6.75517 -28.64855,-0.17391 -43.82346,-0.17391c-15.17492,0 -43.53845,20.47498 -43.12786,16.86856c3.15612,-27.72077 29.34416,-37.73688 46.95371,-38.43249c15.16309,-0.59897 33.0415,11.48728 39.99761,21.73784z" fill="#f3efd4"/><path d="M275.52645,158.54301c-5.61165,7.91504 -15.00575,18.25978 -36.51955,18.25978c-21.5138,0 -42.43225,-16.1281 -46.25811,-34.25883c-1.80453,-8.55166 28.57015,19.651 50.08396,19.651c21.5138,0 35.3409,-7.38575 32.6937,-3.65196z" fill="#f3efd4"/><path d="M201.44392,131.06639c-0.50181,-3.87677 20.37141,-11.20272 39.65891,-18.46384c15.84466,-5.965 29.71449,-12.90402 37.53017,-9.13763c0.23929,0.11532 6.60834,10.00194 7.72764,19.88807c1.18638,10.4786 -2.88102,20.99956 -2.89376,21.45073c-0.13313,4.71418 -81.02536,-6.03018 -82.02297,-13.73733z" fill="#ffda99"/><path d="M270.76083,159.26026c-0.7501,3.27677 -18.21241,11.23938 -30.85138,8.34612c-12.63898,-2.89326 -40.36269,-20.41605 -39.61259,-23.69282c0.75011,-3.27677 26.21193,9.62893 41.98116,13.2178c12.64263,2.8773 29.23292,-1.14788 28.48282,2.12889z" fill="#ffda99"/><path d="M257.11257,93.03042c0.29557,1.68898 -13.20552,4.34377 -28.34076,11.83775c-17.08053,8.45717 -36.05198,21.65012 -36.04281,19.71511c0.03335,-7.0359 13.98197,-25.2457 30.03982,-31.83618c15.9606,-6.55057 34.03014,-1.50874 34.34375,0.28332z" fill="#ffda99"/><path d="M285.6128,123.58859c0.3719,9.18102 -1.29181,15.99904 -10.60806,15.99904c-9.31625,0 -27.88148,-4.6221 -28.34612,-12.86879c-0.34781,-6.17293 19.02988,-17.04247 28.34612,-17.04247c9.31625,0 10.19728,3.77164 10.60806,13.91222z" fill="#ffc289"/><path d="M239.2244,177.52849c-23.22164,0.49765 -49.03657,-20.51701 -48.43917,-46.26008c0.50046,-21.56598 14.2665,-48.46601 51.56942,-49.39033c15.15678,-0.37557 44.9576,10.75023 44.54858,48.92919c-0.39369,36.74771 -30.71508,46.35769 -47.67882,46.72123z" fill="url(#color-2)"/></g></g></g></svg>