<svg version="1.1" xmlns="http://www.w3.org/2000/svg" xmlns:xlink="http://www.w3.org/1999/xlink" width="154.40004" height="177.03967" viewBox="0,0,154.40004,177.03967"><defs><linearGradient x1="240.61953" y1="58.29928" x2="240.61953" y2="237.16751" gradientUnits="userSpaceOnUse" id="color-1"><stop offset="0" stop-color="#000000"/><stop offset="1" stop-color="#000000" stop-opacity="0"/></linearGradient><radialGradient cx="237.74254" cy="122.55545" r="71.9886" gradientUnits="userSpaceOnUse" id="color-2"><stop offset="0" stop-color="#6e7db7"/><stop offset="1" stop-color="#6e7db7" stop-opacity="0"/></radialGradient><radialGradient cx="234.17771" cy="119.9151" r="45.97276" gradientUnits="userSpaceOnUse" id="color-3"><stop offset="0" stop-color="#c1c5d6"/><stop offset="1" stop-color="#c1c5d6" stop-opacity="0"/></radialGradient><radialGradient cx="210.25" cy="103.14659" r="47.78683" gradientUnits="userSpaceOnUse" id="color-4"><stop offset="0" stop-color="#3b1a14"/><stop offset="1" stop-color="#3b1a14" stop-opacity="0"/></radialGradient><radialGradient cx="204.74505" cy="96.54989" r="4.36073" gradientUnits="userSpaceOnUse" id="color-5"><stop offset="0" stop-color="#ded9cc"/><stop offset="1" stop-color="#ded9cc" stop-opacity="0"/></radialGradient><radialGradient cx="242.89094" cy="93.60466" r="6.91181" gradientUnits="userSpaceOnUse" id="color-6"><stop offset="0" stop-color="#ffffff"/><stop offset="1" stop-color="#ffffff" stop-opacity="0"/></radialGradient><radialGradient cx="204.17367" cy="142.54868" r="4.36073" gradientUnits="userSpaceOnUse" id="color-7"><stop offset="0" stop-color="#ffffff"/><stop offset="1" stop-color="#ffffff" stop-opacity="0"/></radialGradient><radialGradient cx="207.3886" cy="130.32381" r="3.22595" gradientUnits="userSpaceOnUse" id="color-8"><stop offset="0" stop-color="#dedede"/><stop offset="1" stop-color="#dedede" stop-opacity="0"/></radialGradient><radialGradient cx="223.88724" cy="84.611" r="3.22595" gradientUnits="userSpaceOnUse" id="color-9"><stop offset="0" stop-color="#dedede"/><stop offset="1" stop-color="#dedede" stop-opacity="0"/></radialGradient><radialGradient cx="223.24368" cy="120.10858" r="3.22595" gradientUnits="userSpaceOnUse" id="color-10"><stop offset="0" stop-color="#dedcd7"/><stop offset="1" stop-color="#dedcd7" stop-opacity="0"/></radialGradient><radialGradient cx="214.60183" cy="144.32367" r="3.22595" gradientUnits="userSpaceOnUse" id="color-11"><stop offset="0" stop-color="#dedede"/><stop offset="1" stop-color="#dedede" stop-opacity="0"/></radialGradient><radialGradient cx="195.17887" cy="87.53012" r="1.78558" gradientUnits="userSpaceOnUse" id="color-12"><stop offset="0" stop-color="#ffffff"/><stop offset="1" stop-color="#ffffff" stop-opacity="0"/></radialGradient><radialGradient cx="235.81943" cy="85.67293" r="1.78558" gradientUnits="userSpaceOnUse" id="color-13"><stop offset="0" stop-color="#ffffff"/><stop offset="1" stop-color="#ffffff" stop-opacity="0"/></radialGradient><radialGradient cx="194.96459" cy="116.45663" r="1.78558" gradientUnits="userSpaceOnUse" id="color-14"><stop offset="0" stop-color="#ffffff"/><stop offset="1" stop-color="#ffffff" stop-opacity="0"/></radialGradient><radialGradient cx="203.10687" cy="103.17186" r="1.78558" gradientUnits="userSpaceOnUse" id="color-15"><stop offset="0" stop-color="#ffffff"/><stop offset="1" stop-color="#ffffff" stop-opacity="0"/></radialGradient><radialGradient cx="261.24505" cy="118.04989" r="4.36073" gradientUnits="userSpaceOnUse" id="color-16"><stop offset="0" stop-color="#ded9cc"/><stop offset="1" stop-color="#ded9cc" stop-opacity="0"/></radialGradient><radialGradient cx="266.39095" cy="104.10466" r="6.9118" gradientUnits="userSpaceOnUse" id="color-17"><stop offset="0" stop-color="#ffffff"/><stop offset="1" stop-color="#ffffff" stop-opacity="0"/></radialGradient><radialGradient cx="252.67366" cy="162.04868" r="4.36073" gradientUnits="userSpaceOnUse" id="color-18"><stop offset="0" stop-color="#ffffff"/><stop offset="1" stop-color="#ffffff" stop-opacity="0"/></radialGradient><radialGradient cx="243.38859" cy="142.32381" r="3.22595" gradientUnits="userSpaceOnUse" id="color-19"><stop offset="0" stop-color="#dedede"/><stop offset="1" stop-color="#dedede" stop-opacity="0"/></radialGradient><radialGradient cx="275.88725" cy="125.61099" r="3.22595" gradientUnits="userSpaceOnUse" id="color-20"><stop offset="0" stop-color="#dedede"/><stop offset="1" stop-color="#dedede" stop-opacity="0"/></radialGradient><radialGradient cx="271.74369" cy="148.10858" r="3.22595" gradientUnits="userSpaceOnUse" id="color-21"><stop offset="0" stop-color="#dedcd7"/><stop offset="1" stop-color="#dedcd7" stop-opacity="0"/></radialGradient><radialGradient cx="261.10183" cy="147.32367" r="3.22595" gradientUnits="userSpaceOnUse" id="color-22"><stop offset="0" stop-color="#dedede"/><stop offset="1" stop-color="#dedede" stop-opacity="0"/></radialGradient><radialGradient cx="225.17886" cy="97.03012" r="1.78558" gradientUnits="userSpaceOnUse" id="color-23"><stop offset="0" stop-color="#ffffff"/><stop offset="1" stop-color="#ffffff" stop-opacity="0"/></radialGradient><radialGradient cx="275.81944" cy="116.17293" r="1.78558" gradientUnits="userSpaceOnUse" id="color-24"><stop offset="0" stop-color="#ffffff"/><stop offset="1" stop-color="#ffffff" stop-opacity="0"/></radialGradient><radialGradient cx="237.46459" cy="159.45663" r="1.78558" gradientUnits="userSpaceOnUse" id="color-25"><stop offset="0" stop-color="#ffffff"/><stop offset="1" stop-color="#ffffff" stop-opacity="0"/></radialGradient><radialGradient cx="257.60687" cy="135.17186" r="1.78559" gradientUnits="userSpaceOnUse" id="color-26"><stop offset="0" stop-color="#ffffff"/><stop offset="1" stop-color="#ffffff" stop-opacity="0"/></radialGradient></defs><g transform="translate(-165.75396,-32.11673)"><g data-paper-data="{&quot;isPaintingLayer&quot;:true}" fill-rule="nonzero" stroke-linecap="butt" stroke-linejoin="miter" stroke-miterlimit="10" stroke-dasharray="" stroke-dashoffset="0" style="mix-blend-mode: normal"><path d="M284.37023,179.70939c0.07585,1.88165 -6.82295,7.07192 -42.75929,7.07192c-35.93634,0 -45.96971,-4.43047 -45.98172,-7.45949c-0.01038,-2.6151 9.30175,-6.10294 45.23807,-6.10294c35.93634,0 43.43354,4.76932 43.50294,6.49051z" fill="url(#color-1)" stroke="none" stroke-width="0"/><text transform="translate(224.83744,203.17665) scale(0.357,0.357)" font-size="40" xml:space="preserve" fill="#ffffff" fill-rule="nonzero" stroke="#ffffff" stroke-width="0.5" stroke-linecap="butt" stroke-linejoin="miter" stroke-miterlimit="10" stroke-dasharray="" stroke-dashoffset="0" font-family="Handwriting" font-weight="normal" text-anchor="start" style="mix-blend-mode: normal"></text><text transform="translate(172.09719,45.22559) scale(0.34497,0.34497)" font-size="40" xml:space="preserve" fill="#ffffff" fill-rule="nonzero" stroke="#ffffff" stroke-width="1" stroke-linecap="butt" stroke-linejoin="miter" stroke-miterlimit="10" stroke-dasharray="" stroke-dashoffset="0" font-family="Handwriting" font-weight="normal" text-anchor="start" style="mix-blend-mode: normal"></text><text transform="translate(194.23878,61.97255) scale(0.26747,0.26747)" font-size="40" xml:space="preserve" fill="#ffffff" fill-rule="nonzero" stroke="#ffffff" stroke-width="1" stroke-linecap="butt" stroke-linejoin="miter" stroke-miterlimit="10" stroke-dasharray="" stroke-dashoffset="0" font-family="Handwriting" font-weight="normal" text-anchor="start" style="mix-blend-mode: normal"></text><g stroke="none" stroke-width="0"><path d="M309.73114,122.55545c0,36.32729 -32.23039,65.77638 -71.98859,65.77638c-39.7582,0 -71.98859,-29.44909 -71.98859,-65.77638c0,-36.32729 32.23039,-65.77638 71.98859,-65.77638c39.7582,0 71.9886,29.44909 71.9886,65.77638z" fill="url(#color-2)"/><path d="M291.20277,120.4968c0,24.39731 -32.2167,52.31903 -57.60676,52.31903c-25.39005,0 -53.53486,-27.92172 -53.53486,-52.31903c0,-24.39731 28.72651,-49.99223 54.11656,-49.99223c25.39006,0 57.02506,25.59492 57.02506,49.99223z" fill="url(#color-3)"/><path d="M272.25,123.64659c-0.73433,20.0364 -21.05913,37.83359 -50.5,40c-28.25688,2.07929 -44.7131,-35.68599 -45,-50.5c-0.5,-25.81678 25.00749,-43.27572 49.5,-43c25.43865,0.28638 47.43412,14.3696 46,53.5z" fill="url(#color-4)"/><path d="M207.78435,96.63798c-0.03304,0.2328 -1.02629,0.58681 -1.82913,1.35887c-0.78723,0.75706 -0.55063,2.78234 -1.21017,2.89803c-0.63003,0.11052 -0.64441,-2.12267 -1.42737,-2.85343c-0.83041,-0.77505 -2.07224,-0.80779 -2.1405,-1.49158c-0.02843,-0.28477 1.52516,-0.25372 2.02234,-0.94518c0.78879,-1.09703 0.6829,-3.42022 1.45744,-3.48792c0.66723,-0.05832 0.51506,2.83917 1.31359,3.71091c0.68972,0.75295 1.86966,0.41675 1.81381,0.81029z" fill="url(#color-5)"/><path d="M247.42584,93.46453c-0.03803,0.26802 -1.18156,0.67559 -2.10586,1.56446c-0.90633,0.87159 -0.91963,3.63181 -1.67895,3.76501c-0.72535,0.12724 -0.45621,-2.87234 -1.35762,-3.71365c-0.95604,-0.8923 -2.38574,-0.93 -2.46433,-1.71723c-0.03273,-0.32786 1.7559,-0.29211 2.32829,-1.08817c0.90813,-1.263 0.78621,-4.93758 1.67793,-5.01552c0.76817,-0.06714 0.59298,4.26863 1.51231,5.27225c0.79406,0.86687 2.15251,0.4798 2.08822,0.93287z" fill="url(#color-6)"/><path d="M207.21296,142.63677c-0.03304,0.2328 -1.02629,0.58681 -1.82913,1.35887c-0.78723,0.75705 -0.55063,2.78234 -1.21017,2.89803c-0.63003,0.11052 -0.64441,-2.12267 -1.42737,-2.85343c-0.83041,-0.77505 -2.07224,-0.80779 -2.1405,-1.49158c-0.02843,-0.28477 1.52516,-0.25372 2.02234,-0.94518c0.78879,-1.09703 0.6829,-3.42022 1.45744,-3.48792c0.66723,-0.05832 0.51506,2.83917 1.31358,3.71091c0.68972,0.75295 1.86966,0.41675 1.81381,0.81029z" fill="url(#color-7)"/><path d="M209.63699,130.38898c-0.02444,0.17221 -0.75922,0.43411 -1.35314,1.00526c-0.58237,0.56005 -0.40734,2.0583 -0.89525,2.14389c-0.46608,0.08176 -0.47672,-1.57029 -1.05593,-2.11089c-0.61431,-0.57336 -1.53299,-0.59758 -1.58348,-1.10343c-0.02103,-0.21067 1.12828,-0.1877 1.49607,-0.69922c0.58353,-0.81155 0.50519,-2.53018 1.07817,-2.58027c0.4936,-0.04315 0.38103,2.10035 0.97176,2.74523c0.51023,0.55701 1.38312,0.3083 1.34181,0.59943z" fill="url(#color-8)"/><path d="M226.13563,84.67617c-0.02444,0.17222 -0.75922,0.43411 -1.35314,1.00526c-0.58237,0.56005 -0.40734,2.0583 -0.89525,2.14389c-0.46608,0.08176 -0.47672,-1.57029 -1.05593,-2.11089c-0.61431,-0.57336 -1.53299,-0.59758 -1.58348,-1.10343c-0.02103,-0.21067 1.12828,-0.1877 1.49607,-0.69922c0.58353,-0.81155 0.50519,-2.53018 1.07817,-2.58027c0.4936,-0.04315 0.38103,2.10035 0.97176,2.74523c0.51023,0.55702 1.38312,0.3083 1.34181,0.59943z" fill="url(#color-9)"/><path d="M225.49208,120.17375c-0.02444,0.17221 -0.75922,0.43411 -1.35314,1.00526c-0.58237,0.56005 -0.40734,2.0583 -0.89525,2.14389c-0.46608,0.08176 -0.47672,-1.57029 -1.05593,-2.11089c-0.61432,-0.57336 -1.53299,-0.59758 -1.58348,-1.10343c-0.02103,-0.21067 1.12828,-0.1877 1.49607,-0.69922c0.58353,-0.81155 0.50519,-2.53018 1.07817,-2.58027c0.4936,-0.04315 0.38103,2.10035 0.97176,2.74523c0.51023,0.55701 1.38312,0.3083 1.34181,0.59943z" fill="url(#color-10)"/><path d="M216.85023,144.38884c-0.02444,0.17221 -0.75922,0.4341 -1.35314,1.00526c-0.58237,0.56005 -0.40734,2.0583 -0.89525,2.14389c-0.46608,0.08176 -0.47672,-1.57029 -1.05593,-2.11089c-0.61431,-0.57336 -1.53299,-0.59758 -1.58348,-1.10343c-0.02103,-0.21067 1.12828,-0.1877 1.49607,-0.69922c0.58353,-0.81155 0.50519,-2.53018 1.07817,-2.58027c0.4936,-0.04315 0.38103,2.10034 0.97176,2.74523c0.51023,0.55701 1.38312,0.3083 1.3418,0.59943z" fill="url(#color-11)"/><path d="M195.12471,85.81682c0.52231,-0.01651 0.454,0.85316 0.79123,1.18616c0.29916,0.29541 1.03357,0.02591 1.04763,0.47073c0.01351,0.42741 -0.74231,0.24664 -1.00244,0.55528c-0.31576,0.37466 -0.18765,1.19736 -0.7281,1.21444c-0.40436,0.01278 -0.27399,-0.76022 -0.58013,-0.96837c-0.4401,-0.29922 -1.24108,-0.13048 -1.25872,-0.68852c-0.01342,-0.42444 0.80468,-0.43258 1.06149,-0.74028c0.31571,-0.37829 0.12551,-1.01226 0.66905,-1.02944z" fill="url(#color-12)"/><path d="M235.76528,83.95963c0.52231,-0.01651 0.454,0.85316 0.79123,1.18616c0.29916,0.29541 1.03357,0.02591 1.04763,0.47073c0.01351,0.42741 -0.74231,0.24664 -1.00244,0.55528c-0.31576,0.37466 -0.18766,1.19736 -0.7281,1.21444c-0.40436,0.01278 -0.27399,-0.76022 -0.58013,-0.96837c-0.4401,-0.29922 -1.24108,-0.13048 -1.25872,-0.68852c-0.01342,-0.42444 0.80468,-0.43258 1.06149,-0.74028c0.31571,-0.37829 0.12551,-1.01226 0.66905,-1.02944z" fill="url(#color-13)"/><path d="M194.91044,114.74333c0.52231,-0.01651 0.454,0.85316 0.79123,1.18616c0.29916,0.29541 1.03357,0.02591 1.04763,0.47073c0.01351,0.42741 -0.74231,0.24664 -1.00244,0.55529c-0.31576,0.37466 -0.18765,1.19735 -0.7281,1.21444c-0.40436,0.01278 -0.27399,-0.76022 -0.58013,-0.96837c-0.4401,-0.29922 -1.24108,-0.13048 -1.25872,-0.68852c-0.01342,-0.42444 0.80468,-0.43258 1.06149,-0.74028c0.31571,-0.37829 0.12551,-1.01226 0.66905,-1.02944z" fill="url(#color-14)"/><path d="M203.05271,101.45856c0.52231,-0.01651 0.454,0.85316 0.79123,1.18616c0.29916,0.29541 1.03357,0.02591 1.04763,0.47073c0.01351,0.42741 -0.74231,0.24664 -1.00244,0.55529c-0.31576,0.37466 -0.18765,1.19735 -0.7281,1.21444c-0.40436,0.01278 -0.27399,-0.76022 -0.58013,-0.96837c-0.4401,-0.29922 -1.24108,-0.13048 -1.25872,-0.68852c-0.01342,-0.42444 0.80468,-0.43258 1.06149,-0.74028c0.31571,-0.37829 0.12551,-1.01226 0.66905,-1.02944z" fill="url(#color-15)"/><path d="M264.28435,118.13798c-0.03303,0.23279 -1.0263,0.5868 -1.82913,1.35887c-0.78723,0.75705 -0.55063,2.78233 -1.21017,2.89803c-0.63003,0.11052 -0.64442,-2.12266 -1.42737,-2.85343c-0.83041,-0.77505 -2.07224,-0.80779 -2.1405,-1.49157c-0.02843,-0.28477 1.52516,-0.25373 2.02233,-0.94518c0.78879,-1.09703 0.6829,-3.42021 1.45744,-3.48792c0.66723,-0.05832 0.51507,2.83917 1.31359,3.71091c0.68972,0.75295 1.86966,0.41675 1.81381,0.81029z" fill="url(#color-16)"/><path d="M270.92584,103.96453c-0.03804,0.26802 -1.18156,0.67558 -2.10586,1.56445c-0.90633,0.87159 -0.91962,3.63181 -1.67894,3.76501c-0.72535,0.12724 -0.45621,-2.87234 -1.35762,-3.71365c-0.95605,-0.8923 -2.38574,-0.93 -2.46433,-1.71723c-0.03273,-0.32785 1.7559,-0.29211 2.32829,-1.08817c0.90812,-1.263 0.78621,-4.93758 1.67793,-5.01552c0.76817,-0.06714 0.59299,4.26864 1.51232,5.27225c0.79406,0.86687 2.15251,0.4798 2.08822,0.93288z" fill="url(#color-17)"/><path d="M255.71296,162.13677c-0.03303,0.23279 -1.02629,0.58681 -1.82913,1.35887c-0.78723,0.75705 -0.55063,2.78234 -1.21017,2.89803c-0.63003,0.11052 -0.64442,-2.12267 -1.42737,-2.85343c-0.83041,-0.77504 -2.07224,-0.80778 -2.1405,-1.49157c-0.02843,-0.28478 1.52517,-0.25372 2.02234,-0.94518c0.78879,-1.09703 0.6829,-3.42021 1.45744,-3.48791c0.66723,-0.05832 0.51506,2.83917 1.31358,3.71091c0.68972,0.75295 1.86966,0.41675 1.81381,0.81028z" fill="url(#color-18)"/><path d="M245.63699,142.38898c-0.02444,0.17221 -0.75922,0.4341 -1.35314,1.00525c-0.58237,0.56005 -0.40734,2.0583 -0.89525,2.14389c-0.46608,0.08176 -0.47673,-1.57029 -1.05594,-2.11089c-0.61432,-0.57336 -1.53298,-0.59758 -1.58348,-1.10343c-0.02103,-0.21067 1.12828,-0.1877 1.49607,-0.69922c0.58353,-0.81155 0.50519,-2.53018 1.07817,-2.58026c0.4936,-0.04314 0.38103,2.10035 0.97176,2.74524c0.51023,0.55701 1.38312,0.3083 1.34181,0.59942z" fill="url(#color-19)"/><path d="M278.13563,125.67617c-0.02444,0.17222 -0.75923,0.43411 -1.35315,1.00526c-0.58237,0.56005 -0.40734,2.0583 -0.89524,2.14389c-0.46608,0.08176 -0.47673,-1.5703 -1.05594,-2.11089c-0.61431,-0.57336 -1.53298,-0.59758 -1.58348,-1.10343c-0.02103,-0.21067 1.12827,-0.1877 1.49607,-0.69922c0.58353,-0.81155 0.50518,-2.53018 1.07817,-2.58026c0.4936,-0.04314 0.38103,2.10035 0.97176,2.74523c0.51023,0.55702 1.38312,0.30831 1.34181,0.59943z" fill="url(#color-20)"/><path d="M273.99208,148.17375c-0.02444,0.17221 -0.75922,0.43411 -1.35314,1.00526c-0.58236,0.56005 -0.40734,2.05829 -0.89525,2.14389c-0.46608,0.08176 -0.47673,-1.57029 -1.05594,-2.11088c-0.61432,-0.57336 -1.53298,-0.59758 -1.58348,-1.10343c-0.02103,-0.21067 1.12828,-0.1877 1.49607,-0.69922c0.58353,-0.81155 0.50518,-2.53019 1.07817,-2.58027c0.4936,-0.04315 0.38103,2.10035 0.97176,2.74523c0.51023,0.55702 1.38311,0.3083 1.34181,0.59942z" fill="url(#color-21)"/><path d="M263.35022,147.38884c-0.02444,0.17221 -0.75922,0.4341 -1.35314,1.00525c-0.58237,0.56005 -0.40734,2.0583 -0.89525,2.14389c-0.46608,0.08176 -0.47672,-1.57029 -1.05593,-2.11089c-0.61432,-0.57336 -1.53298,-0.59758 -1.58348,-1.10343c-0.02103,-0.21067 1.12828,-0.1877 1.49607,-0.69922c0.58353,-0.81155 0.50518,-2.53018 1.07817,-2.58026c0.4936,-0.04314 0.38103,2.10034 0.97176,2.74523c0.51023,0.55702 1.38312,0.30831 1.3418,0.59943z" fill="url(#color-22)"/><path d="M225.1247,95.31682c0.52231,-0.01651 0.454,0.85316 0.79123,1.18616c0.29916,0.29541 1.03357,0.02591 1.04763,0.47073c0.01351,0.42741 -0.74231,0.24664 -1.00243,0.55528c-0.31576,0.37466 -0.18765,1.19736 -0.7281,1.21444c-0.40437,0.01278 -0.274,-0.76023 -0.58014,-0.96837c-0.4401,-0.29923 -1.24108,-0.13048 -1.25872,-0.68852c-0.01342,-0.42444 0.80468,-0.43259 1.06149,-0.74029c0.31571,-0.37829 0.12551,-1.01225 0.66905,-1.02944z" fill="url(#color-23)"/><path d="M275.76527,114.45962c0.52232,-0.01651 0.45401,0.85316 0.79123,1.18616c0.29915,0.29541 1.03356,0.02591 1.04763,0.47073c0.01351,0.42741 -0.74231,0.24665 -1.00244,0.55528c-0.31576,0.37466 -0.18766,1.19735 -0.7281,1.21443c-0.40436,0.01278 -0.274,-0.76023 -0.58014,-0.96837c-0.4401,-0.29923 -1.24108,-0.13048 -1.25873,-0.68852c-0.01342,-0.42444 0.80469,-0.43258 1.06149,-0.74028c0.3157,-0.37829 0.1255,-1.01225 0.66904,-1.02944z" fill="url(#color-24)"/><path d="M237.41043,157.74333c0.52231,-0.01651 0.454,0.85316 0.79123,1.18616c0.29916,0.29541 1.03357,0.02591 1.04763,0.47073c0.01351,0.42741 -0.74231,0.24665 -1.00243,0.55529c-0.31576,0.37466 -0.18766,1.19735 -0.7281,1.21443c-0.40437,0.01279 -0.27399,-0.76022 -0.58013,-0.96837c-0.4401,-0.29922 -1.24108,-0.13048 -1.25872,-0.68852c-0.01342,-0.42444 0.80468,-0.43258 1.06149,-0.74028c0.31571,-0.37829 0.12551,-1.01226 0.66905,-1.02944z" fill="url(#color-25)"/><path d="M257.55271,133.45856c0.52231,-0.01651 0.45399,0.85316 0.79122,1.18616c0.29916,0.2954 1.03357,0.02592 1.04763,0.47073c0.01351,0.42741 -0.74231,0.24664 -1.00244,0.55528c-0.31576,0.37466 -0.18766,1.19735 -0.7281,1.21444c-0.40437,0.01279 -0.27399,-0.76022 -0.58013,-0.96837c-0.4401,-0.29923 -1.24108,-0.13047 -1.25872,-0.68852c-0.01342,-0.42443 0.80468,-0.43258 1.06149,-0.74029c0.31571,-0.37829 0.12551,-1.01226 0.66905,-1.02944z" fill="url(#color-26)"/></g></g></g></svg>