<svg version="1.1" xmlns="http://www.w3.org/2000/svg" xmlns:xlink="http://www.w3.org/1999/xlink" width="115.16676" height="155.53831" viewBox="0,0,115.16676,155.53831"><defs><linearGradient x1="246.53637" y1="51.09376" x2="246.53637" y2="240.05834" gradientUnits="userSpaceOnUse" id="color-1"><stop offset="0" stop-color="#000000"/><stop offset="1" stop-color="#000000" stop-opacity="0"/></linearGradient><radialGradient cx="279.45689" cy="129.2912" r="49.06667" gradientUnits="userSpaceOnUse" id="color-2"><stop offset="0" stop-color="#80ffd8"/><stop offset="1" stop-color="#00ffb2"/></radialGradient></defs><g transform="translate(-181.00073,-56.65848)"><g data-paper-data="{&quot;isPaintingLayer&quot;:true}" fill-rule="nonzero" stroke-miterlimit="10" stroke-dasharray="" stroke-dashoffset="0" style="mix-blend-mode: normal"><path d="M296.16679,179.35687c0.08605,1.98786 -7.73989,7.47108 -48.50565,7.47108c-40.76576,0 -52.14751,-4.68056 -52.16115,-7.88054c-0.01178,-2.7627 10.55181,-6.44742 51.31757,-6.44742c40.76576,0 49.27051,5.03854 49.34923,6.85688z" fill="url(#color-1)" stroke="none" stroke-width="0" stroke-linecap="butt" stroke-linejoin="miter"/><path d="M270.02099,178.35787v-98.13333h18.8718v98.13333z" fill="url(#color-2)" stroke="#000000" stroke-width="2" stroke-linecap="butt" stroke-linejoin="miter"/><g fill="none" stroke="#000000" stroke-width="2" stroke-linecap="round" stroke-linejoin="miter"><path d="M280.22575,85.67215h7.71429"/><path d="M283.79718,93.81501h4"/><path d="M283.94004,109.81501h4.14286"/><path d="M280.22575,117.67215h7.57143"/><path d="M283.94004,125.5293h4.14286"/><path d="M280.36861,133.67215h7.85714"/><path d="M283.94004,141.5293h3.85714"/><path d="M279.94004,101.52929h8"/><path d="M288.0829,149.67215h-7.71429"/><path d="M288.0829,157.38644h-4.14286"/><path d="M288.0829,165.5293h-8.14286"/><path d="M283.94004,173.67215h4"/></g><text transform="translate(192.53566,74.37426) scale(0.46015,0.46015)" font-size="40" xml:space="preserve" fill="#000000" fill-rule="nonzero" stroke="#000000" stroke-width="2" stroke-linecap="butt" stroke-linejoin="miter" stroke-miterlimit="10" stroke-dasharray="" stroke-dashoffset="0" font-family="Handwriting" font-weight="normal" text-anchor="start" style="mix-blend-mode: normal"></text><g stroke-width="0.90232"><path d="M227.15486,158.48031v0v0v0v0v0v0c1.86915,3.47236 -1.93909,8.66142 -2.25508,9.11763c-0.54537,0.53211 0,0 -0.00918,0.013c0,0 -2.73671,2.95487 -4.54687,1.95278c-0.77093,-0.42545 -1.11912,-1.17989 -1.1368,-2.16822c-0.33826,-0.1081 -0.80612,-0.33732 -1.01552,-0.83263c-0.34896,-0.82345 1.40825,-1.45976 1.40825,-1.45976v0.01224c0.08057,-0.25454 0.16726,-0.51596 0.2723,-0.78742c0.59373,-1.53642 2.05714,-4.54041 2.05714,-4.54041c0,0 3.33273,-4.82411 5.22576,-1.30721z" fill="#9a8479" stroke="#000000" stroke-linecap="round" stroke-linejoin="round"/><path d="M248.25472,163.61029v0v0v0v0v0v0c0,0 1.7573,0.63792 1.40596,1.4606c-0.20788,0.49913 -0.67727,0.72759 -1.01399,0.83722c-0.01768,0.98365 -0.3651,1.74115 -1.13672,2.16669c-1.1781,0.65093 -2.65699,-0.31046 -3.54979,-1.06337c-0.42027,-0.28293 -0.89204,-0.59041 -1.31001,-0.8311c-1.05471,-0.608 -3.56365,-4.72909 -3.08423,-7.04528c0.47942,-2.31618 5.55169,0 5.55169,0c1.1804,1.13476 2.45675,2.63667 2.86555,3.69707c0.1036,0.27213 0.19181,0.53594 0.27154,0.79354v-0.01538z" fill="#9a8479" stroke="#000000" stroke-linecap="round" stroke-linejoin="round"/><path d="M229.18438,167.27362v0v0v0v0v0v0c3.31506,1.26275 4.62353,1.95048 4.15644,4.59175c-0.35049,1.98039 1.34001,6.32916 1.34001,6.32916c0,0 0.82073,0.23533 0.53917,0.89705c-0.28148,0.66929 -2.31712,1.11403 -4.95567,0.97372c-2.63778,-0.13955 -4.71031,-0.10887 -5.00938,-0.74221c-0.29993,-0.63019 0.25003,-0.92382 0.25003,-0.92382c0,0 0.10198,-1.49434 0.10504,-3.10054c0,-1.60628 -0.25539,-6.00102 -0.25539,-6.00102c0,0 0.51469,-3.28683 3.82975,-2.02408z" fill="#9a8479" stroke="#000000" stroke-linecap="butt" stroke-linejoin="miter"/><path d="M237.74431,167.86012v0v0v0v0v0v0c2.49279,-1.13774 4.00839,-1.32641 4.64733,0.00153c0,0 1.24949,2.33387 1.87841,4.76504c0.62747,2.42973 1.07689,5.22431 1.07689,5.22431c0,0 0.83306,0.44321 0.82685,0.88022c-0.00459,0.43701 -0.72172,1.29191 -4.5031,1.39848c-3.77994,0.1019 -5.12675,-0.51835 -5.24335,-1.09032c-0.11966,-0.5712 0.32364,-0.62177 0.32364,-0.62177c0,0 0.05219,-0.62024 0,-2.12071c-0.05133,-1.50038 -0.67422,-4.26361 -0.67422,-4.26361c0,0 -0.82532,-3.03536 1.66755,-4.17318z" fill="#9a8479" stroke="#000000" stroke-linecap="butt" stroke-linejoin="miter"/><path d="M232.05069,155.40433v0v0v0v0v0v0c6.88941,-0.53287 9.52098,3.46242 9.51945,3.46166c0.56076,1.03193 1.25715,2.48794 1.54636,3.81741c0.07972,0.36723 0.12884,0.78045 0.14108,1.22366c0,0 -0.04063,1.53948 -0.1902,2.00946c-0.62739,1.96893 -1.64911,4.12414 -4.09278,5.09862c-3.83662,1.53642 -7.92022,1.34783 -12.16343,-0.6709c-1.43196,-0.67931 -2.28032,-1.83702 -2.73824,-3.15494c-0.32678,-0.94847 -0.46634,-2.18513 -0.46634,-2.18513c-0.201,-2.05705 0.15876,-4.06508 0.3505,-4.93833c0,0 1.20504,-4.12873 8.0936,-4.66152z" fill="#9a8479" stroke="#000000" stroke-linecap="butt" stroke-linejoin="miter"/><g stroke-linejoin="miter"><path d="M196.40193,143.67756v0v0v0v0v0v0c-0.04063,-0.07054 -1.22723,-2.05238 -1.22723,-2.05324c-3.29126,-5.2833 -4.02071,-17.2323 -3.73464,-20.96159l0.02533,-0.17865c0.93504,-15.80706 8.2861,-24.24384 12.62748,-28.70912c9.85388,-10.1419 24.79006,-10.55444 24.79006,-10.55444l0.52922,10.2608c0,0 -0.02838,-2.95104 5.98046,-8.11017c6.00731,-5.15913 14.89088,-4.40546 14.89088,-4.40546l-4.71404,12.85831c0,0 2.77887,-4.00524 5.05621,-5.46891c4.03754,-2.59061 7.45151,-1.47736 7.45151,-1.47736l-0.94107,7.97522c0,0 6.00884,7.78969 10.60781,15.10939c0.98417,1.56175 2.12471,3.1427 2.84796,4.96128c2.63013,6.6075 3.00977,18.38398 0.06136,24.21707c-0.50925,1.03202 -1.0638,2.03411 -1.63909,3.01929c-0.14958,0.25301 -0.29992,0.50449 -0.45256,0.75291c-0.52693,0.86637 -1.07689,1.71583 -1.65523,2.53928c-0.07819,0.10963 -0.14958,0.22615 -0.22777,0.33587c-0.65585,0.91618 -1.34766,1.79861 -2.06717,2.65656c-0.17176,0.20703 -0.35279,0.40709 -0.52846,0.61259c-0.61667,0.70846 -1.25562,1.39696 -1.91138,2.05936c-0.15111,0.15493 -0.29839,0.31207 -0.45103,0.46157c-0.78928,0.77135 -1.61146,1.50659 -2.45829,2.20884c-0.18867,0.15417 -0.38193,0.30137 -0.57223,0.45239c-0.71101,0.56738 -1.44582,1.10944 -2.19745,1.62617c-0.21706,0.1472 -0.42877,0.30205 -0.64736,0.44619c-0.91813,0.60342 -1.85852,1.17003 -2.8296,1.69365c-0.17329,0.09434 -0.35737,0.17712 -0.53304,0.26839c-0.82991,0.43166 -1.67903,0.8288 -2.5465,1.1968c-3.66945,1.55562 -7.65405,2.56844 -11.93253,2.87669c-4.88971,0.35193 -9.31624,0.20389 -13.31468,-0.31743c-0.98867,-0.12884 -1.95048,-0.28293 -2.88705,-0.45545c-0.17797,-0.03603 -0.35516,-0.07054 -0.53152,-0.10504c-0.94958,-0.18706 -1.88155,-0.38789 -2.77588,-0.61719c-0.00536,-0.00153 -0.01224,-0.00306 -0.01836,-0.00459c-0.89595,-0.22692 -1.7573,-0.48145 -2.59869,-0.75138c-0.14729,-0.04674 -0.29839,-0.09349 -0.44491,-0.14108c-0.80841,-0.26449 -1.59617,-0.54741 -2.35545,-0.84716c-0.13351,-0.05057 -0.26236,-0.1081 -0.39503,-0.1602c-0.74943,-0.30213 -1.48032,-0.6165 -2.18139,-0.94923c-0.02686,-0.0153 -0.05677,-0.02533 -0.08286,-0.0391c-0.71789,-0.34344 -1.40366,-0.70226 -2.07014,-1.06958c-0.12434,-0.06893 -0.24783,-0.13641 -0.36893,-0.20542c-0.64123,-0.36417 -1.26259,-0.73608 -1.8547,-1.11938c-0.09052,-0.05754 -0.17643,-0.11737 -0.26619,-0.17559c-0.5622,-0.37106 -1.10603,-0.74985 -1.62608,-1.13629c-0.05363,-0.0368 -0.11269,-0.0759 -0.16411,-0.11652c-0.54231,-0.40709 -1.05462,-0.82345 -1.54857,-1.24278c-0.09595,-0.08057 -0.19029,-0.16182 -0.28233,-0.2423c-0.48163,-0.41941 -0.9449,-0.83952 -1.38063,-1.26964c-0.0498,-0.04683 -0.0951,-0.09663 -0.14414,-0.14414c-0.41041,-0.40871 -0.79999,-0.82039 -1.16816,-1.23216c-0.05142,-0.05974 -0.10971,-0.11805 -0.1619,-0.17627c-0.37735,-0.43319 -1.19272,-1.4606 -1.25562,-1.54262c-0.32823,-0.43395 -0.64124,-0.86714 -0.92425,-1.29803c-0.0176,-0.02686 -0.0345,-0.05371 -0.05057,-0.08048c-0.27154,-0.41483 -0.51851,-0.82345 -0.74943,-1.23063z" fill="#9a8479" stroke="#000000" stroke-linecap="butt"/><path d="M254.40932,120.61676v0v0v0v0v0v0c0,0 8.93576,10.10204 6.17448,20.58135c-2.75974,10.47617 -19.25214,14.91459 -31.92406,14.118c-16.7517,-1.05419 -24.51784,-11.03054 -21.76116,-20.55143c2.7605,-9.52089 24.93811,-13.97156 24.93811,-13.97156l-3.64183,6.84045c0,0 2.8687,-0.44313 5.18581,-1.76801c2.31644,-1.32251 4.85683,-3.08669 4.85683,-3.08669l-5.30624,7.51747c0,0 7.00821,-0.07513 13.07689,-2.50401c6.06868,-2.42582 8.40117,-7.17556 8.40117,-7.17556z" fill="#e6e7e8" stroke="#000000" stroke-linecap="butt"/><g stroke="#000000"><path d="M265.8433,115.15473c0,0 14.38308,-8.07873 17.67051,-1.20904c3.28752,6.8696 -2.59325,14.92003 -14.86555,22.20369c0,0 0.27077,-11.9598 -2.80495,-20.99465v0v0v0v0v0v0zM265.8433,115.15473c-0.257,-1.05725 -1.10612,-3.07904 -1.10612,-3.07904M268.32921,138.01165l0.15417,-1.93434" fill="#9a8479" stroke-linecap="round"/><path d="M268.48338,136.07655c0.07972,-2.21505 0.07666,-5.86223 -0.42264,-10.41641c-0.28769,-2.65053 -0.84377,-5.3846 -1.41437,-7.746l0.00153,0.00306c8.42489,-2.14451 15.92332,5.64212 15.92332,5.64212h0.00306c-4.21092,6.99003 -14.02341,12.32398 -14.02341,12.32398l-0.06748,0.19326v0v0v0v0v0v0z" fill="#ee4036" stroke-linecap="butt"/></g><g stroke="#000000"><path d="M198.33865,141.41815c-11.94629,-4.75357 -18.39231,-11.18156 -16.58674,-17.93397c1.80634,-6.75308 15.73541,-1.59778 15.73541,-1.59778c-1.27712,8.6898 0.85133,19.53175 0.85133,19.53175v0v0v0zM197.9743,118.91623c0,0 -0.42801,1.96807 -0.48622,2.97017M198.47216,141.32611l0.44177,1.73733" fill="#9a8479" stroke-linecap="round"/><path d="M198.38242,141.16131c0,0 -9.475,-3.35585 -14.28423,-9.07242l0.00229,-0.00077c0,0 5.36531,-8.22975 13.11531,-7.56506l0.00077,-0.0023c-0.12884,2.23494 -0.18562,4.80796 -0.01921,7.26301c0.28071,4.22069 0.85448,7.53974 1.27483,9.54232l-0.08975,-0.16479v0v0v0v0v0v0z" fill="#ee4036" stroke-linecap="butt"/></g><path d="M244.64901,137.10236c-0.55608,0 -1.04239,-0.4025 -1.13443,-0.96912c-0.10054,-0.62713 0.3267,-1.21755 0.95417,-1.31791c0.57061,-0.08975 5.62834,-0.87869 7.49222,-0.6471c0.63053,0.07972 1.07842,0.65475 1.00252,1.28188c-0.0798,0.6318 -0.6635,1.07034 -1.284,1.00209c-1.17275,-0.14261 -4.81765,0.31131 -6.84793,0.63333c-0.06136,0.01224 -0.12272,0.01683 -0.18255,0.01683v0v0v0v0z" fill="#231f20" stroke="none" stroke-linecap="butt"/><path d="M226.00505,137.34772c-0.07207,0 -0.14499,-0.00764 -0.22012,-0.02074c-2.65623,-0.51367 -7.32735,0.00926 -7.37332,0.01386c-0.62059,0.06901 -1.19969,-0.37879 -1.27329,-1.01051c-0.07207,-0.63028 0.3804,-1.20071 1.01246,-1.27278c0.20711,-0.02065 5.06615,-0.56577 8.07134,0.01385c0.62279,0.11958 1.03244,0.723 0.91125,1.34936c-0.10666,0.54512 -0.58906,0.92696 -1.12831,0.92696v0v0v0v0v0v0v0z" fill="#231f20" stroke="none" stroke-linecap="butt"/><path d="M245.42138,142.48152c0,0 -3.10411,4.18542 -10.05488,4.18542c-6.94915,0 -8.80997,-2.7509 -8.80997,-2.7509" fill="none" stroke="#231f20" stroke-linecap="round"/></g></g><text transform="translate(225.9613,204.37425) scale(0.46015,0.46015)" font-size="40" xml:space="preserve" fill="#000000" fill-rule="nonzero" stroke="#000000" stroke-width="1" stroke-linecap="butt" stroke-linejoin="miter" stroke-miterlimit="10" stroke-dasharray="" stroke-dashoffset="0" font-family="Handwriting" font-weight="normal" text-anchor="start" style="mix-blend-mode: normal"></text></g></g></svg>