<svg version="1.1" xmlns="http://www.w3.org/2000/svg" xmlns:xlink="http://www.w3.org/1999/xlink" width="178.07485" height="165.85675" viewBox="0,0,178.07485,165.85675"><defs><linearGradient x1="240.70264" y1="51.42979" x2="240.70264" y2="240.39437" gradientUnits="userSpaceOnUse" id="color-1"><stop offset="0" stop-color="#000000"/><stop offset="1" stop-color="#000000" stop-opacity="0"/></linearGradient><radialGradient cx="237.81254" cy="130.73664" r="50.18746" gradientUnits="userSpaceOnUse" id="color-2"><stop offset="0" stop-color="#1500b7"/><stop offset="1" stop-color="#0065c9"/></radialGradient><radialGradient cx="234" cy="151.66667" r="27.16667" gradientUnits="userSpaceOnUse" id="color-3"><stop offset="0" stop-color="#00e2e3"/><stop offset="1" stop-color="#00e2e3" stop-opacity="0"/></radialGradient><radialGradient cx="263.33333" cy="131.33334" r="26.83333" gradientUnits="userSpaceOnUse" id="color-4"><stop offset="0" stop-color="#00e2e3"/><stop offset="1" stop-color="#00e2e3" stop-opacity="0"/></radialGradient><radialGradient cx="243.5" cy="98" r="14.83333" gradientUnits="userSpaceOnUse" id="color-5"><stop offset="0" stop-color="#00e2e3"/><stop offset="1" stop-color="#00e2e3" stop-opacity="0"/></radialGradient><radialGradient cx="201.5" cy="108" r="19.83334" gradientUnits="userSpaceOnUse" id="color-6"><stop offset="0" stop-color="#00e2e3"/><stop offset="1" stop-color="#00e2e3" stop-opacity="0"/></radialGradient><radialGradient cx="194.5" cy="149.66667" r="23" gradientUnits="userSpaceOnUse" id="color-7"><stop offset="0" stop-color="#00e2e3"/><stop offset="1" stop-color="#00e2e3" stop-opacity="0"/></radialGradient><radialGradient cx="268" cy="165" r="17.83333" gradientUnits="userSpaceOnUse" id="color-8"><stop offset="0" stop-color="#00e2e3"/><stop offset="1" stop-color="#00e2e3" stop-opacity="0"/></radialGradient><radialGradient cx="270.33333" cy="100.66667" r="19.5" gradientUnits="userSpaceOnUse" id="color-9"><stop offset="0" stop-color="#00e2e3"/><stop offset="1" stop-color="#00e2e3" stop-opacity="0"/></radialGradient><radialGradient cx="218.5" cy="89.83334" r="12.66666" gradientUnits="userSpaceOnUse" id="color-10"><stop offset="0" stop-color="#00e2e3"/><stop offset="1" stop-color="#00e2e3" stop-opacity="0"/></radialGradient><radialGradient cx="200.66667" cy="124.83334" r="61.5" gradientUnits="userSpaceOnUse" id="color-11"><stop offset="0" stop-color="#00e2e3"/><stop offset="1" stop-color="#00e2e3" stop-opacity="0"/></radialGradient><radialGradient cx="282.75" cy="145" r="43.75" gradientUnits="userSpaceOnUse" id="color-12"><stop offset="0" stop-color="#00e2e3"/><stop offset="1" stop-color="#00e2e3" stop-opacity="0"/></radialGradient><radialGradient cx="200.66667" cy="120.83334" r="22.5" gradientUnits="userSpaceOnUse" id="color-13"><stop offset="0" stop-color="#00fa5d"/><stop offset="1" stop-color="#00fa5d" stop-opacity="0"/></radialGradient><radialGradient cx="197" cy="141.33334" r="14.5" gradientUnits="userSpaceOnUse" id="color-14"><stop offset="0" stop-color="#00fa5d"/><stop offset="1" stop-color="#00fa5d" stop-opacity="0"/></radialGradient><radialGradient cx="236.16667" cy="151.16667" r="20.33334" gradientUnits="userSpaceOnUse" id="color-15"><stop offset="0" stop-color="#00fa5d"/><stop offset="1" stop-color="#00fa5d" stop-opacity="0"/></radialGradient><radialGradient cx="268.66667" cy="130.83334" r="15.66667" gradientUnits="userSpaceOnUse" id="color-16"><stop offset="0" stop-color="#00fa5d"/><stop offset="1" stop-color="#00fa5d" stop-opacity="0"/></radialGradient><radialGradient cx="240.33334" cy="99.83334" r="9.33333" gradientUnits="userSpaceOnUse" id="color-17"><stop offset="0" stop-color="#00fa5d"/><stop offset="1" stop-color="#00fa5d" stop-opacity="0"/></radialGradient><radialGradient cx="221.5" cy="104.57937" r="10.66666" gradientUnits="userSpaceOnUse" id="color-18"><stop offset="0" stop-color="#00fa5d"/><stop offset="1" stop-color="#00fa5d" stop-opacity="0"/></radialGradient><radialGradient cx="217.66667" cy="91.83334" r="10.83334" gradientUnits="userSpaceOnUse" id="color-19"><stop offset="0" stop-color="#00fa5d"/><stop offset="1" stop-color="#00fa5d" stop-opacity="0"/></radialGradient><radialGradient cx="250.83334" cy="118" r="16.83333" gradientUnits="userSpaceOnUse" id="color-20"><stop offset="0" stop-color="#00fa5d"/><stop offset="1" stop-color="#00fa5d" stop-opacity="0"/></radialGradient><radialGradient cx="272.83333" cy="102" r="10.83333" gradientUnits="userSpaceOnUse" id="color-21"><stop offset="0" stop-color="#00fa5d"/><stop offset="1" stop-color="#00fa5d" stop-opacity="0"/></radialGradient><radialGradient cx="274.33333" cy="165.5" r="23.04444" gradientUnits="userSpaceOnUse" id="color-22"><stop offset="0" stop-color="#00fa5d"/><stop offset="1" stop-color="#00fa5d" stop-opacity="0"/></radialGradient><radialGradient cx="213.66667" cy="166.5" r="14.5" gradientUnits="userSpaceOnUse" id="color-23"><stop offset="0" stop-color="#00fa5d"/><stop offset="1" stop-color="#00fa5d" stop-opacity="0"/></radialGradient><radialGradient cx="224.66667" cy="120.16667" r="8.66667" gradientUnits="userSpaceOnUse" id="color-24"><stop offset="0" stop-color="#00fa5d"/><stop offset="1" stop-color="#00fa5d" stop-opacity="0"/></radialGradient><radialGradient cx="246.58334" cy="171.08334" r="14.33333" gradientUnits="userSpaceOnUse" id="color-25"><stop offset="0" stop-color="#00fa5d"/><stop offset="1" stop-color="#00fa5d" stop-opacity="0"/></radialGradient><radialGradient cx="249.66667" cy="92.83334" r="11.66667" gradientUnits="userSpaceOnUse" id="color-26"><stop offset="0" stop-color="#00fa5d"/><stop offset="1" stop-color="#00fa5d" stop-opacity="0"/></radialGradient><radialGradient cx="257.66667" cy="90.16667" r="7.83333" gradientUnits="userSpaceOnUse" id="color-27"><stop offset="0" stop-color="#00fa5d"/><stop offset="1" stop-color="#00fa5d" stop-opacity="0"/></radialGradient><radialGradient cx="283.16667" cy="127.5" r="11.38775" gradientUnits="userSpaceOnUse" id="color-28"><stop offset="0" stop-color="#00fa5d"/><stop offset="1" stop-color="#00fa5d" stop-opacity="0"/></radialGradient><radialGradient cx="214.83334" cy="146.5" r="17" gradientUnits="userSpaceOnUse" id="color-29"><stop offset="0" stop-color="#0015fa"/><stop offset="1" stop-color="#0015fa" stop-opacity="0"/></radialGradient><radialGradient cx="213.66667" cy="127.5" r="11.5" gradientUnits="userSpaceOnUse" id="color-30"><stop offset="0" stop-color="#0015fa"/><stop offset="1" stop-color="#0015fa" stop-opacity="0"/></radialGradient><radialGradient cx="193.83334" cy="129.5" r="5.66666" gradientUnits="userSpaceOnUse" id="color-31"><stop offset="0" stop-color="#0015fa"/><stop offset="1" stop-color="#0015fa" stop-opacity="0"/></radialGradient><radialGradient cx="209.66667" cy="103.16667" r="11.83334" gradientUnits="userSpaceOnUse" id="color-32"><stop offset="0" stop-color="#0015fa"/><stop offset="1" stop-color="#0015fa" stop-opacity="0"/></radialGradient><radialGradient cx="235.66667" cy="128.5" r="18.76471" gradientUnits="userSpaceOnUse" id="color-33"><stop offset="0" stop-color="#0015fa"/><stop offset="1" stop-color="#0015fa" stop-opacity="0"/></radialGradient><radialGradient cx="267.66667" cy="111.83334" r="10.66667" gradientUnits="userSpaceOnUse" id="color-34"><stop offset="0" stop-color="#0015fa"/><stop offset="1" stop-color="#0015fa" stop-opacity="0"/></radialGradient><radialGradient cx="260.5" cy="100.5" r="7.66667" gradientUnits="userSpaceOnUse" id="color-35"><stop offset="0" stop-color="#0015fa"/><stop offset="1" stop-color="#0015fa" stop-opacity="0"/></radialGradient><radialGradient cx="235" cy="87.83334" r="9.83334" gradientUnits="userSpaceOnUse" id="color-36"><stop offset="0" stop-color="#0015fa"/><stop offset="1" stop-color="#0015fa" stop-opacity="0"/></radialGradient><radialGradient cx="279.16667" cy="147.5" r="12" gradientUnits="userSpaceOnUse" id="color-37"><stop offset="0" stop-color="#0015fa"/><stop offset="1" stop-color="#0015fa" stop-opacity="0"/></radialGradient><radialGradient cx="260.5" cy="146.33334" r="12" gradientUnits="userSpaceOnUse" id="color-38"><stop offset="0" stop-color="#0015fa"/><stop offset="1" stop-color="#0015fa" stop-opacity="0"/></radialGradient><radialGradient cx="230" cy="174.5" r="12.83334" gradientUnits="userSpaceOnUse" id="color-39"><stop offset="0" stop-color="#0015fa"/><stop offset="1" stop-color="#0015fa" stop-opacity="0"/></radialGradient><radialGradient cx="234" cy="164.33334" r="12.16666" gradientUnits="userSpaceOnUse" id="color-40"><stop offset="0" stop-color="#00faf9"/><stop offset="1" stop-color="#00faf9" stop-opacity="0"/></radialGradient><radialGradient cx="261.33333" cy="152.33334" r="10.83333" gradientUnits="userSpaceOnUse" id="color-41"><stop offset="0" stop-color="#00faf9"/><stop offset="1" stop-color="#00faf9" stop-opacity="0"/></radialGradient><radialGradient cx="257.33333" cy="108.33334" r="8.16667" gradientUnits="userSpaceOnUse" id="color-42"><stop offset="0" stop-color="#00faf9"/><stop offset="1" stop-color="#00faf9" stop-opacity="0"/></radialGradient><radialGradient cx="231.83334" cy="94.16667" r="8" gradientUnits="userSpaceOnUse" id="color-43"><stop offset="0" stop-color="#00faf9"/><stop offset="1" stop-color="#00faf9" stop-opacity="0"/></radialGradient><radialGradient cx="208.5" cy="111.83334" r="10.66666" gradientUnits="userSpaceOnUse" id="color-44"><stop offset="0" stop-color="#00faf9"/><stop offset="1" stop-color="#00faf9" stop-opacity="0"/></radialGradient><radialGradient cx="208.66667" cy="128" r="9.5" gradientUnits="userSpaceOnUse" id="color-45"><stop offset="0" stop-color="#00faf9"/><stop offset="1" stop-color="#00faf9" stop-opacity="0"/></radialGradient><radialGradient cx="224.83334" cy="137.33334" r="12.66666" gradientUnits="userSpaceOnUse" id="color-46"><stop offset="0" stop-color="#00faf9"/><stop offset="1" stop-color="#00faf9" stop-opacity="0"/></radialGradient><radialGradient cx="238.33334" cy="122.66667" r="16.83333" gradientUnits="userSpaceOnUse" id="color-47"><stop offset="0" stop-color="#00faf9"/><stop offset="1" stop-color="#00faf9" stop-opacity="0"/></radialGradient><radialGradient cx="270.5" cy="131.66667" r="13.66667" gradientUnits="userSpaceOnUse" id="color-48"><stop offset="0" stop-color="#ffdd00"/><stop offset="1" stop-color="#ffdd00" stop-opacity="0"/></radialGradient><radialGradient cx="254.16667" cy="122.33334" r="11.33334" gradientUnits="userSpaceOnUse" id="color-49"><stop offset="0" stop-color="#ffdd00"/><stop offset="1" stop-color="#ffdd00" stop-opacity="0"/></radialGradient><radialGradient cx="272.66667" cy="162.16667" r="11.16667" gradientUnits="userSpaceOnUse" id="color-50"><stop offset="0" stop-color="#ffdd00"/><stop offset="1" stop-color="#ffdd00" stop-opacity="0"/></radialGradient><radialGradient cx="247.16667" cy="155.5" r="15" gradientUnits="userSpaceOnUse" id="color-51"><stop offset="0" stop-color="#ffdd00"/><stop offset="1" stop-color="#ffdd00" stop-opacity="0"/></radialGradient><radialGradient cx="215" cy="165.33334" r="11.5" gradientUnits="userSpaceOnUse" id="color-52"><stop offset="0" stop-color="#ffdd00"/><stop offset="1" stop-color="#ffdd00" stop-opacity="0"/></radialGradient><radialGradient cx="195.33334" cy="144" r="9.83333" gradientUnits="userSpaceOnUse" id="color-53"><stop offset="0" stop-color="#ffdd00"/><stop offset="1" stop-color="#ffdd00" stop-opacity="0"/></radialGradient><radialGradient cx="197.5" cy="118" r="12.33334" gradientUnits="userSpaceOnUse" id="color-54"><stop offset="0" stop-color="#ffdd00"/><stop offset="1" stop-color="#ffdd00" stop-opacity="0"/></radialGradient><radialGradient cx="204.83334" cy="131.66667" r="8.16666" gradientUnits="userSpaceOnUse" id="color-55"><stop offset="0" stop-color="#ffdd00"/><stop offset="1" stop-color="#ffdd00" stop-opacity="0"/></radialGradient><radialGradient cx="222.16667" cy="95.16667" r="10.66667" gradientUnits="userSpaceOnUse" id="color-56"><stop offset="0" stop-color="#ffdd00"/><stop offset="1" stop-color="#ffdd00" stop-opacity="0"/></radialGradient><radialGradient cx="223.16667" cy="111.33334" r="13.5" gradientUnits="userSpaceOnUse" id="color-57"><stop offset="0" stop-color="#ffdd00"/><stop offset="1" stop-color="#ffdd00" stop-opacity="0"/></radialGradient><radialGradient cx="239.66667" cy="102.16667" r="17.16667" gradientUnits="userSpaceOnUse" id="color-58"><stop offset="0" stop-color="#ffdd00"/><stop offset="1" stop-color="#ffdd00" stop-opacity="0"/></radialGradient><radialGradient cx="253.16667" cy="91" r="9" gradientUnits="userSpaceOnUse" id="color-59"><stop offset="0" stop-color="#ffdd00"/><stop offset="1" stop-color="#ffdd00" stop-opacity="0"/></radialGradient><radialGradient cx="270.66667" cy="101" r="10.16667" gradientUnits="userSpaceOnUse" id="color-60"><stop offset="0" stop-color="#ffdd00"/><stop offset="1" stop-color="#ffdd00" stop-opacity="0"/></radialGradient><radialGradient cx="231" cy="143.83334" r="10.83334" gradientUnits="userSpaceOnUse" id="color-61"><stop offset="0" stop-color="#ffdd00"/><stop offset="1" stop-color="#ffdd00" stop-opacity="0"/></radialGradient><radialGradient cx="250.08334" cy="175.83334" r="9.16666" gradientUnits="userSpaceOnUse" id="color-62"><stop offset="0" stop-color="#ffdd00"/><stop offset="1" stop-color="#ffdd00" stop-opacity="0"/></radialGradient><radialGradient cx="261.83333" cy="166.16667" r="12" gradientUnits="userSpaceOnUse" id="color-63"><stop offset="0" stop-color="#ffdd00"/><stop offset="1" stop-color="#ffdd00" stop-opacity="0"/></radialGradient><radialGradient cx="275.16667" cy="118.33334" r="7" gradientUnits="userSpaceOnUse" id="color-64"><stop offset="0" stop-color="#ffdd00"/><stop offset="1" stop-color="#ffdd00" stop-opacity="0"/></radialGradient><radialGradient cx="203.33334" cy="156.5" r="5.5" gradientUnits="userSpaceOnUse" id="color-65"><stop offset="0" stop-color="#ffdd00"/><stop offset="1" stop-color="#ffdd00" stop-opacity="0"/></radialGradient><radialGradient cx="228" cy="127.16667" r="5" gradientUnits="userSpaceOnUse" id="color-66"><stop offset="0" stop-color="#ffdd00"/><stop offset="1" stop-color="#ffdd00" stop-opacity="0"/></radialGradient><radialGradient cx="242.5" cy="116.5" r="13" gradientUnits="userSpaceOnUse" id="color-67"><stop offset="0" stop-color="#ffdd00"/><stop offset="1" stop-color="#ffdd00" stop-opacity="0"/></radialGradient><radialGradient cx="245.83334" cy="136.66667" r="8.83333" gradientUnits="userSpaceOnUse" id="color-68"><stop offset="0" stop-color="#ffdd00"/><stop offset="1" stop-color="#ffdd00" stop-opacity="0"/></radialGradient><radialGradient cx="196.66667" cy="115.16667" r="6.33334" gradientUnits="userSpaceOnUse" id="color-69"><stop offset="0" stop-color="#ff3000"/><stop offset="1" stop-color="#ff3000" stop-opacity="0"/></radialGradient><radialGradient cx="232.5" cy="103.33334" r="9.66666" gradientUnits="userSpaceOnUse" id="color-70"><stop offset="0" stop-color="#ff3000"/><stop offset="1" stop-color="#ff3000" stop-opacity="0"/></radialGradient><radialGradient cx="250.5" cy="108.16667" r="5" gradientUnits="userSpaceOnUse" id="color-71"><stop offset="0" stop-color="#ff3000"/><stop offset="1" stop-color="#ff3000" stop-opacity="0"/></radialGradient><radialGradient cx="200" cy="138.66667" r="4.83334" gradientUnits="userSpaceOnUse" id="color-72"><stop offset="0" stop-color="#ff3000"/><stop offset="1" stop-color="#ff3000" stop-opacity="0"/></radialGradient><radialGradient cx="240.83334" cy="147.66667" r="8" gradientUnits="userSpaceOnUse" id="color-73"><stop offset="0" stop-color="#ff3000"/><stop offset="1" stop-color="#ff3000" stop-opacity="0"/></radialGradient><radialGradient cx="230.33334" cy="158.83334" r="6.5" gradientUnits="userSpaceOnUse" id="color-74"><stop offset="0" stop-color="#ff3000"/><stop offset="1" stop-color="#ff3000" stop-opacity="0"/></radialGradient><radialGradient cx="277.33333" cy="130.33334" r="8.5" gradientUnits="userSpaceOnUse" id="color-75"><stop offset="0" stop-color="#ff3000"/><stop offset="1" stop-color="#ff3000" stop-opacity="0"/></radialGradient><radialGradient cx="260.5" cy="128.5" r="9.33333" gradientUnits="userSpaceOnUse" id="color-76"><stop offset="0" stop-color="#ff3000"/><stop offset="1" stop-color="#ff3000" stop-opacity="0"/></radialGradient><radialGradient cx="245.33334" cy="122.33334" r="7.83333" gradientUnits="userSpaceOnUse" id="color-77"><stop offset="0" stop-color="#ff3000"/><stop offset="1" stop-color="#ff3000" stop-opacity="0"/></radialGradient><radialGradient cx="250" cy="129.5" r="7.83333" gradientUnits="userSpaceOnUse" id="color-78"><stop offset="0" stop-color="#ff3000"/><stop offset="1" stop-color="#ff3000" stop-opacity="0"/></radialGradient><radialGradient cx="241.83334" cy="105.16667" r="6" gradientUnits="userSpaceOnUse" id="color-79"><stop offset="0" stop-color="#ff3000"/><stop offset="1" stop-color="#ff3000" stop-opacity="0"/></radialGradient><radialGradient cx="244.33334" cy="96.33334" r="7.83333" gradientUnits="userSpaceOnUse" id="color-80"><stop offset="0" stop-color="#ff3000"/><stop offset="1" stop-color="#ff3000" stop-opacity="0"/></radialGradient><radialGradient cx="241" cy="157.33334" r="8.16666" gradientUnits="userSpaceOnUse" id="color-81"><stop offset="0" stop-color="#ff3000"/><stop offset="1" stop-color="#ff3000" stop-opacity="0"/></radialGradient><radialGradient cx="250.33334" cy="155.83334" r="6.5" gradientUnits="userSpaceOnUse" id="color-82"><stop offset="0" stop-color="#ff3000"/><stop offset="1" stop-color="#ff3000" stop-opacity="0"/></radialGradient><radialGradient cx="269.83333" cy="165.66667" r="8.66667" gradientUnits="userSpaceOnUse" id="color-83"><stop offset="0" stop-color="#ff3000"/><stop offset="1" stop-color="#ff3000" stop-opacity="0"/></radialGradient><radialGradient cx="260.5" cy="170.66667" r="7.66667" gradientUnits="userSpaceOnUse" id="color-84"><stop offset="0" stop-color="#ff3000"/><stop offset="1" stop-color="#ff3000" stop-opacity="0"/></radialGradient><radialGradient cx="192.5" cy="120.66667" r="5" gradientUnits="userSpaceOnUse" id="color-85"><stop offset="0" stop-color="#ff3000"/><stop offset="1" stop-color="#ff3000" stop-opacity="0"/></radialGradient><radialGradient cx="218.16667" cy="92" r="6.66667" gradientUnits="userSpaceOnUse" id="color-86"><stop offset="0" stop-color="#ff3000"/><stop offset="1" stop-color="#ff3000" stop-opacity="0"/></radialGradient><radialGradient cx="203.16667" cy="165.66667" r="7.66667" gradientUnits="userSpaceOnUse" id="color-87"><stop offset="0" stop-color="#ff3000"/><stop offset="1" stop-color="#ff3000" stop-opacity="0"/></radialGradient><radialGradient cx="206.16667" cy="153.16667" r="5" gradientUnits="userSpaceOnUse" id="color-88"><stop offset="0" stop-color="#ff3000"/><stop offset="1" stop-color="#ff3000" stop-opacity="0"/></radialGradient><radialGradient cx="171" cy="163.5" r="113" gradientUnits="userSpaceOnUse" id="color-89"><stop offset="0" stop-color="#ff3000"/><stop offset="1" stop-color="#ff3000" stop-opacity="0"/></radialGradient><radialGradient cx="324.75" cy="166" r="113" gradientUnits="userSpaceOnUse" id="color-90"><stop offset="0" stop-color="#6400ff"/><stop offset="1" stop-color="#6400ff" stop-opacity="0"/></radialGradient></defs><g transform="translate(-149.92515,-46.74999)"><g data-paper-data="{&quot;isPaintingLayer&quot;:true}" fill-rule="nonzero" stroke-linecap="butt" stroke-linejoin="miter" stroke-miterlimit="10" stroke-dasharray="" stroke-dashoffset="0" style="mix-blend-mode: normal"><path d="M290.33306,179.6929c0.08605,1.98786 -7.73989,7.47108 -48.50565,7.47108c-40.76576,0 -52.14751,-4.68056 -52.16115,-7.88054c-0.01178,-2.7627 10.55181,-6.44742 51.31757,-6.44742c40.76576,0 49.27051,5.03854 49.34923,6.85688z" fill="url(#color-1)" stroke="none" stroke-width="0"/><path d="M288,130.73664c0,26.62365 -22.46969,48.20638 -50.18746,48.20638c-27.71777,0 -50.18746,-21.58273 -50.18746,-48.20638c0,-26.62365 22.46969,-48.20638 50.18746,-48.20638c27.71777,0 50.18746,21.58273 50.18746,48.20638z" fill="url(#color-2)" stroke="none" stroke-width="0"/><path d="M261.16667,151.66667c0,14.26736 -12.16293,25.83334 -27.16667,25.83334c-15.00374,0 -27.16666,-11.56598 -27.16666,-25.83334c0,-14.26736 12.16293,-25.83333 27.16666,-25.83333c15.00374,0 27.16667,11.56597 27.16667,25.83333z" fill="url(#color-3)" stroke="none" stroke-width="0"/><path d="M289.16667,131.33334c0,14.81964 -11.56598,26.83333 -25.83333,26.83333c-14.26736,0 -25.83333,-12.01369 -25.83333,-26.83333c0,-14.81964 11.56598,-26.83334 25.83333,-26.83334c14.26736,0 25.83333,12.0137 25.83333,26.83334z" fill="url(#color-4)" stroke="none" stroke-width="0"/><path d="M257.5,98c0,8.19223 -6.26801,14.83334 -14,14.83334c-7.73199,0 -14,-6.64111 -14,-14.83334c0,-8.19223 6.26801,-14.83334 14,-14.83334c7.73199,0 14,6.64111 14,14.83334z" fill="url(#color-5)" stroke="none" stroke-width="0"/><path d="M221.16667,108c0,10.95365 -8.80506,19.83334 -19.66666,19.83334c-10.8616,0 -19.66666,-8.87969 -19.66666,-19.83334c0,-10.95365 8.80506,-19.83334 19.66666,-19.83334c10.8616,0 19.66666,8.87969 19.66666,19.83334z" fill="url(#color-6)" stroke="none" stroke-width="0"/><path d="M217.5,149.66667c0,11.32183 1.39067,25.68765 -9.25,18.75c-9.20255,-6 -17,-17.17817 -20,-31.75c-2.28302,-11.08926 -6.45255,-7.5 6.25,-7.5c12.70255,0 23,9.17817 23,20.5z" fill="url(#color-7)" stroke="none" stroke-width="0"/><path d="M282.33333,157.5l-23.33333,18.33334c0,0 -8.83334,-1.53654 -8.83334,-10.83334c0,-9.2968 7.98425,-16.83334 17.83334,-16.83334c9.84908,0 14.33333,9.33334 14.33333,9.33334z" fill="url(#color-8)" stroke="none" stroke-width="0"/><path d="M289.16667,100.66667c0,10.76955 -8.43197,19.5 -18.83333,19.5c-10.40136,0 -18.83333,-8.73045 -18.83333,-19.5c0,-10.76955 8.43197,-19.5 18.83333,-19.5c10.40136,0 18.83333,8.73045 18.83333,19.5z" fill="url(#color-9)" stroke="none" stroke-width="0"/><path d="M231.16667,89.83334c0,5.70694 -5.67106,10.33333 -12.66666,10.33333c-6.99561,0 -12.66666,-4.62639 -12.66666,-10.33333c0,-5.70694 5.67106,-10.33334 12.66666,-10.33334c6.99561,0 12.66666,4.6264 12.66666,10.33334z" fill="url(#color-10)" stroke="none" stroke-width="0"/><path d="M262.16667,124.83334c0,32.95299 6.24144,57.14043 -27.66667,55.16666c-28.63217,-1.66666 -47.41543,-26.95716 -47.83333,-47.5c-0.29804,-14.65078 16.36782,-49.5 50.33333,-49.5c33.96551,0 25.16667,8.88035 25.16667,41.83334z" fill="url(#color-11)" stroke="none" stroke-width="0"/><path d="M275.75,100.58334c8.74824,0.66666 14,10.42087 14,34.58333c0,24.16246 -16.0851,34.08334 -34.5,43.08334c-21.33634,10.42781 -15.5,-9.08754 -15.5,-33.25c0,-24.16246 12.32042,-46.22118 36,-44.41666z" fill="url(#color-12)" stroke="none" stroke-width="0"/><path d="M223.16667,120.83334c0,12.33436 -10.0736,22.33333 -22.5,22.33333c-12.4264,0 -22.5,-9.99897 -22.5,-22.33333c0,-12.33436 10.0736,-22.33334 22.5,-22.33334c12.4264,0 22.5,9.99898 22.5,22.33334z" fill="url(#color-13)" stroke="none" stroke-width="0"/><path d="M209.83334,141.33334c0,8.00813 -5.74568,14.5 -12.83334,14.5c-7.08766,0 -12.83334,-6.49187 -12.83334,-14.5c0,-8.00813 5.74568,-14.5 12.83334,-14.5c7.08766,0 12.83334,6.49187 12.83334,14.5z" fill="url(#color-14)" stroke="none" stroke-width="0"/><path d="M254.16667,151.16667c0,11.22979 -8.05887,20.33334 -18,20.33334c-9.94112,0 -18,-9.10354 -18,-20.33334c0,-11.22979 8.05888,-20.33333 18,-20.33333c9.94113,0 18,9.10354 18,20.33333z" fill="url(#color-15)" stroke="none" stroke-width="0"/><path d="M280.83333,130.83334c0,8.65246 -5.4472,15.66666 -12.16667,15.66666c-6.71947,0 -12.16667,-7.01421 -12.16667,-15.66666c0,-8.65246 5.4472,-15.66667 12.16667,-15.66667c6.71947,0 12.16667,7.01421 12.16667,15.66667z" fill="url(#color-16)" stroke="none" stroke-width="0"/><path d="M249.5,99.83334c0,5.15466 -4.10405,9.33333 -9.16666,9.33333c-5.06261,0 -9.16667,-4.17867 -9.16667,-9.33333c0,-5.15466 4.10406,-9.33334 9.16667,-9.33334c5.06261,0 9.16666,4.17867 9.16666,9.33334z" fill="url(#color-17)" stroke="none" stroke-width="0"/><path d="M232.16667,104.57937c0,5.75078 -4.77563,10.4127 -10.66666,10.4127c-5.89103,0 -10.66666,-4.66192 -10.66666,-10.4127c0,-5.75078 4.77563,-10.4127 10.66666,-10.4127c5.89103,0 10.66666,4.66192 10.66666,10.4127z" fill="url(#color-18)" stroke="none" stroke-width="0"/><path d="M228.5,91.83334c0,5.89104 -4.85025,10.66666 -10.83334,10.66666c-5.98308,0 -10.83333,-4.77563 -10.83333,-10.66666c0,-5.89104 4.85025,-10.66667 10.83333,-10.66667c5.98308,0 10.83334,4.77564 10.83334,10.66667z" fill="url(#color-19)" stroke="none" stroke-width="0"/><path d="M267.16667,118c0,9.2968 -7.31268,16.83334 -16.33333,16.83334c-9.02065,0 -16.33334,-7.53654 -16.33334,-16.83334c0,-9.2968 7.31269,-16.83334 16.33334,-16.83334c9.02065,0 16.33333,7.53654 16.33333,16.83334z" fill="url(#color-20)" stroke="none" stroke-width="0"/><path d="M283.16667,102c0,5.98309 -4.62639,10.83334 -10.33333,10.83334c-5.70694,0 -10.33333,-4.85025 -10.33333,-10.83334c0,-5.98309 4.6264,-10.83334 10.33333,-10.83334c5.70694,0 10.33333,4.85025 10.33333,10.83334z" fill="url(#color-21)" stroke="none" stroke-width="0"/><path d="M283.50001,153.5c-6,10.22979 -8.87968,12.66667 -18.16666,20c-8.59665,6.78823 -10.83333,3.2298 -10.83333,-8c0,-11.22979 8.87968,-20.33334 19.83333,-20.33334c10.95365,0 14.84807,-1.35325 9.16666,8.33334z" fill="url(#color-22)" stroke="none" stroke-width="0"/><path d="M228.16667,166.5c0,6.99561 -1.49187,7.91666 -9.5,7.91666c-8.00813,0 -15.5,-5.17106 -15.5,-12.16666c0,-6.99561 2.49187,-8.41666 10.5,-8.41666c8.00813,0 14.5,5.67106 14.5,12.66666z" fill="url(#color-23)" stroke="none" stroke-width="0"/><path d="M233.16667,120.16667c0,4.78647 -3.80558,8.66667 -8.5,8.66667c-4.69442,0 -8.5,-3.8802 -8.5,-8.66667c0,-4.78647 3.80558,-8.66666 8.5,-8.66666c4.69442,0 8.5,3.8802 8.5,8.66666z" fill="url(#color-24)" stroke="none" stroke-width="0"/><path d="M260.08333,171.08334c0,7.91608 -5.04415,7.33333 -12.5,7.33333c-7.45585,0 -14.5,0.58275 -14.5,-7.33333c0,-7.91608 6.04415,-14.33334 13.5,-14.33334c7.45585,0 13.5,6.41726 13.5,14.33334z" fill="url(#color-25)" stroke="none" stroke-width="0"/><path d="M260.16667,92.83334c0,6.44332 -4.70101,11.66666 -10.5,11.66666c-5.79899,0 -10.5,-5.22334 -10.5,-11.66666c0,-6.44332 4.70101,-11.66667 10.5,-11.66667c5.79899,0 10.5,5.22335 10.5,11.66667z" fill="url(#color-26)" stroke="none" stroke-width="0"/><path d="M257.66667,83.50001c4.32623,0 7.83333,2.98476 7.83333,6.66666c0,3.6819 -3.5071,6.66667 -7.83333,6.66667c-4.32623,0 -7.83333,-2.98477 -7.83333,-6.66667c0,-3.6819 3.5071,-6.66666 7.83333,-6.66666z" fill="url(#color-27)" stroke="none" stroke-width="0"/><path d="M292.16667,127.5c0,5.70694 -4.02943,10.33334 -9,10.33334c-4.97057,0 -9,-4.6264 -9,-10.33334c0,-5.70694 4.02943,-10.33334 9,-10.33334c4.97057,0 9,4.6264 9,10.33334z" fill="url(#color-28)" stroke="none" stroke-width="0"/><path d="M231.83334,146.5c0,9.20475 -7.61116,16.66666 -17,16.66666c-9.38884,0 -17,-7.46192 -17,-16.66666c0,-9.20475 7.61116,-16.66666 17,-16.66666c9.38884,0 17,7.46192 17,16.66666z" fill="url(#color-29)" stroke="none" stroke-width="0"/><path d="M225.16667,127.5c0,6.07513 -5.14873,11 -11.5,11c-6.35127,0 -11.5,-4.92487 -11.5,-11c0,-6.07513 5.14873,-11 11.5,-11c6.35127,0 11.5,4.92487 11.5,11z" fill="url(#color-30)" stroke="none" stroke-width="0"/><path d="M199.5,129.5c0,3.12962 -2.53705,5.66666 -5.66666,5.66666c-3.12962,0 -5.66667,-2.53705 -5.66667,-5.66666c0,-3.12962 2.53706,-5.66666 5.66667,-5.66666c3.12962,0 5.66666,2.53705 5.66666,5.66666z" fill="url(#color-31)" stroke="none" stroke-width="0"/><path d="M221.5,103.16667c0,5.52285 -5.29797,10 -11.83334,10c-6.53537,0 -11.83333,-4.47715 -11.83333,-10c0,-5.52285 5.29796,-10 11.83333,-10c6.53537,0 11.83334,4.47715 11.83334,10z" fill="url(#color-32)" stroke="none" stroke-width="0"/><path d="M250.16667,128.5c0,8.10018 -6.49187,14.66666 -14.5,14.66666c-8.00813,0 -14.5,-6.56649 -14.5,-14.66666c0,-8.10018 6.49187,-14.66666 14.5,-14.66666c8.00813,0 14.5,6.56649 14.5,14.66666z" fill="url(#color-33)" stroke="none" stroke-width="0"/><path d="M277.83333,111.83334c0,5.89104 -4.55177,10.66666 -10.16667,10.66666c-5.61489,0 -10.16667,-4.77563 -10.16667,-10.66666c0,-5.89104 4.55177,-10.66667 10.16667,-10.66667c5.61489,0 10.16667,4.77564 10.16667,10.66667z" fill="url(#color-34)" stroke="none" stroke-width="0"/><path d="M268.16667,100.5c0,4.23418 -3.43248,7.66666 -7.66667,7.66666c-4.23419,0 -7.66666,-3.43248 -7.66666,-7.66666c0,-4.23418 3.43248,-7.66666 7.66666,-7.66666c4.23419,0 7.66667,3.43248 7.66667,7.66666z" fill="url(#color-35)" stroke="none" stroke-width="0"/><path d="M244.83334,87.83334c0,5.33876 -4.40254,9.66666 -9.83334,9.66666c-5.4308,0 -9.83334,-4.32791 -9.83334,-9.66666c0,-5.33876 4.40254,-9.66667 9.83334,-9.66667c5.4308,0 9.83334,4.32792 9.83334,9.66667z" fill="url(#color-36)" stroke="none" stroke-width="0"/><path d="M279.16667,135.5c6.62741,0 12,5.37258 12,12c0,6.62742 -5.37259,12 -12,12c-6.62741,0 -12,-5.37258 -12,-12c0,-6.62742 5.37259,-12 12,-12z" fill="url(#color-37)" stroke="none" stroke-width="0"/><path d="M260.5,158.16667c-6.62742,0 -12,-5.29796 -12,-11.83333c0,-6.53537 5.37258,-11.83334 12,-11.83334c6.62741,0 12,5.29797 12,11.83334c0,6.53537 -5.37259,11.83333 -12,11.83333z" fill="url(#color-38)" stroke="none" stroke-width="0"/><path d="M240,180.91666l-22.58334,-7.16666c0,0 5.49568,-9.91666 12.58334,-9.91666c7.08766,0 12.83334,4.77563 12.83334,10.66666c0,5.89103 -2.83334,6.41666 -2.83334,6.41666z" fill="url(#color-39)" stroke="none" stroke-width="0"/><path d="M234.00001,175.16667c-6.71946,0 -12.16666,-4.85025 -12.16666,-10.83333c0,-5.98309 5.44719,-10.83334 12.16666,-10.83334c6.71946,0 12.16666,4.85026 12.16666,10.83334c0,5.98308 -5.44719,10.83333 -12.16666,10.83333z" fill="url(#color-40)" stroke="none" stroke-width="0"/><path d="M261.33334,161.16667c-5.98308,0 -10.83333,-3.95482 -10.83333,-8.83333c0,-4.87852 4.85025,-8.83334 10.83333,-8.83334c5.98308,0 10.83333,3.95483 10.83333,8.83334c0,4.87852 -4.85024,8.83333 -10.83333,8.83333z" fill="url(#color-41)" stroke="none" stroke-width="0"/><path d="M257.33334,116.5c-4.32623,0 -7.83333,-3.65634 -7.83333,-8.16666c0,-4.51032 3.5071,-8.16667 7.83333,-8.16667c4.32623,0 7.83333,3.65635 7.83333,8.16667c0,4.51032 -3.5071,8.16666 -7.83333,8.16666z" fill="url(#color-42)" stroke="none" stroke-width="0"/><path d="M231.83334,102.16667c-4.23418,0 -7.66667,-3.58172 -7.66667,-8c0,-4.41828 3.43249,-8 7.66667,-8c4.23418,0 7.66666,3.58172 7.66666,8c0,4.41828 -3.43248,8 -7.66666,8z" fill="url(#color-43)" stroke="none" stroke-width="0"/><path d="M208.50001,120.83334c-5.89103,0 -10.66666,-4.02944 -10.66666,-9c0,-4.97056 4.77563,-9 10.66666,-9c5.89103,0 10.66666,4.02944 10.66666,9c0,4.97056 -4.77563,9 -10.66666,9z" fill="url(#color-44)" stroke="none" stroke-width="0"/><path d="M218.16667,128c0,4.87851 -4.2533,8.83334 -9.5,8.83334c-5.2467,0 -9.5,-3.95482 -9.5,-8.83334c0,-4.87851 4.2533,-8.83334 9.5,-8.83334c5.2467,0 9.5,3.95482 9.5,8.83334z" fill="url(#color-45)" stroke="none" stroke-width="0"/><path d="M237.5,137.33334c0,6.35127 -5.67106,11.5 -12.66666,11.5c-6.99561,0 -12.66667,-5.14873 -12.66667,-11.5c0,-6.35127 5.67106,-11.5 12.66667,-11.5c6.99561,0 12.66666,5.14873 12.66666,11.5z" fill="url(#color-46)" stroke="none" stroke-width="0"/><path d="M254.5,122.66667c0,9.2968 -7.23806,16.83334 -16.16666,16.83334c-8.92861,0 -16.16667,-7.53654 -16.16667,-16.83334c0,-9.2968 7.23807,-16.83333 16.16667,-16.83333c8.92861,0 16.16666,7.53653 16.16666,16.83333z" fill="url(#color-47)" stroke="none" stroke-width="0"/><path d="M284.16667,131.66667c0,6.71946 -6.11878,12.16667 -13.66667,12.16667c-7.54789,0 -13.66667,-5.44721 -13.66667,-12.16667c0,-6.71946 6.11878,-12.16666 13.66667,-12.16666c7.54789,0 13.66667,5.4472 13.66667,12.16666z" fill="url(#color-48)" stroke="none" stroke-width="0"/><path d="M265.5,122.33334c0,5.6149 -5.07411,10.16666 -11.33334,10.16666c-6.25922,0 -11.33333,-4.55177 -11.33333,-10.16666c0,-5.6149 5.07411,-10.16667 11.33333,-10.16667c6.25922,0 11.33334,4.55178 11.33334,10.16667z" fill="url(#color-49)" stroke="none" stroke-width="0"/><path d="M281.08333,158.91667l-12.16667,11.91667c0,0 -7.41667,-2.77564 -7.41667,-8.66667c0,-5.89103 4.99949,-10.66666 11.16667,-10.66666c6.16718,0 8.41667,7.41666 8.41667,7.41666z" fill="url(#color-50)" stroke="none" stroke-width="0"/><path d="M262.16667,155.5c0,6.99561 -6.71573,12.66666 -15,12.66666c-8.28427,0 -15,-5.67106 -15,-12.66666c0,-6.99561 6.71573,-12.66666 15,-12.66666c8.28427,0 15,5.67106 15,12.66666z" fill="url(#color-51)" stroke="none" stroke-width="0"/><path d="M226.5,165.33334c0,5.06261 -5.14873,9.16666 -11.5,9.16666c-6.35127,0 -11.5,-4.10405 -11.5,-9.16666c0,-5.06261 5.14873,-9.16667 11.5,-9.16667c6.35127,0 11.5,4.10406 11.5,9.16667z" fill="url(#color-52)" stroke="none" stroke-width="0"/><path d="M204.83334,144c0,5.4308 -3.0033,12.83334 -8.25,12.83334c-5.2467,0 -8.25,-10.90254 -8.25,-16.33334c0,-5.4308 1.7533,-6.33334 7,-6.33334c5.2467,0 9.5,4.40254 9.5,9.83334z" fill="url(#color-53)" stroke="none" stroke-width="0"/><path d="M209.83334,118c0,6.16718 -5.52183,11.16666 -12.33334,11.16666c-6.81151,0 -12.33334,-4.99948 -12.33334,-11.16666c0,-6.16718 5.52183,-11.16666 12.33334,-11.16666c6.81151,0 12.33334,4.99948 12.33334,11.16666z" fill="url(#color-54)" stroke="none" stroke-width="0"/><path d="M212.16667,131.66667c0,4.51032 -3.28324,8.16667 -7.33333,8.16667c-4.05009,0 -7.33334,-3.65635 -7.33334,-8.16667c0,-4.51032 3.28324,-8.16666 7.33334,-8.16666c4.05009,0 7.33333,3.65634 7.33333,8.16666z" fill="url(#color-55)" stroke="none" stroke-width="0"/><path d="M232.16667,95.16667c0,5.89104 -4.47716,10.66667 -10,10.66667c-5.52284,0 -10,-4.77564 -10,-10.66667c0,-5.89104 4.47716,-10.66666 10,-10.66666c5.52284,0 10,4.77563 10,10.66666z" fill="url(#color-56)" stroke="none" stroke-width="0"/><path d="M236.16667,111.33334c0,7.45584 -5.8203,13.5 -13,13.5c-7.1797,0 -13,-6.04416 -13,-13.5c0,-7.45584 5.8203,-13.5 13,-13.5c7.1797,0 13,6.04416 13,13.5z" fill="url(#color-57)" stroke="none" stroke-width="0"/><path d="M239.66666,87.16667c9.48089,0 17.16667,6.71573 17.16667,15c0,8.28427 -7.68578,15 -17.16667,15c-9.48088,0 -17.16666,-6.71573 -17.16666,-15c0,-8.28427 7.68577,-15 17.16666,-15z" fill="url(#color-58)" stroke="none" stroke-width="0"/><path d="M262.16667,91c0,4.87851 -4.02944,8.83334 -9,8.83334c-4.97056,0 -9,-3.95482 -9,-8.83334c0,-4.87851 4.02944,-8.83334 9,-8.83334c4.97056,0 9,3.95482 9,8.83334z" fill="url(#color-59)" stroke="none" stroke-width="0"/><path d="M280.83333,101c0,4.87851 -4.55177,8.83334 -10.16667,8.83334c-5.61489,0 -10.16667,-3.95482 -10.16667,-8.83334c0,-4.87851 4.55177,-8.83334 10.16667,-8.83334c5.61489,0 10.16667,3.95482 10.16667,8.83334z" fill="url(#color-60)" stroke="none" stroke-width="0"/><path d="M241.83334,143.83334c0,5.15466 -4.85025,9.33333 -10.83334,9.33333c-5.98308,0 -10.83334,-4.17867 -10.83334,-9.33333c0,-5.15466 4.85025,-9.33334 10.83334,-9.33334c5.98308,0 10.83334,4.17867 10.83334,9.33334z" fill="url(#color-61)" stroke="none" stroke-width="0"/><path d="M259.5,175.58334l-17.91666,4.75c0,0 -0.66667,0.47056 -0.66667,-4.5c0,-4.97056 4.10406,-9 9.16667,-9c5.06261,0 9.41666,8.75 9.41666,8.75z" fill="url(#color-62)" stroke="none" stroke-width="0"/><path d="M273.16667,166.16667c0,3.21112 -1.19119,6.12765 -3.13123,8.28122c-2.064,2.29118 -4.97559,3.71878 -8.2021,3.71878c-6.25922,0 -11.33333,-5.37258 -11.33333,-12c0,-6.62742 5.07411,-12 11.33333,-12c6.25923,0 11.33333,5.37258 11.33333,12z" fill="url(#color-63)" stroke="none" stroke-width="0"/><path d="M282.16667,118.33334c0,3.40575 -3.13401,6.16666 -7,6.16666c-3.86599,0 -7,-2.76091 -7,-6.16666c0,-3.40575 3.13401,-6.16667 7,-6.16667c3.86599,0 7,2.76092 7,6.16667z" fill="url(#color-64)" stroke="none" stroke-width="0"/><path d="M208.83334,156.5c0,2.76143 -2.46243,5 -5.5,5c-3.03757,0 -5.5,-2.23857 -5.5,-5c0,-2.76143 2.46243,-5 5.5,-5c3.03757,0 5.5,2.23857 5.5,5z" fill="url(#color-65)" stroke="none" stroke-width="0"/><path d="M232.16667,127.16667c0,2.76143 -1.86548,5 -4.16666,5c-2.30119,0 -4.16666,-2.23857 -4.16666,-5c0,-2.76143 1.86548,-5 4.16666,-5c2.30119,0 4.16666,2.23857 4.16666,5z" fill="url(#color-66)" stroke="none" stroke-width="0"/><path d="M254.16667,116.5c0,7.1797 -5.22334,13 -11.66666,13c-6.44332,0 -11.66666,-5.8203 -11.66666,-13c0,-7.1797 5.22334,-13 11.66666,-13c6.44332,0 11.66666,5.8203 11.66666,13z" fill="url(#color-67)" stroke="none" stroke-width="0"/><path d="M254.5,136.66667c0,4.87851 -3.88019,8.83334 -8.66666,8.83334c-4.78647,0 -8.66667,-3.95482 -8.66667,-8.83334c0,-4.87851 3.8802,-8.83333 8.66667,-8.83333c4.78647,0 8.66666,3.95481 8.66666,8.83333z" fill="url(#color-68)" stroke="none" stroke-width="0"/><path d="M202.83334,115.16667c0,3.4978 -2.76092,6.33334 -6.16667,6.33334c-3.40575,0 -6.16666,-2.83553 -6.16666,-6.33334c0,-3.4978 2.76091,-6.33333 6.16666,-6.33333c3.40575,0 6.16667,2.83552 6.16667,6.33333z" fill="url(#color-69)" stroke="none" stroke-width="0"/><path d="M242.16667,103.33334c0,5.06261 -4.32791,9.16666 -9.66666,9.16666c-5.33875,0 -9.66666,-4.10405 -9.66666,-9.16666c0,-5.06261 4.32791,-9.16667 9.66666,-9.16667c5.33875,0 9.66666,4.10406 9.66666,9.16667z" fill="url(#color-70)" stroke="none" stroke-width="0"/><path d="M255.5,108.16667c0,2.76143 -2.23857,5 -5,5c-2.76143,0 -5,-2.23857 -5,-5c0,-2.76143 2.23857,-5 5,-5c2.76143,0 5,2.23857 5,5z" fill="url(#color-71)" stroke="none" stroke-width="0"/><path d="M204.83334,138.66667c0,2.66938 -2.16396,4.83334 -4.83334,4.83334c-2.66938,0 -4.83334,-2.16396 -4.83334,-4.83334c0,-2.66938 2.16396,-4.83333 4.83334,-4.83333c2.66938,0 4.83334,2.16395 4.83334,4.83333z" fill="url(#color-72)" stroke="none" stroke-width="0"/><path d="M248.83334,147.66667c0,4.14213 -3.58172,7.5 -8,7.5c-4.41828,0 -8,-3.35787 -8,-7.5c0,-4.14213 3.58172,-7.5 8,-7.5c4.41828,0 8,3.35787 8,7.5z" fill="url(#color-73)" stroke="none" stroke-width="0"/><path d="M236.83334,158.83334c0,2.94552 -2.91015,5.33333 -6.5,5.33333c-3.58985,0 -6.5,-2.38781 -6.5,-5.33333c0,-2.94552 2.91015,-5.33334 6.5,-5.33334c3.58985,0 6.5,2.38782 6.5,5.33334z" fill="url(#color-74)" stroke="none" stroke-width="0"/><path d="M285.16667,130.33334c0,4.69442 -3.5071,8.5 -7.83333,8.5c-4.32623,0 -7.83333,-3.80558 -7.83333,-8.5c0,-4.69442 3.5071,-8.5 7.83333,-8.5c4.32623,0 7.83333,3.80558 7.83333,8.5z" fill="url(#color-75)" stroke="none" stroke-width="0"/><path d="M269.16667,128.5c0,5.15466 -3.8802,9.33334 -8.66667,9.33334c-4.78647,0 -8.66666,-4.17867 -8.66666,-9.33334c0,-5.15466 3.88019,-9.33334 8.66666,-9.33334c4.78647,0 8.66667,4.17867 8.66667,9.33334z" fill="url(#color-76)" stroke="none" stroke-width="0"/><path d="M253.16667,122.33334c0,4.14213 -3.5071,7.5 -7.83333,7.5c-4.32623,0 -7.83334,-3.35787 -7.83334,-7.5c0,-4.14213 3.5071,-7.5 7.83334,-7.5c4.32623,0 7.83333,3.35787 7.83333,7.5z" fill="url(#color-77)" stroke="none" stroke-width="0"/><path d="M257.83333,129.5c0,4.05009 -3.5071,7.33334 -7.83333,7.33334c-4.32623,0 -7.83334,-3.28324 -7.83334,-7.33334c0,-4.05009 3.5071,-7.33334 7.83334,-7.33334c4.32623,0 7.83333,3.28325 7.83333,7.33334z" fill="url(#color-78)" stroke="none" stroke-width="0"/><path d="M247.5,105.16667c0,3.31371 -2.53705,6 -5.66666,6c-3.12962,0 -5.66667,-2.68629 -5.66667,-6c0,-3.31371 2.53706,-6 5.66667,-6c3.12962,0 5.66666,2.68629 5.66666,6z" fill="url(#color-79)" stroke="none" stroke-width="0"/><path d="M251.83334,96.33334c0,4.32623 -3.35787,7.83333 -7.5,7.83333c-4.14213,0 -7.5,-3.5071 -7.5,-7.83333c0,-4.32623 3.35787,-7.83334 7.5,-7.83334c4.14213,0 7.5,3.50711 7.5,7.83334z" fill="url(#color-80)" stroke="none" stroke-width="0"/><path d="M248.83334,157.33334c0,4.51032 -3.5071,8.16666 -7.83334,8.16666c-4.32623,0 -7.83334,-3.65634 -7.83334,-8.16666c0,-4.51032 3.5071,-8.16667 7.83334,-8.16667c4.32623,0 7.83334,3.65635 7.83334,8.16667z" fill="url(#color-81)" stroke="none" stroke-width="0"/><path d="M256.83333,155.83334c0,2.94552 -2.91015,5.33333 -6.5,5.33333c-3.58985,0 -6.5,-2.38781 -6.5,-5.33333c0,-2.94552 2.91015,-5.33334 6.5,-5.33334c3.58985,0 6.5,2.38782 6.5,5.33334z" fill="url(#color-82)" stroke="none" stroke-width="0"/><path d="M276.83333,162c0,4.14213 -4.54687,8.16667 -9.33334,8.16667c-4.78647,0 -6.33334,-0.35787 -6.33334,-4.5c0,-4.14213 3.8802,-7.5 8.66667,-7.5c4.78647,0 7,-0.3088 7,3.83333z" fill="url(#color-83)" stroke="none" stroke-width="0"/><path d="M268.16667,170.66667c0,3.77394 -3.43248,6.83334 -7.66667,6.83334c-4.23419,0 -7.66666,-3.05939 -7.66666,-6.83334c0,-3.77394 3.43248,-6.83333 7.66666,-6.83333c4.23419,0 7.66667,3.05938 7.66667,6.83333z" fill="url(#color-84)" stroke="none" stroke-width="0"/><path d="M197.5,120.66667c0,2.30119 -2.23857,4.16667 -5,4.16667c-2.76143,0 -5,-1.86549 -5,-4.16667c0,-2.30119 2.23857,-4.16666 5,-4.16666c2.76143,0 5,1.86548 5,4.16666z" fill="url(#color-85)" stroke="none" stroke-width="0"/><path d="M224.83334,92c0,3.40575 -2.98477,6.16666 -6.66667,6.16666c-3.6819,0 -6.66666,-2.76091 -6.66666,-6.16666c0,-3.40575 2.98476,-6.16666 6.66666,-6.16666c3.6819,0 6.66667,2.76091 6.66667,6.16666z" fill="url(#color-86)" stroke="none" stroke-width="0"/><path d="M210.83334,165.66667c0,3.58985 8.56751,9 4.33333,9c-4.23418,0 -17.41666,-11.41015 -17.41666,-15c0,-3.58985 1.18248,-0.5 5.41666,-0.5c4.23418,0 7.66667,2.91015 7.66667,6.5z" fill="url(#color-87)" stroke="none" stroke-width="0"/><path d="M211.16667,153.16667c0,2.76143 -2.23857,5 -5,5c-2.76143,0 -5,-2.23857 -5,-5c0,-2.76143 2.23857,-5 5,-5c2.76143,0 5,2.23857 5,5z" fill="url(#color-88)" stroke="none" stroke-width="0"/><path d="M289.33333,137.33334c-0.83333,39.30361 -34.67678,42.62888 -51.91667,42.91666c-33.28194,-0.23276 -52.40705,-32.07501 -51.41666,-47.08334c-0.32327,-14.69093 14.92831,-51.07115 50.33334,-50.66666c36.35131,1.66366 52.41152,26.61875 53,54.83334z" fill="url(#color-89)" stroke="none" stroke-width="0"/><path d="M292.75,141.66667c-1.56073,10.27298 -17.18917,35.08616 -43.77019,37.77068c-1.80424,0.18222 -3.65895,0.26248 -5.56314,0.22932c-19.18661,1.0499 -47.47008,-1.44645 -46.66666,-32.66666c0.98672,-38.34309 22.60329,-67.92467 48,-66.66666c47.02657,2.12099 50.27165,52.46945 48,61.33333z" fill="url(#color-90)" stroke="none" stroke-width="0"/><path d="M328,133.32781c0,9.17838 -4.7366,25.77803 -4.7366,25.77803c0,0 -44.99507,8.85386 -39.54821,-1.71669c3.47463,-6.7431 3.9474,-16.93701 3.9474,-25.04518c0,-27.16796 -22.02398,-49.19194 -49.19194,-49.19194c-27.16796,0 -49.19194,22.02398 -49.19194,49.19194c0,8.79257 1.76058,17.04635 5.80201,24.18914c3.61362,6.38668 -41.78517,0.11239 -41.78517,0.11239c0,0 -3.3704,-13.8375 -3.3704,-23.3177c0,-47.8156 39.8634,-86.57781 89.03741,-86.57781c49.17401,0 89.03741,38.76221 89.03741,86.57781z" fill="#000000" stroke="none" stroke-width="0"/><text transform="translate(182.51292,69.37334) scale(0.34497,0.34497)" font-size="40" xml:space="preserve" fill="#ffffff" fill-rule="nonzero" stroke="#ffffff" stroke-width="1" stroke-linecap="butt" stroke-linejoin="miter" stroke-miterlimit="10" stroke-dasharray="" stroke-dashoffset="0" font-family="Handwriting" font-weight="normal" text-anchor="start" style="mix-blend-mode: normal"></text><text transform="translate(216.13359,206.62699) scale(0.357,0.357)" font-size="40" xml:space="preserve" fill="#ffffff" fill-rule="nonzero" stroke="#ffffff" stroke-width="0.5" stroke-linecap="butt" stroke-linejoin="miter" stroke-miterlimit="10" stroke-dasharray="" stroke-dashoffset="0" font-family="Handwriting" font-weight="normal" text-anchor="start" style="mix-blend-mode: normal"></text></g></g></svg>