<svg version="1.1" xmlns="http://www.w3.org/2000/svg" xmlns:xlink="http://www.w3.org/1999/xlink" width="112.63655" height="164.21847" viewBox="0,0,112.63655,164.21847"><defs><linearGradient x1="240.72707" y1="27.50078" x2="240.72707" y2="251.63474" gradientUnits="userSpaceOnUse" id="color-1"><stop offset="0" stop-color="#000000"/><stop offset="1" stop-color="#000000" stop-opacity="0"/></linearGradient><radialGradient cx="195.00966" cy="154.29845" r="10.64113" gradientUnits="userSpaceOnUse" id="color-2"><stop offset="0" stop-color="#f1dec3"/><stop offset="1" stop-color="#cca365"/></radialGradient><radialGradient cx="195.00966" cy="154.29845" r="10.64113" gradientUnits="userSpaceOnUse" id="color-3"><stop offset="0" stop-color="#988c79" stop-opacity="0"/><stop offset="1" stop-color="#988c79"/></radialGradient><radialGradient cx="204.31603" cy="146.80186" r="15.18854" gradientUnits="userSpaceOnUse" id="color-4"><stop offset="0" stop-color="#f1dec3"/><stop offset="1" stop-color="#cca365"/></radialGradient><radialGradient cx="204.31603" cy="146.80186" r="15.18854" gradientUnits="userSpaceOnUse" id="color-5"><stop offset="0" stop-color="#988c79" stop-opacity="0"/><stop offset="1" stop-color="#988c79"/></radialGradient><radialGradient cx="214.4868" cy="142.29185" r="22.42885" gradientUnits="userSpaceOnUse" id="color-6"><stop offset="0" stop-color="#f1dec3"/><stop offset="1" stop-color="#cca365"/></radialGradient><radialGradient cx="214.4868" cy="142.29185" r="22.42885" gradientUnits="userSpaceOnUse" id="color-7"><stop offset="0" stop-color="#998c7a" stop-opacity="0"/><stop offset="1" stop-color="#998c7a"/></radialGradient><radialGradient cx="201.22869" cy="161.632" r="11.27746" gradientUnits="userSpaceOnUse" id="color-8"><stop offset="0" stop-color="#f1dec3"/><stop offset="1" stop-color="#f1dec3" stop-opacity="0"/></radialGradient><radialGradient cx="222.16067" cy="138.6765" r="19.9632" gradientUnits="userSpaceOnUse" id="color-9"><stop offset="0" stop-color="#f1dec3"/><stop offset="1" stop-color="#cca365"/></radialGradient><radialGradient cx="222.16067" cy="138.6765" r="19.9632" gradientUnits="userSpaceOnUse" id="color-10"><stop offset="0" stop-color="#988c79" stop-opacity="0"/><stop offset="1" stop-color="#988c79"/></radialGradient><radialGradient cx="232.50001" cy="135.3585" r="28.41641" gradientUnits="userSpaceOnUse" id="color-11"><stop offset="0" stop-color="#f1dec3"/><stop offset="1" stop-color="#cca365"/></radialGradient><radialGradient cx="232.50001" cy="135.3585" r="28.41641" gradientUnits="userSpaceOnUse" id="color-12"><stop offset="0" stop-color="#998c7a" stop-opacity="0"/><stop offset="1" stop-color="#998c7a"/></radialGradient><radialGradient cx="215.70254" cy="159.86166" r="14.28805" gradientUnits="userSpaceOnUse" id="color-13"><stop offset="0" stop-color="#f1dec3"/><stop offset="1" stop-color="#f1dec3" stop-opacity="0"/></radialGradient><radialGradient cx="244.63411" cy="134.62285" r="25.53615" gradientUnits="userSpaceOnUse" id="color-14"><stop offset="0" stop-color="#f1dec3"/><stop offset="1" stop-color="#cca365"/></radialGradient><radialGradient cx="244.63411" cy="134.62285" r="25.53615" gradientUnits="userSpaceOnUse" id="color-15"><stop offset="0" stop-color="#988c79" stop-opacity="0"/><stop offset="1" stop-color="#988c79"/></radialGradient><radialGradient cx="256.152" cy="137.49399" r="29.09824" gradientUnits="userSpaceOnUse" id="color-16"><stop offset="0" stop-color="#f1dec3"/><stop offset="1" stop-color="#cca365"/></radialGradient><radialGradient cx="256.152" cy="137.49399" r="29.09824" gradientUnits="userSpaceOnUse" id="color-17"><stop offset="0" stop-color="#998c7a" stop-opacity="0"/><stop offset="1" stop-color="#998c7a"/></radialGradient><radialGradient cx="237.80978" cy="161.76297" r="14.6309" gradientUnits="userSpaceOnUse" id="color-18"><stop offset="0" stop-color="#f1dec3"/><stop offset="1" stop-color="#f1dec3" stop-opacity="0"/></radialGradient><radialGradient cx="264.94921" cy="140.24186" r="19.99206" gradientUnits="userSpaceOnUse" id="color-19"><stop offset="0" stop-color="#f1dec3"/><stop offset="1" stop-color="#cca365"/></radialGradient><radialGradient cx="264.94921" cy="140.24186" r="19.99206" gradientUnits="userSpaceOnUse" id="color-20"><stop offset="0" stop-color="#988c79" stop-opacity="0"/><stop offset="1" stop-color="#988c79"/></radialGradient><radialGradient cx="275.48598" cy="143.37281" r="15.92421" gradientUnits="userSpaceOnUse" id="color-21"><stop offset="0" stop-color="#f1dec3"/><stop offset="1" stop-color="#cca365"/></radialGradient><radialGradient cx="275.48597" cy="143.37281" r="15.92422" gradientUnits="userSpaceOnUse" id="color-22"><stop offset="0" stop-color="#998c7a" stop-opacity="0"/><stop offset="1" stop-color="#998c7a"/></radialGradient><radialGradient cx="264.28366" cy="165.11186" r="0.00178" gradientUnits="userSpaceOnUse" id="color-23"><stop offset="0" stop-color="#807667" stop-opacity="0"/><stop offset="1" stop-color="#807667"/></radialGradient><radialGradient cx="280.60002" cy="147.24415" r="9.71521" gradientUnits="userSpaceOnUse" id="color-24"><stop offset="0" stop-color="#988c79" stop-opacity="0"/><stop offset="1" stop-color="#988c79"/></radialGradient><radialGradient cx="285.46103" cy="152.04684" r="6.06086" gradientUnits="userSpaceOnUse" id="color-25"><stop offset="0" stop-color="#f0d2a8"/><stop offset="1" stop-color="#807667"/></radialGradient></defs><g transform="translate(-182.48131,-55.12295)"><g data-paper-data="{&quot;isPaintingLayer&quot;:true}" fill-rule="nonzero" stroke-linecap="butt" stroke-linejoin="miter" stroke-miterlimit="10" stroke-dasharray="" stroke-dashoffset="0" style="mix-blend-mode: normal"><path d="M292.08303,179.63576c0.08904,2.35783 -8.00899,8.86158 -50.19209,8.86158c-42.1831,0 -53.96057,-5.5517 -53.97468,-9.34723c-0.01219,-3.27688 10.91867,-7.6474 53.10177,-7.6474c42.1831,0 50.98354,5.97629 51.065,8.13305z" fill="url(#color-1)" stroke="none" stroke-width="0"/><text transform="translate(215.29168,211.51887) scale(0.46015,0.46015)" font-size="40" xml:space="preserve" fill="#000000" fill-rule="nonzero" stroke="#000000" stroke-width="1" stroke-linecap="butt" stroke-linejoin="miter" stroke-miterlimit="10" stroke-dasharray="" stroke-dashoffset="0" font-family="Handwriting" font-weight="normal" text-anchor="start" style="mix-blend-mode: normal"></text><text transform="translate(197.30099,74.07317) scale(0.49869,0.49869)" font-size="40" xml:space="preserve" fill="#000000" fill-rule="nonzero" stroke="#000000" stroke-width="1" stroke-linecap="butt" stroke-linejoin="miter" stroke-miterlimit="10" stroke-dasharray="" stroke-dashoffset="0" font-family="Handwriting" font-weight="normal" text-anchor="start" style="mix-blend-mode: normal"></text><text transform="translate(184.28876,102.01173) scale(0.39517,0.39517)" font-size="40" xml:space="preserve" fill="#000000" fill-rule="nonzero" stroke="#000000" stroke-width="1" stroke-linecap="butt" stroke-linejoin="miter" stroke-miterlimit="10" stroke-dasharray="" stroke-dashoffset="0" font-family="Handwriting" font-weight="normal" text-anchor="start" style="mix-blend-mode: normal"></text><g stroke="none" stroke-width="0"><path d="M191.79063,163.45028c-0.01048,0.01243 1.18542,4.79902 0.62008,4.9426c-0.16457,0.04539 -1.79009,-3.82855 -1.93413,-3.82491c-0.10007,0.00253 -1.42348,5.68074 -1.92746,5.71988c-0.14868,-0.0426 0.41378,-6.09058 0.31668,-6.11929c-0.11306,-0.03345 -4.04355,3.5851 -4.08414,3.57219c-0.83607,-0.39315 2.90184,-4.34047 2.77308,-4.42832c-0.09241,-0.06305 -4.7506,2.01583 -5.06821,1.88495c-0.19454,-0.21544 5.11483,-3.89081 5.26302,-4.06808c0.72111,-0.86265 1.53894,-1.44255 3.3003,-0.36386c1.76136,1.0787 1.19049,1.73428 0.74078,2.68483z" fill="#998d7a"/><g><path d="M208.29322,156.55655c0,5.83327 -4.7642,10.56206 -10.64114,10.56206c-5.87694,0 -10.64113,-4.72879 -10.64113,-10.56206c0,-5.83327 4.76419,-10.56207 10.64113,-10.56207c5.87694,0 10.64114,4.72879 10.64114,10.56207z" fill="url(#color-2)"/><path d="M208.29322,156.55655c0,5.83327 -4.7642,10.56206 -10.64114,10.56206c-5.87694,0 -10.64113,-4.72879 -10.64113,-10.56206c0,-5.83327 4.76419,-10.56207 10.64113,-10.56207c5.87694,0 10.64114,4.72879 10.64114,10.56207z" fill="url(#color-3)"/></g><g><path d="M223.27622,149.96189c0,8.16321 -6.80014,14.7808 -15.18854,14.7808c-8.3884,0 -15.18854,-6.61759 -15.18854,-14.7808c0,-8.16321 6.80015,-14.78079 15.18854,-14.78079c8.3884,0 15.18854,6.61758 15.18854,14.78079z" fill="url(#color-4)"/><path d="M223.27622,149.96189c0,8.16321 -6.80014,14.7808 -15.18854,14.7808c-8.3884,0 -15.18854,-6.61759 -15.18854,-14.7808c0,-8.16321 6.80015,-14.78079 15.18854,-14.78079c8.3884,0 15.18854,6.61758 15.18854,14.78079z" fill="url(#color-5)"/></g><g><path d="M204.96693,170.81077c-0.00161,0.01524 0.76026,1.61723 1.64043,2.26379c0.90199,0.66258 1.92123,0.37181 1.78353,0.53335c-0.10443,0.1225 -1.02286,0.92611 -1.89735,0.5833c-0.94479,-0.37036 -1.85033,-1.89186 -1.96083,-1.81279c-0.07675,0.05493 -0.07002,2.00036 0.46337,3.61306c0.53607,1.62079 1.59864,2.90884 1.45358,2.95639c-0.13859,0.04542 -1.61036,-1.25872 -2.39917,-2.7842c-0.78915,-1.52616 -0.89533,-3.27367 -0.98632,-3.24471c-0.10593,0.03373 -1.06649,1.49584 -1.13926,3.11097c-0.08035,1.78315 0.73076,3.73453 0.69227,3.74593c-0.38333,0.11344 -1.36728,-1.85956 -1.4973,-3.704c-0.1139,-1.61567 0.61503,-3.12695 0.46804,-3.1274c-0.10549,-0.00032 -1.58906,0.2599 -2.06295,1.22988c-0.65297,1.33651 -0.37767,4.43879 -0.69479,4.50471c-0.2603,0.05409 -0.79291,-3.11159 -0.27848,-4.78656c0.47616,-1.55036 2.01128,-2.53825 2.03314,-2.75502c0.10638,-1.05484 0.43784,-1.94017 2.38333,-2.03022c1.94548,-0.09005 1.84681,0.72368 1.99876,1.70353z" fill="#998d7a"/><g><path d="M238.13073,144.49538c0.0559,1.20777 -0.52173,3.7376 -0.04298,5.83312c0.38003,1.66347 3.07508,8.08497 3.41927,10.72911c0.41537,3.19094 -0.26542,6.10786 -0.59682,6.65087c-0.97338,1.59493 -2.45332,2.43245 -4.20558,2.56761c-2.61155,0.27791 -7.44808,-8.23757 -9.20943,-8.5369c-1.08973,-0.18519 -4.8435,0.74074 -8.74145,0.78575c-3.53576,0.04084 -7.26862,-0.85901 -7.7713,0.06838c-1.94074,3.58046 -4.20748,9.05949 -6.86613,8.84306c-0.74769,-0.06087 -2.74798,-0.38231 -3.99798,-1.75041c-1.36087,-1.48945 -1.94621,-4.09947 -1.98446,-5.87724c-0.12096,-5.62176 3.00589,-13.36743 2.95785,-13.68456c-0.23027,-1.52011 -0.13319,-2.29532 -0.20769,-3.90482c-0.44549,-9.62501 7.53132,-17.81354 17.81671,-18.2896c10.28539,-0.47607 18.9845,6.94062 19.42999,16.56563z" fill="url(#color-6)"/><path d="M238.13073,144.49538c0.0559,1.20777 -0.52173,3.7376 -0.04298,5.83312c0.38003,1.66347 3.07508,8.08497 3.41927,10.72911c0.41537,3.19094 -0.26542,6.10786 -0.59682,6.65087c-0.97338,1.59493 -2.45332,2.43245 -4.20558,2.56761c-2.61155,0.27791 -7.44808,-8.23757 -9.20943,-8.5369c-1.08973,-0.18519 -4.8435,0.74074 -8.74145,0.78575c-3.53576,0.04084 -7.26862,-0.85901 -7.7713,0.06838c-1.94074,3.58046 -4.20748,9.05949 -6.86613,8.84306c-0.74769,-0.06087 -2.74798,-0.38231 -3.99798,-1.75041c-1.36087,-1.48945 -1.94621,-4.09947 -1.98446,-5.87724c-0.12096,-5.62176 3.00589,-13.36743 2.95785,-13.68456c-0.23027,-1.52011 -0.13319,-2.29532 -0.20769,-3.90482c-0.44549,-9.62501 7.53132,-17.81354 17.81671,-18.2896c10.28539,-0.47607 18.9845,6.94062 19.42999,16.56563z" fill="url(#color-7)"/><path d="M211.59165,161.40007c-2.06204,3.6195 -3.87646,8.7261 -7.14144,9.62041c-4.02086,1.10136 -6.61242,-3.37958 -6.34129,-7.88158c0.28015,-4.6518 1.79362,-13.5843 6.17101,-14.53009c4.55871,-0.98497 9.54428,8.87245 7.31172,12.79126z" fill="url(#color-8)"/></g><path d="M236.85448,167.97233c1.94548,-0.09005 2.35731,0.76088 2.56068,1.80139c0.0418,0.21383 1.66161,1.05568 2.27894,2.55543c0.66694,1.62028 -0.53228,4.12294 -0.79647,4.09313c-0.32186,-0.03633 0.62703,-2.45209 -0.14661,-3.72257c-0.56148,-0.92206 -2.06273,-1.04412 -2.16774,-1.03406c-0.14631,0.01403 0.71911,1.45152 0.75494,3.07079c0.04091,1.84857 -1.36856,2.72466 -1.86202,2.46601c-0.03939,-0.00779 1.30126,-0.66529 1.05654,-2.43339c-0.22166,-1.60151 -1.31316,-2.96864 -1.42175,-2.99244c-0.09327,-0.02043 -0.03758,1.72941 -0.68238,3.32194c-0.64452,1.59182 -2.42899,1.56031 -2.58834,1.15709c-0.14883,-0.03394 1.12409,-0.22242 1.50815,-1.8858c0.38215,-1.65508 0.33188,-2.94822 0.25038,-2.99582c-0.11732,-0.06852 -0.87847,1.53012 -1.78501,1.98618c-0.83909,0.42211 -1.76514,-0.9464 -1.88045,-1.05873c-0.15203,-0.14813 0.82704,0.70043 1.66397,-0.04263c0.81669,-0.72509 1.42732,-2.3906 1.42431,-2.40564c0.06079,-0.9897 -0.11263,-1.79083 1.83285,-1.88088z" data-paper-data="{&quot;index&quot;:null}" fill="#998d7a"/></g><g><path d="M247.08118,142.82991c0,10.72939 -8.93783,19.42729 -19.96321,19.42729c-11.02537,0 -19.96321,-8.6979 -19.96321,-19.42729c0,-10.72939 8.93784,-19.42728 19.96321,-19.42728c11.02537,0 19.96321,8.69789 19.96321,19.42728z" fill="url(#color-9)"/><path d="M247.08118,142.82991c0,10.72939 -8.93783,19.42729 -19.96321,19.42729c-11.02537,0 -19.96321,-8.6979 -19.96321,-19.42729c0,-10.72939 8.93784,-19.42728 19.96321,-19.42728c11.02537,0 19.96321,8.69789 19.96321,19.42728z" fill="url(#color-10)"/></g><g><path d="M218.99093,169.92081c0.00939,0.017 1.96281,1.12847 3.34609,1.16165c1.41756,0.03401 2.26541,-1.00734 2.23954,-0.73967c-0.01961,0.203 -0.39076,1.70395 -1.54781,1.98217c-1.25006,0.30059 -3.29434,-0.62306 -3.35178,-0.46078c-0.0399,0.11273 1.37824,2.12871 3.1021,3.41703c1.7325,1.29478 3.77056,1.86204 3.65436,2.01665c-0.11101,0.14771 -2.58581,-0.13944 -4.51172,-1.15189c-1.92676,-1.01291 -3.30461,-2.75116 -3.37812,-2.65508c-0.08558,0.11187 -0.02283,2.32741 1.07312,4.05796c1.20996,1.91057 3.46797,3.34925 3.43624,3.38902c-0.31591,0.39589 -2.76913,-0.9399 -4.24208,-2.76153c-1.29024,-1.59569 -1.62928,-3.69429 -1.78228,-3.58814c-0.10981,0.0762 -1.46214,1.4226 -1.25084,2.77394c0.29116,1.86195 2.82741,4.88482 2.54578,5.18332c-0.23116,0.245 -3.08066,-2.65708 -3.76123,-4.77013c-0.62995,-1.95586 0.24813,-4.09555 0.1136,-4.33659c-0.65463,-1.17291 -0.95249,-2.33299 1.0031,-3.83769c1.95559,-1.5047 2.44334,-0.58785 3.31191,0.31977z" fill="#998d7a"/><g><path d="M262.45588,138.15029c0.07083,1.5302 -0.66099,4.73537 -0.05445,7.3903c0.48149,2.10754 3.89599,10.24332 4.33207,13.59334c0.52625,4.0428 -0.33628,7.7384 -0.75615,8.42638c-1.23321,2.02071 -3.10825,3.08179 -5.32829,3.25304c-3.30872,0.35209 -9.4364,-10.43666 -11.66795,-10.81589c-1.38064,-0.23463 -6.13651,0.93848 -11.07505,0.99552c-4.47966,0.05174 -9.20904,-1.08832 -9.84592,0.08663c-2.45884,4.53629 -5.33071,11.478 -8.6991,11.20379c-0.9473,-0.07711 -3.48158,-0.48437 -5.06527,-2.21768c-1.72416,-1.88707 -2.46577,-5.19386 -2.51424,-7.44621c-0.15325,-7.12253 3.80834,-16.93598 3.74748,-17.33776c-0.29174,-1.92591 -0.16876,-2.90807 -0.26314,-4.94725c-0.56442,-12.19449 9.54187,-22.56902 22.57303,-23.17217c13.03116,-0.60316 24.05257,8.79348 24.61699,20.98796z" fill="url(#color-11)"/><path d="M262.45588,138.15029c0.07083,1.5302 -0.66099,4.73537 -0.05445,7.3903c0.48149,2.10754 3.89599,10.24332 4.33207,13.59334c0.52625,4.0428 -0.33628,7.7384 -0.75615,8.42638c-1.23321,2.02071 -3.10825,3.08179 -5.32829,3.25304c-3.30872,0.35209 -9.4364,-10.43666 -11.66795,-10.81589c-1.38064,-0.23463 -6.13651,0.93848 -11.07505,0.99552c-4.47966,0.05174 -9.20904,-1.08832 -9.84592,0.08663c-2.45884,4.53629 -5.33071,11.478 -8.6991,11.20379c-0.9473,-0.07711 -3.48158,-0.48437 -5.06527,-2.21768c-1.72416,-1.88707 -2.46577,-5.19386 -2.51424,-7.44621c-0.15325,-7.12253 3.80834,-16.93598 3.74748,-17.33776c-0.29174,-1.92591 -0.16876,-2.90807 -0.26314,-4.94725c-0.56442,-12.19449 9.54187,-22.56902 22.57303,-23.17217c13.03116,-0.60316 24.05257,8.79348 24.61699,20.98796z" fill="url(#color-12)"/><path d="M228.83197,159.56782c-2.61252,4.58576 -4.91131,11.05561 -9.04791,12.18866c-5.09427,1.39536 -8.37765,-4.28179 -8.03415,-9.98563c0.35494,-5.89364 2.27244,-17.21073 7.81841,-18.40902c5.77569,-1.24793 12.09221,11.24102 9.26364,16.20598z" fill="url(#color-13)"/></g><path d="M264.05744,166.4479c1.83231,1.65261 1.44491,2.78594 0.70081,3.90423c-0.15292,0.22982 0.55564,2.43146 -0.2249,4.33224c-0.84327,2.05355 -4.15348,3.2387 -4.36484,2.97642c-0.2575,-0.31955 2.74986,-1.64953 3.18531,-3.48312c0.31604,-1.33075 -0.92719,-2.77851 -1.03073,-2.86302c-0.14426,-0.11776 -0.6459,1.94803 -2.05663,3.43825c-1.6105,1.70123 -3.66057,1.23419 -3.87446,0.56152c-0.02854,-0.04211 1.76475,0.56046 3.12,-1.24994c1.22754,-1.63982 1.46287,-3.84372 1.38627,-3.96192c-0.06579,-0.10152 -1.57499,1.52399 -3.57486,2.38358c-1.99898,0.85921 -3.57796,-0.75939 -3.36213,-1.26453c-0.10378,-0.1632 1.21054,0.80142 3.03872,-0.35433c1.81906,-1.14998 2.92617,-2.35934 2.89518,-2.47484c-0.0446,-0.16627 -2.1547,0.59516 -3.37751,0.19802c-1.13183,-0.36759 -0.74628,-2.42532 -0.75001,-2.62923c-0.00492,-0.26888 0.12062,1.3678 1.53653,1.44444c1.38166,0.07478 3.4158,-0.88098 3.42649,-0.8972c0.93671,-0.83712 1.49445,-1.71317 3.32675,-0.06055z" data-paper-data="{&quot;index&quot;:null}" fill="#998d7a"/></g><g><path d="M276.51145,139.93574c0,13.72462 -11.43292,24.85063 -25.53615,24.85063c-14.10323,0 -25.53616,-11.12601 -25.53616,-24.85063c0,-13.72461 11.43294,-24.85061 25.53616,-24.85061c14.10322,0 25.53615,11.12599 25.53615,24.85061z" fill="url(#color-14)"/><path d="M276.51145,139.93574c0,13.72462 -11.43292,24.85063 -25.53615,24.85063c-14.10323,0 -25.53616,-11.12601 -25.53616,-24.85063c0,-13.72461 11.43294,-24.85061 25.53616,-24.85061c14.10322,0 25.53615,11.12599 25.53615,24.85061z" fill="url(#color-15)"/></g><g><path d="M242.10382,173.88263c-0.003,0.01966 0.88827,2.14149 1.99017,3.0322c1.12921,0.91279 2.46754,0.59711 2.2794,0.79819c-0.14268,0.15249 -1.38114,1.13885 -2.49389,0.64213c-1.2022,-0.53665 -2.2845,-2.56279 -2.43245,-2.46696c-0.10278,0.06658 -0.21073,2.58822 0.38379,4.71022c0.59751,2.13264 1.8973,3.86566 1.70646,3.91858c-0.18232,0.05055 -2.01147,-1.72787 -2.94224,-3.75216c-0.93117,-2.02519 -0.96395,-4.29628 -1.0836,-4.2642c-0.1393,0.03734 -1.47186,1.87459 -1.66306,3.96339c-0.2111,2.30609 0.72305,4.88367 0.67246,4.89613c-0.50359,0.12402 -1.66042,-2.49195 -1.71829,-4.89008c-0.05069,-2.10068 0.98462,-4.01554 0.79417,-4.02494c-0.1367,-0.00673 -2.07495,0.2415 -2.7473,1.47015c-0.9264,1.69291 -0.75569,5.7299 -1.17064,5.79628c-0.34059,0.05448 -0.84094,-4.08008 -0.07379,-6.21993c0.71008,-1.98067 2.75883,-3.16885 2.80015,-3.44846c0.20114,-1.36066 0.68382,-2.48814 3.21051,-2.48814c2.52668,0 2.34999,1.04864 2.48814,2.32761z" fill="#998d7a"/><g><path d="M286.66164,141.76798c0,1.5686 -0.90033,4.81251 -0.40559,7.55697c0.39274,2.1786 3.50024,10.66233 3.78769,14.10971c0.3469,4.16029 -0.71035,7.89969 -1.17241,8.58355c-1.35713,2.0086 -3.32534,3.00519 -5.60433,3.07525c-3.40116,0.2035 -9.15834,-11.12241 -11.42305,-11.61598c-1.40116,-0.30537 -6.32147,0.66944 -11.3758,0.49397c-4.5847,-0.15918 -9.36839,-1.54924 -10.07547,-0.37754c-2.72993,4.52375 -5.99621,11.48844 -9.42875,11.04849c-0.96535,-0.12374 -3.53838,-0.66029 -5.07627,-2.50829c-1.67431,-2.01192 -2.27633,-5.42953 -2.21927,-7.73576c0.18046,-7.29289 4.69738,-17.14349 4.65416,-17.55736c-0.20723,-1.98382 -0.03494,-2.98265 -0.03494,-5.07298c0,-12.50044 10.82891,-22.63406 24.18702,-22.63406c13.35812,0 24.18701,10.13362 24.18701,22.63406z" fill="url(#color-16)"/><path d="M286.66164,141.76798c0,1.5686 -0.90033,4.81251 -0.40559,7.55697c0.39274,2.1786 3.50024,10.66233 3.78769,14.10971c0.3469,4.16029 -0.71035,7.89969 -1.17241,8.58355c-1.35713,2.0086 -3.32534,3.00519 -5.60433,3.07525c-3.40116,0.2035 -9.15834,-11.12241 -11.42305,-11.61598c-1.40116,-0.30537 -6.32147,0.66944 -11.3758,0.49397c-4.5847,-0.15918 -9.36839,-1.54924 -10.07547,-0.37754c-2.72993,4.52375 -5.99621,11.48844 -9.42875,11.04849c-0.96535,-0.12374 -3.53838,-0.66029 -5.07627,-2.50829c-1.67431,-2.01192 -2.27633,-5.42953 -2.21927,-7.73576c0.18046,-7.29289 4.69738,-17.14349 4.65416,-17.55736c-0.20723,-1.98382 -0.03494,-2.98265 -0.03494,-5.07298c0,-12.50044 10.82891,-22.63406 24.18702,-22.63406c13.35812,0 24.18701,10.13362 24.18701,22.63406z" fill="url(#color-17)"/><path d="M251.25376,162.08402c-2.88945,4.56707 -5.5472,11.07625 -9.83217,12.0394c-5.27698,1.18613 -8.36676,-4.77649 -7.74534,-10.59466c0.6421,-6.0118 3.13932,-17.49725 8.86902,-18.46041c5.96703,-1.00305 11.83689,12.07093 8.70849,17.01567z" fill="url(#color-18)"/></g><path d="M283.59941,172.11685c2.52668,0 3.00936,1.12748 3.21051,2.48814c0.04134,0.27962 2.09007,1.4678 2.80015,3.44847c0.76716,2.13986 -0.93713,5.31127 -1.27772,5.25678c-0.41495,-0.06638 0.9597,-3.14022 0.03329,-4.83313c-0.67234,-1.22864 -2.6106,-1.47689 -2.7473,-1.47014c-0.19045,0.00939 0.84487,1.92425 0.79417,4.02493c-0.05787,2.39813 -1.93705,3.44898 -2.56104,3.08418c-0.05059,-0.01245 1.72631,-0.78413 1.51522,-3.09022c-0.19121,-2.0888 -1.52376,-3.92604 -1.66306,-3.96338c-0.11965,-0.03207 -0.15242,2.239 -1.0836,4.2642c-0.93076,2.02429 -3.24149,1.87641 -3.42382,1.34428c-0.19085,-0.05292 1.47012,-0.22082 2.06763,-2.35346c0.59452,-2.122 0.60695,-3.80088 0.50419,-3.86746c-0.14794,-0.09583 -1.23024,1.9303 -2.43245,2.46695c-1.11275,0.49671 -2.23082,-1.33239 -2.3735,-1.48488c-0.18813,-0.20108 1.02981,0.95735 2.15902,0.04457c1.1019,-0.89071 1.99317,-3.01255 1.99017,-3.03221c0.13815,-1.27897 -0.03854,-2.32762 2.48814,-2.32762z" data-paper-data="{&quot;index&quot;:null}" fill="#998d7a"/></g><g><path d="M289.90574,144.40128c0,10.7449 -8.95075,19.45537 -19.99206,19.45537c-11.04131,0 -19.99206,-8.71046 -19.99206,-19.45536c0,-10.7449 8.95076,-19.45537 19.99206,-19.45537c11.04131,0 19.99206,8.71047 19.99206,19.45537z" fill="url(#color-19)"/><path d="M289.90574,144.40128c0,10.7449 -8.95075,19.45537 -19.99206,19.45537c-11.04131,0 -19.99206,-8.71046 -19.99206,-19.45536c0,-10.7449 8.95076,-19.45537 19.99206,-19.45537c11.04131,0 19.99206,8.71047 19.99206,19.45537z" fill="url(#color-20)"/></g><g><path d="M295.07931,145.95409c0.6428,8.03227 -6.8443,15.12178 -15.639,15.12178c-8.7947,0 -15.92422,-6.52988 -15.92422,-14.5849c0,-8.05502 6.27678,-15.44557 16.77986,-15.25599c7.83783,0.14148 11.9946,3.52822 12.71758,8.84294c0.23618,1.7362 1.78054,2.3122 2.06576,5.87618z" fill="url(#color-21)"/><path d="M295.07931,145.95409c0.6428,8.03227 -6.8443,15.12178 -15.639,15.12178c-8.7947,0 -15.92422,-6.52988 -15.92422,-14.5849c0,-8.05502 6.27678,-15.44557 16.77987,-15.25599c7.83783,0.14148 11.9946,3.52822 12.71758,8.84294c0.23618,1.7362 1.78054,2.3122 2.06576,5.87618z" fill="url(#color-22)"/><ellipse cx="741.28704" cy="492.0707" transform="scale(0.35652,0.33555)" rx="0" ry="0" fill="url(#color-23)"/><path d="M291.74131,146.97571c0,5.00352 -3.494,11.07295 -8.85956,11.07295c-2.61277,0 -9.8733,0.78957 -8.73838,-0.87238c0.73097,-1.0704 1.21109,-2.93743 1.44752,-7.91888c0.18502,-3.89817 -6.96333,-9.01665 -6.10387,-9.41819c1.01893,-0.47603 8.05586,2.70161 12.82429,2.37176c5.36217,-0.37091 9.5353,-3.24188 9.80632,-2.63432c0.22208,0.49786 -0.37632,5.80648 -0.37632,7.39905z" fill="url(#color-24)"/><g><path d="M291.52189,152.04684c0,3.03983 -2.71354,5.5041 -6.06086,5.5041c-3.34732,0 -6.06086,-2.46427 -6.06086,-5.5041c0,-3.03983 2.71354,-5.5041 6.06086,-5.5041c3.34732,0 6.06086,2.46427 6.06086,5.5041z" fill="url(#color-25)"/><path d="M288.9515,152.64115c0,0.36236 0.73583,0.90399 0.58527,1.22415c-0.1352,0.28749 -1.14535,0.3587 -1.35198,0.59478c-0.27253,0.31139 -0.32284,1.28474 -0.69559,1.47348c-0.43072,0.2181 -1.1995,-0.37213 -1.74399,-0.37213c-0.36588,0 -0.93952,0.55023 -1.28319,0.4019c-0.38844,-0.16764 -0.54052,-1.04761 -0.83535,-1.27106c-0.34548,-0.26184 -1.37159,-0.02288 -1.55493,-0.34638c-0.19174,-0.33832 0.46718,-1.24318 0.46718,-1.70475c0,-0.37352 -0.68148,-0.89726 -0.54116,-1.25999c0.12319,-0.31844 1.05367,-0.48304 1.26523,-0.71841c0.30322,-0.33734 0.20502,-1.35598 0.64354,-1.50922c0.41185,-0.14392 1.35404,0.56733 1.83867,0.56733c0.31595,0 1.02704,-1.00414 1.30494,-0.93642c0.54336,0.13241 0.59854,1.43131 0.98623,1.8151c0.30678,0.3037 1.25684,-0.08987 1.42053,0.3299c0.11663,0.29909 -0.50542,1.39448 -0.50542,1.7117z" fill="#807667"/></g></g></g></g></g></svg>