<svg version="1.1" xmlns="http://www.w3.org/2000/svg" xmlns:xlink="http://www.w3.org/1999/xlink" width="105.62761" height="172.511" viewBox="0,0,105.62761,172.511"><defs><linearGradient x1="240.61954" y1="58.29929" x2="240.61954" y2="237.16752" gradientUnits="userSpaceOnUse" id="color-1"><stop offset="0" stop-color="#000000"/><stop offset="1" stop-color="#000000" stop-opacity="0"/></linearGradient><radialGradient cx="260.94157" cy="126.15372" r="33.01754" gradientUnits="userSpaceOnUse" id="color-2"><stop offset="0" stop-color="#755584"/><stop offset="1" stop-color="#755584" stop-opacity="0"/></radialGradient><radialGradient cx="250.40474" cy="122.08752" r="62.77429" gradientUnits="userSpaceOnUse" id="color-3"><stop offset="0" stop-color="#3650ff" stop-opacity="0"/><stop offset="1" stop-color="#3650ff"/></radialGradient><radialGradient cx="261.36648" cy="127.95889" r="49.445" gradientUnits="userSpaceOnUse" id="color-4"><stop offset="0" stop-color="#4257e0"/><stop offset="1" stop-color="#4257e0" stop-opacity="0"/></radialGradient><radialGradient cx="267.04837" cy="114.49308" r="18.97068" gradientUnits="userSpaceOnUse" id="color-5"><stop offset="0" stop-color="#6368cf"/><stop offset="1" stop-color="#6368cf" stop-opacity="0"/></radialGradient><radialGradient cx="267.15753" cy="138.02355" r="18.97067" gradientUnits="userSpaceOnUse" id="color-6"><stop offset="0" stop-color="#6368cf"/><stop offset="1" stop-color="#6368cf" stop-opacity="0"/></radialGradient><radialGradient cx="227.86599" cy="127.11453" r="34.18362" gradientUnits="userSpaceOnUse" id="color-7"><stop offset="0" stop-color="#984e5c" stop-opacity="0"/><stop offset="1" stop-color="#984e5c"/></radialGradient><radialGradient cx="218.24398" cy="128.74927" r="31.15063" gradientUnits="userSpaceOnUse" id="color-8"><stop offset="0" stop-color="#9990c7"/><stop offset="1" stop-color="#9990c7" stop-opacity="0"/></radialGradient><radialGradient cx="239.764" cy="128.59929" r="31.15064" gradientUnits="userSpaceOnUse" id="color-9"><stop offset="0" stop-color="#9990c7"/><stop offset="1" stop-color="#9990c7" stop-opacity="0"/></radialGradient><radialGradient cx="228.51591" cy="129.65219" r="39.39101" gradientUnits="userSpaceOnUse" id="color-10"><stop offset="0" stop-color="#c8b282"/><stop offset="1" stop-color="#c8b282" stop-opacity="0"/></radialGradient><radialGradient cx="203.83543" cy="128.37356" r="16.66634" gradientUnits="userSpaceOnUse" id="color-11"><stop offset="0" stop-color="#ffffff"/><stop offset="1" stop-color="#ffffff" stop-opacity="0"/></radialGradient><radialGradient cx="227.90359" cy="129.85501" r="14.83711" gradientUnits="userSpaceOnUse" id="color-12"><stop offset="0" stop-color="#984e5c"/><stop offset="1" stop-color="#984e5c" stop-opacity="0"/></radialGradient><radialGradient cx="242.52571" cy="129.35222" r="13.74669" gradientUnits="userSpaceOnUse" id="color-13"><stop offset="0" stop-color="#ffffff"/><stop offset="1" stop-color="#ffffff" stop-opacity="0"/></radialGradient><radialGradient cx="216.85198" cy="127.39489" r="16.66634" gradientUnits="userSpaceOnUse" id="color-14"><stop offset="0" stop-color="#ffffff"/><stop offset="1" stop-color="#ffffff" stop-opacity="0"/></radialGradient><radialGradient cx="273.80167" cy="139.98884" r="12.90596" gradientUnits="userSpaceOnUse" id="color-15"><stop offset="0" stop-color="#f1ffff"/><stop offset="1" stop-color="#f1ffff" stop-opacity="0"/></radialGradient><radialGradient cx="272.94128" cy="115.28316" r="5.77695" gradientUnits="userSpaceOnUse" id="color-16"><stop offset="0" stop-color="#f1ffff"/><stop offset="1" stop-color="#f1ffff" stop-opacity="0"/></radialGradient><radialGradient cx="255.97917" cy="109.3833" r="12.04555" gradientUnits="userSpaceOnUse" id="color-17"><stop offset="0" stop-color="#f1ffff"/><stop offset="1" stop-color="#f1ffff" stop-opacity="0"/></radialGradient><radialGradient cx="265.19771" cy="134.1358" r="11.92264" gradientUnits="userSpaceOnUse" id="color-18"><stop offset="0" stop-color="#ffffff"/><stop offset="1" stop-color="#ffffff" stop-opacity="0"/></radialGradient><radialGradient cx="259.711" cy="126.56855" r="8.97271" gradientUnits="userSpaceOnUse" id="color-19"><stop offset="0" stop-color="#ffffff"/><stop offset="1" stop-color="#ffffff" stop-opacity="0"/></radialGradient><radialGradient cx="258.44884" cy="138.24535" r="13.02887" gradientUnits="userSpaceOnUse" id="color-20"><stop offset="0" stop-color="#ffffff"/><stop offset="1" stop-color="#ffffff" stop-opacity="0"/></radialGradient><radialGradient cx="202.08829" cy="110.7915" r="2.74227" gradientUnits="userSpaceOnUse" id="color-21"><stop offset="0" stop-color="#ded9cc"/><stop offset="1" stop-color="#ded9cc" stop-opacity="0"/></radialGradient><radialGradient cx="221.00293" cy="123.89461" r="4.34653" gradientUnits="userSpaceOnUse" id="color-22"><stop offset="0" stop-color="#ffffff"/><stop offset="1" stop-color="#ffffff" stop-opacity="0"/></radialGradient><radialGradient cx="200.39563" cy="131.81463" r="2.74227" gradientUnits="userSpaceOnUse" id="color-23"><stop offset="0" stop-color="#ffffff"/><stop offset="1" stop-color="#ffffff" stop-opacity="0"/></radialGradient><radialGradient cx="194.24223" cy="127.58566" r="2.02866" gradientUnits="userSpaceOnUse" id="color-24"><stop offset="0" stop-color="#dedede"/><stop offset="1" stop-color="#dedede" stop-opacity="0"/></radialGradient><radialGradient cx="224.85632" cy="145.06026" r="2.02866" gradientUnits="userSpaceOnUse" id="color-25"><stop offset="0" stop-color="#dedede"/><stop offset="1" stop-color="#dedede" stop-opacity="0"/></radialGradient><radialGradient cx="212.38794" cy="135.93987" r="2.02866" gradientUnits="userSpaceOnUse" id="color-26"><stop offset="0" stop-color="#dedcd7"/><stop offset="1" stop-color="#dedcd7" stop-opacity="0"/></radialGradient><radialGradient cx="208.49474" cy="110.17661" r="2.02866" gradientUnits="userSpaceOnUse" id="color-27"><stop offset="0" stop-color="#dedede"/><stop offset="1" stop-color="#dedede" stop-opacity="0"/></radialGradient><radialGradient cx="194.73919" cy="115.4527" r="1.12287" gradientUnits="userSpaceOnUse" id="color-28"><stop offset="0" stop-color="#ffffff"/><stop offset="1" stop-color="#ffffff" stop-opacity="0"/></radialGradient><radialGradient cx="214.951" cy="115.85693" r="1.12287" gradientUnits="userSpaceOnUse" id="color-29"><stop offset="0" stop-color="#ffffff"/><stop offset="1" stop-color="#ffffff" stop-opacity="0"/></radialGradient><radialGradient cx="238.93778" cy="121.30998" r="1.12287" gradientUnits="userSpaceOnUse" id="color-30"><stop offset="0" stop-color="#ffffff"/><stop offset="1" stop-color="#ffffff" stop-opacity="0"/></radialGradient><radialGradient cx="240.05811" cy="137.95577" r="1.12287" gradientUnits="userSpaceOnUse" id="color-31"><stop offset="0" stop-color="#ffffff"/><stop offset="1" stop-color="#ffffff" stop-opacity="0"/></radialGradient><radialGradient cx="267.42161" cy="149.45817" r="2.74228" gradientUnits="userSpaceOnUse" id="color-32"><stop offset="0" stop-color="#ded9cc"/><stop offset="1" stop-color="#ded9cc" stop-opacity="0"/></radialGradient><radialGradient cx="267.33626" cy="106.22794" r="4.34654" gradientUnits="userSpaceOnUse" id="color-33"><stop offset="0" stop-color="#ffffff"/><stop offset="1" stop-color="#ffffff" stop-opacity="0"/></radialGradient><radialGradient cx="250.39563" cy="110.4813" r="2.74227" gradientUnits="userSpaceOnUse" id="color-34"><stop offset="0" stop-color="#ffffff"/><stop offset="1" stop-color="#ffffff" stop-opacity="0"/></radialGradient><radialGradient cx="244.24223" cy="106.25232" r="2.02866" gradientUnits="userSpaceOnUse" id="color-35"><stop offset="0" stop-color="#dedede"/><stop offset="1" stop-color="#dedede" stop-opacity="0"/></radialGradient><radialGradient cx="266.52299" cy="117.8936" r="2.02866" gradientUnits="userSpaceOnUse" id="color-36"><stop offset="0" stop-color="#dedede"/><stop offset="1" stop-color="#dedede" stop-opacity="0"/></radialGradient><radialGradient cx="262.38794" cy="114.60654" r="2.02866" gradientUnits="userSpaceOnUse" id="color-37"><stop offset="0" stop-color="#dedcd7"/><stop offset="1" stop-color="#dedcd7" stop-opacity="0"/></radialGradient><radialGradient cx="253.49474" cy="107.50994" r="2.02866" gradientUnits="userSpaceOnUse" id="color-38"><stop offset="0" stop-color="#dedede"/><stop offset="1" stop-color="#dedede" stop-opacity="0"/></radialGradient><radialGradient cx="254.07253" cy="150.4527" r="1.12287" gradientUnits="userSpaceOnUse" id="color-39"><stop offset="0" stop-color="#ffffff"/><stop offset="1" stop-color="#ffffff" stop-opacity="0"/></radialGradient><radialGradient cx="275.28434" cy="114.19027" r="1.12288" gradientUnits="userSpaceOnUse" id="color-40"><stop offset="0" stop-color="#ffffff"/><stop offset="1" stop-color="#ffffff" stop-opacity="0"/></radialGradient><radialGradient cx="244.60445" cy="112.30998" r="1.12287" gradientUnits="userSpaceOnUse" id="color-41"><stop offset="0" stop-color="#ffffff"/><stop offset="1" stop-color="#ffffff" stop-opacity="0"/></radialGradient><radialGradient cx="249.72477" cy="103.95577" r="1.12287" gradientUnits="userSpaceOnUse" id="color-42"><stop offset="0" stop-color="#ffffff"/><stop offset="1" stop-color="#ffffff" stop-opacity="0"/></radialGradient></defs><g transform="translate(-187.09334,-40.07458)"><g data-paper-data="{&quot;isPaintingLayer&quot;:true}" fill-rule="nonzero" stroke-linecap="butt" stroke-linejoin="miter" stroke-miterlimit="10" stroke-dasharray="" stroke-dashoffset="0" style="mix-blend-mode: normal"><path d="M284.37023,179.7094c0.07585,1.88165 -6.82295,7.07192 -42.75929,7.07192c-35.93634,0 -45.96971,-4.43047 -45.98172,-7.45949c-0.01038,-2.6151 9.30175,-6.10294 45.23807,-6.10294c35.93634,0 43.43354,4.76932 43.50294,6.49051z" fill="url(#color-1)" stroke="none" stroke-width="0"/><text transform="translate(216.01958,206.60583) scale(0.357,0.357)" font-size="40" xml:space="preserve" fill="#ffffff" fill-rule="nonzero" stroke="#ffffff" stroke-width="0.5" stroke-linecap="butt" stroke-linejoin="miter" stroke-miterlimit="10" stroke-dasharray="" stroke-dashoffset="0" font-family="Handwriting" font-weight="normal" text-anchor="start" style="mix-blend-mode: normal"></text><text transform="translate(192.13994,53.18344) scale(0.34497,0.34497)" font-size="40" xml:space="preserve" fill="#ffffff" fill-rule="nonzero" stroke="#ffffff" stroke-width="1" stroke-linecap="butt" stroke-linejoin="miter" stroke-miterlimit="10" stroke-dasharray="" stroke-dashoffset="0" font-family="Handwriting" font-weight="normal" text-anchor="start" style="mix-blend-mode: normal"></text><text transform="translate(197.18818,69.93208) scale(0.26747,0.26747)" font-size="40" xml:space="preserve" fill="#ffffff" fill-rule="nonzero" stroke="#ffffff" stroke-width="1" stroke-linecap="butt" stroke-linejoin="miter" stroke-miterlimit="10" stroke-dasharray="" stroke-dashoffset="0" font-family="Handwriting" font-weight="normal" text-anchor="start" style="mix-blend-mode: normal"></text><g stroke="none" stroke-width="0"><g><path d="M292.72095,126.15372c0,18.23508 -14.22811,33.01754 -31.77938,33.01754c-17.55128,0 -31.77939,-14.78246 -31.77939,-33.01754c0,-18.23508 14.22811,-33.01754 31.77939,-33.01754c17.55127,0 31.77938,14.78246 31.77938,33.01755z" fill="url(#color-2)"/><path d="M287.05818,127.29226c-0.82871,12.27663 -6.15265,26.54725 -23.94543,27.32486c-15.72498,0.68724 -26.51087,-12.67367 -27.39375,-26.34898c-0.73215,-11.34065 11.03195,-28.53799 24.57791,-29.27665c14.68577,-0.80081 27.74115,13.78488 26.76128,28.30076z" fill="url(#color-3)"/><path d="M288.69135,128.28419c-0.35956,13.94966 -9.77603,28.6421 -28.62605,27.9915c-15.95648,-0.55072 -21.85904,-8.8359 -24.04985,-16.77401c-0.84983,-3.07923 24.06139,11.26467 33.47026,8.20489c2.0727,-0.67405 -5.32235,-5.20417 -3.01755,-9.27168c2.01023,-3.54767 14.866,-2.03361 14.7009,-3.86518c-0.06931,-0.76888 1.34132,-13.56275 -1.39911,-15.54366c-4.14796,-2.99835 -14.81297,1.89488 -16.2953,0.25353c-2.99944,-3.32117 1.03016,-11.88322 -2.83199,-12.32571c-10.28657,-1.17856 -24.48778,10.50961 -23.9681,7.69077c1.84511,-10.00812 16.94015,-16.72566 21.76427,-17.27962c20.8755,-2.39715 30.58484,18.02699 30.25253,30.91917z" fill="url(#color-4)"/><path d="M285.30764,114.49308c0,9.39927 -8.17496,17.01889 -18.25927,17.01889c-10.08432,0 -18.25927,-7.61962 -18.25927,-17.01889c0,-9.39928 8.17495,-17.01889 18.25927,-17.01889c10.08432,0 18.25927,7.61962 18.25927,17.0189z" fill="url(#color-5)"/><path d="M285.4168,138.02355c0,9.39927 -8.17496,17.01889 -18.25927,17.01889c-10.08432,0 -18.25928,-7.61962 -18.25928,-17.01889c0,-9.39927 8.17496,-17.0189 18.25928,-17.0189c10.08432,0 18.25927,7.61962 18.25927,17.0189z" fill="url(#color-6)"/></g><path d="M261.43703,132.1207c0.89853,6.04219 -15.69787,6.04956 -33.79676,6.04956c-18.09889,0 -34.96086,-1.4899 -34.98561,-8.26672c-0.02495,-6.83156 16.88672,-11.30153 34.98561,-11.30153c18.09889,0 32.89073,7.42597 33.79676,13.51869z" fill="url(#color-7)"/><g><path d="M249.39461,128.74927c0,15.89502 -13.94661,28.78047 -31.15063,28.78047c-17.20402,0 -31.15064,-12.88546 -31.15064,-28.78047c0,-15.89502 13.94662,-28.78048 31.15064,-28.78048c17.20402,0 31.15063,12.88546 31.15063,28.78048z" fill="url(#color-8)"/><path d="M270.91464,128.59929c0,15.89502 -13.94662,28.78048 -31.15064,28.78048c-17.20402,0 -31.15063,-12.88546 -31.15063,-28.78048c0,-15.89502 13.94661,-28.78048 31.15063,-28.78048c17.20402,0 31.15064,12.88546 31.15064,28.78048z" fill="url(#color-9)"/></g><path d="M268.13265,135.52113c0,6.29567 -17.86169,5.53036 -39.61674,5.53036c-21.75505,0 -39.391,-5.10364 -39.391,-11.39932c0,-6.29567 17.63595,-11.39933 39.391,-11.39933c21.75505,0 39.61674,10.97262 39.61674,17.26829z" fill="url(#color-10)"/><path d="M220.50177,128.37356c0,8.53967 -7.46177,15.46245 -16.66634,15.46245c-9.20457,0 -16.66634,-6.92278 -16.66634,-15.46245c0,-8.53968 7.46178,-15.46245 16.66634,-15.46245c9.20457,0 16.66634,6.92278 16.66634,15.46245z" fill="url(#color-11)"/><path d="M246.18249,130.73583c0,7.6024 -9.2552,15.77489 -17.44951,15.77489c-8.19431,0 -17.24856,-8.77536 -17.24856,-16.37775c0,-7.6024 8.85329,-16.57871 17.0476,-16.57871c8.19431,0 17.65047,9.57918 17.65047,17.18157z" fill="url(#color-12)"/><path d="M256.2724,129.35222c0,7.04368 -6.1546,12.7537 -13.74669,12.7537c-7.59209,0 -13.74669,-5.71003 -13.74669,-12.7537c0,-7.04368 6.1546,-12.7537 13.74669,-12.7537c7.59209,0 13.74669,5.71003 13.74669,12.7537z" fill="url(#color-13)"/><path d="M233.51832,127.39489c0,8.53967 -7.46177,15.46246 -16.66634,15.46246c-9.20457,0 -16.66635,-6.92278 -16.66635,-15.46246c0,-8.53968 7.46178,-15.46245 16.66635,-15.46245c9.20457,0 16.66634,6.92278 16.66634,15.46245z" fill="url(#color-14)"/><path d="M286.70763,139.98884c0,7.05988 -5.77819,12.78304 -12.90596,12.78304c-7.12776,0 -12.90595,-5.72316 -12.90595,-12.78304c0,-7.05988 5.77819,-12.78304 12.90595,-12.78304c7.12776,0 12.90596,5.72316 12.90596,12.78304z" fill="url(#color-15)"/><path d="M278.34949,115.28316c0,3.19052 -2.42133,5.77696 -5.40821,5.77696c-2.98687,0 -5.40821,-2.58643 -5.40821,-5.77696c0,-3.19052 2.42133,-5.77694 5.40821,-5.77694c2.98687,0 5.40821,2.58642 5.40821,5.77694z" fill="url(#color-16)"/><path d="M268.02472,109.3833c0,6.31316 -5.39298,11.43098 -12.04555,11.43098c-6.65258,0 -12.04556,-5.11782 -12.04556,-11.43098c0,-6.31316 5.39298,-11.43099 12.04556,-11.43099c6.65258,0 12.04555,5.11783 12.04555,11.43099z" fill="url(#color-17)"/><path d="M277.12035,134.1358c0,6.27113 -5.33794,11.3549 -11.92264,11.3549c-6.5847,0 -11.92265,-5.08376 -11.92265,-11.3549c0,-6.27113 5.33795,-11.35489 11.92265,-11.35489c6.5847,0 11.92264,5.08376 11.92264,11.3549z" fill="url(#color-18)"/><path d="M268.28195,126.56855c0,4.95549 -3.83734,8.97271 -8.57094,8.97271c-4.73361,0 -8.57094,-4.01722 -8.57094,-8.97271c0,-4.95549 3.83734,-8.97271 8.57094,-8.97271c4.73361,0 8.57094,4.01722 8.57094,8.97271z" fill="url(#color-19)"/><path d="M271.47771,138.24535c0,6.78834 -5.83322,12.29138 -13.02887,12.29138c-7.19565,0 -13.02886,-5.50304 -13.02886,-12.29138c0,-6.78834 5.83322,-12.29138 13.02886,-12.29138c7.19565,0 13.02887,5.50304 13.02887,12.29138z" fill="url(#color-20)"/></g><path d="M203.99957,110.8469c-0.02077,0.14639 -0.64539,0.36902 -1.15026,0.85453c-0.49505,0.47608 -0.34626,1.74969 -0.76102,1.82245c-0.3962,0.0695 -0.40525,-1.33485 -0.89762,-1.7944c-0.52221,-0.4874 -1.30314,-0.50799 -1.34607,-0.93799c-0.01788,-0.17908 0.9591,-0.15955 1.27175,-0.59438c0.49604,-0.68988 0.42945,-2.15082 0.91652,-2.1934c0.41959,-0.03668 0.3239,1.78543 0.82606,2.33363c0.43373,0.4735 1.17575,0.26208 1.14063,0.50956z" fill="url(#color-21)" stroke="none" stroke-width="0"/><path d="M223.85473,123.80649c-0.02391,0.16854 -0.74303,0.42485 -1.32429,0.98382c-0.56995,0.54811 -0.57831,2.28388 -1.05581,2.36765c-0.45614,0.08002 -0.28689,-1.80629 -0.85375,-2.33536c-0.60121,-0.56113 -1.50029,-0.58484 -1.54971,-1.07989c-0.02059,-0.20618 1.10421,-0.1837 1.46416,-0.6843c0.57108,-0.79425 0.49442,-3.10503 1.05518,-3.15405c0.48307,-0.04223 0.3729,2.68436 0.95103,3.31549c0.49935,0.54514 1.35362,0.30173 1.31319,0.58664z" fill="url(#color-22)" stroke="none" stroke-width="0"/><path d="M202.30691,131.87003c-0.02077,0.1464 -0.64538,0.36902 -1.15025,0.85453c-0.49505,0.47608 -0.34627,1.74969 -0.76102,1.82244c-0.3962,0.0695 -0.40524,-1.33485 -0.89761,-1.7944c-0.52221,-0.48739 -1.30315,-0.50798 -1.34607,-0.93798c-0.01788,-0.17908 0.95911,-0.15955 1.27176,-0.59438c0.49604,-0.68988 0.42944,-2.15082 0.91652,-2.1934c0.41959,-0.03668 0.3239,1.78544 0.82605,2.33363c0.43373,0.4735 1.17575,0.26207 1.14063,0.50955z" fill="url(#color-23)" stroke="none" stroke-width="0"/><path d="M195.65614,127.62664c-0.01537,0.1083 -0.47744,0.273 -0.85093,0.63217c-0.36622,0.35219 -0.25616,1.29437 -0.56298,1.3482c-0.2931,0.05141 -0.29979,-0.98749 -0.66403,-1.32745c-0.38631,-0.36056 -0.96402,-0.37579 -0.99578,-0.6939c-0.01323,-0.13248 0.70952,-0.11803 0.94081,-0.43971c0.36695,-0.51035 0.3177,-1.59112 0.67802,-1.62262c0.3104,-0.02713 0.23961,1.32082 0.61109,1.72636c0.32086,0.35028 0.86979,0.19387 0.84381,0.37695z" fill="url(#color-24)" stroke="none" stroke-width="0"/><path d="M226.27023,145.10125c-0.01537,0.1083 -0.47744,0.273 -0.85093,0.63217c-0.36623,0.35219 -0.25616,1.29437 -0.56298,1.3482c-0.2931,0.05141 -0.29979,-0.98749 -0.66403,-1.32745c-0.38631,-0.36056 -0.96403,-0.3758 -0.99579,-0.6939c-0.01323,-0.13248 0.70953,-0.11803 0.94082,-0.4397c0.36695,-0.51035 0.31768,-1.59113 0.67801,-1.62262c0.3104,-0.02713 0.23962,1.32082 0.6111,1.72636c0.32086,0.35029 0.86979,0.19388 0.84381,0.37696z" fill="url(#color-25)" stroke="none" stroke-width="0"/><path d="M213.80185,135.98086c-0.01537,0.1083 -0.47744,0.27299 -0.85093,0.63216c-0.36622,0.35219 -0.25616,1.29438 -0.56298,1.3482c-0.2931,0.05141 -0.29979,-0.98749 -0.66403,-1.32745c-0.38632,-0.36056 -0.96403,-0.37579 -0.99579,-0.69389c-0.01323,-0.13248 0.70952,-0.11804 0.94081,-0.43971c0.36695,-0.51035 0.31769,-1.59112 0.67802,-1.62262c0.3104,-0.02713 0.23962,1.32082 0.6111,1.72636c0.32086,0.35028 0.86979,0.19388 0.84381,0.37695z" fill="url(#color-26)" stroke="none" stroke-width="0"/><path d="M209.90866,110.2176c-0.01537,0.1083 -0.47744,0.27299 -0.85093,0.63216c-0.36622,0.35219 -0.25616,1.29437 -0.56298,1.3482c-0.2931,0.05142 -0.29979,-0.98749 -0.66403,-1.32744c-0.38631,-0.36056 -0.96403,-0.37579 -0.99579,-0.6939c-0.01323,-0.13248 0.70953,-0.11804 0.94082,-0.43971c0.36695,-0.51035 0.31768,-1.59112 0.67801,-1.62262c0.3104,-0.02713 0.23962,1.32081 0.6111,1.72635c0.32086,0.35028 0.86979,0.19388 0.84381,0.37696z" fill="url(#color-27)" stroke="none" stroke-width="0"/><path d="M194.70514,114.37527c0.32846,-0.01038 0.28549,0.53651 0.49756,0.74592c0.18813,0.18577 0.64997,0.0163 0.65881,0.29603c0.0085,0.26878 -0.46681,0.1551 -0.63039,0.34919c-0.19857,0.23561 -0.11801,0.75297 -0.45787,0.76371c-0.25429,0.00804 -0.1723,-0.47808 -0.36482,-0.60896c-0.27676,-0.18817 -0.78046,-0.08205 -0.79156,-0.43298c-0.00844,-0.26691 0.50604,-0.27204 0.66753,-0.46554c0.19853,-0.23789 0.07892,-0.63656 0.42074,-0.64737z" fill="url(#color-28)" stroke="none" stroke-width="0"/><path d="M214.91694,114.77951c0.32846,-0.01038 0.2855,0.53651 0.49757,0.74592c0.18813,0.18577 0.64996,0.01629 0.65881,0.29602c0.0085,0.26878 -0.4668,0.1551 -0.63039,0.34919c-0.19857,0.23561 -0.11801,0.75297 -0.45787,0.76371c-0.25429,0.00804 -0.1723,-0.47808 -0.36482,-0.60896c-0.27676,-0.18817 -0.78047,-0.08205 -0.79156,-0.43298c-0.00844,-0.26691 0.50604,-0.27203 0.66753,-0.46553c0.19853,-0.23789 0.07892,-0.63657 0.42074,-0.64737z" fill="url(#color-29)" stroke="none" stroke-width="0"/><path d="M238.90372,120.23256c0.32846,-0.01038 0.2855,0.53651 0.49757,0.74592c0.18813,0.18577 0.64997,0.0163 0.65881,0.29603c0.0085,0.26878 -0.46681,0.1551 -0.63039,0.34919c-0.19857,0.23561 -0.11801,0.75296 -0.45787,0.76371c-0.25429,0.00804 -0.1723,-0.47807 -0.36482,-0.60896c-0.27676,-0.18817 -0.78046,-0.08205 -0.79156,-0.43299c-0.00844,-0.26691 0.50604,-0.27203 0.66753,-0.46553c0.19853,-0.23789 0.07892,-0.63657 0.42073,-0.64737z" fill="url(#color-30)" stroke="none" stroke-width="0"/><path d="M240.02405,136.87835c0.32846,-0.01039 0.2855,0.53652 0.49757,0.74593c0.18813,0.18577 0.64997,0.01629 0.65881,0.29602c0.0085,0.26878 -0.46681,0.1551 -0.63039,0.34919c-0.19857,0.2356 -0.11801,0.75296 -0.45787,0.76371c-0.25429,0.00804 -0.1723,-0.47807 -0.36482,-0.60896c-0.27676,-0.18817 -0.78046,-0.08205 -0.79156,-0.43299c-0.00844,-0.26691 0.50603,-0.27203 0.66752,-0.46553c0.19853,-0.23789 0.07892,-0.63656 0.42074,-0.64737z" fill="url(#color-31)" stroke="none" stroke-width="0"/><path d="M269.3329,149.51357c-0.02078,0.1464 -0.64539,0.36903 -1.15026,0.85454c-0.49505,0.47608 -0.34627,1.74968 -0.76103,1.82244c-0.3962,0.0695 -0.40524,-1.33485 -0.89761,-1.79439c-0.52221,-0.48739 -1.30314,-0.50798 -1.34607,-0.93798c-0.01788,-0.17908 0.95911,-0.15956 1.27176,-0.59438c0.49604,-0.68988 0.42944,-2.15082 0.91652,-2.1934c0.41959,-0.03668 0.3239,1.78544 0.82605,2.33363c0.43373,0.4735 1.17575,0.26207 1.14063,0.50955z" fill="url(#color-32)" stroke="none" stroke-width="0"/><path d="M270.18806,106.13982c-0.02391,0.16854 -0.74304,0.42485 -1.32429,0.98382c-0.56995,0.54811 -0.57831,2.28389 -1.05581,2.36765c-0.45614,0.08002 -0.2869,-1.80629 -0.85375,-2.33536c-0.60122,-0.56113 -1.50029,-0.58484 -1.54971,-1.07989c-0.02058,-0.20618 1.10421,-0.1837 1.46416,-0.68431c0.57108,-0.79425 0.49442,-3.10503 1.05518,-3.15404c0.48307,-0.04223 0.37291,2.68436 0.95103,3.31549c0.49935,0.54514 1.35362,0.30173 1.31319,0.58665z" fill="url(#color-33)" stroke="none" stroke-width="0"/><path d="M252.30691,110.5367c-0.02077,0.14639 -0.64538,0.36902 -1.15025,0.85453c-0.49505,0.47607 -0.34627,1.74969 -0.76102,1.82245c-0.3962,0.0695 -0.40524,-1.33485 -0.89761,-1.79439c-0.52221,-0.4874 -1.30315,-0.50798 -1.34607,-0.93798c-0.01788,-0.17908 0.95911,-0.15955 1.27176,-0.59439c0.49604,-0.68988 0.42944,-2.15082 0.91652,-2.1934c0.41959,-0.03668 0.3239,1.78543 0.82605,2.33363c0.43373,0.4735 1.17575,0.26207 1.14063,0.50955z" fill="url(#color-34)" stroke="none" stroke-width="0"/><path d="M245.65614,106.2933c-0.01537,0.1083 -0.47744,0.27299 -0.85093,0.63217c-0.36622,0.35219 -0.25616,1.29437 -0.56298,1.3482c-0.2931,0.05142 -0.29979,-0.98749 -0.66403,-1.32745c-0.38631,-0.36056 -0.96402,-0.37579 -0.99578,-0.6939c-0.01323,-0.13248 0.70952,-0.11803 0.94081,-0.4397c0.36695,-0.51035 0.3177,-1.59113 0.67802,-1.62262c0.3104,-0.02713 0.23961,1.32082 0.61109,1.72636c0.32086,0.35028 0.86979,0.19388 0.84381,0.37695z" fill="url(#color-35)" stroke="none" stroke-width="0"/><path d="M267.9369,117.93459c-0.01537,0.1083 -0.47744,0.27299 -0.85093,0.63217c-0.36622,0.35219 -0.25615,1.29437 -0.56298,1.3482c-0.2931,0.05142 -0.29979,-0.98749 -0.66403,-1.32744c-0.38632,-0.36056 -0.96403,-0.37579 -0.99578,-0.6939c-0.01322,-0.13248 0.70952,-0.11804 0.94081,-0.43971c0.36696,-0.51035 0.31769,-1.59112 0.67802,-1.62262c0.3104,-0.02713 0.23961,1.32082 0.61109,1.72636c0.32087,0.35028 0.86978,0.19388 0.8438,0.37695z" fill="url(#color-36)" stroke="none" stroke-width="0"/><path d="M263.80185,114.64752c-0.01537,0.1083 -0.47744,0.27299 -0.85093,0.63216c-0.36622,0.35219 -0.25616,1.29438 -0.56298,1.3482c-0.2931,0.05142 -0.29979,-0.98749 -0.66403,-1.32745c-0.38632,-0.36056 -0.96403,-0.37579 -0.99579,-0.6939c-0.01322,-0.13248 0.70952,-0.11803 0.94081,-0.43971c0.36696,-0.51035 0.31769,-1.59112 0.67802,-1.62262c0.3104,-0.02713 0.23962,1.32082 0.6111,1.72636c0.32087,0.35028 0.86978,0.19388 0.8438,0.37695z" fill="url(#color-37)" stroke="none" stroke-width="0"/><path d="M254.90866,107.55093c-0.01537,0.1083 -0.47744,0.27299 -0.85093,0.63217c-0.36622,0.35219 -0.25616,1.29437 -0.56298,1.34819c-0.2931,0.05142 -0.29979,-0.98749 -0.66403,-1.32744c-0.38631,-0.36056 -0.96403,-0.37579 -0.99579,-0.6939c-0.01323,-0.13248 0.70953,-0.11804 0.94082,-0.43971c0.36695,-0.51035 0.31768,-1.59112 0.67801,-1.62261c0.3104,-0.02713 0.23962,1.32081 0.6111,1.72635c0.32086,0.35028 0.86979,0.19388 0.84381,0.37695z" fill="url(#color-38)" stroke="none" stroke-width="0"/><path d="M254.03847,149.37527c0.32846,-0.01039 0.28549,0.53651 0.49757,0.74592c0.18813,0.18577 0.64996,0.0163 0.65881,0.29602c0.0085,0.26878 -0.46681,0.1551 -0.63039,0.34919c-0.19857,0.2356 -0.11801,0.75297 -0.45787,0.76371c-0.25429,0.00804 -0.1723,-0.47807 -0.36482,-0.60896c-0.27676,-0.18817 -0.78046,-0.08205 -0.79155,-0.43298c-0.00844,-0.26691 0.50604,-0.27203 0.66753,-0.46553c0.19853,-0.23789 0.07892,-0.63656 0.42073,-0.64737z" fill="url(#color-39)" stroke="none" stroke-width="0"/><path d="M275.25028,113.11284c0.32846,-0.01038 0.2855,0.53651 0.49757,0.74592c0.18813,0.18577 0.64997,0.01629 0.65881,0.29602c0.00849,0.26878 -0.4668,0.1551 -0.63039,0.34919c-0.19857,0.23561 -0.11801,0.75297 -0.45787,0.76371c-0.25428,0.00804 -0.1723,-0.47808 -0.36482,-0.60896c-0.27676,-0.18817 -0.78047,-0.08205 -0.79156,-0.43298c-0.00844,-0.26691 0.50603,-0.27203 0.66753,-0.46553c0.19853,-0.23789 0.07892,-0.63657 0.42073,-0.64737z" fill="url(#color-40)" stroke="none" stroke-width="0"/><path d="M244.57039,111.23256c0.32846,-0.01038 0.2855,0.53651 0.49757,0.74592c0.18813,0.18577 0.64996,0.0163 0.65881,0.29603c0.0085,0.26878 -0.46681,0.1551 -0.63039,0.34919c-0.19857,0.23561 -0.118,0.75296 -0.45787,0.76371c-0.25429,0.00804 -0.1723,-0.47807 -0.36482,-0.60896c-0.27676,-0.18817 -0.78046,-0.08205 -0.79155,-0.43299c-0.00844,-0.26691 0.50603,-0.27203 0.66752,-0.46553c0.19853,-0.23789 0.07892,-0.63657 0.42073,-0.64737z" fill="url(#color-41)" stroke="none" stroke-width="0"/><path d="M249.69071,102.87835c0.32846,-0.01038 0.2855,0.53652 0.49757,0.74593c0.18813,0.18577 0.64997,0.01629 0.65881,0.29602c0.0085,0.26878 -0.46681,0.1551 -0.63039,0.3492c-0.19857,0.23561 -0.11801,0.75296 -0.45787,0.76371c-0.25429,0.00804 -0.1723,-0.47807 -0.36482,-0.60896c-0.27676,-0.18817 -0.78046,-0.08205 -0.79156,-0.43299c-0.00844,-0.26691 0.50603,-0.27203 0.66752,-0.46553c0.19853,-0.23789 0.07892,-0.63657 0.42074,-0.64737z" fill="url(#color-42)" stroke="none" stroke-width="0"/></g></g></svg>