<svg version="1.1" xmlns="http://www.w3.org/2000/svg" xmlns:xlink="http://www.w3.org/1999/xlink" width="107.54451" height="159.2825" viewBox="0,0,107.54451,159.2825"><defs><linearGradient x1="240.61954" y1="58.29926" x2="240.61954" y2="237.16749" gradientUnits="userSpaceOnUse" id="color-1"><stop offset="0" stop-color="#000000"/><stop offset="1" stop-color="#000000" stop-opacity="0"/></linearGradient><radialGradient cx="229.42516" cy="131.09068" r="82.82317" gradientUnits="userSpaceOnUse" id="color-2"><stop offset="0" stop-color="#ccb43f" stop-opacity="0"/><stop offset="1" stop-color="#ccb43f"/></radialGradient><radialGradient cx="228.77387" cy="108.19635" r="42.53015" gradientUnits="userSpaceOnUse" id="color-3"><stop offset="0" stop-color="#edb14a" stop-opacity="0"/><stop offset="1" stop-color="#edb14a"/></radialGradient><radialGradient cx="207.7103" cy="144.13771" r="42.53015" gradientUnits="userSpaceOnUse" id="color-4"><stop offset="0" stop-color="#ed914a" stop-opacity="0"/><stop offset="1" stop-color="#ed914a"/></radialGradient><radialGradient cx="251.35808" cy="140.64107" r="42.53014" gradientUnits="userSpaceOnUse" id="color-5"><stop offset="0" stop-color="#eda14a" stop-opacity="0"/><stop offset="1" stop-color="#eda14a"/></radialGradient><radialGradient cx="235.09767" cy="134.92491" r="27.08153" gradientUnits="userSpaceOnUse" id="color-6"><stop offset="0" stop-color="#ed914a" stop-opacity="0"/><stop offset="1" stop-color="#ed914a"/></radialGradient><radialGradient cx="223.601" cy="152.89641" r="33.84232" gradientUnits="userSpaceOnUse" id="color-7"><stop offset="0" stop-color="#edb14a" stop-opacity="0"/><stop offset="1" stop-color="#edb14a"/></radialGradient><radialGradient cx="268.31698" cy="136.67771" r="51.89539" gradientUnits="userSpaceOnUse" id="color-8"><stop offset="0" stop-color="#ccb43f" stop-opacity="0"/><stop offset="1" stop-color="#ccb43f"/></radialGradient><radialGradient cx="264.28649" cy="152.8091" r="24.10599" gradientUnits="userSpaceOnUse" id="color-9"><stop offset="0" stop-color="#edb14a" stop-opacity="0"/><stop offset="1" stop-color="#edb14a"/></radialGradient><radialGradient cx="278.88086" cy="131.39348" r="28.2506" gradientUnits="userSpaceOnUse" id="color-10"><stop offset="0" stop-color="#ed914a" stop-opacity="0"/><stop offset="1" stop-color="#ed914a"/></radialGradient><radialGradient cx="263.03371" cy="121.03507" r="31.98491" gradientUnits="userSpaceOnUse" id="color-11"><stop offset="0" stop-color="#eda14a" stop-opacity="0"/><stop offset="1" stop-color="#eda14a"/></radialGradient><radialGradient cx="254.11411" cy="136.21126" r="17.98889" gradientUnits="userSpaceOnUse" id="color-12"><stop offset="0" stop-color="#ed914a" stop-opacity="0"/><stop offset="1" stop-color="#ed914a"/></radialGradient><radialGradient cx="234.28994" cy="116.86017" r="57.16467" gradientUnits="userSpaceOnUse" id="color-13"><stop offset="0" stop-color="#49ebb6" stop-opacity="0"/><stop offset="1" stop-color="#49ebb6"/></radialGradient><radialGradient cx="222.48596" cy="103.38338" r="37.16517" gradientUnits="userSpaceOnUse" id="color-14"><stop offset="0" stop-color="#49daeb" stop-opacity="0"/><stop offset="1" stop-color="#49daeb"/></radialGradient><radialGradient cx="238.93463" cy="120.80822" r="32.09549" gradientUnits="userSpaceOnUse" id="color-15"><stop offset="0" stop-color="#49a4eb" stop-opacity="0"/><stop offset="1" stop-color="#49a4eb"/></radialGradient></defs><g transform="translate(-186.38411,-52.884)"><g data-paper-data="{&quot;isPaintingLayer&quot;:true}" fill-rule="nonzero" stroke-linecap="butt" stroke-linejoin="miter" stroke-miterlimit="10" stroke-dasharray="" stroke-dashoffset="0" style="mix-blend-mode: normal"><path d="M284.37023,179.70938c0.07585,1.88165 -6.82295,7.07192 -42.75929,7.07192c-35.93634,0 -45.96971,-4.43047 -45.98172,-7.45949c-0.01038,-2.6151 9.30175,-6.10294 45.23807,-6.10294c35.93634,0 43.43354,4.76932 43.50294,6.49051z" fill="url(#color-1)" stroke="none" stroke-width="0"/><text transform="translate(217.79697,206.18675) scale(0.357,0.357)" font-size="40" xml:space="preserve" fill="#ffffff" fill-rule="nonzero" stroke="#ffffff" stroke-width="0.5" stroke-linecap="butt" stroke-linejoin="miter" stroke-miterlimit="10" stroke-dasharray="" stroke-dashoffset="0" font-family="Handwriting" font-weight="normal" text-anchor="start" style="mix-blend-mode: normal"></text><text transform="translate(215.18233,65.99286) scale(0.34497,0.34497)" font-size="40" xml:space="preserve" fill="#ffffff" fill-rule="nonzero" stroke="#ffffff" stroke-width="1" stroke-linecap="butt" stroke-linejoin="miter" stroke-miterlimit="10" stroke-dasharray="" stroke-dashoffset="0" font-family="Handwriting" font-weight="normal" text-anchor="start" style="mix-blend-mode: normal"></text><g stroke="none" stroke-width="0"><g><path d="M270.68171,134.02045c-0.33758,27.30305 -21.98755,40.60176 -40.73431,40.77873c-23.87347,0.22537 -43.24775,-18.97806 -41.25655,-48.39613c1.26927,-18.75219 25.66365,-41.42073 51.04103,-42.75217c20.88902,-1.09595 31.36687,16.63912 30.94983,50.36956z" fill="url(#color-2)"/><path d="M260.60294,100.29817c-0.17335,14.02026 -12.62207,28.5801 -22.24863,28.67097c-12.25915,0.11572 -36.3626,-8.49152 -35.34011,-23.59786c0.65177,-9.62935 20.94003,-21.71764 33.97146,-22.40134c10.72663,-0.56278 23.83144,0.00746 23.61728,17.32823z" fill="url(#color-3)"/><path d="M211.38869,143.55247c-0.17335,14.02027 16.64609,30.87976 7.01952,30.97064c-12.25915,0.11572 -33.01018,-23.11939 -31.98769,-38.22573c0.65177,-17.15226 0.91286,-31.10628 28.09893,-30.11822c10.72663,-0.56277 -2.91661,20.05255 -3.13076,37.37331z" fill="url(#color-4)"/><path d="M270.68109,135.87643c-0.17335,14.02027 -9.42827,27.11831 -19.05484,27.20919c-12.25915,0.11572 -22.20795,-9.74533 -21.18546,-24.85167c0.34006,-5.02403 15.8238,-29.91108 26.19218,-31.07027c12.88851,-1.44093 14.11827,23.03784 14.04811,28.71275z" fill="url(#color-5)"/><path d="M248.58774,135.88289c-0.11038,8.92756 -7.1895,13.27597 -13.31932,13.33383c-7.80615,0.07369 -14.14115,-6.20546 -13.49007,-15.82458c0.41503,-6.1316 4.85064,-11.55732 13.14855,-11.99267c6.8303,-0.35836 13.7972,3.45423 13.66084,14.48342z" fill="url(#color-6)"/><path d="M240.45881,154.09355c-0.13794,11.15628 -8.98432,16.59026 -16.64442,16.66257c-9.75492,0.09208 -17.67143,-7.75462 -16.85781,-19.77511c0.51863,-7.66232 6.06159,-14.44254 16.43103,-14.98658c8.53545,-0.44781 17.24162,4.31656 17.07121,18.09913z" fill="url(#color-7)"/></g><g><path d="M242.46642,134.84198c0.21152,-17.10756 13.77697,-25.44027 25.52333,-25.55116c14.95865,-0.14121 27.09821,11.89128 25.85055,30.32407c-0.7953,11.74976 -9.29512,22.14688 -25.1961,22.98113c-13.08866,0.6867 -26.4391,-6.6192 -26.17778,-27.75404z" fill="url(#color-8)"/><path d="M249.53397,154.08836c0.09825,-7.94665 3.86603,-13.00171 9.32235,-13.05322c6.94846,-0.0656 20.61023,4.81297 20.03069,13.3752c-0.36942,5.4579 -7.48459,8.86615 -14.87077,9.25367c-6.07982,0.31898 -14.60364,0.24172 -14.48226,-9.57565z" fill="url(#color-9)"/><path d="M273.73025,130.4804c0.11514,-9.31294 3.25255,-11.39917 9.64699,-11.45953c8.14312,-0.07687 10.32452,7.54617 9.64533,17.58053c-0.43294,11.39336 -0.60636,20.66231 -18.66468,20.00599c-7.12515,0.37383 -0.76988,-14.6217 -0.62763,-26.12699z" fill="url(#color-10)"/><path d="M256.57578,108.00402c8.01291,-2.84512 17.26166,1.10418 19.17973,8.07991c2.44261,8.88338 -1.24075,18.20218 -10.0364,20.66043c-2.92524,0.81756 -20.09103,-5.15956 -22.76093,-12.44792c-3.31884,-9.05985 10.37426,-15.14081 13.6176,-16.29242z" fill="url(#color-11)"/><path d="M245.15335,135.57493c0.07332,-5.93012 4.77561,-8.81856 8.84733,-8.85699c5.18523,-0.04895 9.39325,4.12197 8.96077,10.51146c-0.27568,4.0729 -3.22204,7.67693 -8.73391,7.96612c-4.53701,0.23803 -9.16477,-2.29447 -9.07419,-9.62059z" fill="url(#color-12)"/></g><path d="M262.76527,118.8823c-0.233,18.8446 -15.17584,28.02339 -28.11488,28.14554c-16.4775,0.15555 -29.84966,-13.09869 -28.47533,-33.40308c0.87605,-12.94279 10.23892,-24.39559 27.75443,-25.31455c14.41763,-0.75642 29.12363,7.2913 28.83578,30.57209z" fill="url(#color-13)"/><path d="M240.99897,104.69805c-0.15148,12.25168 -9.86645,18.2192 -18.27867,18.29861c-10.71272,0.10113 -19.40652,-8.51601 -18.51301,-21.71675c0.56956,-8.41465 6.65675,-15.86061 18.04432,-16.45806c9.37351,-0.49178 18.9345,4.74038 18.74736,19.8762z" fill="url(#color-14)"/><path d="M254.92229,121.94355c-0.13082,10.58043 -8.52057,15.73392 -15.78528,15.8025c-9.2514,0.08733 -16.75929,-7.35434 -15.98766,-18.75437c0.49186,-7.26681 5.74871,-13.69708 15.58291,-14.21303c8.09488,-0.4247 16.35164,4.09374 16.19003,17.16491z" fill="url(#color-15)"/></g></g></g></svg>