<svg version="1.1" xmlns="http://www.w3.org/2000/svg" xmlns:xlink="http://www.w3.org/1999/xlink" width="111.66751" height="178.8852" viewBox="0,0,111.66751,178.8852"><defs><linearGradient x1="241.77942" y1="6.06733" x2="241.77942" y2="263.17258" gradientUnits="userSpaceOnUse" id="color-1"><stop offset="0" stop-color="#000000"/><stop offset="1" stop-color="#000000" stop-opacity="0"/></linearGradient></defs><g transform="translate(-185.16625,-41.3116)"><g data-paper-data="{&quot;isPaintingLayer&quot;:true}" fill-rule="nonzero" stroke-linecap="butt" stroke-linejoin="miter" stroke-miterlimit="10" stroke-dasharray="" stroke-dashoffset="0" style="mix-blend-mode: normal"><path d="M296.83298,180.58215c0.09545,2.70468 -8.58563,10.16516 -53.80589,10.16516c-45.22026,0 -57.8457,-6.36838 -57.86083,-10.72226c-0.01307,-3.75893 11.70481,-8.77237 56.92507,-8.77237c45.22026,0 54.65432,6.85543 54.74165,9.32947z" fill="url(#color-1)" stroke="none" stroke-width="0"/><text transform="translate(225.9613,212.37425) scale(0.46015,0.46015)" font-size="40" xml:space="preserve" fill="#000000" fill-rule="nonzero" stroke="#000000" stroke-width="1" stroke-linecap="butt" stroke-linejoin="miter" stroke-miterlimit="10" stroke-dasharray="" stroke-dashoffset="0" font-family="Handwriting" font-weight="normal" text-anchor="start" style="mix-blend-mode: normal"></text><text transform="translate(190.4613,60.26182) scale(0.49869,0.49869)" font-size="40" xml:space="preserve" fill="#000000" fill-rule="nonzero" stroke="#000000" stroke-width="1" stroke-linecap="butt" stroke-linejoin="miter" stroke-miterlimit="10" stroke-dasharray="" stroke-dashoffset="0" font-family="Handwriting" font-weight="normal" text-anchor="start" style="mix-blend-mode: normal"></text><g stroke="none" stroke-width="1"><path d="M274.55279,128.55777c0,0 -5.36523,3.55894 -6.57941,4.34188c-2.98169,1.92901 -5.94631,4.26435 -9.11138,5.8732c-1.4558,0.74216 -1.49356,1.18906 -2.69548,0.80402c-1.42728,-0.45735 -3.41814,-3.65777 -4.40233,-4.73114c-2.10798,-2.29216 -24.15322,-26.14449 -24.15322,-26.14449l7.38142,-28.32236c0.12132,-0.46538 5.27204,-3.46856 5.27204,-3.46856c1.86112,-0.00642 3.71803,0.1886 5.53717,0.5873c1.51766,0.40352 2.9825,0.98279 4.36498,1.72414l4.45698,14.53467l6.53963,0.18881c0,0 0.40834,4.34148 0.52323,5.56087c0.31856,3.31933 0.7289,5.77659 0.7289,5.77659l13.21988,2.72741c0,0 -0.26191,3.92671 -0.28843,4.71547c-0.13799,4.33144 -0.79398,15.83219 -0.79398,15.83219z" fill="#000000"/><path d="M269.84034,155.43257c-1.25896,3.42398 -3.13836,6.58825 -5.5426,9.33534c-0.60397,0.70721 -3.02206,3.45169 -5.76072,6.0152c-2.01618,1.88744 -9.38917,5.06014 -17.27554,4.83056c-5.49901,-0.16249 -12.2855,-3.32315 -13.30564,-4.01248c-6.09434,-4.01649 -11.13259,-7.60256 -14.96349,-13.96805c-7.38805,-12.26621 -9.27247,-26.66712 -7.35752,-40.63417c1.73961,-12.69785 7.13959,-27.16202 17.54428,-35.2149c2.66836,-2.16984 5.80008,-3.70135 9.15436,-4.47344c1.06554,-0.22877 7.87975,-0.47361 7.87975,-0.47361l-4.13842,23.01677l12.25959,2.38294l-0.53649,10.33921l4.93521,12.9907l12.8029,3.55674l5.29735,-1.0103l3.72204,0.43084c0,0 -0.23781,15.07677 -4.71507,26.88866z" fill="#f0e6d2"/><path d="M210.00945,133.59843c0.01245,-1.95774 0.4939,-9.21402 5.01374,-12.25577c1.58816,-0.7287 3.27273,-1.22581 5.00149,-1.47708c1.81714,-0.1173 3.63909,0.12011 5.36404,0.69897c4.11592,1.00468 7.84841,4.87716 9.22889,9.7963c0.56661,2.01096 0.57785,4.58511 0.52101,6.66738c-0.01868,2.95919 -0.27717,5.91056 -0.77871,8.82718c-0.73814,3.77687 -1.1507,7.9404 -2.87263,11.74701c-0.86428,1.37285 -1.86655,2.6553 -2.98692,3.82889c-0.70902,0.50053 -1.51465,0.8452 -2.36748,1.01091c-1.39353,0.16912 -3.04697,-0.65157 -4.32842,-1.33227c-5.1206,-2.73063 -8.39414,-9.86962 -10.16326,-15.9262c-1.08482,-3.76703 -1.63456,-7.66543 -1.63175,-11.58532z" fill="#faf0e6"/><path d="M262.29964,113.90942l2.25359,12.96439l6.28154,1.26398c0,0 -2.02743,17.2193 -6.5306,16.34398c-4.50518,-0.87573 -3.97572,-3.25285 -3.64994,-9.98068c0.17534,-3.39726 -0.96611,-4.52546 -2.14894,-4.82916c-1.18304,-0.3037 -2.70391,0.14141 -3.98316,6.72282c-1.27964,6.58322 -0.90967,6.248 -3.9209,16.72821c-3.00901,10.48082 -10.82789,5.89368 -8.92418,-3.8994c1.90391,-9.7951 2.40704,-13.9309 4.02553,-23.86739c1.13362,-6.96987 2.09532,-12.7802 2.09532,-12.7802z" fill="#ffdc00"/></g></g></g></svg>