<svg version="1.1" xmlns="http://www.w3.org/2000/svg" xmlns:xlink="http://www.w3.org/1999/xlink" width="75.49427" height="178.41711" viewBox="0,0,75.49427,178.41711"><defs><linearGradient x1="240.42051" y1="80.73266" x2="240.42051" y2="226.62959" gradientUnits="userSpaceOnUse" id="color-1"><stop offset="0" stop-color="#000000"/><stop offset="1" stop-color="#000000" stop-opacity="0"/></linearGradient></defs><g transform="translate(-204.50575,-27.65869)"><g data-paper-data="{&quot;isPaintingLayer&quot;:true}" stroke-linejoin="miter" stroke-miterlimit="10" stroke-dasharray="" stroke-dashoffset="0" style="mix-blend-mode: normal"><path d="M270.12041,179.76288c0.05149,1.5348 -4.63171,5.76833 -29.02684,5.76833c-24.39513,0 -31.20621,-3.61379 -31.21437,-6.08446c-0.00705,-2.13305 6.31443,-4.97797 30.70955,-4.97797c24.39513,0 29.48455,3.89018 29.53166,5.2941z" fill="url(#color-1)" fill-rule="nonzero" stroke="none" stroke-width="0" stroke-linecap="butt"/><text transform="translate(225.12807,201.22801) scale(0.28942,0.28942)" font-size="40" xml:space="preserve" fill="#000000" fill-rule="nonzero" stroke="#000000" stroke-width="0.5" stroke-linecap="butt" stroke-linejoin="miter" stroke-miterlimit="10" stroke-dasharray="" stroke-dashoffset="0" font-family="Handwriting" font-weight="normal" text-anchor="start" style="mix-blend-mode: normal"></text><text transform="translate(204.65723,39.17117) scale(0.30296,0.30296)" font-size="40" xml:space="preserve" fill="#000000" fill-rule="nonzero" stroke="#000000" stroke-width="1" stroke-linecap="butt" stroke-linejoin="miter" stroke-miterlimit="10" stroke-dasharray="" stroke-dashoffset="0" font-family="Handwriting" font-weight="normal" text-anchor="start" style="mix-blend-mode: normal"></text><path d="M276.75004,74.08706v106.41294" fill="none" fill-rule="nonzero" stroke="#ff0000" stroke-width="1.5" stroke-linecap="round"/><path d="M274.08335,76.96309c0,0 1.80898,-3.57451 2.83552,-3.5417c0.9703,0.031 2.33115,4.1169 2.33115,4.1169" fill="none" fill-rule="nonzero" stroke="#ff0000" stroke-width="1.5" stroke-linecap="round"/><g fill-rule="nonzero" stroke-width="0.5"><g data-paper-data="{&quot;index&quot;:null}" stroke="none" stroke-linecap="butt"><g><g><path d="M252.89493,91.59011l0.15462,-9.68755c0,0 3.7439,-0.82337 3.80564,-0.84533c0.06146,-0.02186 0.26731,0.46681 0.26731,0.46681l-0.25076,8.86553z" fill="#fcf6b6"/><path d="M255.77284,80.13106c0.32816,-0.08498 0.54422,-0.2686 0.90262,-0.26087c0.19231,0.00437 0.79294,0.74344 0.74603,1.08406c-0.05916,0.43274 -0.10312,0.87436 -0.1014,1.309c0.00381,0.98544 0.05982,1.96731 0.05695,2.95299c-0.00329,0.9316 -0.05637,1.86557 -0.08446,2.79887c-0.02058,0.68053 -0.02529,1.36005 -0.05895,2.04095c-0.0301,0.604 -0.21019,0.63346 -0.67648,0.79325c-0.20894,0.07147 -0.41574,0.12113 -0.62524,0.19565c-0.52779,0.18738 -1.04805,0.37137 -1.57498,0.54382c-0.24824,0.08117 -1.62485,0.73282 -1.7489,0.41019c-0.07398,-0.19309 -0.56883,-0.76505 -0.56336,-0.99104c0.01031,-0.41216 0.02491,-1.20471 0.02745,-1.61624c0.00415,-0.73426 0.11253,-1.3047 0.1143,-2.03918c0.00142,-0.69619 0.07001,-1.3672 0.09324,-2.06401c0.03883,-1.16223 -0.03303,-2.33875 0.00518,-3.50111c0.01299,-0.39705 0.05642,-0.66514 0.41001,-0.81838c0.25144,-0.10942 0.53213,-0.17424 0.78473,-0.26588c0.49019,-0.17793 1.00135,-0.31082 1.49819,-0.42084c0.26414,-0.05828 0.54614,-0.08693 0.79507,-0.15122zM253.18879,86.6297c1.22398,-0.33442 2.40333,-0.65653 3.62342,-0.98993c-0.00196,-0.31717 0.005,-0.63502 -0.01361,-0.94914c-0.00282,-0.05144 -0.12129,-0.13203 -0.18028,-0.12139c-0.97972,0.17368 -1.97147,0.24177 -2.92664,0.65146c-0.13698,0.05836 -0.28867,0.05987 -0.44895,0.09048c-0.01742,0.42504 -0.03415,0.83127 -0.05393,1.31851zM256.7818,87.90889c-0.00431,-0.22965 -0.08548,-0.32565 -0.39964,-0.23494c-0.37034,0.10676 -0.70933,0.32225 -1.09041,0.3522c-0.39683,0.03163 -0.78455,0.15992 -1.17399,0.31664c-0.18089,0.0729 -0.36307,0.16446 -0.54784,0.19094c-0.36477,0.0534 -0.42647,0.32188 -0.39029,0.6911c0.00735,0.07587 0.00228,0.15402 0.0039,0.31363c0.52444,-0.11234 1.03263,-0.20927 1.53761,-0.33289c0.50914,-0.12474 1.01344,-0.28593 1.52227,-0.41377c0.34561,-0.0869 0.47855,-0.15096 0.51946,-0.57543c0.01164,-0.11902 0.02049,-0.22242 0.01894,-0.30749zM255.02409,82.64543c0.16914,-0.04946 1.68863,-0.37341 1.70841,-0.49853c0.12923,-0.81301 0.07776,-0.87104 -0.54992,-0.70556c-0.57377,0.15129 -1.14793,0.30059 -1.72331,0.44069c-0.40774,0.09938 -0.81964,0.13315 -1.21838,0.30496c-0.04127,0.19413 -0.03837,0.56056 0.01669,0.77037c0.01722,0.06666 0.05558,0.11151 0.10932,0.13949c0.35634,0.18576 1.40151,-0.37687 1.65719,-0.45141zM253.31992,84.69258c1.13246,-0.33611 2.26627,-0.67271 3.46255,-1.0276c0.01927,-0.15741 0.04601,-0.37777 0.08495,-0.6995c-0.49356,0.08959 -0.93719,0.16997 -1.38104,0.25079c-0.22949,0.04132 -0.45955,0.07677 -0.68848,0.12538c-0.48678,0.10323 -0.97469,0.20222 -1.45713,0.33637c-0.0563,0.01539 -0.11778,0.2449 -0.11413,0.36882c0.00642,0.22105 0.06062,0.43687 0.09328,0.64573zM256.6685,89.15291c-1.06816,0.4563 -2.21141,0.67674 -3.30761,0.97284c-0.04832,0.01291 -0.11941,0.09564 -0.12417,0.15013c-0.02633,0.31297 -0.03586,0.62674 -0.05471,1.01482c0.93799,-0.33365 1.79557,-0.63478 2.65112,-0.94624c0.19039,-0.06915 0.36899,-0.20118 0.56017,-0.25741c0.16142,-0.04708 0.22412,-0.1443 0.26186,-0.33253c0.00495,-0.02531 0.00584,-0.11874 0.00614,-0.22409c0.00002,-0.17054 -0.00224,-0.37345 0.00719,-0.37752zM253.21052,88.05188c0.71073,-0.25282 1.38598,-0.50764 2.06741,-0.72969c0.38424,-0.12526 0.76847,-0.21341 1.15798,-0.29703c0.18227,-0.03915 0.24166,-0.02852 0.29491,-0.23155c0.01008,-0.03784 -0.00503,-0.4381 -0.02023,-0.43662c-1.10675,0.10898 -2.13571,0.48677 -3.2229,0.79002c-0.25204,0.07074 -0.32622,0.25803 -0.27716,0.90487z" fill="#30419a"/></g><g><path d="M253.13153,81.76527l0.15462,-9.68756c0,0 3.7439,-0.82336 3.80564,-0.84532c0.06146,-0.02186 0.26731,0.46681 0.26731,0.46681l-0.25076,8.86553z" fill="#fcf6b6"/><path d="M257.62957,71.21505c-0.05916,0.43274 -0.04602,0.73161 -0.0443,1.16624c0.00381,0.98544 0.05982,1.96731 0.05696,2.95299c-0.00329,0.9316 -0.05637,1.86558 -0.08446,2.79887c-0.02058,0.68053 -0.02529,1.36005 -0.05895,2.04095c-0.03011,0.604 -0.21019,0.63346 -0.67648,0.79325c-0.20893,0.07146 -0.41574,0.12112 -0.62524,0.19565c-0.52779,0.18738 -1.04805,0.37138 -1.57498,0.54383c-0.24824,0.08117 -1.62485,0.73282 -1.7489,0.41019c-0.07398,-0.19309 -0.56883,-0.76505 -0.56335,-0.99104c0.01031,-0.41216 0.02491,-1.20471 0.02745,-1.61624c0.00415,-0.73426 0.11253,-1.3047 0.1143,-2.03918c0.00142,-0.69619 0.07001,-1.3672 0.09324,-2.06401c0.03883,-1.16223 0.08117,-1.8534 0.11938,-3.01576c0.00248,-0.07574 0.03143,-0.41817 0.35565,-0.4992c0.84856,-0.21208 3.09062,-0.81591 4.13045,-0.86761c0.40414,-0.02009 0.48987,0.11394 0.47925,0.19109zM253.47933,75.48635c-0.01742,0.42503 -0.03415,0.83127 -0.05393,1.3185c1.22398,-0.33442 2.40332,-0.65653 3.62341,-0.98993c-0.00196,-0.31717 0.005,-0.63502 -0.01361,-0.94914c-0.00282,-0.05144 -0.12129,-0.13203 -0.18028,-0.12139c-0.97972,0.17368 -1.97147,0.24176 -2.92664,0.65145c-0.13698,0.05836 -0.28868,0.05988 -0.44896,0.09049zM257.01842,78.08404c-0.00431,-0.22965 -0.08548,-0.32565 -0.39964,-0.23494c-0.37034,0.10676 -0.70933,0.32225 -1.09041,0.3522c-0.39683,0.03163 -0.78456,0.15992 -1.17399,0.31664c-0.18089,0.0729 -0.36307,0.16446 -0.54784,0.19094c-0.36477,0.05341 -0.42647,0.32188 -0.39028,0.6911c0.00735,0.07587 0.00228,0.15403 0.0039,0.31363c0.52444,-0.11234 1.03263,-0.20927 1.53761,-0.33289c0.50914,-0.12474 1.01344,-0.28593 1.52227,-0.41377c0.34561,-0.0869 0.47855,-0.15096 0.51946,-0.57543c0.01164,-0.11902 0.02049,-0.22242 0.01894,-0.30749zM253.60351,73.27199c0.35634,0.18576 1.4015,-0.37687 1.65719,-0.45141c0.16914,-0.04946 1.68863,-0.37341 1.70842,-0.49854c0.12923,-0.81301 0.07776,-0.87104 -0.54991,-0.70556c-0.57377,0.15129 -1.14793,0.30059 -1.72331,0.44068c-0.40774,0.09938 -0.81965,0.13315 -1.21839,0.30496c-0.04127,0.19413 -0.03836,0.56057 0.0167,0.77038c0.01722,0.06666 0.05558,0.11152 0.10932,0.1395zM253.55653,74.86773c1.13246,-0.33611 2.26628,-0.67271 3.46255,-1.0276c0.01927,-0.15741 0.04601,-0.37777 0.08495,-0.6995c-0.49356,0.08959 -0.9372,0.16997 -1.38104,0.25079c-0.22949,0.04132 -0.45955,0.07677 -0.68848,0.12538c-0.48678,0.10322 -0.97469,0.20222 -1.45713,0.33637c-0.0563,0.01539 -0.11778,0.24489 -0.11413,0.36881c0.00642,0.22105 0.06062,0.43688 0.09328,0.64574zM256.90509,79.32806c-1.06816,0.4563 -2.21141,0.67674 -3.30761,0.97284c-0.04832,0.01291 -0.11942,0.09563 -0.12417,0.15013c-0.02633,0.31297 -0.03585,0.62674 -0.0547,1.01482c0.93798,-0.33365 1.79557,-0.63478 2.65112,-0.94624c0.19039,-0.06915 0.36899,-0.20118 0.56017,-0.25742c0.16142,-0.04707 0.22411,-0.14429 0.26186,-0.33253c0.00495,-0.02531 0.00584,-0.11874 0.00614,-0.22409c0.00002,-0.17054 -0.00224,-0.37344 0.00719,-0.37751zM253.44712,78.22702c0.71073,-0.25281 1.38598,-0.50763 2.06741,-0.72969c0.38423,-0.12526 0.76847,-0.21342 1.15798,-0.29703c0.18228,-0.03915 0.24166,-0.02852 0.29491,-0.23155c0.01008,-0.03784 -0.00503,-0.4381 -0.02023,-0.43662c-1.10675,0.10899 -2.13571,0.48678 -3.2229,0.79002c-0.25204,0.07074 -0.32622,0.25803 -0.27716,0.90487z" fill="#30419a"/></g></g><g><g><path d="M247.15039,93.08628l0.15462,-9.68756c0,0 3.74391,-0.82336 3.80564,-0.84532c0.06146,-0.02186 0.26731,0.46681 0.26731,0.46681l-0.25076,8.86553z" fill="#fcf6b6"/><path d="M250.02833,81.62723c0.32816,-0.08498 0.54422,-0.2686 0.90262,-0.26087c0.19231,0.00437 0.79294,0.74344 0.74604,1.08406c-0.05916,0.43274 -0.10312,0.87436 -0.10141,1.30899c0.00381,0.98544 0.05982,1.96731 0.05696,2.95299c-0.00329,0.9316 -0.05637,1.86558 -0.08446,2.79887c-0.02058,0.68053 -0.02529,1.36005 -0.05895,2.04095c-0.0301,0.604 -0.21019,0.63346 -0.67648,0.79325c-0.20894,0.07147 -0.41573,0.12112 -0.62524,0.19565c-0.52779,0.18738 -1.04805,0.37137 -1.57498,0.54383c-0.24824,0.08117 -1.62486,0.73282 -1.7489,0.41019c-0.07398,-0.19309 -0.56883,-0.76505 -0.56336,-0.99104c0.01031,-0.41216 0.02491,-1.20471 0.02745,-1.61625c0.00415,-0.73426 0.11253,-1.3047 0.1143,-2.03918c0.00142,-0.69619 0.07001,-1.3672 0.09323,-2.06401c0.03883,-1.16223 -0.03303,-2.33875 0.00518,-3.50111c0.01299,-0.39705 0.05642,-0.66513 0.41001,-0.81838c0.25144,-0.10942 0.53212,-0.17424 0.78473,-0.26588c0.49019,-0.17793 1.00135,-0.31081 1.4982,-0.42083c0.26414,-0.05828 0.54614,-0.08693 0.79507,-0.15122zM247.44426,88.12587c1.22398,-0.33442 2.40333,-0.65653 3.62342,-0.98992c-0.00196,-0.31717 0.005,-0.63503 -0.01361,-0.94914c-0.00282,-0.05144 -0.12129,-0.13203 -0.18028,-0.12139c-0.97972,0.17368 -1.97147,0.24177 -2.92664,0.65145c-0.13698,0.05836 -0.28867,0.05987 -0.44895,0.09048c-0.01742,0.42504 -0.03415,0.83127 -0.05393,1.31851zM251.03729,89.40506c-0.00431,-0.22965 -0.08547,-0.32565 -0.39964,-0.23494c-0.37034,0.10676 -0.70933,0.32225 -1.09042,0.3522c-0.39683,0.03163 -0.78455,0.15992 -1.17399,0.31664c-0.18089,0.0729 -0.36307,0.16446 -0.54783,0.19094c-0.36477,0.0534 -0.42647,0.32188 -0.39029,0.6911c0.00735,0.07587 0.00228,0.15402 0.0039,0.31363c0.52444,-0.11234 1.03263,-0.20927 1.53761,-0.33289c0.50914,-0.12474 1.01344,-0.28593 1.52226,-0.41377c0.34561,-0.0869 0.47855,-0.15096 0.51946,-0.57543c0.01164,-0.11902 0.02049,-0.22242 0.01894,-0.30749zM249.27956,84.1416c0.16914,-0.04946 1.68863,-0.37341 1.70842,-0.49854c0.12923,-0.81301 0.07776,-0.87105 -0.54992,-0.70557c-0.57377,0.15129 -1.14793,0.30059 -1.72331,0.44069c-0.40774,0.09938 -0.81965,0.13315 -1.21839,0.30496c-0.04127,0.19413 -0.03836,0.56056 0.0167,0.77037c0.01722,0.06666 0.05558,0.11151 0.10932,0.13949c0.35634,0.18576 1.40151,-0.37687 1.65719,-0.45141zM247.57539,86.18874c1.13246,-0.33611 2.26628,-0.67271 3.46255,-1.0276c0.01927,-0.15741 0.04601,-0.37777 0.08495,-0.6995c-0.49356,0.08959 -0.93719,0.16997 -1.38104,0.25079c-0.22949,0.04132 -0.45955,0.07677 -0.68848,0.12538c-0.48678,0.10323 -0.97469,0.20222 -1.45713,0.33637c-0.0563,0.01539 -0.11778,0.24489 -0.11413,0.36881c0.00642,0.22105 0.06062,0.43688 0.09328,0.64574zM250.92397,90.64907c-1.06816,0.4563 -2.21141,0.67674 -3.30761,0.97284c-0.04832,0.01291 -0.11942,0.09564 -0.12417,0.15013c-0.02633,0.31297 -0.03585,0.62674 -0.0547,1.01482c0.93799,-0.33365 1.79557,-0.63478 2.65112,-0.94624c0.19039,-0.06915 0.36899,-0.20118 0.56017,-0.25741c0.16142,-0.04708 0.22411,-0.1443 0.26186,-0.33254c0.00495,-0.02531 0.00584,-0.11873 0.00614,-0.22408c0.00002,-0.17054 -0.00224,-0.37345 0.00719,-0.37752zM247.46598,89.54804c0.71073,-0.25282 1.38598,-0.50764 2.06741,-0.7297c0.38424,-0.12526 0.76847,-0.21341 1.15798,-0.29703c0.18227,-0.03915 0.24165,-0.02852 0.2949,-0.23155c0.01008,-0.03784 -0.00503,-0.4381 -0.02023,-0.43662c-1.10675,0.10898 -2.13572,0.48678 -3.22291,0.79002c-0.25204,0.07074 -0.32622,0.25803 -0.27716,0.90486z" fill="#30419a"/></g><g><path d="M247.387,83.26143l0.15462,-9.68756c0,0 3.74391,-0.82336 3.80564,-0.84532c0.06146,-0.02186 0.26731,0.46681 0.26731,0.46681l-0.25076,8.86553z" fill="#fcf6b6"/><path d="M251.85649,72.62557c-0.05916,0.43274 -0.10312,0.87436 -0.1014,1.30899c0.00381,0.98544 0.05982,1.96731 0.05696,2.95299c-0.00329,0.9316 -0.05637,1.86558 -0.08446,2.79887c-0.02058,0.68053 -0.02529,1.36005 -0.05895,2.04095c-0.03011,0.604 -0.21019,0.63346 -0.67648,0.79325c-0.20893,0.07146 -0.41573,0.12112 -0.62524,0.19565c-0.52779,0.18738 -1.04805,0.37137 -1.57498,0.54383c-0.24824,0.08117 -1.62486,0.73282 -1.74891,0.41019c-0.07398,-0.19309 -0.56883,-0.76505 -0.56335,-0.99104c0.01031,-0.41216 0.02491,-1.20471 0.02745,-1.61624c0.00415,-0.73426 0.11253,-1.3047 0.1143,-2.03919c0.00142,-0.69619 0.07001,-1.3672 0.09324,-2.06401c0.03883,-1.16223 -0.03303,-2.33874 0.00518,-3.50111c0.01299,-0.39706 0.14207,-0.35109 0.49565,-0.50433c0.13889,-0.06044 3.73608,-1.01656 4.11967,-0.94579c0.51317,0.09468 0.53457,0.52081 0.52133,0.61698zM247.7348,76.98251c-0.01742,0.42503 -0.03415,0.83127 -0.05393,1.31851c1.22398,-0.33442 2.40333,-0.65653 3.62342,-0.98993c-0.00196,-0.31717 0.00499,-0.63502 -0.01362,-0.94914c-0.00282,-0.05144 -0.12128,-0.13203 -0.18028,-0.12139c-0.97972,0.17369 -1.97148,0.24176 -2.92664,0.65145c-0.13698,0.05836 -0.28867,0.05987 -0.44895,0.09049zM251.2739,79.5802c-0.00431,-0.22965 -0.08547,-0.32565 -0.39964,-0.23494c-0.37034,0.10676 -0.70933,0.32224 -1.09042,0.3522c-0.39683,0.03163 -0.78456,0.15992 -1.17399,0.31664c-0.18089,0.0729 -0.36307,0.16446 -0.54783,0.19095c-0.36477,0.05341 -0.42647,0.32187 -0.39029,0.69109c0.00735,0.07587 0.00228,0.15402 0.0039,0.31363c0.52444,-0.11234 1.03263,-0.20927 1.53761,-0.33289c0.50914,-0.12474 1.01344,-0.28593 1.52226,-0.41377c0.34561,-0.0869 0.47855,-0.15096 0.51946,-0.57543c0.01164,-0.11902 0.02049,-0.22242 0.01894,-0.30749zM249.51616,74.31674c0.16914,-0.04946 1.68863,-0.37341 1.70842,-0.49853c0.12923,-0.81301 0.07776,-0.87104 -0.54992,-0.70556c-0.57377,0.15129 -1.14793,0.30059 -1.72331,0.44068c-0.40774,0.09938 -0.81964,0.13315 -1.21838,0.30496c-0.04127,0.19413 -0.03837,0.56057 0.01669,0.77038c0.01722,0.06666 0.05558,0.11152 0.10932,0.13949c0.35634,0.18576 1.40151,-0.37688 1.65719,-0.45142zM247.812,76.3639c1.13246,-0.33611 2.26628,-0.67271 3.46255,-1.0276c0.01927,-0.15741 0.04601,-0.37777 0.08495,-0.6995c-0.49356,0.08959 -0.9372,0.16997 -1.38104,0.25079c-0.22949,0.04132 -0.45955,0.07677 -0.68848,0.12538c-0.48678,0.10323 -0.97469,0.20222 -1.45713,0.33637c-0.0563,0.01539 -0.11779,0.24489 -0.11413,0.36882c0.00642,0.22105 0.06062,0.43687 0.09328,0.64574zM251.16058,80.82422c-1.06816,0.4563 -2.21141,0.67674 -3.30761,0.97284c-0.04832,0.01291 -0.11941,0.09563 -0.12417,0.15012c-0.02633,0.31297 -0.03585,0.62674 -0.0547,1.01482c0.93798,-0.33365 1.79556,-0.63479 2.65111,-0.94625c0.19039,-0.06915 0.36899,-0.20118 0.56017,-0.25741c0.16142,-0.04707 0.22411,-0.14429 0.26186,-0.33253c0.00495,-0.02531 0.00584,-0.11874 0.00614,-0.22409c0.00002,-0.17054 -0.00224,-0.37345 0.00719,-0.37752zM247.70259,79.72319c0.71073,-0.25281 1.38598,-0.50764 2.06741,-0.7297c0.38423,-0.12526 0.76847,-0.21341 1.15798,-0.29703c0.18228,-0.03915 0.24165,-0.02852 0.2949,-0.23155c0.01008,-0.03784 -0.00503,-0.4381 -0.02023,-0.43662c-1.10675,0.10899 -2.13572,0.48677 -3.22291,0.79002c-0.25204,0.07074 -0.32622,0.25803 -0.27716,0.90487z" fill="#30419a"/></g></g></g><g data-paper-data="{&quot;index&quot;:null}" stroke="none" stroke-linecap="butt"><g><g><path d="M223.63123,100.58335l0.15462,-9.68755c0,0 3.74391,-0.82336 3.80564,-0.84532c0.06146,-0.02186 0.26731,0.46681 0.26731,0.46681l-0.25076,8.86553z" fill="#fcf6b6"/><path d="M226.50917,89.12429c0.32816,-0.08498 0.54422,-0.2686 0.90262,-0.26087c0.19231,0.00437 0.79294,0.74344 0.74604,1.08407c-0.05916,0.43274 -0.10312,0.87436 -0.1014,1.30899c0.00381,0.98544 0.05982,1.96731 0.05695,2.95299c-0.00329,0.9316 -0.05637,1.86557 -0.08446,2.79887c-0.02058,0.68053 -0.02529,1.36005 -0.05895,2.04095c-0.0301,0.604 -0.21019,0.63346 -0.67648,0.79326c-0.20894,0.07147 -0.41573,0.12112 -0.62524,0.19565c-0.52779,0.18738 -1.04805,0.37138 -1.57498,0.54383c-0.24824,0.08117 -1.62486,0.73281 -1.74891,0.41019c-0.07398,-0.19309 -0.56882,-0.76505 -0.56335,-0.99104c0.01031,-0.41216 0.02491,-1.20471 0.02745,-1.61624c0.00415,-0.73426 0.11252,-1.3047 0.1143,-2.03918c0.00142,-0.69619 0.07001,-1.3672 0.09324,-2.06401c0.03883,-1.16223 -0.03303,-2.33875 0.00518,-3.50111c0.01299,-0.39705 0.05642,-0.66514 0.41,-0.81838c0.25144,-0.10942 0.53213,-0.17424 0.78473,-0.26588c0.49019,-0.17793 1.00135,-0.31082 1.4982,-0.42084c0.26414,-0.05828 0.54614,-0.08693 0.79507,-0.15122zM223.9251,95.62293c1.22398,-0.33442 2.40333,-0.65653 3.62342,-0.98993c-0.00196,-0.31717 0.00499,-0.63502 -0.01362,-0.94914c-0.00282,-0.05144 -0.12129,-0.13203 -0.18028,-0.12139c-0.97972,0.17368 -1.97147,0.24177 -2.92664,0.65146c-0.13698,0.05836 -0.28867,0.05987 -0.44895,0.09048c-0.01742,0.42504 -0.03415,0.83127 -0.05393,1.31851zM227.51813,96.90212c-0.00431,-0.22965 -0.08547,-0.32565 -0.39964,-0.23494c-0.37034,0.10676 -0.70933,0.32225 -1.09041,0.3522c-0.39683,0.03163 -0.78456,0.15992 -1.174,0.31664c-0.18089,0.0729 -0.36307,0.16446 -0.54783,0.19095c-0.36477,0.0534 -0.42647,0.32188 -0.39029,0.6911c0.00735,0.07587 0.00228,0.15403 0.0039,0.31363c0.52444,-0.11234 1.03263,-0.20927 1.53761,-0.33289c0.50914,-0.12474 1.01344,-0.28593 1.52226,-0.41377c0.34561,-0.0869 0.47855,-0.15096 0.51946,-0.57543c0.01164,-0.11902 0.02049,-0.22242 0.01894,-0.30749zM225.76039,91.63866c0.16914,-0.04946 1.68863,-0.37341 1.70842,-0.49853c0.12923,-0.81301 0.07776,-0.87105 -0.54992,-0.70557c-0.57377,0.15129 -1.14793,0.30059 -1.72331,0.44069c-0.40774,0.09938 -0.81964,0.13315 -1.21838,0.30496c-0.04127,0.19413 -0.03837,0.56056 0.01669,0.77037c0.01722,0.06666 0.05558,0.11152 0.10932,0.13949c0.35634,0.18576 1.40151,-0.37687 1.65719,-0.45141zM224.05623,93.68581c1.13246,-0.33611 2.26628,-0.67271 3.46255,-1.0276c0.01927,-0.15741 0.04601,-0.37777 0.08495,-0.6995c-0.49356,0.08959 -0.9372,0.16997 -1.38104,0.25079c-0.22949,0.04132 -0.45955,0.07677 -0.68848,0.12538c-0.48678,0.10323 -0.97469,0.20222 -1.45713,0.33637c-0.0563,0.01539 -0.11778,0.2449 -0.11413,0.36882c0.00642,0.22105 0.06062,0.43687 0.09328,0.64573zM227.40481,98.14614c-1.06816,0.4563 -2.21141,0.67674 -3.30761,0.97284c-0.04832,0.01291 -0.11942,0.09564 -0.12417,0.15013c-0.02633,0.31297 -0.03585,0.62673 -0.0547,1.01482c0.93799,-0.33365 1.79557,-0.63478 2.65112,-0.94624c0.19039,-0.06915 0.36899,-0.20118 0.56017,-0.25741c0.16142,-0.04708 0.22411,-0.1443 0.26186,-0.33254c0.00495,-0.02531 0.00584,-0.11874 0.00614,-0.22409c0.00002,-0.17054 -0.00223,-0.37345 0.0072,-0.37752zM223.94682,97.04511c0.71073,-0.25282 1.38598,-0.50764 2.0674,-0.72969c0.38424,-0.12526 0.76847,-0.21341 1.15798,-0.29703c0.18227,-0.03915 0.24165,-0.02852 0.2949,-0.23155c0.01008,-0.03784 -0.00503,-0.4381 -0.02023,-0.43662c-1.10675,0.10898 -2.13571,0.48677 -3.2229,0.79002c-0.25204,0.07074 -0.32622,0.25803 -0.27716,0.90487z" fill="#30419a"/></g><g><path d="M223.86783,90.7585l0.15462,-9.68756c0,0 3.74391,-0.82336 3.80564,-0.84532c0.06146,-0.02186 0.26731,0.46681 0.26731,0.46681l-0.25076,8.86553z" fill="#fcf6b6"/><path d="M228.36587,80.20828c-0.05916,0.43274 -0.04602,0.73161 -0.0443,1.16624c0.00381,0.98544 0.05982,1.96731 0.05696,2.95299c-0.00329,0.9316 -0.05637,1.86558 -0.08446,2.79887c-0.02058,0.68053 -0.02529,1.36005 -0.05896,2.04095c-0.03011,0.604 -0.21019,0.63346 -0.67648,0.79325c-0.20893,0.07146 -0.41574,0.12112 -0.62524,0.19565c-0.52779,0.18738 -1.04805,0.37138 -1.57498,0.54383c-0.24824,0.08117 -1.62486,0.73282 -1.74891,0.41019c-0.07398,-0.19309 -0.56883,-0.76505 -0.56335,-0.99104c0.01031,-0.41216 0.02491,-1.2047 0.02745,-1.61624c0.00415,-0.73426 0.11253,-1.3047 0.1143,-2.03918c0.00142,-0.69619 0.07001,-1.3672 0.09323,-2.06401c0.03883,-1.16223 0.08117,-1.8534 0.11938,-3.01576c0.00248,-0.07574 0.03143,-0.41817 0.35565,-0.4992c0.84856,-0.21208 3.09062,-0.81592 4.13045,-0.86762c0.40414,-0.02009 0.48987,0.11394 0.47925,0.19109zM224.21563,84.47958c-0.01742,0.42503 -0.03415,0.83127 -0.05393,1.3185c1.22398,-0.33442 2.40333,-0.65653 3.62342,-0.98992c-0.00196,-0.31717 0.00499,-0.63503 -0.01362,-0.94914c-0.00282,-0.05144 -0.12129,-0.13203 -0.18028,-0.12139c-0.97972,0.17368 -1.97147,0.24176 -2.92664,0.65145c-0.13698,0.05836 -0.28867,0.05988 -0.44895,0.09049zM227.75473,87.07727c-0.00431,-0.22965 -0.08548,-0.32564 -0.39964,-0.23494c-0.37034,0.10676 -0.70933,0.32224 -1.09041,0.3522c-0.39683,0.03163 -0.78456,0.15992 -1.17399,0.31664c-0.18089,0.0729 -0.36307,0.16446 -0.54784,0.19095c-0.36477,0.05341 -0.42647,0.32187 -0.39028,0.69109c0.00735,0.07587 0.00228,0.15403 0.0039,0.31363c0.52444,-0.11234 1.03263,-0.20927 1.53761,-0.33288c0.50914,-0.12474 1.01344,-0.28593 1.52227,-0.41377c0.34561,-0.0869 0.47855,-0.15096 0.51946,-0.57543c0.01164,-0.11902 0.02049,-0.22242 0.01894,-0.30749zM224.33981,82.26523c0.35634,0.18576 1.40151,-0.37687 1.65719,-0.45141c0.16914,-0.04946 1.68863,-0.37341 1.70842,-0.49854c0.12923,-0.81301 0.07776,-0.87104 -0.54992,-0.70556c-0.57377,0.15129 -1.14793,0.30058 -1.72331,0.44068c-0.40774,0.09938 -0.81965,0.13315 -1.21839,0.30496c-0.04127,0.19413 -0.03836,0.56057 0.0167,0.77038c0.01722,0.06666 0.05558,0.11152 0.10932,0.1395zM224.29284,83.86097c1.13246,-0.33611 2.26627,-0.67271 3.46255,-1.0276c0.01927,-0.15741 0.04601,-0.37777 0.08495,-0.6995c-0.49356,0.08959 -0.93719,0.16997 -1.38104,0.25079c-0.22949,0.04132 -0.45955,0.07677 -0.68848,0.12538c-0.48678,0.10322 -0.97468,0.20222 -1.45713,0.33637c-0.0563,0.01539 -0.11779,0.24489 -0.11413,0.36881c0.00642,0.22105 0.06062,0.43688 0.09328,0.64574zM227.64141,88.32129c-1.06816,0.4563 -2.21141,0.67674 -3.30761,0.97284c-0.04832,0.01291 -0.11941,0.09563 -0.12417,0.15012c-0.02633,0.31297 -0.03585,0.62674 -0.0547,1.01482c0.93798,-0.33365 1.79556,-0.63478 2.65111,-0.94624c0.19039,-0.06915 0.36899,-0.20118 0.56018,-0.25741c0.16142,-0.04707 0.22411,-0.14429 0.26186,-0.33253c0.00495,-0.02531 0.00584,-0.11874 0.00614,-0.22409c0.00002,-0.17054 -0.00224,-0.37345 0.00719,-0.37752zM224.18343,87.22026c0.71073,-0.25281 1.38598,-0.50763 2.0674,-0.72969c0.38423,-0.12526 0.76847,-0.21342 1.15798,-0.29703c0.18228,-0.03915 0.24165,-0.02852 0.2949,-0.23155c0.01008,-0.03784 -0.00503,-0.4381 -0.02023,-0.43662c-1.10675,0.10899 -2.13571,0.48678 -3.2229,0.79002c-0.25204,0.07074 -0.32623,0.25803 -0.27716,0.90487z" fill="#30419a"/></g></g><g><g><path d="M217.8867,102.07951l0.15462,-9.68756c0,0 3.7439,-0.82336 3.80564,-0.84532c0.06146,-0.02186 0.26731,0.46681 0.26731,0.46681l-0.25076,8.86553z" fill="#fcf6b6"/><path d="M220.76464,90.62046c0.32816,-0.08498 0.54422,-0.2686 0.90262,-0.26087c0.19231,0.00437 0.79294,0.74344 0.74603,1.08407c-0.05916,0.43274 -0.10312,0.87436 -0.1014,1.30899c0.00381,0.98544 0.05982,1.96731 0.05696,2.95299c-0.00329,0.9316 -0.05637,1.86558 -0.08446,2.79887c-0.02058,0.68053 -0.02529,1.36005 -0.05895,2.04095c-0.0301,0.604 -0.21019,0.63346 -0.67648,0.79325c-0.20894,0.07147 -0.41574,0.12112 -0.62524,0.19565c-0.52779,0.18738 -1.04805,0.37137 -1.57498,0.54383c-0.24824,0.08117 -1.62486,0.73282 -1.7489,0.41019c-0.07398,-0.19309 -0.56883,-0.76505 -0.56335,-0.99104c0.01031,-0.41216 0.02491,-1.20471 0.02745,-1.61625c0.00415,-0.73426 0.11253,-1.3047 0.1143,-2.03918c0.00142,-0.69619 0.07001,-1.3672 0.09323,-2.06401c0.03883,-1.16223 -0.03303,-2.33875 0.00518,-3.50111c0.01299,-0.39705 0.05642,-0.66513 0.41001,-0.81838c0.25144,-0.10942 0.53212,-0.17424 0.78473,-0.26588c0.49019,-0.17793 1.00135,-0.31081 1.49819,-0.42083c0.26414,-0.05828 0.54614,-0.08693 0.79507,-0.15122zM218.18056,97.1191c1.22398,-0.33442 2.40333,-0.65653 3.62342,-0.98992c-0.00196,-0.31717 0.00499,-0.63503 -0.01362,-0.94914c-0.00282,-0.05144 -0.12129,-0.13203 -0.18028,-0.12139c-0.97972,0.17368 -1.97147,0.24177 -2.92664,0.65145c-0.13698,0.05836 -0.28867,0.05987 -0.44895,0.09048c-0.01742,0.42504 -0.03415,0.83127 -0.05393,1.31851zM221.7736,98.39829c-0.00431,-0.22965 -0.08548,-0.32565 -0.39964,-0.23494c-0.37034,0.10676 -0.70933,0.32225 -1.09041,0.3522c-0.39683,0.03163 -0.78455,0.15992 -1.17399,0.31664c-0.18089,0.0729 -0.36307,0.16446 -0.54784,0.19094c-0.36477,0.0534 -0.42647,0.32188 -0.39029,0.6911c0.00735,0.07587 0.00228,0.15402 0.0039,0.31363c0.52444,-0.11234 1.03263,-0.20927 1.53761,-0.33289c0.50914,-0.12474 1.01344,-0.28593 1.52226,-0.41377c0.34561,-0.0869 0.47855,-0.15096 0.51946,-0.57543c0.01164,-0.11902 0.02049,-0.22242 0.01894,-0.30748zM220.01587,93.13483c0.16914,-0.04946 1.68863,-0.37341 1.70841,-0.49854c0.12923,-0.81301 0.07776,-0.87105 -0.54992,-0.70557c-0.57377,0.15129 -1.14793,0.30059 -1.72331,0.44069c-0.40774,0.09938 -0.81964,0.13315 -1.21838,0.30496c-0.04127,0.19413 -0.03837,0.56056 0.01669,0.77037c0.01722,0.06666 0.05558,0.11151 0.10932,0.13949c0.35634,0.18576 1.40151,-0.37687 1.65719,-0.45141zM218.3117,95.18198c1.13246,-0.33611 2.26628,-0.67271 3.46255,-1.0276c0.01927,-0.15741 0.04601,-0.37777 0.08495,-0.6995c-0.49356,0.08959 -0.93719,0.16998 -1.38104,0.25079c-0.22949,0.04132 -0.45955,0.07677 -0.68848,0.12538c-0.48678,0.10323 -0.97469,0.20222 -1.45713,0.33637c-0.0563,0.01539 -0.11778,0.24489 -0.11413,0.36882c0.00642,0.22105 0.06061,0.43687 0.09327,0.64574zM221.66027,99.6423c-1.06816,0.4563 -2.21141,0.67674 -3.30761,0.97284c-0.04832,0.01291 -0.11942,0.09564 -0.12417,0.15013c-0.02633,0.31297 -0.03585,0.62674 -0.0547,1.01482c0.93799,-0.33365 1.79557,-0.63478 2.65112,-0.94624c0.19039,-0.06915 0.36899,-0.20118 0.56017,-0.25741c0.16142,-0.04708 0.22412,-0.1443 0.26186,-0.33254c0.00495,-0.02531 0.00584,-0.11873 0.00614,-0.22408c0.00002,-0.17054 -0.00224,-0.37345 0.00719,-0.37752zM218.20229,98.54128c0.71073,-0.25282 1.38598,-0.50764 2.06741,-0.7297c0.38424,-0.12526 0.76847,-0.21341 1.15798,-0.29703c0.18227,-0.03915 0.24165,-0.02852 0.2949,-0.23155c0.01008,-0.03784 -0.00503,-0.4381 -0.02023,-0.43662c-1.10675,0.10898 -2.13571,0.48677 -3.2229,0.79002c-0.25204,0.07074 -0.32622,0.25803 -0.27716,0.90486z" fill="#30419a"/></g><g><path d="M218.1233,92.25467l0.15462,-9.68756c0,0 3.7439,-0.82336 3.80564,-0.84532c0.06146,-0.02186 0.26731,0.46681 0.26731,0.46681l-0.25076,8.86553z" fill="#fcf6b6"/><path d="M222.59279,81.6188c-0.05916,0.43274 -0.10312,0.87436 -0.1014,1.30899c0.00381,0.98544 0.05982,1.96731 0.05696,2.95299c-0.00329,0.9316 -0.05637,1.86558 -0.08446,2.79887c-0.02058,0.68053 -0.02529,1.36005 -0.05895,2.04095c-0.03011,0.604 -0.21019,0.63346 -0.67648,0.79325c-0.20893,0.07146 -0.41573,0.12112 -0.62524,0.19565c-0.52779,0.18738 -1.04805,0.37138 -1.57498,0.54383c-0.24824,0.08117 -1.62486,0.73282 -1.74891,0.41019c-0.07398,-0.19309 -0.56883,-0.76505 -0.56335,-0.99104c0.01031,-0.41216 0.02491,-1.20471 0.02745,-1.61624c0.00415,-0.73426 0.11253,-1.3047 0.1143,-2.03919c0.00142,-0.69619 0.07001,-1.3672 0.09323,-2.06401c0.03883,-1.16223 -0.03303,-2.33875 0.00518,-3.50111c0.01299,-0.39706 0.14207,-0.35109 0.49565,-0.50433c0.13889,-0.06044 3.73608,-1.01656 4.11967,-0.94579c0.51317,0.09468 0.53457,0.52081 0.52132,0.61698zM218.4711,85.97575c-0.01742,0.42503 -0.03415,0.83127 -0.05393,1.31851c1.22398,-0.33442 2.40333,-0.65653 3.62342,-0.98993c-0.00196,-0.31717 0.005,-0.63502 -0.01361,-0.94914c-0.00282,-0.05144 -0.12129,-0.13203 -0.18028,-0.12139c-0.97972,0.17369 -1.97147,0.24176 -2.92664,0.65145c-0.13698,0.05836 -0.28868,0.05988 -0.44896,0.09049zM222.0102,88.57344c-0.00431,-0.22965 -0.08548,-0.32565 -0.39964,-0.23494c-0.37034,0.10676 -0.70933,0.32224 -1.09041,0.3522c-0.39683,0.03163 -0.78456,0.15992 -1.17399,0.31664c-0.18089,0.0729 -0.36307,0.16446 -0.54783,0.19095c-0.36477,0.05341 -0.42647,0.32187 -0.39029,0.69109c0.00735,0.07587 0.00228,0.15403 0.0039,0.31364c0.52444,-0.11234 1.03263,-0.20927 1.53761,-0.33289c0.50914,-0.12474 1.01344,-0.28593 1.52226,-0.41377c0.34561,-0.0869 0.47855,-0.15096 0.51946,-0.57543c0.01164,-0.11902 0.02049,-0.22242 0.01894,-0.30749zM220.25247,83.30998c0.16914,-0.04946 1.68863,-0.37341 1.70842,-0.49853c0.12923,-0.81301 0.07776,-0.87105 -0.54991,-0.70557c-0.57377,0.15129 -1.14793,0.30059 -1.72332,0.44068c-0.40774,0.09938 -0.81964,0.13315 -1.21838,0.30496c-0.04127,0.19413 -0.03836,0.56057 0.0167,0.77038c0.01722,0.06666 0.05558,0.11152 0.10932,0.13949c0.35634,0.18576 1.40151,-0.37687 1.65719,-0.45141zM218.5483,85.35713c1.13246,-0.33611 2.26628,-0.67271 3.46255,-1.0276c0.01927,-0.15741 0.04601,-0.37777 0.08495,-0.6995c-0.49356,0.08959 -0.9372,0.16997 -1.38104,0.25079c-0.22949,0.04132 -0.45955,0.07678 -0.68848,0.12539c-0.48678,0.10323 -0.97469,0.20222 -1.45713,0.33637c-0.0563,0.01539 -0.11779,0.24489 -0.11413,0.36882c0.00642,0.22105 0.06062,0.43687 0.09328,0.64574zM221.89688,89.81746c-1.06816,0.4563 -2.21141,0.67674 -3.30761,0.97284c-0.04832,0.01291 -0.11942,0.09563 -0.12417,0.15012c-0.02633,0.31297 -0.03585,0.62674 -0.0547,1.01482c0.93798,-0.33365 1.79557,-0.63478 2.65112,-0.94624c0.19039,-0.06915 0.36899,-0.20118 0.56017,-0.25741c0.16142,-0.04707 0.22411,-0.14429 0.26186,-0.33253c0.00495,-0.02531 0.00584,-0.11874 0.00614,-0.22409c0.00002,-0.17054 -0.00224,-0.37345 0.00719,-0.37752zM218.4389,88.71643c0.71073,-0.25281 1.38598,-0.50764 2.06741,-0.72969c0.38423,-0.12526 0.76847,-0.21341 1.15798,-0.29703c0.18228,-0.03915 0.24165,-0.02852 0.2949,-0.23155c0.01008,-0.03784 -0.00503,-0.4381 -0.02023,-0.43662c-1.10675,0.10899 -2.13571,0.48677 -3.2229,0.79002c-0.25204,0.07074 -0.32622,0.25803 -0.27716,0.90487z" fill="#30419a"/></g></g></g><g stroke="none" stroke-linecap="butt"><path d="M233.67702,70.63642c0,0 5.79717,2.10755 5.72225,2.12262c-0.07525,0.01514 -3.96085,1.11304 -3.96085,1.11304l-6.44231,-2.2019z" fill="#ef463c"/><path d="M239.08044,73.38228c-0.28453,0.06768 -0.57237,0.1564 -0.86653,0.23093c-0.55361,0.14007 -1.13855,0.2788 -1.73891,0.39804c-0.30933,0.06146 -0.62417,0.13986 -0.94629,0.19607c-0.45248,0.07921 -0.70261,0.02088 -1.02476,-0.08311c-0.94324,-0.30434 -1.79391,-0.65023 -2.73762,-0.95433c-0.56575,-0.18234 -1.15407,-0.3421 -1.69881,-0.53173c-0.23456,-0.08158 -1.024,-0.34597 -1.1009,-0.38911c-0.1916,-0.10748 -0.17492,-0.67638 -0.06962,-0.76093c0.13987,-0.1123 3.82889,-0.88274 4.35368,-0.94155c0.53094,-0.0595 1.00279,0.12861 1.10671,0.16236c0.75491,0.24525 1.53389,0.48213 2.26413,0.73541c0.77205,0.26819 1.4857,0.55551 2.25129,0.82592c0.33763,0.11928 0.72372,0.22482 1.11718,0.32275c0.31002,0.07696 0.32144,0.48444 0.14382,0.55148c-0.33138,0.12482 -0.6781,0.14865 -1.05337,0.2378zM232.65523,72.83395c0.17479,-0.04652 0.31877,-0.09804 0.49328,-0.12901c1.21898,-0.21516 2.20578,-0.53613 3.26368,-0.82414c0.06384,-0.01729 0.11247,-0.07986 0.07497,-0.09487c-0.22766,-0.09215 -0.48231,-0.17657 -0.72802,-0.26386c-1.40885,0.3267 -2.77052,0.64253 -4.18383,0.97028c0.39893,0.12629 0.73176,0.23149 1.07991,0.3416zM233.95943,70.91281c-0.06493,-0.02376 -0.15399,-0.04897 -0.25784,-0.07749c-0.36983,-0.10191 -0.54498,-0.07389 -0.93817,0.02072c-0.5788,0.1393 -1.17937,0.26795 -1.75605,0.40821c-0.57188,0.13914 -1.12596,0.28667 -1.70737,0.43555c0.12305,0.04414 0.18882,0.06375 0.24113,0.08698c0.25412,0.11322 0.52176,0.16541 0.90685,0.0551c0.19461,-0.05603 0.43759,-0.0934 0.66479,-0.13543c0.48895,-0.09054 0.9541,-0.18826 1.35237,-0.31549c0.38214,-0.1223 0.86946,-0.17952 1.30144,-0.27717c0.36656,-0.0828 0.36804,-0.1368 0.19286,-0.20099zM234.50052,73.39614c-0.02875,0.02604 -0.02984,0.05142 0.00597,0.07552c0.11193,0.07615 0.39521,0.17721 0.58558,0.21609c0.50948,-0.08961 0.92362,-0.22141 1.38504,-0.33388c0.65103,-0.15875 1.30809,-0.31457 1.96634,-0.4697c0.72007,-0.16972 0.72323,-0.20319 -0.03302,-0.38096c-0.11629,-0.0274 -1.79962,0.40439 -1.99746,0.4488c-0.29888,0.06719 -1.72199,0.27139 -1.91246,0.44413zM233.21077,72.97645c0.13228,0.06822 0.24971,0.14572 0.41621,0.20828c0.09329,0.03509 0.3303,0.07672 0.39532,0.06164c0.55889,-0.12855 1.09548,-0.26857 1.63432,-0.40705c0.25346,-0.06511 0.49772,-0.1342 0.74601,-0.20149c0.48092,-0.1299 0.96132,-0.25983 1.49589,-0.40436c-0.28778,-0.07453 -0.48495,-0.12555 -0.62596,-0.16194c-1.4032,0.31268 -2.73333,0.60896 -4.0618,0.90491zM230.48572,72.09654c0.45869,0.19344 0.67471,0.21919 0.9672,0.15221c1.2602,-0.28943 2.52376,-0.53856 3.65075,-0.88774c0.01547,-0.0048 -0.28273,-0.11928 -0.32175,-0.12616c-0.2086,-0.03721 -0.25621,-0.01398 -0.45836,0.03774c-0.43196,0.11053 -0.86249,0.21802 -1.32199,0.31537c-0.81483,0.17267 -1.64943,0.33428 -2.51585,0.50859z" fill="#30419a"/></g><path d="M248.4649,77.4326c0.04878,0.07881 -0.01745,0.27365 -0.01745,0.27365l-1.04426,0.9395l-1.10882,0.95168l-0.51954,0.26548l-0.70786,-0.04107l-0.42253,-0.39228l-0.2555,-0.82754l0.13921,-0.77914l0.45185,-0.40586l0.9431,-0.12162l2.30322,0.04218l0.30451,0.11799" fill="#f7ec1e" stroke="#30419a" stroke-linecap="butt"/><g stroke="#30419a"><path d="M226.26134,71.93841c0.06994,-0.13302 0.52789,-0.56754 0.29539,-0.94898c-0.17609,-0.28889 -0.75084,-0.40595 -1.13861,-0.56346c-0.27842,-0.1131 -0.15538,-0.50466 -0.09277,-0.5402c0.24289,-0.13788 0.97786,-0.15901 1.14213,-0.07265c0.32579,0.17128 1.0156,0.846 1.05862,1.11406c0.02174,0.13549 -0.14458,1.30668 -0.22541,1.39637c-0.13815,0.15331 -0.39764,0.5024 -0.75905,0.64262c-0.31007,0.12031 -0.90877,0.13361 -1.30539,-0.0749c-0.24393,-0.12824 -0.42732,-0.33517 -0.56876,-0.54653c-0.12783,-0.19103 -0.02589,-0.43383 0.30414,-0.4243c0.42779,0.01236 1.14647,0.29044 1.28972,0.01797z" fill="#ef463c" stroke-linecap="butt"/><path d="M237.50556,75.18477c0,0 0.29053,0.25927 0.10624,0.71667c-0.16972,0.42123 -0.56107,0.43386 -0.56107,0.43386l-3.09333,-1.36065l-3.26493,-1.16242l-1.41992,-0.6386l-0.39394,-0.0598l-2.09407,-0.83705c0,0 -0.21909,-0.30159 -0.03401,-0.70711c0.15253,-0.33419 0.48884,-0.44341 0.48884,-0.44341l4.20442,1.61173l3.05205,1.06694z" fill="#afd7f2" stroke-linecap="butt"/><path d="M236.09336,75.80763c0,0 -0.12917,-0.4453 -0.04898,-0.62018c0.06667,-0.1454 0.49708,-0.35708 0.49708,-0.35708" fill="none" stroke-linecap="round"/><path d="M234.64968,75.22818c0,0 -0.06086,-0.46908 0.05157,-0.62752c0.10988,-0.15484 0.61556,-0.31257 0.61556,-0.31257" fill="none" stroke-linecap="round"/><path d="M233.51441,74.76212c0,0 -0.15517,-0.48142 -0.04333,-0.64328c0.10539,-0.15252 0.69617,-0.30151 0.69617,-0.30151" fill="none" stroke-linecap="round"/><path d="M232.17167,74.32026c0,0 -0.12407,-0.52691 -0.00334,-0.70451c0.10374,-0.15261 0.6845,-0.2975 0.6845,-0.2975" fill="none" stroke-linecap="round"/><path d="M230.9661,73.78788c0,0 -0.13782,-0.36582 0.00008,-0.64126c0.07681,-0.15341 0.62432,-0.27486 0.62432,-0.27486" fill="none" stroke-linecap="round"/><path d="M229.56879,73.35052c0,0 -0.05824,-0.30654 0.0281,-0.59756c0.09165,-0.30891 0.5391,-0.34688 0.5391,-0.34688" fill="none" stroke-linecap="round"/><path d="M228.39166,72.78948c0,0 -0.0402,-0.29486 0.10496,-0.53793c0.15091,-0.2527 0.49113,-0.32098 0.49113,-0.32098" fill="none" stroke-linecap="round"/></g><path d="M222.21442,81.70397c-0.0247,-0.88316 -0.02992,-1.36733 -0.02992,-1.36733c0,0 8.08499,-2.38442 16.1734,-4.76786c7.89154,-2.32543 15.78633,-4.64992 16.17869,-4.75805c0.11816,-0.03257 -0.00068,1.61054 -0.10638,1.64041c-1.09129,0.30841 -31.25981,9.54332 -31.84998,9.70725c-0.18606,0.05168 -0.3585,-0.1931 -0.36581,-0.45441z" fill="#afd7f2" stroke="#30419a" stroke-linecap="butt"/><path d="M220.26147,79.29087c0.49645,0.23363 1.97819,0.89133 1.97819,0.89133c0,0 0.02084,0.75675 0.05715,1.598c0.0104,0.2409 0.13103,0.44215 -0.08579,0.34277c-0.40156,-0.18405 -1.68238,-0.66829 -1.95401,-0.83308c-0.0828,-0.05023 -0.19766,-2.09413 0.00445,-1.99902z" fill="#afd7f2" stroke="#30419a" stroke-linecap="butt"/><path d="M222.27936,80.21176c-0.61464,-0.29828 -1.79368,-0.72981 -2.15644,-0.90586c-0.08303,-0.0403 33.27607,-9.29641 33.35058,-9.28924c0.21216,0.02042 1.29841,0.74104 1.22573,0.76151c-0.90527,0.25501 -32.23416,9.52371 -32.41987,9.43359z" fill="#afd7f2" stroke="#30419a" stroke-linecap="butt"/><g stroke="#30419a"><path d="M238.91803,77.17123c0,0 -0.28948,-0.26044 -0.10334,-0.71709c0.17142,-0.42054 0.56282,-0.43159 0.56282,-0.43159l3.08782,1.37312l3.26022,1.17557l1.41733,0.64433l0.3937,0.06139l2.09068,0.84549c0,0 0.21787,0.30247 0.03115,0.70724c-0.15387,0.33357 -0.49062,0.44144 -0.49062,0.44144l-4.19788,-1.62867l-3.04772,-1.07924z" fill="#afd7f2" stroke-linecap="butt"/><path d="M239.83312,77.52863c0,0 -0.1109,-0.48195 -0.04364,-0.62708c0.08089,-0.17456 0.49568,-0.34837 0.49568,-0.34837" fill="none" stroke-linecap="round"/><path d="M241.05601,78.05205c0,0 -0.01116,-0.47482 0.09934,-0.62921c0.11308,-0.15799 0.57158,-0.30818 0.57158,-0.30818" fill="none" stroke-linecap="round"/><path d="M242.22656,78.57546c0,0 0.00299,-0.49088 0.10899,-0.64297c0.11249,-0.1614 0.54766,-0.29917 0.54766,-0.29917" fill="none" stroke-linecap="round"/><path d="M243.53985,79.03226c0,0 0.01539,-0.41501 0.11975,-0.56719c0.12144,-0.1771 0.56545,-0.43205 0.56545,-0.43205" fill="none" stroke-linecap="round"/><path d="M244.8246,79.46051c0,0 -0.08886,-0.41684 -0.01144,-0.56994c0.13902,-0.27488 0.63954,-0.34366 0.63954,-0.34366" fill="none" stroke-linecap="round"/><path d="M246.2521,80.00296c0,0 -0.07123,-0.28394 0.02166,-0.59247c0.08752,-0.29067 0.54933,-0.34967 0.54933,-0.34967" fill="none" stroke-linecap="round"/><path d="M247.42265,80.45976c0,0 0.01151,-0.2873 0.16344,-0.53938c0.14614,-0.24248 0.43611,-0.31711 0.43611,-0.31711" fill="none" stroke-linecap="round"/><path d="M249.92138,80.4276c-0.03423,0.14634 -0.36818,0.68207 -0.04722,0.99277c0.24309,0.23532 0.82881,0.20405 1.24373,0.25897c0.29792,0.03943 0.27732,0.44936 0.22566,0.4995c-0.2004,0.19454 -0.90643,0.39984 -1.08714,0.35758c-0.3584,-0.08383 -1.19573,-0.56337 -1.30478,-0.81199c-0.05512,-0.12567 -0.18872,-1.30104 -0.13305,-1.40818c0.09515,-0.18312 0.25849,-0.58625 0.57302,-0.81287c0.26984,-0.19443 0.84596,-0.35789 1.28226,-0.25584c0.26834,0.06277 0.49789,0.21692 0.68794,0.38592c0.17177,0.15274 0.13417,0.41337 -0.18764,0.48715c-0.41714,0.09563 -1.18267,0.00725 -1.25278,0.307z" fill="#ef463c" stroke-linecap="butt"/></g><path d="M232.15503,72.28924c0.01173,0.40103 -0.5408,0.87363 -0.99158,0.87363c-0.53216,0 -1.06925,-0.65779 -1.02066,-0.97783c0.05698,-0.37531 0.4885,-0.80654 1.02066,-0.80654c0.53216,0 0.98202,0.5839 0.99158,0.91074z" fill="#f7ec1e" stroke="#30419a" stroke-linecap="butt"/><path d="M240.41531,79.90714c-0.04074,-0.08977 0.05563,-0.28627 0.05563,-0.28627l1.22927,-0.84892l1.29902,-0.85299l0.58412,-0.20935l0.74105,0.13961l0.39232,0.47125l0.15693,0.90763l-0.25283,0.80289l-0.53182,0.36663h-1.01132l-2.42367,-0.35779l-0.30514,-0.16588" fill="#f7ec1e" stroke="#30419a" stroke-linecap="butt"/><g stroke="none" stroke-linecap="butt"><path d="M227.30087,72.37321c0,0 5.79717,2.10755 5.72225,2.12262c-0.07525,0.01514 -3.96085,1.11304 -3.96085,1.11304l-6.44231,-2.20191z" fill="#ef463c"/><path d="M232.70428,75.11907c-0.28453,0.06768 -0.57237,0.1564 -0.86653,0.23093c-0.55361,0.14007 -1.13855,0.2788 -1.73891,0.39804c-0.30934,0.06146 -0.62417,0.13986 -0.94629,0.19607c-0.45248,0.07921 -0.70261,0.02088 -1.02476,-0.08311c-0.94324,-0.30434 -1.79391,-0.65023 -2.73762,-0.95433c-0.56575,-0.18234 -1.15407,-0.3421 -1.69881,-0.53173c-0.23456,-0.08158 -1.024,-0.34597 -1.1009,-0.38911c-0.1916,-0.10748 -0.17492,-0.67638 -0.06962,-0.76093c0.13987,-0.1123 3.82889,-0.88274 4.35367,-0.94155c0.53094,-0.0595 1.00279,0.12861 1.10671,0.16236c0.75491,0.24525 1.53389,0.48213 2.26413,0.73541c0.77205,0.26819 1.4857,0.55551 2.25129,0.82592c0.33763,0.11928 0.72372,0.22483 1.11718,0.32275c0.31002,0.07696 0.32144,0.48444 0.14381,0.55148c-0.33138,0.12482 -0.6781,0.14865 -1.05336,0.2378zM226.27908,74.57074c0.17479,-0.04652 0.31877,-0.09804 0.49328,-0.12901c1.21898,-0.21516 2.20578,-0.53613 3.26368,-0.82414c0.06384,-0.01729 0.11247,-0.07986 0.07497,-0.09487c-0.22766,-0.09215 -0.48231,-0.17657 -0.72802,-0.26386c-1.40885,0.3267 -2.77052,0.64253 -4.18383,0.97028c0.39893,0.12629 0.73176,0.23149 1.07991,0.3416zM227.58327,72.6496c-0.06493,-0.02376 -0.15399,-0.04897 -0.25783,-0.07749c-0.36983,-0.10191 -0.54498,-0.07389 -0.93818,0.02071c-0.5788,0.1393 -1.17937,0.26795 -1.75605,0.40821c-0.57188,0.13914 -1.12596,0.28667 -1.70737,0.43555c0.12305,0.04414 0.18882,0.06375 0.24113,0.08698c0.25412,0.11322 0.52176,0.16541 0.90685,0.0551c0.19461,-0.05603 0.43759,-0.0934 0.66478,-0.13543c0.48895,-0.09054 0.9541,-0.18826 1.35237,-0.31549c0.38214,-0.1223 0.86947,-0.17952 1.30144,-0.27717c0.36656,-0.0828 0.36804,-0.1368 0.19285,-0.20099zM228.12436,75.13293c-0.02875,0.02604 -0.02984,0.05142 0.00597,0.07552c0.11193,0.07615 0.39521,0.17721 0.58559,0.2161c0.50948,-0.08961 0.92362,-0.22141 1.38504,-0.33388c0.65103,-0.15875 1.30809,-0.31456 1.96634,-0.4697c0.72007,-0.16972 0.72323,-0.2032 -0.03302,-0.38097c-0.11629,-0.0274 -1.79962,0.40439 -1.99746,0.4488c-0.29888,0.06719 -1.72199,0.27139 -1.91246,0.44413zM226.83461,74.71324c0.13228,0.06822 0.24971,0.14572 0.41621,0.20828c0.09329,0.03509 0.3303,0.07671 0.39532,0.06164c0.55889,-0.12855 1.09548,-0.26857 1.63432,-0.40705c0.25346,-0.06511 0.49772,-0.13419 0.74601,-0.20148c0.48092,-0.1299 0.96132,-0.25984 1.49589,-0.40436c-0.28778,-0.07453 -0.48495,-0.12555 -0.62596,-0.16194c-1.4032,0.31268 -2.73332,0.60896 -4.06179,0.90491zM224.10957,73.83332c0.45869,0.19344 0.67471,0.21919 0.9672,0.15221c1.2602,-0.28943 2.52376,-0.53857 3.65075,-0.88774c0.01547,-0.0048 -0.28273,-0.11928 -0.32175,-0.12616c-0.2086,-0.03721 -0.25621,-0.01398 -0.45836,0.03774c-0.43196,0.11053 -0.86249,0.21802 -1.32199,0.31537c-0.81483,0.17267 -1.64943,0.33428 -2.51585,0.50858z" fill="#30419a"/></g><path d="M236.78094,76.16818c0.26837,-0.02341 0.46037,0.08879 0.59969,0.30334c0.13647,0.21013 0.30948,0.42539 0.17501,0.69091c-0.07666,0.15103 -0.19414,0.29692 -0.32775,0.40027c-0.31433,0.24353 -0.68077,0.3877 -1.06548,0.48949c-0.21969,0.05824 -0.43082,0.10649 -0.66636,0.0818c-0.24653,-0.02555 -0.41184,-0.14375 -0.51604,-0.34117c-0.14461,-0.27365 -0.22483,-0.56629 -0.09578,-0.87563c0.0708,-0.16944 0.17258,-0.29192 0.36687,-0.34231c0.23896,-0.0621 0.46551,-0.17216 0.70418,-0.23554c0.27108,-0.07194 0.55002,-0.11534 0.82567,-0.17115zM236.42192,77.68132c-0.30477,-0.40898 -0.17073,-0.77013 -0.00671,-1.13257c-0.03041,-0.01213 -0.0521,-0.02998 -0.06724,-0.02555c-0.28878,0.08465 -0.57657,0.17216 -0.86478,0.25852c-0.30363,0.09107 -0.37243,0.30135 -0.31519,0.65808c0.03226,0.20113 0.33575,0.42397 0.54017,0.39156c0.22512,-0.03583 0.4468,-0.09293 0.71375,-0.15003z" fill="#30419a" stroke="none" stroke-linecap="butt"/><path d="M242.19487,76.06069c-0.27779,0.00057 -0.47407,-0.17059 -0.53988,-0.45137c-0.04782,-0.20328 -0.0768,-0.38813 0.00685,-0.58927c0.12505,-0.30049 0.35145,-0.50333 0.63709,-0.61297c0.24767,-0.09493 0.52046,-0.13019 0.78512,-0.17273c0.25153,-0.04068 0.57514,0.21298 0.66036,0.47721c0.09536,0.29521 0.06609,0.57799 -0.12434,0.8121c-0.10906,0.13404 -0.28179,0.22183 -0.43724,0.31034c-0.12333,0.07009 -0.26023,0.12933 -0.39827,0.15817c-0.193,0.04011 -0.39299,0.04725 -0.5897,0.06852zM242.82354,74.58779c-0.01271,-0.00871 -0.02541,-0.01756 -0.03797,-0.02626c-0.10935,0.03683 -0.21941,0.07166 -0.32775,0.11077c-0.3219,0.11563 -0.52675,0.33318 -0.58841,0.67663c-0.0364,0.20399 0.14004,0.4538 0.3406,0.4351c0.23111,-0.02156 0.45808,-0.08808 0.71931,-0.1419c-0.25795,-0.35473 -0.3062,-0.69448 -0.10578,-1.05435z" fill="#30419a" stroke="none" stroke-linecap="butt"/><g data-paper-data="{&quot;index&quot;:null}" stroke="none" stroke-linecap="butt"><g><g><path d="M223.63123,78.74264l0.15462,-9.68755c0,0 3.74391,-0.82336 3.80564,-0.84532c0.06146,-0.02186 0.26731,0.46681 0.26731,0.46681l-0.25076,8.86552z" fill="#fcf6b6"/><path d="M226.50917,67.28358c0.32816,-0.08498 0.54422,-0.2686 0.90262,-0.26087c0.19231,0.00437 0.79294,0.74344 0.74604,1.08407c-0.05916,0.43274 -0.10312,0.87436 -0.1014,1.30899c0.00381,0.98544 0.05982,1.96731 0.05695,2.95299c-0.00329,0.9316 -0.05637,1.86557 -0.08446,2.79887c-0.02058,0.68053 -0.02529,1.36005 -0.05895,2.04095c-0.0301,0.604 -0.21019,0.63346 -0.67648,0.79326c-0.20894,0.07147 -0.41573,0.12112 -0.62524,0.19565c-0.52779,0.18738 -1.04805,0.37138 -1.57498,0.54383c-0.24824,0.08117 -1.62486,0.73281 -1.74891,0.41019c-0.07398,-0.19309 -0.56882,-0.76505 -0.56335,-0.99104c0.01031,-0.41216 0.02491,-1.20471 0.02745,-1.61624c0.00415,-0.73426 0.11252,-1.3047 0.1143,-2.03918c0.00142,-0.69619 0.07001,-1.3672 0.09324,-2.06401c0.03883,-1.16223 -0.03303,-2.33875 0.00518,-3.50111c0.01299,-0.39705 0.05642,-0.66514 0.41,-0.81838c0.25144,-0.10942 0.53213,-0.17424 0.78473,-0.26588c0.49019,-0.17793 1.00135,-0.31081 1.4982,-0.42083c0.26414,-0.05828 0.54614,-0.08693 0.79507,-0.15122zM223.9251,73.78223c1.22398,-0.33442 2.40333,-0.65653 3.62342,-0.98993c-0.00196,-0.31717 0.00499,-0.63502 -0.01362,-0.94914c-0.00282,-0.05144 -0.12129,-0.13203 -0.18028,-0.12139c-0.97972,0.17368 -1.97147,0.24177 -2.92664,0.65146c-0.13698,0.05836 -0.28867,0.05987 -0.44895,0.09048c-0.01742,0.42504 -0.03415,0.83127 -0.05393,1.31851zM227.51813,75.06141c-0.00431,-0.22965 -0.08547,-0.32565 -0.39964,-0.23494c-0.37034,0.10676 -0.70933,0.32224 -1.09041,0.3522c-0.39683,0.03163 -0.78456,0.15992 -1.174,0.31664c-0.18089,0.0729 -0.36307,0.16446 -0.54783,0.19095c-0.36477,0.0534 -0.42647,0.32188 -0.39029,0.6911c0.00735,0.07587 0.00228,0.15403 0.0039,0.31363c0.52444,-0.11234 1.03263,-0.20927 1.53761,-0.33289c0.50914,-0.12474 1.01344,-0.28593 1.52226,-0.41377c0.34561,-0.0869 0.47855,-0.15096 0.51946,-0.57543c0.01164,-0.11902 0.02049,-0.22242 0.01894,-0.30749zM225.76039,69.79795c0.16914,-0.04946 1.68863,-0.37341 1.70842,-0.49853c0.12923,-0.81301 0.07776,-0.87105 -0.54992,-0.70557c-0.57377,0.15129 -1.14793,0.30059 -1.72331,0.44069c-0.40774,0.09938 -0.81964,0.13315 -1.21838,0.30496c-0.04127,0.19413 -0.03837,0.56056 0.01669,0.77037c0.01722,0.06666 0.05558,0.11152 0.10932,0.13949c0.35634,0.18576 1.40151,-0.37687 1.65719,-0.45141zM224.05623,71.8451c1.13246,-0.33611 2.26628,-0.67271 3.46255,-1.0276c0.01927,-0.15741 0.04601,-0.37777 0.08495,-0.6995c-0.49356,0.08959 -0.9372,0.16997 -1.38104,0.25079c-0.22949,0.04132 -0.45955,0.07678 -0.68848,0.12539c-0.48678,0.10323 -0.97469,0.20221 -1.45713,0.33636c-0.0563,0.01539 -0.11778,0.2449 -0.11413,0.36882c0.00642,0.22105 0.06062,0.43687 0.09328,0.64573zM227.40481,76.30543c-1.06816,0.4563 -2.21141,0.67674 -3.30761,0.97284c-0.04832,0.01291 -0.11942,0.09564 -0.12417,0.15013c-0.02633,0.31297 -0.03585,0.62673 -0.0547,1.01482c0.93799,-0.33365 1.79557,-0.63478 2.65112,-0.94624c0.19039,-0.06915 0.36899,-0.20118 0.56017,-0.25741c0.16142,-0.04708 0.22411,-0.1443 0.26186,-0.33254c0.00495,-0.02531 0.00584,-0.11874 0.00614,-0.22409c0.00002,-0.17054 -0.00223,-0.37345 0.0072,-0.37752zM223.94682,75.2044c0.71073,-0.25282 1.38598,-0.50764 2.0674,-0.72969c0.38424,-0.12526 0.76847,-0.21341 1.15798,-0.29703c0.18227,-0.03915 0.24165,-0.02852 0.2949,-0.23155c0.01008,-0.03784 -0.00503,-0.4381 -0.02023,-0.43662c-1.10675,0.10898 -2.13571,0.48677 -3.2229,0.79002c-0.25204,0.07074 -0.32622,0.25803 -0.27716,0.90487z" fill="#30419a"/></g><g><path d="M223.86783,68.91779l0.15462,-9.68756c0,0 3.74391,-0.82336 3.80564,-0.84532c0.06146,-0.02186 0.26731,0.46681 0.26731,0.46681l-0.25076,8.86553z" fill="#fcf6b6"/><path d="M228.36587,58.36757c-0.05916,0.43274 -0.04602,0.73161 -0.0443,1.16624c0.00381,0.98544 0.05982,1.96731 0.05696,2.95299c-0.00329,0.9316 -0.05637,1.86558 -0.08446,2.79887c-0.02058,0.68053 -0.02529,1.36005 -0.05896,2.04095c-0.03011,0.604 -0.21019,0.63346 -0.67648,0.79325c-0.20893,0.07146 -0.41574,0.12112 -0.62524,0.19564c-0.52779,0.18738 -1.04805,0.37138 -1.57498,0.54383c-0.24824,0.08117 -1.62486,0.73282 -1.74891,0.41019c-0.07398,-0.19309 -0.56883,-0.76505 -0.56335,-0.99104c0.01031,-0.41216 0.02491,-1.2047 0.02745,-1.61624c0.00415,-0.73426 0.11253,-1.3047 0.1143,-2.03918c0.00142,-0.69619 0.07001,-1.3672 0.09323,-2.06401c0.03883,-1.16223 0.08117,-1.8534 0.11938,-3.01576c0.00248,-0.07574 0.03143,-0.41817 0.35565,-0.4992c0.84856,-0.21208 3.09062,-0.81591 4.13045,-0.86761c0.40414,-0.02009 0.48987,0.11394 0.47925,0.19109zM224.21563,62.63887c-0.01742,0.42503 -0.03415,0.83127 -0.05393,1.3185c1.22398,-0.33442 2.40333,-0.65653 3.62342,-0.98992c-0.00196,-0.31717 0.00499,-0.63502 -0.01362,-0.94914c-0.00282,-0.05144 -0.12129,-0.13203 -0.18028,-0.12139c-0.97972,0.17368 -1.97147,0.24176 -2.92664,0.65145c-0.13698,0.05836 -0.28867,0.05988 -0.44895,0.09049zM227.75473,65.23656c-0.00431,-0.22965 -0.08548,-0.32564 -0.39964,-0.23494c-0.37034,0.10676 -0.70933,0.32224 -1.09041,0.3522c-0.39683,0.03163 -0.78456,0.15992 -1.17399,0.31664c-0.18089,0.0729 -0.36307,0.16446 -0.54784,0.19095c-0.36477,0.05341 -0.42647,0.32187 -0.39028,0.69109c0.00735,0.07587 0.00228,0.15403 0.0039,0.31363c0.52444,-0.11234 1.03263,-0.20927 1.53761,-0.33288c0.50914,-0.12474 1.01344,-0.28593 1.52227,-0.41377c0.34561,-0.0869 0.47855,-0.15096 0.51946,-0.57543c0.01164,-0.11902 0.02049,-0.22242 0.01894,-0.30749zM224.33981,60.42452c0.35634,0.18576 1.40151,-0.37687 1.65719,-0.45141c0.16914,-0.04946 1.68863,-0.37341 1.70842,-0.49854c0.12923,-0.81301 0.07776,-0.87104 -0.54992,-0.70556c-0.57377,0.15129 -1.14793,0.30058 -1.72331,0.44068c-0.40774,0.09938 -0.81965,0.13315 -1.21839,0.30496c-0.04127,0.19413 -0.03836,0.56057 0.0167,0.77038c0.01722,0.06666 0.05558,0.11152 0.10932,0.1395zM224.29284,62.02026c1.13246,-0.33611 2.26627,-0.67271 3.46255,-1.0276c0.01927,-0.15741 0.04601,-0.37777 0.08495,-0.6995c-0.49356,0.08959 -0.93719,0.16997 -1.38104,0.25079c-0.22949,0.04132 -0.45955,0.07677 -0.68848,0.12538c-0.48678,0.10322 -0.97468,0.20222 -1.45713,0.33637c-0.0563,0.01539 -0.11779,0.24489 -0.11413,0.36881c0.00642,0.22105 0.06062,0.43688 0.09328,0.64574zM227.64141,66.48058c-1.06816,0.4563 -2.21141,0.67674 -3.30761,0.97284c-0.04832,0.01291 -0.11941,0.09563 -0.12417,0.15012c-0.02633,0.31297 -0.03585,0.62674 -0.0547,1.01482c0.93798,-0.33365 1.79556,-0.63478 2.65111,-0.94624c0.19039,-0.06915 0.36899,-0.20118 0.56018,-0.25741c0.16142,-0.04707 0.22411,-0.14429 0.26186,-0.33253c0.00495,-0.02531 0.00584,-0.11874 0.00614,-0.22409c0.00002,-0.17054 -0.00224,-0.37345 0.00719,-0.37752zM224.18343,65.37955c0.71073,-0.25281 1.38598,-0.50764 2.0674,-0.72969c0.38423,-0.12526 0.76847,-0.21342 1.15798,-0.29703c0.18228,-0.03915 0.24165,-0.02852 0.2949,-0.23155c0.01008,-0.03784 -0.00503,-0.4381 -0.02023,-0.43662c-1.10675,0.10899 -2.13571,0.48677 -3.2229,0.79002c-0.25204,0.07074 -0.32623,0.25804 -0.27716,0.90487z" fill="#30419a"/></g></g><g><g><path d="M217.8867,80.2388l0.15462,-9.68756c0,0 3.7439,-0.82336 3.80564,-0.84532c0.06146,-0.02186 0.26731,0.46681 0.26731,0.46681l-0.25076,8.86553z" fill="#fcf6b6"/><path d="M220.76464,68.77975c0.32816,-0.08498 0.54422,-0.2686 0.90262,-0.26087c0.19231,0.00437 0.79294,0.74344 0.74603,1.08407c-0.05916,0.43274 -0.10312,0.87436 -0.1014,1.30899c0.00381,0.98544 0.05982,1.96731 0.05696,2.95298c-0.00329,0.9316 -0.05637,1.86558 -0.08446,2.79887c-0.02058,0.68053 -0.02529,1.36005 -0.05895,2.04095c-0.0301,0.604 -0.21019,0.63346 -0.67648,0.79325c-0.20894,0.07147 -0.41574,0.12112 -0.62524,0.19565c-0.52779,0.18738 -1.04805,0.37137 -1.57498,0.54383c-0.24824,0.08117 -1.62486,0.73282 -1.7489,0.41019c-0.07398,-0.19309 -0.56883,-0.76505 -0.56335,-0.99104c0.01031,-0.41216 0.02491,-1.20471 0.02745,-1.61625c0.00415,-0.73426 0.11253,-1.3047 0.1143,-2.03918c0.00142,-0.69619 0.07001,-1.3672 0.09323,-2.06401c0.03883,-1.16223 -0.03303,-2.33875 0.00518,-3.50111c0.01299,-0.39705 0.05642,-0.66513 0.41001,-0.81838c0.25144,-0.10942 0.53212,-0.17424 0.78473,-0.26588c0.49019,-0.17793 1.00135,-0.31081 1.49819,-0.42083c0.26414,-0.05828 0.54614,-0.08693 0.79507,-0.15122zM218.18056,75.27839c1.22398,-0.33442 2.40333,-0.65653 3.62342,-0.98992c-0.00196,-0.31717 0.00499,-0.63503 -0.01362,-0.94914c-0.00282,-0.05144 -0.12129,-0.13203 -0.18028,-0.12139c-0.97972,0.17368 -1.97147,0.24177 -2.92664,0.65145c-0.13698,0.05836 -0.28867,0.05987 -0.44895,0.09049c-0.01742,0.42504 -0.03415,0.83127 -0.05393,1.31851zM221.7736,76.55758c-0.00431,-0.22965 -0.08548,-0.32565 -0.39964,-0.23494c-0.37034,0.10676 -0.70933,0.32224 -1.09041,0.3522c-0.39683,0.03163 -0.78455,0.15992 -1.17399,0.31664c-0.18089,0.0729 -0.36307,0.16446 -0.54784,0.19094c-0.36477,0.0534 -0.42647,0.32188 -0.39029,0.6911c0.00735,0.07587 0.00228,0.15402 0.0039,0.31363c0.52444,-0.11234 1.03263,-0.20927 1.53761,-0.33289c0.50914,-0.12474 1.01344,-0.28593 1.52226,-0.41377c0.34561,-0.0869 0.47855,-0.15096 0.51946,-0.57543c0.01164,-0.11902 0.02049,-0.22242 0.01894,-0.30748zM220.01587,71.29412c0.16914,-0.04946 1.68863,-0.37341 1.70841,-0.49854c0.12923,-0.81301 0.07776,-0.87105 -0.54992,-0.70557c-0.57377,0.15129 -1.14793,0.30059 -1.72331,0.44069c-0.40774,0.09938 -0.81964,0.13315 -1.21838,0.30496c-0.04127,0.19413 -0.03837,0.56056 0.01669,0.77037c0.01722,0.06666 0.05558,0.11151 0.10932,0.13949c0.35634,0.18576 1.40151,-0.37687 1.65719,-0.45141zM218.3117,73.34127c1.13246,-0.33611 2.26628,-0.67271 3.46255,-1.0276c0.01927,-0.15741 0.04601,-0.37777 0.08495,-0.6995c-0.49356,0.08959 -0.93719,0.16998 -1.38104,0.25079c-0.22949,0.04132 -0.45955,0.07677 -0.68848,0.12538c-0.48678,0.10323 -0.97469,0.20222 -1.45713,0.33637c-0.0563,0.01539 -0.11778,0.24489 -0.11413,0.36882c0.00642,0.22105 0.06061,0.43687 0.09327,0.64574zM221.66027,77.8016c-1.06816,0.4563 -2.21141,0.67674 -3.30761,0.97284c-0.04832,0.01291 -0.11942,0.09564 -0.12417,0.15013c-0.02633,0.31297 -0.03585,0.62674 -0.0547,1.01482c0.93799,-0.33365 1.79557,-0.63478 2.65112,-0.94624c0.19039,-0.06915 0.36899,-0.20118 0.56017,-0.25741c0.16142,-0.04708 0.22412,-0.1443 0.26186,-0.33254c0.00495,-0.02531 0.00584,-0.11873 0.00614,-0.22408c0.00002,-0.17054 -0.00224,-0.37345 0.00719,-0.37752zM218.20229,76.70057c0.71073,-0.25282 1.38598,-0.50764 2.06741,-0.72969c0.38424,-0.12526 0.76847,-0.21341 1.15798,-0.29703c0.18227,-0.03915 0.24165,-0.02852 0.2949,-0.23155c0.01008,-0.03784 -0.00503,-0.4381 -0.02023,-0.43662c-1.10675,0.10898 -2.13571,0.48677 -3.2229,0.79002c-0.25204,0.07074 -0.32622,0.25803 -0.27716,0.90486z" fill="#30419a"/></g><g><path d="M218.1233,70.41396l0.15462,-9.68756c0,0 3.7439,-0.82336 3.80564,-0.84532c0.06146,-0.02186 0.26731,0.46681 0.26731,0.46681l-0.25076,8.86553z" fill="#fcf6b6"/><path d="M222.59279,59.77809c-0.05916,0.43274 -0.10312,0.87436 -0.1014,1.30899c0.00381,0.98544 0.05982,1.96731 0.05696,2.95299c-0.00329,0.9316 -0.05637,1.86558 -0.08446,2.79887c-0.02058,0.68053 -0.02529,1.36005 -0.05895,2.04095c-0.03011,0.604 -0.21019,0.63346 -0.67648,0.79325c-0.20893,0.07146 -0.41573,0.12112 -0.62524,0.19565c-0.52779,0.18738 -1.04805,0.37138 -1.57498,0.54383c-0.24824,0.08117 -1.62486,0.73282 -1.74891,0.41019c-0.07398,-0.19309 -0.56883,-0.76505 -0.56335,-0.99104c0.01031,-0.41216 0.02491,-1.20471 0.02745,-1.61624c0.00415,-0.73426 0.11253,-1.3047 0.1143,-2.03919c0.00142,-0.69619 0.07001,-1.3672 0.09323,-2.06401c0.03883,-1.16223 -0.03303,-2.33875 0.00518,-3.50111c0.01299,-0.39706 0.14207,-0.35109 0.49565,-0.50433c0.13889,-0.06044 3.73608,-1.01656 4.11967,-0.94579c0.51317,0.09468 0.53457,0.52081 0.52132,0.61698zM218.4711,64.13504c-0.01742,0.42503 -0.03415,0.83127 -0.05393,1.31851c1.22398,-0.33442 2.40333,-0.65653 3.62342,-0.98993c-0.00196,-0.31717 0.005,-0.63502 -0.01361,-0.94914c-0.00282,-0.05144 -0.12129,-0.13203 -0.18028,-0.12139c-0.97972,0.17369 -1.97147,0.24176 -2.92664,0.65145c-0.13698,0.05836 -0.28868,0.05988 -0.44896,0.09049zM222.0102,66.73273c-0.00431,-0.22965 -0.08548,-0.32565 -0.39964,-0.23494c-0.37034,0.10676 -0.70933,0.32224 -1.09041,0.3522c-0.39683,0.03163 -0.78456,0.15992 -1.17399,0.31664c-0.18089,0.0729 -0.36307,0.16446 -0.54783,0.19095c-0.36477,0.05341 -0.42647,0.32187 -0.39029,0.69109c0.00735,0.07587 0.00228,0.15403 0.0039,0.31364c0.52444,-0.11234 1.03263,-0.20927 1.53761,-0.33289c0.50914,-0.12474 1.01344,-0.28593 1.52226,-0.41377c0.34561,-0.0869 0.47855,-0.15096 0.51946,-0.57543c0.01164,-0.11902 0.02049,-0.22242 0.01894,-0.30749zM220.25247,61.46927c0.16914,-0.04946 1.68863,-0.37341 1.70842,-0.49853c0.12923,-0.81301 0.07776,-0.87105 -0.54991,-0.70557c-0.57377,0.15129 -1.14793,0.30059 -1.72332,0.44068c-0.40774,0.09938 -0.81964,0.13315 -1.21838,0.30496c-0.04127,0.19413 -0.03836,0.56057 0.0167,0.77038c0.01722,0.06666 0.05558,0.11152 0.10932,0.13949c0.35634,0.18576 1.40151,-0.37687 1.65719,-0.45141zM218.5483,63.51643c1.13246,-0.33611 2.26628,-0.67271 3.46255,-1.0276c0.01927,-0.15741 0.04601,-0.37777 0.08495,-0.6995c-0.49356,0.08959 -0.9372,0.16997 -1.38104,0.25079c-0.22949,0.04132 -0.45955,0.07678 -0.68848,0.12539c-0.48678,0.10323 -0.97469,0.20222 -1.45713,0.33637c-0.0563,0.01539 -0.11779,0.24489 -0.11413,0.36882c0.00642,0.22105 0.06062,0.43688 0.09328,0.64574zM221.89688,67.97675c-1.06816,0.4563 -2.21141,0.67674 -3.30761,0.97284c-0.04832,0.01291 -0.11942,0.09563 -0.12417,0.15012c-0.02633,0.31297 -0.03585,0.62674 -0.0547,1.01483c0.93798,-0.33365 1.79557,-0.63479 2.65112,-0.94625c0.19039,-0.06915 0.36899,-0.20118 0.56017,-0.25741c0.16142,-0.04707 0.22411,-0.14429 0.26186,-0.33253c0.00495,-0.02531 0.00584,-0.11874 0.00614,-0.22409c0.00002,-0.17054 -0.00224,-0.37344 0.00719,-0.37751zM218.4389,66.87572c0.71073,-0.25281 1.38598,-0.50764 2.06741,-0.72969c0.38423,-0.12526 0.76847,-0.21341 1.15798,-0.29703c0.18228,-0.03915 0.24165,-0.02852 0.2949,-0.23155c0.01008,-0.03784 -0.00503,-0.4381 -0.02023,-0.43662c-1.10675,0.10899 -2.13571,0.48677 -3.2229,0.79002c-0.25204,0.07074 -0.32622,0.25803 -0.27716,0.90487z" fill="#30419a"/></g></g></g><g data-paper-data="{&quot;index&quot;:null}" stroke="none" stroke-linecap="butt"><g><g><path d="M253.32317,70.32041l0.15462,-9.68756c0,0 3.74391,-0.82336 3.80564,-0.84532c0.06146,-0.02186 0.26731,0.46681 0.26731,0.46681l-0.25076,8.86552z" fill="#fcf6b6"/><path d="M256.2011,58.86135c0.32816,-0.08498 0.54422,-0.2686 0.90262,-0.26088c0.19231,0.00437 0.79294,0.74344 0.74603,1.08407c-0.05916,0.43274 -0.10312,0.87436 -0.1014,1.30899c0.00381,0.98544 0.05982,1.96731 0.05695,2.95299c-0.00329,0.9316 -0.05637,1.86557 -0.08446,2.79887c-0.02058,0.68053 -0.02529,1.36005 -0.05895,2.04095c-0.0301,0.604 -0.21019,0.63346 -0.67648,0.79326c-0.20894,0.07147 -0.41574,0.12112 -0.62524,0.19565c-0.52779,0.18738 -1.04805,0.37138 -1.57498,0.54383c-0.24824,0.08117 -1.62485,0.73281 -1.7489,0.41019c-0.07398,-0.19309 -0.56883,-0.76505 -0.56336,-0.99104c0.01031,-0.41216 0.02491,-1.20471 0.02745,-1.61624c0.00415,-0.73426 0.11253,-1.3047 0.1143,-2.03918c0.00142,-0.69619 0.07001,-1.3672 0.09324,-2.06401c0.03883,-1.16223 -0.03303,-2.33875 0.00518,-3.50111c0.01299,-0.39705 0.05642,-0.66514 0.41001,-0.81838c0.25144,-0.10942 0.53212,-0.17424 0.78473,-0.26588c0.49019,-0.17793 1.00135,-0.31082 1.4982,-0.42084c0.26414,-0.05828 0.54614,-0.08693 0.79507,-0.15122zM253.61704,65.35999c1.22398,-0.33442 2.40333,-0.65653 3.62342,-0.98993c-0.00196,-0.31717 0.005,-0.63502 -0.01361,-0.94914c-0.00282,-0.05144 -0.12129,-0.13203 -0.18028,-0.12139c-0.97972,0.17368 -1.97147,0.24177 -2.92664,0.65146c-0.13698,0.05836 -0.28867,0.05987 -0.44895,0.09048c-0.01742,0.42504 -0.03415,0.83127 -0.05393,1.31851zM257.21006,66.63918c-0.00431,-0.22965 -0.08548,-0.32565 -0.39964,-0.23494c-0.37034,0.10676 -0.70933,0.32224 -1.09041,0.3522c-0.39683,0.03163 -0.78455,0.15992 -1.17399,0.31664c-0.18089,0.0729 -0.36307,0.16446 -0.54784,0.19095c-0.36477,0.0534 -0.42647,0.32188 -0.39029,0.6911c0.00735,0.07587 0.00228,0.15403 0.0039,0.31363c0.52444,-0.11234 1.03263,-0.20927 1.53761,-0.33289c0.50914,-0.12474 1.01344,-0.28593 1.52227,-0.41377c0.34561,-0.0869 0.47855,-0.15096 0.51946,-0.57543c0.01164,-0.11902 0.02049,-0.22241 0.01894,-0.30748zM255.45232,61.37572c0.16914,-0.04946 1.68863,-0.37341 1.70841,-0.49853c0.12923,-0.81301 0.07776,-0.87105 -0.54992,-0.70557c-0.57377,0.15129 -1.14793,0.30059 -1.72331,0.44069c-0.40774,0.09938 -0.81964,0.13315 -1.21838,0.30496c-0.04127,0.19413 -0.03837,0.56056 0.01669,0.77037c0.01722,0.06666 0.05558,0.11152 0.10932,0.13949c0.35634,0.18576 1.40151,-0.37687 1.65719,-0.45141zM253.74817,63.42287c1.13246,-0.33611 2.26627,-0.67271 3.46255,-1.0276c0.01927,-0.15741 0.04601,-0.37777 0.08495,-0.6995c-0.49356,0.08959 -0.93719,0.16997 -1.38104,0.25079c-0.22949,0.04132 -0.45955,0.07678 -0.68848,0.12539c-0.48678,0.10323 -0.97469,0.20221 -1.45713,0.33636c-0.0563,0.01539 -0.11778,0.2449 -0.11413,0.36882c0.00642,0.22105 0.06062,0.43687 0.09328,0.64574zM257.09673,67.8832c-1.06816,0.4563 -2.21141,0.67674 -3.30761,0.97284c-0.04832,0.01291 -0.11941,0.09564 -0.12417,0.15013c-0.02633,0.31297 -0.03586,0.62674 -0.05471,1.01482c0.93799,-0.33365 1.79557,-0.63478 2.65112,-0.94624c0.19039,-0.06915 0.36899,-0.20118 0.56017,-0.25741c0.16142,-0.04708 0.22412,-0.1443 0.26186,-0.33254c0.00495,-0.02531 0.00584,-0.11874 0.00614,-0.22409c0.00002,-0.17054 -0.00224,-0.37345 0.00719,-0.37752zM253.63877,66.78216c0.71073,-0.25282 1.38598,-0.50764 2.06741,-0.72969c0.38424,-0.12526 0.76847,-0.21341 1.15798,-0.29703c0.18227,-0.03915 0.24166,-0.02852 0.29491,-0.23155c0.01008,-0.03784 -0.00503,-0.4381 -0.02023,-0.43662c-1.10675,0.10898 -2.13571,0.48677 -3.2229,0.79002c-0.25204,0.07074 -0.32622,0.25803 -0.27716,0.90487z" fill="#30419a"/></g><g><path d="M253.55978,60.49556l0.15462,-9.68756c0,0 3.7439,-0.82336 3.80564,-0.84532c0.06146,-0.02186 0.26731,0.46681 0.26731,0.46681l-0.25076,8.86553z" fill="#fcf6b6"/><path d="M258.0578,49.94534c-0.05916,0.43274 -0.04602,0.73161 -0.0443,1.16625c0.00381,0.98544 0.05982,1.9673 0.05696,2.95298c-0.00329,0.9316 -0.05637,1.86558 -0.08446,2.79887c-0.02058,0.68053 -0.02529,1.36005 -0.05895,2.04095c-0.03011,0.604 -0.21019,0.63346 -0.67648,0.79325c-0.20893,0.07146 -0.41574,0.12112 -0.62524,0.19564c-0.52779,0.18738 -1.04805,0.37138 -1.57498,0.54383c-0.24824,0.08117 -1.62486,0.73282 -1.74891,0.41019c-0.07398,-0.19309 -0.56882,-0.76505 -0.56335,-0.99104c0.01031,-0.41216 0.02491,-1.20471 0.02745,-1.61624c0.00415,-0.73426 0.11253,-1.3047 0.1143,-2.03918c0.00142,-0.69619 0.07001,-1.3672 0.09324,-2.06401c0.03883,-1.16223 0.08117,-1.8534 0.11938,-3.01576c0.00248,-0.07574 0.03143,-0.41817 0.35565,-0.4992c0.84856,-0.21208 3.09062,-0.81591 4.13044,-0.86761c0.40414,-0.02009 0.48987,0.11394 0.47925,0.19109zM253.90758,54.21664c-0.01742,0.42503 -0.03415,0.83127 -0.05393,1.3185c1.22398,-0.33442 2.40332,-0.65653 3.62341,-0.98992c-0.00196,-0.31717 0.005,-0.63502 -0.01361,-0.94914c-0.00282,-0.05144 -0.12129,-0.13203 -0.18028,-0.12139c-0.97972,0.17368 -1.97147,0.24176 -2.92664,0.65145c-0.13698,0.05836 -0.28868,0.05988 -0.44896,0.09049zM257.44668,56.81433c-0.00431,-0.22965 -0.08548,-0.32564 -0.39964,-0.23494c-0.37034,0.10676 -0.70933,0.32224 -1.09041,0.3522c-0.39683,0.03163 -0.78456,0.15992 -1.17399,0.31664c-0.18089,0.0729 -0.36307,0.16446 -0.54784,0.19095c-0.36477,0.05341 -0.42647,0.32188 -0.39028,0.6911c0.00735,0.07587 0.00228,0.15402 0.0039,0.31363c0.52444,-0.11234 1.03263,-0.20927 1.53761,-0.33288c0.50914,-0.12474 1.01344,-0.28593 1.52227,-0.41377c0.34561,-0.0869 0.47855,-0.15096 0.51946,-0.57543c0.01164,-0.11902 0.02049,-0.22242 0.01894,-0.30749zM254.03175,52.00228c0.35634,0.18576 1.40151,-0.37687 1.65719,-0.45141c0.16914,-0.04946 1.68863,-0.37341 1.70842,-0.49854c0.12923,-0.81301 0.07776,-0.87104 -0.54991,-0.70556c-0.57377,0.15129 -1.14793,0.30059 -1.72331,0.44068c-0.40774,0.09938 -0.81965,0.13315 -1.21839,0.30496c-0.04127,0.19413 -0.03836,0.56056 0.0167,0.77037c0.01722,0.06666 0.05558,0.11152 0.10931,0.1395zM253.98478,53.59802c1.13246,-0.33611 2.26628,-0.67271 3.46255,-1.0276c0.01927,-0.15741 0.04601,-0.37777 0.08495,-0.6995c-0.49356,0.08959 -0.9372,0.16997 -1.38104,0.25079c-0.22949,0.04132 -0.45955,0.07678 -0.68848,0.12539c-0.48678,0.10322 -0.97469,0.20222 -1.45713,0.33637c-0.0563,0.01539 -0.11778,0.24489 -0.11413,0.36881c0.00642,0.22105 0.06062,0.43688 0.09328,0.64574zM257.33335,58.05835c-1.06816,0.4563 -2.21141,0.67674 -3.30761,0.97284c-0.04832,0.01291 -0.11942,0.09563 -0.12417,0.15012c-0.02633,0.31297 -0.03585,0.62674 -0.0547,1.01482c0.93798,-0.33365 1.79557,-0.63478 2.65112,-0.94624c0.19039,-0.06915 0.36899,-0.20118 0.56017,-0.25742c0.16142,-0.04707 0.22411,-0.14429 0.26186,-0.33253c0.00495,-0.02531 0.00584,-0.11874 0.00614,-0.22409c0.00002,-0.17054 -0.00224,-0.37345 0.00719,-0.37752zM253.87537,56.95732c0.71073,-0.25281 1.38598,-0.50763 2.06741,-0.72969c0.38423,-0.12526 0.76847,-0.21342 1.15798,-0.29704c0.18228,-0.03915 0.24166,-0.02852 0.29491,-0.23155c0.01008,-0.03784 -0.00503,-0.4381 -0.02023,-0.43662c-1.10675,0.10899 -2.13571,0.48677 -3.2229,0.79002c-0.25204,0.07074 -0.32622,0.25804 -0.27716,0.90487z" fill="#30419a"/></g></g><g><g><path d="M247.57864,71.81657l0.15462,-9.68755c0,0 3.74391,-0.82336 3.80564,-0.84532c0.06146,-0.02186 0.26731,0.46681 0.26731,0.46681l-0.25076,8.86553z" fill="#fcf6b6"/><path d="M250.45658,60.35751c0.32816,-0.08498 0.54422,-0.2686 0.90262,-0.26087c0.19231,0.00437 0.79294,0.74344 0.74604,1.08407c-0.05916,0.43274 -0.10312,0.87436 -0.10141,1.30899c0.00381,0.98544 0.05982,1.96731 0.05696,2.95298c-0.00329,0.9316 -0.05637,1.86558 -0.08446,2.79887c-0.02058,0.68053 -0.02529,1.36005 -0.05895,2.04095c-0.0301,0.604 -0.21019,0.63346 -0.67648,0.79325c-0.20894,0.07147 -0.41573,0.12112 -0.62524,0.19565c-0.52779,0.18738 -1.04805,0.37137 -1.57498,0.54383c-0.24824,0.08117 -1.62486,0.73282 -1.7489,0.41019c-0.07398,-0.19309 -0.56883,-0.76505 -0.56336,-0.99104c0.01031,-0.41216 0.02491,-1.20471 0.02745,-1.61625c0.00415,-0.73426 0.11252,-1.3047 0.1143,-2.03918c0.00142,-0.69619 0.07001,-1.3672 0.09324,-2.06401c0.03883,-1.16223 -0.03303,-2.33875 0.00518,-3.50111c0.01299,-0.39705 0.05642,-0.66513 0.41,-0.81838c0.25144,-0.10942 0.53212,-0.17424 0.78473,-0.26588c0.49019,-0.17793 1.00135,-0.31081 1.4982,-0.42083c0.26414,-0.05828 0.54614,-0.08693 0.79507,-0.15122zM247.8725,66.85616c1.22398,-0.33442 2.40333,-0.65653 3.62342,-0.98992c-0.00196,-0.31717 0.005,-0.63503 -0.01361,-0.94914c-0.00282,-0.05144 -0.12129,-0.13203 -0.18028,-0.12139c-0.97972,0.17368 -1.97147,0.24177 -2.92664,0.65145c-0.13698,0.05836 -0.28867,0.05987 -0.44895,0.09049c-0.01742,0.42504 -0.03415,0.83127 -0.05393,1.31851zM251.46554,68.13535c-0.00431,-0.22965 -0.08547,-0.32565 -0.39964,-0.23494c-0.37034,0.10676 -0.70933,0.32224 -1.09042,0.3522c-0.39683,0.03163 -0.78455,0.15992 -1.17399,0.31664c-0.18089,0.0729 -0.36307,0.16446 -0.54783,0.19094c-0.36477,0.0534 -0.42647,0.32188 -0.39029,0.6911c0.00735,0.07587 0.00228,0.15402 0.0039,0.31363c0.52444,-0.11234 1.03263,-0.20927 1.53761,-0.33289c0.50914,-0.12474 1.01344,-0.28593 1.52226,-0.41377c0.34561,-0.0869 0.47855,-0.15096 0.51946,-0.57543c0.01164,-0.11902 0.02049,-0.22242 0.01894,-0.30749zM249.70781,62.87189c0.16914,-0.04946 1.68863,-0.37341 1.70842,-0.49854c0.12923,-0.81301 0.07776,-0.87105 -0.54992,-0.70557c-0.57377,0.15129 -1.14793,0.30059 -1.72331,0.44069c-0.40774,0.09938 -0.81965,0.13315 -1.21839,0.30496c-0.04127,0.19413 -0.03836,0.56056 0.0167,0.77037c0.01722,0.06666 0.05558,0.11151 0.10932,0.13949c0.35634,0.18576 1.40151,-0.37687 1.65719,-0.45141zM248.00364,64.91903c1.13246,-0.33611 2.26628,-0.67271 3.46255,-1.0276c0.01927,-0.15741 0.04601,-0.37777 0.08495,-0.6995c-0.49356,0.08959 -0.93719,0.16998 -1.38104,0.25079c-0.22949,0.04132 -0.45955,0.07677 -0.68848,0.12538c-0.48678,0.10323 -0.97469,0.20222 -1.45713,0.33637c-0.0563,0.01539 -0.11778,0.24489 -0.11413,0.36882c0.00642,0.22105 0.06062,0.43687 0.09328,0.64574zM251.35222,69.37936c-1.06816,0.4563 -2.21141,0.67674 -3.30761,0.97284c-0.04832,0.01291 -0.11942,0.09564 -0.12417,0.15013c-0.02633,0.31297 -0.03585,0.62674 -0.0547,1.01482c0.93799,-0.33365 1.79557,-0.63478 2.65112,-0.94624c0.19039,-0.06915 0.36899,-0.20118 0.56017,-0.25741c0.16142,-0.04708 0.22411,-0.1443 0.26186,-0.33254c0.00495,-0.02531 0.00584,-0.11873 0.00614,-0.22408c0.00002,-0.17054 -0.00224,-0.37345 0.00719,-0.37752zM247.89423,68.27833c0.71073,-0.25282 1.38598,-0.50764 2.06741,-0.72969c0.38424,-0.12526 0.76847,-0.21341 1.15798,-0.29703c0.18227,-0.03915 0.24165,-0.02852 0.2949,-0.23155c0.01008,-0.03784 -0.00503,-0.4381 -0.02023,-0.43662c-1.10675,0.10898 -2.13571,0.48677 -3.2229,0.79002c-0.25204,0.07074 -0.32622,0.25803 -0.27716,0.90486z" fill="#30419a"/></g><g><path d="M247.81525,61.99172l0.15462,-9.68756c0,0 3.74391,-0.82336 3.80564,-0.84532c0.06146,-0.02186 0.26731,0.46681 0.26731,0.46681l-0.25076,8.86553z" fill="#fcf6b6"/><path d="M252.28474,51.35585c-0.05916,0.43274 -0.10312,0.87436 -0.1014,1.30899c0.00381,0.98544 0.05982,1.96731 0.05696,2.95299c-0.00329,0.9316 -0.05637,1.86558 -0.08446,2.79887c-0.02058,0.68053 -0.02529,1.36005 -0.05895,2.04095c-0.03011,0.604 -0.21019,0.63346 -0.67648,0.79325c-0.20893,0.07146 -0.41573,0.12113 -0.62524,0.19565c-0.52779,0.18738 -1.04805,0.37137 -1.57498,0.54383c-0.24824,0.08117 -1.62486,0.73282 -1.74891,0.41019c-0.07398,-0.19309 -0.56883,-0.76505 -0.56335,-0.99104c0.01031,-0.41216 0.02491,-1.20471 0.02745,-1.61624c0.00415,-0.73426 0.11253,-1.3047 0.1143,-2.03919c0.00142,-0.69619 0.07001,-1.3672 0.09324,-2.06401c0.03883,-1.16223 -0.03303,-2.33875 0.00518,-3.50111c0.01299,-0.39706 0.14207,-0.35108 0.49565,-0.50433c0.13889,-0.06044 3.73608,-1.01656 4.11967,-0.94579c0.51317,0.09468 0.53457,0.52081 0.52133,0.61698zM248.16304,55.7128c-0.01742,0.42503 -0.03415,0.83127 -0.05393,1.31851c1.22398,-0.33442 2.40333,-0.65653 3.62342,-0.98993c-0.00196,-0.31717 0.00499,-0.63502 -0.01362,-0.94913c-0.00282,-0.05144 -0.12128,-0.13203 -0.18028,-0.12139c-0.97972,0.17369 -1.97148,0.24176 -2.92664,0.65145c-0.13698,0.05836 -0.28867,0.05988 -0.44895,0.09049zM251.70215,58.3105c-0.00431,-0.22965 -0.08548,-0.32565 -0.39964,-0.23494c-0.37034,0.10676 -0.70933,0.32224 -1.09041,0.3522c-0.39683,0.03163 -0.78456,0.15992 -1.17399,0.31664c-0.18089,0.0729 -0.36307,0.16446 -0.54783,0.19095c-0.36477,0.05341 -0.42647,0.32187 -0.39029,0.69109c0.00735,0.07587 0.00228,0.15403 0.0039,0.31364c0.52444,-0.11234 1.03263,-0.20927 1.53761,-0.33289c0.50914,-0.12474 1.01344,-0.28593 1.52226,-0.41377c0.34561,-0.0869 0.47855,-0.15096 0.51946,-0.57543c0.01164,-0.11902 0.02049,-0.22242 0.01894,-0.30749zM249.94441,53.04703c0.16914,-0.04946 1.68863,-0.37341 1.70842,-0.49853c0.12923,-0.81301 0.07776,-0.87105 -0.54992,-0.70557c-0.57377,0.15129 -1.14793,0.30059 -1.72331,0.44068c-0.40774,0.09938 -0.81964,0.13315 -1.21838,0.30496c-0.04127,0.19413 -0.03837,0.56056 0.01669,0.77037c0.01722,0.06666 0.05558,0.11152 0.10932,0.1395c0.35634,0.18576 1.40151,-0.37688 1.65719,-0.45142zM248.24025,55.09419c1.13246,-0.33611 2.26628,-0.67271 3.46255,-1.0276c0.01927,-0.15741 0.04601,-0.37777 0.08495,-0.6995c-0.49356,0.08959 -0.9372,0.16997 -1.38104,0.25079c-0.22949,0.04132 -0.45955,0.07677 -0.68848,0.12538c-0.48678,0.10323 -0.97469,0.20222 -1.45713,0.33637c-0.0563,0.01539 -0.11779,0.24489 -0.11413,0.36882c0.00642,0.22105 0.06062,0.43688 0.09328,0.64574zM251.58882,59.55452c-1.06816,0.4563 -2.21141,0.67674 -3.30761,0.97284c-0.04832,0.01291 -0.11941,0.09563 -0.12417,0.15012c-0.02633,0.31297 -0.03585,0.62674 -0.0547,1.01483c0.93798,-0.33365 1.79556,-0.63479 2.65111,-0.94625c0.19039,-0.06915 0.36899,-0.20118 0.56017,-0.25741c0.16142,-0.04707 0.22411,-0.14429 0.26186,-0.33253c0.00495,-0.02531 0.00584,-0.11874 0.00614,-0.22409c0.00002,-0.17054 -0.00224,-0.37344 0.00719,-0.37751zM248.13084,58.45348c0.71073,-0.25281 1.38598,-0.50764 2.06741,-0.72969c0.38423,-0.12526 0.76847,-0.21341 1.15798,-0.29703c0.18228,-0.03915 0.24165,-0.02852 0.2949,-0.23155c0.01008,-0.03784 -0.00503,-0.4381 -0.02023,-0.43662c-1.10675,0.10899 -2.13572,0.48677 -3.22291,0.79002c-0.25204,0.07074 -0.32622,0.25804 -0.27716,0.90487z" fill="#30419a"/></g></g></g></g><g stroke="none" stroke-width="1" stroke-linecap="butt"><path d="M225.77295,169.50358c14.94212,-5.5208 30.37749,-1.55553 41.99284,9.06252c-8.59548,-0.28518 -46.39826,0.03556 -57.22009,0.63675c4.76496,-4.89671 8.89463,-7.35951 15.22725,-9.69927z" fill="#0077b8" fill-rule="nonzero"/><path d="M233.63174,167.46831c-0.45626,0.0694 -0.91382,0.14811 -1.3694,0.23488c0.46383,-0.08982 0.92139,-0.16853 1.3694,-0.23488z" fill="#74b140" fill-rule="evenodd"/><path d="M234.24405,167.71814c-0.19391,-0.10942 -0.39597,-0.19566 -0.6034,-0.25752c0.36325,-0.05487 0.72529,-0.10489 1.08612,-0.15005l0.00991,-0.00366c0.36353,-0.04396 0.72477,-0.08265 1.087,-0.11731c-0.01145,0.14827 -0.0419,0.29339 -0.09023,0.43005c-0.10146,0.28214 -0.32118,0.6322 -0.59495,0.66063c-0.32625,0.03458 -0.60953,-0.39192 -0.89445,-0.56215z" fill="#74b140" fill-rule="evenodd"/><path d="M249.40233,168.92349c-0.28279,-0.20132 -0.53153,-0.46702 -0.73283,-0.78276c0.36354,0.08756 0.72511,0.18171 1.08471,0.28248c2.51731,0.69956 4.98363,1.65031 7.37425,2.84273c0.38689,0.19206 0.7722,0.38985 1.15591,0.59337c0.00744,0.42307 -0.09035,0.83892 -0.28037,1.19237c-0.2967,0.54161 -0.52215,0.55439 -0.91479,0.42175c0.08155,0.22587 0.18589,0.43832 0.31061,0.6324c0.12117,0.24436 0.18968,0.5224 0.1991,0.80805c0.00899,0.56973 -0.22501,1.11021 -0.4928,1.55739c-0.38801,0.64906 -0.90102,1.48236 -1.38876,2.02344c-2.42604,-0.05105 -4.84392,-0.07627 -7.20823,-0.05411c1.01372,-1.19033 1.65566,-3.09548 1.79228,-4.83075c0.00523,-0.14226 0.08324,-0.26496 0.19456,-0.30608c0.11132,-0.04112 0.23173,0.00827 0.30034,0.12324c0.33226,0.66187 0.51069,1.44448 0.89572,2.06481c0.18399,0.33221 0.45588,0.57658 0.76984,0.69194c0.31221,0.07639 0.53844,-0.20335 0.78674,-0.40088c0.86164,-0.68863 2.04524,-1.67034 1.70878,-3.15276c-0.32056,-1.4398 -1.67451,-0.60893 -2.5129,-0.7025c-0.69512,-0.0892 -1.3231,-0.57789 -1.29755,-1.50421c0.00898,-0.33613 0.14245,-0.75131 -0.12061,-0.99354c-0.17545,-0.11622 -0.36967,-0.18368 -0.56883,-0.19756c-0.36202,-0.0668 -0.72599,-0.09763 -1.0552,-0.3088z" fill="#74b140" fill-rule="evenodd"/><path d="M214.63782,175.5076l-0.00442,0.02588c1.11656,0.92309 2.97152,1.06643 3.01014,3.11512c0.00019,0.10227 -0.03749,0.19915 -0.10245,0.26341c-0.06497,0.06426 -0.15023,0.08901 -0.23183,0.06728c-0.10153,-0.01758 -0.2042,-0.03255 -0.30737,-0.04953l0.02247,0.16461c-2.25709,0.14606 -4.51452,0.28403 -6.77247,0.40949c1.39549,-1.43293 2.85974,-2.76756 4.38593,-3.99626z" fill="#74b140" fill-rule="evenodd"/><path d="M224.79154,170.43296c0.03421,-0.18166 -0.00834,-0.37223 -0.11328,-0.50728c0.36225,-0.15147 0.72682,-0.28618 1.09469,-0.4221c0.34202,-0.12637 0.6866,-0.24486 1.03371,-0.35548c0.10888,-0.04023 0.2194,-0.08106 0.32993,-0.1219c0.24004,-0.07767 0.48173,-0.15594 0.72278,-0.22957c0.15046,-0.04677 0.30342,-0.08345 0.45023,-0.1377c0.26298,-0.07954 0.5121,-0.14954 0.76833,-0.21997c0.20855,-0.05942 0.41691,-0.11216 0.62481,-0.16693l0.27158,-0.05186c0.76369,-0.19253 1.52846,-0.36123 2.29431,-0.50608c-0.09813,0.18613 -0.09155,0.41733 0.13472,0.67094c0.22627,0.25362 0.54781,0.28027 0.83764,0.28779c0.55456,0.0155 1.63,-0.23638 1.9886,0.48849c0.29291,0.59706 -0.25486,1.12786 -0.65601,1.31134c-0.30956,0.1181 -0.63039,0.18626 -0.95436,0.20274c0.80594,0.66317 1.88311,1.75509 2.19781,0.05193c0.08106,-0.52846 0.31262,-1.00453 0.6535,-1.34346c0.4061,-0.44097 0.59551,-0.87022 0.51872,-1.54713c-0.02919,-0.24165 -0.07466,-0.4799 -0.13592,-0.71237c0.7895,-0.05367 1.58004,-0.08128 2.36679,-0.08765c0.06486,0.00027 0.12973,0.00056 0.19244,-0.00057c0.23387,-0.00045 0.46823,0.00111 0.70144,0.00531c0.0817,0.00287 0.17545,0.0035 0.2626,0.00657c0.34759,0.00822 0.69618,0.02049 1.04247,0.038l0.51333,0.03073l0.47619,0.03345c0.20782,0.01799 0.41728,0.03537 0.62559,0.05538c0.12347,0.01169 0.24644,0.02135 0.36826,0.03364c-0.05801,0.19555 -0.11536,0.38646 -0.17191,0.56603c-0.61055,1.883 -1.86073,3.70479 -3.58188,3.89993c0.11149,0.45251 0.50891,0.7068 0.90898,0.70885c0.51297,0.00002 0.98536,-0.36187 1.41606,-0.66647c0.07173,-0.05434 0.15989,-0.06517 0.23902,-0.02941c0.07913,0.03578 0.14038,0.11417 0.16607,0.21254c0.09266,0.77043 0.59144,1.37213 1.22191,1.47401c0.63048,0.10188 1.23964,-0.32079 1.49232,-1.03543c0.03979,-0.09001 0.11134,-0.15245 0.19381,-0.16912c0.08247,-0.01668 0.16661,0.01426 0.22792,0.08382c0.66538,1.00386 1.71894,1.49434 2.76089,1.28533c0.09235,-0.03049 0.19101,-0.00018 0.26067,0.08009c0.06966,0.08026 0.10038,0.19902 0.08114,0.31376c-0.10577,1.16313 -0.56475,3.66049 -1.3391,4.46234c-0.34591,0.36075 -10.57769,0.26945 -11.64421,0.34313c-0.15927,-0.22133 -0.2751,-0.48985 -0.42118,-0.74102c-0.32536,-0.56083 -0.98427,-1.102 -1.49913,-0.53268c-0.0673,0.08409 -0.16553,0.11919 -0.2592,0.09258c-0.09367,-0.02661 -0.16926,-0.11106 -0.19946,-0.22286c-0.40133,-1.19792 -1.18625,-2.14192 -2.17157,-2.61168c-0.20649,-0.10361 -0.16189,-0.43322 -0.01692,-0.57006c-0.32409,0.14194 -0.63196,0.40359 -0.96404,0.48952c-0.33709,0.07832 -0.68567,0.02784 -0.99854,-0.1446c-0.80858,-0.41093 -1.26927,-1.33832 -1.9199,-1.99937c-1.53545,-1.56397 -3.17892,1.03568 -4.86123,0.38775c-0.08102,-0.02523 -0.14819,-0.09439 -0.18241,-0.18777c-0.03422,-0.09339 -0.03177,-0.20081 0.00668,-0.2917c0.32055,-0.60564 0.7868,-1.0744 1.3343,-1.34154c0.33352,-0.15849 0.70427,-0.11476 1.02674,-0.26695c0.14265,-0.06512 0.24906,-0.21361 0.28327,-0.39527zM231.06667,174.18289c0.00616,-0.0027 0.01233,-0.00536 0.0185,-0.00795c-0.00573,0.00093 -0.01131,0.00299 -0.0165,0.00609c-0.00066,0.00062 -0.00133,0.00123 -0.00199,0.00186z" fill="#74b140" fill-rule="nonzero"/><path d="M219.86252,174.74215c-0.01231,-0.59053 -0.10877,-1.14998 0.10325,-1.7066c0.13948,-0.36891 0.35468,-0.64238 0.3619,-1.06602c0.32738,-0.17606 0.65577,-0.34809 0.98844,-0.51729c-0.00564,0.24012 -0.0314,0.47886 -0.05029,0.67979c-0.04177,0.43857 -0.11578,0.87165 -0.22114,1.29393c-0.09491,0.37448 -0.27219,0.75075 -0.32863,1.13527c-0.07361,0.51208 0.13879,1.00885 0.26105,1.49044c0.12225,0.48159 0.22422,0.96848 0.31844,1.46042c0.04688,0.25598 -0.17604,0.55654 -0.38686,0.38759c-0.43022,-0.34356 -0.9092,-0.74625 -1.10754,-1.35401c-0.20382,-0.62998 0.06931,-1.16509 0.06139,-1.80353z" fill="#74b140" fill-rule="evenodd"/><path d="M219.6142,178.37292c0.02819,0.12683 0.04724,0.26534 0.05324,0.40337c-0.34493,0.02373 -0.68986,0.04735 -1.0348,0.07084c-0.14174,-0.39203 -0.32649,-0.7402 -0.4892,-1.14741c-0.12574,-0.28208 -0.15818,-0.61252 -0.09065,-0.92305c-0.01202,-0.09724 0.00848,-0.19632 0.05691,-0.2748c0.04844,-0.07847 0.12067,-0.12968 0.20035,-0.14204c0.10853,-0.03185 0.22267,0.01014 0.29888,0.10996c0.24146,0.11798 0.52646,0.23748 0.66263,0.49793c0.19887,0.37615 0.2485,0.97933 0.34263,1.4052z" fill="#74b140" fill-rule="evenodd"/><path d="M259.04972,172.25536c0.46972,0.25549 0.93548,0.52419 1.39731,0.80612c-0.04105,0.06325 -0.08697,0.12156 -0.13709,0.17409c-0.47468,0.50599 -1.01545,0.18123 -1.18319,-0.49954c-0.03549,-0.15763 -0.06124,-0.31831 -0.07702,-0.48067z" fill="#74b140" fill-rule="evenodd"/><path d="M261.15225,174.33333c-0.06934,-0.10464 -0.08085,-0.24994 -0.02919,-0.36891c0.04409,-0.13604 0.07875,-0.27641 0.1036,-0.41958c0.32903,0.2105 0.65725,0.42497 0.98466,0.64343c-0.0396,0.01463 -0.07917,0.02926 -0.12207,0.04511c-0.21645,0.07115 -0.43374,0.13161 -0.64819,0.21085c-0.10573,0.03742 -0.21947,-0.00625 -0.28881,-0.11088z" fill="#74b140" fill-rule="evenodd"/><path d="M262.72159,174.5353c0.38887,0.27068 0.77592,0.54863 1.16018,0.82984c0.02247,0.01815 0.04494,0.03628 0.06856,0.0518c0.35039,0.26065 0.69685,0.52716 1.04264,0.79833l0.15199,0.12016c0.32856,0.2621 0.65756,0.52845 0.98701,0.79904l0.11119,0.09336c0.3571,0.30004 0.71082,0.60575 1.0611,0.91712c0.00779,0.13477 0.02079,0.27059 0.03509,0.4069c-0.54746,-0.01838 -1.09852,-0.03723 -1.65257,-0.05632c-0.11461,-0.23265 -0.23995,-0.45759 -0.39677,-0.62904c-0.25453,-0.28064 -0.60179,-0.28016 -0.81991,-0.62494c-0.18457,-0.28886 -0.21341,-0.63967 -0.29653,-0.97702c-0.18162,-0.69329 -0.39754,-0.34241 -0.81509,-0.45922c-0.21188,-0.06295 -0.38851,-0.24138 -0.47926,-0.48413c-0.10875,-0.24413 -0.09642,-0.53743 -0.15763,-0.7859z" fill="#74b140" fill-rule="evenodd"/><path d="M261.77117,177.77814c0.00004,-0.11658 0.0495,-0.22479 0.13064,-0.28578c0.08114,-0.06099 0.18231,-0.06602 0.26723,-0.01331c0.1617,0.07926 0.31115,0.19175 0.44194,0.33262c0.16501,-0.43182 0.46995,-0.75946 0.84105,-0.90364c0.14294,-0.05161 0.2932,0.04709 0.33714,0.22146l0.3292,1.31196c-0.78181,-0.02689 -1.5684,-0.0537 -2.35818,-0.07966z" fill="#74b140" fill-rule="evenodd"/></g></g></g></svg>