<svg version="1.1" xmlns="http://www.w3.org/2000/svg" xmlns:xlink="http://www.w3.org/1999/xlink" width="116.5" height="165.28252" viewBox="0,0,116.5,165.28252"><defs><linearGradient x1="240.61953" y1="58.29928" x2="240.61953" y2="237.16751" gradientUnits="userSpaceOnUse" id="color-1"><stop offset="0" stop-color="#000000"/><stop offset="1" stop-color="#000000" stop-opacity="0"/></linearGradient><radialGradient cx="241.08333" cy="124.8688" r="58.25" gradientUnits="userSpaceOnUse" id="color-2"><stop offset="0" stop-color="#cc3516"/><stop offset="1" stop-color="#cc3516" stop-opacity="0"/></radialGradient><radialGradient cx="240.79731" cy="126.43391" r="40.30515" gradientUnits="userSpaceOnUse" id="color-3"><stop offset="0" stop-color="#bd3b21"/><stop offset="1" stop-color="#bd3b21" stop-opacity="0"/></radialGradient><radialGradient cx="244.30852" cy="126.96028" r="41.26749" gradientUnits="userSpaceOnUse" id="color-4"><stop offset="0" stop-color="#b27e2e"/><stop offset="1" stop-color="#b27e2e" stop-opacity="0"/></radialGradient><radialGradient cx="259.79983" cy="144.14132" r="18.40799" gradientUnits="userSpaceOnUse" id="color-5"><stop offset="0" stop-color="#1f0605"/><stop offset="1" stop-color="#1f0605" stop-opacity="0"/></radialGradient><radialGradient cx="237.54501" cy="149.48879" r="17.93947" gradientUnits="userSpaceOnUse" id="color-6"><stop offset="0" stop-color="#44290c"/><stop offset="1" stop-color="#44290c" stop-opacity="0"/></radialGradient><radialGradient cx="217.12635" cy="142.57213" r="17.00077" gradientUnits="userSpaceOnUse" id="color-7"><stop offset="0" stop-color="#44290c"/><stop offset="1" stop-color="#44290c" stop-opacity="0"/></radialGradient><radialGradient cx="205.97355" cy="126.8374" r="19.09133" gradientUnits="userSpaceOnUse" id="color-8"><stop offset="0" stop-color="#44290c"/><stop offset="1" stop-color="#44290c" stop-opacity="0"/></radialGradient><radialGradient cx="208.44031" cy="111.22476" r="19.66173" gradientUnits="userSpaceOnUse" id="color-9"><stop offset="0" stop-color="#44290c"/><stop offset="1" stop-color="#44290c" stop-opacity="0"/></radialGradient><radialGradient cx="228.27258" cy="105.46936" r="18.35067" gradientUnits="userSpaceOnUse" id="color-10"><stop offset="0" stop-color="#44290c"/><stop offset="1" stop-color="#44290c" stop-opacity="0"/></radialGradient><radialGradient cx="273.00985" cy="112.3017" r="18.54934" gradientUnits="userSpaceOnUse" id="color-11"><stop offset="0" stop-color="#44290c"/><stop offset="1" stop-color="#44290c" stop-opacity="0"/></radialGradient><radialGradient cx="249.91043" cy="105.21289" r="16.90763" gradientUnits="userSpaceOnUse" id="color-12"><stop offset="0" stop-color="#44290c"/><stop offset="1" stop-color="#44290c" stop-opacity="0"/></radialGradient><radialGradient cx="275.96761" cy="131.63509" r="19.4945" gradientUnits="userSpaceOnUse" id="color-13"><stop offset="0" stop-color="#2e1c08"/><stop offset="1" stop-color="#2e1c08" stop-opacity="0"/></radialGradient><radialGradient cx="234.91153" cy="149.51623" r="13.92566" gradientUnits="userSpaceOnUse" id="color-14"><stop offset="0" stop-color="#ff4a32"/><stop offset="1" stop-color="#ff4a32" stop-opacity="0"/></radialGradient><radialGradient cx="219.7971" cy="141.89932" r="17.49199" gradientUnits="userSpaceOnUse" id="color-15"><stop offset="0" stop-color="#ff2f14"/><stop offset="1" stop-color="#ff2f14" stop-opacity="0"/></radialGradient><radialGradient cx="208.41882" cy="123.99055" r="21.90743" gradientUnits="userSpaceOnUse" id="color-16"><stop offset="0" stop-color="#ff2002"/><stop offset="1" stop-color="#ff2002" stop-opacity="0"/></radialGradient><radialGradient cx="218.09885" cy="111.26813" r="15.30043" gradientUnits="userSpaceOnUse" id="color-17"><stop offset="0" stop-color="#ff4027"/><stop offset="1" stop-color="#ff4027" stop-opacity="0"/></radialGradient><radialGradient cx="259.70599" cy="109.78885" r="16.30321" gradientUnits="userSpaceOnUse" id="color-18"><stop offset="0" stop-color="#ff4830"/><stop offset="1" stop-color="#ff4830" stop-opacity="0"/></radialGradient><radialGradient cx="244.08357" cy="126.10237" r="40.7029" gradientUnits="userSpaceOnUse" id="color-19"><stop offset="0" stop-color="#e6b629"/><stop offset="1" stop-color="#e6b629" stop-opacity="0"/></radialGradient><radialGradient cx="223.36492" cy="97.03128" r="23.04109" gradientUnits="userSpaceOnUse" id="color-20"><stop offset="0" stop-color="#e6c338"/><stop offset="1" stop-color="#e6c338" stop-opacity="0"/></radialGradient><radialGradient cx="242.2155" cy="82.9341" r="15.05931" gradientUnits="userSpaceOnUse" id="color-21"><stop offset="0" stop-color="#e6c338"/><stop offset="1" stop-color="#e6c338" stop-opacity="0"/></radialGradient><radialGradient cx="239.69595" cy="125.0611" r="16.94797" gradientUnits="userSpaceOnUse" id="color-22"><stop offset="0" stop-color="#ffffff"/><stop offset="1" stop-color="#ffffff" stop-opacity="0"/></radialGradient><radialGradient cx="212.68164" cy="108.91605" r="1.78811" gradientUnits="userSpaceOnUse" id="color-23"><stop offset="0" stop-color="#ded9cc"/><stop offset="1" stop-color="#ded9cc" stop-opacity="0"/></radialGradient><radialGradient cx="255.78873" cy="101.87257" r="2.83418" gradientUnits="userSpaceOnUse" id="color-24"><stop offset="0" stop-color="#ffffff"/><stop offset="1" stop-color="#ffffff" stop-opacity="0"/></radialGradient><radialGradient cx="241.72564" cy="87.95162" r="1.78811" gradientUnits="userSpaceOnUse" id="color-25"><stop offset="0" stop-color="#ffffff"/><stop offset="1" stop-color="#ffffff" stop-opacity="0"/></radialGradient><radialGradient cx="205.08652" cy="125.44107" r="1.32281" gradientUnits="userSpaceOnUse" id="color-26"><stop offset="0" stop-color="#dedede"/><stop offset="1" stop-color="#dedede" stop-opacity="0"/></radialGradient><radialGradient cx="216.9527" cy="120.36136" r="1.3228" gradientUnits="userSpaceOnUse" id="color-27"><stop offset="0" stop-color="#dedede"/><stop offset="1" stop-color="#dedede" stop-opacity="0"/></radialGradient><radialGradient cx="238.7978" cy="145.35912" r="1.3228" gradientUnits="userSpaceOnUse" id="color-28"><stop offset="0" stop-color="#dedcd7"/><stop offset="1" stop-color="#dedcd7" stop-opacity="0"/></radialGradient><radialGradient cx="273.50651" cy="131.72268" r="1.3228" gradientUnits="userSpaceOnUse" id="color-29"><stop offset="0" stop-color="#dedede"/><stop offset="1" stop-color="#dedede" stop-opacity="0"/></radialGradient><radialGradient cx="211.0714" cy="118.88177" r="0.73218" gradientUnits="userSpaceOnUse" id="color-30"><stop offset="0" stop-color="#ffffff"/><stop offset="1" stop-color="#ffffff" stop-opacity="0"/></radialGradient><radialGradient cx="264.95157" cy="121.78951" r="0.73217" gradientUnits="userSpaceOnUse" id="color-31"><stop offset="0" stop-color="#ffffff"/><stop offset="1" stop-color="#ffffff" stop-opacity="0"/></radialGradient><radialGradient cx="214.38004" cy="134.0923" r="0.73218" gradientUnits="userSpaceOnUse" id="color-32"><stop offset="0" stop-color="#ffffff"/><stop offset="1" stop-color="#ffffff" stop-opacity="0"/></radialGradient><radialGradient cx="223.99221" cy="126.35685" r="0.73217" gradientUnits="userSpaceOnUse" id="color-33"><stop offset="0" stop-color="#ffffff"/><stop offset="1" stop-color="#ffffff" stop-opacity="0"/></radialGradient><radialGradient cx="278.59827" cy="127.77857" r="1.19207" gradientUnits="userSpaceOnUse" id="color-34"><stop offset="0" stop-color="#ffffff"/><stop offset="1" stop-color="#ffffff" stop-opacity="0"/></radialGradient><radialGradient cx="215.58909" cy="92.91498" r="0.73217" gradientUnits="userSpaceOnUse" id="color-35"><stop offset="0" stop-color="#ffffff"/><stop offset="1" stop-color="#ffffff" stop-opacity="0"/></radialGradient><radialGradient cx="221.04857" cy="94.69443" r="0.73217" gradientUnits="userSpaceOnUse" id="color-36"><stop offset="0" stop-color="#ffffff"/><stop offset="1" stop-color="#ffffff" stop-opacity="0"/></radialGradient><radialGradient cx="242.1943" cy="148.34614" r="1.3228" gradientUnits="userSpaceOnUse" id="color-37"><stop offset="0" stop-color="#dedcd7"/><stop offset="1" stop-color="#dedcd7" stop-opacity="0"/></radialGradient></defs><g transform="translate(-182.83333,-43.384)"><g data-paper-data="{&quot;isPaintingLayer&quot;:true}" fill-rule="nonzero" stroke-linecap="butt" stroke-linejoin="miter" stroke-miterlimit="10" stroke-dasharray="" stroke-dashoffset="0" style="mix-blend-mode: normal"><path d="M284.37023,179.70939c0.07585,1.88165 -6.82295,7.07192 -42.75929,7.07192c-35.93634,0 -45.96971,-4.43047 -45.98172,-7.45949c-0.01038,-2.6151 9.30175,-6.10294 45.23807,-6.10294c35.93634,0 43.43354,4.76932 43.50294,6.49051z" fill="url(#color-1)" stroke="none" stroke-width="0"/><text transform="translate(226.79696,202.68677) scale(0.357,0.357)" font-size="40" xml:space="preserve" fill="#ffffff" fill-rule="nonzero" stroke="#ffffff" stroke-width="0.5" stroke-linecap="butt" stroke-linejoin="miter" stroke-miterlimit="10" stroke-dasharray="" stroke-dashoffset="0" font-family="Handwriting" font-weight="normal" text-anchor="start" style="mix-blend-mode: normal"></text><text transform="translate(192.18232,56.49286) scale(0.34497,0.34497)" font-size="40" xml:space="preserve" fill="#ffffff" fill-rule="nonzero" stroke="#ffffff" stroke-width="1" stroke-linecap="butt" stroke-linejoin="miter" stroke-miterlimit="10" stroke-dasharray="" stroke-dashoffset="0" font-family="Handwriting" font-weight="normal" text-anchor="start" style="mix-blend-mode: normal"></text><g stroke="none" stroke-width="0"><path d="M299.33333,124.8688c0,27.09185 -26.07941,49.05413 -58.25,49.05413c-32.17059,0 -58.25,-21.96229 -58.25,-49.05413c0,-27.09185 26.07941,-49.05412 58.25,-49.05412c32.17059,0 58.25,21.96228 58.25,49.05413z" fill="url(#color-2)"/><path d="M281.10246,126.43391c0,15.74614 -18.04523,28.5109 -40.30516,28.5109c-22.25992,0 -40.30515,-12.76476 -40.30515,-28.5109c0,-15.74613 18.04523,-28.5109 40.30515,-28.5109c22.25991,0 40.30516,12.76476 40.30516,28.5109zM241.25017,145.31707c16.18267,-0.30754 27.81908,-9.28026 27.39845,-19.31606c-0.41241,-9.83988 -18.02047,-15.4655 -27.39845,-15.33338c-14.13429,0.19913 -25.58698,7.68235 -25.58698,15.93078c0,8.24843 12.36669,18.96991 25.58698,18.71866z" fill="url(#color-3)"/><path d="M285.57601,126.96028c0,18.83174 -18.47609,34.09789 -41.26749,34.09789c-22.79141,0 -41.26749,-15.26614 -41.26749,-34.09789c0,-18.83174 18.47608,-34.09789 41.26749,-34.09789c22.79141,0 41.26749,15.26615 41.26749,34.09789z" fill="url(#color-4)"/><path d="M244.34981,130.87143c2.62869,-2.96586 15.61222,2.17678 21.08182,10.99692c4.58393,7.39193 2.37461,18.45941 -0.9657,18.93072c-2.87357,0.40546 -4.44424,-8.2288 -9.22072,-14.53913c-5.39147,-7.12279 -13.71227,-12.21035 -10.89539,-15.38851z" fill="url(#color-5)"/><path d="M237.9281,131.01015c4.36934,-0.52761 9.14849,10.77755 5.51325,20.21687c-3.0466,7.91087 -13.99831,14.3814 -16.75117,12.73412c-2.3682,-1.41709 3.85545,-8.41635 5.84821,-15.68102c2.24934,-8.20001 0.70759,-16.70459 5.38971,-17.26997z" fill="url(#color-6)"/><path d="M231.51041,128.90289c3.77336,1.86013 -1.15864,12.81158 -11.16008,18.01818c-8.38196,4.36352 -21.76484,3.56445 -22.63286,0.90686c-0.74673,-2.28624 9.3914,-4.32521 16.46761,-8.74794c7.98729,-4.99216 13.28185,-12.17038 17.32532,-10.1771z" fill="url(#color-7)"/><path d="M230.07752,124.8013c1.26873,3.74632 -12.81019,9.36831 -25.5812,7.40601c-10.70306,-1.64455 -20.5842,-10.37426 -18.80668,-12.98855c1.52916,-2.249 11.46876,2.28575 21.19033,3.0933c10.97324,0.91152 21.83799,-1.52527 23.19755,2.48924z" fill="url(#color-8)"/><path d="M230.84472,118.03285c-1.09807,3.47257 -16.80397,3.07834 -26.87726,-2.98645c-8.44217,-5.08275 -11.97421,-15.60314 -8.86575,-17.0925c2.6741,-1.28124 8.73673,5.86947 16.81027,9.93158c9.11302,4.5851 20.10941,6.42622 18.93274,10.14737z" fill="url(#color-9)"/><path d="M240.95341,119.4111c-3.1676,2.36105 -14.98588,-3.91039 -18.67802,-12.5813c-3.09429,-7.26686 1.22602,-17.02086 4.61352,-17.03328c2.91415,-0.01068 2.7946,8.00781 6.28805,14.31854c3.94323,7.12324 11.17081,12.76597 7.77645,15.29605z" fill="url(#color-10)"/><path d="M251.55892,121.88779c-3.07154,-3.02981 7.22335,-12.69461 20.12163,-14.98436c10.80972,-1.91898 24.42443,2.92368 24.08467,5.89069c-0.2923,2.55242 -11.84696,1.57607 -21.31952,3.94844c-10.69216,2.67782 -19.59536,8.39194 -22.88678,5.14523z" fill="url(#color-11)"/><path d="M245.98482,121.96572c-4.4142,-0.05826 -6.96131,-10.92481 -1.5609,-19.05908c4.52596,-6.81713 16.57843,-11.35153 18.9795,-9.51498c2.06557,1.57993 -5.4214,7.17712 -8.78307,13.53651c-3.7945,7.17817 -3.90535,15.09999 -8.63554,15.03756z" fill="url(#color-12)"/><path d="M252.43437,127.69203c0.2051,-3.87905 15.61147,-5.7993 26.94068,-0.8127c9.49473,4.17914 15.5584,14.90821 12.89972,16.96521c-2.28717,1.76957 -9.97782,-4.97694 -18.85895,-8.11907c-10.02459,-3.54668 -21.20122,-3.87672 -20.98144,-8.03344z" fill="url(#color-13)"/><path d="M248.32772,149.51623c0,6.76371 -6.00664,12.24679 -13.41619,12.24679c-7.40955,0 -13.41618,-5.48308 -13.41618,-12.24679c0,-6.76371 6.00663,-12.24679 13.41618,-12.24679c7.40955,0 13.41619,5.48308 13.41619,12.24679z" fill="url(#color-14)"/><path d="M237.11926,141.89932c0,8.49588 -7.75539,15.38316 -17.32216,15.38316c-9.56677,0 -17.32216,-6.88728 -17.32216,-15.38316c0,-8.49588 7.75539,-15.38316 17.32216,-15.38316c9.56677,0 17.32216,6.88728 17.32216,15.38316z" fill="url(#color-15)"/><path d="M230.32626,123.99055c0,10.20793 -9.80829,18.48311 -21.90743,18.48311c-12.09914,0 -21.90744,-8.27518 -21.90744,-18.48311c0,-10.20794 9.8083,-18.48309 21.90744,-18.48309c12.09914,0 21.90743,8.27516 21.90743,18.4831z" fill="url(#color-16)"/><path d="M233.04346,111.26813c0,7.43144 -6.69093,13.45582 -14.9446,13.45582c-8.25367,0 -14.9446,-6.02438 -14.9446,-13.45582c0,-7.43144 6.69093,-13.45582 14.9446,-13.45582c8.25367,0 14.9446,6.02438 14.9446,13.45582z" fill="url(#color-17)"/><path d="M275.49973,109.78885c0,7.91849 -7.0711,14.3377 -15.79373,14.3377c-8.72263,0 -15.79373,-6.41921 -15.79373,-14.3377c0,-7.91849 7.0711,-14.3377 15.79373,-14.3377c8.72264,0 15.79373,6.41921 15.79373,14.33771z" fill="url(#color-18)"/><path d="M284.78648,126.10237c0,19.51272 -18.22331,35.3309 -40.7029,35.3309c-22.47959,0 -40.7029,-15.81818 -40.7029,-35.3309c0,-19.51271 18.22331,-35.3309 40.7029,-35.3309c22.47959,0 40.7029,15.81819 40.7029,35.3309z" fill="url(#color-19)"/><path d="M246.40601,97.03128c0,11.04576 -10.31584,20.00012 -23.04109,20.00012c-12.72524,0 -23.04109,-8.95436 -23.04109,-20.00012c0,-11.04575 10.31584,-20.0001 23.04109,-20.0001c12.72525,0 23.04109,8.95435 23.04109,20.0001z" fill="url(#color-20)"/><path d="M257.27481,82.9341c0,7.21935 -7.08194,15.76009 -15.39897,15.76009c-8.31703,0 -19.81441,-9.13816 -19.81441,-16.35749c0,-7.21935 11.83704,-12.47437 20.15406,-12.47437c8.31703,0 15.05932,5.85242 15.05932,13.07177z" fill="url(#color-21)"/><path d="M261.80199,125.38512c0,8.03872 -12.3775,17.79556 -21.7376,17.79556c-9.36011,0 -21.73761,-10.40487 -21.73761,-18.44359c0,-8.03872 12.00907,-17.47154 21.36917,-17.47154c9.36011,0 22.10604,10.08085 22.10604,18.11957z" fill="url(#color-22)"/><path d="M213.9279,108.94782c-0.01354,0.08395 -0.42083,0.21161 -0.75003,0.49003c-0.3228,0.273 -0.22579,1.00335 -0.49623,1.04507c-0.25834,0.03986 -0.26424,-0.76547 -0.5853,-1.02899c-0.34052,-0.27949 -0.84973,-0.29131 -0.87771,-0.53789c-0.01166,-0.10269 0.62539,-0.09149 0.82926,-0.34085c0.32344,-0.39561 0.28002,-1.23337 0.59762,-1.25779c0.2736,-0.02103 0.2112,1.02385 0.53863,1.33821c0.28281,0.27152 0.76666,0.15028 0.74375,0.2922z" fill="url(#color-23)"/><path d="M257.64826,101.82204c-0.0156,0.09665 -0.4845,0.24363 -0.86351,0.56417c-0.37164,0.31431 -0.37709,1.30967 -0.68845,1.35771c-0.29743,0.04588 -0.18707,-1.03581 -0.55669,-1.3392c-0.39203,-0.32178 -0.97827,-0.33537 -1.01049,-0.61926c-0.01342,-0.11823 0.72001,-0.10533 0.95471,-0.39241c0.37238,-0.45546 0.32239,-1.78056 0.68804,-1.80867c0.31499,-0.02421 0.24315,1.53933 0.62012,1.90125c0.3256,0.31261 0.88264,0.17302 0.85627,0.33641z" fill="url(#color-24)"/><path d="M242.97189,87.98339c-0.01354,0.08395 -0.42083,0.21162 -0.75003,0.49003c-0.3228,0.273 -0.22579,1.00335 -0.49623,1.04507c-0.25834,0.03986 -0.26423,-0.76546 -0.58528,-1.02898c-0.34052,-0.27949 -0.84973,-0.2913 -0.87771,-0.53788c-0.01166,-0.10269 0.62539,-0.09149 0.82926,-0.34085c0.32344,-0.39561 0.28002,-1.23337 0.59762,-1.25779c0.2736,-0.02103 0.21119,1.02385 0.53863,1.33821c0.28281,0.27152 0.76666,0.15028 0.74375,0.2922z" fill="url(#color-25)"/><path d="M206.00847,125.46457c-0.01003,0.06211 -0.31132,0.15654 -0.55486,0.3625c-0.2388,0.20196 -0.16702,0.74226 -0.3671,0.77312c-0.19111,0.02948 -0.19548,-0.56627 -0.43299,-0.76121c-0.2519,-0.20676 -0.6286,-0.2155 -0.6493,-0.39792c-0.00862,-0.07597 0.46264,-0.06768 0.61346,-0.25214c0.23927,-0.29265 0.20716,-0.91241 0.44211,-0.93048c0.2024,-0.01556 0.15623,0.75742 0.39846,0.98997c0.20922,0.20087 0.56715,0.11118 0.55021,0.21616z" fill="url(#color-26)"/><path d="M217.87465,120.38486c-0.01003,0.06211 -0.31132,0.15655 -0.55486,0.36251c-0.2388,0.20196 -0.16702,0.74225 -0.3671,0.77312c-0.19111,0.02948 -0.19548,-0.56627 -0.43299,-0.76122c-0.2519,-0.20676 -0.6286,-0.21549 -0.6493,-0.39791c-0.00862,-0.07597 0.46264,-0.06769 0.61346,-0.25215c0.23927,-0.29265 0.20715,-0.91241 0.4421,-0.93048c0.2024,-0.01556 0.15624,0.75741 0.39847,0.98997c0.20922,0.20087 0.56715,0.11118 0.55021,0.21616z" fill="url(#color-27)"/><path d="M239.71975,145.38262c-0.01003,0.06211 -0.31132,0.15654 -0.55486,0.3625c-0.2388,0.20196 -0.16702,0.74226 -0.3671,0.77312c-0.19111,0.02948 -0.19548,-0.56627 -0.43299,-0.76121c-0.2519,-0.20676 -0.6286,-0.2155 -0.64931,-0.39792c-0.00862,-0.07597 0.46265,-0.06768 0.61347,-0.25214c0.23927,-0.29265 0.20715,-0.91242 0.4421,-0.93048c0.2024,-0.01556 0.15623,0.75741 0.39846,0.98997c0.20922,0.20087 0.56715,0.11118 0.55021,0.21616z" fill="url(#color-28)"/><path d="M274.42846,131.74618c-0.01002,0.06211 -0.31132,0.15655 -0.55485,0.36251c-0.2388,0.20196 -0.16703,0.74225 -0.3671,0.77311c-0.19112,0.02948 -0.19548,-0.56627 -0.43298,-0.76121c-0.2519,-0.20676 -0.6286,-0.2155 -0.64931,-0.39791c-0.00862,-0.07597 0.46264,-0.06769 0.61346,-0.25215c0.23928,-0.29265 0.20715,-0.91242 0.44211,-0.93048c0.2024,-0.01556 0.15624,0.75742 0.39847,0.98997c0.20922,0.20087 0.56714,0.11118 0.5502,0.21616z" fill="url(#color-29)"/><path d="M211.0492,118.26392c0.21418,-0.00596 0.18616,0.30767 0.32444,0.42775c0.12267,0.10653 0.42381,0.00934 0.42957,0.16975c0.00554,0.15412 -0.30438,0.08895 -0.41105,0.20025c-0.12948,0.1351 -0.07694,0.43178 -0.29855,0.43794c-0.16581,0.00461 -0.11236,-0.27414 -0.23789,-0.3492c-0.18046,-0.10791 -0.5089,-0.04706 -0.51614,-0.2483c-0.0055,-0.15305 0.32996,-0.15599 0.43526,-0.26695c0.12946,-0.13641 0.05147,-0.36503 0.27434,-0.37123z" fill="url(#color-30)"/><path d="M264.92936,121.17168c0.21418,-0.00596 0.18616,0.30766 0.32444,0.42775c0.12267,0.10653 0.42382,0.00935 0.42958,0.16976c0.00554,0.15412 -0.30438,0.08894 -0.41105,0.20024c-0.12948,0.1351 -0.07695,0.43179 -0.29856,0.43794c-0.16581,0.00461 -0.11236,-0.27415 -0.23789,-0.3492c-0.18047,-0.10791 -0.5089,-0.04706 -0.51613,-0.24829c-0.0055,-0.15305 0.32996,-0.15599 0.43526,-0.26695c0.12946,-0.13641 0.05147,-0.36504 0.27434,-0.37124z" fill="url(#color-31)"/><path d="M214.35784,133.47446c0.21418,-0.00596 0.18616,0.30767 0.32444,0.42775c0.12267,0.10653 0.42382,0.00934 0.42958,0.16975c0.00554,0.15412 -0.30439,0.08895 -0.41105,0.20025c-0.12948,0.13511 -0.07694,0.43178 -0.29855,0.43794c-0.16581,0.00461 -0.11236,-0.27415 -0.23789,-0.34921c-0.18046,-0.1079 -0.5089,-0.04705 -0.51614,-0.24829c-0.0055,-0.15305 0.32996,-0.15599 0.43526,-0.26695c0.12946,-0.13641 0.05147,-0.36503 0.27434,-0.37123z" fill="url(#color-32)"/><path d="M223.97,125.73902c0.21418,-0.00596 0.18616,0.30767 0.32444,0.42775c0.12267,0.10653 0.42381,0.00935 0.42958,0.16976c0.00554,0.15412 -0.30438,0.08894 -0.41105,0.20024c-0.12948,0.1351 -0.07694,0.43179 -0.29855,0.43794c-0.16581,0.00461 -0.11236,-0.27415 -0.23789,-0.3492c-0.18046,-0.10791 -0.5089,-0.04705 -0.51614,-0.24829c-0.0055,-0.15305 0.32996,-0.156 0.43526,-0.26696c0.12946,-0.13641 0.05147,-0.36503 0.27434,-0.37123z" fill="url(#color-33)"/><path d="M279.42911,127.81034c-0.00903,0.08395 -0.28055,0.21162 -0.50002,0.49003c-0.2152,0.27301 -0.15053,1.00334 -0.33082,1.04506c-0.17223,0.03985 -0.17616,-0.76546 -0.3902,-1.02898c-0.22701,-0.27949 -0.56648,-0.2913 -0.58514,-0.53789c-0.00777,-0.10269 0.41693,-0.09149 0.55284,-0.34085c0.21562,-0.39561 0.18668,-1.23337 0.39842,-1.25779c0.18239,-0.02103 0.1408,1.02385 0.35909,1.33821c0.18854,0.27152 0.5111,0.15028 0.49583,0.2922z" fill="url(#color-34)"/><path d="M215.56688,92.29714c0.21418,-0.00596 0.18616,0.30766 0.32444,0.42775c0.12267,0.10653 0.42382,0.00934 0.42958,0.16975c0.00554,0.15412 -0.30438,0.08895 -0.41105,0.20025c-0.12948,0.1351 -0.07694,0.43178 -0.29855,0.43794c-0.16581,0.00461 -0.11236,-0.27415 -0.23789,-0.3492c-0.18046,-0.10791 -0.5089,-0.04705 -0.51613,-0.24829c-0.0055,-0.15305 0.32996,-0.156 0.43526,-0.26696c0.12946,-0.13641 0.05147,-0.36503 0.27434,-0.37123z" fill="url(#color-35)"/><path d="M221.02636,94.07659c0.21418,-0.00596 0.18616,0.30767 0.32444,0.42775c0.12267,0.10653 0.42381,0.00935 0.42957,0.16976c0.00554,0.15412 -0.30438,0.08894 -0.41105,0.20024c-0.12948,0.1351 -0.07694,0.43178 -0.29855,0.43794c-0.16581,0.00461 -0.11236,-0.27415 -0.23789,-0.3492c-0.18046,-0.10791 -0.5089,-0.04705 -0.51614,-0.24829c-0.0055,-0.15305 0.32996,-0.156 0.43526,-0.26696c0.12946,-0.13641 0.05147,-0.36503 0.27434,-0.37123z" fill="url(#color-36)"/><path d="M243.11626,148.36965c-0.01003,0.06211 -0.31132,0.15654 -0.55486,0.3625c-0.2388,0.20196 -0.16702,0.74226 -0.3671,0.77312c-0.19111,0.02948 -0.19548,-0.56627 -0.43299,-0.76121c-0.2519,-0.20676 -0.6286,-0.2155 -0.6493,-0.39792c-0.00862,-0.07597 0.46264,-0.06768 0.61346,-0.25214c0.23927,-0.29265 0.20715,-0.91242 0.4421,-0.93048c0.2024,-0.01556 0.15624,0.75741 0.39847,0.98997c0.20922,0.20087 0.56715,0.11118 0.55021,0.21616z" fill="url(#color-37)"/></g></g></g></svg>