<svg version="1.1" xmlns="http://www.w3.org/2000/svg" xmlns:xlink="http://www.w3.org/1999/xlink" width="178.17373" height="235.12038" viewBox="0,0,178.17373,235.12038"><defs><linearGradient x1="272.77942" y1="6.06733" x2="272.77942" y2="263.17258" gradientUnits="userSpaceOnUse" id="color-1"><stop offset="0" stop-color="#000000"/><stop offset="1" stop-color="#000000" stop-opacity="0"/></linearGradient></defs><g transform="translate(-184.31064,4.43774)"><g data-paper-data="{&quot;isPaintingLayer&quot;:true}" fill-rule="nonzero" stroke-linecap="butt" stroke-linejoin="miter" stroke-miterlimit="10" stroke-dasharray="" stroke-dashoffset="0" style="mix-blend-mode: normal"><path d="M327.83298,180.58215c0.09545,2.70468 -8.58563,10.16516 -53.80589,10.16516c-45.22026,0 -57.8457,-6.36838 -57.86083,-10.72226c-0.01307,-3.75893 11.70481,-8.77237 56.92507,-8.77237c45.22026,0 54.65432,6.85543 54.74165,9.32947z" fill="url(#color-1)" stroke="none" stroke-width="0"/><text transform="translate(216.53566,38.62879) scale(0.41166,0.41166)" font-size="40" xml:space="preserve" fill="#000000" fill-rule="nonzero" stroke="#000000" stroke-width="1" stroke-linecap="butt" stroke-linejoin="miter" stroke-miterlimit="10" stroke-dasharray="" stroke-dashoffset="0" font-family="Handwriting" font-weight="normal" text-anchor="start" style="mix-blend-mode: normal"></text><text transform="translate(254.4613,211.87425) scale(0.46015,0.46015)" font-size="40" xml:space="preserve" fill="#000000" fill-rule="nonzero" stroke="#000000" stroke-width="1" stroke-linecap="butt" stroke-linejoin="miter" stroke-miterlimit="10" stroke-dasharray="" stroke-dashoffset="0" font-family="Handwriting" font-weight="normal" text-anchor="start" style="mix-blend-mode: normal"></text><text transform="translate(220.4613,14.76182) scale(0.49869,0.49869)" font-size="40" xml:space="preserve" fill="#000000" fill-rule="nonzero" stroke="#000000" stroke-width="2" stroke-linecap="butt" stroke-linejoin="miter" stroke-miterlimit="10" stroke-dasharray="" stroke-dashoffset="0" font-family="Handwriting" font-weight="normal" text-anchor="start" style="mix-blend-mode: normal"></text><g><g stroke="none" stroke-width="1.15473"><path d="M227.00567,103.78458c-1.29467,1.41648 -2.94355,0.94375 -4.71093,1.65042c-4.47384,1.82675 -8.00711,1.35558 -12.48409,-0.46946c-3.00116,-1.47427 -2.35381,-6.24453 0.23724,-8.24745c3.06206,-2.35224 6.00558,-1.29312 9.89301,-1.41165c2.65025,-0.05934 4.35845,-1.11679 6.83252,-0.23394c3.17902,1.17442 2.53171,6.24283 0.23224,8.71206z" fill="#fff4e5"/><path d="M207.44355,104.69383c-0.62751,-1.07242 -1.176,-3.83309 -0.71482,-5.0075c2.9682,-7.55576 14.16745,-5.57251 20.45152,-5.43416v0.50412c-4.70937,1.92888 -11.83502,0.20257 -15.8032,2.93196c-1.16786,0.80225 -2.83969,2.43128 -2.47238,4.02738c1.8761,-1.55485 7.98399,-2.90074 7.62808,-2.26652c-1.12165,0.78414 -4.5593,3.27305 -6.60515,3.84121c0.95047,0.85661 2.37695,1.49736 3.90384,1.8992c2.06397,-1.75585 6.24452,-3.599 7.05818,-3.52824c0,0 -2.21544,2.25825 -4.33376,3.98457c1.26498,0.09714 2.43129,0.02311 3.25821,-0.24051c2.21374,-0.69997 4.14263,-1.98151 6.50801,-2.57291c5.62358,3.13469 -14.17403,9.86679 -18.87854,1.86141z" fill="#272525"/></g><path d="M348.42205,120.56629c-6.66739,1.6059 -19.90924,4.18721 -25.71864,-4.71081c-0.80178,-1.53646 -7.73685,-8.71977 -7.73685,-7.43724c0,0 -1.07884,6.99078 1.98371,12.2543c2.24722,3.86223 5.69971,3.97646 5.14227,4.31093c-0.08276,0.39598 -8.09158,4.29225 -8.83573,4.29608c-0.59231,0.13654 -2.51624,-0.48698 -4.36409,-0.65615c-0.36135,-0.20382 -8.23731,10.96005 -29.11352,12.58876c-18.06865,-0.87351 -21.34786,-13.45374 -32.99795,-16.77365c-13.52114,-3.85309 -22.7172,0.03459 -21.45545,-26.03448c-0.88821,-14.10009 35.88931,-6.54532 54.24093,-5.60317c8.4393,0.81927 14.01389,-13.96999 25.37793,-22.08824c24.96119,-18.01951 54.2661,4.60173 41.62318,27.85506c-1.73738,4.33825 3.62077,21.3487 1.62031,22.1255" fill="#fff4e5" stroke="#272525" stroke-width="2.5"/><path d="M281.7989,94.10035c0.96148,-0.4038 8.97965,-4.90214 14.42712,-14.55469c5.4473,-9.65272 27.3839,-15.41125 27.3839,-15.41125c7.79881,1.99349 34.06971,9.24979 20.55129,35.73149c0.54356,1.31605 -6.8355,-8.77188 -12.0085,-7.32897c-7.17882,0.99228 -11.31972,0.86185 -16.85256,9.45101c-4.44029,0.98234 -6.23582,-16.06478 -14.09467,-9.42178c-2.0039,8.48829 8.8483,21.46541 3.70511,25.0259c-10.41603,7.21057 -13.62133,1.44204 -16.18438,0.15951c-2.56321,-1.28253 -10.24887,-6.08958 -23.48255,-0.11307c-15.56493,6.30971 -23.09672,-4.34511 -23.09672,-4.34511c0,0 -8.48698,-7.27543 -9.78993,-11.24493c-1.1714,-3.56875 0.9951,-10.70015 0.9951,-10.70015c8.8123,-1.2827 47.48548,3.15584 48.44678,2.75204z" fill="#f3d3a9" stroke="none" stroke-width="1.15473"/><path d="M345.32288,95.08029c-0.72885,12.62524 -14.31356,4.78973 -10.52943,-3.27858c2.84961,-6.0799 10.90045,-3.20731 10.52943,3.27858z" fill="#272525" stroke="none" stroke-width="1.15473"/><path d="M342.80579,97.22805c-2.92073,5.3474 -10.12746,-1.60757 -5.83962,-5.42632c3.83991,-3.41679 7.42405,2.52675 5.83962,5.42632z" fill="#ffffff" stroke="none" stroke-width="1.15473"/><path d="M341.01906,93.24939c0.76592,0 1.45747,0.31003 1.95828,0.81367c0.5039,0.5008 0.81394,1.19236 0.81394,1.95853c0,0.76592 -0.31004,1.45748 -0.81394,1.95828c-0.50081,0.5039 -1.19236,0.81392 -1.95828,0.81392c-0.76616,0 -1.45773,-0.31002 -1.95853,-0.81392c-0.50365,-0.5008 -0.81367,-1.19237 -0.81367,-1.95828c0,-0.76618 0.31004,-1.45773 0.81367,-1.95853c0.50081,-0.50365 1.19236,-0.81367 1.95853,-0.81367z" fill="#272525" stroke="none" stroke-width="1.15473"/><path d="M330.35534,101.41804c-3.16562,12.13091 -20.58098,0.70855 -14.7631,-8.32346c6.11468,-9.48861 17.1519,-0.82519 14.7631,8.32346z" fill="#272525" stroke="none" stroke-width="1.15473"/><path d="M321.82514,91.15589c3.73586,0.17006 7.46332,3.33901 6.43474,9.39191c-1.21351,7.12986 -11.63572,2.36886 -11.20395,-5.34105c0.11665,-2.14554 2.14364,-4.17097 4.7692,-4.05086z" fill="#ffffff" stroke="none" stroke-width="1.15473"/><path d="M325.1159,94.26709c1.15983,0 2.21174,0.47064 2.97539,1.23199c0.76115,0.76365 1.23179,1.81557 1.23179,2.97538c0,1.15984 -0.47065,2.21176 -1.23179,2.97539c-0.76365,0.76138 -1.81557,1.23199 -2.97539,1.23199c-1.16005,0 -2.21196,-0.47063 -2.97562,-1.23199c-0.76115,-0.76365 -1.23178,-1.81558 -1.23178,-2.97539c0,-1.15984 0.47063,-2.21175 1.23178,-2.97538c0.76365,-0.76138 1.81557,-1.23199 2.97562,-1.23199z" fill="#272525" stroke="none" stroke-width="1.15473"/><g stroke="none" stroke-width="1.15473"><path d="M232.90171,82.17682c0.15951,1.496 0.32686,3.1227 0.63643,4.64951l2.45165,5.40118c3.36499,5.64929 0.8326,4.92626 -1.81137,6.36848c-2.64381,1.44204 -5.85695,-0.52687 -5.85695,-0.52687c-0.8211,-0.46343 -3.54384,-5.11859 -3.54384,-5.11859v0c-0.54019,-0.4173 -1.07287,-0.86341 -1.49982,-1.43256c-3.29956,-4.26286 -4.7416,-7.35476 -5.49925,-12.64655c-1.16913,-7.90661 0.96331,-15.05374 7.97405,-18.9744c9.55447,-5.36087 18.97257,-5.08978 30.1078,-0.4058c-4.94758,2.06132 -11.34089,3.84757 -16.90941,7.2875c-5.56852,3.4361 -6.80492,8.93553 -6.04926,15.39809z" fill="#fff4e5"/><path d="M236.55311,90.20081c0,0 2.60167,3.72451 1.44604,4.51863c-1.15563,0.79412 -2.48827,0.175 -3.83806,-2.60534c-0.00183,-0.00383 -0.00184,-0.00766 -0.00384,-0.00965c-3.19764,-5.21851 -4.00526,-14.67123 -2.26115,-19.60134c2.36505,-6.69154 11.91387,-12.46571 21.45302,-12.77144c-9.61042,-4.28034 -23.98542,-3.58047 -30.63466,5.59151c-4.4129,6.08574 -2.91307,16.14992 1.00178,22.20302c0.93067,1.43639 2.27864,3.81109 4.41872,7.42986c0.00965,0.01731 2.44399,3.08225 1.00561,3.57448c-1.49017,0.51155 -2.99966,-2.19004 -3.79179,-3.13221c-6.49153,-7.7261 -11.04481,-17.41129 -7.81053,-26.48902c7.57208,-21.2492 32.31317,-14.6674 41.98887,-9.01228c-9.11604,1.51515 -20.2839,6.11655 -23.95663,12.60607c-2.90341,5.13192 -2.27463,12.79058 0.98262,17.69771z" fill="#272525"/></g><path d="M349.32945,123.01879c-4.52799,3.08364 -15.90697,1.83816 -13.86284,-5.667c1.69835,-6.23716 16.63725,-9.09318 17.57194,-1.11251c0.34496,2.95312 -1.3682,5.18366 -3.7091,6.77953z" fill="#272525" stroke="none" stroke-width="1.15473"/><path d="M349.77212,117.16833c-0.67064,4.7631 -8.22348,5.23278 -11.35532,2.74141c-0.81115,-0.6456 -1.3362,-1.63523 -1.00635,-2.60029c1.70541,-4.99699 13.13157,-5.61425 12.36168,-0.1411z" fill="#8b4cb1" stroke="none" stroke-width="1.15473"/><g stroke="none" stroke-width="1.15473"><path d="M360.39394,144.79361c-10.99472,19.62451 -40.8656,-5.58167 -58.11182,-12.81687c-0.14696,-0.0619 -6.76743,-5.5049 0.69151,-8.38592c5.0205,-1.93914 14.67748,4.41417 15.65783,3.80785c14.9546,4.36761 48.67541,5.05231 41.76249,17.39491z" fill="#fff4e5"/><path d="M362.04585,145.92424c-1.14076,3.57586 -6.03107,6.61888 -9.57006,7.17675c-4.41257,0.69644 -8.66824,0.49104 -12.90553,-0.87015c-8.11356,-2.60549 -32.43296,-14.14969 -37.31143,-18.5021c-0.03182,-0.0285 -1.60171,-1.31273 -0.58462,-2.32155c0.70483,-0.69817 3.08148,0.8885 3.08148,0.8885c6.90945,4.13039 14.72699,6.82654 21.74161,10.77976c5.8105,3.27356 16.19683,8.34518 24.64955,6.63992c-3.00802,-1.58494 -6.25364,-5.23243 -5.44699,-5.28261c1.86061,0.75328 8.37753,3.26184 9.25446,5.21098c1.28437,-0.55614 2.44001,-1.31273 3.39202,-2.33995c1.46807,-1.57987 1.55167,-3.23177 0.89357,-4.78171c-2.8576,0.41756 -10.05603,-3.00122 -10.75594,-4.00167c0,0 5.27782,0.4125 8.80854,1.2793c-1.86726,-1.85715 -4.44426,-3.32361 -6.19466,-3.94655c-8.87854,-3.17 -34.1365,-8.07192 -36.54166,-9.06397c0,0 -2.24969,-0.42595 -1.69356,-1.61009c0.55628,-1.18414 2.35006,-0.25223 2.35006,-0.25223l2.13441,0.314l-0.0201,0.01012c7.78971,1.1691 15.61285,2.62212 23.32736,4.14357c7.09819,1.39806 24.83373,5.74715 21.39153,16.5297z" fill="#272525"/></g><path d="M334.76252,168.71937c-3.20355,5.03257 -8.85054,5.30612 -14.75819,4.4629c-13.61734,-1.94738 -23.45658,-17.67848 -37.18755,-29.86518c-4.97478,-4.39554 -8.40711,-7.70316 -12.78351,-10.37859c-0.29447,-6.0709 9.1784,-6.94308 11.81227,-6.15571c4.80046,1.43369 9.78175,6.56061 13.55012,8.94644c-0.23044,0.04961 1.71526,2.14096 4.18437,3.41472c7.40384,3.82269 20.99552,8.9496 27.85863,15.04298c4.59716,4.0803 10.58326,9.32404 7.32388,14.53246z" fill="#fff4e5" stroke="none" stroke-width="1.15473"/><path d="M335.35451,170.45722c-2.83382,4.18284 -9.60244,5.77657 -14.38058,4.8613c-12.26513,-2.35062 -25.49028,-17.36962 -33.68954,-26.18647c-4.70442,-5.06292 -17.45594,-13.95807 -17.53756,-14.01573c-2.03536,-1.43216 -3.44037,-3.32189 -3.1987,-4.43074c0.32634,-1.49298 3.47875,0.72959 3.47875,0.72959l0.0607,0.06402c8.42667,5.14839 15.89741,12.3779 23.21543,19.63963c7.15914,7.1041 14.15621,14.24696 23.17619,18.79375c1.34402,0.67679 2.81619,1.61512 4.68998,1.91112c-1.57765,-2.86418 -2.76981,-8.58793 -2.09619,-8.21033c1.00979,1.44339 4.38599,5.55118 4.70762,7.87936c2.22743,0.06402 3.84867,-0.42183 5.45999,-1.28918c0.47836,-0.25761 0.59166,-0.67041 1.03483,-1.15681c-2.50901,-1.05772 -5.66586,-6.94395 -5.70271,-8.12156c0,0 5.44612,4.17971 7.01907,6.74319c0.30569,-0.54085 0.91573,-1.08975 1.0309,-1.58584c0.85443,-3.69949 -3.1929,-5.7776 -5.80917,-8.0994c-7.39746,-6.5735 -16.02123,-11.97302 -24.78528,-16.43895c-1.26406,-0.64173 -8.82157,-4.51402 -9.39443,-5.05016c-0.45771,-0.43206 0.09602,-1.30729 0.48805,-1.52805c0.07844,-0.04489 0.38399,-0.15686 0.83366,-0.31054c2.3394,0.44496 4.67242,1.92187 6.28056,2.72836c7.67917,3.93632 29.59318,14.24283 34.56324,21.74922c2.08027,3.13938 2.74112,8.09503 0.55527,11.32421z" fill="#272525" stroke="none" stroke-width="1.15473"/><g stroke="none" stroke-width="1.15473"><path d="M246.44628,121.15777c-4.78047,0.49697 -9.72868,1.5046 -15.31141,2.79562c-6.79235,1.57762 -26.56354,8.55139 -32.99275,8.73459c-6.1849,0.18143 -13.342,-2.54968 -13.342,-8.73459c0,-6.12569 9.0384,-9.33853 15.16217,-10.06792c12.68549,-1.53355 18.55997,-2.94664 30.87906,-3.02303c0.25444,0.08828 0.53093,0.13751 0.84647,0.08652c5.36222,-0.86337 9.93232,1.11795 12.91274,5.57434c0.60217,0.90406 1.374,2.70221 1.84572,4.63444z" fill="#fff4e5"/><path d="M243.62348,124.22987c-22.97902,2.69043 -44.42629,13.91537 -53.64096,9.1706c-2.88891,-1.48611 -5.73358,-5.75079 -5.67086,-9.0553c0.23915,-12.39196 28.12412,-14.54971 42.30747,-14.24091c0.53605,-0.01367 1.64374,-0.02555 3.63182,-0.03055c7.79146,-0.0238 2.1986,1.47244 0.86689,1.80327c-0.08139,0.02367 -0.17468,0.04231 -0.26296,0.06436l-0.005,0.00174c-6.66673,1.60304 -31.18432,1.46907 -39.61202,6.80411c-3.26205,2.06624 -3.99143,4.98568 -3.07032,7.50983c1.2434,-2.20874 10.72956,-4.37662 10.23243,-3.48607c-1.65048,1.15013 -7.25201,5.20959 -9.46235,5.00097c1.06875,1.56058 2.82794,2.80061 4.99582,3.36561c1.77948,-2.47331 8.78719,-5.66923 9.9899,-5.56244c0,0 -3.75919,3.82865 -6.73622,6.01197c8.2833,0.38327 18.48533,-4.13584 25.86279,-6.50735c6.00346,-1.92872 12.80418,-3.61668 19.76444,-4.56996c0.0238,-0.00338 0.04582,-0.01703 0.06788,-0.0204c1.44013,-0.20522 6.31388,-1.62508 6.87874,0.21214c0.56661,1.83706 -6.13583,3.52662 -6.13744,3.52837zM229.66403,110.21446c0.00851,0 0.01703,0 0.02541,0v0c0,0 -0.00837,0 -0.02541,0z" fill="#272525"/></g><path d="M323.21288,65.7735c1.00021,-3.56911 13.05347,-30.01381 19.65937,-29.09539c5.09344,0.70812 5.18468,37.19831 3.852,40.95497c-2.5543,-0.09287 -7.48506,-7.52463 -11.65191,-9.56656c-4.82707,-2.36546 -11.285,-2.2943 -11.85945,-2.29301z" fill="#272525" stroke="none" stroke-width="0"/><path d="M343.34416,70.86305c-0.34096,0.53087 -4.13134,-4.04564 -7.99932,-5.76835c-3.07186,-1.36817 -7.16224,-1.02721 -7.19796,-2.15529c1.20675,-6.65763 10.31592,-20.63922 13.19646,-19.67903c3.95451,1.31817 3.21075,25.71884 2.00081,27.60266z" fill="#ffd8d8" stroke="none" stroke-width="0"/><path d="M299.22232,79.92787c-1.51601,-3.68653 -1.96448,-37.10346 3.0879,-38.06145c6.55268,-1.24244 19.89308,24.57685 21.06777,28.0924c-1.06916,0.05029 -18.65888,9.49746 -24.15568,9.96905z" data-paper-data="{&quot;index&quot;:null}" fill="#272525" stroke="none" stroke-width="0"/><path d="M304.00587,48.08692c2.7884,-1.0847 15.4571,16.64765 15.57572,23.38549c0.04422,2.51204 -15.60171,8.7371 -16.24998,7.82934c-1.28215,-1.79533 -3.15372,-29.7257 0.67429,-31.21483z" data-paper-data="{&quot;index&quot;:null}" fill="#ffd8d8" stroke="none" stroke-width="0"/></g><text transform="translate(272.83333,225.69075) scale(0.29364,0.29364)" font-size="40" xml:space="preserve" fill="#000000" fill-rule="nonzero" stroke="none" stroke-width="1" stroke-linecap="butt" stroke-linejoin="miter" stroke-miterlimit="10" stroke-dasharray="" stroke-dashoffset="0" font-family="Handwriting" font-weight="normal" text-anchor="start" style="mix-blend-mode: normal"></text></g></g></svg>