<svg version="1.1" xmlns="http://www.w3.org/2000/svg" xmlns:xlink="http://www.w3.org/1999/xlink" width="87.49864" height="187.41711" viewBox="0,0,87.49864,187.41711"><defs><linearGradient x1="240.42047" y1="80.73266" x2="240.42047" y2="226.62959" gradientUnits="userSpaceOnUse" id="color-1"><stop offset="0" stop-color="#000000"/><stop offset="1" stop-color="#000000" stop-opacity="0"/></linearGradient><linearGradient x1="241.6314" y1="57.90737" x2="241.6314" y2="89.55833" gradientUnits="userSpaceOnUse" id="color-2"><stop offset="0" stop-color="#500065" stop-opacity="0"/><stop offset="1" stop-color="#500065"/></linearGradient><linearGradient x1="242.11087" y1="44.98323" x2="242.11087" y2="177.91724" gradientUnits="userSpaceOnUse" id="color-3"><stop offset="0" stop-color="#00b9ff"/><stop offset="1" stop-color="#00b9ff" stop-opacity="0"/></linearGradient></defs><g transform="translate(-200.0057,-18.65869)"><g data-paper-data="{&quot;isPaintingLayer&quot;:true}" stroke-linejoin="miter" stroke-miterlimit="10" stroke-dasharray="" stroke-dashoffset="0" style="mix-blend-mode: normal"><path d="M270.12039,179.76288c0.05149,1.5348 -4.63171,5.76833 -29.02684,5.76833c-24.39513,0 -31.20621,-3.61379 -31.21437,-6.08446c-0.00705,-2.13305 6.31443,-4.97797 30.70955,-4.97797c24.39513,0 29.48455,3.89018 29.53166,5.2941z" fill="url(#color-1)" fill-rule="nonzero" stroke="none" stroke-width="0" stroke-linecap="butt"/><text transform="translate(225.12803,201.22801) scale(0.28942,0.28942)" font-size="40" xml:space="preserve" fill="#000000" fill-rule="nonzero" stroke="#000000" stroke-width="0.5" stroke-linecap="butt" stroke-linejoin="miter" stroke-miterlimit="10" stroke-dasharray="" stroke-dashoffset="0" font-family="Handwriting" font-weight="normal" text-anchor="start" style="mix-blend-mode: normal"></text><text transform="translate(200.15719,30.17117) scale(0.30296,0.30296)" font-size="40" xml:space="preserve" fill="#000000" fill-rule="nonzero" stroke="#000000" stroke-width="1" stroke-linecap="butt" stroke-linejoin="miter" stroke-miterlimit="10" stroke-dasharray="" stroke-dashoffset="0" font-family="Handwriting" font-weight="normal" text-anchor="start" style="mix-blend-mode: normal"></text><text transform="translate(216.27142,46.30703) scale(0.23622,0.23622)" font-size="40" xml:space="preserve" fill="#000000" fill-rule="nonzero" stroke="#000000" stroke-width="1" stroke-linecap="butt" stroke-linejoin="miter" stroke-miterlimit="10" stroke-dasharray="" stroke-dashoffset="0" font-family="Handwriting" font-weight="normal" text-anchor="start" style="mix-blend-mode: normal"></text><g stroke="none" stroke-linecap="butt"><path d="M214.06869,89.29457l0.26376,-30.85968l54.07038,-0.52752l0.79127,31.65096c0,0 -14.60815,-8.9353 -27.68401,-8.2159c-13.08593,0.71997 -27.4414,7.95214 -27.4414,7.95214z" fill="url(#color-2)" fill-rule="nonzero" stroke-width="0"/><path d="M228.27292,169.50358c14.94212,-5.5208 30.37749,-1.55553 41.99284,9.06252c-8.59548,-0.28518 -46.39826,0.03556 -57.22009,0.63675c4.76496,-4.89671 8.89463,-7.35951 15.22725,-9.69927z" fill="#0077b8" fill-rule="nonzero" stroke-width="1"/><path d="M236.13171,167.46831c-0.45626,0.0694 -0.91382,0.14811 -1.3694,0.23488c0.46383,-0.08982 0.92139,-0.16853 1.3694,-0.23488z" fill="#74b140" fill-rule="evenodd" stroke-width="1"/><path d="M236.74402,167.71814c-0.19391,-0.10942 -0.39597,-0.19566 -0.6034,-0.25752c0.36325,-0.05487 0.72529,-0.10489 1.08612,-0.15005l0.00991,-0.00366c0.36353,-0.04396 0.72477,-0.08265 1.087,-0.11731c-0.01145,0.14827 -0.0419,0.29339 -0.09023,0.43005c-0.10146,0.28214 -0.32118,0.6322 -0.59495,0.66063c-0.32625,0.03458 -0.60953,-0.39192 -0.89445,-0.56215z" fill="#74b140" fill-rule="evenodd" stroke-width="1"/><path d="M251.90231,168.92349c-0.28279,-0.20132 -0.53153,-0.46702 -0.73283,-0.78276c0.36354,0.08756 0.72511,0.18171 1.08471,0.28248c2.51731,0.69956 4.98363,1.65031 7.37425,2.84273c0.38689,0.19206 0.7722,0.38985 1.15591,0.59337c0.00744,0.42307 -0.09035,0.83892 -0.28037,1.19237c-0.2967,0.54161 -0.52215,0.55439 -0.91479,0.42175c0.08155,0.22587 0.18589,0.43832 0.31061,0.6324c0.12117,0.24436 0.18968,0.5224 0.1991,0.80805c0.00899,0.56973 -0.22501,1.11021 -0.4928,1.55739c-0.38801,0.64906 -0.90102,1.48236 -1.38876,2.02344c-2.42604,-0.05105 -4.84392,-0.07627 -7.20823,-0.05411c1.01372,-1.19033 1.65566,-3.09548 1.79228,-4.83075c0.00523,-0.14226 0.08324,-0.26496 0.19456,-0.30608c0.11132,-0.04112 0.23173,0.00827 0.30034,0.12324c0.33226,0.66187 0.51069,1.44448 0.89572,2.06481c0.18399,0.33221 0.45588,0.57658 0.76984,0.69194c0.31221,0.07639 0.53844,-0.20335 0.78674,-0.40088c0.86164,-0.68863 2.04524,-1.67034 1.70878,-3.15276c-0.32056,-1.4398 -1.67451,-0.60893 -2.5129,-0.7025c-0.69512,-0.0892 -1.3231,-0.57789 -1.29755,-1.50421c0.00898,-0.33613 0.14245,-0.75131 -0.12061,-0.99354c-0.17545,-0.11622 -0.36967,-0.18368 -0.56883,-0.19756c-0.36202,-0.0668 -0.72599,-0.09763 -1.0552,-0.3088z" fill="#74b140" fill-rule="evenodd" stroke-width="1"/><path d="M217.13779,175.5076l-0.00442,0.02588c1.11656,0.92309 2.97152,1.06643 3.01014,3.11512c0.00019,0.10227 -0.03749,0.19915 -0.10245,0.26341c-0.06497,0.06426 -0.15023,0.08901 -0.23183,0.06728c-0.10153,-0.01758 -0.2042,-0.03255 -0.30737,-0.04953l0.02247,0.16461c-2.25709,0.14606 -4.51452,0.28403 -6.77247,0.40949c1.39549,-1.43293 2.85974,-2.76756 4.38593,-3.99626z" fill="#74b140" fill-rule="evenodd" stroke-width="1"/><path d="M227.29151,170.43296c0.03421,-0.18166 -0.00834,-0.37223 -0.11328,-0.50728c0.36225,-0.15147 0.72682,-0.28618 1.09469,-0.4221c0.34202,-0.12637 0.6866,-0.24486 1.03371,-0.35548c0.10888,-0.04023 0.2194,-0.08106 0.32993,-0.1219c0.24004,-0.07767 0.48173,-0.15594 0.72278,-0.22957c0.15046,-0.04677 0.30342,-0.08345 0.45023,-0.1377c0.26298,-0.07954 0.5121,-0.14954 0.76833,-0.21997c0.20855,-0.05942 0.41691,-0.11216 0.62481,-0.16693l0.27158,-0.05186c0.76369,-0.19253 1.52846,-0.36123 2.29431,-0.50608c-0.09813,0.18613 -0.09155,0.41733 0.13472,0.67094c0.22627,0.25362 0.54781,0.28027 0.83764,0.28779c0.55456,0.0155 1.63,-0.23638 1.9886,0.48849c0.29291,0.59706 -0.25486,1.12786 -0.65601,1.31134c-0.30956,0.1181 -0.63039,0.18626 -0.95436,0.20274c0.80594,0.66317 1.88311,1.75509 2.19781,0.05193c0.08106,-0.52846 0.31262,-1.00453 0.6535,-1.34346c0.4061,-0.44097 0.59551,-0.87022 0.51872,-1.54713c-0.02919,-0.24165 -0.07466,-0.4799 -0.13592,-0.71237c0.7895,-0.05367 1.58004,-0.08128 2.36679,-0.08765c0.06486,0.00027 0.12973,0.00056 0.19244,-0.00057c0.23387,-0.00045 0.46823,0.00111 0.70144,0.00531c0.0817,0.00287 0.17545,0.0035 0.2626,0.00657c0.34759,0.00822 0.69618,0.02049 1.04247,0.038l0.51333,0.03073l0.47619,0.03345c0.20782,0.01799 0.41728,0.03537 0.62559,0.05538c0.12347,0.01169 0.24644,0.02135 0.36826,0.03364c-0.05801,0.19555 -0.11536,0.38646 -0.17191,0.56603c-0.61055,1.883 -1.86073,3.70479 -3.58188,3.89993c0.11149,0.45251 0.50891,0.7068 0.90898,0.70885c0.51297,0.00002 0.98536,-0.36187 1.41606,-0.66647c0.07173,-0.05434 0.15989,-0.06517 0.23902,-0.02941c0.07913,0.03578 0.14038,0.11417 0.16607,0.21254c0.09266,0.77043 0.59144,1.37213 1.22191,1.47401c0.63048,0.10188 1.23964,-0.32079 1.49232,-1.03543c0.03979,-0.09001 0.11134,-0.15245 0.19381,-0.16912c0.08247,-0.01668 0.16661,0.01426 0.22792,0.08382c0.66538,1.00386 1.71894,1.49434 2.76089,1.28533c0.09235,-0.03049 0.19101,-0.00018 0.26067,0.08009c0.06966,0.08026 0.10038,0.19902 0.08114,0.31376c-0.10577,1.16313 -0.56475,3.66049 -1.3391,4.46234c-0.34591,0.36075 -10.57769,0.26945 -11.64421,0.34313c-0.15927,-0.22133 -0.2751,-0.48985 -0.42118,-0.74102c-0.32536,-0.56083 -0.98427,-1.102 -1.49913,-0.53268c-0.0673,0.08409 -0.16553,0.11919 -0.2592,0.09258c-0.09367,-0.02661 -0.16926,-0.11106 -0.19946,-0.22286c-0.40133,-1.19792 -1.18625,-2.14192 -2.17157,-2.61168c-0.20649,-0.10361 -0.16189,-0.43322 -0.01692,-0.57006c-0.32409,0.14194 -0.63196,0.40359 -0.96404,0.48952c-0.33709,0.07832 -0.68567,0.02784 -0.99854,-0.1446c-0.80858,-0.41093 -1.26927,-1.33832 -1.9199,-1.99937c-1.53545,-1.56397 -3.17892,1.03568 -4.86123,0.38775c-0.08102,-0.02523 -0.14819,-0.09439 -0.18241,-0.18777c-0.03422,-0.09339 -0.03177,-0.20081 0.00668,-0.2917c0.32055,-0.60564 0.7868,-1.0744 1.3343,-1.34154c0.33352,-0.15849 0.70427,-0.11476 1.02674,-0.26695c0.14265,-0.06512 0.24906,-0.21361 0.28327,-0.39527zM233.56664,174.18289c0.00616,-0.0027 0.01233,-0.00536 0.0185,-0.00795c-0.00573,0.00093 -0.01131,0.00299 -0.0165,0.00609c-0.00066,0.00062 -0.00133,0.00123 -0.00199,0.00186z" fill="#74b140" fill-rule="nonzero" stroke-width="1"/><path d="M222.36249,174.74215c-0.01231,-0.59053 -0.10877,-1.14998 0.10325,-1.7066c0.13948,-0.36891 0.35468,-0.64238 0.3619,-1.06602c0.32738,-0.17606 0.65577,-0.34809 0.98844,-0.51729c-0.00564,0.24012 -0.0314,0.47886 -0.05029,0.67979c-0.04177,0.43857 -0.11578,0.87165 -0.22114,1.29393c-0.09491,0.37448 -0.27219,0.75075 -0.32863,1.13527c-0.07361,0.51208 0.13879,1.00885 0.26105,1.49044c0.12225,0.48159 0.22422,0.96848 0.31844,1.46042c0.04688,0.25598 -0.17604,0.55654 -0.38686,0.38759c-0.43022,-0.34356 -0.9092,-0.74625 -1.10754,-1.35401c-0.20382,-0.62998 0.06931,-1.16509 0.06139,-1.80353z" fill="#74b140" fill-rule="evenodd" stroke-width="1"/><path d="M222.11417,178.37292c0.02819,0.12683 0.04724,0.26534 0.05324,0.40337c-0.34493,0.02373 -0.68986,0.04735 -1.0348,0.07084c-0.14174,-0.39203 -0.32649,-0.7402 -0.4892,-1.14741c-0.12574,-0.28208 -0.15818,-0.61252 -0.09065,-0.92305c-0.01202,-0.09724 0.00848,-0.19632 0.05691,-0.2748c0.04844,-0.07847 0.12067,-0.12968 0.20035,-0.14204c0.10853,-0.03185 0.22267,0.01014 0.29888,0.10996c0.24146,0.11798 0.52646,0.23748 0.66263,0.49793c0.19887,0.37615 0.2485,0.97933 0.34263,1.4052z" fill="#74b140" fill-rule="evenodd" stroke-width="1"/><path d="M261.54969,172.25536c0.46972,0.25549 0.93548,0.52419 1.39731,0.80612c-0.04105,0.06325 -0.08697,0.12156 -0.13709,0.17409c-0.47468,0.50599 -1.01545,0.18123 -1.18319,-0.49954c-0.03549,-0.15763 -0.06124,-0.31831 -0.07702,-0.48067z" fill="#74b140" fill-rule="evenodd" stroke-width="1"/><path d="M263.65223,174.33333c-0.06934,-0.10464 -0.08085,-0.24994 -0.02919,-0.36891c0.04409,-0.13604 0.07875,-0.27641 0.1036,-0.41958c0.32903,0.2105 0.65725,0.42497 0.98466,0.64343c-0.0396,0.01463 -0.07917,0.02926 -0.12207,0.04511c-0.21645,0.07115 -0.43374,0.13161 -0.64819,0.21085c-0.10573,0.03742 -0.21947,-0.00625 -0.28881,-0.11088z" fill="#74b140" fill-rule="evenodd" stroke-width="1"/><path d="M265.22157,174.5353c0.38887,0.27068 0.77592,0.54863 1.16018,0.82984c0.02247,0.01815 0.04494,0.03628 0.06856,0.0518c0.35039,0.26065 0.69685,0.52716 1.04264,0.79833l0.15199,0.12016c0.32856,0.2621 0.65756,0.52845 0.98701,0.79904l0.11119,0.09336c0.3571,0.30004 0.71082,0.60575 1.0611,0.91712c0.00779,0.13477 0.02079,0.27059 0.03509,0.4069c-0.54746,-0.01838 -1.09852,-0.03723 -1.65257,-0.05632c-0.11461,-0.23265 -0.23995,-0.45759 -0.39677,-0.62904c-0.25453,-0.28064 -0.60179,-0.28016 -0.81991,-0.62494c-0.18457,-0.28886 -0.21341,-0.63967 -0.29653,-0.97702c-0.18162,-0.69329 -0.39754,-0.34241 -0.81509,-0.45922c-0.21188,-0.06295 -0.38851,-0.24138 -0.47926,-0.48413c-0.10875,-0.24413 -0.09642,-0.53743 -0.15763,-0.7859z" fill="#74b140" fill-rule="evenodd" stroke-width="1"/><path d="M264.27114,177.77814c0.00004,-0.11658 0.0495,-0.22479 0.13064,-0.28578c0.08114,-0.06099 0.18231,-0.06602 0.26723,-0.01331c0.1617,0.07926 0.31115,0.19175 0.44194,0.33262c0.16501,-0.43182 0.46995,-0.75946 0.84105,-0.90364c0.14294,-0.05161 0.2932,0.04709 0.33714,0.22146l0.3292,1.31196c-0.78181,-0.02689 -1.5684,-0.0537 -2.35818,-0.07966z" fill="#74b140" fill-rule="evenodd" stroke-width="1"/><path d="M213.01366,178.97227l1.31265,-89.6777c0,0 8.0421,-7.71268 27.55906,-7.92962c18.11244,-0.20133 27.5725,8.98465 27.5725,8.98465v87.04013z" fill="url(#color-3)" fill-rule="nonzero" stroke-width="0"/><path d="M269.89747,90.08584c0,1.45669 -13.95569,-8.08857 -28.13418,-8.08857c-14.1785,0 -27.60666,8.66607 -27.60666,7.20938c0,-1.45669 13.42816,-8.79193 27.60666,-8.79193c14.1785,0 28.13419,8.21444 28.13419,9.67112z" fill="#ff0000" fill-rule="nonzero" stroke-width="0"/><g fill-rule="nonzero" stroke-width="1"><g><g><path d="M228.93657,76.41411l-0.16568,-0.51789l-0.29904,-0.72387l-0.43003,-1.22621l-0.36934,-1.05319l-0.29242,-0.88213l-0.19932,-0.40219l-0.32198,-0.19558l-0.35022,-0.36274l-0.29478,-0.24947l0.00163,-0.70506l0.11309,-0.32861l0.52459,-0.93874l0.36057,-1.16325l0.13282,-0.21283l0.16387,-0.09457l0.94555,0.25272l0.58178,0.14816l0.45871,-0.0093l1.44929,-0.15077l1.50591,-0.04258l1.443,-0.06638l0.03445,0.43583l-0.12009,1.32189l-0.26081,1.0804l-0.5349,1.37589l-0.52744,0.99284l-0.8958,1.17547l-0.75296,0.87766l-0.57273,0.58346l-0.79583,0.72219l-0.53189,0.35884" fill="#f7ec1e"/><path d="M234.02348,67.33605c0.04368,0.16792 0.02672,0.38295 0.02831,0.55798c0.00152,0.17513 -0.00057,0.35092 -0.0134,0.52551c-0.01852,0.25141 -0.03775,0.50344 -0.07634,0.75242c-0.02961,0.18969 -0.05553,0.39115 -0.09919,0.57835c-0.0509,0.21941 -0.10722,0.45044 -0.17096,0.66934c-0.04029,0.13863 -0.06732,0.27834 -0.11604,0.41356c-0.03601,0.10013 -0.08731,0.1924 -0.12719,0.2921c-0.06218,0.15605 -0.12647,0.3123 -0.22644,0.44967c-0.00803,0.0109 -0.01612,0.02239 -0.02449,0.03385c0.00826,0.00516 0.01694,0.01012 0.02276,0.0165c0.04984,0.05406 -0.01613,0.08912 -0.03825,0.14051c-0.0641,0.1498 -0.12159,0.29713 -0.23028,0.42813c-0.12482,0.15048 -0.2117,0.33212 -0.31958,0.49714c-0.05751,0.08825 -0.11933,0.17503 -0.18932,0.25334c-0.01513,0.01689 -0.05846,0.0483 -0.1049,0.07244c0.00389,0.01069 0.00702,0.0226 0.00856,0.03779c0.01075,0.10834 -0.08711,0.20998 -0.14196,0.29789c-0.06689,0.10719 -0.13867,0.20994 -0.20529,0.31669c-0.19957,0.31979 -0.46582,0.58113 -0.71849,0.85922c-0.12733,0.14003 -0.25251,0.28124 -0.38441,0.41658c-0.05183,0.05338 -0.10819,0.09243 -0.16254,0.14101c-0.04835,0.04314 -0.10228,0.08786 -0.14553,0.1351c-0.05207,0.0572 -0.08512,0.1278 -0.14462,0.17975c-0.10863,0.09461 -0.20916,0.19855 -0.31986,0.29034c-0.16877,0.1402 -0.34115,0.27613 -0.51564,0.40908c-0.12955,0.0987 -0.26602,0.18787 -0.39681,0.28487c-0.05251,0.03902 -0.09202,0.09839 -0.1481,0.12891c-0.06281,0.03442 -0.13775,0.04659 -0.21638,0.0713c-0.01896,-0.05056 -0.03864,-0.08794 -0.04734,-0.12796c-0.05926,-0.27025 -0.18605,-0.50978 -0.31879,-0.74935c-0.05909,-0.10667 -0.07719,-0.23613 -0.11352,-0.35523c-0.01922,-0.06266 -0.03619,-0.12621 -0.05727,-0.18834c-0.04747,-0.13953 -0.09402,-0.27954 -0.14638,-0.41737c-0.0685,-0.1799 -0.14239,-0.35778 -0.21367,-0.53666c-0.05931,-0.14875 -0.12719,-0.29457 -0.17515,-0.4468c-0.05575,-0.17729 -0.08924,-0.36151 -0.14149,-0.53999c-0.03547,-0.12024 -0.08702,-0.23583 -0.13102,-0.35344c-0.03,-0.07995 -0.05876,-0.1602 -0.08944,-0.2398c-0.03368,-0.0873 -0.06882,-0.17473 -0.10839,-0.27442c0.00016,-0.00097 0.00034,-0.00178 0.00045,-0.00293c0.00539,-0.10822 -0.02219,-0.22048 -0.05823,-0.32608c-0.01253,-0.03659 -0.026,-0.0724 -0.03954,-0.10687c-0.02963,-0.07589 -0.10394,-0.24992 0.04481,-0.23637c0.07374,0.00669 0.14148,0.05508 0.16263,0.12568c0.01006,0.03368 -0.00719,0.06501 -0.00695,0.09822c0.00007,0.03448 0.01352,0.05067 0.02275,0.08322c0.05082,0.1788 0.09111,0.34798 0.14854,0.51055c0.11925,0.33723 0.25636,0.66814 0.37158,1.00668c0.12064,0.35462 0.22465,0.71479 0.33566,1.07258c0.09823,0.31645 0.18559,0.63561 0.35889,0.92422c0.10572,0.17618 0.19356,0.36386 0.27896,0.55124c0.0687,0.15063 0.09082,0.16351 0.22835,0.06184c0.10334,-0.07632 0.20181,-0.15905 0.30272,-0.23859c0.17101,-0.13496 0.35171,-0.25945 0.51109,-0.40718c0.12097,-0.11217 0.23657,-0.22997 0.35103,-0.34864c0.09189,-0.09526 0.20036,-0.15354 0.2941,-0.24244c0.05826,-0.05533 0.10766,-0.1269 0.16099,-0.18759c0.1113,-0.12661 0.24821,-0.24322 0.35978,-0.37074c0.14023,-0.16045 0.2869,-0.31551 0.421,-0.48208c0.09048,-0.11236 0.17666,-0.22618 0.26971,-0.33556c0.07534,-0.08859 0.12231,-0.20285 0.18879,-0.29836c0.05102,-0.07317 0.10277,-0.15536 0.17855,-0.20051c-0.01546,-0.08878 0.12064,-0.24997 0.15265,-0.30102c0.08038,-0.12831 0.16058,-0.25657 0.23986,-0.38558c0.0812,-0.13208 0.16112,-0.26481 0.24122,-0.39758c0.035,-0.05805 0.07269,-0.14887 0.12153,-0.22247c0.00483,-0.00724 0.01006,-0.01392 0.01508,-0.02074c-0.02715,-0.03179 -0.01945,-0.07918 0.00021,-0.13105c0.06686,-0.17532 0.14649,-0.35737 0.19891,-0.53557c0.04432,-0.15097 0.12783,-0.29339 0.17873,-0.44682c0.05579,-0.16814 0.09921,-0.34171 0.16275,-0.50655c0.04524,-0.11763 0.04574,-0.22463 0.06498,-0.3467c0.02944,-0.18673 0.09498,-0.36485 0.12452,-0.55198c0.02749,-0.17356 0.04833,-0.34821 0.0637,-0.52321c0.00755,-0.08544 0.03549,-1.01638 0.03857,-1.0169c-0.10345,0.01396 -0.18332,0.03255 -0.26359,0.03388c-0.12731,0.00213 -0.25474,-0.01097 -0.38211,-0.01117c-0.36771,-0.00065 -0.73581,-0.00581 -1.10313,0.00665c-0.11428,0.00383 -0.22815,0.02369 -0.34201,0.04402c-0.2263,-0.01067 -0.45197,-0.00471 -0.67871,0.01819c-0.02403,0.00245 -0.04029,0.01282 -0.0506,0.02689c-0.2761,0.01321 -0.55227,0.0302 -0.82787,0.05413c-0.2153,0.01855 -0.42961,0.0495 -0.64419,0.07768c-0.02228,0.00308 -0.04384,0.01137 -0.06521,0.02038c-0.06426,0.02694 -0.16928,0.00931 -0.23957,0.0155c-0.07799,0.00674 -0.15546,0.00508 -0.21805,-0.04867c-0.05001,-0.043 -0.02009,-0.10515 0.02899,-0.14309c0.04524,-0.03498 0.10702,-0.03561 0.16139,-0.03076c0.05875,0.00544 0.10539,0.00011 0.16467,-0.01051c0.00159,-0.00008 0.00266,-0.00033 0.0042,-0.0006c0.00422,-0.00088 0.00849,-0.00158 0.01264,-0.00235c0.00319,-0.00046 0.00593,-0.00165 0.00876,-0.00249c0.06021,-0.01309 0.1144,-0.02734 0.16823,-0.03217c0.24443,-0.0218 0.48997,-0.03388 0.73385,-0.06046c0.31071,-0.03385 0.6192,-0.09083 0.93055,-0.11418c0.26696,-0.02014 0.53614,-0.00338 0.80434,-0.00958c0.2098,-0.00483 0.41918,-0.02173 0.62892,-0.02966c0.17138,-0.00631 0.34295,-0.00531 0.5142,-0.0114c0.17006,-0.00592 0.33897,-0.03153 0.50722,-0.03306c0.12697,-0.00112 0.25142,-0.04086 0.37751,-0.04131z" fill="#30419a"/></g><g><path d="M227.04601,71.6744l-0.48843,0.0633l-0.55935,-0.15345l-0.03705,-0.3799l0.15706,-0.32796l0.77759,0.60036l0.15017,0.19765" fill="#f7ec1e"/><path d="M225.89345,71.73377l0.13047,-0.05283l0.36307,0.14592l0.54801,-0.04939l0.18188,0.1135l-0.02411,0.59123l-0.12501,0.75464l-0.14161,0.10968l-0.35771,0.04417l-0.5963,-0.37212l-0.177,-0.23046l0.00158,-0.20978l0.19674,-0.84456" fill="#fabfbd"/><path d="M226.1589,71.49089c0.20585,0.04321 0.41018,0.10231 0.6228,0.09418c0.04467,-0.00167 0.11518,0.00208 0.15324,-0.02162c0.03007,-0.01874 0.03296,-0.04693 0.0754,-0.05289c0.06504,-0.0093 0.14057,0.04013 0.17099,0.09538c0.03985,0.07201 0.05432,0.15971 0.05895,0.24082c0.00265,0.04604 0.0004,0.09208 0.0038,0.13813c0.00373,0.04946 0.02692,0.10894 0.02258,0.15782c-0.00696,0.07908 -0.01564,0.15799 -0.0282,0.23649c-0.00215,0.0135 -0.00133,0.0252 0.00179,0.0354c-0.00118,0.0063 -0.00225,0.01268 -0.00339,0.01916c-0.03329,0.18678 -0.06687,0.37353 -0.1001,0.56019c-0.01722,0.09701 -0.02052,0.39663 -0.15812,0.41943c-0.21171,0.03487 -0.05389,-0.39806 -0.0444,-0.46944c0.0389,-0.29608 0.05816,-0.59477 0.0886,-0.89201c0.00845,-0.0832 -0.02216,-0.13276 -0.10445,-0.13039c-0.25159,0.00754 -0.49071,-0.05077 -0.72066,-0.14193c-0.14073,-0.05582 -0.16996,-0.05142 -0.19414,0.14456c-0.0199,0.16115 -0.05686,0.32069 -0.09196,0.4797c-0.02599,0.11817 -0.05728,0.23502 -0.08865,0.35152c-0.01372,0.05143 -0.02956,0.18176 -0.11189,0.1636c-0.07062,-0.0156 -0.10319,-0.09977 -0.11919,-0.16194c-0.01875,-0.07247 0.01161,-0.14443 0.02703,-0.21623c0.07936,-0.37292 0.18133,-0.74383 0.22132,-1.12112c0.0175,-0.16541 0.09215,-0.31397 0.1472,-0.46865c0.01991,-0.05569 0.01974,-0.13538 0.09131,-0.1446c0.04871,-0.00618 0.102,0.02983 0.12464,0.07104c0.04396,0.08039 -0.00135,0.14319 -0.02858,0.21773c-0.03734,0.10251 -0.0565,0.22004 -0.07728,0.32692c-0.00385,0.01918 0.03603,0.06366 0.06134,0.06874z" fill="#30419a"/></g><g><path d="M228.18427,66.60943l0.33062,-0.34561l0.3972,-0.32351l0.29188,-0.00734l0.36397,0.22713l0.28289,0.37521c0,0 -0.01635,0.24694 -0.00874,0.27374c0.00769,0.02668 -0.02606,0.05843 -0.05918,0.09531c-0.03312,0.03688 -0.19935,0.26698 -0.19935,0.26698c0,0 -0.39413,0.38726 -0.42928,0.4068c-0.03522,0.01965 -0.21472,0.01248 -0.21472,0.01248l-0.28262,-0.28367l-0.22363,-0.32522l-0.34645,-0.21621z" fill="#fabfbd"/><path d="M227.87837,66.87863l0.08694,-0.08412l0.32453,0.20253l0.24307,0.23251l0.40666,0.36107l-0.02925,0.13909l-0.36056,-0.09475l-0.75615,-0.23371l-0.3047,-0.08271l0.10511,-0.16843l0.28436,-0.27147" fill="#f7ec1e"/><path d="M229.59435,67.0172c0.08486,-0.08251 0.27941,-0.32952 0.40776,-0.1663c0.06316,0.08029 -0.12715,0.23611 -0.1779,0.27745c-0.1634,0.13282 -0.30589,0.27777 -0.44629,0.43383c-0.10058,0.11187 -0.15965,0.24921 -0.33095,0.25955c-0.07815,0.0048 -0.16855,-0.04534 -0.2328,-0.08881c-0.06304,-0.04271 -0.11961,-0.12866 -0.08492,-0.20115c-0.18133,-0.26791 -0.42306,-0.47142 -0.71313,-0.64601c-0.105,0.11111 -0.21379,0.2197 -0.31574,0.33378c-0.06975,0.07816 -0.17807,0.16883 -0.27909,0.08054c-0.08588,-0.07502 -0.02929,-0.12573 0.03824,-0.18048c0.09634,-0.0781 0.18632,-0.16735 0.27724,-0.25173c0.19359,-0.1795 0.38909,-0.35689 0.57752,-0.54159c0.09519,-0.09319 0.17728,-0.1987 0.26969,-0.29455c0.05045,-0.0524 0.16304,-0.17837 0.24434,-0.17768c0.04173,0.00033 0.08195,0.04135 0.08384,0.08615c0.0053,0.13204 -0.12951,0.23279 -0.21178,0.31263c-0.03784,0.03684 -0.45234,0.444 -0.45453,0.44187c0.17801,0.17169 0.33825,0.32281 0.49438,0.4778c0.08542,0.08484 0.16088,0.18 0.24774,0.26328c0.05317,0.05093 0.10358,0.08913 0.18318,0.00472c0.13687,-0.14525 0.28019,-0.28417 0.42319,-0.4233z" fill="#30419a"/></g><g><path d="M226.42378,69.73757l0.13619,-0.21822l0.42223,-0.92212l0.16559,-0.6335l0.06466,-0.57036l0.42909,0.0492l0.72648,0.14709l1.03942,0.54182l1.23229,0.52243l-0.11075,0.17747l-0.30174,0.36333l-0.38859,0.81669l-0.26337,0.12722l-0.28648,0.33643l-0.08189,0.35466l0.05409,0.29472l-0.31713,0.50817l-0.27505,0.76892l-0.48381,-0.15774l-1.07473,-0.67069l-0.74646,-0.61001l-0.18966,-0.26071l-0.023,-0.45686l0.27259,-0.50794" fill="#fabfbd"/><path d="M229.28784,72.65878l0.26129,-0.56292l0.33729,-0.63885l0.29919,-0.26972l0.17157,-0.16921l0.08432,-0.29284l0.01199,-0.29955l0.26192,-0.41971l0.33416,-0.7432l0.20784,-0.22342l0.41205,0.14985l0.13096,0.64957l-0.07917,0.64243c0,0 -0.24841,0.62666 -0.21017,0.6966c0.03824,0.06994 -0.07339,0.37635 -0.07339,0.37635l-0.30238,0.22579l-0.49157,0.57579l-0.43296,0.32491l-0.5345,0.11997z" fill="#fabfbd"/><path d="M227.49948,68.98142l0.22861,-0.17969l0.3128,-0.03499l0.48336,0.10205l0.2763,0.23517l0.02482,0.44391l-0.06553,0.4734l-0.16479,0.26405l-0.38732,0.35063l-0.44071,0.12417l-0.40165,-0.15866l-0.20404,-0.32693l-0.08296,-0.43167l0.1488,-0.4251l0.27231,-0.43635" fill="#ffffff"/><path d="M230.5804,68.62881l0.57775,0.34861l-0.21621,0.52478l-0.32993,0.66947l-0.20364,0.11858l0.02029,0.39623c0,0 -0.01796,0.24977 -0.07138,0.33169c-0.05353,0.08185 -0.09989,0.16006 -0.09989,0.16006l-0.34724,0.16719l-0.13867,0.32963l-0.24955,0.57575l-0.25923,0.52134l-0.59387,-0.3706l0.0671,-0.18771l0.41576,-1.07707l0.05522,-0.30702l0.062,-0.26835l0.18314,-0.27801l0.38107,-0.33693l0.23503,-0.4968l0.44864,-0.7189z" fill="#ef453e"/><path d="M231.52002,69.04972c0.0534,0.11261 -0.07155,0.15709 -0.16111,0.14314c-0.06733,-0.01033 -0.06731,0.00239 -0.11028,0.06144c-0.03591,0.04968 -0.07206,0.09952 -0.10435,0.15176c-0.09838,0.15887 -0.19167,0.32089 -0.28707,0.48161c-0.07658,0.12884 -0.15711,0.25568 -0.22849,0.38746c-0.02659,0.04923 -0.05371,0.11403 -0.0439,0.16454c0.03723,0.19175 0.01121,0.37618 -0.06148,0.55031c-0.04689,0.11217 -0.124,0.2041 -0.23397,0.28148c-0.14787,0.10425 -0.30407,0.21157 -0.3833,0.39372c-0.09904,0.22763 -0.22244,0.44497 -0.31391,0.67518c-0.04023,0.10102 -0.13587,0.2094 -0.11811,0.32441c0.01421,0.09275 0.04647,0.18037 -0.06414,0.2318c-0.13352,0.06239 -0.35619,-0.0559 -0.38999,-0.195c-0.00193,-0.00794 -0.02844,-0.00888 -0.04229,-0.01538c-0.14829,-0.06897 -0.29692,-0.13738 -0.44449,-0.20774c-0.29704,-0.14159 -0.59383,-0.2841 -0.89094,-0.42558c-0.15304,-0.11311 -0.30776,-0.22328 -0.47225,-0.3195c-0.07005,-0.06729 -0.1477,-0.12263 -0.23638,-0.16007c0.00333,-0.00068 0.00643,-0.00074 0.00976,-0.00142c-0.24536,-0.16873 -0.47299,-0.32517 -0.71162,-0.48924c-0.00369,-0.00659 -0.00667,-0.01335 -0.01298,-0.01942c-0.06951,-0.06864 -0.14314,-0.13463 -0.19731,-0.21681c0.00052,-0.00671 0.00226,-0.01221 0.00357,-0.01798c0.01909,-0.0816 0.03695,-0.16367 0.054,-0.24594c0.0143,-0.06853 -0.02345,-0.10739 -0.02074,-0.17427c0.00265,-0.06187 0.04875,-0.12448 0.09294,-0.16241c0.0247,-0.02117 0.07482,-0.05662 0.10999,-0.04921c0.05084,0.01076 0.0392,0.06914 0.05575,0.11008c0.02077,0.05183 -0.0143,0.12593 -0.02282,0.19011c-0.00437,0.03324 -0.01626,0.07068 -0.00611,0.09981c0.02758,0.07966 0.02354,0.16316 0.11308,0.22913c0.1446,0.10677 0.2486,0.26902 0.39387,0.37422c0.28373,0.20537 0.58354,0.38864 0.87829,0.57855c0.05174,0.03336 0.11378,0.05019 0.16638,0.0824c0.2281,0.13975 0.45445,0.28253 0.68612,0.4271c0.02364,-0.02979 0.04687,-0.04789 0.05557,-0.07139c0.11035,-0.29848 0.21666,-0.59857 0.32894,-0.89647c0.0354,-0.09377 0.08872,-0.18066 0.12852,-0.2729c0.02525,-0.05863 0.06717,-0.12676 0.05636,-0.18156c-0.07185,-0.36535 0.29103,-0.78864 0.53966,-0.8969c0.08852,-0.03859 0.12252,-0.10093 0.15087,-0.17921c0.01271,-0.03508 0.02527,-0.0704 0.04122,-0.10407c0.07022,-0.14735 0.13733,-0.29634 0.21362,-0.44067c0.09275,-0.17584 0.14398,-0.38205 0.34231,-0.49016c-0.04718,-0.12969 -0.15764,-0.16434 -0.25947,-0.21259c-0.25715,-0.1219 -0.51221,-0.24786 -0.76918,-0.3698c-0.19735,-0.09361 -0.39416,-0.18858 -0.59515,-0.2739c-0.27739,-0.11816 -0.5565,-0.2328 -0.83895,-0.33819c-0.09645,-0.03601 -0.20612,-0.03541 -0.30803,-0.05876c-0.09904,-0.02278 -0.33984,0.00695 -0.32959,-0.1564c0.00284,-0.04599 0.01996,-0.09576 0.04364,-0.13394c0.00619,-0.00991 0.01878,-0.02272 0.03383,-0.03506c0.1141,-0.02415 0.22172,0.06214 0.32293,0.10403c0.01671,0.00706 0.03123,0.00662 0.04451,0.00374c0.3456,0.1018 0.66431,0.19568 0.98207,0.28914c0.00088,-0.0019 0.37121,0.20303 0.37121,0.20303l0.31083,0.17224l-0.00025,0.0026c0.1307,0.06748 0.26059,0.13674 0.39241,0.20217c0.19488,0.09682 0.38234,0.2259 0.5891,0.27794c0.24586,0.06174 0.45859,0.19987 0.67047,0.33347c0.0815,0.05163 0.16234,0.09625 0.25128,0.13277c0.02156,0.00886 0.04518,0.01809 0.06894,0.02833c0.06342,0.02764 0.12796,0.06378 0.15666,0.12424zM229.24561,71.27936c-0.2286,0.34056 -0.34325,0.71656 -0.45928,1.1041c0.1158,0.05406 0.22123,0.10316 0.32645,0.1526c0.05658,0.02658 0.09801,0.02764 0.13264,-0.0406c0.07443,-0.14625 0.16343,-0.28494 0.23618,-0.43194c0.06847,-0.13865 0.12384,-0.28379 0.19187,-0.44185c-0.17445,-0.07045 -0.33045,-0.15846 -0.42786,-0.34231zM230.07449,70.20203c-0.20999,-0.05053 -0.41637,-0.06591 -0.54599,0.15994c-0.05484,0.09573 -0.14369,0.19961 -0.13896,0.29578c0.00852,0.16956 0.058,0.34462 0.12847,0.50002c0.03561,0.07809 0.14802,0.13538 0.23811,0.17079c0.09987,0.03937 0.10983,-0.06463 0.13844,-0.12912c0.00756,-0.01702 0.02369,-0.03037 0.03585,-0.04543c-0.00343,-0.01117 -0.0068,-0.02246 -0.01023,-0.03363c0.04906,-0.01729 0.09678,-0.04276 0.14722,-0.05001c0.14746,-0.02093 0.23169,-0.07889 0.2396,-0.2088c0.00823,-0.13508 -0.00021,-0.27289 -0.01784,-0.40726c-0.01601,-0.12372 -0.08691,-0.22153 -0.21466,-0.25227zM230.89682,68.91276c-0.06018,-0.02669 -0.11843,-0.05967 -0.18115,-0.07739c-0.03136,-0.00885 -0.089,-0.00257 -0.10371,0.01855c-0.14514,0.20804 -0.28923,0.41736 -0.42184,0.63353c-0.06433,0.1048 -0.09934,0.22714 -0.15469,0.33816c-0.04533,0.09079 -0.02975,0.11414 0.06795,0.14373c0.1073,0.03237 0.20695,0.08951 0.31312,0.12638c0.02728,0.00952 0.08378,-0.00573 0.09795,-0.02796c0.04132,-0.06498 0.06486,-0.1412 0.1012,-0.20975c0.11534,-0.21868 0.24432,-0.431 0.34718,-0.65518c0.08761,-0.19068 0.07527,-0.20818 -0.06602,-0.29007z" fill="#30419a"/><path d="M231.22923,71.47811c0.07217,0.01336 0.1457,0.03706 0.20838,0.07617c0.0987,0.0616 0.09492,0.11035 -0.00167,0.17436c-0.06271,0.04138 -0.09319,0.11572 -0.16278,0.14653c-0.17035,0.07553 -0.29459,-0.22868 -0.26741,-0.36004c0.01068,-0.05072 0.18673,-0.04389 0.22347,-0.03702z" fill="#30419a"/><path d="M228.92024,69.24478c0.08893,0.46479 0.06088,0.9034 -0.27778,1.26604c-0.23794,0.25498 -0.55084,0.37228 -0.89672,0.37959c-0.22887,0.00472 -0.58613,-0.28787 -0.65234,-0.50674c-0.06698,-0.22133 -0.15892,-0.44387 -0.08676,-0.67649c0.0563,-0.18145 0.14766,-0.35188 0.2332,-0.55029c0.11282,-0.11235 0.23091,-0.24223 0.36153,-0.35785c0.41884,-0.37046 1.21493,-0.09851 1.31887,0.44575zM227.76901,69.00941c-0.1273,0.11862 -0.24385,0.249 -0.36522,0.37407c0.00803,0.007 0.01609,0.01418 0.02423,0.02125c-0.22588,0.28347 -0.26468,0.58528 -0.09508,0.90878c0.08096,0.1543 0.35358,0.33086 0.4958,0.30604c0.27627,-0.04831 0.51989,-0.14608 0.6914,-0.39491c0.20803,-0.30196 0.26096,-0.61561 0.13867,-0.95826c-0.1276,-0.35744 -0.64895,-0.48151 -0.8898,-0.25696z" fill="#30419a"/></g><g><path d="M233.19232,74.70231l-0.48409,0.35851l-0.85487,0.60758l-0.2751,0.19628l-0.16318,-0.19888l-0.45824,-0.60096l-0.07473,-0.46694l0.48744,-0.51668l0.52421,-0.29674l0.59994,-0.08035l0.57206,0.70995l0.12656,0.28822" fill="#fabfbd"/><path d="M233.29042,74.69251l0.75073,1.05595l0.60777,0.84305l0.42907,0.51573l0.49098,0.55757l0.07803,0.27401l-0.08637,0.21197l-0.47285,0.48767l-0.7335,0.58599l-0.62159,0.40694l-0.53783,0.05146l-0.55695,-0.04053l-0.4412,-0.27532l-0.35697,-0.36098l-0.16191,-0.5264l0.1565,-0.64346l0.26886,-0.43084l0.45905,-0.34292l-0.08625,-0.18088l-0.47474,-0.46708l-0.37894,-0.52224l0.23103,-0.22378l0.89816,-0.63966l0.53891,-0.33625" fill="#ef453e"/><path d="M232.81691,74.25681c-0.08161,-0.09853 -0.14543,-0.21505 -0.22285,-0.31739c-0.04541,-0.06018 -0.09457,-0.12145 -0.12293,-0.19349c-0.03217,-0.08114 -0.04877,-0.2986 0.09941,-0.23582c0.13456,0.05688 0.19455,0.22734 0.27398,0.3392c0.0491,0.06921 0.10457,0.13045 0.15561,0.1995c0.06204,0.08356 0.124,0.16846 0.18374,0.2535c0.18733,0.26614 0.36486,0.53917 0.55571,0.80261c0.16455,0.22711 0.34375,0.4435 0.51311,0.66705c0.15766,0.20798 0.30871,0.42116 0.46763,0.62809c0.05579,0.07247 0.13017,0.13037 0.18957,0.2005c0.04958,0.05864 0.085,0.12942 0.13485,0.18762c0.10861,0.12717 0.2306,0.2434 0.33212,0.37578c0.1208,0.15789 0.22881,0.31667 0.32364,0.49018c0.07196,0.13169 0.2276,0.28453 0.13614,0.44726c-0.11272,0.20073 -0.28199,0.32408 -0.45783,0.45649c-0.22076,0.16637 -0.41702,0.34695 -0.6266,0.51846c-0.13478,0.11027 -0.26862,0.22344 -0.4071,0.32957c-0.2198,0.1685 -0.41132,0.30275 -0.68334,0.37636c-0.25371,0.06882 -0.52108,0.04891 -0.77958,0.02581c-0.41066,-0.03679 -0.68519,-0.29688 -0.96228,-0.54649c-0.16619,-0.14993 -0.23406,-0.37398 -0.28721,-0.59173c-0.06132,-0.25102 -0.06175,-0.50614 0.02119,-0.74917c0.11189,-0.32767 0.30275,-0.60164 0.60886,-0.78606c0.14004,-0.08434 0.14304,-0.11492 0.03468,-0.23167c-0.16347,-0.1761 -0.33819,-0.34177 -0.50402,-0.51582c-0.04707,-0.04942 -0.08698,-0.10907 -0.11765,-0.1703c-0.0385,-0.07713 -0.06324,-0.15962 -0.1709,-0.16542c-0.01574,-0.00078 -0.04304,-0.03283 -0.04243,-0.04975c0.00426,-0.12775 -0.08888,-0.20439 -0.17046,-0.28729c-0.09377,-0.09525 -0.15931,-0.2041 -0.24392,-0.3062c-0.05219,-0.06303 -0.10609,-0.1334 -0.15695,-0.20004c-0.0548,-0.07185 -0.2594,-0.30912 -0.1654,-0.40873c0.1632,-0.17321 0.63773,0.65083 0.71204,0.75445c0.03697,0.05138 0.0947,0.10701 0.14128,0.14985c0.05396,0.0499 0.10844,0.04256 0.16413,-0.00227c0.15525,-0.1249 0.31476,-0.24439 0.47079,-0.36835c0.25284,-0.20084 0.50289,-0.4051 0.75693,-0.60442c0.10119,-0.0795 0.11676,-0.11571 0.04288,-0.22274c-0.06134,-0.0891 -0.12927,-0.16715 -0.19688,-0.24913zM233.12881,74.90635c-0.0192,0.01312 -0.03686,0.02889 -0.05489,0.04381c-0.17124,0.14171 -0.33888,0.28796 -0.51429,0.42432c-0.22001,0.17082 -0.44578,0.33466 -0.67118,0.4989c-0.06121,0.04461 -0.08438,0.07928 -0.02446,0.14759c0.06634,0.07569 0.10931,0.17215 0.17749,0.24562c0.21843,0.23641 0.44315,0.46742 0.66745,0.69861c0.10306,0.1061 0.09285,0.27161 -0.02837,0.28214c-0.29001,0.02519 -0.41354,0.26387 -0.57203,0.39838c-0.23129,0.32648 -0.28732,0.53472 -0.23452,0.91466c0.05411,0.38887 0.2545,0.68168 0.60806,0.86222c0.104,0.05312 0.20474,0.1394 0.31328,0.15066c0.21176,0.02195 0.4321,0.02721 0.64095,-0.00823c0.14637,-0.02483 0.3064,-0.05293 0.41116,-0.16511c0.27795,-0.16114 0.53312,-0.39955 0.77752,-0.60504c0.28981,-0.24389 0.57881,-0.53238 0.84752,-0.79937c0.06251,-0.06216 0.05759,-0.14084 0.02051,-0.19843c-0.0024,-0.06777 -0.03317,-0.13717 -0.09745,-0.20759c-0.06307,-0.06891 -0.11786,-0.14274 -0.17744,-0.21405c-0.00403,-0.01047 -0.01064,-0.02072 -0.02105,-0.03028c-0.01511,-0.01356 -0.02906,-0.02824 -0.0434,-0.04254c-0.01244,-0.01342 -0.02541,-0.02673 -0.03877,-0.03966c-0.14235,-0.15403 -0.25503,-0.33425 -0.40869,-0.47775c-0.03113,-0.04896 -0.06264,-0.09756 -0.09641,-0.14328c-0.22925,-0.3096 -0.46183,-0.61652 -0.69034,-0.92657c-0.18673,-0.25337 -0.37083,-0.50876 -0.55386,-0.76487c-0.09407,-0.13156 -0.10345,-0.13543 -0.23679,-0.04415z" fill="#30419a"/></g><g><path d="M229.71319,72.46258c0,0 0.30988,-0.3131 0.33057,-0.34625c0.02069,-0.03316 0.55689,-0.32778 0.55689,-0.32778l0.32404,-0.14324l0.28745,0.07775l0.286,0.37072l0.45721,0.7895l0.51143,0.69723l-0.01781,0.25981l-0.02518,0.21402l-0.18413,0.23056l-0.244,0.3542c0,0 -0.239,0.15882 -0.29828,0.22927c-0.05935,0.07057 -0.24314,0.14092 -0.24314,0.14092l-0.1385,0.02866l-0.11717,-0.01556l-0.54273,-0.31374l-0.46228,-0.64696l-0.55381,-0.83142l-0.30066,-0.4137z" fill="#fabfbd"/><path d="M229.50901,72.72134c0.02598,0.05524 0.05459,0.10922 0.08295,0.16335c0.09074,0.17296 0.16854,0.35436 0.27558,0.51667c0.20784,0.31567 0.42486,0.62575 0.65134,0.92826c0.1654,0.22107 0.33383,0.43976 0.50276,0.65813c-0.02026,0.09158 -0.05204,0.22467 -0.13362,0.17391c-0.01003,-0.00625 -0.02048,-0.00987 -0.03065,-0.01147c-0.01878,-0.00988 -0.03776,-0.01944 -0.05562,-0.03104c-0.00844,-0.01001 -0.01718,-0.02006 -0.02567,-0.03025c-0.00237,0.00036 -0.00414,0.00124 -0.00636,0.00185c-0.06023,-0.09774 -0.12225,-0.19262 -0.1977,-0.26572c-0.18809,-0.26738 -0.37206,-0.52591 -0.55182,-0.78702c-0.12969,-0.18854 -0.25701,-0.37865 -0.37865,-0.57226c-0.09112,-0.14487 -0.18597,-0.29039 -0.25287,-0.44709c-0.03522,-0.08213 -0.13592,-0.09124 -0.1656,-0.16533c-0.02633,-0.06573 0.00259,-0.16308 0.06735,-0.19598c0.08499,-0.04323 0.18039,-0.01754 0.21858,0.064z" fill="#30419a"/><path d="M231.35474,71.73613c0.02815,0.03853 0.03383,0.08585 0.0617,0.12237c0.16401,0.21546 0.32766,0.43101 0.49057,0.64701c0.09179,0.12172 0.18292,0.24501 0.28768,0.3857c0.00523,0.02057 0.01833,0.03929 0.03661,0.05391c0.02662,0.02136 0.04713,0.05177 0.06713,0.08154c-0.00079,0.00028 -0.00145,0.00062 -0.00231,0.001c0.01633,0.03024 0.03399,0.07111 0.05868,0.10734c0.09824,0.14427 0.19651,0.28871 0.29536,0.43274c0.00611,0.01744 0.01222,0.03486 0.01698,0.05299c0.04416,0.1696 -0.13948,0.15924 -0.2203,0.08936c-0.23268,-0.33623 -0.46448,-0.67313 -0.70154,-1.00626c-0.08223,-0.11545 -0.20713,-0.20104 -0.28596,-0.31804c-0.08727,-0.12946 -0.16273,-0.26609 -0.24165,-0.40059c-0.04931,-0.08434 -0.19292,-0.23535 -0.10759,-0.33776c0.03454,-0.04135 0.07383,-0.04056 0.12073,-0.01833c0.04931,0.02327 0.09193,0.06288 0.12392,0.10703z" fill="#30419a"/></g><g><path d="M233.63455,71.55691l-0.23526,-0.1756c0,0 -0.10629,-0.48969 -0.05122,-0.54411c0.03356,-0.03293 0.132,-0.56201 0.15987,-0.64273c0.02794,-0.08083 0.26739,-0.48931 0.26739,-0.48931l0.32345,-0.16289l0.7451,0.10743l-0.0649,0.52169l-0.08961,0.68367l-0.01936,0.69399z" fill="#fabfbd"/><path d="M236.9872,68.02183l0.47612,-0.16327l0.37091,-0.02951l0.57681,0.25251l0.40892,0.25518l0.3336,0.54584l0.25765,1.03569l-0.00135,0.93543c0,0 -0.12135,0.41544 -0.16011,0.45279c-0.03859,0.0373 -0.152,0.24357 -0.152,0.24357l-0.72132,0.12475l-0.79867,-0.04612l-0.94583,-0.00678l-1.22715,0.00181l-0.73478,-0.07467l0.13117,-1.06961l0.1448,-0.82142l1.27339,0.09578l0.14045,-0.72664l0.275,-0.62659z" fill="#ef453e"/><path d="M238.44213,67.90887c0.37888,0.21379 0.68761,0.50762 0.86585,0.90998c0.18324,0.41374 0.28934,0.85419 0.26998,1.31567c-0.0216,0.51657 0.05953,1.01078 -0.22852,1.47235c-0.07988,0.12801 -0.10586,0.15909 -0.24871,0.17755c-0.07014,0.00889 -0.13123,0.00597 -0.20292,0.00852c-0.12215,0.00443 -0.22833,-0.02678 -0.34964,-0.01095c-0.14427,0.01879 -0.29599,-0.00028 -0.44162,-0.00606c-0.32791,-0.01315 -0.65582,-0.02706 -0.9839,-0.04216c-0.23723,-0.01105 -0.47397,-0.03711 -0.71123,-0.04053c-0.23628,-0.00326 -0.47292,0.01757 -0.70948,0.01918c-0.1709,0.00111 -0.34208,-0.01694 -0.51332,-0.01773c-0.21037,-0.00087 -0.42102,0.01414 -0.63132,0.00995c-0.08646,-0.00176 -0.16827,-0.00995 -0.25264,-0.02021c-0.0787,-0.00978 -0.15848,0.01039 -0.23755,0.00023c-0.10627,-0.01367 -0.21081,-0.00727 -0.31727,-0.00667c-0.08084,0.00052 -0.31021,-0.00471 -0.25413,-0.13824c0.04535,-0.10823 0.14559,-0.11288 0.24581,-0.10619c0.06452,0.00429 0.12895,0.0168 0.19438,0.02503c0.11063,0.01378 0.23168,0.00867 0.34404,0.01282c0.09696,0.00356 0.18275,-0.01913 0.19739,-0.12892c0.01943,-0.14568 0.05898,-0.28875 0.07725,-0.43454c0.03386,-0.2706 0.05298,-0.54306 0.0896,-0.81316c0.00294,-0.02236 0.01025,-0.04855 0.01789,-0.07624c0.01626,-0.05843 0.03413,-0.12288 0.01574,-0.17018c-0.03421,-0.08793 -0.19052,-0.09915 -0.26907,-0.10746c-0.10746,-0.0115 -0.20735,-0.02042 -0.30951,-0.05049c-0.07195,-0.02133 -0.13584,-0.02293 -0.1997,-0.06875c-0.08658,-0.06214 -0.04547,-0.16307 0.04896,-0.1822c0.09641,-0.01958 0.20385,0.02236 0.30072,0.02925c0.07428,0.00534 0.1513,0.00749 0.22463,0.01728c0.0602,0.00803 0.11435,0.04045 0.17574,0.03896c0.06002,-0.00127 0.12123,-0.03042 0.16642,-0.0685c0.08275,-0.06958 0.16867,0.01939 0.24832,0.06221c0.05717,0.03078 0.12049,0.06815 0.18193,0.06976c0.26597,0.00695 0.53208,0.00435 0.79346,0.06353c0.06472,0.01453 0.08795,-0.01706 0.08672,-0.07446c-0.01484,-0.69069 0.33772,-1.43542 0.97,-1.74983c0.13227,-0.06578 0.25813,-0.12299 0.3942,-0.15807c0.26707,0.00886 0.52238,0.05767 0.77269,0.14072c0.06294,0.0333 0.12381,0.06748 0.17879,0.09857zM238.33779,68.18202c-0.15596,-0.07483 -0.33399,-0.10251 -0.49895,-0.16045c-0.28339,-0.09971 -0.54861,-0.01833 -0.78064,0.12218c-0.22745,0.13785 -0.36277,0.37285 -0.48142,0.61595c-0.16131,0.33035 -0.13503,0.66987 -0.10521,1.01526c0.00426,0.04812 -0.01277,0.10851 -0.04174,0.1466c-0.03556,0.04668 -0.08502,0.08669 -0.16136,0.0464c-0.06348,-0.03365 -0.1374,-0.0533 -0.20897,-0.06567c-0.25621,-0.04417 -0.51658,-0.05421 -0.77261,-0.10822c-0.24483,-0.05161 -0.24818,-0.03595 -0.29601,0.21262c-0.00506,0.02699 -0.00757,0.05482 -0.01642,0.08052c-0.15729,0.45194 -0.13005,0.92875 -0.19496,1.4019c0.10123,-0.01014 0.18994,-0.02917 0.27802,-0.02609c0.33248,0.01172 0.66475,0.03433 0.99731,0.04518c0.16212,0.00535 0.32486,-0.01064 0.48715,-0.00901c0.22901,0.0024 0.4581,0.0113 0.68717,0.01924c0.12797,0.0044 0.25597,0.01096 0.38356,0.01941c0.12329,0.00822 0.24776,0.0366 0.36951,0.02718c0.09551,-0.00759 0.19085,-0.01835 0.28603,-0.02936c0.19131,0.00077 0.55056,0.0341 0.7131,-0.05932c0.04791,-0.02061 0.08566,-0.05339 0.10572,-0.10393c0.18105,-0.12579 0.20215,-0.54074 0.18493,-0.885c0.03849,-0.21399 0.02566,-0.42863 -0.00593,-0.64732c-0.07319,-0.50669 -0.20523,-0.98798 -0.54683,-1.38146c-0.10089,-0.11623 -0.24151,-0.20949 -0.38146,-0.27662z" fill="#30419a"/></g><g><path d="M229.92711,66.71378c0,0 -0.22759,0.10103 -0.25976,0.11555c-0.03199,0.01448 -0.24195,-0.03589 -0.29068,-0.03064c-0.04867,0.00514 -0.30474,-0.24895 -0.3377,-0.28468c-0.03278,-0.03576 -0.09824,-0.34538 -0.09824,-0.34538l0.02009,-0.24705l0.16696,-0.1427l0.24041,0.20758l0.43261,0.31605l0.2875,0.32269z" fill="#fabfbd"/><path d="M230.12991,63.49167l0.50851,-0.25833l0.51511,0.05681l0.39289,0.14156l0.46377,0.28942l0.25476,0.40067l0.18294,0.4711l0.00098,0.63367l-0.24817,0.39768l-0.38907,0.32888l-0.44353,0.23367l-0.39161,-0.03714l-0.36189,-0.06466l-0.27741,0.31699l-0.27623,0.09731l-0.54839,-0.40743l-0.38163,-0.44264c0,0 0.59974,-0.44966 0.59986,-0.48418c0.00004,-0.03441 0.05049,-0.17558 0.05049,-0.17558l-0.20878,-0.3836l0.00718,-0.49052l0.20163,-0.32311z" fill="#ef453e"/><path d="M232.17793,63.67872c0.06342,0.05045 0.0953,0.14014 0.14308,0.21098c0.17621,0.26165 0.30323,0.54693 0.34034,0.85953c0.02766,0.23308 -0.00735,0.46823 -0.10485,0.68702c-0.10841,0.24337 -0.27413,0.44025 -0.50744,0.57154c-0.3111,0.1755 -0.63531,0.31191 -1.00468,0.27273c-0.03893,-0.00409 -0.07889,0.00035 -0.11896,0.00397c-0.03241,-0.00644 -0.06488,-0.01278 -0.09725,-0.01952c-0.02481,-0.00783 -0.04906,-0.01606 -0.07172,-0.02562c-0.017,-0.00709 -0.03173,-0.0068 -0.04522,-0.00358c-0.00337,0.0005 -0.00727,0.00159 -0.01175,0.00338c-0.00231,0.00101 -0.00497,0.00133 -0.00719,0.0027c-0.0145,0.00656 -0.0314,0.01622 -0.04328,0.0235c-0.21558,0.13011 -0.36571,0.32112 -0.50836,0.52445c-0.06803,0.09699 -0.23138,0.31509 -0.37588,0.24987c-0.11327,-0.05125 0.02079,-0.20942 0.07102,-0.2595c0.03435,-0.03443 0.05391,-0.08344 0.08554,-0.13412c-0.16276,-0.14978 -0.32177,-0.30015 -0.48555,-0.44536c-0.11124,-0.09865 -0.22907,-0.18994 -0.3688,-0.30499c-0.00048,-0.00046 -0.16376,0.15571 -0.18228,0.17018c-0.05218,0.04045 -0.1282,0.08132 -0.19546,0.0493c-0.20207,-0.0961 0.29059,-0.39722 0.35039,-0.44792c0.17159,-0.14547 0.33568,-0.29975 0.49944,-0.45424c0.01829,-0.01705 0.02642,-0.06295 0.01757,-0.08776c-0.02908,-0.08044 -0.07406,-0.15505 -0.10225,-0.2357c-0.15204,-0.4333 -0.06814,-0.82236 0.24319,-1.15568c0.29495,-0.31614 0.65653,-0.5301 1.08168,-0.61192c0.2686,-0.05171 0.54473,-0.02083 0.78334,0.11385c0.21896,0.12348 0.41729,0.28566 0.61533,0.44292zM231.12057,63.38269c-0.31529,-0.04982 -0.59545,0.06433 -0.86254,0.21296c-0.25692,0.14288 -0.46895,0.32618 -0.55554,0.62755c-0.07537,0.2623 -0.05835,0.57078 0.21902,0.8126c0.06509,0.05684 0.08929,0.17159 0.04124,0.22088c-0.06704,0.06867 -0.12578,0.139 -0.2278,0.17666c-0.11264,0.04144 -0.21369,0.12487 -0.30786,0.20416c-0.11614,0.09757 -0.11014,0.10315 0.00758,0.19437c0.02424,0.0188 0.04028,0.0478 0.06214,0.07016c0.05993,0.06143 0.11595,0.12791 0.18261,0.181c0.1443,0.11485 0.29424,0.22235 0.45451,0.34227c0.11348,-0.1274 0.22954,-0.23145 0.31251,-0.35753c0.09823,-0.14932 0.2411,-0.13837 0.36237,-0.10387c0.15086,0.04302 0.29797,0.04667 0.44923,0.04784c0.40455,0.00342 0.70385,-0.20592 0.94349,-0.50162c0.08712,-0.10773 0.11943,-0.26251 0.16626,-0.39935c0.06122,-0.17854 0.01637,-0.35391 -0.03569,-0.5263c-0.08236,-0.27272 -0.19088,-0.53468 -0.38943,-0.74384c-0.09686,-0.10208 -0.21945,-0.17935 -0.32858,-0.27011c-0.14324,-0.11924 -0.3176,-0.15994 -0.49351,-0.18783z" fill="#30419a"/></g><g><path d="M231.5318,69.13927l0.30806,0.07515l0.30005,0.08378l1.74138,0.24258l0.08911,0.24939l0.0429,0.17064l0.03584,0.33844l-0.07989,0.43214l-0.12137,0.36936l-0.20942,0.28946l-0.4633,0.20526l-1.01192,-0.02643l-0.72381,-0.01425l-0.25254,-0.18913l-0.08521,-0.42833l0.11578,-1.04495l0.17168,-0.52454l0.14265,-0.22858" fill="#fabfbd"/><path d="M233.56611,71.67614c-0.10716,0.00369 -0.21401,0.01231 -0.31931,0.02849c-0.14851,0.02288 -0.30142,-0.01147 -0.45027,-0.01283c-0.2019,-0.00171 -0.40383,-0.00727 -0.60564,-0.00127c-0.19309,0.00577 -0.38606,0.01699 -0.57891,0.0295c-0.15858,0.01032 -0.2854,0.06098 -0.41631,-0.06404c-0.03569,-0.03405 -0.05769,-0.05988 -0.04383,-0.1022c0.0419,-0.12845 0.1769,-0.0713 0.27524,-0.06702c0.11253,0.00486 0.22524,-0.00086 0.33772,-0.0023c0.24109,-0.00323 0.48226,-0.01221 0.7233,-0.01363c0.17101,-0.00104 0.34208,0.01006 0.51302,0.00791c0.11831,-0.00147 0.23649,-0.02431 0.35484,-0.02362c0.08145,0.00047 0.16281,0.0018 0.24428,0.00321c0.00922,0.00483 0.01865,0.00934 0.02725,0.01471c0.03003,0.02472 0.05073,0.05876 0.05353,0.10872c0.00042,0.00914 -0.00119,0.0193 -0.00379,0.02962c-0.03349,0.02472 -0.07314,0.04559 -0.11111,0.06475z" fill="#30419a"/><path d="M233.6457,69.63132c-0.19335,-0.03403 -0.38376,-0.07403 -0.57807,-0.09427c-0.00654,-0.00178 -0.01332,-0.00294 -0.01976,-0.00513c-0.35922,-0.12193 -0.73501,-0.15671 -1.10653,-0.2133c-0.07746,-0.01176 -0.15528,-0.02711 -0.23312,-0.03482c-0.08953,-0.02602 -0.6306,-0.11357 -0.47055,-0.31706c0.04674,-0.05945 0.14236,-0.01524 0.203,-0.00326c0.11591,0.02274 0.22777,0.10004 0.34154,0.13676c0.14644,0.04716 0.30272,0.06433 0.45533,0.09252c0.27012,0.05009 0.53983,0.10377 0.81137,0.14618c0.19784,0.03101 0.39817,0.04628 0.59972,0.06889c0.00009,-0.00087 0.00016,-0.00173 0.00042,-0.00264c0.00862,0.0014 0.01772,0.00202 0.02748,0.00061c0.06642,-0.00907 0.13165,-0.00249 0.19676,0.00845c0.00719,0.00663 0.01498,0.01303 0.02524,0.01744c0.02475,0.01086 0.05736,0.02386 0.08435,0.04192c0.00251,0.06907 0.02275,0.13375 -0.04377,0.18024c-0.00216,0.00126 -0.00411,0.00218 -0.0062,0.00333c-0.09617,-0.00384 -0.19228,-0.00902 -0.28722,-0.02587z" fill="#30419a"/></g><g><path d="M226.57436,69.41951l-0.50577,0.81045l-0.60474,0.74807l-0.89957,0.52076l-1.45047,0.48279l-1.66477,-0.10707l-0.92063,-0.70815l-0.53032,-0.82197l-0.31424,-0.99431l0.07232,-1.09794l0.33884,-1.13212l0.71142,-1.45935l0.95833,-1.14272l1.16808,-0.86519l0.95504,-0.35161l1.04917,0.11121l0.9301,0.3334l0.62491,0.63702l0.52033,0.73767l0.20601,0.99581l0.05365,0.96991l-0.11727,0.92446l-0.33581,0.79591l-0.24461,0.61296" fill="#ffffff"/><path d="M226.33297,69.76953l-0.35159,0.3792l-0.97336,0.3812l-0.75134,0.15423l-0.83085,-0.14196l-0.2183,0.16561l-0.40353,0.46267l-0.50982,0.06175c0,0 -0.3836,-0.25087 -0.41354,-0.25807c-0.03001,-0.0071 -0.3443,-0.47965 -0.3443,-0.47965l0.07257,-0.39247l0.35866,-0.31695l0.05526,-0.34633l-0.36027,-0.63825c0,0 -0.03287,-0.77586 -0.0324,-0.79501c0.00043,-0.01932 0.26115,-0.82367 0.26115,-0.82367l0.44726,-0.89502l0.55672,-0.58503l0.73418,-0.3477l0.46119,-0.05766l0.1934,-0.23609l0.07149,-0.51973l0.33492,-0.29731l0.45475,-0.0834l0.39969,0.1331l0.31384,0.19586l0.17794,0.37783l0.05091,0.35428l-0.17997,0.28839l-0.08449,0.13539c0,0 0.22322,0.2746 0.26902,0.25665c0.04568,-0.01802 0.62713,0.3026 0.62713,0.3026l0.46815,0.53872l0.08343,0.30829l-0.02477,0.57168l-0.27827,1.00048l-0.30817,0.65962z" fill="#fcf6b6"/><path d="M219.51717,64.98255l-0.14964,0.40559l-0.4252,0.42358l-1.00812,0.17889l-0.50454,-0.31486c0,0 -0.26858,-0.41679 -0.2578,-0.45246c0.01085,-0.03578 0.11334,-0.69718 0.11334,-0.69718l0.26886,-0.43084l0.40326,-0.2778l0.50699,-0.00228l0.44638,0.07668l0.38049,0.23745l0.19882,0.32596z" fill="#ef453e"/><path d="M226.12592,63.81848c0.2075,0.19408 0.41341,0.39099 0.60487,0.60047c0.09545,0.10457 0.17124,0.2333 0.23099,0.36273c0.09258,0.20042 0.17276,0.40796 0.24134,0.6179c0.05173,0.15871 0.0836,0.32493 0.11228,0.48991c0.02996,0.17176 0.04863,0.34565 0.06621,0.51933c0.01998,0.19706 0.0352,0.39467 0.04846,0.59243c0.00312,0.04725 -0.00985,0.09549 -0.01806,0.16751c0.00274,-0.00242 0.00523,-0.00469 0.00779,-0.00708c-0.00242,0.13165 -0.0499,0.25753 -0.05461,0.38944c-0.01408,0.03361 -0.02279,0.08067 -0.02944,0.14479c-0.0307,0.29691 -0.08955,0.58376 -0.22442,0.85531c-0.14074,0.28365 -0.25635,0.57976 -0.39413,0.86481c-0.10888,0.225 -0.23283,0.44276 -0.35397,0.66165c-0.01583,0.02854 -0.03101,0.05534 -0.04149,0.08293c-0.00313,0.00356 -0.00696,0.00576 -0.00982,0.01009c-0.08181,0.12741 -0.18251,0.23998 -0.27538,0.35912c-0.08754,0.07578 -0.17956,0.14769 -0.25647,0.23316c-0.2081,0.2312 -0.44526,0.42285 -0.71345,0.57937c-0.17368,0.10146 -0.33599,0.22348 -0.51394,0.31585c-0.17575,0.09129 -0.36191,0.16446 -0.54858,0.23179c-0.19065,0.06883 -0.38597,0.12525 -0.58179,0.17831c-0.10039,0.0272 -0.20845,0.0262 -0.30892,0.05304c-0.35739,0.09565 -0.71444,0.09705 -1.07458,0.02001c-0.17425,-0.03741 -0.35274,-0.05651 -0.52489,-0.10072c-0.08846,-0.02259 -0.16643,-0.0838 -0.25029,-0.12528c-0.15084,-0.07469 -0.30154,-0.1496 -0.454,-0.22072c-0.17895,-0.08336 -0.27669,-0.25073 -0.38557,-0.39659c-0.17138,-0.2294 -0.30921,-0.48362 -0.46567,-0.72468c-0.16209,-0.24993 -0.24999,-0.5307 -0.32099,-0.81378c-0.06058,-0.24092 -0.11243,-0.49139 -0.11373,-0.73801c-0.00143,-0.25818 0.06216,-0.51682 0.09694,-0.77538c0.01183,-0.08813 0.01628,-0.17764 0.03423,-0.26456c0.02667,-0.12908 0.05188,-0.25997 0.09667,-0.38325c0.08004,-0.21975 0.17024,-0.43591 0.26337,-0.65039c0.11907,-0.27468 0.2443,-0.54673 0.36918,-0.8187c0.02822,-0.06167 0.04116,-0.10962 -0.04006,-0.13888c-0.27436,-0.09897 -0.54782,-0.20013 -0.82178,-0.30023c-0.06699,-0.02436 -0.13659,-0.02493 -0.17174,0.0439c-0.06737,0.13199 -0.20195,0.15437 -0.31662,0.1993c-0.19312,0.07572 -0.39229,0.13784 -0.59269,0.19187c-0.2226,0.05992 -0.43503,0.04689 -0.66867,-0.01825c-0.31234,-0.08716 -0.42095,-0.35362 -0.59877,-0.55382c-0.07977,-0.08973 -0.0837,-0.26591 -0.08416,-0.40303c-0.00079,-0.22611 0.0015,-0.45886 0.05203,-0.67743c0.1027,-0.44392 0.41307,-0.69136 0.84852,-0.7914c0.30214,-0.06966 0.59235,-0.02968 0.88286,0.07309c0.17073,0.06047 0.34911,0.10354 0.47035,0.24455c0.09991,0.11608 0.207,0.23953 0.26113,0.37893c0.12273,0.31643 0.12222,0.64077 -0.03576,0.95376c-0.01488,0.02974 -0.01674,0.06608 -0.02548,0.10288c0.30392,0.11145 0.59934,0.21836 0.89346,0.32859c0.08698,0.03255 0.14491,0.01895 0.19413,-0.06728c0.04416,-0.07714 0.11219,-0.1403 0.15971,-0.21595c0.04789,-0.07649 0.08106,-0.16201 0.12538,-0.24089c0.03543,-0.06315 0.07398,-0.12541 0.11801,-0.18273c0.30949,-0.40273 0.7316,-0.6911 1.07959,-1.05571c0.11757,-0.12316 0.28457,-0.20093 0.43318,-0.29264c0.14291,-0.08821 0.28761,-0.1744 0.43793,-0.2485c0.14255,-0.07023 0.28891,-0.14189 0.44177,-0.18058c0.26926,-0.06799 0.54308,-0.1391 0.81845,-0.15751c0.29691,-0.01982 0.59522,0.02262 0.87216,0.16162c0.17648,0.08855 0.36178,0.16148 0.54728,0.23041c0.17898,0.06639 0.32597,0.17863 0.46165,0.30508zM219.34921,65.18645c0.0219,-0.16435 0.04889,-0.32949 0.05138,-0.49462c0.0037,-0.24335 -0.13283,-0.43539 -0.31839,-0.55746c-0.24684,-0.16246 -0.52948,-0.24594 -0.83786,-0.23128c-0.35303,0.01678 -0.6188,0.17189 -0.76054,0.48829c-0.07539,0.16815 -0.08872,0.36586 -0.11937,0.55184c-0.06318,0.38256 0.15769,0.62954 0.41061,0.85165c0.02849,0.01517 0.04811,0.02911 0.07,0.03695c0.40241,0.14567 0.76591,0.04097 1.10713,-0.18231c0.06908,-0.04521 0.12172,-0.10603 0.11845,-0.21139c-0.00218,-0.06886 0.05077,-0.14831 0.14774,-0.1455c0.07703,0.00214 0.12156,-0.03634 0.13084,-0.10616zM226.18119,65.99522c-0.18035,-0.08209 -0.33034,-0.15472 -0.48367,-0.21903c-0.16053,-0.06727 -0.32749,-0.12003 -0.48614,-0.19103c-0.3721,-0.16654 -0.76146,-0.19969 -1.15736,-0.14093c-0.31242,0.0464 -0.62303,0.10559 -0.90807,0.26215c-0.23195,0.1274 -0.45569,0.26909 -0.5957,0.49197c-0.20367,0.32367 -0.43385,0.6317 -0.56002,1.00435c-0.0857,0.2531 -0.19753,0.49311 -0.23328,0.76452c-0.03285,0.24935 -0.03557,0.48673 0.0341,0.73072c0.12288,0.43026 0.2827,0.83687 0.64105,1.12893c0.14395,0.11738 0.29391,0.2327 0.45657,0.32059c0.17323,0.09326 0.36704,0.14716 0.54729,0.22843c0.30164,0.1362 0.62705,0.14503 0.94656,0.18172c0.08182,0.00942 0.19597,-0.00597 0.2478,-0.05765c0.06286,-0.06271 0.12219,-0.07268 0.19519,-0.07855c0.06578,-0.00533 0.13236,-0.00557 0.19718,-0.01624c0.27964,-0.04636 0.52133,-0.18666 0.76621,-0.31761c0.10635,-0.05685 0.22616,-0.10314 0.30929,-0.18535c0.10924,-0.10785 0.1962,-0.24155 0.27799,-0.37311c0.0798,-0.12837 0.14074,-0.26819 0.21073,-0.40268c0.09475,-0.18224 0.21465,-0.35599 0.2792,-0.54821c0.09752,-0.28996 0.20728,-0.58084 0.22174,-0.89294c0.00961,-0.20722 0.06698,-0.42717 0.01634,-0.61827c-0.05534,-0.20933 -0.18248,-0.4174 -0.3294,-0.5798c-0.17622,-0.19491 -0.40667,-0.34071 -0.5936,-0.49196zM225.21343,65.29072c0.18248,0.05219 0.35825,0.1279 0.53934,0.18551c0.03267,0.01044 0.09736,-0.00323 0.11284,-0.02755c0.10216,-0.16125 0.11411,-0.34129 0.0539,-0.51631c-0.08211,-0.23905 -0.27931,-0.39272 -0.46731,-0.57784c-0.11317,-0.02837 -0.24166,-0.07337 -0.37391,-0.09054c-0.20266,-0.02622 -0.35837,0.10238 -0.5237,0.19191c-0.02545,0.01381 -0.05364,0.04427 -0.05843,0.07083c-0.02743,0.15507 -0.05608,0.31061 -0.06874,0.46725c-0.00751,0.09419 0.05015,0.13447 0.15201,0.15104c0.21367,0.03508 0.42559,0.08621 0.63398,0.14569zM225.57841,63.78293c-0.32573,-0.17511 -0.66206,-0.26331 -1.01859,-0.27918c-0.43821,-0.01938 -0.87562,0.00337 -1.30027,0.14107c-0.31098,0.10074 -0.57818,0.27577 -0.82537,0.47983c-0.26508,0.21876 -0.52035,0.45023 -0.7705,0.68626c-0.16126,0.15221 -0.31707,0.31336 -0.45365,0.48756c-0.10937,0.13945 -0.18396,0.30582 -0.27778,0.45788c-0.03858,0.06256 -0.09705,0.11407 -0.13019,0.17896c-0.14915,0.29172 -0.30572,0.58064 -0.43489,0.88132c-0.19233,0.44799 -0.42717,0.88292 -0.49678,1.37488c-0.05511,0.38975 -0.12967,0.78296 -0.03202,1.17344c0.07264,0.28977 0.15226,0.58282 0.27477,0.8535c0.17404,0.38457 0.38976,0.7514 0.68949,1.05645c0.1069,0.1088 0.21947,0.22543 0.35277,0.29193c0.32391,0.16158 0.66425,0.28703 1.02686,0.33729c0.29006,0.0402 0.5797,0.05165 0.86821,-0.01749c0.13458,-0.03219 0.27268,-0.05116 0.40484,-0.09098c0.26783,-0.08066 0.54021,-0.15314 0.79587,-0.26359c0.219,-0.09462 0.42479,-0.22623 0.62252,-0.36182c0.24094,-0.1651 0.47059,-0.34719 0.6987,-0.53024c0.08724,-0.07015 0.15634,-0.16295 0.23377,-0.24535c-0.00616,-0.00828 -0.01214,-0.0166 -0.01837,-0.02478c-0.37133,0.17266 -0.71073,0.41071 -1.1446,0.43979c-0.43224,0.02918 -0.83178,-0.08774 -1.24649,-0.17542c-0.03754,0.07071 -0.07716,0.13368 -0.10596,0.20142c-0.14759,0.34687 -0.40206,0.53782 -0.78436,0.53603c-0.08652,-0.00042 -0.17527,-0.01739 -0.25883,-0.04121c-0.18309,-0.05196 -0.36316,-0.11291 -0.49016,-0.26946c-0.06125,-0.07526 -0.124,-0.14933 -0.19002,-0.22038c-0.27404,-0.29422 -0.27398,-0.73607 0.03273,-0.9835c0.06947,-0.05614 0.15104,-0.09707 0.22119,-0.15233c0.02675,-0.02127 0.06008,-0.07348 0.05113,-0.09421c-0.0529,-0.12103 -0.11504,-0.23802 -0.17848,-0.35415c-0.13201,-0.24172 -0.23261,-0.50606 -0.24319,-0.77165c-0.01349,-0.34163 0.00469,-0.68937 0.13054,-1.02471c0.12027,-0.32076 0.22598,-0.64541 0.41468,-0.93479c0.03186,-0.04885 0.08031,-0.08993 0.10003,-0.14237c0.0979,-0.26063 0.29555,-0.44587 0.48261,-0.63526c0.18101,-0.18336 0.41087,-0.30227 0.65373,-0.37969c0.26248,-0.08385 0.53241,-0.14531 0.80102,-0.2088c0.07441,-0.0177 0.10283,-0.04189 0.10324,-0.12276c0.00073,-0.11571 0.02158,-0.23128 0.03385,-0.34684c0.02716,-0.25519 0.1444,-0.43397 0.38983,-0.54422c0.34785,-0.1564 0.6864,-0.18482 1.02045,0.00957c0.30486,0.1774 0.53865,0.41864 0.58187,0.79062c0.01318,0.11353 0.01362,0.23228 -0.00436,0.34473c-0.01171,0.07321 -0.06681,0.13969 -0.10299,0.20894c-0.03757,0.07221 -0.02846,0.11648 0.05521,0.15582c0.29484,0.13899 0.56279,0.31937 0.79145,0.55437c0.06938,0.0713 0.13739,0.14406 0.20716,0.21744c0.01358,-0.01709 0.02113,-0.02233 0.02245,-0.02886c0.00294,-0.01501 0.00544,-0.03104 0.00397,-0.04634c-0.06281,-0.65527 -0.23755,-1.27539 -0.6612,-1.79002c-0.25157,-0.30546 -0.53239,-0.58295 -0.89588,-0.77872zM222.92641,70.46442c-0.20969,-0.13025 -0.41513,-0.26778 -0.61984,-0.40625c-0.05944,-0.04015 -0.10386,-0.11197 -0.16759,-0.13444c-0.10258,-0.03601 -0.35738,0.08877 -0.43696,0.21237c-0.01316,0.05224 -0.04705,0.13426 -0.05271,0.21813c-0.01743,0.25652 0.32751,0.69051 0.58059,0.75171c0.46853,0.1133 0.73278,-0.11638 0.9244,-0.48843c0.00964,-0.01863 -0.01256,-0.07381 -0.03359,-0.08402c-0.06157,-0.02985 -0.13745,-0.03358 -0.1943,-0.06906z" fill="#30419a"/><path d="M224.78774,66.33145c-0.03391,0.19879 -0.05598,0.39946 -0.09558,0.59683c-0.03624,0.18095 -0.07958,0.36177 -0.13759,0.53664c-0.07563,0.22862 -0.16,0.4553 -0.25696,0.67567c-0.09088,0.2067 -0.20173,0.40492 -0.30627,0.60555c-0.1257,0.24115 -0.25348,0.481 -0.38152,0.721c-0.04205,0.07891 -0.12451,0.10337 -0.19027,0.0709c-0.06163,-0.0305 -0.07197,-0.10322 -0.03174,-0.18067c0.07915,-0.15234 0.15625,-0.30581 0.23295,-0.45937c0.04022,-0.07133 0.07776,-0.14373 0.11414,-0.21699c0.04889,-0.07098 0.09406,-0.14411 0.12536,-0.22468c0.00124,0.00047 0.00248,0.00093 0.00376,0.00158c0.05102,-0.12566 0.10299,-0.25087 0.15277,-0.377c0.09129,-0.2314 0.19062,-0.46023 0.26834,-0.69612c0.05318,-0.16197 0.08247,-0.33302 0.10999,-0.50197c0.03193,-0.19513 0.0497,-0.39236 0.07495,-0.58858c0.00382,-0.02991 0.00596,-0.06867 0.02481,-0.08661c0.05153,-0.04897 0.10928,-0.11992 0.1686,-0.12422c0.06893,-0.00474 0.13753,0.16985 0.12424,0.24805z" fill="#30419a"/><path d="M223.2621,66.90967c-0.06413,-0.10523 0.05727,-0.21391 0.15435,-0.22526c0.15654,-0.01833 0.24904,0.11256 0.20534,0.25274c-0.01291,0.04153 -0.03292,0.06992 -0.0574,0.08755c-0.09123,0.06597 -0.24245,-0.01691 -0.30229,-0.11503z" fill="#30419a"/><path d="M222.65017,68.21377c-0.00228,-0.11285 0.16082,-0.16597 0.25057,-0.14226c0.05008,0.01319 0.12947,0.05203 0.15103,0.10283c0.02625,0.06169 -0.03304,0.14958 -0.0828,0.18542c-0.00656,0.00463 -0.01336,0.00866 -0.02057,0.01212c-0.11061,0.05388 -0.2955,-0.03027 -0.29823,-0.1581z" fill="#30419a"/></g></g><g><path d="M226.80809,73.96189l-0.14338,0.4017l0.30879,0.1927l0.15724,0.31287l0.14278,0.5036l-0.17327,0.55187l-0.45875,0.40448l-0.50888,0.23758l-0.72167,-0.05913l-0.52201,-0.15785l-0.38408,-0.35555l-0.17035,-0.47534l0.00426,-0.59597c0,0 0.14622,-0.43053 0.23271,-0.49947c0.08631,-0.06889 0.17036,-0.27298 0.17036,-0.27298c0,0 0.43668,-0.13096 0.46013,-0.1624c0.02345,-0.03144 0.19301,-0.09445 0.21728,-0.14069c0.02416,-0.04631 0.08194,-0.2559 0.08194,-0.2559l0.15697,-0.52746l0.47504,0.20048l0.6753,0.338z" fill="#ef453e"/><path d="M224.33699,75.18103l0.01277,0.38006l0.19138,0.46641l0.18868,0.1747l0.15919,0.1474l0.21574,0.13846l-0.02168,0.2626l-0.08132,0.22843l-0.04658,0.25884l0.23494,0.31544l0.05873,0.33144l-0.13447,0.21547l-0.37392,0.17365l-0.23004,-0.08463l-0.23398,-0.14602l-0.38058,0.02072c0,0 -0.32796,-0.01334 -0.34547,0.09175c-0.01758,0.10519 -0.27175,0.08082 -0.27175,0.08082l-0.35403,-0.12878l-0.30093,0.01179l-0.26466,0.11112l-0.35299,0.20951l-0.37109,0.10608l-0.2375,-0.14822l-0.22224,-0.24062l-0.02945,-0.18629l0.07541,-0.12085c0,0 0.12592,-0.22019 0.1466,-0.31489c0.02072,-0.09452 0.14657,-0.27679 0.14657,-0.27679l-0.06766,-0.34927l-0.25173,-0.3371l-0.05976,-0.23092l-0.05819,-0.29452l0.14427,-0.37589c0,0 0.34655,-0.35909 0.33187,-0.38708c-0.01461,-0.02809 0.07133,-0.25901 0.07133,-0.25901c0,0 -0.11859,-0.47318 -0.12361,-0.50953c-0.00507,-0.03652 0.00064,-0.27573 0.00064,-0.27573l0.37623,-0.32817l0.50112,0.04931l0.16042,0.13072l0.26378,0.27926l0.18523,0.00095l0.5234,0.01974l0.38211,0.00626l0.19109,0.05803l0.2384,0.27138z" fill="#9e7eb9"/><path d="M226.71044,73.54126l-0.67554,-0.24218l-0.30657,-0.19132l-0.02989,-0.10834c0,0 0.18024,-0.22456 0.20179,-0.22229c0.02148,0.00238 0.22231,-0.06805 0.27962,-0.0554c0.05724,0.01276 0.30056,0.10628 0.30056,0.10628l0.25295,0.21618l0.15294,0.32764l-0.03944,0.13457z" fill="#fabfbd"/><g><path d="M221.32527,77.97651c0.21204,0.00972 0.43147,0.21462 0.45304,0.42951c-0.17454,0.08592 -0.26819,-0.05685 -0.37613,-0.12941c-0.06241,-0.04201 -0.10053,-0.12611 -0.13817,-0.19751c-0.02759,-0.05242 -0.01466,-0.10603 0.06126,-0.10258z" fill="none"/><path d="M223.19008,76.60019c0.1809,0.12437 0.19441,0.32765 0.20396,0.51346c0.00391,0.07468 -0.10605,0.15621 -0.16662,0.2329c-0.01218,0.01535 -0.03381,0.0262 -0.05329,0.03241c-0.21248,0.06822 -0.61463,-0.15536 -0.66128,-0.37517c-0.02812,-0.13373 0.06798,-0.221 0.14958,-0.30859c0.17999,-0.19349 0.33019,-0.22007 0.52765,-0.09501z" fill="none"/><path d="M221.7603,74.37294c-0.03745,-0.00302 -0.09572,-0.02025 -0.10403,-0.04472c-0.01053,-0.03122 0.00907,-0.08664 0.03466,-0.11368c0.11727,-0.12365 0.25264,-0.2155 0.43525,-0.20103c0.04579,0.00363 0.09199,0.0049 0.11411,0.00601c-0.00777,0.06173 -0.01497,0.12014 -0.0254,0.20379c-0.11678,0.0883 -0.27059,0.16405 -0.4546,0.14963z" fill="none"/><path d="M224.32623,76.86365c0.10314,0.05793 0.06324,0.14171 0.01475,0.21599c-0.0206,0.03154 -0.05461,0.05439 -0.0827,0.08125c-0.01699,-0.00662 -0.03386,-0.01318 -0.05101,-0.02005c0.00035,-0.07953 -0.00775,-0.16049 0.00625,-0.23762c0.00377,-0.02076 0.0884,-0.05335 0.11271,-0.03956z" fill="none"/><path d="M225.03712,77.80121c0.03361,0.00108 0.08792,0.00849 0.0956,0.02782c0.01608,0.03973 0.02635,0.11303 0.00466,0.13087c-0.09327,0.0771 -0.1932,0.15188 -0.30272,0.20032c-0.04143,0.01807 -0.11513,-0.03725 -0.18563,-0.06334c0.10612,-0.17545 0.20118,-0.30104 0.38809,-0.29568z" fill="none"/><path d="M224.5016,76.1458c0.10433,0.12296 0.21449,0.22262 0.36094,0.29013c0.1038,0.04779 0.15132,0.20097 0.09458,0.32475c-0.05784,0.1263 -0.12692,0.24681 -0.09295,0.3903c0.03035,0.12822 0.07177,0.25387 0.11091,0.38957c-0.29858,0.07449 -0.55144,0.37496 -0.55192,0.50965c-0.16084,-0.1391 -0.34672,-0.13264 -0.53414,-0.11461c-0.03308,0.00323 -0.06582,0.01495 -0.09759,0.02589c-0.15987,0.05482 -0.31761,0.14741 -0.47988,0.15604c-0.15727,0.00823 -0.31814,-0.07394 -0.47906,-0.10794c-0.17558,-0.03701 -0.35358,-0.12361 -0.53044,-0.01311c-0.04439,0.02771 -0.07122,0.08397 -0.10584,0.12743c-0.05181,0.06486 -0.1031,0.12989 -0.1433,0.18057c-0.0847,-0.11225 -0.14921,-0.22765 -0.2419,-0.31213c-0.09421,-0.08572 -0.2162,-0.1409 -0.35214,-0.22573c0.03435,-0.04377 0.07226,-0.0925 0.1104,-0.1411c0.13064,-0.16643 0.17299,-0.53154 -0.01239,-0.73508c-0.09919,-0.10889 -0.1719,-0.24428 -0.24367,-0.37477c-0.10468,-0.19084 -0.04774,-0.63086 0.09726,-0.79476c0.07891,-0.08943 0.16627,-0.17128 0.24822,-0.2582c0.15693,-0.16611 0.21703,-0.41129 0.04974,-0.69386c-0.0337,-0.05685 -0.05531,-0.12084 -0.08619,-0.18909c0.33628,-0.05127 0.68274,-0.02026 0.9144,-0.31422c0.01017,0.0016 0.02194,-0.00008 0.02587,0.00467c0.1903,0.23662 0.42123,0.29898 0.71688,0.20981c0.11637,-0.03514 0.25723,0.01113 0.38693,0.0206c0.03842,0.0027 0.07821,0.01376 0.11476,0.00718c0.204,-0.03601 0.3423,0.07571 0.43795,0.22509c0.04644,0.07276 0.03192,0.18921 0.03159,0.28589c-0.00032,0.15332 -0.03737,0.31081 -0.01317,0.45892c0.03889,0.23764 0.09779,0.47216 0.26417,0.66813zM222.53916,75.26781c0.16168,-0.06334 -0.03083,-0.15883 0.01843,-0.2412c-0.10044,-0.0186 -0.17019,0.02696 -0.15863,0.10213c0.00841,0.05423 0.03878,0.17895 0.1402,0.13907zM221.72371,76.33072c0.01211,0.00389 0.02586,0.01032 0.03727,0.00795c0.07428,-0.01503 0.16246,-0.01188 0.21959,-0.05215c0.30214,-0.21339 0.36344,-0.57355 0.07706,-0.85267c-0.08003,-0.0778 -0.26818,-0.07109 -0.34088,0.00247c-0.13727,0.13903 -0.16251,0.28323 -0.06493,0.39494c0.02184,0.0251 0.05733,0.03837 0.08656,0.05677c0.01736,-0.03126 0.03764,-0.0613 0.05142,-0.09418c0.02437,-0.05796 0.04495,-0.11766 0.06703,-0.17659c0.12904,0.13365 0.15001,0.26243 0.07218,0.39402c-0.02615,0.0446 -0.0743,0.07639 -0.11233,0.11403c-0.03041,-0.03933 -0.06061,-0.07899 -0.09175,-0.11787c-0.01879,-0.02336 -0.03918,-0.06378 -0.05889,-0.06384c-0.02813,0.0002 -0.06514,0.02394 -0.08237,0.04885c-0.03349,0.04828 0.08298,0.31979 0.14003,0.33826zM222.0381,76.98901c0.02203,-0.10028 -0.07718,-0.14047 -0.14185,-0.13889c-0.13163,0.00342 -0.0506,0.12623 -0.10243,0.20976c0.10947,0.00142 0.21458,0.06427 0.24428,-0.07087zM223.71755,77.53488c0.00952,0.16451 0.0634,0.24007 0.16042,0.2195c0.06948,-0.01496 0.12864,-0.05137 0.11064,-0.14295c-0.01943,-0.09861 -0.09159,-0.12083 -0.27106,-0.07655zM223.6544,77.1399c-0.03999,-0.20817 -0.02545,-0.44092 -0.22106,-0.59177c-0.08937,-0.06894 -0.16842,-0.16204 -0.26904,-0.20341c-0.26895,-0.11059 -0.50133,-0.01117 -0.68381,0.19072c-0.0839,0.09275 -0.17645,0.22142 -0.17896,0.33557c-0.00588,0.27751 0.19373,0.46069 0.3863,0.63138c0.0372,0.03286 0.10403,0.03294 0.15775,0.04595c0.10688,0.02568 0.21311,0.06075 0.3216,0.07258c0.21946,0.02384 0.29626,-0.17207 0.43224,-0.29628c0.01849,-0.05734 0.06593,-0.12676 0.05497,-0.18473zM224.0529,76.71986c-0.04805,0.06032 -0.04933,0.16024 -0.06546,0.24323c-0.00945,0.04874 -0.02523,0.11008 -0.00512,0.1485c0.0644,0.12269 0.17591,0.21798 0.30956,0.22088c0.08544,0.0019 0.17283,-0.08316 0.27474,-0.13758c0.00041,-0.11347 0.01809,-0.20804 -0.00242,-0.2934c-0.05291,-0.22083 -0.33857,-0.39833 -0.5113,-0.18163zM223.8475,76.01739c0.02551,0.10408 -0.01842,0.22989 0.13137,0.23857c0.07908,0.0045 0.12712,-0.05138 0.11252,-0.13198c-0.02687,-0.14825 -0.14595,-0.08252 -0.24389,-0.10659zM223.9221,75.3487c-0.01552,-0.07152 -0.12622,-0.12224 -0.19421,-0.18228c-0.01593,0.0069 -0.0318,0.01368 -0.04784,0.0205c0.00607,0.0592 0.01484,0.11824 0.01717,0.17755c0.00195,0.05157 0.01605,0.11777 -0.00939,0.1524c-0.09354,0.12806 -0.48996,0.15404 -0.61048,0.04868c-0.0188,-0.01647 -0.03606,-0.03689 -0.04728,-0.05889c-0.11791,-0.23292 0.02453,-0.45061 0.30351,-0.45912c0.1634,-0.00503 0.16485,-0.00121 0.1113,-0.15799c-0.20333,-0.03276 -0.39075,-0.03829 -0.54263,0.1504c-0.15765,0.19595 -0.12425,0.54174 0.08476,0.68167c0.14926,0.10004 0.31701,0.10814 0.4888,0.11738c0.13977,0.00732 0.24537,-0.04983 0.34275,-0.13523c0.10893,-0.09534 0.12962,-0.23442 0.10357,-0.35506z" fill="none"/><path d="M225.74628,73.24846c0.31435,0.15041 0.63012,0.29878 0.94219,0.45481c0.03304,0.01648 0.06273,0.07878 0.0607,0.11808c-0.00512,0.09675 -0.01193,0.20088 -0.05233,0.28572c-0.00694,0.0148 -0.01791,0.0277 -0.03131,0.03986c-0.10879,0.02716 -0.15277,0.1543 -0.0919,0.26499c0.04311,0.07833 0.12037,0.11077 0.18439,0.16588c0.07024,0.06037 0.14357,0.14593 0.18054,0.23114c0.04371,0.1009 0.10186,0.19612 0.13501,0.30145c0.04076,0.12968 0.01941,0.27155 0.00015,0.40371c-0.04709,0.32465 -0.19084,0.55744 -0.4883,0.70226c-0.2919,0.14203 -0.58403,0.27487 -0.91922,0.21967c-0.1595,-0.02622 -0.31793,-0.06448 -0.47386,-0.10821c-0.33447,-0.09363 -0.65535,-0.4082 -0.69694,-0.78084c-0.02671,-0.23877 -0.0547,-0.47695 0.00721,-0.71229c0.05569,-0.21138 0.1146,-0.4316 0.28697,-0.58225c0.09869,-0.08628 0.20811,-0.10538 0.33542,-0.10139c0.09316,0.00303 0.20973,0.02298 0.2974,-0.01032c0.08628,-0.03279 0.11057,-0.07809 0.10088,-0.12363c0.02284,-0.03365 0.03811,-0.07678 0.04518,-0.12808c0.02606,-0.19114 0.08002,-0.37864 0.12461,-0.56709c0.00482,-0.02071 0.0264,-0.0374 0.0532,-0.07348z" fill="none"/><path d="M227.06346,73.12346c0.0368,0.05067 0.03239,0.13623 0.02099,0.19448c-0.01557,0.08013 -0.03114,0.16026 -0.04534,0.24139c-0.03454,0.19687 -0.06872,0.39365 -0.1021,0.59062c-0.00555,0.0322 -0.0049,0.0623 -0.00102,0.09166c0.12267,0.09752 0.23276,0.24535 0.27959,0.35157c0.17944,0.4051 0.19274,0.83385 0.06359,1.24488c-0.0576,0.18354 -0.22572,0.35827 -0.38732,0.47814c-0.31403,0.23367 -0.68423,0.36357 -1.07764,0.38056c-0.16592,0.00711 -0.33445,-0.04953 -0.50142,-0.07827c-0.03329,-0.00577 -0.06554,-0.01687 -0.06241,-0.01599c-0.04611,0.15336 -0.09004,0.29953 -0.13338,0.44575c-0.00599,0.02014 -0.01529,0.04387 -0.00982,0.06184c0.03987,0.12865 0.05976,0.25816 0.13781,0.371c0.05681,0.08213 0.15791,0.14798 0.19015,0.24372c0.05916,0.17574 -0.09566,0.37944 -0.19437,0.51038c-0.0896,0.11904 -0.2451,0.2326 -0.39427,0.26855c-0.16623,0.03999 -0.37224,-0.08168 -0.48378,-0.19506c-0.15333,-0.1563 -0.3452,-0.17087 -0.53486,-0.07127c-0.10105,0.05327 -0.225,0.07309 -0.34097,0.08552c-0.19808,0.02088 -0.40086,0.06791 -0.59251,-0.03531c-0.00373,-0.00186 -0.00834,-0.00183 -0.01235,-0.00326c-0.10854,-0.04018 -0.23899,-0.09924 -0.35546,-0.05805c-0.13615,0.0482 -0.20949,0.19957 -0.31428,0.28754c-0.25053,0.2104 -0.53082,0.22221 -0.79843,0.02781c-0.16297,-0.11853 -0.31728,-0.2453 -0.37358,-0.45186c-0.07126,-0.26181 0.21076,-0.49373 0.32599,-0.70192c0.11387,-0.20552 -0.08765,-0.43568 -0.18627,-0.60803c-0.13628,-0.23856 -0.17574,-0.43752 -0.19386,-0.70674c-0.02025,-0.29963 0.11511,-0.52465 0.36554,-0.68827c0.12996,-0.08513 0.16134,-0.21952 0.15793,-0.36858c-0.00395,-0.18154 -0.04352,-0.34675 -0.13366,-0.50938c-0.06583,-0.11868 0.051,-0.35985 0.17598,-0.46767c0.24169,-0.20825 0.51574,-0.26622 0.82494,-0.21377c0.14088,0.02394 0.22465,0.10407 0.29474,0.21838c0.08865,0.14395 0.19738,0.24562 0.39234,0.22999c0.22587,-0.01808 0.45414,-0.01521 0.6808,-0.00709c0.22002,0.00797 0.41285,0.09019 0.54101,0.23752c-0.01298,-0.01499 0.28252,-0.40564 0.31883,-0.43977c0.11531,-0.1085 0.29735,-0.19418 0.45188,-0.22081c0.01641,-0.00276 0.0326,-0.0049 0.04886,-0.00716c-0.00562,-0.00228 -0.01089,-0.00511 -0.01678,-0.00695c0.00165,-0.0002 0.00336,-0.0005 0.00506,-0.00052c0.18475,-0.00761 0.25408,-0.11894 0.28654,-0.28037c0.02405,-0.11923 0.06234,-0.23553 0.09052,-0.35402c0.0374,-0.15681 0.05396,-0.34179 0.11418,-0.49079c0.03223,-0.07937 0.12723,-0.18448 0.20346,-0.09252c0.06042,0.07291 0.02793,0.19635 0.00693,0.2783c-0.0187,0.07313 0.0137,0.10314 0.07907,0.12986c0.21838,0.0896 0.43219,0.19042 0.65133,0.27804c0.06587,0.02642 0.14332,0.02347 0.21549,0.03438c0.03012,0.00472 0.06006,0.01069 0.08712,0.01564c-0.01898,-0.00343 0.08792,-0.18406 0.10191,-0.20548c0.03902,-0.05983 0.08325,-0.08779 0.13329,-0.0186zM221.7603,74.37294c0.1839,0.01435 0.33771,-0.0614 0.4546,-0.14963c0.01042,-0.08365 0.01763,-0.14206 0.0254,-0.20379c-0.02212,-0.0011 -0.06832,-0.00238 -0.11411,-0.00601c-0.1826,-0.01447 -0.31787,0.07744 -0.43525,0.20103c-0.0256,0.02703 -0.04519,0.08246 -0.03466,0.11368c0.00831,0.02447 0.06658,0.0417 0.10403,0.04472zM221.32538,77.97658c-0.07602,-0.00351 -0.08897,0.05009 -0.06127,0.10259c0.03752,0.07133 0.07566,0.15543 0.13818,0.1975c0.10782,0.07249 0.20147,0.21527 0.37613,0.12941c-0.02157,-0.21488 -0.24099,-0.41978 -0.45303,-0.4295zM225.03715,77.80139c-0.18691,-0.00536 -0.28207,0.12015 -0.38819,0.29561c0.0705,0.02609 0.14419,0.08141 0.1857,0.06323c0.10952,-0.04844 0.20956,-0.12315 0.30265,-0.20022c0.02176,-0.01795 0.01148,-0.09125 -0.00466,-0.13086c-0.00768,-0.01933 -0.06193,-0.02685 -0.09549,-0.02775zM224.23754,75.47774c-0.0242,-0.14811 0.01285,-0.3056 0.01317,-0.45891c0.00033,-0.09668 0.01474,-0.21321 -0.03159,-0.28589c-0.09565,-0.14938 -0.23395,-0.2611 -0.43795,-0.22509c-0.03666,0.00651 -0.07645,-0.00455 -0.11487,-0.00725c-0.12959,-0.00939 -0.27046,-0.05567 -0.38683,-0.02053c-0.29572,0.08928 -0.52657,0.0268 -0.71698,-0.20988c-0.00375,-0.00478 -0.01559,-0.00299 -0.02576,-0.00459c-0.23166,0.29395 -0.57819,0.26306 -0.91451,0.31414c0.03088,0.06825 0.05259,0.13231 0.0863,0.18915c0.16729,0.28257 0.10707,0.52769 -0.04974,0.69387c-0.08206,0.08685 -0.1693,0.16878 -0.24833,0.25813c-0.14499,0.1639 -0.2019,0.60411 -0.09715,0.79484c0.07178,0.1305 0.14449,0.26588 0.24356,0.3747c0.18538,0.20354 0.14315,0.56872 0.01251,0.73515c-0.03824,0.04853 -0.07616,0.09727 -0.1104,0.1411c0.13583,0.08476 0.25793,0.14001 0.35214,0.22573c0.09269,0.08447 0.1572,0.19988 0.2419,0.31213c0.0402,-0.05068 0.0915,-0.11571 0.1433,-0.18058c0.0345,-0.04352 0.06134,-0.09978 0.10573,-0.12749c0.17697,-0.11043 0.35498,-0.02383 0.53044,0.01311c0.16103,0.03406 0.32179,0.11617 0.47917,0.10801c0.16216,-0.0087 0.31989,-0.10129 0.47977,-0.15611c0.03188,-0.01086 0.0645,-0.02266 0.09759,-0.02589c0.18753,-0.01797 0.37341,-0.02442 0.53425,0.11468c0.00037,-0.13477 0.25324,-0.43523 0.55182,-0.50972c-0.03903,-0.13563 -0.08064,-0.26125 -0.1108,-0.3895c-0.03409,-0.14356 0.03504,-0.2639 0.09285,-0.39037c0.05685,-0.12371 0.00932,-0.27688 -0.09448,-0.32467c-0.14656,-0.06758 -0.25653,-0.16728 -0.36093,-0.29014c-0.16649,-0.19604 -0.22539,-0.43056 -0.26417,-0.66813zM226.68826,73.7036c-0.312,-0.15614 -0.62777,-0.30452 -0.94212,-0.45493c-0.02685,0.0359 -0.04832,0.05266 -0.05314,0.07337c-0.04459,0.18845 -0.09854,0.37595 -0.12461,0.56709c-0.007,0.0512 -0.02227,0.09432 -0.04518,0.12808c0.00969,0.04554 -0.0146,0.09083 -0.10088,0.12363c-0.08767,0.0333 -0.20443,0.0134 -0.29741,0.01032c-0.1272,-0.00392 -0.23673,0.01512 -0.33542,0.10139c-0.17245,0.15076 -0.23128,0.37087 -0.28697,0.58225c-0.06191,0.23534 -0.03393,0.47352 -0.00721,0.71228c0.04159,0.37264 0.36259,0.68729 0.69695,0.78085c0.15592,0.04373 0.31434,0.08199 0.47384,0.10821c0.33519,0.0552 0.62733,-0.07765 0.91923,-0.21967c0.29746,-0.14482 0.44122,-0.37761 0.4883,-0.70226c0.01926,-0.13217 0.04061,-0.27404 -0.00015,-0.40372c-0.03314,-0.10533 -0.0914,-0.20061 -0.13507,-0.30133c-0.0369,-0.08532 -0.11024,-0.17088 -0.18048,-0.23125c-0.0641,-0.055 -0.14128,-0.08756 -0.18439,-0.16589c-0.0608,-0.1108 -0.01689,-0.23784 0.0919,-0.26499c0.0134,-0.01215 0.02425,-0.02512 0.0313,-0.03986c0.04039,-0.08484 0.04732,-0.18889 0.05226,-0.2856c0.00209,-0.03941 -0.0276,-0.10171 -0.06077,-0.11797z" fill="#30419a"/><path d="M223.65422,77.13994c0.01104,0.05786 -0.03641,0.12727 -0.05479,0.18468c-0.13617,0.12426 -0.21285,0.32024 -0.43236,0.29622c-0.10855,-0.01172 -0.21467,-0.04673 -0.3216,-0.07259c-0.05372,-0.01301 -0.12055,-0.01308 -0.15764,-0.04587c-0.19257,-0.17069 -0.39236,-0.35384 -0.3863,-0.63138c0.00233,-0.1141 0.09488,-0.24278 0.17878,-0.33553c0.18258,-0.20182 0.41498,-0.30124 0.68392,-0.19065c0.10051,0.0413 0.17955,0.13439 0.26892,0.20333c0.19561,0.15085 0.18125,0.38357 0.22106,0.59177zM223.19012,76.60037c-0.1974,-0.12517 -0.3477,-0.09867 -0.52769,0.09483c-0.08149,0.08767 -0.17771,0.17487 -0.14947,0.30867c0.04653,0.21976 0.4488,0.4434 0.66128,0.37517c0.01937,-0.00628 0.04111,-0.01705 0.05329,-0.03241c0.06045,-0.07676 0.17041,-0.15829 0.16651,-0.23297c-0.00951,-0.18564 -0.02305,-0.38909 -0.20392,-0.51328z" fill="#30419a"/><path d="M223.9221,75.3487c0.02605,0.12064 0.00529,0.25983 -0.10357,0.35506c-0.09745,0.08552 -0.20299,0.14256 -0.34275,0.13523c-0.17185,-0.00913 -0.33954,-0.01734 -0.4888,-0.11738c-0.209,-0.13993 -0.24229,-0.48564 -0.08476,-0.68167c0.15188,-0.18869 0.3393,-0.18315 0.54263,-0.1504c0.05355,0.15678 0.0522,0.15303 -0.1113,0.15799c-0.27898,0.0085 -0.42159,0.22624 -0.30351,0.45912c0.01122,0.022 0.02859,0.04248 0.04728,0.05889c0.12063,0.10543 0.51695,0.07939 0.61048,-0.04868c0.02544,-0.03463 0.01134,-0.10083 0.00939,-0.1524c-0.00233,-0.05931 -0.01121,-0.11842 -0.01717,-0.17755c0.01604,-0.00682 0.03191,-0.0136 0.04784,-0.0205c0.06793,0.06015 0.1788,0.11083 0.19421,0.18228z" fill="#30419a"/><path d="M221.72359,76.33065c-0.05694,-0.01839 -0.17342,-0.28991 -0.14003,-0.33826c0.01723,-0.02491 0.05424,-0.04865 0.08248,-0.04878c0.0196,-0.00002 0.03999,0.04041 0.05877,0.06377c0.03115,0.03888 0.06123,0.07847 0.09175,0.11787c0.03814,-0.03758 0.08619,-0.06943 0.11245,-0.11396c0.07772,-0.13165 0.05687,-0.26037 -0.07218,-0.39402c-0.02219,0.05886 -0.04265,0.11863 -0.06703,0.17659c-0.01389,0.03281 -0.03418,0.06285 -0.05142,0.09418c-0.02928,-0.01857 -0.06484,-0.03173 -0.08668,-0.05684c-0.09747,-0.11164 -0.07216,-0.25595 0.06494,-0.39494c0.0727,-0.07356 0.26096,-0.08021 0.34088,-0.00248c0.28648,0.27919 0.22519,0.63936 -0.07695,0.85274c-0.05719,0.04038 -0.14542,0.03705 -0.2197,0.05208c-0.01142,0.00236 -0.02506,-0.004 -0.03728,-0.00795z" fill="#30419a"/><path d="M224.56437,76.90145c0.02033,0.0854 0.00282,0.17992 0.00242,0.29339c-0.10209,0.05445 -0.18946,0.13952 -0.27473,0.13759c-0.13365,-0.00289 -0.24522,-0.09808 -0.30956,-0.22088c-0.02017,-0.03831 -0.00441,-0.09964 0.005,-0.14856c0.01624,-0.08293 0.01745,-0.18274 0.06557,-0.24317c0.17255,-0.21666 0.4582,-0.03915 0.51129,0.18163zM224.3263,76.86354c-0.02437,-0.01368 -0.10894,0.01881 -0.11271,0.03956c-0.014,0.07713 -0.00597,0.1582 -0.00632,0.23774c0.01721,0.00675 0.03409,0.01332 0.05108,0.01994c0.02802,-0.02675 0.06203,-0.04961 0.08269,-0.08125c0.04861,-0.07421 0.08846,-0.15816 -0.01475,-0.21599z" fill="#30419a"/><path d="M223.71744,77.53481c0.17964,-0.04431 0.25162,-0.02206 0.27116,0.07662c0.018,0.09158 -0.04115,0.12799 -0.11064,0.14295c-0.09703,0.02057 -0.15089,-0.05498 -0.16053,-0.21957z" fill="#30419a"/><path d="M223.84761,76.01747c0.09783,0.02401 0.2169,-0.04172 0.24389,0.10659c0.0145,0.08052 -0.03343,0.13648 -0.11263,0.13191c-0.14979,-0.00868 -0.10575,-0.13442 -0.13126,-0.2385z" fill="#30419a"/><path d="M221.79389,77.05977c0.05186,-0.08335 -0.02927,-0.20622 0.10236,-0.20964c0.06466,-0.00159 0.16405,0.03856 0.14192,0.13877c-0.02976,0.13525 -0.13488,0.07241 -0.24428,0.07087z" fill="#30419a"/><path d="M222.53916,75.26781c-0.10142,0.03987 -0.13179,-0.08485 -0.1402,-0.13907c-0.01156,-0.07517 0.05819,-0.12072 0.15863,-0.10213c-0.04926,0.08237 0.14313,0.17778 -0.01843,0.2412z" fill="#30419a"/></g></g></g></g><path d="M276.75,180.5v-92.5" fill="none" fill-rule="nonzero" stroke="#ff0000" stroke-width="1.5" stroke-linecap="round"/><path d="M274.08333,90.5c0,0 1.80898,-3.10716 2.83552,-3.07864c0.9703,0.02695 2.33115,3.57864 2.33115,3.57864" fill="none" fill-rule="nonzero" stroke="#ff0000" stroke-width="1.5" stroke-linecap="round"/></g></g></svg>