<svg version="1.1" xmlns="http://www.w3.org/2000/svg" xmlns:xlink="http://www.w3.org/1999/xlink" width="125.74323" height="200.09349" viewBox="0,0,125.74323,200.09349"><defs><linearGradient x1="240.72709" y1="27.5008" x2="240.72709" y2="251.63476" gradientUnits="userSpaceOnUse" id="color-1"><stop offset="0" stop-color="#000000"/><stop offset="1" stop-color="#000000" stop-opacity="0"/></linearGradient><linearGradient x1="192.37502" y1="129.13295" x2="289.37501" y2="129.13295" gradientUnits="userSpaceOnUse" id="color-2"><stop offset="0" stop-color="#8dc63f"/><stop offset="1" stop-color="#006838"/></linearGradient><radialGradient cx="240.87502" cy="129.13295" r="39.66879" gradientUnits="userSpaceOnUse" id="color-3"><stop offset="0" stop-color="#d7df23"/><stop offset="1" stop-color="#009444"/></radialGradient></defs><g transform="translate(-182.12423,-20.56741)"><g data-paper-data="{&quot;isPaintingLayer&quot;:true}" fill-rule="nonzero" stroke-linecap="butt" stroke-linejoin="miter" stroke-miterlimit="10" stroke-dasharray="" stroke-dashoffset="0" style="mix-blend-mode: normal"><path d="M292.08304,179.63579c0.08904,2.35783 -8.00899,8.86158 -50.19209,8.86158c-42.1831,0 -53.96057,-5.5517 -53.97468,-9.34723c-0.01219,-3.27688 10.91867,-7.6474 53.10177,-7.6474c42.1831,0 50.98354,5.97629 51.065,8.13305z" fill="url(#color-1)" stroke="none" stroke-width="0"/><text transform="translate(222.76856,212.83835) scale(0.46015,0.46015)" font-size="40" xml:space="preserve" fill="#000000" fill-rule="nonzero" stroke="#000000" stroke-width="1" stroke-linecap="butt" stroke-linejoin="miter" stroke-miterlimit="10" stroke-dasharray="" stroke-dashoffset="0" font-family="Handwriting" font-weight="normal" text-anchor="start" style="mix-blend-mode: normal"></text><text transform="translate(190.88432,39.51763) scale(0.49869,0.49869)" font-size="40" xml:space="preserve" fill="#000000" fill-rule="nonzero" stroke="#000000" stroke-width="1" stroke-linecap="butt" stroke-linejoin="miter" stroke-miterlimit="10" stroke-dasharray="" stroke-dashoffset="0" font-family="Handwriting" font-weight="normal" text-anchor="start" style="mix-blend-mode: normal"></text><path d="M289.37501,129.13203c0,26.74161 -26.25604,48 -53,48c-26.74278,0 -44,-21.25839 -44,-48c0,-26.74278 28.75605,-47.5 55.5,-47.5c26.74396,0 41.5,20.75839 41.5,47.5z" fill="url(#color-2)" stroke="none" stroke-width="1"/><path d="M201.20553,129.1332c0,-21.90886 24.26064,-39.1695 46.1695,-39.1695c21.90886,0 33.16949,17.26064 33.16949,39.1695c0,21.90886 -24.76063,39.66949 -46.66949,39.66949c-21.90886,0 -32.6695,-17.76063 -32.6695,-39.66949z" fill="url(#color-3)" stroke="none" stroke-width="1"/><text transform="translate(182.28877,60.13272) scale(0.32909,0.32909)" font-size="40" xml:space="preserve" fill="#000000" fill-rule="nonzero" stroke="#000000" stroke-width="1" stroke-linecap="butt" stroke-linejoin="miter" stroke-miterlimit="10" stroke-dasharray="" stroke-dashoffset="0" font-family="Handwriting" font-weight="normal" text-anchor="start" style="mix-blend-mode: normal"></text></g></g></svg>