<svg version="1.1" xmlns="http://www.w3.org/2000/svg" xmlns:xlink="http://www.w3.org/1999/xlink" width="107.89441" height="181.47803" viewBox="0,0,107.89441,181.47803"><defs><linearGradient x1="241.62031" y1="-10.60763" x2="241.62031" y2="266.2804" gradientUnits="userSpaceOnUse" id="color-1"><stop offset="0" stop-color="#000000"/><stop offset="1" stop-color="#000000" stop-opacity="0"/></linearGradient><radialGradient cx="220.18534" cy="165.81739" r="8.40575" gradientUnits="userSpaceOnUse" id="color-2"><stop offset="0" stop-color="#7f7f7f"/><stop offset="1" stop-color="#333333"/></radialGradient><radialGradient cx="207.35785" cy="165.87963" r="8.11852" gradientUnits="userSpaceOnUse" id="color-3"><stop offset="0" stop-color="#dc6e6e"/><stop offset="1" stop-color="#b23535"/></radialGradient><radialGradient cx="219.3546" cy="154.03904" r="8.06844" gradientUnits="userSpaceOnUse" id="color-4"><stop offset="0" stop-color="#dc6e6e"/><stop offset="1" stop-color="#b23535"/></radialGradient><radialGradient cx="207.12476" cy="153.90319" r="8.40575" gradientUnits="userSpaceOnUse" id="color-5"><stop offset="0" stop-color="#7f7f7f"/><stop offset="1" stop-color="#333333"/></radialGradient><radialGradient cx="245.1533" cy="166.79016" r="8.40576" gradientUnits="userSpaceOnUse" id="color-6"><stop offset="0" stop-color="#7f7f7f"/><stop offset="1" stop-color="#333333"/></radialGradient><radialGradient cx="232.32582" cy="166.85241" r="8.11852" gradientUnits="userSpaceOnUse" id="color-7"><stop offset="0" stop-color="#dc6e6e"/><stop offset="1" stop-color="#b23535"/></radialGradient><radialGradient cx="244.32255" cy="155.01182" r="8.06844" gradientUnits="userSpaceOnUse" id="color-8"><stop offset="0" stop-color="#dc6e6e"/><stop offset="1" stop-color="#b23535"/></radialGradient><radialGradient cx="232.09272" cy="154.87597" r="8.40575" gradientUnits="userSpaceOnUse" id="color-9"><stop offset="0" stop-color="#7f7f7f"/><stop offset="1" stop-color="#333333"/></radialGradient><radialGradient cx="219.21256" cy="142.47072" r="8.40575" gradientUnits="userSpaceOnUse" id="color-10"><stop offset="0" stop-color="#7f7f7f"/><stop offset="1" stop-color="#333333"/></radialGradient><radialGradient cx="206.38508" cy="142.53296" r="8.11852" gradientUnits="userSpaceOnUse" id="color-11"><stop offset="0" stop-color="#dc6e6e"/><stop offset="1" stop-color="#b23535"/></radialGradient><radialGradient cx="218.38183" cy="130.69238" r="8.06844" gradientUnits="userSpaceOnUse" id="color-12"><stop offset="0" stop-color="#dc6e6e"/><stop offset="1" stop-color="#b23535"/></radialGradient><radialGradient cx="206.15198" cy="130.55653" r="8.40575" gradientUnits="userSpaceOnUse" id="color-13"><stop offset="0" stop-color="#7f7f7f"/><stop offset="1" stop-color="#333333"/></radialGradient><radialGradient cx="244.50478" cy="142.79498" r="8.40575" gradientUnits="userSpaceOnUse" id="color-14"><stop offset="0" stop-color="#7f7f7f"/><stop offset="1" stop-color="#333333"/></radialGradient><radialGradient cx="231.6773" cy="142.85724" r="8.11853" gradientUnits="userSpaceOnUse" id="color-15"><stop offset="0" stop-color="#dc6e6e"/><stop offset="1" stop-color="#b23535"/></radialGradient><radialGradient cx="243.67404" cy="131.01664" r="8.06844" gradientUnits="userSpaceOnUse" id="color-16"><stop offset="0" stop-color="#dc6e6e"/><stop offset="1" stop-color="#b23535"/></radialGradient><radialGradient cx="231.44421" cy="130.88079" r="8.40575" gradientUnits="userSpaceOnUse" id="color-17"><stop offset="0" stop-color="#7f7f7f"/><stop offset="1" stop-color="#333333"/></radialGradient><radialGradient cx="269.44284" cy="166.9243" r="8.40575" gradientUnits="userSpaceOnUse" id="color-18"><stop offset="0" stop-color="#7f7f7f"/><stop offset="1" stop-color="#333333"/></radialGradient><radialGradient cx="256.61535" cy="166.98654" r="8.11853" gradientUnits="userSpaceOnUse" id="color-19"><stop offset="0" stop-color="#dc6e6e"/><stop offset="1" stop-color="#b23535"/></radialGradient><radialGradient cx="268.6121" cy="155.14595" r="8.06844" gradientUnits="userSpaceOnUse" id="color-20"><stop offset="0" stop-color="#dc6e6e"/><stop offset="1" stop-color="#b23535"/></radialGradient><radialGradient cx="256.38226" cy="155.0101" r="8.40575" gradientUnits="userSpaceOnUse" id="color-21"><stop offset="0" stop-color="#7f7f7f"/><stop offset="1" stop-color="#333333"/></radialGradient><radialGradient cx="195.52682" cy="143.91403" r="8.40577" gradientUnits="userSpaceOnUse" id="color-22"><stop offset="0" stop-color="#7f7f7f"/><stop offset="1" stop-color="#333333"/></radialGradient><radialGradient cx="194.69608" cy="132.13568" r="8.06846" gradientUnits="userSpaceOnUse" id="color-23"><stop offset="0" stop-color="#dc6e6e"/><stop offset="1" stop-color="#b23535"/></radialGradient><radialGradient cx="194.27329" cy="119.82382" r="8.40575" gradientUnits="userSpaceOnUse" id="color-24"><stop offset="0" stop-color="#7f7f7f"/><stop offset="1" stop-color="#333333"/></radialGradient><radialGradient cx="194.50638" cy="109.66205" r="8.11852" gradientUnits="userSpaceOnUse" id="color-25"><stop offset="0" stop-color="#dc6e6e"/><stop offset="1" stop-color="#b23535"/></radialGradient><radialGradient cx="268.47006" cy="143.57763" r="8.40575" gradientUnits="userSpaceOnUse" id="color-26"><stop offset="0" stop-color="#7f7f7f"/><stop offset="1" stop-color="#333333"/></radialGradient><radialGradient cx="255.64258" cy="143.63987" r="8.11852" gradientUnits="userSpaceOnUse" id="color-27"><stop offset="0" stop-color="#dc6e6e"/><stop offset="1" stop-color="#b23535"/></radialGradient><radialGradient cx="267.63933" cy="131.79929" r="8.06844" gradientUnits="userSpaceOnUse" id="color-28"><stop offset="0" stop-color="#dc6e6e"/><stop offset="1" stop-color="#b23535"/></radialGradient><radialGradient cx="255.40949" cy="131.66344" r="8.40576" gradientUnits="userSpaceOnUse" id="color-29"><stop offset="0" stop-color="#7f7f7f"/><stop offset="1" stop-color="#333333"/></radialGradient><radialGradient cx="281.12449" cy="144.29956" r="8.06844" gradientUnits="userSpaceOnUse" id="color-30"><stop offset="0" stop-color="#dc6e6e"/><stop offset="1" stop-color="#b23535"/></radialGradient><radialGradient cx="281.21729" cy="132.46382" r="8.40575" gradientUnits="userSpaceOnUse" id="color-31"><stop offset="0" stop-color="#7f7f7f"/><stop offset="1" stop-color="#333333"/></radialGradient><radialGradient cx="280.9348" cy="122.19491" r="8.11851" gradientUnits="userSpaceOnUse" id="color-32"><stop offset="0" stop-color="#dc6e6e"/><stop offset="1" stop-color="#b23535"/></radialGradient><radialGradient cx="280.70171" cy="110.21846" r="8.40575" gradientUnits="userSpaceOnUse" id="color-33"><stop offset="0" stop-color="#7f7f7f"/><stop offset="1" stop-color="#333333"/></radialGradient><radialGradient cx="218.8436" cy="120.33252" r="8.40575" gradientUnits="userSpaceOnUse" id="color-34"><stop offset="0" stop-color="#7f7f7f"/><stop offset="1" stop-color="#333333"/></radialGradient><radialGradient cx="206.01611" cy="120.39476" r="8.11852" gradientUnits="userSpaceOnUse" id="color-35"><stop offset="0" stop-color="#dc6e6e"/><stop offset="1" stop-color="#b23535"/></radialGradient><radialGradient cx="218.01285" cy="108.55418" r="8.06844" gradientUnits="userSpaceOnUse" id="color-36"><stop offset="0" stop-color="#dc6e6e"/><stop offset="1" stop-color="#b23535"/></radialGradient><radialGradient cx="205.78302" cy="108.41833" r="8.40575" gradientUnits="userSpaceOnUse" id="color-37"><stop offset="0" stop-color="#7f7f7f"/><stop offset="1" stop-color="#333333"/></radialGradient><radialGradient cx="244.13581" cy="120.65678" r="8.40575" gradientUnits="userSpaceOnUse" id="color-38"><stop offset="0" stop-color="#7f7f7f"/><stop offset="1" stop-color="#333333"/></radialGradient><radialGradient cx="231.30832" cy="120.71903" r="8.11852" gradientUnits="userSpaceOnUse" id="color-39"><stop offset="0" stop-color="#dc6e6e"/><stop offset="1" stop-color="#b23535"/></radialGradient><radialGradient cx="243.30507" cy="108.87844" r="8.06845" gradientUnits="userSpaceOnUse" id="color-40"><stop offset="0" stop-color="#dc6e6e"/><stop offset="1" stop-color="#b23535"/></radialGradient><radialGradient cx="231.07523" cy="108.74259" r="8.40575" gradientUnits="userSpaceOnUse" id="color-41"><stop offset="0" stop-color="#7f7f7f"/><stop offset="1" stop-color="#333333"/></radialGradient><radialGradient cx="268.1011" cy="121.43943" r="8.40575" gradientUnits="userSpaceOnUse" id="color-42"><stop offset="0" stop-color="#7f7f7f"/><stop offset="1" stop-color="#333333"/></radialGradient><radialGradient cx="255.27361" cy="121.50167" r="8.11851" gradientUnits="userSpaceOnUse" id="color-43"><stop offset="0" stop-color="#dc6e6e"/><stop offset="1" stop-color="#b23535"/></radialGradient><radialGradient cx="267.27035" cy="109.66109" r="8.06844" gradientUnits="userSpaceOnUse" id="color-44"><stop offset="0" stop-color="#dc6e6e"/><stop offset="1" stop-color="#b23535"/></radialGradient><radialGradient cx="255.04052" cy="109.52524" r="8.40575" gradientUnits="userSpaceOnUse" id="color-45"><stop offset="0" stop-color="#7f7f7f"/><stop offset="1" stop-color="#333333"/></radialGradient><radialGradient cx="267.93437" cy="98.14961" r="8.40575" gradientUnits="userSpaceOnUse" id="color-46"><stop offset="0" stop-color="#7f7f7f"/><stop offset="1" stop-color="#333333"/></radialGradient><radialGradient cx="255.10689" cy="98.21186" r="8.11851" gradientUnits="userSpaceOnUse" id="color-47"><stop offset="0" stop-color="#dc6e6e"/><stop offset="1" stop-color="#b23535"/></radialGradient><radialGradient cx="267.10364" cy="86.37127" r="8.06844" gradientUnits="userSpaceOnUse" id="color-48"><stop offset="0" stop-color="#dc6e6e"/><stop offset="1" stop-color="#b23535"/></radialGradient><radialGradient cx="254.8738" cy="86.23542" r="8.40575" gradientUnits="userSpaceOnUse" id="color-49"><stop offset="0" stop-color="#7f7f7f"/><stop offset="1" stop-color="#333333"/></radialGradient><radialGradient cx="218.47462" cy="96.71843" r="8.40575" gradientUnits="userSpaceOnUse" id="color-50"><stop offset="0" stop-color="#7f7f7f"/><stop offset="1" stop-color="#333333"/></radialGradient><radialGradient cx="242.0887" cy="97.82534" r="8.40575" gradientUnits="userSpaceOnUse" id="color-51"><stop offset="0" stop-color="#7f7f7f"/><stop offset="1" stop-color="#333333"/></radialGradient><radialGradient cx="205.64713" cy="96.78068" r="8.11853" gradientUnits="userSpaceOnUse" id="color-52"><stop offset="0" stop-color="#dc6e6e"/><stop offset="1" stop-color="#b23535"/></radialGradient><radialGradient cx="217.64388" cy="84.94009" r="8.06844" gradientUnits="userSpaceOnUse" id="color-53"><stop offset="0" stop-color="#dc6e6e"/><stop offset="1" stop-color="#b23535"/></radialGradient><radialGradient cx="205.41404" cy="84.80424" r="8.40575" gradientUnits="userSpaceOnUse" id="color-54"><stop offset="0" stop-color="#7f7f7f"/><stop offset="1" stop-color="#333333"/></radialGradient><radialGradient cx="230.28166" cy="96.34947" r="8.40575" gradientUnits="userSpaceOnUse" id="color-55"><stop offset="0" stop-color="#7f7f7f"/><stop offset="1" stop-color="#333333"/></radialGradient><radialGradient cx="242.45767" cy="84.9114" r="8.40575" gradientUnits="userSpaceOnUse" id="color-56"><stop offset="0" stop-color="#7f7f7f"/><stop offset="1" stop-color="#333333"/></radialGradient><radialGradient cx="230.65063" cy="84.9114" r="8.40575" gradientUnits="userSpaceOnUse" id="color-57"><stop offset="0" stop-color="#7f7f7f"/><stop offset="1" stop-color="#333333"/></radialGradient></defs><g transform="translate(-184.74722,-36.49004)"><g data-paper-data="{&quot;isPaintingLayer&quot;:true}" fill-rule="nonzero" stroke-linecap="butt" stroke-linejoin="miter" stroke-miterlimit="10" stroke-dasharray="" stroke-dashoffset="0" style="mix-blend-mode: normal"><path d="M289.52518,177.33514c0.08306,2.91279 -7.47079,10.94732 -46.81921,10.94732c-39.34842,0 -50.33445,-6.8584 -50.34761,-11.54727c-0.01137,-4.04815 10.18494,-9.44736 49.53336,-9.44736c39.34842,0 47.55747,7.38292 47.63346,10.04731z" fill="url(#color-1)" stroke="none" stroke-width="0"/><text transform="translate(222.76295,210.14552) scale(0.46015,0.46015)" font-size="40" xml:space="preserve" fill="#000000" fill-rule="nonzero" stroke="#000000" stroke-width="1" stroke-linecap="butt" stroke-linejoin="miter" stroke-miterlimit="10" stroke-dasharray="" stroke-dashoffset="0" font-family="Handwriting" font-weight="normal" text-anchor="start" style="mix-blend-mode: normal"></text><text transform="translate(184.99656,55.44026) scale(0.49869,0.49869)" font-size="40" xml:space="preserve" fill="#000000" fill-rule="nonzero" stroke="#000000" stroke-width="1" stroke-linecap="butt" stroke-linejoin="miter" stroke-miterlimit="10" stroke-dasharray="" stroke-dashoffset="0" font-family="Handwriting" font-weight="normal" text-anchor="start" style="mix-blend-mode: normal"></text><g stroke="none" stroke-width="0"><g><path d="M231.60967,168.5583c0,4.64238 -3.71434,8.40578 -8.29622,8.40578c-4.58189,0 -8.29625,-3.7634 -8.29625,-8.40578c0,-4.64238 3.71435,-8.40575 8.29625,-8.40575c4.58189,0 8.29622,3.76337 8.29622,8.40575z" fill="url(#color-2)"/><g data-paper-data="{&quot;index&quot;:null}"><path d="M218.39181,168.52689c0,4.48374 -3.5874,8.11851 -8.01272,8.11851c-4.42532,0 -8.01273,-3.63477 -8.01273,-8.11851c0,-4.48374 3.58743,-8.11853 8.01273,-8.11853c4.42532,0 8.01272,3.63478 8.01272,8.11853z" fill="url(#color-3)"/><path d="M208.86946,173.67014v-3.39902l-3.13816,-0.17901l-0.0626,-2.4883l3.20076,-0.1067v-4.14585h2.81423v4.35924l3.16678,0.00772l-0.01881,2.49363c0,0 -3.21242,0.09345 -3.2091,0.27239c0.01888,1.01699 0.06113,3.18587 0.06113,3.18587z" fill="#511111"/></g><g data-paper-data="{&quot;index&quot;:null}"><path d="M230.3205,156.66997c0,4.45609 -3.56529,8.06844 -7.96331,8.06844c-4.39802,0 -7.96331,-3.61236 -7.96331,-8.06844c0,-4.45609 3.5653,-8.06846 7.96331,-8.06846c4.39802,0 7.96331,3.61237 7.96331,8.06846z" fill="url(#color-4)"/><path d="M220.85689,161.7815v-3.37805l-3.11881,-0.17791l-0.06221,-2.47294l3.181,-0.10603v-4.12028h2.79689v4.33235l3.14724,0.00769l-0.01869,2.47824c0,0 -3.19262,0.09286 -3.18932,0.27072c0.01876,1.0107 0.06076,3.1662 0.06076,3.1662z" fill="#511111"/></g><path d="M218.5491,156.6441c0,4.64238 -3.71434,8.40577 -8.29623,8.40577c-4.58189,0 -8.29624,-3.76338 -8.29624,-8.40577c0,-4.64238 3.71435,-8.40575 8.29624,-8.40575c4.58189,0 8.29623,3.76337 8.29623,8.40575z" fill="url(#color-5)"/></g><g><path d="M256.57763,169.53107c0,4.64238 -3.71434,8.40578 -8.29622,8.40578c-4.58189,0 -8.29624,-3.7634 -8.29624,-8.40578c0,-4.64238 3.71435,-8.40577 8.29624,-8.40577c4.58189,0 8.29622,3.76338 8.29622,8.40577z" fill="url(#color-6)"/><g data-paper-data="{&quot;index&quot;:null}"><path d="M243.35976,169.49967c0,4.48374 -3.58741,8.11851 -8.01272,8.11851c-4.42532,0 -8.01273,-3.63477 -8.01273,-8.11851c0,-4.48374 3.58743,-8.11853 8.01273,-8.11853c4.42532,0 8.01272,3.63478 8.01272,8.11853z" fill="url(#color-7)"/><path d="M233.83742,174.64291v-3.39902l-3.13816,-0.17901l-0.06259,-2.4883l3.20075,-0.1067v-4.14586h2.81423v4.35926l3.16679,0.00772l-0.01881,2.49362c0,0 -3.21241,0.09343 -3.20909,0.27239c0.01888,1.01698 0.06112,3.18586 0.06112,3.18586z" fill="#511111"/></g><g data-paper-data="{&quot;index&quot;:null}"><path d="M255.28846,157.64276c0,4.45609 -3.56529,8.06844 -7.96331,8.06844c-4.39802,0 -7.96331,-3.61236 -7.96331,-8.06844c0,-4.45609 3.5653,-8.06846 7.96331,-8.06846c4.39802,0 7.96331,3.61237 7.96331,8.06846z" fill="url(#color-8)"/><path d="M245.82484,162.75428v-3.37806l-3.11881,-0.1779l-0.06221,-2.47295l3.181,-0.10604v-4.12028h2.79688v4.33235l3.14724,0.00768l-0.01869,2.47824c0,0 -3.19262,0.09285 -3.18932,0.27071c0.01875,1.01071 0.06076,3.16622 0.06076,3.16622z" fill="#511111"/></g><path d="M243.51705,157.61688c0,4.64238 -3.71434,8.40578 -8.29624,8.40578c-4.58189,0 -8.29624,-3.76338 -8.29624,-8.40578c0,-4.64238 3.71435,-8.40575 8.29624,-8.40575c4.58189,0 8.29624,3.76337 8.29624,8.40575z" fill="url(#color-9)"/></g><g><path d="M230.63689,145.21163c0,4.64238 -3.71434,8.40576 -8.29623,8.40576c-4.58189,0 -8.29623,-3.76338 -8.29623,-8.40576c0,-4.64238 3.71435,-8.40575 8.29623,-8.40575c4.58189,0 8.29623,3.76338 8.29623,8.40575z" fill="url(#color-10)"/><g data-paper-data="{&quot;index&quot;:null}"><path d="M217.41902,145.18023c0,4.48374 -3.5874,8.11852 -8.01272,8.11852c-4.42532,0 -8.01273,-3.63477 -8.01273,-8.11852c0,-4.48374 3.58743,-8.11854 8.01273,-8.11854c4.42532,0 8.01272,3.63479 8.01272,8.11854z" fill="url(#color-11)"/><path d="M207.89669,150.32348v-3.39902l-3.13816,-0.17901l-0.06259,-2.4883l3.20075,-0.1067v-4.14586h2.81424v4.35925l3.16677,0.00772l-0.01879,2.49363c0,0 -3.21242,0.09344 -3.20911,0.2724c0.01888,1.01698 0.06114,3.18587 0.06114,3.18587z" fill="#511111"/></g><g data-paper-data="{&quot;index&quot;:null}"><path d="M229.34772,133.32331c0,4.45609 -3.56528,8.06844 -7.96331,8.06844c-4.39802,0 -7.96331,-3.61236 -7.96331,-8.06844c0,-4.45609 3.5653,-8.06845 7.96331,-8.06845c4.39802,0 7.96331,3.61237 7.96331,8.06846z" fill="url(#color-12)"/><path d="M219.88411,138.43484v-3.37806l-3.11881,-0.1779l-0.06221,-2.47295l3.18102,-0.10604v-4.12028h2.79688v4.33236l3.14724,0.00768l-0.01869,2.47824c0,0 -3.19261,0.09285 -3.18931,0.27071c0.01875,1.01071 0.06075,3.16622 0.06075,3.16622z" fill="#511111"/></g><path d="M217.57632,133.29744c0,4.64238 -3.71434,8.40577 -8.29622,8.40577c-4.58189,0 -8.29625,-3.76338 -8.29625,-8.40577c0,-4.64238 3.71435,-8.40576 8.29625,-8.40576c4.58189,0 8.29622,3.76338 8.29622,8.40576z" fill="url(#color-13)"/></g><g><path d="M255.92911,145.53589c0,4.64238 -3.71434,8.40577 -8.29623,8.40577c-4.58189,0 -8.29624,-3.76338 -8.29624,-8.40577c0,-4.64238 3.71435,-8.40577 8.29624,-8.40577c4.58189,0 8.29623,3.76338 8.29623,8.40577z" fill="url(#color-14)"/><g data-paper-data="{&quot;index&quot;:null}"><path d="M242.71125,145.50448c0,4.48374 -3.58741,8.11853 -8.01273,8.11853c-4.42532,0 -8.01272,-3.63478 -8.01272,-8.11853c0,-4.48374 3.58742,-8.11852 8.01272,-8.11852c4.42532,0 8.01273,3.63478 8.01273,8.11852z" fill="url(#color-15)"/><path d="M233.1889,150.64774v-3.39903l-3.13816,-0.17899l-0.0626,-2.4883l3.20076,-0.10668v-4.14585h2.81424v4.35924l3.16678,0.00772l-0.01881,2.49363c0,0 -3.21242,0.09343 -3.20911,0.27239c0.01888,1.01698 0.06113,3.18587 0.06113,3.18587z" fill="#511111"/></g><g data-paper-data="{&quot;index&quot;:null}"><path d="M254.63994,133.64757c0,4.45609 -3.56528,8.06844 -7.96331,8.06844c-4.39802,0 -7.96332,-3.61236 -7.96332,-8.06844c0,-4.45609 3.56531,-8.06845 7.96332,-8.06845c4.39802,0 7.96331,3.61236 7.96331,8.06846z" fill="url(#color-16)"/><path d="M245.17632,138.7591v-3.37806l-3.11881,-0.1779l-0.06221,-2.47295l3.181,-0.10604v-4.12029h2.79689v4.33236l3.14724,0.00769l-0.0187,2.47823c0,0 -3.19261,0.09288 -3.18931,0.27072c0.01875,1.01071 0.06075,3.16621 0.06075,3.16621z" fill="#511111"/></g><path d="M242.86854,133.62169c0,4.64238 -3.71434,8.40577 -8.29623,8.40577c-4.58189,0 -8.29624,-3.76338 -8.29624,-8.40577c0,-4.64238 3.71435,-8.40576 8.29624,-8.40576c4.58189,0 8.29623,3.76338 8.29623,8.40576z" fill="url(#color-17)"/></g><g><path d="M280.86717,169.66521c0,4.64238 -3.71434,8.40578 -8.29622,8.40578c-4.58189,0 -8.29624,-3.7634 -8.29624,-8.40578c0,-4.64238 3.71436,-8.40575 8.29624,-8.40575c4.58189,0 8.29622,3.76337 8.29622,8.40575z" fill="url(#color-18)"/><g data-paper-data="{&quot;index&quot;:null}"><path d="M267.64931,169.6338c0,4.48374 -3.58741,8.11851 -8.01272,8.11851c-4.42532,0 -8.01274,-3.63477 -8.01274,-8.11851c0,-4.48374 3.58743,-8.11853 8.01274,-8.11853c4.42532,0 8.01272,3.63478 8.01272,8.11853z" fill="url(#color-19)"/><path d="M258.12696,174.77705v-3.39902l-3.13815,-0.17901l-0.0626,-2.4883l3.20075,-0.1067v-4.14585h2.81423v4.35924l3.16677,0.00772l-0.0188,2.49363c0,0 -3.21242,0.09345 -3.2091,0.27239c0.01889,1.01699 0.06112,3.18587 0.06112,3.18587z" fill="#511111"/></g><g data-paper-data="{&quot;index&quot;:null}"><path d="M279.57801,157.77688c0,4.45609 -3.56529,8.06844 -7.96331,8.06844c-4.39802,0 -7.96331,-3.61236 -7.96331,-8.06844c0,-4.45609 3.5653,-8.06846 7.96331,-8.06846c4.39802,0 7.96331,3.61237 7.96331,8.06846z" fill="url(#color-20)"/><path d="M270.11439,162.88841v-3.37805l-3.1188,-0.17791l-0.06221,-2.47294l3.18101,-0.10603v-4.12028h2.79688v4.33235l3.14724,0.00769l-0.01869,2.47824c0,0 -3.19262,0.09286 -3.18932,0.27072c0.01876,1.0107 0.06076,3.1662 0.06076,3.1662z" fill="#511111"/></g><path d="M267.8066,157.75101c0,4.64238 -3.71434,8.40577 -8.29622,8.40577c-4.58189,0 -8.29624,-3.76338 -8.29624,-8.40577c0,-4.64238 3.71435,-8.40575 8.29624,-8.40575c4.58189,0 8.29622,3.76337 8.29622,8.40575z" fill="url(#color-21)"/></g><path d="M206.95115,146.65493c0,4.64238 -3.71434,8.40578 -8.29623,8.40578c-4.58189,0 -8.29625,-3.7634 -8.29625,-8.40578c0,-4.64238 3.71435,-8.40575 8.29625,-8.40575c4.58189,0 8.29623,3.76338 8.29623,8.40575z" fill="url(#color-22)"/><g data-paper-data="{&quot;index&quot;:null}"><path d="M205.66199,134.76661c0,4.45609 -3.56529,8.06844 -7.96331,8.06844c-4.39802,0 -7.96331,-3.61236 -7.96331,-8.06844c0,-4.45609 3.5653,-8.06845 7.96331,-8.06845c4.39802,0 7.96331,3.61237 7.96331,8.06846z" fill="url(#color-23)"/><path d="M196.19837,139.87814v-3.37807l-3.11881,-0.1779l-0.0622,-2.47295l3.181,-0.10604v-4.12028h2.79687v4.33236l3.14724,0.00768l-0.01868,2.47824c0,0 -3.19261,0.09286 -3.18931,0.27072c0.01875,1.01071 0.06076,3.16621 0.06076,3.16621z" fill="#511111"/></g><path d="M205.69763,122.56473c0,4.64238 -3.71435,8.40577 -8.29624,8.40577c-4.58189,0 -8.29624,-3.7634 -8.29624,-8.40577c0,-4.64238 3.71436,-8.40575 8.29624,-8.40575c4.58189,0 8.29624,3.76337 8.29624,8.40575z" fill="url(#color-24)"/><g data-paper-data="{&quot;index&quot;:null}"><path d="M205.54034,112.30932c0,4.48374 -3.58741,8.11852 -8.01273,8.11852c-4.42532,0 -8.01273,-3.63477 -8.01273,-8.11852c0,-4.48374 3.58742,-8.11853 8.01273,-8.11853c4.42532,0 8.01273,3.63478 8.01273,8.11853z" fill="url(#color-25)"/><path d="M196.01799,117.45256v-3.39902l-3.13816,-0.17901l-0.06259,-2.48829l3.20075,-0.1067v-4.14585h2.81424v4.35926l3.16677,0.00772l-0.0188,2.49362c0,0 -3.21242,0.09343 -3.2091,0.27239c0.01889,1.01698 0.06114,3.18586 0.06114,3.18586z" fill="#511111"/></g><g><path d="M279.89439,146.31854c0,4.64238 -3.71433,8.40576 -8.29623,8.40576c-4.58189,0 -8.29624,-3.76338 -8.29624,-8.40576c0,-4.64238 3.71435,-8.40575 8.29624,-8.40575c4.58189,0 8.29623,3.76338 8.29623,8.40575z" fill="url(#color-26)"/><g data-paper-data="{&quot;index&quot;:null}"><path d="M266.67653,146.28714c0,4.48374 -3.58741,8.11852 -8.01273,8.11852c-4.42532,0 -8.01273,-3.63477 -8.01273,-8.11852c0,-4.48374 3.58743,-8.11852 8.01273,-8.11852c4.42532,0 8.01273,3.63478 8.01273,8.11852z" fill="url(#color-27)"/><path d="M257.15419,151.43039v-3.39902l-3.13815,-0.17901l-0.0626,-2.4883l3.20075,-0.1067v-4.14586h2.81424v4.35925l3.16677,0.00772l-0.0188,2.49363c0,0 -3.21241,0.09344 -3.20909,0.2724c0.01889,1.01698 0.06113,3.18587 0.06113,3.18587z" fill="#511111"/></g><g data-paper-data="{&quot;index&quot;:null}"><path d="M278.60522,134.43022c0,4.45609 -3.56528,8.06844 -7.9633,8.06844c-4.39802,0 -7.96332,-3.61236 -7.96332,-8.06844c0,-4.45609 3.56531,-8.06845 7.96332,-8.06845c4.39802,0 7.9633,3.61237 7.9633,8.06846z" fill="url(#color-28)"/><path d="M269.14161,139.54175v-3.37806l-3.1188,-0.1779l-0.06221,-2.47295l3.18101,-0.10604v-4.12028h2.79689v4.33236l3.14724,0.00768l-0.01869,2.47824c0,0 -3.19261,0.09285 -3.1893,0.27071c0.01875,1.01071 0.06074,3.16622 0.06074,3.16622z" fill="#511111"/></g><path d="M266.83382,134.40435c0,4.64238 -3.71434,8.40577 -8.29622,8.40577c-4.58189,0 -8.29625,-3.76338 -8.29625,-8.40577c0,-4.64238 3.71435,-8.40576 8.29625,-8.40576c4.58189,0 8.29622,3.76338 8.29622,8.40576z" fill="url(#color-29)"/></g><g data-paper-data="{&quot;index&quot;:null}"><path d="M292.0904,146.9305c0,4.45609 -3.56528,8.06844 -7.9633,8.06844c-4.39802,0 -7.96331,-3.61236 -7.96331,-8.06844c0,-4.45609 3.56531,-8.06846 7.96331,-8.06846c4.39802,0 7.9633,3.61238 7.9633,8.06847z" fill="url(#color-30)"/><path d="M282.62679,152.04202v-3.37806l-3.11881,-0.1779l-0.0622,-2.47295l3.18102,-0.10604v-4.12028h2.79688v4.33236l3.14724,0.00768l-0.0187,2.47824c0,0 -3.19261,0.09287 -3.1893,0.27071c0.01875,1.01071 0.06074,3.16622 0.06074,3.16622z" fill="#511111"/></g><path d="M292.64162,135.20474c0,4.64238 -3.71433,8.40577 -8.29623,8.40577c-4.58189,0 -8.29624,-3.76338 -8.29624,-8.40577c0,-4.64238 3.71435,-8.40577 8.29624,-8.40577c4.58189,0 8.29623,3.76338 8.29623,8.40577z" fill="url(#color-31)"/><g data-paper-data="{&quot;index&quot;:null}"><path d="M291.96875,124.84216c0,4.48374 -3.58741,8.11853 -8.01274,8.11853c-4.42532,0 -8.01273,-3.63478 -8.01273,-8.11853c0,-4.48374 3.58743,-8.11852 8.01273,-8.11852c4.42532,0 8.01274,3.63478 8.01274,8.11852z" fill="url(#color-32)"/><path d="M282.4464,129.98542v-3.39903l-3.13815,-0.179l-0.06259,-2.4883l3.20075,-0.10668v-4.14587h2.81423v4.35924l3.16677,0.00773l-0.0188,2.49363c0,0 -3.21242,0.09343 -3.20911,0.27238c0.01889,1.01698 0.06113,3.18587 0.06113,3.18587z" fill="#511111"/></g><path d="M292.12604,112.95938c0,4.64238 -3.71434,8.40577 -8.29622,8.40577c-4.58189,0 -8.29624,-3.76338 -8.29624,-8.40577c0,-4.64238 3.71436,-8.40577 8.29624,-8.40577c4.58189,0 8.29622,3.76338 8.29622,8.40577z" fill="url(#color-33)"/><g><path d="M230.26793,123.07343c0,4.64238 -3.71434,8.40577 -8.29624,8.40577c-4.58189,0 -8.29623,-3.76338 -8.29623,-8.40577c0,-4.64238 3.71435,-8.40575 8.29623,-8.40575c4.58189,0 8.29624,3.76337 8.29624,8.40575z" fill="url(#color-34)"/><g data-paper-data="{&quot;index&quot;:null}"><path d="M217.05006,123.04203c0,4.48375 -3.58741,8.11853 -8.01272,8.11853c-4.42532,0 -8.01273,-3.63478 -8.01273,-8.11853c0,-4.48375 3.58743,-8.11853 8.01273,-8.11853c4.42532,0 8.01272,3.63478 8.01272,8.11853z" fill="url(#color-35)"/><path d="M207.52771,128.18527v-3.39902l-3.13815,-0.17901l-0.0626,-2.4883l3.20075,-0.1067v-4.14585h2.81424v4.35925l3.16679,0.00773l-0.01881,2.49362c0,0 -3.21242,0.09343 -3.20911,0.27239c0.01888,1.01699 0.06114,3.18586 0.06114,3.18586z" fill="#511111"/></g><g data-paper-data="{&quot;index&quot;:null}"><path d="M228.97875,111.18511c0,4.45609 -3.56528,8.06845 -7.96331,8.06845c-4.39802,0 -7.96333,-3.61236 -7.96333,-8.06845c0,-4.45609 3.56532,-8.06846 7.96333,-8.06846c4.39802,0 7.96331,3.61237 7.96331,8.06846z" fill="url(#color-36)"/><path d="M219.51514,116.29664v-3.37805l-3.11881,-0.17791l-0.06221,-2.47294l3.181,-0.10604v-4.12029h2.79689v4.33236l3.14724,0.00768l-0.0187,2.47824c0,0 -3.1926,0.09286 -3.1893,0.27072c0.01875,1.01071 0.06074,3.16622 0.06074,3.16622z" fill="#511111"/></g><path d="M217.20735,111.15924c0,4.64238 -3.71434,8.40577 -8.29622,8.40577c-4.58189,0 -8.29624,-3.76338 -8.29624,-8.40577c0,-4.64238 3.71435,-8.40577 8.29624,-8.40577c4.58189,0 8.29622,3.76338 8.29622,8.40577z" fill="url(#color-37)"/></g><g><path d="M255.56014,123.39769c0,4.64238 -3.71434,8.40577 -8.29623,8.40577c-4.58189,0 -8.29624,-3.76338 -8.29624,-8.40577c0,-4.64238 3.71435,-8.40577 8.29624,-8.40577c4.58189,0 8.29623,3.76338 8.29623,8.40577z" fill="url(#color-38)"/><g data-paper-data="{&quot;index&quot;:null}"><path d="M242.34227,123.36629c0,4.48375 -3.58741,8.11852 -8.01272,8.11852c-4.42532,0 -8.01273,-3.63477 -8.01273,-8.11852c0,-4.48375 3.58742,-8.11854 8.01273,-8.11854c4.42532,0 8.01272,3.63479 8.01272,8.11854z" fill="url(#color-39)"/><path d="M232.81993,128.50953v-3.39902l-3.13816,-0.17901l-0.06259,-2.4883l3.20075,-0.10668v-4.14587h2.81423v4.35925l3.16678,0.00772l-0.0188,2.49362c0,0 -3.21242,0.09343 -3.2091,0.27239c0.01888,1.01699 0.06113,3.18587 0.06113,3.18587z" fill="#511111"/></g><g data-paper-data="{&quot;index&quot;:null}"><path d="M254.27096,111.50938c0,4.45609 -3.56528,8.06843 -7.96331,8.06843c-4.39802,0 -7.96332,-3.61234 -7.96332,-8.06843c0,-4.45609 3.56531,-8.06846 7.96332,-8.06846c4.39802,0 7.96331,3.61237 7.96331,8.06847z" fill="url(#color-40)"/><path d="M244.80736,116.6209v-3.37806l-3.11881,-0.1779l-0.06221,-2.47295l3.181,-0.10604v-4.12029h2.79689v4.33235l3.14724,0.00769l-0.01869,2.47824c0,0 -3.19261,0.09287 -3.18931,0.27071c0.01875,1.01071 0.06075,3.16621 0.06075,3.16621z" fill="#511111"/></g><path d="M242.49956,111.4835c0,4.64238 -3.71434,8.40576 -8.29622,8.40576c-4.58189,0 -8.29624,-3.76338 -8.29624,-8.40576c0,-4.64238 3.71435,-8.40577 8.29624,-8.40577c4.58189,0 8.29622,3.76338 8.29622,8.40577z" fill="url(#color-41)"/></g><g><path d="M279.52543,124.18034c0,4.64238 -3.71434,8.40577 -8.29622,8.40577c-4.58189,0 -8.29623,-3.76338 -8.29623,-8.40577c0,-4.64238 3.71434,-8.40575 8.29623,-8.40575c4.58189,0 8.29622,3.76337 8.29622,8.40575z" fill="url(#color-42)"/><g data-paper-data="{&quot;index&quot;:null}"><path d="M266.30755,124.14894c0,4.48375 -3.5874,8.11853 -8.01272,8.11853c-4.42532,0 -8.01273,-3.63478 -8.01273,-8.11853c0,-4.48375 3.58743,-8.11853 8.01273,-8.11853c4.42532,0 8.01272,3.63478 8.01272,8.11853z" fill="url(#color-43)"/><path d="M256.78521,129.29218v-3.39902l-3.13816,-0.17901l-0.0626,-2.4883l3.20075,-0.10669v-4.14586h2.81424v4.35925l3.16677,0.00773l-0.01879,2.49362c0,0 -3.21242,0.09343 -3.20911,0.27239c0.01889,1.01699 0.06113,3.18586 0.06113,3.18586z" fill="#511111"/></g><g data-paper-data="{&quot;index&quot;:null}"><path d="M278.23625,112.29202c0,4.45609 -3.56529,8.06844 -7.96331,8.06844c-4.39802,0 -7.96331,-3.61235 -7.96331,-8.06844c0,-4.45609 3.56531,-8.06846 7.96331,-8.06846c4.39802,0 7.96331,3.61237 7.96331,8.06846z" fill="url(#color-44)"/><path d="M268.77263,117.40355v-3.37805l-3.11881,-0.17791l-0.06221,-2.47294l3.18102,-0.10604v-4.12028h2.79689v4.33236l3.14724,0.00768l-0.0187,2.47824c0,0 -3.19261,0.09286 -3.18931,0.27072c0.01875,1.01071 0.06075,3.16622 0.06075,3.16622z" fill="#511111"/></g><path d="M266.46485,112.26615c0,4.64238 -3.71434,8.40577 -8.29622,8.40577c-4.58189,0 -8.29625,-3.76338 -8.29625,-8.40577c0,-4.64238 3.71435,-8.40576 8.29625,-8.40576c4.58189,0 8.29622,3.76338 8.29622,8.40576z" fill="url(#color-45)"/></g><g><path d="M279.35871,100.89052c0,4.64238 -3.71435,8.40577 -8.29624,8.40577c-4.58189,0 -8.29623,-3.76338 -8.29623,-8.40577c0,-4.64238 3.71434,-8.40576 8.29623,-8.40576c4.58189,0 8.29624,3.76338 8.29624,8.40576z" fill="url(#color-46)"/><g data-paper-data="{&quot;index&quot;:null}"><path d="M266.14084,100.85912c0,4.48375 -3.58741,8.11852 -8.01272,8.11852c-4.42532,0 -8.01272,-3.63477 -8.01272,-8.11852c0,-4.48375 3.58743,-8.11854 8.01272,-8.11854c4.42532,0 8.01272,3.63479 8.01272,8.11854z" fill="url(#color-47)"/><path d="M256.6185,106.00236v-3.39902l-3.13815,-0.17901l-0.0626,-2.4883l3.20075,-0.10668v-4.14587h2.81424v4.35925l3.16678,0.00772l-0.0188,2.49363c0,0 -3.21241,0.09343 -3.20909,0.27239c0.01889,1.01699 0.06112,3.18587 0.06112,3.18587z" fill="#511111"/></g><g data-paper-data="{&quot;index&quot;:null}"><path d="M278.06953,89.00221c0,4.45609 -3.56529,8.06843 -7.9633,8.06843c-4.39802,0 -7.96332,-3.61234 -7.96332,-8.06843c0,-4.45609 3.56531,-8.06846 7.96332,-8.06846c4.39802,0 7.9633,3.61237 7.9633,8.06847z" fill="url(#color-48)"/><path d="M268.60593,94.11373v-3.37806l-3.11881,-0.1779l-0.06221,-2.47295l3.18102,-0.10604v-4.12029h2.79688v4.33236l3.14724,0.00768l-0.0187,2.47824c0,0 -3.19261,0.09287 -3.18931,0.27071c0.01875,1.01071 0.06075,3.16622 0.06075,3.16622z" fill="#511111"/></g><path d="M266.29813,88.97633c0,4.64238 -3.71434,8.40577 -8.29623,8.40577c-4.58189,0 -8.29623,-3.76338 -8.29623,-8.40577c0,-4.64238 3.71434,-8.40577 8.29623,-8.40577c4.58189,0 8.29623,3.76338 8.29623,8.40577z" fill="url(#color-49)"/></g><path d="M229.89895,99.45935c0,4.64238 -3.71434,8.40577 -8.29623,8.40577c-4.58189,0 -8.29623,-3.76338 -8.29623,-8.40577c0,-4.64238 3.71435,-8.40577 8.29623,-8.40577c4.58189,0 8.29623,3.76338 8.29623,8.40577z" fill="url(#color-50)"/><path d="M253.51303,100.56626c0,4.64238 -3.71434,8.40577 -8.29623,8.40577c-4.58189,0 -8.29623,-3.76338 -8.29623,-8.40577c0,-4.64238 3.71435,-8.40577 8.29623,-8.40577c4.58189,0 8.29623,3.76338 8.29623,8.40577z" fill="url(#color-51)"/><g data-paper-data="{&quot;index&quot;:null}"><path d="M216.68108,99.42794c0,4.48375 -3.58741,8.11851 -8.01273,8.11851c-4.42532,0 -8.01273,-3.63477 -8.01273,-8.11851c0,-4.48375 3.58743,-8.11854 8.01273,-8.11854c4.42532,0 8.01273,3.63479 8.01273,8.11854z" fill="url(#color-52)"/><path d="M207.15874,104.5712v-3.39903l-3.13816,-0.17901l-0.06259,-2.4883l3.20075,-0.10669v-4.14586h2.81424v4.35925l3.16678,0.00773l-0.0188,2.49362c0,0 -3.21242,0.09343 -3.20911,0.27239c0.01888,1.01699 0.06114,3.18587 0.06114,3.18587z" fill="#511111"/></g><g data-paper-data="{&quot;index&quot;:null}"><path d="M228.60977,87.57103c0,4.45609 -3.56528,8.06844 -7.96331,8.06844c-4.39802,0 -7.96332,-3.61235 -7.96332,-8.06844c0,-4.45609 3.56531,-8.06846 7.96332,-8.06846c4.39802,0 7.96331,3.61237 7.96331,8.06846z" fill="url(#color-53)"/><path d="M219.14617,92.68255v-3.37806l-3.11881,-0.1779l-0.06221,-2.47295l3.181,-0.10603v-4.1203h2.79689v4.33236l3.14724,0.00768l-0.0187,2.47824c0,0 -3.19261,0.09286 -3.18931,0.27071c0.01875,1.01071 0.06075,3.16622 0.06075,3.16622z" fill="#511111"/></g><path d="M216.83837,87.54516c0,4.64238 -3.71434,8.40577 -8.29622,8.40577c-4.58189,0 -8.29625,-3.76338 -8.29625,-8.40577c0,-4.64238 3.71435,-8.40576 8.29625,-8.40576c4.58189,0 8.29622,3.76338 8.29622,8.40576z" fill="url(#color-54)"/><path d="M241.70599,99.09039c0,4.64238 -3.71434,8.40577 -8.29624,8.40577c-4.58189,0 -8.29623,-3.76338 -8.29623,-8.40577c0,-4.64238 3.71435,-8.40577 8.29623,-8.40577c4.58189,0 8.29624,3.76338 8.29624,8.40577z" fill="url(#color-55)"/><path d="M253.88201,87.65231c0,4.64238 -3.71434,8.40577 -8.29624,8.40577c-4.58189,0 -8.29623,-3.76338 -8.29623,-8.40577c0,-4.64238 3.71435,-8.40577 8.29623,-8.40577c4.58189,0 8.29624,3.76338 8.29624,8.40577z" fill="url(#color-56)"/><path d="M242.07496,87.65231c0,4.64238 -3.71434,8.40577 -8.29624,8.40577c-4.58189,0 -8.29623,-3.76338 -8.29623,-8.40577c0,-4.64238 3.71435,-8.40577 8.29623,-8.40577c4.58189,0 8.29624,3.76338 8.29624,8.40577z" fill="url(#color-57)"/></g></g></g></svg>