<svg version="1.1" xmlns="http://www.w3.org/2000/svg" xmlns:xlink="http://www.w3.org/1999/xlink" width="118.50798" height="146.30638" viewBox="0,0,118.50798,146.30638"><defs><linearGradient x1="240.61953" y1="58.29925" x2="240.61953" y2="237.16748" gradientUnits="userSpaceOnUse" id="color-1"><stop offset="0" stop-color="#000000"/><stop offset="1" stop-color="#000000" stop-opacity="0"/></linearGradient><radialGradient cx="237.9638" cy="128.87058" r="4.38043" gradientUnits="userSpaceOnUse" id="color-2"><stop offset="0" stop-color="#fff8e0" stop-opacity="0"/><stop offset="1" stop-color="#fff8e0"/></radialGradient><radialGradient cx="237.71343" cy="130.81011" r="47.71342" gradientUnits="userSpaceOnUse" id="color-3"><stop offset="0" stop-color="#979d8a"/><stop offset="1" stop-color="#d3d4bf"/></radialGradient><radialGradient cx="237.86011" cy="130.26845" r="39.61011" gradientUnits="userSpaceOnUse" id="color-4"><stop offset="0" stop-color="#acb991"/><stop offset="1" stop-color="#ebecd5"/></radialGradient><radialGradient cx="237.69517" cy="129.72304" r="25.69517" gradientUnits="userSpaceOnUse" id="color-5"><stop offset="0" stop-color="#99a681"/><stop offset="1" stop-color="#dbddba"/></radialGradient><radialGradient cx="237.82017" cy="129.17875" r="16.07017" gradientUnits="userSpaceOnUse" id="color-6"><stop offset="0" stop-color="#aebc93"/><stop offset="1" stop-color="#e9eace"/></radialGradient><radialGradient cx="237.83359" cy="129.10432" r="9.55026" gradientUnits="userSpaceOnUse" id="color-7"><stop offset="0" stop-color="#aebc93"/><stop offset="1" stop-color="#e9eace"/></radialGradient></defs><g transform="translate(-181.41321,-66.19375)"><g data-paper-data="{&quot;isPaintingLayer&quot;:true}" fill-rule="nonzero" stroke-linecap="butt" stroke-linejoin="miter" stroke-miterlimit="10" stroke-dasharray="" stroke-dashoffset="0" style="mix-blend-mode: normal"><path d="M284.37023,179.70936c0.07585,1.88165 -6.82295,7.07192 -42.75929,7.07192c-35.93634,0 -45.96971,-4.43047 -45.98172,-7.45949c-0.01038,-2.6151 9.30175,-6.10294 45.23807,-6.10294c35.93634,0 43.43354,4.76932 43.50294,6.49051z" fill="url(#color-1)" stroke="none" stroke-width="0"/><text transform="translate(217.40925,206.52038) scale(0.357,0.357)" font-size="40" xml:space="preserve" fill="#ffffff" fill-rule="nonzero" stroke="#ffffff" stroke-width="0.5" stroke-linecap="butt" stroke-linejoin="miter" stroke-miterlimit="10" stroke-dasharray="" stroke-dashoffset="0" font-family="Handwriting" font-weight="normal" text-anchor="start" style="mix-blend-mode: normal"></text><text transform="translate(181.5857,79.30261) scale(0.34497,0.34497)" font-size="40" xml:space="preserve" fill="#ffffff" fill-rule="nonzero" stroke="#ffffff" stroke-width="1" stroke-linecap="butt" stroke-linejoin="miter" stroke-miterlimit="10" stroke-dasharray="" stroke-dashoffset="0" font-family="Handwriting" font-weight="normal" text-anchor="start" style="mix-blend-mode: normal"></text><g stroke="none" stroke-width="0"><path d="M238.88599,131.45371c0.08983,0.0778 -0.65097,0.1537 -1.56773,0.1537c-0.91676,0 -1.62921,-0.28078 -1.62921,-0.39962c0,-0.11884 0.68171,0.3074 1.59847,0.3074c0.91676,0 1.56773,-0.0881 1.59847,-0.06148z" fill="#ffffff"/><path d="M242.19502,128.97303c0,2.29151 -1.88577,4.14914 -4.21201,4.14914c-2.32622,0 -4.212,-1.85763 -4.212,-4.14914c0,-2.29151 1.88577,-4.14914 4.212,-4.14914c2.32622,0 4.21201,1.85764 4.21201,4.14915z" fill="#ffee97"/><path d="M242.02914,129.98588c-0.06252,0.09524 -2.11284,0.43595 -3.90354,0.49042c-1.76941,0.05382 -4.07873,-0.26986 -4.12767,-0.33322c-0.24251,-0.31411 -0.28826,-1.83056 -0.02264,-2.46268c-0.02315,-0.09479 2.00229,-0.2947 4.05761,-0.32628c2.11363,-0.03248 3.85923,0.10596 3.84054,0.19936c0.54792,0.73374 0.27703,2.24761 0.1557,2.43241z" fill="#fff1c0"/><path d="M241.691,131.03104c-0.06252,0.09524 -1.83619,0.46668 -3.62688,0.52115c-1.76941,0.05382 -3.55615,-0.20838 -3.60508,-0.27175c-0.24251,-0.31411 -0.56493,-1.18502 -0.6067,-1.35604c-0.02315,-0.09479 2.00229,0.10492 4.05761,0.07333c2.11363,-0.03249 4.25885,-0.29366 4.24016,-0.20025c-0.06688,0.33411 -0.33777,1.04875 -0.4591,1.23355z" fill="#ffd782"/><path d="M241.04547,126.17414c0.33814,0.33749 -2.06179,-0.13833 -3.01251,-0.13833c-0.95072,0 -3.34369,0.33935 -3.04325,0.07685c0.55331,-0.64488 1.47994,-1.21093 2.95103,-1.27571c1.35217,-0.05954 2.82234,0.77869 3.10473,1.33718z" fill="#eeffca"/><path d="M239.25026,125.01585c0.10073,0.05941 -0.56511,0.43285 -0.59925,0.4459c-0.04866,0.0186 -1.27278,0.08789 -1.31277,0.07114c-0.13223,-0.0554 -0.84184,-0.42851 -0.63939,-0.49859c0.40577,-0.14047 0.73579,-0.20349 1.21115,-0.20349c0.47536,0 1.00827,-0.01076 1.34026,0.18505z" fill="#cae2c9"/><path d="M242.34423,128.87058c0,2.36777 -1.96119,4.28723 -4.38043,4.28723c-2.41924,0 -4.38043,-1.91946 -4.38043,-4.28723c0,-2.36777 1.96119,-4.28723 4.38043,-4.28723c2.41924,0 4.38043,1.91946 4.38043,4.28723z" fill="url(#color-2)"/></g><path d="M285.42684,130.81011c0,20.05351 -21.36202,36.3101 -47.71342,36.3101c-26.35139,0 -47.71341,-16.25659 -47.71341,-36.3101c0,-20.05351 21.36202,-36.3101 47.71341,-36.3101c26.35139,0 47.71342,16.25658 47.71342,36.3101zM237.23483,162.46166c23.88564,-0.80741 42.12386,-14.88441 42.84945,-32.90632c-0.27337,-14.0754 -17.29796,-32.98992 -44.84441,-31.13378c-32.39806,2.18304 -40.55776,25.77331 -40.41071,31.46437c-0.3401,16.2379 19.48909,32.93899 42.40568,32.57572z" fill="url(#color-3)" stroke="none" stroke-width="0"/><path d="M277.47022,130.26845c0,16.57872 -17.73404,30.01845 -39.61011,30.01845c-21.87606,0 -39.6101,-13.43972 -39.6101,-30.01845c0,-16.57872 17.73405,-30.01844 39.6101,-30.01844c21.87605,0 39.61011,13.43971 39.61011,30.01845zM270.785,130.23111c0.02305,-9.88648 -11.8602,-26.02358 -34.47836,-24.98906c-23.8958,0.55478 -32.91972,15.80743 -32.54764,23.51237c-0.13775,9.79955 13.30813,27.37401 33.97606,27.34951c23.74042,-0.02815 32.24146,-14.9928 33.04994,-25.87282z" fill="url(#color-4)" stroke="none" stroke-width="0"/><path d="M263.39034,129.72304c0,10.75465 -11.50412,19.47304 -25.69517,19.47304c-14.19105,0 -25.69516,-8.71838 -25.69516,-19.47304c0,-10.75465 11.50411,-19.47303 25.69516,-19.47303c14.19105,0 25.69517,8.71837 25.69517,19.47303zM257.18115,129.62693c-0.47157,-5.76467 -4.65097,-16.34155 -19.32342,-15.67045c-15.50126,0.35988 -20.41886,10.25431 -20.17749,15.25252c-0.08936,6.35699 6.29243,16.11917 19.69976,16.10328c15.40046,-0.01826 19.76322,-11.06009 19.80115,-15.68535z" fill="url(#color-5)" stroke="none" stroke-width="0"/><path d="M253.89034,129.17875c0,6.72613 -7.19486,12.17875 -16.07017,12.17875c-8.87531,0 -16.07016,-5.45261 -16.07016,-12.17875c0,-6.72613 7.19486,-12.17874 16.07016,-12.17874c8.87531,0 16.07017,5.45261 16.07017,12.17874zM250.00701,129.11864c-0.29493,-3.60532 -2.90879,-10.22027 -12.08517,-9.80055c-9.69473,0.22508 -12.77028,6.41321 -12.61933,9.53917c-0.05589,3.97577 3.93538,10.08119 12.32054,10.07124c9.6317,-0.01142 12.36024,-6.91716 12.38396,-9.80986z" fill="url(#color-6)" stroke="none" stroke-width="0"/><path d="M247.38385,129.10432c0,3.99723 -4.2758,7.23764 -9.55026,7.23764c-5.27446,0 -9.55024,-3.2404 -9.55024,-7.23764c0,-3.99724 4.27579,-7.23764 9.55024,-7.23764c5.27446,0 9.55026,3.24041 9.55026,7.23764zM245.07604,129.06859c-0.17527,-2.14258 -1.72865,-6.07375 -7.18203,-5.82431c-5.76143,0.13376 -7.58918,3.81127 -7.49947,5.66898c-0.03322,2.36274 2.33873,5.9911 7.3219,5.98519c5.72397,-0.00679 7.3455,-4.11076 7.3596,-5.82985z" fill="url(#color-7)" stroke="none" stroke-width="0"/></g></g></svg>