<svg version="1.1" xmlns="http://www.w3.org/2000/svg" xmlns:xlink="http://www.w3.org/1999/xlink" width="109.70089" height="175.5881" viewBox="0,0,109.70089,175.5881"><defs><linearGradient x1="223.21391" y1="-12.97027" x2="223.21391" y2="266.97116" gradientUnits="userSpaceOnUse" id="color-1"><stop offset="0" stop-color="#000000"/><stop offset="1" stop-color="#000000" stop-opacity="0"/></linearGradient><radialGradient cx="230.61542" cy="134.17477" r="47.36787" gradientUnits="userSpaceOnUse" id="color-2"><stop offset="0" stop-color="#356804"/><stop offset="1" stop-color="#356804" stop-opacity="0"/></radialGradient><radialGradient cx="228.78873" cy="126.71591" r="47.69136" gradientUnits="userSpaceOnUse" id="color-3"><stop offset="0" stop-color="#356804"/><stop offset="1" stop-color="#356804" stop-opacity="0"/></radialGradient><radialGradient cx="226.73866" cy="164.1359" r="42.68542" gradientUnits="userSpaceOnUse" id="color-4"><stop offset="0" stop-color="#356804"/><stop offset="1" stop-color="#356804" stop-opacity="0"/></radialGradient></defs><g transform="translate(-171.35836,-44.25332)"><g data-paper-data="{&quot;isPaintingLayer&quot;:true}" stroke-linecap="butt" stroke-linejoin="miter" stroke-miterlimit="10" stroke-dasharray="" stroke-dashoffset="0" style="mix-blend-mode: normal"><path d="M273.64092,177.04504c0.08743,2.94491 -7.86412,11.06804 -49.28419,11.06804c-41.42007,0 -52.9845,-6.93403 -52.99836,-11.67461c-0.01197,-4.09279 10.72117,-9.55154 52.14124,-9.55154c41.42007,0 50.06132,7.46434 50.14131,10.15811z" fill="url(#color-1)" fill-rule="nonzero" stroke="none" stroke-width="0"/><text transform="translate(199.29168,212.01887) scale(0.46015,0.46015)" font-size="40" xml:space="preserve" fill="#000000" fill-rule="nonzero" stroke="#000000" stroke-width="1" stroke-linecap="butt" stroke-linejoin="miter" stroke-miterlimit="10" stroke-dasharray="" stroke-dashoffset="0" font-family="Handwriting" font-weight="normal" text-anchor="start" style="mix-blend-mode: normal"></text><text transform="translate(184.27264,65.41476) scale(0.55688,0.55688)" font-size="40" xml:space="preserve" fill="#000000" fill-rule="nonzero" stroke="#000000" stroke-width="1" stroke-linecap="butt" stroke-linejoin="miter" stroke-miterlimit="10" stroke-dasharray="" stroke-dashoffset="0" font-family="Handwriting" font-weight="normal" text-anchor="start" style="mix-blend-mode: normal"></text><g><path d="M277.33252,90.94899c8.81354,15.27604 -9.09722,75.47933 -19.59636,83.80982c-14.11228,11.19732 -72.40739,8.62485 -77.09305,-1.43329c-5.78968,-12.428 10.5372,-75.23451 24.27736,-85.67028c14.59313,-11.08362 64.8905,-9.74298 72.41206,3.29375z" fill="#4e9a06" fill-rule="evenodd" stroke="#231f20" stroke-width="2.72535"/><path d="M245.53582,107.01404c0.97866,-0.72313 1.95766,-1.39095 2.95665,-2.06935c2.12555,-1.32581 4.28293,-2.6577 6.51278,-3.75586c1.95511,-1.01779 4.07369,-1.36504 6.17903,-1.8243c3.95785,-0.68081 11.83194,-2.56532 15.74027,-3.55321c0.34004,0.70433 0.56647,1.6269 1.05873,2.30149c-1.18991,0.75705 -6.03599,2.82055 -7.37108,3.18742c-2.28945,0.71149 -4.60871,1.02098 -6.9617,1.40107c-1.67666,0.37409 -3.4851,0.44051 -4.99715,1.40459c-1.18359,0.60584 -2.14645,1.64136 -3.13765,2.56654c-1.58049,1.58567 -3.33562,2.93821 -4.80072,4.67046c-1.7521,1.71587 -3.28796,3.67458 -4.78439,5.67666c-0.82832,0.99689 -1.57301,2.04081 -2.23211,3.19589c-0.89276,1.24998 -1.89437,2.43171 -2.48535,3.9278c-0.41299,1.66322 -1.19025,3.18429 -1.7742,4.76492c-0.53194,1.03957 -0.95662,2.15206 -1.69589,3.02767c-1.81402,1.67045 -3.58673,3.402 -5.45832,4.99096c-2.92279,2.3697 -5.76839,4.84483 -8.79331,7.04851c-2.83527,1.93832 -5.76154,3.66754 -8.62862,5.54513c-0.95489,0.59822 -1.94509,1.37066 -2.40559,2.54892c-0.40027,1.17882 -0.42756,2.56436 -1.15675,3.57622c-1.19107,1.48766 -2.78372,2.46162 -4.28083,3.49609c-0.89323,0.67985 -1.86945,1.13311 -2.84865,1.62768c-2.7318,1.17118 -5.56567,2.12268 -8.25912,3.4066c-3.28109,1.48636 -6.33824,3.36608 -9.45971,5.21866c-0.65363,0.2311 -1.29648,0.95259 -1.93485,1.29207c-0.00038,0.0002 -0.00076,0.00042 -0.00114,0.00062c0.00041,-0.00018 0.0008,-0.00035 0.0012,-0.00052l0.00008,-0.00007c0.92086,-0.39688 1.9278,-0.66145 2.82629,-1.13132c2.27147,-1.19463 4.63616,-2.08172 7.09061,-2.69749c3.21936,-0.91209 6.5442,-1.4376 9.77679,-2.28422c4.18346,-1.25451 8.30165,-2.70809 12.37971,-4.32414c1.95144,-0.89061 3.83759,-1.96175 5.67343,-3.11741c3.35099,-1.97238 6.60079,-4.12439 9.98106,-6.03465c2.49929,-1.25465 4.83264,-2.96316 6.88596,-4.99843c1.99457,-1.79791 3.96973,-3.60935 5.8955,-5.50328c1.48345,-1.70744 3.41372,-2.76116 5.14475,-4.09333c1.15274,-0.87372 2.4011,-1.83992 2.8413,-3.41961c0.47307,-1.38621 0.22564,-2.91533 0.1529,-4.37049c-0.0736,-1.19673 0.17951,-2.40466 0.91397,-3.2717c1.34708,-1.56476 2.82939,-2.96863 4.06867,-4.65286c0.92413,-0.8748 1.11526,-2.20717 1.24238,-3.52154c0.2483,-1.43804 0.53517,-2.89982 0.68986,-4.3595c0.14393,-2.16111 0.72041,-4.2409 1.76905,-6.01929c0.48701,-0.52335 1.14121,-0.87243 1.82685,-0.85041c2.00636,-0.35389 4.05178,0.6347 6.05305,0.1889c1.07491,-0.15923 1.80967,-1.08581 2.67737,-1.73707c1.10593,-1.09392 3.63006,-2.89654 4.73073,-4.02951c0.8724,0.94614 -0.17407,3.19449 0.81444,3.9758c-0.58684,1.70261 -0.61388,2.69885 -1.28127,4.35981c-0.38085,1.57466 -0.57047,3.21772 -0.89541,4.81548c-0.52717,2.52406 -1.05149,5.04716 -1.86075,7.46712c-0.30531,1.32989 -0.87708,2.55433 -1.41219,3.77054c-0.80189,1.84753 -1.89612,3.47343 -2.9196,5.1569c-1.84295,2.74406 -3.62707,5.55282 -5.81223,7.95647c-1.83588,1.99371 -3.73566,3.91125 -5.71158,5.72285c-1.82983,1.81113 -3.82476,3.3787 -5.67729,5.15752c-1.99997,1.76115 -4.06977,3.4435 -6.09208,5.17347c-2.40747,1.96993 -4.75302,3.98755 -7.27326,5.77239c-3.19635,1.82263 -6.49397,3.39282 -9.83948,4.84847c-3.53071,1.39136 -7.05421,2.90502 -10.63557,4.13581c-2.99503,0.84226 -6.02095,1.5652 -9.13257,1.67435c-6.51845,0.68588 -13.04692,1.07811 -19.59065,1.48091c-1.44548,0.00485 -2.91251,0.17509 -4.34247,0.36731c-0.75012,0.7505 -2.25712,-0.37926 -1.47,-1.39833c0.03752,-0.01931 0.07534,-0.03677 0.11338,-0.05308c-0.2451,0.05731 -0.49591,0.03657 -0.78515,-0.09511c-0.44705,-1.00545 0.95936,-1.4915 1.51711,-1.99291c1.22902,-1.13268 2.34224,-2.39632 3.56071,-3.54745c2.37097,-2.3091 4.47259,-4.96728 6.19054,-7.94466c1.18255,-2.27826 2.35505,-4.55845 3.77984,-6.65011c0.9771,-1.71083 2.31211,-3.08178 3.56893,-4.5124c1.5691,-1.93844 3.34387,-3.68916 5.13962,-5.34769c4.5929,-4.03829 9.3939,-7.72913 14.00881,-11.73494c3.58942,-3.23681 7.17609,-6.56829 10.70962,-9.88434c3.44642,-3.54237 7.06967,-6.76051 10.83176,-9.85743c0.94723,-0.76713 1.91599,-1.53923 2.8949,-2.26191z" fill="url(#color-2)" fill-rule="nonzero" stroke="none" stroke-width="1"/><path d="M218.51251,87.12096c1.99099,-0.77989 4.96681,-1.49604 6.98704,-2.18186c2.1928,-0.79028 4.42395,-0.39817 6.70332,-0.82988c2.8564,-0.67143 6.75992,0.11339 9.66278,-0.24755c3.0577,-0.28709 6.13374,-0.50774 9.2107,-0.4755c2.99834,0.17382 5.98613,0.401 8.96038,0.97318c2.09844,0.27322 4.15809,0.90164 6.20492,1.51141c2.00188,0.44691 3.92638,1.19877 5.86178,1.94123c-0.01448,0.24375 -0.0247,0.48882 -0.03061,0.7351c-1.33642,-0.42671 -2.67116,-0.86879 -4.01936,-1.23843c-2.21726,-0.68048 -4.50605,-1.20591 -6.77834,-1.49462c-4.20637,-0.39638 -8.4065,-1.02589 -12.62068,-0.88512c-1.55865,-0.00738 -3.07977,0.14976 -4.62323,0.34123c-5.43744,1.08025 -11.43533,0.20217 -16.78517,1.70162c-2.69431,1.03069 -5.41062,0.68943 -8.07667,1.8096c-3.35038,1.49243 -7.93646,3.11951 -11.05585,5.15134c-2.11105,1.3564 -4.67356,5.63817 -6.26164,7.72283c-3.04613,3.78973 -3.59445,8.57989 -6.30277,12.70531c-0.99902,1.2836 -1.57147,2.91874 -2.31259,4.39556c-1.7475,3.73913 -3.44081,7.55731 -5.04167,11.38477c-0.91647,2.06882 -1.54006,4.29146 -2.31643,6.43568c-1.11232,2.95609 -1.19913,6.33695 -1.88203,9.4681c-0.98372,3.89357 -1.40189,7.71743 -1.82861,11.74046c-0.07879,1.00358 -0.18331,2.37625 -0.29251,3.77991c0.53389,-3.59619 1.18798,-7.16334 2.03626,-10.66989c0.8863,-3.60447 1.8767,-7.18243 3.01896,-10.68498c1.47928,-4.04982 3.23433,-7.95973 5.0521,-11.81214c1.10096,-2.49681 2.48264,-4.78262 3.82677,-7.10524c1.40557,-2.26029 2.86497,-4.43961 4.40241,-6.58444c2.13627,-3.18156 4.63532,-6.02505 7.18778,-8.76315c0.92498,-0.89802 1.75161,-1.90143 2.7221,-2.72978l-0.00004,-0.00036c0.32345,-0.27616 0.663,-0.55269 1.0218,-0.77728c1.74895,-1.13585 3.54806,-2.27818 5.35546,-3.29494c2.08276,-1.12847 4.18713,-2.16394 6.29529,-3.23091c4.31187,-2.1733 8.79963,-3.75087 13.35235,-5.18388c4.205,-1.37185 8.57119,-2.22691 12.93517,-2.76942c2.39682,-0.37879 4.7936,-0.29035 7.20964,-0.45123c2.24964,0.10681 4.54562,0.20173 6.78659,0.52965c2.3884,0.32899 4.74705,0.88402 7.11942,1.355c0.62142,0.14969 2.21979,-0.09355 2.85053,0.02996c0.01733,0.49222 1.34276,0.97943 1.39398,1.46085c-0.76168,-0.10077 -3.78337,0.17116 -4.54323,0.05462c-1.98982,-0.16834 -3.96623,-0.64047 -5.95768,-0.74077c-3.13488,-0.28731 -6.28507,-0.31369 -9.39538,0.07671c-4.56227,0.38796 -9.05029,1.49441 -13.44754,2.79966c-3.3255,1.0817 -6.57248,2.33029 -9.67189,4.06187c-3.15,1.60269 -6.31976,3.17749 -9.36289,5.02517c-1.67768,1.0416 -3.42903,1.9885 -5.1618,2.90794c-1.86279,0.90611 -3.41388,2.3209 -4.98753,3.73421c-2.00302,2.07297 -4.11315,4.02121 -5.96556,6.27558c-1.80023,2.1706 -3.79345,4.13993 -5.53809,6.36982c-1.92766,2.42818 -3.48686,5.25708 -4.94539,8.076c-2.45986,4.4038 -4.78029,8.87891 -6.81421,13.572c-0.71592,1.53211 -1.24848,3.16585 -1.74961,4.80613c-1.46122,4.50308 -2.611,9.14746 -3.71397,13.79013c-0.33783,1.20697 -0.50876,2.51233 -0.49694,3.79333c0.08174,0.25187 0.06737,0.47678 0.00293,0.71677c0.0239,-0.04411 0.06116,-0.08343 0.08484,-0.1243c1.81585,-5.7114 3.72753,-11.41657 5.61615,-17.09455c0.6868,-2.32576 1.67798,-4.48605 2.75509,-6.58962c2.57149,-4.70715 5.41198,-9.18252 8.11897,-13.78557c1.86486,-3.02482 4.3167,-5.49383 6.54357,-8.15328c2.26166,-2.6984 4.5642,-5.36192 6.94718,-7.92105c0.57516,-0.47115 1.13234,-0.93432 1.72715,-1.37359c2.85969,-2.11298 5.92308,-3.8175 8.88408,-5.73946c2.08696,-1.39205 4.3059,-2.60635 6.48819,-3.79709c3.2191,-1.82739 6.52318,-3.38438 9.876,-4.87621c2.91741,-1.23901 5.9074,-2.32379 8.98072,-2.99685c3.91318,-0.8371 7.80331,-2.04184 11.8404,-1.93662c2.67591,-0.00393 5.3405,0.01992 8.01761,0.1924c1.24343,0.02649 5.71838,-0.33206 6.96708,-0.22246c0.02392,0.15309 0.68989,1.74005 0.93998,2.73465c-2.1047,0.26355 -8.25468,1.55441 -10.36637,1.81522c-2.10779,0.20765 -4.23356,0.39469 -6.31749,0.79119c-1.98192,0.39517 -3.93731,0.81573 -5.86323,1.46424c-2.11174,0.56684 -4.06261,1.7076 -6.01675,2.71944c-2.56795,1.46793 -5.2214,2.76042 -7.63213,4.54745c-3.00017,2.05405 -5.98249,4.13458 -8.84464,6.42848c-1.25662,0.93436 -2.49929,1.84603 -3.67314,2.91389c-1.53228,1.38285 -3.17282,2.65686 -4.66887,4.09085c-2.14492,1.95131 -4.22325,4.02349 -6.30812,6.05679c-3.53518,3.4865 -7.24379,6.67212 -10.68358,10.28395c-1.37144,1.52392 -2.86153,2.96984 -4.17887,4.55695c-2.22602,2.55031 -4.15951,5.36578 -5.96941,8.31569c-1.2882,2.65178 -2.47366,5.43788 -3.85958,8.02897c-1.47169,2.93654 -3.1637,5.70067 -4.99308,8.35195c-0.86622,1.31644 -1.99511,2.32317 -2.76683,3.72248c-0.39201,0.71213 -1.29138,1.94474 -2.08156,1.22392c-0.28712,-0.51432 -0.16306,-1.00288 0.03062,-1.4613c-0.20089,-0.539 0.00176,-1.24142 0.24884,-1.80706c-0.26473,0.4286 -0.70832,0.67732 -1.10346,0.29948c-0.05665,0.56169 -0.0995,0.87868 -0.12046,0.82103c-0.00388,-0.31475 -0.00647,-0.63828 -0.00781,-0.96896c-0.00824,-0.01125 -0.01645,-0.02282 -0.02462,-0.0347c-0.31895,-0.62216 -0.16046,-1.30788 0.03091,-1.97346c0.02731,-2.80316 0.1296,-5.85824 0.28884,-8.34918c0.09918,-2.14009 0.11383,-4.2343 0.51233,-6.31717c0.91741,-4.82755 1.45796,-9.64122 2.83594,-14.31173c1.24654,-3.92896 2.75141,-7.76116 4.01544,-11.68267c1.04404,-2.6957 2.06501,-5.44286 3.34724,-7.99872c1.49195,-2.59647 2.381,-8.03047 3.99685,-10.52215c3.89275,-4.46673 5.42351,-9.76538 10.36948,-13.52774c3.35056,-2.54875 8.38053,-2.95374 11.83593,-4.87483z" fill="url(#color-3)" fill-rule="nonzero" stroke="none" stroke-width="1"/><path d="M264.88637,158.32461c0,0 -4.16503,9.85148 -6.67768,12.66758c-0.12072,0.12215 -0.25519,0.22531 -0.3769,0.34647c-0.57566,0.46053 -1.13725,1.44566 -1.72715,1.89438c-1.27352,0.96876 -11.14749,6.3166 -19.81018,7.4114c-16.92809,2.1394 -37.67699,-0.21867 -39.74459,-0.97658c-3.70003,-1.21231 -7.27016,-2.8774 -10.79368,-4.67162c-0.25259,-0.16167 -0.54405,-0.26563 -0.81917,-0.39548c-0.01112,-0.00561 -0.01375,-0.03611 -0.02451,-0.04112c-0.29774,-0.41139 -0.57836,-0.83385 -0.85928,-1.2637l4.88602,1.2564c6.9852,1.88298 14.11622,3.16859 21.21231,4.17603c3.90779,0.18133 7.79501,-0.07237 11.67572,-0.43326c2.44432,-0.29721 4.89738,-0.39678 7.34297,-0.67249c1.71153,-0.31128 3.39033,-0.94594 5.04554,-1.50132c3.12581,-1.20953 6.2453,-2.35867 9.28239,-3.82549c2.14193,-1.08991 4.39774,-2.0856 6.30575,-3.65831c2.48471,-1.98962 4.59897,-4.40349 6.94041,-6.59771c2.24795,-2.112 4.38367,-4.40985 6.37816,-6.82909c2.34231,-2.57031 6.30159,-8.45919 6.30159,-8.45919z" fill="url(#color-4)" fill-rule="nonzero" stroke="none" stroke-width="1"/><path d="M210.15375,98.95253c-4.5154,4.92875 -5.78313,10.83603 -8.28398,8.83701c-2.50093,-1.99908 -0.86601,-7.6128 3.64943,-12.54157c4.51415,-4.92732 10.19926,-7.30364 12.70018,-5.30454c2.50093,1.99904 -3.55278,4.08322 -8.0656,9.00915z" fill="#bfef90" fill-rule="evenodd" stroke="none" stroke-width="1"/></g></g></g></svg>