<svg version="1.1" xmlns="http://www.w3.org/2000/svg" xmlns:xlink="http://www.w3.org/1999/xlink" width="148.6731" height="170.8872" viewBox="0,0,148.6731,170.8872"><defs><linearGradient x1="318.53768" y1="-36.55623" x2="318.53768" y2="283.19444" gradientUnits="userSpaceOnUse" id="color-1"><stop offset="0" stop-color="#000000"/><stop offset="1" stop-color="#000000" stop-opacity="0"/></linearGradient></defs><g transform="translate(-243.16346,-50.47633)"><g data-paper-data="{&quot;isPaintingLayer&quot;:true}" fill-rule="nonzero" stroke-linecap="butt" stroke-linejoin="miter" stroke-miterlimit="10" stroke-dasharray="" stroke-dashoffset="0" style="mix-blend-mode: normal"><path d="M391.83552,180.48034c0.12707,3.36368 -11.43082,12.64198 -71.63667,12.64198c-60.20585,0 -77.01522,-7.92008 -77.03538,-13.33483c-0.01739,-4.67483 15.58367,-10.9098 75.78949,-10.9098c60.20585,0 72.76626,8.5258 72.88252,11.60265z" fill="url(#color-1)" stroke="none" stroke-width="0"/><text transform="translate(296.30595,67.96203) scale(0.46015,0.46015)" font-size="40" xml:space="preserve" fill="#000000" fill-rule="nonzero" stroke="#000000" stroke-width="1" stroke-linecap="butt" stroke-linejoin="miter" stroke-miterlimit="10" stroke-dasharray="" stroke-dashoffset="0" font-family="Handwriting" font-weight="normal" text-anchor="start" style="mix-blend-mode: normal"></text><text transform="translate(306.29464,213.54098) scale(0.46015,0.46015)" font-size="40" xml:space="preserve" fill="#000000" fill-rule="nonzero" stroke="#000000" stroke-width="1" stroke-linecap="butt" stroke-linejoin="miter" stroke-miterlimit="10" stroke-dasharray="" stroke-dashoffset="0" font-family="Handwriting" font-weight="normal" text-anchor="start" style="mix-blend-mode: normal"></text><g stroke="none" stroke-width="1"><path d="M283.9765,145.33663l7.33802,7.97444c-2.10949,2.66121 -5.56339,6.01297 -8.79674,6.91117c-3.14117,0.89637 -6.49575,0.68125 -9.49585,-0.61018c-1.53351,-0.67723 -2.71367,-1.8742 -4.0285,-2.87017c-1.21089,-0.91397 -1.92597,-2.00432 -3.16179,-2.79341c-0.42685,0.3905 -2.36435,2.73083 -2.78197,1.72528c1.64394,-1.51091 4.85355,-4.85758 4.85355,-4.85758c0,0 4.45966,2.76144 8.40502,2.89441c3.77878,0.13881 7.24742,-4.41179 7.66827,-8.37395z" fill="#a0aa1e"/><path d="M305.79131,145.55619l11.86543,3.02803c-6.34893,13.34378 -12.76688,28.50887 -13.77581,31.3645c0.80388,0.53958 1.71582,0.47913 2.51359,0.75435c-0.04678,0.29894 -0.08155,0.53595 -0.13062,0.84419c-1.14439,-0.36171 -6.15953,-1.42386 -7.25837,-2.03964c0.25305,-0.98396 6.78578,-33.95142 6.78578,-33.95142z" fill="#828c00"/><path d="M253.92481,97.11101c1.32557,0.25143 3.19144,2.47141 4.21574,3.30993c1.51899,1.24761 3.03219,2.53377 4.55055,3.81487c1.05037,0.88975 8.67715,7.25382 13.27934,9.55791c8.34509,4.1799 14.64569,3.99638 15.63699,4.83366c1.53565,1.29526 -26.534,18.26923 -26.534,18.26923c0,0 -7.43286,-7.05038 -10.00202,-13.70862c-4.6895,-12.14007 -2.088,-24.43097 -1.1466,-26.07696z" fill="#828c00"/><path d="M267.93767,132.6896c4.82932,-5.73689 11.07673,-13.95385 19.23696,-14.61637c1.49753,-0.12102 3.03811,0.34868 4.47864,0.41185c2.20094,0.09104 4.42179,0.66005 6.63653,0.77577c0.71417,0.04155 2.21449,0.01658 2.21449,0.01658l2.42668,0.48502l1.21543,-1.62571c0,0 3.75338,-2.21826 4.79596,-3.10537c6.81412,-5.78467 19.97689,-18.66605 26.83001,-24.44045c0.75043,-0.63471 14.453,15.91406 14.453,15.91406l18.34613,17.15706c0.88156,3.52685 -3.53154,3.75503 -6.11853,3.11713c-1.52634,-0.37251 -2.95126,-0.70526 -4.54225,-0.669c-0.34483,0.00833 -3.10326,-0.08151 -5.02446,1.12102c-2.93035,1.83981 -5.48126,5.42167 -6.88869,7.02008c-2.6481,3.01073 -5.03763,6.28467 -7.45652,9.47993c-2.59764,3.43137 -14.69345,17.4785 -27.92852,19.83039c-11.15604,1.98244 -23.58323,-7.11488 -27.17546,-10.05369c-6.06244,-4.96288 -12.86246,-11.00879 -13.57097,-11.72069c-1.68814,-1.69937 -3.87104,-2.97314 -5.50599,-4.69595c0.84422,-1.5751 2.42115,-3.03059 3.57755,-4.40165z" fill="#a0aa1e"/><path d="M355.8465,137.01531c0.29053,0.41302 -3.23352,4.03301 -4.50675,5.50526c-1.43185,1.65466 -2.8642,3.32128 -4.34569,4.92706c-1.56624,1.69924 -3.81849,3.00279 -6.36743,2.74642c-0.74345,-0.07375 -4.15324,-0.96166 -6.40142,-2.52075c-3.23616,-2.23803 -4.64491,-4.94843 -5.42241,-5.67046l0.08453,-0.51616c0.74043,-0.78615 1.43475,-1.61415 2.0787,-2.48135c0.7524,0.4191 2.39685,3.75426 5.02638,5.56884c2.58364,1.78629 6.1553,2.05854 7.02841,1.73346c1.49894,-0.5558 2.67051,-1.61556 3.72182,-2.79028c1.17394,-1.31444 2.23671,-2.73227 3.37689,-4.07848c0.84131,-0.99623 3.34442,-4.80171 3.73377,-4.48297c0.38936,0.31874 -1.23197,1.76675 -0.83809,2.13661c0.39501,0.36973 1.7428,-1.48564 1.97604,-1.29471c0.23263,0.19043 -1.44093,1.86467 -1.07504,2.16421c0.36343,0.29752 1.63976,-1.35976 1.93028,-0.94675z" fill="#a0aa1e"/><path d="M328.39348,114.11382c0.29053,0.41302 -3.23352,4.03301 -4.50675,5.50526c-1.43185,1.65466 -2.8642,3.32128 -4.34569,4.92706c-1.56624,1.69924 -4.30666,3.10813 -6.85761,2.85424c-0.73604,-0.0677 -3.66306,-1.06948 -5.91125,-2.62857c-3.22876,-2.23196 -5.83062,-5.93971 -5.83062,-5.93971l3.64199,-1.14182c1.05793,1.56786 2.40273,2.92124 3.96385,3.98898c2.58364,1.78629 6.15468,2.05803 7.02841,1.73346c1.49832,-0.5563 2.6699,-1.61608 3.72121,-2.79079c1.17456,-1.31394 2.23671,-2.73227 3.3775,-4.07796c0.8407,-0.99674 3.34443,-4.80171 3.73378,-4.48297c0.38936,0.31874 -1.23258,1.76626 -0.83809,2.13661c0.39438,0.36924 1.74218,-1.48614 1.97543,-1.2952c0.23324,0.19094 -1.44093,1.86467 -1.07441,2.16472c0.36343,0.29752 1.63173,-1.36633 1.92225,-0.95331z" fill="#828c00"/><path d="M367.54274,106.50414c-0.26039,1.95972 -0.63796,3.76398 -1.93585,5.3339l-0.93201,0.32718c-2.36849,-0.74705 -1.99971,-4.4183 -1.42867,-6.23325c1.47428,0.25727 2.86166,0.21951 4.29654,0.57215z" fill="#faf0e6"/><path d="M368.96346,105.81088l2.79796,0.28594c0.73626,7.70633 -5.65201,6.60458 -2.79796,-0.28594z" fill="#faf0e6"/><path d="M359.20357,103.7225l2.79876,0.28602c0.73626,7.70633 -5.65233,6.60776 -2.79876,-0.28602z" fill="#dcd2b4"/><path d="M355.16921,102.8517l2.80193,0.28634c0.73317,7.70522 -5.65509,6.60347 -2.80193,-0.28634z" fill="#faf0e6"/><path d="M351.21443,101.75898l2.80193,0.28635c0.72047,7.70391 -5.66461,6.60249 -2.80193,-0.28635z" fill="#faf0e6"/><path d="M373.14536,105.6066l2.80193,0.28634c0.73309,7.706 -5.65549,6.60744 -2.80193,-0.28634z" fill="#faf0e6"/><path d="M376.38575,91.1739c1.98875,0.62728 4.97349,1.04317 6.61621,2.32687c3.13172,2.43222 4.68308,6.97864 4.49613,10.85524c-0.08797,1.8098 -0.74916,3.84799 -2.51919,4.66509c-1.96249,0.90403 -4.67715,0.18733 -6.72089,0.03538c-5.27894,-0.42647 -10.55429,-0.89584 -15.81522,-1.50644l-38.04261,-6.81621c0,0 8.99832,-10.76419 15.24094,-13.3801c9.12546,-4.94744 24.86265,2.52232 36.74462,3.82019z" fill="#828c00"/><path d="M381.8727,104.7783c1.24151,0.12688 2.73503,1.20774 1.76666,2.6358c-0.85025,1.26057 -2.43314,0.34052 -2.79015,-0.81739c0.18889,-0.67969 0.5405,-1.30426 1.02349,-1.81841z" fill="#645a1e"/><path d="M377.02797,106.93483c-1.51757,0.78598 -2.4621,-1.26642 -1.65336,-2.411l0.93991,-0.56925c1.43109,0.12301 2.15283,2.24562 0.71345,2.98025z" fill="#645a1e"/><path d="M388.81879,101.91357c0.01644,-0.7164 0.4283,-1.36401 1.07187,-1.68066c0.70036,0.2311 0.97857,1.03192 0.8339,1.76958c-0.13097,0.66779 -0.64049,1.26783 -0.91173,1.63922c-0.62758,-0.34636 -1.0103,-1.01339 -0.99405,-1.72814z" fill="#000000"/><path d="M356.80135,97.70221c1.92539,1.05141 -0.29042,4.82808 -1.91463,2.12867c0.20611,-1.27007 0.79683,-1.91325 1.91463,-2.12867z" fill="#000000"/></g></g></g></svg>