<svg version="1.1" xmlns="http://www.w3.org/2000/svg" xmlns:xlink="http://www.w3.org/1999/xlink" width="103" height="169.96471" viewBox="0,0,103,169.96471"><defs><linearGradient x1="240.61946" y1="58.29923" x2="240.61946" y2="237.16743" gradientUnits="userSpaceOnUse" id="color-1"><stop offset="0" stop-color="#000000"/><stop offset="1" stop-color="#000000" stop-opacity="0"/></linearGradient></defs><g transform="translate(-188.00003,-36.11109)"><g data-paper-data="{&quot;isPaintingLayer&quot;:true}" fill-rule="nonzero" stroke-linecap="butt" stroke-linejoin="miter" stroke-miterlimit="10" stroke-dasharray="" stroke-dashoffset="0" style="mix-blend-mode: normal"><path d="M284.37023,179.70931c0.07585,1.88165 -6.82295,7.07192 -42.75929,7.07192c-35.93634,0 -45.96971,-4.43047 -45.98172,-7.45949c-0.01038,-2.6151 9.30175,-6.10294 45.23807,-6.10294c35.93634,0 43.43354,4.76932 43.50294,6.49051z" fill="url(#color-1)" stroke="none" stroke-width="0"/><text transform="translate(225.12808,201.22802) scale(0.28942,0.28942)" font-size="40" xml:space="preserve" fill="#ffffff" fill-rule="nonzero" stroke="#ffffff" stroke-width="0.5" stroke-linecap="butt" stroke-linejoin="miter" stroke-miterlimit="10" stroke-dasharray="" stroke-dashoffset="0" font-family="Handwriting" font-weight="normal" text-anchor="start" style="mix-blend-mode: normal"></text><text transform="translate(224.7523,47.62357) scale(0.30296,0.30296)" font-size="40" xml:space="preserve" fill="#ffffff" fill-rule="nonzero" stroke="#ffffff" stroke-width="1" stroke-linecap="butt" stroke-linejoin="miter" stroke-miterlimit="10" stroke-dasharray="" stroke-dashoffset="0" font-family="Handwriting" font-weight="normal" text-anchor="start" style="mix-blend-mode: normal"></text><text transform="translate(200.27145,59.97372) scale(0.23622,0.23622)" font-size="40" xml:space="preserve" fill="#ffffff" fill-rule="nonzero" stroke="#ffffff" stroke-width="1" stroke-linecap="butt" stroke-linejoin="miter" stroke-miterlimit="10" stroke-dasharray="" stroke-dashoffset="0" font-family="Handwriting" font-weight="normal" text-anchor="start" style="mix-blend-mode: normal"></text><g><path d="M289.75003,129.25c0,27.3381 -22.49769,49.5 -50.25,49.5c-27.75231,0 -50.25,-22.1619 -50.25,-49.5c0,-27.33809 22.49769,-49.5 50.25,-49.5c27.75231,0 50.25,22.16191 50.25,49.5z" fill="#b5ad94" stroke="#000000" stroke-width="2.5"/><path d="M258.01613,121.82414c0,11.73605 -11.73781,22.58334 -23.75,22.58334c-12.01219,0 -23.41666,-12.18062 -23.41666,-23.91667c0,-11.73605 8.07114,-21.91667 20.08334,-21.91667c12.01219,0 27.08333,11.51395 27.08333,23.25z" fill="#d1c59d" stroke="none" stroke-width="0"/><path d="M288.76613,131.65747c0,12.4264 -8.0736,27.83333 -20.5,27.83333c-12.4264,0 -23.83333,-14.74026 -23.83333,-27.16666c0,-12.42641 10.07359,-22.5 22.5,-22.5c12.4264,0 21.83333,9.40693 21.83333,21.83334z" fill="#d1c59d" stroke="none" stroke-width="0"/><path d="M238.76613,157.99082c0,5.98308 -8.48206,10.83334 -14.83333,10.83334c-6.35127,0 -11.5,-4.85025 -11.5,-10.83334c0,-5.98308 3.14873,-12.83333 9.5,-12.83333c6.35127,0 16.83333,6.85025 16.83333,12.83333z" fill="#d1c59d" stroke="none" stroke-width="0"/><path d="M208.09945,130.82414c0,3.86599 -1.20862,9 -5.16666,9c-3.95804,0 -9.16667,-5.13401 -9.16667,-9c0,-3.86599 3.20863,-7 7.16667,-7c3.95804,0 7.16666,3.13401 7.16666,7z" fill="#d1c59d" stroke="none" stroke-width="0"/><path d="M262.09945,99.82414c0,5.89104 -5.59154,7.66667 -11.66666,7.66667c-6.07513,0 -11,-4.77563 -11,-10.66667c0,-5.89104 4.92487,-10.66666 11,-10.66666c6.07513,0 11.66666,7.77563 11.66666,13.66666z" fill="#d1c59d" stroke="none" stroke-width="0"/><path d="M226.35106,108.99541c0,3.64272 -2.80138,8.11198 -6.4441,8.11198c-3.64272,0 -6.14084,-4.46926 -6.14084,-8.11198c0,-3.64272 1.28511,-6.74735 4.92783,-6.74735c3.64272,0 7.65711,3.10464 7.65711,6.74735zM220.13442,115.28787c2.51222,0 4.24552,-2.64305 4.24552,-5.15527c0,-2.51222 -2.3398,-5.3069 -4.85202,-5.3069c-2.51222,0 -4.24552,2.79469 -4.24552,5.30691c0,2.51222 2.3398,5.15527 4.85202,5.15527z" fill="#918766" stroke="none" stroke-width="0"/><path d="M277.35961,107.08998c0,3.30776 -3.54142,2.04695 -6.97478,2.04695c-3.43336,0 -6.21666,-0.5587 -6.21666,-3.86646c0,-3.30775 2.7833,-5.98922 6.21666,-5.98922c3.43336,0 6.97478,4.50097 6.97478,7.80873zM270.38482,107.92393c2.51222,0 4.54878,-0.5203 4.54878,-3.03252c0,-2.51222 -2.03656,-3.94227 -4.54878,-3.94227c-2.51222,0 -4.54877,0.82355 -4.54877,3.33577c0,2.51222 2.03655,3.63902 4.54877,3.63902z" fill="#918766" stroke="none" stroke-width="0"/><path d="M212.53103,149.91141c0,3.16121 -2.46284,6.62426 -5.65957,6.62426c-3.19673,0 -5.78818,-2.56266 -5.78818,-5.72387c0,-3.16121 2.59145,-5.72387 5.78818,-5.72387c3.19673,0 5.65957,1.66228 5.65957,4.82349zM206.87147,155.37804c2.13116,0 3.85879,-2.88528 3.85879,-5.01644c0,-2.13116 -1.85626,-3.73016 -3.98741,-3.73016c-2.13116,0 -4.11605,1.98489 -4.11605,4.11605c0,2.13116 2.11352,4.63055 4.24468,4.63055z" fill="#918766" stroke="none" stroke-width="0"/><path d="M245.41156,114.46508c-2.70336,0.94003 -7.19295,0.53418 -8.187,-2.32455c-0.99406,-2.85873 1.50689,-4.1818 4.21025,-5.12183c2.70336,-0.94003 4.58543,-1.14105 5.57949,1.71768c0.99406,2.85873 1.10063,4.78867 -1.60273,5.7287zM238.61399,111.78353c0.7921,1.80798 3.43865,2.8405 5.30303,2.19221c1.86438,-0.6483 2.85022,-2.68523 2.20192,-4.54962c-0.64829,-1.86438 -2.48959,-2.28759 -4.35397,-1.6393c-0.34556,0.12016 -4.37371,1.20583 -3.15098,3.99671z" fill="#918766" stroke="none" stroke-width="0"/><path d="M258.44095,161.1121c0,3.8102 -2.74935,6.89897 -6.14085,6.89897c-3.39149,0 -8.41523,-2.93714 -8.41523,-6.74734c0,-3.8102 5.02374,-7.0506 8.41523,-7.0506c3.39149,0 6.14085,3.08877 6.14085,6.89897zM254.06136,163.90427c1.09486,-0.83066 1.80197,-2.14581 1.80197,-3.62611c0,-2.20835 -1.57369,-4.04915 -3.66081,-4.46215c-0.28718,-0.05683 -0.5841,-0.08662 -0.88796,-0.08662c-2.31838,-0.50778 -4.85202,2.5701 -4.85202,4.54878c0,2.34884 1.77978,3.98812 3.80649,4.42804c0.3357,0.07896 0.68574,0.12073 1.04554,0.12073c0.08532,0 0.17009,-0.00235 0.25424,-0.00699c0.70238,-0.02973 1.39593,-0.21048 2.02014,-0.56161c0.17623,-0.09913 0.33238,-0.2185 0.47242,-0.35407z" fill="#918766" stroke="none" stroke-width="0"/><path d="M239.59868,91.89039c0,3.34963 -3.34223,4.39715 -7.27804,4.39715c-3.93581,0 -6.97478,-1.04753 -6.97478,-4.39715c0,-3.34963 3.03897,-7.73291 6.97478,-7.73291c3.93581,0 7.27804,4.38329 7.27804,7.73291zM231.56251,94.92291c2.51222,0 5.61016,-0.06542 5.61016,-2.57764c0,-2.51222 -2.64306,-6.51991 -5.15528,-6.51991c-2.51222,0 -4.85203,2.49143 -4.85203,5.00365c0,2.51222 1.88493,4.0939 4.39715,4.0939z" fill="#918766" stroke="none" stroke-width="0"/><path d="M285.53101,123.947c0,3.62145 -2.8214,7.58868 -6.48354,7.58868c-3.66214,0 -6.63088,-2.93576 -6.63088,-6.55721c0,-3.62145 2.96874,-6.55721 6.63088,-6.55721c3.66214,0 6.48354,1.90429 6.48354,5.52574zM279.04749,130.2095c2.44143,0 4.42059,-3.30534 4.42059,-5.74677c0,-2.44143 -2.12651,-4.27324 -4.56794,-4.27324c-2.44143,0 -4.7153,2.27387 -4.7153,4.7153c0,2.44143 2.42123,5.30471 4.86265,5.30471z" fill="#918766" stroke="none" stroke-width="0"/></g></g></g></svg>