<svg version="1.1" xmlns="http://www.w3.org/2000/svg" xmlns:xlink="http://www.w3.org/1999/xlink" width="112.01045" height="176.97312" viewBox="0,0,112.01045,176.97312"><defs><linearGradient x1="240.72707" y1="27.50078" x2="240.72707" y2="251.63474" gradientUnits="userSpaceOnUse" id="color-1"><stop offset="0" stop-color="#000000"/><stop offset="1" stop-color="#000000" stop-opacity="0"/></linearGradient></defs><g transform="translate(-184.29699,-42.80811)"><g data-paper-data="{&quot;isPaintingLayer&quot;:true}" fill-rule="nonzero" stroke-linecap="butt" stroke-linejoin="miter" stroke-miterlimit="10" stroke-dasharray="" stroke-dashoffset="0" style="mix-blend-mode: normal"><path d="M292.08303,179.63576c0.08904,2.35783 -8.00899,8.86158 -50.19209,8.86158c-42.1831,0 -53.96057,-5.5517 -53.97468,-9.34723c-0.01219,-3.27688 10.91867,-7.6474 53.10177,-7.6474c42.1831,0 50.98354,5.97629 51.065,8.13305z" fill="url(#color-1)" stroke="none" stroke-width="0"/><text transform="translate(224.088,211.95869) scale(0.46015,0.46015)" font-size="40" xml:space="preserve" fill="#000000" fill-rule="nonzero" stroke="#000000" stroke-width="1" stroke-linecap="butt" stroke-linejoin="miter" stroke-miterlimit="10" stroke-dasharray="" stroke-dashoffset="0" font-family="Handwriting" font-weight="normal" text-anchor="start" style="mix-blend-mode: normal"></text><text transform="translate(184.54634,61.75833) scale(0.49869,0.49869)" font-size="40" xml:space="preserve" fill="#000000" fill-rule="nonzero" stroke="#000000" stroke-width="1" stroke-linecap="butt" stroke-linejoin="miter" stroke-miterlimit="10" stroke-dasharray="" stroke-dashoffset="0" font-family="Handwriting" font-weight="normal" text-anchor="start" style="mix-blend-mode: normal"></text><g stroke="none" stroke-width="0"><path d="M193.7785,109.2711c8.91373,-20.24081 43.69738,-28.8692 61.36561,-29.77935c9.2247,-0.47518 19.59417,4.10363 22.8178,12.6381c3.08626,8.17076 7.24082,17.25891 9.67969,23.86956c3.85257,10.44249 -6.31733,41.59222 -17.19654,50.21375c-14.13988,11.20555 -42.47488,19.18516 -53.447,12.5135c-10.39431,-6.3203 -9.67439,-16.12278 -17.15455,-21.41826c-12.18205,-8.62412 -13.81856,-30.43097 -6.06501,-48.0373z" fill="#e8a55d"/><path d="M271.06849,97.26661c5.44454,13.9045 -19.09092,17.23708 -35.14731,14.35074c-16.97139,-3.0508 -30.58943,43.56531 -36.03396,29.66081c-5.44454,-13.9045 5.57213,-39.92933 21.62852,-46.21646c16.05639,-6.28714 44.10822,-11.69959 49.55276,2.20491z" fill="#ffd6ab"/><path d="M273.45087,147.63434c-0.82571,6.34613 -9.82069,-0.30403 -21.19084,-1.78343c-11.37014,-1.4794 -22.20697,-5.19977 -21.38126,-11.5459c0.82571,-6.34613 13.87698,-8.41898 25.24711,-6.93956c11.37014,1.4794 18.1507,13.92279 17.32497,20.26891z" fill="#ffd6ab"/></g></g></g></svg>