<svg version="1.1" xmlns="http://www.w3.org/2000/svg" xmlns:xlink="http://www.w3.org/1999/xlink" width="121.13449" height="177.47162" viewBox="0,0,121.13449,177.47162"><defs><linearGradient x1="242.91728" y1="89.81444" x2="242.91728" y2="221.62879" gradientUnits="userSpaceOnUse" id="color-1"><stop offset="0" stop-color="#000000"/><stop offset="1" stop-color="#000000" stop-opacity="0"/></linearGradient></defs><g transform="translate(-169.3248,-36.39186)"><g data-paper-data="{&quot;isPaintingLayer&quot;:true}" fill-rule="nonzero" stroke-linecap="butt" stroke-linejoin="miter" stroke-miterlimit="10" stroke-dasharray="" stroke-dashoffset="0" style="mix-blend-mode: normal"><path d="M275.33331,179.2858c0.0562,1.38665 -5.0553,5.21154 -31.6814,5.21154c-26.6261,0 -34.06007,-3.26498 -34.06899,-5.49716c-0.0077,-1.92715 6.8919,-4.49747 33.518,-4.49747c26.6261,0 32.18096,3.51469 32.23238,4.78309z" fill="url(#color-1)" stroke="none" stroke-width="0"/><text transform="translate(169.55488,53.87756) scale(0.46015,0.46015)" font-size="40" xml:space="preserve" fill="#000000" fill-rule="nonzero" stroke="#000000" stroke-width="1" stroke-linecap="butt" stroke-linejoin="miter" stroke-miterlimit="10" stroke-dasharray="" stroke-dashoffset="0" font-family="Handwriting" font-weight="normal" text-anchor="start" style="mix-blend-mode: normal"></text><text transform="translate(222.79465,206.04093) scale(0.46015,0.46015)" font-size="40" xml:space="preserve" fill="#000000" fill-rule="nonzero" stroke="#000000" stroke-width="1" stroke-linecap="butt" stroke-linejoin="miter" stroke-miterlimit="10" stroke-dasharray="" stroke-dashoffset="0" font-family="Handwriting" font-weight="normal" text-anchor="start" style="mix-blend-mode: normal"></text><g stroke="none" stroke-width="1"><path d="M237.05578,171.21415c0.85664,1.01341 0.55253,1.97798 0.99885,3.191c0.78297,2.07394 1.83407,3.23726 1.63791,5.4474c-1.42375,0.13106 -2.27867,0.5474 -3.63303,0.13106c-1.4957,-0.46429 -0.89005,-2.10649 -1.28239,-3.58763c-2.49284,1.67817 -3.84634,2.95799 -6.8386,3.58763c-1.2644,0.26727 -2.17331,0.8181 -3.34863,0.26727c1.40747,-2.27782 3.09934,-2.90916 4.63102,-5.11673c1.67389,-2.42602 1.88719,-4.08534 2.99226,-6.77777c1.83407,0.69731 3.61503,1.39461 4.8426,2.85776z" fill="#910063"/><path d="M255.77344,169.94718c3.77951,3.52595 6.00423,5.402 10.61896,7.97707c-0.98001,1.67817 -3.15159,1.04767 -5.20069,0.86521c-2.52967,-0.23215 -3.59876,-1.44602 -6.05561,-2.12704c0.10623,1.39547 1.40747,2.2761 0.71187,3.52252c-0.40691,0.74699 -1.4246,0.71444 -2.27954,0.46516c-0.6579,-0.18419 -0.49857,-0.91318 -0.71103,-1.52911c-0.57052,-1.62848 -0.78469,-2.52881 -1.3535,-4.11961c-0.3932,-1.12991 -0.99885,-1.97714 -0.42833,-3.05736c3.02224,-0.26813 3.78723,-0.8832 4.69784,-1.99685z" fill="#910063"/><path d="M245.46374,95.2512c0.80182,-1.97798 0.0531,-3.29036 0.2133,-5.38316c0.07196,-1.06309 -0.87206,-2.17673 -1.99342,-1.99342c-1.08793,0.16619 -1.80067,1.36206 -2.707,0.79754c-0.92688,-0.56539 -1.56767,-1.34579 -2.63504,-1.06309c-1.17447,0.31525 -1.48028,1.4957 -2.70614,1.52826c-1.06909,0.03341 -1.35435,-1.3792 -2.4226,-1.2627c-1.10422,0.11565 -1.4957,1.06309 -2.59992,1.06309v5.11673c-2.06709,0 -3.82919,1.44602 -5.30777,0.06682c-1.0511,-0.98001 -0.87292,-2.01054 -1.56767,-3.19015c-0.49942,-0.83009 -1.37149,-0.81381 -2.27954,-1.2627c-1.90518,-0.94659 -0.35637,-3.15674 -0.35637,-5.18355c0,-0.83094 -0.85493,-1.11278 -0.99713,-1.92745c-0.23129,-1.36206 0.23215,-2.24269 0.99713,-3.45571c1.19331,-1.87777 -0.76585,-3.68871 0.42833,-5.58274c0.71272,-1.12991 1.88719,-1.06394 2.99139,-1.86064c1.15818,-0.83094 1.39034,-1.71157 2.28039,-2.79094c0.96202,-1.16247 2.06622,-1.4957 3.63303,-1.59507c1.62077,-0.09938 2.22642,-1.41176 3.84719,-1.52826c1.67389,-0.1165 2.707,0.7804 4.27209,0.26555c1.2113,-0.39835 2.01484,-0.88063 3.27752,-0.59793c1.28154,0.29897 1.90774,1.31238 3.20556,1.06309c2.22557,-0.43175 4.32691,0.14991 5.41227,1.99427c1.12306,1.89404 3.77609,1.74413 4.27466,3.85405c0.21416,0.94744 -0.19617,1.89404 0.64076,2.45943c1.08708,0.73071 2.49284,0.99628 2.49284,2.25897c0,2.39261 -2.08593,3.52252 -1.85206,5.91512c0.14392,1.51197 0.99885,2.2761 0.99885,3.78809c0,1.14618 -0.81981,1.7784 -1.85206,2.39174c-2.13818,1.27982 -1.92317,3.52252 -4.13245,4.65244c-1.95828,1.01256 -3.41801,0.79668 -5.5562,1.46229z" fill="#663c2b"/><path d="M234.06523,87.87465c1.19246,0.31525 1.34751,1.92488 3.06251,0.86351c0.8241,-0.5097 1.40661,-1.06309 2.35234,-0.86351c0.89005,0.19961 1.15476,0.99713 2.06451,0.99713c0.90633,0 1.22842,-0.86351 2.13818,-0.86351c0.92518,0 1.8315,0.06597 2.20672,0.86351c0.71187,1.54453 -0.14306,2.64188 -0.14306,4.31919c0,2.62476 0.21416,4.30292 -0.85236,6.71181c-0.90718,2.75753 -2.5468,4.88458 -5.62815,5.18355c-2.70614,0.26555 -4.84432,-0.54911 -6.34003,-2.65903c-1.76298,-2.4757 -1.97628,-4.4023 -2.20843,-7.37656c-0.1602,-2.22642 -0.46344,-3.48912 -0.07109,-5.71554c1.45972,0.10023 2.03025,-1.82637 3.41888,-1.46058z" fill="#b7854d"/><path d="M242.32927,102.89419c0,3.1396 1.22929,4.95141 0.49857,8.04132c-0.48058,2.06023 -1.39034,4.18728 -3.63218,4.18728c-2.88604,0 -4.61303,-2.21015 -5.27264,-4.85118c-0.62279,-2.49284 0.71272,-4.36975 0.49857,-6.91226c2.58278,1.59335 4.82719,-0.46601 7.90769,-0.46516z" fill="#b7854d"/><path d="M231.07297,112.7259c0,1.32952 0.69473,2.49284 -0.35637,3.38974c-3.48997,2.99055 -5.66241,4.45283 -8.19209,8.24006c-1.12219,1.69616 -1.51369,2.74555 -2.27954,4.58648c-0.71272,1.74413 -2.36947,3.34263 -0.998,4.72097c1.33551,1.34407 2.40461,2.45943 2.06622,4.25325c-0.1602,0.9286 -1.79896,1.42718 -2.49369,0.73157c-0.57052,-0.58251 -0.65962,-1.09565 -0.92603,-1.86235c-1.17617,2.19558 -1.35435,4.08962 -3.70499,5.18441c-1.78097,0.83265 -4.48797,-1.14533 -3.98939,-2.92202c0.69473,-2.42602 2.35148,-3.42315 4.48797,-4.91885c0.78469,-0.54911 0.49942,-1.39547 0.57052,-2.32408c0.10708,-1.28325 0.44545,-1.99685 0.92603,-3.19271c1.78097,-4.47083 2.83207,-6.91054 4.91543,-11.29743c1.69188,-3.57306 2.83207,-5.89885 6.34088,-7.97536c1.46058,-0.86436 2.17331,-1.87777 3.9183,-1.99427c0,1.99427 -0.28526,3.38974 -0.28526,5.38059z" fill="#b7854d"/><path d="M245.32154,108.01092c0.78297,0.73071 1.58394,0.73071 2.42173,1.39547c2.22557,1.79467 3.45484,2.92458 5.05763,5.25038c2.08165,3.00682 1.709,5.2992 2.63418,8.77118c0.96372,3.58677 0.53541,5.69927 0.99885,9.36998c0.17732,1.44345 1.58394,1.71072 2.4226,2.92373c1.22929,1.79209 1.81695,3.95426 0.21245,5.44997c-1.06909,0.99542 -3.09848,0.23472 -3.70413,-1.06394c-0.69388,-1.51454 -0.37264,-3.55764 -2.13561,-3.72212c-0.83694,-0.06682 -1.0511,0.77869 -1.85292,0.998c-0.78383,0.21416 -1.78097,0.06682 -1.99513,-0.66475c-0.51656,-1.67902 1.15648,-2.81065 2.77896,-3.72298c1.44345,-0.81381 0.49857,-2.47313 0.35551,-4.05364c-0.17732,-1.9917 -0.5157,-3.10705 -1.2113,-4.98139c-1.3535,-3.60562 -2.49197,-6.04706 -6.33918,-7.84173z" fill="#b7854d"/><path d="M248.59819,172.67559c-2.4226,0.15076 -3.77523,0.34609 -6.19782,0.06425c-2.97085,-0.33323 -4.45199,-1.38177 -7.05018,-2.72584c-2.72499,-1.41518 -4.8092,-1.9266 -6.26893,-4.65414c-0.87292,-3.28951 -2.33264,-14.83538 -2.85006,-18.20882c-0.53456,-3.58763 -1.74583,-5.63158 -1.14018,-9.17209c0.51656,-3.07363 1.78182,-4.61903 3.56278,-7.24292c3.18757,-4.68499 4.02537,-8.4902 3.06336,-13.95645c-0.42746,-2.4757 -0.60565,-3.92087 -0.49857,-6.44625c0.0531,-1.4957 0.06425,-2.9837 1.18646,-4.03052c0.5157,-0.48228 0.77183,0.01027 1.37748,-0.35551c-0.52769,4.12217 0.23129,8.98878 4.4871,9.30402c1.81523,0.13278 3.00854,-1.07937 3.70413,-2.65817c1.01599,-2.3258 0.48058,-3.87117 0.71272,-6.38029c0.729,0 1.12049,0.31611 1.85206,0.3992c1.88632,5.10646 0.80182,7.21123 0.07024,11.8294c-0.3358,2.193 -1.2627,3.24069 -1.78012,5.38401c-0.69559,2.87489 -0.33923,4.78435 0.85493,7.51106c1.22757,2.80637 2.1716,4.25067 3.63218,6.97822c2.2624,4.23867 1.94201,7.14356 2.35234,11.8294c0.15933,1.84606 3.06851,16.86733 5.64271,20.68453c-1.99598,1.67902 -4.02281,1.68074 -6.71266,1.84692z" fill="#910063"/><path d="M230.89564,98.29229c-5.2341,0.16962 -4.69698,-5.62558 -0.08567,-4.39374c0.18846,1.66532 0.45574,2.94172 0.08567,4.39374z" fill="#272525"/><path d="M230.10924,97.14354c-0.83265,0.20131 -1.80495,-0.12934 -1.715,-1.74583c0.04369,-0.78812 0.74871,-0.75985 1.35693,-0.77697c0.44632,0.37178 0.43346,1.82637 0.35809,2.52282z" fill="#b7854d"/><path d="M245.56482,93.89857c4.61218,-1.23186 5.151,4.56334 -0.08481,4.39374c-0.36921,-1.45201 -0.10194,-2.72841 0.08481,-4.39374z" fill="#272525"/><path d="M246.62535,94.62072c0.60736,0.01714 1.31238,-0.01114 1.35606,0.77697c0.08995,1.61649 -0.88235,1.94715 -1.715,1.74583c-0.07539,-0.69645 -0.08823,-2.15103 0.35894,-2.52282z" fill="#b7854d"/><path d="M253.5496,92.28807c-0.01799,1.79124 -4.03308,3.26724 -4.53936,2.2033c-0.51912,-1.09223 0.97743,-0.63563 1.43659,-1.03654c2.87233,-0.85407 0.22273,-3.90459 3.0111,-5.01308c1.15133,-0.45745 2.04138,-1.58651 2.13134,-2.7661c0.08995,-1.17617 -0.62449,-2.39174 -0.58423,-3.51567c0.01884,-0.58766 1.85721,-3.05908 1.60792,-4.72097c-0.24928,-1.6619 -1.74841,-1.65503 -2.05252,-2.46628c-0.27585,-0.73757 0.18332,-1.476 -0.33495,-2.71728c-0.51826,-1.24128 -1.94544,-0.84294 -3.34092,-1.64476c-0.75728,-0.43433 -1.14705,-2.74126 -2.49969,-3.34006c-1.3535,-0.59793 -3.10192,1.06909 -5.21611,0.13621c-0.5414,-0.23815 -0.65875,-0.6005 -1.05967,-0.91661c-1.57966,-1.24041 -4.01853,1.24813 -5.88258,0.73414c-0.91833,-0.25186 -1.43659,-0.86693 -2.45514,-0.34437c-0.89519,0.45916 -1.66789,0.99113 -2.49712,1.36463c-0.82753,0.37178 -1.93516,0.13364 -3.01026,0.48143c-1.07509,0.34779 -1.63961,2.27182 -2.52367,3.4043c-0.49428,0.63221 -2.45943,0.92603 -3.43,2.18701c-0.96971,1.26012 0.40262,2.58878 0.07109,4.25325c-0.1482,0.74529 -1.42888,1.15305 -1.64219,2.2821c-0.21416,1.12991 1.00569,2.18959 1.52741,3.48997c0.28098,0.69903 -0.17562,1.92916 -0.66818,2.73441c-1.68245,2.74898 4.30635,1.69958 4.06648,4.69355c-0.06852,0.86007 1.09993,2.14675 1.78268,2.67102c2.11591,-0.26128 -1.42118,1.68417 -3.44886,0.22273c-1.81438,-1.30466 -0.04198,-4.16758 -2.39946,-4.39715c-1.57794,-0.15333 -2.07993,-0.63648 -2.37205,-1.08965c-1.63705,-2.53995 3.00339,-3.5782 0.09251,-6.52506c-1.88376,-1.90689 1.54967,-3.5328 0.78727,-5.27178c-0.64163,-1.46401 -0.63734,-2.64617 0.23129,-4.06221c1.49912,-2.44144 4.29436,-0.92775 5.41999,-4.66614c0.53541,-1.77925 3.38374,-2.11419 5.0028,-2.07479c0.88063,-1.15648 1.42288,-1.52483 2.82692,-1.79381c0.91833,-0.17562 3.46941,0.32125 3.89773,0.25871c0.42833,-0.06254 2.10135,-1.03398 3.41972,-0.99628c1.31837,0.03683 2.43115,1.51711 3.33577,1.6242c0.90462,0.10708 1.65247,-1.36035 3.42743,-1.03654c3.44456,0.62877 1.44259,3.93799 5.88171,4.45027c2.62304,0.30325 1.05453,4.06221 3.89088,6.00679c0.95344,0.65362 1.2961,2.00541 1.11278,3.02481c-0.27241,1.51454 -2.32408,3.61247 -1.66789,5.05592c2.49712,5.49709 -3.30066,5.6984 -3.33664,9.11641z" fill="#272525"/><path d="M241.75618,88.06653c1.07252,-0.0591 2.10992,-1.482 2.85263,-1.45458c0.74357,0.02742 0.85493,1.39547 1.4957,1.52826c0.64163,0.13278 0.97915,-0.80782 0.97915,-0.80782c0.41034,-0.68704 0.99028,1.20958 0.55511,1.85721c-1.40232,2.09963 -2.39346,-0.38549 -3.56536,-0.51741c-1.17275,-0.13278 -1.52226,1.31923 -2.52795,1.39547c-1.00399,0.07709 -2.15275,-1.29696 -2.84749,-1.39547c-1.12477,-0.15933 -1.87433,1.26012 -2.9203,1.19588c-1.04595,-0.06425 -1.15905,-1.09308 -2.2761,-1.20615c-1.11707,-0.11222 -2.5528,3.07193 -4.43741,0.13964c0.20645,-1.06566 1.33722,-0.10793 2.0388,-0.51826c1.03398,-0.6048 1.63276,-1.75783 2.7524,-1.72357c1.12049,0.03426 0.89091,2.16132 1.9917,2.11335c1.06652,-0.04626 1.49312,-2.49027 2.70442,-2.50739c1.21301,-0.0197 2.1339,1.95914 3.20471,1.90089z" fill="#272525"/><path d="M230.14693,98.77373c-0.71272,-2.82435 -0.27927,-8.04903 0.28784,-9.38026c1.20787,0.34179 0.56367,2.48342 0.69559,3.71526c0.28869,2.70014 0.33067,5.85944 2.08508,8.21008c1.09223,1.46401 2.80893,3.66816 6.0856,2.8038c6.90627,-1.82038 5.66328,-11.3651 5.72666,-14.29825c0.01456,-0.63906 1.63361,-0.73414 1.67559,-0.27498c0.6502,7.09644 -0.80439,12.97817 -5.38144,15.31251c-5.19982,2.65132 -9.96021,-1.27555 -11.17493,-6.08817z" fill="#272525"/><path d="M235.5258,94.55304c-0.23215,-0.33323 0.51656,-1.14276 0.8378,-0.81295c1.42546,1.46229 2.79609,1.2113 3.81292,-0.0197c0.34437,-0.41547 1.30724,0.32552 0.80011,0.86607c-1.49484,1.5925 -4.20355,1.76041 -5.45083,-0.03341z" fill="#272525"/><path d="M240.20908,97.51618c3.62189,2.95713 -1.01769,8.02333 -4.3072,5.09961c-2.57079,-2.28639 0.97143,-7.82373 4.3072,-5.09961z" fill="#272525"/><path d="M240.06174,99.97474c0.81381,1.9206 -2.94086,3.03509 -3.3709,1.08536c-0.52169,-2.37462 1.97798,-4.36203 3.3709,-1.08536z" fill="#7b6ec9"/><path d="M242.34127,105.38016c0.73586,-0.18162 1.66018,-0.09508 2.22299,0.30239c1.28069,0.90633 1.48028,4.00224 1.75955,5.40115c1.31837,6.58931 -5.60759,14.13719 -1.75955,19.79105c0.6108,0.89691 1.47171,1.6953 2.09535,2.61705c3.02995,4.45883 3.46855,8.43452 3.69385,13.54526c0.21073,4.76466 1.44602,10.55557 2.77896,15.16603c0.67761,2.34292 2.99226,6.51735 3.56621,7.99421c0.55682,1.43146 -1.73299,1.5411 -2.40289,1.73727l0.59708,-0.61592c-2.5014,-4.4023 -4.10077,-8.95449 -5.32918,-13.78513c-1.51711,-5.95795 -0.68274,-12.28941 -1.99085,-17.41386c-0.97315,-3.79922 -4.94883,-6.5362 -5.79092,-10.36883c-1.82465,-8.33087 5.27436,-12.81539 2.53995,-22.77046l-0.74614,-0.19961c0.16105,5.69583 -0.46516,9.6698 -5.45083,9.53703c-4.98652,-0.13278 -5.17585,-4.11361 -4.70127,-9.90196c-0.02399,-0.29469 -0.65962,0.00343 -1.03311,-0.06682c-1.63791,5.64957 -0.00085,9.47363 0.96372,12.68605c2.22985,7.42882 -5.92112,14.12607 -6.6707,21.47779c-0.53797,5.28893 1.28411,10.29344 2.08508,15.46842c0.69132,4.47168 0.30325,9.34257 4.77066,12.2286c3.12504,2.01825 6.88913,2.72413 10.56157,3.32806c2.67616,0.44032 9.08901,-0.15076 10.79458,-0.21588c0.27413,-0.01284 -0.71615,0.87548 -0.78812,1.0374c-3.69385,1.80495 -8.29231,1.79553 -12.32112,1.25328c-5.82004,-0.78469 -11.56641,-4.39202 -13.80483,-7.99593c-0.98171,-7.42711 -5.44398,-22.36612 -3.51995,-28.8218c1.74926,-5.86544 7.95223,-10.61896 6.76321,-17.11233c-0.85836,-4.68328 -1.78182,-9.84627 0.87978,-14.21601l2.36178,-0.30325c-0.14049,1.80323 -0.53284,3.12076 -0.04455,5.17243c0.90633,3.79665 5.21268,5.22811 7.36457,1.65503c1.17532,-1.95401 0.56796,-4.48539 0.55511,-6.61073z" fill="#272525"/><path d="M231.62892,108.18568c-2.47913,1.1539 -3.40945,1.98227 -4.91115,3.31778c-4.92314,4.37403 -7.50592,10.36711 -9.63383,16.25741c-0.78897,2.18531 -0.64763,4.4083 -1.01855,6.65613c-1.3081,1.12306 -6.35459,3.84806 -5.32662,6.00679c0.35722,0.75128 1.84094,0.82837 2.54766,0.6048c2.2701,-0.71872 3.85661,-3.56536 4.44684,-5.57418c1.13763,0.50199 1.49484,1.80238 1.89919,2.80637c1.3852,0.8241 1.25755,-1.58736 0.78727,-2.29066c-0.66047,-0.9877 -2.53653,-1.01769 -2.45514,-2.37462c0.40947,-6.7495 6.20554,-13.98301 11.58013,-18.15057c0.30239,-0.1028 0.65618,-0.33923 0.97229,-0.12934c0.18846,0.44717 0.70331,1.20273 0.37093,1.68502c-0.74186,1.07509 -2.4954,2.27354 -3.47027,3.27839c-3.71185,3.81892 -6.89513,8.33257 -7.87771,13.48872c5.7438,2.77039 0.96287,8.61785 -1.66789,4.14959c-2.33436,8.72064 -12.30141,6.32718 -8.80116,0.21416c1.25671,-2.19472 3.88146,-3.07193 5.69669,-4.75352c0.43775,-8.73007 4.69955,-18.44697 11.85938,-24.28502c1.12219,-0.91576 3.18072,-2.0491 4.67728,-2.16045c0,-0.00085 0.85579,1.00656 0.32467,1.25328z" fill="#272525"/><path d="M257.19548,132.85618c2.0371,1.55052 4.38002,4.31064 3.65872,6.95767c-0.21758,0.80011 -1.85549,4.54964 -5.09447,2.1596c-1.46401,-1.08024 -0.90034,-5.48681 -2.67274,-4.98652c-0.53112,0.15076 -1.23529,1.14448 -1.68245,1.35693c-0.60222,0.28954 -1.97628,0.0531 -2.45514,-0.38805c-3.16102,-2.93145 2.87832,-4.94798 2.78066,-6.74007c-0.18504,-3.31178 -2.56052,-11.33426 -5.41057,-13.4339c-1.95315,-1.44002 -1.95828,-3.1336 -0.56452,-2.77039c6.09588,4.43827 7.69181,11.27429 7.54961,18.14973c-0.93803,0.34095 -4.70042,2.55709 -2.91687,3.75982c1.35693,0.91318 2.92115,-2.98283 3.88574,-1.44345c0.36064,0.57823 1.48028,5.70182 3.47113,5.22296c0.76756,-0.18419 1.82722,-0.7864 1.44602,-2.44058c-0.36578,-1.56509 -2.70185,-4.07763 -3.80093,-5.18613c0.29126,-0.61592 0.43003,-1.53253 0.46173,-2.2033c0.16105,-3.39231 -1.33208,-11.01901 -2.87062,-14.08666c-1.70729,-3.40002 -3.92515,-5.70354 -7.13414,-7.86399c-0.54825,-0.36836 -0.86436,-1.05453 -0.64848,-1.68502c0.16704,-0.48828 0.72558,-0.34865 1.11107,-0.21588c3.02653,1.04168 6.57902,6.07789 7.96764,8.72835c2.42602,4.62845 3.64673,12.02986 2.91858,17.1089z" fill="#272525"/><path d="M233.1392,169.2867c-0.3281,3.49169 -4.64729,8.08244 -7.15041,10.33199c3.01968,-0.17047 6.42141,-1.19331 8.10643,-3.71612c0.42746,-0.63991 0.55253,-1.41004 0.92603,-2.0765c0.9286,0.03683 1.49655,4.57448 1.55309,5.12188c0.55083,0.08908 1.10592,0.21158 1.66702,0.21673c-0.05397,-1.09736 -1.46744,-6.03934 -1.70044,-7.09901l0.23215,-0.51741c1.86064,-0.34609 3.60904,7.51791 3.69214,8.87141c-1.12649,0.54568 -4.16843,0.73157 -5.2341,0c0.02399,-0.38977 -0.59194,-2.59478 -0.67332,-2.96141c-3.00939,3.32464 -8.02161,4.35348 -12.45904,3.50024c5.00623,-2.34207 8.54673,-11.02587 9.04873,-11.76087c0.43775,-0.63648 1.51026,-0.36836 1.9917,0.08908z" fill="#272525"/><path d="M256.57955,170.41662c2.34379,3.22869 12.22517,7.71751 11.76515,9.11812c-3.90459,1.3021 -8.30346,0.44802 -11.90393,-1.25156c0.15676,1.03911 0.59536,2.02339 0.92518,3.02224c-1.46401,0.51656 -3.08735,0.76585 -4.58648,0.21588c-1.0948,-1.74755 -2.68558,-7.15041 -1.52654,-8.94165c0.79324,-0.04626 1.26098,5.44653 2.55022,6.95424l1.20273,-0.30325c-0.41376,-1.57194 -1.43573,-2.95971 -1.66789,-4.58048c1.27982,-0.10194 4.65329,4.65672 11.44049,3.54307c-2.70442,-1.30381 -7.77405,-4.12217 -8.19894,-7.77662z" fill="#272525"/><path d="M241.65082,120.70725c0.60736,0.16363 0.10879,1.19331 -0.85321,1.29354c-0.96202,0.09938 -4.74325,0.01799 -5.55363,-0.06682c-0.81295,-0.08481 -1.42031,-1.16417 -0.74614,-1.27982c0.67417,-0.11565 6.54561,-0.10965 7.15298,0.0531z" fill="#272525"/><path d="M235.86332,92.00795c0.17904,0.27927 -0.45829,0.92346 -0.71272,0.6442c-1.12391,-1.237 -2.25555,-1.06824 -3.12676,-0.08567c-0.29469,0.33238 -1.06224,-0.30239 -0.62964,-0.73157c1.27555,-1.26612 3.50111,-1.33123 4.46912,0.17304z" fill="#272525"/><path d="M244.98143,92.00795c0.17904,0.27927 -0.4566,0.92346 -0.71103,0.6442c-1.12306,-1.237 -2.25555,-1.06824 -3.12676,-0.08567c-0.29469,0.33238 -1.06224,-0.30239 -0.62877,-0.73157c1.27298,-1.26612 3.49939,-1.33123 4.46655,0.17304z" fill="#272525"/></g></g></g></svg>