<svg version="1.1" xmlns="http://www.w3.org/2000/svg" xmlns:xlink="http://www.w3.org/1999/xlink" width="132.31756" height="163.74161" viewBox="0,0,132.31756,163.74161"><defs><linearGradient x1="240.61954" y1="58.2993" x2="240.61954" y2="237.16754" gradientUnits="userSpaceOnUse" id="color-1"><stop offset="0" stop-color="#000000"/><stop offset="1" stop-color="#000000" stop-opacity="0"/></linearGradient><radialGradient cx="254.08334" cy="103.28379" r="36" gradientUnits="userSpaceOnUse" id="color-2"><stop offset="0" stop-color="#7d7d7d"/><stop offset="1" stop-color="#7d7d7d" stop-opacity="0"/></radialGradient><radialGradient cx="224.91667" cy="142.00148" r="39.16667" gradientUnits="userSpaceOnUse" id="color-3"><stop offset="0" stop-color="#828282"/><stop offset="1" stop-color="#828282" stop-opacity="0"/></radialGradient><radialGradient cx="227.25" cy="117.83998" r="16.5" gradientUnits="userSpaceOnUse" id="color-4"><stop offset="0" stop-color="#808080"/><stop offset="1" stop-color="#808080" stop-opacity="0"/></radialGradient><radialGradient cx="254.27183" cy="104.78967" r="2.49492" gradientUnits="userSpaceOnUse" id="color-5"><stop offset="0" stop-color="#ffffff"/><stop offset="1" stop-color="#ffffff" stop-opacity="0"/></radialGradient><radialGradient cx="269.02798" cy="107.81549" r="1.70108" gradientUnits="userSpaceOnUse" id="color-6"><stop offset="0" stop-color="#ffffff"/><stop offset="1" stop-color="#ffffff" stop-opacity="0"/></radialGradient><radialGradient cx="265.20987" cy="96.59255" r="3.06196" gradientUnits="userSpaceOnUse" id="color-7"><stop offset="0" stop-color="#ffffff"/><stop offset="1" stop-color="#ffffff" stop-opacity="0"/></radialGradient><radialGradient cx="256.29901" cy="116.7673" r="1.70109" gradientUnits="userSpaceOnUse" id="color-8"><stop offset="0" stop-color="#ffffff"/><stop offset="1" stop-color="#ffffff" stop-opacity="0"/></radialGradient><radialGradient cx="244.46386" cy="94.51733" r="1.81449" gradientUnits="userSpaceOnUse" id="color-9"><stop offset="0" stop-color="#ffffff"/><stop offset="1" stop-color="#ffffff" stop-opacity="0"/></radialGradient><radialGradient cx="245.36784" cy="115.71615" r="2.60833" gradientUnits="userSpaceOnUse" id="color-10"><stop offset="0" stop-color="#ffffff"/><stop offset="1" stop-color="#ffffff" stop-opacity="0"/></radialGradient><radialGradient cx="256.49175" cy="96.38149" r="2.83514" gradientUnits="userSpaceOnUse" id="color-11"><stop offset="0" stop-color="#ffffff"/><stop offset="1" stop-color="#ffffff" stop-opacity="0"/></radialGradient><radialGradient cx="252.5327" cy="89.76463" r="2.49493" gradientUnits="userSpaceOnUse" id="color-12"><stop offset="0" stop-color="#efddc0"/><stop offset="1" stop-color="#efddc0" stop-opacity="0"/></radialGradient><radialGradient cx="251.00371" cy="109.31004" r="1.36087" gradientUnits="userSpaceOnUse" id="color-13"><stop offset="0" stop-color="#efddc0"/><stop offset="1" stop-color="#efddc0" stop-opacity="0"/></radialGradient><radialGradient cx="235.32619" cy="100.19293" r="3.40217" gradientUnits="userSpaceOnUse" id="color-14"><stop offset="0" stop-color="#efddc0"/><stop offset="1" stop-color="#efddc0" stop-opacity="0"/></radialGradient><radialGradient cx="234.13742" cy="108.75707" r="2.60833" gradientUnits="userSpaceOnUse" id="color-15"><stop offset="0" stop-color="#efddc0"/><stop offset="1" stop-color="#efddc0" stop-opacity="0"/></radialGradient><radialGradient cx="263.52617" cy="113.35672" r="2.49492" gradientUnits="userSpaceOnUse" id="color-16"><stop offset="0" stop-color="#efddc0"/><stop offset="1" stop-color="#efddc0" stop-opacity="0"/></radialGradient><radialGradient cx="213.76492" cy="140.66136" r="2.49492" gradientUnits="userSpaceOnUse" id="color-17"><stop offset="0" stop-color="#ffffff"/><stop offset="1" stop-color="#ffffff" stop-opacity="0"/></radialGradient><radialGradient cx="216.00877" cy="152.58099" r="1.70108" gradientUnits="userSpaceOnUse" id="color-18"><stop offset="0" stop-color="#ffffff"/><stop offset="1" stop-color="#ffffff" stop-opacity="0"/></radialGradient><radialGradient cx="226.49355" cy="137.80052" r="3.06195" gradientUnits="userSpaceOnUse" id="color-19"><stop offset="0" stop-color="#ffffff"/><stop offset="1" stop-color="#ffffff" stop-opacity="0"/></radialGradient><radialGradient cx="238.07108" cy="130.70093" r="1.70108" gradientUnits="userSpaceOnUse" id="color-20"><stop offset="0" stop-color="#ffffff"/><stop offset="1" stop-color="#ffffff" stop-opacity="0"/></radialGradient><radialGradient cx="239.90622" cy="135.13238" r="1.81449" gradientUnits="userSpaceOnUse" id="color-21"><stop offset="0" stop-color="#ffffff"/><stop offset="1" stop-color="#ffffff" stop-opacity="0"/></radialGradient><radialGradient cx="233.6689" cy="147.4374" r="2.60833" gradientUnits="userSpaceOnUse" id="color-22"><stop offset="0" stop-color="#ffffff"/><stop offset="1" stop-color="#ffffff" stop-opacity="0"/></radialGradient><radialGradient cx="224.545" cy="125.73105" r="2.83514" gradientUnits="userSpaceOnUse" id="color-23"><stop offset="0" stop-color="#ffffff"/><stop offset="1" stop-color="#ffffff" stop-opacity="0"/></radialGradient><radialGradient cx="220.50405" cy="131.26905" r="2.49493" gradientUnits="userSpaceOnUse" id="color-24"><stop offset="0" stop-color="#efddc0"/><stop offset="1" stop-color="#efddc0" stop-opacity="0"/></radialGradient><radialGradient cx="225.36637" cy="141.03128" r="1.36087" gradientUnits="userSpaceOnUse" id="color-25"><stop offset="0" stop-color="#efddc0"/><stop offset="1" stop-color="#efddc0" stop-opacity="0"/></radialGradient><radialGradient cx="248.71056" cy="136.06461" r="3.40217" gradientUnits="userSpaceOnUse" id="color-26"><stop offset="0" stop-color="#efddc0"/><stop offset="1" stop-color="#efddc0" stop-opacity="0"/></radialGradient><radialGradient cx="239.566" cy="150.2615" r="2.60833" gradientUnits="userSpaceOnUse" id="color-27"><stop offset="0" stop-color="#efddc0"/><stop offset="1" stop-color="#efddc0" stop-opacity="0"/></radialGradient><radialGradient cx="226.17724" cy="157.82575" r="2.49492" gradientUnits="userSpaceOnUse" id="color-28"><stop offset="0" stop-color="#efddc0"/><stop offset="1" stop-color="#efddc0" stop-opacity="0"/></radialGradient><radialGradient cx="269.15161" cy="120.9768" r="2.49493" gradientUnits="userSpaceOnUse" id="color-29"><stop offset="0" stop-color="#ffffff"/><stop offset="1" stop-color="#ffffff" stop-opacity="0"/></radialGradient><radialGradient cx="264.9394" cy="87.35864" r="1.70108" gradientUnits="userSpaceOnUse" id="color-30"><stop offset="0" stop-color="#ffffff"/><stop offset="1" stop-color="#ffffff" stop-opacity="0"/></radialGradient><radialGradient cx="204.9133" cy="138.71901" r="3.06195" gradientUnits="userSpaceOnUse" id="color-31"><stop offset="0" stop-color="#ffffff"/><stop offset="1" stop-color="#ffffff" stop-opacity="0"/></radialGradient><radialGradient cx="217.45076" cy="118.11229" r="1.70108" gradientUnits="userSpaceOnUse" id="color-32"><stop offset="0" stop-color="#ffffff"/><stop offset="1" stop-color="#ffffff" stop-opacity="0"/></radialGradient><radialGradient cx="219.459" cy="124.0343" r="1.81449" gradientUnits="userSpaceOnUse" id="color-33"><stop offset="0" stop-color="#ffffff"/><stop offset="1" stop-color="#ffffff" stop-opacity="0"/></radialGradient><radialGradient cx="239.79654" cy="158.82753" r="2.60833" gradientUnits="userSpaceOnUse" id="color-34"><stop offset="0" stop-color="#ffffff"/><stop offset="1" stop-color="#ffffff" stop-opacity="0"/></radialGradient><radialGradient cx="247.88958" cy="126.67426" r="2.83514" gradientUnits="userSpaceOnUse" id="color-35"><stop offset="0" stop-color="#ffffff"/><stop offset="1" stop-color="#ffffff" stop-opacity="0"/></radialGradient><radialGradient cx="225.96346" cy="126.09966" r="2.49493" gradientUnits="userSpaceOnUse" id="color-36"><stop offset="0" stop-color="#efddc0"/><stop offset="1" stop-color="#efddc0" stop-opacity="0"/></radialGradient><radialGradient cx="234.43253" cy="91.97822" r="1.36087" gradientUnits="userSpaceOnUse" id="color-37"><stop offset="0" stop-color="#efddc0"/><stop offset="1" stop-color="#efddc0" stop-opacity="0"/></radialGradient><radialGradient cx="212.75389" cy="126.38944" r="3.40217" gradientUnits="userSpaceOnUse" id="color-38"><stop offset="0" stop-color="#efddc0"/><stop offset="1" stop-color="#efddc0" stop-opacity="0"/></radialGradient><radialGradient cx="210.59198" cy="156.56335" r="2.60833" gradientUnits="userSpaceOnUse" id="color-39"><stop offset="0" stop-color="#efddc0"/><stop offset="1" stop-color="#efddc0" stop-opacity="0"/></radialGradient><radialGradient cx="220.60474" cy="106.08846" r="2.49492" gradientUnits="userSpaceOnUse" id="color-40"><stop offset="0" stop-color="#efddc0"/><stop offset="1" stop-color="#efddc0" stop-opacity="0"/></radialGradient></defs><g transform="translate(-181.58294,-48.59482)"><g data-paper-data="{&quot;isPaintingLayer&quot;:true}" fill-rule="nonzero" stroke-linecap="butt" stroke-linejoin="miter" stroke-miterlimit="10" stroke-dasharray="" stroke-dashoffset="0" style="mix-blend-mode: normal"><path d="M284.37023,179.70941c0.07585,1.88165 -6.82295,7.07192 -42.75929,7.07192c-35.93634,0 -45.96971,-4.43047 -45.98172,-7.45949c-0.01038,-2.6151 9.30175,-6.10294 45.23807,-6.10294c35.93634,0 43.43354,4.76932 43.50294,6.49051z" fill="url(#color-1)" stroke="none" stroke-width="0"/><text transform="translate(230.71781,206.35669) scale(0.357,0.357)" font-size="40" xml:space="preserve" fill="#ffffff" fill-rule="nonzero" stroke="#ffffff" stroke-width="0.5" stroke-linecap="butt" stroke-linejoin="miter" stroke-miterlimit="10" stroke-dasharray="" stroke-dashoffset="0" font-family="Handwriting" font-weight="normal" text-anchor="start" style="mix-blend-mode: normal"></text><text transform="translate(181.75543,61.70368) scale(0.34497,0.34497)" font-size="40" xml:space="preserve" fill="#ffffff" fill-rule="nonzero" stroke="#ffffff" stroke-width="1" stroke-linecap="butt" stroke-linejoin="miter" stroke-miterlimit="10" stroke-dasharray="" stroke-dashoffset="0" font-family="Handwriting" font-weight="normal" text-anchor="start" style="mix-blend-mode: normal"></text><path d="M290.08333,103.28379c0,17.09346 -16.11775,30.95044 -36,30.95044c-19.88225,0 -36,-13.85698 -36,-30.95044c0,-17.09346 16.11775,-30.95044 36,-30.95044c19.88225,0 36,13.85698 36,30.95044z" fill="url(#color-2)" stroke="none" stroke-width="0"/><path d="M264.08333,142.00148c0,17.02796 -17.53551,30.83186 -39.16667,30.83186c-21.63116,0 -39.16666,-13.8039 -39.16666,-30.83186c0,-17.02796 17.53551,-30.83185 39.16666,-30.83185c21.63116,0 39.16667,13.80389 39.16667,30.83185z" fill="url(#color-3)" stroke="none" stroke-width="0"/><path d="M243.75,117.83998c0,7.7772 -7.3873,14.08186 -16.5,14.08186c-9.1127,0 -16.5,-6.30467 -16.5,-14.08186c0,-7.7772 7.3873,-14.08186 16.5,-14.08186c9.1127,0 16.5,6.30467 16.5,14.08186z" fill="url(#color-4)" stroke="none" stroke-width="0"/><path d="M254.27183,103.88192c1.37791,0 2.49492,0.40641 2.49492,0.90775c0,0.50133 -1.11702,0.90775 -2.49492,0.90775c-1.37791,0 -2.49492,-0.40641 -2.49492,-0.90775c0,-0.50133 1.11701,-0.90775 2.49492,-0.90775z" fill="url(#color-5)" stroke="none" stroke-width="0"/><path d="M269.65173,107.37877c0.58113,0.65653 0.77296,1.38428 0.42847,1.62547c-0.34449,0.2412 -1.09485,-0.0955 -1.67597,-0.75203c-0.58113,-0.65653 -0.77296,-1.38428 -0.42847,-1.62548c0.34449,-0.2412 1.09484,0.0955 1.67597,0.75203z" fill="url(#color-6)" stroke="none" stroke-width="0"/><path d="M265.51614,95.94119c1.56015,0.58025 2.68777,1.34227 2.51863,1.70201c-0.16915,0.35974 -1.57102,0.18098 -3.13117,-0.39928c-1.56014,-0.58025 -2.68777,-1.34227 -2.51863,-1.70202c0.16914,-0.35974 1.57102,-0.18097 3.13117,0.39928z" fill="url(#color-7)" stroke="none" stroke-width="0"/><path d="M255.45165,115.45545c0.5974,-0.30523 1.46105,0.03468 1.92903,0.75919c0.46798,0.72452 0.36307,1.55929 -0.23433,1.86451c-0.5974,0.30523 -1.46105,-0.03468 -1.92903,-0.7592c-0.46798,-0.72452 -0.36307,-1.55928 0.23433,-1.86451z" fill="url(#color-8)" stroke="none" stroke-width="0"/><path d="M243.84936,93.5518c0.8721,-0.43903 1.8542,-0.36266 2.19358,0.17058c0.33937,0.53325 -0.09248,1.32143 -0.96457,1.76047c-0.8721,0.43903 -1.8542,0.36267 -2.19357,-0.17057c-0.33937,-0.53325 0.09247,-1.32143 0.96457,-1.76047z" fill="url(#color-9)" stroke="none" stroke-width="0"/><path d="M246.38294,116.36102c-0.8373,1.04255 -1.97054,1.59898 -2.53116,1.24284c-0.56062,-0.35615 -0.33634,-1.49001 0.50096,-2.53256c0.8373,-1.04255 1.97054,-1.59898 2.53116,-1.24284c0.56062,0.35615 0.33634,1.49001 -0.50096,2.53256z" fill="url(#color-10)" stroke="none" stroke-width="0"/><path d="M255.97119,95.48541c1.3911,-0.63922 2.75188,-0.75624 3.03937,-0.26135c0.2875,0.49489 -0.60716,1.41428 -1.99826,2.0535c-1.39111,0.63922 -2.75188,0.75624 -3.03937,0.26135c-0.2875,-0.49489 0.60715,-1.41428 1.99825,-2.0535z" fill="url(#color-11)" stroke="none" stroke-width="0"/><path d="M253.76273,87.8341c0.6539,0.32955 0.63329,1.46103 -0.04604,2.52724c-0.67933,1.0662 -1.76012,1.66337 -2.41402,1.33381c-0.6539,-0.32955 -0.63328,-1.46103 0.04604,-2.52723c0.67933,-1.0662 1.76012,-1.66337 2.41402,-1.33382z" fill="url(#color-12)" stroke="none" stroke-width="0"/><path d="M251.00371,108.60402c0.75158,0 1.36087,0.3161 1.36087,0.70603c0,0.38992 -0.60928,0.70603 -1.36087,0.70603c-0.75159,0 -1.36087,-0.3161 -1.36087,-0.70603c0,-0.38992 0.60928,-0.70603 1.36087,-0.70603z" fill="url(#color-13)" stroke="none" stroke-width="0"/><path d="M235.69788,99.68604c1.57385,0.91288 2.68328,1.87985 2.47799,2.1598c-0.20529,0.27995 -1.64755,-0.23314 -3.22139,-1.14602c-1.57385,-0.91288 -2.68328,-1.87985 -2.47799,-2.1598c0.20529,-0.27995 1.64755,0.23314 3.22139,1.14602z" fill="url(#color-14)" stroke="none" stroke-width="0"/><path d="M233.05808,106.6452c0.28509,-0.11525 0.99944,0.73683 1.59554,1.90319c0.5961,1.16635 0.84822,2.2053 0.56313,2.32055c-0.28509,0.11525 -0.99944,-0.73683 -1.59554,-1.90319c-0.5961,-1.16635 -0.84822,-2.2053 -0.56313,-2.32055z" fill="url(#color-15)" stroke="none" stroke-width="0"/><path d="M264.13551,112.62849c1.10541,0.73163 1.7287,1.65077 1.39217,2.05296c-0.33653,0.40219 -1.50545,0.13512 -2.61085,-0.59651c-1.10541,-0.73163 -1.7287,-1.65077 -1.39217,-2.05296c0.33653,-0.40219 1.50544,-0.13513 2.61085,0.5965z" fill="url(#color-16)" stroke="none" stroke-width="0"/><path d="M216.25985,140.66136c0,0.50133 -1.11701,0.90775 -2.49492,0.90775c-1.37791,0 -2.49493,-0.40641 -2.49493,-0.90775c0,-0.50133 1.11702,-0.90775 2.49493,-0.90775c1.37791,0 2.49492,0.40641 2.49492,0.90775z" fill="url(#color-17)" stroke="none" stroke-width="0"/><path d="M217.06099,151.39223c0.34448,0.2412 0.15266,0.96894 -0.42847,1.62547c-0.58113,0.65653 -1.33149,0.99323 -1.67598,0.75203c-0.34448,-0.2412 -0.15265,-0.96894 0.42848,-1.62548c0.58113,-0.65653 1.33148,-0.99322 1.67597,-0.75203z" fill="url(#color-18)" stroke="none" stroke-width="0"/><path d="M229.31844,136.74987c0.16914,0.35974 -0.95848,1.12176 -2.51863,1.70202c-1.56015,0.58025 -2.96202,0.75902 -3.13117,0.39928c-0.16914,-0.35974 0.95848,-1.12176 2.51863,-1.70201c1.56015,-0.58025 2.96202,-0.75902 3.13117,-0.39928z" fill="url(#color-19)" stroke="none" stroke-width="0"/><path d="M239.15276,131.25359c-0.46798,0.72452 -1.33164,1.06442 -1.92904,0.7592c-0.5974,-0.30523 -0.70231,-1.13999 -0.23433,-1.86451c0.46798,-0.72452 1.33164,-1.06442 1.92904,-0.75919c0.5974,0.30523 0.70231,1.13998 0.23433,1.86451z" fill="url(#color-20)" stroke="none" stroke-width="0"/><path d="M241.48529,135.92732c-0.33937,0.53325 -1.32147,0.60962 -2.19357,0.17058c-0.8721,-0.43903 -1.30395,-1.22721 -0.96458,-1.76046c0.33937,-0.53325 1.32147,-0.60962 2.19357,-0.17058c0.8721,0.43903 1.30395,1.22722 0.96457,1.76047z" fill="url(#color-21)" stroke="none" stroke-width="0"/><path d="M232.15284,145.54969c0.56062,-0.35614 1.69387,0.20028 2.53117,1.24283c0.8373,1.04255 1.06158,2.17641 0.50096,2.53256c-0.56062,0.35614 -1.69387,-0.20028 -2.53117,-1.24283c-0.8373,-1.04255 -1.06158,-2.17641 -0.50096,-2.53256z" fill="url(#color-22)" stroke="none" stroke-width="0"/><path d="M227.06381,126.88847c-0.2875,0.49489 -1.64827,0.37788 -3.03937,-0.26135c-1.39111,-0.63923 -2.28575,-1.55861 -1.99826,-2.0535c0.2875,-0.49489 1.64826,-0.37787 3.03937,0.26135c1.39111,0.63923 2.28575,1.55861 1.99826,2.0535z" fill="url(#color-23)" stroke="none" stroke-width="0"/><path d="M221.68803,130.67234c0.67933,1.0662 0.69994,2.19768 0.04604,2.52724c-0.6539,0.32955 -1.73469,-0.26761 -2.41402,-1.33382c-0.67933,-1.0662 -0.69994,-2.19768 -0.04604,-2.52724c0.6539,-0.32955 1.73469,0.26761 2.41402,1.33382z" fill="url(#color-24)" stroke="none" stroke-width="0"/><path d="M226.72724,141.03128c0,0.38992 -0.60928,0.70603 -1.36087,0.70603c-0.75159,0 -1.36087,-0.3161 -1.36087,-0.70603c0,-0.38992 0.60928,-0.70603 1.36087,-0.70603c0.75159,0 1.36087,0.31609 1.36087,0.70603z" fill="url(#color-25)" stroke="none" stroke-width="0"/><path d="M251.56026,134.4117c0.20529,0.27995 -0.90415,1.24693 -2.478,2.15981c-1.57385,0.91288 -3.01611,1.42597 -3.2214,1.14602c-0.20529,-0.27995 0.90415,-1.24693 2.478,-2.15981c1.57385,-0.91288 3.01611,-1.42597 3.2214,-1.14602z" fill="url(#color-26)" stroke="none" stroke-width="0"/><path d="M240.0822,150.47018c-0.5961,1.16635 -1.31045,2.01844 -1.59554,1.90319c-0.28509,-0.11525 -0.03297,-1.1542 0.56313,-2.32055c0.5961,-1.16635 1.31045,-2.01844 1.59554,-1.90319c0.28509,0.11525 0.03297,1.1542 -0.56313,2.32055z" fill="url(#color-27)" stroke="none" stroke-width="0"/><path d="M228.17875,156.50102c0.33653,0.40219 -0.28677,1.32133 -1.39217,2.05296c-1.1054,0.73163 -2.27432,0.99869 -2.61085,0.59651c-0.33653,-0.40219 0.28677,-1.32133 1.39217,-2.05296c1.1054,-0.73163 2.27432,-0.99869 2.61085,-0.5965z" fill="url(#color-28)" stroke="none" stroke-width="0"/><path d="M267.26413,122.42789c-0.36863,-0.37928 0.17759,-1.33641 1.22002,-2.13783c1.04243,-0.80142 2.18632,-1.14364 2.55495,-0.76436c0.36863,0.37928 -0.1776,1.33642 -1.22003,2.13783c-1.04243,0.80142 -2.18632,1.14363 -2.55495,0.76436z" fill="url(#color-29)" stroke="none" stroke-width="0"/><path d="M265.01745,88.86995c-0.43796,0.01789 -0.82795,-0.64424 -0.87105,-1.47892c-0.0431,-0.83468 0.27699,-1.52583 0.71496,-1.54372c0.43796,-0.01789 0.82795,0.64425 0.87105,1.47892c0.0431,0.83468 -0.27699,1.52582 -0.71495,1.54371z" fill="url(#color-30)" stroke="none" stroke-width="0"/><path d="M203.54872,141.15687c-0.39248,-0.17378 -0.0997,-1.40612 0.65394,-2.75251c0.75364,-1.34639 1.68275,-2.29699 2.07523,-2.12321c0.39248,0.17378 0.0997,1.40612 -0.65394,2.75251c-0.75364,1.34639 -1.68275,2.29699 -2.07523,2.12321z" fill="url(#color-31)" stroke="none" stroke-width="0"/><path d="M216.22607,118.32332c-0.1787,-0.82031 0.22476,-1.57977 0.90114,-1.69632c0.67638,-0.11654 1.36955,0.45396 1.54824,1.27427c0.1787,0.82031 -0.22476,1.57977 -0.90114,1.69632c-0.67638,0.11654 -1.36955,-0.45396 -1.54824,-1.27427z" fill="url(#color-32)" stroke="none" stroke-width="0"/><path d="M217.67986,124.35132c-0.13535,-0.6008 0.55149,-1.22978 1.53408,-1.40487c0.98259,-0.17508 1.88885,0.17002 2.0242,0.77083c0.13535,0.6008 -0.55149,1.22979 -1.53408,1.40487c-0.98259,0.17508 -1.88885,-0.17003 -2.0242,-0.77084z" fill="url(#color-33)" stroke="none" stroke-width="0"/><path d="M242.3315,159.37387c-0.16226,0.5955 -1.42873,0.83366 -2.82875,0.53193c-1.40003,-0.30173 -2.40343,-1.02908 -2.24118,-1.6246c0.16226,-0.5955 1.42873,-0.83366 2.82875,-0.53193c1.40003,0.30173 2.40343,1.02908 2.24118,1.6246z" fill="url(#color-34)" stroke="none" stroke-width="0"/><path d="M245.13297,127.26363c-0.14639,-0.54161 0.96912,-1.24454 2.49155,-1.57003c1.52244,-0.3255 2.87529,-0.1503 3.02168,0.39132c0.14639,0.54161 -0.96911,1.24453 -2.49155,1.57002c-1.52244,0.3255 -2.87529,0.1503 -3.02168,-0.39131z" fill="url(#color-35)" stroke="none" stroke-width="0"/><path d="M225.5065,127.23971c-1.29791,-0.41151 -2.14547,-1.25551 -1.8931,-1.88515c0.25237,-0.62964 1.50913,-0.80647 2.80703,-0.39496c1.29791,0.41151 2.14547,1.25552 1.8931,1.88515c-0.25237,0.62964 -1.50912,0.80647 -2.80703,0.39497z" fill="url(#color-36)" stroke="none" stroke-width="0"/><path d="M233.40299,92.76973c-0.28671,-0.29499 -0.0582,-0.8885 0.5104,-1.32564c0.5686,-0.43714 1.26197,-0.55237 1.54868,-0.25738c0.28671,0.29499 0.0582,0.8885 -0.5104,1.32564c-0.5686,0.43714 -1.26197,0.55237 -1.54868,0.25738z" fill="url(#color-37)" stroke="none" stroke-width="0"/><path d="M211.81339,129.29735c-0.36115,-0.0924 -0.23284,-1.4692 0.28658,-3.0752c0.51943,-1.606 1.23327,-2.83301 1.59442,-2.74062c0.36115,0.0924 0.23284,1.4692 -0.28658,3.0752c-0.51943,1.606 -1.23327,2.83301 -1.59442,2.74062z" fill="url(#color-38)" stroke="none" stroke-width="0"/><path d="M210.04802,156.70571c-0.40665,-1.22908 -0.49276,-2.28919 -0.19233,-2.36782c0.30043,-0.07862 0.87362,0.85402 1.28027,2.0831c0.40665,1.22908 0.49276,2.28919 0.19233,2.36782c-0.30043,0.07862 -0.87362,-0.85402 -1.28027,-2.0831z" fill="url(#color-39)" stroke="none" stroke-width="0"/><path d="M220.0646,108.25478c-0.55032,-0.10853 -0.75461,-1.16641 -0.45631,-2.36284c0.29831,-1.19642 0.98626,-2.07833 1.53658,-1.96979c0.55032,0.10853 0.75462,1.16641 0.45631,2.36284c-0.29831,1.19642 -0.98626,2.07832 -1.53658,1.96979z" fill="url(#color-40)" stroke="none" stroke-width="0"/></g></g></svg>