<svg version="1.1" xmlns="http://www.w3.org/2000/svg" xmlns:xlink="http://www.w3.org/1999/xlink" width="104.34632" height="161.45958" viewBox="0,0,104.34632,161.45958"><defs><linearGradient x1="240.71898" y1="39.35419" x2="240.71898" y2="246.06672" gradientUnits="userSpaceOnUse" id="color-1"><stop offset="0" stop-color="#000000"/><stop offset="1" stop-color="#000000" stop-opacity="0"/></linearGradient></defs><g transform="translate(-187.15769,-62.04642)"><g data-paper-data="{&quot;isPaintingLayer&quot;:true}" fill-rule="nonzero" stroke-miterlimit="10" stroke-dasharray="" stroke-dashoffset="0" style="mix-blend-mode: normal"><path d="M291.50329,179.66405c0.08805,2.17456 -7.91984,8.17279 -49.63339,8.17279c-41.71356,0 -53.35993,-5.12018 -53.37389,-8.62069c-0.01206,-3.02218 10.79713,-7.05298 52.51069,-7.05298c41.71356,0 50.41603,5.51176 50.49659,7.50089z" fill="url(#color-1)" stroke="none" stroke-width="0" stroke-linecap="butt" stroke-linejoin="miter"/><text transform="translate(215.23136,77.6895) scale(0.41166,0.41166)" font-size="40" xml:space="preserve" fill="#000000" fill-rule="nonzero" stroke="#000000" stroke-width="1" stroke-linecap="butt" stroke-linejoin="miter" stroke-miterlimit="10" stroke-dasharray="" stroke-dashoffset="0" font-family="Handwriting" font-weight="normal" text-anchor="start" style="mix-blend-mode: normal"></text><text transform="translate(216.28219,215.68345) scale(0.46015,0.46015)" font-size="40" xml:space="preserve" fill="#000000" fill-rule="nonzero" stroke="#000000" stroke-width="1" stroke-linecap="butt" stroke-linejoin="miter" stroke-miterlimit="10" stroke-dasharray="" stroke-dashoffset="0" font-family="Handwriting" font-weight="normal" text-anchor="start" style="mix-blend-mode: normal"></text><g><path d="M287.08438,133.93163c0,33.19916 -21.73719,47.12649 -49.18669,47.12649c-27.4495,0 -51.24685,-17.53264 -50.7318,-47.64153c0.39164,-22.89494 23.28231,-35.28049 50.7318,-35.28049c27.4495,0 49.18669,12.89724 49.18669,35.79554z" fill="#f37005" stroke="none" stroke-width="0" stroke-linecap="butt" stroke-linejoin="miter"/><path d="M287.29164,132.07874c0,22.89829 -22.25221,41.46102 -49.70171,41.46102c-27.44949,0 -49.70171,-18.56273 -49.70171,-41.46102c0,-22.89829 22.25222,-41.46102 49.70171,-41.46102c27.44949,0 49.70171,18.56273 49.70171,41.46102z" fill="#ffab66" stroke="none" stroke-width="0" stroke-linecap="butt" stroke-linejoin="miter"/><path d="M211.58684,101.13358c5.23132,-4.67464 14.26415,-4.87041 21.50248,-4.00718c3.33185,0.40075 6.99111,5.03898 5.7415,7.12908c-0.85074,2.43768 -6.47376,0.57959 -9.94205,1.92648c-5.40366,2.13404 -11.14686,4.44503 -15.18294,8.63156c-4.71294,4.89348 -5.04069,12.98872 -10.28911,17.14772c-1.7044,1.64644 -6.69414,-0.99419 -6.04993,-3.50675c2.54984,-9.93264 6.58899,-20.47 14.22004,-27.32091z" fill="#ffe3c7" stroke="none" stroke-width="0.60142" stroke-linecap="round" stroke-linejoin="miter"/><g stroke-width="1"><path d="M237.50877,155.82996c0,-0.72883 0.24681,-1.77632 1.61219,-2.01277c1.96984,-0.34245 4.22363,1.3105 4.83623,1.79691c-0.04539,0.19353 0.72118,4.09853 0.72118,4.43671c0,1.14502 -0.36919,1.19038 -0.51246,1.20918c-1.34912,0.16271 -4.94314,-2.96953 -6.59296,-4.79198c-0.02224,-0.09923 -0.06414,-0.31938 -0.06414,-0.63805v0v0z" fill="#ffab66" stroke="#f37005" stroke-linecap="butt" stroke-linejoin="miter"/><path d="M232.04719,161.30177c-0.97779,-0.87945 -1.11725,-3.26161 -1.11725,-4.27508c0,-0.42997 0.0265,-0.71572 0.02778,-0.72492l0.00174,-0.02165c0,0 -0.00303,-0.09179 -0.00303,-0.12583c0,-1.90851 2.1204,-2.57109 2.47973,-2.67069c1.22764,0.01239 3.3497,0.49377 3.85618,1.22014c0.05132,0.07336 0.09923,0.16515 0.09923,0.28324c0,0.10351 -0.0372,0.22897 -0.14327,0.38072c-0.04919,0.06947 -0.921,1.77632 -1.65842,3.08581l-0.52696,1.21053c-0.39441,1.05781 -1.01506,2.11596 -1.69053,2.11596c-0.5338,0.0007 -0.96716,-0.15597 -1.3252,-0.47822v0z" fill="#ffab66" stroke="#f37005" stroke-linecap="butt" stroke-linejoin="miter"/><path d="M259.70188,147.4655l-0.95343,-1.39417c-1.04459,-1.50692 -2.25044,-2.88661 -3.31424,-4.10104c-1.36795,-1.56436 -2.55755,-3.18333 -2.95195,-4.32652c-0.14198,-0.41224 -0.07357,-0.80541 0.13089,-1.02233c0.01966,-0.0585 0.22587,-0.1517 0.37133,-0.17654c1.75165,-0.31371 9.0046,3.13652 10.81402,4.98092c2.65078,2.70152 3.71078,6.49023 3.1196,8.39912c-0.2425,0.77991 -0.78489,1.33252 -1.57027,1.59555c-2.00698,0.67208 -3.32745,-0.54096 -5.64592,-3.955v0v0z" fill="#ffab66" stroke="#f37005" stroke-linecap="butt" stroke-linejoin="miter"/><path d="M231.15276,120.83728c2.57469,-1.15918 -0.08253,-5.52536 -2.65336,-9.74869c-1.40515,-2.30879 -3.9109,-6.2088 -3.09651,-6.57429c1.57543,-0.70794 9.10176,6.65263 12.15295,9.61927l3.11017,2.93587c0,0 2.22386,2.26054 3.92503,3.75153c0.02999,0.02625 1.63874,-0.18082 2.74962,-0.94615c0.90641,-0.6264 0.78661,-1.32755 1.07495,-2.80149c0.26475,-1.35415 0.55225,-3.8047 1.42869,-3.81677c1.32094,-0.01662 2.18924,4.49488 2.52802,6.16626l0.18652,0.89441c0.44353,1.98793 2.75769,7.96456 2.85697,8.218c0.03166,0.06172 0.08382,0.14218 0.08382,0.14218l0.01922,0.0319l0.02657,0.02731c3.57345,3.67284 6.23151,8.12581 6.23151,12.29851c0,8.83521 -9.34554,15.05465 -21.85479,15.05465c-2.32014,0 -4.58935,-0.26942 -6.74481,-0.79905l-0.11594,-0.02763c0,0 -3.38351,-0.23576 -7.71197,4.47892c-0.86832,0.94645 -0.79094,1.82912 -2.01472,1.55726c-0.40807,-0.09041 -0.70795,-0.33888 -0.95259,-0.79017c-0.58519,-1.0762 -0.1532,-3.62602 0.56205,-5.25524l0.11252,-0.25557l-0.25835,-0.16943c-0.06331,-0.04183 -7.08364,-4.28116 -7.79282,-10.35596c-0.61814,-5.29531 2.60971,-8.31023 3.94902,-9.96707l0.76953,-1.06203c0.97142,-1.95885 -0.85683,-4.68239 -2.4703,-7.08581c-0.96329,-1.43494 -2.5182,-3.52888 -2.167,-4.02094c0.38969,-0.54517 1.78246,0.03472 3.18891,0.59092c1.1404,0.45162 2.23761,1.08971 2.9994,0.66894c0.79222,-0.43741 0.27247,-1.53529 -0.44741,-3.05493c-0.67714,-1.4272 -1.95914,-3.68139 -1.46678,-4.61185c0.13559,-0.25594 0.37345,-0.4357 0.72717,-0.54945c1.30811,-0.41971 3.1782,1.40619 4.69205,2.83447c1.84662,1.74336 3.9409,3.71925 6.37265,2.62212v0v0z" fill="#ffab66" stroke="#f37005" stroke-linecap="round" stroke-linejoin="round"/><path d="M209.25825,152.82639c-0.71395,-0.37825 -1.12544,-1.00214 -1.19172,-1.80647c-0.16126,-1.96772 1.71786,-5.53139 4.91868,-7.7852c2.18582,-1.53919 10.07788,-3.83201 11.73074,-3.25878c0.13644,0.04713 0.31955,0.16906 0.3251,0.2311c0.15442,0.24355 0.13385,0.63985 -0.09672,1.0234c-0.63903,1.06486 -2.1661,2.47678 -3.85663,3.80576c-1.31403,1.0365 -2.80308,2.207 -4.16116,3.53172l-1.24563,1.22297c-3.03151,3.00679 -4.59921,4.00144 -6.42269,3.03548v0v0z" fill="#ffab66" stroke="#f37005" stroke-linecap="butt" stroke-linejoin="miter"/><path d="M246.23238,147.22975c0.33148,0 0.63219,0.24463 0.84948,0.64023c0.21775,0.39524 0.35249,0.9415 0.35249,1.54411c0,0.60261 -0.13476,1.14892 -0.35249,1.54416c-0.21729,0.39562 -0.518,0.64018 -0.84948,0.64018c-0.33155,0 -0.63219,-0.24455 -0.84955,-0.64018c-0.21768,-0.39524 -0.35243,-0.94155 -0.35243,-1.54416c0,-0.60261 0.13475,-1.14887 0.35243,-1.54411c0.21735,-0.39562 0.518,-0.64023 0.84955,-0.64023z" fill="#f37005" stroke="none" stroke-linecap="butt" stroke-linejoin="miter"/><g stroke="none" stroke-linecap="butt" stroke-linejoin="miter"><path d="M235.25401,142.00363v0v0v0v0c0,-1.59445 1.55956,-2.88762 3.48362,-2.88832c1.92361,0 3.48318,1.29387 3.48318,2.88832c0,1.59342 -1.55957,2.88554 -3.48318,2.88554c-1.92361,0 -3.48362,-1.29212 -3.48362,-2.88554z" fill="#f37005"/><path d="M239.20689,140.37669c0.62266,0 1.18708,0.20954 1.59552,0.54832c0.40881,0.33848 0.66165,0.80622 0.66165,1.32223c0,0.51605 -0.25284,0.98379 -0.66165,1.32223c-0.40847,0.33883 -0.97287,0.54838 -1.59552,0.54838c-0.6227,0 -1.18712,-0.20954 -1.59552,-0.54838c-0.40887,-0.33845 -0.66172,-0.80619 -0.66172,-1.32223c0,-0.51601 0.25285,-0.98374 0.66172,-1.32223c0.4084,-0.3388 0.97281,-0.54832 1.59552,-0.54832z" fill="#ffab66"/></g><g stroke="none" stroke-linecap="butt" stroke-linejoin="miter"><path d="M250.32626,141.93885v0v0v0v0c0,-1.59445 1.55957,-2.88762 3.48362,-2.88832c1.92361,0 3.48318,1.29387 3.48318,2.88832c0,1.59342 -1.55957,2.88554 -3.48318,2.88554c-1.92361,0 -3.48362,-1.29212 -3.48362,-2.88554z" fill="#f37005"/><path d="M254.27916,140.3119c0.62266,0 1.18708,0.20954 1.59552,0.54832c0.4088,0.33848 0.66165,0.80622 0.66165,1.32223c0,0.51605 -0.25285,0.98379 -0.66165,1.32223c-0.40846,0.33883 -0.97287,0.54838 -1.59552,0.54838c-0.6227,0 -1.18712,-0.20954 -1.59552,-0.54838c-0.40887,-0.33845 -0.66172,-0.80619 -0.66172,-1.32223c0,-0.51601 0.25285,-0.98374 0.66172,-1.32223c0.4084,-0.3388 0.97281,-0.54832 1.59552,-0.54832z" fill="#ffab66"/></g></g></g></g></g></svg>