<svg version="1.1" xmlns="http://www.w3.org/2000/svg" xmlns:xlink="http://www.w3.org/1999/xlink" width="182.73096" height="174.3872" viewBox="0,0,182.73096,174.3872"><defs><linearGradient x1="270.45716" y1="-37.68113" x2="270.45716" y2="282.06953" gradientUnits="userSpaceOnUse" id="color-1"><stop offset="0" stop-color="#000000"/><stop offset="1" stop-color="#000000" stop-opacity="0"/></linearGradient></defs><g transform="translate(-184.79494,-45.47633)"><g data-paper-data="{&quot;isPaintingLayer&quot;:true}" fill-rule="nonzero" stroke-linecap="butt" stroke-linejoin="miter" stroke-miterlimit="10" stroke-dasharray="" stroke-dashoffset="0" style="mix-blend-mode: normal"><path d="M343.755,179.35544c0.12707,3.36368 -11.43082,12.64198 -71.63667,12.64198c-60.20585,0 -77.01522,-7.92008 -77.03538,-13.33483c-0.01739,-4.67483 15.58367,-10.9098 75.78949,-10.9098c60.20585,0 72.76626,8.5258 72.88252,11.60265z" fill="url(#color-1)" stroke="none" stroke-width="0"/><text transform="translate(209.80595,62.96204) scale(0.46015,0.46015)" font-size="40" xml:space="preserve" fill="#000000" fill-rule="nonzero" stroke="#000000" stroke-width="1" stroke-linecap="butt" stroke-linejoin="miter" stroke-miterlimit="10" stroke-dasharray="" stroke-dashoffset="0" font-family="Handwriting" font-weight="normal" text-anchor="start" style="mix-blend-mode: normal"></text><text transform="translate(255.79464,212.04099) scale(0.46015,0.46015)" font-size="40" xml:space="preserve" fill="#000000" fill-rule="nonzero" stroke="#000000" stroke-width="1" stroke-linecap="butt" stroke-linejoin="miter" stroke-miterlimit="10" stroke-dasharray="" stroke-dashoffset="0" font-family="Handwriting" font-weight="normal" text-anchor="start" style="mix-blend-mode: normal"></text><g stroke="none" stroke-width="1.3401"><g><path d="M307.72147,102.81085c-0.15262,4.83674 -2.15908,9.44682 -5.84555,15.43275c-3.6889,5.98715 -9.02283,7.80263 -12.65423,6.8045c-3.6314,-1.00074 -6.3021,-4.32283 -7.07266,-5.81453c-0.77178,-1.49714 5.09122,-12.40204 5.09122,-12.40204c0,0 0.97573,-5.37892 0.29898,-7.63133c-0.67675,-2.2525 0,-8.92627 0,-8.92627c0.88688,-0.11193 2.15786,-8.91408 9.61202,-8.80075c7.45668,0.11322 9.08416,8.80075 9.08416,8.80075c0,0 1.63988,7.69745 1.48606,12.5369z" fill="#8395d4"/><path d="M307.04099,90.32657c-0.71549,0.9792 -1.7125,-1.60373 -1.97519,-2.4373c-0.83189,-2.64492 -3.26241,-5.22514 -6.42718,-5.7161c-3.08599,-0.48019 -5.81176,0.81334 -7.54181,3.0442c-4.94356,6.37434 -2.07647,13.61585 -3.1323,20.74152c-0.61543,4.15424 -3.26362,7.1134 -4.36061,10.91426c-0.39784,1.37576 0.12005,3.56756 1.19333,4.63443c2.17037,2.16343 6.64607,3.14807 9.70332,2.29971c3.61647,-0.99954 6.16702,-4.90559 7.77947,-7.74748c0.99944,3.09683 -1.78756,6.14506 -4.28062,7.97132c-5.66539,4.15696 -17.97686,2.51277 -17.10502,-5.55829c0.41782,-3.87504 4.54964,-7.63273 5.49532,-11.89487c1.20209,-5.4208 -1.07579,-10.84552 0.26389,-16.19214c0.97947,-3.91278 3.52508,-9.31466 8.6726,-9.74896c6.96635,-0.58667 10.23744,4.03014 11.7148,9.68968z" fill="#272525"/></g><g><path d="M216.86141,146.07966c1.52358,-0.54762 3.86403,-1.01705 5.69909,0.28453c2.15786,1.53226 4.05678,3.38278 3.59266,6.34334c-0.51283,-0.04992 -1.01195,0.48422 -1.01195,0.48422c-3.98668,9.86359 -8.57001,11.4659 -8.57132,11.46731c-0.21759,0.00674 -0.41651,0.03372 -0.57286,0.09975c-3.00468,1.23283 -8.49001,-6.91652 -8.60006,-10.09156c-0.05629,-1.57665 0.08756,-3.44478 1.67497,-4.55885c2.11277,-1.48768 11.05934,-2.35898 7.78946,-4.02873z" fill="#8395d4"/><path d="M213.77663,164.3704c-0.84935,-0.49368 -1.73502,-1.29886 -2.57185,-2.27675c1.07571,-0.43299 2.73446,-1.89772 3.79896,-0.75799c0.93568,1.00074 -0.40531,2.12568 -1.22711,3.03473z" fill="#b7cbe7"/><path d="M227.01754,153.77714c0,0 -4.70217,11.27438 -8.84015,12.9712l-0.00131,-0.0014c-0.06002,0.04046 -0.12387,0.06743 -0.1851,0.10386c-2.70197,1.60504 -6.29958,-1.1195 -7.96206,-3.3557c-1.67126,-2.24576 -3.4701,-5.35869 -4.21808,-8.29097c-0.60422,-2.37116 -0.52292,-4.62357 0.88435,-6.1976c1.88762,-2.10686 3.06601,-1.57947 5.70292,-2.39281c2.18913,-0.67435 1.83758,-1.45939 3.08104,-1.0722c0.60039,0.1874 1.052,0.36545 1.38347,0.53404c3.26866,1.67116 -5.67791,2.54116 -7.79068,4.03014c-1.58742,1.11417 -1.73126,2.9822 -1.67497,4.55895c0.00625,0.16587 0.03258,0.34794 0.06628,0.53948c0.27528,1.54303 1.43359,3.83317 2.88716,5.80244c0.24391,-0.20502 0.63923,-0.48422 1.29097,-0.94015c3.09093,-2.15396 6.07686,1.19097 4.54582,3.55137c-0.28527,0.44104 -0.57669,0.87674 -0.86942,1.25568c0.23644,0.00141 0.46533,-0.02828 0.67927,-0.11463c0.15756,-0.06603 0.35648,-0.093 0.57286,-0.09975c0,0 0.54915,-0.2023 1.42109,-0.84977c1.66621,-1.23947 4.53331,-4.14206 7.15024,-10.61755c0,0 0.49912,-0.53414 1.01195,-0.48422c0.32269,0.02828 0.65173,0.28866 0.86438,1.06958zM215.00375,161.33567c-1.06451,-1.13843 -2.72325,0.3264 -3.79896,0.75799c0.83683,0.97649 1.7225,1.78307 2.57185,2.27675c0.82181,-0.90905 2.16281,-2.03399 1.22711,-3.03473z" fill="#272525"/></g><g><path d="M274.75618,158.87282c0.2076,-2.5627 2.85207,-2.01507 3.93665,-2.02856c1.56614,-0.02022 3.15225,0.39112 4.63831,1.04121c-0.40148,0.15107 -0.58294,0.30486 -0.28395,0.4046c4.92983,1.64419 6.37967,6.86801 6.80253,7.21867c2.4055,1.98005 6.66988,0.13758 7.58177,3.4192c0.28769,1.04795 -0.3127,2.12297 -0.93821,2.89172c-2.85832,3.51765 -8.40236,6.10862 -12.90943,4.28378c-2.77571,-1.11679 -6.98632,-11.38509 -7.98829,-16.25686c-0.13516,-0.66226 -0.52161,-0.94418 -0.83936,-0.97377z" fill="#8395d4"/><path d="M295.78525,172.61006c-1.00822,-0.88479 -2.84704,-1.99213 -1.89015,-3.08194c1.09961,-1.24894 2.49931,-0.59342 3.60518,-0.05526c0.00625,0.86316 -0.48782,1.7089 -1.0057,2.34681c-0.22019,0.26984 -0.46038,0.53414 -0.70932,0.79039z" fill="#b7cbe7"/><path d="M287.65554,176.65238c-0.62289,-1.48908 -1.62739,-3.41649 -0.12751,-3.98022c2.29162,-0.86055 3.46375,1.55239 4.42689,2.71911c-1.35845,0.67576 -2.82705,1.12755 -4.29938,1.26112z" fill="#b7cbe7"/><path d="M280.84686,177.04755c-3.21611,-3.9303 -6.46844,-11.82603 -6.54106,-17.82132c-0.00242,-0.25091 0.20266,-0.38035 0.4504,-0.35609c0.31523,0.03231 0.70177,0.31422 0.83683,0.97246c0.70428,3.42585 2.9934,9.50348 5.25505,13.20852c0.95698,1.56598 1.91021,2.7192 2.73454,3.05093c0.66797,0.26843 1.35724,0.43299 2.0577,0.52066c-0.27388,-0.72829 -0.47279,-1.54435 -0.60292,-2.23086c-0.57669,-3.01178 4.50829,-4.9716 6.96765,-1.45537c0.56912,0.81474 0.96817,1.35694 1.21209,1.75208c0.51536,-0.3264 1.0057,-0.67978 1.46356,-1.05881c-0.70428,-0.43832 -1.42725,-1.22196 -1.94271,-1.86802c-1.50733,-1.8802 1.09961,-5.06058 4.06798,-3.98295c-1.53104,-1.65496 -4.90856,-0.58809 -6.95505,-2.27001c-0.07626,-0.06341 -0.18762,-0.28996 -0.34649,-0.62311c-0.7168,-1.5066 -2.41801,-5.24939 -6.45351,-6.59556c-0.30019,-0.09975 -0.11631,-0.25625 0.28273,-0.4046c0.70924,-0.26571 2.11409,-0.51521 2.7633,-0.42353c3.5964,1.23545 5.33514,5.72153 5.62161,5.99268c1.04202,0.96431 3.79522,0.7917 5.7592,1.43102c0.83432,0.27115 1.53104,0.68652 1.88762,1.40272c1.35593,2.71911 -0.83562,6.89901 -2.6257,8.86557c-3.11353,3.43129 -8.18226,5.3263 -12.80555,4.28499c-0.94446,-0.21176 -2.0128,-1.08167 -3.08729,-2.3914zM295.78403,172.60877c0.25017,-0.25625 0.48913,-0.52066 0.70924,-0.79039c0.51788,-0.6366 1.01204,-1.48234 1.00579,-2.34691c-1.10586,-0.53816 -2.50567,-1.19369 -3.60518,0.05535c-0.95566,1.08981 0.88193,2.19714 1.89015,3.08194zM287.65433,176.65372c1.47354,-0.13487 2.94214,-0.58667 4.30059,-1.26242c-0.96192,-1.16802 -2.13527,-3.58095 -4.42689,-2.71911c-1.50117,0.56373 -0.49538,2.49113 0.1263,3.98153z" fill="#272525"/></g><g><path d="M364.68812,117.53011c-0.75684,1.93949 -3.80157,3.27749 -5.53033,4.15958c0,0 -0.0926,0.07015 -0.20144,0.2495c-0.16503,0.27115 -0.36648,0.8079 -0.33642,1.75077c-0.02632,0.00936 -0.0463,0.0135 -0.07262,0.02426c-0.0337,8.0158 -0.41529,16.36474 -7.11393,22.03636c-11.91867,10.09015 -36.98576,3.23834 -44.36113,-9.67075c-5.99434,2.80143 -1.13078,12.49645 2.37172,15.42731c-2.33671,2.36171 -7.50672,3.86831 -13.00446,-1.03989c-3.20613,2.77174 -7.34915,5.36403 -11.23819,7.04194c-3.63019,1.56195 -8.96029,2.36714 -10.9393,2.50473c0,0 -37.62871,3.31122 -57.44317,-14.72056c-5.0412,-4.58723 -5.68537,-5.77014 -8.10964,-10.6716c-5.72168,-11.56434 -2.29041,-21.9028 -0.20517,-27.45564c0.00374,-0.00544 3.92161,-6.57131 7.33907,-9.24461c10.54651,-8.20189 18.75751,-14.77179 35.33206,-12.53278c18.06572,2.43991 28.1456,11.32158 28.1456,11.32158c1.26968,-1.37033 5.36137,-4.02873 6.14323,-4.53187c8.82521,-3.84132 12.8819,-2.78523 18.58109,-2.04335c7.49047,0.97779 14.05525,7.16603 17.18623,14.0583c2.86588,6.30961 3.73147,18.56994 6.75874,25.90728c-1.81883,-0.4181 -5.37519,-1.44178 -5.23387,0.05666c0.15636,1.66311 2.8796,0.60832 5.29015,0.07418c0.18137,0.43168 0.37273,0.84574 0.57043,1.24088c-1.92897,0.26168 -5.04372,0.63398 -4.42699,1.88292c0.693,1.40404 2.64316,-0.2482 4.58455,-1.58883c0.48913,0.93462 1.02577,1.76415 1.63121,2.42239c2.28294,2.47493 6.08815,3.77651 9.87722,4.04766c-0.96696,1.61722 -1.82256,4.27693 -1.03576,4.30129c0.81687,0.02426 1.73873,-2.31591 1.84263,-4.25408c0.20265,0.00674 0.39654,-0.00543 0.59667,-0.00543c-0.61794,2.07043 -0.91693,4.68838 0.4403,4.45105c1.14329,-0.19697 1.08831,-2.63829 0.52665,-4.45911c1.78757,-0.07549 3.49503,-0.37361 4.95233,-0.901c1.64623,-0.59614 2.9259,-1.69138 3.91414,-3.05225c0.73677,1.0709 2.01644,2.27534 2.25663,1.80864c0.25146,-0.47738 -0.78428,-1.65898 -1.89136,-2.34409c0.1388,-0.21317 0.26146,-0.43702 0.38654,-0.66096c1.35845,0.76884 3.48625,1.5228 3.48877,0.45322c0.00504,-0.88077 -1.93261,-1.10873 -3.26866,-0.85651c1.10455,-2.1594 1.67126,-4.6762 1.8614,-6.91784c0.394,-4.55211 -3.53386,-4.59126 -5.70918,-7.34277c-1.26464,-1.59697 -1.76879,-4.74766 -0.85307,-6.61176c0.61794,-1.25024 3.0059,-3.25727 4.49951,-2.81482c2.79074,0.82944 2.79326,8.08052 2.79326,8.08052c3.2611,-7.18626 11.52971,-4.51437 9.60456,0.4195z" fill="#8395d4"/><path d="M364.269,121.69369c-0.85056,0.50847 -1.98395,1.04402 -3.08599,1.30832l-0.23262,1.86128c0.12377,0.89295 0.02119,2.07717 0.09624,3.1373c1.23841,7.49515 -2.56932,17.22528 -8.87143,21.6088c-9.4594,6.57935 -25.9014,4.3808 -35.19073,-1.46885c-3.64764,-2.29829 -7.11018,-5.14421 -9.81963,-8.47435c-1.83516,3.79815 2.85954,10.01064 6.1745,11.96361c-1.61748,4.85163 -10.08491,6.57 -16.58966,2.81763c-6.07313,5.44776 -14.10528,7.78381 -22.06229,8.51079c-41.53661,3.36113 -60.92448,-17.29131 -60.92448,-17.29131l0.01493,-0.00816c-10.19366,-8.05213 -13.26461,-25.41632 -8.99025,-36.6301c0.02623,-0.07277 0.64166,-1.62255 0.70299,-1.65082c2.83583,-6.16257 7.36287,-10.27776 7.36287,-10.27776c8.17097,-7.29556 18.45601,-13.85599 29.28385,-14.67064c4.77973,-0.35881 14.7208,0.90503 17.44405,1.82626c0,0 11.91988,2.68408 19.73809,9.59115c0,0 2.84461,-2.32798 4.6134,-3.54724c0.22897,-0.18892 0.49417,-0.35207 0.77429,-0.50183c0.10763,-0.06201 0.20648,-0.11323 0.28527,-0.15097v0.00131c0.4278,-0.20904 0.86307,-0.39524 1.2371,-0.57187c9.3544,-4.46041 22.52147,-3.06311 30.20461,4.10029c8.29231,7.73117 8.84772,15.89935 10.75662,26.32275c0.51788,2.82972 3.38618,10.52315 5.10364,12.73116c2.41306,3.09945 6.83883,3.94247 10.51402,3.67536c3.40616,-0.25353 7.69183,-4.32555 8.62752,-7.58956c2.19659,-7.67993 -9.45567,-9.03949 -7.17021,-16.77609c0.63792,-2.16212 2.85075,-4.536 5.10495,-5.26298c3.61264,-1.16933 7.64561,-0.28594 7.2966,5.56644c7.87198,-8.60117 15.33613,5.25483 7.60174,9.85011zM355.08235,117.11595c0,0 -0.00252,-7.25098 -2.79335,-8.08052c-1.49483,-0.44104 -3.88157,1.56457 -4.49952,2.81492c-0.91562,1.8627 -0.41156,5.01207 0.85318,6.61176c2.17532,2.75151 6.10067,2.78926 5.70917,7.34137c-0.19014,2.24163 -0.75684,4.75984 -1.86139,6.91925c1.33595,-0.2482 3.27362,-0.02164 3.26867,0.85641c-0.00252,1.06958 -2.13033,0.31433 -3.48887,-0.45311c-0.12508,0.22385 -0.25016,0.44779 -0.38654,0.66226c1.10707,0.6838 2.14283,1.8653 1.89145,2.34409c-0.2427,0.46399 -1.51984,-0.73905 -2.25671,-1.81005c-0.98815,1.36226 -2.26913,2.45883 -3.91406,3.05093c-1.4573,0.5288 -3.16486,0.82683 -4.95242,0.901c0.56166,1.82223 0.61673,4.26485 -0.52656,4.46041c-1.35723,0.23743 -1.05834,-2.37922 -0.4404,-4.45226c-0.20134,0 -0.39654,0.01349 -0.59666,0.00675c-0.10381,1.93546 -1.02698,4.27824 -1.84254,4.25267c-0.78689,-0.02022 0.06879,-2.68407 1.03576,-4.29988c-3.78906,-0.27115 -7.59437,-1.57272 -9.87722,-4.04776c-0.60926,-0.65814 -1.14208,-1.48637 -1.63121,-2.4224c-1.94139,1.34204 -3.89166,2.99297 -4.58464,1.58893c-0.61663,-1.24904 2.4981,-1.62396 4.42698,-1.88292c-0.19761,-0.39796 -0.38775,-0.81062 -0.57043,-1.24361c-2.40672,0.53414 -5.1337,1.58884 -5.29005,-0.07286c-0.14141,-1.49714 3.41745,-0.47335 5.23376,-0.05656c-3.02718,-7.33874 -3.89277,-19.59918 -6.75865,-25.90738c-3.13107,-6.89227 -9.69584,-13.0804 -17.18633,-14.0583c-5.69666,-0.74187 -9.75335,-1.79797 -18.581,2.04336c-0.78186,0.50314 -4.87233,3.16155 -6.14332,4.53198c0,0 -10.07977,-8.88178 -28.14551,-11.32169c-16.57463,-2.23901 -24.78564,4.32958 -35.33205,12.53288c-3.41746,2.67462 -7.33533,9.23908 -7.33907,9.24451c-2.08533,5.55285 -5.5166,15.8913 0.20508,27.45705c2.42305,4.90014 3.06723,6.08296 8.10973,10.6715c19.81446,18.03188 57.44318,14.72056 57.44318,14.72056c1.97892,-0.13618 7.30911,-0.94277 10.9392,-2.50603c3.88913,-1.6778 8.03215,-4.27019 11.23827,-7.04062c5.49645,4.90559 10.66897,3.4017 13.00446,1.04c-3.50259,-2.92956 -8.36736,-12.62728 -2.37172,-15.42741c7.37538,12.91051 32.44237,19.76231 44.36114,9.67075c6.70115,-5.66889 7.08386,-14.01915 7.11392,-22.03636c0.02623,-0.00805 0.04631,-0.01349 0.07254,-0.02284c-0.02996,-0.94418 0.17138,-1.47963 0.33651,-1.75078c0.10884,-0.17936 0.20144,-0.2482 0.20144,-0.2482c1.72875,-0.88339 4.77469,-2.22141 5.53023,-4.15958c1.92646,-4.94192 -6.34214,-7.61381 -9.60446,-0.42221z" fill="#272525"/></g><g><g><path d="M283.17732,111.2407c-0.20769,6.54423 -2.91965,12.7837 -7.91203,20.88444c-4.99238,8.10075 -12.20768,10.56099 -17.12379,9.20949c-4.91602,-1.3515 -8.52997,-5.84563 -9.57197,-7.86876c-1.04201,-2.02322 6.89007,-16.78284 6.89007,-16.78284c0,0 1.32093,-7.27806 0.40652,-10.32759c-0.91441,-3.04963 0,-12.07966 0,-12.07966c1.20209,-0.15107 2.91834,-12.06356 13.00951,-11.91108c10.08865,0.1538 12.29018,11.91108 12.29018,11.91108c0,0 2.21919,10.41797 2.0115,16.96491z" fill="#8395d4"/><path d="M282.25786,94.34856c-0.96817,1.32584 -2.31916,-2.17017 -2.67444,-3.29773c-1.12705,-3.57964 -4.41821,-7.07032 -8.69509,-7.7366c-4.17803,-0.65009 -7.86572,1.10059 -10.20747,4.12053c-6.69116,8.62674 -2.81333,18.42561 -4.24057,28.0708c-0.83189,5.62169 -4.41569,9.62617 -5.90305,14.77049c-0.53916,1.86259 0.16512,4.82456 1.61486,6.26775c2.93841,2.92684 8.99791,4.26073 13.13338,3.11566c4.89231,-1.35553 8.34487,-6.63873 10.52643,-10.4867c1.35351,4.19058 -2.41671,8.31654 -5.79048,10.79016c-7.67064,5.6244 -24.329,3.40029 -23.1494,-7.51941c0.5667,-5.24949 6.15574,-10.33301 7.4342,-16.10034c1.62616,-7.33472 -1.45478,-14.67749 0.3578,-21.91498c1.32597,-5.29399 4.77096,-12.60434 11.736,-13.19102c9.43318,-0.79582 13.85895,5.45038 15.85784,13.11141z" fill="#272525"/></g><g><path d="M275.27658,113.06155c-1.75387,1.54576 -2.7183,2.82569 -3.15729,5.12267c-0.81061,4.30663 -0.24018,7.92814 -3.68274,10.51238c-1.44732,1.08177 -2.38926,2.12025 -4.2093,2.03258c-2.60937,-0.13346 -5.26261,-1.52542 -5.26261,-4.15153c0,-5.61093 5.19634,-7.99688 4.6484,-13.60649c-0.52665,-5.30062 -3.22357,-7.77434 -3.68396,-13.07366c-0.43909,-4.99184 2.43677,-9.91754 7.3666,-10.4247c4.29816,-0.44245 7.36791,1.5686 7.36791,5.56503c0,2.96056 -0.59293,6.20575 0.52535,8.92214c0.89948,2.18779 2.45563,2.87159 3.59641,4.94735c-0.15262,2.03127 -1.97267,2.80546 -3.50875,4.15424z" fill="#b7cbe7"/><path d="M278.49391,107.62464c-0.12387,2.58021 -3.94663,-1.99212 -4.28062,-2.43589c-3.02345,-4.01264 1.20835,-7.10403 -0.12014,-11.17866c-0.68301,-2.09599 -2.64316,-4.24735 -5.26382,-4.34306c-3.15479,-0.11604 -5.86804,3.14123 -6.82502,5.53533c-2.94709,7.38594 4.02672,14.07852 2.75704,21.61555c-0.53533,3.17091 -5.98314,8.2801 -4.47702,11.09634c0.48781,0.91046 2.61562,1.71162 3.69273,1.7089c8.49618,-0.02557 4.50203,-15.35846 13.91766,-18.42289c-0.36779,0.98323 -1.28592,1.64005 -1.99152,2.42239c-4.49074,4.99858 -1.71746,12.55985 -7.18524,17.00678c-1.97267,1.60633 -5.86674,1.93949 -8.23602,0.89829c-8.8689,-3.90614 0.98199,-11.37564 2.22918,-15.01597c2.39925,-7.0069 -9.28682,-16.67091 -0.78308,-25.83319c1.67247,-1.80059 5.1688,-3.18853 7.79824,-2.68267c14.20031,2.73259 1.1108,14.07723 8.76763,19.62876z" fill="#272525"/></g></g><g><path d="M217.99097,146.54628c0.18016,-1.49985 1.1446,-4.97694 6.2896,-3.6039c5.76042,1.5376 9.00155,8.1385 10.08482,13.73995c-0.1851,0.08364 0.69179,8.67132 2.71831,11.09241c3.05966,3.66187 7.93704,3.23572 5.61284,9.50478c-0.93568,2.52093 -11.45466,1.49452 -16.34575,-0.32771c-6.36212,-2.36975 -5.12997,-6.52943 -5.9431,-10.89675c-1.13955,-6.11134 -1.45731,-15.28036 -2.02522,-18.93287c-0.03249,-0.21308 -0.21133,-0.44637 -0.39149,-0.57591z" fill="#8395d4"/><path d="M230.99545,165.07586c-1.74751,0.92788 -3.08478,-0.52739 -2.22908,-2.94979c1.9076,-1.19509 0.68048,1.41884 1.34716,1.82485c0.47037,0.28735 0.91693,-0.12812 1.11463,-0.56111c0.9944,-2.18093 -1.59619,-3.09542 -2.78578,-2.38868c-2.89716,1.73055 -0.30525,6.87476 3.01841,5.75796c0.85065,-0.28725 0.89816,-1.73043 1.76506,-1.59295c1.76376,3.52579 -9.15668,3.44215 -7.24404,-2.10405c2.86457,-8.30848 9.29176,-0.26571 5.01366,2.01377z" fill="#272525"/><path d="M233.60734,178.47866c-1.40727,-0.16587 -2.81949,-0.40199 -4.12045,-0.6825c0.37394,-1.7089 0.7167,-3.96542 2.21658,-3.75225c2.15907,0.30617 1.8851,2.81352 1.90387,4.43475z" fill="#b7cbe7"/><path d="M241.04656,178.38021c-0.94699,0.26159 -2.21416,0.36948 -3.64644,0.356c0.22019,-1.76415 0.14385,-4.59659 1.66369,-4.49674c1.46114,0.09572 1.6525,2.52889 1.98275,4.14076z" fill="#b7cbe7"/><path d="M246.04016,177.65184c-0.42901,0.97387 -1.35473,1.67388 -2.6006,2.15538c-5.24889,2.02856 -16.21563,0.15509 -20.0396,-1.76959c-0.19397,-0.09713 -0.37533,-0.19556 -0.53039,-0.29268c-4.57839,-2.86484 -5.20511,-10.51649 -5.43399,-15.38685c-0.035,-0.75939 -0.13891,-10.91164 -0.10884,-14.39687c-0.22888,-1.68595 0.3477,-3.496 0.3477,-3.496c1.13461,-1.22338 0.79185,1.81137 0.93197,3.63762h-0.00374c0.54159,4.19601 1.21965,14.54794 1.80502,17.95085c0.52292,3.04561 1.01457,6.58207 2.99227,8.89385c0.74676,0.87131 1.69748,1.57534 2.95082,2.003c0.43284,0.14564 0.92066,0.28725 1.42855,0.42755c0.18137,-0.97387 0.57669,-2.08391 0.94195,-2.95523c1.30972,-3.13457 6.48851,-2.44393 6.37716,2.10002c-0.0225,0.95092 -0.02875,1.61319 -0.05498,2.10012c0.28144,0.02295 0.56288,0.04449 0.83936,0.06069c-0.06506,-1.10733 0.24513,-2.63143 0.54663,-3.78064c0.85691,-3.23976 5.57027,-3.05899 5.93432,1.4756c0.03874,0.49498 0.07383,0.89284 0.1038,1.25165c0.09512,-0.10931 0.1852,-0.21992 0.23019,-0.35075c1.10455,-3.14394 0.45282,-4.48738 -0.91814,-5.64997c-1.22843,-1.0413 -3.03474,-1.93959 -4.6947,-3.85351c-2.32046,-2.67462 -3.64764,-9.05429 -3.43248,-13.32729c0,0 0.12761,-0.13486 0.31149,-0.2185c0.3477,-0.15369 0.89938,-0.11323 1.21087,1.40947c0.0112,0.05536 1.97518,10.4706 4.87476,12.00418c7.86451,4.16099 6.4397,8.98957 5.99061,10.00792zM231.70347,174.04392c-1.49988,-0.21317 -1.84264,2.04204 -2.21658,3.75225c1.30095,0.2805 2.71317,0.51663 4.12045,0.6825c-0.01877,-1.62124 0.25521,-4.12858 -1.90387,-4.43475zM241.04656,178.38021c-0.33025,-1.61187 -0.52162,-4.04635 -1.98275,-4.14076c-1.51984,-0.09984 -1.44349,2.73259 -1.66369,4.49674c1.43229,0.01349 2.69945,-0.0944 3.64644,-0.356z" fill="#272525"/></g><g><path d="M269.13709,175.43042c1.73622,2.06902 6.36464,6.95296 4.4044,8.84122c-0.21516,0.61637 -4.43698,2.18909 -12.16259,0.11464c-0.41277,-0.09843 -7.86704,-1.74805 -7.85826,-5.11865c0.00999,-3.90605 9.65328,-7.90519 8.57001,-18.73722c0.20387,-0.95897 -0.37898,-1.68052 -1.11585,-2.0339c1.28219,-2.1284 4.34074,-5.29669 9.80973,-0.76069c0.00121,0.00936 -0.00878,0.02284 -0.00625,0.03633c0.03622,0.19022 3.16225,2.03128 3.70897,4.23256c1.57865,6.36085 -2.28041,10.51237 -5.35017,13.42573z" fill="#8395d4"/><path d="M263.82071,184.87855c-1.25092,-0.19687 -2.4981,-0.46801 -3.67023,-0.80246c0.29898,-1.27862 0.40783,-3.2614 1.93766,-3.34765c1.59369,-0.09179 1.49613,2.54779 1.73258,4.15012z" fill="#b7cbe7"/><path d="M271.90907,184.98786c-1.14582,0.24407 -2.61694,0.33043 -4.23433,0.27245c0.02623,-1.61992 -0.29022,-4.20145 1.90387,-4.51305c1.64745,-0.23461 1.89893,2.51147 2.33046,4.2406z" fill="#b7cbe7"/><path d="M277.70085,183.88052c-0.42285,1.69129 -1.1108,2.5019 -1.86018,3.02799c-0.28013,0.19556 -0.56913,0.3574 -0.85561,0.50173c-4.3244,2.20258 -13.56117,0.15509 -19.1602,-3.22496c-3.37126,-2.03661 -5.4227,-4.55341 -4.28688,-6.91924c1.18082,-2.46013 9.16789,-10.47996 7.24274,-17.12807c-0.5316,-1.84116 1.02698,-2.20258 2.19408,-1.64419c0.73687,0.35338 1.31971,1.07492 1.11585,2.03399c1.08327,10.83334 -8.73888,15.07656 -8.38865,18.96378c0.09512,1.04664 0.89565,1.97189 2.12286,2.75956c0.77299,0.4964 1.7112,0.93874 2.75947,1.3205c0.02128,-0.25363 0.04751,-0.54632 0.07878,-0.89557c0.37907,-4.13402 5.27138,-4.30129 6.15956,-1.34204c0.34649,1.15454 0.7055,2.73532 0.53039,3.74692c0.29394,0.03231 0.58789,0.05929 0.87809,0.08626c-0.01998,-0.47345 -0.02623,-1.0871 -0.04751,-1.9409c-0.11258,-4.54666 5.06622,-5.23189 6.37716,-2.10273c0.38906,0.92667 0.82059,2.1284 0.98069,3.14404c1.62626,-1.5687 -1.28089,-5.19413 -3.31115,-7.56671c-0.41529,-0.48553 -0.79809,-0.92254 -1.09325,-1.27451c3.06975,-2.91204 6.92882,-7.06357 5.35017,-13.42442c-0.54672,-2.20258 -3.67276,-4.04231 -3.70897,-4.23385c-0.00253,-0.00946 0.00747,-0.02295 0.00625,-0.03502c-0.03753,-0.41145 0.57538,-0.91579 0.81304,-1.16943c2.18287,0.48694 4.54964,3.61608 4.99489,5.52195c1.68628,7.21193 -3.17354,9.89591 -4.64709,13.34209c0.49659,0.4033 1.03202,0.82944 1.56988,1.2746c0.81061,0.67032 1.62365,1.39056 2.32542,2.15267c1.38357,1.5066 2.32046,3.1858 1.86018,5.02555zM263.82071,184.87855c-0.23644,-1.60231 -0.13889,-4.2419 -1.73258,-4.15012c-1.52983,0.08626 -1.63868,2.06902 -1.93766,3.34765c1.17213,0.33445 2.41931,0.60691 3.67023,0.80246zM271.90907,184.98644c-0.43154,-1.72913 -0.68301,-4.47521 -2.33046,-4.24049c-2.19408,0.31292 -1.87763,2.89313 -1.90387,4.51295c1.61739,0.05808 3.08851,-0.02828 4.23433,-0.27246z" fill="#272525"/><path d="M270.05645,167.79094c-0.07001,1.10331 -0.43526,3.14807 -1.87381,3.26804c-1.38851,0.11463 -1.35854,-2.31722 -0.49165,-2.75554c-0.23765,1.01161 -0.21769,1.93959 0.6367,1.75077c1.18212,-0.26038 1.27724,-3.76313 -0.14879,-3.35308c-2.7533,0.79039 -1.69505,4.99989 -0.20517,5.39775c0.45655,0.1241 0.93438,0.17945 1.43229,-0.69185c0.84814,-1.48234 1.45609,-3.05235 1.72502,-4.58723c0.14506,1.33399 -0.69299,4.24322 -1.77253,5.57992c-2.16785,2.67593 -4.61713,-0.71762 -3.96297,-3.3248c0.64799,-2.58021 4.93487,-5.6082 4.66091,-1.28397z" fill="#272525"/></g><g><path d="M211.56902,115.49802c0.45375,-0.79421 -1.09288,-2.46467 -1.09288,-2.46467c-2.41624,-2.51298 -4.30283,-2.38566 -5.93469,-0.92627c-4.00095,3.57934 -1.47187,15.63294 -11.70911,14.16358c4.1155,-0.63589 5.80989,-3.35359 6.59016,-6.62928c0.00084,-0.00091 0.00085,-0.00091 0.00093,-0.00282l0.0001,-0.00192c1.20481,-5.06249 0.22282,-11.45755 2.57894,-13.58666c2.99517,-3.01371 6.19195,1.57152 9.08948,4.64259c2.003,2.2055 1.95325,0.58236 2.06909,-1.32201c0.00187,-0.00181 0.95827,6.4171 -1.59201,6.12744z" fill="#8395d4"/><path d="M211.0938,110.69067c-2.89753,-3.07097 -6.09441,-7.65619 -9.08948,-4.64248c-2.35612,2.12911 -1.37506,8.52509 -2.57904,13.58667c0,0.00191 -0.00094,0.00282 -0.00103,0.00473c-0.78027,3.27569 -2.47458,5.99338 -6.59017,6.62928c10.23735,1.46926 7.70816,-10.58424 11.70912,-14.16358c1.63195,-1.45939 3.51938,-1.5857 5.93479,0.92627c0,0 1.5457,1.67136 1.09279,2.46467c-0.4529,0.79331 -2.55027,-0.28966 -2.55027,-0.28966c-2.5319,-2.46677 -3.1646,7.06035 -7.74569,11.2308c-2.03119,1.85012 -5.51137,2.15839 -9.16919,0.68994c0.15766,1.2121 -0.47065,2.58966 0.27229,3.48956c1.08897,1.31738 0.27527,5.24839 -0.80417,4.93427c-1.26772,-2.25541 -1.60329,-5.23299 -0.49034,-8.06492c-1.7617,1.03658 -5.70049,2.39864 -6.02131,1.50015c1.09223,-1.16178 3.68797,-2.50985 5.72429,-2.97415c-2.87802,-0.61486 -4.99974,-2.67693 -5.99144,-5.14926c0.38851,-1.13068 3.83089,0.43088 4.19615,2.15175c0.29665,1.40243 2.24112,1.48627 2.87288,2.84299c0.12153,-0.00604 0.25754,-0.02668 0.36983,-0.02154c-0.03687,0.04438 -0.05713,0.09612 -0.08177,0.14675c11.02705,-5.55355 3.04771,-17.44178 6.14118,-21.89374c1.66369,-2.39542 6.74195,-4.68264 11.57741,0.60781c0,0 3.40905,2.76662 3.29406,4.67188c-0.11501,1.90527 -0.06786,3.52741 -2.07085,1.32181z" fill="#272525"/></g><g><g><path d="M307.63896,117.45321c-1.36479,4.5993 -7.79068,7.14037 -10.72041,1.67247c-1.42472,-2.65438 -1.54113,-8.05756 0,-10.67833c4.11932,-7.01496 13.31848,0.25363 10.72041,9.00587zM304.64053,109.66397c-1.31346,-1.73447 -3.22237,-1.74533 -4.20688,-1.47016c-3.09971,0.86859 -2.64063,9.02197 -0.32521,10.6729c6.33711,4.5197 6.54479,-6.54021 4.53209,-9.20274z" fill="#272525"/><path d="M304.64053,109.66538c2.0114,2.66113 1.8038,13.72243 -4.53209,9.20133c-2.31421,-1.65093 -2.77451,-9.80431 0.32521,-10.6729c0.98451,-0.27517 2.89342,-0.2643 4.20688,1.47157z" fill="#ffffff"/><path d="M304.04628,112.70686c0.53169,0 1.01326,0.30617 1.36227,0.80247c0.34901,0.49498 0.56539,1.1802 0.56539,1.93557c0,0.75526 -0.21638,1.44047 -0.56539,1.93545c-0.34901,0.49639 -0.83058,0.80257 -1.36227,0.80257c-0.5316,0 -1.01326,-0.30617 -1.36227,-0.80257c-0.34892,-0.49498 -0.56539,-1.18019 -0.56539,-1.93545c0,-0.75536 0.21647,-1.44058 0.56539,-1.93557c0.34901,-0.4963 0.83068,-0.80247 1.36227,-0.80247z" fill="#272525"/></g><g><path d="M306.5006,107.67182c-1.00075,0.14292 -8.83147,3.97892 -11.39584,5.92383c-0.25642,-1.69672 -0.67171,-2.7502 0.25773,-4.51306c1.052,-1.9881 2.0815,-3.37865 4.29686,-3.88712c3.23608,-0.75133 4.72597,0.31019 6.91753,2.4696c-0.02371,0.00272 -0.05629,0.00403 -0.07626,0.00675z" fill="#b7cbe7"/><path d="M307.37749,108.46495c-1.46486,1.50519 -12.19143,7.6894 -13.06832,6.09775c-0.10006,-0.18207 0.21264,-0.52729 0.79559,-0.96702c2.56186,-1.94764 10.39257,-5.78091 11.39584,-5.92383c0.01998,-0.00272 0.05126,-0.00403 0.07626,-0.00675c0.42537,-0.03915 1.54617,0.03241 0.80063,0.79985z" fill="#272525"/></g></g><g><g><path d="M321.76422,116.19611c-1.31971,4.81248 -5.94804,5.45442 -8.18217,1.27732c-1.08457,-2.02595 -1.17334,-6.15181 0,-8.15067c3.14097,-5.35336 10.0235,0.15238 8.18217,6.87335zM319.47633,110.25204c-1.00196,-1.32452 -2.46058,-1.33399 -3.21238,-1.12082c-2.36173,0.66226 -2.01392,6.88412 -0.24764,8.14523c4.83855,3.45021 4.99863,-4.99454 3.46002,-7.02442z" fill="#272525"/><path d="M319.47754,110.25204c1.53739,2.02987 1.37731,10.47463 -3.46123,7.02442c-1.76628,-1.26112 -2.1153,-7.48297 0.24764,-8.14523c0.7518,-0.21317 2.21041,-0.20372 3.21359,1.12082z" fill="#ffffff"/><path d="M319.47502,112.9469c0.36283,0 0.69178,0.20904 0.92943,0.54762c0.23775,0.33848 0.38533,0.80518 0.38533,1.32041c0,0.51532 -0.14758,0.98193 -0.38533,1.3205c-0.23765,0.33857 -0.56661,0.54763 -0.92943,0.54763c-0.36274,0 -0.69168,-0.20904 -0.92935,-0.54763c-0.23775,-0.33857 -0.38533,-0.80518 -0.38533,-1.3205c0,-0.51521 0.14758,-0.98193 0.38533,-1.32041c0.23765,-0.33857 0.5666,-0.54762 0.92935,-0.54762z" fill="#272525"/></g><g><path d="M321.27266,108.71041c-1.1684,0.29943 -7.40545,3.36517 -9.80973,5.08352c-0.88062,-1.4135 -0.28638,-4.59126 2.1403,-6.29884c2.48932,-1.74393 6.55358,-1.59154 7.66943,1.21532z" fill="#b7cbe7"/><path d="M322.17325,109.3888c-1.30338,1.33801 -10.86415,6.84909 -11.64601,5.43026c-0.10128,-0.18348 0.28395,-0.55438 0.93568,-1.0251c2.40428,-1.72239 8.64133,-4.78409 9.80973,-5.08352c0.03753,-0.00675 0.0925,-0.02697 0.11883,-0.0311c0.31643,-0.04579 1.48353,-0.01882 0.78177,0.70947z" fill="#272525"/></g></g></g></g></g></svg>