<svg version="1.1" xmlns="http://www.w3.org/2000/svg" xmlns:xlink="http://www.w3.org/1999/xlink" width="108.89277" height="175.32704" viewBox="0,0,108.89277,175.32704"><defs><linearGradient x1="229.7975" y1="71.49936" x2="229.7975" y2="232.98786" gradientUnits="userSpaceOnUse" id="color-1"><stop offset="0" stop-color="#000000"/><stop offset="1" stop-color="#000000" stop-opacity="0"/></linearGradient></defs><g transform="translate(-196.08292,-42.47629)"><g data-paper-data="{&quot;isPaintingLayer&quot;:true}" fill-rule="nonzero" stroke-linecap="butt" stroke-linejoin="miter" stroke-miterlimit="10" stroke-dasharray="" stroke-dashoffset="0" style="mix-blend-mode: normal"><path d="M262.58331,181.11259c0.05684,1.69881 -5.11296,6.38477 -32.04278,6.38477c-26.92982,0 -34.44858,-4 -34.4576,-6.73469c-0.00778,-2.361 6.97051,-5.50994 33.90032,-5.50994c26.92982,0 32.54804,4.30591 32.60004,5.85986z" fill="url(#color-1)" stroke="none" stroke-width="0"/><text transform="translate(200.30595,59.96199) scale(0.46015,0.46015)" font-size="40" xml:space="preserve" fill="#000000" fill-rule="nonzero" stroke="#000000" stroke-width="1" stroke-linecap="butt" stroke-linejoin="miter" stroke-miterlimit="10" stroke-dasharray="" stroke-dashoffset="0" font-family="Handwriting" font-weight="normal" text-anchor="start" style="mix-blend-mode: normal"></text><text transform="translate(208.71593,209.98078) scale(0.46015,0.46015)" font-size="40" xml:space="preserve" fill="#000000" fill-rule="nonzero" stroke="#000000" stroke-width="1" stroke-linecap="butt" stroke-linejoin="miter" stroke-miterlimit="10" stroke-dasharray="" stroke-dashoffset="0" font-family="Handwriting" font-weight="normal" text-anchor="start" style="mix-blend-mode: normal"></text><path d="M252.8846,124.83283c-0.02911,-0.37841 -1.19658,-1.03609 -1.28783,-1.37123c-0.08103,-0.3021 0.27535,-0.54205 0.14869,-0.81188c-0.1833,-0.39336 -0.77412,-0.6868 -1.04081,-1.01642c-1.04239,-1.28626 -1.65917,-1.92663 -3.47016,-2.48835c-1.66074,2.92025 -2.08163,4.87522 -2.47812,8.22737c3.2963,0.25331 4.83195,-2.13354 8.12825,-2.53948zM249.31689,134.48178c-2.05644,-0.3312 -3.07208,-0.02754 -4.95545,0.8166c-1.78504,0.7875 -1.38854,2.89351 -1.48688,4.87522c-0.27219,4.84926 -0.99203,7.54056 -0.99203,12.39061c0,10.73775 0.59553,16.78279 0.59553,27.52133c-2.05802,-0.25488 -3.37103,-0.25488 -5.2552,0.60814c-1.33817,0.60814 -2.67636,0.40673 -4.06411,0.60814c0,-6.52414 0,-31.65941 -0.89292,-34.22485c0,2.69053 -10.38138,27.21845 -12.88624,31.07646c-1.06678,1.64973 -3.32227,0.73477 -4.95782,-0.30446c-1.71109,-1.07857 -2.94306,-1.46799 -4.21674,-3.09176c-0.06922,0.08732 -0.08732,0.07867 0,0c0.72928,-0.91809 7.03865,-12.74463 7.78524,-13.97189c1.11476,-1.82752 1.58365,-2.99657 2.17997,-5.07819c1.23827,-4.26709 3.692,-6.06708 4.06412,-10.46239c0.34851,-4.06098 1.53879,-6.19296 1.68669,-10.25708c0.09991,-2.48678 -0.22499,-9.08803 -1.29019,-10.05332l-2.27829,12.18765c-2.55128,0 -4.13728,0.22892 -6.54224,-0.7104c0.79458,-4.97749 2.57568,-7.38874 3.37104,-12.28913c0.71668,-4.41813 1.3374,-6.95763 2.87383,-11.17202c0.91729,-2.53871 2.74954,-3.19952 4.85712,-4.87522c1.06363,-0.83784 2.00846,-0.68524 3.17201,-1.3201c0.91809,-0.50821 0.42244,-2.25941 1.48766,-2.33573c4.78397,-0.40594 7.31164,-2.03127 12.09483,-2.03127c0,3.91072 0.44607,3.42767 3.66841,5.48412c4.31273,2.74167 9.04633,7.31243 12.09483,11.47646c1.5616,2.13277 3.74237,3.24988 3.27034,5.89006c-0.37132,2.13276 -1.90854,2.15792 -3.66762,3.35136c-2.05724,1.39562 -3.51972,1.77796 -5.6509,3.04771c-1.63635,0.9645 -2.25627,2.23424 -4.0649,2.84394z" fill="#006b9e" stroke="none" stroke-width="1"/><path d="M231.99442,89.59472c2.55601,-1.08801 3.13817,-4.07907 5.90816,-4.07907c1.36099,0.45865 0.05113,0.40831 1.12971,1.35943c0.66398,0.57823 0.39808,1.39405 0.92911,2.10838c0.39808,0.54362 1.11162,0.42561 1.39405,1.01957c0.44763,0.91809 0.3965,1.7339 -0.06686,2.65277c-0.38154,0.76468 -0.74659,1.66546 -0.13294,2.24369c0.72927,0.69702 1.84009,0.26827 2.85416,0.20375c2.12411,-0.13611 1.54272,3.24673 0.26511,3.53546c-0.74659,0.17071 -1.39405,-0.2722 -1.92507,0.27219c-0.73085,0.74895 -0.15184,2.44037 -0.56721,3.42611c-0.63094,1.479 -2.0596,1.43966 -3.61885,1.26974c-1.75908,-0.18723 -3.74314,0.54124 -5.50223,0.60891c-0.63172,0.01732 -0.568,-0.88504 -0.73399,-1.49711c-0.29895,-1.12184 0.13294,-1.81887 0.13294,-2.99185c1.79212,-0.15263 3.5677,-0.08497 4.24743,-1.76774c-2.53871,-1.19028 -5.47547,-0.1188 -6.63744,-2.71963c0.4799,-0.23838 0.66398,-0.49326 0.99596,-0.88504c-0.99597,-1.15566 -2.35619,-1.8873 -1.99195,-3.39935c0.33277,-1.39405 2.0423,-0.81661 3.3199,-1.36023z" fill="#ba8743" stroke="none" stroke-width="1"/><path d="M238.13387,87.07886c-4.08144,0.03383 -4.7108,-4.24743 -4.18528,-5.74688c0.86223,-2.43643 3.51816,-1.42786 4.28126,-1.32639c0.19826,-2.31135 4.77845,-2.34596 5.43299,0.51607c4.32453,-1.53565 6.0836,2.85024 5.31972,4.78789c2.1902,0.13688 2.1359,2.22165 1.811,2.9942c2.64726,2.15636 2.3908,4.51885 -0.1007,6.72398c1.67569,2.72751 -0.7104,4.3969 -2.56546,4.33475c-0.00786,2.14142 -2.49701,3.59368 -5.26385,1.50104c-0.23679,0.68207 -0.10462,1.45383 -0.39963,2.11624c-0.91179,0.30052 -10.13434,1.86765 -10.64808,1.43889c-0.70882,-1.41844 -0.7214,-3.72033 -0.68758,-5.27014c1.52777,0.29423 3.01938,0.54438 4.47242,-1.25323c-1.98879,0.14318 -5.20878,-0.36975 -6.56269,-2.04858c-0.56487,-0.70333 0.61678,-1.2603 0.86695,-1.80864c-1.32954,-0.66949 -2.62445,-1.92743 -1.98959,-3.59051c0.63409,-1.66388 5.37163,-0.13926 7.02213,-4.25924c0.30053,0.47203 1.33977,0.32648 1.19894,1.05812c-1.82752,2.00926 -3.33721,2.50174 -5.93569,2.99421c-0.4917,0.09361 -0.98969,0.72612 -1.03217,1.22882c-0.08967,1.0825 2.06668,2.17603 2.83687,2.67086c-0.60733,0.82603 -1.1722,1.20051 -1.77088,1.64264c1.40269,0.87402 4.11682,1.63163 6.40615,1.63163c-1.02586,2.68423 -2.62052,2.76685 -4.23406,2.69918c-0.17621,0.89528 0.23209,3.12951 0.20534,4.05075c2.86282,0.06214 5.60056,-0.71118 8.57509,-1.26974c0.25097,-0.66713 0.11565,-1.87474 0.48067,-2.54265c-0.24782,-0.62622 -0.45786,-1.52857 -0.08181,-2.46161c1.19422,0.27219 2.74717,0.70646 3.4851,-0.71432c0.18409,-0.35559 0.12036,-0.95035 -0.20455,-1.22725c-1.11712,-0.94956 -2.35146,-0.2006 -3.26483,0.23916c-0.36424,-0.32569 0.2376,-0.5979 0.39964,-0.81896c-0.88032,-0.30052 -3.63065,-1.17848 -1.13285,-4.26631c-0.41066,-0.28321 -0.32255,-0.85672 -0.16599,-1.29649c-1.40663,-0.07473 -2.27122,-1.30829 -2.5686,-2.72751z" fill="#272525" stroke="none" stroke-width="1"/><path d="M236.77441,85.75242c-2.22401,-1.01958 -2.2901,-5.57538 1.99195,-3.5685c-0.03382,-3.26404 4.28126,-2.37978 3.86981,-0.09048c1.47193,-0.58688 2.75426,-0.10228 3.89734,0.8874c1.34449,1.16433 1.02745,2.33023 0.79536,3.31676c1.49239,-0.27219 2.12411,1.56396 1.39326,2.31212c1.06284,0.44135 2.19963,0.71827 2.42305,2.65199c0.16364,1.42 -1.24769,2.08713 -2.35618,3.05949c0.53024,0.68051 2.02341,3.0603 -1.16276,3.57007c-0.23208,0.95192 0.04721,1.85584 -0.86302,2.37978c-1.78897,1.0298 -4.18213,-0.13531 -4.4614,-1.55689c0.54519,0.3666 1.29257,0.45944 1.99824,0.34142c3.43871,-0.57665 1.9172,-6.40458 -1.99823,-4.02714c-1.12184,-0.94876 -0.8937,-2.90138 0.56564,-3.34508c-0.71668,-0.32018 -1.27209,-1.25795 -0.39963,-2.7991c-1.24693,0.3021 -2.8117,-0.70725 -3.13817,-2.48599c-0.3194,-1.73783 -1.36022,-0.09754 -2.55522,-0.64587z" fill="#553723" stroke="none" stroke-width="1"/><path d="M230.64051,103.78298c3.73843,0.54518 12.93502,-1.90541 13.62102,-2.10444c1.04239,-0.30446 0.04957,2.438 -0.29659,3.55512c5.88063,2.46474 12.17035,8.15578 15.84191,13.31028c0.86931,1.22018 4.59909,5.79014 3.31912,7.26365c-1.83853,2.11781 -10.42228,6.81209 -13.82399,9.90699c-0.5806,0.02595 -1.07937,-0.29423 -1.48216,-0.69467c-1.43889,1.10218 -0.9944,2.05645 -2.70706,1.25637l-0.69859,0.49326c1.04867,0.54047 2.95722,0.29816 2.23032,1.8818c-0.63644,1.37988 -3.12244,1.47035 -3.85171,1.02822c-0.7285,-0.44763 -1.03767,-0.66868 -1.16039,-1.42158c-0.26356,-1.62375 -1.67096,-0.29658 -2.39866,-1.63949c-0.38863,-0.71749 -0.0535,-1.65445 0.34693,-2.36169c-1.69378,-1.39326 0.08812,-3.80452 1.66546,-4.08852c-0.09677,-0.15026 -0.22815,-0.50742 -0.22815,-0.50742l1.65444,-0.85278c0,0 -0.16362,-0.78671 -0.03932,-1.14938c2.98633,-1.08565 6.02695,-2.01554 8.99048,-3.16964l-0.93461,-0.49562c-0.06686,-0.33041 0.12194,-0.60025 0.29029,-0.8583l-0.83706,-0.49484c0.39178,-1.1832 -1.29098,-1.62218 -1.93451,-2.21221c-2.10916,3.39306 -2.25706,4.86578 -2.50488,6.42267c-0.69231,0.06922 -1.22098,0.69386 -1.93372,0.627c-0.15812,-1.05811 2.84394,-8.0653 3.66448,-8.93147c0.88426,0.43977 3.79507,1.76301 4.18921,2.60872c0.09204,0.19589 -0.14633,0.62308 -0.16049,0.8583l1.38539,0.16442c-0.00787,0.44607 -0.32334,0.77255 -0.54755,1.12264c0.52631,0.50428 2.05409,1.35078 1.86843,1.48609c-1.10295,0.8048 -9.5569,3.70538 -9.40821,4.16325c0.33749,1.04003 3.33484,4.26788 4.22068,4.94917c1.86606,-1.6505 10.98399,-6.6571 13.3087,-8.15577c-1.78267,-7.21566 -13.59507,-16.94643 -19.88399,-19.64483c0.13531,-0.98024 0.47516,-1.93844 0.45079,-2.93835c-2.07769,0.6333 -4.16089,1.29178 -6.31645,1.58521c0,0 0.12744,3.12479 0.38627,4.58885c-0.27535,0.03541 -1.54982,1.57184 -1.86921,2.08084c-3.48275,5.551 -0.31154,19.28531 -0.06372,19.5465c0.72298,-0.02518 4.07592,0.12824 4.95861,0.22342c-0.05664,0.35954 -0.54755,0.91573 -0.84257,1.16669c-3.84069,0.14239 -8.67894,-0.16915 -12.49605,0.02753c0.32097,6.76016 -1.71109,14.64453 -4.09244,20.93189c-1.28863,3.39856 -10.26966,20.51571 -11.44184,21.79253c1.08881,0.91573 5.1254,2.7228 6.57451,3.23415c2.19413,-2.40496 3.89498,-5.26542 5.41411,-8.15421c2.59377,-4.92871 7.09372,-19.38443 7.67117,-21.23004c0.23601,-0.75209 0.61757,-2.95644 1.2249,-3.33406c1.11948,-0.69781 1.43416,2.91632 1.48137,3.56535c0.28951,3.90836 0.14869,31.0678 0.38785,31.6303c2.76054,-1.98801 4.23955,-2.71808 7.63812,-1.98251c-0.68365,-12.75644 -1.07307,-25.54985 0.48303,-38.26696c0.39178,-0.23601 0.87875,0.04484 1.2249,0.2305c-1.48767,13.32365 -0.63644,26.4624 0.32255,39.78449c-0.53261,0.48853 -1.04631,0.06136 -1.48294,0.23208c-0.27063,0.10542 -3.09804,7.60901 -8.18567,8.38471c-0.59002,0.09048 -1.29807,0.12587 -1.54666,-0.56093c-0.43584,-1.19344 1.88102,-6.45728 1.99745,-6.96549c-0.61835,0.40436 -1.29414,-0.03777 -1.86921,-0.29659c0.38469,-8.22658 0.31626,-30.13791 -0.06451,-32.65616c-1.19344,2.81326 -1.77796,5.90423 -2.86833,8.78279c-2.29797,6.07102 -7.1598,17.66705 -10.604,22.91439c-0.16599,0 -1.54903,-0.23523 -1.67883,-0.13217c-0.94091,0.76389 -0.57271,0.58138 -2.02812,0.99203c-2.26099,0.64037 -8.96137,1.59308 -11.05558,0.72534c-0.39335,-0.16207 -0.85278,-0.53104 -0.77333,-1.02351c0.29029,-1.7929 4.89096,-4.27969 6.3495,-5.15293c-0.36109,-0.24937 -0.93538,-0.37211 -0.8693,-0.95585c0.6333,-0.68443 1.36887,-1.52542 1.87,-2.31135c8.54519,-13.42042 15.812,-29.89718 14.2441,-46.25596c-0.36975,0.59475 -1.59703,8.77255 -2.73067,11.68494c-0.12273,0.30919 -0.89292,0.20455 -0.89292,0.20455l0.12273,1.52306l-0.52001,0.05035c0,0 0.04799,0.40751 0.1479,1.01564c3.22314,2.13433 1.04318,4.93736 -0.49641,4.16403c-0.4437,0.92281 -0.11249,3.03355 -1.68591,2.74089c-0.44843,-0.08261 -0.8882,-0.26983 -1.23042,-0.54834c-1.03373,0.9999 -2.60556,0.5806 -2.3845,-0.95742c-0.34221,-0.45315 -1.80391,0.58374 -2.19097,-0.85908c-0.48934,-1.81494 1.28076,-4.6518 2.41203,-5.93806c-0.1542,-0.09048 -0.52552,-0.20219 -0.52552,-0.20219l0.60025,-1.55216c0,0 -0.66949,-0.15184 -0.75288,-0.35323c-0.0834,-0.19982 2.89901,-11.02017 4.16325,-16.52082c1.39877,-6.06866 4.28126,-12.75644 10.66853,-14.42819c1.30751,-0.34142 0.39572,-1.68748 0.99991,-2.54184z" fill="#272525" stroke="none" stroke-width="1"/><path d="M235.43863,104.90164c-0.01888,1.0471 0.3674,2.28696 0.22815,3.33878c-5.16787,5.03806 -3.75022,16.47283 -1.71581,22.68545c-0.19825,0.02518 -0.50821,0.0126 -0.99203,-0.05034c-1.93293,-7.66881 -3.60153,-16.93464 1.93372,-22.40461c-0.00472,-1.14229 -0.32255,-2.29876 -0.29816,-3.44262c0.28086,-0.15262 0.49642,-0.0771 0.84414,-0.12667z" fill="#00a1e4" stroke="none" stroke-width="1"/><path d="M233.50568,105.07001c0.13767,0.82367 0.34142,2.27042 0.24545,3.10592c-5.89793,4.11211 -3.1775,18.01792 -1.63084,22.7122c-1.88888,-0.06451 -3.61727,0.00865 -5.4149,-0.16443c-0.46337,-3.8108 -1.16746,-7.84345 -2.70548,-11.39072c-0.1007,-0.22973 -0.32097,-0.55462 -0.61127,-0.49484l-0.32334,0.39572c0.19117,0.71905 1.46406,4.76429 1.38776,5.15057c-0.52394,2.61029 -2.2193,9.45543 -3.54647,11.88713c-0.5617,-0.06372 -4.55739,-0.01887 -4.50311,-0.16678c3.46937,-9.24222 3.57086,-24.17154 11.89577,-27.8785c1.11555,-0.49561 2.27516,-0.83469 3.41667,-1.254c0.17544,-0.79222 0.06059,-1.04159 0.18016,-1.83617z" fill="#006b9e" stroke="none" stroke-width="1"/><path d="M242.50166,130.62143c0.25725,-0.09991 0.77176,-0.45945 1.06127,-0.45945c0.74029,1.45461 1.83696,2.80697 3.09333,3.96342l-0.98259,1.04002c-1.38539,-1.12184 -2.52689,-2.85968 -3.172,-4.54401z" fill="#ffffff" stroke="none" stroke-width="1"/><path d="M240.01728,133.03578c-0.66242,-0.78986 0.85201,-1.91327 1.45067,-1.91485c0.76074,1.69221 1.56476,3.41352 2.93283,4.68799c-0.30524,0.37368 -0.82604,0.53417 -1.28863,0.46338c-0.08967,2.55207 2.79596,1.21939 2.73538,1.81415c-0.1243,1.22018 -1.99666,1.14072 -2.65199,0.76389c-0.793,-0.45785 -1.23042,-1.03136 -1.0652,-1.67646c0.41066,-1.61904 -1.34606,-0.5208 -1.78583,-1.34606c-0.35481,-0.67185 0.34772,-1.52463 0.73713,-2.09815c-0.4382,-0.18723 -0.77884,-0.35322 -1.06441,-0.69386z" fill="#ba8743" stroke="none" stroke-width="1"/><path d="M216.2068,138.89677l0.19667,-1.26896c1.36258,0.17702 2.67717,0.2541 3.86745,0.2541c0.02439,0.71277 0.02439,1.29492 0.02439,1.29492c0,0 -3.59288,-0.0244 -4.08851,-0.28007z" fill="#ffffff" stroke="none" stroke-width="1"/><path d="M214.47134,144.94261c-0.73635,-0.36267 1.46092,-4.76901 1.80156,-4.94366c0.92752,-0.03382 1.96676,0.37448 3.86114,0.23523l0.06451,1.19028c1.64893,0.74973 2.84788,2.31135 0.22421,2.60793c-0.37132,-0.17072 0.17701,-0.59318 -0.22421,-0.793c-1.25637,0.19666 -0.45628,2.00373 -1.16039,2.47498c-0.42326,0.28165 -1.24536,-0.72298 -1.24536,-0.72298c0,0 -0.34851,1.06836 -1.09825,0.9944c-0.7513,-0.07003 -0.42875,-2.02026 -0.42875,-2.02026c0,0 -1.05969,1.33976 -1.79448,0.97709z" fill="#ba8743" stroke="none" stroke-width="1"/><path d="M204.80588,181.04609c-0.51293,-1.00463 4.40083,-3.47016 7.04416,-4.1302c1.45067,0.85671 2.93127,1.74884 4.31901,2.54028c-3.64323,1.05655 -10.85105,2.59141 -11.36318,1.58993z" fill="#765b31" stroke="none" stroke-width="1"/><path d="M235.21598,181.37341c1.22018,-0.37212 3.70145,-1.23043 5.02705,-0.66242c-1.04946,2.82428 -5.23081,7.64678 -6.24173,7.24006c-1.01171,-0.4028 0,-3.96107 1.21468,-6.57766z" fill="#765b31" stroke="none" stroke-width="1"/><path d="M237.67995,92.38438c-1.25323,-1.5152 -3.054,-1.21468 -2.76371,-2.43172c1.1124,-0.686 3.54725,1.5089 2.76371,2.43172z" fill="#272525" stroke="none" stroke-width="1"/></g></g></svg>