<svg version="1.1" xmlns="http://www.w3.org/2000/svg" xmlns:xlink="http://www.w3.org/1999/xlink" width="208" height="200.5" viewBox="0,0,208,200.5"><defs><radialGradient cx="240" cy="132" r="104" gradientUnits="userSpaceOnUse" id="color-1"><stop offset="0" stop-color="#4b72b3"/><stop offset="1" stop-color="#4b72b3" stop-opacity="0"/></radialGradient><linearGradient x1="240.61953" y1="58.29926" x2="240.61953" y2="237.16749" gradientUnits="userSpaceOnUse" id="color-2"><stop offset="0" stop-color="#000000"/><stop offset="1" stop-color="#000000" stop-opacity="0"/></linearGradient><radialGradient cx="238.75" cy="133.5" r="58" gradientUnits="userSpaceOnUse" id="color-3"><stop offset="0" stop-color="#6bbeff" stop-opacity="0"/><stop offset="1" stop-color="#6bbeff"/></radialGradient><radialGradient cx="238.25" cy="133.84971" r="26" gradientUnits="userSpaceOnUse" id="color-4"><stop offset="0" stop-color="#6bd3ff" stop-opacity="0"/><stop offset="1" stop-color="#6bd3ff"/></radialGradient><radialGradient cx="237.8" cy="134.06108" r="34.13158" gradientUnits="userSpaceOnUse" id="color-5"><stop offset="0" stop-color="#6bd3ff"/><stop offset="1" stop-color="#6bd3ff" stop-opacity="0"/></radialGradient><linearGradient x1="238.52005" y1="109.50001" x2="238.52005" y2="136.9853" gradientUnits="userSpaceOnUse" id="color-6"><stop offset="0" stop-color="#6baeff"/><stop offset="1" stop-color="#6baeff" stop-opacity="0"/></linearGradient><linearGradient x1="238.27005" y1="131.25" x2="238.27005" y2="158.7353" gradientUnits="userSpaceOnUse" id="color-7"><stop offset="0" stop-color="#6baeff" stop-opacity="0"/><stop offset="1" stop-color="#6baeff"/></linearGradient><radialGradient cx="242.04911" cy="135.8155" r="14.77983" gradientUnits="userSpaceOnUse" id="color-8"><stop offset="0" stop-color="#6baeff" stop-opacity="0"/><stop offset="1" stop-color="#6baeff"/></radialGradient><radialGradient cx="233.60648" cy="134.67784" r="14.77983" gradientUnits="userSpaceOnUse" id="color-9"><stop offset="0" stop-color="#6baeff" stop-opacity="0"/><stop offset="1" stop-color="#6baeff"/></radialGradient><radialGradient cx="234.04678" cy="133.13397" r="14.77983" gradientUnits="userSpaceOnUse" id="color-10"><stop offset="0" stop-color="#6baeff" stop-opacity="0"/><stop offset="1" stop-color="#6baeff"/></radialGradient><radialGradient cx="241.98679" cy="132.38397" r="14.77983" gradientUnits="userSpaceOnUse" id="color-11"><stop offset="0" stop-color="#6baeff" stop-opacity="0"/><stop offset="1" stop-color="#6baeff"/></radialGradient></defs><g transform="translate(-136,-31.75)"><g data-paper-data="{&quot;isPaintingLayer&quot;:true}" fill-rule="nonzero" stroke-linecap="butt" stroke-linejoin="miter" stroke-miterlimit="10" stroke-dasharray="" stroke-dashoffset="0" style="mix-blend-mode: normal"><path d="M344,132c0,55.36655 -46.56239,100.25 -104,100.25c-57.43761,0 -104,-44.88345 -104,-100.25c0,-55.36655 46.56239,-100.25 104,-100.25c57.43761,0 104,44.88345 104,100.25z" fill="url(#color-1)" stroke="none" stroke-width="0"/><path d="M284.37023,179.70937c0.07585,1.88165 -6.82295,7.07192 -42.75929,7.07192c-35.93634,0 -45.96971,-4.43047 -45.98172,-7.45949c-0.01038,-2.6151 9.30175,-6.10294 45.23807,-6.10294c35.93634,0 43.43354,4.76932 43.50294,6.49051z" fill="url(#color-2)" stroke="none" stroke-width="0"/><text transform="translate(226.07985,206.06723) scale(0.357,0.357)" font-size="40" xml:space="preserve" fill="#ffffff" fill-rule="nonzero" stroke="#ffffff" stroke-width="0.5" stroke-linecap="butt" stroke-linejoin="miter" stroke-miterlimit="10" stroke-dasharray="" stroke-dashoffset="0" font-family="Handwriting" font-weight="normal" text-anchor="start" style="mix-blend-mode: normal"></text><text transform="translate(187.61052,58.49286) scale(0.34497,0.34497)" font-size="40" xml:space="preserve" fill="#ffffff" fill-rule="nonzero" stroke="#ffffff" stroke-width="1" stroke-linecap="butt" stroke-linejoin="miter" stroke-miterlimit="10" stroke-dasharray="" stroke-dashoffset="0" font-family="Handwriting" font-weight="normal" text-anchor="start" style="mix-blend-mode: normal"></text><path d="M287.25,134c0,24.06601 -25.47201,44.56948 -49,45.25c-23.52529,0.68045 -48.31183,-20.69161 -48.5,-44.75c-0.17654,-22.57086 22.03236,-48.71233 49,-49.25c23.57559,-0.47004 48.5,24.18399 48.5,48.75z" fill="url(#color-3)" stroke="none" stroke-width="0"/><path d="M264.25,133.84971c0,14.2764 -11.64059,25.84971 -26,25.84971c-14.35941,0 -26,-11.57331 -26,-25.84971c0,-14.2764 11.64059,-25.84971 26,-25.84971c14.35941,0 26,11.57331 26,25.84971z" fill="url(#color-4)" stroke="none" stroke-width="0"/><path d="M270.225,134.06108c0,18.19009 -14.51717,32.93608 -32.425,32.93608c-17.90783,0 -32.425,-14.74598 -32.425,-32.93608c0,-18.19009 14.51717,-32.93608 32.425,-32.93608c17.90783,0 32.425,14.74598 32.425,32.93608z" fill="url(#color-5)" stroke="none" stroke-width="0"/><path d="M249.54009,122.72406c0,8.16267 -4.33391,14.26124 -11.27934,14.26124c-6.94543,0 -10.76075,-5.32068 -10.76075,-13.48335c0,-8.16267 3.81532,-14.00194 10.76075,-14.00194c6.94543,0 11.27934,5.06138 11.27934,13.22406z" fill="url(#color-6)" stroke="none" stroke-width="0"/><path d="M238.01075,158.7353c-6.94544,0 -10.76075,-5.83927 -10.76075,-14.00194c0,-8.16268 3.81531,-13.48336 10.76075,-13.48336c6.94544,0 11.27935,6.09857 11.27935,14.26124c0,8.16268 -4.33391,13.22406 -11.27935,13.22406z" data-paper-data="{&quot;index&quot;:null}" fill="url(#color-7)" stroke="none" stroke-width="0"/><path d="M257.33141,149.84463c-4.76049,5.05736 -11.62744,3.83319 -17.57114,-1.7616c-5.94369,-5.5948 -7.20291,-12.0198 -2.44243,-17.07715c4.76049,-5.05736 12.1717,-4.03308 18.1154,1.56171c5.94369,5.5948 6.65865,12.21969 1.89816,17.27704z" data-paper-data="{&quot;index&quot;:null}" fill="url(#color-8)" stroke="none" stroke-width="0"/><path d="M219.11434,149.52179c-4.90867,-4.91365 -3.47406,-11.73975 2.30075,-17.5087c5.77481,-5.76895 12.23547,-6.83013 17.14415,-1.91648c4.90867,4.91365 3.65713,12.28989 -2.11768,18.05885c-5.77481,5.76895 -12.41854,6.27998 -17.32722,1.36633z" data-paper-data="{&quot;index&quot;:null}" fill="url(#color-9)" stroke="none" stroke-width="0"/><path d="M217.88207,120.13139c4.42052,-5.35705 11.35269,-4.58335 17.64861,0.61191c6.29592,5.19525 7.97148,11.52445 3.55096,16.88151c-4.42052,5.35705 -11.88276,4.81831 -18.17868,-0.37694c-6.29592,-5.19525 -7.44141,-11.75942 -3.02089,-17.11647z" data-paper-data="{&quot;index&quot;:null}" fill="url(#color-10)" stroke="none" stroke-width="0"/><path d="M255.13061,136.49786c-6.29592,5.19525 -13.75816,5.73399 -18.17869,0.37694c-4.42052,-5.35706 -2.74496,-11.68625 3.55096,-16.8815c6.29592,-5.19526 13.22809,-5.96897 17.64862,-0.61191c4.42052,5.35706 3.27503,11.92122 -3.02089,17.11647z" data-paper-data="{&quot;index&quot;:null}" fill="url(#color-11)" stroke="none" stroke-width="0"/><path d="M241.06863,133.625c0,1.63384 -1.24658,2.95833 -2.78432,2.95833c-1.53774,0 -2.78431,-1.32449 -2.78431,-2.95833c0,-1.63384 1.24658,-2.95833 2.78431,-2.95833c1.53774,0 2.78432,1.32449 2.78432,2.95833z" fill="#ffffff" stroke="none" stroke-width="0"/><text transform="translate(186.68818,76.43207) scale(0.26747,0.26747)" font-size="40" xml:space="preserve" fill="#ffffff" fill-rule="nonzero" stroke="#ffffff" stroke-width="1" stroke-linecap="butt" stroke-linejoin="miter" stroke-miterlimit="10" stroke-dasharray="" stroke-dashoffset="0" font-family="Handwriting" font-weight="normal" text-anchor="start" style="mix-blend-mode: normal"></text></g></g></svg>