<svg version="1.1" xmlns="http://www.w3.org/2000/svg" xmlns:xlink="http://www.w3.org/1999/xlink" width="141.60969" height="191.00694" viewBox="0,0,141.60969,191.00694"><defs><linearGradient x1="210.67821" y1="-7.39275" x2="210.67821" y2="269.49528" gradientUnits="userSpaceOnUse" id="color-1"><stop offset="0" stop-color="#000000"/><stop offset="1" stop-color="#000000" stop-opacity="0"/></linearGradient></defs><g transform="translate(-138.47877,-30.65395)"><g data-paper-data="{&quot;isPaintingLayer&quot;:true}" fill-rule="nonzero" stroke-linecap="butt" stroke-linejoin="miter" stroke-miterlimit="10" stroke-dasharray="" stroke-dashoffset="0" style="mix-blend-mode: normal"><path d="M258.58308,180.55001c0.08306,2.91279 -7.47079,10.94732 -46.81921,10.94732c-39.34842,0 -50.33445,-6.8584 -50.34761,-11.54727c-0.01137,-4.04815 10.18494,-9.44736 49.53336,-9.44736c39.34842,0 47.55747,7.38292 47.63346,10.04731z" fill="url(#color-1)" stroke="none" stroke-width="0"/><text transform="translate(183.76854,213.83834) scale(0.46015,0.46015)" font-size="40" xml:space="preserve" fill="#000000" fill-rule="nonzero" stroke="#000000" stroke-width="1" stroke-linecap="butt" stroke-linejoin="miter" stroke-miterlimit="10" stroke-dasharray="" stroke-dashoffset="0" font-family="Handwriting" font-weight="normal" text-anchor="start" style="mix-blend-mode: normal"></text><text transform="translate(168.75354,49.60417) scale(0.49869,0.49869)" font-size="40" xml:space="preserve" fill="#000000" fill-rule="nonzero" stroke="#000000" stroke-width="1" stroke-linecap="butt" stroke-linejoin="miter" stroke-miterlimit="10" stroke-dasharray="" stroke-dashoffset="0" font-family="Handwriting" font-weight="normal" text-anchor="start" style="mix-blend-mode: normal"></text><g stroke="none" stroke-width="0"><path d="M244.59605,132.58557c0,0.97115 32.93428,8.82899 32.80788,9.65294c-0.14995,0.97747 -33.38313,-5.08867 -33.66321,-4.01262c-0.24462,0.93986 22.54545,8.7055 22.23859,9.73987c-0.322,1.08539 -23.74321,-4.56185 -24.09479,-3.64611c-0.4453,1.15985 24.65717,14.72174 24.01751,15.6928c-0.65065,0.98774 -27.04477,-10.61642 -27.6534,-9.56073c-0.43349,0.7519 28.97334,20.83834 28.57677,21.64914c-0.6597,1.34874 -31.14237,-16.57509 -32.13521,-15.47165c-0.62759,0.69751 11.87384,13.79189 10.93186,14.31078c-0.85821,0.47275 -15.15854,-11.62726 -15.80327,-11.0701c-0.71022,0.61375 15.68695,20.86541 15.15213,21.5342c-0.72703,0.90915 -18.37861,-17.77594 -19.46985,-17.1219c-0.89055,0.53375 14.78167,23.51948 13.76388,23.97313c-1.91348,0.85287 -20.62175,-20.93227 -22.53151,-20.39804c-1.41853,0.39681 4.27463,18.51631 2.9147,18.71501c-1.24906,0.1825 -9.54449,-17.53954 -10.97859,-17.53954c-0.73786,0 -2.31969,15.45776 -3.32972,15.41327c-1.06609,-0.04696 -1.56181,-15.59867 -2.36449,-15.69371c-1.11212,-0.13169 -14.27508,20.42898 -15.12091,20.20843c-1.03062,-0.26872 10.27999,-21.33973 9.09506,-21.73375c-1.03586,-0.34445 -24.35918,15.32909 -25.44505,14.8941c-1.05073,-0.42092 20.13348,-16.94758 19.27262,-17.44879c-1.30266,-0.75844 -25.45776,6.57199 -26.51909,5.64237c-0.85507,-0.74897 21.37684,-9.72929 20.44085,-10.58043c-1.06425,-0.96776 -27.1903,2.0199 -28.13431,0.8422c-0.45477,-0.56736 24.2241,-5.24157 23.79923,-5.83789c-0.69809,-0.9798 -29.97898,0.05454 -30.59176,-0.9576c-0.34783,-0.57451 27.94256,-3.19422 27.62367,-3.76476c-0.64863,-1.1605 -29.40085,-5.84066 -30.05051,-7.037c-0.67781,-1.24817 26.75249,0.98561 26.35486,-0.31596c-0.52806,-1.72851 -23.25503,-6.72348 -23.3611,-8.57628c-0.08705,-1.52062 22.40415,0.12402 22.40415,-1.50138c0,-1.04053 -23.53471,-7.20237 -23.70166,-8.40041c-0.16107,-1.15564 23.04555,2.65265 23.03876,1.63259c-0.00948,-1.42395 -33.92867,-9.91746 -33.59898,-11.10169c0.18941,-0.68038 34.57725,5.94368 34.78062,5.22536c0.33029,-1.16652 -31.91894,-17.89818 -31.36115,-18.8149c0.51389,-0.84459 33.82061,14.11933 34.46272,13.21807c0.57052,-0.80075 -18.09803,-15.13236 -17.47267,-16.0231c0.69741,-0.99336 20.69274,11.45538 21.40095,10.6137c0.94889,-1.12772 -27.17855,-28.77545 -26.28898,-29.77805c0.56132,-0.63263 30.04883,25.30151 30.78618,24.7616c3.33626,-2.44297 -22.15342,-33.21422 -20.8004,-33.95056c0.81376,-0.44286 26.82243,30.65586 28.00847,29.7647c1.10589,-0.83092 -12.97907,-43.44108 -11.22887,-44.14975c1.63977,-0.66396 18.52433,40.95116 20.23892,40.61768c4.27285,0.03072 0.67631,-34.61686 2.32034,-34.58095c0.91163,0.01991 4.27685,34.24606 5.16704,34.34331c3.20796,0.3505 9.51101,-24.30901 10.40294,-24.20995c0.91658,0.10179 -5.50777,24.78961 -4.51771,24.99138c3.99102,1.64391 11.57829,-21.64419 12.87937,-21.26597c0.90921,0.26431 -7.42878,22.75912 -6.61764,23.08665c3.19483,1.00034 15.39005,-19.82119 16.13356,-19.47126c1.05208,0.49518 -11.62787,21.48567 -10.60222,22.07707c1.19011,0.68623 18.12267,-20.4709 19.2247,-19.66378c0.98726,0.72306 -13.84456,23.39887 -12.97088,24.21185c1.41991,1.32126 24.05268,-15.03277 24.76138,-13.94594c0.4783,0.7335 -20.95767,18.79457 -20.28807,19.91756c0.49226,0.82559 37.39515,-17.85823 37.90662,-16.45081c0.23735,0.65315 -36.00992,21.67568 -35.69958,22.04713c0.46904,0.56142 33.45536,-13.76441 33.98008,-13.17257c0.63043,0.7111 -31.21873,16.34941 -30.94257,17.14444c0.289,0.83202 37.67101,-13.62392 37.94219,-12.88742c0.31119,0.84519 -36.49368,16.88418 -36.24868,17.89751c0.28424,1.1757 26.79593,0.81967 26.92471,2.18242c0.07797,0.82506 -26.16644,3.39025 -26.16644,4.13411z" fill="#24b38b"/><path d="M166.68326,152.55346c0,0 -3.21289,-16.58872 -3.21289,-24.24278c0,-7.21631 3.21289,-20.44573 3.21289,-20.44573h86.1641c0,0 4.08915,13.80804 4.08915,20.7378c0,7.8511 -4.08915,23.95071 -4.08915,23.95071z" fill="#66ffa2"/><path d="M252.47698,152.36547c0.4863,3.03563 -40.93338,25.76165 -42.99127,24.51747c-1.80611,-1.0373 27.67626,-44.77098 29.57675,-45.03382c2.32778,-0.32193 12.9883,17.8557 13.41452,20.51635z" data-paper-data="{&quot;index&quot;:null}" fill="#3dcc8f"/><path d="M180.18164,131.26495c1.90048,0.26284 31.67494,43.70445 29.86883,44.74175c-2.05789,1.24418 -43.47757,-21.48185 -42.99127,-24.51748c0.42622,-2.66065 10.79467,-20.54621 13.12245,-20.22427z" data-paper-data="{&quot;index&quot;:null}" fill="#3dcc8f"/><path d="M239.0465,129.73042c2.22895,1.7965 -25.18689,46.9504 -28.47796,47.67854c-2.24979,0.49775 -31.94628,-45.93089 -30.3765,-47.40322c1.92273,-1.80336 56.90084,-1.8499 58.85446,-0.27531z" data-paper-data="{&quot;index&quot;:null}" fill="#24b38b"/><path d="M239.06793,131.06921c-1.90049,-0.28098 -29.63037,-49.17885 -27.82425,-50.28774c2.05789,-1.33006 42.60133,24.48557 42.11503,27.73073c-0.42622,2.84431 -11.963,22.90118 -14.29078,22.55701z" fill="#a6ffc9"/><path d="M166.18295,108.51219c-0.4863,-3.24516 42.39379,-28.47662 44.45169,-27.14656c1.80611,1.1089 -28.26043,49.42259 -30.16091,49.70357c-2.32778,0.34417 -13.86454,-19.7127 -14.29077,-22.55701z" data-paper-data="{&quot;index&quot;:null}" fill="#a6ffc9"/><path d="M180.48412,130.93942c-1.56978,-1.56205 28.71088,-50.18197 30.96067,-49.65389c3.29107,0.7725 30.12274,48.04 27.89379,49.94597c-1.95362,1.67052 -56.93173,1.62116 -58.85446,-0.29208z" fill="#66ffa2"/></g></g></g></svg>