<svg version="1.1" xmlns="http://www.w3.org/2000/svg" xmlns:xlink="http://www.w3.org/1999/xlink" width="138.12436" height="176.87964" viewBox="0,0,138.12436,176.87964"><defs><linearGradient x1="229.57776" y1="-158.88227" x2="229.57776" y2="332.07542" gradientUnits="userSpaceOnUse" id="color-1"><stop offset="0" stop-color="#000000"/><stop offset="1" stop-color="#000000" stop-opacity="0"/></linearGradient></defs><g transform="translate(-156.08508,-42.46178)"><g data-paper-data="{&quot;isPaintingLayer&quot;:true}" fill-rule="nonzero" stroke-linecap="butt" stroke-linejoin="miter" stroke-miterlimit="10" stroke-dasharray="" stroke-dashoffset="0" style="mix-blend-mode: normal"><path d="M285.92093,174.36414c0.09769,5.16475 -8.78675,19.41098 -55.06627,19.41098c-46.27952,0 -59.20071,-12.16081 -59.21619,-20.47478c-0.01337,-7.17789 11.97899,-16.75137 58.25851,-16.75137c46.27952,0 55.93458,13.09086 56.02395,17.81516z" fill="url(#color-1)" stroke="none" stroke-width="0"/><text transform="translate(204.29168,211.51887) scale(0.46015,0.46015)" font-size="40" xml:space="preserve" fill="#000000" fill-rule="nonzero" stroke="#000000" stroke-width="1" stroke-linecap="butt" stroke-linejoin="miter" stroke-miterlimit="10" stroke-dasharray="" stroke-dashoffset="0" font-family="Handwriting" font-weight="normal" text-anchor="start" style="mix-blend-mode: normal"></text><text transform="translate(161.57681,59.66476) scale(0.45271,0.45271)" font-size="40" xml:space="preserve" fill="#000000" fill-rule="nonzero" stroke="#000000" stroke-width="1" stroke-linecap="butt" stroke-linejoin="miter" stroke-miterlimit="10" stroke-dasharray="" stroke-dashoffset="0" font-family="Handwriting" font-weight="normal" text-anchor="start" style="mix-blend-mode: normal"></text><g stroke="none" stroke-width="0"><path d="M294.00797,142.08635c-1.57777,16.65789 -17.73539,48.00726 -38.4864,44.18057c-12.47566,-2.30065 -35.31423,-0.69862 -35.31423,-0.69862c0,0 -2.66614,-5.92108 -3.96511,-6.15926c-11.11397,-2.03783 -20.54266,-4.12364 -26.01013,-5.21676c-4.84727,-0.96911 -14.11362,-1.58904 -14.11362,-1.58904c0,0 -1.05136,-7.22766 -1.96957,-8.21065c-10.3048,-11.03178 -19.78155,-32.63851 -17.79933,-51.3938c2.24054,-21.19941 15.90937,-33.49154 29.62609,-37.45559c1.28413,-0.37111 4.26617,-3.83641 4.26617,-3.83641c0,0 5.66362,3.12558 8.59922,3.7125c6.1165,1.22288 17.94998,3.07422 31.92051,5.18167c1.56815,0.23655 3.64917,-4.33682 3.64917,-4.33682c0,0 19.58486,7.80554 28.96128,9.21539c22.8857,3.44111 32.37731,38.22193 30.63596,56.60683z" fill="#4f3d36"/><path d="M219.70265,185.48725c0,0 7.65105,-16.06843 8.71482,-23.50257c0.45745,-3.19685 -15.99229,-24.68582 -15.45776,-30.51374c0.9084,-9.90421 17.05696,-18.77886 21.16511,-27.09012c6.10682,-12.35483 0.09251,-28.43251 0.09251,-28.43251c0,0 35.28739,10.73841 33.17641,10.88907c-21.60735,1.54216 -35.10529,28.59275 -35.1806,47.33538c-0.07096,17.65931 7.09581,50.64165 26.13249,52.74043c1.33498,0.14718 -38.64298,-1.42595 -38.64298,-1.42595z" fill="#917165"/><path d="M175.2161,173.56112c0,0 8.02805,-11.92022 9.09183,-19.35435c0.45745,-3.19685 -15.9923,-24.68582 -15.45777,-30.51374c0.9084,-9.90421 17.05697,-18.77886 21.16511,-27.09012c6.10682,-12.35483 0.09251,-25.71024 0.09251,-25.71024c0,0 35.28739,8.79394 33.17641,8.9446c-10.24994,0.73156 -6.23388,14.20341 -12.26693,22.80544c-6.68489,9.53145 -22.87409,13.90051 -22.91367,23.75215c-0.0318,7.91477 10.0614,15.27788 13.35441,25.18869c4.05431,12.20202 2.27349,26.39362 12.77808,27.55174c0.81548,0.0899 -39.01998,-5.57416 -39.01998,-5.57416z" fill="#917165"/><path d="M290.57952,137.52633c0,24.00457 -17.34103,42.93408 -28.51831,43.99418c-14.22656,1.3493 -23.50834,-18.39946 -23.50834,-42.40403c0,-24.00458 11.56029,-43.46413 25.82063,-43.46413c14.26034,0 26.20601,17.86941 26.20601,41.87398z" fill="#917f79"/><path d="M267.72361,120.47686c0,5.15475 -2.59515,9.33349 -5.79645,9.33349c-3.20129,0 -5.79645,-4.17874 -5.79645,-9.33349c0,-5.15475 2.59516,-9.33349 5.79645,-9.33349c3.20129,0 5.79645,4.17875 5.79645,9.33349z" fill="#917165"/><path d="M283.84056,137.39382c0,4.83257 -1.96219,8.75015 -4.38268,8.75015c-2.42049,0 -4.38268,-3.91757 -4.38268,-8.75015c0,-4.83257 1.96219,-8.75015 4.38268,-8.75015c2.42049,0 4.38268,3.91758 4.38268,8.75015z" fill="#917165"/><path d="M253.58594,151.78296c0,5.04736 -2.15208,9.13905 -4.80681,9.13905c-2.65472,0 -4.80681,-4.09169 -4.80681,-9.13905c0,-5.04736 2.15209,-9.13905 4.80681,-9.13905c2.65472,0 4.80681,4.09169 4.80681,9.13905z" fill="#917165"/><path d="M274.5097,154.31078c0,5.79908 -2.53186,10.50019 -5.65507,10.50019c-3.12321,0 -5.65507,-4.7011 -5.65507,-10.50019c0,-5.79908 2.53186,-10.50018 5.65507,-10.50018c3.12321,0 5.65507,4.7011 5.65507,10.50018z" fill="#917165"/><path d="M263.19955,171.22774c0,3.97345 -1.8356,7.19457 -4.09992,7.19457c-2.26432,0 -4.09992,-3.22112 -4.09992,-7.19457c0,-3.97345 1.8356,-7.19457 4.09992,-7.19457c2.26432,0 4.09992,3.22112 4.09992,7.19457z" fill="#917165"/><path d="M284.68882,156.25526c0,3.22172 -1.32923,5.83344 -2.96891,5.83344c-1.63968,0 -2.96892,-2.61172 -2.96892,-5.83344c0,-3.22172 1.32924,-5.83343 2.96892,-5.83343c1.63968,0 2.96891,2.61171 2.96891,5.83343z" fill="#917165"/><path d="M281.86129,115.22677c0,4.83258 -2.08878,8.75015 -4.66543,8.75015c-2.57665,0 -4.66544,-3.91757 -4.66544,-8.75015c0,-4.83258 2.08879,-8.75016 4.66544,-8.75016c2.57665,0 4.66543,3.91758 4.66543,8.75016z" fill="#917165"/><path d="M266.30985,138.36606c0,2.14781 -1.20263,3.88895 -2.68616,3.88895c-1.48352,0 -2.68616,-1.74114 -2.68616,-3.88895c0,-2.14781 1.20264,-3.88896 2.68616,-3.88896c1.48352,0 2.68616,1.74115 2.68616,3.88896z" fill="#917165"/><path d="M257.54449,132.72707c0,4.40302 -2.21538,7.97236 -4.94819,7.97236c-2.7328,0 -4.94819,-3.56935 -4.94819,-7.97236c0,-4.40302 2.21539,-7.97236 4.94819,-7.97236c2.7328,0 4.94819,3.56934 4.94819,7.97236z" fill="#917165"/><path d="M269.42013,105.11548c0,2.2552 -1.07604,4.0834 -2.4034,4.0834c-1.32736,0 -2.40341,-1.8282 -2.40341,-4.0834c0,-2.2552 1.07604,-4.0834 2.40341,-4.0834c1.32736,0 2.4034,1.8282 2.4034,4.0834z" fill="#917165"/><path d="M254.4342,112.8934c0,2.68476 -1.26594,4.86119 -2.82754,4.86119c-1.5616,0 -2.82753,-2.17643 -2.82753,-4.86119c0,-2.68476 1.26593,-4.86119 2.82753,-4.86119c1.5616,0 2.82754,2.17643 2.82754,4.86119z" fill="#917165"/></g></g></g></svg>