<svg version="1.1" xmlns="http://www.w3.org/2000/svg" xmlns:xlink="http://www.w3.org/1999/xlink" width="121.12759" height="173.18935" viewBox="0,0,121.12759,173.18935"><defs><linearGradient x1="240.61954" y1="58.29928" x2="240.61954" y2="237.16751" gradientUnits="userSpaceOnUse" id="color-1"><stop offset="0" stop-color="#000000"/><stop offset="1" stop-color="#000000" stop-opacity="0"/></linearGradient><radialGradient cx="235.81633" cy="101.0891" r="26.46321" gradientUnits="userSpaceOnUse" id="color-2"><stop offset="0" stop-color="#23c100"/><stop offset="1" stop-color="#23c100" stop-opacity="0"/></radialGradient><radialGradient cx="213.5058" cy="145.79579" r="30.21813" gradientUnits="userSpaceOnUse" id="color-3"><stop offset="0" stop-color="#23c100"/><stop offset="1" stop-color="#23c100" stop-opacity="0"/></radialGradient><radialGradient cx="222.97409" cy="124.84773" r="17.52218" gradientUnits="userSpaceOnUse" id="color-4"><stop offset="0" stop-color="#23c100"/><stop offset="1" stop-color="#23c100" stop-opacity="0"/></radialGradient><radialGradient cx="267.1128" cy="143.79571" r="19.68608" gradientUnits="userSpaceOnUse" id="color-5"><stop offset="0" stop-color="#23c100"/><stop offset="1" stop-color="#23c100" stop-opacity="0"/></radialGradient><radialGradient cx="256.5458" cy="124.54059" r="13.76802" gradientUnits="userSpaceOnUse" id="color-6"><stop offset="0" stop-color="#23c100"/><stop offset="1" stop-color="#23c100" stop-opacity="0"/></radialGradient><radialGradient cx="202.90415" cy="93.60724" r="10.90714" gradientUnits="userSpaceOnUse" id="color-7"><stop offset="0" stop-color="#23c100"/><stop offset="1" stop-color="#23c100" stop-opacity="0"/></radialGradient><radialGradient cx="239.02286" cy="77.51475" r="11.26475" gradientUnits="userSpaceOnUse" id="color-8"><stop offset="0" stop-color="#23c100"/><stop offset="1" stop-color="#23c100" stop-opacity="0"/></radialGradient><radialGradient cx="208.25001" cy="153.53417" r="7.58333" gradientUnits="userSpaceOnUse" id="color-9"><stop offset="0" stop-color="#cc3516"/><stop offset="1" stop-color="#cc3516" stop-opacity="0"/></radialGradient><radialGradient cx="208.21277" cy="153.73792" r="5.24716" gradientUnits="userSpaceOnUse" id="color-10"><stop offset="0" stop-color="#bd3b21"/><stop offset="1" stop-color="#bd3b21" stop-opacity="0"/></radialGradient><radialGradient cx="208.66988" cy="153.80646" r="5.37245" gradientUnits="userSpaceOnUse" id="color-11"><stop offset="0" stop-color="#b27e2e"/><stop offset="1" stop-color="#b27e2e" stop-opacity="0"/></radialGradient><radialGradient cx="206.47013" cy="157.39385" r="1.81292" gradientUnits="userSpaceOnUse" id="color-12"><stop offset="0" stop-color="#ff4a32"/><stop offset="1" stop-color="#ff4a32" stop-opacity="0"/></radialGradient><radialGradient cx="204.30717" cy="156.20696" r="2.27721" gradientUnits="userSpaceOnUse" id="color-13"><stop offset="0" stop-color="#ff2f14"/><stop offset="1" stop-color="#ff2f14" stop-opacity="0"/></radialGradient><radialGradient cx="204.25792" cy="152.834" r="2.85205" gradientUnits="userSpaceOnUse" id="color-14"><stop offset="0" stop-color="#ff2002"/><stop offset="1" stop-color="#ff2002" stop-opacity="0"/></radialGradient><radialGradient cx="205.7134" cy="150.98244" r="1.9919" gradientUnits="userSpaceOnUse" id="color-15"><stop offset="0" stop-color="#ff4027"/><stop offset="1" stop-color="#ff4027" stop-opacity="0"/></radialGradient><radialGradient cx="210.67442" cy="151.57098" r="2.12245" gradientUnits="userSpaceOnUse" id="color-16"><stop offset="0" stop-color="#ff4830"/><stop offset="1" stop-color="#ff4830" stop-opacity="0"/></radialGradient><radialGradient cx="208.6406" cy="153.69476" r="5.29895" gradientUnits="userSpaceOnUse" id="color-17"><stop offset="0" stop-color="#e6b629"/><stop offset="1" stop-color="#e6b629" stop-opacity="0"/></radialGradient><radialGradient cx="206.98481" cy="154.727" r="2.99963" gradientUnits="userSpaceOnUse" id="color-18"><stop offset="0" stop-color="#e6c338"/><stop offset="1" stop-color="#e6c338" stop-opacity="0"/></radialGradient><radialGradient cx="210.02473" cy="151.4597" r="1.96051" gradientUnits="userSpaceOnUse" id="color-19"><stop offset="0" stop-color="#e6c338"/><stop offset="1" stop-color="#e6c338" stop-opacity="0"/></radialGradient><radialGradient cx="208.26467" cy="154.01486" r="2.20639" gradientUnits="userSpaceOnUse" id="color-20"><stop offset="0" stop-color="#ffffff"/><stop offset="1" stop-color="#ffffff" stop-opacity="0"/></radialGradient><radialGradient cx="237.00001" cy="96.08333" r="7.83333" gradientUnits="userSpaceOnUse" id="color-21"><stop offset="0" stop-color="#a9e7ff"/><stop offset="1" stop-color="#a9e7ff" stop-opacity="0"/></radialGradient><radialGradient cx="236.66668" cy="95.58333" r="5.5" gradientUnits="userSpaceOnUse" id="color-22"><stop offset="0" stop-color="#ffffff"/><stop offset="1" stop-color="#ffffff" stop-opacity="0"/></radialGradient><radialGradient cx="270.50001" cy="144.25" r="4.25" gradientUnits="userSpaceOnUse" id="color-23"><stop offset="0" stop-color="#ffffff"/><stop offset="1" stop-color="#ffffff" stop-opacity="0"/></radialGradient><radialGradient cx="207.66668" cy="153.08333" r="7.83333" gradientUnits="userSpaceOnUse" id="color-24"><stop offset="0" stop-color="#ffffff"/><stop offset="1" stop-color="#ffffff" stop-opacity="0"/></radialGradient></defs><g transform="translate(-180.19949,-35.47717)"><g data-paper-data="{&quot;isPaintingLayer&quot;:true}" fill-rule="nonzero" stroke-linecap="butt" stroke-linejoin="miter" stroke-miterlimit="10" stroke-dasharray="" stroke-dashoffset="0" style="mix-blend-mode: normal"><path d="M284.37023,179.70939c0.07585,1.88165 -6.82295,7.07192 -42.75929,7.07192c-35.93634,0 -45.96971,-4.43047 -45.98172,-7.45949c-0.01038,-2.6151 9.30175,-6.10294 45.23807,-6.10294c35.93634,0 43.43354,4.76932 43.50294,6.49051z" fill="url(#color-1)" stroke="none" stroke-width="0"/><text transform="translate(226.79697,202.68677) scale(0.357,0.357)" font-size="40" xml:space="preserve" fill="#ffffff" fill-rule="nonzero" stroke="#ffffff" stroke-width="0.5" stroke-linecap="butt" stroke-linejoin="miter" stroke-miterlimit="10" stroke-dasharray="" stroke-dashoffset="0" font-family="Handwriting" font-weight="normal" text-anchor="start" style="mix-blend-mode: normal"></text><text transform="translate(180.37198,48.58603) scale(0.34497,0.34497)" font-size="40" xml:space="preserve" fill="#ffffff" fill-rule="nonzero" stroke="#ffffff" stroke-width="1" stroke-linecap="butt" stroke-linejoin="miter" stroke-miterlimit="10" stroke-dasharray="" stroke-dashoffset="0" font-family="Handwriting" font-weight="normal" text-anchor="start" style="mix-blend-mode: normal"></text><g stroke="none" stroke-width="0"><path d="M260.24969,111.25337c-4.98618,11.986 -19.96746,17.15187 -33.46163,11.53829c-13.49417,-5.61357 -20.39126,-19.88085 -15.40509,-31.86685c4.98618,-11.986 19.96747,-17.15187 33.46164,-11.53829c13.49417,5.61357 20.39126,19.88085 15.40508,31.86685z" fill="url(#color-2)"/><path d="M241.40605,157.4023c-5.57565,13.403 -22.58697,19.07186 -37.99586,12.66176c-15.40888,-6.4101 -23.3803,-22.47178 -17.80465,-35.87477c5.57564,-13.403 22.58697,-19.07186 37.99585,-12.66177c15.40888,6.4101 23.3803,22.47179 17.80466,35.87478z" fill="url(#color-3)"/><path d="M244.90826,133.97235c-3.40058,8.17448 -22.48735,15.08157 -31.42229,11.36463c-8.93495,-3.71694 -13.97401,-21.30343 -10.57342,-29.47791c3.40058,-8.17448 20.43271,-14.00712 29.36766,-10.29018c8.93494,3.71694 16.02864,20.22898 12.62805,28.40346z" fill="url(#color-4)"/><path d="M286.79888,143.79571c0,10.0418 -8.81376,18.18229 -19.68608,18.18229c-10.87232,0 -19.68608,-8.14049 -19.68608,-18.18229c0,-10.0418 8.81376,-18.18228 19.68608,-18.18228c10.87232,0 19.68608,8.14048 19.68608,18.18228z" fill="url(#color-5)"/><path d="M270.31381,124.54059c0,6.91261 -6.16415,12.51638 -13.76802,12.51638c-7.60387,0 -13.76803,-5.60377 -13.76803,-12.51638c0,-6.91261 6.16416,-12.51639 13.76803,-12.51639c7.60387,0 13.76802,5.60378 13.76802,12.51639z" fill="url(#color-6)"/><path d="M213.81129,93.60724c0,5.62884 -4.88329,10.19191 -10.90714,10.19191c-6.02384,0 -10.90714,-4.56307 -10.90714,-10.19191c0,-5.62884 4.88329,-10.19192 10.90714,-10.19192c6.02384,0 10.90714,4.56308 10.90714,10.19192z" fill="url(#color-7)"/><path d="M249.93,77.51475c0,6.22135 -4.88329,11.26474 -10.90713,11.26474c-6.02384,0 -10.90713,-5.04339 -10.90713,-11.26474c0,-6.22135 4.88329,-11.26475 10.90713,-11.26475c6.02384,0 10.90713,5.0434 10.90713,11.26475z" fill="url(#color-8)"/></g><path d="M215.83334,153.53417c0,3.52698 -3.39517,6.38616 -7.58333,6.38616c-4.18816,0 -7.58333,-2.85918 -7.58333,-6.38616c0,-3.52698 3.39517,-6.38616 7.58333,-6.38616c4.18816,0 7.58333,2.85918 7.58333,6.38616z" fill="url(#color-9)" stroke="none" stroke-width="0"/><path d="M213.45994,153.73792c0,2.04993 -2.34923,3.71172 -5.24716,3.71172c-2.89793,0 -5.24716,-1.6618 -5.24716,-3.71172c0,-2.04993 2.34923,-3.71171 5.24716,-3.71171c2.89793,0 5.24716,1.66179 5.24716,3.71171zM208.27173,156.19625c2.10675,-0.04003 3.62165,-1.20816 3.56689,-2.51468c-0.05369,-1.28101 -2.34601,-2.01339 -3.56689,-1.99619c-1.84008,0.02593 -3.33106,1.00014 -3.33106,2.07396c0,1.07383 1.60997,2.46962 3.33106,2.4369z" fill="url(#color-10)" stroke="none" stroke-width="0"/><path d="M214.04233,153.80646c0,2.45163 -2.40533,4.43906 -5.37245,4.43906c-2.96712,0 -5.37244,-1.98744 -5.37244,-4.43906c0,-2.45163 2.40533,-4.43907 5.37244,-4.43907c2.96712,0 5.37245,1.98744 5.37245,4.43907z" fill="url(#color-11)" stroke="none" stroke-width="0"/><path d="M208.21673,157.39385c0,0.88054 -0.78198,1.59436 -1.7466,1.59436c-0.96462,0 -1.7466,-0.71382 -1.7466,-1.59436c0,-0.88054 0.78198,-1.59436 1.7466,-1.59436c0.96462,0 1.7466,0.71382 1.7466,1.59436z" fill="url(#color-12)" stroke="none" stroke-width="0"/><path d="M206.56227,156.20696c0,1.10604 -1.00964,2.00267 -2.2551,2.00267c-1.24546,0 -2.2551,-0.89663 -2.2551,-2.00267c0,-1.10604 1.00964,-2.00268 2.2551,-2.00268c1.24546,0 2.2551,0.89663 2.2551,2.00268z" fill="url(#color-13)" stroke="none" stroke-width="0"/><path d="M207.10996,152.834c0,1.32893 -1.2769,2.40624 -2.85204,2.40624c-1.57514,0 -2.85205,-1.07731 -2.85205,-2.40624c0,-1.32893 1.2769,-2.40624 2.85205,-2.40624c1.57514,0 2.85204,1.07731 2.85204,2.40624z" fill="url(#color-14)" stroke="none" stroke-width="0"/><path d="M207.65898,150.98244c0,0.96747 -0.87107,1.75176 -1.94558,1.75176c-1.07451,0 -1.94557,-0.78429 -1.94557,-1.75176c0,-0.96747 0.87106,-1.75176 1.94557,-1.75176c1.07451,0 1.94558,0.78429 1.94558,1.75176z" fill="url(#color-15)" stroke="none" stroke-width="0"/><path d="M212.73054,151.57098c0,1.03088 -0.92056,1.86657 -2.05612,1.86657c-1.13557,0 -2.05612,-0.83569 -2.05612,-1.86657c0,-1.03088 0.92056,-1.86657 2.05612,-1.86657c1.13557,0 2.05612,0.83569 2.05612,1.86657z" fill="url(#color-16)" stroke="none" stroke-width="0"/><path d="M213.93955,153.69476c0,2.54029 -2.37243,4.59959 -5.29895,4.59959c-2.92652,0 -5.29894,-2.0593 -5.29894,-4.59959c0,-2.54028 2.37242,-4.59958 5.29894,-4.59958c2.92652,0 5.29895,2.0593 5.29895,4.59958z" fill="url(#color-17)" stroke="none" stroke-width="0"/><path d="M209.98444,154.727c0,1.43801 -1.34298,2.60374 -2.99963,2.60374c-1.65665,0 -2.99962,-1.16573 -2.99962,-2.60374c0,-1.438 1.34297,-2.60374 2.99962,-2.60374c1.65665,0 2.99963,1.16574 2.99963,2.60374z" fill="url(#color-18)" stroke="none" stroke-width="0"/><path d="M211.98524,151.4597c0,0.93986 -0.92197,2.05174 -2.00473,2.05174c-1.08276,0 -2.57956,-1.18966 -2.57956,-2.12951c0,-0.93986 1.54102,-1.62399 2.62378,-1.62399c1.08276,0 1.96051,0.7619 1.96051,1.70176z" fill="url(#color-19)" stroke="none" stroke-width="0"/><path d="M211.14257,154.05704c0,1.04653 -1.61137,2.31673 -2.82993,2.31673c-1.21856,0 -2.82994,-1.35457 -2.82994,-2.4011c0,-1.04653 1.56341,-2.27455 2.78197,-2.27455c1.21856,0 2.87789,1.31239 2.87789,2.35891z" fill="url(#color-20)" stroke="none" stroke-width="0"/><path d="M244.83334,96.08333c0,1.28866 -3.5071,2.33333 -7.83333,2.33333c-4.32623,0 -7.83333,-1.04467 -7.83333,-2.33333c0,-1.28866 3.5071,-2.33333 7.83333,-2.33333c4.32623,0 7.83333,1.04467 7.83333,2.33333z" fill="url(#color-21)" stroke="none" stroke-width="0"/><path d="M242.16668,95.58333c0,2.48528 -2.46243,4.5 -5.5,4.5c-3.03757,0 -5.5,-2.01472 -5.5,-4.5c0,-2.48528 2.46243,-4.5 5.5,-4.5c3.03757,0 5.5,2.01472 5.5,4.5z" fill="url(#color-22)" stroke="none" stroke-width="0"/><path d="M274.25001,144.25c0,2.34721 -1.67893,4.25 -3.75,4.25c-2.07107,0 -3.75,-1.90279 -3.75,-4.25c0,-2.34721 1.67893,-4.25 3.75,-4.25c2.07107,0 3.75,1.90279 3.75,4.25z" fill="url(#color-23)" stroke="none" stroke-width="0"/><path d="M215.50001,153.08333c0,4.23418 -3.5071,7.66667 -7.83333,7.66667c-4.32623,0 -7.83333,-3.43248 -7.83333,-7.66667c0,-4.23418 3.5071,-7.66667 7.83333,-7.66667c4.32623,0 7.83333,3.43248 7.83333,7.66667z" fill="url(#color-24)" stroke="none" stroke-width="0"/></g></g></svg>