<svg version="1.1" xmlns="http://www.w3.org/2000/svg" xmlns:xlink="http://www.w3.org/1999/xlink" width="87.26313" height="171.15216" viewBox="0,0,87.26313,171.15216"><defs><linearGradient x1="256.50174" y1="110.83295" x2="256.50174" y2="213.47022" gradientUnits="userSpaceOnUse" id="color-1"><stop offset="0" stop-color="#000000"/><stop offset="1" stop-color="#000000" stop-opacity="0"/></linearGradient></defs><g transform="translate(-214.2003,-48.37804)"><g data-paper-data="{&quot;isPaintingLayer&quot;:true}" fill-rule="nonzero" stroke-linecap="butt" stroke-linejoin="miter" stroke-miterlimit="10" stroke-dasharray="" stroke-dashoffset="0" style="mix-blend-mode: normal"><path d="M280.16955,180.49987c0.04104,1.07971 -3.691,4.05797 -23.13142,4.05797c-19.44043,0 -24.86815,-2.54227 -24.87466,-4.28037c-0.00561,-1.50058 5.03195,-3.50196 24.47237,-3.50196c19.44043,0 23.49617,2.73672 23.53372,3.72436z" fill="url(#color-1)" stroke="none" stroke-width="0"/><text transform="translate(244.06039,211.70765) scale(0.46015,0.46015)" font-size="40" xml:space="preserve" fill="#000000" fill-rule="nonzero" stroke="#000000" stroke-width="1" stroke-linecap="butt" stroke-linejoin="miter" stroke-miterlimit="10" stroke-dasharray="" stroke-dashoffset="0" font-family="Handwriting" font-weight="normal" text-anchor="start" style="mix-blend-mode: normal"></text><text transform="translate(214.43037,65.86374) scale(0.46015,0.46015)" font-size="40" xml:space="preserve" fill="#000000" fill-rule="nonzero" stroke="#000000" stroke-width="1" stroke-linecap="butt" stroke-linejoin="miter" stroke-miterlimit="10" stroke-dasharray="" stroke-dashoffset="0" font-family="Handwriting" font-weight="normal" text-anchor="start" style="mix-blend-mode: normal"></text><g stroke="none"><path d="M270.37186,158.44878c0.17393,0.39366 2.3092,2.38867 3.79279,3.68482c0.36901,0.93292 5.18387,6.32369 4.41272,6.38282c-0.77725,0.05959 -6.33011,-2.27679 -6.77116,-3.53561c-1.36777,-1.34363 -2.46301,-4.78917 -2.64026,-5.12957c-1.29159,-2.48028 -9.4306,-9.93684 -11.13883,-15.80942c-3.22994,-11.10388 0.42361,-25.54292 1.16054,-25.84233c0.79285,-0.32213 -2.40414,13.8433 0.54299,25.61434c1.67641,6.69569 9.76775,12.65799 10.64121,14.63494z" fill="#d15a22" stroke-width="0"/><path d="M252.51453,118.63515c0.19221,-0.95341 0.6247,-1.82605 0.92905,-2.74715c0.3524,-1.06656 0.43248,-2.16542 0.62471,-3.28045c0.22424,-1.34128 0.97709,-2.32703 1.29748,-3.65213c0.3168,-1.29439 2.56209,-4.14424 5.67222,-3.39279c2.88102,0.69609 2.77153,5.49617 2.27609,7.04184c-0.88625,2.88454 -2.24586,6.7579 -2.85455,7.12956c0,0 -2.05032,1.40593 -4.74137,0.93729c-2.69107,-0.46864 -3.20364,-2.03615 -3.20364,-2.03615z" fill="#dc6629" stroke-width="1"/><g stroke-width="1"><path d="M260.34294,110.5301c1.5202,-0.18405 2.108,1.75855 0.56754,2.43333c-1.52017,0.65434 -2.08772,-2.24931 -0.56754,-2.43333z" fill="#d25d24"/><path d="M260.42401,110.8777c0.89184,-0.16358 2.02692,1.41096 0.48646,2.08574c-1.52017,0.65434 -1.84447,-1.84036 -0.48646,-2.08574z" fill="#f2b9a0"/><path d="M260.95102,111.87967c-0.02026,0.18405 -0.28375,0.2863 -0.28375,0.2863c-0.34458,0.10225 -0.60808,-0.55212 -0.24325,-0.7157c-0.04054,0.2045 0.12162,0.47032 0.32433,0.40895c0,0 0.16213,-0.06133 0.20267,-0.20446c0.02028,0.08177 0.02028,0.16358 0,0.22491z" fill="#c95320"/></g><path d="M250.37482,170.24265c-0.01456,0.21186 1.46238,4.45121 1.78768,5.90673c0.41582,1.86053 0.1903,6.20409 -0.22646,6.02389c-0.42193,-0.18244 -2.37472,-3.12289 -3.02923,-5.14223c-0.52733,-1.62698 -0.38009,-6.14115 -0.37924,-6.32951c0.03361,-7.41398 -4.40572,-16.24266 -3.27694,-27.63974c1.06493,-10.75246 10.28623,-23.92035 11.72985,-23.77738c0.76873,0.07613 -7.95367,10.25331 -9.86933,23.00901c-1.68182,11.19863 3.47009,24.94527 3.26367,27.94924z" fill="#d15a22" stroke-width="0"/><g stroke-width="1"><path d="M267.86699,143.47532c-0.32097,0.21585 -1.92384,-1.48738 -2.26266,-1.84717c-0.44579,-0.46773 -0.88934,-1.10958 -1.12116,-1.72122c-0.69543,-1.81698 -0.29207,-5.02556 -1.00535,-6.84254c-1.19476,-3.00428 -2.81296,-5.01335 -3.75805,-8.12557c-0.41012,-1.36721 -2.6233,-2.00777 -2.42715,-3.42896c0.19615,-1.43917 2.28249,-1.0614 2.28249,-1.0614c0.23182,0.3418 0.3923,0.73759 0.55279,1.11536c0.49931,-0.19789 0.48146,0.23386 0.62412,0.52171c0.16049,0.30583 0.60628,0.66562 -0.01785,0.93546c0.01785,0.05399 0.05351,0.12595 0.08918,0.1799c0.21397,0.41377 0.44579,0.84553 0.67761,1.27728c0.46364,-0.43175 0.57064,0.12593 0.73113,0.35979c0.16049,0.25185 0.64194,0.55768 -0.05352,0.98944c0.23182,0.43175 0.44582,0.8815 0.65979,1.33124c0.41015,-0.25185 0.64194,0.32382 0.80246,0.61164c0.16049,0.3418 0.33879,0.46775 0.35664,0.59368c0.01782,0.14391 -0.19615,0.35979 -0.3923,0.5037c0.21397,0.48574 0.41012,0.97145 0.60628,1.45719c0.62412,-0.23389 0.69546,0.32379 0.80246,0.62962c0.10697,0.30583 0.48146,0.82754 -0.17833,1.0614c0.26748,0.82752 0.37448,1.40321 0.44579,1.94288c0.65979,-0.05395 0.49931,0.23389 0.51715,0.70161c0.01782,0.39576 0.23179,0.71958 -0.37448,0.82752c0.05348,0.50372 0.14266,1.07939 0.30315,1.85295c0,0.07197 0.01782,0.14391 0.03567,0.23386c0.07131,0 0.14263,0.01798 0.19615,0.05399c0.30312,0.19787 0.10697,0.28781 0.17831,0.61163c0.08915,0.44974 0.03567,0.55768 -0.21397,0.66562c0.07134,0.64763 0.1783,1.31326 0.33879,1.74501c0.107,-0.08996 0.26748,-0.21588 0.35664,-0.12593c0.12485,0.12593 0.33882,0.48572 0.44582,0.70159c0.107,0.23386 0,0.26986 -0.17833,0.41377c0.53497,0.73759 1.21258,1.67304 0.98076,1.83496z" fill="#c44d16"/><path d="M254.36816,120.98815c-1.06991,2.46458 -2.79285,4.24205 -5.4498,5.24947c-3.01362,1.13335 -6.66786,0.07698 -9.69929,1.01246c-1.51573,0.46773 -2.61678,1.21172 -3.43706,2.56095c-0.3923,0.62965 -0.72139,3.7712 -1.14936,4.07703c-0.42797,0.32382 -0.20068,-2.07009 -0.2185,-2.57382c0,-0.10794 0,-0.23386 0,-0.35979c-0.23182,-0.07194 -0.321,-0.05395 -0.30315,-0.32382c0.01782,-0.25185 0.107,-0.66562 0.17831,-0.80953c0.03567,-0.08996 0.17833,-0.05399 0.30315,-0.01798c0.17833,-0.59368 0.44579,-1.16934 0.82028,-1.65505c-0.16049,-0.50372 -0.28531,-0.61166 0.24964,-0.91747c0.28534,-0.16192 0.23182,-0.3778 0.57064,-0.26986c0.05348,0.01798 0.12482,0.07197 0.19615,0.14391c0.53497,-0.41374 1.15907,-0.75555 1.81886,-1.02541c-0.19615,-0.64763 0.19615,-0.57567 0.57064,-0.73759c0.42797,-0.17988 0.64194,-0.46773 0.85594,0.25188c0.71328,-0.19789 1.42655,-0.32382 2.08634,-0.39579c-0.03567,-0.70159 0.58846,-0.55768 0.90943,-0.57566c0.32097,-0.01798 0.85594,-0.16192 0.89161,0.46773c0.65979,-0.01798 1.31955,-0.05395 1.97934,-0.10794c0,-0.25185 0.05351,-0.59365 0.214,-0.66562c0.12482,-0.05395 0.32097,0.03597 0.69543,0c0.321,-0.01798 0.92728,-0.12593 0.94509,0.3418c0.12485,-0.03597 0.26748,-0.08995 0.3923,-0.12592c0.6063,-0.21587 1.15909,-0.55768 1.6584,-0.98944c-0.48149,-0.41377 -0.03566,-0.68361 0.14264,-0.89948c0.19615,-0.25185 0.33882,-0.84553 0.87379,-0.1619l-0.01785,0.03597c0.214,-0.26986 0.41015,-0.5397 0.58846,-0.80953c0.26748,-0.41377 0.51712,-0.8815 0.74894,-1.36724c-0.51712,-0.17988 -0.16048,-0.59365 -0.05348,-0.89948c0.12482,-0.32382 0.01782,-0.77356 0.62412,-0.59365c0.07134,-0.25188 0.12482,-0.48574 0.17831,-0.7196c0.12485,-0.57567 0.53497,-1.47514 0.53497,-1.47514c0.62412,-0.39578 2.17549,-0.01798 2.30034,0.44974c0.23182,0.86351 -0.67763,3.1302 -0.9986,3.88577z" fill="#da6629"/><g><path d="M250.23114,125.03585c-0.107,0.07194 -0.23182,0.03597 -0.35664,0.14391c-0.51715,-0.75557 0.07131,-0.82754 0.33879,-0.98944c0.26748,-0.1619 0.62412,-0.6836 0.87379,0.1619z" fill="#dc6629"/><path d="M253.53006,122.48132c-0.08915,0.07194 -0.41015,0.28781 -0.48146,0.39576c-0.65979,-0.43175 -0.107,-0.70159 0.12482,-0.97145c0.23182,-0.26983 0.30312,-0.79154 0.90943,-0.21587z" fill="#dc6629"/><path d="M246.29024,126.70889c0.01785,0.32382 -0.37446,-0.64763 -0.16049,-0.86351c0.08915,-0.08996 0.30315,-0.08996 0.64197,-0.25185c0.35664,-0.16192 0.98076,-0.5397 1.06991,0.23386z" fill="#dc6629"/><path d="M243.22314,129.08352c-0.55279,-0.5037 0,-0.8455 0.23182,-1.07936c0.23182,-0.25188 0.53497,-0.75557 1.01643,-0.23389z" fill="#dc6629"/><path d="M242.61686,132.82539c-0.90945,-0.1619 -0.58845,-0.46773 -0.53497,-0.91747c0.07134,-0.48574 -0.08915,-0.82754 0.78461,-0.57567z" fill="#dc6629"/><path d="M243.24098,136.72915c-0.73112,-0.19787 -0.92728,-0.01798 -0.92728,-0.73756c0,-0.3418 -0.19615,-0.39579 0.05349,-0.64764c0.107,-0.10794 0.41015,-0.14391 0.57064,-0.19789z" fill="#dc6629"/><path d="M243.77592,139.62552l-0.21397,0.59365c-0.3923,-0.07197 -0.53497,0.07197 -0.58846,-0.25185c-0.03567,-0.25188 -0.08918,-0.66562 -0.05352,-0.82754c0.01785,-0.1619 0.35664,-0.12593 0.46364,-0.08996z" fill="#dc6629"/><path d="M242.99132,142.71975c-0.85594,0.26983 0.3923,-0.91749 0.44582,-2.30268c0.05348,-1.4032 -0.26748,-1.92492 -0.48149,-3.31011c-0.37446,-2.26672 -0.92725,-4.42547 -0.23182,-6.71017c0.49931,-1.63707 1.78321,-3.1302 3.24544,-3.99371c1.2304,-0.71957 2.63913,-0.84553 3.88738,-1.51115c2.17552,-1.1873 3.83389,-2.48257 4.83247,-4.82123c0.24967,0.70159 0.92728,1.58309 0.9451,2.35664c0.01785,0.75557 -1.07417,1.08453 -1.68047,1.58823c-1.92586,1.61909 -4.90381,2.19765 -6.93666,3.63683c-1.99719,1.42119 -3.04021,4.13249 -3.11155,6.57908c-0.05348,1.51115 0.61282,2.73444 0.63064,4.24559c0.01785,0.75557 -0.08915,1.69103 -0.3923,2.57252c-0.26745,0.80956 -0.29661,1.4003 -1.15255,1.67017z" fill="#da6629"/></g><path d="M257.92193,139.69822c-0.35664,1.31326 -1.43175,1.9961 -1.43175,1.9961c-0.57061,0.14394 -0.16049,-0.84551 -0.08915,-0.98944c0.14267,-0.3058 0.24964,-0.62962 0.32097,-0.95344c-0.19615,-0.01798 -0.28531,-0.036 -0.28531,-0.26986c-0.01785,-0.23386 0.01782,-0.64761 0.07134,-0.80953c0.03567,-0.10794 0.21397,-0.08995 0.35664,-0.05395c0.01782,-0.61166 -0.03566,-1.22333 -0.16048,-1.81698c-0.37449,-0.03597 -0.48149,-0.05395 -0.53497,-0.59365c-0.03567,-0.3418 -0.23182,-0.3778 0,-0.64763c0.01785,-0.03597 0.05348,-0.05399 0.08915,-0.07197c-0.28531,-0.61164 -0.67761,-1.07939 -1.1234,-1.52913c-0.46364,0.28785 -0.51712,-0.07194 -0.78461,-0.35979c-0.24967,-0.26983 -0.51712,-0.37777 -0.32097,-0.64763c-0.55282,-0.5037 -1.08776,-1.02541 -1.48006,-1.67304c-0.53497,0.12593 -0.60631,-0.43175 -0.71328,-0.71957c-0.08918,-0.26986 -0.33882,-0.64763 -0.01785,-0.89951c-0.23182,-0.73756 -0.3388,-1.49313 -0.30315,-2.26669c-0.1783,-0.05399 -0.33879,-0.12592 -0.37446,-0.23386c-0.03567,-0.10794 0.05349,-0.30583 0.07134,-0.6836c0.01782,-0.3778 -0.03567,-1.11536 0.65979,-0.86351c0.1783,-0.5397 0.42795,-1.20532 0.74894,-1.88892c-0.53497,-0.43175 -0.08918,-0.70162 0.07131,-0.93549c0.14267,-0.21587 0.26748,-0.66562 0.6063,-0.44974c0.53497,-0.97145 1.14125,-1.88892 1.80104,-2.50055c1.48007,-1.38522 2.74613,0.41374 1.94368,1.60107c-0.89158,1.33124 -2.6233,2.86905 -2.99779,3.58862c-0.60628,1.15136 -1.09226,2.71572 -0.82477,4.10091c0.21397,1.0614 1.07962,2.26232 1.77507,2.99991c0.67761,0.71957 1.57507,1.48672 2.12786,2.33222c0.51715,0.77356 0.85435,1.73493 0.89002,2.61643c0.05351,0.93548 0.12258,1.70474 -0.09142,2.62223z" fill="#d15a22"/><path d="M255.6164,125.25173c-1.28391,2.33866 -3.63094,3.85492 -6.00262,5.29412c-5.04644,3.07622 -8.74422,1.23261 -10.58092,4.02101c-0.80243,1.2233 0.01558,3.01071 -0.07357,4.35994c-0.08918,1.38522 -1.33541,2.8215 -1.35323,2.10189c-0.01785,-0.52168 0.53497,-0.97142 0.32097,-2.30266l-0.03566,0.08993c-0.3923,-0.07194 -0.53494,0.07197 -0.58846,-0.25185c-0.03567,-0.25185 -0.08915,-0.66562 -0.05349,-0.82752c0.03567,-0.12595 0.24964,-0.12595 0.39231,-0.10794c-0.03567,-0.12595 -0.08915,-0.25188 -0.14267,-0.3778c-0.24964,-0.59365 -0.30315,-1.24128 -0.19615,-1.87093c-0.33879,-0.35979 -0.48145,-0.41374 -0.12482,-0.91747c0.19615,-0.26983 0.05348,-0.43175 0.41012,-0.48571c0.07134,-0.01801 0.16051,0 0.24967,0.03597c0.3923,-0.62965 0.98076,-1.2233 1.74752,-1.70904c-0.24964,-0.71957 0.16048,-0.62962 0.53497,-0.80953c0.41012,-0.1799 0.62412,-0.44975 0.83809,0.12592c0.74894,-0.28782 1.62273,-0.50369 2.60349,-0.61163c-0.05351,-0.61166 0.53494,-0.55768 0.83809,-0.61166c0.30315,-0.05395 0.78461,-0.25185 0.92728,0.30583c0.82028,-0.21587 1.65837,-0.52171 2.47865,-0.93548c-0.08915,-0.23386 -0.16049,-0.59365 -0.03567,-0.71958c0.08915,-0.08996 0.30315,-0.08996 0.64194,-0.25185c0.321,-0.14394 0.87379,-0.48574 1.03428,0.03597c0.76676,-0.50372 1.48004,-1.09737 2.13983,-1.72702c-0.24964,-0.32382 0.107,-0.55768 0.24967,-0.75555c0.1783,-0.23389 0.30312,-0.77356 0.74894,-0.32382c0.60628,-0.7196 1.10558,-1.49316 1.48004,-2.30269c-0.35664,-0.1799 -0.05348,-0.55768 0.03567,-0.84553c0.08918,-0.30583 0,-0.71958 0.4993,-0.62965c0.19615,-0.73756 0.05349,-1.51112 0.78461,-2.01484c0.73112,-0.5037 1.31958,1.00742 1.37307,1.78098c0.05348,0.70161 -0.74894,2.64449 -1.14125,3.23817z" fill="#c44d16"/><path d="M273.14528,141.55041c-0.99861,0.5397 -1.81007,-1.51329 -2.0954,-2.19689c-0.73109,-1.81695 -0.15461,-4.21603 -0.40428,-6.12293c-0.26745,-2.08681 -1.15003,-3.85194 -2.77273,-5.27313c-1.17691,-1.04339 -2.39853,-2.2817 -3.75378,-3.03725c-2.08634,-1.16934 -4.31216,-2.25901 -4.6688,-4.43577c-0.33882,-2.15875 2.03285,-1.79896 2.03285,-1.79896c0,0.62965 0.49928,1.54712 0.85592,2.05084c0.57064,-0.44974 0.6063,0.03597 0.82028,0.30583c0.214,0.26983 0.69546,0.53967 0.214,0.89948c0.41012,0.43175 0.85594,0.80953 1.31955,1.20532c0.30315,-0.41377 0.53497,0.03597 0.74894,0.21587c0.19615,0.1619 0.62412,0.3058 0.3923,0.73756c0.48149,0.41377 0.98076,0.80956 1.4444,1.24128c0.35664,-0.55768 0.78461,0 1.03428,0.25188c0.26745,0.26983 0.46361,0.35979 0.51712,0.46773c0.07134,0.12593 -0.07133,0.37777 -0.214,0.57567c0.37449,0.39578 0.7133,0.80953 1.03428,1.24128c0.08915,0.14394 0.19615,0.28785 0.2853,0.43176c0.51712,-0.23386 0.65979,0.28784 0.80243,0.55768c0.14267,0.26986 0.57064,0.7196 0,1.0614c0.17833,0.43175 0.33882,0.8815 0.51715,1.31326c0.08915,0.23386 0.1783,0.48571 0.24964,0.73756c0.60628,-0.08993 0.46364,0.21587 0.51712,0.66564c0.03567,0.35979 0.24967,0.64761 -0.21397,0.80953c0.08915,0.6836 0.12482,1.36721 0.16048,2.06883c0.12482,0.01798 0.23182,0.03597 0.30315,0.08993c0.28531,0.21587 0.08915,0.28784 0.12482,0.62965c0.05348,0.52171 -0.05351,0.57566 -0.37449,0.6836c0.01785,0.62965 0.05351,1.27729 0.12482,1.92492c0.12485,-0.036 0.23182,-0.07197 0.28533,0.01798c0.08915,0.14391 0.19615,0.5397 0.23182,0.79154c0.03564,0.25185 -0.07133,0.25184 -0.28533,0.3418c0.214,0.55768 0.57064,0.97145 0.76679,1.54712z" fill="#dc6629"/><g><path d="M268.02747,119.81881c-0.99858,0.08996 -1.48003,-1.2233 -2.81743,1.07939c-1.5514,2.68046 -0.28533,6.08053 -1.90804,8.61708c-1.14125,1.79896 -3.63774,2.1048 -4.93948,0.46773c-0.35664,-0.44974 -0.62412,-0.98944 -0.85594,-1.5651c-0.03567,0 -0.07133,0.01798 -0.107,0.01798c-0.46361,0 -0.53494,-0.55768 -0.57061,-1.11536c0,-0.23386 0.08915,-0.35979 0.23182,-0.37777c-0.14267,-0.62965 -0.24967,-1.27728 -0.33882,-1.92491c-0.23182,-0.21585 -0.2853,-0.71957 -0.23182,-1.00742c0.01785,-0.08993 0.03567,-0.17988 0.07134,-0.23386c-0.16049,-1.2233 -0.32097,-2.39262 -0.62412,-3.3281c0,0 0.214,-1.09737 1.53355,-1.09737c1.30173,0 1.99719,0.7196 1.99719,0.7196c0,0 -1.42287,7.93048 1.04916,7.98229c2.26442,0.34394 2.13082,-6.41078 3.27207,-7.93988c2.60346,-3.47203 5.96784,-0.42021 4.23814,-0.29428z" fill="#dc6629"/><g><path d="M265.19219,120.80825c-0.05348,-0.03597 -0.14266,-0.10794 -0.1783,-0.21588c-0.107,-0.3418 0.58846,-1.16931 0.85591,-0.89948c0.05351,0.05399 0.08918,0.10794 0.08918,0.10794c0.05348,0.28785 -0.214,0.71961 -0.42797,0.86351c-0.16049,0.10794 -0.23182,0.21587 -0.33882,0.14391z" fill="#e58961"/><path d="M265.10304,120.62837c-0.08915,-0.30583 0.55279,-1.13334 0.82028,-0.86351c0.26748,0.26983 -0.05351,0.80953 -0.32097,0.98944c-0.26748,0.1799 -0.39231,0.1619 -0.49931,-0.12593z" fill="#ed996d"/><path d="M265.33486,120.48443c-0.05351,-0.1619 0.30312,-0.61163 0.44579,-0.46773c0.14267,0.14394 -0.03567,0.44974 -0.1783,0.53969c-0.16051,0.08996 -0.214,0.08996 -0.26749,-0.07197z" fill="#dc6629"/></g><g><path d="M264.51459,124.02843c0,0 -0.24967,-0.05399 -0.35664,-0.14394c-0.26748,-0.25185 -0.08918,-1.52913 0.35664,-1.40318c0.05348,0.01798 0.14264,0.03597 0.14264,0.03597c0.321,0.21587 0.26748,0.89948 0.107,1.20532c-0.12482,0.21587 -0.12482,0.35979 -0.24964,0.30583z" fill="#e58961"/><path d="M264.30058,123.90248c-0.26745,-0.26983 -0.10697,-1.51112 0.33882,-1.38519c0.44579,0.12593 0.42797,0.89948 0.24964,1.24128c-0.1783,0.3418 -0.32097,0.41377 -0.58846,0.14391z" fill="#ed996d"/><path d="M264.40758,123.63264c-0.14267,-0.14391 -0.05349,-0.82754 0.19615,-0.75557c0.24964,0.07197 0.23182,0.50373 0.14267,0.68361c-0.08918,0.1799 -0.17833,0.21587 -0.33882,0.07197z" fill="#dc6629"/></g><g><path d="M264.12228,127.59039c-0.08915,0.03597 -0.24967,-0.03599 -0.37449,-0.16192c-0.26748,-0.26983 -0.14263,-1.42119 0.32097,-1.3852c0.05351,0 0.107,0 0.14266,0.01798c0.33882,0.21587 0.28531,0.93545 0.12482,1.24128c-0.08915,0.16192 -0.12482,0.26986 -0.21397,0.28785z" fill="#e58961"/><path d="M263.85479,127.42847c-0.26748,-0.25185 -0.07134,-1.51112 0.37448,-1.36721c0.42794,0.14391 0.39231,0.89948 0.21397,1.24128c-0.19615,0.3418 -0.33882,0.39579 -0.58846,0.12593z" fill="#ed996d"/><path d="M263.96179,127.15863c-0.14267,-0.14391 -0.03567,-0.82754 0.21397,-0.75557c0.24967,0.07197 0.23182,0.50372 0.12482,0.6836c-0.10697,0.1799 -0.1783,0.21588 -0.33879,0.07197z" fill="#dc6629"/></g><g><path d="M262.10724,130.63064c-0.07131,-0.05395 -0.16049,-0.19789 -0.1783,-0.35979c-0.03567,-0.37777 0.85595,-1.13334 1.15907,-0.84553c0.03567,0.01801 0.05351,0.05398 0.07133,0.08995c0.107,0.3778 -0.37445,0.91747 -0.69543,1.04342c-0.19615,0.08993 -0.26749,0.1619 -0.35667,0.07194z" fill="#e58961"/><path d="M262.00028,130.32483c-0.03567,-0.3778 0.90943,-1.20532 1.15906,-0.80956c0.24967,0.39578 -0.26748,0.95346 -0.62412,1.09737c-0.35664,0.14391 -0.49928,0.08996 -0.53494,-0.28782z" fill="#ed996d"/><path d="M262.26775,130.2169c-0.01785,-0.21587 0.49928,-0.66562 0.64194,-0.44977c0.14267,0.19789 -0.14267,0.52171 -0.33882,0.59368c-0.19615,0.08996 -0.26749,0.05395 -0.30312,-0.14391z" fill="#dc6629"/></g><g><path d="M258.32687,130.28884c-0.01782,-0.12593 0.08915,-0.25184 0.28531,-0.35979c0.321,-0.1799 1.4444,0.39578 1.17691,0.77356c-0.24964,0.37777 -0.96291,0.12592 -1.2304,-0.16192c-0.08915,-0.10794 -0.19615,-0.1619 -0.23182,-0.25185z" fill="#e58961"/><path d="M258.57651,130.019c0.321,-0.1799 1.4444,0.39576 1.17691,0.77356c-0.24964,0.37777 -0.96291,0.12593 -1.2304,-0.16192c-0.24964,-0.28782 -0.26749,-0.44975 0.05348,-0.61164z" fill="#ed996d"/><path d="M258.80832,130.2169c0.17833,-0.08996 0.78461,0.21585 0.64197,0.43173c-0.14267,0.21587 -0.53497,0.07197 -0.67764,-0.08993c-0.14264,-0.14394 -0.14263,-0.25187 0.03567,-0.3418z" fill="#dc6629"/></g></g><g><path d="M255.59859,123.81255c-0.05351,0.35979 -0.35667,0.97142 -0.74897,0.89948c-0.35664,0.59365 -0.80243,1.24128 -1.3374,1.85292c0.14267,0.08996 0.16049,0.25188 0,0.46775c-0.35664,0.43175 -0.73109,0.82752 -1.08773,0.59365c-0.64197,0.5397 -1.37307,0.97145 -2.12201,1.15136c-3.15628,0.77356 -4.01222,-3.05826 -3.65559,-5.37894c0.24967,-1.67304 0.85594,-3.14822 1.69406,-4.60538c0.65977,-1.15133 1.65837,-2.5905 2.08634,-3.8498c0.21397,-0.62962 -0.32097,-1.65506 0.05348,-2.17674c0.35664,-0.50372 0.9661,0.61377 0.9661,1.56724c0,1.33124 -0.65976,3.14819 -0.87376,3.72388c-0.65979,1.727 -1.42655,3.65191 -1.60489,5.50483c-0.07134,0.61166 0.57039,2.48387 1.37281,2.53785c1.35525,0.08996 2.8944,-3.01712 3.25103,-4.00656c0.37449,-1.0614 -0.13336,-2.59908 0.40161,-3.57054c0.07131,-0.14394 0.23182,-0.73759 0.32097,-0.79154c0.37446,-0.25188 1.1234,-0.61166 2.01501,0.28782c0.89161,0.8815 0.53497,1.78098 0.67761,2.42862c0,0 -1.19473,2.17676 -1.49788,2.91435c0.107,0.05395 0.12482,0.19787 0.08918,0.44975z" fill="#dc6629"/><g><path d="M250.01714,115.71716c0.01785,-0.3058 0.32097,-0.8455 0.64197,-0.95344c0,0 0.07131,0 0.16049,0.03597c0.44579,0.12593 -0.01785,1.34923 -0.44582,1.42119c-0.14264,0.01798 -0.26745,-0.03597 -0.32097,-0.07197c-0.107,-0.07194 -0.05348,-0.19789 -0.03567,-0.43175z" fill="#e58961"/><path d="M249.87449,115.68119c0.03567,-0.37777 0.41012,-1.0434 0.85591,-0.91747c0.44582,0.12593 -0.05349,1.27725 -0.42795,1.34923c-0.35666,0.08996 -0.44582,-0.03597 -0.42797,-0.43176z" fill="#ed996d"/><path d="M250.10632,115.57325c0.01782,-0.21587 0.23179,-0.57567 0.46361,-0.50372c0.24967,0.07197 -0.03567,0.70161 -0.23182,0.73759c-0.19615,0.05399 -0.24964,-0.01798 -0.23179,-0.23386z" fill="#dc6629"/></g><g><path d="M248.26962,118.91933c-0.01785,-0.35979 0.23182,-0.98944 0.62412,-1.02541c0,0 0.10697,0.01798 0.14264,0.03597c0.44582,0.08996 0.05351,1.31325 -0.28531,1.42119c-0.12482,0.036 -0.3923,-0.01798 -0.3923,-0.01798c-0.14267,-0.05395 -0.07133,-0.1799 -0.08915,-0.41377z" fill="#e58961"/><path d="M248.1448,118.88336c-0.01785,-0.37777 0.30312,-1.07939 0.74894,-1.00742c0.44579,0.08996 0.07131,1.27725 -0.28533,1.3852c-0.35664,0.12595 -0.46361,0 -0.46361,-0.37777z" fill="#ed996d"/><path d="M248.35877,118.75743c0,-0.21587 0.16049,-0.59367 0.41012,-0.55768c0.24967,0.05395 0.03567,0.70159 -0.16049,0.75557c-0.19615,0.07194 -0.24964,0.01798 -0.24964,-0.19789z" fill="#dc6629"/></g><g><path d="M246.82522,122.55326c-0.08915,-0.3418 0.01782,-1.04339 0.39231,-1.16932c0.03567,-0.01801 0.08915,0.01798 0.14266,0.01798c0.46361,0.07194 0.32097,1.2233 0.01782,1.42119c-0.16049,0.08993 -0.32097,0.12592 -0.41012,0.07194c-0.08918,-0.05395 -0.08918,-0.1619 -0.14267,-0.3418z" fill="#e58961"/><path d="M246.71822,122.53527c-0.107,-0.37777 0.03567,-1.13335 0.48146,-1.15133c0.46364,-0.036 0.37449,1.2233 0.07134,1.42117c-0.30312,0.1799 -0.44579,0.08996 -0.55279,-0.26983z" fill="#ed996d"/><path d="M246.89655,122.35536c-0.05351,-0.19787 0.01782,-0.61163 0.26749,-0.62962c0.24964,-0.01798 0.21397,0.66562 0.03564,0.77356c-0.16049,0.10794 -0.23179,0.05395 -0.30312,-0.14394z" fill="#dc6629"/></g><g><path d="M246.86087,126.60095c-0.19615,-0.28785 -0.28531,-1.00742 0.03567,-1.2593c0.03567,-0.01798 0.07134,-0.01798 0.10697,-0.03597c0.41015,-0.07197 0.7133,1.07939 0.46364,1.36721c-0.10697,0.12595 -0.26748,0.19789 -0.35664,0.19789c-0.107,0 -0.12482,-0.08996 -0.24964,-0.26983z" fill="#e58961"/><path d="M246.77173,126.60095c-0.214,-0.32382 -0.30315,-1.07939 0.12482,-1.2593c0.42797,-0.1619 0.73109,1.04342 0.48146,1.33124c-0.24964,0.28785 -0.3923,0.25188 -0.60628,-0.07194z" fill="#ed996d"/><path d="M246.89655,126.36709c-0.107,-0.1799 -0.16048,-0.59368 0.07134,-0.68361c0.23179,-0.08996 0.3923,0.57567 0.26745,0.73756c-0.14264,0.14391 -0.23182,0.12593 -0.33879,-0.05395z" fill="#dc6629"/></g><g><path d="M249.69617,129.01158c-0.37446,0.07194 -1.10558,-0.12595 -1.10558,-0.59367c0,-0.46773 1.24825,-0.28782 1.40873,0.05398c0.107,0.19789 0.12482,0.37777 0.01782,0.46773c-0.05348,0.07197 -0.16049,0.05395 -0.32097,0.07197z" fill="#e58961"/><path d="M249.67834,129.10151c-0.37449,0.07197 -1.10561,-0.12593 -1.10561,-0.59365c0,-0.46773 1.24825,-0.28785 1.40873,0.05399c0.17833,0.3418 0.07134,0.46773 -0.30312,0.53967z" fill="#ed996d"/><path d="M249.51786,128.92163c-0.19615,0.03597 -0.6063,-0.07197 -0.6063,-0.32382c0,-0.25185 0.67761,-0.16192 0.76679,0.03597c0.10697,0.16192 0.05348,0.23386 -0.16049,0.28785z" fill="#dc6629"/></g></g></g><path d="M266.81679,105.67148c-0.74033,3.77345 -2.89474,5.30266 -6.36907,4.62101c-3.47434,-0.68164 -5.79482,-3.23329 -5.05449,-7.00674c0.74033,-3.77345 6.83406,-14.21495 10.3084,-13.5333c3.47434,0.68164 1.85549,12.14558 1.11517,15.91903z" fill="#dc6629" stroke-width="0"/><path d="M270.00082,91.69346c-1.47345,2.56663 -4.72468,2.10025 -5.67555,2.10412c-1.21299,0.00493 -3.63454,-1.67992 -2.79072,-4.79225c0.36417,-1.34321 6.08612,-8.68683 7.88939,-7.86812c1.34221,0.4345 1.29539,9.30468 0.57689,10.55625z" fill="#dc6629" stroke-width="0"/><path d="M265.53887,87.75351c0.94909,-3.15581 3.19955,-6.31845 3.38518,-6.26261c0.18564,0.05583 -2.07244,3.49742 -3.02153,6.65324c-0.33284,1.10675 -2.30599,5.92008 -2.36718,5.90168c-0.18564,-0.05583 1.05443,-3.13648 2.00352,-6.29229z" fill="#c44d16" stroke-width="0"/><path d="M260.25001,107.93985c-2.01698,-0.45806 -4.12838,-0.003 -4.19774,-0.16607c-0.17239,-0.40534 2.08198,-0.71734 4.42772,-0.23187c2.02542,0.41918 3.41304,2.25564 3.15013,2.57525c0,0 -1.24242,-1.69183 -3.38011,-2.17731z" fill="#c44d16" stroke-width="0"/></g></g></g></svg>