<svg version="1.1" xmlns="http://www.w3.org/2000/svg" xmlns:xlink="http://www.w3.org/1999/xlink" width="155.84559" height="168.74161" viewBox="0,0,155.84559,168.74161"><defs><linearGradient x1="240.61955" y1="58.29931" x2="240.61955" y2="237.16754" gradientUnits="userSpaceOnUse" id="color-1"><stop offset="0" stop-color="#000000"/><stop offset="1" stop-color="#000000" stop-opacity="0"/></linearGradient><radialGradient cx="220.72606" cy="153.86968" r="24.33333" gradientUnits="userSpaceOnUse" id="color-2"><stop offset="0" stop-color="#222222" stop-opacity="0"/><stop offset="1" stop-color="#222222"/></radialGradient><radialGradient cx="279.0594" cy="153.78634" r="23.75" gradientUnits="userSpaceOnUse" id="color-3"><stop offset="0" stop-color="#4c4c4c"/><stop offset="1" stop-color="#4c4c4c" stop-opacity="0"/></radialGradient><radialGradient cx="242.30941" cy="137.78634" r="20.5" gradientUnits="userSpaceOnUse" id="color-4"><stop offset="0" stop-color="#4c4c4c"/><stop offset="1" stop-color="#4c4c4c" stop-opacity="0"/></radialGradient><radialGradient cx="202.30941" cy="106.53634" r="18.5" gradientUnits="userSpaceOnUse" id="color-5"><stop offset="0" stop-color="#4c4c4c"/><stop offset="1" stop-color="#4c4c4c" stop-opacity="0"/></radialGradient><radialGradient cx="218.05941" cy="123.03634" r="18.95833" gradientUnits="userSpaceOnUse" id="color-6"><stop offset="0" stop-color="#4c4c4c"/><stop offset="1" stop-color="#4c4c4c" stop-opacity="0"/></radialGradient><radialGradient cx="239.55941" cy="134.03634" r="9.25" gradientUnits="userSpaceOnUse" id="color-7"><stop offset="0" stop-color="#6d6d6d"/><stop offset="1" stop-color="#6d6d6d" stop-opacity="0"/></radialGradient><radialGradient cx="272.3094" cy="158.03634" r="9.25" gradientUnits="userSpaceOnUse" id="color-8"><stop offset="0" stop-color="#6d6d6d"/><stop offset="1" stop-color="#6d6d6d" stop-opacity="0"/></radialGradient><radialGradient cx="284.3094" cy="175.03634" r="6" gradientUnits="userSpaceOnUse" id="color-9"><stop offset="0" stop-color="#6d6d6d"/><stop offset="1" stop-color="#6d6d6d" stop-opacity="0"/></radialGradient><radialGradient cx="261.0594" cy="166.28634" r="9.25" gradientUnits="userSpaceOnUse" id="color-10"><stop offset="0" stop-color="#6d6d6d"/><stop offset="1" stop-color="#6d6d6d" stop-opacity="0"/></radialGradient><radialGradient cx="245.80941" cy="104.28634" r="7.5" gradientUnits="userSpaceOnUse" id="color-11"><stop offset="0" stop-color="#6d6d6d"/><stop offset="1" stop-color="#6d6d6d" stop-opacity="0"/></radialGradient><radialGradient cx="223.55941" cy="103.03634" r="11.75" gradientUnits="userSpaceOnUse" id="color-12"><stop offset="0" stop-color="#6d6d6d"/><stop offset="1" stop-color="#6d6d6d" stop-opacity="0"/></radialGradient><radialGradient cx="188.55941" cy="109.78634" r="7.25" gradientUnits="userSpaceOnUse" id="color-13"><stop offset="0" stop-color="#6d6d6d"/><stop offset="1" stop-color="#6d6d6d" stop-opacity="0"/></radialGradient><radialGradient cx="250.05941" cy="116.78634" r="4.25" gradientUnits="userSpaceOnUse" id="color-14"><stop offset="0" stop-color="#c0c0c0"/><stop offset="1" stop-color="#c0c0c0" stop-opacity="0"/></radialGradient><radialGradient cx="223.80941" cy="127.53634" r="3" gradientUnits="userSpaceOnUse" id="color-15"><stop offset="0" stop-color="#c0c0c0"/><stop offset="1" stop-color="#c0c0c0" stop-opacity="0"/></radialGradient><radialGradient cx="214.05941" cy="140.53634" r="3.75" gradientUnits="userSpaceOnUse" id="color-16"><stop offset="0" stop-color="#c0c0c0"/><stop offset="1" stop-color="#c0c0c0" stop-opacity="0"/></radialGradient><radialGradient cx="261.5594" cy="148.78634" r="4" gradientUnits="userSpaceOnUse" id="color-17"><stop offset="0" stop-color="#c0c0c0"/><stop offset="1" stop-color="#c0c0c0" stop-opacity="0"/></radialGradient><radialGradient cx="248.55941" cy="159.28634" r="2.25" gradientUnits="userSpaceOnUse" id="color-18"><stop offset="0" stop-color="#c0c0c0"/><stop offset="1" stop-color="#c0c0c0" stop-opacity="0"/></radialGradient><radialGradient cx="208.05941" cy="95.03634" r="3.75" gradientUnits="userSpaceOnUse" id="color-19"><stop offset="0" stop-color="#c0c0c0"/><stop offset="1" stop-color="#c0c0c0" stop-opacity="0"/></radialGradient><radialGradient cx="193.80941" cy="92.78634" r="2.5" gradientUnits="userSpaceOnUse" id="color-20"><stop offset="0" stop-color="#c0c0c0"/><stop offset="1" stop-color="#c0c0c0" stop-opacity="0"/></radialGradient><radialGradient cx="268.0594" cy="136.03634" r="1.75" gradientUnits="userSpaceOnUse" id="color-21"><stop offset="0" stop-color="#c0c0c0"/><stop offset="1" stop-color="#c0c0c0" stop-opacity="0"/></radialGradient><radialGradient cx="288.3094" cy="158.53634" r="2.5" gradientUnits="userSpaceOnUse" id="color-22"><stop offset="0" stop-color="#c0c0c0"/><stop offset="1" stop-color="#c0c0c0" stop-opacity="0"/></radialGradient><radialGradient cx="271.3094" cy="171.03634" r="2.25" gradientUnits="userSpaceOnUse" id="color-23"><stop offset="0" stop-color="#c0c0c0"/><stop offset="1" stop-color="#c0c0c0" stop-opacity="0"/></radialGradient><radialGradient cx="202.05941" cy="118.28634" r="2.75" gradientUnits="userSpaceOnUse" id="color-24"><stop offset="0" stop-color="#dcdcdc"/><stop offset="1" stop-color="#dcdcdc" stop-opacity="0"/></radialGradient><radialGradient cx="232.30941" cy="152.78634" r="2" gradientUnits="userSpaceOnUse" id="color-25"><stop offset="0" stop-color="#dcdcdc"/><stop offset="1" stop-color="#dcdcdc" stop-opacity="0"/></radialGradient><radialGradient cx="257.8094" cy="97.28634" r="2.5" gradientUnits="userSpaceOnUse" id="color-26"><stop offset="0" stop-color="#dcdcdc"/><stop offset="1" stop-color="#dcdcdc" stop-opacity="0"/></radialGradient><radialGradient cx="199.30941" cy="134.28634" r="1.5" gradientUnits="userSpaceOnUse" id="color-27"><stop offset="0" stop-color="#dcdcdc"/><stop offset="1" stop-color="#dcdcdc" stop-opacity="0"/></radialGradient><radialGradient cx="286.3094" cy="143.03634" r="3" gradientUnits="userSpaceOnUse" id="color-28"><stop offset="0" stop-color="#dcdcdc"/><stop offset="1" stop-color="#dcdcdc" stop-opacity="0"/></radialGradient><radialGradient cx="213.89434" cy="141.69288" r="7.86155" gradientUnits="userSpaceOnUse" id="color-29"><stop offset="0" stop-color="#7d7d7d"/><stop offset="1" stop-color="#7d7d7d" stop-opacity="0"/></radialGradient><radialGradient cx="225.45465" cy="149.02751" r="11.79234" gradientUnits="userSpaceOnUse" id="color-30"><stop offset="0" stop-color="#7d7d7d"/><stop offset="1" stop-color="#7d7d7d" stop-opacity="0"/></radialGradient><radialGradient cx="217.88572" cy="160.82585" r="10.75505" gradientUnits="userSpaceOnUse" id="color-31"><stop offset="0" stop-color="#828282"/><stop offset="1" stop-color="#828282" stop-opacity="0"/></radialGradient><radialGradient cx="216.5172" cy="152.10342" r="5.40482" gradientUnits="userSpaceOnUse" id="color-32"><stop offset="0" stop-color="#808080"/><stop offset="1" stop-color="#808080" stop-opacity="0"/></radialGradient><radialGradient cx="214.99397" cy="145.81958" r="0.81725" gradientUnits="userSpaceOnUse" id="color-33"><stop offset="0" stop-color="#ffffff"/><stop offset="1" stop-color="#ffffff" stop-opacity="0"/></radialGradient><radialGradient cx="217.88536" cy="139.71831" r="0.55721" gradientUnits="userSpaceOnUse" id="color-34"><stop offset="0" stop-color="#ffffff"/><stop offset="1" stop-color="#ffffff" stop-opacity="0"/></radialGradient><radialGradient cx="222.89287" cy="142.48098" r="1.00299" gradientUnits="userSpaceOnUse" id="color-35"><stop offset="0" stop-color="#ffffff"/><stop offset="1" stop-color="#ffffff" stop-opacity="0"/></radialGradient><radialGradient cx="209.92682" cy="143.6392" r="0.55722" gradientUnits="userSpaceOnUse" id="color-36"><stop offset="0" stop-color="#ffffff"/><stop offset="1" stop-color="#ffffff" stop-opacity="0"/></radialGradient><radialGradient cx="214.30313" cy="167.94874" r="0.59436" gradientUnits="userSpaceOnUse" id="color-37"><stop offset="0" stop-color="#ffffff"/><stop offset="1" stop-color="#ffffff" stop-opacity="0"/></radialGradient><radialGradient cx="215.61816" cy="161.6825" r="0.8544" gradientUnits="userSpaceOnUse" id="color-38"><stop offset="0" stop-color="#ffffff"/><stop offset="1" stop-color="#ffffff" stop-opacity="0"/></radialGradient><radialGradient cx="219.08644" cy="160.8584" r="0.92869" gradientUnits="userSpaceOnUse" id="color-39"><stop offset="0" stop-color="#ffffff"/><stop offset="1" stop-color="#ffffff" stop-opacity="0"/></radialGradient><radialGradient cx="227.01473" cy="145.80511" r="0.81725" gradientUnits="userSpaceOnUse" id="color-40"><stop offset="0" stop-color="#efddc0"/><stop offset="1" stop-color="#efddc0" stop-opacity="0"/></radialGradient><radialGradient cx="213.79251" cy="164.08759" r="0.44577" gradientUnits="userSpaceOnUse" id="color-41"><stop offset="0" stop-color="#efddc0"/><stop offset="1" stop-color="#efddc0" stop-opacity="0"/></radialGradient><radialGradient cx="216.39422" cy="164.47629" r="1.11443" gradientUnits="userSpaceOnUse" id="color-42"><stop offset="0" stop-color="#efddc0"/><stop offset="1" stop-color="#efddc0" stop-opacity="0"/></radialGradient><radialGradient cx="220.40476" cy="166.09725" r="0.8544" gradientUnits="userSpaceOnUse" id="color-43"><stop offset="0" stop-color="#efddc0"/><stop offset="1" stop-color="#efddc0" stop-opacity="0"/></radialGradient><radialGradient cx="221.8311" cy="159.06063" r="0.81725" gradientUnits="userSpaceOnUse" id="color-44"><stop offset="0" stop-color="#efddc0"/><stop offset="1" stop-color="#efddc0" stop-opacity="0"/></radialGradient><radialGradient cx="224.53289" cy="156.19717" r="0.81725" gradientUnits="userSpaceOnUse" id="color-45"><stop offset="0" stop-color="#ffffff"/><stop offset="1" stop-color="#ffffff" stop-opacity="0"/></radialGradient><radialGradient cx="229.87846" cy="150.36757" r="0.55721" gradientUnits="userSpaceOnUse" id="color-46"><stop offset="0" stop-color="#ffffff"/><stop offset="1" stop-color="#ffffff" stop-opacity="0"/></radialGradient><radialGradient cx="227.87065" cy="148.58493" r="1.00299" gradientUnits="userSpaceOnUse" id="color-47"><stop offset="0" stop-color="#ffffff"/><stop offset="1" stop-color="#ffffff" stop-opacity="0"/></radialGradient><radialGradient cx="218.2871" cy="150.04584" r="0.55721" gradientUnits="userSpaceOnUse" id="color-48"><stop offset="0" stop-color="#ffffff"/><stop offset="1" stop-color="#ffffff" stop-opacity="0"/></radialGradient><radialGradient cx="219.60141" cy="148.90665" r="0.59436" gradientUnits="userSpaceOnUse" id="color-49"><stop offset="0" stop-color="#ffffff"/><stop offset="1" stop-color="#ffffff" stop-opacity="0"/></radialGradient><radialGradient cx="230.25608" cy="153.13437" r="0.8544" gradientUnits="userSpaceOnUse" id="color-50"><stop offset="0" stop-color="#ffffff"/><stop offset="1" stop-color="#ffffff" stop-opacity="0"/></radialGradient><radialGradient cx="218.14081" cy="154.8375" r="0.92869" gradientUnits="userSpaceOnUse" id="color-51"><stop offset="0" stop-color="#ffffff"/><stop offset="1" stop-color="#ffffff" stop-opacity="0"/></radialGradient><radialGradient cx="220.51669" cy="155.35481" r="0.81725" gradientUnits="userSpaceOnUse" id="color-52"><stop offset="0" stop-color="#efddc0"/><stop offset="1" stop-color="#efddc0" stop-opacity="0"/></radialGradient><radialGradient cx="227.00622" cy="150.61779" r="0.44577" gradientUnits="userSpaceOnUse" id="color-53"><stop offset="0" stop-color="#efddc0"/><stop offset="1" stop-color="#efddc0" stop-opacity="0"/></radialGradient><radialGradient cx="210.61371" cy="141.01988" r="1.11443" gradientUnits="userSpaceOnUse" id="color-54"><stop offset="0" stop-color="#efddc0"/><stop offset="1" stop-color="#efddc0" stop-opacity="0"/></radialGradient><radialGradient cx="228.82991" cy="156.44866" r="0.8544" gradientUnits="userSpaceOnUse" id="color-55"><stop offset="0" stop-color="#efddc0"/><stop offset="1" stop-color="#efddc0" stop-opacity="0"/></radialGradient><radialGradient cx="232.06488" cy="148.02126" r="0.81725" gradientUnits="userSpaceOnUse" id="color-56"><stop offset="0" stop-color="#efddc0"/><stop offset="1" stop-color="#efddc0" stop-opacity="0"/></radialGradient><radialGradient cx="215.40601" cy="143.28583" r="0.81725" gradientUnits="userSpaceOnUse" id="color-57"><stop offset="0" stop-color="#ffffff"/><stop offset="1" stop-color="#ffffff" stop-opacity="0"/></radialGradient><radialGradient cx="214.81916" cy="139.61315" r="0.55721" gradientUnits="userSpaceOnUse" id="color-58"><stop offset="0" stop-color="#ffffff"/><stop offset="1" stop-color="#ffffff" stop-opacity="0"/></radialGradient><radialGradient cx="224.88849" cy="145.85537" r="1.00299" gradientUnits="userSpaceOnUse" id="color-59"><stop offset="0" stop-color="#ffffff"/><stop offset="1" stop-color="#ffffff" stop-opacity="0"/></radialGradient><radialGradient cx="223.71536" cy="149.43922" r="0.55721" gradientUnits="userSpaceOnUse" id="color-60"><stop offset="0" stop-color="#ffffff"/><stop offset="1" stop-color="#ffffff" stop-opacity="0"/></radialGradient><radialGradient cx="218.14506" cy="156.61684" r="0.59436" gradientUnits="userSpaceOnUse" id="color-61"><stop offset="0" stop-color="#ffffff"/><stop offset="1" stop-color="#ffffff" stop-opacity="0"/></radialGradient><radialGradient cx="213.41057" cy="139.11108" r="0.8544" gradientUnits="userSpaceOnUse" id="color-62"><stop offset="0" stop-color="#ffffff"/><stop offset="1" stop-color="#ffffff" stop-opacity="0"/></radialGradient><radialGradient cx="217.42454" cy="147.63397" r="0.92869" gradientUnits="userSpaceOnUse" id="color-63"><stop offset="0" stop-color="#ffffff"/><stop offset="1" stop-color="#ffffff" stop-opacity="0"/></radialGradient><radialGradient cx="218.10357" cy="154.35486" r="0.81725" gradientUnits="userSpaceOnUse" id="color-64"><stop offset="0" stop-color="#efddc0"/><stop offset="1" stop-color="#efddc0" stop-opacity="0"/></radialGradient><radialGradient cx="225.78864" cy="152.90777" r="0.44577" gradientUnits="userSpaceOnUse" id="color-65"><stop offset="0" stop-color="#efddc0"/><stop offset="1" stop-color="#efddc0" stop-opacity="0"/></radialGradient><radialGradient cx="219.73277" cy="158.36484" r="1.11443" gradientUnits="userSpaceOnUse" id="color-66"><stop offset="0" stop-color="#efddc0"/><stop offset="1" stop-color="#efddc0" stop-opacity="0"/></radialGradient><radialGradient cx="210.15687" cy="137.86389" r="0.8544" gradientUnits="userSpaceOnUse" id="color-67"><stop offset="0" stop-color="#efddc0"/><stop offset="1" stop-color="#efddc0" stop-opacity="0"/></radialGradient><radialGradient cx="220.03734" cy="163.39186" r="0.81725" gradientUnits="userSpaceOnUse" id="color-68"><stop offset="0" stop-color="#efddc0"/><stop offset="1" stop-color="#efddc0" stop-opacity="0"/></radialGradient></defs><g transform="translate(-166.08295,-43.59483)"><g data-paper-data="{&quot;isPaintingLayer&quot;:true}" fill-rule="nonzero" stroke-linecap="butt" stroke-linejoin="miter" stroke-miterlimit="10" stroke-dasharray="" stroke-dashoffset="0" style="mix-blend-mode: normal"><path d="M284.37023,179.70942c0.07585,1.88165 -6.82295,7.07192 -42.75929,7.07192c-35.93634,0 -45.96971,-4.43047 -45.98172,-7.45949c-0.01038,-2.6151 9.30175,-6.10294 45.23807,-6.10294c35.93634,0 43.43354,4.76932 43.50294,6.49051z" fill="url(#color-1)" stroke="none" stroke-width="0"/><text transform="translate(230.71781,206.35669) scale(0.357,0.357)" font-size="40" xml:space="preserve" fill="#ffffff" fill-rule="nonzero" stroke="#ffffff" stroke-width="0.5" stroke-linecap="butt" stroke-linejoin="miter" stroke-miterlimit="10" stroke-dasharray="" stroke-dashoffset="0" font-family="Handwriting" font-weight="normal" text-anchor="start" style="mix-blend-mode: normal"></text><text transform="translate(166.25543,56.70369) scale(0.34497,0.34497)" font-size="40" xml:space="preserve" fill="#ffffff" fill-rule="nonzero" stroke="#ffffff" stroke-width="1" stroke-linecap="butt" stroke-linejoin="miter" stroke-miterlimit="10" stroke-dasharray="" stroke-dashoffset="0" font-family="Handwriting" font-weight="normal" text-anchor="start" style="mix-blend-mode: normal"></text><path d="M243.55941,153.86968c0,13.43893 -10.22283,24.33333 -22.83333,24.33333c-12.6105,0 -22.83333,-10.8944 -22.83333,-24.33333c0,-13.43893 10.22283,-24.33333 22.83333,-24.33333c12.6105,0 22.83333,10.8944 22.83333,24.33333z" fill="url(#color-2)" stroke="none" stroke-width="0"/><path d="M302.8094,153.78634c0,12.97869 -10.63324,23.5 -23.75,23.5c-13.11676,0 -23.75,-10.52131 -23.75,-23.5c0,-12.97869 10.63324,-23.5 23.75,-23.5c13.11676,0 23.75,10.52131 23.75,23.5z" fill="url(#color-3)" stroke="none" stroke-width="0"/><path d="M262.8094,137.78634c0,10.49341 -9.17816,19 -20.5,19c-11.32184,0 -20.5,-8.50659 -20.5,-19c0,-10.49341 9.17816,-19 20.5,-19c11.32184,0 20.5,8.50659 20.5,19z" fill="url(#color-4)" stroke="none" stroke-width="0"/><path d="M220.80941,106.53634c0,9.80305 -8.28273,17.75 -18.5,17.75c-10.21727,0 -18.5,-7.94695 -18.5,-17.75c0,-9.80305 8.28273,-17.75 18.5,-17.75c10.21727,0 18.5,7.94695 18.5,17.75z" fill="url(#color-5)" stroke="none" stroke-width="0"/><path d="M233.80941,123.03634c0,8.97463 -7.05152,16.25 -15.75,16.25c-8.69848,0 -15.75,-7.27537 -15.75,-16.25c0,-8.97463 7.05152,-16.25 15.75,-16.25c8.69848,0 15.75,7.27537 15.75,16.25z" fill="url(#color-6)" stroke="none" stroke-width="0"/><path d="M248.30941,134.03634c0,5.10863 -3.91751,9.25 -8.75,9.25c-4.83249,0 -8.75,-4.14137 -8.75,-9.25c0,-5.10863 3.91751,-9.25 8.75,-9.25c4.83249,0 8.75,4.14137 8.75,9.25z" fill="url(#color-7)" stroke="none" stroke-width="0"/><path d="M279.8094,158.03634c0,5.10863 -3.35786,9.25 -7.5,9.25c-4.14214,0 -7.5,-4.14137 -7.5,-9.25c0,-5.10863 3.35786,-9.25 7.5,-9.25c4.14214,0 7.5,4.14137 7.5,9.25z" fill="url(#color-8)" stroke="none" stroke-width="0"/><path d="M290.3094,175.03634c0,3.17564 -2.68629,5.75 -6,5.75c-3.31371,0 -6,-2.57436 -6,-5.75c0,-3.17564 2.68629,-5.75 6,-5.75c3.31371,0 6,2.57436 6,5.75z" fill="url(#color-9)" stroke="none" stroke-width="0"/><path d="M270.3094,166.28634c0,4.97056 -4.14137,9 -9.25,9c-5.10863,0 -9.25,-4.02944 -9.25,-9c0,-4.97056 4.14137,-9 9.25,-9c5.10863,0 9.25,4.02944 9.25,9z" fill="url(#color-10)" stroke="none" stroke-width="0"/><path d="M253.30941,104.28634c0,3.58985 -3.35786,6.5 -7.5,6.5c-4.14214,0 -7.5,-2.91015 -7.5,-6.5c0,-3.58985 3.35786,-6.5 7.5,-6.5c4.14214,0 7.5,2.91015 7.5,6.5z" fill="url(#color-11)" stroke="none" stroke-width="0"/><path d="M235.30941,103.03634c0,5.93706 -5.26065,10.75 -11.75,10.75c-6.48935,0 -11.75,-4.81294 -11.75,-10.75c0,-5.93706 5.26065,-10.75 11.75,-10.75c6.48935,0 11.75,4.81294 11.75,10.75z" fill="url(#color-12)" stroke="none" stroke-width="0"/><path d="M195.80941,109.78634c0,3.58985 -3.24594,6.5 -7.25,6.5c-4.00406,0 -7.25,-2.91015 -7.25,-6.5c0,-3.58985 3.24594,-6.5 7.25,-6.5c4.00406,0 7.25,2.91015 7.25,6.5z" fill="url(#color-13)" stroke="none" stroke-width="0"/><path d="M254.30941,116.78634c0,2.20914 -1.90279,4 -4.25,4c-2.34721,0 -4.25,-1.79086 -4.25,-4c0,-2.20914 1.90279,-4 4.25,-4c2.34721,0 4.25,1.79086 4.25,4z" fill="url(#color-14)" stroke="none" stroke-width="0"/><path d="M226.80941,127.53634c0,0.9665 -1.34315,1.75 -3,1.75c-1.65685,0 -3,-0.7835 -3,-1.75c0,-0.9665 1.34315,-1.75 3,-1.75c1.65685,0 3,0.7835 3,1.75z" fill="url(#color-15)" stroke="none" stroke-width="0"/><path d="M217.80941,140.53634c0,1.51878 -1.67893,2.75 -3.75,2.75c-2.07107,0 -3.75,-1.23122 -3.75,-2.75c0,-1.51878 1.67893,-2.75 3.75,-2.75c2.07107,0 3.75,1.23122 3.75,2.75z" fill="url(#color-16)" stroke="none" stroke-width="0"/><path d="M264.8094,148.78634c0,2.20914 -1.45507,4 -3.25,4c-1.79493,0 -3.25,-1.79086 -3.25,-4c0,-2.20914 1.45507,-4 3.25,-4c1.79493,0 3.25,1.79086 3.25,4z" fill="url(#color-17)" stroke="none" stroke-width="0"/><path d="M250.80941,159.28634c0,0.82843 -1.00736,1.5 -2.25,1.5c-1.24264,0 -2.25,-0.67157 -2.25,-1.5c0,-0.82843 1.00736,-1.5 2.25,-1.5c1.24264,0 2.25,0.67157 2.25,1.5z" fill="url(#color-18)" stroke="none" stroke-width="0"/><path d="M211.30941,95.03634c0,2.07107 -1.45507,3.75 -3.25,3.75c-1.79493,0 -3.25,-1.67893 -3.25,-3.75c0,-2.07107 1.45507,-3.75 3.25,-3.75c1.79493,0 3.25,1.67893 3.25,3.75z" fill="url(#color-19)" stroke="none" stroke-width="0"/><path d="M196.30941,92.78634c0,0.55228 -1.11929,1 -2.5,1c-1.38071,0 -2.5,-0.44772 -2.5,-1c0,-0.55228 1.11929,-1 2.5,-1c1.38071,0 2.5,0.44772 2.5,1z" fill="url(#color-20)" stroke="none" stroke-width="0"/><path d="M269.8094,136.03634c0,0.9665 -0.7835,1.75 -1.75,1.75c-0.9665,0 -1.75,-0.7835 -1.75,-1.75c0,-0.9665 0.7835,-1.75 1.75,-1.75c0.9665,0 1.75,0.7835 1.75,1.75z" fill="url(#color-21)" stroke="none" stroke-width="0"/><path d="M290.8094,158.53634c0,1.24264 -1.11929,2.25 -2.5,2.25c-1.38071,0 -2.5,-1.00736 -2.5,-2.25c0,-1.24264 1.11929,-2.25 2.5,-2.25c1.38071,0 2.5,1.00736 2.5,2.25z" fill="url(#color-22)" stroke="none" stroke-width="0"/><path d="M272.8094,171.03634c0,1.24264 -0.67157,2.25 -1.5,2.25c-0.82843,0 -1.5,-1.00736 -1.5,-2.25c0,-1.24264 0.67157,-2.25 1.5,-2.25c0.82843,0 1.5,1.00736 1.5,2.25z" fill="url(#color-23)" stroke="none" stroke-width="0"/><path d="M204.80941,118.28634c0,1.10457 -1.23122,2 -2.75,2c-1.51878,0 -2.75,-0.89543 -2.75,-2c0,-1.10457 1.23122,-2 2.75,-2c1.51878,0 2.75,0.89543 2.75,2z" fill="url(#color-24)" stroke="none" stroke-width="0"/><path d="M234.30941,152.78634c0,1.10457 -0.89543,2 -2,2c-1.10457,0 -2,-0.89543 -2,-2c0,-1.10457 0.89543,-2 2,-2c1.10457,0 2,0.89543 2,2z" fill="url(#color-25)" stroke="none" stroke-width="0"/><path d="M260.3094,97.28634c0,1.10457 -1.11929,2 -2.5,2c-1.38071,0 -2.5,-0.89543 -2.5,-2c0,-1.10457 1.11929,-2 2.5,-2c1.38071,0 2.5,0.89543 2.5,2z" fill="url(#color-26)" stroke="none" stroke-width="0"/><path d="M200.80941,134.28634c0,0.55228 -0.67157,1 -1.5,1c-0.82843,0 -1.5,-0.44772 -1.5,-1c0,-0.55228 0.67157,-1 1.5,-1c0.82843,0 1.5,0.44772 1.5,1z" fill="url(#color-27)" stroke="none" stroke-width="0"/><path d="M289.3094,143.03634c0,0.9665 -1.34315,1.75 -3,1.75c-1.65685,0 -3,-0.7835 -3,-1.75c0,-0.9665 1.34315,-1.75 3,-1.75c1.65685,0 3,0.7835 3,1.75z" fill="url(#color-28)" stroke="none" stroke-width="0"/><text transform="translate(173.54178,172.95977) scale(0.15846,0.15846)" font-size="40" xml:space="preserve" fill="#ffffff" fill-rule="nonzero" stroke="#ffffff" stroke-width="1" stroke-linecap="butt" stroke-linejoin="miter" stroke-miterlimit="10" stroke-dasharray="" stroke-dashoffset="0" font-family="Handwriting" font-weight="normal" text-anchor="start" style="mix-blend-mode: normal"></text><g stroke="none" stroke-width="0"><path d="M211.25076,134.69624c4.06157,-1.5346 8.5377,0.35386 9.9977,4.21799c1.46,3.86413 -0.64898,8.24068 -4.71056,9.77528c-4.06157,1.5346 -8.5377,-0.35386 -9.9977,-4.21799c-1.46,-3.86413 0.64898,-8.24068 4.71055,-9.77528z" fill="url(#color-29)"/><path d="M221.28668,137.99633c5.88928,-2.22517 12.52955,0.9098 14.83145,7.00216c2.3019,6.09236 -0.60624,12.83505 -6.49552,15.06022c-5.88928,2.22517 -12.52955,-0.9098 -14.83145,-7.00216c-2.3019,-6.09236 0.60624,-12.83505 6.49552,-15.06022z" fill="url(#color-30)"/><path d="M214.08439,150.765c4.91805,-1.85821 10.60685,1.13981 12.70627,6.69627c2.09942,5.55646 -0.18554,11.56723 -5.10359,13.42544c-4.91805,1.85821 -10.60684,-1.13981 -12.70626,-6.69627c-2.09942,-5.55646 0.18553,-11.56723 5.10359,-13.42545z" fill="url(#color-31)"/><path d="M214.60689,147.04746c2.67951,-1.01241 5.70696,0.4305 6.762,3.22283c1.05504,2.79233 -0.26186,5.87669 -2.94137,6.8891c-2.67951,1.01241 -5.70696,-0.4305 -6.762,-3.22283c-1.05504,-2.79233 0.26186,-5.87669 2.94137,-6.8891z" fill="url(#color-32)"/><path d="M214.68123,145.93775c-0.15953,-0.42222 -0.14883,-0.8174 0.0239,-0.88267c0.17273,-0.06526 0.44208,0.22411 0.60161,0.64633c0.15953,0.42222 0.14883,0.8174 -0.0239,0.88267c-0.17273,0.06526 -0.44208,-0.22411 -0.60161,-0.64633z" fill="url(#color-33)"/><path d="M217.66269,139.58403c0.15892,-0.26354 0.38744,-0.41705 0.51042,-0.34289c0.12299,0.07416 0.09386,0.34792 -0.06506,0.61145c-0.15892,0.26354 -0.38744,0.41705 -0.51043,0.34289c-0.12299,-0.07416 -0.09386,-0.34792 0.06506,-0.61145z" fill="url(#color-34)"/><path d="M222.63301,142.47193c0.01929,-0.5536 0.15128,-0.99832 0.2948,-0.99333c0.14353,0.005 0.24424,0.45783 0.22495,1.01143c-0.01929,0.5536 -0.15128,0.99832 -0.2948,0.99333c-0.14353,-0.005 -0.24424,-0.45784 -0.22495,-1.01143z" fill="url(#color-35)"/><path d="M209.57295,144.06962c-0.17433,-0.14332 -0.15721,-0.45221 0.03823,-0.68993c0.19544,-0.23771 0.4952,-0.31424 0.66952,-0.17091c0.17433,0.14332 0.15721,0.45221 -0.03823,0.68993c-0.19544,0.23771 -0.49519,0.31423 -0.66952,0.17091z" fill="url(#color-36)"/><path d="M214.04161,168.26272c-0.25223,-0.21008 -0.33963,-0.52096 -0.19519,-0.69437c0.14443,-0.17341 0.46598,-0.14368 0.71822,0.06639c0.25223,0.21008 0.33963,0.52096 0.1952,0.69436c-0.14443,0.17341 -0.46598,0.14368 -0.71822,-0.06639z" fill="url(#color-37)"/><path d="M215.72282,161.28751c0.45614,0.12085 0.77905,0.39567 0.72125,0.61381c-0.0578,0.21815 -0.47442,0.29703 -0.93055,0.17618c-0.45614,-0.12085 -0.77905,-0.39567 -0.72125,-0.61381c0.0578,-0.21815 0.47442,-0.29703 0.93055,-0.17618z" fill="url(#color-38)"/><path d="M218.83798,161.13456c-0.38129,-0.34305 -0.57915,-0.74479 -0.44193,-0.89731c0.13722,-0.15252 0.55756,0.00194 0.93885,0.34499c0.38129,0.34305 0.57915,0.74479 0.44193,0.89731c-0.13722,0.15252 -0.55756,-0.00194 -0.93885,-0.34499z" fill="url(#color-39)"/><path d="M226.20718,145.67951c0.03783,-0.24327 0.43006,-0.38424 0.87605,-0.31488c0.44599,0.06937 0.77687,0.32281 0.73903,0.56608c-0.03783,0.24327 -0.43006,0.38424 -0.87605,0.31488c-0.44599,-0.06937 -0.77687,-0.32281 -0.73903,-0.56607z" fill="url(#color-40)"/><path d="M213.54927,164.1795c-0.08702,-0.2303 -0.04865,-0.45815 0.08569,-0.50891c0.13434,-0.05076 0.31379,0.09479 0.4008,0.32509c0.08702,0.2303 0.04865,0.45815 -0.08569,0.50891c-0.13434,0.05076 -0.31379,-0.09479 -0.4008,-0.32509z" fill="url(#color-41)"/><path d="M216.17654,164.42838c0.1323,-0.6011 0.33701,-1.06693 0.45723,-1.04047c0.12022,0.02646 0.11042,0.53519 -0.02188,1.13629c-0.1323,0.6011 -0.33701,1.06693 -0.45723,1.04047c-0.12022,-0.02646 -0.11042,-0.53519 0.02188,-1.13629z" fill="url(#color-42)"/><path d="M219.80212,166.7029c-0.07271,-0.07236 0.13815,-0.40217 0.47099,-0.73666c0.33283,-0.33449 0.6616,-0.54699 0.73431,-0.47463c0.07271,0.07236 -0.13815,0.40217 -0.47099,0.73666c-0.33283,0.33449 -0.6616,0.54699 -0.73431,0.47463z" fill="url(#color-43)"/><path d="M221.50965,158.96871c0.12409,-0.43396 0.3686,-0.7446 0.54613,-0.69384c0.17753,0.05076 0.22085,0.44371 0.09676,0.87767c-0.12409,0.43396 -0.3686,0.7446 -0.54613,0.69384c-0.17753,-0.05076 -0.22086,-0.44371 -0.09676,-0.87767z" fill="url(#color-44)"/><path d="M224.24404,155.43267c0.17273,-0.06526 0.44208,0.22411 0.60161,0.64633c0.15953,0.42222 0.14884,0.81741 -0.02389,0.88267c-0.17273,0.06526 -0.44208,-0.22411 -0.60161,-0.64634c-0.15953,-0.42222 -0.14883,-0.8174 0.0239,-0.88267z" fill="url(#color-45)"/><path d="M229.34708,150.1999c0.04322,-0.13696 0.31616,-0.17291 0.60964,-0.08031c0.29348,0.09261 0.49636,0.2787 0.45314,0.41566c-0.04322,0.13696 -0.31616,0.17291 -0.60964,0.08031c-0.29348,-0.09261 -0.49636,-0.2787 -0.45314,-0.41565z" fill="url(#color-46)"/><path d="M227.18161,147.8561c0.10436,-0.09866 0.49746,0.14767 0.878,0.5502c0.38055,0.40253 0.60444,0.80882 0.50008,0.90748c-0.10436,0.09866 -0.49746,-0.14767 -0.878,-0.5502c-0.38055,-0.40253 -0.60444,-0.80882 -0.50008,-0.90748z" fill="url(#color-47)"/><path d="M218.35227,149.64245c0.30381,0.04908 0.5209,0.26948 0.48491,0.49227c-0.036,0.22279 -0.31146,0.3636 -0.61525,0.31452c-0.30381,-0.04908 -0.5209,-0.26948 -0.4849,-0.49227c0.036,-0.22279 0.31145,-0.3636 0.61525,-0.31452z" fill="url(#color-48)"/><path d="M219.69247,148.3193c0.22301,0.03457 0.36303,0.32557 0.31273,0.64995c-0.05029,0.32438 -0.27185,0.55931 -0.49486,0.52474c-0.22301,-0.03457 -0.36303,-0.32557 -0.31273,-0.64995c0.05029,-0.32438 0.27185,-0.55931 0.49487,-0.52474z" fill="url(#color-49)"/><path d="M229.78122,153.84465c-0.18761,-0.12542 -0.12711,-0.54511 0.13515,-0.93739c0.26225,-0.39228 0.62694,-0.60861 0.81456,-0.48319c0.18761,0.12542 0.12711,0.54511 -0.13515,0.93739c-0.26225,0.39228 -0.62694,0.60861 -0.81456,0.48319z" fill="url(#color-50)"/><path d="M218.24795,153.91501c0.20379,0.02367 0.32102,0.45587 0.26184,0.96535c-0.05918,0.50948 -0.27236,0.9033 -0.47615,0.87963c-0.20379,-0.02367 -0.32102,-0.45587 -0.26184,-0.96535c0.05918,-0.50948 0.27236,-0.9033 0.47615,-0.87963z" fill="url(#color-51)"/><path d="M220.17402,155.0697c0.28869,-0.34695 0.67614,-0.50057 0.86539,-0.34309c0.18925,0.15747 0.10864,0.56638 -0.18006,0.91334c-0.28869,0.34695 -0.67614,0.50057 -0.86539,0.34309c-0.18925,-0.15747 -0.10864,-0.56638 0.18006,-0.91334z" fill="url(#color-52)"/><path d="M226.84867,150.20079c0.13434,-0.05076 0.31379,0.09479 0.40081,0.32509c0.08702,0.2303 0.04865,0.45815 -0.0857,0.50891c-0.13434,0.05076 -0.31379,-0.09479 -0.4008,-0.32509c-0.08702,-0.2303 -0.04865,-0.45815 0.08569,-0.50891z" fill="url(#color-53)"/><path d="M209.7143,140.36184c0.07269,-0.09935 0.53429,0.11473 1.03102,0.47816c0.49674,0.36343 0.84049,0.73857 0.76781,0.83792c-0.07269,0.09935 -0.53429,-0.11473 -1.03102,-0.47816c-0.49674,-0.36343 -0.84049,-0.73857 -0.76781,-0.83792z" fill="url(#color-54)"/><path d="M228.84205,156.26332c0.47086,0.03083 0.84714,0.1388 0.84044,0.24116c-0.0067,0.10236 -0.39385,0.16035 -0.86471,0.12953c-0.47086,-0.03083 -0.84714,-0.1388 -0.84044,-0.24116c0.0067,-0.10236 0.39385,-0.16035 0.86471,-0.12953z" fill="url(#color-55)"/><path d="M231.37674,147.5804c0.09961,-0.15547 0.48844,-0.08413 0.86849,0.15934c0.38005,0.24348 0.6074,0.56689 0.5078,0.72237c-0.09961,0.15547 -0.48844,0.08413 -0.86849,-0.15934c-0.38005,-0.24348 -0.6074,-0.56689 -0.50779,-0.72237z" fill="url(#color-56)"/><path d="M216.12449,143.6753c-0.088,0.16233 -0.481,0.11955 -0.87781,-0.09555c-0.39681,-0.2151 -0.64714,-0.52106 -0.55916,-0.68339c0.088,-0.16233 0.481,-0.11955 0.87781,0.09555c0.39681,0.2151 0.64714,0.52106 0.55916,0.68339z" fill="url(#color-57)"/><path d="M215.33082,139.3925c0.05687,0.13187 -0.12611,0.33757 -0.40869,0.45943c-0.28259,0.12186 -0.55777,0.11375 -0.61464,-0.01812c-0.05687,-0.13187 0.12611,-0.33757 0.40869,-0.45943c0.28259,-0.12186 0.55777,-0.11375 0.61464,0.01812z" fill="url(#color-58)"/><path d="M225.88641,145.95615c-0.01443,0.14288 -0.47291,0.21359 -1.02404,0.15793c-0.55113,-0.05566 -0.98621,-0.21661 -0.97178,-0.3595c0.01443,-0.14288 0.47291,-0.21359 1.02404,-0.15793c0.55113,0.05566 0.98621,0.21661 0.97178,0.3595z" fill="url(#color-59)"/><path d="M223.92985,149.78702c-0.26194,0.16154 -0.57031,0.13678 -0.68877,-0.05531c-0.11846,-0.19209 -0.00216,-0.47875 0.25978,-0.6403c0.26194,-0.16154 0.57031,-0.13678 0.68877,0.05531c0.11846,0.19209 0.00216,0.47875 -0.25978,0.6403z" fill="url(#color-60)"/><path d="M218.46026,157.12074c-0.19133,0.11968 -0.48755,-0.0089 -0.66164,-0.28719c-0.17408,-0.2783 -0.16011,-0.60092 0.03122,-0.72061c0.19133,-0.11968 0.48755,0.0089 0.66164,0.28719c0.17408,0.2783 0.1601,0.60092 -0.03122,0.72061z" fill="url(#color-61)"/><path d="M213.3053,138.26319c0.22395,-0.0278 0.45264,0.32927 0.51077,0.79755c0.05813,0.46828 -0.07629,0.87043 -0.30025,0.89823c-0.22395,0.0278 -0.45264,-0.32927 -0.51077,-0.79755c-0.05813,-0.46828 0.07629,-0.87043 0.30025,-0.89823z" fill="url(#color-62)"/><path d="M217.94675,148.40193c-0.16965,0.11536 -0.54099,-0.13495 -0.82939,-0.55908c-0.28841,-0.42414 -0.38468,-0.86149 -0.21502,-0.97685c0.16965,-0.11536 0.54099,0.13495 0.82939,0.55909c0.28841,0.42414 0.38468,0.86149 0.21502,0.97685z" fill="url(#color-63)"/><path d="M218.54927,154.34648c0.00849,0.45128 -0.18417,0.82086 -0.43032,0.82549c-0.24615,0.00463 -0.45258,-0.35745 -0.46107,-0.80872c-0.00849,-0.45128 0.18417,-0.82086 0.43032,-0.82549c0.24615,-0.00463 0.45258,0.35744 0.46107,0.80872z" fill="url(#color-64)"/><path d="M226.18055,153.12021c-0.06844,0.12626 -0.29938,0.13349 -0.51582,0.01617c-0.21644,-0.11733 -0.33642,-0.31479 -0.26798,-0.44104c0.06844,-0.12626 0.29938,-0.13349 0.51582,-0.01617c0.21644,0.11733 0.33642,0.31479 0.26798,0.44104z" fill="url(#color-65)"/><path d="M220.84353,158.27449c0.00998,0.12269 -0.47923,0.2626 -1.09269,0.31251c-0.61346,0.0499 -1.11885,-0.00911 -1.12883,-0.1318c-0.00998,-0.12269 0.47923,-0.2626 1.09269,-0.31251c0.61346,-0.0499 1.11885,0.00911 1.12883,0.1318z" fill="url(#color-66)"/><path d="M210.2689,138.01204c-0.37638,0.28461 -0.73166,0.44899 -0.79353,0.36717c-0.06187,-0.08182 0.1931,-0.37887 0.56947,-0.66348c0.37638,-0.28461 0.73166,-0.44899 0.79353,-0.36717c0.06187,0.08182 -0.1931,0.37887 -0.56947,0.66348z" fill="url(#color-67)"/><path d="M220.84625,163.27537c0.02632,0.18276 -0.3145,0.38307 -0.76125,0.44741c-0.44675,0.06434 -0.83024,-0.03166 -0.85656,-0.21442c-0.02632,-0.18276 0.3145,-0.38307 0.76125,-0.44741c0.44675,-0.06434 0.83024,0.03166 0.85656,0.21442z" fill="url(#color-68)"/></g></g></g></svg>