<svg version="1.1" xmlns="http://www.w3.org/2000/svg" xmlns:xlink="http://www.w3.org/1999/xlink" width="110.75" height="183.09349" viewBox="0,0,110.75,183.09349"><defs><linearGradient x1="240.67821" y1="-8.39277" x2="240.67821" y2="268.49526" gradientUnits="userSpaceOnUse" id="color-1"><stop offset="0" stop-color="#000000"/><stop offset="1" stop-color="#000000" stop-opacity="0"/></linearGradient><radialGradient cx="210.46672" cy="162.81738" r="8.62845" gradientUnits="userSpaceOnUse" id="color-2"><stop offset="0" stop-color="#9a33ff"/><stop offset="1" stop-color="#de68ff"/></radialGradient><radialGradient cx="197.98169" cy="133.89339" r="8.62845" gradientUnits="userSpaceOnUse" id="color-3"><stop offset="0" stop-color="#9a33ff"/><stop offset="1" stop-color="#de68ff"/></radialGradient><radialGradient cx="238.24701" cy="171.94214" r="8.62846" gradientUnits="userSpaceOnUse" id="color-4"><stop offset="0" stop-color="#9a33ff"/><stop offset="1" stop-color="#de68ff"/></radialGradient><radialGradient cx="269.77982" cy="159.6026" r="8.62845" gradientUnits="userSpaceOnUse" id="color-5"><stop offset="0" stop-color="#9a33ff"/><stop offset="1" stop-color="#de68ff"/></radialGradient><radialGradient cx="281.64474" cy="129.6444" r="8.62846" gradientUnits="userSpaceOnUse" id="color-6"><stop offset="0" stop-color="#9a33ff"/><stop offset="1" stop-color="#de68ff"/></radialGradient><radialGradient cx="269.99388" cy="99.41945" r="8.62846" gradientUnits="userSpaceOnUse" id="color-7"><stop offset="0" stop-color="#9a33ff"/><stop offset="1" stop-color="#de68ff"/></radialGradient><radialGradient cx="236.10607" cy="89.22038" r="8.62845" gradientUnits="userSpaceOnUse" id="color-8"><stop offset="0" stop-color="#9a33ff"/><stop offset="1" stop-color="#de68ff"/></radialGradient><radialGradient cx="206.05912" cy="104.10188" r="8.62845" gradientUnits="userSpaceOnUse" id="color-9"><stop offset="0" stop-color="#9a33ff"/><stop offset="1" stop-color="#de68ff"/></radialGradient><radialGradient cx="239.12276" cy="132.26815" r="48.43675" gradientUnits="userSpaceOnUse" id="color-10"><stop offset="0" stop-color="#66a2ff"/><stop offset="1" stop-color="#5868ff"/></radialGradient><radialGradient cx="191.35598" cy="114.87738" r="8.62846" gradientUnits="userSpaceOnUse" id="color-11"><stop offset="0" stop-color="#9a33ff"/><stop offset="1" stop-color="#de68ff"/></radialGradient><radialGradient cx="258.3448" cy="89.53813" r="8.62845" gradientUnits="userSpaceOnUse" id="color-12"><stop offset="0" stop-color="#9a33ff"/><stop offset="1" stop-color="#de68ff"/></radialGradient><radialGradient cx="284.84908" cy="150.70183" r="8.62845" gradientUnits="userSpaceOnUse" id="color-13"><stop offset="0" stop-color="#9a33ff"/><stop offset="1" stop-color="#de68ff"/></radialGradient><radialGradient cx="219.89904" cy="177.78862" r="8.62845" gradientUnits="userSpaceOnUse" id="color-14"><stop offset="0" stop-color="#9a33ff"/><stop offset="1" stop-color="#de68ff"/></radialGradient><radialGradient cx="214.94769" cy="88.20908" r="8.62846" gradientUnits="userSpaceOnUse" id="color-15"><stop offset="0" stop-color="#9a33ff"/><stop offset="1" stop-color="#de68ff"/></radialGradient><radialGradient cx="282.51903" cy="111.50954" r="8.62845" gradientUnits="userSpaceOnUse" id="color-16"><stop offset="0" stop-color="#9a33ff"/><stop offset="1" stop-color="#de68ff"/></radialGradient><radialGradient cx="258.63606" cy="175.0033" r="8.62845" gradientUnits="userSpaceOnUse" id="color-17"><stop offset="0" stop-color="#9a33ff"/><stop offset="1" stop-color="#de68ff"/></radialGradient><radialGradient cx="220.59993" cy="108.34674" r="8.62845" gradientUnits="userSpaceOnUse" id="color-18"><stop offset="0" stop-color="#9a33ff"/><stop offset="1" stop-color="#de68ff"/></radialGradient><radialGradient cx="269.26523" cy="132.22971" r="8.62845" gradientUnits="userSpaceOnUse" id="color-19"><stop offset="0" stop-color="#9a33ff"/><stop offset="1" stop-color="#de68ff"/></radialGradient><radialGradient cx="257.90626" cy="108.638" r="8.62845" gradientUnits="userSpaceOnUse" id="color-20"><stop offset="0" stop-color="#9a33ff"/><stop offset="1" stop-color="#de68ff"/></radialGradient><radialGradient cx="210.14031" cy="132.52096" r="8.62845" gradientUnits="userSpaceOnUse" id="color-21"><stop offset="0" stop-color="#9a33ff"/><stop offset="1" stop-color="#de68ff"/></radialGradient><radialGradient cx="221.4737" cy="156.69519" r="8.62845" gradientUnits="userSpaceOnUse" id="color-22"><stop offset="0" stop-color="#9a33ff"/><stop offset="1" stop-color="#de68ff"/></radialGradient><radialGradient cx="258.48876" cy="155.53017" r="8.62845" gradientUnits="userSpaceOnUse" id="color-23"><stop offset="0" stop-color="#9a33ff"/><stop offset="1" stop-color="#de68ff"/></radialGradient><radialGradient cx="238.94905" cy="133.39474" r="8.62845" gradientUnits="userSpaceOnUse" id="color-24"><stop offset="0" stop-color="#9a33ff"/><stop offset="1" stop-color="#de68ff"/></radialGradient><radialGradient cx="195.1423" cy="151.70283" r="8.62846" gradientUnits="userSpaceOnUse" id="color-25"><stop offset="0" stop-color="#9a33ff"/><stop offset="1" stop-color="#de68ff"/></radialGradient></defs><g transform="translate(-183,-39.56741)"><g data-paper-data="{&quot;isPaintingLayer&quot;:true}" fill-rule="nonzero" stroke-linecap="butt" stroke-linejoin="miter" stroke-miterlimit="10" stroke-dasharray="" stroke-dashoffset="0" style="mix-blend-mode: normal"><path d="M288.58308,179.55c0.08306,2.91279 -7.47079,10.94732 -46.81921,10.94732c-39.34842,0 -50.33445,-6.8584 -50.34761,-11.54727c-0.01137,-4.04815 10.18494,-9.44736 49.53336,-9.44736c39.34842,0 47.55747,7.38292 47.63346,10.04731z" fill="url(#color-1)" stroke="none" stroke-width="0"/><text transform="translate(212.76854,214.83835) scale(0.46015,0.46015)" font-size="40" xml:space="preserve" fill="#000000" fill-rule="nonzero" stroke="#000000" stroke-width="1" stroke-linecap="butt" stroke-linejoin="miter" stroke-miterlimit="10" stroke-dasharray="" stroke-dashoffset="0" font-family="Handwriting" font-weight="normal" text-anchor="start" style="mix-blend-mode: normal"></text><text transform="translate(195.8843,58.51763) scale(0.49869,0.49869)" font-size="40" xml:space="preserve" fill="#000000" fill-rule="nonzero" stroke="#000000" stroke-width="1" stroke-linecap="butt" stroke-linejoin="miter" stroke-miterlimit="10" stroke-dasharray="" stroke-dashoffset="0" font-family="Handwriting" font-weight="normal" text-anchor="start" style="mix-blend-mode: normal"></text><g stroke="none"><path d="M212.50913,168.08726c-1.44122,2.07595 -4.19436,2.91119 -6.59536,1.85701c-2.72708,-1.19734 -3.96718,-4.37871 -2.76984,-7.10579c0.4255,-0.96913 1.10157,-1.75048 1.91877,-2.30138c-0.39726,-1.21609 -0.36577,-2.5772 0.18902,-3.84079c1.19734,-2.72708 4.3787,-3.96718 7.10578,-2.76984c1.75513,0.7706 2.89434,2.36303 3.16424,4.12724c0.63574,0.03222 1.27648,0.17836 1.89394,0.44946c2.72708,1.19734 3.96719,4.37871 2.76985,7.10579c-1.19734,2.72708 -4.37871,3.96718 -7.10579,2.76984c-0.19818,-0.08702 -0.38851,-0.18451 -0.57061,-0.29154z" data-paper-data="{&quot;index&quot;:null}" fill="url(#color-2)" stroke-width="0.5"/><path d="M195.77609,139.09707c-2.48012,0.48549 -5.03722,-0.83308 -6.02553,-3.26193c-1.12253,-2.75871 0.20386,-5.90508 2.96257,-7.02762c0.98038,-0.39892 2.00971,-0.48856 2.97978,-0.31455c0.56211,-1.14924 1.53284,-2.10386 2.81108,-2.62398c2.75871,-1.12253 5.90508,0.20385 7.02761,2.96256c0.72245,1.7755 0.43053,3.71157 -0.60476,5.16533c0.43367,0.46597 0.79159,1.01716 1.04575,1.64178c1.12253,2.75871 -0.20386,5.90509 -2.96257,7.02763c-2.75871,1.12253 -5.90508,-0.20386 -7.02761,-2.96258c-0.08157,-0.20048 -0.15022,-0.40301 -0.20632,-0.60665z" data-paper-data="{&quot;index&quot;:null}" fill="url(#color-3)" stroke-width="0.5"/><path d="M234.55077,176.21775c-2.50943,-0.29912 -4.53843,-2.33886 -4.7336,-4.95381c-0.22167,-2.97009 2.00637,-5.55753 4.97646,-5.7792c1.0555,-0.07878 2.06266,0.15183 2.9325,0.61516c0.88769,-0.92125 2.10456,-1.53187 3.48075,-1.63458c2.97009,-0.22167 5.55752,2.00636 5.77919,4.97645c0.14266,1.91153 -0.72938,3.66458 -2.16088,4.73044c0.26973,0.57657 0.4412,1.21102 0.49139,1.8835c0.22167,2.97009 -2.00636,5.55753 -4.97645,5.7792c-2.97009,0.22167 -5.55753,-2.00637 -5.7792,-4.97646c-0.01611,-0.21584 -0.01928,-0.42966 -0.01017,-0.64069z" data-paper-data="{&quot;index&quot;:null}" fill="url(#color-4)" stroke-width="0.5"/><path d="M268.28616,165.05348c-2.39348,0.81115 -5.10328,-0.15549 -6.40596,-2.43125c-1.4796,-2.58484 -0.58361,-5.87971 2.00123,-7.3593c0.91859,-0.52581 1.92684,-0.75161 2.91143,-0.70821c0.4042,-1.21381 1.2393,-2.28909 2.43698,-2.97466c2.58484,-1.47959 5.8797,-0.58362 7.3593,2.00122c0.95226,1.66359 0.92052,3.6213 0.08785,5.19988c0.49181,0.40412 0.91988,0.90279 1.25489,1.48805c1.4796,2.58484 0.58362,5.87971 -2.00122,7.35931c-2.58484,1.47959 -5.87971,0.58361 -7.3593,-2.00123c-0.10752,-0.18784 -0.2025,-0.37944 -0.28519,-0.57381z" data-paper-data="{&quot;index&quot;:null}" fill="url(#color-5)" stroke-width="0.5"/><path d="M276.02021,130.19917c-1.61356,-1.94502 -1.68009,-4.8213 -0.0208,-6.85177c1.88464,-2.30624 5.28201,-2.648 7.58825,-0.76336c0.81957,0.66975 1.39106,1.53055 1.70269,2.46553c1.27808,-0.05667 2.58093,0.33858 3.64952,1.21183c2.30624,1.88464 2.648,5.28201 0.76336,7.58825c-1.21294,1.48427 -3.0525,2.15484 -4.82448,1.94187c-0.20148,0.60382 -0.51406,1.18194 -0.94077,1.70411c-1.88464,2.30623 -5.28202,2.648 -7.58825,0.76336c-2.30624,-1.88464 -2.648,-5.28201 -0.76336,-7.58824c0.13696,-0.1676 0.28192,-0.32482 0.43385,-0.47156z" data-paper-data="{&quot;index&quot;:null}" fill="url(#color-6)" stroke-width="0.5"/><path d="M266.29765,103.69507c-2.50943,-0.29912 -4.53843,-2.33887 -4.73359,-4.95382c-0.22167,-2.97009 2.00636,-5.55752 4.97645,-5.77919c1.0555,-0.07877 2.06267,0.15182 2.93251,0.61516c0.88769,-0.92125 2.10455,-1.53187 3.48074,-1.63458c2.97009,-0.22167 5.55752,2.00636 5.7792,4.97645c0.14267,1.91154 -0.72938,3.66458 -2.16089,4.73044c0.26973,0.57658 0.44121,1.21102 0.4914,1.8835c0.22167,2.97009 -2.00637,5.55752 -4.97646,5.7792c-2.97009,0.22167 -5.55752,-2.00637 -5.77919,-4.97646c-0.01611,-0.21584 -0.01928,-0.42966 -0.01017,-0.64069z" data-paper-data="{&quot;index&quot;:null}" fill="url(#color-7)" stroke-width="0.5"/><path d="M236.65025,94.84595c-1.94806,1.6099 -4.82446,1.67101 -6.85181,0.0079c-2.30268,-1.88898 -2.63805,-5.28698 -0.74907,-7.58967c0.6713,-0.81832 1.53317,-1.38818 2.46873,-1.69805c-0.05427,-1.27818 0.34343,-2.58028 1.21869,-3.64723c1.88898,-2.30268 5.28698,-2.63806 7.58967,-0.74908c1.48199,1.21574 2.1491,3.05655 1.93279,4.82813c0.60344,0.20262 1.18097,0.51628 1.70234,0.94398c2.30268,1.88898 2.63805,5.28699 0.74907,7.58967c-1.88898,2.30268 -5.28698,2.63806 -7.58967,0.74908c-0.16734,-0.13728 -0.32429,-0.28252 -0.47074,-0.43473z" data-paper-data="{&quot;index&quot;:null}" fill="url(#color-8)" stroke-width="0.5"/><path d="M201.09979,106.81261c-2.24583,-1.15885 -3.43218,-3.77992 -2.69938,-6.29767c0.83232,-2.85968 3.82529,-4.50318 6.68498,-3.67086c1.01626,0.29579 1.87894,0.86444 2.53148,1.60302c1.15407,-0.55211 2.5077,-0.698 3.83273,-0.31234c2.85969,0.83232 4.50319,3.82529 3.67087,6.68498c-0.53568,1.84048 -1.96634,3.1772 -3.68043,3.67435c0.05077,0.63452 -0.01076,1.28884 -0.19922,1.93633c-0.83232,2.85968 -3.82529,4.50319 -6.68498,3.67087c-2.85969,-0.83232 -4.50319,-3.8253 -3.67086,-6.68498c0.06048,-0.20781 0.13239,-0.40921 0.21481,-0.6037z" data-paper-data="{&quot;index&quot;:null}" fill="url(#color-9)" stroke-width="0.5"/><path d="M283.70168,131.83382c0.42412,9.7794 4.87037,14.96832 3.64495,18.06242c-1.18519,2.99254 -7.92971,3.94089 -14.02517,10.09579c-7.24135,7.31195 -8.67496,14.76316 -12.95788,16.90991c-4.17377,2.09204 -11.16341,-1.02935 -20.56871,-0.94286c-9.30658,0.08558 -15.59369,2.75722 -19.5428,1.11826c-4.16172,-1.7272 -5.92016,-7.9518 -13.65848,-15.36708c-5.83028,-5.58689 -11.80896,-6.71346 -13.21972,-9.61971c-1.68102,-3.46301 3.4891,-3.48134 2.07731,-20.25673c-0.82077,-9.75271 -5.40699,-13.50888 -4.68927,-16.13284c0.66128,-2.41762 6.28718,-3.74208 13.07104,-10.89241c6.17875,-6.51253 6.42574,-13.30761 10.49192,-15.90012c4.77044,-3.04153 13.17813,0.06612 25.03311,-0.3261c9.73394,-0.32205 17.28627,-2.63444 20.88607,-1.21346c4.50356,1.77773 4.30221,7.91733 11.43637,14.11827c5.96459,5.18436 11.9434,6.42419 13.39252,9.55065c1.94871,4.20432 -1.8218,10.40772 -1.37127,20.79602z" fill="url(#color-10)" stroke-width="0"/><path d="M187.31423,110.24905c0,-2.97835 2.41443,-5.39278 5.39279,-5.39278c2.97835,0 5.39278,2.41443 5.39278,5.39278c0,0.67435 -0.12377,1.31979 -0.34985,1.91485c1.50687,0.95637 2.50696,2.63963 2.50696,4.55649c0,2.97835 -2.41443,5.39278 -5.39278,5.39278c-1.38001,0 -2.63896,-0.51836 -3.59275,-1.37099c-0.83294,0.52679 -1.82015,0.83171 -2.87859,0.83171c-2.97835,0 -5.39278,-2.41443 -5.39278,-5.39278c0,-2.62223 1.87156,-4.80733 4.35177,-5.29239c-0.0248,-0.20977 -0.03754,-0.42324 -0.03754,-0.63967z" fill="url(#color-11)" stroke-width="0.5"/><path d="M254.30305,84.9098c0,-2.97835 2.41443,-5.39279 5.39278,-5.39279c2.97836,0 5.39278,2.41443 5.39278,5.39279c0,0.67435 -0.12378,1.31979 -0.34985,1.91485c1.50687,0.95637 2.50696,2.63963 2.50696,4.55649c0,2.97835 -2.41442,5.39278 -5.39278,5.39278c-1.38002,0 -2.63896,-0.51836 -3.59275,-1.37099c-0.83294,0.52679 -1.82015,0.83171 -2.87858,0.83171c-2.97836,0 -5.39279,-2.41443 -5.39279,-5.39279c0,-2.62223 1.87156,-4.80732 4.35177,-5.29238c-0.0248,-0.20977 -0.03754,-0.42323 -0.03754,-0.63967z" fill="url(#color-12)" stroke-width="0.5"/><path d="M280.80732,146.0735c0,-2.97835 2.41443,-5.39278 5.39279,-5.39278c2.97836,0 5.39278,2.41442 5.39278,5.39278c0,0.67435 -0.12378,1.3198 -0.34985,1.91486c1.50687,0.95637 2.50696,2.63963 2.50696,4.55648c0,2.97835 -2.41442,5.39279 -5.39278,5.39279c-1.38002,0 -2.63896,-0.51836 -3.59276,-1.37099c-0.83294,0.52679 -1.82015,0.83171 -2.87858,0.83171c-2.97836,0 -5.39279,-2.41443 -5.39279,-5.39279c0,-2.62223 1.87157,-4.80732 4.35177,-5.29238c-0.02479,-0.20977 -0.03755,-0.42324 -0.03755,-0.63968z" fill="url(#color-13)" stroke-width="0.5"/><path d="M215.85729,173.16029c0,-2.97835 2.41442,-5.39278 5.39278,-5.39278c2.97835,0 5.39279,2.41442 5.39279,5.39278c0,0.67435 -0.12378,1.3198 -0.34985,1.91486c1.50687,0.95637 2.50696,2.63963 2.50696,4.55649c0,2.97835 -2.41442,5.39278 -5.39278,5.39278c-1.38001,0 -2.63896,-0.51836 -3.59276,-1.37099c-0.83294,0.52679 -1.82015,0.83171 -2.87858,0.83171c-2.97835,0 -5.39279,-2.41443 -5.39279,-5.39279c0,-2.62223 1.87157,-4.80732 4.35177,-5.29238c-0.0248,-0.20977 -0.03754,-0.42324 -0.03754,-0.63968z" fill="url(#color-14)" stroke-width="0.5"/><path d="M210.94349,92.19774c-2.48021,-0.48506 -4.35177,-2.67016 -4.35177,-5.29239c0,-2.97835 2.41443,-5.39278 5.39279,-5.39278c1.05844,0 2.04565,0.30492 2.87859,0.83171c0.9538,-0.85263 2.21274,-1.37099 3.59275,-1.37099c2.97835,0 5.39279,2.41442 5.39279,5.39278c0,1.91685 -1.0001,3.60013 -2.50697,4.55649c0.22608,0.59506 0.34985,1.2405 0.34985,1.91485c0,2.97835 -2.41443,5.39278 -5.39278,5.39278c-2.97835,0 -5.39279,-2.41442 -5.39279,-5.39278c0,-0.21644 0.01275,-0.4299 0.03755,-0.63967z" data-paper-data="{&quot;index&quot;:null}" fill="url(#color-15)" stroke-width="0.5"/><path d="M278.51482,115.4982c-2.48021,-0.48506 -4.35177,-2.67015 -4.35177,-5.29238c0,-2.97835 2.41443,-5.39278 5.39279,-5.39278c1.05843,0 2.04564,0.30491 2.87858,0.8317c0.9538,-0.85263 2.21274,-1.37098 3.59276,-1.37098c2.97836,0 5.39278,2.41442 5.39278,5.39278c0,1.91685 -1.0001,3.60012 -2.50697,4.55649c0.22607,0.59506 0.34986,1.2405 0.34986,1.91486c0,2.97835 -2.41443,5.39278 -5.39279,5.39278c-2.97836,0 -5.39278,-2.41442 -5.39278,-5.39278c0,-0.21644 0.01274,-0.42991 0.03754,-0.63968z" data-paper-data="{&quot;index&quot;:null}" fill="url(#color-16)" stroke-width="0.5"/><path d="M254.63185,178.99196c-2.48021,-0.48506 -4.35177,-2.67015 -4.35177,-5.29238c0,-2.97835 2.41442,-5.39279 5.39278,-5.39279c1.05843,0 2.04565,0.30492 2.87859,0.83171c0.9538,-0.85263 2.21274,-1.37099 3.59275,-1.37099c2.97836,0 5.39278,2.41442 5.39278,5.39278c0,1.91685 -1.0001,3.60013 -2.50697,4.55649c0.22607,0.59506 0.34985,1.2405 0.34985,1.91485c0,2.97835 -2.41443,5.39278 -5.39279,5.39278c-2.97836,0 -5.39278,-2.41443 -5.39278,-5.39278c0,-0.21643 0.01274,-0.4299 0.03754,-0.63967z" data-paper-data="{&quot;index&quot;:null}" fill="url(#color-17)" stroke-width="0.5"/><path d="M219.98034,102.23337c1.72286,-2.42947 5.08899,-3.0023 7.51846,-1.27944c2.42947,1.72286 3.0023,5.08899 1.27944,7.51846c-0.39008,0.55008 -0.86443,1.00498 -1.39305,1.35959c0.67595,1.65178 0.51803,3.60336 -0.59079,5.16696c-1.72286,2.42947 -5.08899,3.00229 -7.51846,1.27943c-1.12569,-0.79829 -1.85277,-1.94936 -2.13758,-3.19659c-0.98416,-0.05212 -1.96583,-0.37445 -2.82921,-0.98672c-2.42947,-1.72286 -3.0023,-5.08899 -1.27944,-7.51847c1.51685,-2.13898 4.3075,-2.83876 6.61122,-1.79972c0.10112,-0.18546 0.2142,-0.36695 0.3394,-0.5435z" fill="url(#color-18)" stroke-width="0.5"/><path d="M270.22422,126.65984c2.30372,-1.03903 5.09436,-0.33926 6.61122,1.79972c1.72286,2.42947 1.15004,5.7956 -1.27943,7.51846c-0.86338,0.61226 -1.84504,0.9346 -2.82921,0.98672c-0.28481,1.24723 -1.01189,2.39831 -2.13758,3.1966c-2.42948,1.72286 -5.7956,1.15004 -7.51846,-1.27944c-1.10883,-1.5636 -1.26674,-3.51517 -0.5908,-5.16696c-0.52862,-0.35461 -1.00296,-0.80951 -1.39304,-1.35958c-1.72286,-2.42947 -1.15004,-5.7956 1.27943,-7.51846c2.42948,-1.72286 5.7956,-1.15004 7.51846,1.27943c0.1252,0.17655 0.23829,0.35805 0.3394,0.5435z" data-paper-data="{&quot;index&quot;:null}" fill="url(#color-19)" stroke-width="0.5"/><path d="M258.86525,103.06813c2.30372,-1.03903 5.09436,-0.33925 6.61122,1.79973c1.72286,2.42947 1.15004,5.7956 -1.27944,7.51846c-0.86338,0.61226 -1.84504,0.9346 -2.82921,0.98672c-0.28481,1.24724 -1.01189,2.39831 -2.13758,3.1966c-2.42947,1.72286 -5.7956,1.15004 -7.51846,-1.27944c-1.10882,-1.5636 -1.26674,-3.51517 -0.59079,-5.16696c-0.52863,-0.35461 -1.00296,-0.80951 -1.39305,-1.35958c-1.72286,-2.42947 -1.15004,-5.7956 1.27944,-7.51846c2.42947,-1.72286 5.7956,-1.15004 7.51846,1.27943c0.1252,0.17655 0.23829,0.35805 0.3394,0.5435z" data-paper-data="{&quot;index&quot;:null}" fill="url(#color-20)" stroke-width="0.5"/><path d="M211.0993,126.9511c2.30372,-1.03903 5.09437,-0.33926 6.61122,1.79972c1.72286,2.42948 1.15004,5.79561 -1.27944,7.51847c-0.86337,0.61226 -1.84504,0.9346 -2.8292,0.98672c-0.28481,1.24723 -1.01189,2.39831 -2.13758,3.19659c-2.42947,1.72286 -5.7956,1.15004 -7.51846,-1.27943c-1.10882,-1.5636 -1.26674,-3.51517 -0.5908,-5.16695c-0.52863,-0.35461 -1.00296,-0.80951 -1.39305,-1.35958c-1.72286,-2.42947 -1.15004,-5.79561 1.27944,-7.51847c2.42947,-1.72286 5.7956,-1.15004 7.51846,1.27943c0.1252,0.17655 0.23828,0.35805 0.3394,0.5435z" data-paper-data="{&quot;index&quot;:null}" fill="url(#color-21)" stroke-width="0.5"/><path d="M220.85411,150.58182c1.72286,-2.42947 5.08899,-3.0023 7.51846,-1.27944c2.42947,1.72286 3.0023,5.08899 1.27944,7.51847c-0.39008,0.55007 -0.86442,1.00497 -1.39305,1.35958c0.67595,1.65178 0.51803,3.60335 -0.5908,5.16695c-1.72286,2.42947 -5.08898,3.0023 -7.51846,1.27944c-1.12569,-0.79828 -1.85277,-1.94937 -2.13758,-3.1966c-0.98416,-0.05211 -1.96582,-0.37446 -2.8292,-0.98672c-2.42947,-1.72286 -3.0023,-5.08899 -1.27944,-7.51846c1.51685,-2.13898 4.3075,-2.83876 6.61122,-1.79972c0.10112,-0.18545 0.2142,-0.36696 0.3394,-0.54351z" fill="url(#color-22)" stroke-width="0.5"/><path d="M259.44775,149.9603c2.30372,-1.03904 5.09436,-0.33926 6.61122,1.79972c1.72286,2.42947 1.15004,5.7956 -1.27943,7.51846c-0.86338,0.61226 -1.84503,0.9346 -2.8292,0.98672c-0.28481,1.24723 -1.01189,2.39831 -2.13758,3.1966c-2.42948,1.72286 -5.7956,1.15004 -7.51846,-1.27944c-1.10882,-1.5636 -1.26674,-3.51517 -0.59079,-5.16696c-0.52863,-0.35461 -1.00296,-0.80951 -1.39305,-1.35958c-1.72286,-2.42947 -1.15004,-5.7956 1.27944,-7.51846c2.42947,-1.72286 5.7956,-1.15005 7.51846,1.27943c0.1252,0.17655 0.23828,0.35805 0.3394,0.54351z" data-paper-data="{&quot;index&quot;:null}" fill="url(#color-23)" stroke-width="0.5"/><path d="M238.32946,127.28136c1.72286,-2.42947 5.08898,-3.00229 7.51845,-1.27943c2.42947,1.72286 3.0023,5.08898 1.27944,7.51846c-0.39008,0.55007 -0.86442,1.00497 -1.39305,1.35959c0.67595,1.65178 0.51803,3.60335 -0.5908,5.16696c-1.72286,2.42947 -5.08898,3.0023 -7.51845,1.27944c-1.12569,-0.79828 -1.85278,-1.94937 -2.13759,-3.1966c-0.98416,-0.05211 -1.96583,-0.37446 -2.8292,-0.98672c-2.42947,-1.72286 -3.00229,-5.08898 -1.27943,-7.51846c1.51685,-2.13898 4.3075,-2.83876 6.61122,-1.79973c0.10112,-0.18545 0.2142,-0.36695 0.3394,-0.5435z" fill="url(#color-24)" stroke-width="0.5"/><path d="M191.1381,155.69149c-2.48021,-0.48506 -4.35177,-2.67015 -4.35177,-5.29238c0,-2.97835 2.41443,-5.39279 5.39279,-5.39279c1.05844,0 2.04564,0.30492 2.87858,0.83171c0.9538,-0.85263 2.21274,-1.37099 3.59275,-1.37099c2.97835,0 5.39279,2.41443 5.39279,5.39279c0,1.91685 -1.0001,3.60012 -2.50697,4.55649c0.22608,0.59506 0.34985,1.2405 0.34985,1.91485c0,2.97835 -2.41442,5.39278 -5.39278,5.39278c-2.97835,0 -5.39279,-2.41442 -5.39279,-5.39278c0,-0.21643 0.01275,-0.42991 0.03754,-0.63968z" data-paper-data="{&quot;index&quot;:null}" fill="url(#color-25)" stroke-width="0.5"/></g></g></g></svg>