<svg version="1.1" xmlns="http://www.w3.org/2000/svg" xmlns:xlink="http://www.w3.org/1999/xlink" width="108.6301" height="150.67596" viewBox="0,0,108.6301,150.67596"><defs><linearGradient x1="240.4772" y1="86.23726" x2="240.4772" y2="224.04388" gradientUnits="userSpaceOnUse" id="color-1"><stop offset="0" stop-color="#000000"/><stop offset="1" stop-color="#000000" stop-opacity="0"/></linearGradient></defs><g transform="translate(-192.12948,-55.39982)"><g data-paper-data="{&quot;isPaintingLayer&quot;:true}" fill-rule="nonzero" stroke-linecap="butt" stroke-linejoin="miter" stroke-miterlimit="10" stroke-dasharray="" stroke-dashoffset="0" style="mix-blend-mode: normal"><path d="M274.18444,179.77603c0.05844,1.44969 -5.25665,5.44846 -32.94333,5.44846c-27.68668,0 -35.41675,-3.4134 -35.42601,-5.74706c-0.008,-2.01477 7.16641,-4.70193 34.85307,-4.70193c27.68668,0 33.46279,3.67446 33.51626,5.00053z" fill="url(#color-1)" stroke="none" stroke-width="0"/><text transform="translate(229.12801,201.228) scale(0.28942,0.28942)" font-size="40" xml:space="preserve" fill="#000000" fill-rule="nonzero" stroke="#000000" stroke-width="0.5" stroke-linecap="butt" stroke-linejoin="miter" stroke-miterlimit="10" stroke-dasharray="" stroke-dashoffset="0" font-family="Handwriting" font-weight="normal" text-anchor="start" style="mix-blend-mode: normal"></text><text transform="translate(192.28096,66.9123) scale(0.30296,0.30296)" font-size="40" xml:space="preserve" fill="#000000" fill-rule="nonzero" stroke="#000000" stroke-width="1" stroke-linecap="butt" stroke-linejoin="miter" stroke-miterlimit="10" stroke-dasharray="" stroke-dashoffset="0" font-family="Handwriting" font-weight="normal" text-anchor="start" style="mix-blend-mode: normal"></text><g stroke="none" stroke-width="0"><path d="M210.33334,179.05515l7.61333,-11.84188l4.39758,-11.55317l-1.60285,-1.64035l1.07996,-6.28895l3.20302,0.10288c0,0 1.48842,-2.62679 2.14106,-4.69346c0.58632,-1.85669 3.50795,-12.19273 3.50795,-12.19273l-1.58423,-1.31694l0.73135,-7.27014l2.82573,0.24969l5.31662,-24.01178l-1.26096,-1.05363l0.61564,-8.62233l1.97958,-1.00745l1.35179,-7.54524l1.40172,-0.40381l-0.17348,8.00072l2.11689,1.23397l0.50493,8.54656l-1.41459,0.94803l4.54181,23.96896l2.52353,0.0302l1.30928,7.48566l-1.71771,0.7992c0,0 2.40272,9.32059 2.84444,10.993c0.60679,2.29735 1.86878,5.40512 1.86878,5.40512l2.71437,-0.03847l1.50769,7.05226l-1.56378,1.75776l3.6203,11.24298l8.41218,11.24211l-1.22708,0.69943l-12.28803,-0.28972l-4.67216,-11.07854l-4.0466,-5.93473l-7.41377,-3.36424l-7.0644,2.94897l-4.20848,6.84969l-3.13849,9.45692l-1.53916,0.62658zM232.44925,145.35994l14.88304,0.13909l-3.19916,-13.353h-8.48472zM221.18265,176.08241l2.04004,-4.17281l-5.28556,-0.46365l-1.76185,3.89463zM257.94978,176.40697l5.1001,0.46364l-3.06006,-4.54373l-3.43098,0.55638zM252.24694,162.77576l3.8019,-1.48367l-2.41096,-2.59642l-4.17282,1.02003zM255.4461,170.10138l3.70916,-0.64911l-2.59641,-3.52371l-3.43099,1.02002zM226.46822,163.19304l2.87461,-3.06006l-4.63645,-0.55638l-1.66913,3.15279zM237.6752,114.62282l4.88816,0.1987l-1.23197,-3.21903l-2.66266,-0.03974zM223.8718,168.71044l1.66912,-2.59642l-3.89462,-0.37092l-1.29821,2.2255zM243.21909,121.06088l1.86783,-0.03974l-0.59611,-3.13954l-2.9011,0.19871zM237.11883,120.8423l1.23198,-2.9011l-2.58318,-0.43715l-0.59611,2.98058zM238.70847,108.18477l3.06007,-0.19871l-0.6756,-2.74213l-1.94731,0.11922zM248.90206,143.45497l1.86783,-0.27819l-0.75508,-3.21903l-2.0268,0.27819zM247.37203,136.81822l2.10628,-0.1987l-1.07301,-2.98059l-2.18576,0.43716zM250.67385,147.84184l-0.83456,-1.23198l-20.38717,-0.27819l-0.99353,1.15249zM231.07819,143.59407l0.6279,-2.88521l-1.82014,-0.05563l-1.07301,2.82162zM232.46912,136.83808l0.83456,-2.42421l-1.62939,-0.27819l-1.23197,2.58317z" fill="#000000"/><path d="M211.817,178.31332l7.61333,-11.84188l4.39758,-11.55317l-1.60284,-1.64035l1.07996,-6.28896l3.20302,0.10289c0,0 1.48842,-2.62679 2.14106,-4.69346c0.58632,-1.85669 3.50795,-12.19273 3.50795,-12.19273l-1.58424,-1.31694l0.73135,-7.27014l2.82573,0.24969l5.31662,-24.01178l-1.26096,-1.05363l0.61564,-8.62233l1.97958,-1.00745l1.35179,-7.54524l1.22824,7.59691l2.11689,1.23397l0.50493,8.54657l-1.41459,0.94803l4.54181,23.96895l2.52353,0.0302l1.30928,7.48565l-1.71771,0.7992c0,0 2.40272,9.32059 2.84444,10.993c0.60679,2.29735 1.86879,5.40512 1.86879,5.40512l2.71437,-0.03847l1.50768,7.05226l-1.56378,1.75776l3.6203,11.24298l7.18509,11.94154l-12.28804,-0.28972l-4.67216,-11.07853l-4.0466,-5.93474l-7.41377,-3.36423l-7.06439,2.94896l-4.20849,6.84969l-4.67765,10.08351zM233.93292,144.61811l14.88304,0.13909l-3.19916,-13.353h-8.48472zM222.66632,175.34058l2.04004,-4.17281l-5.28556,-0.46365l-1.76185,3.89463zM259.43345,175.66513l5.1001,0.46364l-3.06006,-4.54373l-3.43098,0.55638zM253.7306,162.03393l3.8019,-1.48367l-2.41096,-2.59642l-4.17282,1.02003zM256.92976,169.35955l3.70916,-0.6491l-2.59641,-3.52371l-3.43098,1.02002zM227.95189,162.45121l2.8746,-3.06007l-4.63645,-0.55638l-1.66913,3.15279zM239.15887,113.88099l4.88815,0.19871l-1.23197,-3.21903l-2.66266,-0.03973zM225.35547,167.96861l1.66912,-2.59642l-3.89462,-0.37092l-1.29821,2.2255zM244.70275,120.31905l1.86783,-0.03974l-0.59611,-3.13955l-2.9011,0.19871zM238.6025,120.10047l1.23198,-2.9011l-2.58318,-0.43715l-0.59611,2.98058zM240.19214,107.44293l3.06006,-0.19871l-0.67559,-2.74214l-1.94732,0.11922zM250.38573,142.71315l1.86783,-0.27819l-0.75508,-3.21903l-2.0268,0.27819zM248.8557,136.07637l2.10628,-0.1987l-1.07301,-2.98058l-2.18576,0.43715zM229.13418,147.20598l23.64595,0.19871l-1.15249,-1.86784l-21.49992,-0.11922zM232.56185,142.85224l0.62791,-2.8852l-1.82014,-0.05564l-1.07301,2.82162zM233.95279,136.09625l0.83456,-2.42421l-1.62939,-0.27819l-1.23197,2.58317z" fill="#ff9b00"/></g></g></g></svg>