<svg version="1.1" xmlns="http://www.w3.org/2000/svg" xmlns:xlink="http://www.w3.org/1999/xlink" width="180.59985" height="221.63455" viewBox="0,0,180.59985,221.63455"><defs><linearGradient x1="270.77942" y1="7.06733" x2="270.77942" y2="264.17258" gradientUnits="userSpaceOnUse" id="color-1"><stop offset="0" stop-color="#000000"/><stop offset="1" stop-color="#000000" stop-opacity="0"/></linearGradient></defs><g transform="translate(-177.97986,0.43774)"><g data-paper-data="{&quot;isPaintingLayer&quot;:true}" fill-rule="nonzero" stroke-linecap="butt" stroke-linejoin="miter" stroke-miterlimit="10" stroke-dasharray="" stroke-dashoffset="0" style="mix-blend-mode: normal"><path d="M325.83298,181.58215c0.09545,2.70468 -8.58563,10.16516 -53.80589,10.16516c-45.22026,0 -57.8457,-6.36838 -57.86083,-10.72226c-0.01307,-3.75893 11.70481,-8.77237 56.92507,-8.77237c45.22026,0 54.65432,6.85543 54.74165,9.32947z" fill="url(#color-1)" stroke="none" stroke-width="0"/><text transform="translate(210.03566,43.62879) scale(0.41166,0.41166)" font-size="40" xml:space="preserve" fill="#000000" fill-rule="nonzero" stroke="#000000" stroke-width="1" stroke-linecap="butt" stroke-linejoin="miter" stroke-miterlimit="10" stroke-dasharray="" stroke-dashoffset="0" font-family="Handwriting" font-weight="normal" text-anchor="start" style="mix-blend-mode: normal"></text><text transform="translate(254.9613,213.37425) scale(0.46015,0.46015)" font-size="40" xml:space="preserve" fill="#000000" fill-rule="nonzero" stroke="#000000" stroke-width="1" stroke-linecap="butt" stroke-linejoin="miter" stroke-miterlimit="10" stroke-dasharray="" stroke-dashoffset="0" font-family="Handwriting" font-weight="normal" text-anchor="start" style="mix-blend-mode: normal"></text><text transform="translate(206.4613,18.76182) scale(0.49869,0.49869)" font-size="40" xml:space="preserve" fill="#000000" fill-rule="nonzero" stroke="#000000" stroke-width="2" stroke-linecap="butt" stroke-linejoin="miter" stroke-miterlimit="10" stroke-dasharray="" stroke-dashoffset="0" font-family="Handwriting" font-weight="normal" text-anchor="start" style="mix-blend-mode: normal"></text><g stroke="none" stroke-width="1"><g><path d="M199.04504,104.42735l52.97064,5.08692l3.93618,18.2175c0,0 1.93475,12.6489 2.48656,15.94821c0.27705,1.65081 3.45336,35.40381 3.17746,35.26586c-14.78023,-5.15589 -21.9617,-30.04099 -21.9617,-30.04099l-17.12769,-6.25605c0,0 -2.90156,-10.37962 -8.70237,-13.7479c-5.80081,-3.36829 -13.67433,-2.88776 -13.67433,-2.88776c0,0 -22.2376,-27.90966 -22.16977,-28.52814c4.28221,3.36829 18.99347,5.8422 21.06502,6.94235z" fill="#c8c8be"/><path d="M239.72316,148.90484l9.80597,-15.94821l4.14426,6.87453l-13.95023,9.07369" fill="#f0e6d2"/><path d="M200.21877,126.01313l7.73557,-19.7292l4.21208,1.44388l-11.94765,18.28532" fill="#f0e6d2"/><path d="M222.59547,142.64879l19.54412,-33.27133l6.00889,3.71201c0,0 -22.51465,28.18441 -25.55301,29.55931z" fill="#f0e6d2"/><path d="M178.05014,97.48499c0.34488,-0.4127 4.35003,2.19916 4.35003,1.30593c0,-0.89438 -3.03836,-2.47506 -3.52118,-3.36829c1.38065,0 5.66286,1.92441 5.86979,0.9622c0.20693,-0.9622 -4.97196,-2.26928 -4.62709,-3.30046c0.20693,-0.5495 10.91187,3.23149 38.60541,8.11263c12.08675,2.13018 27.34981,2.81764 30.94112,2.95559l-4.00631,11.34297c-6.76762,0 -26.58878,0.75643 -61.67301,-13.19955c-3.72926,-1.64966 -6.14684,-4.53627 -5.93876,-4.81102z" fill="#828278"/></g><g><path d="M358.49957,97.62179c0.1368,0.61848 -21.48002,28.52929 -21.48002,28.52929c0,0 -7.87237,-0.48168 -13.67433,2.88661c-5.80081,3.36829 -8.70122,13.74905 -8.70122,13.74905l-16.71384,5.43065c0,0 1.58873,27.63491 -19.75104,29.00981c-0.27705,0 5.10991,-19.24752 5.38696,-20.89833c0.62078,-3.29931 -2.21065,-28.59711 -2.21065,-28.59711l3.93733,-18.2175l52.97064,-5.08692c2.00258,-1.10015 16.09191,-3.57406 20.23617,-6.80555z" fill="#c8c8be"/><path d="M337.08967,126.01313l-12.01778,-18.28532l4.28221,-1.44388l7.73557,19.7292" fill="#f0e6d2"/><path d="M289.15997,113.08948l6.00774,-3.71201l19.54527,33.27133c-3.03836,-1.37491 -25.55301,-29.55931 -25.55301,-29.55931z" fill="#f0e6d2"/><path d="M352.55966,102.29601c-35.08423,13.95598 -54.21449,13.19955 -60.98326,13.19955l-4.00516,-11.34297c3.59131,-0.13795 18.85437,-0.8254 30.93997,-2.95559c27.69469,-4.88114 37.70873,-8.66213 37.91566,-8.11263c0.41385,1.03118 -4.76504,2.33826 -4.55811,3.30046c0.20693,0.9622 4.48913,-0.9622 5.86979,-0.9622c-0.48283,0.89323 -3.52233,2.47391 -3.52233,3.36829c0,0.89323 4.00631,-1.71863 4.35118,-1.30593c0.20693,0.27475 -2.20951,3.16136 -6.00774,4.81102z" fill="#828278"/><path d="M297.93016,148.14842l-15.40101,-4.67422l3.66143,-7.28723l11.73958,11.96145" fill="#f0e6d2"/></g><path d="M264.86116,174.29346c0,0 -1.44963,5.77437 -2.27848,10.58654l-1.10475,-0.20578c0.48283,-2.47506 0.89783,-4.67422 0.89783,-4.67422c0,0 -3.93733,-4.46844 -5.11106,-6.394c-3.79823,-6.1181 -10.77392,-23.99072 -10.567,-29.49034l13.74331,10.10486c0.27705,2.20031 4.42016,20.07293 4.42016,20.07293z" fill="#3c3c32"/><path d="M286.54696,172.16328c-3.59131,6.2549 -14.84806,7.01133 -14.84806,7.01133c0,1.37491 -0.13795,2.74981 -0.415,4.05574c-0.2759,0.06898 -0.48283,0.06898 -0.75873,0l0.20693,-8.04251c0,0 4.69606,-1.64966 6.35376,-4.74319c1.38065,-2.54403 1.03578,-5.22487 -1.24385,-7.21825h-0.06898c-0.34488,-0.34373 -4.90299,-4.88114 -5.24786,-5.22487l13.39728,-8.11148c1.10475,2.06236 3.38438,13.95483 3.52233,16.29194c0.13795,1.71863 -0.13795,4.60639 -0.89783,5.9813z" fill="#3c3c32"/><g><g fill="#64645a"><path d="M248.74051,52.56146l-0.48283,-0.20578c-0.06898,-0.27475 -0.06898,-0.48168 -0.06898,-0.68745c-0.13795,-0.61848 -0.20808,-1.2381 -0.34603,-1.92556c-0.13795,-0.27475 -0.06898,-0.61848 0.06898,-0.89323c0.34603,0 0.48398,0.06898 0.55295,0.34373c0.06898,0.48168 0.20693,1.03118 0.2759,1.51286c0.06898,0.41155 0.13795,0.82425 0.13795,1.23695c-0.06898,0.27475 -0.13795,0.48168 -0.13795,0.61848z"/><path d="M247.84268,53.45583l-0.5518,-0.06898c-0.06898,-0.20693 -0.13795,-0.48168 -0.20808,-0.68745c-0.2759,-0.61848 -0.48283,-1.16913 -0.75873,-1.78761c-0.20808,-0.48168 -0.20808,-0.48168 -0.06898,-0.89323c0.34488,-0.06898 0.48283,0 0.62078,0.20578c0.20693,0.48168 0.415,0.9622 0.62193,1.44388c0.20693,0.48053 0.2759,0.82425 0.41385,1.16798c-0.06898,0.20693 -0.06898,0.4127 -0.06898,0.61963z"/><path d="M249.22449,52.49248c0,-0.41155 0,-0.82425 0.06898,-1.23695c0.06898,-0.5495 0.13795,-1.03118 0.20693,-1.58068c0,-0.2759 0.06898,-0.34373 0.48398,-0.4127c0.20693,0.4127 0.20693,0.4127 0.13795,0.89323c-0.13795,0.61848 -0.20693,1.30593 -0.27705,1.92556c-0.06898,0.20578 -0.06898,0.41155 -0.06898,0.68745l-0.48283,0.20578c0,-0.13795 -0.06898,-0.34373 -0.06898,-0.48168z"/></g><path d="M248.95318,118.34999c0,0 -4.97196,-17.32427 -6.07786,-26.1232c-0.89783,-7.21825 -0.75873,-14.50433 -0.41385,-21.72258c0.20693,-4.67537 0.6909,-17.39209 6.28479,-19.24867c7.04467,1.92441 10.35892,20.27985 11.46368,26.05423c1.45078,7.493 4.48913,26.6727 4.97311,34.30251c-3.24643,1.99453 -16.22986,6.73773 -16.22986,6.73773z" fill="#64645a"/><path d="M249.64409,106.31957c0,0 -3.03951,-17.04837 -3.45336,-30.72844c-0.2759,-9.41856 1.2427,-15.88039 2.62451,-16.29309c3.45336,-1.03118 6.56069,13.74905 7.25159,17.46107c0.9668,4.88114 3.17631,20.5546 3.52233,25.50472c-2.14168,1.30593 -9.94507,4.05574 -9.94507,4.05574z" fill="#3c3c32"/></g><g><g fill="#64645a"><path d="M284.04431,52.47984l-0.415,-0.2759c0,-0.27475 0.06898,-0.48053 0.06898,-0.68745c0,-0.61848 0.06898,-1.30593 0.06898,-1.92441c0,-0.48168 0,-0.48168 0.27705,-0.8254c0.34488,0.13795 0.41385,0.20693 0.41385,0.48168c0,0.5495 -0.06898,1.03118 -0.06898,1.58068c0,0.55065 -0.06898,0.8254 -0.13795,1.2381c-0.06898,0.06898 -0.13795,0.20578 -0.20693,0.4127z"/><path d="M282.93841,53.09831l-0.48283,-0.20693c0,-0.27475 -0.06898,-0.48053 -0.06898,-0.68745c-0.13795,-0.61848 -0.20693,-1.30593 -0.34603,-1.92441c-0.13795,-0.27475 -0.06898,-0.61848 0.06898,-0.89323c0.415,0 0.48398,0.06783 0.55295,0.34373c0.06898,0.5495 0.20693,1.03118 0.2759,1.51171c0.06898,0.48168 0.1391,0.8254 0.1391,1.2381c0,0.27475 -0.07012,0.41155 -0.1391,0.61848z"/><path d="M284.59611,52.47984c0.06898,-0.4127 0.13795,-0.68745 0.34603,-1.2381c0.20693,-0.5495 0.34488,-1.03118 0.5518,-1.51171c0.06898,-0.2759 0.20693,-0.2759 0.55295,-0.2759c0.13795,0.2759 0.13795,0.61963 -0.06898,0.89438c-0.27705,0.5495 -0.48398,1.16798 -0.6909,1.78761c-0.06898,0.20578 -0.13795,0.48053 -0.20693,0.68745l-0.55295,0.1368c0,-0.20578 0,-0.4127 0.06898,-0.48053z"/></g><path d="M290.75559,127.13513c-2.69348,-4.53627 -17.54269,-16.15514 -18.44052,-17.32312c-1.03578,-7.21825 1.51975,-59.39453 11.04982,-58.57028c8.08044,0.68745 7.80454,16.01719 8.49544,21.44783c0.9668,7.7689 0.06898,45.16495 -1.10475,54.44556z" fill="#64645a"/><path d="M276.39036,114.21148c0.9668,-12.92365 2.62451,-51.83255 6.69864,-55.40776c4.07528,-3.57521 5.24901,15.19293 5.38696,20.41665c0.13795,4.88114 -0.89783,22.20426 -2.00258,36.22807z" fill="#3c3c32"/></g><path d="M284.4754,157.51984c-7.73557,7.28723 -20.02809,6.394 -28.45341,0.61963c-8.08044,-5.49962 -12.84663,-18.14852 -13.39843,-27.56708c-0.55295,-8.86791 -2.27963,-21.79156 3.03836,-29.49149c5.80196,-8.31726 9.66917,-10.65437 21.06387,-10.93027c7.59762,-0.27475 14.98716,2.54403 20.51207,7.69993c4.48913,4.26152 7.18262,10.99924 7.73442,17.04837c1.24385,13.68008 -3.45221,35.95331 -10.49687,42.62092z" fill="#64645a"/><g><path d="M258.88906,121.66195c0.06898,-0.27475 0,-0.5495 1.1059,-0.61848c3.38323,-0.34373 10.28995,-0.13795 12.70753,-0.20693c2.41643,-0.06783 5.10991,0.34373 5.10991,1.03118c0,0.68745 -0.82885,1.16913 -2.27848,1.16913c-2.62451,0.06898 -5.24901,0.06898 -7.80454,0c-2.14053,0 -4.21208,-0.06898 -6.28479,-0.20578c-0.75988,-0.06898 -2.83143,-0.06898 -2.55553,-1.16913z" fill="#000000"/><path d="M273.11634,120.76872c1.2427,0 1.86463,0.06783 1.86463,0.06783c-0.41385,0.89438 -1.79565,3.57521 -2.20951,3.57521c-0.48398,0 -1.79565,-2.74981 -2.21065,-3.64304c0,0 2.21065,0 2.55553,0z" fill="#ffffff"/><path d="M276.63867,114.78742c-3.79823,3.98677 -14.01921,2.95559 -17.26564,0.27475c-2.76246,-2.26813 -2.14053,-6.94235 0.6909,-9.14266c2.83143,-2.20031 7.32057,-1.78761 10.63482,-1.92441c3.38438,0.41155 5.59504,0.27475 6.90672,3.78099c0.9668,2.54289 0.48398,5.56745 -0.9668,7.01133z" fill="#f01446"/><path d="M274.01417,107.36339c1.79565,-0.13795 1.86463,2.26813 1.79565,3.36829c-0.06898,1.10015 -0.13795,2.95559 -1.72668,2.81879c-1.58873,-0.13795 -1.86463,-1.85658 -1.79565,-2.81879c0.06898,-0.9622 -0.13795,-3.29931 1.72668,-3.36829z" fill="#6e1e3c"/><path d="M261.79062,107.36339c1.79565,-0.13795 1.9336,2.26813 1.79565,3.36829c-0.1391,1.10015 -0.1391,2.95559 -1.72668,2.81879c-1.58873,-0.13795 -1.86463,-1.85658 -1.79565,-2.81879c0.06898,-0.9622 -0.06898,-3.29931 1.72668,-3.36829z" fill="#6e1e3c"/><path d="M249.84182,111.28118c-0.41385,0 -0.68975,-0.27475 -0.75873,-0.68745c-0.1391,-0.61848 -0.1391,-1.23695 -0.1391,-1.85543c0.07012,-0.61848 0.55295,-0.8254 1.1059,-1.03118c0.41385,0.61848 0.48283,1.44388 0.2759,2.13133c0,0.5495 0,1.099 -0.48398,1.44273z" fill="#000000"/><path d="M286.58375,111.48811c-0.9668,-0.4127 -0.82885,-1.16913 -0.75988,-1.99338c0,-0.89438 0.13795,-0.96335 0.9668,-1.30708c0.89783,0.8254 0.9668,2.13133 0.13795,3.02456c-0.13795,0.06898 -0.20693,0.13795 -0.34488,0.2759z" fill="#000000"/><path d="M264.41397,120.76872h1.51975c-0.62193,1.099 -1.6577,2.95559 -2.00258,2.95559c-0.34488,0 -1.31168,-1.71863 -1.86463,-2.88776c0.06898,0 2.27848,-0.06783 2.34746,-0.06783z" fill="#ffffff"/></g></g></g></g></svg>